<svg xmlns="http://www.w3.org/2000/svg" width="417.063" height="170.375" viewBox="0 0 417.063 170.375">
  <path id="パス_57199" data-name="パス 57199" d="M-134.312-41.469h33.906v11.656h-4.156l-3.25-8.656H-113.5V-3.125h5.438V0h-18.562V-3.125h5.438V-38.469h-5.781l-3.187,8.656h-4.156Zm72.875,3V-3.125h4.375V0H-73.406V-3.125h4.219V-20.281H-85.625V-3.125h4.281V0H-97.656V-3.125h4.344V-38.469h-4.344v-3h16.313v3h-4.281v14.844h16.438V-38.469h-4.219v-3h16.344v3Zm12.75,0h-5.437v-3h32.969v11.656h-4.5l-3.25-8.656H-41V-23.75h6.719v-4.344h3.844v12.156h-3.844v-4.406H-41V-3.125h12.656l3.219-8.531h4.469V0H-54.125V-3.125h5.438Zm85.781-3v3.063h-5.25V0h-4.75L7.125-31.5V-3.125h5.25V0H-1.375V-3.125h5V-38.406H-1.25v-3.062H10.094L28.188-13.125V-38.406H23.281v-3.062Zm8.063,3H39.719v-3H72.688v11.656h-4.5l-3.25-8.656H52.844V-23.75h6.719v-4.344h3.844v12.156H59.563v-4.406H52.844V-3.125H65.5l3.219-8.531h4.469V0H39.719V-3.125h5.438Zm91.344-3v3h-5.875L118.719,0h-4.344l-9.281-28.687L96.813,0H92.406L80-38.469H74.5v-3H92.844v3H87.875l8.438,26.938,8.563-29.687h4.094l9.5,29.813,8.313-27.062H120.5v-3Zm-283.969,67V60.875h5V64h-17.219V60.875h4.531V33.469L-166.656,64h-3.969l-12.219-30.656V60.875h4.719V64h-13.312V60.875h5V25.531h-5v-3h12.344l12.438,31.281,11.906-31.281h12.156v3Zm21.313,0V60.875h6.219V64h-20.094V60.875h6.219V25.531h-6.219v-3h20.094v3Zm47.313-3v3.063h-5.25V64h-4.75l-19.969-31.5V60.875h5.25V64h-13.75V60.875h5V25.594h-4.875V22.531h11.344L-87.75,50.875V25.594h-4.906V22.531Zm16.188,3V60.875h6.219V64H-76.531V60.875h6.219V25.531h-6.219v-3h20.094v3Zm44.5,35.594a12.661,12.661,0,0,0,3.656-.516,9.468,9.468,0,0,0,3.109-1.594A9.306,9.306,0,0,0-9.031,56.25a13.3,13.3,0,0,0,1.438-4.031h3.313a15.922,15.922,0,0,1-1.766,5.359A13.932,13.932,0,0,1-9.234,61.5a13.044,13.044,0,0,1-4.328,2.406,16.3,16.3,0,0,1-5.187.813,20.784,20.784,0,0,1-6.234-.859,16.492,16.492,0,0,1-4.8-2.359A15.787,15.787,0,0,1-33.3,58a19.514,19.514,0,0,1-2.359-4.281A22.974,22.974,0,0,1-36.969,49a29.054,29.054,0,0,1-.406-4.781,33.022,33.022,0,0,1,.453-5.437,27.507,27.507,0,0,1,1.391-5.2,20.9,20.9,0,0,1,2.422-4.609,16.174,16.174,0,0,1,3.563-3.687,16.5,16.5,0,0,1,4.766-2.453,19.111,19.111,0,0,1,6.031-.891,21.744,21.744,0,0,1,4.563.438,18.841,18.841,0,0,1,3.656,1.156,14.209,14.209,0,0,1,2.859,1.656,21.8,21.8,0,0,1,2.234,1.938v7.188h-5.5a14.358,14.358,0,0,0-1.047-4.453,9.3,9.3,0,0,0-1.906-2.891,6.91,6.91,0,0,0-2.375-1.578,6.921,6.921,0,0,0-2.484-.484,9.489,9.489,0,0,0-5.078,1.266,9.66,9.66,0,0,0-3.3,3.406,15.42,15.42,0,0,0-1.781,4.938,31.352,31.352,0,0,0-.531,5.859,36.892,36.892,0,0,0,.344,5.031,36.769,36.769,0,0,0,.984,4.813,24.965,24.965,0,0,0,1.609,4.3,16.391,16.391,0,0,0,2.219,3.453,9.9,9.9,0,0,0,2.8,2.313A6.842,6.842,0,0,0-18.156,61.125Zm36.5-39.187a20.75,20.75,0,0,1,6.156.844,17.2,17.2,0,0,1,4.8,2.3A15.391,15.391,0,0,1,32.844,28.5a19.851,19.851,0,0,1,2.406,4.2,21.634,21.634,0,0,1,1.359,4.625,27.2,27.2,0,0,1,.422,4.734,33.3,33.3,0,0,1-.453,5.453,26.726,26.726,0,0,1-1.422,5.25,23.18,23.18,0,0,1-2.453,4.7A16.187,16.187,0,0,1,24.375,63.8a18.515,18.515,0,0,1-6.031.922,20.784,20.784,0,0,1-6.234-.859,16.979,16.979,0,0,1-4.8-2.328A15.374,15.374,0,0,1,3.8,58.078a19.43,19.43,0,0,1-2.359-4.234A22.412,22.412,0,0,1,.125,49.188a28.316,28.316,0,0,1-.406-4.719,32.221,32.221,0,0,1,.469-5.453,27.5,27.5,0,0,1,1.438-5.25,21.974,21.974,0,0,1,2.469-4.672,16.921,16.921,0,0,1,3.563-3.75,16.164,16.164,0,0,1,4.734-2.5A18.454,18.454,0,0,1,18.344,21.938ZM29.156,46.031a47.369,47.369,0,0,0-.281-5.141,38.089,38.089,0,0,0-.859-4.937,26.8,26.8,0,0,0-1.469-4.391,15.658,15.658,0,0,0-2.109-3.547,9.421,9.421,0,0,0-2.766-2.375,6.926,6.926,0,0,0-3.422-.859,9.372,9.372,0,0,0-5,1.25,9.574,9.574,0,0,0-3.281,3.391,15.686,15.686,0,0,0-1.8,4.938,30.653,30.653,0,0,0-.547,5.891,42.935,42.935,0,0,0,.25,5.156,41.089,41.089,0,0,0,.844,4.984,28.6,28.6,0,0,0,1.438,4.484A15.863,15.863,0,0,0,12.219,58.5a9.459,9.459,0,0,0,2.719,2.422,6.651,6.651,0,0,0,3.406.891,9.749,9.749,0,0,0,5.109-1.25A9.568,9.568,0,0,0,26.8,57.172a15.454,15.454,0,0,0,1.813-5.016A32.758,32.758,0,0,0,29.156,46.031ZM59.75,21.938a20.75,20.75,0,0,1,6.156.844,17.2,17.2,0,0,1,4.8,2.3A15.391,15.391,0,0,1,74.25,28.5a19.851,19.851,0,0,1,2.406,4.2,21.634,21.634,0,0,1,1.359,4.625,27.2,27.2,0,0,1,.422,4.734,33.3,33.3,0,0,1-.453,5.453,26.726,26.726,0,0,1-1.422,5.25,23.18,23.18,0,0,1-2.453,4.7A16.187,16.187,0,0,1,65.781,63.8a18.515,18.515,0,0,1-6.031.922,20.784,20.784,0,0,1-6.234-.859,16.979,16.979,0,0,1-4.8-2.328A15.374,15.374,0,0,1,45.2,58.078a19.43,19.43,0,0,1-2.359-4.234,22.412,22.412,0,0,1-1.312-4.656,28.317,28.317,0,0,1-.406-4.719,32.221,32.221,0,0,1,.469-5.453,27.5,27.5,0,0,1,1.438-5.25A21.974,21.974,0,0,1,45.5,29.094a16.921,16.921,0,0,1,3.563-3.75,16.164,16.164,0,0,1,4.734-2.5A18.454,18.454,0,0,1,59.75,21.938ZM70.563,46.031a47.369,47.369,0,0,0-.281-5.141,38.09,38.09,0,0,0-.859-4.937,26.8,26.8,0,0,0-1.469-4.391,15.658,15.658,0,0,0-2.109-3.547,9.421,9.421,0,0,0-2.766-2.375,6.926,6.926,0,0,0-3.422-.859,9.372,9.372,0,0,0-5,1.25,9.574,9.574,0,0,0-3.281,3.391,15.686,15.686,0,0,0-1.8,4.938,30.653,30.653,0,0,0-.547,5.891,42.935,42.935,0,0,0,.25,5.156,41.089,41.089,0,0,0,.844,4.984,28.6,28.6,0,0,0,1.438,4.484A15.863,15.863,0,0,0,53.625,58.5a9.459,9.459,0,0,0,2.719,2.422,6.651,6.651,0,0,0,3.406.891,9.749,9.749,0,0,0,5.109-1.25A9.568,9.568,0,0,0,68.2,57.172a15.454,15.454,0,0,0,1.813-5.016A32.758,32.758,0,0,0,70.563,46.031Zm30.594-23.5a17.971,17.971,0,0,1,5.984.891,12.012,12.012,0,0,1,4.156,2.391,9.421,9.421,0,0,1,2.438,3.5,11.292,11.292,0,0,1,.8,4.219,11.152,11.152,0,0,1-.922,4.516,10.77,10.77,0,0,1-2.656,3.688,12.627,12.627,0,0,1-4.2,2.484,16.157,16.157,0,0,1-5.594.906H94.625v15.75h4.906V64H81.938V60.875h4.938V25.531H81.938v-3ZM94.625,41.844h5.813a4.287,4.287,0,0,0,2.234-.625A6.076,6.076,0,0,0,104.5,39.5a8.807,8.807,0,0,0,1.234-2.594,11.191,11.191,0,0,0,.453-3.25,12.35,12.35,0,0,0-.406-3.266,8.272,8.272,0,0,0-1.156-2.562,5.583,5.583,0,0,0-1.812-1.687,4.688,4.688,0,0,0-2.375-.609H94.625Zm29.219-16.312h-5.437v-3h32.969V34.188h-4.5l-3.25-8.656H131.531V40.25h6.719V35.906h3.844V48.063H138.25V43.656h-6.719V60.875h12.656l3.219-8.531h4.469V64H118.406V60.875h5.438Zm47.5,19.594H167.5v15.75h4.875V64H154.969V60.875h4.875V25.594h-4.875V22.531h19a18.328,18.328,0,0,1,6.063.891,11.992,11.992,0,0,1,4.172,2.391,9.261,9.261,0,0,1,2.422,3.5,11.491,11.491,0,0,1,.781,4.219,11.84,11.84,0,0,1-.547,3.641,10.587,10.587,0,0,1-1.578,3.094,10.079,10.079,0,0,1-2.531,2.391,12.447,12.447,0,0,1-3.406,1.563l10.688,16.656h4.875V64H183.188ZM167.5,41.844h5.969a4.232,4.232,0,0,0,2.188-.609,6.032,6.032,0,0,0,1.813-1.687,8.589,8.589,0,0,0,1.234-2.578,11.422,11.422,0,0,0,.453-3.312,11.75,11.75,0,0,0-.422-3.25,8.563,8.563,0,0,0-1.172-2.547,5.476,5.476,0,0,0-1.8-1.672,4.575,4.575,0,0,0-2.3-.594H167.5Zm-357.344,83.281a12.661,12.661,0,0,0,3.656-.516,9.468,9.468,0,0,0,3.109-1.594,9.306,9.306,0,0,0,2.359-2.766,13.3,13.3,0,0,0,1.438-4.031h3.313a15.922,15.922,0,0,1-1.766,5.359,13.932,13.932,0,0,1-3.187,3.922,13.044,13.044,0,0,1-4.328,2.406,16.3,16.3,0,0,1-5.187.813,20.783,20.783,0,0,1-6.234-.859,16.491,16.491,0,0,1-4.8-2.359,15.786,15.786,0,0,1-3.516-3.5,19.514,19.514,0,0,1-2.359-4.281A22.973,22.973,0,0,1-208.656,113a29.055,29.055,0,0,1-.406-4.781,33.022,33.022,0,0,1,.453-5.437,27.507,27.507,0,0,1,1.391-5.2,20.9,20.9,0,0,1,2.422-4.609,16.174,16.174,0,0,1,3.563-3.687,16.5,16.5,0,0,1,4.766-2.453,19.111,19.111,0,0,1,6.031-.891,21.744,21.744,0,0,1,4.563.438,18.841,18.841,0,0,1,3.656,1.156,14.209,14.209,0,0,1,2.859,1.656,21.8,21.8,0,0,1,2.234,1.938v7.188h-5.5a14.358,14.358,0,0,0-1.047-4.453,9.3,9.3,0,0,0-1.906-2.891,6.91,6.91,0,0,0-2.375-1.578,6.921,6.921,0,0,0-2.484-.484,9.489,9.489,0,0,0-5.078,1.266,9.66,9.66,0,0,0-3.3,3.406,15.42,15.42,0,0,0-1.781,4.938,31.352,31.352,0,0,0-.531,5.859,36.891,36.891,0,0,0,.344,5.031,36.771,36.771,0,0,0,.984,4.813,24.965,24.965,0,0,0,1.609,4.3,16.391,16.391,0,0,0,2.219,3.453,9.9,9.9,0,0,0,2.8,2.313A6.842,6.842,0,0,0-189.844,125.125Zm36.5-39.187a20.75,20.75,0,0,1,6.156.844,17.2,17.2,0,0,1,4.8,2.3,15.391,15.391,0,0,1,3.547,3.422,19.851,19.851,0,0,1,2.406,4.2,21.634,21.634,0,0,1,1.359,4.625,27.2,27.2,0,0,1,.422,4.734,33.3,33.3,0,0,1-.453,5.453,26.726,26.726,0,0,1-1.422,5.25,23.18,23.18,0,0,1-2.453,4.7,16.461,16.461,0,0,1-3.562,3.8,16.409,16.409,0,0,1-4.766,2.531,18.515,18.515,0,0,1-6.031.922,20.783,20.783,0,0,1-6.234-.859,16.979,16.979,0,0,1-4.8-2.328,15.374,15.374,0,0,1-3.516-3.453,19.43,19.43,0,0,1-2.359-4.234,22.412,22.412,0,0,1-1.312-4.656,28.317,28.317,0,0,1-.406-4.719,32.221,32.221,0,0,1,.469-5.453,27.5,27.5,0,0,1,1.438-5.25,21.974,21.974,0,0,1,2.469-4.672,16.921,16.921,0,0,1,3.563-3.75,16.164,16.164,0,0,1,4.734-2.5A18.454,18.454,0,0,1-153.344,85.938Zm10.813,24.094a47.369,47.369,0,0,0-.281-5.141,38.088,38.088,0,0,0-.859-4.937,26.8,26.8,0,0,0-1.469-4.391,15.658,15.658,0,0,0-2.109-3.547,9.421,9.421,0,0,0-2.766-2.375,6.926,6.926,0,0,0-3.422-.859,9.372,9.372,0,0,0-5,1.25,9.574,9.574,0,0,0-3.281,3.391,15.686,15.686,0,0,0-1.8,4.938,30.653,30.653,0,0,0-.547,5.891,42.936,42.936,0,0,0,.25,5.156,41.089,41.089,0,0,0,.844,4.984,28.6,28.6,0,0,0,1.438,4.484,15.863,15.863,0,0,0,2.063,3.625,9.459,9.459,0,0,0,2.719,2.422,6.651,6.651,0,0,0,3.406.891,9.749,9.749,0,0,0,5.109-1.25,9.568,9.568,0,0,0,3.344-3.391,15.454,15.454,0,0,0,1.813-5.016A32.758,32.758,0,0,0-142.531,110.031Zm49.844-23.5v3.063h-5.25V128h-4.75l-19.969-31.5v28.375h5.25V128h-13.75v-3.125h5V89.594h-4.875V86.531h11.344l18.094,28.344V89.594H-106.5V86.531ZM-72.781,128-86.469,89.531h-5.562v-3h18.625v3h-4.875l9.969,28.625,10.25-28.625h-6.156v-3h16v3h-6.062L-68.031,128Zm30.469-38.469H-47.75v-3h32.969V98.188h-4.5l-3.25-8.656H-34.625V104.25h6.719V99.906h3.844v12.156h-3.844v-4.406h-6.719v17.219h12.656l3.219-8.531h4.469V128H-47.75v-3.125h5.438Zm47.5,19.594H1.344v15.75H6.219V128H-11.187v-3.125h4.875V89.594h-4.875V86.531h19a18.328,18.328,0,0,1,6.063.891,11.992,11.992,0,0,1,4.172,2.391,9.261,9.261,0,0,1,2.422,3.5,11.491,11.491,0,0,1,.781,4.219,11.84,11.84,0,0,1-.547,3.641,10.587,10.587,0,0,1-1.578,3.094,10.079,10.079,0,0,1-2.531,2.391,12.447,12.447,0,0,1-3.406,1.563l10.688,16.656H28.75V128H17.031Zm-3.844-3.281H7.313a4.232,4.232,0,0,0,2.188-.609,6.032,6.032,0,0,0,1.813-1.687,8.589,8.589,0,0,0,1.234-2.578A11.422,11.422,0,0,0,13,97.656a11.75,11.75,0,0,0-.422-3.25,8.563,8.563,0,0,0-1.172-2.547,5.476,5.476,0,0,0-1.8-1.672,4.575,4.575,0,0,0-2.3-.594H1.344ZM28.031,86.531H61.938V98.188H57.781l-3.25-8.656H48.844v35.344h5.438V128H35.719v-3.125h5.438V89.531H35.375l-3.187,8.656H28.031Zm50.219,3v35.344h6.219V128H64.375v-3.125h6.219V89.531H64.375v-3H84.469v3Zm29.594-3a12.935,12.935,0,0,1,4.656.813,11.309,11.309,0,0,1,3.656,2.219,10.115,10.115,0,0,1,2.391,3.3,9.664,9.664,0,0,1,.859,4.047,7.419,7.419,0,0,1-.391,2.359,11.343,11.343,0,0,1-2.672,4.344,12.383,12.383,0,0,1-2.031,1.672,12.389,12.389,0,0,1,2.984,1.641,10.868,10.868,0,0,1,3.875,5.406,11.44,11.44,0,0,1,.547,3.578,11.7,11.7,0,0,1-.984,4.828,11.256,11.256,0,0,1-2.8,3.828,12.944,12.944,0,0,1-4.359,2.531,16.828,16.828,0,0,1-5.672.906H87.094v-3.125h5.5V89.531h-5.5v-3Zm-.906,38.344a5.488,5.488,0,0,0,2.453-.594,6.638,6.638,0,0,0,2.156-1.734,8.874,8.874,0,0,0,1.531-2.8,11.443,11.443,0,0,0,.578-3.781,9.915,9.915,0,0,0-.5-3.156,8.951,8.951,0,0,0-1.391-2.656,6.66,6.66,0,0,0-2.141-1.828,5.716,5.716,0,0,0-2.75-.672h-6.594v17.219Zm-.844-20.625a4.754,4.754,0,0,0,2.156-.5,5.223,5.223,0,0,0,1.75-1.437,6.957,6.957,0,0,0,1.172-2.266,9.95,9.95,0,0,0,.422-3.016,9.8,9.8,0,0,0-.469-3.141,7.572,7.572,0,0,0-1.25-2.359,5.626,5.626,0,0,0-1.766-1.484,4.3,4.3,0,0,0-2.016-.516h-5.812V104.25Zm48.5,12.094h4.25V128H124.906v-3.125h5.5V89.531h-5.5v-3h18.875v3h-5.687v35.344h13.313Zm12.438-26.812h-5.437v-3h32.969V98.188h-4.5l-3.25-8.656H174.719V104.25h6.719V99.906h3.844v12.156h-3.844v-4.406h-6.719v17.219h12.656l3.219-8.531h4.469V128H161.594v-3.125h5.438Zm32.469,35a4.122,4.122,0,0,1,1.172-3.047,4.2,4.2,0,0,1,3.109-1.172,4.1,4.1,0,0,1,3.078,1.172A4.184,4.184,0,0,1,208,124.531a4.93,4.93,0,0,1-.3,1.734,4.185,4.185,0,0,1-.844,1.391,3.758,3.758,0,0,1-1.328.922,4.831,4.831,0,0,1-3.5,0,3.916,3.916,0,0,1-1.344-.922,4.26,4.26,0,0,1-.875-1.391A4.71,4.71,0,0,1,199.5,124.531Z" transform="translate(209.063 41.469)"/>
</svg>
