<svg xmlns="http://www.w3.org/2000/svg" width="579.705" height="218.905" viewBox="0 0 579.705 218.905">
  <g id="door03-txt03" transform="translate(-1142 -3783.681)">
    <g id="text" transform="translate(1127 3537)">
      <g id="グループ_718" data-name="グループ 718" transform="translate(0 51.68)">
        <g id="price" transform="translate(-13 -1874.19)">
          <path id="パス_30944" data-name="パス 30944" d="M1.284-9.348V.8H2.34v-4.86H9.672V-.444c0,.468-.2.672-.672.672H7.452v.5H9.564c.816,0,1.164-.348,1.164-1.152V-9.348Zm1.056.48H5.424v4.332H2.34Zm4.128,0h3.2v4.332h-3.2Zm8.976-.288a10.473,10.473,0,0,0-1.716,5.664,10.473,10.473,0,0,0,1.716,5.664h.66A13.63,13.63,0,0,1,15.252.216a11.765,11.765,0,0,1-.588-3.708A11.765,11.765,0,0,1,15.252-7.2,13.63,13.63,0,0,1,16.1-9.156ZM19.86.888h.888V-4.68a13.766,13.766,0,0,1,.9,2.076l.8-.708a7.494,7.494,0,0,0-1.7-1.752v-1.32h1l.468.1V-6.96l-.468.1h-1V-8.988c.312-.072.36-.084.816-.216a1.541,1.541,0,0,0,.3.048c.156,0,.264-.072.264-.18,0-.072-.024-.108-.12-.192l-.624-.552a14.34,14.34,0,0,1-3.312,1.092l.036.324A14.363,14.363,0,0,0,19.86-8.82v1.956H18.552l-.48-.1v.672l.48-.1H19.74A20.678,20.678,0,0,1,18-1.44l.24.2A10.165,10.165,0,0,0,19.86-4.08ZM22.668-7.44V-3.6h1.248v.036c-.1,2.3-.8,3.528-2.46,4.2l.156.324c2.2-.5,3.216-1.92,3.264-4.56h.936V-.108c.036.444.384.7.96.7h1.236c.6,0,.852-.228.9-.84l.132-1.464-.5-.06-.084,1.1c-.036.288-.132.372-.4.384h-.948c-.276-.012-.336-.072-.348-.324V-3.6h1.572V-7.44H26.5a8.222,8.222,0,0,0,1.272-1.908c.24-.024.372-.108.372-.228a.24.24,0,0,0-.192-.216l-1.1-.288a20.355,20.355,0,0,1-.792,2.64Zm.948,3.36V-6.96h3.756v2.88ZM22.872-9.8a9.122,9.122,0,0,1,1.068,2.2l.984-.528a5.367,5.367,0,0,0-1.752-1.872ZM33.288-.768c.7.924,1.38,1.236,2.952,1.32.624.036,2.136.072,3.312.072.5,0,1.2-.012,2.148-.024a7.715,7.715,0,0,1,.288-.948c-.78.048-2.76.1-4.248.1a10.164,10.164,0,0,1-3.3-.276,2.121,2.121,0,0,1-.816-.552V-5.52H31.512l-.48-.1v.672l.48-.1h1.152v4.008a13.136,13.136,0,0,1-1.7.648L31.344.66a.207.207,0,0,0,.168.132c.12,0,.216-.132.276-.4a11.963,11.963,0,0,0,1.464-1.14ZM36.1-9.624l-.48-.1v.7l.48-.1h1.956c.012.324.012.468.024.624-.612,3.18-1.9,5.484-3.864,6.96l.156.288a7.81,7.81,0,0,0,4.008-4.908A7.8,7.8,0,0,0,41.34-1.368c.3-.516.348-.588.648-1.068a6.969,6.969,0,0,1-2.76-3.312A10.237,10.237,0,0,1,38.6-9.624ZM34.068-8.8a5.508,5.508,0,0,0-2.4-.888l-.144.3a8.406,8.406,0,0,1,1.884,1.668Zm9.828-.36A14.236,14.236,0,0,1,44.748-7.2a11.82,11.82,0,0,1,.588,3.708A11.765,11.765,0,0,1,44.748.216,13.63,13.63,0,0,1,43.9,2.172h.66a10.5,10.5,0,0,0,1.716-5.664,10.5,10.5,0,0,0-1.716-5.664Z" transform="translate(448.272 2282)" fill="#111"/>
          <path id="パス_30943" data-name="パス 30943" d="M8.448-13.472a6.7,6.7,0,0,1,3.12.752,5.928,5.928,0,0,1,2.368,2.256,6.781,6.781,0,0,1,.912,3.584,7.15,7.15,0,0,1-1.056,3.968A6.821,6.821,0,0,1,11.12-.464,7.332,7.332,0,0,1,7.776.352a7.355,7.355,0,0,1-3.744-.96A6.807,6.807,0,0,1,1.44-3.232l1.024-.64A5.517,5.517,0,0,0,4.576-1.728a5.849,5.849,0,0,0,2.912.736,4.149,4.149,0,0,0,2.256-.656,4.7,4.7,0,0,0,1.68-1.936,6.726,6.726,0,0,0,.64-3.04,6.425,6.425,0,0,0-.64-2.992,4.309,4.309,0,0,0-1.68-1.824,4.483,4.483,0,0,0-2.256-.592,3.664,3.664,0,0,0-1.92.48,5.98,5.98,0,0,0-1.44,1.216H2.88l.768-10.4H13.824v2.56H4.64l-.448,6.208a5.645,5.645,0,0,1,1.84-1.088A6.8,6.8,0,0,1,8.448-13.472ZM20.128-3.264a1.852,1.852,0,0,1,1.424.656,2.65,2.65,0,0,1,.592,1.84,4.811,4.811,0,0,1-.9,2.88A6.243,6.243,0,0,1,18.816,4.1l-.48-.768a4.666,4.666,0,0,0,1.456-1.2A2.494,2.494,0,0,0,20.48.544a.971.971,0,0,0-.032-.288,1.988,1.988,0,0,1-.384.032,1.688,1.688,0,0,1-1.3-.5A1.777,1.777,0,0,1,18.3-1.472a1.71,1.71,0,0,1,.528-1.28A1.791,1.791,0,0,1,20.128-3.264ZM33.888-11.2q4.48,1.44,4.48,5.312a5.5,5.5,0,0,1-1.04,3.36A6.648,6.648,0,0,1,34.64-.384,8.346,8.346,0,0,1,31.2.352,6.921,6.921,0,0,1,27.5-.64,7.307,7.307,0,0,1,24.96-3.232l1.024-.64A5.14,5.14,0,0,0,28.16-1.728a6.055,6.055,0,0,0,2.784.7,4.968,4.968,0,0,0,2.224-.512,4.122,4.122,0,0,0,1.7-1.568,4.758,4.758,0,0,0,.656-2.56,4.542,4.542,0,0,0-1.3-3.408,4.425,4.425,0,0,0-3.216-1.264h-.8v-.992a5.423,5.423,0,0,0,2.208-.48,4.171,4.171,0,0,0,1.792-1.52,4.551,4.551,0,0,0,.7-2.608,4.755,4.755,0,0,0-.9-2.928,3.037,3.037,0,0,0-2.592-1.2,3.053,3.053,0,0,0-2.736,1.392,7.02,7.02,0,0,0-1.04,3.472H25.92v-3.84a6.332,6.332,0,0,1,2.368-1.536,8.529,8.529,0,0,1,3.136-.576,7.748,7.748,0,0,1,3.1.608,5.388,5.388,0,0,1,2.256,1.76,4.462,4.462,0,0,1,.848,2.72Q37.632-12.832,33.888-11.2ZM49.6-13.184a6.7,6.7,0,0,1,3.12.752,5.776,5.776,0,0,1,2.336,2.224,6.671,6.671,0,0,1,.88,3.488,7.324,7.324,0,0,1-.912,3.664,6.527,6.527,0,0,1-2.48,2.512,6.843,6.843,0,0,1-3.456.9A6.145,6.145,0,0,1,45.28-.88a7.772,7.772,0,0,1-2.512-3.5,14.666,14.666,0,0,1-.88-5.312,15.568,15.568,0,0,1,1.088-6.032,9.665,9.665,0,0,1,2.9-4.016,6.251,6.251,0,0,1,3.92-1.408,5.906,5.906,0,0,1,2.992.8,7.2,7.2,0,0,1,2.384,2.272l-.96.8a6.76,6.76,0,0,0-1.936-1.92,4.3,4.3,0,0,0-2.352-.7,4.092,4.092,0,0,0-3.728,2.512,15.55,15.55,0,0,0-1.488,6.64,6.467,6.467,0,0,1,2-1.728A5.738,5.738,0,0,1,49.6-13.184ZM49.632-.672A2.9,2.9,0,0,0,52.3-2.16a7.576,7.576,0,0,0,.88-3.888,6.944,6.944,0,0,0-1.216-4.464A3.741,3.741,0,0,0,48.96-12a3.705,3.705,0,0,0-2.7,1.088A5.475,5.475,0,0,0,44.768-8.32,11.529,11.529,0,0,0,46.3-2.64,3.89,3.89,0,0,0,49.632-.672ZM65.568.352a5.936,5.936,0,0,1-3.84-1.344,8.589,8.589,0,0,1-2.576-3.792A16.025,16.025,0,0,1,58.24-10.4a15.891,15.891,0,0,1,.912-5.6,8.533,8.533,0,0,1,2.592-3.776A6,6,0,0,1,65.6-21.12a6.045,6.045,0,0,1,3.856,1.328,8.419,8.419,0,0,1,2.592,3.76,15.891,15.891,0,0,1,.912,5.6,15.775,15.775,0,0,1-.928,5.616,8.756,8.756,0,0,1-2.608,3.808A5.956,5.956,0,0,1,65.568.352ZM65.6-.672q2.176,0,3.328-2.5A17.843,17.843,0,0,0,70.08-10.4a17.742,17.742,0,0,0-1.152-7.2q-1.152-2.5-3.328-2.5t-3.328,2.5a17.742,17.742,0,0,0-1.152,7.2,17.843,17.843,0,0,0,1.152,7.232Q63.424-.672,65.6-.672ZM77.344-3.264a1.852,1.852,0,0,1,1.424.656,2.65,2.65,0,0,1,.592,1.84,4.811,4.811,0,0,1-.9,2.88A6.243,6.243,0,0,1,76.032,4.1l-.48-.768a4.666,4.666,0,0,0,1.456-1.2A2.494,2.494,0,0,0,77.7.544a.971.971,0,0,0-.032-.288,1.988,1.988,0,0,1-.384.032,1.688,1.688,0,0,1-1.3-.5,1.777,1.777,0,0,1-.464-1.264,1.71,1.71,0,0,1,.528-1.28A1.791,1.791,0,0,1,77.344-3.264ZM89.248.352a5.936,5.936,0,0,1-3.84-1.344,8.589,8.589,0,0,1-2.576-3.792A16.025,16.025,0,0,1,81.92-10.4a15.891,15.891,0,0,1,.912-5.6,8.533,8.533,0,0,1,2.592-3.776A6,6,0,0,1,89.28-21.12a6.045,6.045,0,0,1,3.856,1.328,8.419,8.419,0,0,1,2.592,3.76,15.891,15.891,0,0,1,.912,5.6,15.775,15.775,0,0,1-.928,5.616A8.756,8.756,0,0,1,93.1-1.008,5.956,5.956,0,0,1,89.248.352ZM89.28-.672q2.176,0,3.328-2.5A17.843,17.843,0,0,0,93.76-10.4a17.742,17.742,0,0,0-1.152-7.2q-1.152-2.5-3.328-2.5t-3.328,2.5A17.742,17.742,0,0,0,84.8-10.4a17.843,17.843,0,0,0,1.152,7.232Q87.1-.672,89.28-.672ZM106.016.352a5.936,5.936,0,0,1-3.84-1.344A8.589,8.589,0,0,1,99.6-4.784a16.025,16.025,0,0,1-.912-5.616A15.891,15.891,0,0,1,99.6-16a8.533,8.533,0,0,1,2.592-3.776,6,6,0,0,1,3.856-1.344,6.045,6.045,0,0,1,3.856,1.328,8.419,8.419,0,0,1,2.592,3.76,15.891,15.891,0,0,1,.912,5.6,15.775,15.775,0,0,1-.928,5.616,8.756,8.756,0,0,1-2.608,3.808A5.956,5.956,0,0,1,106.016.352Zm.032-1.024q2.176,0,3.328-2.5a17.843,17.843,0,0,0,1.152-7.232,17.742,17.742,0,0,0-1.152-7.2q-1.152-2.5-3.328-2.5t-3.328,2.5a17.742,17.742,0,0,0-1.152,7.2,17.843,17.843,0,0,0,1.152,7.232Q103.872-.672,106.048-.672ZM122.784.352a5.936,5.936,0,0,1-3.84-1.344,8.589,8.589,0,0,1-2.576-3.792,16.025,16.025,0,0,1-.912-5.616,15.891,15.891,0,0,1,.912-5.6,8.533,8.533,0,0,1,2.592-3.776,6,6,0,0,1,3.856-1.344,6.045,6.045,0,0,1,3.856,1.328,8.419,8.419,0,0,1,2.592,3.76,15.891,15.891,0,0,1,.912,5.6,15.775,15.775,0,0,1-.928,5.616,8.756,8.756,0,0,1-2.608,3.808A5.956,5.956,0,0,1,122.784.352Zm.032-1.024q2.176,0,3.328-2.5A17.843,17.843,0,0,0,127.3-10.4a17.742,17.742,0,0,0-1.152-7.2q-1.152-2.5-3.328-2.5t-3.328,2.5a17.742,17.742,0,0,0-1.152,7.2,17.843,17.843,0,0,0,1.152,7.232Q120.64-.672,122.816-.672ZM141.7-7.264a23.411,23.411,0,0,1-3.488-.64,23.411,23.411,0,0,0-3.488-.64,1.486,1.486,0,0,0-.992.352,1.28,1.28,0,0,0-.48.8h-.8a4.541,4.541,0,0,1,1.024-2.064,2.428,2.428,0,0,1,1.888-.816,9.2,9.2,0,0,1,1.728.272q1.216.272,1.568.336a20.259,20.259,0,0,0,3.552.672,1.5,1.5,0,0,0,.976-.352,1.261,1.261,0,0,0,.5-.8h.768a4.564,4.564,0,0,1-.928,2.08A2.257,2.257,0,0,1,141.7-7.264Zm8.834-12.6,1.717,2.016-.877.653-1.381-2.3-1.381,2.3-.877-.653,1.736-2-2.576-.6.336-1.045,2.445,1.027-.224-2.632h1.1l-.243,2.632,2.445-1.027.355,1.045Zm-.541-.149L149.97-20h.019l.019-.019Zm12.935,7.56V-11h-7.336v-.653q2.371-2.576,3.462-3.892a11.831,11.831,0,0,0,1.568-2.305,4.722,4.722,0,0,0,.476-2.072,3.069,3.069,0,0,0-.607-2.063,1.969,1.969,0,0,0-1.559-.7,1.844,1.844,0,0,0-1.624.821,3.946,3.946,0,0,0-.635,2.016h-1.008v-2.24a3.49,3.49,0,0,1,1.4-.9,5.325,5.325,0,0,1,1.885-.336,4.947,4.947,0,0,1,1.8.336,3.227,3.227,0,0,1,1.437,1.092,3.123,3.123,0,0,1,.569,1.932,3.451,3.451,0,0,1-.448,1.689,10.745,10.745,0,0,1-1.484,1.941q-1.036,1.129-3.742,3.873Z" transform="translate(282.632 2284)" fill="#111"/>
          <path id="パス_30942" data-name="パス 30942" d="M10.86-10.08A6.941,6.941,0,0,0,8.244-4.56,6.941,6.941,0,0,0,10.86.96h.66a7.108,7.108,0,0,1-2.4-5.508,7.587,7.587,0,0,1,1.236-4.224A5.4,5.4,0,0,1,11.52-10.08Zm5.028,3.768A22.587,22.587,0,0,1,19.32-4.644,9.535,9.535,0,0,1,14.076.1l.132.348a8.8,8.8,0,0,0,6.024-4.5A14.143,14.143,0,0,1,22.7-1.932l.8-.96a12.437,12.437,0,0,0-2.808-2.1,20.194,20.194,0,0,0,1.2-3.78c.216-.072.3-.144.3-.264,0-.1-.072-.168-.2-.2l-1.248-.324-.048.672a16.421,16.421,0,0,1-1,3.408A15.833,15.833,0,0,0,16.032-6.66Zm21.12,1.464L26.988-5.22v1.26l10.02-.36Zm11.448-1.92A42.223,42.223,0,0,1,48-2.172a5.5,5.5,0,0,1-.36,1.716.751.751,0,0,1-.756.336H45.5V.432h2.064c.936.012,1.2-.3,1.44-1.632a46.441,46.441,0,0,0,.624-6.12H45.084c.036-.552.06-.984.06-1.512v-.312c.168-.1.24-.18.24-.288a.209.209,0,0,0-.228-.2L43.9-9.72,43.98-9v.18c0,.336-.024.9-.072,1.5H40.74l-.48-.1v.744l.48-.1h3.108A8.366,8.366,0,0,1,39.84.132l.144.288a7.2,7.2,0,0,0,3.612-2.8,9.622,9.622,0,0,0,1.428-4.392Zm14.472,1.92L52.908-5.22v1.26l10.02-.36ZM67.344.072h1V-3.516h2.34V.96h1V-3.516H74.3v2.472c-.012.4-.144.528-.54.54h-.912V0h1.44c.72,0,1.032-.288,1.02-.936V-4H71.676v-.9c.156-.12.192-.156.192-.24,0-.108-.084-.156-.252-.156H70.68V-4H68.052a10.925,10.925,0,0,0,1.74-1.752H75.84l.48.1v-.672l-.48.1H70.164l.024-.036.4-.552c.252-.036.384-.12.384-.24,0-.084-.06-.132-.168-.156l-1.008-.264a6.9,6.9,0,0,1-.768,1.248H65.772l-.48-.1v.672l.48-.1h2.88A14.156,14.156,0,0,1,65.28-2.676l.168.312a9.867,9.867,0,0,0,1.9-1.092ZM66.732-9.42c1.32.312,2.412.624,3.432.972-1.1.42-3.468,1.14-4.416,1.368l.084.348a24.132,24.132,0,0,0,5.4-1.344c.672.24,2.016.816,3.192,1.368L75.1-7.44a26.573,26.573,0,0,0-2.808-1.068c.576-.252,1.008-.444,1.764-.8a2.019,2.019,0,0,0,.24.024c.144,0,.3-.1.3-.192,0-.048-.06-.108-.144-.156l-.84-.444a15.156,15.156,0,0,1-2.436,1.224,21.891,21.891,0,0,0-4.284-.888Zm20.8,3.336c-.144,1.224-.192,1.332-.672,1.344h-.888v.5h1.32c.7-.012.924-.228,1.056-.96a38.6,38.6,0,0,0,.4-4.452H84.288c-.024,3.42-.42,4.524-1.932,5.436l.2.324a3.5,3.5,0,0,0,2.268-2.2Zm.048-.48H84.96c.06-.3.12-.744.156-1.08h2.556l-.012.18-.012.192-.06.672Zm.132-1.56H85.152l.012-.036.048-1.008H87.78c-.024.42-.024.516-.048.8ZM81.54-8.76v-.852c.156-.108.192-.156.192-.24,0-.108-.084-.156-.252-.156h-.924V-8.76H78.72l-.48-.1v.672l.48-.1h.432v2.4c.024.768.336.984,1.476.984h2.364v-.84H80.808c-.6-.012-.72-.1-.732-.468V-8.28h3.072l.48.1v-.672l-.48.1Zm2.652,5.568h3.96l.468.1v-.672l-.468.1H79.368l-.468-.1V-3.1l.468-.1H83.2v1.344H80.052l-.48-.1v.672l.48-.1H83.2V.072h-4.4l-.48-.1V.648l.48-.1h9.936l.48.1V-.024l-.48.1H84.192v-1.44h3.276l.48.1v-.672l-.48.1H84.192ZM94.464.264V.828h1.7c.8,0,1.14-.336,1.14-1.14V-9.54c.156-.108.192-.156.192-.228,0-.12-.084-.168-.252-.168H96.2V-.384c0,.456-.192.648-.648.648Zm4.3-7.812a28.8,28.8,0,0,1,2.292,6.216L102.24-2a17.644,17.644,0,0,0-3.084-5.772ZM91.512-1.236A13.241,13.241,0,0,0,94.356-7.08c.24-.048.36-.144.36-.3,0-.108-.084-.168-.276-.228l-1.1-.3a22.445,22.445,0,0,1-2.124,6.456ZM105.72-5.16v-.132a1.652,1.652,0,0,0-.024-.384h-.408a3.036,3.036,0,0,1-1.128,1.92l.72.936a2.485,2.485,0,0,0,.816-1.824V-4.68h8.148a4.774,4.774,0,0,1-.708,1.332l.372.228A4.31,4.31,0,0,0,115.2-5.16Zm4.428-3.516v-.948c.156-.108.192-.156.192-.24,0-.108-.084-.156-.252-.156h-.972v1.344H104.8l-.48-.1V-8.1l.48-.1h4.32v1.344H105.84l-.48-.1v.672l.48-.1h7.68l.48.1v-.672l-.48.1h-3.372V-8.2h4.416l.48.1v-.672l-.48.1ZM104.52.84a5.587,5.587,0,0,0,2.7-.912,3.315,3.315,0,0,0,1.26-3v-.3c.144-.108.192-.156.192-.24,0-.108-.084-.156-.264-.156h-.96V-3.1A3.172,3.172,0,0,1,106.464-.5a4.511,4.511,0,0,1-2.04.984Zm6.036-4.608v3.36c.024.732.372.96,1.548,1h1.68c.84,0,1.188-.324,1.248-1.164l.06-1.02-.492-.048-.06.744c-.048.408-.2.552-.564.552H112.26c-.5-.012-.7-.12-.7-.372V-3.372c.156-.108.192-.156.192-.24,0-.12-.084-.156-.336-.156ZM122.76-6.7h-2.052V.828h.888V.06h5.076V.744h.924V-6.7h-2.1v-2.34h2.184l.48.1v-.672l-.48.1h-6.744l-.468-.1v.672l.468-.1h1.824Zm.828-2.34h1.08V-6.7h-1.08Zm0,2.82h1.08v5.8h-1.08Zm-.828,5.8H121.6v-5.8h1.164Zm2.736-5.8h1.176v5.8H125.5ZM119.448-7.4c.252-.708.36-1.044.636-1.932.192-.036.288-.12.288-.24,0-.1-.084-.168-.2-.2l-1.008-.3a28.442,28.442,0,0,1-2.04,6.516l.252.192a13.006,13.006,0,0,0,1.14-1.848V.888h.936ZM133.62-2.772a11.55,11.55,0,0,0,3.888-2.28,11.591,11.591,0,0,0,3.156,1.992A3.976,3.976,0,0,1,141.12-4a12.418,12.418,0,0,1-3.048-1.62,12.4,12.4,0,0,0,2.22-3.18h-3.9l.012-.036c.132-.252.144-.276.3-.612.228-.084.324-.156.324-.24a.224.224,0,0,0-.12-.168l-1.02-.228a11.161,11.161,0,0,1-.864,2.2,11.092,11.092,0,0,1-1.14,1.836l.24.228a8.152,8.152,0,0,0,1.716-2,5.445,5.445,0,0,0,1.1,2.184A13.169,13.169,0,0,1,133.5-3.072Zm2.52-5.544h2.88a14.544,14.544,0,0,1-1.6,2.172,4.517,4.517,0,0,1-1.332-2.1Zm-4.248,9.2h.924V-5.484a8.091,8.091,0,0,1,.852,1.824l.744-.648a4.244,4.244,0,0,0-1.6-1.524V-7.08h.876l.48.1v-.672l-.48.1h-.876V-9.612c.144-.108.192-.156.192-.24,0-.108-.084-.156-.252-.156h-.864V-7.56h-1.26l-.48-.1v.672l.48-.1h1.152a20.078,20.078,0,0,1-1.7,5.052l.264.18a11.81,11.81,0,0,0,1.548-2.832ZM139.98.816V-3.216h-5.028v4.1h.948V.312h3.12v.5ZM135.9-.168V-2.736h3.12V-.168Zm7.14-9.912a7.145,7.145,0,0,1,2.4,5.532A7.126,7.126,0,0,1,143.04.96h.648a6.9,6.9,0,0,0,2.628-5.52,6.9,6.9,0,0,0-2.628-5.52Z" transform="translate(133.756 2282)" fill="#111"/>
        </g>
        <path id="パス_30941" data-name="パス 30941" d="M22.51,1.105c.255-.09.36-.2.36-.33,0-.12-.1-.21-.3-.225L21.295.4A15.507,15.507,0,0,1,19.06,3.49a21.606,21.606,0,0,1-3.87,3.315l.195.39a16.022,16.022,0,0,0,6.8-5.61l.06.09A13.151,13.151,0,0,0,28.33,6.91a8.12,8.12,0,0,1,.66-1.365A14.146,14.146,0,0,1,24.76,3.28a13.472,13.472,0,0,1-2.28-2.13Zm.165,5.685h3.24l.6.12V6.07l-.6.12h-7.65l-.6-.12v.84l.6-.12h3.12V9.415H18.1l-.585-.12v.84l.585-.12h3.285v3.03h-4.86l-.6-.12v.84l.6-.12h11.3l.6.12v-.84l-.6.12H22.675v-3.03H26.08l.585.12V9.3l-.585.12H22.675ZM43.39,8.29l.6.12V7.57l-.6.12h-9.6V6.025h7.695l.6.12V5.3l-.6.12H33.79V3.85h7.695l.6.12V3.13l-.6.12H33.79V1.7h8.28l.6.12V.985l-.6.12H32.53V7.69H30.79l-.6-.12v.84l.6-.12h1.74v4.14c-.7.09-1.11.135-2.265.225l.51,1.23c.105.24.165.315.285.315.165,0,.24-.09.33-.36A40.224,40.224,0,0,0,38.68,11.9l.075-.015A9.183,9.183,0,0,0,43.27,14.2a7.269,7.269,0,0,1,.72-1.35,10.684,10.684,0,0,1-4.4-1.635,19.2,19.2,0,0,0,2.85-1.335l.3.015c.21,0,.375-.12.375-.27,0-.06-.06-.15-.18-.225l-1.125-.75a17.559,17.559,0,0,1-2.655,2.235,6.393,6.393,0,0,1-1.965-2.6Zm-6.84,0a8.005,8.005,0,0,0,1.815,3.195l-.135.03c-1.065.24-2.16.42-4.44.75V8.29Zm12.825-.54a2.55,2.55,0,0,1,2.1,2.49,2.577,2.577,0,0,1-.487,1.575,3.116,3.116,0,0,1-1.26,1.005,3.912,3.912,0,0,1-1.612.345,3.244,3.244,0,0,1-1.733-.465,3.425,3.425,0,0,1-1.193-1.215l.48-.3a2.409,2.409,0,0,0,1.02,1,2.838,2.838,0,0,0,1.305.33,2.329,2.329,0,0,0,1.042-.24,1.932,1.932,0,0,0,.8-.735,2.23,2.23,0,0,0,.307-1.2,2.129,2.129,0,0,0-.607-1.6,2.074,2.074,0,0,0-1.507-.593H47.65V7.69a2.542,2.542,0,0,0,1.035-.225,1.955,1.955,0,0,0,.84-.713,2.133,2.133,0,0,0,.33-1.222,2.229,2.229,0,0,0-.42-1.372,1.59,1.59,0,0,0-2.5.09,3.29,3.29,0,0,0-.487,1.628h-.81v-1.8a2.968,2.968,0,0,1,1.11-.72,4,4,0,0,1,1.47-.27,3.632,3.632,0,0,1,1.455.285,2.526,2.526,0,0,1,1.058.825,2.092,2.092,0,0,1,.4,1.275A2.458,2.458,0,0,1,49.375,7.75Zm4.65,3.72a.868.868,0,0,1,.667.307,1.242,1.242,0,0,1,.278.863,2.255,2.255,0,0,1-.42,1.35,2.926,2.926,0,0,1-1.14.93l-.225-.36A2.187,2.187,0,0,0,53.867,14a1.169,1.169,0,0,0,.323-.743.455.455,0,0,0-.015-.135.932.932,0,0,1-.18.015.791.791,0,0,1-.607-.233.833.833,0,0,1-.217-.592.8.8,0,0,1,.247-.6A.839.839,0,0,1,54.025,11.47ZM61,7.81a2.869,2.869,0,0,1,1.417.9,2.461,2.461,0,0,1,.548,1.65,2.507,2.507,0,0,1-.48,1.552,2.855,2.855,0,0,1-1.252.945,4.36,4.36,0,0,1-1.627.307,4.2,4.2,0,0,1-1.628-.315,2.894,2.894,0,0,1-1.23-.945,2.5,2.5,0,0,1-.472-1.545,2.461,2.461,0,0,1,.548-1.65,2.869,2.869,0,0,1,1.417-.9,2.514,2.514,0,0,1-1.125-.8A2.219,2.219,0,0,1,56.62,5.53a2.14,2.14,0,0,1,.42-1.343,2.585,2.585,0,0,1,1.1-.825,3.885,3.885,0,0,1,1.478-.278,3.939,3.939,0,0,1,1.463.27,2.558,2.558,0,0,1,1.11.825,2.146,2.146,0,0,1,.428,1.35,2.219,2.219,0,0,1-.495,1.485A2.514,2.514,0,0,1,61,7.81ZM59.62,3.58a1.647,1.647,0,0,0-1.268.548,2.078,2.078,0,0,0-.5,1.462,2.078,2.078,0,0,0,.5,1.463,1.75,1.75,0,0,0,2.543,0A2.1,2.1,0,0,0,61.39,5.59a2.078,2.078,0,0,0-.5-1.462A1.647,1.647,0,0,0,59.62,3.58Zm0,9.105a1.907,1.907,0,0,0,1.455-.608,2.392,2.392,0,0,0,.57-1.7A2.48,2.48,0,0,0,61.12,8.71a2.137,2.137,0,0,0-3,0,2.48,2.48,0,0,0-.525,1.665,2.392,2.392,0,0,0,.57,1.7A1.907,1.907,0,0,0,59.62,12.685ZM70.795,3.28v.525L66.61,13h-.7l3.96-8.565h-4.2L65.14,5.89h-.525V3.28ZM75.37,6.685a3.141,3.141,0,0,1,1.463.352A2.779,2.779,0,0,1,77.942,8.1a3.179,3.179,0,0,1,.427,1.68,3.351,3.351,0,0,1-.495,1.86,3.2,3.2,0,0,1-1.253,1.148,3.528,3.528,0,0,1-3.323-.068,3.191,3.191,0,0,1-1.215-1.23l.48-.3a2.586,2.586,0,0,0,.99,1,2.742,2.742,0,0,0,1.365.345,1.945,1.945,0,0,0,1.057-.307,2.2,2.2,0,0,0,.788-.908,3.153,3.153,0,0,0,.3-1.425,3.012,3.012,0,0,0-.3-1.4,2.02,2.02,0,0,0-.788-.855A2.1,2.1,0,0,0,74.92,7.36a1.718,1.718,0,0,0-.9.225,2.8,2.8,0,0,0-.675.57H72.76l.36-4.875h4.77v1.2H73.585l-.21,2.91a2.646,2.646,0,0,1,.863-.51A3.187,3.187,0,0,1,75.37,6.685ZM90.34,12.55V13H87.475v-.45h.765V8.23a2.22,2.22,0,0,0-.285-1.252.985.985,0,0,0-.87-.412,1.376,1.376,0,0,0-1.073.48,1.759,1.759,0,0,0-.427,1.215v4.29h.855V13H83.6v-.45h.855V8.23a2.22,2.22,0,0,0-.285-1.252.985.985,0,0,0-.87-.412,1.392,1.392,0,0,0-1.087.48A1.759,1.759,0,0,0,81.79,8.26v4.29h.8V13h-2.91v-.45h.99V6.67H79.7V6.235l2.055-.12.03.7a2.122,2.122,0,0,1,1.8-.765,2.213,2.213,0,0,1,1.08.263,1.624,1.624,0,0,1,.705.727,1.9,1.9,0,0,1,.78-.735,2.455,2.455,0,0,1,1.14-.255q2.07,0,2.07,2.34V12.55Zm11.325,0V13H98.8v-.45h.765V8.23a2.22,2.22,0,0,0-.285-1.252.985.985,0,0,0-.87-.412,1.376,1.376,0,0,0-1.073.48A1.759,1.759,0,0,0,96.91,8.26v4.29h.855V13H94.93v-.45h.855V8.23A2.22,2.22,0,0,0,95.5,6.977a.985.985,0,0,0-.87-.412,1.392,1.392,0,0,0-1.087.48,1.759,1.759,0,0,0-.428,1.215v4.29h.8V13H91v-.45h.99V6.67h-.96V6.235l2.055-.12.03.7a2.122,2.122,0,0,1,1.8-.765,2.213,2.213,0,0,1,1.08.263,1.624,1.624,0,0,1,.705.727,1.9,1.9,0,0,1,.78-.735,2.455,2.455,0,0,1,1.14-.255q2.07,0,2.07,2.34V12.55Zm5.325.57a9.019,9.019,0,0,0-4.185-2.865l-.285.36a13.388,13.388,0,0,1,3.24,3.585ZM124.84,1.105c.255-.09.36-.2.36-.33,0-.12-.1-.21-.3-.225L123.625.4a15.507,15.507,0,0,1-2.235,3.09,21.606,21.606,0,0,1-3.87,3.315l.195.39a16.022,16.022,0,0,0,6.795-5.61l.06.09a13.151,13.151,0,0,0,6.09,5.235,8.119,8.119,0,0,1,.66-1.365,14.146,14.146,0,0,1-4.23-2.265,13.472,13.472,0,0,1-2.28-2.13ZM125,6.79h3.24l.6.12V6.07l-.6.12H120.6l-.6-.12v.84l.6-.12h3.12V9.415H120.43l-.585-.12v.84l.585-.12h3.285v3.03h-4.86l-.6-.12v.84l.6-.12H130.15l.6.12v-.84l-.6.12H125v-3.03h3.405l.585.12V9.3l-.585.12H125ZM135.9,3.22h.975V9.955c0,.285-.09.36-.36.375h-.435v.6h.765c.72,0,1.02-.3,1.02-.99V2.665H135.9V.985c.195-.135.24-.195.24-.3,0-.135-.1-.2-.315-.2H134.9V2.665h-1.89V11.02h.99V3.22h.9V14.11h.99Zm9.9,4.335h-7.23V14.11h1.1v-.735h5.01v.63h1.125Zm-1.125,3.12v2.1h-2.01v-2.1Zm0-.6h-2.01V8.155h2.01Zm-3.09-1.92v1.92h-1.92V8.155Zm-1.92,4.62v-2.1h1.92v2.1Zm5.535-6.6V2.905h-6.15v3.27Zm-1.155-.6h-3.87V3.505h3.87ZM138.61,1.63h7.11l.6.12V.91l-.6.12h-7.11l-.6-.12v.84Zm14.475,10.83V13h-4.2v-.54h1.545V4.465l-1.485.96-.315-.48L151.1,3.28h.51v9.18Zm3.27-.99a.868.868,0,0,1,.667.307,1.242,1.242,0,0,1,.278.863,2.255,2.255,0,0,1-.42,1.35,2.926,2.926,0,0,1-1.14.93l-.225-.36A2.187,2.187,0,0,0,156.2,14a1.169,1.169,0,0,0,.323-.743.455.455,0,0,0-.015-.135.932.932,0,0,1-.18.015.791.791,0,0,1-.607-.233.833.833,0,0,1-.217-.592.8.8,0,0,1,.247-.6A.839.839,0,0,1,156.355,11.47Zm8.16-8.19v.525L160.33,13h-.705l3.96-8.565h-4.2L158.86,5.89h-.525V3.28Zm7.2,7.515h-1.65V13H168.88V10.8h-4.2V10.21l3.84-6.93h1.545V9.775h1.65Zm-2.835-1.02V4.09h-.195l-3.06,5.685Zm7.17-3.09a3.141,3.141,0,0,1,1.462.352,2.779,2.779,0,0,1,1.11,1.058,3.179,3.179,0,0,1,.428,1.68,3.351,3.351,0,0,1-.5,1.86,3.2,3.2,0,0,1-1.253,1.148,3.528,3.528,0,0,1-3.322-.068,3.191,3.191,0,0,1-1.215-1.23l.48-.3a2.586,2.586,0,0,0,.99,1,2.742,2.742,0,0,0,1.365.345,1.945,1.945,0,0,0,1.058-.307,2.2,2.2,0,0,0,.787-.908,3.153,3.153,0,0,0,.3-1.425,3.012,3.012,0,0,0-.3-1.4,2.02,2.02,0,0,0-.787-.855A2.1,2.1,0,0,0,175.6,7.36a1.718,1.718,0,0,0-.9.225,2.8,2.8,0,0,0-.675.57h-.585l.36-4.875h4.77v1.2h-4.3l-.21,2.91a2.646,2.646,0,0,1,.863-.51A3.187,3.187,0,0,1,176.05,6.685Zm14.97,5.865V13h-2.865v-.45h.765V8.23a2.22,2.22,0,0,0-.285-1.252.985.985,0,0,0-.87-.412,1.376,1.376,0,0,0-1.073.48,1.759,1.759,0,0,0-.427,1.215v4.29h.855V13h-2.835v-.45h.855V8.23a2.22,2.22,0,0,0-.285-1.252.985.985,0,0,0-.87-.412,1.392,1.392,0,0,0-1.088.48,1.759,1.759,0,0,0-.427,1.215v4.29h.795V13h-2.91v-.45h.99V6.67h-.96V6.235l2.055-.12.03.7a2.122,2.122,0,0,1,1.8-.765,2.213,2.213,0,0,1,1.08.263,1.624,1.624,0,0,1,.705.727,1.9,1.9,0,0,1,.78-.735,2.455,2.455,0,0,1,1.14-.255q2.07,0,2.07,2.34V12.55Zm11.325,0V13H199.48v-.45h.765V8.23a2.22,2.22,0,0,0-.285-1.252.985.985,0,0,0-.87-.412,1.376,1.376,0,0,0-1.073.48,1.759,1.759,0,0,0-.427,1.215v4.29h.855V13H195.61v-.45h.855V8.23a2.22,2.22,0,0,0-.285-1.252.985.985,0,0,0-.87-.412,1.392,1.392,0,0,0-1.088.48,1.759,1.759,0,0,0-.427,1.215v4.29h.795V13h-2.91v-.45h.99V6.67h-.96V6.235l2.055-.12.03.7a2.122,2.122,0,0,1,1.8-.765,2.213,2.213,0,0,1,1.08.263,1.624,1.624,0,0,1,.705.727,1.9,1.9,0,0,1,.78-.735,2.455,2.455,0,0,1,1.14-.255q2.07,0,2.07,2.34V12.55Zm5.325.57a9.019,9.019,0,0,0-4.185-2.865l-.285.36a13.388,13.388,0,0,1,3.24,3.585ZM225.52,1.105c.255-.09.36-.2.36-.33,0-.12-.1-.21-.3-.225L224.3.4a15.507,15.507,0,0,1-2.235,3.09,21.607,21.607,0,0,1-3.87,3.315l.195.39a16.022,16.022,0,0,0,6.795-5.61l.06.09a13.151,13.151,0,0,0,6.09,5.235A8.119,8.119,0,0,1,232,5.545a14.146,14.146,0,0,1-4.23-2.265,13.472,13.472,0,0,1-2.28-2.13Zm.165,5.685h3.24l.6.12V6.07l-.6.12h-7.65l-.6-.12v.84l.6-.12h3.12V9.415H221.11l-.585-.12v.84l.585-.12h3.285v3.03h-4.86l-.6-.12v.84l.6-.12H230.83l.6.12v-.84l-.6.12h-5.145v-3.03h3.4l.585.12V9.3l-.585.12h-3.4ZM239.35,1.975h-5.46l-.6-.12V2.7l.6-.12h12.4l.6.12v-.84l-.6.12h-5.58V.91c.195-.15.24-.21.24-.3,0-.15-.1-.21-.315-.21h-1.29Zm6.915,5.67H233.92V14.11h1.245V8.245h9.855v4.53c-.015.465-.165.615-.63.63h-1.275v.63h1.845c.915,0,1.32-.375,1.3-1.245Zm-9.57,1.71V13h1.185v-.69h5.355V9.355Zm1.185,2.355V9.955h4.185V11.71Zm6.585-5.2V3.67H235.72V6.505Zm-7.5-.6V4.27h6.255V5.905Zm16.8,6.555V13h-4.2v-.54h1.545V4.465l-1.485.96-.315-.48,2.475-1.665h.51v9.18Zm3.27-.99a.868.868,0,0,1,.667.307,1.242,1.242,0,0,1,.277.863,2.255,2.255,0,0,1-.42,1.35,2.926,2.926,0,0,1-1.14.93l-.225-.36a2.187,2.187,0,0,0,.683-.562,1.169,1.169,0,0,0,.322-.743.456.456,0,0,0-.015-.135.932.932,0,0,1-.18.015.791.791,0,0,1-.608-.233.833.833,0,0,1-.217-.592.8.8,0,0,1,.247-.6A.839.839,0,0,1,257.035,11.47Zm9.15-.675h-1.65V13H263.35V10.8h-4.2V10.21l3.84-6.93h1.545V9.775h1.65Zm-2.835-1.02V4.09h-.2L260.1,9.775Zm7.17-3.09a3.141,3.141,0,0,1,1.462.352,2.779,2.779,0,0,1,1.11,1.058,3.179,3.179,0,0,1,.427,1.68,3.352,3.352,0,0,1-.495,1.86,3.2,3.2,0,0,1-1.253,1.148,3.528,3.528,0,0,1-3.322-.068,3.191,3.191,0,0,1-1.215-1.23l.48-.3a2.586,2.586,0,0,0,.99,1,2.742,2.742,0,0,0,1.365.345,1.945,1.945,0,0,0,1.057-.307,2.2,2.2,0,0,0,.788-.908,3.153,3.153,0,0,0,.3-1.425,3.012,3.012,0,0,0-.3-1.4,2.02,2.02,0,0,0-.788-.855,2.1,2.1,0,0,0-1.057-.278,1.718,1.718,0,0,0-.9.225,2.8,2.8,0,0,0-.675.57h-.585l.36-4.875h4.77v1.2h-4.305l-.21,2.91a2.646,2.646,0,0,1,.863-.51A3.187,3.187,0,0,1,270.52,6.685Zm7.86,0a3.141,3.141,0,0,1,1.462.352,2.779,2.779,0,0,1,1.11,1.058,3.179,3.179,0,0,1,.427,1.68,3.352,3.352,0,0,1-.495,1.86,3.2,3.2,0,0,1-1.253,1.148,3.528,3.528,0,0,1-3.322-.068,3.191,3.191,0,0,1-1.215-1.23l.48-.3a2.586,2.586,0,0,0,.99,1,2.742,2.742,0,0,0,1.365.345,1.945,1.945,0,0,0,1.057-.307,2.2,2.2,0,0,0,.788-.908,3.153,3.153,0,0,0,.3-1.425,3.012,3.012,0,0,0-.3-1.4,2.02,2.02,0,0,0-.788-.855,2.1,2.1,0,0,0-1.057-.278,1.718,1.718,0,0,0-.9.225,2.8,2.8,0,0,0-.675.57h-.585l.36-4.875h4.77v1.2h-4.305l-.21,2.91a2.646,2.646,0,0,1,.863-.51A3.187,3.187,0,0,1,278.38,6.685Zm14.97,5.865V13h-2.865v-.45h.765V8.23a2.22,2.22,0,0,0-.285-1.252.985.985,0,0,0-.87-.412,1.376,1.376,0,0,0-1.073.48A1.759,1.759,0,0,0,288.6,8.26v4.29h.855V13h-2.835v-.45h.855V8.23a2.22,2.22,0,0,0-.285-1.252.985.985,0,0,0-.87-.412,1.392,1.392,0,0,0-1.087.48A1.759,1.759,0,0,0,284.8,8.26v4.29h.8V13h-2.91v-.45h.99V6.67h-.96V6.235l2.055-.12.03.7a2.122,2.122,0,0,1,1.8-.765,2.213,2.213,0,0,1,1.08.263,1.624,1.624,0,0,1,.705.727,1.9,1.9,0,0,1,.78-.735,2.455,2.455,0,0,1,1.14-.255q2.07,0,2.07,2.34V12.55Zm11.325,0V13H301.81v-.45h.765V8.23a2.22,2.22,0,0,0-.285-1.252.985.985,0,0,0-.87-.412,1.376,1.376,0,0,0-1.073.48,1.759,1.759,0,0,0-.427,1.215v4.29h.855V13H297.94v-.45h.855V8.23a2.22,2.22,0,0,0-.285-1.252.985.985,0,0,0-.87-.412,1.392,1.392,0,0,0-1.087.48,1.759,1.759,0,0,0-.428,1.215v4.29h.8V13h-2.91v-.45H295V6.67h-.96V6.235l2.055-.12.03.7a2.122,2.122,0,0,1,1.8-.765,2.213,2.213,0,0,1,1.08.263,1.624,1.624,0,0,1,.705.727,1.9,1.9,0,0,1,.78-.735,2.455,2.455,0,0,1,1.14-.255q2.07,0,2.07,2.34V12.55Zm5.325.57a9.019,9.019,0,0,0-4.185-2.865l-.285.36a13.388,13.388,0,0,1,3.24,3.585Zm18.21-8.7h4.71l.66.135V3.6l-.66.135h-4.71V1.6c.21-.15.3-.255.3-.39a.27.27,0,0,0-.285-.255L326.71.85l.135.9V3.73h-4.8l-.66-.135v.96l.66-.135h4.8v7.695c0,.51-.225.735-.75.735h-1.53v.69h2.52c.78.015,1.125-.36,1.125-1.215ZM329.7,6.2a18.651,18.651,0,0,1,3,5.61l1.44-.75a10.8,10.8,0,0,0-4.14-5.115Zm-8.76,5.67A10.338,10.338,0,0,0,324.895,7c.27-.105.375-.21.375-.36a.316.316,0,0,0-.225-.285l-1.41-.51-.18.825a13.88,13.88,0,0,1-2.79,4.875ZM344.08,4.96a38.563,38.563,0,0,0,3.2-2.82c.4-.045.57-.15.57-.36a.465.465,0,0,0-.24-.345L346.45.67l-.54.81a29.182,29.182,0,0,1-9.84,6.825l.165.45a19.784,19.784,0,0,0,6.45-2.79V13.8h1.395Zm19.71,1.98-12.525-.465V8.05L363.79,7.6Zm9.06,6.54a7.431,7.431,0,0,0,4.455-2.715A10.5,10.5,0,0,0,379.48,5.83l-.465-.15c-.99,2.82-2.865,5.115-4.83,5.91V1.9c.225-.15.3-.255.3-.39a.281.281,0,0,0-.285-.255l-1.485-.105.135.9Zm-7.1.045a8.229,8.229,0,0,0,3.36-3.57A13.975,13.975,0,0,0,370,4.105V2.41c.225-.15.3-.255.3-.39a.27.27,0,0,0-.285-.255l-1.53-.1.135.9V4.24c0,4.56-.72,6.615-3.135,8.9Zm27.96-11.37A2.979,2.979,0,0,0,391.99.565l-.27.21a5.6,5.6,0,0,1,.99,1.89Zm-3.72-1.035a6.147,6.147,0,0,1,.825,2l1.05-.48a3.1,3.1,0,0,0-1.605-1.71Zm4.32,10.425c-2.16-2.175-5.745-6.195-7.455-8.385-.615-.8-.84-1.005-1.11-1.005-.3,0-.54.225-1.605,1.545-1.62,1.965-2.07,2.505-2.865,3.33l-.75.63.84,1.14a.369.369,0,0,0,.3.2c.18,0,.27-.135.285-.405.81-1.125,1.29-1.815,2.97-4.275.6-.915.705-1.05.81-1.05.06,0,.135.075.315.36a104.84,104.84,0,0,0,7.2,9.195ZM408.79,6.94l-12.525-.465V8.05L408.79,7.6Zm9.945,1.065a18.888,18.888,0,0,0,3.09-6.075h-8.88l-.66-.135v.96l.66-.135h7.095a17.286,17.286,0,0,1-9.06,10.11l.21.465a15.08,15.08,0,0,0,7.23-4.785,25.6,25.6,0,0,1,4.29,4.89l1.335-1.08a18.322,18.322,0,0,0-5.115-4.11Zm13.14,3.825V13h-5.9v-.525q1.9-2.07,2.783-3.128a9.508,9.508,0,0,0,1.26-1.852A3.794,3.794,0,0,0,430.4,5.83a2.466,2.466,0,0,0-.488-1.658,1.582,1.582,0,0,0-1.253-.562,1.482,1.482,0,0,0-1.3.66,3.172,3.172,0,0,0-.51,1.62h-.81V4.09a2.805,2.805,0,0,1,1.125-.72,4.279,4.279,0,0,1,1.515-.27,3.976,3.976,0,0,1,1.448.27,2.593,2.593,0,0,1,1.155.877A2.51,2.51,0,0,1,431.74,5.8a2.773,2.773,0,0,1-.36,1.358,8.636,8.636,0,0,1-1.193,1.56q-.833.907-3.008,3.112Zm2.49-.36a.868.868,0,0,1,.667.307,1.242,1.242,0,0,1,.277.863,2.255,2.255,0,0,1-.42,1.35,2.926,2.926,0,0,1-1.14.93l-.225-.36a2.187,2.187,0,0,0,.683-.562,1.169,1.169,0,0,0,.322-.743.456.456,0,0,0-.015-.135.932.932,0,0,1-.18.015.791.791,0,0,1-.608-.233.833.833,0,0,1-.217-.592.8.8,0,0,1,.247-.6A.839.839,0,0,1,434.365,11.47Zm9.15-.675h-1.65V13H440.68V10.8h-4.2V10.21l3.84-6.93h1.545V9.775h1.65Zm-2.835-1.02V4.09h-.2l-3.06,5.685Zm7.08-6.69a2.932,2.932,0,0,1,1.785.563,3.589,3.589,0,0,1,1.185,1.628,6.856,6.856,0,0,1,.42,2.52,7.493,7.493,0,0,1-.495,2.827,4.483,4.483,0,0,1-1.328,1.883,2.85,2.85,0,0,1-1.807.66,2.966,2.966,0,0,1-1.583-.457,3.249,3.249,0,0,1-1.162-1.223l.48-.315a2.907,2.907,0,0,0,.96,1.035,2.22,2.22,0,0,0,1.215.375,1.889,1.889,0,0,0,1.732-1.17,7.3,7.3,0,0,0,.668-3.12,3.032,3.032,0,0,1-.937.81,2.69,2.69,0,0,1-1.358.33,3.089,3.089,0,0,1-1.462-.36,2.76,2.76,0,0,1-1.1-1.05,3.157,3.157,0,0,1-.413-1.65A3.364,3.364,0,0,1,445,4.637a3.049,3.049,0,0,1,1.163-1.148A3.229,3.229,0,0,1,447.76,3.085Zm.075,5.79a1.737,1.737,0,0,0,1.267-.51,2.679,2.679,0,0,0,.712-1.215,5.7,5.7,0,0,0-.682-2.67,1.774,1.774,0,0,0-1.568-.915,1.4,1.4,0,0,0-1.3.69,3.543,3.543,0,0,0-.413,1.83,3.286,3.286,0,0,0,.563,2.092A1.747,1.747,0,0,0,447.835,8.875Zm7.875-2.19a3.141,3.141,0,0,1,1.462.352,2.779,2.779,0,0,1,1.11,1.058,3.179,3.179,0,0,1,.427,1.68,3.352,3.352,0,0,1-.495,1.86,3.2,3.2,0,0,1-1.253,1.148,3.528,3.528,0,0,1-3.322-.068,3.191,3.191,0,0,1-1.215-1.23l.48-.3a2.586,2.586,0,0,0,.99,1,2.742,2.742,0,0,0,1.365.345,1.945,1.945,0,0,0,1.057-.307,2.2,2.2,0,0,0,.788-.908,3.153,3.153,0,0,0,.3-1.425,3.012,3.012,0,0,0-.3-1.4,2.02,2.02,0,0,0-.788-.855,2.1,2.1,0,0,0-1.057-.278,1.718,1.718,0,0,0-.9.225,2.8,2.8,0,0,0-.675.57H453.1l.36-4.875h4.77v1.2h-4.305l-.21,2.91a2.646,2.646,0,0,1,.863-.51A3.187,3.187,0,0,1,455.71,6.685Zm14.97,5.865V13h-2.865v-.45h.765V8.23a2.22,2.22,0,0,0-.285-1.252.985.985,0,0,0-.87-.412,1.376,1.376,0,0,0-1.073.48,1.759,1.759,0,0,0-.427,1.215v4.29h.855V13h-2.835v-.45h.855V8.23a2.22,2.22,0,0,0-.285-1.252.985.985,0,0,0-.87-.412,1.392,1.392,0,0,0-1.087.48,1.759,1.759,0,0,0-.428,1.215v4.29h.8V13h-2.91v-.45H461V6.67h-.96V6.235l2.055-.12.03.7a2.122,2.122,0,0,1,1.8-.765,2.213,2.213,0,0,1,1.08.263,1.624,1.624,0,0,1,.705.727,1.9,1.9,0,0,1,.78-.735,2.455,2.455,0,0,1,1.14-.255q2.07,0,2.07,2.34V12.55Zm11.325,0V13H479.14v-.45h.765V8.23a2.22,2.22,0,0,0-.285-1.252.985.985,0,0,0-.87-.412,1.376,1.376,0,0,0-1.073.48,1.759,1.759,0,0,0-.427,1.215v4.29h.855V13H475.27v-.45h.855V8.23a2.22,2.22,0,0,0-.285-1.252.985.985,0,0,0-.87-.412,1.392,1.392,0,0,0-1.087.48,1.759,1.759,0,0,0-.428,1.215v4.29h.8V13h-2.91v-.45h.99V6.67h-.96V6.235l2.055-.12.03.7a2.122,2.122,0,0,1,1.8-.765,2.213,2.213,0,0,1,1.08.263,1.624,1.624,0,0,1,.705.727,1.9,1.9,0,0,1,.78-.735,2.455,2.455,0,0,1,1.14-.255q2.07,0,2.07,2.34V12.55Zm5.325.57a9.019,9.019,0,0,0-4.185-2.865l-.285.36A13.388,13.388,0,0,1,486.1,14.2Zm13.7-5.64V4.12h.78l.6.12V3.4l-.6.12h-.78V.985c.195-.135.24-.195.24-.3,0-.135-.105-.2-.315-.2h-1.11V3.52h-1.29l-.6-.12v.84l.6-.12h1.29V7.87c-.6.2-1.125.33-1.98.54l.3,1.1c.045.12.15.225.24.225.135,0,.225-.1.33-.39.525-.225.765-.33,1.11-.48v4.08c-.015.345-.12.465-.465.465h-1.11v.63h1.65c.78,0,1.125-.315,1.11-1.05V8.26a17.3,17.3,0,0,0,1.515-.885l-.135-.39c-.345.12-.72.27-.765.285l-.57.2ZM502,14.2c1.89-.6,2.985-1.41,3.555-2.625.51-1.11.615-2.52.615-8.13V1.09c.2-.135.24-.195.24-.3,0-.135-.09-.2-.315-.2h-1.11v2.34h-1.7l-.6-.12v.84l.6-.12h1.7l-.03,2.685h-1.59l-.6-.12v.84l.6-.12h1.59c0,1.2-.015,1.455-.06,2.34a26.422,26.422,0,0,1-2.97.69l.36,1.095c.045.135.165.255.27.255s.195-.12.255-.36a15.944,15.944,0,0,0,2.04-1.1,4.45,4.45,0,0,1-3.045,4.035Zm6.825-11.265V1.09c.2-.135.24-.195.24-.3,0-.135-.1-.2-.315-.2h-1.11V14.11h1.185V10.555h2.235l.6.12v-.84l-.6.12h-2.235V6.88h1.725l.585.12V6.16l-.585.12h-1.725V3.535h2.055l.6.12v-.84l-.6.12ZM517.78,10.3a20.155,20.155,0,0,1-4.62,3.255l.195.375a16.414,16.414,0,0,0,5.34-3.015,23.187,23.187,0,0,1,2.97,2.4l.855-1.215a30.449,30.449,0,0,0-2.94-2c.585-.57.9-.915,1.7-1.83h.075c.24,0,.48-.15.48-.3,0-.075-.09-.165-.2-.225l-1.14-.555a13.629,13.629,0,0,1-1.92,2.34,23.79,23.79,0,0,0-4.08-1.665l-.21.39A21.306,21.306,0,0,1,517.12,9.9Zm-1.62-7.965h9.255l.6.12v-.84l-.6.12h-8.85l.03-.03.045-.075c.12-.165.225-.345.345-.525.3-.03.465-.135.465-.285,0-.09-.1-.18-.21-.2L515.875.4a15.076,15.076,0,0,1-3.015,4.455l.255.315a9.834,9.834,0,0,0,3.015-2.79Zm8.19,3.69h-9.945l-.585-.12v.84l.585-.12h8.7A16.954,16.954,0,0,0,524.14,13c.36.72.825,1.11,1.32,1.11.435,0,.735-.345.885-.975a11.6,11.6,0,0,0,.3-2.325l-.54-.1a10.982,10.982,0,0,1-.315,1.95c-.03.15-.12.255-.2.255-.105,0-.21-.135-.375-.525a15.868,15.868,0,0,1-.87-5.715Zm-8.235-1.65h7.89l.6.12v-.84l-.6.12h-7.89l-.585-.12V4.5ZM534.16,13.21h-5.7l-.6-.12v.8l.6-.12h12.6l.6.12v-.8l-.6.12h-5.8V12.07h4.725l.585.12V11.4l-.585.12h-4.725V10.48h4.68V6.745h-10.35V10.48h4.575v1.035h-4.635l-.585-.12v.795l.585-.12h4.635Zm0-3.285h-3.42V8.875h3.42Zm0-1.605h-3.42V7.3h3.42Zm1.095-1.02h3.525V8.32h-3.525Zm0,1.575h3.525v1.05h-3.525ZM529.78.925v3.63h9.96V.925Zm1.2.555h7.56v.96h-7.56Zm0,2.52V2.995h7.56V4Zm-2.43,1.92h12.42l.6.12v-.8l-.6.12H528.55l-.6-.12v.8Zm19.875,6.54V13h-4.2v-.54h1.545V4.465l-1.485.96-.315-.48,2.475-1.665h.51v9.18Zm3.27-.99a.868.868,0,0,1,.667.307,1.242,1.242,0,0,1,.278.863,2.255,2.255,0,0,1-.42,1.35,2.926,2.926,0,0,1-1.14.93l-.225-.36a2.188,2.188,0,0,0,.682-.562,1.169,1.169,0,0,0,.323-.743.455.455,0,0,0-.015-.135.931.931,0,0,1-.18.015.791.791,0,0,1-.607-.233.833.833,0,0,1-.218-.592.8.8,0,0,1,.248-.6A.839.839,0,0,1,551.7,11.47Zm5.535-8.385a2.932,2.932,0,0,1,1.785.563A3.59,3.59,0,0,1,560.2,5.275a6.856,6.856,0,0,1,.42,2.52,7.493,7.493,0,0,1-.495,2.827,4.483,4.483,0,0,1-1.328,1.883,2.85,2.85,0,0,1-1.807.66,2.966,2.966,0,0,1-1.583-.457,3.249,3.249,0,0,1-1.162-1.223l.48-.315a2.907,2.907,0,0,0,.96,1.035,2.22,2.22,0,0,0,1.215.375,1.889,1.889,0,0,0,1.733-1.17,7.3,7.3,0,0,0,.667-3.12,3.031,3.031,0,0,1-.937.81,2.69,2.69,0,0,1-1.357.33,3.089,3.089,0,0,1-1.463-.36,2.76,2.76,0,0,1-1.095-1.05,3.157,3.157,0,0,1-.413-1.65,3.365,3.365,0,0,1,.435-1.733,3.049,3.049,0,0,1,1.163-1.148A3.229,3.229,0,0,1,557.23,3.085Zm.075,5.79a1.737,1.737,0,0,0,1.268-.51,2.68,2.68,0,0,0,.712-1.215,5.7,5.7,0,0,0-.682-2.67,1.774,1.774,0,0,0-1.568-.915,1.4,1.4,0,0,0-1.3.69,3.543,3.543,0,0,0-.412,1.83,3.286,3.286,0,0,0,.563,2.092A1.747,1.747,0,0,0,557.3,8.875Zm7.785-5.79a2.932,2.932,0,0,1,1.785.563,3.59,3.59,0,0,1,1.185,1.628,6.856,6.856,0,0,1,.42,2.52,7.493,7.493,0,0,1-.495,2.827,4.483,4.483,0,0,1-1.328,1.883,2.85,2.85,0,0,1-1.807.66,2.966,2.966,0,0,1-1.583-.457,3.249,3.249,0,0,1-1.162-1.223l.48-.315a2.907,2.907,0,0,0,.96,1.035,2.22,2.22,0,0,0,1.215.375,1.889,1.889,0,0,0,1.733-1.17,7.3,7.3,0,0,0,.667-3.12,3.031,3.031,0,0,1-.937.81,2.69,2.69,0,0,1-1.357.33,3.089,3.089,0,0,1-1.463-.36,2.76,2.76,0,0,1-1.095-1.05,3.157,3.157,0,0,1-.413-1.65,3.365,3.365,0,0,1,.435-1.733,3.049,3.049,0,0,1,1.163-1.148A3.229,3.229,0,0,1,565.09,3.085Zm.075,5.79a1.737,1.737,0,0,0,1.268-.51,2.68,2.68,0,0,0,.712-1.215,5.7,5.7,0,0,0-.682-2.67,1.774,1.774,0,0,0-1.568-.915,1.4,1.4,0,0,0-1.3.69,3.543,3.543,0,0,0-.412,1.83,3.286,3.286,0,0,0,.563,2.092A1.747,1.747,0,0,0,565.165,8.875ZM574.39,7.81a2.869,2.869,0,0,1,1.417.9,2.461,2.461,0,0,1,.548,1.65,2.507,2.507,0,0,1-.48,1.552,2.855,2.855,0,0,1-1.253.945,4.36,4.36,0,0,1-1.628.307,4.2,4.2,0,0,1-1.628-.315,2.894,2.894,0,0,1-1.23-.945,2.5,2.5,0,0,1-.472-1.545,2.461,2.461,0,0,1,.547-1.65,2.869,2.869,0,0,1,1.417-.9,2.515,2.515,0,0,1-1.125-.8,2.219,2.219,0,0,1-.495-1.485,2.14,2.14,0,0,1,.42-1.343,2.585,2.585,0,0,1,1.1-.825,3.885,3.885,0,0,1,1.477-.278,3.939,3.939,0,0,1,1.463.27,2.558,2.558,0,0,1,1.11.825,2.146,2.146,0,0,1,.427,1.35,2.219,2.219,0,0,1-.495,1.485A2.515,2.515,0,0,1,574.39,7.81Zm-1.38-4.23a1.647,1.647,0,0,0-1.268.548,2.078,2.078,0,0,0-.5,1.462,2.078,2.078,0,0,0,.5,1.463,1.75,1.75,0,0,0,2.543,0,2.1,2.1,0,0,0,.495-1.463,2.078,2.078,0,0,0-.5-1.462A1.647,1.647,0,0,0,573.01,3.58Zm0,9.105a1.907,1.907,0,0,0,1.455-.608,2.392,2.392,0,0,0,.57-1.7,2.48,2.48,0,0,0-.525-1.665,2.137,2.137,0,0,0-3,0,2.48,2.48,0,0,0-.525,1.665,2.392,2.392,0,0,0,.57,1.7A1.907,1.907,0,0,0,573.01,12.685Zm7.5.48a2.783,2.783,0,0,1-1.7-.495,2.812,2.812,0,0,1-.967-1.275,4.64,4.64,0,0,1-.3-1.68,4.855,4.855,0,0,1,.315-1.733,3.109,3.109,0,0,1,1.02-1.38,2.873,2.873,0,0,1,1.815-.548,3.252,3.252,0,0,1,2.115.7V8.365h-.765a2.175,2.175,0,0,0-.45-1.358,1.359,1.359,0,0,0-1.1-.5,1.493,1.493,0,0,0-1.365.735,3.542,3.542,0,0,0-.45,1.875,5.3,5.3,0,0,0,.255,1.642,3.13,3.13,0,0,0,.742,1.275,1.554,1.554,0,0,0,1.133.488,1.761,1.761,0,0,0,1.253-.488,2.191,2.191,0,0,0,.653-1.253h.465a2.759,2.759,0,0,1-.862,1.7A2.54,2.54,0,0,1,580.51,13.165Zm6.735,0a2.783,2.783,0,0,1-1.7-.495,2.812,2.812,0,0,1-.967-1.275,4.64,4.64,0,0,1-.3-1.68,4.855,4.855,0,0,1,.315-1.733,3.109,3.109,0,0,1,1.02-1.38,2.873,2.873,0,0,1,1.815-.548,3.252,3.252,0,0,1,2.115.7V8.365h-.765a2.175,2.175,0,0,0-.45-1.358,1.359,1.359,0,0,0-1.1-.5,1.493,1.493,0,0,0-1.365.735,3.542,3.542,0,0,0-.45,1.875,5.3,5.3,0,0,0,.255,1.642,3.13,3.13,0,0,0,.742,1.275,1.554,1.554,0,0,0,1.133.488,1.761,1.761,0,0,0,1.253-.488,2.191,2.191,0,0,0,.653-1.253h.465a2.759,2.759,0,0,1-.862,1.7A2.54,2.54,0,0,1,587.245,13.165ZM591.1,10.72a14.971,14.971,0,0,1,2.955,3.27l.84-.8a15.282,15.282,0,0,0-3.015-3.18ZM115.367,28h-2.91v7.305h8.295V28H116.6V26.455h5.19l.585.12v-.84l-.585.12H116.6V24.91c.18-.135.24-.21.24-.315,0-.135-.1-.195-.315-.195h-1.155v1.455h-5.805l-.6-.12v.84l.6-.12h5.805Zm-1.74,6.705v-1.77h5.94v1.77Zm0-2.37V30.76h5.94v1.575Zm0-2.175V28.6h5.94v1.56Zm-2.7,6.6V29.185c.195-.135.24-.195.24-.3,0-.135-.105-.2-.315-.2H109.7v9.42h1.23v-.75h11.04l.6.12v-.84l-.6.12ZM124.2,38.035c3.96-1.71,5.82-4.38,6.66-9.615h-3.615a23.346,23.346,0,0,0,.735-2.715h2.9l.6.12v-.84l-.6.12h-6.33l-.585-.12v.84l.585-.12h2.1a18.727,18.727,0,0,1-2.88,7.3l.33.315a11.87,11.87,0,0,0,2.925-4.305h2.46a14.753,14.753,0,0,1-1.035,3.555,8.219,8.219,0,0,0-2.145-1.32l-.285.315a16.069,16.069,0,0,1,1.77,2.25,12.254,12.254,0,0,1-3.84,3.81Zm7.92-2.985h1.23v-8.7c.18-.135.24-.2.24-.3,0-.135-.1-.195-.33-.195h-1.14Zm1.245,2.355v.63h2.145c.9,0,1.275-.36,1.275-1.215V25.24c.2-.135.24-.2.24-.3,0-.135-.1-.195-.315-.195h-1.185V36.7c-.015.525-.18.69-.705.7Zm12.285-2.61H144V37h-1.185V34.795h-4.2V34.21l3.84-6.93H144v6.5h1.65Zm-2.835-1.02V28.09h-.195l-3.06,5.685Zm8.73.525a20.156,20.156,0,0,1-4.62,3.255l.2.375a16.414,16.414,0,0,0,5.34-3.015,23.185,23.185,0,0,1,2.97,2.4l.855-1.215a30.445,30.445,0,0,0-2.94-1.995c.585-.57.9-.915,1.695-1.83h.075c.24,0,.48-.15.48-.3,0-.075-.09-.165-.2-.225l-1.14-.555a13.629,13.629,0,0,1-1.92,2.34,23.79,23.79,0,0,0-4.08-1.665l-.21.39a21.307,21.307,0,0,1,2.835,1.635Zm-1.62-7.965h9.255l.6.12v-.84l-.6.12h-8.85l.03-.03.045-.075c.12-.165.225-.345.345-.525.3-.03.465-.135.465-.285,0-.09-.1-.18-.21-.195l-1.365-.225a15.077,15.077,0,0,1-3.015,4.455l.255.315a9.833,9.833,0,0,0,3.015-2.79Zm8.19,3.69h-9.945l-.585-.12v.84l.585-.12h8.7A16.953,16.953,0,0,0,157.908,37c.36.72.825,1.11,1.32,1.11.435,0,.735-.345.885-.975a11.6,11.6,0,0,0,.3-2.325l-.54-.1a10.981,10.981,0,0,1-.315,1.95c-.03.15-.12.255-.195.255-.105,0-.21-.135-.375-.525a15.869,15.869,0,0,1-.87-5.715Zm-8.235-1.65h7.89l.6.12v-.84l-.6.12h-7.89l-.585-.12v.84Zm24.765-1.905.6.12v-.84l-.6.12h-4.275c.12-.195.21-.33.435-.675.285-.045.435-.15.435-.315,0-.09-.1-.18-.255-.21l-1.125-.27a11.107,11.107,0,0,1-2.07,3.495l.285.24a5.889,5.889,0,0,0,1.86-1.665H171.3a11.42,11.42,0,0,1,.48,1.8l1.32-.42a4.492,4.492,0,0,0-1.125-1.38Zm-9.57,0a17.5,17.5,0,0,1,.45,1.8l1.275-.39a5.074,5.074,0,0,0-1.08-1.41h1.98l.6.12v-.84l-.6.12h-3.27c.18-.255.255-.36.45-.675.285-.045.435-.15.435-.315,0-.09-.1-.18-.255-.21l-1.125-.27a11.967,11.967,0,0,1-2.31,3.645l.285.27A6.873,6.873,0,0,0,164,26.47Zm.21,6.3v4.62h1.155V36.22h5.205V32.77Zm1.155,2.85V33.37h4.05v2.25Zm-1.185-4.32h6.48l.6.12v-.84l-.6.12h-6.48l-.585-.12v.84Zm9.42-2.67h-12.3v9.435h1.23V29.23h9.84v7.485c0,.465-.21.66-.675.66h-1.53v.63h2.07c.96,0,1.365-.405,1.365-1.35Zm13.14-.06a42.2,42.2,0,0,1-1,7.86.941.941,0,0,1-.96.45h-1.725v.69h2.58c1.155.015,1.5-.375,1.8-2.04a61.042,61.042,0,0,0,.78-7.65H183.6c.06-.66.09-1.275.09-1.89V25.6c.2-.12.285-.225.285-.36a.257.257,0,0,0-.27-.255l-1.575-.105.105.9v.225c0,.435-.03,1.095-.105,1.875h-3.945l-.6-.12v.93l.6-.12h3.885a10.631,10.631,0,0,1-4.86,8.46l.18.36c3.615-1.335,5.67-4.29,6.15-8.82Zm2.76-2.73a3.048,3.048,0,0,0-1.74-1.59l-.255.21a6.015,6.015,0,0,1,.975,1.89Zm-3.72-1.185a5.7,5.7,0,0,1,.84,1.965l1.035-.465a3.048,3.048,0,0,0-1.59-1.695Zm7.62,12.66a10.432,10.432,0,0,0,6.96-3.735c1.245-1.56,2.025-3.66,2.565-6.93.255-.12.375-.24.375-.405,0-.12-.105-.225-.27-.255l-1.56-.36-.03.855a14.412,14.412,0,0,1-2.16,6.285,10.565,10.565,0,0,1-6,4.05Zm-1.725-11.01a17.59,17.59,0,0,1,2.475,4.665l1.47-.945a9.425,9.425,0,0,0-3.645-4Zm18.57,11.61a9.421,9.421,0,0,0,4.11-1.635c1.935-1.47,2.43-2.865,2.415-6.75v-3.9c.225-.15.3-.255.3-.39a.27.27,0,0,0-.285-.255l-1.545-.105.135.9v3.84c-.015,3.27-.345,4.425-1.7,5.79a8.7,8.7,0,0,1-3.54,2.055Zm-2.115-11.91v7.29h1.4V25.87c.225-.165.3-.27.3-.39a.27.27,0,0,0-.285-.255l-1.545-.12Zm25.59,1.6a14.889,14.889,0,0,1-3.825,4.86,14.109,14.109,0,0,1-6.885,3.045l-.795.015.54,1.335c.09.21.225.33.375.33.165,0,.285-.1.39-.345,3.39-.765,5.52-1.785,7.365-3.525a12.644,12.644,0,0,0,3.255-5.52Zm-11.64-1.635a14.1,14.1,0,0,1,3.735,3.21l1.23-1.245a9.257,9.257,0,0,0-4.785-2.355Zm20.385,3.705a1.628,1.628,0,1,0,1.6,1.62A1.629,1.629,0,0,0,243.542,29.68Zm14.19,5.79h-5.16l-.675-.135v.96l.675-.135h11.91l.675.135v-.96l-.675.135h-5.295v-8.3h3.93l.66.135v-.96l-.66.135h-9.18l-.66-.135v.96l.66-.135h3.795ZM279.8,27.61a14.889,14.889,0,0,1-3.825,4.86,14.109,14.109,0,0,1-6.885,3.045l-.795.015.54,1.335c.09.21.225.33.375.33.165,0,.285-.1.39-.345,3.39-.765,5.52-1.785,7.365-3.525a12.643,12.643,0,0,0,3.255-5.52Zm-11.64-1.635a14.1,14.1,0,0,1,3.735,3.21l1.23-1.245a9.257,9.257,0,0,0-4.785-2.355Zm26.625-.12a3.01,3.01,0,0,0-1.74-1.59l-.255.21a5.728,5.728,0,0,1,.99,1.89Zm-.375,2.52a12.007,12.007,0,0,1-2.535,3.885,12.468,12.468,0,0,1-7.545,3.66l-.72.015.54,1.26c.09.225.21.33.36.33s.255-.075.375-.3c3.66-.735,6.12-2.07,7.83-4.215a11.532,11.532,0,0,0,2.145-4.47Zm-10.62-2.31a14.552,14.552,0,0,1,3.855,1.83l.8-1.335a9.6,9.6,0,0,0-4.56-.915Zm7.155-1.4a6.623,6.623,0,0,1,.885,2.085l1.005-.45a2.985,2.985,0,0,0-1.62-1.83Zm-7.89,5.625a13.481,13.481,0,0,1,3.84,1.665l.765-1.35a8.491,8.491,0,0,0-3.765-.735c-.18,0-.42,0-.75.015ZM309.8,27.61a14.889,14.889,0,0,1-3.825,4.86,14.109,14.109,0,0,1-6.885,3.045l-.795.015.54,1.335c.09.21.225.33.375.33.165,0,.285-.1.39-.345,3.39-.765,5.52-1.785,7.365-3.525a12.643,12.643,0,0,0,3.255-5.52Zm-11.64-1.635a14.1,14.1,0,0,1,3.735,3.21l1.23-1.245a9.257,9.257,0,0,0-4.785-2.355ZM316.1,37.12a9.019,9.019,0,0,0-4.185-2.865l-.285.36a13.388,13.388,0,0,1,3.24,3.585ZM333.063,30.6h6.765l.6.12v-.84l-.6.12h-12.6l-.6-.12v.84l.6-.12h.75v5.73c-.12.03-.2.03-.4.06-.315.045-.63.09-.945.12l.42,1.095c.06.15.165.24.27.24s.21-.09.285-.3a30.651,30.651,0,0,0,4.35-1.485V38.2h1.11Zm-1.11,1.83V33.76h-2.865V32.425Zm-2.865-.6V30.6h2.865v1.23Zm2.865,2.535v1.2l-.3.06c-.75.18-1.845.405-2.565.525V34.36Zm1.56,3.84a8.2,8.2,0,0,0,3.33-1.8,7.668,7.668,0,0,0,2.94,1.71,7.559,7.559,0,0,1,.645-1.17,8.323,8.323,0,0,1-2.835-1.335,12.81,12.81,0,0,0,2.13-3.96h-5.385l-.6-.12v.84l.6-.12h.18a8.273,8.273,0,0,0,1.7,3.5,7.662,7.662,0,0,1-2.88,2.085Zm4.71-5.955a11.983,11.983,0,0,1-1.41,2.73,6.966,6.966,0,0,1-1.77-2.73Zm-9.645-7.305v4.005h9.975V24.94Zm1.2,3.405V27.2h7.545v1.14Zm0-1.74V25.54h7.545V26.6Zm18-.63h-5.46l-.6-.12v.84l.6-.12h12.4l.6.12v-.84l-.6.12h-5.58V24.91c.2-.15.24-.21.24-.3,0-.15-.105-.21-.315-.21h-1.29Zm6.915,5.67H342.348V38.11h1.245V32.245h9.855v4.53c-.015.465-.165.615-.63.63h-1.275v.63h1.845c.915,0,1.32-.375,1.305-1.245Zm-9.57,1.71V37h1.185v-.69h5.355V33.355Zm1.185,2.355V33.955h4.185V35.71Zm6.585-5.2V27.67h-8.745v2.835Zm-7.5-.6V28.27h6.255v1.635Zm17.415,6.66h-4.245V32.62c.2-.135.24-.195.24-.3,0-.135-.1-.195-.315-.195h-1.215v5.88h1.29v-.84h9.93v.75h1.29v-5.3c.2-.15.24-.195.24-.3,0-.135-.1-.195-.315-.195h-1.215v4.44H364.1v-5.79h4.98v-4.56c.2-.135.24-.195.24-.3,0-.135-.105-.195-.315-.195h-1.215v4.455H364.1v-5.19c.18-.135.24-.195.24-.3,0-.135-.105-.2-.315-.2h-1.215v5.685h-3.555v-3.96c.2-.135.24-.195.24-.3,0-.135-.105-.195-.315-.195h-1.215v5.055h4.845Zm13.725-8.67a18.977,18.977,0,0,1-.855,4.845,9.013,9.013,0,0,1-4.05,4.815l.225.48a8.964,8.964,0,0,0,4.875-4.41,16.131,16.131,0,0,0,1.17-5.73h5.13c-.075,2.31-.36,6.45-.51,7.47-.135,1.44-.39,1.785-1.29,1.77h-2v.705h2.7c1.275.015,1.815-.495,1.95-1.86.165-1.05.51-6.585.57-8.715h-6.525c.045-.51.06-.99.06-1.485V24.9c.18-.135.24-.195.24-.3,0-.135-.105-.195-.315-.195h-1.305v1.38c0,.36-.015.885-.045,1.485H372.6l-.585-.12v.87l.585-.12Zm15.66,8.565V37h-4.2v-.54h1.545V28.465l-1.485.96-.315-.48,2.475-1.665h.51v9.18Zm8.94-9.18v.525L396.948,37h-.7l3.96-8.565H396l-.525,1.455h-.525V27.28Zm4.53,9.885a2.782,2.782,0,0,1-1.8-.63,4.026,4.026,0,0,1-1.207-1.778,8.3,8.3,0,0,1,0-5.257,4,4,0,0,1,1.215-1.77,2.922,2.922,0,0,1,3.615-.007,3.947,3.947,0,0,1,1.215,1.763,8.228,8.228,0,0,1-.008,5.257,4.1,4.1,0,0,1-1.223,1.785A2.792,2.792,0,0,1,405.663,37.165Zm.015-.48a1.7,1.7,0,0,0,1.56-1.17,8.364,8.364,0,0,0,.54-3.39,8.316,8.316,0,0,0-.54-3.375,1.625,1.625,0,0,0-3.12,0,8.316,8.316,0,0,0-.54,3.375,8.364,8.364,0,0,0,.54,3.39A1.7,1.7,0,0,0,405.677,36.685Zm11.265-.135V37h-2.025l-2.43-3.4h-.48V36.55h.93V37h-3.015v-.45h.96V27.2H409.8V26.77l2.2-.135v6.45h.51l2.295-2.415h-1.02v-.45h2.73v.45h-.945l-2.16,2.3,2.625,3.585Zm14.505-8.73h-1.11l-2.6,9.18h-.69l-2.685-7.59L421.922,37h-.69l-2.745-9.18H417.3v-.54h3.75v.54h-1.2l2.055,7.155,2.445-7.635h.63l2.745,7.59,1.965-7.11h-1.185v-.54h2.94Zm5.46-1.11h.63l-4.875,10.68h-.63Zm4.935,3.975a3.141,3.141,0,0,1,1.462.353,2.779,2.779,0,0,1,1.11,1.058,3.179,3.179,0,0,1,.427,1.68,3.351,3.351,0,0,1-.495,1.86,3.2,3.2,0,0,1-1.253,1.148,3.528,3.528,0,0,1-3.322-.068,3.191,3.191,0,0,1-1.215-1.23l.48-.3a2.586,2.586,0,0,0,.99,1,2.742,2.742,0,0,0,1.365.345,1.945,1.945,0,0,0,1.057-.307,2.2,2.2,0,0,0,.788-.908,3.153,3.153,0,0,0,.3-1.425,3.012,3.012,0,0,0-.3-1.4,2.02,2.02,0,0,0-.788-.855,2.1,2.1,0,0,0-1.057-.278,1.718,1.718,0,0,0-.9.225,2.8,2.8,0,0,0-.675.57h-.585l.36-4.875h4.77v1.2h-4.305l-.21,2.91a2.646,2.646,0,0,1,.863-.51A3.187,3.187,0,0,1,441.842,30.685Zm5.475,4.785a.868.868,0,0,1,.667.307,1.242,1.242,0,0,1,.277.862,2.255,2.255,0,0,1-.42,1.35,2.926,2.926,0,0,1-1.14.93l-.225-.36A2.187,2.187,0,0,0,447.16,38a1.169,1.169,0,0,0,.322-.743.456.456,0,0,0-.015-.135.932.932,0,0,1-.18.015.791.791,0,0,1-.608-.232.833.833,0,0,1-.217-.592.8.8,0,0,1,.247-.6A.839.839,0,0,1,447.318,35.47Zm5.58,1.695a2.782,2.782,0,0,1-1.8-.63,4.026,4.026,0,0,1-1.207-1.778,8.3,8.3,0,0,1,0-5.257,4,4,0,0,1,1.215-1.77,2.922,2.922,0,0,1,3.615-.007,3.947,3.947,0,0,1,1.215,1.763,8.228,8.228,0,0,1-.008,5.257,4.1,4.1,0,0,1-1.223,1.785A2.792,2.792,0,0,1,452.9,37.165Zm.015-.48a1.7,1.7,0,0,0,1.56-1.17,8.364,8.364,0,0,0,.54-3.39,8.316,8.316,0,0,0-.54-3.375,1.625,1.625,0,0,0-3.12,0,8.316,8.316,0,0,0-.54,3.375,8.364,8.364,0,0,0,.54,3.39A1.7,1.7,0,0,0,452.912,36.685Zm7.845.48a2.782,2.782,0,0,1-1.8-.63,4.026,4.026,0,0,1-1.207-1.778,8.3,8.3,0,0,1,0-5.257,4,4,0,0,1,1.215-1.77,2.922,2.922,0,0,1,3.615-.007,3.947,3.947,0,0,1,1.215,1.763,8.228,8.228,0,0,1-.008,5.257,4.1,4.1,0,0,1-1.223,1.785A2.792,2.792,0,0,1,460.757,37.165Zm.015-.48a1.7,1.7,0,0,0,1.56-1.17,8.364,8.364,0,0,0,.54-3.39,8.316,8.316,0,0,0-.54-3.375,1.625,1.625,0,0,0-3.12,0,8.316,8.316,0,0,0-.54,3.375,8.364,8.364,0,0,0,.54,3.39A1.7,1.7,0,0,0,460.772,36.685Zm7.845.48a2.782,2.782,0,0,1-1.8-.63,4.026,4.026,0,0,1-1.207-1.778,8.3,8.3,0,0,1,0-5.257,4,4,0,0,1,1.215-1.77,2.922,2.922,0,0,1,3.615-.007,3.947,3.947,0,0,1,1.215,1.763,8.228,8.228,0,0,1-.008,5.257,4.1,4.1,0,0,1-1.223,1.785A2.792,2.792,0,0,1,468.618,37.165Zm.015-.48a1.7,1.7,0,0,0,1.56-1.17,8.364,8.364,0,0,0,.54-3.39,8.316,8.316,0,0,0-.54-3.375,1.625,1.625,0,0,0-3.12,0,8.316,8.316,0,0,0-.54,3.375,8.364,8.364,0,0,0,.54,3.39A1.7,1.7,0,0,0,468.633,36.685Zm8.175-6.63a1.681,1.681,0,0,1,.63.12,1.108,1.108,0,0,1,.45.3V31.81h-.66a.914.914,0,0,0-1.005-.915.935.935,0,0,0-.825.555,2.631,2.631,0,0,0-.315,1.32v3.78h1.29V37h-3.4v-.45h.99V30.67h-.975v-.435l2.055-.12.015,1.08a2.037,2.037,0,0,1,1.755-1.14Zm5.175,0a2.7,2.7,0,0,1,2.557,1.62,4.216,4.216,0,0,1,.367,1.815,4.574,4.574,0,0,1-.375,1.9,3.086,3.086,0,0,1-1.057,1.305,2.877,2.877,0,0,1-2.64.27,2.134,2.134,0,0,1-.8-.562v3.36h1.08v.45h-3.3v-.45h1.1V30.22h1.11l.015.63a1.974,1.974,0,0,1,.81-.585A2.968,2.968,0,0,1,481.982,30.055Zm-.09,6.6a1.492,1.492,0,0,0,1.35-.675,3.891,3.891,0,0,0,.435-2.07,4.961,4.961,0,0,0-.51-2.452,1.661,1.661,0,0,0-2.663-.39,1.818,1.818,0,0,0-.473,1.3V34.96a1.569,1.569,0,0,0,.525,1.222A1.92,1.92,0,0,0,481.892,36.655Zm14.685-.1V37h-2.865v-.45h.765V32.23a2.22,2.22,0,0,0-.285-1.252.985.985,0,0,0-.87-.413,1.376,1.376,0,0,0-1.073.48,1.759,1.759,0,0,0-.427,1.215v4.29h.855V37h-2.835v-.45h.855V32.23a2.22,2.22,0,0,0-.285-1.252.985.985,0,0,0-.87-.413,1.392,1.392,0,0,0-1.087.48,1.759,1.759,0,0,0-.428,1.215v4.29h.8V37h-2.91v-.45h.99V30.67h-.96v-.435l2.055-.12.03.7a2.122,2.122,0,0,1,1.8-.765,2.213,2.213,0,0,1,1.08.263,1.624,1.624,0,0,1,.705.727,1.9,1.9,0,0,1,.78-.735,2.455,2.455,0,0,1,1.14-.255q2.07,0,2.07,2.34V36.55Zm5.325.57a9.019,9.019,0,0,0-4.185-2.865l-.285.36a13.388,13.388,0,0,1,3.24,3.585ZM197.62,54.6h6.765l.6.12v-.84l-.6.12h-12.6l-.6-.12v.84l.6-.12h.75v5.73c-.12.03-.195.03-.4.06-.315.045-.63.09-.945.12l.42,1.095c.06.15.165.24.27.24.12,0,.21-.09.285-.3a30.652,30.652,0,0,0,4.35-1.485V62.2h1.11Zm-1.11,1.83V57.76h-2.865V56.425Zm-2.865-.6V54.6h2.865v1.23Zm2.865,2.535v1.2l-.3.06c-.75.18-1.845.405-2.565.525V58.36Zm1.56,3.84a8.2,8.2,0,0,0,3.33-1.8,7.668,7.668,0,0,0,2.94,1.71,7.558,7.558,0,0,1,.645-1.17A8.323,8.323,0,0,1,202.15,59.6a12.81,12.81,0,0,0,2.13-3.96h-5.385l-.6-.12v.84l.6-.12h.18a8.273,8.273,0,0,0,1.695,3.5,7.662,7.662,0,0,1-2.88,2.085Zm4.71-5.955a11.984,11.984,0,0,1-1.41,2.73,6.966,6.966,0,0,1-1.77-2.73Zm-9.645-7.305v4.005h9.975V48.94Zm1.2,3.405v-1.14h7.545v1.14Zm0-1.74V49.54h7.545V50.6Zm24.735,2.58.63.12V52.39l-.63.12h-5.655l.015-.045c.1-1.05.18-2.175.18-3.015v-.465c.2-.135.24-.195.24-.3,0-.135-.1-.2-.315-.2h-1.29v.99c.015.435-.105,2.145-.2,2.985l-.015.045H207.1l-.63-.12v.915l.63-.12h4.86a10.57,10.57,0,0,1-5.775,8.52l.24.4a9.94,9.94,0,0,0,6.84-8.355,12.571,12.571,0,0,0,5.91,8.28,8.832,8.832,0,0,1,.81-1.5,12.569,12.569,0,0,1-4.89-4.17,9.336,9.336,0,0,1-1.545-3.18Zm7.755-3.615c.195-.1.3-.225.3-.36s-.12-.24-.3-.255l-1.5-.105.1.9V61.72h1.4V53.77a14.9,14.9,0,0,1,5.6,3.87l1.02-1.365a16.009,16.009,0,0,0-6.615-3.06ZM243.5,61.48a7.431,7.431,0,0,0,4.455-2.715,10.5,10.5,0,0,0,2.175-4.935l-.465-.15c-.99,2.82-2.865,5.115-4.83,5.91V49.9c.225-.15.3-.255.3-.39a.281.281,0,0,0-.285-.255l-1.485-.1.135.9Zm-7.1.045a8.229,8.229,0,0,0,3.36-3.57,13.975,13.975,0,0,0,.885-5.85V50.41c.225-.15.3-.255.3-.39a.27.27,0,0,0-.285-.255l-1.53-.1.135.9v1.68c0,4.56-.72,6.615-3.135,8.9ZM257.635,50.9c.165-.33.3-.66.525-1.245.285-.135.39-.225.39-.39,0-.135-.105-.225-.33-.27l-1.41-.3-.15.855a12.789,12.789,0,0,1-4.035,5.97l.24.36a10.065,10.065,0,0,0,4.41-4.29h4.7a13.1,13.1,0,0,1-3.66,6.72,14.742,14.742,0,0,1-5.625,2.94l.09.45a13.354,13.354,0,0,0,6.03-2.3c2.475-1.8,4.125-4.71,4.815-8.505ZM270.37,55.75a2.55,2.55,0,0,1,2.1,2.49,2.577,2.577,0,0,1-.488,1.575,3.116,3.116,0,0,1-1.26,1.005,3.912,3.912,0,0,1-1.613.345,3.244,3.244,0,0,1-1.732-.465,3.425,3.425,0,0,1-1.193-1.215l.48-.3a2.409,2.409,0,0,0,1.02,1,2.838,2.838,0,0,0,1.3.33,2.329,2.329,0,0,0,1.043-.24,1.932,1.932,0,0,0,.795-.735,2.231,2.231,0,0,0,.307-1.2,2.129,2.129,0,0,0-.607-1.6,2.074,2.074,0,0,0-1.508-.593h-.375V55.69a2.542,2.542,0,0,0,1.035-.225,1.955,1.955,0,0,0,.84-.713,2.133,2.133,0,0,0,.33-1.222,2.229,2.229,0,0,0-.42-1.372,1.59,1.59,0,0,0-2.5.09,3.291,3.291,0,0,0-.488,1.628h-.81v-1.8a2.968,2.968,0,0,1,1.11-.72,4,4,0,0,1,1.47-.27,3.632,3.632,0,0,1,1.455.285,2.525,2.525,0,0,1,1.057.825,2.092,2.092,0,0,1,.4,1.275A2.458,2.458,0,0,1,270.37,55.75Zm8.385.06a2.869,2.869,0,0,1,1.418.9,2.461,2.461,0,0,1,.547,1.65,2.507,2.507,0,0,1-.48,1.552,2.855,2.855,0,0,1-1.253.945,4.36,4.36,0,0,1-1.628.308,4.2,4.2,0,0,1-1.628-.315,2.894,2.894,0,0,1-1.23-.945,2.5,2.5,0,0,1-.473-1.545,2.461,2.461,0,0,1,.548-1.65,2.869,2.869,0,0,1,1.417-.9,2.515,2.515,0,0,1-1.125-.8,2.219,2.219,0,0,1-.495-1.485,2.14,2.14,0,0,1,.42-1.342,2.585,2.585,0,0,1,1.1-.825,3.885,3.885,0,0,1,1.477-.278,3.939,3.939,0,0,1,1.462.27,2.558,2.558,0,0,1,1.11.825,2.146,2.146,0,0,1,.427,1.35,2.219,2.219,0,0,1-.495,1.485A2.514,2.514,0,0,1,278.755,55.81Zm-1.38-4.23a1.647,1.647,0,0,0-1.267.548,2.38,2.38,0,0,0,0,2.925,1.75,1.75,0,0,0,2.542,0,2.394,2.394,0,0,0-.007-2.925A1.647,1.647,0,0,0,277.375,51.58Zm0,9.1a1.907,1.907,0,0,0,1.455-.608,2.392,2.392,0,0,0,.57-1.7,2.48,2.48,0,0,0-.525-1.665,2.137,2.137,0,0,0-3,0,2.48,2.48,0,0,0-.525,1.665,2.392,2.392,0,0,0,.57,1.7A1.907,1.907,0,0,0,277.375,60.685Zm7.845.48a2.782,2.782,0,0,1-1.8-.63,4.026,4.026,0,0,1-1.207-1.778,8.3,8.3,0,0,1,0-5.257,4,4,0,0,1,1.215-1.77,2.922,2.922,0,0,1,3.615-.007,3.947,3.947,0,0,1,1.215,1.763,8.228,8.228,0,0,1-.008,5.257,4.1,4.1,0,0,1-1.223,1.785A2.792,2.792,0,0,1,285.22,61.165Zm.015-.48a1.7,1.7,0,0,0,1.56-1.17,8.364,8.364,0,0,0,.54-3.39,8.316,8.316,0,0,0-.54-3.375,1.625,1.625,0,0,0-3.12,0,8.316,8.316,0,0,0-.54,3.375,8.364,8.364,0,0,0,.54,3.39A1.7,1.7,0,0,0,285.235,60.685Zm4.425-.225h1.2V51.82h-1.2v-.54H292.1l4.515,7.29V51.82h-1.2v-.54h3.045v.54h-1.2V61h-.69l-5.07-8.265V60.46h1.2V61H289.66Zm20.22.09V61h-2.865v-.45h.765V56.23a2.22,2.22,0,0,0-.285-1.252.985.985,0,0,0-.87-.413,1.376,1.376,0,0,0-1.073.48,1.759,1.759,0,0,0-.427,1.215v4.29h.855V61h-2.835v-.45H304V56.23a2.22,2.22,0,0,0-.285-1.252.985.985,0,0,0-.87-.413,1.392,1.392,0,0,0-1.087.48,1.759,1.759,0,0,0-.428,1.215v4.29h.8V61h-2.91v-.45h.99V54.67h-.96v-.435l2.055-.12.03.7a2.122,2.122,0,0,1,1.8-.765,2.213,2.213,0,0,1,1.08.263,1.624,1.624,0,0,1,.705.727,1.9,1.9,0,0,1,.78-.735,2.455,2.455,0,0,1,1.14-.255q2.07,0,2.07,2.34V60.55Zm5.625-9.84h.63L311.26,61.39h-.63Zm7.14,9.75V61h-4.2v-.54h1.545V52.465l-1.485.96-.315-.48,2.475-1.665h.51v9.18Zm3.27-.99a.868.868,0,0,1,.667.307,1.242,1.242,0,0,1,.277.862,2.255,2.255,0,0,1-.42,1.35,2.926,2.926,0,0,1-1.14.93l-.225-.36a2.187,2.187,0,0,0,.683-.562,1.169,1.169,0,0,0,.322-.743.456.456,0,0,0-.015-.135.932.932,0,0,1-.18.015.791.791,0,0,1-.608-.232.833.833,0,0,1-.217-.592.8.8,0,0,1,.247-.6A.839.839,0,0,1,325.915,59.47Zm5.475-4.785a3.141,3.141,0,0,1,1.462.352,2.779,2.779,0,0,1,1.11,1.058,3.179,3.179,0,0,1,.427,1.68,3.351,3.351,0,0,1-.495,1.86,3.2,3.2,0,0,1-1.253,1.148,3.528,3.528,0,0,1-3.322-.068,3.191,3.191,0,0,1-1.215-1.23l.48-.3a2.586,2.586,0,0,0,.99,1,2.742,2.742,0,0,0,1.365.345A1.945,1.945,0,0,0,332,60.228a2.2,2.2,0,0,0,.788-.908,3.153,3.153,0,0,0,.3-1.425,3.012,3.012,0,0,0-.3-1.4,2.02,2.02,0,0,0-.788-.855,2.1,2.1,0,0,0-1.057-.278,1.718,1.718,0,0,0-.9.225,2.8,2.8,0,0,0-.675.57h-.585l.36-4.875h4.77v1.2H329.6l-.21,2.91a2.646,2.646,0,0,1,.863-.51A3.187,3.187,0,0,1,331.39,54.685Zm7.815,6.48a2.782,2.782,0,0,1-1.8-.63,4.026,4.026,0,0,1-1.207-1.778,8.3,8.3,0,0,1,0-5.257,4,4,0,0,1,1.215-1.77,2.922,2.922,0,0,1,3.615-.007,3.947,3.947,0,0,1,1.215,1.763,8.228,8.228,0,0,1-.008,5.257,4.1,4.1,0,0,1-1.223,1.785A2.792,2.792,0,0,1,339.2,61.165Zm.015-.48a1.7,1.7,0,0,0,1.56-1.17,8.364,8.364,0,0,0,.54-3.39,8.316,8.316,0,0,0-.54-3.375,1.625,1.625,0,0,0-3.12,0,8.316,8.316,0,0,0-.54,3.375,8.364,8.364,0,0,0,.54,3.39A1.7,1.7,0,0,0,339.22,60.685Zm7.845.48a2.782,2.782,0,0,1-1.8-.63,4.026,4.026,0,0,1-1.207-1.778,8.3,8.3,0,0,1,0-5.257,4,4,0,0,1,1.215-1.77,2.922,2.922,0,0,1,3.615-.007,3.947,3.947,0,0,1,1.215,1.763,8.228,8.228,0,0,1-.008,5.257,4.1,4.1,0,0,1-1.223,1.785A2.792,2.792,0,0,1,347.065,61.165Zm.015-.48a1.7,1.7,0,0,0,1.56-1.17,8.364,8.364,0,0,0,.54-3.39,8.316,8.316,0,0,0-.54-3.375,1.625,1.625,0,0,0-3.12,0,8.316,8.316,0,0,0-.54,3.375,8.364,8.364,0,0,0,.54,3.39A1.7,1.7,0,0,0,347.08,60.685ZM351.6,56.77h3.285v.585H351.6Zm11.355,2.025H361.3V61h-1.185V58.795h-4.2V58.21l3.84-6.93H361.3v6.5h1.65Zm-2.835-1.02V52.09h-.2l-3.06,5.685ZM364.9,59.47a.868.868,0,0,1,.667.307,1.242,1.242,0,0,1,.277.862,2.255,2.255,0,0,1-.42,1.35,2.926,2.926,0,0,1-1.14.93l-.225-.36a2.187,2.187,0,0,0,.683-.562,1.169,1.169,0,0,0,.322-.743.456.456,0,0,0-.015-.135.932.932,0,0,1-.18.015.791.791,0,0,1-.608-.232.833.833,0,0,1-.217-.592.8.8,0,0,1,.247-.6A.839.839,0,0,1,364.9,59.47Zm5.58,1.695a2.782,2.782,0,0,1-1.8-.63,4.026,4.026,0,0,1-1.207-1.778,8.3,8.3,0,0,1,0-5.257,4,4,0,0,1,1.215-1.77,2.922,2.922,0,0,1,3.615-.007,3.947,3.947,0,0,1,1.215,1.763,8.228,8.228,0,0,1-.008,5.257,4.1,4.1,0,0,1-1.223,1.785A2.792,2.792,0,0,1,370.48,61.165Zm.015-.48a1.7,1.7,0,0,0,1.56-1.17,8.364,8.364,0,0,0,.54-3.39,8.316,8.316,0,0,0-.54-3.375,1.625,1.625,0,0,0-3.12,0,8.316,8.316,0,0,0-.54,3.375,8.364,8.364,0,0,0,.54,3.39A1.7,1.7,0,0,0,370.495,60.685Zm7.845.48a2.782,2.782,0,0,1-1.8-.63,4.026,4.026,0,0,1-1.207-1.778,8.3,8.3,0,0,1,0-5.257,4,4,0,0,1,1.215-1.77,2.922,2.922,0,0,1,3.615-.007,3.947,3.947,0,0,1,1.215,1.763,8.228,8.228,0,0,1-.008,5.257,4.1,4.1,0,0,1-1.223,1.785A2.792,2.792,0,0,1,378.34,61.165Zm.015-.48a1.7,1.7,0,0,0,1.56-1.17,8.364,8.364,0,0,0,.54-3.39,8.316,8.316,0,0,0-.54-3.375,1.625,1.625,0,0,0-3.12,0,8.316,8.316,0,0,0-.54,3.375,8.364,8.364,0,0,0,.54,3.39A1.7,1.7,0,0,0,378.355,60.685Zm7.845.48a2.782,2.782,0,0,1-1.8-.63,4.026,4.026,0,0,1-1.207-1.778,8.3,8.3,0,0,1,0-5.257,4,4,0,0,1,1.215-1.77,2.922,2.922,0,0,1,3.615-.007,3.947,3.947,0,0,1,1.215,1.763,8.228,8.228,0,0,1-.008,5.257,4.1,4.1,0,0,1-1.223,1.785A2.792,2.792,0,0,1,386.2,61.165Zm.015-.48a1.7,1.7,0,0,0,1.56-1.17,8.364,8.364,0,0,0,.54-3.39,8.316,8.316,0,0,0-.54-3.375,1.625,1.625,0,0,0-3.12,0,8.316,8.316,0,0,0-.54,3.375,8.364,8.364,0,0,0,.54,3.39A1.7,1.7,0,0,0,386.215,60.685Zm8.175-6.63a1.681,1.681,0,0,1,.63.12,1.108,1.108,0,0,1,.45.3V55.81h-.66A.914.914,0,0,0,393.8,54.9a.935.935,0,0,0-.825.555,2.631,2.631,0,0,0-.315,1.32v3.78h1.29V61h-3.4v-.45h.99V54.67h-.975v-.435l2.055-.12.015,1.08a2.037,2.037,0,0,1,1.755-1.14Zm5.175,0a2.7,2.7,0,0,1,2.557,1.62,4.216,4.216,0,0,1,.367,1.815,4.574,4.574,0,0,1-.375,1.9,3.086,3.086,0,0,1-1.057,1.305,2.877,2.877,0,0,1-2.64.27,2.134,2.134,0,0,1-.8-.562v3.36h1.08v.45h-3.3v-.45h1.1V54.22h1.11l.015.63a1.974,1.974,0,0,1,.81-.585A2.968,2.968,0,0,1,399.565,54.055Zm-.09,6.6a1.492,1.492,0,0,0,1.35-.675,3.891,3.891,0,0,0,.435-2.07,4.961,4.961,0,0,0-.51-2.452,1.661,1.661,0,0,0-2.663-.39,1.818,1.818,0,0,0-.473,1.3V58.96a1.569,1.569,0,0,0,.525,1.222A1.92,1.92,0,0,0,399.475,60.655Zm14.685-.1V61h-2.865v-.45h.765V56.23a2.22,2.22,0,0,0-.285-1.252.985.985,0,0,0-.87-.413,1.376,1.376,0,0,0-1.073.48,1.759,1.759,0,0,0-.427,1.215v4.29h.855V61h-2.835v-.45h.855V56.23a2.22,2.22,0,0,0-.285-1.252.985.985,0,0,0-.87-.413,1.392,1.392,0,0,0-1.087.48,1.759,1.759,0,0,0-.428,1.215v4.29h.8V61h-2.91v-.45h.99V54.67h-.96v-.435l2.055-.12.03.7a2.122,2.122,0,0,1,1.8-.765,2.213,2.213,0,0,1,1.08.263,1.624,1.624,0,0,1,.705.727,1.9,1.9,0,0,1,.78-.735,2.455,2.455,0,0,1,1.14-.255q2.07,0,2.07,2.34V60.55Zm3.24-3.045a2.348,2.348,0,1,0,2.31,2.34A2.35,2.35,0,0,0,417.4,57.505Zm-.06.69a1.658,1.658,0,1,1-1.635,1.65A1.659,1.659,0,0,1,417.34,58.195Z" transform="translate(-0.19 306.281)" fill="#111"/>
      </g>
      <path id="パス_30940" data-name="パス 30940" d="M-50.568-1.728h3.84V-29.376h-3.84V-31.1h8.208L-31.8-7.056-21.624-31.1h8.016v1.728h-3.84V-1.728h3.84V0h-11.76V-1.728h3.84v-24.24L-31.8-1.776h-2.208L-44.664-26.16V-1.728h3.7V0h-9.6Zm53.616,0V0H-10.44V-1.728h4.7V-29.376h-4.512V-31.1h13.1v1.728H-1.656V-1.728Zm3.168,0h3.84V-29.376H6.216V-31.1H14.04L28.488-7.776v-21.6h-3.84V-31.1h9.744v1.728h-3.84V0H28.344L12.12-26.448v24.72h3.84V0H6.216Zm44.352,0V0H37.08V-1.728h4.7V-29.376H37.272V-31.1h13.1v1.728H45.864V-1.728Zm-283.2,50.3a8.209,8.209,0,0,1-4.152-.888,9.956,9.956,0,0,1-2.76-2.472V39.552h2.592a15.153,15.153,0,0,0,1.3,5.712,3.178,3.178,0,0,0,2.976,1.728q3.6,0,3.6-5.184V18.624h-3.984V16.9h11.952v1.728H-225V40.512q0,3.984-2.208,6.024A7.7,7.7,0,0,1-232.632,48.576Zm27.5,0a12.2,12.2,0,0,1-7.512-2.208,12.615,12.615,0,0,1-4.3-5.736,21.057,21.057,0,0,1-1.344-7.56,23.225,23.225,0,0,1,1.368-7.9,14.107,14.107,0,0,1,4.488-6.336,12.277,12.277,0,0,1,7.968-2.52,12.414,12.414,0,0,1,7.56,2.208,12.974,12.974,0,0,1,4.416,5.736,19.978,19.978,0,0,1,1.416,7.512,22.248,22.248,0,0,1-1.44,7.872,14.7,14.7,0,0,1-4.584,6.384A12.374,12.374,0,0,1-205.128,48.576Zm1.152-1.584a7.062,7.062,0,0,0,6.432-3.528q2.16-3.528,2.16-9.432a28.524,28.524,0,0,0-1.032-7.752,13.988,13.988,0,0,0-3.288-6.024,7.692,7.692,0,0,0-5.808-2.352,6.894,6.894,0,0,0-6.408,3.48,17.315,17.315,0,0,0-2.04,8.856,26.731,26.731,0,0,0,2.4,11.856A7.947,7.947,0,0,0-203.976,46.992Zm42.384-28.368V46.272h3.84V48h-11.664V46.272h3.744V32.5h-14.16V46.272h3.744V48h-11.664V46.272h3.84V18.624h-3.84V16.9h11.664v1.728h-3.744V30.672h14.16V18.624h-3.744V16.9h11.664v1.728Zm7.008,27.648h3.84V18.624h-3.84V16.9h7.824l14.448,23.328v-21.6h-3.84V16.9h9.744v1.728h-3.84V48h-2.208L-148.68,21.552v24.72h3.84V48h-9.744Zm56.448,2.3a12.661,12.661,0,0,1-7.848-2.3,12.931,12.931,0,0,1-4.392-5.88,21.175,21.175,0,0,1-1.344-7.512,22.739,22.739,0,0,1,1.392-7.944,13.827,13.827,0,0,1,4.464-6.192,12.168,12.168,0,0,1,7.776-2.424,14.621,14.621,0,0,1,5.4.888,16.1,16.1,0,0,1,4.008,2.28v5.76h-2.736q-.384-3.84-2.3-5.616a6.671,6.671,0,0,0-4.7-1.776,7.547,7.547,0,0,0-6.792,3.432,15.976,15.976,0,0,0-2.232,8.856,29.339,29.339,0,0,0,1.032,7.92,14.364,14.364,0,0,0,3.192,6.024,7.033,7.033,0,0,0,5.376,2.328,8.407,8.407,0,0,0,5.184-1.776A8.352,8.352,0,0,0-89.592,39.5h1.824a10.917,10.917,0,0,1-1.92,4.656,10.716,10.716,0,0,1-3.7,3.24A9.956,9.956,0,0,1-98.136,48.576Zm26.928,0a12.2,12.2,0,0,1-7.512-2.208,12.615,12.615,0,0,1-4.3-5.736,21.056,21.056,0,0,1-1.344-7.56,23.225,23.225,0,0,1,1.368-7.9A14.107,14.107,0,0,1-78.5,18.84a12.277,12.277,0,0,1,7.968-2.52,12.414,12.414,0,0,1,7.56,2.208,12.974,12.974,0,0,1,4.416,5.736,19.977,19.977,0,0,1,1.416,7.512,22.248,22.248,0,0,1-1.44,7.872,14.7,14.7,0,0,1-4.584,6.384A12.374,12.374,0,0,1-71.208,48.576Zm1.152-1.584a7.062,7.062,0,0,0,6.432-3.528q2.16-3.528,2.16-9.432A28.524,28.524,0,0,0-62.5,26.28a13.988,13.988,0,0,0-3.288-6.024A7.692,7.692,0,0,0-71.592,17.9,6.894,6.894,0,0,0-78,21.384a17.315,17.315,0,0,0-2.04,8.856A26.731,26.731,0,0,0-77.64,42.1,7.947,7.947,0,0,0-70.056,46.992Zm30.1,1.584a12.2,12.2,0,0,1-7.512-2.208,12.615,12.615,0,0,1-4.3-5.736,21.057,21.057,0,0,1-1.344-7.56,23.225,23.225,0,0,1,1.368-7.9,14.107,14.107,0,0,1,4.488-6.336,12.277,12.277,0,0,1,7.968-2.52,12.414,12.414,0,0,1,7.56,2.208,12.974,12.974,0,0,1,4.416,5.736A19.977,19.977,0,0,1-25.9,31.776a22.249,22.249,0,0,1-1.44,7.872,14.7,14.7,0,0,1-4.584,6.384A12.374,12.374,0,0,1-39.96,48.576Zm1.152-1.584a7.062,7.062,0,0,0,6.432-3.528q2.16-3.528,2.16-9.432a28.524,28.524,0,0,0-1.032-7.752,13.988,13.988,0,0,0-3.288-6.024A7.692,7.692,0,0,0-40.344,17.9a6.894,6.894,0,0,0-6.408,3.48,17.315,17.315,0,0,0-2.04,8.856,26.731,26.731,0,0,0,2.4,11.856A7.947,7.947,0,0,0-38.808,46.992ZM-8.616,16.9q4.7,0,7.056,2.256A7.75,7.75,0,0,1,.792,25.008a8.368,8.368,0,0,1-1.128,4.32A8.026,8.026,0,0,1-3.6,32.376,10.594,10.594,0,0,1-8.616,33.5h-6.048V46.272h3.84V48h-11.76V46.272h3.84V18.624h-3.84V16.9ZM-9.192,31.68A4.909,4.909,0,0,0-5.28,29.832,7.077,7.077,0,0,0-3.72,25.1a7.064,7.064,0,0,0-1.488-4.728,4.961,4.961,0,0,0-3.984-1.752h-5.472V31.68Zm36.528,7.872V48H3.576V46.272h3.84V18.624H3.576V16.9H26.952v8.352H25.128l-2.544-6.624H11.5V30.672h7.536v-3.7H21.24v9.216H19.032V32.5H11.5V46.272H22.968l2.544-6.72Zm32.16,6.72V48H52.152l-9.12-14.352H38.568V46.272H42.36V48H30.648V46.272h3.84V18.624h-3.84V16.9H44.616q4.7,0,7.056,2.328a7.986,7.986,0,0,1,2.352,5.928A8.209,8.209,0,0,1,52.248,30.5,8.312,8.312,0,0,1,47.4,33.36l8.64,12.912ZM38.568,31.824h5.52A4.909,4.909,0,0,0,48,29.976a7.077,7.077,0,0,0,1.56-4.728,7.278,7.278,0,0,0-1.512-4.8,4.9,4.9,0,0,0-3.96-1.824h-5.52Zm78.96-13.2h-3.552L105.672,48h-2.208L94.872,23.712,87.048,48H84.84L76.056,18.624H72.264V16.9h12v1.728h-3.84L87,41.52l7.824-24.432H96.84l8.784,24.288,6.288-22.752H108.12V16.9h9.408Zm13.344,29.952a12.2,12.2,0,0,1-7.512-2.208,12.615,12.615,0,0,1-4.3-5.736,21.056,21.056,0,0,1-1.344-7.56,23.225,23.225,0,0,1,1.368-7.9,14.107,14.107,0,0,1,4.488-6.336,12.277,12.277,0,0,1,7.968-2.52,12.414,12.414,0,0,1,7.56,2.208,12.974,12.974,0,0,1,4.416,5.736,19.977,19.977,0,0,1,1.416,7.512,22.248,22.248,0,0,1-1.44,7.872,14.7,14.7,0,0,1-4.584,6.384A12.374,12.374,0,0,1,130.872,48.576Zm1.152-1.584a7.062,7.062,0,0,0,6.432-3.528q2.16-3.528,2.16-9.432a28.524,28.524,0,0,0-1.032-7.752,13.988,13.988,0,0,0-3.288-6.024,7.692,7.692,0,0,0-5.808-2.352,6.894,6.894,0,0,0-6.408,3.48,17.315,17.315,0,0,0-2.04,8.856,26.731,26.731,0,0,0,2.4,11.856A7.947,7.947,0,0,0,132.024,46.992Zm45.072-.72V48h-7.344l-9.12-14.352h-4.464V46.272h3.792V48H148.248V46.272h3.84V18.624h-3.84V16.9h13.968q4.7,0,7.056,2.328a7.986,7.986,0,0,1,2.352,5.928,8.209,8.209,0,0,1-1.776,5.352A8.312,8.312,0,0,1,165,33.36l8.64,12.912ZM156.168,31.824h5.52a4.909,4.909,0,0,0,3.912-1.848,7.077,7.077,0,0,0,1.56-4.728,7.278,7.278,0,0,0-1.512-4.8,4.9,4.9,0,0,0-3.96-1.824h-5.52ZM207,46.272V48h-7.488L188.52,32.5h-1.728V46.272h3.744V48H178.92V46.272h3.792V18.624H178.92V16.9h11.616v1.728h-3.744V30.672h2.352l10.032-12.048h-3.552V16.9h9.7v1.728h-3.552L191.976,30.48l11.472,15.792Zm11.568,2.3a14.828,14.828,0,0,1-5.5-.96,8.7,8.7,0,0,1-3.576-2.352V39.6h2.592q.48,4.08,2.16,5.736a6.019,6.019,0,0,0,4.416,1.656,6.316,6.316,0,0,0,4.584-1.56,5.581,5.581,0,0,0,1.608-4.2,5.366,5.366,0,0,0-2.64-4.8l-8.544-5.52a10.256,10.256,0,0,1-3.048-2.832,6.827,6.827,0,0,1-1.08-3.936,7.082,7.082,0,0,1,2.52-5.688A10.393,10.393,0,0,1,219,16.32a13.979,13.979,0,0,1,4.92.816,9.217,9.217,0,0,1,3.576,2.3v5.808H224.9q-.384-4.176-1.824-5.784A5.193,5.193,0,0,0,219,17.856a5.607,5.607,0,0,0-4.392,1.536,5.365,5.365,0,0,0-1.368,3.7,4.568,4.568,0,0,0,2.208,4.128l8.4,5.376a12.126,12.126,0,0,1,3.768,3.432,7.241,7.241,0,0,1,1.128,4.008,7.962,7.962,0,0,1-4.68,7.44A12.515,12.515,0,0,1,218.568,48.576Zm17.136-.048a2.868,2.868,0,1,1,2.04-.84A2.777,2.777,0,0,1,235.7,48.528Z" transform="translate(305.544 277.785)" fill="#111"/>
    </g>
  </g>
</svg>
