<svg xmlns="http://www.w3.org/2000/svg" width="593.55" height="216.895" viewBox="0 0 593.55 216.895">
  <g id="door03-txt05" transform="translate(-1136 -3783.681)">
    <g id="text" transform="translate(1127 3537)">
      <g id="グループ_720" data-name="グループ 720" transform="translate(0 51.68)">
        <g id="price" transform="translate(-12 -1876.2)">
          <path id="パス_30954" data-name="パス 30954" d="M1.284-9.348V.8H2.34v-4.86H9.672V-.444c0,.468-.2.672-.672.672H7.452v.5H9.564c.816,0,1.164-.348,1.164-1.152V-9.348Zm1.056.48H5.424v4.332H2.34Zm4.128,0h3.2v4.332h-3.2Zm8.976-.288a10.473,10.473,0,0,0-1.716,5.664,10.473,10.473,0,0,0,1.716,5.664h.66A13.63,13.63,0,0,1,15.252.216a11.765,11.765,0,0,1-.588-3.708A11.765,11.765,0,0,1,15.252-7.2,13.63,13.63,0,0,1,16.1-9.156ZM19.86.888h.888V-4.68a13.766,13.766,0,0,1,.9,2.076l.8-.708a7.494,7.494,0,0,0-1.7-1.752v-1.32h1l.468.1V-6.96l-.468.1h-1V-8.988c.312-.072.36-.084.816-.216a1.541,1.541,0,0,0,.3.048c.156,0,.264-.072.264-.18,0-.072-.024-.108-.12-.192l-.624-.552a14.34,14.34,0,0,1-3.312,1.092l.036.324A14.363,14.363,0,0,0,19.86-8.82v1.956H18.552l-.48-.1v.672l.48-.1H19.74A20.678,20.678,0,0,1,18-1.44l.24.2A10.165,10.165,0,0,0,19.86-4.08ZM22.668-7.44V-3.6h1.248v.036c-.1,2.3-.8,3.528-2.46,4.2l.156.324c2.2-.5,3.216-1.92,3.264-4.56h.936V-.108c.036.444.384.7.96.7h1.236c.6,0,.852-.228.9-.84l.132-1.464-.5-.06-.084,1.1c-.036.288-.132.372-.4.384h-.948c-.276-.012-.336-.072-.348-.324V-3.6h1.572V-7.44H26.5a8.222,8.222,0,0,0,1.272-1.908c.24-.024.372-.108.372-.228a.24.24,0,0,0-.192-.216l-1.1-.288a20.355,20.355,0,0,1-.792,2.64Zm.948,3.36V-6.96h3.756v2.88ZM22.872-9.8a9.122,9.122,0,0,1,1.068,2.2l.984-.528a5.367,5.367,0,0,0-1.752-1.872ZM33.288-.768c.7.924,1.38,1.236,2.952,1.32.624.036,2.136.072,3.312.072.5,0,1.2-.012,2.148-.024a7.715,7.715,0,0,1,.288-.948c-.78.048-2.76.1-4.248.1a10.164,10.164,0,0,1-3.3-.276,2.121,2.121,0,0,1-.816-.552V-5.52H31.512l-.48-.1v.672l.48-.1h1.152v4.008a13.136,13.136,0,0,1-1.7.648L31.344.66a.207.207,0,0,0,.168.132c.12,0,.216-.132.276-.4a11.963,11.963,0,0,0,1.464-1.14ZM36.1-9.624l-.48-.1v.7l.48-.1h1.956c.012.324.012.468.024.624-.612,3.18-1.9,5.484-3.864,6.96l.156.288a7.81,7.81,0,0,0,4.008-4.908A7.8,7.8,0,0,0,41.34-1.368c.3-.516.348-.588.648-1.068a6.969,6.969,0,0,1-2.76-3.312A10.237,10.237,0,0,1,38.6-9.624ZM34.068-8.8a5.508,5.508,0,0,0-2.4-.888l-.144.3a8.406,8.406,0,0,1,1.884,1.668Zm9.828-.36A14.236,14.236,0,0,1,44.748-7.2a11.82,11.82,0,0,1,.588,3.708A11.765,11.765,0,0,1,44.748.216,13.63,13.63,0,0,1,43.9,2.172h.66a10.5,10.5,0,0,0,1.716-5.664,10.5,10.5,0,0,0-1.716-5.664Z" transform="translate(448.272 2282)" fill="#111"/>
          <path id="パス_30953" data-name="パス 30953" d="M8.448-13.472a6.7,6.7,0,0,1,3.12.752,5.928,5.928,0,0,1,2.368,2.256,6.781,6.781,0,0,1,.912,3.584,7.15,7.15,0,0,1-1.056,3.968A6.821,6.821,0,0,1,11.12-.464,7.332,7.332,0,0,1,7.776.352a7.355,7.355,0,0,1-3.744-.96A6.807,6.807,0,0,1,1.44-3.232l1.024-.64A5.517,5.517,0,0,0,4.576-1.728a5.849,5.849,0,0,0,2.912.736,4.149,4.149,0,0,0,2.256-.656,4.7,4.7,0,0,0,1.68-1.936,6.726,6.726,0,0,0,.64-3.04,6.425,6.425,0,0,0-.64-2.992,4.309,4.309,0,0,0-1.68-1.824,4.483,4.483,0,0,0-2.256-.592,3.664,3.664,0,0,0-1.92.48,5.98,5.98,0,0,0-1.44,1.216H2.88l.768-10.4H13.824v2.56H4.64l-.448,6.208a5.645,5.645,0,0,1,1.84-1.088A6.8,6.8,0,0,1,8.448-13.472ZM20.128-3.264a1.852,1.852,0,0,1,1.424.656,2.65,2.65,0,0,1,.592,1.84,4.811,4.811,0,0,1-.9,2.88A6.243,6.243,0,0,1,18.816,4.1l-.48-.768a4.666,4.666,0,0,0,1.456-1.2A2.494,2.494,0,0,0,20.48.544a.971.971,0,0,0-.032-.288,1.988,1.988,0,0,1-.384.032,1.688,1.688,0,0,1-1.3-.5A1.777,1.777,0,0,1,18.3-1.472a1.71,1.71,0,0,1,.528-1.28A1.791,1.791,0,0,1,20.128-3.264ZM33.888-11.2q4.48,1.44,4.48,5.312a5.5,5.5,0,0,1-1.04,3.36A6.648,6.648,0,0,1,34.64-.384,8.346,8.346,0,0,1,31.2.352,6.921,6.921,0,0,1,27.5-.64,7.307,7.307,0,0,1,24.96-3.232l1.024-.64A5.14,5.14,0,0,0,28.16-1.728a6.055,6.055,0,0,0,2.784.7,4.968,4.968,0,0,0,2.224-.512,4.122,4.122,0,0,0,1.7-1.568,4.758,4.758,0,0,0,.656-2.56,4.542,4.542,0,0,0-1.3-3.408,4.425,4.425,0,0,0-3.216-1.264h-.8v-.992a5.423,5.423,0,0,0,2.208-.48,4.171,4.171,0,0,0,1.792-1.52,4.551,4.551,0,0,0,.7-2.608,4.755,4.755,0,0,0-.9-2.928,3.037,3.037,0,0,0-2.592-1.2,3.053,3.053,0,0,0-2.736,1.392,7.02,7.02,0,0,0-1.04,3.472H25.92v-3.84a6.332,6.332,0,0,1,2.368-1.536,8.529,8.529,0,0,1,3.136-.576,7.748,7.748,0,0,1,3.1.608,5.388,5.388,0,0,1,2.256,1.76,4.462,4.462,0,0,1,.848,2.72Q37.632-12.832,33.888-11.2ZM55.9-20.736v1.12L46.976,0h-1.5L53.92-18.272H44.96l-1.12,3.1H42.72v-5.568ZM65.568.352a5.936,5.936,0,0,1-3.84-1.344,8.589,8.589,0,0,1-2.576-3.792A16.025,16.025,0,0,1,58.24-10.4a15.891,15.891,0,0,1,.912-5.6,8.533,8.533,0,0,1,2.592-3.776A6,6,0,0,1,65.6-21.12a6.045,6.045,0,0,1,3.856,1.328,8.419,8.419,0,0,1,2.592,3.76,15.891,15.891,0,0,1,.912,5.6,15.775,15.775,0,0,1-.928,5.616,8.756,8.756,0,0,1-2.608,3.808A5.956,5.956,0,0,1,65.568.352ZM65.6-.672q2.176,0,3.328-2.5A17.843,17.843,0,0,0,70.08-10.4a17.742,17.742,0,0,0-1.152-7.2q-1.152-2.5-3.328-2.5t-3.328,2.5a17.742,17.742,0,0,0-1.152,7.2,17.843,17.843,0,0,0,1.152,7.232Q63.424-.672,65.6-.672ZM77.344-3.264a1.852,1.852,0,0,1,1.424.656,2.65,2.65,0,0,1,.592,1.84,4.811,4.811,0,0,1-.9,2.88A6.243,6.243,0,0,1,76.032,4.1l-.48-.768a4.666,4.666,0,0,0,1.456-1.2A2.494,2.494,0,0,0,77.7.544a.971.971,0,0,0-.032-.288,1.988,1.988,0,0,1-.384.032,1.688,1.688,0,0,1-1.3-.5,1.777,1.777,0,0,1-.464-1.264,1.71,1.71,0,0,1,.528-1.28A1.791,1.791,0,0,1,77.344-3.264ZM89.248.352a5.936,5.936,0,0,1-3.84-1.344,8.589,8.589,0,0,1-2.576-3.792A16.025,16.025,0,0,1,81.92-10.4a15.891,15.891,0,0,1,.912-5.6,8.533,8.533,0,0,1,2.592-3.776A6,6,0,0,1,89.28-21.12a6.045,6.045,0,0,1,3.856,1.328,8.419,8.419,0,0,1,2.592,3.76,15.891,15.891,0,0,1,.912,5.6,15.775,15.775,0,0,1-.928,5.616A8.756,8.756,0,0,1,93.1-1.008,5.956,5.956,0,0,1,89.248.352ZM89.28-.672q2.176,0,3.328-2.5A17.843,17.843,0,0,0,93.76-10.4a17.742,17.742,0,0,0-1.152-7.2q-1.152-2.5-3.328-2.5t-3.328,2.5A17.742,17.742,0,0,0,84.8-10.4a17.843,17.843,0,0,0,1.152,7.232Q87.1-.672,89.28-.672ZM106.016.352a5.936,5.936,0,0,1-3.84-1.344A8.589,8.589,0,0,1,99.6-4.784a16.025,16.025,0,0,1-.912-5.616A15.891,15.891,0,0,1,99.6-16a8.533,8.533,0,0,1,2.592-3.776,6,6,0,0,1,3.856-1.344,6.045,6.045,0,0,1,3.856,1.328,8.419,8.419,0,0,1,2.592,3.76,15.891,15.891,0,0,1,.912,5.6,15.775,15.775,0,0,1-.928,5.616,8.756,8.756,0,0,1-2.608,3.808A5.956,5.956,0,0,1,106.016.352Zm.032-1.024q2.176,0,3.328-2.5a17.843,17.843,0,0,0,1.152-7.232,17.742,17.742,0,0,0-1.152-7.2q-1.152-2.5-3.328-2.5t-3.328,2.5a17.742,17.742,0,0,0-1.152,7.2,17.843,17.843,0,0,0,1.152,7.232Q103.872-.672,106.048-.672ZM122.784.352a5.936,5.936,0,0,1-3.84-1.344,8.589,8.589,0,0,1-2.576-3.792,16.025,16.025,0,0,1-.912-5.616,15.891,15.891,0,0,1,.912-5.6,8.533,8.533,0,0,1,2.592-3.776,6,6,0,0,1,3.856-1.344,6.045,6.045,0,0,1,3.856,1.328,8.419,8.419,0,0,1,2.592,3.76,15.891,15.891,0,0,1,.912,5.6,15.775,15.775,0,0,1-.928,5.616,8.756,8.756,0,0,1-2.608,3.808A5.956,5.956,0,0,1,122.784.352Zm.032-1.024q2.176,0,3.328-2.5A17.843,17.843,0,0,0,127.3-10.4a17.742,17.742,0,0,0-1.152-7.2q-1.152-2.5-3.328-2.5t-3.328,2.5a17.742,17.742,0,0,0-1.152,7.2,17.843,17.843,0,0,0,1.152,7.232Q120.64-.672,122.816-.672ZM141.7-7.264a23.411,23.411,0,0,1-3.488-.64,23.411,23.411,0,0,0-3.488-.64,1.486,1.486,0,0,0-.992.352,1.28,1.28,0,0,0-.48.8h-.8a4.541,4.541,0,0,1,1.024-2.064,2.428,2.428,0,0,1,1.888-.816,9.2,9.2,0,0,1,1.728.272q1.216.272,1.568.336a20.259,20.259,0,0,0,3.552.672,1.5,1.5,0,0,0,.976-.352,1.261,1.261,0,0,0,.5-.8h.768a4.564,4.564,0,0,1-.928,2.08A2.257,2.257,0,0,1,141.7-7.264Zm8.834-12.6,1.717,2.016-.877.653-1.381-2.3-1.381,2.3-.877-.653,1.736-2-2.576-.6.336-1.045,2.445,1.027-.224-2.632h1.1l-.243,2.632,2.445-1.027.355,1.045Zm-.541-.149L149.97-20h.019l.019-.019Zm12.935,7.56V-11h-7.336v-.653q2.371-2.576,3.462-3.892a11.831,11.831,0,0,0,1.568-2.305,4.722,4.722,0,0,0,.476-2.072,3.069,3.069,0,0,0-.607-2.063,1.969,1.969,0,0,0-1.559-.7,1.844,1.844,0,0,0-1.624.821,3.946,3.946,0,0,0-.635,2.016h-1.008v-2.24a3.49,3.49,0,0,1,1.4-.9,5.325,5.325,0,0,1,1.885-.336,4.947,4.947,0,0,1,1.8.336,3.227,3.227,0,0,1,1.437,1.092,3.123,3.123,0,0,1,.569,1.932,3.451,3.451,0,0,1-.448,1.689,10.745,10.745,0,0,1-1.484,1.941q-1.036,1.129-3.742,3.873Z" transform="translate(282.632 2284)" fill="#111"/>
          <path id="パス_30952" data-name="パス 30952" d="M10.86-10.08A6.941,6.941,0,0,0,8.244-4.56,6.941,6.941,0,0,0,10.86.96h.66a7.108,7.108,0,0,1-2.4-5.508,7.587,7.587,0,0,1,1.236-4.224A5.4,5.4,0,0,1,11.52-10.08Zm5.028,3.768A22.587,22.587,0,0,1,19.32-4.644,9.535,9.535,0,0,1,14.076.1l.132.348a8.8,8.8,0,0,0,6.024-4.5A14.143,14.143,0,0,1,22.7-1.932l.8-.96a12.437,12.437,0,0,0-2.808-2.1,20.194,20.194,0,0,0,1.2-3.78c.216-.072.3-.144.3-.264,0-.1-.072-.168-.2-.2l-1.248-.324-.048.672a16.421,16.421,0,0,1-1,3.408A15.833,15.833,0,0,0,16.032-6.66Zm21.12,1.464L26.988-5.22v1.26l10.02-.36Zm11.448-1.92A42.223,42.223,0,0,1,48-2.172a5.5,5.5,0,0,1-.36,1.716.751.751,0,0,1-.756.336H45.5V.432h2.064c.936.012,1.2-.3,1.44-1.632a46.441,46.441,0,0,0,.624-6.12H45.084c.036-.552.06-.984.06-1.512v-.312c.168-.1.24-.18.24-.288a.209.209,0,0,0-.228-.2L43.9-9.72,43.98-9v.18c0,.336-.024.9-.072,1.5H40.74l-.48-.1v.744l.48-.1h3.108A8.366,8.366,0,0,1,39.84.132l.144.288a7.2,7.2,0,0,0,3.612-2.8,9.622,9.622,0,0,0,1.428-4.392Zm14.472,1.92L52.908-5.22v1.26l10.02-.36ZM67.344.072h1V-3.516h2.34V.96h1V-3.516H74.3v2.472c-.012.4-.144.528-.54.54h-.912V0h1.44c.72,0,1.032-.288,1.02-.936V-4H71.676v-.9c.156-.12.192-.156.192-.24,0-.108-.084-.156-.252-.156H70.68V-4H68.052a10.925,10.925,0,0,0,1.74-1.752H75.84l.48.1v-.672l-.48.1H70.164l.024-.036.4-.552c.252-.036.384-.12.384-.24,0-.084-.06-.132-.168-.156l-1.008-.264a6.9,6.9,0,0,1-.768,1.248H65.772l-.48-.1v.672l.48-.1h2.88A14.156,14.156,0,0,1,65.28-2.676l.168.312a9.867,9.867,0,0,0,1.9-1.092ZM66.732-9.42c1.32.312,2.412.624,3.432.972-1.1.42-3.468,1.14-4.416,1.368l.084.348a24.132,24.132,0,0,0,5.4-1.344c.672.24,2.016.816,3.192,1.368L75.1-7.44a26.573,26.573,0,0,0-2.808-1.068c.576-.252,1.008-.444,1.764-.8a2.019,2.019,0,0,0,.24.024c.144,0,.3-.1.3-.192,0-.048-.06-.108-.144-.156l-.84-.444a15.156,15.156,0,0,1-2.436,1.224,21.891,21.891,0,0,0-4.284-.888Zm20.8,3.336c-.144,1.224-.192,1.332-.672,1.344h-.888v.5h1.32c.7-.012.924-.228,1.056-.96a38.6,38.6,0,0,0,.4-4.452H84.288c-.024,3.42-.42,4.524-1.932,5.436l.2.324a3.5,3.5,0,0,0,2.268-2.2Zm.048-.48H84.96c.06-.3.12-.744.156-1.08h2.556l-.012.18-.012.192-.06.672Zm.132-1.56H85.152l.012-.036.048-1.008H87.78c-.024.42-.024.516-.048.8ZM81.54-8.76v-.852c.156-.108.192-.156.192-.24,0-.108-.084-.156-.252-.156h-.924V-8.76H78.72l-.48-.1v.672l.48-.1h.432v2.4c.024.768.336.984,1.476.984h2.364v-.84H80.808c-.6-.012-.72-.1-.732-.468V-8.28h3.072l.48.1v-.672l-.48.1Zm2.652,5.568h3.96l.468.1v-.672l-.468.1H79.368l-.468-.1V-3.1l.468-.1H83.2v1.344H80.052l-.48-.1v.672l.48-.1H83.2V.072h-4.4l-.48-.1V.648l.48-.1h9.936l.48.1V-.024l-.48.1H84.192v-1.44h3.276l.48.1v-.672l-.48.1H84.192ZM94.464.264V.828h1.7c.8,0,1.14-.336,1.14-1.14V-9.54c.156-.108.192-.156.192-.228,0-.12-.084-.168-.252-.168H96.2V-.384c0,.456-.192.648-.648.648Zm4.3-7.812a28.8,28.8,0,0,1,2.292,6.216L102.24-2a17.644,17.644,0,0,0-3.084-5.772ZM91.512-1.236A13.241,13.241,0,0,0,94.356-7.08c.24-.048.36-.144.36-.3,0-.108-.084-.168-.276-.228l-1.1-.3a22.445,22.445,0,0,1-2.124,6.456ZM105.72-5.16v-.132a1.652,1.652,0,0,0-.024-.384h-.408a3.036,3.036,0,0,1-1.128,1.92l.72.936a2.485,2.485,0,0,0,.816-1.824V-4.68h8.148a4.774,4.774,0,0,1-.708,1.332l.372.228A4.31,4.31,0,0,0,115.2-5.16Zm4.428-3.516v-.948c.156-.108.192-.156.192-.24,0-.108-.084-.156-.252-.156h-.972v1.344H104.8l-.48-.1V-8.1l.48-.1h4.32v1.344H105.84l-.48-.1v.672l.48-.1h7.68l.48.1v-.672l-.48.1h-3.372V-8.2h4.416l.48.1v-.672l-.48.1ZM104.52.84a5.587,5.587,0,0,0,2.7-.912,3.315,3.315,0,0,0,1.26-3v-.3c.144-.108.192-.156.192-.24,0-.108-.084-.156-.264-.156h-.96V-3.1A3.172,3.172,0,0,1,106.464-.5a4.511,4.511,0,0,1-2.04.984Zm6.036-4.608v3.36c.024.732.372.96,1.548,1h1.68c.84,0,1.188-.324,1.248-1.164l.06-1.02-.492-.048-.06.744c-.048.408-.2.552-.564.552H112.26c-.5-.012-.7-.12-.7-.372V-3.372c.156-.108.192-.156.192-.24,0-.12-.084-.156-.336-.156ZM122.76-6.7h-2.052V.828h.888V.06h5.076V.744h.924V-6.7h-2.1v-2.34h2.184l.48.1v-.672l-.48.1h-6.744l-.468-.1v.672l.468-.1h1.824Zm.828-2.34h1.08V-6.7h-1.08Zm0,2.82h1.08v5.8h-1.08Zm-.828,5.8H121.6v-5.8h1.164Zm2.736-5.8h1.176v5.8H125.5ZM119.448-7.4c.252-.708.36-1.044.636-1.932.192-.036.288-.12.288-.24,0-.1-.084-.168-.2-.2l-1.008-.3a28.442,28.442,0,0,1-2.04,6.516l.252.192a13.006,13.006,0,0,0,1.14-1.848V.888h.936ZM133.62-2.772a11.55,11.55,0,0,0,3.888-2.28,11.591,11.591,0,0,0,3.156,1.992A3.976,3.976,0,0,1,141.12-4a12.418,12.418,0,0,1-3.048-1.62,12.4,12.4,0,0,0,2.22-3.18h-3.9l.012-.036c.132-.252.144-.276.3-.612.228-.084.324-.156.324-.24a.224.224,0,0,0-.12-.168l-1.02-.228a11.161,11.161,0,0,1-.864,2.2,11.092,11.092,0,0,1-1.14,1.836l.24.228a8.152,8.152,0,0,0,1.716-2,5.445,5.445,0,0,0,1.1,2.184A13.169,13.169,0,0,1,133.5-3.072Zm2.52-5.544h2.88a14.544,14.544,0,0,1-1.6,2.172,4.517,4.517,0,0,1-1.332-2.1Zm-4.248,9.2h.924V-5.484a8.091,8.091,0,0,1,.852,1.824l.744-.648a4.244,4.244,0,0,0-1.6-1.524V-7.08h.876l.48.1v-.672l-.48.1h-.876V-9.612c.144-.108.192-.156.192-.24,0-.108-.084-.156-.252-.156h-.864V-7.56h-1.26l-.48-.1v.672l.48-.1h1.152a20.078,20.078,0,0,1-1.7,5.052l.264.18a11.81,11.81,0,0,0,1.548-2.832ZM139.98.816V-3.216h-5.028v4.1h.948V.312h3.12v.5ZM135.9-.168V-2.736h3.12V-.168Zm7.14-9.912a7.145,7.145,0,0,1,2.4,5.532A7.126,7.126,0,0,1,143.04.96h.648a6.9,6.9,0,0,0,2.628-5.52,6.9,6.9,0,0,0-2.628-5.52Z" transform="translate(133.756 2282)" fill="#111"/>
        </g>
        <path id="パス_30951" data-name="パス 30951" d="M15.88,1.105c.255-.09.36-.2.36-.33,0-.12-.1-.21-.3-.225L14.665.4A15.507,15.507,0,0,1,12.43,3.49,21.606,21.606,0,0,1,8.56,6.805l.195.39a16.022,16.022,0,0,0,6.8-5.61l.06.09A13.151,13.151,0,0,0,21.7,6.91a8.12,8.12,0,0,1,.66-1.365A14.146,14.146,0,0,1,18.13,3.28a13.472,13.472,0,0,1-2.28-2.13Zm.165,5.685h3.24l.6.12V6.07l-.6.12h-7.65l-.6-.12v.84l.6-.12h3.12V9.415H11.47l-.585-.12v.84l.585-.12h3.285v3.03H9.895l-.6-.12v.84l.6-.12h11.3l.6.12v-.84l-.6.12H16.045v-3.03H19.45l.585.12V9.3l-.585.12H16.045ZM36.76,8.29l.6.12V7.57l-.6.12h-9.6V6.025h7.695l.6.12V5.3l-.6.12H27.16V3.85h7.695l.6.12V3.13l-.6.12H27.16V1.7h8.28l.6.12V.985l-.6.12H25.9V7.69H24.16l-.6-.12v.84l.6-.12H25.9v4.14c-.7.09-1.11.135-2.265.225l.51,1.23c.105.24.165.315.285.315.165,0,.24-.09.33-.36A40.224,40.224,0,0,0,32.05,11.9l.075-.015A9.183,9.183,0,0,0,36.64,14.2a7.269,7.269,0,0,1,.72-1.35,10.684,10.684,0,0,1-4.4-1.635,19.2,19.2,0,0,0,2.85-1.335l.3.015c.21,0,.375-.12.375-.27,0-.06-.06-.15-.18-.225l-1.125-.75a17.559,17.559,0,0,1-2.655,2.235,6.393,6.393,0,0,1-1.965-2.6Zm-6.84,0a8.005,8.005,0,0,0,1.815,3.195l-.135.03c-1.065.24-2.16.42-4.44.75V8.29Zm12.825-.54a2.55,2.55,0,0,1,2.1,2.49,2.577,2.577,0,0,1-.487,1.575A3.116,3.116,0,0,1,43.1,12.82a3.912,3.912,0,0,1-1.612.345,3.244,3.244,0,0,1-1.733-.465,3.425,3.425,0,0,1-1.193-1.215l.48-.3a2.409,2.409,0,0,0,1.02,1,2.838,2.838,0,0,0,1.305.33,2.329,2.329,0,0,0,1.042-.24,1.932,1.932,0,0,0,.8-.735,2.23,2.23,0,0,0,.307-1.2,2.129,2.129,0,0,0-.607-1.6,2.074,2.074,0,0,0-1.507-.593H41.02V7.69a2.542,2.542,0,0,0,1.035-.225,1.955,1.955,0,0,0,.84-.713,2.133,2.133,0,0,0,.33-1.222,2.229,2.229,0,0,0-.42-1.372,1.59,1.59,0,0,0-2.5.09,3.29,3.29,0,0,0-.487,1.628h-.81v-1.8a2.968,2.968,0,0,1,1.11-.72,4,4,0,0,1,1.47-.27,3.632,3.632,0,0,1,1.455.285,2.526,2.526,0,0,1,1.058.825,2.092,2.092,0,0,1,.4,1.275A2.458,2.458,0,0,1,42.745,7.75Zm4.65,3.72a.868.868,0,0,1,.667.307,1.242,1.242,0,0,1,.278.863,2.255,2.255,0,0,1-.42,1.35,2.926,2.926,0,0,1-1.14.93l-.225-.36A2.187,2.187,0,0,0,47.237,14a1.169,1.169,0,0,0,.323-.743.455.455,0,0,0-.015-.135.932.932,0,0,1-.18.015.791.791,0,0,1-.607-.233.833.833,0,0,1-.217-.592.8.8,0,0,1,.247-.6A.839.839,0,0,1,47.395,11.47ZM54.37,7.81a2.869,2.869,0,0,1,1.417.9,2.461,2.461,0,0,1,.548,1.65,2.507,2.507,0,0,1-.48,1.552,2.855,2.855,0,0,1-1.252.945,4.36,4.36,0,0,1-1.627.307,4.2,4.2,0,0,1-1.628-.315,2.894,2.894,0,0,1-1.23-.945,2.5,2.5,0,0,1-.472-1.545,2.461,2.461,0,0,1,.548-1.65,2.869,2.869,0,0,1,1.417-.9,2.514,2.514,0,0,1-1.125-.8A2.219,2.219,0,0,1,49.99,5.53a2.14,2.14,0,0,1,.42-1.343,2.585,2.585,0,0,1,1.1-.825,3.885,3.885,0,0,1,1.478-.278,3.939,3.939,0,0,1,1.463.27,2.558,2.558,0,0,1,1.11.825,2.146,2.146,0,0,1,.428,1.35,2.219,2.219,0,0,1-.495,1.485A2.514,2.514,0,0,1,54.37,7.81ZM52.99,3.58a1.647,1.647,0,0,0-1.268.548,2.078,2.078,0,0,0-.5,1.462,2.078,2.078,0,0,0,.5,1.463,1.75,1.75,0,0,0,2.543,0A2.1,2.1,0,0,0,54.76,5.59a2.078,2.078,0,0,0-.5-1.462A1.647,1.647,0,0,0,52.99,3.58Zm0,9.105a1.907,1.907,0,0,0,1.455-.608,2.392,2.392,0,0,0,.57-1.7A2.48,2.48,0,0,0,54.49,8.71a2.137,2.137,0,0,0-3,0,2.48,2.48,0,0,0-.525,1.665,2.392,2.392,0,0,0,.57,1.7A1.907,1.907,0,0,0,52.99,12.685ZM61.21,6.82a3.141,3.141,0,0,1,1.462.352,2.708,2.708,0,0,1,1.1,1.043A3.127,3.127,0,0,1,64.18,9.85a3.433,3.433,0,0,1-.428,1.717,3.059,3.059,0,0,1-1.163,1.177,3.208,3.208,0,0,1-1.62.42,2.88,2.88,0,0,1-1.785-.578,3.643,3.643,0,0,1-1.177-1.642,6.874,6.874,0,0,1-.413-2.49,7.3,7.3,0,0,1,.51-2.827,4.53,4.53,0,0,1,1.357-1.883,2.93,2.93,0,0,1,1.838-.66,2.768,2.768,0,0,1,1.4.375A3.376,3.376,0,0,1,63.82,4.525l-.45.375a3.169,3.169,0,0,0-.908-.9,2.015,2.015,0,0,0-1.1-.33,1.918,1.918,0,0,0-1.747,1.177,7.289,7.289,0,0,0-.7,3.113,3.031,3.031,0,0,1,.938-.81A2.69,2.69,0,0,1,61.21,6.82Zm.015,5.865a1.359,1.359,0,0,0,1.252-.7,3.551,3.551,0,0,0,.413-1.823,3.255,3.255,0,0,0-.57-2.092,1.8,1.8,0,0,0-2.678-.187,2.566,2.566,0,0,0-.7,1.215,5.4,5.4,0,0,0,.72,2.662A1.824,1.824,0,0,0,61.225,12.685Zm7.47.48a2.783,2.783,0,0,1-1.8-.63,4.026,4.026,0,0,1-1.207-1.778,7.512,7.512,0,0,1-.427-2.632A7.449,7.449,0,0,1,65.687,5.5,4,4,0,0,1,66.9,3.73a2.922,2.922,0,0,1,3.615-.008,3.947,3.947,0,0,1,1.215,1.763A7.449,7.449,0,0,1,72.16,8.11a7.4,7.4,0,0,1-.435,2.632A4.1,4.1,0,0,1,70.5,12.528,2.792,2.792,0,0,1,68.695,13.165Zm.015-.48a1.7,1.7,0,0,0,1.56-1.17,8.364,8.364,0,0,0,.54-3.39,8.316,8.316,0,0,0-.54-3.375,1.625,1.625,0,0,0-3.12,0,8.316,8.316,0,0,0-.54,3.375,8.364,8.364,0,0,0,.54,3.39A1.7,1.7,0,0,0,68.71,12.685Zm15-.135V13H80.845v-.45h.765V8.23a2.22,2.22,0,0,0-.285-1.252.985.985,0,0,0-.87-.412,1.376,1.376,0,0,0-1.073.48,1.759,1.759,0,0,0-.427,1.215v4.29h.855V13H76.975v-.45h.855V8.23a2.22,2.22,0,0,0-.285-1.252.985.985,0,0,0-.87-.412,1.392,1.392,0,0,0-1.087.48A1.759,1.759,0,0,0,75.16,8.26v4.29h.8V13h-2.91v-.45h.99V6.67h-.96V6.235l2.055-.12.03.7a2.122,2.122,0,0,1,1.8-.765,2.213,2.213,0,0,1,1.08.263,1.624,1.624,0,0,1,.705.727,1.9,1.9,0,0,1,.78-.735,2.455,2.455,0,0,1,1.14-.255q2.07,0,2.07,2.34V12.55Zm11.325,0V13H92.17v-.45h.765V8.23a2.22,2.22,0,0,0-.285-1.252.985.985,0,0,0-.87-.412,1.376,1.376,0,0,0-1.073.48A1.759,1.759,0,0,0,90.28,8.26v4.29h.855V13H88.3v-.45h.855V8.23a2.22,2.22,0,0,0-.285-1.252A.985.985,0,0,0,88,6.565a1.392,1.392,0,0,0-1.087.48,1.759,1.759,0,0,0-.428,1.215v4.29h.8V13H84.37v-.45h.99V6.67H84.4V6.235l2.055-.12.03.7a2.122,2.122,0,0,1,1.8-.765,2.213,2.213,0,0,1,1.08.263,1.624,1.624,0,0,1,.705.727,1.9,1.9,0,0,1,.78-.735,2.455,2.455,0,0,1,1.14-.255q2.07,0,2.07,2.34V12.55Zm5.325.57a9.019,9.019,0,0,0-4.185-2.865l-.285.36A13.388,13.388,0,0,1,99.13,14.2ZM118.21,1.105c.255-.09.36-.2.36-.33,0-.12-.1-.21-.3-.225L116.995.4a15.507,15.507,0,0,1-2.235,3.09,21.606,21.606,0,0,1-3.87,3.315l.195.39a16.022,16.022,0,0,0,6.795-5.61l.06.09a13.151,13.151,0,0,0,6.09,5.235,8.12,8.12,0,0,1,.66-1.365,14.146,14.146,0,0,1-4.23-2.265,13.472,13.472,0,0,1-2.28-2.13Zm.165,5.685h3.24l.6.12V6.07l-.6.12h-7.65l-.6-.12v.84l.6-.12h3.12V9.415H113.8l-.585-.12v.84l.585-.12h3.285v3.03h-4.86l-.6-.12v.84l.6-.12h11.3l.6.12v-.84l-.6.12h-5.145v-3.03h3.4l.585.12V9.3l-.585.12h-3.4Zm10.89-3.57h.975V9.955c0,.285-.09.36-.36.375h-.435v.6h.765c.72,0,1.02-.3,1.02-.99V2.665h-1.965V.985c.195-.135.24-.195.24-.3,0-.135-.1-.2-.315-.2h-.915V2.665h-1.89V11.02h.99V3.22h.9V14.11h.99Zm9.9,4.335h-7.23V14.11h1.1v-.735h5.01v.63h1.125Zm-1.125,3.12v2.1h-2.01v-2.1Zm0-.6h-2.01V8.155h2.01Zm-3.09-1.92v1.92h-1.92V8.155Zm-1.92,4.62v-2.1h1.92v2.1Zm5.535-6.6V2.905h-6.15v3.27Zm-1.155-.6h-3.87V3.505h3.87ZM131.98,1.63h7.11l.6.12V.91l-.6.12h-7.11l-.6-.12v.84Zm14.475,10.83V13h-4.2v-.54H143.8V4.465l-1.485.96L142,4.945l2.475-1.665h.51v9.18Zm3.27-.99a.868.868,0,0,1,.667.307,1.242,1.242,0,0,1,.278.863,2.255,2.255,0,0,1-.42,1.35,2.926,2.926,0,0,1-1.14.93l-.225-.36a2.187,2.187,0,0,0,.682-.562,1.169,1.169,0,0,0,.323-.743.455.455,0,0,0-.015-.135.932.932,0,0,1-.18.015.791.791,0,0,1-.607-.233.833.833,0,0,1-.217-.592.8.8,0,0,1,.247-.6A.839.839,0,0,1,149.725,11.47Zm8.16-8.19v.525L153.7,13h-.705l3.96-8.565h-4.2L152.23,5.89H151.7V3.28Zm4.575,3.405a3.141,3.141,0,0,1,1.462.352,2.779,2.779,0,0,1,1.11,1.058,3.179,3.179,0,0,1,.428,1.68,3.351,3.351,0,0,1-.5,1.86,3.2,3.2,0,0,1-1.253,1.148,3.528,3.528,0,0,1-3.322-.068,3.191,3.191,0,0,1-1.215-1.23l.48-.3a2.586,2.586,0,0,0,.99,1,2.742,2.742,0,0,0,1.365.345,1.945,1.945,0,0,0,1.058-.307,2.2,2.2,0,0,0,.787-.908,3.153,3.153,0,0,0,.3-1.425,3.012,3.012,0,0,0-.3-1.4,2.02,2.02,0,0,0-.787-.855,2.1,2.1,0,0,0-1.058-.278,1.718,1.718,0,0,0-.9.225,2.8,2.8,0,0,0-.675.57h-.585l.36-4.875h4.77v1.2h-4.3l-.21,2.91a2.646,2.646,0,0,1,.863-.51A3.187,3.187,0,0,1,162.46,6.685Zm7.86,0a3.141,3.141,0,0,1,1.462.352,2.779,2.779,0,0,1,1.11,1.058,3.179,3.179,0,0,1,.428,1.68,3.351,3.351,0,0,1-.5,1.86,3.2,3.2,0,0,1-1.253,1.148,3.528,3.528,0,0,1-3.322-.068,3.191,3.191,0,0,1-1.215-1.23l.48-.3a2.586,2.586,0,0,0,.99,1,2.742,2.742,0,0,0,1.365.345,1.945,1.945,0,0,0,1.058-.307,2.2,2.2,0,0,0,.787-.908,3.153,3.153,0,0,0,.3-1.425,3.012,3.012,0,0,0-.3-1.4,2.02,2.02,0,0,0-.787-.855,2.1,2.1,0,0,0-1.058-.278,1.718,1.718,0,0,0-.9.225,2.8,2.8,0,0,0-.675.57h-.585l.36-4.875h4.77v1.2h-4.3l-.21,2.91a2.646,2.646,0,0,1,.863-.51A3.187,3.187,0,0,1,170.32,6.685Zm14.97,5.865V13h-2.865v-.45h.765V8.23a2.22,2.22,0,0,0-.285-1.252.985.985,0,0,0-.87-.412,1.376,1.376,0,0,0-1.073.48,1.759,1.759,0,0,0-.427,1.215v4.29h.855V13h-2.835v-.45h.855V8.23a2.22,2.22,0,0,0-.285-1.252.985.985,0,0,0-.87-.412,1.392,1.392,0,0,0-1.088.48,1.759,1.759,0,0,0-.427,1.215v4.29h.795V13h-2.91v-.45h.99V6.67h-.96V6.235l2.055-.12.03.7a2.122,2.122,0,0,1,1.8-.765,2.213,2.213,0,0,1,1.08.263,1.624,1.624,0,0,1,.705.727,1.9,1.9,0,0,1,.78-.735,2.455,2.455,0,0,1,1.14-.255q2.07,0,2.07,2.34V12.55Zm11.325,0V13H193.75v-.45h.765V8.23a2.22,2.22,0,0,0-.285-1.252.985.985,0,0,0-.87-.412,1.376,1.376,0,0,0-1.073.48,1.759,1.759,0,0,0-.427,1.215v4.29h.855V13H189.88v-.45h.855V8.23a2.22,2.22,0,0,0-.285-1.252.985.985,0,0,0-.87-.412,1.392,1.392,0,0,0-1.088.48,1.759,1.759,0,0,0-.427,1.215v4.29h.795V13h-2.91v-.45h.99V6.67h-.96V6.235l2.055-.12.03.7a2.122,2.122,0,0,1,1.8-.765,2.213,2.213,0,0,1,1.08.263,1.624,1.624,0,0,1,.705.727,1.9,1.9,0,0,1,.78-.735,2.455,2.455,0,0,1,1.14-.255q2.07,0,2.07,2.34V12.55Zm5.325.57a9.019,9.019,0,0,0-4.185-2.865l-.285.36a13.388,13.388,0,0,1,3.24,3.585ZM219.79,1.105c.255-.09.36-.2.36-.33,0-.12-.1-.21-.3-.225L218.575.4a15.507,15.507,0,0,1-2.235,3.09,21.607,21.607,0,0,1-3.87,3.315l.195.39a16.022,16.022,0,0,0,6.795-5.61l.06.09a13.151,13.151,0,0,0,6.09,5.235,8.119,8.119,0,0,1,.66-1.365,14.146,14.146,0,0,1-4.23-2.265,13.472,13.472,0,0,1-2.28-2.13Zm.165,5.685h3.24l.6.12V6.07l-.6.12h-7.65l-.6-.12v.84l.6-.12h3.12V9.415H215.38l-.585-.12v.84l.585-.12h3.285v3.03H213.8l-.6-.12v.84l.6-.12H225.1l.6.12v-.84l-.6.12h-5.145v-3.03h3.4l.585.12V9.3l-.585.12h-3.4ZM233.62,1.975h-5.46l-.6-.12V2.7l.6-.12h12.405l.6.12v-.84l-.6.12h-5.58V.91c.195-.15.24-.21.24-.3,0-.15-.1-.21-.315-.21h-1.29Zm6.915,5.67H228.19V14.11h1.245V8.245h9.855v4.53c-.015.465-.165.615-.63.63h-1.275v.63h1.845c.915,0,1.32-.375,1.3-1.245Zm-9.57,1.71V13h1.185v-.69H237.5V9.355Zm1.185,2.355V9.955h4.185V11.71Zm6.585-5.2V3.67H229.99V6.505Zm-7.5-.6V4.27h6.255V5.905Zm16.8,6.555V13h-4.2v-.54h1.545V4.465l-1.485.96-.315-.48,2.475-1.665h.51v9.18Zm3.27-.99a.868.868,0,0,1,.667.307,1.242,1.242,0,0,1,.278.863,2.255,2.255,0,0,1-.42,1.35,2.926,2.926,0,0,1-1.14.93l-.225-.36a2.187,2.187,0,0,0,.682-.562,1.169,1.169,0,0,0,.323-.743.455.455,0,0,0-.015-.135.932.932,0,0,1-.18.015.791.791,0,0,1-.607-.233.833.833,0,0,1-.217-.592.8.8,0,0,1,.247-.6A.839.839,0,0,1,251.3,11.47Zm9.15-.675H258.8V13H257.62V10.8h-4.2V10.21l3.84-6.93H258.8V9.775h1.65Zm-2.835-1.02V4.09h-.2l-3.06,5.685Zm7.5-2.955a3.141,3.141,0,0,1,1.462.352,2.708,2.708,0,0,1,1.1,1.043,3.127,3.127,0,0,1,.413,1.635,3.433,3.433,0,0,1-.428,1.717,3.059,3.059,0,0,1-1.162,1.177,3.208,3.208,0,0,1-1.62.42,2.88,2.88,0,0,1-1.785-.578,3.643,3.643,0,0,1-1.178-1.642,6.875,6.875,0,0,1-.413-2.49,7.3,7.3,0,0,1,.51-2.827,4.53,4.53,0,0,1,1.358-1.883,2.93,2.93,0,0,1,1.837-.66,2.768,2.768,0,0,1,1.4.375,3.376,3.376,0,0,1,1.117,1.065l-.45.375a3.169,3.169,0,0,0-.908-.9,2.015,2.015,0,0,0-1.1-.33,1.918,1.918,0,0,0-1.747,1.177,7.289,7.289,0,0,0-.7,3.113,3.032,3.032,0,0,1,.938-.81A2.69,2.69,0,0,1,265.12,6.82Zm.015,5.865a1.359,1.359,0,0,0,1.253-.7,3.551,3.551,0,0,0,.413-1.823,3.255,3.255,0,0,0-.57-2.092,1.8,1.8,0,0,0-2.677-.187,2.566,2.566,0,0,0-.7,1.215,5.4,5.4,0,0,0,.72,2.662A1.823,1.823,0,0,0,265.135,12.685Zm7.47.48a2.783,2.783,0,0,1-1.8-.63,4.026,4.026,0,0,1-1.207-1.778,7.512,7.512,0,0,1-.427-2.632A7.449,7.449,0,0,1,269.6,5.5a4,4,0,0,1,1.215-1.77,2.922,2.922,0,0,1,3.615-.008,3.947,3.947,0,0,1,1.215,1.763,7.449,7.449,0,0,1,.427,2.625,7.394,7.394,0,0,1-.435,2.632,4.1,4.1,0,0,1-1.223,1.785A2.792,2.792,0,0,1,272.605,13.165Zm.015-.48a1.7,1.7,0,0,0,1.56-1.17,8.364,8.364,0,0,0,.54-3.39,8.316,8.316,0,0,0-.54-3.375,1.625,1.625,0,0,0-3.12,0,8.316,8.316,0,0,0-.54,3.375,8.364,8.364,0,0,0,.54,3.39A1.7,1.7,0,0,0,272.62,12.685Zm15-.135V13h-2.865v-.45h.765V8.23a2.22,2.22,0,0,0-.285-1.252.985.985,0,0,0-.87-.412,1.376,1.376,0,0,0-1.073.48,1.759,1.759,0,0,0-.427,1.215v4.29h.855V13h-2.835v-.45h.855V8.23a2.22,2.22,0,0,0-.285-1.252.985.985,0,0,0-.87-.412,1.392,1.392,0,0,0-1.087.48,1.759,1.759,0,0,0-.428,1.215v4.29h.8V13h-2.91v-.45h.99V6.67h-.96V6.235l2.055-.12.03.7a2.122,2.122,0,0,1,1.8-.765,2.213,2.213,0,0,1,1.08.263,1.624,1.624,0,0,1,.705.727,1.9,1.9,0,0,1,.78-.735,2.455,2.455,0,0,1,1.14-.255q2.07,0,2.07,2.34V12.55Zm11.325,0V13H296.08v-.45h.765V8.23a2.22,2.22,0,0,0-.285-1.252.985.985,0,0,0-.87-.412,1.376,1.376,0,0,0-1.073.48,1.759,1.759,0,0,0-.427,1.215v4.29h.855V13H292.21v-.45h.855V8.23a2.22,2.22,0,0,0-.285-1.252.985.985,0,0,0-.87-.412,1.392,1.392,0,0,0-1.087.48,1.759,1.759,0,0,0-.428,1.215v4.29h.8V13h-2.91v-.45h.99V6.67h-.96V6.235l2.055-.12.03.7a2.122,2.122,0,0,1,1.8-.765,2.213,2.213,0,0,1,1.08.263,1.624,1.624,0,0,1,.705.727,1.9,1.9,0,0,1,.78-.735,2.455,2.455,0,0,1,1.14-.255q2.07,0,2.07,2.34V12.55Zm5.325.57a9.019,9.019,0,0,0-4.185-2.865l-.285.36a13.388,13.388,0,0,1,3.24,3.585Zm18.21-8.7h4.71l.66.135V3.6l-.66.135h-4.71V1.6c.21-.15.3-.255.3-.39a.27.27,0,0,0-.285-.255L320.98.85l.135.9V3.73h-4.8l-.66-.135v.96l.66-.135h4.8v7.695c0,.51-.225.735-.75.735h-1.53v.69h2.52c.78.015,1.125-.36,1.125-1.215ZM323.965,6.2a18.651,18.651,0,0,1,3,5.61l1.44-.75a10.8,10.8,0,0,0-4.14-5.115Zm-8.76,5.67A10.338,10.338,0,0,0,319.165,7c.27-.105.375-.21.375-.36a.316.316,0,0,0-.225-.285l-1.41-.51-.18.825a13.88,13.88,0,0,1-2.79,4.875ZM338.35,4.96a38.563,38.563,0,0,0,3.2-2.82c.4-.045.57-.15.57-.36a.465.465,0,0,0-.24-.345L340.72.67l-.54.81a29.182,29.182,0,0,1-9.84,6.825l.165.45a19.784,19.784,0,0,0,6.45-2.79V13.8h1.395Zm19.71,1.98-12.525-.465V8.05L358.06,7.6Zm9.06,6.54a7.431,7.431,0,0,0,4.455-2.715A10.5,10.5,0,0,0,373.75,5.83l-.465-.15c-.99,2.82-2.865,5.115-4.83,5.91V1.9c.225-.15.3-.255.3-.39a.281.281,0,0,0-.285-.255l-1.485-.105.135.9Zm-7.1.045a8.229,8.229,0,0,0,3.36-3.57,13.975,13.975,0,0,0,.885-5.85V2.41c.225-.15.3-.255.3-.39a.27.27,0,0,0-.285-.255l-1.53-.1.135.9V4.24c0,4.56-.72,6.615-3.135,8.9Zm27.96-11.37A2.979,2.979,0,0,0,386.26.565l-.27.21a5.6,5.6,0,0,1,.99,1.89Zm-3.72-1.035a6.147,6.147,0,0,1,.825,2l1.05-.48a3.1,3.1,0,0,0-1.605-1.71Zm4.32,10.425c-2.16-2.175-5.745-6.195-7.455-8.385-.615-.8-.84-1.005-1.11-1.005-.3,0-.54.225-1.605,1.545-1.62,1.965-2.07,2.505-2.865,3.33l-.75.63.84,1.14a.369.369,0,0,0,.3.2c.18,0,.27-.135.285-.405.81-1.125,1.29-1.815,2.97-4.275.6-.915.705-1.05.81-1.05.06,0,.135.075.315.36a104.84,104.84,0,0,0,7.2,9.195ZM403.06,6.94l-12.525-.465V8.05L403.06,7.6ZM413,8.005a18.888,18.888,0,0,0,3.09-6.075h-8.88l-.66-.135v.96l.66-.135h7.1a17.286,17.286,0,0,1-9.06,10.11l.21.465a15.08,15.08,0,0,0,7.23-4.785,25.6,25.6,0,0,1,4.29,4.89l1.335-1.08A18.322,18.322,0,0,0,413.2,8.11Zm13.14,3.825V13h-5.9v-.525q1.9-2.07,2.783-3.128a9.508,9.508,0,0,0,1.26-1.852,3.794,3.794,0,0,0,.383-1.665,2.466,2.466,0,0,0-.488-1.658,1.582,1.582,0,0,0-1.253-.562,1.482,1.482,0,0,0-1.3.66,3.172,3.172,0,0,0-.51,1.62h-.81V4.09a2.805,2.805,0,0,1,1.125-.72,4.279,4.279,0,0,1,1.515-.27,3.976,3.976,0,0,1,1.448.27,2.593,2.593,0,0,1,1.155.877A2.51,2.51,0,0,1,426.01,5.8a2.773,2.773,0,0,1-.36,1.358,8.636,8.636,0,0,1-1.193,1.56q-.833.907-3.008,3.112Zm2.49-.36a.868.868,0,0,1,.667.307,1.242,1.242,0,0,1,.277.863,2.255,2.255,0,0,1-.42,1.35,2.926,2.926,0,0,1-1.14.93l-.225-.36a2.187,2.187,0,0,0,.683-.562,1.169,1.169,0,0,0,.322-.743.456.456,0,0,0-.015-.135.932.932,0,0,1-.18.015A.791.791,0,0,1,428,12.9a.833.833,0,0,1-.217-.592.8.8,0,0,1,.247-.6A.839.839,0,0,1,428.635,11.47Zm5.475-4.785a3.141,3.141,0,0,1,1.462.352,2.779,2.779,0,0,1,1.11,1.058,3.179,3.179,0,0,1,.427,1.68,3.352,3.352,0,0,1-.495,1.86,3.2,3.2,0,0,1-1.253,1.148,3.528,3.528,0,0,1-3.322-.068,3.191,3.191,0,0,1-1.215-1.23l.48-.3a2.586,2.586,0,0,0,.99,1,2.742,2.742,0,0,0,1.365.345,1.945,1.945,0,0,0,1.057-.307,2.2,2.2,0,0,0,.788-.908,3.153,3.153,0,0,0,.3-1.425,3.012,3.012,0,0,0-.3-1.4,2.02,2.02,0,0,0-.788-.855,2.1,2.1,0,0,0-1.057-.278,1.718,1.718,0,0,0-.9.225,2.8,2.8,0,0,0-.675.57H431.5l.36-4.875h4.77v1.2h-4.305l-.21,2.91a2.646,2.646,0,0,1,.863-.51A3.187,3.187,0,0,1,434.11,6.685Zm10.845,5.145V13h-5.9v-.525q1.9-2.07,2.783-3.128a9.508,9.508,0,0,0,1.26-1.852,3.794,3.794,0,0,0,.383-1.665A2.466,2.466,0,0,0,443,4.172a1.582,1.582,0,0,0-1.253-.562,1.482,1.482,0,0,0-1.3.66,3.172,3.172,0,0,0-.51,1.62h-.81V4.09a2.805,2.805,0,0,1,1.125-.72,4.279,4.279,0,0,1,1.515-.27,3.976,3.976,0,0,1,1.448.27,2.593,2.593,0,0,1,1.155.877A2.51,2.51,0,0,1,444.82,5.8a2.773,2.773,0,0,1-.36,1.358,8.636,8.636,0,0,1-1.193,1.56q-.833.907-3.008,3.112Zm4.875-5.145a3.141,3.141,0,0,1,1.462.352A2.779,2.779,0,0,1,452.4,8.1a3.179,3.179,0,0,1,.427,1.68,3.352,3.352,0,0,1-.495,1.86,3.2,3.2,0,0,1-1.253,1.148,3.528,3.528,0,0,1-3.322-.068,3.191,3.191,0,0,1-1.215-1.23l.48-.3a2.586,2.586,0,0,0,.99,1,2.742,2.742,0,0,0,1.365.345,1.945,1.945,0,0,0,1.057-.307,2.2,2.2,0,0,0,.788-.908,3.153,3.153,0,0,0,.3-1.425,3.012,3.012,0,0,0-.3-1.4,2.02,2.02,0,0,0-.788-.855,2.1,2.1,0,0,0-1.057-.278,1.718,1.718,0,0,0-.9.225,2.8,2.8,0,0,0-.675.57h-.585l.36-4.875h4.77v1.2h-4.305l-.21,2.91a2.646,2.646,0,0,1,.863-.51A3.187,3.187,0,0,1,449.83,6.685ZM464.8,12.55V13h-2.865v-.45h.765V8.23a2.22,2.22,0,0,0-.285-1.252.985.985,0,0,0-.87-.412,1.376,1.376,0,0,0-1.073.48,1.759,1.759,0,0,0-.427,1.215v4.29h.855V13h-2.835v-.45h.855V8.23a2.22,2.22,0,0,0-.285-1.252.985.985,0,0,0-.87-.412,1.392,1.392,0,0,0-1.087.48,1.759,1.759,0,0,0-.428,1.215v4.29h.8V13h-2.91v-.45h.99V6.67h-.96V6.235l2.055-.12.03.7a2.122,2.122,0,0,1,1.8-.765,2.213,2.213,0,0,1,1.08.263,1.624,1.624,0,0,1,.705.727,1.9,1.9,0,0,1,.78-.735,2.455,2.455,0,0,1,1.14-.255q2.07,0,2.07,2.34V12.55Zm11.325,0V13H473.26v-.45h.765V8.23a2.22,2.22,0,0,0-.285-1.252.985.985,0,0,0-.87-.412,1.376,1.376,0,0,0-1.073.48,1.759,1.759,0,0,0-.427,1.215v4.29h.855V13H469.39v-.45h.855V8.23a2.22,2.22,0,0,0-.285-1.252.985.985,0,0,0-.87-.412,1.392,1.392,0,0,0-1.087.48,1.759,1.759,0,0,0-.428,1.215v4.29h.8V13h-2.91v-.45h.99V6.67h-.96V6.235l2.055-.12.03.7a2.122,2.122,0,0,1,1.8-.765,2.213,2.213,0,0,1,1.08.263,1.624,1.624,0,0,1,.705.727,1.9,1.9,0,0,1,.78-.735,2.455,2.455,0,0,1,1.14-.255q2.07,0,2.07,2.34V12.55Zm5.325.57a9.019,9.019,0,0,0-4.185-2.865l-.285.36a13.388,13.388,0,0,1,3.24,3.585ZM498.415,6.6h6.765l.6.12v-.84l-.6.12h-12.6l-.6-.12v.84l.6-.12h.75v5.73c-.12.03-.2.03-.4.06-.315.045-.63.09-.945.12l.42,1.1c.06.15.165.24.27.24s.21-.09.285-.3a30.651,30.651,0,0,0,4.35-1.485V14.2h1.11Zm-1.11,1.83V9.76H494.44V8.425Zm-2.865-.6V6.6H497.3v1.23ZM497.3,10.36v1.2l-.3.06c-.75.18-1.845.4-2.565.525V10.36Zm1.56,3.84a8.2,8.2,0,0,0,3.33-1.8,7.668,7.668,0,0,0,2.94,1.71,7.559,7.559,0,0,1,.645-1.17,8.323,8.323,0,0,1-2.835-1.335,12.811,12.811,0,0,0,2.13-3.96H499.69l-.6-.12v.84l.6-.12h.18a8.273,8.273,0,0,0,1.7,3.495,7.662,7.662,0,0,1-2.88,2.085Zm4.71-5.955a11.983,11.983,0,0,1-1.41,2.73,6.966,6.966,0,0,1-1.77-2.73ZM493.93.94V4.945H503.9V.94Zm1.2,3.4V3.2h7.545v1.14Zm0-1.74V1.54h7.545V2.6Zm18-.63h-5.46l-.6-.12V2.7l.6-.12h12.4l.6.12v-.84l-.6.12h-5.58V.91c.2-.15.24-.21.24-.3,0-.15-.1-.21-.315-.21h-1.29Zm6.915,5.67H507.7V14.11h1.245V8.245H518.8v4.53c-.015.465-.165.615-.63.63H516.9v.63h1.845c.915,0,1.32-.375,1.3-1.245Zm-9.57,1.71V13h1.185v-.69h5.355V9.355Zm1.185,2.355V9.955h4.185V11.71Zm6.585-5.2V3.67H509.5V6.505Zm-7.5-.6V4.27H517V5.905Zm17.415,6.66h-4.245V8.62c.2-.135.24-.2.24-.3,0-.135-.105-.195-.315-.195h-1.215v5.88h1.29v-.84h9.93v.75h1.29V8.62c.2-.15.24-.2.24-.3,0-.135-.1-.195-.315-.195h-1.215v4.44h-4.4V6.775h4.98V2.215c.2-.135.24-.195.24-.3,0-.135-.1-.195-.315-.195H533.14V6.175h-3.69V.985c.18-.135.24-.195.24-.3,0-.135-.1-.2-.315-.2H528.16V6.175H524.6V2.215c.2-.135.24-.195.24-.3,0-.135-.105-.195-.315-.195h-1.215V6.775h4.845ZM541.885,3.9a18.979,18.979,0,0,1-.855,4.845,9.013,9.013,0,0,1-4.05,4.815l.225.48a8.964,8.964,0,0,0,4.875-4.41,16.131,16.131,0,0,0,1.17-5.73h5.13c-.075,2.31-.36,6.45-.51,7.47-.135,1.44-.39,1.785-1.29,1.77h-1.995v.7h2.7c1.275.015,1.815-.495,1.95-1.86.165-1.05.51-6.585.57-8.715H543.28c.045-.51.06-.99.06-1.485V.9c.18-.135.24-.2.24-.3,0-.135-.105-.195-.315-.195h-1.3V1.78c0,.36-.015.885-.045,1.485h-3.96l-.585-.12v.87l.585-.12Zm15.66,8.565V13h-4.2v-.54h1.545V4.465l-1.485.96-.315-.48,2.475-1.665h.51v9.18Zm5.985-5.64a3.141,3.141,0,0,1,1.463.352,2.707,2.707,0,0,1,1.095,1.043A3.127,3.127,0,0,1,566.5,9.85a3.433,3.433,0,0,1-.427,1.717,3.059,3.059,0,0,1-1.163,1.177,3.208,3.208,0,0,1-1.62.42,2.88,2.88,0,0,1-1.785-.578,3.643,3.643,0,0,1-1.177-1.642,6.874,6.874,0,0,1-.413-2.49,7.3,7.3,0,0,1,.51-2.827,4.53,4.53,0,0,1,1.357-1.883,2.93,2.93,0,0,1,1.838-.66,2.768,2.768,0,0,1,1.4.375,3.377,3.377,0,0,1,1.118,1.065l-.45.375a3.169,3.169,0,0,0-.908-.9,2.015,2.015,0,0,0-1.1-.33,1.918,1.918,0,0,0-1.747,1.177,7.289,7.289,0,0,0-.7,3.113,3.031,3.031,0,0,1,.938-.81A2.69,2.69,0,0,1,563.53,6.82Zm.015,5.865a1.359,1.359,0,0,0,1.253-.7,3.552,3.552,0,0,0,.412-1.823,3.255,3.255,0,0,0-.57-2.092,1.8,1.8,0,0,0-2.678-.187,2.567,2.567,0,0,0-.7,1.215,5.4,5.4,0,0,0,.72,2.662A1.823,1.823,0,0,0,563.545,12.685Zm7.47.48a2.783,2.783,0,0,1-1.8-.63,4.027,4.027,0,0,1-1.208-1.778,7.512,7.512,0,0,1-.427-2.632,7.45,7.45,0,0,1,.427-2.625,4,4,0,0,1,1.215-1.77,2.922,2.922,0,0,1,3.615-.008,3.946,3.946,0,0,1,1.215,1.763,7.45,7.45,0,0,1,.427,2.625,7.4,7.4,0,0,1-.435,2.632,4.1,4.1,0,0,1-1.223,1.785A2.792,2.792,0,0,1,571.015,13.165Zm.015-.48a1.7,1.7,0,0,0,1.56-1.17,8.363,8.363,0,0,0,.54-3.39,8.316,8.316,0,0,0-.54-3.375,1.625,1.625,0,0,0-3.12,0,8.317,8.317,0,0,0-.54,3.375,8.364,8.364,0,0,0,.54,3.39A1.7,1.7,0,0,0,571.03,12.685Zm11.265-.135V13H580.27l-2.43-3.4h-.48V12.55h.93V13h-3.015v-.45h.96V3.2h-1.08V2.77l2.205-.135v6.45h.51l2.3-2.415h-1.02V6.22h2.73v.45h-.945l-2.16,2.3,2.625,3.585ZM596.8,3.82h-1.11L593.1,13h-.69L589.72,5.41,587.275,13h-.69L583.84,3.82h-1.185V3.28h3.75v.54h-1.2l2.055,7.155,2.445-7.635h.63l2.745,7.59,1.965-7.11H593.86V3.28h2.94Zm5.31,9.3a9.019,9.019,0,0,0-4.185-2.865l-.285.36a13.388,13.388,0,0,1,3.24,3.585ZM72.213,30.6h6.765l.6.12v-.84l-.6.12h-12.6l-.6-.12v.84l.6-.12h.75v5.73c-.12.03-.195.03-.4.06-.315.045-.63.09-.945.12L66.2,37.6c.06.15.165.24.27.24s.21-.09.285-.3a30.652,30.652,0,0,0,4.35-1.485V38.2h1.11Zm-1.11,1.83V33.76H68.238V32.425Zm-2.865-.6V30.6H71.1v1.23ZM71.1,34.36v1.2l-.3.06c-.75.18-1.845.405-2.565.525V34.36Zm1.56,3.84a8.2,8.2,0,0,0,3.33-1.8,7.668,7.668,0,0,0,2.94,1.71,7.56,7.56,0,0,1,.645-1.17A8.323,8.323,0,0,1,76.743,35.6a12.81,12.81,0,0,0,2.13-3.96H73.488l-.6-.12v.84l.6-.12h.18a8.273,8.273,0,0,0,1.695,3.5,7.662,7.662,0,0,1-2.88,2.085Zm4.71-5.955a11.983,11.983,0,0,1-1.41,2.73,6.966,6.966,0,0,1-1.77-2.73ZM67.728,24.94v4.005H77.7V24.94Zm1.2,3.405V27.2h7.545v1.14Zm0-1.74V25.54h7.545V26.6Zm24.735,2.58.63.12V28.39l-.63.12H88.008l.015-.045c.1-1.05.18-2.175.18-3.015v-.465c.195-.135.24-.195.24-.3,0-.135-.1-.2-.315-.2h-1.29v.99c.015.435-.105,2.145-.2,2.985l-.015.045H81.693l-.63-.12v.915l.63-.12h4.86a10.57,10.57,0,0,1-5.775,8.52l.24.4a9.94,9.94,0,0,0,6.84-8.355,12.571,12.571,0,0,0,5.91,8.28,8.832,8.832,0,0,1,.81-1.5,12.569,12.569,0,0,1-4.89-4.17,9.336,9.336,0,0,1-1.545-3.18Zm7.755-3.615c.195-.1.3-.225.3-.36s-.12-.24-.3-.255l-1.5-.1.105.9V37.72h1.395V29.77a14.9,14.9,0,0,1,5.6,3.87l1.02-1.365a16.009,16.009,0,0,0-6.615-3.06ZM118.1,37.48a7.431,7.431,0,0,0,4.455-2.715,10.5,10.5,0,0,0,2.175-4.935l-.465-.15c-.99,2.82-2.865,5.115-4.83,5.91V25.9c.225-.15.3-.255.3-.39a.281.281,0,0,0-.285-.255l-1.485-.105.135.9Zm-7.1.045a8.229,8.229,0,0,0,3.36-3.57,13.975,13.975,0,0,0,.885-5.85V26.41c.225-.15.3-.255.3-.39a.27.27,0,0,0-.285-.255l-1.53-.1.135.9v1.68c0,4.56-.72,6.615-3.135,8.895Zm18.96-5.775a2.55,2.55,0,0,1,2.1,2.49,2.577,2.577,0,0,1-.487,1.575,3.116,3.116,0,0,1-1.26,1.005,3.912,3.912,0,0,1-1.613.345,3.244,3.244,0,0,1-1.732-.465,3.425,3.425,0,0,1-1.193-1.215l.48-.3a2.409,2.409,0,0,0,1.02,1,2.838,2.838,0,0,0,1.305.33,2.329,2.329,0,0,0,1.042-.24,1.932,1.932,0,0,0,.795-.735,2.23,2.23,0,0,0,.308-1.2,2.129,2.129,0,0,0-.607-1.6,2.074,2.074,0,0,0-1.508-.593h-.375V31.69a2.542,2.542,0,0,0,1.035-.225,1.955,1.955,0,0,0,.84-.712,2.133,2.133,0,0,0,.33-1.222,2.229,2.229,0,0,0-.42-1.372,1.59,1.59,0,0,0-2.5.09,3.29,3.29,0,0,0-.488,1.628h-.81v-1.8a2.968,2.968,0,0,1,1.11-.72,4,4,0,0,1,1.47-.27,3.632,3.632,0,0,1,1.455.285,2.526,2.526,0,0,1,1.057.825,2.092,2.092,0,0,1,.4,1.275A2.458,2.458,0,0,1,129.963,31.75Zm7.86,0a2.55,2.55,0,0,1,2.1,2.49,2.577,2.577,0,0,1-.487,1.575,3.116,3.116,0,0,1-1.26,1.005,3.912,3.912,0,0,1-1.613.345,3.244,3.244,0,0,1-1.732-.465,3.425,3.425,0,0,1-1.192-1.215l.48-.3a2.409,2.409,0,0,0,1.02,1,2.838,2.838,0,0,0,1.3.33,2.329,2.329,0,0,0,1.042-.24,1.932,1.932,0,0,0,.795-.735,2.23,2.23,0,0,0,.308-1.2,2.129,2.129,0,0,0-.607-1.6,2.074,2.074,0,0,0-1.508-.593H136.1V31.69a2.542,2.542,0,0,0,1.035-.225,1.955,1.955,0,0,0,.84-.712,2.133,2.133,0,0,0,.33-1.222,2.229,2.229,0,0,0-.42-1.372,1.59,1.59,0,0,0-2.5.09,3.29,3.29,0,0,0-.488,1.628h-.81v-1.8a2.968,2.968,0,0,1,1.11-.72,4,4,0,0,1,1.47-.27,3.632,3.632,0,0,1,1.455.285,2.526,2.526,0,0,1,1.057.825,2.092,2.092,0,0,1,.4,1.275A2.458,2.458,0,0,1,137.823,31.75Zm6.99,5.415a2.782,2.782,0,0,1-1.8-.63,4.026,4.026,0,0,1-1.208-1.778,8.3,8.3,0,0,1,0-5.257,4,4,0,0,1,1.215-1.77,2.922,2.922,0,0,1,3.615-.007,3.947,3.947,0,0,1,1.215,1.763,8.228,8.228,0,0,1-.007,5.257,4.1,4.1,0,0,1-1.223,1.785A2.792,2.792,0,0,1,144.813,37.165Zm.015-.48a1.7,1.7,0,0,0,1.56-1.17,8.364,8.364,0,0,0,.54-3.39,8.317,8.317,0,0,0-.54-3.375,1.625,1.625,0,0,0-3.12,0,8.317,8.317,0,0,0-.54,3.375,8.364,8.364,0,0,0,.54,3.39A1.7,1.7,0,0,0,144.827,36.685Zm4.425-.225h1.2V27.82h-1.2v-.54H151.7l4.515,7.29V27.82h-1.2v-.54h3.045v.54h-1.2V37h-.69l-5.07-8.265V36.46h1.2V37h-3.045Zm20.22.09V37h-2.865v-.45h.765V32.23a2.22,2.22,0,0,0-.285-1.252.985.985,0,0,0-.87-.413,1.376,1.376,0,0,0-1.073.48,1.759,1.759,0,0,0-.427,1.215v4.29h.855V37h-2.835v-.45h.855V32.23a2.22,2.22,0,0,0-.285-1.252.985.985,0,0,0-.87-.413,1.392,1.392,0,0,0-1.088.48,1.759,1.759,0,0,0-.427,1.215v4.29h.795V37h-2.91v-.45h.99V30.67h-.96v-.435l2.055-.12.03.7a2.122,2.122,0,0,1,1.8-.765,2.213,2.213,0,0,1,1.08.263,1.624,1.624,0,0,1,.705.727,1.9,1.9,0,0,1,.78-.735,2.455,2.455,0,0,1,1.14-.255q2.07,0,2.07,2.34V36.55Zm5.325.57a9.019,9.019,0,0,0-4.185-2.865l-.285.36a13.388,13.388,0,0,1,3.24,3.585Zm15.225.8a9.421,9.421,0,0,0,4.11-1.635c1.935-1.47,2.43-2.865,2.415-6.75v-3.9c.225-.15.3-.255.3-.39a.27.27,0,0,0-.285-.255l-1.545-.105.135.9v3.84c-.015,3.27-.345,4.425-1.7,5.79a8.7,8.7,0,0,1-3.54,2.055Zm-2.115-11.91v7.29h1.4V25.87c.225-.165.3-.27.3-.39a.27.27,0,0,0-.285-.255l-1.545-.12Zm13.455,4.11-.66-.135v.96l.66-.135H207a6.507,6.507,0,0,1-1.185,3.885,8.966,8.966,0,0,1-4,2.625l.12.435a9.311,9.311,0,0,0,4.83-2.325c1-1.005,1.485-2.355,1.635-4.62h4.7l.66.135v-.96l-.66.135h-4.65c.03-.8.045-1.47.045-1.935V26.83c.81-.075,1.56-.195,3.15-.48a2.232,2.232,0,0,0,.435.075.312.312,0,0,0,.315-.285.651.651,0,0,0-.225-.435l-.78-.735-.705.3a51.651,51.651,0,0,1-9.075,1.4l.03.465c1.17.03,1.35.03,1.815.03,1.155,0,1.62-.03,3.6-.18h.045v1.2c0,.435-.015,1.125-.045,1.935Zm20.025-2.61h-4.74v4.5h1.425v-3.81h8.265c-.03,2.535-.555,4.53-1.515,5.73a10.605,10.605,0,0,1-5.79,3.345l.09.465a11.244,11.244,0,0,0,6.39-2.6c1.665-1.62,2.295-3.57,2.46-7.635h-5.145v-1.83c.225-.15.3-.255.3-.39a.281.281,0,0,0-.285-.255l-1.59-.105.135.9Zm22.575,9.03a13.783,13.783,0,0,0-4.7-6.45l-.315.27a22.48,22.48,0,0,1,2.34,3.87c-2.865.42-4.74.615-7.545.8l.18-.33a69.534,69.534,0,0,0,3.75-8.55c.285-.12.4-.225.4-.39,0-.135-.1-.24-.315-.3l-1.485-.465-.15.87a78.849,78.849,0,0,1-3.075,8.73l-.21.51h-.09c-.4.03-.78.045-2.04.1l.48,1.305c.12.285.21.39.36.39s.27-.09.4-.36a65.26,65.26,0,0,0,9.615-1.74,23.513,23.513,0,0,1,.96,2.6Zm8.28-6.855a1.628,1.628,0,1,0,1.6,1.62A1.629,1.629,0,0,0,252.243,29.68Zm16.635-.72a38.562,38.562,0,0,0,3.2-2.82c.4-.045.57-.15.57-.36a.465.465,0,0,0-.24-.345l-1.155-.765-.54.81a29.182,29.182,0,0,1-9.84,6.825l.165.45a19.784,19.784,0,0,0,6.45-2.79v7.83h1.395Zm14.97,7.26c-.03.63-.24.825-.87.84h-1.56v.69h2.46a1.454,1.454,0,0,0,.975-.285,1.324,1.324,0,0,0,.375-.9v-.24l-.18-7.71h3.315l.6.12v-.93l-.6.12h-3.33l-.06-2.43c.2-.15.255-.24.255-.36,0-.15-.135-.255-.375-.255l-1.395-.075.15,1.005.045,2.115h-6.795l-.6-.12v.93l.6-.12h5.895l-.03.045a17.791,17.791,0,0,1-6.75,7.29l.2.36c3.12-1.17,5.115-2.88,7.53-6.48Zm19.65-8.61a14.889,14.889,0,0,1-3.825,4.86,14.109,14.109,0,0,1-6.885,3.045l-.795.015.54,1.335c.09.21.225.33.375.33.165,0,.285-.1.39-.345,3.39-.765,5.52-1.785,7.365-3.525a12.643,12.643,0,0,0,3.255-5.52Zm-11.64-1.635a14.1,14.1,0,0,1,3.735,3.21l1.23-1.245a9.257,9.257,0,0,0-4.785-2.355Zm20.385,3.705a1.628,1.628,0,1,0,1.6,1.62A1.629,1.629,0,0,0,312.243,29.68Zm22.035-3.87a3,3,0,0,0-1.77-1.56l-.24.21a6.03,6.03,0,0,1,1.005,1.89ZM320.583,36.775c2.475-1.965,4.08-4.845,4.92-8.88.33-.12.465-.255.465-.45,0-.15-.12-.27-.345-.33l-1.56-.39-.045.87a20.36,20.36,0,0,1-3.765,8.9Zm7.545-9.735a28.875,28.875,0,0,1,4.155,9.63l1.56-.87a20.207,20.207,0,0,0-5.31-9.075Zm2.385-2.355a6.593,6.593,0,0,1,.915,2.055l1-.48a2.968,2.968,0,0,0-1.65-1.77Zm9.375,13.2a7.956,7.956,0,0,0,4.74-2.64,11.653,11.653,0,0,0,2.25-5.28c.24-.06.33-.15.33-.285,0-.09-.075-.18-.225-.225l-1.41-.45-.03.795a14.451,14.451,0,0,1-1.575,4.32,7.919,7.919,0,0,1-4.23,3.33Zm.33-5.355a5.618,5.618,0,0,0-2.475-3.33l-.255.195a10.075,10.075,0,0,1,1.545,3.585Zm2.97-.375a5.935,5.935,0,0,0-2.37-3.33l-.27.21a10.141,10.141,0,0,1,1.44,3.585Zm19.9-1.59.66.135v-.96l-.66.135h-11.73l-.66-.135v.96l.66-.135h5.355a8.439,8.439,0,0,1-.51,3.285,6.963,6.963,0,0,1-4.545,3.48l.12.495c2.43-.495,4.41-1.545,5.28-2.79a7.165,7.165,0,0,0,1.11-4.47Zm-1.95-4.86h-7.92l-.66-.135v.96l.66-.135h7.92l.66.135v-.96Zm8.88,12.21a9.421,9.421,0,0,0,4.11-1.635c1.935-1.47,2.43-2.865,2.415-6.75v-3.9c.225-.15.3-.255.3-.39a.27.27,0,0,0-.285-.255l-1.545-.105.135.9v3.84c-.015,3.27-.345,4.425-1.695,5.79a8.7,8.7,0,0,1-3.54,2.055Zm-2.115-11.91v7.29h1.4V25.87c.225-.165.3-.27.3-.39a.27.27,0,0,0-.285-.255l-1.545-.12Zm25.68,4.935-12.525-.465V32.05l12.525-.45Zm9.075-1.3c.24-.1.33-.18.33-.315,0-.12-.075-.18-.315-.24l-1.005-.255a18.74,18.74,0,0,1-6.345,5.19l.135.4a17.315,17.315,0,0,0,2.355-.96v4.65h1.245v-.66h6.33v.585h1.245v-4.56a12.3,12.3,0,0,0,1.875.78,6.8,6.8,0,0,1,.615-1.305,14.319,14.319,0,0,1-6.42-3.285Zm-4.68,3.735a14.791,14.791,0,0,0,4.35-3.4,12.91,12.91,0,0,0,4.11,3.4Zm1.08,3.48V33.97h6.33v2.88Zm2.43-10.98h-4.2a3.931,3.931,0,0,0-.03-.63h-.51a3.819,3.819,0,0,1-1.425,2.43l.915,1.11a3.178,3.178,0,0,0,1.02-2.31h10.11a11.747,11.747,0,0,1-.825,1.7l.3.225a5.732,5.732,0,0,0,2.28-2.52h-6.315V24.9c.2-.15.24-.195.24-.285,0-.15-.105-.21-.315-.21h-1.245Zm1.77,1.845a17.718,17.718,0,0,1,3.75,2.85l1.02-1.05a15.5,15.5,0,0,0-4.47-2.175Zm-6.675,3a11.124,11.124,0,0,0,3.96-2.445c.33-.06.51-.165.51-.315,0-.075-.1-.18-.24-.24l-1.125-.495a13.126,13.126,0,0,1-3.33,3.12Zm20.04,6.495h-5.7l-.6-.12v.795l.6-.12h12.6l.6.12V37.09l-.6.12h-5.8V36.07h4.725l.585.12V35.4l-.585.12h-4.725V34.48h4.68V30.745h-10.35V34.48h4.575v1.035h-4.635l-.585-.12v.795l.585-.12h4.635Zm0-3.285h-3.42v-1.05h3.42Zm0-1.6h-3.42V31.3h3.42Zm1.1-1.02h3.525v1.02h-3.525Zm0,1.575h3.525v1.05h-3.525Zm-5.475-7.95v3.63h9.96v-3.63Zm1.2.555h7.56v.96h-7.56Zm0,2.52V26.995h7.56V28Zm-2.43,1.92h12.42l.6.12v-.8l-.6.12h-12.42l-.6-.12v.8Zm19.875,6.54V37h-4.2v-.54h1.545V28.465l-1.485.96-.315-.48,2.475-1.665h.51v9.18Zm6.48-4.71a2.55,2.55,0,0,1,2.1,2.49,2.577,2.577,0,0,1-.488,1.575,3.116,3.116,0,0,1-1.26,1.005,3.912,3.912,0,0,1-1.613.345,3.244,3.244,0,0,1-1.732-.465,3.425,3.425,0,0,1-1.193-1.215l.48-.3a2.409,2.409,0,0,0,1.02,1,2.838,2.838,0,0,0,1.3.33,2.329,2.329,0,0,0,1.043-.24,1.932,1.932,0,0,0,.795-.735,2.231,2.231,0,0,0,.307-1.2,2.129,2.129,0,0,0-.607-1.6,2.074,2.074,0,0,0-1.508-.593h-.375V31.69a2.542,2.542,0,0,0,1.035-.225,1.955,1.955,0,0,0,.84-.712,2.133,2.133,0,0,0,.33-1.222,2.229,2.229,0,0,0-.42-1.372,1.59,1.59,0,0,0-2.5.09,3.291,3.291,0,0,0-.488,1.628h-.81v-1.8a2.968,2.968,0,0,1,1.11-.72,4,4,0,0,1,1.47-.27,3.632,3.632,0,0,1,1.455.285,2.526,2.526,0,0,1,1.057.825,2.092,2.092,0,0,1,.4,1.275A2.458,2.458,0,0,1,437.373,31.75Zm7.365-.93a3.141,3.141,0,0,1,1.462.353,2.708,2.708,0,0,1,1.1,1.042,3.127,3.127,0,0,1,.413,1.635,3.433,3.433,0,0,1-.428,1.718,3.059,3.059,0,0,1-1.162,1.177,3.208,3.208,0,0,1-1.62.42,2.88,2.88,0,0,1-1.785-.577,3.643,3.643,0,0,1-1.178-1.643,6.875,6.875,0,0,1-.413-2.49,7.3,7.3,0,0,1,.51-2.828,4.53,4.53,0,0,1,1.358-1.883,2.93,2.93,0,0,1,1.837-.66,2.768,2.768,0,0,1,1.4.375,3.376,3.376,0,0,1,1.117,1.065l-.45.375a3.169,3.169,0,0,0-.908-.9,2.015,2.015,0,0,0-1.1-.33,1.918,1.918,0,0,0-1.747,1.177,7.289,7.289,0,0,0-.7,3.112,3.032,3.032,0,0,1,.938-.81A2.69,2.69,0,0,1,444.738,30.82Zm.015,5.865a1.359,1.359,0,0,0,1.253-.7,3.551,3.551,0,0,0,.413-1.822,3.255,3.255,0,0,0-.57-2.093,1.8,1.8,0,0,0-2.677-.187,2.566,2.566,0,0,0-.7,1.215,5.4,5.4,0,0,0,.72,2.663A1.823,1.823,0,0,0,444.753,36.685Zm5.13.48a.9.9,0,1,1,.637-.263A.868.868,0,0,1,449.883,37.165Zm5.49,0a2.782,2.782,0,0,1-1.8-.63,4.026,4.026,0,0,1-1.207-1.778,8.3,8.3,0,0,1,0-5.257,4,4,0,0,1,1.215-1.77,2.922,2.922,0,0,1,3.615-.007,3.947,3.947,0,0,1,1.215,1.763,8.228,8.228,0,0,1-.008,5.257,4.1,4.1,0,0,1-1.223,1.785A2.792,2.792,0,0,1,455.373,37.165Zm.015-.48a1.7,1.7,0,0,0,1.56-1.17,8.364,8.364,0,0,0,.54-3.39,8.316,8.316,0,0,0-.54-3.375,1.625,1.625,0,0,0-3.12,0,8.316,8.316,0,0,0-.54,3.375,8.364,8.364,0,0,0,.54,3.39A1.7,1.7,0,0,0,455.388,36.685Zm13.56-.225V37h-3.48v-.54h1.1l-1.08-3.045h-3.225l-1.08,3.045h1.1V37h-2.8v-.54h1.065l3.315-9.18h.7l3.33,9.18Zm-3.675-3.615-1.38-3.885h-.06l-1.38,3.885Zm11.205,3.7V37h-3.06v-.45h.975V32.4a2.242,2.242,0,0,0-.345-1.35A1.222,1.222,0,0,0,473,30.58a1.619,1.619,0,0,0-1.185.458,1.58,1.58,0,0,0-.465,1.177V36.55h.96V37h-3.045v-.45h.96V27.2h-1.08V26.77l2.2-.135V30.82a1.863,1.863,0,0,1,.8-.562,3.109,3.109,0,0,1,1.155-.2,2.21,2.21,0,0,1,1.658.592,2.407,2.407,0,0,1,.577,1.748V36.55Zm5.625-9.84h.63l-4.875,10.68h-.63Zm4.935,3.975a3.141,3.141,0,0,1,1.462.353,2.779,2.779,0,0,1,1.11,1.058,3.179,3.179,0,0,1,.427,1.68,3.351,3.351,0,0,1-.495,1.86,3.2,3.2,0,0,1-1.253,1.148,3.528,3.528,0,0,1-3.322-.068,3.191,3.191,0,0,1-1.215-1.23l.48-.3a2.586,2.586,0,0,0,.99,1,2.742,2.742,0,0,0,1.365.345,1.945,1.945,0,0,0,1.057-.307,2.2,2.2,0,0,0,.788-.908,3.153,3.153,0,0,0,.3-1.425,3.012,3.012,0,0,0-.3-1.4,2.02,2.02,0,0,0-.788-.855,2.1,2.1,0,0,0-1.057-.278,1.718,1.718,0,0,0-.9.225,2.8,2.8,0,0,0-.675.57h-.585l.36-4.875h4.77v1.2h-4.305l-.21,2.91a2.646,2.646,0,0,1,.863-.51A3.187,3.187,0,0,1,487.038,30.685Zm11.385,4.11h-1.65V37h-1.185V34.795h-4.2V34.21l3.84-6.93h1.545v6.5h1.65Zm-2.835-1.02V28.09h-.2l-3.06,5.685Zm4.785,3.39a.9.9,0,1,1,.637-.263A.868.868,0,0,1,500.372,37.165Zm8.52-1.335V37H503v-.525q1.9-2.07,2.783-3.127a9.508,9.508,0,0,0,1.26-1.853,3.794,3.794,0,0,0,.383-1.665,2.466,2.466,0,0,0-.488-1.657,1.582,1.582,0,0,0-1.253-.562,1.482,1.482,0,0,0-1.3.66,3.172,3.172,0,0,0-.51,1.62h-.81v-1.8a2.805,2.805,0,0,1,1.125-.72,4.279,4.279,0,0,1,1.515-.27,3.976,3.976,0,0,1,1.448.27,2.593,2.593,0,0,1,1.155.878,2.51,2.51,0,0,1,.457,1.552,2.773,2.773,0,0,1-.36,1.358,8.636,8.636,0,0,1-1.193,1.56q-.833.907-3.008,3.113Zm8.25.72V37h-2.025l-2.43-3.4h-.48V36.55h.93V37h-3.015v-.45h.96V27.2H510V26.77l2.205-.135v6.45h.51l2.3-2.415h-1.02v-.45h2.73v.45h-.945l-2.16,2.3,2.625,3.585Zm14.505-8.73h-1.11l-2.6,9.18h-.69l-2.685-7.59L522.122,37h-.69l-2.745-9.18H517.5v-.54h3.75v.54h-1.2l2.055,7.155,2.445-7.635h.63l2.745,7.59,1.965-7.11h-1.185v-.54h2.94Zm7.92,8.73V37h-3.06v-.45h.975V32.4a2.242,2.242,0,0,0-.345-1.35,1.222,1.222,0,0,0-1.05-.465,1.619,1.619,0,0,0-1.185.458,1.58,1.58,0,0,0-.465,1.177V36.55h.96V37h-3.045v-.45h.96V27.2h-1.08V26.77l2.205-.135V30.82a1.862,1.862,0,0,1,.795-.562,3.109,3.109,0,0,1,1.155-.2,2.21,2.21,0,0,1,1.658.592,2.407,2.407,0,0,1,.578,1.748V36.55Zm5.325.57a9.019,9.019,0,0,0-4.185-2.865l-.285.36a13.388,13.388,0,0,1,3.24,3.585ZM225.9,55.6h12.24l.78.15V54.505l-.78.15H225.9l-.78-.15V55.75Zm25.53-.555a11.745,11.745,0,0,1,1.065,1.26l1.1-1.17a17.472,17.472,0,0,0-4.68-3.15l-.36.4a23.076,23.076,0,0,1,2.37,2.115l-.81.03c-1.71.06-2.4.075-4.95.1l-.87.015a17.947,17.947,0,0,0,2.43-3.39l.015-.045h6.4l.6.12V50.5l-.6.12H247.72V48.91c.18-.135.24-.195.24-.3,0-.135-.105-.195-.33-.195h-1.275V50.62H240.91l-.585-.12v.84l.585-.12h4.275a27.158,27.158,0,0,1-1.53,3.195l-.135.24c-1.71.03-1.875.03-2.07.03h-.765l.3,1.185c.06.225.165.345.3.345s.24-.12.33-.36c.51-.015.99-.045,1.14-.06l.825-.045.825-.06a8.232,8.232,0,0,1-.84,3.435,5.458,5.458,0,0,1-3.435,2.52l.165.465a6.519,6.519,0,0,0,4.1-2.13,7,7,0,0,0,1.335-4.38l.18-.015c.315-.03.33-.03,1.125-.09.09-.015.54-.06.945-.09v4.95c0,1.14.4,1.47,1.77,1.455h2.4c1.035.015,1.47-.39,1.575-1.41l.195-1.755-.675-.1-.165,1.425c-.06.495-.27.675-.765.675h-2.37c-.57-.03-.705-.15-.705-.6V55.3l.4-.045a7.883,7.883,0,0,0,.975-.12Zm11.01,4.65h4.98V55.48h-10.83v5.235h1.125v-1.02h3.615v1.17c.03.72.39.96,1.485.99h4.7c.81,0,1.14-.285,1.26-1.1l.135-1.11-.585-.06-.12.75c-.075.4-.24.525-.735.54h-4.47c-.495-.03-.57-.075-.555-.45Zm0-3.615h3.825v1.17h-3.825Zm0,1.77h3.825V59.1h-3.825Zm-1.11,1.245H257.71V57.85h3.615Zm0-1.845H257.71V56.08h3.615Zm0-6v3.615h1.11V51.25h4.98a14.131,14.131,0,0,1-.735,2.07l.39.18a5.639,5.639,0,0,0,1.83-2.85h-6.465V49.615h4.65l.6.12V48.9l-.6.12h-9.96l-.585-.12v.84l.585-.12h4.2V50.65H256.87V50.6l-.015-.39h-.51a4.113,4.113,0,0,1-1.23,2.52l.93,1.05a4.015,4.015,0,0,0,.825-2.535Zm-4.035,3.18h3.285v-.6H257.29Zm0-1.59h3.285v-.6H257.29Zm5.895,1.59h3.345v-.6h-3.345Zm0-1.59h3.33v-.6h-3.33Zm14.625,4.575h3.99l.6.12v-.84l-.6.12h-3.99v-2.55h5.415l.6.12v-.84l-.6.12H277.81V51.13H282l.6.12v-.84l-.6.12H277.81V48.97c.195-.15.24-.195.24-.285,0-.15-.105-.21-.33-.21h-1.2V50.53h-4.5l-.585-.12v.84l.585-.12h4.5v2.535h-5.7l-.585-.12v.84l.585-.12h5.7V60.13a4.653,4.653,0,0,1-2.9-2.67c.09-.39.165-.75.3-1.575.225-.09.345-.2.345-.33,0-.1-.12-.195-.285-.21l-1.29-.15c-.27,3.36-.93,5.01-2.58,6.585l.27.33a6.055,6.055,0,0,0,3.09-4.035A8.7,8.7,0,0,0,274,59.14a4.969,4.969,0,0,0,3.765,2.385,30.068,30.068,0,0,0,4.455.21H283.5a6.768,6.768,0,0,1,.42-1.335c-1.5.09-2.64.135-3.69.135a19.061,19.061,0,0,1-2.415-.12Zm18.78-3.165h1.725l.6.12v-.84l-.6.12H290.98l-.6-.12v.84l.6-.12h4.29v6.435c0,.48-.21.69-.675.69H292.96v.63h2.265c.96,0,1.38-.39,1.365-1.305Zm-9.255,7.86h1.245V54.415c.33-.42.525-.66,1.02-1.32.39-.03.525-.1.525-.315,0-.09-.06-.165-.18-.24l-1.05-.69a23.516,23.516,0,0,1-3.78,5.055l.255.375a17.872,17.872,0,0,0,1.965-1.56Zm4.575-12.165h5.64l.6.12v-.87l-.6.12h-5.64l-.6-.12v.87Zm-6.36,2.295a13.468,13.468,0,0,0,3.75-2.55,1.062,1.062,0,0,0,.4-.045.236.236,0,0,0,.18-.21c0-.075-.045-.15-.165-.24l-1.05-.795a16.077,16.077,0,0,1-3.375,3.465ZM304.075,56.6h1.05l.6.12v-.84l-.6.12h-1.05V53.68H305.5V49.03h-4.65v4.65H303v6.465c-.135.015-.54.075-.99.15v-4.95c.165-.135.21-.195.21-.285,0-.135-.105-.2-.33-.2h-.96V60.43h-.06c-.21.03-.345.045-.75.09l.285,1.065c.045.18.135.285.255.285s.225-.1.27-.33a30.313,30.313,0,0,0,4.95-1.47l-.06-.435c-.4.075-.825.165-1.26.24-.27.045-.33.06-.48.09Zm-2.1-3.525V49.63h2.4v3.45Zm5.94,7.575v-3.15h5.265V52.5h-5.265v-2.79h5.145l.6.12v-.84l-.6.12h-6.375V62.11h1.23v-.855H313.3l.615.12v-.84l-.615.12Zm0-7.56h4.005V56.9h-4.005ZM321.13,59.23v1.29c-.015.495-.18.66-.66.675h-1.065v.63h1.515c.885,0,1.275-.36,1.26-1.185V56.1h-3.12c.075-.27.18-.645.255-1.02h2.46V51.67c.195-.135.24-.195.24-.3,0-.135-.105-.195-.315-.195h-.945v3.3H316.84v-2.82c.195-.15.24-.21.24-.3,0-.135-.12-.21-.315-.21h-.945v3.93h2.46c-.03.27-.045.3-.165,1.02h-2.55V61.87h1.08V56.695H318c-.2.975-.33,1.62-.4,1.95l-.06.015c-.315.015-.315.015-.72.03l.27.915c.03.135.12.225.21.225s.18-.09.255-.285a14.493,14.493,0,0,0,2.34-.675,9.247,9.247,0,0,1,.315.915Zm0-2.535V59.17a7.048,7.048,0,0,0-1.6-1.9l-.315.15c.27.525.375.75.495,1.035-.345.045-1.32.15-1.545.165.2-.45.555-1.41.72-1.92Zm5.625-2.355V52.015h1.38l.6.12v-.84l-.6.12H326.2a9.057,9.057,0,0,0,1.245-2.025c.24-.075.39-.195.39-.285a.312.312,0,0,0-.21-.225l-1.14-.36a19.316,19.316,0,0,1-.825,2.9h-1.755l.015-.045a15.222,15.222,0,0,0,.885-2.07c.27-.09.42-.21.42-.315,0-.075-.1-.18-.195-.21l-1.185-.375a23.881,23.881,0,0,1-1.92,5.265l.3.225a12.877,12.877,0,0,0,.975-1.26v9.48h1.05V61.3h4.065l.6.12v-.84l-.6.12h-1.56V57.9h1.035l.6.12v-.84l-.6.12h-1.035V54.94h1.035l.6.12v-.84l-.6.12Zm-1.035,0h-1.47V52.015h1.47Zm0,.6v2.355h-1.47V54.94Zm0,2.955V60.7h-1.47V57.9Zm-8.535-6.33c.57.435.75.57,1.215.975a12.5,12.5,0,0,1-1.44,1.35l.225.315a9.049,9.049,0,0,0,1.755-1.17,9.616,9.616,0,0,1,1.02,1.05l.69-.7a9.092,9.092,0,0,0-1.14-.9l.03-.03c.225-.255.345-.405.39-.45.09-.1.12-.165.24-.3.255-.015.375-.09.375-.21a.2.2,0,0,0-.105-.165l-.825-.435a12.772,12.772,0,0,1-.78,1.14c-.42-.27-.75-.45-1.38-.78ZM319.48,49.9v-.915c.2-.135.24-.195.24-.3,0-.135-.1-.2-.315-.2H318.25V49.9h-2.535l-.6-.12v.84l.6-.12h6.21l.585.12v-.84l-.585.12ZM337,58.795h-1.65V61h-1.185V58.795h-4.2V58.21l3.84-6.93h1.545v6.5H337Zm-2.835-1.02V52.09h-.2l-3.06,5.685Zm7.125,3.39a2.782,2.782,0,0,1-1.8-.63,4.026,4.026,0,0,1-1.207-1.778,8.3,8.3,0,0,1,0-5.257,4,4,0,0,1,1.215-1.77,2.922,2.922,0,0,1,3.615-.007,3.947,3.947,0,0,1,1.215,1.763,8.228,8.228,0,0,1-.008,5.257,4.1,4.1,0,0,1-1.223,1.785A2.792,2.792,0,0,1,341.29,61.165Zm.015-.48a1.7,1.7,0,0,0,1.56-1.17,8.364,8.364,0,0,0,.54-3.39,8.316,8.316,0,0,0-.54-3.375,1.625,1.625,0,0,0-3.12,0,8.316,8.316,0,0,0-.54,3.375,8.364,8.364,0,0,0,.54,3.39A1.7,1.7,0,0,0,341.305,60.685Zm10.875-.855V61h-5.9v-.525q1.9-2.07,2.783-3.127a9.508,9.508,0,0,0,1.26-1.853,3.794,3.794,0,0,0,.383-1.665,2.466,2.466,0,0,0-.488-1.658,1.582,1.582,0,0,0-1.253-.562,1.482,1.482,0,0,0-1.3.66,3.172,3.172,0,0,0-.51,1.62h-.81v-1.8a2.805,2.805,0,0,1,1.125-.72,4.279,4.279,0,0,1,1.515-.27,3.976,3.976,0,0,1,1.448.27,2.593,2.593,0,0,1,1.155.877,2.51,2.51,0,0,1,.457,1.553,2.773,2.773,0,0,1-.36,1.358,8.636,8.636,0,0,1-1.193,1.56q-.833.907-3.008,3.113Zm8.25.72V61h-2.025l-2.43-3.4h-.48V60.55h.93V61H353.41v-.45h.96V51.205h-1.08V50.77l2.2-.135v6.45h.51L358.3,54.67h-1.02v-.45h2.73v.45h-.945l-2.16,2.3,2.625,3.585Zm11.19,0V61h-2.865v-.45h.765V56.23a2.22,2.22,0,0,0-.285-1.252.985.985,0,0,0-.87-.413,1.376,1.376,0,0,0-1.073.48,1.759,1.759,0,0,0-.427,1.215v4.29h.855V61h-2.835v-.45h.855V56.23a2.22,2.22,0,0,0-.285-1.252.985.985,0,0,0-.87-.413,1.392,1.392,0,0,0-1.087.48,1.759,1.759,0,0,0-.428,1.215v4.29h.8V61h-2.91v-.45h.99V54.67h-.96v-.435l2.055-.12.03.7a2.122,2.122,0,0,1,1.8-.765,2.213,2.213,0,0,1,1.08.263,1.624,1.624,0,0,1,.705.727,1.9,1.9,0,0,1,.78-.735,2.455,2.455,0,0,1,1.14-.255q2.07,0,2.07,2.34V60.55Zm2.521-8.706.8.945-.411.306-.647-1.076L373.24,53.1l-.411-.306.814-.936-1.207-.28.158-.49,1.146.481-.105-1.234h.516l-.114,1.234,1.146-.481.166.49Zm-.254-.07-.009.009h.009l.009-.009Zm4.8,1.164a1.487,1.487,0,0,1,1.225,1.452,1.5,1.5,0,0,1-.284.919,1.818,1.818,0,0,1-.735.586,2.282,2.282,0,0,1-.941.2,1.892,1.892,0,0,1-1.011-.271,2,2,0,0,1-.7-.709l.28-.175a1.405,1.405,0,0,0,.595.586,1.656,1.656,0,0,0,.761.192,1.358,1.358,0,0,0,.608-.14,1.127,1.127,0,0,0,.464-.429,1.3,1.3,0,0,0,.179-.7,1.242,1.242,0,0,0-.354-.932,1.21,1.21,0,0,0-.879-.346h-.219V52.9a1.483,1.483,0,0,0,.6-.131,1.14,1.14,0,0,0,.49-.416,1.244,1.244,0,0,0,.193-.713,1.3,1.3,0,0,0-.245-.8.927.927,0,0,0-1.457.052,1.92,1.92,0,0,0-.284.949h-.472v-1.05a1.731,1.731,0,0,1,.647-.42,2.332,2.332,0,0,1,.857-.157,2.119,2.119,0,0,1,.849.166,1.473,1.473,0,0,1,.617.481,1.22,1.22,0,0,1,.232.744A1.434,1.434,0,0,1,378.691,52.938Zm4.779,4.567a2.348,2.348,0,1,0,2.31,2.34A2.35,2.35,0,0,0,383.47,57.505Zm-.06.69a1.658,1.658,0,1,1-1.635,1.65A1.659,1.659,0,0,1,383.41,58.195Z" transform="translate(0.44 306.281)" fill="#111"/>
      </g>
      <path id="パス_30950" data-name="パス 30950" d="M-50.568-1.728h3.84V-29.376h-3.84V-31.1h8.208L-31.8-7.056-21.624-31.1h8.016v1.728h-3.84V-1.728h3.84V0h-11.76V-1.728h3.84v-24.24L-31.8-1.776h-2.208L-44.664-26.16V-1.728h3.7V0h-9.6Zm53.616,0V0H-10.44V-1.728h4.7V-29.376h-4.512V-31.1h13.1v1.728H-1.656V-1.728Zm3.168,0h3.84V-29.376H6.216V-31.1H14.04L28.488-7.776v-21.6h-3.84V-31.1h9.744v1.728h-3.84V0H28.344L12.12-26.448v24.72h3.84V0H6.216Zm44.352,0V0H37.08V-1.728h4.7V-29.376H37.272V-31.1h13.1v1.728H45.864V-1.728Zm-157.848,50.3a12.661,12.661,0,0,1-7.848-2.3,12.931,12.931,0,0,1-4.392-5.88,21.175,21.175,0,0,1-1.344-7.512,22.739,22.739,0,0,1,1.392-7.944,13.827,13.827,0,0,1,4.464-6.192,12.168,12.168,0,0,1,7.776-2.424,14.621,14.621,0,0,1,5.4.888,16.1,16.1,0,0,1,4.008,2.28v5.76h-2.736q-.384-3.84-2.3-5.616a6.671,6.671,0,0,0-4.7-1.776,7.547,7.547,0,0,0-6.792,3.432,15.976,15.976,0,0,0-2.232,8.856,29.339,29.339,0,0,0,1.032,7.92,14.364,14.364,0,0,0,3.192,6.024,7.033,7.033,0,0,0,5.376,2.328,8.407,8.407,0,0,0,5.184-1.776A8.352,8.352,0,0,0-98.736,39.5h1.824a10.917,10.917,0,0,1-1.92,4.656,10.716,10.716,0,0,1-3.7,3.24A9.956,9.956,0,0,1-107.28,48.576Zm26.928,0a12.2,12.2,0,0,1-7.512-2.208,12.615,12.615,0,0,1-4.3-5.736,21.056,21.056,0,0,1-1.344-7.56,23.225,23.225,0,0,1,1.368-7.9,14.107,14.107,0,0,1,4.488-6.336,12.277,12.277,0,0,1,7.968-2.52,12.414,12.414,0,0,1,7.56,2.208A12.974,12.974,0,0,1-67.7,24.264a19.977,19.977,0,0,1,1.416,7.512,22.249,22.249,0,0,1-1.44,7.872,14.7,14.7,0,0,1-4.584,6.384A12.374,12.374,0,0,1-80.352,48.576Zm1.152-1.584a7.062,7.062,0,0,0,6.432-3.528q2.16-3.528,2.16-9.432A28.524,28.524,0,0,0-71.64,26.28a13.988,13.988,0,0,0-3.288-6.024A7.692,7.692,0,0,0-80.736,17.9a6.894,6.894,0,0,0-6.408,3.48,17.315,17.315,0,0,0-2.04,8.856,26.731,26.731,0,0,0,2.4,11.856A7.947,7.947,0,0,0-79.2,46.992Zm30.1,1.584a12.2,12.2,0,0,1-7.512-2.208,12.615,12.615,0,0,1-4.3-5.736,21.057,21.057,0,0,1-1.344-7.56,23.225,23.225,0,0,1,1.368-7.9A14.107,14.107,0,0,1-56.4,18.84a12.277,12.277,0,0,1,7.968-2.52,12.414,12.414,0,0,1,7.56,2.208,12.974,12.974,0,0,1,4.416,5.736,19.977,19.977,0,0,1,1.416,7.512,22.248,22.248,0,0,1-1.44,7.872,14.7,14.7,0,0,1-4.584,6.384A12.374,12.374,0,0,1-49.1,48.576Zm1.152-1.584a7.062,7.062,0,0,0,6.432-3.528q2.16-3.528,2.16-9.432a28.524,28.524,0,0,0-1.032-7.752,13.988,13.988,0,0,0-3.288-6.024A7.692,7.692,0,0,0-49.488,17.9a6.894,6.894,0,0,0-6.408,3.48,17.315,17.315,0,0,0-2.04,8.856,26.731,26.731,0,0,0,2.4,11.856A7.947,7.947,0,0,0-47.952,46.992ZM-17.76,16.9q4.7,0,7.056,2.256a7.75,7.75,0,0,1,2.352,5.856,8.368,8.368,0,0,1-1.128,4.32,8.026,8.026,0,0,1-3.264,3.048A10.594,10.594,0,0,1-17.76,33.5h-6.048V46.272h3.84V48h-11.76V46.272h3.84V18.624h-3.84V16.9Zm-.576,14.784a4.909,4.909,0,0,0,3.912-1.848,7.077,7.077,0,0,0,1.56-4.728,7.064,7.064,0,0,0-1.488-4.728,4.961,4.961,0,0,0-3.984-1.752h-5.472V31.68Zm36.528,7.872V48H-5.568V46.272h3.84V18.624h-3.84V16.9H17.808v8.352H15.984L13.44,18.624H2.352V30.672H9.888v-3.7H12.1v9.216H9.888V32.5H2.352V46.272H13.824l2.544-6.72Zm32.16,6.72V48H43.008l-9.12-14.352H29.424V46.272h3.792V48H21.5V46.272h3.84V18.624H21.5V16.9H35.472q4.7,0,7.056,2.328a7.986,7.986,0,0,1,2.352,5.928A8.209,8.209,0,0,1,43.1,30.5a8.312,8.312,0,0,1-4.848,2.856L46.9,46.272ZM29.424,31.824h5.52a4.909,4.909,0,0,0,3.912-1.848,7.077,7.077,0,0,0,1.56-4.728,7.278,7.278,0,0,0-1.512-4.8,4.9,4.9,0,0,0-3.96-1.824h-5.52ZM73.44,48.576a14.828,14.828,0,0,1-5.5-.96,8.7,8.7,0,0,1-3.576-2.352V39.6H66.96q.48,4.08,2.16,5.736a6.019,6.019,0,0,0,4.416,1.656,6.316,6.316,0,0,0,4.584-1.56,5.581,5.581,0,0,0,1.608-4.2,5.366,5.366,0,0,0-2.64-4.8l-8.544-5.52A10.256,10.256,0,0,1,65.5,28.08a6.827,6.827,0,0,1-1.08-3.936,7.082,7.082,0,0,1,2.52-5.688,10.393,10.393,0,0,1,6.936-2.136,13.979,13.979,0,0,1,4.92.816,9.217,9.217,0,0,1,3.576,2.3v5.808H79.776q-.384-4.176-1.824-5.784a5.193,5.193,0,0,0-4.08-1.608,5.608,5.608,0,0,0-4.392,1.536,5.365,5.365,0,0,0-1.368,3.7,4.568,4.568,0,0,0,2.208,4.128l8.4,5.376a12.126,12.126,0,0,1,3.768,3.432,7.241,7.241,0,0,1,1.128,4.008,7.961,7.961,0,0,1-4.68,7.44A12.515,12.515,0,0,1,73.44,48.576Zm37.44-9.024V48H87.12V46.272h3.84V18.624H87.12V16.9H110.5v8.352h-1.824l-2.544-6.624H95.04V30.672h7.536v-3.7h2.208v9.216h-2.208V32.5H95.04V46.272h11.472l2.544-6.72Zm6.768,8.976a2.868,2.868,0,1,1,2.04-.84A2.777,2.777,0,0,1,117.648,48.528Z" transform="translate(305.864 277.785)" fill="#111"/>
    </g>
  </g>
</svg>
