<svg xmlns="http://www.w3.org/2000/svg" width="602.508" height="298.466" viewBox="0 0 602.508 298.466">
  <g id="door03-txt01-sp" transform="translate(-2 -249.896)">
    <g id="グループ_717" data-name="グループ 717" transform="translate(0 68)">
      <g id="price" transform="translate(-66 -1808.758)">
        <path id="パス_30974" data-name="パス 30974" d="M1.712-12.464V1.072H3.12v-6.48H12.9V-.592c0,.624-.272.9-.9.9H9.936V.976h2.816C13.84.976,14.3.512,14.3-.56v-11.9Zm1.408.64H7.232v5.776H3.12Zm5.5,0H12.9v5.776H8.624Zm11.968-.384A13.964,13.964,0,0,0,18.3-4.656,13.964,13.964,0,0,0,20.592,2.9h.88A18.174,18.174,0,0,1,20.336.288a15.687,15.687,0,0,1-.784-4.944A15.687,15.687,0,0,1,20.336-9.6a18.174,18.174,0,0,1,1.136-2.608ZM26.48,1.184h1.184V-6.24a18.354,18.354,0,0,1,1.2,2.768l1.072-.944a9.992,9.992,0,0,0-2.272-2.336v-1.76h1.328l.624.128v-.9l-.624.128H27.664v-2.832c.416-.1.48-.112,1.088-.288a2.054,2.054,0,0,0,.4.064c.208,0,.352-.1.352-.24,0-.1-.032-.144-.16-.256l-.832-.736A19.12,19.12,0,0,1,24.1-11.984l.048.432a19.151,19.151,0,0,0,2.336-.208v2.608H24.736L24.1-9.28v.9l.64-.128H26.32A27.57,27.57,0,0,1,24-1.92l.32.272A13.553,13.553,0,0,0,26.48-5.44Zm3.744-11.1V-4.8h1.664v.048c-.128,3.072-1.072,4.7-3.28,5.6l.208.432C31.744.608,33.1-1.28,33.168-4.8h1.248V-.144c.048.592.512.928,1.28.928h1.648c.8,0,1.136-.3,1.2-1.12l.176-1.952-.672-.08L37.936-.9c-.048.384-.176.5-.528.512H36.144c-.368-.016-.448-.1-.464-.432V-4.8h2.1V-9.92H35.328a10.962,10.962,0,0,0,1.7-2.544c.32-.032.5-.144.5-.3a.32.32,0,0,0-.256-.288l-1.472-.384a27.139,27.139,0,0,1-1.056,3.52Zm1.264,4.48V-9.28H36.5v3.84ZM30.5-13.072a12.163,12.163,0,0,1,1.424,2.928l1.312-.7a7.157,7.157,0,0,0-2.336-2.5ZM44.384-1.024C45.312.208,46.224.624,48.32.736c.832.048,2.848.1,4.416.1.672,0,1.6-.016,2.864-.032a10.287,10.287,0,0,1,.384-1.264c-1.04.064-3.68.128-5.664.128-2.592,0-3.744-.1-4.4-.368a2.828,2.828,0,0,1-1.088-.736V-7.36H42.016l-.64-.128v.9l.64-.128h1.536v5.344a17.514,17.514,0,0,1-2.272.864L41.792.88a.276.276,0,0,0,.224.176c.16,0,.288-.176.368-.528a15.949,15.949,0,0,0,1.952-1.52Zm3.744-11.808-.64-.128v.928l.64-.128h2.608c.016.432.016.624.032.832-.816,4.24-2.528,7.312-5.152,9.28l.208.384a10.414,10.414,0,0,0,5.344-6.544A10.4,10.4,0,0,0,55.12-1.824c.4-.688.464-.784.864-1.424A9.293,9.293,0,0,1,52.3-7.664a13.65,13.65,0,0,1-.832-5.168Zm-2.7,1.1a7.344,7.344,0,0,0-3.2-1.184l-.192.4a11.207,11.207,0,0,1,2.512,2.224Zm13.1-.48A18.982,18.982,0,0,1,59.664-9.6a15.761,15.761,0,0,1,.784,4.944A15.687,15.687,0,0,1,59.664.288,18.174,18.174,0,0,1,58.528,2.9h.88A14,14,0,0,0,61.7-4.656a14,14,0,0,0-2.288-7.552Z" transform="translate(534.439 2282)" fill="#111"/>
        <path id="パス_30973" data-name="パス 30973" d="M12.76-14q5.6,1.8,5.6,6.64a6.873,6.873,0,0,1-1.3,4.2A8.31,8.31,0,0,1,13.7-.48,10.432,10.432,0,0,1,9.4.44,8.651,8.651,0,0,1,4.78-.8,9.134,9.134,0,0,1,1.6-4.04l1.28-.8A6.424,6.424,0,0,0,5.6-2.16a7.569,7.569,0,0,0,3.48.88,6.21,6.21,0,0,0,2.78-.64,5.153,5.153,0,0,0,2.12-1.96,5.948,5.948,0,0,0,.82-3.2,5.677,5.677,0,0,0-1.62-4.26,5.531,5.531,0,0,0-4.02-1.58h-1v-1.24a6.779,6.779,0,0,0,2.76-.6,5.214,5.214,0,0,0,2.24-1.9,5.689,5.689,0,0,0,.88-3.26,5.944,5.944,0,0,0-1.12-3.66,3.8,3.8,0,0,0-3.24-1.5,3.816,3.816,0,0,0-3.42,1.74A8.775,8.775,0,0,0,4.96-19H2.8v-4.8a7.915,7.915,0,0,1,2.96-1.92,10.661,10.661,0,0,1,3.92-.72,9.685,9.685,0,0,1,3.88.76,6.735,6.735,0,0,1,2.82,2.2,5.578,5.578,0,0,1,1.06,3.4Q17.44-16.04,12.76-14Zm12.4,9.92a2.315,2.315,0,0,1,1.78.82,3.312,3.312,0,0,1,.74,2.3,6.014,6.014,0,0,1-1.12,3.6,7.8,7.8,0,0,1-3.04,2.48l-.6-.96a5.832,5.832,0,0,0,1.82-1.5A3.117,3.117,0,0,0,25.6.68a1.213,1.213,0,0,0-.04-.36,2.485,2.485,0,0,1-.48.04,2.11,2.11,0,0,1-1.62-.62,2.221,2.221,0,0,1-.58-1.58,2.137,2.137,0,0,1,.66-1.6A2.238,2.238,0,0,1,25.16-4.08ZM39.92-26.44a7.818,7.818,0,0,1,4.76,1.5,9.572,9.572,0,0,1,3.16,4.34,18.282,18.282,0,0,1,1.12,6.72,19.982,19.982,0,0,1-1.32,7.54A11.954,11.954,0,0,1,44.1-1.32,7.6,7.6,0,0,1,39.28.44,7.909,7.909,0,0,1,35.06-.78a8.664,8.664,0,0,1-3.1-3.26l1.28-.84A7.752,7.752,0,0,0,35.8-2.12a5.921,5.921,0,0,0,3.24,1,5.036,5.036,0,0,0,4.62-3.12,19.467,19.467,0,0,0,1.78-8.32,8.084,8.084,0,0,1-2.5,2.16,7.172,7.172,0,0,1-3.62.88,8.236,8.236,0,0,1-3.9-.96,7.36,7.36,0,0,1-2.92-2.8,8.42,8.42,0,0,1-1.1-4.4,8.972,8.972,0,0,1,1.16-4.62,8.13,8.13,0,0,1,3.1-3.06A8.61,8.61,0,0,1,39.92-26.44ZM40.12-11a4.631,4.631,0,0,0,3.38-1.36,7.145,7.145,0,0,0,1.9-3.24,15.2,15.2,0,0,0-1.82-7.12,4.73,4.73,0,0,0-4.18-2.44,3.739,3.739,0,0,0-3.46,1.84,9.448,9.448,0,0,0-1.1,4.88,8.763,8.763,0,0,0,1.5,5.58A4.659,4.659,0,0,0,40.12-11ZM60.88-26.44a7.818,7.818,0,0,1,4.76,1.5A9.572,9.572,0,0,1,68.8-20.6a18.282,18.282,0,0,1,1.12,6.72A19.982,19.982,0,0,1,68.6-6.34a11.954,11.954,0,0,1-3.54,5.02A7.6,7.6,0,0,1,60.24.44,7.909,7.909,0,0,1,56.02-.78a8.664,8.664,0,0,1-3.1-3.26l1.28-.84a7.752,7.752,0,0,0,2.56,2.76,5.921,5.921,0,0,0,3.24,1,5.036,5.036,0,0,0,4.62-3.12,19.467,19.467,0,0,0,1.78-8.32,8.084,8.084,0,0,1-2.5,2.16,7.172,7.172,0,0,1-3.62.88,8.236,8.236,0,0,1-3.9-.96,7.36,7.36,0,0,1-2.92-2.8,8.42,8.42,0,0,1-1.1-4.4,8.972,8.972,0,0,1,1.16-4.62,8.13,8.13,0,0,1,3.1-3.06A8.61,8.61,0,0,1,60.88-26.44ZM61.08-11a4.631,4.631,0,0,0,3.38-1.36,7.145,7.145,0,0,0,1.9-3.24,15.2,15.2,0,0,0-1.82-7.12,4.73,4.73,0,0,0-4.18-2.44,3.739,3.739,0,0,0-3.46,1.84,9.448,9.448,0,0,0-1.1,4.88,8.763,8.763,0,0,0,1.5,5.58A4.659,4.659,0,0,0,61.08-11ZM81.96.44a7.42,7.42,0,0,1-4.8-1.68,10.737,10.737,0,0,1-3.22-4.74A20.031,20.031,0,0,1,72.8-13a19.864,19.864,0,0,1,1.14-7,10.667,10.667,0,0,1,3.24-4.72A7.5,7.5,0,0,1,82-26.4a7.557,7.557,0,0,1,4.82,1.66,10.524,10.524,0,0,1,3.24,4.7,19.864,19.864,0,0,1,1.14,7,19.719,19.719,0,0,1-1.16,7.02,10.944,10.944,0,0,1-3.26,4.76A7.445,7.445,0,0,1,81.96.44ZM82-.84q2.72,0,4.16-3.12T87.6-13q0-5.88-1.44-9T82-25.12q-2.72,0-4.16,3.12T76.4-13q0,5.92,1.44,9.04T82-.84ZM96.68-4.08a2.315,2.315,0,0,1,1.78.82,3.312,3.312,0,0,1,.74,2.3,6.014,6.014,0,0,1-1.12,3.6,7.8,7.8,0,0,1-3.04,2.48l-.6-.96a5.832,5.832,0,0,0,1.82-1.5A3.117,3.117,0,0,0,97.12.68a1.213,1.213,0,0,0-.04-.36,2.484,2.484,0,0,1-.48.04,2.11,2.11,0,0,1-1.62-.62,2.221,2.221,0,0,1-.58-1.58,2.137,2.137,0,0,1,.66-1.6A2.238,2.238,0,0,1,96.68-4.08ZM111.56.44a7.42,7.42,0,0,1-4.8-1.68,10.737,10.737,0,0,1-3.22-4.74A20.031,20.031,0,0,1,102.4-13a19.864,19.864,0,0,1,1.14-7,10.667,10.667,0,0,1,3.24-4.72,7.5,7.5,0,0,1,4.82-1.68,7.557,7.557,0,0,1,4.82,1.66,10.524,10.524,0,0,1,3.24,4.7,19.864,19.864,0,0,1,1.14,7,19.719,19.719,0,0,1-1.16,7.02,10.944,10.944,0,0,1-3.26,4.76A7.445,7.445,0,0,1,111.56.44Zm.04-1.28q2.72,0,4.16-3.12T117.2-13q0-5.88-1.44-9t-4.16-3.12q-2.72,0-4.16,3.12T106-13q0,5.92,1.44,9.04T111.6-.84ZM132.52.44a7.42,7.42,0,0,1-4.8-1.68,10.737,10.737,0,0,1-3.22-4.74A20.031,20.031,0,0,1,123.36-13a19.864,19.864,0,0,1,1.14-7,10.667,10.667,0,0,1,3.24-4.72,7.5,7.5,0,0,1,4.82-1.68,7.557,7.557,0,0,1,4.82,1.66,10.524,10.524,0,0,1,3.24,4.7,19.864,19.864,0,0,1,1.14,7,19.719,19.719,0,0,1-1.16,7.02,10.944,10.944,0,0,1-3.26,4.76A7.445,7.445,0,0,1,132.52.44Zm.04-1.28q2.72,0,4.16-3.12T138.16-13q0-5.88-1.44-9t-4.16-3.12q-2.72,0-4.16,3.12t-1.44,9q0,5.92,1.44,9.04T132.56-.84ZM153.48.44a7.42,7.42,0,0,1-4.8-1.68,10.737,10.737,0,0,1-3.22-4.74A20.031,20.031,0,0,1,144.32-13a19.864,19.864,0,0,1,1.14-7,10.667,10.667,0,0,1,3.24-4.72,7.5,7.5,0,0,1,4.82-1.68,7.557,7.557,0,0,1,4.82,1.66,10.524,10.524,0,0,1,3.24,4.7,19.864,19.864,0,0,1,1.14,7,19.719,19.719,0,0,1-1.16,7.02,10.944,10.944,0,0,1-3.26,4.76A7.445,7.445,0,0,1,153.48.44Zm.04-1.28q2.72,0,4.16-3.12T159.12-13q0-5.88-1.44-9t-4.16-3.12q-2.72,0-4.16,3.12t-1.44,9q0,5.92,1.44,9.04T153.52-.84Zm23.6-8.24a29.263,29.263,0,0,1-4.36-.8,29.263,29.263,0,0,0-4.36-.8,1.857,1.857,0,0,0-1.24.44,1.6,1.6,0,0,0-.6,1h-1a5.676,5.676,0,0,1,1.28-2.58,3.035,3.035,0,0,1,2.36-1.02,11.5,11.5,0,0,1,2.16.34q1.52.34,1.96.42a25.323,25.323,0,0,0,4.44.84,1.88,1.88,0,0,0,1.22-.44,1.576,1.576,0,0,0,.62-1h.96a5.7,5.7,0,0,1-1.16,2.6A2.822,2.822,0,0,1,177.12-9.08Zm11.043-15,2.147,2.52-1.1.817-1.727-2.87-1.727,2.87-1.1-.817,2.17-2.5-3.22-.747.42-1.307,3.056,1.283-.28-3.29h1.377l-.3,3.29,3.056-1.283.443,1.307Zm-.677-.187-.023.023h.023l.023-.023Zm16.169,9.449V-13h-9.169v-.817q2.963-3.22,4.328-4.865a14.788,14.788,0,0,0,1.96-2.882,5.9,5.9,0,0,0,.595-2.59,3.836,3.836,0,0,0-.758-2.578,2.461,2.461,0,0,0-1.948-.875,2.3,2.3,0,0,0-2.03,1.027,4.933,4.933,0,0,0-.793,2.52h-1.26v-2.8a4.363,4.363,0,0,1,1.75-1.12,6.656,6.656,0,0,1,2.357-.42,6.184,6.184,0,0,1,2.252.42,4.034,4.034,0,0,1,1.8,1.365,3.9,3.9,0,0,1,.712,2.415,4.314,4.314,0,0,1-.56,2.112,13.431,13.431,0,0,1-1.855,2.427q-1.295,1.412-4.678,4.841Z" transform="translate(328.496 2284)" fill="#111"/>
        <path id="パス_30972" data-name="パス 30972" d="M14.48-13.44a9.255,9.255,0,0,0-3.488,7.36A9.255,9.255,0,0,0,14.48,1.28h.88a9.477,9.477,0,0,1-3.2-7.344A10.116,10.116,0,0,1,13.808-11.7,7.2,7.2,0,0,1,15.36-13.44Zm6.7,5.024A30.115,30.115,0,0,1,25.76-6.192,12.713,12.713,0,0,1,18.768.128l.176.464a11.736,11.736,0,0,0,8.032-6,18.858,18.858,0,0,1,3.3,2.832l1.072-1.28a16.582,16.582,0,0,0-3.744-2.8,26.925,26.925,0,0,0,1.6-5.04c.288-.1.4-.192.4-.352,0-.128-.1-.224-.272-.272l-1.664-.432-.064.9a21.894,21.894,0,0,1-1.328,4.544,21.111,21.111,0,0,0-4.9-1.568Zm28.16,1.952-13.36-.5v1.68l13.36-.48Zm15.264-2.56A56.3,56.3,0,0,1,64-2.9a7.334,7.334,0,0,1-.48,2.288,1,1,0,0,1-1.008.448h-1.84V.576h2.752c1.248.016,1.6-.4,1.92-2.176a61.922,61.922,0,0,0,.832-8.16H60.112c.048-.736.08-1.312.08-2.016v-.416c.224-.128.32-.24.32-.384a.278.278,0,0,0-.3-.272l-1.68-.112.112.96v.24c0,.448-.032,1.2-.1,2H54.32l-.64-.128V-8.9l.64-.128h4.144c-.416,4.3-2.08,7.152-5.344,9.2l.192.384a9.6,9.6,0,0,0,4.816-3.728,12.83,12.83,0,0,0,1.9-5.856Zm19.3,2.56-13.36-.5v1.68L83.9-5.76ZM89.792.1H91.12V-4.688h3.12V1.28h1.328V-4.688h3.5v3.3c-.016.528-.192.7-.72.72H97.136V0h1.92c.96,0,1.376-.384,1.36-1.248v-4.08H95.568v-1.2c.208-.16.256-.208.256-.32,0-.144-.112-.208-.336-.208H94.24v1.728h-3.5a14.567,14.567,0,0,0,2.32-2.336h8.064l.64.128v-.9l-.64.128H93.552l.032-.048.528-.736c.336-.048.512-.16.512-.32,0-.112-.08-.176-.224-.208l-1.344-.352A9.2,9.2,0,0,1,92.032-8.3H87.7l-.64-.128v.9l.64-.128h3.84a18.874,18.874,0,0,1-4.5,4.1l.224.416a13.156,13.156,0,0,0,2.528-1.456ZM88.976-12.56c1.76.416,3.216.832,4.576,1.3-1.472.56-4.624,1.52-5.888,1.824l.112.464a32.176,32.176,0,0,0,7.2-1.792c.9.32,2.688,1.088,4.256,1.824l.9-.976a35.43,35.43,0,0,0-3.744-1.424c.768-.336,1.344-.592,2.352-1.072a2.693,2.693,0,0,0,.32.032c.192,0,.4-.128.4-.256,0-.064-.08-.144-.192-.208l-1.12-.592A20.209,20.209,0,0,1,94.9-11.808a29.188,29.188,0,0,0-5.712-1.184ZM116.7-8.112c-.192,1.632-.256,1.776-.9,1.792h-1.184v.672h1.76c.928-.016,1.232-.3,1.408-1.28a51.469,51.469,0,0,0,.528-5.936h-5.936c-.032,4.56-.56,6.032-2.576,7.248l.272.432A4.672,4.672,0,0,0,113.1-8.112Zm.064-.64H113.28c.08-.4.16-.992.208-1.44H116.9l-.016.24-.016.256-.08.9Zm.176-2.08h-3.408l.016-.048.064-1.344h3.424c-.032.56-.032.688-.064,1.072Zm-8.224-.848v-1.136c.208-.144.256-.208.256-.32,0-.144-.112-.208-.336-.208h-1.232v1.664H104.96l-.64-.128v.9l.64-.128h.576v3.2c.032,1.024.448,1.312,1.968,1.312h3.152v-1.12h-2.912c-.8-.016-.96-.128-.976-.624V-11.04h4.1l.64.128v-.9l-.64.128Zm3.536,7.424h5.28l.624.128v-.9l-.624.128H105.824l-.624-.128v.9l.624-.128h5.1v1.792h-4.192l-.64-.128v.9l.64-.128h4.192V.1h-5.872l-.64-.128v.9l.64-.128H118.3l.64.128v-.9L118.3.1h-6.048v-1.92h4.368l.64.128v-.9l-.64.128h-4.368Zm13.7,4.608V1.1h2.272c1.072,0,1.52-.448,1.52-1.52v-12.3c.208-.144.256-.208.256-.3,0-.16-.112-.224-.336-.224h-1.392V-.512c0,.608-.256.864-.864.864Zm5.728-10.416a38.4,38.4,0,0,1,3.056,8.288l1.584-.9a23.525,23.525,0,0,0-4.112-7.7Zm-9.664,8.416c1.792-2.064,2.784-4.08,3.792-7.792.32-.064.48-.192.48-.4,0-.144-.112-.224-.368-.3l-1.472-.4a29.927,29.927,0,0,1-2.832,8.608ZM140.96-6.88v-.176a2.2,2.2,0,0,0-.032-.512h-.544a4.048,4.048,0,0,1-1.5,2.56l.96,1.248a3.313,3.313,0,0,0,1.088-2.432V-6.24h10.864a6.365,6.365,0,0,1-.944,1.776l.5.3A5.747,5.747,0,0,0,153.6-6.88Zm5.9-4.688v-1.264c.208-.144.256-.208.256-.32,0-.144-.112-.208-.336-.208h-1.3v1.792h-5.76l-.64-.128v.9l.64-.128h5.76v1.792H141.12l-.64-.128v.9l.64-.128h10.24l.64.128v-.9l-.64.128h-4.5v-1.792h5.888l.64.128v-.9l-.64.128ZM139.36,1.12A7.45,7.45,0,0,0,142.96-.1c1.152-.816,1.664-2.016,1.68-4v-.4c.192-.144.256-.208.256-.32,0-.144-.112-.208-.352-.208h-1.28v.9a4.23,4.23,0,0,1-1.312,3.456A6.014,6.014,0,0,1,139.232.64Zm8.048-6.144v4.48c.032.976.5,1.28,2.064,1.328h2.24c1.12,0,1.584-.432,1.664-1.552l.08-1.36-.656-.064-.08.992c-.064.544-.272.736-.752.736H149.68c-.672-.016-.928-.16-.928-.5V-4.5c.208-.144.256-.208.256-.32,0-.16-.112-.208-.448-.208Zm16.272-3.9h-2.736V1.1h1.184V.08H168.9V.992h1.232v-9.92h-2.8v-3.12h2.912l.64.128v-.9l-.64.128h-8.992l-.624-.128v.9l.624-.128h2.432Zm1.1-3.12h1.44v3.12h-1.44Zm0,3.76h1.44V-.56h-1.44ZM163.68-.56h-1.552V-8.288h1.552Zm3.648-7.728H168.9V-.56h-1.568Zm-8.064-1.584c.336-.944.48-1.392.848-2.576.256-.048.384-.16.384-.32,0-.128-.112-.224-.272-.272l-1.344-.4a37.923,37.923,0,0,1-2.72,8.688l.336.256a17.341,17.341,0,0,0,1.52-2.464V1.184h1.248ZM178.16-3.7a15.4,15.4,0,0,0,5.184-3.04,15.455,15.455,0,0,0,4.208,2.656,5.3,5.3,0,0,1,.608-1.248,16.558,16.558,0,0,1-4.064-2.16,16.535,16.535,0,0,0,2.96-4.24h-5.2l.016-.048c.176-.336.192-.368.4-.816.3-.112.432-.208.432-.32a.3.3,0,0,0-.16-.224l-1.36-.3a14.882,14.882,0,0,1-1.152,2.928,14.791,14.791,0,0,1-1.52,2.448l.32.3a10.869,10.869,0,0,0,2.288-2.672,7.261,7.261,0,0,0,1.472,2.912A17.56,17.56,0,0,1,178-4.1Zm3.36-7.392h3.84a19.393,19.393,0,0,1-2.128,2.9,6.023,6.023,0,0,1-1.776-2.8ZM175.856,1.184h1.232v-8.5a10.788,10.788,0,0,1,1.136,2.432l.992-.864a5.659,5.659,0,0,0-2.128-2.032V-9.44h1.168l.64.128v-.9l-.64.128h-1.168v-2.736c.192-.144.256-.208.256-.32,0-.144-.112-.208-.336-.208h-1.152v3.264h-1.68l-.64-.128v.9l.64-.128h1.536A26.771,26.771,0,0,1,173.44-2.7l.352.24a15.746,15.746,0,0,0,2.064-3.776Zm10.784-.1V-4.288h-6.7V1.184H181.2V.416h4.16v.672ZM181.2-.224V-3.648h4.16V-.224Zm9.52-13.216a9.527,9.527,0,0,1,3.2,7.376,9.5,9.5,0,0,1-3.2,7.344h.864a9.2,9.2,0,0,0,3.5-7.36,9.2,9.2,0,0,0-3.5-7.36Z" transform="translate(131.008 2282)" fill="#111"/>
      </g>
      <path id="パス_30971" data-name="パス 30971" d="M88.05,1.761c.391-.138.552-.3.552-.506,0-.184-.161-.322-.46-.345L86.187.68A23.777,23.777,0,0,1,82.76,5.418,33.13,33.13,0,0,1,76.826,10.5l.3.6A24.568,24.568,0,0,0,87.544,2.5l.092.138a20.165,20.165,0,0,0,9.338,8.027,12.45,12.45,0,0,1,1.012-2.093A21.69,21.69,0,0,1,91.5,5.1,20.657,20.657,0,0,1,88,1.83Zm.253,8.717h4.968l.92.184V9.374l-.92.184H81.541l-.92-.184v1.288l.92-.184h4.784V14.5H81.288l-.9-.184v1.288l.9-.184h5.037v4.646H78.873l-.92-.184v1.288l.92-.184H96.192l.92.184V19.885l-.92.184H88.3V15.423h5.221l.9.184V14.319l-.9.184H88.3Zm31.763,2.3.92.184V11.674l-.92.184h-14.72V9.305h11.8l.92.184V8.2l-.92.184h-11.8V5.97h11.8l.92.184V4.866l-.92.184h-11.8V2.681h12.7l.92.184V1.577l-.92.184H103.414v10.1h-2.668l-.92-.184v1.288l.92-.184h2.668v6.348c-1.081.138-1.7.207-3.473.345l.782,1.886c.161.368.253.483.437.483.253,0,.368-.138.506-.552a61.677,61.677,0,0,0,11.178-2.967l.115-.023a14.08,14.08,0,0,0,6.923,3.542,11.145,11.145,0,0,1,1.1-2.07,16.383,16.383,0,0,1-6.739-2.507,29.448,29.448,0,0,0,4.37-2.047l.46.023c.322,0,.575-.184.575-.414,0-.092-.092-.23-.276-.345l-1.725-1.15a26.925,26.925,0,0,1-4.071,3.427,9.8,9.8,0,0,1-3.013-3.979Zm-10.488,0a12.275,12.275,0,0,0,2.783,4.9l-.207.046c-1.633.368-3.312.644-6.808,1.15V12.778Zm19.665-.828q3.22,1.035,3.22,3.818a3.952,3.952,0,0,1-.748,2.415,4.778,4.778,0,0,1-1.932,1.541,6,6,0,0,1-2.473.529,4.974,4.974,0,0,1-2.657-.713,5.252,5.252,0,0,1-1.828-1.863l.736-.46a3.694,3.694,0,0,0,1.564,1.541,4.352,4.352,0,0,0,2,.506,3.571,3.571,0,0,0,1.6-.368,2.963,2.963,0,0,0,1.219-1.127,3.42,3.42,0,0,0,.471-1.84,3.264,3.264,0,0,0-.931-2.45,3.18,3.18,0,0,0-2.312-.909H126.6v-.713a3.9,3.9,0,0,0,1.587-.345,3,3,0,0,0,1.288-1.093,3.271,3.271,0,0,0,.506-1.874,3.418,3.418,0,0,0-.644-2.1,2.438,2.438,0,0,0-3.829.138,5.045,5.045,0,0,0-.748,2.5h-1.242V6.315a4.551,4.551,0,0,1,1.7-1.1,6.13,6.13,0,0,1,2.254-.414,5.569,5.569,0,0,1,2.231.437A3.873,3.873,0,0,1,131.325,6.5a3.207,3.207,0,0,1,.609,1.955Q131.934,10.777,129.243,11.95Zm7.13,5.7a1.331,1.331,0,0,1,1.024.472,1.9,1.9,0,0,1,.425,1.323,3.458,3.458,0,0,1-.644,2.07,4.487,4.487,0,0,1-1.748,1.426l-.345-.552a3.354,3.354,0,0,0,1.046-.863,1.793,1.793,0,0,0,.495-1.138.7.7,0,0,0-.023-.207,1.429,1.429,0,0,1-.276.023,1.213,1.213,0,0,1-.932-.357,1.277,1.277,0,0,1-.333-.909,1.229,1.229,0,0,1,.38-.92A1.287,1.287,0,0,1,136.373,17.654Zm10.7-5.612a4.4,4.4,0,0,1,2.174,1.38,3.774,3.774,0,0,1,.839,2.53,3.844,3.844,0,0,1-.736,2.381,4.377,4.377,0,0,1-1.921,1.449,6.685,6.685,0,0,1-2.5.472,6.434,6.434,0,0,1-2.5-.483,4.437,4.437,0,0,1-1.886-1.449,3.836,3.836,0,0,1-.725-2.369,3.774,3.774,0,0,1,.839-2.53,4.4,4.4,0,0,1,2.174-1.38,3.855,3.855,0,0,1-1.725-1.219,3.4,3.4,0,0,1-.759-2.277A3.282,3.282,0,0,1,141,6.488a3.963,3.963,0,0,1,1.69-1.265,5.958,5.958,0,0,1,2.266-.426,6.04,6.04,0,0,1,2.242.414,3.923,3.923,0,0,1,1.7,1.265,3.291,3.291,0,0,1,.656,2.07,3.4,3.4,0,0,1-.759,2.277A3.855,3.855,0,0,1,147.068,12.042Zm-2.116-6.486a2.525,2.525,0,0,0-1.943.84,3.187,3.187,0,0,0-.771,2.243,3.187,3.187,0,0,0,.771,2.242,2.683,2.683,0,0,0,3.9,0,3.217,3.217,0,0,0,.759-2.242A3.187,3.187,0,0,0,146.9,6.4,2.525,2.525,0,0,0,144.952,5.556Zm0,13.961a2.925,2.925,0,0,0,2.231-.931,3.667,3.667,0,0,0,.874-2.611,3.8,3.8,0,0,0-.8-2.553,3.276,3.276,0,0,0-4.6,0,3.8,3.8,0,0,0-.8,2.553,3.667,3.667,0,0,0,.874,2.611A2.925,2.925,0,0,0,144.952,19.517ZM162.087,5.1V5.9L155.67,20h-1.081l6.072-13.133h-6.44l-.8,2.231h-.805v-4Zm7.015,5.221a4.817,4.817,0,0,1,2.242.541,4.261,4.261,0,0,1,1.7,1.622,4.874,4.874,0,0,1,.656,2.576,5.139,5.139,0,0,1-.759,2.852,4.9,4.9,0,0,1-1.921,1.76,5.41,5.41,0,0,1-5.094-.1,4.892,4.892,0,0,1-1.863-1.886l.736-.46a3.965,3.965,0,0,0,1.518,1.541,4.2,4.2,0,0,0,2.093.529,2.982,2.982,0,0,0,1.621-.472,3.379,3.379,0,0,0,1.208-1.392,4.834,4.834,0,0,0,.46-2.185,4.618,4.618,0,0,0-.46-2.151,3.1,3.1,0,0,0-1.208-1.311,3.222,3.222,0,0,0-1.621-.425,2.634,2.634,0,0,0-1.38.345,4.3,4.3,0,0,0-1.035.874h-.9l.552-7.475h7.314v1.84h-6.6l-.322,4.462a4.057,4.057,0,0,1,1.322-.782A4.887,4.887,0,0,1,169.1,10.317Zm22.954,8.993V20h-4.393v-.69h1.173V12.686a3.4,3.4,0,0,0-.437-1.921,1.511,1.511,0,0,0-1.334-.632,2.11,2.11,0,0,0-1.645.736,2.7,2.7,0,0,0-.656,1.863V19.31h1.311V20h-4.347v-.69h1.311V12.686a3.4,3.4,0,0,0-.437-1.921,1.511,1.511,0,0,0-1.334-.632,2.135,2.135,0,0,0-1.667.736,2.7,2.7,0,0,0-.656,1.863V19.31h1.219V20H175.7v-.69h1.518V10.294h-1.472V9.627l3.151-.184.046,1.081a3.254,3.254,0,0,1,2.76-1.173,3.394,3.394,0,0,1,1.656.4,2.49,2.49,0,0,1,1.081,1.115,2.92,2.92,0,0,1,1.2-1.127,3.764,3.764,0,0,1,1.748-.391q3.174,0,3.174,3.588V19.31Zm17.365,0V20h-4.393v-.69H206.2V12.686a3.4,3.4,0,0,0-.437-1.921,1.511,1.511,0,0,0-1.334-.632,2.11,2.11,0,0,0-1.645.736,2.7,2.7,0,0,0-.656,1.863V19.31h1.311V20h-4.347v-.69H200.4V12.686a3.4,3.4,0,0,0-.437-1.921,1.511,1.511,0,0,0-1.334-.632,2.135,2.135,0,0,0-1.667.736,2.7,2.7,0,0,0-.656,1.863V19.31h1.219V20h-4.462v-.69h1.518V10.294h-1.472V9.627l3.151-.184.046,1.081a3.254,3.254,0,0,1,2.76-1.173,3.394,3.394,0,0,1,1.656.4,2.49,2.49,0,0,1,1.081,1.115A2.92,2.92,0,0,1,203,9.742a3.764,3.764,0,0,1,1.748-.391q3.174,0,3.174,3.588V19.31Zm8.165.874a13.829,13.829,0,0,0-6.417-4.393l-.437.552a20.529,20.529,0,0,1,4.968,5.5Zm27.37-18.423c.391-.138.552-.3.552-.506,0-.184-.161-.322-.46-.345L243.093.68a23.778,23.778,0,0,1-3.427,4.738,33.13,33.13,0,0,1-5.934,5.083l.3.6A24.568,24.568,0,0,0,244.45,2.5l.092.138a20.165,20.165,0,0,0,9.338,8.027,12.451,12.451,0,0,1,1.012-2.093A21.691,21.691,0,0,1,248.406,5.1a20.657,20.657,0,0,1-3.5-3.266Zm.253,8.717h4.968l.92.184V9.374l-.92.184h-11.73l-.92-.184v1.288l.92-.184h4.784V14.5h-5.037l-.9-.184v1.288l.9-.184h5.037v4.646h-7.452l-.92-.184v1.288l.92-.184H253.1l.92.184V19.885l-.92.184h-7.889V15.423h5.221l.9.184V14.319l-.9.184h-5.221ZM261.907,5H263.4V15.331c0,.437-.138.552-.552.575h-.667v.92h1.173c1.1,0,1.564-.46,1.564-1.518V4.153h-3.013V1.577c.3-.207.368-.3.368-.46,0-.207-.161-.3-.483-.3h-1.4V4.153h-2.9V16.964h1.518V5h1.38V21.7h1.518Zm15.18,6.647H266V21.7h1.679V20.575h7.682v.966h1.725Zm-1.725,4.784v3.22H272.28v-3.22Zm0-.92H272.28V12.571h3.082Zm-4.738-2.944v2.944H267.68V12.571Zm-2.944,7.084v-3.22h2.944v3.22Zm8.487-10.12V4.521h-9.43V9.535Zm-1.771-.92h-5.934V5.441H274.4ZM266.07,2.566h10.9l.92.184V1.462l-.92.184h-10.9l-.92-.184V2.75Zm22.2,16.606V20h-6.44v-.828h2.369V6.913l-2.277,1.472-.483-.736L285.229,5.1h.782V19.172Zm5.014-1.518a1.331,1.331,0,0,1,1.023.472,1.9,1.9,0,0,1,.426,1.323,3.458,3.458,0,0,1-.644,2.07,4.487,4.487,0,0,1-1.748,1.426l-.345-.552a3.354,3.354,0,0,0,1.046-.863,1.792,1.792,0,0,0,.495-1.138.7.7,0,0,0-.023-.207,1.429,1.429,0,0,1-.276.023,1.213,1.213,0,0,1-.931-.357,1.277,1.277,0,0,1-.333-.909,1.229,1.229,0,0,1,.379-.92A1.287,1.287,0,0,1,293.279,17.654ZM305.791,5.1V5.9L299.374,20h-1.081l6.072-13.133h-6.44L297.12,9.1h-.8v-4Zm11.04,11.523H314.3V20h-1.817V16.619h-6.44v-.9L311.932,5.1H314.3v9.959h2.53Zm-4.347-1.564V6.338h-.3l-4.692,8.717Zm10.994-4.738a4.817,4.817,0,0,1,2.243.541,4.261,4.261,0,0,1,1.7,1.622,4.874,4.874,0,0,1,.655,2.576,5.139,5.139,0,0,1-.759,2.852,4.9,4.9,0,0,1-1.921,1.76,5.41,5.41,0,0,1-5.094-.1,4.892,4.892,0,0,1-1.863-1.886l.736-.46a3.966,3.966,0,0,0,1.518,1.541,4.2,4.2,0,0,0,2.093.529,2.982,2.982,0,0,0,1.622-.472,3.379,3.379,0,0,0,1.207-1.392,4.834,4.834,0,0,0,.46-2.185,4.618,4.618,0,0,0-.46-2.151,3.1,3.1,0,0,0-1.207-1.311,3.223,3.223,0,0,0-1.622-.425,2.634,2.634,0,0,0-1.38.345,4.3,4.3,0,0,0-1.035.874h-.9l.552-7.475h7.314v1.84h-6.6l-.322,4.462a4.057,4.057,0,0,1,1.323-.782A4.887,4.887,0,0,1,323.478,10.317Zm22.954,8.993V20h-4.393v-.69h1.173V12.686a3.4,3.4,0,0,0-.437-1.921,1.511,1.511,0,0,0-1.334-.632,2.11,2.11,0,0,0-1.645.736,2.7,2.7,0,0,0-.655,1.863V19.31h1.311V20h-4.347v-.69h1.311V12.686a3.4,3.4,0,0,0-.437-1.921,1.511,1.511,0,0,0-1.334-.632,2.135,2.135,0,0,0-1.668.736,2.7,2.7,0,0,0-.655,1.863V19.31h1.219V20h-4.462v-.69H331.6V10.294h-1.472V9.627l3.151-.184.046,1.081a3.254,3.254,0,0,1,2.76-1.173,3.394,3.394,0,0,1,1.656.4,2.49,2.49,0,0,1,1.081,1.115,2.92,2.92,0,0,1,1.2-1.127,3.764,3.764,0,0,1,1.748-.391q3.174,0,3.174,3.588V19.31Zm17.365,0V20H359.4v-.69h1.173V12.686a3.4,3.4,0,0,0-.437-1.921,1.511,1.511,0,0,0-1.334-.632,2.11,2.11,0,0,0-1.645.736,2.7,2.7,0,0,0-.655,1.863V19.31h1.311V20H353.47v-.69h1.311V12.686a3.4,3.4,0,0,0-.437-1.921,1.511,1.511,0,0,0-1.334-.632,2.135,2.135,0,0,0-1.668.736,2.7,2.7,0,0,0-.655,1.863V19.31h1.219V20h-4.462v-.69h1.518V10.294H347.49V9.627l3.151-.184.046,1.081a3.254,3.254,0,0,1,2.76-1.173,3.394,3.394,0,0,1,1.656.4,2.49,2.49,0,0,1,1.081,1.115,2.92,2.92,0,0,1,1.2-1.127,3.764,3.764,0,0,1,1.748-.391q3.174,0,3.174,3.588V19.31Zm8.165.874a13.829,13.829,0,0,0-6.417-4.393l-.437.552a20.529,20.529,0,0,1,4.968,5.5Zm27.37-18.423c.391-.138.552-.3.552-.506,0-.184-.161-.322-.46-.345L397.469.68a23.778,23.778,0,0,1-3.427,4.738,33.131,33.131,0,0,1-5.934,5.083l.3.6a24.568,24.568,0,0,0,10.419-8.6l.092.138a20.165,20.165,0,0,0,9.338,8.027,12.452,12.452,0,0,1,1.012-2.093A21.691,21.691,0,0,1,402.782,5.1a20.658,20.658,0,0,1-3.5-3.266Zm.253,8.717h4.968l.92.184V9.374l-.92.184h-11.73l-.92-.184v1.288l.92-.184h4.784V14.5H392.57l-.9-.184v1.288l.9-.184h5.037v4.646h-7.452l-.92-.184v1.288l.92-.184h17.319l.92.184V19.885l-.92.184h-7.889V15.423h5.221l.9.184V14.319l-.9.184h-5.221Zm20.953-7.383h-8.372l-.92-.184V4.2l.92-.184h19.021l.92.184V2.911l-.92.184h-8.556V1.462c.3-.23.368-.322.368-.46,0-.23-.161-.322-.483-.322h-1.978Zm10.6,8.694H412.212V21.7h1.909V12.709h15.111v6.946c-.023.713-.253.943-.966.966h-1.955v.966h2.829c1.4,0,2.024-.575,2-1.909Zm-14.674,2.622V20h1.817V18.942H426.5V14.411Zm1.817,3.611V15.331H424.7v2.691Zm10.1-7.981V5.694H414.972v4.347Zm-11.5-.92V6.614h9.591V9.121Zm25.76,10.051V20H436.2v-.828h2.369V6.913l-2.277,1.472-.483-.736L439.605,5.1h.782V19.172Zm5.014-1.518a1.331,1.331,0,0,1,1.023.472,1.9,1.9,0,0,1,.426,1.323,3.458,3.458,0,0,1-.644,2.07,4.487,4.487,0,0,1-1.748,1.426l-.345-.552a3.354,3.354,0,0,0,1.046-.863,1.792,1.792,0,0,0,.495-1.138.7.7,0,0,0-.023-.207,1.429,1.429,0,0,1-.276.023,1.213,1.213,0,0,1-.931-.357,1.277,1.277,0,0,1-.333-.909,1.229,1.229,0,0,1,.379-.92A1.287,1.287,0,0,1,447.655,17.654Zm14.03-1.035h-2.53V20h-1.817V16.619H450.9v-.9L456.786,5.1h2.369v9.959h2.53Zm-4.347-1.564V6.338h-.3l-4.692,8.717Zm10.994-4.738a4.817,4.817,0,0,1,2.243.541,4.261,4.261,0,0,1,1.7,1.622,4.874,4.874,0,0,1,.655,2.576,5.139,5.139,0,0,1-.759,2.852,4.9,4.9,0,0,1-1.921,1.76,5.41,5.41,0,0,1-5.094-.1,4.892,4.892,0,0,1-1.863-1.886l.736-.46a3.966,3.966,0,0,0,1.518,1.541,4.2,4.2,0,0,0,2.093.529,2.982,2.982,0,0,0,1.622-.472,3.379,3.379,0,0,0,1.207-1.392,4.834,4.834,0,0,0,.46-2.185,4.618,4.618,0,0,0-.46-2.151,3.1,3.1,0,0,0-1.207-1.311,3.223,3.223,0,0,0-1.622-.425,2.634,2.634,0,0,0-1.38.345,4.3,4.3,0,0,0-1.035.874h-.9l.552-7.475H472.2v1.84h-6.6l-.322,4.462a4.057,4.057,0,0,1,1.323-.782A4.887,4.887,0,0,1,468.332,10.317Zm12.052,0a4.817,4.817,0,0,1,2.243.541,4.261,4.261,0,0,1,1.7,1.622,4.874,4.874,0,0,1,.655,2.576,5.139,5.139,0,0,1-.759,2.852,4.9,4.9,0,0,1-1.921,1.76,5.41,5.41,0,0,1-5.094-.1,4.892,4.892,0,0,1-1.863-1.886l.736-.46a3.966,3.966,0,0,0,1.518,1.541,4.2,4.2,0,0,0,2.093.529,2.982,2.982,0,0,0,1.622-.472,3.379,3.379,0,0,0,1.207-1.392,4.834,4.834,0,0,0,.46-2.185,4.618,4.618,0,0,0-.46-2.151,3.1,3.1,0,0,0-1.207-1.311,3.223,3.223,0,0,0-1.622-.425,2.634,2.634,0,0,0-1.38.345,4.3,4.3,0,0,0-1.035.874h-.9l.552-7.475h7.314v1.84h-6.6l-.322,4.462a4.057,4.057,0,0,1,1.323-.782A4.887,4.887,0,0,1,480.384,10.317Zm22.954,8.993V20h-4.393v-.69h1.173V12.686a3.4,3.4,0,0,0-.437-1.921,1.511,1.511,0,0,0-1.334-.632,2.11,2.11,0,0,0-1.645.736,2.7,2.7,0,0,0-.655,1.863V19.31h1.311V20h-4.347v-.69h1.311V12.686a3.4,3.4,0,0,0-.437-1.921,1.511,1.511,0,0,0-1.334-.632,2.135,2.135,0,0,0-1.668.736,2.7,2.7,0,0,0-.655,1.863V19.31h1.219V20h-4.462v-.69H488.5V10.294h-1.472V9.627l3.151-.184.046,1.081a3.254,3.254,0,0,1,2.76-1.173,3.394,3.394,0,0,1,1.656.4,2.49,2.49,0,0,1,1.081,1.115,2.92,2.92,0,0,1,1.2-1.127,3.764,3.764,0,0,1,1.748-.391q3.174,0,3.174,3.588V19.31Zm17.365,0V20H516.31v-.69h1.173V12.686a3.4,3.4,0,0,0-.437-1.921,1.511,1.511,0,0,0-1.334-.632,2.11,2.11,0,0,0-1.644.736,2.7,2.7,0,0,0-.656,1.863V19.31h1.311V20h-4.347v-.69h1.311V12.686a3.4,3.4,0,0,0-.437-1.921,1.511,1.511,0,0,0-1.334-.632,2.135,2.135,0,0,0-1.668.736,2.7,2.7,0,0,0-.655,1.863V19.31h1.219V20H504.35v-.69h1.518V10.294H504.4V9.627l3.151-.184.046,1.081a3.254,3.254,0,0,1,2.76-1.173,3.394,3.394,0,0,1,1.656.4,2.49,2.49,0,0,1,1.081,1.115,2.92,2.92,0,0,1,1.2-1.127,3.764,3.764,0,0,1,1.748-.391q3.174,0,3.174,3.588V19.31Zm8.165.874a13.829,13.829,0,0,0-6.417-4.393l-.437.552a20.529,20.529,0,0,1,4.968,5.5Zm-425.04,21.66h7.222l1.012.207V40.579l-1.012.207h-7.222V37.52c.322-.23.46-.391.46-.6a.414.414,0,0,0-.437-.391l-2.323-.161.207,1.38v3.036h-7.36l-1.012-.207v1.472l1.012-.207h7.36v11.8c0,.782-.345,1.127-1.15,1.127H98.239v1.058H102.1c1.2.023,1.725-.552,1.725-1.863Zm2.277,2.737a28.6,28.6,0,0,1,4.6,8.6l2.208-1.15a16.567,16.567,0,0,0-6.348-7.843ZM92.673,53.275A15.851,15.851,0,0,0,98.745,45.8c.414-.161.575-.322.575-.552a.485.485,0,0,0-.345-.437l-2.162-.782-.276,1.265a21.284,21.284,0,0,1-4.278,7.475Zm35.489-10.6a59.134,59.134,0,0,0,4.9-4.324c.621-.069.874-.23.874-.552a.713.713,0,0,0-.368-.529L131.8,36.094l-.828,1.242A44.745,44.745,0,0,1,115.88,47.8l.253.69a30.335,30.335,0,0,0,9.89-4.278V56.219h2.139Zm30.222,3.036-19.205-.713V47.41l19.205-.69Zm13.892,10.028a11.4,11.4,0,0,0,6.831-4.163,16.1,16.1,0,0,0,3.335-7.567l-.713-.23c-1.518,4.324-4.393,7.843-7.406,9.062V37.98c.345-.23.46-.391.46-.6a.43.43,0,0,0-.437-.391l-2.277-.161.207,1.38Zm-10.879.069a12.618,12.618,0,0,0,5.152-5.474c.943-2.047,1.357-4.738,1.357-8.97v-2.6c.345-.23.46-.391.46-.6a.414.414,0,0,0-.437-.391l-2.346-.161.207,1.38v2.576c0,6.992-1.1,10.143-4.807,13.639Zm42.872-17.434a4.568,4.568,0,0,0-2.645-2.438l-.414.322a8.59,8.59,0,0,1,1.518,2.9Zm-5.7-1.587a9.425,9.425,0,0,1,1.265,3.059l1.61-.736a4.757,4.757,0,0,0-2.461-2.622Zm6.624,15.985c-3.312-3.335-8.809-9.5-11.431-12.857-.943-1.219-1.288-1.541-1.7-1.541-.46,0-.828.345-2.461,2.369-2.484,3.013-3.174,3.841-4.393,5.106l-1.15.966,1.288,1.748a.566.566,0,0,0,.46.3c.276,0,.414-.207.437-.621,1.242-1.725,1.978-2.783,4.554-6.555.92-1.4,1.081-1.61,1.242-1.61.092,0,.207.115.483.552a160.75,160.75,0,0,0,11.04,14.1Zm22.2-7.061-19.205-.713V47.41l19.205-.69Zm15.249,1.633a28.962,28.962,0,0,0,4.738-9.315H233.755l-1.012-.207v1.472l1.012-.207h10.879a26.5,26.5,0,0,1-13.892,15.5l.322.713a23.122,23.122,0,0,0,11.086-7.337,39.26,39.26,0,0,1,6.578,7.5l2.047-1.656a28.1,28.1,0,0,0-7.843-6.3Zm20.148,5.865V55h-9.039v-.805q2.921-3.174,4.267-4.8a14.577,14.577,0,0,0,1.932-2.84,5.818,5.818,0,0,0,.587-2.553,3.781,3.781,0,0,0-.747-2.542,2.426,2.426,0,0,0-1.921-.862,2.272,2.272,0,0,0-2,1.012,4.863,4.863,0,0,0-.782,2.484h-1.242v-2.76a4.3,4.3,0,0,1,1.725-1.1,6.561,6.561,0,0,1,2.323-.414,6.1,6.1,0,0,1,2.219.414,3.976,3.976,0,0,1,1.771,1.345,3.849,3.849,0,0,1,.7,2.381,4.252,4.252,0,0,1-.552,2.082,13.241,13.241,0,0,1-1.828,2.392q-1.277,1.391-4.612,4.772Zm3.818-.552a1.331,1.331,0,0,1,1.023.472,1.9,1.9,0,0,1,.426,1.323,3.458,3.458,0,0,1-.644,2.07,4.487,4.487,0,0,1-1.748,1.426l-.345-.552a3.354,3.354,0,0,0,1.046-.862,1.792,1.792,0,0,0,.495-1.139.7.7,0,0,0-.023-.207,1.428,1.428,0,0,1-.276.023,1.213,1.213,0,0,1-.931-.357,1.277,1.277,0,0,1-.333-.908,1.229,1.229,0,0,1,.379-.92A1.287,1.287,0,0,1,266.6,52.654Zm14.03-1.035H278.1V55h-1.817V51.619h-6.44v-.9L275.73,40.1H278.1v9.959h2.53Zm-4.347-1.564V41.338h-.3l-4.692,8.717ZM287.138,39.8a4.5,4.5,0,0,1,2.737.862,5.5,5.5,0,0,1,1.817,2.5,10.512,10.512,0,0,1,.644,3.864,11.489,11.489,0,0,1-.759,4.335,6.873,6.873,0,0,1-2.035,2.887,4.37,4.37,0,0,1-2.771,1.012,4.548,4.548,0,0,1-2.427-.7,4.982,4.982,0,0,1-1.783-1.875l.736-.483a4.458,4.458,0,0,0,1.472,1.587,3.4,3.4,0,0,0,1.863.575,2.9,2.9,0,0,0,2.656-1.794,11.194,11.194,0,0,0,1.023-4.784,4.648,4.648,0,0,1-1.437,1.242,4.124,4.124,0,0,1-2.082.506,4.736,4.736,0,0,1-2.242-.552,4.232,4.232,0,0,1-1.679-1.61,4.841,4.841,0,0,1-.633-2.53,5.159,5.159,0,0,1,.667-2.657,4.675,4.675,0,0,1,1.783-1.759A4.951,4.951,0,0,1,287.138,39.8Zm.115,8.878a2.663,2.663,0,0,0,1.943-.782,4.108,4.108,0,0,0,1.092-1.863,8.737,8.737,0,0,0-1.046-4.094,2.72,2.72,0,0,0-2.4-1.4,2.15,2.15,0,0,0-1.99,1.058,5.433,5.433,0,0,0-.633,2.806,5.039,5.039,0,0,0,.862,3.208A2.679,2.679,0,0,0,287.253,48.675Zm12.075-3.358a4.817,4.817,0,0,1,2.243.54,4.261,4.261,0,0,1,1.7,1.622,4.874,4.874,0,0,1,.655,2.576,5.139,5.139,0,0,1-.759,2.852,4.9,4.9,0,0,1-1.921,1.759,5.41,5.41,0,0,1-5.094-.1,4.892,4.892,0,0,1-1.863-1.886l.736-.46a3.966,3.966,0,0,0,1.518,1.541,4.2,4.2,0,0,0,2.093.529,2.982,2.982,0,0,0,1.622-.472,3.379,3.379,0,0,0,1.207-1.391,4.834,4.834,0,0,0,.46-2.185,4.618,4.618,0,0,0-.46-2.15,3.1,3.1,0,0,0-1.207-1.311,3.223,3.223,0,0,0-1.622-.425,2.634,2.634,0,0,0-1.38.345,4.3,4.3,0,0,0-1.035.874h-.9l.552-7.475h7.314v1.84h-6.6l-.322,4.462a4.057,4.057,0,0,1,1.323-.782A4.887,4.887,0,0,1,299.328,45.317Zm22.954,8.993V55h-4.393v-.69h1.173V47.686a3.4,3.4,0,0,0-.437-1.921,1.511,1.511,0,0,0-1.334-.632,2.11,2.11,0,0,0-1.645.736,2.7,2.7,0,0,0-.655,1.863V54.31H316.3V55h-4.347v-.69h1.311V47.686a3.4,3.4,0,0,0-.437-1.921,1.511,1.511,0,0,0-1.334-.632,2.135,2.135,0,0,0-1.668.736,2.7,2.7,0,0,0-.655,1.863V54.31h1.219V55h-4.462v-.69h1.518V45.294h-1.472v-.667l3.151-.184.046,1.081a3.254,3.254,0,0,1,2.76-1.173,3.394,3.394,0,0,1,1.656.4,2.49,2.49,0,0,1,1.081,1.115,2.92,2.92,0,0,1,1.2-1.127,3.764,3.764,0,0,1,1.748-.391q3.174,0,3.174,3.588V54.31Zm17.365,0V55h-4.393v-.69h1.173V47.686a3.4,3.4,0,0,0-.437-1.921,1.511,1.511,0,0,0-1.334-.632,2.11,2.11,0,0,0-1.645.736,2.7,2.7,0,0,0-.655,1.863V54.31h1.311V55H329.32v-.69h1.311V47.686a3.4,3.4,0,0,0-.437-1.921,1.511,1.511,0,0,0-1.334-.632,2.135,2.135,0,0,0-1.668.736,2.7,2.7,0,0,0-.655,1.863V54.31h1.219V55h-4.462v-.69h1.518V45.294H323.34v-.667l3.151-.184.046,1.081a3.254,3.254,0,0,1,2.76-1.173,3.394,3.394,0,0,1,1.656.4,2.49,2.49,0,0,1,1.081,1.115,2.92,2.92,0,0,1,1.2-1.127,3.764,3.764,0,0,1,1.748-.391q3.174,0,3.174,3.588V54.31Zm8.165.874a13.829,13.829,0,0,0-6.417-4.393l-.437.552a20.529,20.529,0,0,1,4.968,5.5Zm21-8.648V41.384h1.2l.92.184V40.28l-.92.184h-1.2V36.577c.3-.207.368-.3.368-.46,0-.207-.161-.3-.483-.3h-1.7v4.646h-1.978l-.92-.184v1.288l.92-.184h1.978v5.75c-.92.3-1.725.506-3.036.828l.46,1.679c.069.184.23.345.368.345.207,0,.345-.161.506-.6.8-.345,1.173-.506,1.7-.736v6.256c-.023.529-.184.713-.713.713h-1.7v.966h2.53c1.2,0,1.725-.483,1.7-1.61V47.732a26.515,26.515,0,0,0,2.323-1.357l-.207-.6c-.529.184-1.1.414-1.173.437l-.874.3Zm1.495,10.3c2.9-.92,4.577-2.162,5.451-4.025.782-1.7.943-3.864.943-12.466V36.738c.3-.207.368-.3.368-.46,0-.207-.138-.3-.483-.3h-1.7v3.588h-2.6l-.92-.184v1.288l.92-.184h2.6l-.046,4.117H372.4l-.92-.184v1.288l.92-.184h2.438c0,1.84-.023,2.231-.092,3.588a40.511,40.511,0,0,1-4.554,1.058l.552,1.679c.069.207.253.391.414.391s.3-.184.391-.552a24.448,24.448,0,0,0,3.128-1.679c-.345,3.128-1.679,4.9-4.669,6.187Zm10.465-17.273V36.738c.3-.207.368-.3.368-.46,0-.207-.161-.3-.483-.3h-1.7V56.7h1.817V51.251H384.2l.92.184V50.147l-.92.184h-3.427V45.616h2.645l.9.184V44.512l-.9.184h-2.645V40.487h3.151l.92.184V39.383l-.92.184ZM394.5,50.86a30.9,30.9,0,0,1-7.084,4.991l.3.575a25.168,25.168,0,0,0,8.188-4.623,35.551,35.551,0,0,1,4.554,3.68l1.311-1.863a46.684,46.684,0,0,0-4.508-3.059c.9-.874,1.38-1.4,2.6-2.806h.115c.368,0,.736-.23.736-.46,0-.115-.138-.253-.3-.345l-1.748-.851a20.9,20.9,0,0,1-2.944,3.588,36.478,36.478,0,0,0-6.256-2.553l-.322.6a32.674,32.674,0,0,1,4.347,2.507Zm-2.484-12.213h14.191l.92.184V37.543l-.92.184h-13.57l.046-.046.069-.115c.184-.253.345-.529.529-.805.46-.046.713-.207.713-.437,0-.138-.161-.276-.322-.3l-2.093-.345a23.117,23.117,0,0,1-4.623,6.831l.391.483a15.078,15.078,0,0,0,4.623-4.278Zm12.558,5.658H389.327l-.9-.184v1.288l.9-.184h13.34c.046,4.117.644,7.866,1.587,9.775.552,1.1,1.265,1.7,2.024,1.7.667,0,1.127-.529,1.357-1.495a17.777,17.777,0,0,0,.46-3.565l-.828-.161a16.839,16.839,0,0,1-.483,2.99c-.046.23-.184.391-.3.391-.161,0-.322-.207-.575-.805a24.332,24.332,0,0,1-1.334-8.763Zm-12.627-2.53h12.1l.92.184V40.671l-.92.184h-12.1l-.9-.184v1.288Zm27.669,13.547h-8.74l-.92-.184v1.219l.92-.184H430.2l.92.184V55.138l-.92.184h-8.9V53.574h7.245l.9.184V52.539l-.9.184H421.3V51.136h7.176V45.409H412.6v5.727h7.015v1.587h-7.107l-.9-.184v1.219l.9-.184h7.107Zm0-5.037h-5.244v-1.61h5.244Zm0-2.461h-5.244V46.26h5.244ZM421.3,46.26h5.4v1.564h-5.4Zm0,2.415h5.4v1.61h-5.4ZM412.9,36.485v5.566h15.272V36.485Zm1.84.851h11.592v1.472H414.742Zm0,3.864V39.659h11.592V41.2Zm-3.726,2.944H430.06l.92.184V43.109l-.92.184H411.016l-.92-.184v1.219Zm30.475,10.028V55h-6.44v-.828h2.369V41.913l-2.277,1.472-.483-.736,3.795-2.553h.782V54.172Zm5.014-1.518a1.331,1.331,0,0,1,1.023.472,1.9,1.9,0,0,1,.426,1.323,3.458,3.458,0,0,1-.644,2.07,4.487,4.487,0,0,1-1.748,1.426l-.345-.552a3.354,3.354,0,0,0,1.046-.862,1.792,1.792,0,0,0,.495-1.139.7.7,0,0,0-.023-.207,1.428,1.428,0,0,1-.276.023,1.213,1.213,0,0,1-.931-.357,1.277,1.277,0,0,1-.333-.908,1.229,1.229,0,0,1,.379-.92A1.287,1.287,0,0,1,446.505,52.654Zm14.03-1.035H458V55h-1.817V51.619h-6.44v-.9L455.636,40.1H458v9.959h2.53Zm-4.347-1.564V41.338h-.3L451.2,50.055ZM467.044,39.8a4.5,4.5,0,0,1,2.737.862,5.5,5.5,0,0,1,1.817,2.5,10.512,10.512,0,0,1,.644,3.864,11.489,11.489,0,0,1-.759,4.335,6.873,6.873,0,0,1-2.035,2.887,4.37,4.37,0,0,1-2.771,1.012,4.548,4.548,0,0,1-2.427-.7,4.982,4.982,0,0,1-1.783-1.875l.736-.483a4.458,4.458,0,0,0,1.472,1.587,3.4,3.4,0,0,0,1.863.575,2.9,2.9,0,0,0,2.656-1.794,11.194,11.194,0,0,0,1.023-4.784,4.648,4.648,0,0,1-1.437,1.242,4.124,4.124,0,0,1-2.082.506,4.736,4.736,0,0,1-2.242-.552,4.232,4.232,0,0,1-1.679-1.61,4.841,4.841,0,0,1-.633-2.53,5.159,5.159,0,0,1,.667-2.657,4.675,4.675,0,0,1,1.783-1.759A4.951,4.951,0,0,1,467.044,39.8Zm.115,8.878a2.663,2.663,0,0,0,1.943-.782,4.108,4.108,0,0,0,1.092-1.863,8.737,8.737,0,0,0-1.046-4.094,2.72,2.72,0,0,0-2.4-1.4,2.15,2.15,0,0,0-1.99,1.058,5.433,5.433,0,0,0-.633,2.806,5.039,5.039,0,0,0,.862,3.208A2.679,2.679,0,0,0,467.159,48.675ZM481.3,47.042a4.4,4.4,0,0,1,2.173,1.38,3.774,3.774,0,0,1,.84,2.53,3.844,3.844,0,0,1-.736,2.381,4.377,4.377,0,0,1-1.921,1.449,6.686,6.686,0,0,1-2.5.471,6.434,6.434,0,0,1-2.5-.483,4.437,4.437,0,0,1-1.886-1.449,3.836,3.836,0,0,1-.724-2.369,3.774,3.774,0,0,1,.84-2.53,4.4,4.4,0,0,1,2.173-1.38,3.855,3.855,0,0,1-1.725-1.219,3.4,3.4,0,0,1-.759-2.277,3.282,3.282,0,0,1,.644-2.059,3.963,3.963,0,0,1,1.69-1.265,5.958,5.958,0,0,1,2.266-.425,6.04,6.04,0,0,1,2.242.414,3.923,3.923,0,0,1,1.7,1.265,3.291,3.291,0,0,1,.656,2.07,3.4,3.4,0,0,1-.759,2.277A3.855,3.855,0,0,1,481.3,47.042Zm-2.116-6.486a2.525,2.525,0,0,0-1.944.84,3.649,3.649,0,0,0,0,4.485,2.683,2.683,0,0,0,3.9,0,3.67,3.67,0,0,0-.011-4.485A2.525,2.525,0,0,0,479.188,40.556Zm0,13.961a2.925,2.925,0,0,0,2.231-.931,3.667,3.667,0,0,0,.874-2.611,3.8,3.8,0,0,0-.805-2.553,3.276,3.276,0,0,0-4.6,0,3.8,3.8,0,0,0-.805,2.553,3.667,3.667,0,0,0,.874,2.611A2.925,2.925,0,0,0,479.188,54.517Zm11.5.736a4.266,4.266,0,0,1-2.611-.759,4.312,4.312,0,0,1-1.483-1.955,7.115,7.115,0,0,1-.46-2.576,7.445,7.445,0,0,1,.483-2.657,4.766,4.766,0,0,1,1.564-2.116,4.406,4.406,0,0,1,2.783-.84,4.986,4.986,0,0,1,3.243,1.081v2.461h-1.173a3.335,3.335,0,0,0-.69-2.082,2.084,2.084,0,0,0-1.679-.771,2.289,2.289,0,0,0-2.093,1.127,5.43,5.43,0,0,0-.69,2.875,8.124,8.124,0,0,0,.391,2.519,4.8,4.8,0,0,0,1.139,1.955,2.382,2.382,0,0,0,1.736.748,2.7,2.7,0,0,0,1.921-.748,3.359,3.359,0,0,0,1-1.92h.713a4.23,4.23,0,0,1-1.322,2.611A3.9,3.9,0,0,1,490.688,55.253Zm10.327,0a4.266,4.266,0,0,1-2.611-.759,4.312,4.312,0,0,1-1.483-1.955,7.115,7.115,0,0,1-.46-2.576,7.445,7.445,0,0,1,.483-2.657,4.766,4.766,0,0,1,1.564-2.116,4.406,4.406,0,0,1,2.783-.84,4.986,4.986,0,0,1,3.243,1.081v2.461h-1.173a3.335,3.335,0,0,0-.69-2.082,2.084,2.084,0,0,0-1.679-.771,2.289,2.289,0,0,0-2.093,1.127,5.43,5.43,0,0,0-.69,2.875,8.124,8.124,0,0,0,.391,2.519,4.8,4.8,0,0,0,1.139,1.955,2.382,2.382,0,0,0,1.736.748,2.7,2.7,0,0,0,1.921-.748,3.359,3.359,0,0,0,1-1.92h.713a4.23,4.23,0,0,1-1.322,2.611A3.9,3.9,0,0,1,501.015,55.253Zm5.911-3.749a22.955,22.955,0,0,1,4.531,5.014l1.288-1.219a23.436,23.436,0,0,0-4.623-4.876ZM11.563,76.2H7.1V87.4H19.82V76.2H13.449V73.831h7.958l.9.184V72.727l-.9.184H13.449V71.462c.276-.207.368-.322.368-.483,0-.207-.161-.3-.483-.3H11.563v2.231h-8.9l-.92-.184v1.288l.92-.184h8.9ZM8.9,86.481V83.767H18v2.714Zm0-3.634V80.432H18v2.415Zm0-3.335V77.12H18v2.392Zm-4.14,10.12V78.017c.3-.207.368-.3.368-.46,0-.207-.161-.3-.483-.3H2.869V91.7H4.755v-1.15H21.683l.92.184V89.448l-.92.184ZM25.11,91.587c6.072-2.622,8.924-6.716,10.212-14.743H29.779a35.794,35.794,0,0,0,1.127-4.163h4.439l.92.184V71.577l-.92.184H25.639l-.9-.184v1.288l.9-.184h3.22a28.714,28.714,0,0,1-4.416,11.2l.506.483a18.2,18.2,0,0,0,4.485-6.6h3.772a22.621,22.621,0,0,1-1.587,5.451,12.6,12.6,0,0,0-3.289-2.024l-.437.483a24.64,24.64,0,0,1,2.714,3.45,18.79,18.79,0,0,1-5.888,5.842ZM37.254,87.01H39.14V73.67c.276-.207.368-.3.368-.46,0-.207-.161-.3-.506-.3H37.254Zm1.909,3.611v.966h3.289c1.38,0,1.955-.552,1.955-1.863V71.968c.3-.207.368-.3.368-.46,0-.207-.161-.3-.483-.3H42.475V89.54c-.023.805-.276,1.058-1.081,1.081Zm14.7-8.671q3.22,1.035,3.22,3.818a3.952,3.952,0,0,1-.747,2.415A4.778,4.778,0,0,1,54.4,89.724a6,6,0,0,1-2.472.529,4.974,4.974,0,0,1-2.656-.713,5.252,5.252,0,0,1-1.829-1.863l.736-.46a3.694,3.694,0,0,0,1.564,1.541,4.352,4.352,0,0,0,2,.506,3.571,3.571,0,0,0,1.6-.368,2.963,2.963,0,0,0,1.219-1.127,3.42,3.42,0,0,0,.472-1.84,3.264,3.264,0,0,0-.932-2.45,3.18,3.18,0,0,0-2.312-.909h-.575v-.713a3.9,3.9,0,0,0,1.587-.345,3,3,0,0,0,1.288-1.092,3.271,3.271,0,0,0,.506-1.875,3.418,3.418,0,0,0-.644-2.1,2.438,2.438,0,0,0-3.83.138,5.045,5.045,0,0,0-.747,2.5H48.133v-2.76a4.551,4.551,0,0,1,1.7-1.1A6.13,6.13,0,0,1,52.09,74.8a5.569,5.569,0,0,1,2.231.437A3.873,3.873,0,0,1,55.942,76.5a3.207,3.207,0,0,1,.61,1.955Q56.551,80.777,53.86,81.95Zm13.179,3.91a30.9,30.9,0,0,1-7.084,4.991l.3.575A25.168,25.168,0,0,0,68.442,86.8,35.552,35.552,0,0,1,73,90.483l1.311-1.863A46.681,46.681,0,0,0,69.8,85.561c.9-.874,1.38-1.4,2.6-2.806h.115c.368,0,.736-.23.736-.46,0-.115-.138-.253-.3-.345L71.2,81.1a20.9,20.9,0,0,1-2.944,3.588A36.478,36.478,0,0,0,62,82.134l-.322.6a32.671,32.671,0,0,1,4.347,2.507ZM64.555,73.647H78.746l.92.184V72.543l-.92.184H65.176l.046-.046.069-.115c.184-.253.345-.529.529-.805.46-.046.713-.207.713-.437,0-.138-.161-.276-.322-.3l-2.093-.345A23.117,23.117,0,0,1,59.5,77.511l.391.483a15.078,15.078,0,0,0,4.623-4.278Zm12.558,5.658H61.864l-.9-.184v1.288l.9-.184H75.2c.046,4.117.644,7.866,1.587,9.775.552,1.1,1.265,1.7,2.024,1.7.667,0,1.127-.529,1.357-1.5a17.778,17.778,0,0,0,.46-3.565l-.828-.161a16.837,16.837,0,0,1-.483,2.99c-.046.23-.184.391-.3.391-.161,0-.322-.207-.575-.805a24.332,24.332,0,0,1-1.334-8.763Zm-12.627-2.53h12.1l.92.184V75.671l-.92.184h-12.1l-.9-.184v1.288Zm37.973-2.921.92.184V72.75l-.92.184H95.9c.184-.3.322-.506.667-1.035.437-.069.667-.23.667-.483,0-.138-.161-.276-.391-.322l-1.725-.414a17.031,17.031,0,0,1-3.174,5.359l.437.368a9.03,9.03,0,0,0,2.852-2.553H97.33a17.51,17.51,0,0,1,.736,2.76l2.024-.644a6.888,6.888,0,0,0-1.725-2.116Zm-14.674,0a26.835,26.835,0,0,1,.69,2.76l1.955-.6a7.78,7.78,0,0,0-1.656-2.162h3.036l.92.184V72.75l-.92.184H86.8c.276-.391.391-.552.69-1.035.437-.069.667-.23.667-.483,0-.138-.161-.276-.391-.322l-1.725-.414A18.348,18.348,0,0,1,82.5,76.269l.437.414a10.538,10.538,0,0,0,3.2-2.829Zm.322,9.66V90.6h1.771V88.8h7.981v-5.29Zm1.771,4.37v-3.45h6.21v3.45ZM88.062,81.26H98l.92.184V80.156L98,80.34H88.062l-.9-.184v1.288Zm14.444-4.094H83.646V91.633h1.886V78.086h15.088V89.563c0,.713-.322,1.012-1.035,1.012H97.239v.966h3.174c1.472,0,2.093-.621,2.093-2.07Zm20.148-.092c-.092,3.634-1.012,10.879-1.541,12.052a1.444,1.444,0,0,1-1.472.69H117v1.058h3.956c1.771.023,2.3-.575,2.76-3.128a93.6,93.6,0,0,0,1.2-11.73H116.19c.092-1.012.138-1.955.138-2.9v-.6c.3-.184.437-.345.437-.552a.393.393,0,0,0-.414-.391l-2.415-.161.161,1.38v.345c0,.667-.046,1.679-.161,2.875h-6.049l-.92-.184v1.426l.92-.184h5.957c-.529,5.773-2.921,9.959-7.452,12.972l.276.552c5.543-2.047,8.694-6.578,9.43-13.524Zm4.232-4.186a4.674,4.674,0,0,0-2.668-2.438l-.391.322a9.223,9.223,0,0,1,1.5,2.9Zm-5.7-1.817a8.735,8.735,0,0,1,1.288,3.013l1.587-.713a4.674,4.674,0,0,0-2.438-2.6Zm11.684,19.412a16,16,0,0,0,10.672-5.727c1.909-2.392,3.1-5.612,3.933-10.626.391-.184.575-.368.575-.621,0-.184-.161-.345-.414-.391l-2.392-.552-.046,1.311c-.69,4.393-1.679,7.314-3.312,9.637a16.2,16.2,0,0,1-9.2,6.21ZM130.221,73.6a26.972,26.972,0,0,1,3.795,7.153l2.254-1.449a14.451,14.451,0,0,0-5.589-6.141Zm28.474,17.8A14.446,14.446,0,0,0,165,88.9c2.967-2.254,3.726-4.393,3.7-10.35v-5.98c.345-.23.46-.391.46-.6a.414.414,0,0,0-.437-.391l-2.369-.161.207,1.38v5.888c-.023,5.014-.529,6.785-2.6,8.878a13.332,13.332,0,0,1-5.428,3.151Zm-3.243-18.262V84.319h2.139V72.934c.345-.253.46-.414.46-.6a.414.414,0,0,0-.437-.391l-2.369-.184ZM194.689,75.6a22.83,22.83,0,0,1-5.865,7.452c-3.059,2.484-5.681,3.657-10.557,4.669l-1.219.023.828,2.047c.138.322.345.506.575.506.253,0,.437-.161.6-.529,5.2-1.173,8.464-2.737,11.293-5.4a19.387,19.387,0,0,0,4.991-8.464ZM176.842,73.1a21.622,21.622,0,0,1,5.727,4.922l1.886-1.909a14.194,14.194,0,0,0-7.337-3.611ZM208.1,78.776a2.5,2.5,0,1,0,2.461,2.484A2.5,2.5,0,0,0,208.1,78.776Zm21.758,8.878h-7.912l-1.035-.207v1.472l1.035-.207h18.262l1.035.207V87.447l-1.035.207h-8.119V74.935h6.026l1.012.207V73.67l-1.012.207H224.038l-1.012-.207v1.472l1.012-.207h5.819ZM263.69,75.6a22.83,22.83,0,0,1-5.865,7.452c-3.059,2.484-5.681,3.657-10.557,4.669l-1.219.023.828,2.047c.138.322.345.506.575.506.253,0,.437-.161.6-.529,5.2-1.173,8.464-2.737,11.293-5.4a19.386,19.386,0,0,0,4.991-8.464ZM245.842,73.1a21.622,21.622,0,0,1,5.727,4.922l1.886-1.909a14.194,14.194,0,0,0-7.337-3.611Zm40.825-.184A4.615,4.615,0,0,0,284,70.473l-.391.322a8.782,8.782,0,0,1,1.518,2.9Zm-.575,3.864a18.411,18.411,0,0,1-3.887,5.957c-3.128,3.174-6.578,4.83-11.569,5.612l-1.1.023.828,1.932c.138.345.322.506.552.506.253,0,.391-.115.575-.46,5.612-1.127,9.384-3.174,12.006-6.463a17.682,17.682,0,0,0,3.289-6.854Zm-16.284-3.542a22.312,22.312,0,0,1,5.911,2.806l1.219-2.047a14.715,14.715,0,0,0-6.992-1.4Zm10.971-2.139a10.156,10.156,0,0,1,1.357,3.2l1.541-.69a4.576,4.576,0,0,0-2.484-2.806Zm-12.1,8.625a20.671,20.671,0,0,1,5.888,2.553l1.173-2.07a13.019,13.019,0,0,0-5.773-1.127c-.276,0-.644,0-1.15.023ZM309.69,75.6a22.83,22.83,0,0,1-5.865,7.452c-3.059,2.484-5.681,3.657-10.557,4.669l-1.219.023.828,2.047c.138.322.345.506.575.506.253,0,.437-.161.6-.529,5.2-1.173,8.464-2.737,11.293-5.4a19.386,19.386,0,0,0,4.991-8.464ZM291.841,73.1a21.622,21.622,0,0,1,5.727,4.922l1.886-1.909a14.194,14.194,0,0,0-7.337-3.611Zm27.508,17.089a13.829,13.829,0,0,0-6.417-4.393l-.437.552a20.529,20.529,0,0,1,4.968,5.5Zm26.013-10h10.373l.92.184V79.075l-.92.184h-19.32l-.92-.184v1.288l.92-.184h1.15v8.786c-.184.046-.3.046-.621.092-.483.069-.966.138-1.449.184l.644,1.679c.092.23.253.368.414.368.184,0,.322-.138.437-.46a47,47,0,0,0,6.67-2.277V91.84h1.7Zm-1.7,2.806v2.047h-4.393V82.985Zm-4.393-.92V80.179h4.393v1.886Zm4.393,3.887v1.84l-.46.092c-1.15.276-2.829.621-3.933.805V85.952Zm2.392,5.888a12.578,12.578,0,0,0,5.106-2.76,11.757,11.757,0,0,0,4.508,2.622,11.591,11.591,0,0,1,.989-1.794,12.762,12.762,0,0,1-4.347-2.047,19.642,19.642,0,0,0,3.266-6.072h-8.257l-.92-.184v1.288l.92-.184h.276a12.686,12.686,0,0,0,2.6,5.359,11.748,11.748,0,0,1-4.416,3.2Zm7.222-9.131a18.374,18.374,0,0,1-2.162,4.186,10.682,10.682,0,0,1-2.714-4.186Zm-14.789-11.2v6.141H353.78V71.508Zm1.84,5.221V74.981h11.569v1.748Zm0-2.668V72.428h11.569v1.633Zm27.6-.966h-8.372l-.92-.184V74.2l.92-.184h19.021l.92.184V72.911l-.92.184h-8.556V71.462c.3-.23.368-.322.368-.46,0-.23-.161-.322-.483-.322h-1.978Zm10.6,8.694H359.6V91.7h1.909V82.709H376.62v6.946c-.023.713-.253.943-.966.966H373.7v.966h2.829c1.4,0,2.024-.575,2-1.909Zm-14.674,2.622V90h1.817V88.942h8.211V84.411Zm1.817,3.611V85.331h6.417v2.691Zm10.1-7.981V75.694H362.359v4.347Zm-11.5-.92V76.614h9.591v2.507Zm26.7,10.212h-6.509V83.284c.3-.207.368-.3.368-.46,0-.207-.161-.3-.483-.3h-1.863v9.016h1.978V90.253h15.226V91.4h1.978V83.284c.3-.23.368-.3.368-.46,0-.207-.161-.3-.483-.3h-1.863v6.808h-6.739V80.455h7.636V73.463c.3-.207.368-.3.368-.46,0-.207-.161-.3-.483-.3h-1.863v6.831h-5.658V71.577c.276-.207.368-.3.368-.46,0-.207-.161-.3-.483-.3h-1.863v8.717h-5.451V73.463c.3-.207.368-.3.368-.46,0-.207-.161-.3-.483-.3h-1.863v7.751h7.429Zm21.045-13.294a29.1,29.1,0,0,1-1.311,7.429,13.821,13.821,0,0,1-6.21,7.383l.345.736a13.744,13.744,0,0,0,7.475-6.762,24.733,24.733,0,0,0,1.794-8.786h7.866c-.115,3.542-.552,9.89-.782,11.454-.207,2.208-.6,2.737-1.978,2.714h-3.059v1.081h4.14c1.955.023,2.783-.759,2.99-2.852.253-1.61.782-10.1.874-13.363H414.155c.069-.782.092-1.518.092-2.277V71.439c.276-.207.368-.3.368-.46,0-.207-.161-.3-.483-.3h-2V72.8c0,.552-.023,1.357-.069,2.277h-6.072l-.9-.184v1.334l.9-.184Zm24.012,13.133V90h-6.44v-.828h2.369V76.913l-2.277,1.472-.483-.736,3.795-2.553h.782V89.172Zm12.052,0V90h-6.44v-.828h2.369V76.913l-2.277,1.472-.483-.736,3.795-2.553h.782V89.172Zm8.671-8.855a4.817,4.817,0,0,1,2.243.54,4.261,4.261,0,0,1,1.7,1.622,4.874,4.874,0,0,1,.655,2.576,5.139,5.139,0,0,1-.759,2.852,4.9,4.9,0,0,1-1.921,1.759,5.41,5.41,0,0,1-5.094-.1,4.892,4.892,0,0,1-1.863-1.886l.736-.46a3.966,3.966,0,0,0,1.518,1.541,4.2,4.2,0,0,0,2.093.529,2.982,2.982,0,0,0,1.622-.472,3.379,3.379,0,0,0,1.207-1.391,4.834,4.834,0,0,0,.46-2.185,4.618,4.618,0,0,0-.46-2.15,3.1,3.1,0,0,0-1.207-1.311,3.223,3.223,0,0,0-1.622-.425,2.634,2.634,0,0,0-1.38.345,4.3,4.3,0,0,0-1.035.874h-.9L453.3,75.1h7.314v1.84h-6.6l-.322,4.462a4.057,4.057,0,0,1,1.323-.782A4.887,4.887,0,0,1,456.751,80.317Zm17.227,8.993V90h-3.105l-3.726-5.221h-.736V89.31h1.426V90h-4.623v-.69h1.472V74.981h-1.656v-.667l3.381-.207V84h.782l3.519-3.7h-1.564V79.6h4.186v.69h-1.449l-3.312,3.519,4.025,5.5ZM496.22,75.924h-1.7L490.539,90H489.48l-4.117-11.638L481.615,90h-1.058l-4.209-14.076h-1.817V75.1h5.75v.828h-1.84l3.151,10.971,3.749-11.707h.966l4.209,11.638,3.013-10.9h-1.817V75.1h4.508Zm8.372-1.7h.966L498.082,90.6h-.966Zm7.567,6.1a4.817,4.817,0,0,1,2.242.54,4.26,4.26,0,0,1,1.7,1.622,4.874,4.874,0,0,1,.656,2.576A5.139,5.139,0,0,1,516,87.907a4.9,4.9,0,0,1-1.921,1.759,5.41,5.41,0,0,1-5.094-.1,4.892,4.892,0,0,1-1.863-1.886l.736-.46a3.966,3.966,0,0,0,1.518,1.541,4.2,4.2,0,0,0,2.093.529,2.982,2.982,0,0,0,1.621-.472,3.379,3.379,0,0,0,1.208-1.391,4.834,4.834,0,0,0,.46-2.185,4.618,4.618,0,0,0-.46-2.15,3.1,3.1,0,0,0-1.208-1.311,3.222,3.222,0,0,0-1.621-.425,2.634,2.634,0,0,0-1.38.345,4.3,4.3,0,0,0-1.035.874h-.9l.552-7.475h7.314v1.84h-6.6L509.1,81.4a4.057,4.057,0,0,1,1.323-.782A4.887,4.887,0,0,1,512.159,80.317Zm8.395,7.337a1.331,1.331,0,0,1,1.023.472A1.9,1.9,0,0,1,522,89.448a3.458,3.458,0,0,1-.644,2.07,4.487,4.487,0,0,1-1.748,1.426l-.345-.552a3.354,3.354,0,0,0,1.047-.862,1.793,1.793,0,0,0,.495-1.139.7.7,0,0,0-.023-.207,1.428,1.428,0,0,1-.276.023,1.213,1.213,0,0,1-.932-.356,1.277,1.277,0,0,1-.333-.909,1.229,1.229,0,0,1,.38-.92A1.287,1.287,0,0,1,520.553,87.654Zm8.556,2.6a4.267,4.267,0,0,1-2.76-.966,6.174,6.174,0,0,1-1.852-2.726,12.721,12.721,0,0,1,0-8.062,6.134,6.134,0,0,1,1.863-2.714,4.48,4.48,0,0,1,5.543-.012,6.052,6.052,0,0,1,1.863,2.7,12.616,12.616,0,0,1-.012,8.062,6.293,6.293,0,0,1-1.875,2.737A4.281,4.281,0,0,1,529.109,90.253Zm.023-.736a2.6,2.6,0,0,0,2.392-1.794,12.826,12.826,0,0,0,.828-5.2,12.753,12.753,0,0,0-.828-5.175,2.492,2.492,0,0,0-4.784,0,12.753,12.753,0,0,0-.828,5.175,12.826,12.826,0,0,0,.828,5.2A2.6,2.6,0,0,0,529.133,89.517Zm12.029.736a4.267,4.267,0,0,1-2.76-.966,6.174,6.174,0,0,1-1.852-2.726,12.721,12.721,0,0,1,0-8.062,6.134,6.134,0,0,1,1.863-2.714,4.48,4.48,0,0,1,5.543-.012,6.052,6.052,0,0,1,1.863,2.7,12.616,12.616,0,0,1-.012,8.062,6.293,6.293,0,0,1-1.875,2.737A4.281,4.281,0,0,1,541.161,90.253Zm.023-.736a2.6,2.6,0,0,0,2.392-1.794,12.826,12.826,0,0,0,.828-5.2,12.753,12.753,0,0,0-.828-5.175,2.492,2.492,0,0,0-4.784,0,12.753,12.753,0,0,0-.828,5.175,12.826,12.826,0,0,0,.828,5.2A2.6,2.6,0,0,0,541.185,89.517Zm12.029.736a4.267,4.267,0,0,1-2.76-.966,6.174,6.174,0,0,1-1.852-2.726,12.721,12.721,0,0,1,0-8.062,6.134,6.134,0,0,1,1.863-2.714,4.48,4.48,0,0,1,5.543-.012,6.052,6.052,0,0,1,1.863,2.7,12.616,12.616,0,0,1-.012,8.062,6.293,6.293,0,0,1-1.875,2.737A4.281,4.281,0,0,1,553.214,90.253Zm.023-.736a2.6,2.6,0,0,0,2.392-1.794,12.826,12.826,0,0,0,.828-5.2,12.753,12.753,0,0,0-.828-5.175,2.492,2.492,0,0,0-4.784,0,12.753,12.753,0,0,0-.828,5.175,12.826,12.826,0,0,0,.828,5.2A2.6,2.6,0,0,0,553.237,89.517Zm12.535-10.166a2.577,2.577,0,0,1,.966.184,1.7,1.7,0,0,1,.69.46v2.047h-1.012a1.4,1.4,0,0,0-1.541-1.4,1.434,1.434,0,0,0-1.265.851,4.035,4.035,0,0,0-.483,2.024v5.8H565.1V90h-5.221v-.69H561.4V80.294h-1.495v-.667l3.151-.184.023,1.656a3.123,3.123,0,0,1,2.691-1.748Zm7.935,0a4.142,4.142,0,0,1,3.922,2.484,6.464,6.464,0,0,1,.563,2.783,7.013,7.013,0,0,1-.575,2.91,4.733,4.733,0,0,1-1.621,2,4.411,4.411,0,0,1-4.048.414,3.271,3.271,0,0,1-1.23-.862v5.152h1.656v.69h-5.06v-.69h1.679V79.6h1.7l.023.966a3.026,3.026,0,0,1,1.242-.9A4.551,4.551,0,0,1,573.706,79.351Zm-.138,10.12a2.288,2.288,0,0,0,2.07-1.035,5.967,5.967,0,0,0,.667-3.174,7.607,7.607,0,0,0-.782-3.76,2.546,2.546,0,0,0-4.083-.6,2.787,2.787,0,0,0-.724,1.989v3.979a2.4,2.4,0,0,0,.8,1.874A2.944,2.944,0,0,0,573.568,89.471Zm22.517-.161V90h-4.393v-.69h1.173V82.686a3.4,3.4,0,0,0-.437-1.92,1.511,1.511,0,0,0-1.334-.632,2.11,2.11,0,0,0-1.644.736,2.7,2.7,0,0,0-.656,1.863V89.31h1.311V90h-4.347v-.69h1.311V82.686a3.4,3.4,0,0,0-.437-1.92,1.511,1.511,0,0,0-1.334-.632,2.135,2.135,0,0,0-1.668.736,2.7,2.7,0,0,0-.655,1.863V89.31h1.219V90h-4.462v-.69h1.518V80.294h-1.472v-.667l3.151-.184.046,1.081a3.254,3.254,0,0,1,2.76-1.173,3.394,3.394,0,0,1,1.656.4,2.49,2.49,0,0,1,1.081,1.116,2.92,2.92,0,0,1,1.2-1.127,3.764,3.764,0,0,1,1.748-.391q3.174,0,3.174,3.588V89.31Zm8.165.874a13.829,13.829,0,0,0-6.417-4.393l-.437.552a20.529,20.529,0,0,1,4.968,5.5Zm-466.566,25h10.373l.92.184v-1.288l-.92.184h-19.32l-.92-.184v1.288l.92-.184h1.15v8.786c-.184.046-.3.046-.621.092-.483.069-.966.138-1.449.184l.644,1.679c.092.23.253.368.414.368.184,0,.322-.138.437-.46a47,47,0,0,0,6.67-2.277v3.289h1.7Zm-1.7,2.806v2.047h-4.393v-2.047Zm-4.393-.92v-1.886h4.393v1.886Zm4.393,3.887v1.84l-.46.092c-1.15.276-2.829.621-3.933.805v-2.737Zm2.392,5.888a12.578,12.578,0,0,0,5.106-2.76,11.757,11.757,0,0,0,4.508,2.622,11.589,11.589,0,0,1,.989-1.794,12.762,12.762,0,0,1-4.347-2.047,19.642,19.642,0,0,0,3.266-6.072h-8.257l-.92-.184v1.288l.92-.184h.276a12.685,12.685,0,0,0,2.6,5.359,11.748,11.748,0,0,1-4.416,3.2Zm7.222-9.131a18.374,18.374,0,0,1-2.162,4.186,10.681,10.681,0,0,1-2.714-4.186Zm-14.789-11.2v6.141H146.1v-6.141Zm1.84,5.221v-1.748h11.569v1.748Zm0-2.668v-1.633h11.569v1.633Zm37.927,3.956.966.184v-1.4l-.966.184H161.9l.023-.069c.161-1.61.276-3.335.276-4.623v-.713c.3-.207.368-.3.368-.46,0-.207-.161-.3-.483-.3h-1.978v1.518c.023.667-.161,3.289-.3,4.577l-.023.069H152.22l-.966-.184v1.4l.966-.184h7.452a16.208,16.208,0,0,1-8.855,13.064l.368.621c6.118-2.323,9.591-6.578,10.488-12.811a19.275,19.275,0,0,0,9.062,12.7,13.542,13.542,0,0,1,1.242-2.3,19.273,19.273,0,0,1-7.5-6.394,14.315,14.315,0,0,1-2.369-4.876Zm11.891-5.543c.3-.161.46-.345.46-.552s-.184-.368-.46-.391l-2.3-.161.161,1.38V126.1h2.139v-12.19a22.847,22.847,0,0,1,8.579,5.934l1.564-2.093a24.546,24.546,0,0,0-10.143-4.692Zm25.576,18.262a11.4,11.4,0,0,0,6.831-4.163,16.1,16.1,0,0,0,3.335-7.567l-.713-.23c-1.518,4.324-4.393,7.843-7.406,9.062V107.98c.345-.23.46-.391.46-.6a.43.43,0,0,0-.437-.391l-2.277-.161.207,1.38Zm-10.879.069a12.618,12.618,0,0,0,5.152-5.474c.943-2.047,1.357-4.738,1.357-8.97v-2.6c.345-.23.46-.391.46-.6a.414.414,0,0,0-.437-.391l-2.346-.161.207,1.38v2.576c0,6.992-1.1,10.143-4.807,13.639Zm32.545-16.284c.253-.506.46-1.012.805-1.909.437-.207.6-.345.6-.6,0-.207-.161-.345-.506-.414l-2.162-.46-.23,1.311a19.61,19.61,0,0,1-6.187,9.154l.368.552a15.432,15.432,0,0,0,6.762-6.578h7.2c-.782,3.864-3.128,8.188-5.612,10.3a22.6,22.6,0,0,1-8.625,4.508l.138.69c4.37-.805,6.716-1.7,9.246-3.519,3.795-2.76,6.325-7.222,7.383-13.041Zm22.839,13.685V125h-9.039v-.805q2.921-3.174,4.266-4.8a14.578,14.578,0,0,0,1.932-2.84,5.818,5.818,0,0,0,.587-2.553,3.781,3.781,0,0,0-.747-2.541,2.426,2.426,0,0,0-1.921-.863,2.272,2.272,0,0,0-2,1.012,4.863,4.863,0,0,0-.782,2.484H243.6v-2.76a4.3,4.3,0,0,1,1.725-1.1,6.561,6.561,0,0,1,2.323-.414,6.1,6.1,0,0,1,2.219.414,3.976,3.976,0,0,1,1.771,1.345,3.849,3.849,0,0,1,.7,2.381,4.252,4.252,0,0,1-.552,2.082,13.24,13.24,0,0,1-1.829,2.392q-1.276,1.391-4.611,4.772Zm8.74-6.256q3.22,1.035,3.22,3.818a3.952,3.952,0,0,1-.747,2.415,4.778,4.778,0,0,1-1.932,1.541,6,6,0,0,1-2.473.529,4.974,4.974,0,0,1-2.656-.713,5.252,5.252,0,0,1-1.829-1.863l.736-.46a3.694,3.694,0,0,0,1.564,1.541,4.352,4.352,0,0,0,2,.506,3.571,3.571,0,0,0,1.6-.368,2.963,2.963,0,0,0,1.219-1.127,3.42,3.42,0,0,0,.471-1.84,3.264,3.264,0,0,0-.932-2.45,3.18,3.18,0,0,0-2.311-.909h-.575v-.713a3.9,3.9,0,0,0,1.587-.345,3,3,0,0,0,1.288-1.092,3.271,3.271,0,0,0,.506-1.875,3.418,3.418,0,0,0-.644-2.1,2.438,2.438,0,0,0-3.829.138,5.046,5.046,0,0,0-.747,2.5h-1.242v-2.76a4.551,4.551,0,0,1,1.7-1.1,6.13,6.13,0,0,1,2.254-.414,5.569,5.569,0,0,1,2.231.437,3.873,3.873,0,0,1,1.621,1.265,3.207,3.207,0,0,1,.609,1.955Q263.977,115.777,261.286,116.95Zm10.718,8.3a4.266,4.266,0,0,1-2.76-.966,6.173,6.173,0,0,1-1.852-2.726,12.72,12.72,0,0,1,0-8.062,6.133,6.133,0,0,1,1.863-2.714,4.48,4.48,0,0,1,5.543-.012,6.051,6.051,0,0,1,1.863,2.7,12.615,12.615,0,0,1-.012,8.062,6.293,6.293,0,0,1-1.874,2.737A4.281,4.281,0,0,1,272,125.253Zm.023-.736a2.6,2.6,0,0,0,2.392-1.794,12.825,12.825,0,0,0,.828-5.2,12.752,12.752,0,0,0-.828-5.175,2.492,2.492,0,0,0-4.784,0,12.752,12.752,0,0,0-.828,5.175,12.825,12.825,0,0,0,.828,5.2A2.6,2.6,0,0,0,272.027,124.517Zm6.785-.345h1.84V110.924h-1.84V110.1h3.749l6.923,11.178v-10.35h-1.84V110.1h4.669v.828h-1.84V125h-1.058l-7.774-12.673v11.845h1.84V125h-4.669Zm31,.138V125h-4.393v-.69H306.6v-6.624a3.4,3.4,0,0,0-.437-1.92,1.511,1.511,0,0,0-1.334-.632,2.11,2.11,0,0,0-1.645.736,2.7,2.7,0,0,0-.655,1.863v6.578h1.311V125h-4.347v-.69H300.8v-6.624a3.4,3.4,0,0,0-.437-1.92,1.511,1.511,0,0,0-1.334-.632,2.135,2.135,0,0,0-1.668.736,2.7,2.7,0,0,0-.655,1.863v6.578h1.219V125h-4.462v-.69h1.518v-9.016h-1.472v-.667l3.151-.184.046,1.081a3.253,3.253,0,0,1,2.76-1.173,3.394,3.394,0,0,1,1.656.4,2.49,2.49,0,0,1,1.081,1.116,2.92,2.92,0,0,1,1.2-1.127,3.764,3.764,0,0,1,1.748-.391q3.174,0,3.174,3.588v6.371Zm8.625-15.088h.966L311.932,125.6h-.966Zm10.948,14.95V125h-6.44v-.828h2.369V111.913l-2.277,1.472-.483-.736,3.795-2.553h.782v14.076Zm5.014-1.518a1.331,1.331,0,0,1,1.023.472,1.9,1.9,0,0,1,.426,1.322,3.458,3.458,0,0,1-.644,2.07,4.487,4.487,0,0,1-1.748,1.426l-.345-.552a3.354,3.354,0,0,0,1.046-.862,1.792,1.792,0,0,0,.495-1.139.7.7,0,0,0-.023-.207,1.428,1.428,0,0,1-.276.023,1.213,1.213,0,0,1-.931-.356,1.277,1.277,0,0,1-.333-.909,1.229,1.229,0,0,1,.379-.92A1.287,1.287,0,0,1,334.4,122.654Zm8.395-7.337a4.817,4.817,0,0,1,2.243.54,4.261,4.261,0,0,1,1.7,1.622,4.874,4.874,0,0,1,.655,2.576,5.139,5.139,0,0,1-.759,2.852,4.9,4.9,0,0,1-1.921,1.759,5.41,5.41,0,0,1-5.094-.1,4.892,4.892,0,0,1-1.863-1.886l.736-.46a3.966,3.966,0,0,0,1.518,1.541,4.2,4.2,0,0,0,2.093.529,2.982,2.982,0,0,0,1.622-.472,3.379,3.379,0,0,0,1.207-1.391,4.834,4.834,0,0,0,.46-2.185,4.618,4.618,0,0,0-.46-2.15,3.1,3.1,0,0,0-1.207-1.311,3.223,3.223,0,0,0-1.622-.425,2.634,2.634,0,0,0-1.38.345,4.3,4.3,0,0,0-1.035.874h-.9l.552-7.475h7.314v1.84h-6.6l-.322,4.462a4.057,4.057,0,0,1,1.323-.782A4.887,4.887,0,0,1,342.8,115.317Zm11.983,9.936a4.266,4.266,0,0,1-2.76-.966,6.173,6.173,0,0,1-1.852-2.726,12.72,12.72,0,0,1,0-8.062,6.133,6.133,0,0,1,1.863-2.714,4.48,4.48,0,0,1,5.543-.012,6.051,6.051,0,0,1,1.863,2.7,12.615,12.615,0,0,1-.012,8.062,6.293,6.293,0,0,1-1.874,2.737A4.281,4.281,0,0,1,354.781,125.253Zm.023-.736a2.6,2.6,0,0,0,2.392-1.794,12.825,12.825,0,0,0,.828-5.2,12.752,12.752,0,0,0-.828-5.175,2.492,2.492,0,0,0-4.784,0,12.752,12.752,0,0,0-.828,5.175,12.825,12.825,0,0,0,.828,5.2A2.6,2.6,0,0,0,354.8,124.517Zm12.029.736a4.266,4.266,0,0,1-2.76-.966,6.173,6.173,0,0,1-1.852-2.726,12.72,12.72,0,0,1,0-8.062,6.133,6.133,0,0,1,1.863-2.714,4.48,4.48,0,0,1,5.543-.012,6.051,6.051,0,0,1,1.863,2.7,12.615,12.615,0,0,1-.012,8.062,6.293,6.293,0,0,1-1.874,2.737A4.281,4.281,0,0,1,366.833,125.253Zm.023-.736a2.6,2.6,0,0,0,2.392-1.794,12.825,12.825,0,0,0,.828-5.2,12.752,12.752,0,0,0-.828-5.175,2.492,2.492,0,0,0-4.784,0,12.752,12.752,0,0,0-.828,5.175,12.825,12.825,0,0,0,.828,5.2A2.6,2.6,0,0,0,366.856,124.517Zm6.923-6h5.037v.9h-5.037Zm17.411,3.105h-2.53V125h-1.817v-3.381H380.4v-.9l5.888-10.626h2.369v9.959h2.53Zm-4.347-1.564v-8.717h-.3l-4.692,8.717Zm7.337,2.6a1.331,1.331,0,0,1,1.023.472,1.9,1.9,0,0,1,.426,1.322,3.458,3.458,0,0,1-.644,2.07,4.487,4.487,0,0,1-1.748,1.426l-.345-.552a3.354,3.354,0,0,0,1.046-.862,1.792,1.792,0,0,0,.495-1.139.7.7,0,0,0-.023-.207,1.428,1.428,0,0,1-.276.023,1.213,1.213,0,0,1-.931-.356,1.277,1.277,0,0,1-.333-.909,1.229,1.229,0,0,1,.379-.92A1.287,1.287,0,0,1,394.18,122.654Zm9.131-7.13a4.817,4.817,0,0,1,2.242.54,4.152,4.152,0,0,1,1.679,1.6,4.8,4.8,0,0,1,.632,2.507,5.264,5.264,0,0,1-.655,2.633,4.691,4.691,0,0,1-1.783,1.806,4.919,4.919,0,0,1-2.484.644,4.416,4.416,0,0,1-2.737-.885,5.586,5.586,0,0,1-1.805-2.519,10.541,10.541,0,0,1-.633-3.818,11.189,11.189,0,0,1,.782-4.335,6.946,6.946,0,0,1,2.082-2.887,4.493,4.493,0,0,1,2.818-1.012,4.245,4.245,0,0,1,2.15.575A5.177,5.177,0,0,1,407.313,112l-.69.575a4.859,4.859,0,0,0-1.392-1.38,3.09,3.09,0,0,0-1.69-.506,2.941,2.941,0,0,0-2.68,1.805,11.177,11.177,0,0,0-1.07,4.773,4.648,4.648,0,0,1,1.438-1.242A4.124,4.124,0,0,1,403.311,115.524Zm.023,8.993a2.084,2.084,0,0,0,1.921-1.069,5.445,5.445,0,0,0,.632-2.795,4.991,4.991,0,0,0-.874-3.208,2.759,2.759,0,0,0-4.105-.288,3.935,3.935,0,0,0-1.069,1.863,8.286,8.286,0,0,0,1.1,4.082A2.8,2.8,0,0,0,403.334,124.517Zm11.454.736a4.266,4.266,0,0,1-2.76-.966,6.173,6.173,0,0,1-1.852-2.726,12.72,12.72,0,0,1,0-8.062,6.133,6.133,0,0,1,1.863-2.714,4.48,4.48,0,0,1,5.543-.012,6.051,6.051,0,0,1,1.863,2.7,12.615,12.615,0,0,1-.012,8.062,6.293,6.293,0,0,1-1.874,2.737A4.281,4.281,0,0,1,414.788,125.253Zm.023-.736a2.6,2.6,0,0,0,2.392-1.794,12.825,12.825,0,0,0,.828-5.2,12.752,12.752,0,0,0-.828-5.175,2.492,2.492,0,0,0-4.784,0,12.752,12.752,0,0,0-.828,5.175,12.825,12.825,0,0,0,.828,5.2A2.6,2.6,0,0,0,414.811,124.517Zm12.029.736a4.266,4.266,0,0,1-2.76-.966,6.173,6.173,0,0,1-1.852-2.726,12.72,12.72,0,0,1,0-8.062,6.133,6.133,0,0,1,1.863-2.714,4.48,4.48,0,0,1,5.543-.012,6.051,6.051,0,0,1,1.863,2.7,12.615,12.615,0,0,1-.012,8.062,6.293,6.293,0,0,1-1.874,2.737A4.281,4.281,0,0,1,426.84,125.253Zm.023-.736a2.6,2.6,0,0,0,2.392-1.794,12.825,12.825,0,0,0,.828-5.2,12.752,12.752,0,0,0-.828-5.175,2.492,2.492,0,0,0-4.784,0,12.752,12.752,0,0,0-.828,5.175,12.825,12.825,0,0,0,.828,5.2A2.6,2.6,0,0,0,426.863,124.517ZM439.4,114.351a2.577,2.577,0,0,1,.966.184,1.7,1.7,0,0,1,.69.46v2.047h-1.012a1.4,1.4,0,0,0-1.541-1.4,1.434,1.434,0,0,0-1.265.851,4.035,4.035,0,0,0-.483,2.024v5.8h1.978V125H433.51v-.69h1.518v-9.016h-1.495v-.667l3.151-.184.023,1.656a3.124,3.124,0,0,1,2.691-1.748Zm7.935,0a4.142,4.142,0,0,1,3.921,2.484,6.464,6.464,0,0,1,.564,2.783,7.014,7.014,0,0,1-.575,2.91,4.732,4.732,0,0,1-1.621,2,4.411,4.411,0,0,1-4.048.414,3.271,3.271,0,0,1-1.23-.862v5.152H446v.69h-5.06v-.69h1.679V114.6h1.7l.023.966a3.027,3.027,0,0,1,1.242-.9A4.552,4.552,0,0,1,447.333,114.351Zm-.138,10.12a2.288,2.288,0,0,0,2.07-1.035,5.966,5.966,0,0,0,.667-3.174,7.607,7.607,0,0,0-.782-3.76,2.546,2.546,0,0,0-4.082-.6,2.787,2.787,0,0,0-.725,1.989v3.979a2.406,2.406,0,0,0,.805,1.874A2.944,2.944,0,0,0,447.2,124.471Zm22.517-.161V125h-4.393v-.69h1.173v-6.624a3.4,3.4,0,0,0-.437-1.92,1.511,1.511,0,0,0-1.334-.632,2.11,2.11,0,0,0-1.645.736,2.7,2.7,0,0,0-.655,1.863v6.578h1.311V125h-4.347v-.69H460.7v-6.624a3.4,3.4,0,0,0-.437-1.92,1.511,1.511,0,0,0-1.334-.632,2.135,2.135,0,0,0-1.668.736,2.7,2.7,0,0,0-.655,1.863v6.578h1.219V125h-4.462v-.69h1.518v-9.016H453.4v-.667l3.151-.184.046,1.081a3.253,3.253,0,0,1,2.76-1.173,3.394,3.394,0,0,1,1.656.4,2.49,2.49,0,0,1,1.081,1.116,2.92,2.92,0,0,1,1.2-1.127,3.764,3.764,0,0,1,1.748-.391q3.174,0,3.174,3.588v6.371Zm4.968-4.669a3.6,3.6,0,1,0,3.542,3.588A3.6,3.6,0,0,0,474.68,119.641Zm-.092,1.058a2.542,2.542,0,1,1-2.507,2.53A2.543,2.543,0,0,1,474.588,120.7Z" transform="translate(0.258 300.921)" fill="#111"/>
    </g>
    <path id="パス_30970" data-name="パス 30970" d="M-50.568-1.728h3.84V-29.376h-3.84V-31.1h8.208L-31.8-7.056-21.624-31.1h8.016v1.728h-3.84V-1.728h3.84V0h-11.76V-1.728h3.84v-24.24L-31.8-1.776h-2.208L-44.664-26.16V-1.728h3.7V0h-9.6Zm53.616,0V0H-10.44V-1.728h4.7V-29.376h-4.512V-31.1h13.1v1.728H-1.656V-1.728Zm3.168,0h3.84V-29.376H6.216V-31.1H14.04L28.488-7.776v-21.6h-3.84V-31.1h9.744v1.728h-3.84V0H28.344L12.12-26.448v24.72h3.84V0H6.216Zm44.352,0V0H37.08V-1.728h4.7V-29.376H37.272V-31.1h13.1v1.728H45.864V-1.728Zm-146.16,50.3a12.661,12.661,0,0,1-7.848-2.3,12.931,12.931,0,0,1-4.392-5.88,21.175,21.175,0,0,1-1.344-7.512,22.739,22.739,0,0,1,1.392-7.944,13.827,13.827,0,0,1,4.464-6.192,12.168,12.168,0,0,1,7.776-2.424,14.621,14.621,0,0,1,5.4.888,16.1,16.1,0,0,1,4.008,2.28v5.76h-2.736q-.384-3.84-2.3-5.616a6.671,6.671,0,0,0-4.7-1.776,7.547,7.547,0,0,0-6.792,3.432,15.976,15.976,0,0,0-2.232,8.856,29.339,29.339,0,0,0,1.032,7.92,14.364,14.364,0,0,0,3.192,6.024A7.033,7.033,0,0,0-95.3,46.416,8.407,8.407,0,0,0-90.12,44.64,8.352,8.352,0,0,0-87.048,39.5h1.824a10.917,10.917,0,0,1-1.92,4.656,10.716,10.716,0,0,1-3.7,3.24A9.956,9.956,0,0,1-95.592,48.576Zm26.928,0a12.2,12.2,0,0,1-7.512-2.208,12.615,12.615,0,0,1-4.3-5.736,21.056,21.056,0,0,1-1.344-7.56,23.225,23.225,0,0,1,1.368-7.9A14.107,14.107,0,0,1-75.96,18.84a12.277,12.277,0,0,1,7.968-2.52,12.414,12.414,0,0,1,7.56,2.208,12.974,12.974,0,0,1,4.416,5.736A19.977,19.977,0,0,1-54.6,31.776a22.248,22.248,0,0,1-1.44,7.872,14.7,14.7,0,0,1-4.584,6.384A12.374,12.374,0,0,1-68.664,48.576Zm1.152-1.584a7.062,7.062,0,0,0,6.432-3.528q2.16-3.528,2.16-9.432a28.524,28.524,0,0,0-1.032-7.752,13.988,13.988,0,0,0-3.288-6.024A7.692,7.692,0,0,0-69.048,17.9a6.894,6.894,0,0,0-6.408,3.48A17.315,17.315,0,0,0-77.5,30.24,26.731,26.731,0,0,0-75.1,42.1,7.947,7.947,0,0,0-67.512,46.992Zm30.1,1.584a12.2,12.2,0,0,1-7.512-2.208,12.615,12.615,0,0,1-4.3-5.736,21.057,21.057,0,0,1-1.344-7.56,23.225,23.225,0,0,1,1.368-7.9,14.107,14.107,0,0,1,4.488-6.336,12.277,12.277,0,0,1,7.968-2.52,12.414,12.414,0,0,1,7.56,2.208,12.974,12.974,0,0,1,4.416,5.736,19.977,19.977,0,0,1,1.416,7.512,22.249,22.249,0,0,1-1.44,7.872,14.7,14.7,0,0,1-4.584,6.384A12.374,12.374,0,0,1-37.416,48.576Zm1.152-1.584a7.062,7.062,0,0,0,6.432-3.528q2.16-3.528,2.16-9.432A28.524,28.524,0,0,0-28.7,26.28a13.988,13.988,0,0,0-3.288-6.024A7.692,7.692,0,0,0-37.8,17.9a6.894,6.894,0,0,0-6.408,3.48,17.315,17.315,0,0,0-2.04,8.856,26.731,26.731,0,0,0,2.4,11.856A7.947,7.947,0,0,0-36.264,46.992ZM-6.072,16.9q4.7,0,7.056,2.256a7.75,7.75,0,0,1,2.352,5.856,8.368,8.368,0,0,1-1.128,4.32,8.026,8.026,0,0,1-3.264,3.048A10.594,10.594,0,0,1-6.072,33.5H-12.12V46.272h3.84V48H-20.04V46.272h3.84V18.624h-3.84V16.9ZM-6.648,31.68a4.909,4.909,0,0,0,3.912-1.848A7.077,7.077,0,0,0-1.176,25.1a7.064,7.064,0,0,0-1.488-4.728,4.961,4.961,0,0,0-3.984-1.752H-12.12V31.68ZM29.88,39.552V48H6.12V46.272H9.96V18.624H6.12V16.9H29.5v8.352H27.672l-2.544-6.624H14.04V30.672h7.536v-3.7h2.208v9.216H21.576V32.5H14.04V46.272H25.512l2.544-6.72Zm32.16,6.72V48H54.7l-9.12-14.352H41.112V46.272H44.9V48H33.192V46.272h3.84V18.624h-3.84V16.9H47.16q4.7,0,7.056,2.328a7.986,7.986,0,0,1,2.352,5.928A8.209,8.209,0,0,1,54.792,30.5a8.312,8.312,0,0,1-4.848,2.856l8.64,12.912ZM41.112,31.824h5.52a4.909,4.909,0,0,0,3.912-1.848,7.077,7.077,0,0,0,1.56-4.728,7.278,7.278,0,0,0-1.512-4.8,4.9,4.9,0,0,0-3.96-1.824h-5.52ZM89.448,48.576a12.661,12.661,0,0,1-7.848-2.3,12.931,12.931,0,0,1-4.392-5.88,21.175,21.175,0,0,1-1.344-7.512,22.739,22.739,0,0,1,1.392-7.944,13.827,13.827,0,0,1,4.464-6.192A12.168,12.168,0,0,1,89.5,16.32a14.621,14.621,0,0,1,5.4.888,16.1,16.1,0,0,1,4.008,2.28v5.76H96.168q-.384-3.84-2.3-5.616a6.671,6.671,0,0,0-4.7-1.776,7.547,7.547,0,0,0-6.792,3.432,15.976,15.976,0,0,0-2.232,8.856,29.339,29.339,0,0,0,1.032,7.92,14.364,14.364,0,0,0,3.192,6.024,7.033,7.033,0,0,0,5.376,2.328A8.34,8.34,0,0,0,97.992,39.5h1.824A10.917,10.917,0,0,1,97.9,44.16a10.716,10.716,0,0,1-3.7,3.24A9.956,9.956,0,0,1,89.448,48.576Zm16.512-.048a2.868,2.868,0,1,1,2.04-.84A2.777,2.777,0,0,1,105.96,48.528Z" transform="translate(303.176 281)" fill="#111"/>
  </g>
</svg>
