<svg xmlns="http://www.w3.org/2000/svg" width="673.168" height="101.204" viewBox="0 0 673.168 101.204">
  <g id="fair-tit" transform="translate(-140.5 -1089.383)">
    <g id="fair_name" data-name="fair name" transform="translate(0 4)">
      <path id="パス_57289" data-name="パス 57289" d="M.792-.864h1.92V-14.688H.792v-.864H4.9l5.28,12.024,5.088-12.024h4.008v.864h-1.92V-.864h1.92V0h-5.88V-.864h1.92v-12.12L10.176-.888h-1.1L3.744-13.08V-.864H5.592V0H.792ZM30.72-.576a2.491,2.491,0,0,1-.8.6,2.4,2.4,0,0,1-1.068.24,1.825,1.825,0,0,1-1.056-.312,1.693,1.693,0,0,1-.648-.84,4.538,4.538,0,0,1-1.4.864,4.942,4.942,0,0,1-1.764.288,3.094,3.094,0,0,1-2.1-.7,2.27,2.27,0,0,1-.8-1.8q0-2.064,2.616-2.928L27.1-6.336V-7.488a4.14,4.14,0,0,0-.444-2.22,1.674,1.674,0,0,0-1.5-.66,1.9,1.9,0,0,0-1.608.768,3.853,3.853,0,0,0-.624,2.208H21.7V-9.96a3.574,3.574,0,0,1,1.464-.828,6.488,6.488,0,0,1,1.992-.3,4.116,4.116,0,0,1,2.82.864,3.226,3.226,0,0,1,.972,2.544v6.336a.573.573,0,0,0,.648.648,1.022,1.022,0,0,0,.792-.384ZM24.744-.648a2.606,2.606,0,0,0,1.224-.288A3.843,3.843,0,0,0,27.1-1.92V-5.544l-2.5.888a2.3,2.3,0,0,0-1.14.816,2.286,2.286,0,0,0-.4,1.368,1.83,1.83,0,0,0,.492,1.3A1.565,1.565,0,0,0,24.744-.648Zm16.872-9.48H40.248L35.328,2.9Q34.392,5.4,32.5,5.4A3.59,3.59,0,0,1,30.12,4.392l.528-.672a2.7,2.7,0,0,0,1.8.84,1.708,1.708,0,0,0,1.164-.408,3.372,3.372,0,0,0,.828-1.368L35.5-.048l-4.1-10.08H29.976v-.72H34.92v.72H33.456l2.976,7.584,2.88-7.584h-1.44v-.72h3.744ZM57.36-.864V0H50.64V-.864h2.472V-13.656L50.736-12.12l-.5-.768,3.96-2.664h.816V-.864ZM67.728-8.4q3.36,1.08,3.36,3.984a4.124,4.124,0,0,1-.78,2.52A4.986,4.986,0,0,1,68.292-.288a6.259,6.259,0,0,1-2.58.552A5.191,5.191,0,0,1,62.94-.48a5.48,5.48,0,0,1-1.908-1.944L61.8-2.9A3.855,3.855,0,0,0,63.432-1.3a4.541,4.541,0,0,0,2.088.528,3.726,3.726,0,0,0,1.668-.384A3.092,3.092,0,0,0,68.46-2.328a3.569,3.569,0,0,0,.492-1.92A3.406,3.406,0,0,0,67.98-6.8a3.319,3.319,0,0,0-2.412-.948h-.6V-8.5a4.067,4.067,0,0,0,1.656-.36A3.128,3.128,0,0,0,67.968-10a3.413,3.413,0,0,0,.528-1.956,3.566,3.566,0,0,0-.672-2.2,2.278,2.278,0,0,0-1.944-.9A2.29,2.29,0,0,0,63.828-14a5.265,5.265,0,0,0-.78,2.6h-1.3v-2.88a4.749,4.749,0,0,1,1.776-1.152,6.4,6.4,0,0,1,2.352-.432,5.811,5.811,0,0,1,2.328.456,4.041,4.041,0,0,1,1.692,1.32,3.347,3.347,0,0,1,.636,2.04Q70.536-9.624,67.728-8.4Zm16.44,9.888a8.688,8.688,0,0,1-3.132-3.54,12.375,12.375,0,0,1-1.068-5.436A12.468,12.468,0,0,1,81.06-12.9a8.673,8.673,0,0,1,3.108-3.612l.36.336a7.409,7.409,0,0,0-2.052,3.408,16.319,16.319,0,0,0-.8,5.256,16.319,16.319,0,0,0,.8,5.256,7.409,7.409,0,0,0,2.052,3.408Zm23.856-16.176h-1.776L102.1,0h-1.1L96.7-12.144,92.784,0h-1.1L87.288-14.688h-1.9v-.864h6v.864h-1.92L92.76-3.24l3.912-12.216H97.68l4.392,12.144,3.144-11.376h-1.9v-.864h4.7Zm4.656,3.576a4.038,4.038,0,0,1,3.048,1.224A4.447,4.447,0,0,1,116.9-6.672q0,.216-.048.744h-7.32a7.12,7.12,0,0,0,.516,2.628,4.825,4.825,0,0,0,1.3,1.872,2.663,2.663,0,0,0,1.764.684,2.741,2.741,0,0,0,1.932-.8,3.419,3.419,0,0,0,1.044-2h.744a4.035,4.035,0,0,1-.7,1.956,4.134,4.134,0,0,1-1.572,1.368,4.635,4.635,0,0,1-2.124.492,4.421,4.421,0,0,1-2.448-.7A4.714,4.714,0,0,1,108.3-2.388a6.54,6.54,0,0,1-.612-2.892,6.848,6.848,0,0,1,.636-2.988,5.055,5.055,0,0,1,1.776-2.088A4.563,4.563,0,0,1,112.68-11.112Zm-.264.72a2.412,2.412,0,0,0-1.98,1,4.676,4.676,0,0,0-.876,2.676h5.208a4.792,4.792,0,0,0-.564-2.712A1.99,1.99,0,0,0,112.416-10.392Zm15.96-6.192V0h-1.824V-1.008a2.863,2.863,0,0,1-1.212.948,4.318,4.318,0,0,1-1.716.324,4.256,4.256,0,0,1-3.408-1.488,5.962,5.962,0,0,1-1.272-4.008,7.319,7.319,0,0,1,.6-3.036,5.011,5.011,0,0,1,1.668-2.088,4.112,4.112,0,0,1,2.436-.756,4.116,4.116,0,0,1,1.608.312,3.672,3.672,0,0,1,1.3.912v-5.784h-1.728v-.7ZM124.032-.552a2.321,2.321,0,0,0,1.812-.792,3.015,3.015,0,0,0,.708-2.088V-7.416a2.879,2.879,0,0,0-.78-2.112,2.751,2.751,0,0,0-2.052-.792,2.357,2.357,0,0,0-2.136,1.092,6.236,6.236,0,0,0-.7,3.3,7.912,7.912,0,0,0,.828,3.936A2.56,2.56,0,0,0,124.032-.552Zm6.744-15.96a8.687,8.687,0,0,1,3.132,3.54,12.375,12.375,0,0,1,1.068,5.436,12.468,12.468,0,0,1-1.092,5.412,8.673,8.673,0,0,1-3.108,3.612l-.36-.336a7.409,7.409,0,0,0,2.052-3.408,16.319,16.319,0,0,0,.8-5.256,16.319,16.319,0,0,0-.8-5.256,7.409,7.409,0,0,0-2.052-3.408Zm11.472,9.744h9.816v.936h-9.816Zm16.44,5.9h1.92V-14.688h-1.92v-.864h4.1l5.28,12.024,5.088-12.024h4.008v.864h-1.92V-.864h1.92V0h-5.88V-.864h1.92v-12.12l-5.136,12.1h-1.1L161.64-13.08V-.864h1.848V0h-4.8Zm29.928.288a2.491,2.491,0,0,1-.8.6,2.4,2.4,0,0,1-1.068.24,1.825,1.825,0,0,1-1.056-.312,1.693,1.693,0,0,1-.648-.84,4.537,4.537,0,0,1-1.4.864,4.942,4.942,0,0,1-1.764.288,3.094,3.094,0,0,1-2.1-.7,2.27,2.27,0,0,1-.8-1.8q0-2.064,2.616-2.928l3.408-1.176V-7.488a4.14,4.14,0,0,0-.444-2.22,1.674,1.674,0,0,0-1.5-.66,1.9,1.9,0,0,0-1.608.768,3.853,3.853,0,0,0-.624,2.208h-1.224V-9.96a3.574,3.574,0,0,1,1.464-.828,6.488,6.488,0,0,1,1.992-.3,4.116,4.116,0,0,1,2.82.864,3.226,3.226,0,0,1,.972,2.544v6.336a.573.573,0,0,0,.648.648,1.022,1.022,0,0,0,.792-.384ZM182.64-.648a2.606,2.606,0,0,0,1.224-.288,3.843,3.843,0,0,0,1.128-.984V-5.544l-2.5.888a2.3,2.3,0,0,0-1.14.816,2.286,2.286,0,0,0-.4,1.368,1.83,1.83,0,0,0,.492,1.3A1.565,1.565,0,0,0,182.64-.648Zm16.872-9.48h-1.368L193.224,2.9q-.936,2.5-2.832,2.5a3.59,3.59,0,0,1-2.376-1.008l.528-.672a2.7,2.7,0,0,0,1.8.84,1.708,1.708,0,0,0,1.164-.408,3.372,3.372,0,0,0,.828-1.368l1.056-2.832-4.1-10.08h-1.416v-.72h4.944v.72h-1.464l2.976,7.584,2.88-7.584h-1.44v-.72h3.744ZM216.5-1.872V0h-9.432V-.84q3.048-3.312,4.452-5a15.212,15.212,0,0,0,2.016-2.964,6.071,6.071,0,0,0,.612-2.664,3.946,3.946,0,0,0-.78-2.652,2.531,2.531,0,0,0-2-.9,2.37,2.37,0,0,0-2.088,1.056,5.074,5.074,0,0,0-.816,2.592h-1.3v-2.88a4.488,4.488,0,0,1,1.8-1.152,6.846,6.846,0,0,1,2.424-.432,6.361,6.361,0,0,1,2.316.432,4.149,4.149,0,0,1,1.848,1.4,4.016,4.016,0,0,1,.732,2.484,4.437,4.437,0,0,1-.576,2.172,13.816,13.816,0,0,1-1.908,2.5q-1.332,1.452-4.812,4.98Zm13.44-1.656H227.3V0h-1.9V-3.528h-6.72v-.936l6.144-11.088H227.3V-5.16h2.64ZM225.408-5.16v-9.1H225.1l-4.9,9.1Zm16.656,6.648a8.688,8.688,0,0,1-3.132-3.54,12.375,12.375,0,0,1-1.068-5.436,12.468,12.468,0,0,1,1.092-5.412,8.673,8.673,0,0,1,3.108-3.612l.36.336a7.409,7.409,0,0,0-2.052,3.408,16.319,16.319,0,0,0-.8,5.256,16.319,16.319,0,0,0,.8,5.256,7.409,7.409,0,0,0,2.052,3.408Zm6.384-1.2a7.414,7.414,0,0,1-2.748-.48,4.348,4.348,0,0,1-1.788-1.176V-4.2h1.3a4.771,4.771,0,0,0,1.08,2.868A3.009,3.009,0,0,0,248.5-.5a3.158,3.158,0,0,0,2.292-.78,2.791,2.791,0,0,0,.8-2.1,2.683,2.683,0,0,0-1.32-2.4L246-8.544a5.128,5.128,0,0,1-1.524-1.416,3.414,3.414,0,0,1-.54-1.968,3.541,3.541,0,0,1,1.26-2.844,5.2,5.2,0,0,1,3.468-1.068,6.989,6.989,0,0,1,2.46.408,4.609,4.609,0,0,1,1.788,1.152v2.9h-1.3a5.126,5.126,0,0,0-.912-2.892,2.6,2.6,0,0,0-2.04-.8,2.8,2.8,0,0,0-2.2.768,2.683,2.683,0,0,0-.684,1.848,2.284,2.284,0,0,0,1.1,2.064l4.2,2.688a6.063,6.063,0,0,1,1.884,1.716,3.62,3.62,0,0,1,.564,2,4.1,4.1,0,0,1-.6,2.2A4.063,4.063,0,0,1,251.2-.264,6.258,6.258,0,0,1,248.448.288ZM266.5-.72v.7l-3.288.168-.048-1.2a3.8,3.8,0,0,1-3.048,1.32,3.8,3.8,0,0,1-2.664-.9,3.647,3.647,0,0,1-.984-2.82v-6.672h-1.512v-.72h3.336v7.392a3.238,3.238,0,0,0,.612,2.208,2,2,0,0,0,1.548.672A3.064,3.064,0,0,0,262.32-1.2a2.462,2.462,0,0,0,.84-2.112v-6.816h-1.536v-.72h3.336V-.72Zm12.888,0V0h-4.872V-.72h1.56V-7.512a3.2,3.2,0,0,0-.564-2.016,1.91,1.91,0,0,0-1.6-.72,2.575,2.575,0,0,0-1.956.828,2.909,2.909,0,0,0-.78,2.076V-.72h1.512V0h-4.9V-.72h1.584v-9.408H267.84v-.7l3.288-.192.048,1.248a3.382,3.382,0,0,1,1.3-.972,4.37,4.37,0,0,1,1.776-.348,3.567,3.567,0,0,1,2.676.972,3.772,3.772,0,0,1,.948,2.748V-.72Zm1.248-15.792a8.688,8.688,0,0,1,3.132,3.54,12.375,12.375,0,0,1,1.068,5.436,12.468,12.468,0,0,1-1.092,5.412,8.673,8.673,0,0,1-3.108,3.612l-.36-.336a7.409,7.409,0,0,0,2.052-3.408,16.32,16.32,0,0,0,.8-5.256,16.32,16.32,0,0,0-.8-5.256,7.409,7.409,0,0,0-2.052-3.408Z" transform="translate(334.708 1181.187)" fill="#fff"/>
      <g id="Title" transform="translate(140.5 1082.163)">
        <path id="パス_57288" data-name="パス 57288" d="M25.488-31.1v8.736h-3.36L19.68-28.8H10.656v11.184h4.992V-21.36h2.88v9.888h-2.88v-3.744H10.656V-2.3H14.4V0H1.1V-2.3H4.848V-28.8H1.1v-2.3ZM53.328-2.3V0h-13.3V-2.3h3.744l-2.928-8.688H31.776L28.752-2.3H32.3V0H22.272V-2.3H25.92L36.192-31.1H39.6L49.872-2.3Zm-13.3-11.088L36.48-23.9h-.24L32.592-13.392ZM65.28-28.8V-2.3h4.656V0H54.816V-2.3h4.656V-28.8H54.816v-2.3h15.12v2.3ZM101.712-2.3V0H93.12L84.384-14.112H81.7V-2.3H85.44V0h-13.3V-2.3h3.744V-28.8H72.144v-2.3H86.592q4.944,0,7.488,2.4a7.907,7.907,0,0,1,2.544,6,8.055,8.055,0,0,1-1.632,4.992A8.8,8.8,0,0,1,90.48-14.64L98.4-2.3ZM81.7-16.416h4.368a3.755,3.755,0,0,0,3.12-1.848,7.535,7.535,0,0,0,1.3-4.44A7.248,7.248,0,0,0,89.232-27.1a3.781,3.781,0,0,0-3.168-1.7H81.7ZM103.92-2.688a3.1,3.1,0,0,1,.936-2.28,3.1,3.1,0,0,1,2.28-.936,3.1,3.1,0,0,1,2.28.936,3.1,3.1,0,0,1,.936,2.28,3.1,3.1,0,0,1-.936,2.28,3.1,3.1,0,0,1-2.28.936,3.1,3.1,0,0,1-2.28-.936A3.1,3.1,0,0,1,103.92-2.688Z" transform="translate(562.816 67.104)" fill="#fff"/>
        <path id="パス_57287" data-name="パス 57287" d="M38.8-29.88a8.072,8.072,0,0,0-4.84-4.24l-.96.68a15.344,15.344,0,0,1,2.68,5.16ZM7-24.12H28.8v20.6H6.88l-2-.4V-.88l2-.4H33.76V-26.36H7l-2-.4v3.04Zm21.24-9.12a16.672,16.672,0,0,1,2.2,5.4l3.16-1.4a7.711,7.711,0,0,0-4.2-4.6Zm48.72,16.8-33.4-1.48v5.28l33.4-1.52Zm34.28-5.84a149.62,149.62,0,0,1-1.8,17.16c-.64,3.96-1,4.44-3.36,4.56h-4.56V1.68h7.44c3.44,0,4.28-.96,5.24-6.08.96-4.72,1.6-10.92,2.08-20.12H101.04c.12-2.2.2-4.16.2-5.08v-.8c.6-.36.88-.68.88-1.08,0-.48-.4-.8-1-.84l-5.2-.28.36,2.72v.4c0,1.52-.08,3.16-.24,4.96H86.2l-1.88-.36v2.96l1.88-.36h9.64C94.96-12.04,90.68-4.68,82.8.16l.76,1.44A24.273,24.273,0,0,0,95.6-7.04c2.96-4,4.28-7.92,5.24-15.24Zm45.72,5.84-33.4-1.48v5.28l33.4-1.52Zm20.36-13.92c.64-.4.88-.72.88-1.12,0-.44-.4-.8-1-.84l-4.96-.28.32,2.72V2.08h4.76V-18.8c5.48,2.44,9.36,5.32,14.12,10.48l3.52-4.64a41.459,41.459,0,0,0-17.64-7.92Zm42.76,10.6a4.568,4.568,0,0,0-4.64,4.52,4.567,4.567,0,0,0,4.56,4.6,4.558,4.558,0,0,0,4.56-4.56A4.568,4.568,0,0,0,220.08-19.76ZM249.36.48c7.36-1.76,11.16-3.44,15.32-6.84q8.76-7.56,10.56-22.4H247.48l-2-.4v3.04l2-.4h22.08c-2.4,12.92-8.96,20.84-20.92,25.16Zm50.08,2.08h4.32V-15.08a71.954,71.954,0,0,0,5.56-5.16c.88-.08,1.24-.28,1.24-.76,0-.28-.16-.48-.6-.8l-3.52-2.48-1.12,1.76C299.64-16,292.72-10.64,286.36-7.8l.52,1.48a39.156,39.156,0,0,0,12.56-5.52Zm57.52-19-33.4-1.48v5.28l33.4-1.52ZM374,2.6a25.657,25.657,0,0,0,12.88-5.4c3.76-3.24,5.12-7.6,5.12-16.36V-30.2c.64-.44.88-.76.88-1.16a.972.972,0,0,0-1-.84l-5.04-.28.4,2.72v11.08c-.12,7.48-1.16,11-4.2,14.08A22.23,22.23,0,0,1,373.6.92Zm-6-31.68V-9.6h4.76V-29.48c.64-.48.88-.76.88-1.16a.915.915,0,0,0-1-.84l-5.04-.32Zm68.44,3.88c-6.28,11.8-14.92,18.12-28.36,20.68l-2.2-.08,1.84,4.44c.28.64.64,1,1.08,1,.52,0,.84-.28,1.16-1,8.92-2.12,14.32-4.68,19.04-8.96a31.72,31.72,0,0,0,8.96-15.44Zm-30.96-4.16a36.012,36.012,0,0,1,10.08,9.08l4.12-4.36c-3.24-3.12-7.8-5.24-13.52-6.2Zm53.64,2.4c.44-.92.76-1.64,1.32-3.04.8-.36,1.08-.64,1.08-1.12q0-.66-.96-.84l-4.8-.96-.48,2.48a35.31,35.31,0,0,1-10.52,15.68l.92,1.36a27.773,27.773,0,0,0,12.24-11.32h11.2c-1.64,6.92-5.68,14.08-10,17.68A39.267,39.267,0,0,1,445.04.44l.36,1.68c9.8-1.72,15.68-4.6,20.76-10.16,4.2-4.76,7.16-11.24,8.64-18.92ZM478.8-29.8a8.136,8.136,0,0,0-4.84-4.2l-.92.76a15.071,15.071,0,0,1,2.72,5.16Zm-10.64-3.28a17.359,17.359,0,0,1,2.36,5.48l3.08-1.44a8.108,8.108,0,0,0-4.32-4.72Zm34.2,27.24h-4.24l-1.68-.32V-3.6l1.68-.32h4.24V3.32h4.04V-3.92h4.16l1.68.32V-6.16l-1.68.32H506.4v-15.2l.04.12c2.24,8.24,5.64,14.36,9.92,17.76A53.577,53.577,0,0,1,518.8-8.2a36.05,36.05,0,0,1-11.64-15.32h9.48l1.68.32v-2.56l-1.68.32H506.4v-6.8c.52-.4.64-.6.64-.88,0-.44-.32-.64-1-.64h-3.68v8.32h-8.84l-1.68-.32v2.56l1.68-.32h7.56l-.12.32a67.81,67.81,0,0,1-10.2,19.08l1.12,1.24C495.84-6,498.96-10,502.36-16.32ZM486.2,3.32h3.96V-24.84a1.648,1.648,0,0,1,.12-.32c.68-1.68,1.24-3.28,2.12-6.08.68-.16,1-.44,1-.88a.8.8,0,0,0-.68-.76L488.28-34a85.358,85.358,0,0,1-7.08,21.92l1.24,1a46.619,46.619,0,0,0,3.76-5.44Zm70.4-30.84,1.68.32v-2.56l-1.68.32h-9.64c-.04-.92-.08-1.52-.12-3,.56-.4.68-.56.68-.84,0-.4-.28-.56-.88-.56H543c.08,2.24.08,2.76.2,4.4H523.72v4.6c0,8.76-.64,12.8-2.52,16.44l1.2,1.12c4.08-4,5.16-7.72,5.24-17.56v-2.68h15.72c.56,5.88,1.64,9.84,3.52,13.08a33.751,33.751,0,0,1-5.12,5l.84,1.2a24.274,24.274,0,0,0,5.88-3.92c1.88,2.24,5.04,4.08,7.04,4.08,1.04,0,1.8-.68,2.32-2.16a26.312,26.312,0,0,0,.96-6.12l-1.84-.24c-.44,3.4-.8,4.4-1.56,4.4a7.046,7.046,0,0,1-2.92-1.52,10.476,10.476,0,0,1-1.24-1.32A32.734,32.734,0,0,0,556-22.72c.76-.2,1.04-.4,1.04-.84a.708.708,0,0,0-.48-.64l-3.6-1.44a35.264,35.264,0,0,1-3.56,7.68c-1.04-1.88-1.96-5.8-2.28-9.56Zm-27.44,16.8h12.52v-8.72H529.16Zm3.44-1.92v-4.88h5.64v4.88Zm8.04-11.76H530.4l-1.68-.32v2.56l1.68-.32h10.24l1.68.32v-2.56ZM549.84-7a48.236,48.236,0,0,1,4.44,9.28l4.36-2.44a25.538,25.538,0,0,0-7.16-7.64ZM526.48-8a20.848,20.848,0,0,1-5.12,7.88l4.32,2.52c1.56-2.56,2.36-5.32,2.8-9.92ZM548.8-33a19.948,19.948,0,0,1,3.2,3.36l3.92-2.12c-1.64-1.08-2.96-1.52-5.88-1.88ZM531.32-8.76v7.24c-.08,2.84,1.28,4.2,4.16,4.12h9.2c2.76.04,3.96-1.08,4.12-3.88l.24-3.56-1.96-.2-.16,2.28c-.12,1.16-.52,1.56-1.72,1.56h-8.16c-1.12.04-1.64-.48-1.6-1.6V-7.36c.52-.4.64-.56.64-.84,0-.4-.28-.56-.84-.56Zm6.84.36a28.409,28.409,0,0,1,3.16,5.76l3.72-2.8a18.305,18.305,0,0,0-5.64-3.88Z" transform="translate(-4.88 67.12)" fill="#fff"/>
      </g>
      <path id="パス_57286" data-name="パス 57286" d="M.792-.864h1.92V-14.688H.792v-.864H4.9l5.28,12.024,5.088-12.024h4.008v.864h-1.92V-.864h1.92V0h-5.88V-.864h1.92v-12.12L10.176-.888h-1.1L3.744-13.08V-.864H5.592V0H.792Zm26.808,0V0H20.856V-.864h2.352V-14.688H20.952v-.864H27.5v.864H25.248V-.864Zm1.584,0H31.1V-14.688h-1.92v-.864H33.1L40.32-3.888v-10.8H38.4v-.864h4.872v.864h-1.92V0h-1.1L32.136-13.224V-.864h1.92V0H29.184Zm22.176,0V0H44.616V-.864h2.352V-14.688H44.712v-.864h6.552v.864H49.008V-.864ZM68.032-16.24l-.6.62c-1.2.1-2.06.14-4.3.18l-1.26-.42.12,1.32c.7.02,1.22.04,1.56.04,1,0,2.3-.06,3.92-.2-.82,2.54-1.24,3.7-2.02,5.78a9.228,9.228,0,0,0-2.44.4,4.8,4.8,0,0,0-3.66,4.56c0,1.7,1.02,3,2.36,3a3.226,3.226,0,0,0,2.56-1.74,29.275,29.275,0,0,0,2.5-5.18,19.231,19.231,0,0,1,5.92,1.24c-.74,3.66-2.06,5.64-4.84,7.26l.26.5a8.231,8.231,0,0,0,4.34-2.74,9.871,9.871,0,0,0,1.86-4.36c.98.46,1.38.66,2.34,1.2l.58-1.36a19.828,19.828,0,0,0-2.66-1.18c.14-.84.2-1.24.3-2.18.26-.16.36-.3.36-.46s-.16-.3-.46-.36l-1.64-.38.02.86c-.1,1.02-.12,1.12-.24,2a27.881,27.881,0,0,0-5.76-1.04c.9-2.36,1.16-3.08,2.02-5.58.4-.24.56-.44.56-.66a.521.521,0,0,0-.3-.42Zm-3.22,8.96c-1.7,3.98-2.42,5.12-3.26,5.12-.56,0-1.02-.7-1.02-1.58a4.031,4.031,0,0,1,2.16-3.4,5.875,5.875,0,0,1,2.36-.68Zm19.2-6.64c-1.7,0-2.4-.04-3.48-.1l-1.08-.46.1,1.36c1.44.1,2.14.12,3.38.12h.78a44.192,44.192,0,0,1-4.54,9.82l1.52.98a53.133,53.133,0,0,0,4.82-10.86c1.52-.06,3.18-.2,4.84-.42l.06-1.42-1.24.62c-1.42.16-2.24.24-3.34.3a2.378,2.378,0,0,1,.08-.28c.06-.18.24-.72.42-1.3.3-.2.36-.3.36-.44a.323.323,0,0,0-.28-.32l-1.76-.34-.16,1.02c-.1.4-.18.7-.22.84l-.24.82ZM96.772-2.06a12.213,12.213,0,0,0-4.88-2.66V-8.46c.32-.22.4-.3.4-.44,0-.2-.18-.32-.48-.32l-1.58-.02.06,1.48v2.72a10.78,10.78,0,0,0-1.76-.14c-2.6,0-4.16,1.12-4.16,3,0,1.9,1.86,3.28,4.42,3.28a3.04,3.04,0,0,0,2.82-1.2,3.033,3.033,0,0,0,.28-1.5V-3.26a13.214,13.214,0,0,1,3.7,2.7Zm-6.48.38c0,.96-.56,1.42-1.74,1.42-1.84,0-3.2-.86-3.2-2.04a1.371,1.371,0,0,1,.36-.92,3.444,3.444,0,0,1,2.5-.74,7.347,7.347,0,0,1,2.08.28Zm6.72-9.88a9.912,9.912,0,0,0-3.92-.64,10.034,10.034,0,0,0-3.52.52l.04.56a14.914,14.914,0,0,1,6.28,1.2Zm9.84-3.98c.24-.2.32-.34.32-.5a.374.374,0,0,0-.38-.34h-1.98l.34,1.2,1.26,6.08a18.048,18.048,0,0,0-2.48,1.48c-1.96,1.4-2.8,2.66-2.8,4.18a3.571,3.571,0,0,0,2.4,3.4,14.77,14.77,0,0,0,5.58.74,38.1,38.1,0,0,0,5.68-.34V-1.58a30.144,30.144,0,0,1-5.86.54c-4.52,0-6.44-.74-6.44-2.52,0-2.38,3.62-4.54,11.54-6.92a1.108,1.108,0,0,0,.54.18.364.364,0,0,0,.34-.32.691.691,0,0,0-.06-.24l-.7-1.62-.7.52c-1.56.6-3.06,1.16-4.48,1.72-.4.16-.68.26-.98.4Zm21.18-.7-.6.62c-1.2.1-2.06.14-4.3.18l-1.26-.42.12,1.32c.7.02,1.22.04,1.56.04,1,0,2.3-.06,3.92-.2-.82,2.54-1.24,3.7-2.02,5.78a9.228,9.228,0,0,0-2.44.4,4.8,4.8,0,0,0-3.66,4.56c0,1.7,1.02,3,2.36,3a3.226,3.226,0,0,0,2.56-1.74,29.275,29.275,0,0,0,2.5-5.18,19.231,19.231,0,0,1,5.92,1.24c-.74,3.66-2.06,5.64-4.84,7.26l.26.5a8.231,8.231,0,0,0,4.34-2.74,9.871,9.871,0,0,0,1.86-4.36c.98.46,1.38.66,2.34,1.2l.58-1.36a19.827,19.827,0,0,0-2.66-1.18c.14-.84.2-1.24.3-2.18.26-.16.36-.3.36-.46s-.16-.3-.46-.36l-1.64-.38.02.86c-.1,1.02-.12,1.12-.24,2a27.882,27.882,0,0,0-5.76-1.04c.9-2.36,1.16-3.08,2.02-5.58.4-.24.56-.44.56-.66a.521.521,0,0,0-.3-.42Zm-3.22,8.96c-1.7,3.98-2.42,5.12-3.26,5.12-.56,0-1.02-.7-1.02-1.58a4.031,4.031,0,0,1,2.16-3.4,5.875,5.875,0,0,1,2.36-.68Zm18.2,3.14a8.23,8.23,0,0,1,1.88-2.18,8.045,8.045,0,0,1,5.08-1.84c2.26,0,3.66,1.16,3.66,3.02s-1.36,3.36-3.88,4.34a22.627,22.627,0,0,1-4.96,1.18l.08.68c3.54-.24,5.02-.46,6.56-1.04,2.7-1.02,4.2-2.8,4.2-5.02a3.865,3.865,0,0,0-1.18-2.84,5.931,5.931,0,0,0-4.18-1.36,8.929,8.929,0,0,0-6.8,2.9l.46-6.04c.28-.2.38-.32.38-.5s-.14-.32-.38-.34l-1.86-.2.14,1.04-.54,8.2Zm1.22-11.48a16.526,16.526,0,0,1,6.5,2.14l1.44-1.68a9.421,9.421,0,0,0-1.9-.66,19.565,19.565,0,0,0-4.28-.52c-.44,0-.84.02-1.7.06ZM166.692-4.4c-.46,1.82-1.08,3.04-1.56,3.04-.46,0-1.18-.94-1.74-2.22-.74-1.76-1.12-4.58-1.12-8.56v-1.28c.34-.24.44-.36.44-.56s-.2-.34-.5-.36l-1.8-.12.1,1.2c.02,2.58.04,3.96.04,4.14a18.829,18.829,0,0,0,1.2,6.3c.86,2.08,1.94,3.18,3.08,3.18,1.12,0,2.1-1.6,2.74-4.48Zm10.32.16c-.66-3.88-2.64-7.48-5.12-9.34l-.5.38a24.36,24.36,0,0,1,3.7,9.82Z" transform="translate(387.708 1102.043)" fill="#fff"/>
    </g>
  </g>
</svg>
