<svg xmlns="http://www.w3.org/2000/svg" width="648.604" height="99.992" viewBox="0 0 648.604 99.992">
  <g id="family-tit" transform="translate(45 -4871.528)">
    <path id="パス_57285" data-name="パス 57285" d="M-305.844,1.892V-34.056h-28.908V2.156h3.916V-.572h21.076V1.892ZM-330.836-18.7V-32.3h21.076v13.6Zm0,1.76h21.076V-2.332h-21.076Zm63.008,6.292h6.16v6.732c-.044,1.408-.484,1.848-1.848,1.892h-2.024V-.176h3.52c2.64,0,3.784-1.056,3.74-3.52v-8.712h-9.548v-4.84h9.152a19.745,19.745,0,0,1-1.5,3.872l1.1.616c2.684-2.2,3.828-3.7,4.752-6.248H-279.4v-.308a4.648,4.648,0,0,0-.088-1.144H-280.9a10.47,10.47,0,0,1-3.3,6.6l2.332,2.684a8.546,8.546,0,0,0,2.376-6.072h8.36v4.84h-8.932V-.132h3.3V-10.648h5.632V3.52h3.3Zm6.292-17.424V-24.2h-16.72l-1.76-.352v2.464l1.76-.352H-258.1V-35.112h-20.2l-1.716-.352V-33l1.716-.352h16.764v3.52h-16.72l-1.76-.352v2.464l1.76-.352ZM-293.964,2.244C-286.176-4-284.2-9.46-284.24-24.288V-35.244c.528-.352.7-.572.7-.88,0-.4-.308-.572-.968-.572h-3.036v12.408c.088,13.024-1.584,19.008-7.26,25.564Zm1.892-16.28c1.32-2.992,1.716-5.28,1.716-9.944,0-1.672-.044-2.992-.22-5.632H-292.2c-.352,5.5-1.1,9.284-2.6,12.848Zm57.992,16.72A27.2,27.2,0,0,0-228.1,1.408,18.854,18.854,0,0,0-218.548-5.5c1.936-2.9,2.684-6.644,2.684-13.068,0-3.388-.088-11.88-.132-14.784.528-.484.748-.792.748-1.188,0-.44-.4-.7-1.012-.748l-4.268-.352.308,2.376c.264,4.532.352,9.02.352,14.828,0,7.92-1.232,11.4-5.324,15-2.6,2.288-4.84,3.432-9.152,4.708Zm-7.612-35.156c-.528,6.336-.66,9.284-.66,12.892,0,7.04,1.276,10.208,4.048,10.208,2.684,0,5.368-3.432,7.084-9.064l-1.584-.7c-2.2,4.752-3.344,6.38-4.4,6.38-.88,0-1.364-2.288-1.364-6.644a111.349,111.349,0,0,1,.7-12.584c.66-.528.88-.836.88-1.232s-.308-.66-.748-.748l-4-.528Zm77.836,17.292c.572,0,.968-.264.968-.616,0-.176-.132-.4-.572-.748l-2.42-1.98a47.088,47.088,0,0,1-4.884,6.732,34.739,34.739,0,0,1-1.716-8.492l.132-.088c1.5-.528,2.376-.924,5.5-2.332a4.932,4.932,0,0,0,1.056.132c.528,0,1.056-.352,1.056-.7a1.485,1.485,0,0,0-.484-.88l-2.464-2.112a69.481,69.481,0,0,1-19.052,7.92l.4,1.364c2.684-.44,3.828-.66,5.148-.924V2.948h3.476V-18.7c1.232-.308,2.9-.792,3.74-1.056l.088,1.188c.572,10.384,2.992,16.412,8.668,21.78a17.158,17.158,0,0,1,2.42-3.3c-2.9-2.156-5.764-6.16-7.524-10.472a27.717,27.717,0,0,0,6.072-4.62Zm-1.452-13.376,1.76.352v-2.464l-1.76.352h-15c.572-1.188.924-2.024,1.716-3.96.924-.22,1.32-.528,1.32-1.1,0-.352-.4-.7-.88-.836l-3.652-.748c-1.76,6.556-3.388,10.516-6.072,14.652l.924.748a33.766,33.766,0,0,0,5.676-7Zm-32.736,1.276v1.54c-.176,14.916-1.584,22.4-5.236,28.072l.836.748c4.576-3.916,6.952-10.824,7.568-21.648h3.96a157.7,157.7,0,0,1-1.188,16.5c-.264,2.728-.572,3.212-2.2,3.256h-2.948V3.036h4.62c1.848,0,2.772-.528,3.344-1.76.616-1.672,1.188-6.908,1.5-15l.264-4.752c0-.176,0-.836.044-1.848h-7.3c.088-2.112.132-3.96.132-5.412v-1.54h6.38l1.76.352v-2.464l-1.76.352h-4.8v-6.2c.572-.4.7-.572.7-.88,0-.4-.308-.572-.924-.572h-3.388v7.656h-4.62l-1.76-.352v2.464l1.76-.352Zm74.184,7.48h5.06l1.76.352v-2.464l-1.76.352h-21.516l-1.76-.352v2.464l1.76-.352h12.584V-.924c0,1.408-.616,2.024-1.98,2.024h-4.8V2.948h6.644c2.816,0,4.048-1.144,4-3.828ZM-151.008,3.256h3.652V-19.316c.968-1.232,1.54-1.936,2.992-3.872,1.144-.088,1.54-.308,1.54-.924,0-.264-.176-.484-.528-.7l-3.08-2.024A68.98,68.98,0,0,1-157.52-12.012l.748,1.1a52.416,52.416,0,0,0,5.764-4.576Zm13.42-35.684h16.544l1.76.352v-2.552l-1.76.352h-16.544l-1.76-.352v2.552ZM-156.244-25.7a39.507,39.507,0,0,0,11-7.48,3.116,3.116,0,0,0,1.188-.132.693.693,0,0,0,.528-.616c0-.22-.132-.44-.484-.7l-3.08-2.332a47.161,47.161,0,0,1-9.9,10.164Zm84.788,4.84a8.811,8.811,0,0,0-5.192-4.576l-.7.66a17.033,17.033,0,0,1,2.948,5.5Zm-11.088-3.3a19.043,19.043,0,0,1,2.684,6.072l2.948-1.408a8.652,8.652,0,0,0-4.84-5.236Zm-28.116-8.272.308,3.036,26.708-1.056a.84.84,0,0,1-.352.132,23.4,23.4,0,0,0-6.952,3.652c-4.224,3.3-6.292,7.348-6.292,12.32A13.967,13.967,0,0,0-91.872-2.9C-89.1-.7-86.768.22-81.752,1.144l1.672-4.576c-4.532-.484-6.6-1.188-9.064-2.992a10.383,10.383,0,0,1-4.312-8.932c0-6.028,3.476-10.692,10.032-13.42a25.78,25.78,0,0,1,9.416-1.936l.22-3.08-2.9,1.056-31.416,1.1Zm63.888,28.6c-1.672.308-2.508.4-5.016.7l.88,3.212c.176.66.4.924.748.924.4,0,.616-.264.924-1.012A62.9,62.9,0,0,0-36.828-4.928l-.44-1.144c-2.86.836-3.872,1.056-6.2,1.584V-16.456h2.6l1.76.352v-2.464l-1.76.352H-49.5l-1.76-.352V-16.1l1.76-.352h2.728Zm-2.9-23.8-1.76-.352v2.464l1.76-.352h11.7c.572,9.856,1.364,15.356,2.9,20.2,1.584,4.84,4.444,8.712,6.468,8.712,1.012,0,1.848-1.144,2.2-2.992a54.307,54.307,0,0,0,.836-8.316l-1.716-.352c-.4,5.94-.66,7.568-1.232,7.568s-2.068-2.6-2.992-5.28c-1.628-4.532-2.464-10.032-3.036-19.536h6.732l1.76.352v-2.464l-1.76.352h-6.82c-.132-1.76-.176-3.652-.176-5.94v-1.672c.572-.4.7-.572.7-.88,0-.4-.308-.572-.924-.572h-3.212v3.124c0,1.012.044,3.344.176,5.94ZM-61.116.308h4.752V1.936h2.992V-10.692H-64.108v13.2h2.992Zm0-1.628V-9.064h4.752V-1.32Zm28.028-33.22a45.728,45.728,0,0,1,3.08,5.5l2.992-2.376a21.74,21.74,0,0,0-5.1-3.872Zm-22.088-.44h-7.172l-1.76-.352v2.552l1.76-.352h7.172l1.76.352v-2.552Zm1.1,6.072H-64.24L-66-29.26v2.552l1.76-.352h10.164l1.716.352V-29.26Zm-1.1,6.072h-7.172l-1.76-.352v2.552l1.76-.352h7.172l1.76.352v-2.552Zm0,6.072h-7.172l-1.76-.352v2.552l1.76-.352h7.172l1.76.352v-2.552Zm51.92,6.116A47.237,47.237,0,0,1-20.24.616l.308,1.232C-12.5-.088-5.94-3.344-2.024-7.084V3.476H1.364V-9.5A30.751,30.751,0,0,0,18.612,1.584,17.528,17.528,0,0,1,20.24-2.024c-7-1.276-14.916-5.06-18.172-8.624H16.5l1.76.352V-12.76l-1.76.352H11.836v-6.2H18.26l1.76.352v-2.464l-1.76.352H11.836v-5.852H16.5l1.76.352v-2.464l-1.76.352H1.364V-32.12l1.892-.132a62.67,62.67,0,0,0,6.732-.66c1.188-.132,2.376-.264,3.608-.44a3.848,3.848,0,0,0,1.32.352.9.9,0,0,0,.968-.792c0-.22-.132-.4-.4-.616L12.452-36.74c-4.928,1.408-17.512,2.992-29.7,3.784L-17.2-31.5c2.948.044,3.3.044,4.18.044,3.256,0,5.764-.088,8.184-.22l1.408-.088c.132-.044.66-.044,1.408-.088v3.872h-14.52l-1.716-.352v2.464l1.716-.352h4.268v5.852H-18.26l-1.76-.352v2.464l1.76-.352h5.984v6.2h-4.268l-1.716-.352V-10.3l1.716-.352ZM8.4-12.408H1.364v-6.2H8.4Zm0-7.964H1.364v-5.852H8.4ZM-8.844-26.224h6.82v5.852h-6.82Zm0,7.612h6.82v6.2h-6.82ZM46.9-26.884l-.572-7.04c.528-.44.748-.7.748-1.056,0-.484-.4-.792-1.012-.792H41.756l.528,2.464.528,6.688-12.1.792-1.76-.264.176,2.728,1.716-.44L42.988-24.6l.924,11.176-15.84,1.012-1.76-.22L26.488-9.9l1.716-.484L44.088-11.4l1.188,14.08,4.092-.264L48.18-11.66l15-.924,1.98.22-.22-2.772-1.892.484L48-13.684,47.08-24.86l12.848-.792,1.98.264L61.732-28.2l-1.936.528ZM89.5-16.764l11.528-1.54a19.926,19.926,0,0,1-7.3,9.416l.66,1.012c6.028-2.376,10.692-7.612,11.66-13.068l-16.764,2.2-.7-5.852c.484-.4.66-.66.66-.924a.673.673,0,0,0-.748-.66h-4l.352,2.244.66,5.676-6.952.924L76.6-17.424l.352,2.728,1.848-.616,6.952-.924L88,3.124l3.784-.484Zm66.176-10.78a43.675,43.675,0,0,1-11.22,14.256c-5.852,4.752-10.868,7-20.2,8.932l-2.332.044L123.508-.4c.264.616.66.968,1.1.968.484,0,.836-.308,1.144-1.012,9.944-2.244,16.192-5.236,21.6-10.34A37.087,37.087,0,0,0,156.9-26.972Zm-34.144-4.8a41.364,41.364,0,0,1,10.956,9.416l3.608-3.652a27.153,27.153,0,0,0-14.036-6.908ZM203.236-4.224C197.208-10.3,186.78-22,181.72-28.468c-2.024-2.6-2.816-3.344-3.608-3.344-.748,0-1.76.792-2.948,2.332-5.28,6.512-7.216,8.8-10.164,11.968l-2.2,1.848,2.464,3.344c.308.44.572.616.88.616.528,0,.792-.4.836-1.232,4.048-5.808,9.108-12.936,10.252-14.432.484-.66.836-1.012,1.012-1.012s.528.308.88.836A280.533,280.533,0,0,0,200.112-.484Zm-4.444-32.6a4.471,4.471,0,0,0-4.532,4.4A4.469,4.469,0,0,0,198.7-27.94a4.46,4.46,0,0,0,4.444-4.444A4.442,4.442,0,0,0,198.792-36.828Zm-.132,1.76a2.7,2.7,0,0,1,2.728,2.684A2.667,2.667,0,0,1,198.7-29.7a2.7,2.7,0,0,1-2.684-2.684A2.716,2.716,0,0,1,198.66-35.068Zm48.8,17.292-36.74-1.364v4.62l36.74-1.32Zm45.5-9.768a43.675,43.675,0,0,1-11.22,14.256c-5.852,4.752-10.868,7-20.2,8.932l-2.332.044L260.788-.4c.264.616.66.968,1.1.968.484,0,.836-.308,1.144-1.012,9.944-2.244,16.192-5.236,21.6-10.34a37.087,37.087,0,0,0,9.548-16.192Zm-34.144-4.8a41.364,41.364,0,0,1,10.956,9.416l3.608-3.652a27.153,27.153,0,0,0-14.036-6.908Zm48.268,22.088a6.893,6.893,0,0,0-7,6.82,6.9,6.9,0,0,0,6.908,6.952,6.911,6.911,0,0,0,6.864-6.908A6.943,6.943,0,0,0,307.076-10.252ZM306.9-8.228a4.865,4.865,0,0,1,4.928,4.8,4.874,4.874,0,0,1-4.84,4.928A4.9,4.9,0,0,1,302.1-3.388,4.9,4.9,0,0,1,306.9-8.228Z" transform="translate(289.752 4968)" fill="#fff"/>
    <path id="パス_57284" data-name="パス 57284" d="M-186.752-2.3h5.12V-39.168h-5.12v-2.3h10.944l14.08,32.064,13.568-32.064h10.688v2.3h-5.12V-2.3h5.12V0h-15.68V-2.3h5.12v-32.32l-13.7,32.256h-2.944L-178.88-34.88V-2.3h4.928V0h-12.8Zm71.488,0V0h-17.984V-2.3h6.272V-39.168h-6.016v-2.3h17.472v2.3h-6.016V-2.3Zm4.224,0h5.12V-39.168h-5.12v-2.3h10.432l19.264,31.1v-28.8h-5.12v-2.3h12.992v2.3h-5.12V0h-2.944l-21.632-35.264V-2.3h5.12V0H-111.04Zm59.136,0V0H-69.888V-2.3h6.272V-39.168h-6.016v-2.3H-52.16v2.3h-6.016V-2.3ZM-.832-41.472v11.136H-3.264l-3.392-8.832H-21.44V-23.1h10.048v-4.928h2.944v12.288h-2.944v-4.928H-21.44V-2.3h5.5V0H-32V-2.3h5.12V-39.168H-32v-2.3ZM35.776-2.3V0H20.928V-2.3H25.6L20.992-15.3H7.232L2.624-2.3H7.3V0H-4.672V-2.3H-.128L14.016-41.472h3.008L31.232-2.3ZM20.1-17.728,14.208-34.3h-.256L8.064-17.728ZM38.592-2.3h5.12V-39.168h-5.12v-2.3H49.536L63.616-9.408,77.184-41.472H87.872v2.3h-5.12V-2.3h5.12V0H72.192V-2.3h5.12v-32.32L63.616-2.368H60.672L46.464-34.88V-2.3h4.928V0h-12.8Zm71.488,0V0H92.1V-2.3h6.272V-39.168H92.352v-2.3h17.472v2.3h-6.016V-2.3Zm4.224,0h5.12V-39.168H114.3v-2.3h15.872v2.3h-5.312V-2.3H139.84l3.392-8.96h2.432V0H114.3Zm51.2-16.512V-2.3h5.632V0h-16.7V-2.3h5.632V-17.152L149.12-39.168H144v-2.3h16.256v2.3h-5.12l8.832,17.984,9.216-17.984h-5.12v-2.3h13.12v2.3h-5.12ZM182.144.7a3.7,3.7,0,0,1-2.72-1.12,3.7,3.7,0,0,1-1.12-2.72,3.7,3.7,0,0,1,1.12-2.72,3.7,3.7,0,0,1,2.72-1.12,3.7,3.7,0,0,1,2.72,1.12,3.7,3.7,0,0,1,1.12,2.72,3.7,3.7,0,0,1-1.12,2.72A3.7,3.7,0,0,1,182.144.7Z" transform="translate(279.752 4913)" fill="#fff"/>
  </g>
</svg>
