<svg xmlns="http://www.w3.org/2000/svg" width="900.636" height="104.468" viewBox="0 0 900.636 104.468">
  <g id="paul-tit" transform="translate(161 -22.596)">
    <path id="パス_57291" data-name="パス 57291" d="M-246.928-2.288c-.088,1.848-.7,2.42-2.552,2.464h-4.576V2.2h7.216a4.265,4.265,0,0,0,2.86-.836,3.883,3.883,0,0,0,1.1-2.64v-.7l-.528-22.616h9.724l1.76.352v-2.728l-1.76.352h-9.768l-.176-7.128c.572-.44.748-.7.748-1.056,0-.44-.4-.748-1.1-.748l-4.092-.22.44,2.948.132,6.2h-19.932l-1.76-.352v2.728l1.76-.352h17.292l-.088.132C-254.76-15.488-262.2-7.48-270.028-3.08l.572,1.056c9.152-3.432,15-8.448,22.088-19.008Zm59.4-25.256a43.675,43.675,0,0,1-11.22,14.256c-5.852,4.752-10.868,7-20.2,8.932l-2.332.044L-219.692-.4c.264.616.66.968,1.1.968.484,0,.836-.308,1.144-1.012,9.944-2.244,16.192-5.236,21.6-10.34A37.087,37.087,0,0,0-186.3-26.972Zm-34.144-4.8a41.364,41.364,0,0,1,10.956,9.416l3.608-3.652a27.153,27.153,0,0,0-14.036-6.908Zm73.744-1.276H-172.3l-1.936-.4V-31.2l1.936-.4h24.376l1.936.4v-2.816Zm-27.764,10.164-1.936-.4v2.816l1.936-.4h27.456c-1.848,10.648-9.988,18.392-22.792,21.56l.308,1.452c15.84-1.672,26.048-11,27.456-25.036Zm66.132-.132a113.121,113.121,0,0,0,9.372-8.272c1.188-.132,1.672-.44,1.672-1.056a1.364,1.364,0,0,0-.7-1.012l-3.388-2.244-1.584,2.376a85.6,85.6,0,0,1-28.864,20.02l.484,1.32a58.033,58.033,0,0,0,18.92-8.184V2.332h4.092Zm59.312-3.96a43.675,43.675,0,0,1-11.22,14.256c-5.852,4.752-10.868,7-20.2,8.932L-84-4.312-82.412-.4c.264.616.66.968,1.1.968.484,0,.836-.308,1.144-1.012,9.944-2.244,16.192-5.236,21.6-10.34a37.087,37.087,0,0,0,9.548-16.192Zm-34.144-4.8a41.364,41.364,0,0,1,10.956,9.416l3.608-3.652a27.153,27.153,0,0,0-14.036-6.908ZM-18.128-2.288c-.088,1.848-.7,2.42-2.552,2.464h-4.576V2.2h7.216a4.265,4.265,0,0,0,2.86-.836,3.883,3.883,0,0,0,1.1-2.64v-.7L-14.608-24.6h9.724l1.76.352v-2.728l-1.76.352h-9.768l-.176-7.128c.572-.44.748-.7.748-1.056,0-.44-.4-.748-1.1-.748l-4.092-.22.44,2.948.132,6.2H-38.632l-1.76-.352v2.728l1.76-.352H-21.34l-.088.132C-25.96-15.488-33.4-7.48-41.228-3.08l.572,1.056c9.152-3.432,15-8.448,22.088-19.008ZM41.536-17.776,4.8-19.14v4.62l36.74-1.32ZM52.492,2.64c8.052-1.232,14.872-4.356,20.064-9.2,5.5-4.84,10.3-13.992,12.1-23.1H66.616l.044-.132.792-1.76c.044-.132.22-.572.484-1.232.792-.352,1.1-.7,1.1-1.188,0-.4-.308-.66-.968-.792l-4.048-.924-.352,2.156a43.337,43.337,0,0,1-12.1,18.92L52.4-13.6A32.405,32.405,0,0,0,65.56-27.5l.088-.132H79.9a39.455,39.455,0,0,1-5.852,13.464,23.326,23.326,0,0,0-11.352-5.5l-.748,1.144c2.816,1.232,6.028,3.828,9.592,7.744Q64.416-2.4,52.1,1.232ZM89.32-32.56a8.878,8.878,0,0,0-5.148-4.576l-.7.66a17.475,17.475,0,0,1,2.9,5.5Zm-11-3.652a18.953,18.953,0,0,1,2.552,5.72L83.864-31.9a8.647,8.647,0,0,0-4.752-4.884Zm54.736,18.436L96.316-19.14v4.62l36.74-1.32Zm12.5-5.192a11.493,11.493,0,0,0-.088-1.936h-1.452a11.387,11.387,0,0,1-4.092,7.128l2.464,3.344a9.441,9.441,0,0,0,3.036-6.776h29.92a20.579,20.579,0,0,1-2.508,4.884l1.32.7c3.432-2.552,5.28-4.708,6.248-7.348H169.092a28.334,28.334,0,0,0,4.84-5.764c.836-.088,1.32-.4,1.32-.836,0-.308-.22-.572-.7-.748l-3.784-1.54a33.656,33.656,0,0,1-3.608,8.888ZM140.316,3.564c8.536-1.32,14.96-3.3,19.932-6.292,5.72,3.256,10.472,4.8,18.216,5.984A29.391,29.391,0,0,1,180.4-.66a46.087,46.087,0,0,1-16.984-4.092A42.293,42.293,0,0,0,173.58-15.576H147.356l-1.76-.352v2.464l1.76-.352h2.772a23.6,23.6,0,0,0,7.3,9.2A62.583,62.583,0,0,1,139.92,2.112ZM151.8-13.816h15.972a36.9,36.9,0,0,1-7.656,7.436c-3.872-2.156-6.644-4.62-8.228-7.348Zm-4.576-16.676a29.894,29.894,0,0,1,2.552,6.952l3.872-1.76a15.481,15.481,0,0,0-5.456-5.632Zm-3.916-1.144a278.1,278.1,0,0,0,31.328-1.76,4.013,4.013,0,0,0,1.364.352c.484,0,.968-.352.968-.7a1.087,1.087,0,0,0-.352-.66l-2.684-2.552c-4.136,1.32-19.712,3.3-30.668,3.872Zm13.64,1.012a43.553,43.553,0,0,1,3.3,6.952L163.9-25.7a17.881,17.881,0,0,0-6.028-5.412Zm59,6.38V-.88c0,1.452-.616,2.068-2.068,2.068h-5.368V3.036h7.216c2.86,0,4.136-1.144,4.092-3.872V-24.244H224.4l1.76.352v-2.464L224.4-26h-4.576v-8.932c.572-.44.7-.572.7-.88,0-.4-.308-.572-.968-.572h-3.608V-26H200.376l-1.716-.352v2.464l1.716-.352Zm-23.76,27.5h3.652v-30.1c.924-2.112,1.848-4.356,2.948-7.3.7-.176,1.056-.44,1.056-.924,0-.308-.308-.616-.748-.748l-3.916-1.144a87.454,87.454,0,0,1-9.5,23.848l1.012.792a46.9,46.9,0,0,0,5.5-7.436Zm9.152-20.768a68.527,68.527,0,0,1,5.456,9.46l3.784-2.728a29.09,29.09,0,0,0-8.228-7.568Zm52.1-10.912v-6.82c.572-.4.7-.572.7-.88,0-.4-.308-.572-.924-.572h-3.608v8.272H233.6V-7.48h3.828v-2.86h12.188v13.6h3.828v-13.6h12.54v2.508h3.828V-28.424Zm0,1.76h12.54V-12.1H253.44ZM249.612-12.1H237.424V-26.664h12.188Z" transform="translate(289.028 123.5)" fill="#fff"/>
    <path id="パス_57290" data-name="パス 57290" d="M-422.62-2.112V0h-12.188V-2.112h3.432l-2.684-7.964h-8.316l-2.772,7.964h3.256V0h-9.2V-2.112h3.344l9.416-26.4h3.124l9.416,26.4Zm-12.188-10.164-3.256-9.636h-.22l-3.344,9.636Zm12.892,10.384h2.728v-26.18h-3.036v-1.8l7.964-.528V-1.892h2.728V0h-10.384Zm12.1,0h2.728v-26.18h-3.036v-1.8l7.964-.528V-1.892h2.728V0h-10.384Zm13.024-10.824h10.032v2.552h-10.032Zm35.464,4.708V0h-22.7V-2.112h3.432V-26.4h-3.432v-2.112h22.352V-20.5h-3.08L-367-26.4h-8.272v10.252h4.576V-19.58h2.64v9.064h-2.64v-3.432h-4.576V-2.112h8.668l2.2-5.9Zm3.08,6.116h2.728v-26.18h-3.036v-1.8l7.964-.528V-1.892h2.728V0h-10.384Zm22.352-18.48a7.666,7.666,0,0,1,5.94,2.4,9.3,9.3,0,0,1,2.2,6.534,8.754,8.754,0,0,1-.044,1.012h-12.716a11.454,11.454,0,0,0,1.8,5.874,4.645,4.645,0,0,0,3.916,2.31A4.8,4.8,0,0,0-331.584-3.5a5.814,5.814,0,0,0,1.892-3.234h1.892a8.535,8.535,0,0,1-2.86,5.28A8.358,8.358,0,0,1-336.248.484a8.639,8.639,0,0,1-4.73-1.3,8.724,8.724,0,0,1-3.19-3.652,12.181,12.181,0,0,1-1.144-5.39,12.144,12.144,0,0,1,1.188-5.5,8.935,8.935,0,0,1,3.322-3.7A9.133,9.133,0,0,1-335.9-20.372Zm-.44,1.892a3.359,3.359,0,0,0-2.9,1.628,8.864,8.864,0,0,0-1.276,4.444h7.744a8.714,8.714,0,0,0-.88-4.488A2.938,2.938,0,0,0-336.336-18.48Zm20.9,18.964a8.639,8.639,0,0,1-4.73-1.3,8.781,8.781,0,0,1-3.19-3.608A11.591,11.591,0,0,1-324.5-9.636a12.385,12.385,0,0,1,1.122-5.192,9.773,9.773,0,0,1,3.3-4,8.723,8.723,0,0,1,5.17-1.54,12.54,12.54,0,0,1,4.18.726,8.226,8.226,0,0,1,3.124,1.782v4.092h-3.52a5.666,5.666,0,0,0-1.232-3.542,3.284,3.284,0,0,0-2.464-1.122,3.925,3.925,0,0,0-3.74,1.98,10.552,10.552,0,0,0-1.1,5.148,14.994,14.994,0,0,0,.594,4.2,8.325,8.325,0,0,0,1.8,3.366,3.873,3.873,0,0,0,2.97,1.32,4.923,4.923,0,0,0,3.344-1.144A6.092,6.092,0,0,0-309.1-6.732h1.936a9.354,9.354,0,0,1-2.706,5.148A7.661,7.661,0,0,1-315.436.484Zm24.552-2.068a9.067,9.067,0,0,1-2.6,1.628,7.688,7.688,0,0,1-2.684.44,6.72,6.72,0,0,1-4.708-1.5A5.621,5.621,0,0,1-302.5-5.368V-18h-1.936v-1.5l5.456-5.456h1.408v5.06h6.292V-18h-6.292V-5.28q0,3.388,2.64,3.388a4.518,4.518,0,0,0,2.86-1.144Zm14.432-18.788a5.689,5.689,0,0,1,1.65.22,11.413,11.413,0,0,1,1.562.616v5.28H-276.5a3.152,3.152,0,0,0-.726-2,2.009,2.009,0,0,0-1.518-.682,2.6,2.6,0,0,0-2.288,1.562,7.843,7.843,0,0,0-.88,3.894v9.592h3.608V0h-11.264V-1.892h2.728V-18h-2.728v-1.8l7.524-.44.132,3.564a6.237,6.237,0,0,1,2.178-2.706A5.619,5.619,0,0,1-276.452-20.372Zm4.708,18.48h3.388V-18h-3.08v-1.8l8.008-.528V-1.892H-260V0h-11.748Zm2.684-24.288a2.968,2.968,0,0,1,.9-2.178,2.968,2.968,0,0,1,2.178-.9,2.968,2.968,0,0,1,2.178.9,2.968,2.968,0,0,1,.9,2.178A2.968,2.968,0,0,1-263.8-24a2.968,2.968,0,0,1-2.178.9,2.968,2.968,0,0,1-2.178-.9A2.968,2.968,0,0,1-269.06-26.18ZM-248.6.484a8.639,8.639,0,0,1-4.73-1.3,8.781,8.781,0,0,1-3.19-3.608,11.591,11.591,0,0,1-1.144-5.214,12.385,12.385,0,0,1,1.122-5.192,9.773,9.773,0,0,1,3.3-4,8.723,8.723,0,0,1,5.17-1.54,12.54,12.54,0,0,1,4.18.726,8.226,8.226,0,0,1,3.124,1.782v4.092h-3.52a5.666,5.666,0,0,0-1.232-3.542,3.284,3.284,0,0,0-2.464-1.122,3.925,3.925,0,0,0-3.74,1.98,10.552,10.552,0,0,0-1.1,5.148,15,15,0,0,0,.594,4.2,8.326,8.326,0,0,0,1.8,3.366,3.873,3.873,0,0,0,2.97,1.32,4.922,4.922,0,0,0,3.344-1.144,6.092,6.092,0,0,0,1.848-3.168h1.936a9.354,9.354,0,0,1-2.706,5.148A7.661,7.661,0,0,1-248.6.484Zm22.044-2.6h3.432V-26.4h-3.432v-2.112h8.492l9.2,20.108,8.58-20.108h8.492V-26.4h-3.432V-2.112h3.432V0h-12.056V-2.112h3.3V-21.78l-8.4,19.668h-2.728l-9.02-19.624V-2.112h3.256V0h-9.108ZM-180.18-26.4V-2.112h4.268V0h-13.86V-2.112h4.268V-26.4h-4.268v-2.112h13.86V-26.4Zm6.292,24.288h3.432V-26.4h-3.432v-2.112h7.876l12.54,19.624V-26.4h-3.388v-2.112h9.24V-26.4h-3.432V0h-3.256l-13.728-21.692v19.58h3.3V0h-9.152ZM-136.444-26.4V-2.112h4.268V0h-13.86V-2.112h4.268V-26.4h-4.268v-2.112h13.86V-26.4ZM-106.04.528a12.416,12.416,0,0,1-7.414-2.068,11.881,11.881,0,0,1-4.18-5.258,17.862,17.862,0,0,1-1.3-6.8,20.763,20.763,0,0,1,1.364-7.568,12.755,12.755,0,0,1,4.246-5.7,11.738,11.738,0,0,1,7.282-2.178,14.43,14.43,0,0,1,4.972.748A23.44,23.44,0,0,1-97.2-26.444v5.94h-3.74a8.434,8.434,0,0,0-1.848-5.016,4.931,4.931,0,0,0-3.74-1.584,5.615,5.615,0,0,0-5.236,3.08,15.859,15.859,0,0,0-1.716,7.788A24.207,24.207,0,0,0-112.4-8.6a11.387,11.387,0,0,0,2.97,4.95,6.188,6.188,0,0,0,4.268,1.716,6.589,6.589,0,0,0,4.312-1.518,7.648,7.648,0,0,0,2.464-4.6H-96.1a9.94,9.94,0,0,1-3.366,6.336A9.966,9.966,0,0,1-106.04.528ZM-84.128.484a8.512,8.512,0,0,1-4.62-1.3,8.849,8.849,0,0,1-3.234-3.63,11.645,11.645,0,0,1-1.166-5.28,12.07,12.07,0,0,1,1.21-5.434,9.46,9.46,0,0,1,3.344-3.828,8.728,8.728,0,0,1,4.862-1.386A8.928,8.928,0,0,1-79.024-19.1a8.775,8.775,0,0,1,3.3,3.586A11.234,11.234,0,0,1-74.536-10.3,11.853,11.853,0,0,1-75.79-4.84,9.953,9.953,0,0,1-79.222-.946,8.741,8.741,0,0,1-84.128.484Zm.572-1.936a3.12,3.12,0,0,0,2.794-1.98,12.521,12.521,0,0,0,1.034-5.676A16.543,16.543,0,0,0-80.916-15.8q-1.188-2.684-3.3-2.684A3.12,3.12,0,0,0-87.01-16.5a12.521,12.521,0,0,0-1.034,5.676,16.543,16.543,0,0,0,1.188,6.688Q-85.668-1.452-83.556-1.452ZM-62.26.484a8.512,8.512,0,0,1-4.62-1.3,8.849,8.849,0,0,1-3.234-3.63,11.645,11.645,0,0,1-1.166-5.28,12.07,12.07,0,0,1,1.21-5.434,9.46,9.46,0,0,1,3.344-3.828,8.728,8.728,0,0,1,4.862-1.386A8.928,8.928,0,0,1-57.156-19.1a8.775,8.775,0,0,1,3.3,3.586A11.234,11.234,0,0,1-52.668-10.3,11.853,11.853,0,0,1-53.922-4.84,9.953,9.953,0,0,1-57.354-.946,8.741,8.741,0,0,1-62.26.484Zm.572-1.936a3.12,3.12,0,0,0,2.794-1.98A12.521,12.521,0,0,0-57.86-9.108,16.543,16.543,0,0,0-59.048-15.8q-1.188-2.684-3.3-2.684a3.12,3.12,0,0,0-2.794,1.98,12.521,12.521,0,0,0-1.034,5.676,16.543,16.543,0,0,0,1.188,6.688Q-63.8-1.452-61.688-1.452Zm23.276-18.92a8.241,8.241,0,0,1,4.466,1.254,8.673,8.673,0,0,1,3.146,3.5,11.28,11.28,0,0,1,1.144,5.192A12.54,12.54,0,0,1-30.844-4.95,10.1,10.1,0,0,1-34.1-.99,7.841,7.841,0,0,1-38.764.484a6.554,6.554,0,0,1-4.488-1.672V7.128h2.992V9.02h-11V7.128h3.08V-19.8h4.928v1.188A6.633,6.633,0,0,1-38.412-20.372Zm-.44,18.656a3.338,3.338,0,0,0,3.124-1.826,11.742,11.742,0,0,0,1.012-5.522,15.235,15.235,0,0,0-1.21-6.644q-1.21-2.464-3.366-2.464a3.629,3.629,0,0,0-2.794,1.3,5.04,5.04,0,0,0-1.166,3.5v7.128A4.471,4.471,0,0,0-42-3.014,4.192,4.192,0,0,0-38.852-1.716Zm21.868-18.656a7.666,7.666,0,0,1,5.94,2.4,9.3,9.3,0,0,1,2.2,6.534,8.751,8.751,0,0,1-.044,1.012H-21.6a11.454,11.454,0,0,0,1.8,5.874,4.645,4.645,0,0,0,3.916,2.31A4.8,4.8,0,0,0-12.672-3.5,5.814,5.814,0,0,0-10.78-6.732h1.892a8.535,8.535,0,0,1-2.86,5.28A8.358,8.358,0,0,1-17.336.484a8.639,8.639,0,0,1-4.73-1.3,8.724,8.724,0,0,1-3.19-3.652A12.181,12.181,0,0,1-26.4-9.856a12.144,12.144,0,0,1,1.188-5.5,8.935,8.935,0,0,1,3.322-3.7A9.133,9.133,0,0,1-16.984-20.372Zm-.44,1.892a3.36,3.36,0,0,0-2.9,1.628A8.864,8.864,0,0,0-21.6-12.408h7.744a8.714,8.714,0,0,0-.88-4.488A2.938,2.938,0,0,0-17.424-18.48ZM6.908-20.372a5.689,5.689,0,0,1,1.65.22,11.413,11.413,0,0,1,1.562.616v5.28H6.864a3.152,3.152,0,0,0-.726-2A2.009,2.009,0,0,0,4.62-16.94a2.6,2.6,0,0,0-2.288,1.562,7.843,7.843,0,0,0-.88,3.894v9.592H5.06V0H-6.2V-1.892h2.728V-18H-6.2v-1.8l7.524-.44.132,3.564A6.237,6.237,0,0,1,3.63-19.382,5.619,5.619,0,0,1,6.908-20.372Zm28.952-8.14a10.166,10.166,0,0,1,6.71,2.068,6.89,6.89,0,0,1,2.486,5.588,7.373,7.373,0,0,1-1.166,4.092,7.7,7.7,0,0,1-3.256,2.794,11.024,11.024,0,0,1-4.774.99H31.372V-2.112H34.8V0H22.616V-2.112h3.432V-26.4H22.616v-2.112Zm-.484,13.42a3.442,3.442,0,0,0,2.86-1.694,6.908,6.908,0,0,0,1.188-4.07A6.659,6.659,0,0,0,38.3-24.838,3.449,3.449,0,0,0,35.376-26.4h-4v11.308Zm35.64,12.98V0H58.828V-2.112H62.26l-2.684-7.964H51.26L48.488-2.112h3.256V0h-9.2V-2.112h3.344l9.416-26.4h3.124l9.416,26.4ZM58.828-12.276l-3.256-9.636h-.22l-3.344,9.636ZM83.556.484a10.817,10.817,0,0,1-7.634-2.618q-2.838-2.618-2.838-7.9V-26.4H69.652v-2.112H81.84V-26.4H78.408V-8.536a7.058,7.058,0,0,0,1.562,4.95,5.658,5.658,0,0,0,4.378,1.694,6.509,6.509,0,0,0,3.168-.792,5.871,5.871,0,0,0,2.31-2.288,6.954,6.954,0,0,0,.858-3.52V-26.4H87.252v-2.112h9.284V-26.4H93.1V-8.668a9.016,9.016,0,0,1-2.508,6.6A9.423,9.423,0,0,1,83.556.484Zm14.7-2.6h3.432V-26.4H98.252v-2.112H110.44V-26.4h-3.432V-2.112h8.668l2.2-5.9h3.08V0h-22.7ZM143.308.528a13.759,13.759,0,0,1-5.412-.99,8.642,8.642,0,0,1-3.344-2.222V-8.008h3.7a9.456,9.456,0,0,0,1.76,4.994A4.286,4.286,0,0,0,143.4-1.5a4.407,4.407,0,0,0,3.322-1.3,4.642,4.642,0,0,0,1.254-3.366,4.832,4.832,0,0,0-2.288-4.224l-7.436-4.928a9.253,9.253,0,0,1-2.75-2.794,7.017,7.017,0,0,1-1.078-3.85,6.3,6.3,0,0,1,2.4-5.126A10.108,10.108,0,0,1,143.4-29.04a14.118,14.118,0,0,1,5.1.88,9,9,0,0,1,3.52,2.244V-20.5h-3.74q-.352-3.652-1.584-5.126A4.034,4.034,0,0,0,143.44-27.1a3.958,3.958,0,0,0-3.058,1.166,4.264,4.264,0,0,0-1.078,3.014,4.159,4.159,0,0,0,1.98,3.652l7.788,5.1a9.129,9.129,0,0,1,2.992,3.146A7.972,7.972,0,0,1,153.12-7.04a6.628,6.628,0,0,1-1.21,3.916A7.967,7.967,0,0,1,148.478-.44,12.852,12.852,0,0,1,143.308.528Zm12.232-2.64h3.432V-26.4H155.54v-2.112h8.492l9.2,20.108,8.58-20.108H190.3V-26.4h-3.432V-2.112H190.3V0H178.244V-2.112h3.3V-21.78l-8.4,19.668h-2.728l-9.02-19.624V-2.112h3.256V0H155.54ZM201.916-26.4V-2.112h4.268V0h-13.86V-2.112h4.268V-26.4h-4.268v-2.112h13.86V-26.4Zm11,24.288h4.18V-26.4h-3.96l-2.2,5.9h-2.86v-8.008H231.44V-20.5h-2.86l-2.244-5.9H222.42V-2.112h4.18V0H212.916ZM258.72-26.4V-2.112h3.432V0H249.964V-2.112H253.4V-13.948H242.044V-2.112h3.432V0H233.288V-2.112h3.432V-26.4h-3.432v-2.112H245.52V-26.4h-3.476v10.252H253.4V-26.4h-3.432v-2.112h12.188V-26.4ZM297.88-8.008V0h-22.7V-2.112h3.432V-26.4h-3.432v-2.112h22.352V-20.5h-3.08L292.2-26.4h-8.272v10.252h4.576V-19.58h2.64v9.064h-2.64v-3.432h-4.576V-2.112H292.6l2.2-5.9Zm16.016-20.5a14.68,14.68,0,0,1,7.634,1.848,11.494,11.494,0,0,1,4.6,4.95,15.85,15.85,0,0,1,1.5,6.974,16.831,16.831,0,0,1-1.54,7.04,13.338,13.338,0,0,1-4.664,5.544A12.919,12.919,0,0,1,313.9,0H300.3V-2.112h3.564V-26.4H300.3v-2.112Zm-.308,26.4a6.521,6.521,0,0,0,4.642-1.8,11.187,11.187,0,0,0,2.882-4.708,19.353,19.353,0,0,0,.968-6.16,16.623,16.623,0,0,0-1.012-5.984A9.27,9.27,0,0,0,318.12-24.9a7.2,7.2,0,0,0-4.532-1.5h-4.4V-2.112ZM339.46-26.4V-2.112h4.268V0h-13.86V-2.112h4.268V-26.4h-4.268v-2.112h13.86V-26.4Zm11,24.288h4.18V-26.4h-3.96l-2.2,5.9h-2.86v-8.008h23.364V-20.5h-2.86l-2.244-5.9h-3.916V-2.112h4.18V0H350.46ZM380.424-26.4V-2.112h4.268V0h-13.86V-2.112H375.1V-26.4h-4.268v-2.112h13.86V-26.4ZM399.828.528A12.614,12.614,0,0,1,392.414-1.5a11.628,11.628,0,0,1-4.18-5.192,17.583,17.583,0,0,1-1.3-6.732,20.815,20.815,0,0,1,1.386-7.612,13.1,13.1,0,0,1,4.29-5.786,11.526,11.526,0,0,1,7.216-2.222,12.659,12.659,0,0,1,7.37,2.024,11.655,11.655,0,0,1,4.246,5.214,17.377,17.377,0,0,1,1.32,6.71,20.816,20.816,0,0,1-1.386,7.612,13.1,13.1,0,0,1-4.29,5.786A11.6,11.6,0,0,1,399.828.528Zm.572-1.936a5.581,5.581,0,0,0,5.214-3.036,15.872,15.872,0,0,0,1.694-7.788,25.1,25.1,0,0,0-1.98-10.648q-1.98-4.224-5.984-4.224a5.615,5.615,0,0,0-5.236,3.08,15.961,15.961,0,0,0-1.716,7.832,24.554,24.554,0,0,0,2,10.6Q396.4-1.408,400.4-1.408Zm14.608-.7h3.432V-26.4h-3.432v-2.112h7.876l12.54,19.624V-26.4h-3.388v-2.112h9.24V-26.4h-3.432V0h-3.256L420.86-21.692v19.58h3.3V0h-9.152Zm28.644-.352a2.844,2.844,0,0,1,.858-2.09,2.844,2.844,0,0,1,2.09-.858,2.844,2.844,0,0,1,2.09.858,2.844,2.844,0,0,1,.858,2.09,2.844,2.844,0,0,1-.858,2.09,2.844,2.844,0,0,1-2.09.858,2.844,2.844,0,0,1-2.09-.858A2.844,2.844,0,0,1,443.652-2.464Z" transform="translate(290.088 53)" fill="#fff"/>
  </g>
</svg>
