<svg xmlns="http://www.w3.org/2000/svg" width="351.956" height="40.92" viewBox="0 0 351.956 40.92">
  <path id="present-tit" d="M42.68-32.824A8.811,8.811,0,0,0,37.488-37.4l-.7.616a17.684,17.684,0,0,1,2.948,5.544Zm-9.416,1.452a37.709,37.709,0,0,0-7.832-.66c-7.568,0-11.792.748-16.676,2.948l.352,1.5A74.131,74.131,0,0,1,21.516-28.6a41.373,41.373,0,0,1,11.748,1.408ZM8.448-15.4A13.978,13.978,0,0,0,6.072-7.964c0,3.564,2.552,6.468,7,7.964C15.4.792,19.8,1.276,24.464,1.276A94.648,94.648,0,0,0,37.224.44V-4.048a68.555,68.555,0,0,1-13.86,1.32c-10.032,0-14.828-2.288-14.828-7.084A11.161,11.161,0,0,1,9.9-14.784ZM31.724-36.3a18.187,18.187,0,0,1,2.552,5.72l2.992-1.408a8.783,8.783,0,0,0-4.752-4.884Zm53.592,8.756,1.76.352v-2.464l-1.76.352H73c-.044-1.012-.088-2.024-.088-3.432v-2.728c.572-.44.7-.572.7-.88,0-.4-.308-.572-.924-.572h-3.3v4.18c0,1.364.044,2.42.088,3.432H50.864v4.928c.132,17.2-.4,21.164-3.344,26.708l.924.748A18.28,18.28,0,0,0,53.812-7.128c.572-3.432.66-5.1.66-11.044h8.756c-.044,3.036-.264,6.82-.484,9.9-.176,1.892-.7,2.464-2.332,2.508H56.936v1.848h5.192c2.2,0,3.432-.792,3.872-2.64.264-.528.528-6.248.66-13.376H54.472l.044-4.444v-3.168H69.564c.528,8.184,1.936,14.608,4.312,19.58a35.464,35.464,0,0,1-12.848,9.68l.4,1.32A31.432,31.432,0,0,0,75.5-5.06c2.9,4.8,6.556,8.1,9.064,8.1.88,0,1.76-.924,2.244-2.376.616-1.628.968-4.224,1.144-8.14L86.372-7.7c-.484,5.06-.968,6.864-1.76,6.864a3.747,3.747,0,0,1-1.8-1.012,21.176,21.176,0,0,1-4.752-5.808l-.088-.22-.088-.132A58.966,58.966,0,0,0,84-19.36c.836-.22,1.188-.484,1.188-.968,0-.4-.264-.66-.836-.924L81.18-22.484A45.763,45.763,0,0,1,76.3-11.308c-1.848-4.576-2.772-9.2-3.212-16.236Zm-8.8-7.788a27.111,27.111,0,0,1,3.256,5.016l3.52-2.508a16.264,16.264,0,0,0-5.764-3.212ZM100.98,3.256h3.388v-19.58h.132l1.98-.4c.528-.132,1.056-.22,1.54-.352.308.924.484,1.584.88,3.124l3.3-1.54a15.471,15.471,0,0,0-5.324-7l-1.012.572a19.206,19.206,0,0,1,1.716,3.52l-.836.088c-1.848.088-2.86.132-6.2.264h-.528a107.308,107.308,0,0,0,8.756-10.208c.968-.088,1.32-.352,1.32-.88a.74.74,0,0,0-.44-.66l-3.168-1.76A99.651,99.651,0,0,1,97.9-18.084l-.088.132h-.968l-.924.044-2.64.044.924,3.08a.851.851,0,0,0,.66.572c.308,0,.572-.22.968-.748,3.256-.484,3.52-.484,5.148-.792ZM93.5-29.04a35.683,35.683,0,0,1,5.676,7.3l2.244-3.256a11.555,11.555,0,0,0-3.036-2.552,45.923,45.923,0,0,0,4.972-6.16c1.056-.22,1.408-.484,1.408-.968a.867.867,0,0,0-.616-.748l-3.608-1.54a44.576,44.576,0,0,1-3.476,8.536,15.7,15.7,0,0,0-2.948-1.584Zm24.244.528c.616-1.232,1.056-2.288,2.376-5.676.88-.22,1.276-.528,1.276-1.012a1.021,1.021,0,0,0-.792-.836l-3.916-.924A54.243,54.243,0,0,1,110.4-20.636l1.056.836a30.743,30.743,0,0,0,5.368-6.952h11.748c-.264,11.4-1.364,26-1.98,26.576a2.317,2.317,0,0,1-2.552,1.364H118.4V3.036h7.48c3.3.044,4.576-1.232,4.972-4.752.528-4.048,1.408-18.524,1.584-26.8ZM106.348-12.1a52.024,52.024,0,0,1,2.288,9.768l3.564-1.54a25.116,25.116,0,0,0-4.664-8.668ZM94.248-.264c2.2-3.344,2.816-4.708,4.4-9.636.748-.22,1.056-.484,1.056-.924,0-.352-.176-.572-.66-.7L95.568-12.54A55.194,55.194,0,0,1,93.28-.748ZM114.532-18a36.4,36.4,0,0,1,5.06,9.988l3.652-2.464a25.329,25.329,0,0,0-7.568-8.316Zm28.644-12.276-1.936-.352v2.772l1.936-.4h25.168C166.1-13.816,158.224-4.444,144.54,0l.484,1.5C156.156-.968,162.8-5.192,167.552-12.848a40.141,40.141,0,0,0,5.5-16.852,4.441,4.441,0,0,0,2.728.924,4.5,4.5,0,0,0,4.488-4.444,4.469,4.469,0,0,0-4.488-4.444,4.489,4.489,0,0,0-4.444,4.444,4.545,4.545,0,0,0,1.144,2.992Zm32.6-5.632a2.7,2.7,0,0,1,2.728,2.64,2.677,2.677,0,0,1-2.684,2.728A2.733,2.733,0,0,1,173.1-33.22,2.724,2.724,0,0,1,175.78-35.9ZM193.116.836c5.94-.484,13.948-3.564,19.1-7.3A31.944,31.944,0,0,0,224.268-22.66l-1.232-.616c-5.544,9.988-15.224,17.16-25.872,19.14V-31.988c.616-.44.88-.748.88-1.1a.828.828,0,0,0-.836-.792l-4.488-.308.4,2.64Zm49.016-24.684-9.372.836-2.068-.22.264,2.816,2.024-.572,9.152-.792V-4.8c0,1.98.4,3.432,1.144,4.048.792.7,1.8.924,4.752,1.056,2.156.044,5.412.132,7.3.132a93.8,93.8,0,0,0,11.044-.484v-4a63.536,63.536,0,0,1-12.452.792c-7.128,0-7.788-.22-7.788-2.552V-22.132l17.644-1.54A34.032,34.032,0,0,1,252.912-10.56l.7,1.144c7.7-3.3,13.552-9.548,15.664-16.764l-23.144,2.024v-8.492c.66-.484.88-.748.88-1.144a.859.859,0,0,0-.836-.792l-4.444-.308.4,2.728Zm29.348-8.888a8.958,8.958,0,0,0-5.1-4.664l-.748.616a17.167,17.167,0,0,1,2.86,5.544Zm-10.912-3.476a17.389,17.389,0,0,1,2.464,5.764l3.036-1.364a8.8,8.8,0,0,0-4.664-4.972Zm54.384,8.668a43.675,43.675,0,0,1-11.22,14.256c-5.852,4.752-10.868,7-20.2,8.932l-2.332.044L282.788-.4c.264.616.66.968,1.1.968.484,0,.836-.308,1.144-1.012,9.944-2.244,16.192-5.236,21.6-10.34a37.087,37.087,0,0,0,9.548-16.192Zm-34.144-4.8a41.364,41.364,0,0,1,10.956,9.416l3.608-3.652a27.153,27.153,0,0,0-14.036-6.908Zm57.816-1.188c.572-.308.88-.66.88-1.056s-.352-.7-.88-.748l-4.4-.308.308,2.64V2.112h4.092v-23.32A43.708,43.708,0,0,1,355.036-9.856l2.992-4a46.958,46.958,0,0,0-19.4-8.976Z" transform="translate(-6.072 37.664)" fill="#fff"/>
</svg>
