<svg xmlns="http://www.w3.org/2000/svg" width="5100.359" height="59.584" viewBox="0 0 5100.359 59.584">
  <g id="intro02" transform="translate(-3825.64 7361.399)">
    <path id="パス_57288" data-name="パス 57288" d="M0,0H5100V59H0Z" transform="translate(3826 -7361)" fill="none"/>
    <path id="パス_57325" data-name="パス 57325" d="M-3734.912-17.088V-.768c0,1.984-.832,2.816-2.752,2.816h-5.248V4.736h7.424c3.9,0,5.568-1.536,5.5-5.184V-51.264h-20.608v10.752c0,18.88-.7,29.056-2.3,33.472a23.814,23.814,0,0,1-7.424,10.816l1.152,1.344c8.128-4.288,11.9-11.008,12.672-22.208Zm0-2.56H-3746.3v-.192l.256-4.672c0-.384,0-2.048.064-4.416,0-.512,0-2.624.064-4.352h11.008Zm0-16.192h-10.944l.064-4.672V-48.7h10.88Zm-40-8.9v-6.528c.832-.576,1.024-.832,1.024-1.28,0-.576-.448-.832-1.344-.832h-4.48v8.64h-2.752l-2.56-.512v3.584l2.56-.512h2.752V-14.72h-3.968l-2.56-.512v3.584l2.56-.512h27.84l2.56.512v-3.584l-2.56.512h-2.752V-42.176h2.816l2.56.512v-3.584l-2.56.512h-2.816v-6.528c.832-.576,1.024-.832,1.024-1.216,0-.64-.448-.9-1.344-.9h-4.48v8.64Zm0,2.56h11.52V-35.2h-11.52Zm0,27.456v-8.128h11.52v8.128Zm11.52-17.92v7.232h-11.52V-32.64Zm-22.272,35.456c4.032-2.112,6.848-4.288,11.136-8.7,1.344,0,2.176-.384,2.176-1.024a1.2,1.2,0,0,0-.64-.96l-4.288-2.88a59.172,59.172,0,0,1-9.28,12.16Zm18.816-11.392a70.987,70.987,0,0,1,6.912,9.024l3.9-3.9a41.151,41.151,0,0,0-9.536-6.592Zm89.28,6.08V-25.152h-26.88V1.28h4.928V-2.5Zm-21.952-12.8v-7.3h17.024v7.3Zm0,2.56h17.024v7.68h-17.024Zm5.312-38.72h-23.1V4.736h5.056v-35.52h18.048Zm-18.048,2.56h13.248v6.336h-13.248Zm13.248,8.9v6.656h-13.248V-40Zm11.264-11.456v20.672h18.88V-1.216c0,2.048-.9,2.944-2.944,2.944h-5.376V4.416h8.832c3.2,0,4.544-1.344,4.544-4.608V-51.456Zm4.8,11.456h14.08v6.656h-14.08Zm0-2.56V-48.9h14.08v6.336Zm75.328,31.552a65.024,65.024,0,0,0,10.048-5.888h.576c.96,0,1.664-.448,1.664-1.088a1.548,1.548,0,0,0-.768-1.152l-4.1-3.2a42.8,42.8,0,0,1-7.488,8.448c-.576.512-.96.9-1.408,1.28a32.48,32.48,0,0,1-5.12-11.456h15.552V-51.456h-30.016V-3.008c-3.2.7-3.712.832-7.488,1.536l2.112,5.056q.48,1.152,1.152,1.152c.7,0,1.088-.512,1.216-1.6,9.728-3.392,15.488-5.952,21.5-9.6A34.055,34.055,0,0,0-3598.4,4.8a22.089,22.089,0,0,1,3.84-5.376,38.151,38.151,0,0,1-13.248-10.368Zm-16.064-13.056h7.04l.064.192a40.358,40.358,0,0,0,5.44,15.936c-4.928,1.6-7.744,2.432-12.544,3.712Zm0-2.56v-10.24h19.9v10.24Zm0-12.8V-48.9h19.9v9.472Zm-26.752-12.032v56h4.992V-48.9h8a122.531,122.531,0,0,1-5.184,16.832,43.09,43.09,0,0,1,3.072,5.5,23.54,23.54,0,0,1,1.664,9.408c0,2.3-.448,4.032-1.152,4.736a5.16,5.16,0,0,1-3.392,1.152h-1.28v2.688h1.536c3.968,0,6.464-.9,7.808-2.816a11.381,11.381,0,0,0,1.6-6.4c0-5.12-1.856-8.9-7.04-14.528a74.292,74.292,0,0,0,8.96-19.136Zm96.064,20.032h18.3l2.56.512V-34.5l-2.56.512h-42.24l-2.56-.512v3.584l2.56-.512h18.56v28.16c-5.632-1.536-9.408-4.608-12.416-9.984a74.787,74.787,0,0,0,2.112-9.088c1.152-.576,1.664-1.024,1.664-1.6,0-.64-.512-1.024-1.472-1.216l-5.568-1.088c-.768,12.608-5.056,23.872-11.456,29.952l1.152,1.472a29.436,29.436,0,0,0,12.8-16c3.072,6.208,6.528,9.664,11.84,11.712,4.48,1.728,11.776,2.368,27.712,2.368h3.2A24.494,24.494,0,0,1-3528-2.048c-6.208.128-9.088.192-12.224.192-5.632,0-10.048-.128-14.144-.448v-14.08h15.808l2.56.512v-3.584l-2.56.512h-15.808Zm-6.272-14.784H-3578.5V-46.4a8.467,8.467,0,0,0-.192-2.624h-2.176c-.96,4.608-2.368,6.976-6.016,10.3l3.968,4.8c3.2-3.456,3.84-4.864,4.288-9.728h43.072a48.574,48.574,0,0,1-3.584,7.36l1.408.96c5.312-3.712,8.384-7.168,9.728-10.88h-26.816v-5.44c.768-.576,1.024-.832,1.024-1.28,0-.576-.448-.832-1.344-.832h-5.5Zm70.464,47.36c7.68-1.088,12.608-2.88,17.6-6.4A22.643,22.643,0,0,0-3463.36-24c0-14.08-10.432-23.36-26.368-23.36-7.616,0-14.208,2.176-19.2,6.336a26.206,26.206,0,0,0-9.408,20.416c0,9.6,4.416,16.576,10.432,16.576,2.752,0,5.248-1.408,8.064-4.416a39.24,39.24,0,0,0,7.1-12.352,104.164,104.164,0,0,0,5.44-23.232c4.352.32,7.04,1.216,9.856,3.264,4.992,3.52,7.872,9.536,7.872,16.32a22.325,22.325,0,0,1-10.944,19.392c-2.752,1.728-4.672,2.5-10.176,4.224Zm-2.752-45.312a120.4,120.4,0,0,1-2.944,15.616c-3.2,12.16-8.192,21.184-11.776,21.184-3.008,0-5.44-5.7-5.44-12.992a25.144,25.144,0,0,1,6.208-16.768A20.247,20.247,0,0,1-3492.928-44.16Zm89.6,23.36v-9.28h5.888l2.56.512v-3.584l-2.56.512h-14.72v-9.792h10.88l2.56.512V-45.5l-2.56.512h-10.88V-50.88c.832-.64,1.024-.832,1.024-1.28,0-.576-.448-.832-1.344-.832h-4.992v8h-10.048l-2.5-.512v3.584l2.5-.512h10.048v9.792H-3429.7l-2.56-.512v3.584l2.56-.512h21.056v9.28h-19.84l-2.56-.512v3.584l2.56-.512h19.84V-.384c-.064,2.048-.768,2.752-2.816,2.816h-6.272V5.12h9.024c3.776,0,5.376-1.536,5.376-5.12V-18.24h4.672l2.56.512v-3.584l-2.56.512Zm-39.3,25.536h4.992V-18.432a47.6,47.6,0,0,0,7.168-4.032l-.384-1.536c-3.648,1.28-5.184,1.792-6.784,2.3V-36.352h4.032l2.56.512v-3.584l-2.56.512h-4.032V-51.264c.832-.576,1.024-.832,1.024-1.28,0-.576-.448-.832-1.408-.832h-4.608v14.464h-4.928l.064-.192c.128-.768.256-1.536.384-2.24,0-.128.256-1.984.512-3.648.9-.576,1.28-1.024,1.28-1.408,0-.448-.448-.832-.96-.96l-4.672-.7a138.4,138.4,0,0,1-2.816,22.976l1.984.576A53.364,53.364,0,0,0-3448-36.352h5.376v16.128c-3.328.96-6.272,1.728-11.136,2.752l1.728,4.608a1.721,1.721,0,0,0,1.216,1.024c.576,0,.96-.448,1.28-1.472,3.136-1.216,4.928-1.984,6.912-2.816Zm15.168-18.048a47.472,47.472,0,0,1,7.168,10.3l4.8-4.672c-3.712-3.328-5.12-4.288-10.5-7.232Zm55.808-17.472h14.592v-19.84h-26.24v19.84h6.336v.32c-.128,15.936-3.2,25.408-10.24,31.68l1.152,1.536c8.192-4.608,12.224-11.328,13.7-22.784h10.368c-.384,6.848-.64,10.048-1.28,14.72s-1.088,5.312-4.16,5.44h-5.952V2.816h8.32c4.1.064,5.952-1.216,6.592-4.608.7-3.584,1.344-10.752,1.792-20.8h-15.36c.256-2.624.384-5.248.384-7.936Zm-6.528-2.56v-14.72h15.872v14.72Zm27.9,25.024h5.12V-45.44c.832-.576,1.024-.832,1.024-1.28,0-.576-.448-.832-1.344-.832h-4.8Zm4.672,12.736h8.384c3.9,0,5.568-1.6,5.5-5.248V-50.176c.768-.576,1.024-.832,1.024-1.28,0-.576-.448-.832-1.344-.832h-5.056v51.2c0,1.984-.832,2.816-2.816,2.816h-5.7Zm51.776.7h5.12v-18.3c5.44,7.68,15.808,14.336,24.576,15.808a27.514,27.514,0,0,1,2.368-5.248c-10.368-1.664-20.992-6.848-26.368-12.736h21.376l2.56.512v-3.584l-2.56.512H-3288.7v-5.056c.832-.576,1.024-.832,1.024-1.28,0-.576-.448-.832-1.344-.832h-4.8v7.168h-21.824l-2.56-.512v3.584l2.56-.512h19.456c-5.7,6.592-15.424,13.184-24.448,16.512l.448,1.792c10.944-2.752,19.9-7.424,26.368-13.632Zm-4.928-52.672c.832-.9,1.472-1.6,2.56-2.944,1.344-.32,1.984-.768,1.984-1.344,0-.384-.448-.768-1.088-.9l-5.184-1.024c-3.84,6.592-12.16,14.912-18.88,18.944l1.024,1.664c6.208-2.752,9.856-5.248,15.616-10.432a31.386,31.386,0,0,0,8.384,10.176,97.822,97.822,0,0,1-26.3,10.3l.512,1.92a101.591,101.591,0,0,0,29.7-9.6c5.888,3.52,16,6.72,25.92,8.32a23.89,23.89,0,0,1,2.752-5.184,84.805,84.805,0,0,1-24.384-5.568,60.229,60.229,0,0,0,16-14.336Zm-2.432,2.56h22.336a63.206,63.206,0,0,1-11.968,9.536,26.891,26.891,0,0,1-10.432-9.536Zm55.616,49.728h5.056V-38.848c1.344-3.328,2.368-6.016,3.968-10.944,1.152-.192,1.664-.64,1.664-1.28a1.152,1.152,0,0,0-1.024-1.088l-5.5-1.6a132.64,132.64,0,0,1-12.672,34.752l1.472,1.088a72.392,72.392,0,0,0,7.04-10.368Zm17.536-43.84c.576-1.472,1.024-2.752,2.3-6.464,1.216-.32,1.792-.832,1.792-1.6,0-.576-.512-.96-1.344-1.152l-4.992-1.088a77.5,77.5,0,0,1-8.064,23.3l1.6,1.024a46.4,46.4,0,0,0,7.616-11.456h11.072v16.96h-16.832l-2.5-.512v3.584l2.5-.512h16.832V4.8h5.376V-17.024h14.912l2.56.512V-20.1l-2.56.512h-14.912v-16.96h12.864l2.56.512v-3.584l-2.56.512h-12.864V-51.328c.832-.576,1.024-.832,1.024-1.216,0-.64-.448-.9-1.344-.9h-5.056V-39.1Zm72.256,30.464h5.248V-19.52c4.352-1.344,8.576-2.432,16.96-4.352a7.593,7.593,0,0,0,1.92.32,1.146,1.146,0,0,0,1.28-1.152,2.824,2.824,0,0,0-.448-1.216l-2.3-3.84-2.688,1.216c-3.008.9-5.184,1.536-6.144,1.856l-8.448,2.816-.192.064c-.192-3.136-.768-4.992-1.984-6.272a9.318,9.318,0,0,0-6.592-2.432c-3.9,0-7.04.9-11.2,3.264,2.368-3.52,3.84-5.824,7.1-11.456h3.392c8.32-.064,12.48-.256,20.544-.96l.64-4.672-4.864,1.92c-7.808.576-9.344.64-17.856.768h-.256l2.944-5.248c1.728-.576,2.048-.832,2.048-1.472,0-.512-.448-.9-1.344-1.216l-5.056-1.728-.9,2.816c-1.856,3.712-2.624,5.312-3.52,6.912-3.584-.064-6.208-.128-11.52-.32l-3.968-1.6.32,4.416c6.528.256,8,.32,13.568.384A167.987,167.987,0,0,1-3184-19.584l4.032,3.52,5.632-7.36c5.12-4.224,9.088-5.952,13.7-5.952,2.432,0,3.648.832,4.288,3.072a17.037,17.037,0,0,1,.576,4.48,70.263,70.263,0,0,0-8.192,3.648c-6.656,3.584-9.6,7.04-9.6,11.392a7.983,7.983,0,0,0,4.352,7.1c3.648,1.856,8.96,2.688,17.536,2.688a109.718,109.718,0,0,0,13.888-.768V-3.52a78.253,78.253,0,0,1-14.848,1.408c-6.784,0-11.456-.7-14.272-2.048a3.98,3.98,0,0,1-2.176-3.52c0-3.584,3.968-6.592,13.312-10.048Zm94.336-39.1a12.816,12.816,0,0,0-7.552-6.656l-1.024.9a25.724,25.724,0,0,1,4.288,8.064Zm-13.7,2.112a54.849,54.849,0,0,0-11.392-.96c-11.008,0-17.152,1.088-24.256,4.288l.512,2.176a107.825,107.825,0,0,1,18.048-1.472,60.179,60.179,0,0,1,17.088,2.048Zm-36.1,23.232c-2.432,4.1-3.456,7.3-3.456,10.816,0,5.184,3.712,9.408,10.176,11.584,3.392,1.152,9.792,1.856,16.576,1.856A137.671,137.671,0,0,0-3069.376.64V-5.888a99.718,99.718,0,0,1-20.16,1.92c-14.592,0-21.568-3.328-21.568-10.3,0-2.24.512-3.968,1.984-7.232Zm33.856-30.4a26.455,26.455,0,0,1,3.712,8.32l4.352-2.048a12.775,12.775,0,0,0-6.912-7.1ZM-3048-50.24V-42.3c-.192,30.208-1.088,36.736-6.4,45.568l1.28,1.408c5.184-4.16,8.7-11.968,9.536-21.12h15.744V3.072h5.312v-19.52h16.576v15.04c-.064,2.048-.768,2.816-2.688,2.88h-5.7V4.16h8.128c4.1,0,5.824-1.6,5.76-5.312V-50.24Zm5.312,17.792h14.848v13.44h-15.488c.384-4.928.448-6.4.576-10.752Zm0-2.56.192-7.3V-47.68h14.656v12.672Zm20.16-12.672h16.576v12.672h-16.576Zm0,28.672v-13.44h16.576v13.44Zm78.4-27.008h8.448l2.56.512v-3.584l-2.56.512h-20.1v-3.072c.832-.576,1.024-.832,1.024-1.28,0-.576-.448-.832-1.344-.832h-5.376v5.184h-19.648l-2.56-.512V-45.5l2.56-.512h8.32a68.694,68.694,0,0,1,1.984,7.552v.192h-13.7l-2.5-.512V-35.2l2.5-.512h52.224l2.5.512v-3.584l-2.5.512h-17.024a31.973,31.973,0,0,0,5.12-7.552Zm-5.76,0c-.768,3.264-1.28,5.184-2.048,7.552l-.064.192h-17.792l4.672-2.368a23.249,23.249,0,0,0-5.056-5.376Zm-30.08,31.936h43.136V-31.36h-43.136Zm38.016-2.56h-32.9v-4.928h32.9Zm0-7.488h-32.9V-28.8h32.9Zm-29.888,12.416V-1.28c.128,3.648,1.92,4.736,8,4.928h13.632c4.224,0,6.016-1.664,6.336-6.016l.32-4.672-2.56-.192-.256,3.648c-.256,1.792-1.28,2.56-3.648,2.56h-12.48c-3.008-.064-4.1-.576-4.1-1.984V-9.6c.832-.576,1.024-.832,1.024-1.28,0-.576-.448-.832-1.344-.832Zm30.592,2.048A70.732,70.732,0,0,1-2934.72,2.5l5.44-3.264c-3.712-5.12-4.928-6.336-10.176-10.048Zm-40.9,12.352c2.432-3.9,3.456-7.04,4.352-13.056l-2.368-.576c-1.728,4.224-3.456,6.656-7.36,10.432Zm20.352-14.208a38.546,38.546,0,0,1,5.824,7.68l4.608-3.9a28.133,28.133,0,0,0-9.088-4.928Zm50.688-3.392a10.027,10.027,0,0,0-10.176,9.92A10.038,10.038,0,0,0-2911.232,5.12a10.052,10.052,0,0,0,9.984-10.048A10.1,10.1,0,0,0-2911.1-14.912Zm-.256,2.944a7.076,7.076,0,0,1,7.168,6.976,7.089,7.089,0,0,1-7.04,7.168,7.129,7.129,0,0,1-7.1-7.1A7.133,7.133,0,0,1-2911.36-11.968Zm107.712-38.784c1.088-.384,1.536-.832,1.536-1.408,0-.512-.448-.9-1.28-.96l-5.44-.64c-1.408,3.072-4.8,7.744-9.344,12.928a87.86,87.86,0,0,1-16.7,14.4l.832,1.664c11.008-4.48,21.888-13.5,28.992-23.936l.256.384c6.976,10.752,16.256,18.624,25.984,22.336A37.749,37.749,0,0,1-2776-31.872a59.119,59.119,0,0,1-20.992-11.968,44.87,44.87,0,0,1-6.784-6.72ZM-2825.6-16.64h32.7A116.4,116.4,0,0,1-2802.3,4.992h6.592a168.857,168.857,0,0,0,10.368-24.32H-2825.6l-2.56-.512v3.712Zm31.936-14.784h-24.32l-2.56-.512v3.712l2.56-.512h24.32l2.56.512v-3.712Zm40.512-7.616A188.815,188.815,0,0,1-2766.464.9l5.7,1.6c5.632-12.864,9.408-24.832,13.184-41.664h.576a158.038,158.038,0,0,0,20.608-1.6l.192-4.416-4.416,1.856c-5.056.64-8.32.9-16.128,1.216h-.192V-42.3c.192-.768.32-1.472.512-2.176.128-.7.512-2.56.9-4.544.832-.576,1.216-1.024,1.216-1.536a1.351,1.351,0,0,0-1.152-1.152L-2751.1-52.8l-.128,3.968c-.576,3.2-.832,4.416-1.344,6.912h-10.432l-4.032-1.344.384,4.288c9.472,0,10.624,0,12.8-.064Zm44.352-8.7a12.639,12.639,0,0,0-7.552-6.656l-1.024.9a25.852,25.852,0,0,1,4.288,8.064ZM-2741.248-16.9a17.8,17.8,0,0,0-2.176,8.384c0,7.424,6.144,10.816,19.712,10.816a70.746,70.746,0,0,0,11.008-.768V-4.672A48.893,48.893,0,0,1-2724.992-3.2q-15.168,0-15.168-7.3a18.246,18.246,0,0,1,.96-5.824Zm26.048-15.936a47.543,47.543,0,0,0-6.592-.448c-7.04,0-12.8,1.344-17.472,4.032l.512,1.92a57.875,57.875,0,0,1,11.84-1.024,44.7,44.7,0,0,1,11.712,1.28Zm-9.664-19.712a28.272,28.272,0,0,1,3.9,8.768l4.288-2.048a12.482,12.482,0,0,0-7.04-7.552Zm70.592,17.728.192-.064a75,75,0,0,0,10.24-1.152l.384-4.1-3.9,1.472c-2.688.384-4.544.576-6.912.768V-48.96c.9-.576,1.28-1.024,1.28-1.6s-.512-1.024-1.28-1.088l-6.08-.384.512,3.712v10.752c-.9.064-7.232.192-9.536.192-3.008,0-5.12-.064-9.344-.32l-2.944-1.088.384,4.032c2.944.256,5.376.32,9.664.32,4.352,0,9.6-.064,11.776-.128v10.752c-.064,10.752-1.856,15.872-7.232,20.544A25.473,25.473,0,0,1-2677.7,1.984l.448,1.92a28.234,28.234,0,0,0,12.736-4.1c7.808-4.992,10.3-10.624,10.24-23.3Zm-34.112,31.872a92.067,92.067,0,0,1-2.24-22.336,148.173,148.173,0,0,1,1.6-21.888c.9-.448,1.216-.832,1.216-1.472s-.512-1.024-1.664-1.152l-5.5-.7.256,3.648a210.285,210.285,0,0,0-1.472,22.336,105.531,105.531,0,0,0,2.176,22.528Zm83.328,4.1c7.68-1.088,12.608-2.88,17.6-6.4A22.643,22.643,0,0,0-2578.24-24c0-14.08-10.432-23.36-26.368-23.36-7.616,0-14.208,2.176-19.2,6.336a26.206,26.206,0,0,0-9.408,20.416c0,9.6,4.416,16.576,10.432,16.576,2.752,0,5.248-1.408,8.064-4.416a39.24,39.24,0,0,0,7.1-12.352,104.164,104.164,0,0,0,5.44-23.232c4.352.32,7.04,1.216,9.856,3.264,4.992,3.52,7.872,9.536,7.872,16.32a22.325,22.325,0,0,1-10.944,19.392c-2.752,1.728-4.672,2.5-10.176,4.224Zm-2.752-45.312a120.4,120.4,0,0,1-2.944,15.616c-3.2,12.16-8.192,21.184-11.776,21.184-3.008,0-5.44-5.7-5.44-12.992a25.144,25.144,0,0,1,6.208-16.768A20.247,20.247,0,0,1-2607.808-44.16Zm73.792,36.544c-2.368-4.288-3.648-6.016-6.08-8.384l-1.216.7a28.042,28.042,0,0,1,1.664,4.16c-1.6.32-3.584.64-5.568.832a66.365,66.365,0,0,0,3.072-7.808c.96-.384,1.344-.7,1.344-1.088,0-.448-.32-.64-1.344-.9l-3.456-.768c-.32,3.2-.7,6.016-1.6,10.752-.576.064-.96.128-2.24.192l1.152,3.392c.256.768.448,1.088.832,1.088s.7-.32,1.28-1.152c2.432-.832,6.144-2.24,7.1-2.752.32,1.152.512,1.728.96,3.52Zm20.224-22.912,2.56.512V-33.6l-2.56.512h-9.088V-42.88h6.72l2.56.512v-3.584l-2.56.512h-6.72v-5.44c.832-.576,1.024-.832,1.024-1.216,0-.64-.448-.9-1.344-.9h-4.416v7.552h-6.336l-2.56-.512v3.584l2.56-.512h6.336v9.792H-2536l-2.56-.512v3.584l2.56-.512h7.3a66.7,66.7,0,0,1-8.512,16.96l.96.96a31.032,31.032,0,0,0,8.64-10.176V-6.016h4.736v-21.76a36.08,36.08,0,0,0,9.792,15.552,47.616,47.616,0,0,1,2.688-5.056,30.16,30.16,0,0,1-11.712-13.248Zm-36.032,8.576h9.408V-46.08h-15.232a17.816,17.816,0,0,0,3.52-4.48c1.344-.384,1.92-.768,1.92-1.408,0-.512-.512-.9-1.28-1.024l-5.184-.768a56.447,56.447,0,0,1-1.536,6.976l-.192.7h-7.872v24.128h4.416l-.064,2.5c-.128,11.328-1.856,17.088-6.72,22.72l1.024,1.152c7.488-4.736,10.048-11.264,10.368-26.368h2.944V-2.624c0,4.16,1.6,5.568,6.016,5.568h33.28c3.136,0,4.416-1.152,4.672-4.1l.576-5.76-2.56-.384-.448,4.032c-.192,1.6-.64,1.984-2.176,2.048h-32.064c-1.984-.064-2.752-.9-2.816-2.88Zm-5.7-21.568v7.872h-6.336V-43.52Zm4.224,0h6.464v7.872h-6.464Zm6.464,10.432v8.576h-6.464v-8.576Zm-17.024,0h6.336v8.576h-6.336Zm80.7-5.76c-.512,8.064-1.92,16.064-3.648,20.672a38.459,38.459,0,0,1-17.28,20.544l.96,2.048c9.6-3.9,16.9-10.5,20.8-18.816,2.624-5.376,4.352-13.888,4.992-24.448h21.888c-.32,9.856-1.536,27.52-2.176,31.872-.576,6.144-1.664,7.616-5.5,7.552h-8.512V3.584h11.52c5.44.064,7.744-2.112,8.32-7.936.7-4.48,2.176-28.1,2.432-37.184h-27.84c.192-2.176.256-4.224.256-6.336v-3.776c.768-.576,1.024-.832,1.024-1.28,0-.576-.448-.832-1.344-.832h-5.568v5.888c0,1.536-.064,3.776-.192,6.336h-16.9l-2.5-.512v3.712l2.5-.512Zm55.168-4.224h-6.528V2.816h5.056v-4.8h16.256V-43.072h-11.9a52.449,52.449,0,0,0,3.52-7.3c1.152-.512,1.6-.9,1.6-1.536,0-.448-.32-.7-1.024-.832l-5.7-1.024c-.192,2.688-.64,6.464-1.216,10.112Zm9.728,38.528h-11.2V-21.568h11.2Zm0-19.584h-11.2V-40.512h11.2Zm16.448-17.408a71.943,71.943,0,0,0,2.688-7.936c1.472-.448,2.112-1.024,2.112-1.792,0-.512-.64-1.088-1.344-1.216l-5.5-1.28a89.469,89.469,0,0,1-8.064,25.152l1.344,1.088a48.638,48.638,0,0,0,7.616-11.456h16.576c-.256,11.072-1.088,25.664-1.792,33.088-.448,6.4-1.152,7.552-4.608,7.616h-6.208V4.416h9.152c4.672-.064,6.208-1.664,6.848-7.3.9-6.208,1.792-23.1,2.112-38.656Zm-4.992,15.68c2.688,3.008,5.5,8.256,7.744,14.464l5.248-4.224c-3.136-5.12-7.552-9.536-11.52-11.456Zm52.416-18.688c-5.44,0-7.68-.128-11.136-.32l-3.456-1.472.32,4.352c4.608.32,6.848.384,10.816.384h2.5a141.414,141.414,0,0,1-14.528,31.424l4.864,3.136c6.144-10.368,10.56-20.288,15.424-34.752,4.864-.192,10.176-.64,15.488-1.344l.192-4.544-3.968,1.984c-4.544.512-7.168.768-10.688.96a7.584,7.584,0,0,1,.256-.9c.192-.576.768-2.3,1.344-4.16.96-.64,1.152-.96,1.152-1.408a1.035,1.035,0,0,0-.9-1.024l-5.632-1.088-.512,3.264c-.32,1.28-.576,2.24-.7,2.688l-.768,2.624Zm40.832,37.952a39.08,39.08,0,0,0-15.616-8.512V-27.072c1.024-.7,1.28-.96,1.28-1.408,0-.64-.576-1.024-1.536-1.024l-5.056-.064.192,4.736v8.7a34.493,34.493,0,0,0-5.632-.448c-8.32,0-13.312,3.584-13.312,9.6,0,6.08,5.952,10.5,14.144,10.5,4.416,0,7.616-1.344,9.024-3.84a9.706,9.706,0,0,0,.9-4.8v-5.312c2.624.9,7.744,4.608,11.84,8.64Zm-20.736,1.216c0,3.072-1.792,4.544-5.568,4.544-5.888,0-10.24-2.752-10.24-6.528a4.389,4.389,0,0,1,1.152-2.944c1.28-1.472,4.224-2.368,8-2.368a23.509,23.509,0,0,1,6.656.9Zm21.5-31.616a31.721,31.721,0,0,0-12.544-2.048,32.108,32.108,0,0,0-11.264,1.664l.128,1.792c7.168-.128,14.912,1.344,20.1,3.84Zm44.736,33.664c-.128,2.688-1.024,3.52-3.712,3.584h-6.656V3.2h10.5a6.2,6.2,0,0,0,4.16-1.216,5.648,5.648,0,0,0,1.6-3.84V-2.88l-.768-32.9h14.144l2.56.512v-3.968l-2.56.512h-14.208l-.256-10.368c.832-.64,1.088-1.024,1.088-1.536,0-.64-.576-1.088-1.6-1.088l-5.952-.32.64,4.288.192,9.024h-28.992l-2.56-.512v3.968l2.56-.512h25.152l-.128.192c-6.592,13.056-17.408,24.7-28.8,31.1l.832,1.536c13.312-4.992,21.824-12.288,32.128-27.648Zm42.56,3.9c11.712-2.624,18.176-5.568,24.9-11.392,8.9-7.936,14.336-19.712,16.064-34.816H-2226.5l-2.816-.576v4.1l2.816-.576h36.992c-3.328,21.056-14.656,34.5-34.688,41.088Zm84.416-24.128c.576-.512.832-.9.832-1.28,0-.512-.448-.768-1.216-.832l-5.248-.32.32,3.072v2.624c-.128,7.808-1.024,12.1-3.392,15.552a26.191,26.191,0,0,1-8.192,7.616l.576,1.408c9.984-3.136,15.232-9.344,16-19.008v-.256c10.88-3.2,17.6-9.92,20.352-20.1h-38.016l-2.816-.576v4.1l2.816-.576h31.04c-1.92,5.888-7.04,11.776-13.184,15.04.064-1.088.128-1.984.128-3.456Zm92.928-2.3-53.44-1.984v6.72l53.44-1.92Zm41.728,17.216h5.248V-19.52c4.352-1.344,8.576-2.432,16.96-4.352a7.593,7.593,0,0,0,1.92.32,1.146,1.146,0,0,0,1.28-1.152,2.825,2.825,0,0,0-.448-1.216l-2.3-3.84-2.688,1.216c-3.008.9-5.184,1.536-6.144,1.856l-8.448,2.816-.192.064c-.192-3.136-.768-4.992-1.984-6.272a9.318,9.318,0,0,0-6.592-2.432c-3.9,0-7.04.9-11.2,3.264,2.368-3.52,3.84-5.824,7.1-11.456h3.392c8.32-.064,12.48-.256,20.544-.96l.64-4.672-4.864,1.92c-7.808.576-9.344.64-17.856.768h-.256l2.944-5.248c1.728-.576,2.048-.832,2.048-1.472,0-.512-.448-.9-1.344-1.216l-5.056-1.728-.9,2.816c-1.856,3.712-2.624,5.312-3.52,6.912-3.584-.064-6.208-.128-11.52-.32l-3.968-1.6.32,4.416c6.528.256,8,.32,13.568.384a167.977,167.977,0,0,1-14.912,21.12l4.032,3.52,5.632-7.36c5.12-4.224,9.088-5.952,13.7-5.952,2.432,0,3.648.832,4.288,3.072a17.042,17.042,0,0,1,.576,4.48,70.286,70.286,0,0,0-8.192,3.648c-6.656,3.584-9.6,7.04-9.6,11.392a7.983,7.983,0,0,0,4.352,7.1c3.648,1.856,8.96,2.688,17.536,2.688a109.714,109.714,0,0,0,13.888-.768V-3.52a78.251,78.251,0,0,1-14.848,1.408c-6.784,0-11.456-.7-14.272-2.048a3.98,3.98,0,0,1-2.176-3.52c0-3.584,3.968-6.592,13.312-10.048Zm73.088-24.96-19.52.576V-45.7c.9-.7,1.216-1.088,1.216-1.6a1.106,1.106,0,0,0-.96-1.088l-6.144-.512.512,3.712v12.352l-10.048.32-3.328-.96.448,3.968,12.928-.384v6.848c0,14.912.7,19.456,3.392,21.888,2.56,2.368,8.192,3.456,17.536,3.456a94.687,94.687,0,0,0,13.824-.9V-4.16a60.4,60.4,0,0,1-14.016,1.472c-6.016,0-10.3-.512-11.968-1.408-2.048-1.088-2.624-2.5-3.008-6.784-.192-2.688-.384-8.256-.384-12.736v-6.4l19.52-.576v.256c0,5.312-.32,12.352-.768,17.088h5.5c.448-5.5.64-10.5.64-17.152v-.384l13.312-.384.128-4.224-3.2,1.344-10.24.32V-45.76c.9-.64,1.216-1.024,1.216-1.536a1.106,1.106,0,0,0-.96-1.088l-6.144-.512.512,3.712Zm21.248-14.144a12.532,12.532,0,0,0-7.36-6.656l-.9.768a24.238,24.238,0,0,1,4.288,8Zm-7.36,1.536a13.048,13.048,0,0,0-6.656-7.36l-1.024.768a24.9,24.9,0,0,1,3.52,8.32Zm34.176-.832-13.184.32-4.608-1.536.512,4.608,14.72-.32c-1.152,1.28-3.008,3.648-4.288,5.376-5.056,7.1-7.488,14.016-7.488,21.376,0,5.632,1.856,11.072,4.928,14.592,3.264,3.776,8.448,5.888,14.464,5.888,8,0,14.464-3.456,18.048-9.664,2.176-3.84,3.264-8.7,3.264-14.912,0-5.44-.512-8.768-3.2-21.632l.384-.128a65.56,65.56,0,0,0,12.992,24.064l3.2-6.72c-7.424-6.656-11.776-12.736-16.064-22.592l-4.032,1.024a139.168,139.168,0,0,1,1.728,22.4c0,5.888-.64,10.5-1.984,14.208-2.5,6.912-7.68,10.816-14.4,10.816a13.135,13.135,0,0,1-8.768-3.136c-2.944-2.688-4.736-7.744-4.736-13.568a30.183,30.183,0,0,1,3.9-14.912,45.875,45.875,0,0,1,9.28-12.16c2.3-.448,2.944-.832,2.944-1.728a1.413,1.413,0,0,0-.64-1.088l-4.864-3.072Zm106.3-.7a12.815,12.815,0,0,0-7.552-6.656l-1.024.9a25.724,25.724,0,0,1,4.288,8.064Zm-13.7,2.112a54.85,54.85,0,0,0-11.392-.96c-11.008,0-17.152,1.088-24.256,4.288l.512,2.176a107.825,107.825,0,0,1,18.048-1.472,60.179,60.179,0,0,1,17.088,2.048Zm-36.1,23.232c-2.432,4.1-3.456,7.3-3.456,10.816,0,5.184,3.712,9.408,10.176,11.584,3.392,1.152,9.792,1.856,16.576,1.856A137.671,137.671,0,0,0-1784.9.64V-5.888a99.718,99.718,0,0,1-20.16,1.92c-14.592,0-21.568-3.328-21.568-10.3,0-2.24.512-3.968,1.984-7.232Zm33.856-30.4a26.453,26.453,0,0,1,3.712,8.32l4.352-2.048a12.776,12.776,0,0,0-6.912-7.1Zm66.3,22.208a35.086,35.086,0,0,0,4.352-5.952c1.088-.192,1.664-.576,1.664-1.152a1.163,1.163,0,0,0-.832-.9l-4.8-1.472a65.851,65.851,0,0,1-3.072,9.472h-8.384a59.059,59.059,0,0,0,6.656-13.056h13.76a40.2,40.2,0,0,1-2.56,6.976l1.408.96a23.267,23.267,0,0,0,7.36-10.5h-19.008l1.344-4.032c1.216-.384,1.792-.832,1.792-1.408,0-.64-.512-1.024-1.536-1.216l-4.736-.9a57.719,57.719,0,0,1-1.984,7.552h-6.976v-.96c0-.512,0-.768-.064-1.6h-2.112c-.768,4.544-1.92,6.784-4.992,9.856l3.456,4.416c2.368-3.008,3.072-4.8,3.584-9.152H-1736a69.73,69.73,0,0,1-12.608,22.272l1.088,1.28a37.752,37.752,0,0,0,5.184-4.608V4.8h4.736V1.6h24l2.56.512V-1.472l-2.56.512h-10.176V-9.024h6.848l2.56.512V-12.1l-2.56.512h-6.848V-18.56h6.848l2.56.512v-3.584l-2.56.512h-6.848v-6.912h9.152l2.5.512V-31.1l-2.5.512ZM-1737.6-.96V-9.024h9.216V-.96Zm0-10.624V-18.56h9.216v6.976Zm0-9.536v-6.912h9.216v6.912Zm-22.912-9.6a82.879,82.879,0,0,0,4.352-16.64h7.04l2.5.512v-3.584l-2.5.512h-17.856l-2.56-.512v3.584l2.56-.512h5.5c-1.216,10.5-4.48,22.08-8.448,29.888l1.088,1.536a42.184,42.184,0,0,0,4.608-6.656v24.7h4.608V-2.816h10.56v-27.9Zm.9,2.56h5.952V-5.376h-5.952Zm106.88-19.2c-.384,7.1-1.024,15.1-1.6,18.816-.448,2.56-1.024,3.264-3.072,3.264h-4.352v2.688h6.912c3.712-.128,4.864-1.088,5.5-4.544.576-2.88,1.28-13.12,1.664-22.784h-29.632l-2.56-.512v3.584l2.56-.512h8.832a51.842,51.842,0,0,1-.9,7.744,76.729,76.729,0,0,0-8.064-2.368l-.9,1.6c3.584,1.728,5.248,2.624,8.064,4.16-2.112,6.272-5.7,10.688-10.816,13.376l.832,1.6c6.784-2.368,11.776-6.912,13.952-12.544,2.432,1.6,3.648,2.432,6.72,4.608l2.816-4.736a74.789,74.789,0,0,0-8.192-4.032,64.842,64.842,0,0,0,1.408-9.408ZM-1696.192.448h7.808V2.88h4.416V-15.552h-16.64v19.2h4.416Zm0-2.368V-13.184h7.808V-1.92Zm24.384-15.68V-1.344c-.064,3.2,1.408,4.608,4.544,4.608h8.256c3.072.064,4.352-1.28,4.608-4.48l.448-6.4-2.624-.32-.32,4.736c-.192,1.536-.64,1.984-2.176,1.984h-5.824c-1.6-.064-2.112-.576-2.176-2.112V-15.616c.768-.576.96-.832.96-1.152,0-.576-.448-.832-1.344-.832Zm-14.656-33.28h-11.648l-2.5-.512v3.712l2.5-.512h11.648l2.5.512v-3.712Zm2.5,8.832H-1700.8l-2.56-.512v3.712l2.56-.512h16.832l2.56.512V-42.56Zm-2.5,8.832h-11.648l-2.5-.512v3.712l2.5-.512h11.648l2.5.512v-3.712Zm0,8.832h-11.648l-2.5-.512v3.712l2.5-.512h11.648l2.5.512V-24.9Zm8.256,8.96a33.231,33.231,0,0,1-4.736,13.952l4.672,3.2a38.108,38.108,0,0,0,2.56-14.784c0-.7,0-1.152-.064-1.984Zm12.16-5.44a67.966,67.966,0,0,1,5.376,8.576l4.224-3.776a32.483,32.483,0,0,0-8.448-6.016Zm11.648,5.888c1.92,3.84,3.072,7.168,5.12,14.528l4.8-3.456A39.881,39.881,0,0,0-1652.8-16Zm53.568-34.816c-5.76,5.632-9.728,8.9-21.568,17.664-4.416,3.328-5.7,4.608-5.7,5.888,0,.96.832,1.984,2.688,3.2,11.776,7.68,20.1,15.616,28.8,27.392l5.824-4.032a81.515,81.515,0,0,0-12.608-12.864c-3.9-3.264-7.616-5.824-18.624-12.8-1.28-.7-1.6-.96-1.6-1.216,0-.192.32-.448,1.472-1.152,12.416-7.488,18.624-11.9,28.032-19.84,1.28-.064,1.856-.448,1.856-1.152,0-.448-.32-.832-1.088-1.408l-4.736-3.2Zm45.76,10.752A188.822,188.822,0,0,1-1568.384.9l5.7,1.6c5.632-12.864,9.408-24.832,13.184-41.664h.576a158.037,158.037,0,0,0,20.608-1.6l.192-4.416-4.416,1.856c-5.056.64-8.32.9-16.128,1.216h-.192V-42.3c.192-.768.32-1.472.512-2.176.128-.7.512-2.56.9-4.544.832-.576,1.216-1.024,1.216-1.536a1.351,1.351,0,0,0-1.152-1.152l-5.632-1.088-.128,3.968c-.576,3.2-.832,4.416-1.344,6.912h-10.432l-4.032-1.344.384,4.288c9.472,0,10.624,0,12.8-.064Zm44.352-8.7a12.638,12.638,0,0,0-7.552-6.656l-1.024.9a25.849,25.849,0,0,1,4.288,8.064ZM-1543.168-16.9a17.8,17.8,0,0,0-2.176,8.384c0,7.424,6.144,10.816,19.712,10.816a70.746,70.746,0,0,0,11.008-.768V-4.672A48.893,48.893,0,0,1-1526.912-3.2q-15.168,0-15.168-7.3a18.24,18.24,0,0,1,.96-5.824Zm26.048-15.936a47.548,47.548,0,0,0-6.592-.448c-7.04,0-12.8,1.344-17.472,4.032l.512,1.92a57.873,57.873,0,0,1,11.84-1.024,44.7,44.7,0,0,1,11.712,1.28Zm-9.664-19.712a28.269,28.269,0,0,1,3.9,8.768l4.288-2.048a12.483,12.483,0,0,0-7.04-7.552Zm53.632,12.16c-3.84.128-5.632.128-9.472.128-5.312,0-8.512-.128-12.672-.384l-3.776-1.152.512,4.032c4.8.32,8.128.448,14.912.448,5.44,0,7.04,0,13.312-.192a171.449,171.449,0,0,0,8.448,15.1,41.531,41.531,0,0,0-15.552-2.944c-5.952,0-11.968,1.792-14.976,4.416a11.358,11.358,0,0,0-3.968,8.64c0,9.408,9.536,14.592,27.008,14.592a62.314,62.314,0,0,0,10.88-.832V-4.736a42.126,42.126,0,0,1-12.1,1.536c-6.848,0-12.992-1.024-16.96-2.752a7.709,7.709,0,0,1-4.736-6.912,7.417,7.417,0,0,1,2.176-5.248c2.3-2.5,7.36-4.1,12.8-4.1a38.236,38.236,0,0,1,15.936,3.456,16.874,16.874,0,0,1,4.48,3.072l4.608-2.56a124.1,124.1,0,0,1-11.968-19.328l-.064-.128.32-.064a98.1,98.1,0,0,0,15.168-1.408l.064-4.352-3.776,1.728c-5.7.7-8.768.96-12.1,1.088h-1.216c-1.28-2.56-2.24-4.608-4.48-9.6.576-.64.768-1.024.768-1.408,0-.7-.576-1.088-1.6-1.088h-6.4l2.048,3.84c1.92,4.416,2.5,5.7,3.776,8.512Zm61.184,26.3c-1.472,5.824-3.456,9.728-4.992,9.728-1.472,0-3.776-3.008-5.568-7.1-2.368-5.632-3.584-14.656-3.584-27.392v-4.1c1.088-.768,1.408-1.152,1.408-1.792s-.64-1.088-1.6-1.152l-5.76-.384.32,3.84c.064,8.256.128,12.672.128,13.248.448,8.448,1.664,15.04,3.84,20.16,2.752,6.656,6.208,10.176,9.856,10.176,3.584,0,6.72-5.12,8.768-14.336Zm33.024.512c-2.112-12.416-8.448-23.936-16.384-29.888l-1.6,1.216c5.632,8.128,9.408,18.048,11.84,31.424Zm18.56-1.344a10.027,10.027,0,0,0-10.176,9.92A10.038,10.038,0,0,0-1360.512,5.12a10.052,10.052,0,0,0,9.984-10.048A10.1,10.1,0,0,0-1360.384-14.912Zm-.256,2.944a7.076,7.076,0,0,1,7.168,6.976,7.089,7.089,0,0,1-7.04,7.168,7.129,7.129,0,0,1-7.1-7.1A7.133,7.133,0,0,1-1360.64-11.968Zm174.848-5.12V-.768c0,1.984-.832,2.816-2.752,2.816h-5.248V4.736h7.424c3.9,0,5.568-1.536,5.5-5.184V-51.264h-20.608v10.752c0,18.88-.7,29.056-2.3,33.472A23.812,23.812,0,0,1-1211.2,3.776l1.152,1.344c8.128-4.288,11.9-11.008,12.672-22.208Zm0-2.56h-11.392v-.192l.256-4.672c0-.384,0-2.048.064-4.416,0-.512,0-2.624.064-4.352h11.008Zm0-16.192h-10.944l.064-4.672V-48.7h10.88Zm-40-8.9v-6.528c.832-.576,1.024-.832,1.024-1.28,0-.576-.448-.832-1.344-.832h-4.48v8.64h-2.752l-2.56-.512v3.584l2.56-.512h2.752V-14.72h-3.968l-2.56-.512v3.584l2.56-.512h27.84l2.56.512v-3.584l-2.56.512h-2.752V-42.176h2.816l2.56.512v-3.584l-2.56.512h-2.816v-6.528c.832-.576,1.024-.832,1.024-1.216,0-.64-.448-.9-1.344-.9h-4.48v8.64Zm0,2.56h11.52V-35.2h-11.52Zm0,27.456v-8.128h11.52v8.128Zm11.52-17.92v7.232h-11.52V-32.64Zm-22.272,35.456c4.032-2.112,6.848-4.288,11.136-8.7,1.344,0,2.176-.384,2.176-1.024a1.2,1.2,0,0,0-.64-.96l-4.288-2.88a59.167,59.167,0,0,1-9.28,12.16Zm18.816-11.392a70.977,70.977,0,0,1,6.912,9.024l3.9-3.9a41.157,41.157,0,0,0-9.536-6.592Zm89.28,6.08V-25.152h-26.88V1.28h4.928V-2.5ZM-1150.4-15.3v-7.3h17.024v7.3Zm0,2.56h17.024v7.68H-1150.4Zm5.312-38.72h-23.1V4.736h5.056v-35.52h18.048Zm-18.048,2.56h13.248v6.336h-13.248Zm13.248,8.9v6.656h-13.248V-40Zm11.264-11.456v20.672h18.88V-1.216c0,2.048-.9,2.944-2.944,2.944h-5.376V4.416h8.832c3.2,0,4.544-1.344,4.544-4.608V-51.456Zm4.8,11.456h14.08v6.656h-14.08Zm0-2.56V-48.9h14.08v6.336Zm75.328,31.552a65.03,65.03,0,0,0,10.048-5.888h.576c.96,0,1.664-.448,1.664-1.088a1.548,1.548,0,0,0-.768-1.152l-4.1-3.2a42.788,42.788,0,0,1-7.488,8.448c-.576.512-.96.9-1.408,1.28a32.481,32.481,0,0,1-5.12-11.456h15.552V-51.456h-30.016V-3.008c-3.2.7-3.712.832-7.488,1.536l2.112,5.056q.48,1.152,1.152,1.152c.7,0,1.088-.512,1.216-1.6,9.728-3.392,15.488-5.952,21.5-9.6A34.055,34.055,0,0,0-1049.28,4.8a22.093,22.093,0,0,1,3.84-5.376,38.151,38.151,0,0,1-13.248-10.368Zm-16.064-13.056h7.04l.064.192a40.358,40.358,0,0,0,5.44,15.936c-4.928,1.6-7.744,2.432-12.544,3.712Zm0-2.56v-10.24h19.9v10.24Zm0-12.8V-48.9h19.9v9.472Zm-26.752-12.032v56h4.992V-48.9h8a122.548,122.548,0,0,1-5.184,16.832,43.105,43.105,0,0,1,3.072,5.5,23.542,23.542,0,0,1,1.664,9.408c0,2.3-.448,4.032-1.152,4.736a5.16,5.16,0,0,1-3.392,1.152h-1.28v2.688h1.536c3.968,0,6.464-.9,7.808-2.816a11.38,11.38,0,0,0,1.6-6.4c0-5.12-1.856-8.9-7.04-14.528a74.3,74.3,0,0,0,8.96-19.136Zm96.064,20.032h18.3l2.56.512V-34.5l-2.56.512h-42.24l-2.56-.512v3.584l2.56-.512h18.56v28.16c-5.632-1.536-9.408-4.608-12.416-9.984a74.788,74.788,0,0,0,2.112-9.088c1.152-.576,1.664-1.024,1.664-1.6,0-.64-.512-1.024-1.472-1.216l-5.568-1.088c-.768,12.608-5.056,23.872-11.456,29.952l1.152,1.472a29.436,29.436,0,0,0,12.8-16c3.072,6.208,6.528,9.664,11.84,11.712,4.48,1.728,11.776,2.368,27.712,2.368h3.2a24.491,24.491,0,0,1,2.176-5.312c-6.208.128-9.088.192-12.224.192-5.632,0-10.048-.128-14.144-.448v-14.08h15.808l2.56.512v-3.584l-2.56.512h-15.808Zm-6.272-14.784h-17.856V-46.4a8.472,8.472,0,0,0-.192-2.624h-2.176c-.96,4.608-2.368,6.976-6.016,10.3l3.968,4.8c3.2-3.456,3.84-4.864,4.288-9.728h43.072a48.591,48.591,0,0,1-3.584,7.36l1.408.96c5.312-3.712,8.384-7.168,9.728-10.88H-1005.7v-5.44c.768-.576,1.024-.832,1.024-1.28,0-.576-.448-.832-1.344-.832h-5.5Zm70.464,47.36c7.68-1.088,12.608-2.88,17.6-6.4A22.643,22.643,0,0,0-914.24-24c0-14.08-10.432-23.36-26.368-23.36-7.616,0-14.208,2.176-19.2,6.336a26.205,26.205,0,0,0-9.408,20.416c0,9.6,4.416,16.576,10.432,16.576,2.752,0,5.248-1.408,8.064-4.416a39.241,39.241,0,0,0,7.1-12.352,104.161,104.161,0,0,0,5.44-23.232c4.352.32,7.04,1.216,9.856,3.264,4.992,3.52,7.872,9.536,7.872,16.32A22.325,22.325,0,0,1-931.392-5.056c-2.752,1.728-4.672,2.5-10.176,4.224Zm-2.752-45.312a120.412,120.412,0,0,1-2.944,15.616c-3.2,12.16-8.192,21.184-11.776,21.184-3.008,0-5.44-5.7-5.44-12.992A25.144,25.144,0,0,1-957.76-37.12,20.248,20.248,0,0,1-943.808-44.16Zm89.6,23.36v-9.28h5.888l2.56.512v-3.584l-2.56.512h-14.72v-9.792h10.88l2.56.512V-45.5l-2.56.512h-10.88V-50.88c.832-.64,1.024-.832,1.024-1.28,0-.576-.448-.832-1.344-.832h-4.992v8H-878.4l-2.5-.512v3.584l2.5-.512h10.048v9.792h-12.224l-2.56-.512v3.584l2.56-.512h21.056v9.28h-19.84l-2.56-.512v3.584l2.56-.512h19.84V-.384c-.064,2.048-.768,2.752-2.816,2.816h-6.272V5.12h9.024c3.776,0,5.376-1.536,5.376-5.12V-18.24h4.672l2.56.512v-3.584l-2.56.512ZM-893.5,4.736h4.992V-18.432a47.6,47.6,0,0,0,7.168-4.032L-881.728-24c-3.648,1.28-5.184,1.792-6.784,2.3V-36.352h4.032l2.56.512v-3.584l-2.56.512h-4.032V-51.264c.832-.576,1.024-.832,1.024-1.28,0-.576-.448-.832-1.408-.832H-893.5v14.464h-4.928l.064-.192c.128-.768.256-1.536.384-2.24,0-.128.256-1.984.512-3.648.9-.576,1.28-1.024,1.28-1.408,0-.448-.448-.832-.96-.96l-4.672-.7a138.389,138.389,0,0,1-2.816,22.976l1.984.576a53.367,53.367,0,0,0,3.776-11.84h5.376v16.128c-3.328.96-6.272,1.728-11.136,2.752l1.728,4.608A1.72,1.72,0,0,0-901.7-11.84c.576,0,.96-.448,1.28-1.472,3.136-1.216,4.928-1.984,6.912-2.816Zm15.168-18.048a47.476,47.476,0,0,1,7.168,10.3l4.8-4.672c-3.712-3.328-5.12-4.288-10.5-7.232Zm55.808-17.472h14.592v-19.84h-26.24v19.84h6.336v.32c-.128,15.936-3.2,25.408-10.24,31.68l1.152,1.536c8.192-4.608,12.224-11.328,13.7-22.784h10.368c-.384,6.848-.64,10.048-1.28,14.72S-815.232,0-818.3.128h-5.952V2.816h8.32c4.1.064,5.952-1.216,6.592-4.608.7-3.584,1.344-10.752,1.792-20.8h-15.36c.256-2.624.384-5.248.384-7.936Zm-6.528-2.56v-14.72h15.872v14.72Zm27.9,25.024h5.12V-45.44c.832-.576,1.024-.832,1.024-1.28,0-.576-.448-.832-1.344-.832h-4.8Zm4.672,12.736h8.384c3.9,0,5.568-1.6,5.5-5.248V-50.176c.768-.576,1.024-.832,1.024-1.28,0-.576-.448-.832-1.344-.832h-5.056v51.2c0,1.984-.832,2.816-2.816,2.816h-5.7Zm51.776.7h5.12v-18.3c5.44,7.68,15.808,14.336,24.576,15.808a27.514,27.514,0,0,1,2.368-5.248c-10.368-1.664-20.992-6.848-26.368-12.736h21.376l2.56.512v-3.584l-2.56.512h-21.952v-5.056c.832-.576,1.024-.832,1.024-1.28,0-.576-.448-.832-1.344-.832h-4.8v7.168h-21.824l-2.56-.512v3.584l2.56-.512h19.456c-5.7,6.592-15.424,13.184-24.448,16.512l.448,1.792c10.944-2.752,19.9-7.424,26.368-13.632Zm-4.928-52.672c.832-.9,1.472-1.6,2.56-2.944,1.344-.32,1.984-.768,1.984-1.344,0-.384-.448-.768-1.088-.9l-5.184-1.024c-3.84,6.592-12.16,14.912-18.88,18.944l1.024,1.664c6.208-2.752,9.856-5.248,15.616-10.432a31.388,31.388,0,0,0,8.384,10.176,97.823,97.823,0,0,1-26.3,10.3l.512,1.92a101.591,101.591,0,0,0,29.7-9.6c5.888,3.52,16,6.72,25.92,8.32a23.887,23.887,0,0,1,2.752-5.184,84.8,84.8,0,0,1-24.384-5.568,60.235,60.235,0,0,0,16-14.336Zm-2.432,2.56h22.336A63.2,63.2,0,0,1-741.7-35.456a26.89,26.89,0,0,1-10.432-9.536Zm55.616,49.728h5.056V-38.848c1.344-3.328,2.368-6.016,3.968-10.944,1.152-.192,1.664-.64,1.664-1.28a1.152,1.152,0,0,0-1.024-1.088l-5.5-1.6A132.636,132.636,0,0,1-704.96-19.008l1.472,1.088a72.372,72.372,0,0,0,7.04-10.368Zm17.536-43.84c.576-1.472,1.024-2.752,2.3-6.464,1.216-.32,1.792-.832,1.792-1.6,0-.576-.512-.96-1.344-1.152l-4.992-1.088a77.5,77.5,0,0,1-8.064,23.3l1.6,1.024A46.393,46.393,0,0,0-680-36.544h11.072v16.96H-685.76l-2.5-.512v3.584l2.5-.512h16.832V4.8h5.376V-17.024h14.912l2.56.512V-20.1l-2.56.512h-14.912v-16.96h12.864l2.56.512v-3.584l-2.56.512h-12.864V-51.328c.832-.576,1.024-.832,1.024-1.216,0-.64-.448-.9-1.344-.9h-5.056V-39.1ZM-606.656-8.64h5.248V-19.52c4.352-1.344,8.576-2.432,16.96-4.352a7.592,7.592,0,0,0,1.92.32,1.146,1.146,0,0,0,1.28-1.152,2.824,2.824,0,0,0-.448-1.216l-2.3-3.84-2.688,1.216c-3.008.9-5.184,1.536-6.144,1.856l-8.448,2.816-.192.064c-.192-3.136-.768-4.992-1.984-6.272a9.318,9.318,0,0,0-6.592-2.432c-3.9,0-7.04.9-11.2,3.264,2.368-3.52,3.84-5.824,7.1-11.456h3.392c8.32-.064,12.48-.256,20.544-.96l.64-4.672-4.864,1.92c-7.808.576-9.344.64-17.856.768h-.256L-609.6-48.9c1.728-.576,2.048-.832,2.048-1.472,0-.512-.448-.9-1.344-1.216l-5.056-1.728-.9,2.816c-1.856,3.712-2.624,5.312-3.52,6.912-3.584-.064-6.208-.128-11.52-.32l-3.968-1.6.32,4.416c6.528.256,8,.32,13.568.384a167.977,167.977,0,0,1-14.912,21.12l4.032,3.52,5.632-7.36c5.12-4.224,9.088-5.952,13.7-5.952,2.432,0,3.648.832,4.288,3.072a17.044,17.044,0,0,1,.576,4.48,70.281,70.281,0,0,0-8.192,3.648c-6.656,3.584-9.6,7.04-9.6,11.392A7.983,7.983,0,0,0-620.1.32c3.648,1.856,8.96,2.688,17.536,2.688a109.715,109.715,0,0,0,13.888-.768V-3.52A78.252,78.252,0,0,1-603.52-2.112c-6.784,0-11.456-.7-14.272-2.048a3.98,3.98,0,0,1-2.176-3.52c0-3.584,3.968-6.592,13.312-10.048Zm94.336-39.1a12.816,12.816,0,0,0-7.552-6.656l-1.024.9a25.723,25.723,0,0,1,4.288,8.064Zm-13.7,2.112a54.848,54.848,0,0,0-11.392-.96c-11.008,0-17.152,1.088-24.256,4.288l.512,2.176A107.827,107.827,0,0,1-543.1-41.6a60.178,60.178,0,0,1,17.088,2.048Zm-36.1,23.232c-2.432,4.1-3.456,7.3-3.456,10.816,0,5.184,3.712,9.408,10.176,11.584C-552,1.152-545.6,1.856-538.816,1.856A137.669,137.669,0,0,0-520.256.64V-5.888a99.716,99.716,0,0,1-20.16,1.92c-14.592,0-21.568-3.328-21.568-10.3,0-2.24.512-3.968,1.984-7.232Zm33.856-30.4a26.453,26.453,0,0,1,3.712,8.32l4.352-2.048a12.776,12.776,0,0,0-6.912-7.1Zm29.376,2.56V-42.3c-.192,30.208-1.088,36.736-6.4,45.568L-504,4.672c5.184-4.16,8.7-11.968,9.536-21.12h15.744V3.072h5.312v-19.52h16.576v15.04c-.064,2.048-.768,2.816-2.688,2.88h-5.7V4.16h8.128c4.1,0,5.824-1.6,5.76-5.312V-50.24Zm5.312,17.792h14.848v13.44h-15.488c.384-4.928.448-6.4.576-10.752Zm0-2.56.192-7.3V-47.68h14.656v12.672Zm20.16-12.672h16.576v12.672h-16.576Zm0,28.672v-13.44h16.576v13.44Zm78.4-27.008h8.448l2.56.512v-3.584l-2.56.512h-20.1v-3.072c.832-.576,1.024-.832,1.024-1.28,0-.576-.448-.832-1.344-.832h-5.376v5.184H-432l-2.56-.512V-45.5l2.56-.512h8.32a68.692,68.692,0,0,1,1.984,7.552v.192h-13.7l-2.5-.512V-35.2l2.5-.512h52.224l2.5.512v-3.584l-2.5.512h-17.024a31.978,31.978,0,0,0,5.12-7.552Zm-5.76,0c-.768,3.264-1.28,5.184-2.048,7.552l-.064.192h-17.792L-416-40.64a23.244,23.244,0,0,0-5.056-5.376Zm-30.08,31.936h43.136V-31.36h-43.136Zm38.016-2.56h-32.9v-4.928h32.9Zm0-7.488h-32.9V-28.8h32.9ZM-422.72-11.712V-1.28c.128,3.648,1.92,4.736,8,4.928h13.632c4.224,0,6.016-1.664,6.336-6.016l.32-4.672-2.56-.192-.256,3.648c-.256,1.792-1.28,2.56-3.648,2.56h-12.48c-3.008-.064-4.1-.576-4.1-1.984V-9.6c.832-.576,1.024-.832,1.024-1.28,0-.576-.448-.832-1.344-.832Zm30.592,2.048A70.723,70.723,0,0,1-385.6,2.5l5.44-3.264c-3.712-5.12-4.928-6.336-10.176-10.048Zm-40.9,12.352c2.432-3.9,3.456-7.04,4.352-13.056l-2.368-.576C-432.768-6.72-434.5-4.288-438.4-.512Zm20.352-14.208a38.556,38.556,0,0,1,5.824,7.68l4.608-3.9a28.132,28.132,0,0,0-9.088-4.928Zm50.688-3.392a10.027,10.027,0,0,0-10.176,9.92A10.038,10.038,0,0,0-362.112,5.12a10.052,10.052,0,0,0,9.984-10.048A10.1,10.1,0,0,0-361.984-14.912Zm-.256,2.944a7.076,7.076,0,0,1,7.168,6.976,7.089,7.089,0,0,1-7.04,7.168,7.129,7.129,0,0,1-7.1-7.1A7.133,7.133,0,0,1-362.24-11.968Zm107.712-38.784c1.088-.384,1.536-.832,1.536-1.408,0-.512-.448-.9-1.28-.96l-5.44-.64c-1.408,3.072-4.8,7.744-9.344,12.928a87.862,87.862,0,0,1-16.7,14.4l.832,1.664c11.008-4.48,21.888-13.5,28.992-23.936l.256.384C-248.7-37.568-239.424-29.7-229.7-25.984a37.75,37.75,0,0,1,2.816-5.888A59.118,59.118,0,0,1-247.872-43.84a44.87,44.87,0,0,1-6.784-6.72ZM-276.48-16.64h32.7a116.409,116.409,0,0,1-9.408,21.632h6.592a168.849,168.849,0,0,0,10.368-24.32H-276.48l-2.56-.512v3.712Zm31.936-14.784h-24.32l-2.56-.512v3.712l2.56-.512h24.32l2.56.512v-3.712Zm40.512-7.616A188.816,188.816,0,0,1-217.344.9l5.7,1.6c5.632-12.864,9.408-24.832,13.184-41.664h.576a158.037,158.037,0,0,0,20.608-1.6l.192-4.416-4.416,1.856c-5.056.64-8.32.9-16.128,1.216h-.192V-42.3c.192-.768.32-1.472.512-2.176.128-.7.512-2.56.9-4.544.832-.576,1.216-1.024,1.216-1.536a1.351,1.351,0,0,0-1.152-1.152l-5.632-1.088-.128,3.968c-.576,3.2-.832,4.416-1.344,6.912h-10.432l-4.032-1.344.384,4.288c9.472,0,10.624,0,12.8-.064Zm44.352-8.7a12.639,12.639,0,0,0-7.552-6.656l-1.024.9a25.85,25.85,0,0,1,4.288,8.064ZM-192.128-16.9A17.8,17.8,0,0,0-194.3-8.512c0,7.424,6.144,10.816,19.712,10.816a70.745,70.745,0,0,0,11.008-.768V-4.672A48.892,48.892,0,0,1-175.872-3.2q-15.168,0-15.168-7.3a18.242,18.242,0,0,1,.96-5.824Zm26.048-15.936a47.546,47.546,0,0,0-6.592-.448c-7.04,0-12.8,1.344-17.472,4.032l.512,1.92a57.874,57.874,0,0,1,11.84-1.024,44.7,44.7,0,0,1,11.712,1.28Zm-9.664-19.712a28.268,28.268,0,0,1,3.9,8.768l4.288-2.048a12.483,12.483,0,0,0-7.04-7.552Zm70.592,17.728.192-.064a75,75,0,0,0,10.24-1.152l.384-4.1-3.9,1.472c-2.688.384-4.544.576-6.912.768V-48.96c.9-.576,1.28-1.024,1.28-1.6s-.512-1.024-1.28-1.088l-6.08-.384.512,3.712v10.752c-.9.064-7.232.192-9.536.192-3.008,0-5.12-.064-9.344-.32l-2.944-1.088.384,4.032c2.944.256,5.376.32,9.664.32,4.352,0,9.6-.064,11.776-.128v10.752c-.064,10.752-1.856,15.872-7.232,20.544a25.471,25.471,0,0,1-10.624,5.248l.448,1.92a28.233,28.233,0,0,0,12.736-4.1c7.808-4.992,10.3-10.624,10.24-23.3ZM-139.264-2.944A92.071,92.071,0,0,1-141.5-25.28a148.159,148.159,0,0,1,1.6-21.888c.9-.448,1.216-.832,1.216-1.472s-.512-1.024-1.664-1.152l-5.5-.7.256,3.648a210.308,210.308,0,0,0-1.472,22.336A105.526,105.526,0,0,0-144.9-1.984Zm83.328,4.1c7.68-1.088,12.608-2.88,17.6-6.4A22.643,22.643,0,0,0-29.12-24c0-14.08-10.432-23.36-26.368-23.36-7.616,0-14.208,2.176-19.2,6.336A26.205,26.205,0,0,0-84.1-20.608c0,9.6,4.416,16.576,10.432,16.576,2.752,0,5.248-1.408,8.064-4.416A39.242,39.242,0,0,0-58.5-20.8a104.162,104.162,0,0,0,5.44-23.232c4.352.32,7.04,1.216,9.856,3.264,4.992,3.52,7.872,9.536,7.872,16.32A22.325,22.325,0,0,1-46.272-5.056c-2.752,1.728-4.672,2.5-10.176,4.224ZM-58.688-44.16a120.413,120.413,0,0,1-2.944,15.616c-3.2,12.16-8.192,21.184-11.776,21.184-3.008,0-5.44-5.7-5.44-12.992A25.144,25.144,0,0,1-72.64-37.12,20.248,20.248,0,0,1-58.688-44.16ZM15.1-7.616C12.736-11.9,11.456-13.632,9.024-16l-1.216.7a28.045,28.045,0,0,1,1.664,4.16c-1.6.32-3.584.64-5.568.832a66.408,66.408,0,0,0,3.072-7.808c.96-.384,1.344-.7,1.344-1.088,0-.448-.32-.64-1.344-.9L3.52-20.864c-.32,3.2-.7,6.016-1.6,10.752-.576.064-.96.128-2.24.192L.832-6.528c.256.768.448,1.088.832,1.088s.7-.32,1.28-1.152c2.432-.832,6.144-2.24,7.1-2.752.32,1.152.512,1.728.96,3.52ZM35.328-30.528l2.56.512V-33.6l-2.56.512H26.24V-42.88h6.72l2.56.512v-3.584l-2.56.512H26.24v-5.44c.832-.576,1.024-.832,1.024-1.216,0-.64-.448-.9-1.344-.9H21.5v7.552H15.168l-2.56-.512v3.584l2.56-.512H21.5v9.792H13.12L10.56-33.6v3.584l2.56-.512h7.3A66.7,66.7,0,0,1,11.9-13.568l.96.96A31.031,31.031,0,0,0,21.5-22.784V-6.016H26.24v-21.76a36.081,36.081,0,0,0,9.792,15.552A47.642,47.642,0,0,1,38.72-17.28,30.16,30.16,0,0,1,27.008-30.528ZM-.7-21.952H8.7V-46.08H-6.528a17.814,17.814,0,0,0,3.52-4.48c1.344-.384,1.92-.768,1.92-1.408,0-.512-.512-.9-1.28-1.024l-5.184-.768a56.444,56.444,0,0,1-1.536,6.976l-.192.7h-7.872v24.128h4.416l-.064,2.5c-.128,11.328-1.856,17.088-6.72,22.72L-18.5,4.416C-11.008-.32-8.448-6.848-8.128-21.952h2.944V-2.624c0,4.16,1.6,5.568,6.016,5.568h33.28c3.136,0,4.416-1.152,4.672-4.1l.576-5.76L36.8-7.3l-.448,4.032c-.192,1.6-.64,1.984-2.176,2.048H2.112C.128-1.28-.64-2.112-.7-4.1ZM-6.4-43.52v7.872h-6.336V-43.52Zm4.224,0H4.288v7.872H-2.176ZM4.288-33.088v8.576H-2.176v-8.576Zm-17.024,0H-6.4v8.576h-6.336Zm80.7-5.76c-.512,8.064-1.92,16.064-3.648,20.672A38.458,38.458,0,0,1,47.04,2.368L48,4.416C57.6.512,64.9-6.08,68.8-14.4c2.624-5.376,4.352-13.888,4.992-24.448H95.68c-.32,9.856-1.536,27.52-2.176,31.872C92.928-.832,91.84.64,88,.576H79.488V3.584h11.52c5.44.064,7.744-2.112,8.32-7.936.7-4.48,2.176-28.1,2.432-37.184H73.92c.192-2.176.256-4.224.256-6.336v-3.776c.768-.576,1.024-.832,1.024-1.28,0-.576-.448-.832-1.344-.832H68.288v5.888c0,1.536-.064,3.776-.192,6.336H51.2l-2.5-.512v3.712l2.5-.512Zm55.168-4.224h-6.528V2.816h5.056v-4.8H137.92V-43.072h-11.9a52.429,52.429,0,0,0,3.52-7.3c1.152-.512,1.6-.9,1.6-1.536,0-.448-.32-.7-1.024-.832l-5.7-1.024c-.192,2.688-.64,6.464-1.216,10.112Zm9.728,38.528h-11.2V-21.568h11.2Zm0-19.584h-11.2V-40.512h11.2Zm16.448-17.408A71.933,71.933,0,0,0,152-49.472c1.472-.448,2.112-1.024,2.112-1.792,0-.512-.64-1.088-1.344-1.216l-5.5-1.28A89.462,89.462,0,0,1,139.2-28.608l1.344,1.088a48.635,48.635,0,0,0,7.616-11.456h16.576c-.256,11.072-1.088,25.664-1.792,33.088-.448,6.4-1.152,7.552-4.608,7.616h-6.208V4.416h9.152c4.672-.064,6.208-1.664,6.848-7.3.9-6.208,1.792-23.1,2.112-38.656Zm-4.992,15.68c2.688,3.008,5.5,8.256,7.744,14.464l5.248-4.224c-3.136-5.12-7.552-9.536-11.52-11.456Zm52.416-18.688c-5.44,0-7.68-.128-11.136-.32l-3.456-1.472.32,4.352c4.608.32,6.848.384,10.816.384h2.5a141.415,141.415,0,0,1-14.528,31.424l4.864,3.136c6.144-10.368,10.56-20.288,15.424-34.752,4.864-.192,10.176-.64,15.488-1.344l.192-4.544L213.248-45.7c-4.544.512-7.168.768-10.688.96a7.615,7.615,0,0,1,.256-.9c.192-.576.768-2.3,1.344-4.16.96-.64,1.152-.96,1.152-1.408a1.035,1.035,0,0,0-.9-1.024l-5.632-1.088-.512,3.264c-.32,1.28-.576,2.24-.7,2.688l-.768,2.624ZM237.568-6.592A39.08,39.08,0,0,0,221.952-15.1V-27.072c1.024-.7,1.28-.96,1.28-1.408,0-.64-.576-1.024-1.536-1.024l-5.056-.064.192,4.736v8.7a34.5,34.5,0,0,0-5.632-.448c-8.32,0-13.312,3.584-13.312,9.6,0,6.08,5.952,10.5,14.144,10.5,4.416,0,7.616-1.344,9.024-3.84a9.7,9.7,0,0,0,.9-4.8v-5.312c2.624.9,7.744,4.608,11.84,8.64ZM216.832-5.376c0,3.072-1.792,4.544-5.568,4.544-5.888,0-10.24-2.752-10.24-6.528a4.388,4.388,0,0,1,1.152-2.944c1.28-1.472,4.224-2.368,8-2.368a23.51,23.51,0,0,1,6.656.9Zm21.5-31.616a31.72,31.72,0,0,0-12.544-2.048,32.109,32.109,0,0,0-11.264,1.664l.128,1.792c7.168-.128,14.912,1.344,20.1,3.84ZM283.072-3.328C282.944-.64,282.048.192,279.36.256H272.7V3.2h10.5a6.2,6.2,0,0,0,4.16-1.216,5.648,5.648,0,0,0,1.6-3.84V-2.88l-.768-32.9h14.144l2.56.512v-3.968l-2.56.512H288.128l-.256-10.368c.832-.64,1.088-1.024,1.088-1.536,0-.64-.576-1.088-1.6-1.088l-5.952-.32.64,4.288.192,9.024H253.248l-2.56-.512v3.968l2.56-.512H278.4l-.128.192c-6.592,13.056-17.408,24.7-28.8,31.1l.832,1.536c13.312-4.992,21.824-12.288,32.128-27.648Zm42.56,3.9c11.712-2.624,18.176-5.568,24.9-11.392,8.9-7.936,14.336-19.712,16.064-34.816H322.624l-2.816-.576v4.1l2.816-.576h36.992C356.288-21.632,344.96-8.192,324.928-1.6Zm84.416-24.128c.576-.512.832-.9.832-1.28,0-.512-.448-.768-1.216-.832l-5.248-.32.32,3.072v2.624c-.128,7.808-1.024,12.1-3.392,15.552a26.19,26.19,0,0,1-8.192,7.616l.576,1.408c9.984-3.136,15.232-9.344,16-19.008v-.256c10.88-3.2,17.6-9.92,20.352-20.1H392.064l-2.816-.576v4.1l2.816-.576H423.1c-1.92,5.888-7.04,11.776-13.184,15.04.064-1.088.128-1.984.128-3.456Zm92.928-2.3-53.44-1.984v6.72l53.44-1.92ZM544.7-8.64h5.248V-19.52c4.352-1.344,18.368-4.032,18.88-4.032a1.146,1.146,0,0,0,1.28-1.152,2.824,2.824,0,0,0-.448-1.216l-2.3-3.84-2.688,1.216c-3.008.9-5.184,1.536-6.144,1.856l-8.448,2.816-.192.064c-.192-3.136-.768-4.992-1.984-6.272a9.318,9.318,0,0,0-6.592-2.432c-3.9,0-7.04.9-11.2,3.264,2.368-3.52,3.84-5.824,7.1-11.456h3.392c8.32-.064,12.48-.256,20.544-.96l.64-4.672-4.864,1.92c-7.808.576-9.344.64-17.856.768h-.256L541.76-48.9c1.728-.576,2.048-.832,2.048-1.472,0-.512-.448-.9-1.344-1.216l-5.056-1.728-.9,2.816c-1.856,3.712-2.624,5.312-3.52,6.912-3.584-.064-6.208-.128-11.52-.32L517.5-45.5l.32,4.416c6.528.256,8,.32,13.568.384a167.977,167.977,0,0,1-14.912,21.12l4.032,3.52,5.632-7.36c5.12-4.224,9.088-5.952,13.7-5.952,2.432,0,3.648.832,4.288,3.072a17.044,17.044,0,0,1,.576,4.48,70.281,70.281,0,0,0-8.192,3.648c-6.656,3.584-9.6,7.04-9.6,11.392a7.983,7.983,0,0,0,4.352,7.1c3.648,1.856,8.96,2.688,17.536,2.688a109.715,109.715,0,0,0,13.888-.768V-3.52A78.252,78.252,0,0,1,547.84-2.112c-6.784,0-11.456-.7-14.272-2.048a3.98,3.98,0,0,1-2.176-3.52c0-3.584,3.968-6.592,13.312-10.048ZM617.792-33.6l-19.52.576V-45.7c.9-.7,1.216-1.088,1.216-1.6a1.106,1.106,0,0,0-.96-1.088l-6.144-.512.512,3.712v12.352l-10.048.32-3.328-.96.448,3.968,12.928-.384v6.848c0,14.912.7,19.456,3.392,21.888,2.56,2.368,8.192,3.456,17.536,3.456a94.688,94.688,0,0,0,13.824-.9V-4.16a60.4,60.4,0,0,1-14.016,1.472c-6.016,0-10.3-.512-11.968-1.408-2.048-1.088-2.624-2.5-3.008-6.784-.192-2.688-.384-8.256-.384-12.736v-6.4l19.52-.576v.256c0,5.312-.32,12.352-.768,17.088h5.5c.448-5.5.64-10.5.64-17.152v-.384l13.312-.384.128-4.224-3.2,1.344-10.24.32V-45.76c.9-.64,1.216-1.024,1.216-1.536a1.106,1.106,0,0,0-.96-1.088L617.28-48.9l.512,3.712ZM639.04-47.744a12.532,12.532,0,0,0-7.36-6.656l-.9.768a24.238,24.238,0,0,1,4.288,8Zm-7.36,1.536a13.048,13.048,0,0,0-6.656-7.36L624-52.8a24.9,24.9,0,0,1,3.52,8.32Zm34.176-.832-13.184.32-4.608-1.536.512,4.608,14.72-.32c-1.152,1.28-3.008,3.648-4.288,5.376-5.056,7.1-7.488,14.016-7.488,21.376,0,5.632,1.856,11.072,4.928,14.592,3.264,3.776,8.448,5.888,14.464,5.888,8,0,14.464-3.456,18.048-9.664,2.176-3.84,3.264-8.7,3.264-14.912,0-5.44-.512-8.768-3.2-21.632l.384-.128A65.559,65.559,0,0,0,702.4-19.008l3.2-6.72c-7.424-6.656-11.776-12.736-16.064-22.592L685.5-47.3a139.169,139.169,0,0,1,1.728,22.4c0,5.888-.64,10.5-1.984,14.208-2.5,6.912-7.68,10.816-14.4,10.816a13.135,13.135,0,0,1-8.768-3.136c-2.944-2.688-4.736-7.744-4.736-13.568a30.183,30.183,0,0,1,3.9-14.912,45.875,45.875,0,0,1,9.28-12.16c2.3-.448,2.944-.832,2.944-1.728a1.413,1.413,0,0,0-.64-1.088l-4.864-3.072Zm106.3-.7a12.816,12.816,0,0,0-7.552-6.656l-1.024.9a25.723,25.723,0,0,1,4.288,8.064Zm-13.7,2.112a54.848,54.848,0,0,0-11.392-.96c-11.008,0-17.152,1.088-24.256,4.288l.512,2.176A107.827,107.827,0,0,1,741.376-41.6a60.178,60.178,0,0,1,17.088,2.048ZM722.368-22.4c-2.432,4.1-3.456,7.3-3.456,10.816,0,5.184,3.712,9.408,10.176,11.584,3.392,1.152,9.792,1.856,16.576,1.856A137.669,137.669,0,0,0,764.224.64V-5.888a99.716,99.716,0,0,1-20.16,1.92c-14.592,0-21.568-3.328-21.568-10.3,0-2.24.512-3.968,1.984-7.232Zm33.856-30.4a26.453,26.453,0,0,1,3.712,8.32l4.352-2.048a12.776,12.776,0,0,0-6.912-7.1Zm66.3,22.208a35.089,35.089,0,0,0,4.352-5.952c1.088-.192,1.664-.576,1.664-1.152a1.163,1.163,0,0,0-.832-.9l-4.8-1.472a65.859,65.859,0,0,1-3.072,9.472h-8.384a59.056,59.056,0,0,0,6.656-13.056h13.76a40.2,40.2,0,0,1-2.56,6.976l1.408.96a23.267,23.267,0,0,0,7.36-10.5H819.072l1.344-4.032c1.216-.384,1.792-.832,1.792-1.408,0-.64-.512-1.024-1.536-1.216l-4.736-.9a57.709,57.709,0,0,1-1.984,7.552h-6.976v-.96c0-.512,0-.768-.064-1.6H804.8c-.768,4.544-1.92,6.784-4.992,9.856l3.456,4.416c2.368-3.008,3.072-4.8,3.584-9.152h6.272a69.73,69.73,0,0,1-12.608,22.272L801.6-20.1a37.758,37.758,0,0,0,5.184-4.608V4.8h4.736V1.6h24l2.56.512V-1.472l-2.56.512H825.344V-9.024h6.848l2.56.512V-12.1l-2.56.512h-6.848V-18.56h6.848l2.56.512v-3.584l-2.56.512h-6.848v-6.912H834.5l2.5.512V-31.1l-2.5.512ZM811.52-.96V-9.024h9.216V-.96Zm0-10.624V-18.56h9.216v6.976Zm0-9.536v-6.912h9.216v6.912Zm-22.912-9.6a82.883,82.883,0,0,0,4.352-16.64H800l2.5.512v-3.584l-2.5.512H782.144l-2.56-.512v3.584l2.56-.512h5.5c-1.216,10.5-4.48,22.08-8.448,29.888l1.088,1.536a42.183,42.183,0,0,0,4.608-6.656v24.7H789.5V-2.816h10.56v-27.9Zm.9,2.56h5.952V-5.376H789.5Zm106.88-19.2c-.384,7.1-1.024,15.1-1.6,18.816-.448,2.56-1.024,3.264-3.072,3.264H887.36v2.688h6.912c3.712-.128,4.864-1.088,5.5-4.544.576-2.88,1.28-13.12,1.664-22.784H871.808l-2.56-.512v3.584l2.56-.512h8.832a51.858,51.858,0,0,1-.9,7.744,76.739,76.739,0,0,0-8.064-2.368l-.9,1.6c3.584,1.728,5.248,2.624,8.064,4.16-2.112,6.272-5.7,10.688-10.816,13.376l.832,1.6c6.784-2.368,11.776-6.912,13.952-12.544,2.432,1.6,3.648,2.432,6.72,4.608l2.816-4.736a74.788,74.788,0,0,0-8.192-4.032,64.851,64.851,0,0,0,1.408-9.408ZM852.928.448h7.808V2.88h4.416V-15.552h-16.64v19.2h4.416Zm0-2.368V-13.184h7.808V-1.92ZM877.312-17.6V-1.344c-.064,3.2,1.408,4.608,4.544,4.608h8.256c3.072.064,4.352-1.28,4.608-4.48l.448-6.4-2.624-.32-.32,4.736c-.192,1.536-.64,1.984-2.176,1.984h-5.824c-1.6-.064-2.112-.576-2.176-2.112V-15.616c.768-.576.96-.832.96-1.152,0-.576-.448-.832-1.344-.832ZM862.656-50.88H851.008l-2.5-.512v3.712l2.5-.512h11.648l2.5.512v-3.712Zm2.5,8.832H848.32l-2.56-.512v3.712l2.56-.512h16.832l2.56.512V-42.56Zm-2.5,8.832H851.008l-2.5-.512v3.712l2.5-.512h11.648l2.5.512v-3.712Zm0,8.832H851.008l-2.5-.512v3.712l2.5-.512h11.648l2.5.512V-24.9Zm8.256,8.96a33.231,33.231,0,0,1-4.736,13.952l4.672,3.2a38.108,38.108,0,0,0,2.56-14.784c0-.7,0-1.152-.064-1.984Zm12.16-5.44a67.973,67.973,0,0,1,5.376,8.576l4.224-3.776a32.481,32.481,0,0,0-8.448-6.016Zm11.648,5.888c1.92,3.84,3.072,7.168,5.12,14.528l4.8-3.456A39.882,39.882,0,0,0,896.32-16Zm53.568-34.816c-5.76,5.632-9.728,8.9-21.568,17.664-4.416,3.328-5.7,4.608-5.7,5.888,0,.96.832,1.984,2.688,3.2,11.776,7.68,20.1,15.616,28.8,27.392L958.336.32a81.509,81.509,0,0,0-12.608-12.864c-3.9-3.264-7.616-5.824-18.624-12.8-1.28-.7-1.6-.96-1.6-1.216,0-.192.32-.448,1.472-1.152,12.416-7.488,18.624-11.9,28.032-19.84,1.28-.064,1.856-.448,1.856-1.152,0-.448-.32-.832-1.088-1.408l-4.736-3.2Zm45.76,10.752A188.818,188.818,0,0,1,980.736.9l5.7,1.6c5.632-12.864,9.408-24.832,13.184-41.664h.576a158.036,158.036,0,0,0,20.608-1.6l.192-4.416-4.416,1.856c-5.056.64-8.32.9-16.128,1.216h-.192V-42.3c.192-.768.32-1.472.512-2.176.128-.7.512-2.56.9-4.544.832-.576,1.216-1.024,1.216-1.536a1.351,1.351,0,0,0-1.152-1.152L996.1-52.8l-.128,3.968c-.576,3.2-.832,4.416-1.344,6.912H984.192l-4.032-1.344.384,4.288c9.472,0,10.624,0,12.8-.064Zm44.352-8.7a12.638,12.638,0,0,0-7.552-6.656l-1.024.9a25.849,25.849,0,0,1,4.288,8.064ZM1005.952-16.9a17.8,17.8,0,0,0-2.176,8.384c0,7.424,6.144,10.816,19.712,10.816a70.746,70.746,0,0,0,11.008-.768V-4.672A48.893,48.893,0,0,1,1022.208-3.2q-15.168,0-15.168-7.3a18.241,18.241,0,0,1,.96-5.824ZM1032-32.832a47.548,47.548,0,0,0-6.592-.448c-7.04,0-12.8,1.344-17.472,4.032l.512,1.92a57.874,57.874,0,0,1,11.84-1.024A44.7,44.7,0,0,1,1032-27.072Zm-9.664-19.712a28.269,28.269,0,0,1,3.9,8.768l4.288-2.048a12.483,12.483,0,0,0-7.04-7.552Zm53.632,12.16c-3.84.128-5.632.128-9.472.128-5.312,0-8.512-.128-12.672-.384l-3.776-1.152.512,4.032c4.8.32,8.128.448,14.912.448,5.44,0,7.04,0,13.312-.192a171.449,171.449,0,0,0,8.448,15.1,41.531,41.531,0,0,0-15.552-2.944c-5.952,0-11.968,1.792-14.976,4.416a11.358,11.358,0,0,0-3.968,8.64c0,9.408,9.536,14.592,27.008,14.592a62.314,62.314,0,0,0,10.88-.832V-4.736a42.126,42.126,0,0,1-12.1,1.536c-6.848,0-12.992-1.024-16.96-2.752a7.709,7.709,0,0,1-4.736-6.912,7.417,7.417,0,0,1,2.176-5.248c2.3-2.5,7.36-4.1,12.8-4.1a38.236,38.236,0,0,1,15.936,3.456,16.874,16.874,0,0,1,4.48,3.072l4.608-2.56a124.1,124.1,0,0,1-11.968-19.328l-.064-.128.32-.064a98.1,98.1,0,0,0,15.168-1.408l.064-4.352-3.776,1.728c-5.7.7-8.768.96-12.1,1.088h-1.216c-1.28-2.56-2.24-4.608-4.48-9.6.576-.64.768-1.024.768-1.408,0-.7-.576-1.088-1.6-1.088h-6.4l2.048,3.84c1.92,4.416,2.5,5.7,3.776,8.512Zm61.184,26.3c-1.472,5.824-3.456,9.728-4.992,9.728-1.472,0-3.776-3.008-5.568-7.1-2.368-5.632-3.584-14.656-3.584-27.392v-4.1c1.088-.768,1.408-1.152,1.408-1.792s-.64-1.088-1.6-1.152l-5.76-.384.32,3.84c.064,8.256.128,12.672.128,13.248.448,8.448,1.664,15.04,3.84,20.16,2.752,6.656,6.208,10.176,9.856,10.176,3.584,0,6.72-5.12,8.768-14.336Zm33.024.512c-2.112-12.416-8.448-23.936-16.384-29.888l-1.6,1.216c5.632,8.128,9.408,18.048,11.84,31.424Zm18.56-1.344a10.027,10.027,0,0,0-10.176,9.92A10.038,10.038,0,0,0,1188.608,5.12a10.052,10.052,0,0,0,9.984-10.048A10.1,10.1,0,0,0,1188.736-14.912Zm-.256,2.944a7.076,7.076,0,0,1,7.168,6.976,7.089,7.089,0,0,1-7.04,7.168,7.129,7.129,0,0,1-7.1-7.1A7.133,7.133,0,0,1,1188.48-11.968Z" transform="translate(7612.2 -7306.999)" fill="#fff"/>
  </g>
</svg>
