<svg xmlns="http://www.w3.org/2000/svg" width="477.72" height="42.3" viewBox="0 0 477.72 42.3">
  <path id="box01-tit" d="M1.15-2.4h3.9V-30H1.15v-2.4H10.8L21.25-9.55,31-32.4h9.65V-30h-3.9V-2.4h3.9V0H26.95V-2.4H30.7V-24.75L21.15-2.4h-3.1L7.8-24.7V-2.4h3.7V0H1.15ZM52.85-30V-2.4H57.7V0H41.95V-2.4H46.8V-30H41.95v-2.4H57.7V-30ZM59-2.4h3.9V-30H59v-2.4h8.95L82.2-10.1V-30H78.35v-2.4h10.5V-30h-3.9V0h-3.7L65.65-24.65V-2.4H69.4V0H59ZM100.55-30V-2.4h4.85V0H89.65V-2.4H94.5V-30H89.65v-2.4H105.4V-30ZM144-9.1V0H118.2V-2.4h3.9V-30h-3.9v-2.4h25.4v9.1h-3.5L137.55-30h-9.4v11.65h5.2v-3.9h3v10.3h-3v-3.9h-5.2V-2.4H138l2.5-6.7Zm1.75,6.7h3.9V-30h-3.9v-2.4H159.6V-30h-3.9V-2.4h9.85l2.5-6.7h3.5V0h-25.8ZM198.5-9.1V0H172.7V-2.4h3.9V-30h-3.9v-2.4h25.4v9.1h-3.5L192.05-30h-9.4v11.65h5.2v-3.9h3v10.3h-3v-3.9h-5.2V-2.4h9.85L195-9.1ZM215.15.6a14.109,14.109,0,0,1-8.425-2.35,13.5,13.5,0,0,1-4.75-5.975A20.3,20.3,0,0,1,200.5-15.45a23.594,23.594,0,0,1,1.55-8.6,14.5,14.5,0,0,1,4.825-6.475A13.339,13.339,0,0,1,215.15-33a16.4,16.4,0,0,1,5.65.85,26.636,26.636,0,0,1,4.4,2.1v6.75h-4.25q-.4-3.9-2.1-5.7a5.6,5.6,0,0,0-4.25-1.8,6.381,6.381,0,0,0-5.95,3.5,18.021,18.021,0,0,0-1.95,8.85,27.508,27.508,0,0,0,1.225,8.675A12.939,12.939,0,0,0,211.3-4.15a7.031,7.031,0,0,0,4.85,1.95,7.488,7.488,0,0,0,4.9-1.725,8.691,8.691,0,0,0,2.8-5.225h2.6a11.3,11.3,0,0,1-3.825,7.2A11.325,11.325,0,0,1,215.15.6Zm18.3-3h4.75V-30h-4.5l-2.5,6.7h-3.25v-9.1H254.5v9.1h-3.25L248.7-30h-4.45V-2.4H249V0H233.45Zm52.95,0V0h-8.95l-9.1-14.7h-2.8V-2.4h3.9V0H255.6V-2.4h3.9V-30h-3.9v-2.4h15.05q5.15,0,7.8,2.5a8.236,8.236,0,0,1,2.65,6.25,8.391,8.391,0,0,1-1.7,5.2,9.168,9.168,0,0,1-4.7,3.2L282.95-2.4ZM265.55-17.1h4.55a3.911,3.911,0,0,0,3.25-1.925,7.85,7.85,0,0,0,1.35-4.625,7.55,7.55,0,0,0-1.3-4.575A3.939,3.939,0,0,0,270.1-30h-4.55ZM297.7-30V-2.4h4.85V0H286.8V-2.4h4.85V-30H286.8v-2.4h15.75V-30ZM318.75.6a14.109,14.109,0,0,1-8.425-2.35,13.5,13.5,0,0,1-4.75-5.975A20.3,20.3,0,0,1,304.1-15.45a23.594,23.594,0,0,1,1.55-8.6,14.5,14.5,0,0,1,4.825-6.475A13.338,13.338,0,0,1,318.75-33a16.4,16.4,0,0,1,5.65.85,26.636,26.636,0,0,1,4.4,2.1v6.75h-4.25q-.4-3.9-2.1-5.7a5.6,5.6,0,0,0-4.25-1.8,6.381,6.381,0,0,0-5.95,3.5,18.021,18.021,0,0,0-1.95,8.85,27.507,27.507,0,0,0,1.225,8.675A12.939,12.939,0,0,0,314.9-4.15a7.031,7.031,0,0,0,4.85,1.95,7.488,7.488,0,0,0,4.9-1.725,8.691,8.691,0,0,0,2.8-5.225h2.6a11.3,11.3,0,0,1-3.825,7.2A11.325,11.325,0,0,1,318.75.6Zm34.7.525a31.163,31.163,0,0,0,10.35-3.06,16.5,16.5,0,0,0,8.82-14.985c0-6.075-2.88-11.385-7.7-14.04a23.542,23.542,0,0,0-11.3-2.7c-11.79,0-20.16,7.965-20.16,19.125,0,6.8,3.51,12.2,7.965,12.2,3.96,0,7.965-4.23,10.755-11.43a71.887,71.887,0,0,0,3.87-16.965,11.146,11.146,0,0,1,5.94,2.25,13.781,13.781,0,0,1,5.04,11.16A15.9,15.9,0,0,1,360.7-4.41a25.877,25.877,0,0,1-7.785,3.555Zm-2.385-32.04c-1.215,9.045-3.1,16.335-5.445,21.195-1.485,3.015-2.7,4.365-3.915,4.365-1.845,0-3.465-4.14-3.465-8.82a18.242,18.242,0,0,1,4.32-12.15A12.823,12.823,0,0,1,351.07-30.915ZM397.1-6.03l.18.855c0,.045.18.765.36,1.44l3.15-1.71a20.2,20.2,0,0,0-4.14-5.76l-.99.675c.45,1.17.675,1.755.945,2.655-.81.135-2.43.36-3.2.405a34.962,34.962,0,0,0,2.07-5.13c.63-.225.9-.45.9-.72s-.225-.45-.585-.54l-3.2-.72a72.184,72.184,0,0,1-.9,7.29h-.135l-1.305.09.81,2.925c.18.54.36.765.585.765.315,0,.54-.225.9-.81,1.845-.72,3.735-1.53,4.5-1.89Zm18.36-15.39,1.89.36v-2.88l-1.89.36H409.39v-6.7h4.455l1.89.36v-2.88l-1.89.36H409.39v-3.78c.54-.405.72-.63.72-.945,0-.405-.315-.63-.99-.63h-3.825v5.355H400.93l-1.89-.36v2.88l1.89-.36h4.365v6.7h-5.76l-1.845-.36v2.88l1.845-.36h4.815A42.746,42.746,0,0,1,398.5-9.585l1.035,1.125a23.425,23.425,0,0,0,5.76-6.39V-3.96h4.1V-18.9c1.665,5.31,3.465,8.325,6.345,10.89a45.8,45.8,0,0,1,2.205-4.77,21.387,21.387,0,0,1-8.055-8.64Zm-25.38,6.165h6.525V-32.9H386.035a13.573,13.573,0,0,0,2.7-3.06c.9-.27,1.305-.585,1.305-1.035,0-.4-.36-.63-1.035-.72l-4.635-.54a47.028,47.028,0,0,1-1.08,5.355h-5.625v17.64h2.88v.63c-.18,9.045-1.26,13.23-4.545,17.01l.99,1.215c5.31-3.06,7.2-7.74,7.515-18.855h1.755v13.59q-.135,4.455,4.32,4.32h23.535c2.52,0,3.555-.945,3.78-3.465l.4-4.275-2.2-.27-.27,2.61c-.135,1.26-.495,1.575-1.71,1.62h-22.23c-1.26,0-1.845-.54-1.8-1.8Zm-4.815-15.48v5.31h-3.78v-5.31Zm3.645,0h3.87v5.31h-3.87Zm3.87,7.47v5.85h-3.87v-5.85Zm-11.3,0h3.78v5.85h-3.78Zm53.1-3.87a62.956,62.956,0,0,1-2.07,12.69A28.762,28.762,0,0,1,420.1,1.665l.945,1.98C428.7.63,433.915-4.23,436.84-11.07c1.62-3.825,2.7-9.045,3.2-16.065h13.9c-.315,9.135-.855,17.46-1.53,23.265C452.1-.5,451.105.63,448.585.54h-5.94V3.06h9c4.1,0,5.85-1.53,6.255-5.58.72-6.12,1.53-19.53,1.665-26.955H440.17c.09-2.205.135-2.655.135-4.365v-2.835c.585-.405.765-.63.765-.945,0-.45-.315-.63-.99-.63h-5.22v4.41l-.045,2.475-.09,1.755v.135H423.16l-1.845-.36v3.06l1.845-.36Zm37.125,16.7a7.261,7.261,0,0,0-7.38,7.2,7.25,7.25,0,0,0,7.245,7.29A7.25,7.25,0,0,0,478.87-3.2,7.281,7.281,0,0,0,471.715-10.44Zm-.18,2.43a4.831,4.831,0,0,1,4.9,4.77,4.83,4.83,0,0,1-4.815,4.86,4.83,4.83,0,0,1-4.86-4.815A4.841,4.841,0,0,1,471.535-8.01Z" transform="translate(-1.15 38.25)"/>
</svg>
