<svg xmlns="http://www.w3.org/2000/svg" width="60.256" height="21.768" viewBox="0 0 60.256 21.768">
  <g id="btn-open" transform="translate(-983 -2077.008)">
    <path id="パス_40" data-name="パス 40" d="M12.672-8.448h7.344V-9.792H12.672v-7.32H11.328v7.32H4.008v1.344h7.32V-1.1h1.344Z" transform="translate(1023.24 2097)"/>
    <path id="パス_39" data-name="パス 39" d="M-39.648-4.512C-39.84-1.728-40.656-.432-42.84.7l.336.6a6.713,6.713,0,0,0,3.672-2.448,6.4,6.4,0,0,0,1.008-3.36h3.288V1.056h1.848V-4.512H-30l.96.192V-5.664l-.96.192h-2.688v-3.48h1.776l.96.192V-10.1l-.96.192H-41.136l-.96-.192V-8.76l.96-.192H-39.5V-8.4c0,.672-.024,1.728-.072,2.928h-2.448l-.936-.192V-4.32l.936-.192Zm1.992-4.44h3.12v3.48h-3.216c.072-1.056.1-2.016.1-2.928Zm2.712-2.88h7.08V-.456c0,.768-.336,1.1-1.1,1.1h-2.016V1.656h3.312c1.2,0,1.7-.5,1.7-1.728V-19.3h-8.976Zm1.8-.96v-2.352h5.28v2.352Zm0-3.312v-2.232h5.28V-16.1ZM-37.368-19.3h-8.664V1.776h1.9V-11.832h6.768Zm-6.768.96h4.968V-16.1h-4.968Zm4.968,3.192v2.352h-4.968v-2.352Zm29.616-3.528a66.018,66.018,0,0,1-8.088,6.624C-19.3-10.8-19.776-10.32-19.776-9.84c0,.36.312.744,1.008,1.2A39.186,39.186,0,0,1-7.968,1.632L-5.784.12A30.567,30.567,0,0,0-10.512-4.7,61.641,61.641,0,0,0-17.5-9.5c-.48-.264-.6-.36-.6-.456,0-.072.12-.168.552-.432a70.077,70.077,0,0,0,10.512-7.44c.48-.024.7-.168.7-.432,0-.168-.12-.312-.408-.528l-1.776-1.2Z" transform="translate(1029.032 2097)"/>
  </g>
</svg>
