<svg xmlns="http://www.w3.org/2000/svg" width="85.552" height="21.936" viewBox="0 0 85.552 21.936">
  <g id="btn-close" transform="translate(-959 -2076.84)">
    <path id="パス_42" data-name="パス 42" d="M12-10.08,5.76-16.32l-.96.96,6.24,6.24L4.8-2.88l.96.96L12-8.16l6.24,6.24.96-.96L12.96-9.12l6.24-6.24-.96-.96Z" transform="translate(1025.352 2097)"/>
    <path id="パス_41" data-name="パス 41" d="M-59.5-.984c-.024.72-.264.96-.984.984h-1.56V1.008h2.64c1.2,0,1.7-.5,1.7-1.728V-7.248h3.408l.96.192V-8.4l-.96.192H-57.7v-2.04c.312-.24.384-.312.384-.48,0-.216-.168-.312-.5-.312H-59.5v2.832h-6.24L-66.7-8.4v1.344l.96-.192h5.472l-.048.072A21.34,21.34,0,0,1-67.032-1.2l.288.576A16.854,16.854,0,0,0-59.5-5.592Zm.552-10.9h7.08V-.456c0,.768-.336,1.1-1.1,1.1h-2.016V1.656h3.312c1.2,0,1.7-.5,1.7-1.728V-19.3h-8.976Zm1.8-.96v-2.352h5.28v2.352Zm0-3.312v-2.184h5.28v2.184ZM-61.368-19.3h-8.664V1.776h1.9V-11.88h6.768Zm-6.768.96h4.968v2.184h-4.968Zm4.968,3.144v2.352h-4.968v-2.352Zm31.1-4.272A10.744,10.744,0,0,1-30.6-16.152l1.584-.768a4.687,4.687,0,0,0-2.616-2.856Zm6.1,1.992a4.738,4.738,0,0,0-2.88-2.688l-.408.36a10.274,10.274,0,0,1,1.728,3.168Zm-16.464-2.04.144,1.32-.216,7.56c-.024.768-.024,1.488-.024,2.184,0,4.416.384,6.312,1.56,7.56a7.436,7.436,0,0,0,5.208,1.92A8.53,8.53,0,0,0-28.2-3.216,12.327,12.327,0,0,0-26.856-7.2l-.744-.24a12.386,12.386,0,0,1-1.512,3.1,7.862,7.862,0,0,1-6.48,3.48,5.143,5.143,0,0,1-3.312-1.1,4.018,4.018,0,0,1-1.224-2.616A44.028,44.028,0,0,1-40.32-9.24c0-.528,0-.912.024-1.272l.216-7.752c.288-.264.408-.432.408-.648,0-.264-.264-.456-.624-.48Zm36.12,2.232c.7-.12.984-.312.984-.648A.675.675,0,0,0-5.76-18.5l-1.632-.864-.7.672c-2.544.168-3.36.192-8.88.264l-1.488-.552.192,1.7c4.392-.024,6.984-.1,9.36-.24L-21.384-7.008l1.176,1.416,3.1-2.592a15.194,15.194,0,0,1,6.72-1.68c3.288,0,5.28,1.536,5.28,4.08A4.615,4.615,0,0,1-6.648-2.352,5.334,5.334,0,0,1-8.784-1.08,7.829,7.829,0,0,0-10.56-3.768a5.9,5.9,0,0,0-4.1-1.824c-1.9,0-3.216,1.08-3.216,2.64,0,2.232,2.952,3.984,6.72,3.984,4.632,0,8.28-2.928,8.28-6.648,0-3.312-2.832-5.424-7.272-5.424a12.593,12.593,0,0,0-4.536.816ZM-10.2-.7a3.81,3.81,0,0,1-1.056.1,8.636,8.636,0,0,1-4.1-.96,1.707,1.707,0,0,1-1.08-1.488c0-.744.672-1.248,1.7-1.248,1.944,0,3.648,1.32,4.608,3.6Z" transform="translate(1029.032 2097)"/>
  </g>
</svg>
