<svg xmlns="http://www.w3.org/2000/svg" width="670" height="62.48" viewBox="0 0 670 62.48">
  <g id="sec06-tit01" transform="translate(-918 -3815.52)">
    <rect id="長方形_248" data-name="長方形 248" width="670" height="62.48" transform="translate(918 3815.52)" fill="none"/>
    <g id="グループ_900" data-name="グループ 900" transform="translate(-11.5 -0.48)">
      <path id="パス_143" data-name="パス 143" d="M.528-.576h1.28V-9.792H.528v-.576H3.264l3.52,8.016,3.392-8.016h2.672v.576h-1.28V-.576h1.28V0H8.928V-.576h1.28v-8.08L6.784-.592H6.048L2.5-8.72V-.576H3.728V0H.528Zm18.7,0V0h-4.5V-.576H16.3V-9.792H14.8v-.576h4.368v.576h-1.5V-.576Zm1.888,0H22.4V-9.792H21.12v-.576h2.608l4.816,7.776v-7.2h-1.28v-.576h3.248v.576h-1.28V0H28.5L23.088-8.816v8.24h1.28V0H21.12Zm15.616,0V0h-4.5V-.576h1.568V-9.792H32.3v-.576h4.368v.576h-1.5V-.576Zm9.536.864a9.231,9.231,0,0,0,4.4-1.6A5.661,5.661,0,0,0,52.976-6c0-3.52-2.608-5.84-6.592-5.84a7.348,7.348,0,0,0-4.8,1.584,6.551,6.551,0,0,0-2.352,5.1c0,2.4,1.1,4.144,2.608,4.144a2.787,2.787,0,0,0,2.016-1.1A9.811,9.811,0,0,0,45.632-5.2a26.04,26.04,0,0,0,1.36-5.808,4.313,4.313,0,0,1,2.464.816,4.9,4.9,0,0,1,1.968,4.08,5.581,5.581,0,0,1-2.736,4.848A9.354,9.354,0,0,1,46.144-.208ZM45.584-11.04a30.1,30.1,0,0,1-.736,3.9c-.8,3.04-2.048,5.3-2.944,5.3-.752,0-1.36-1.424-1.36-3.248A6.286,6.286,0,0,1,42.1-9.28,5.062,5.062,0,0,1,45.584-11.04ZM63.5-8.464c.224-.176.3-.288.3-.416a.3.3,0,0,0-.3-.256l-1.616-.128.128.928v.88c-.048,2.72-.5,4.144-1.7,5.312A10.31,10.31,0,0,1,56.848.016l.144.432a9.653,9.653,0,0,0,4.16-1.84,5.658,5.658,0,0,0,2.192-3.936,8.419,8.419,0,0,0,6.464-6.544H57.264l-.7-.144v1.024l.7-.144H67.952a8.23,8.23,0,0,1-4.528,5.2c.048-.544.08-1.056.08-1.584ZM81.52-8.576a41.136,41.136,0,0,0,3.408-3.008c.432-.048.608-.16.608-.384a.5.5,0,0,0-.256-.368l-1.232-.816-.576.864a31.127,31.127,0,0,1-10.5,7.28l.176.48A21.1,21.1,0,0,0,80.032-7.5V.848H81.52Zm10.112-1.76h9.056v8.544h-9.1l-.72-.144V-.912l.72-.144H102.24V-11.072H91.632l-.7-.144v1.024Zm28.48.32a15.882,15.882,0,0,1-4.08,5.184,15.05,15.05,0,0,1-7.344,3.248l-.848.016.576,1.424c.1.224.24.352.4.352.176,0,.3-.112.416-.368,3.616-.816,5.888-1.9,7.856-3.76a13.486,13.486,0,0,0,3.472-5.888ZM107.7-11.76a15.041,15.041,0,0,1,3.984,3.424l1.312-1.328a9.874,9.874,0,0,0-5.1-2.512ZM132.256-.624h.9V-12.336h4.464v-.9h-5.36ZM144.192-5.6a2.72,2.72,0,0,1,2.24,2.656,2.749,2.749,0,0,1-.52,1.68,3.324,3.324,0,0,1-1.344,1.072,4.173,4.173,0,0,1-1.72.368A3.46,3.46,0,0,1,141-.32a3.654,3.654,0,0,1-1.272-1.3l.512-.32a2.57,2.57,0,0,0,1.088,1.072,3.028,3.028,0,0,0,1.392.352,2.484,2.484,0,0,0,1.112-.256,2.061,2.061,0,0,0,.848-.784,2.379,2.379,0,0,0,.328-1.28,2.271,2.271,0,0,0-.648-1.7,2.212,2.212,0,0,0-1.608-.632h-.4v-.5a2.712,2.712,0,0,0,1.1-.24,2.085,2.085,0,0,0,.9-.76,2.276,2.276,0,0,0,.352-1.3,2.378,2.378,0,0,0-.448-1.464,1.518,1.518,0,0,0-1.3-.6,1.526,1.526,0,0,0-1.368.7,3.51,3.51,0,0,0-.52,1.736h-.864V-9.52a3.166,3.166,0,0,1,1.184-.768,4.264,4.264,0,0,1,1.568-.288,3.874,3.874,0,0,1,1.552.3,2.694,2.694,0,0,1,1.128.88,2.231,2.231,0,0,1,.424,1.36A2.622,2.622,0,0,1,144.192-5.6Zm14.256-4.768a4.107,4.107,0,0,1,3.44,1.384,5.668,5.668,0,0,1,1.088,3.608,7.163,7.163,0,0,1-.472,2.6,4.5,4.5,0,0,1-1.488,2A4.109,4.109,0,0,1,158.448,0h-4.864V-.576h1.28V-9.792h-1.28v-.576Zm0,9.792A2.474,2.474,0,0,0,160.8-1.968a7.256,7.256,0,0,0,.736-3.424,5.9,5.9,0,0,0-.76-3.216,2.574,2.574,0,0,0-2.328-1.184h-2.224V-.576Zm11.088.768a4.067,4.067,0,0,1-2.5-.736A4.2,4.2,0,0,1,165.6-2.456a7.019,7.019,0,0,1-.448-2.52,7.742,7.742,0,0,1,.456-2.632,4.7,4.7,0,0,1,1.5-2.112,4.092,4.092,0,0,1,2.656-.84,4.138,4.138,0,0,1,2.52.736,4.325,4.325,0,0,1,1.472,1.912,6.659,6.659,0,0,1,.472,2.5,7.416,7.416,0,0,1-.48,2.624,4.9,4.9,0,0,1-1.528,2.128A4.125,4.125,0,0,1,169.536.192Zm.384-.528a2.354,2.354,0,0,0,2.144-1.176,5.979,5.979,0,0,0,.72-3.144,9.508,9.508,0,0,0-.344-2.584,4.663,4.663,0,0,0-1.1-2.008,2.564,2.564,0,0,0-1.936-.784,2.3,2.3,0,0,0-2.136,1.16,5.772,5.772,0,0,0-.68,2.952,8.91,8.91,0,0,0,.8,3.952A2.649,2.649,0,0,0,169.92-.336Zm10.864.528a4.067,4.067,0,0,1-2.5-.736,4.2,4.2,0,0,1-1.432-1.912,7.019,7.019,0,0,1-.448-2.52,7.742,7.742,0,0,1,.456-2.632,4.7,4.7,0,0,1,1.5-2.112,4.092,4.092,0,0,1,2.656-.84,4.138,4.138,0,0,1,2.52.736A4.324,4.324,0,0,1,185-7.912a6.659,6.659,0,0,1,.472,2.5,7.416,7.416,0,0,1-.48,2.624,4.9,4.9,0,0,1-1.528,2.128A4.125,4.125,0,0,1,180.784.192Zm.384-.528a2.354,2.354,0,0,0,2.144-1.176,5.979,5.979,0,0,0,.72-3.144,9.508,9.508,0,0,0-.344-2.584,4.663,4.663,0,0,0-1.1-2.008,2.564,2.564,0,0,0-1.936-.784,2.3,2.3,0,0,0-2.136,1.16,5.772,5.772,0,0,0-.68,2.952,8.91,8.91,0,0,0,.8,3.952A2.649,2.649,0,0,0,181.168-.336Zm15.856-.24V0h-2.448l-3.04-4.784h-1.488V-.576h1.264V0h-3.9V-.576h1.28V-9.792h-1.28v-.576h4.656a3.215,3.215,0,0,1,2.352.776,2.662,2.662,0,0,1,.784,1.976,2.736,2.736,0,0,1-.592,1.784,2.771,2.771,0,0,1-1.616.952l2.88,4.3Zm-6.976-4.816h1.84a1.636,1.636,0,0,0,1.3-.616,2.359,2.359,0,0,0,.52-1.576,2.426,2.426,0,0,0-.5-1.6,1.632,1.632,0,0,0-1.32-.608h-1.84ZM199.024-.64c2.688-2.176,4.32-5.12,5.264-9.488.336-.128.48-.272.48-.464s-.176-.32-.624-.432l-1.408-.368-.048.96A21.9,21.9,0,0,1,198.672-.96Zm8.032-10.4A29.111,29.111,0,0,1,211.584-.784l1.632-.912c-1.168-3.968-3.36-7.7-5.728-9.7ZM220.272.944a8.486,8.486,0,0,0,5.056-2.816,12.43,12.43,0,0,0,2.4-5.632c.256-.064.352-.16.352-.3,0-.1-.08-.192-.24-.24l-1.5-.48-.032.848a15.415,15.415,0,0,1-1.68,4.608A8.447,8.447,0,0,1,220.112.48Zm.352-5.712a5.992,5.992,0,0,0-2.64-3.552l-.272.208a10.747,10.747,0,0,1,1.648,3.824Zm3.168-.4a6.331,6.331,0,0,0-2.528-3.552l-.288.224a10.817,10.817,0,0,1,1.536,3.824Zm9.552-2.176-.7-.144v1.024l.7-.144h6.016A6.941,6.941,0,0,1,238.1-2.464a9.564,9.564,0,0,1-4.272,2.8l.128.464A9.932,9.932,0,0,0,239.1-1.68c1.072-1.072,1.584-2.512,1.744-4.928h5.008l.7.144V-7.488l-.7.144H240.9c.032-.848.048-1.568.048-2.064v-1.44c.864-.08,1.664-.208,3.36-.512a2.381,2.381,0,0,0,.464.08.333.333,0,0,0,.336-.3.694.694,0,0,0-.24-.464l-.832-.784-.752.32a55.094,55.094,0,0,1-9.68,1.488l.032.5c1.248.032,1.44.032,1.936.032,1.232,0,1.728-.032,3.84-.192h.048v1.28c0,.464-.016,1.2-.048,2.064Zm30.608-4.592a3.2,3.2,0,0,0-1.888-1.664l-.256.224a6.431,6.431,0,0,1,1.072,2.016ZM249.344-.24c2.64-2.1,4.352-5.168,5.248-9.472.352-.128.5-.272.5-.48,0-.16-.128-.288-.368-.352l-1.664-.416-.048.928a21.717,21.717,0,0,1-4.016,9.488Zm8.048-10.384A30.8,30.8,0,0,1,261.824-.352l1.664-.928c-1.152-3.92-3.344-7.664-5.664-9.68Zm2.544-2.512a7.033,7.033,0,0,1,.976,2.192l1.072-.512a3.166,3.166,0,0,0-1.76-1.888ZM270.768.944a8.486,8.486,0,0,0,5.056-2.816,12.429,12.429,0,0,0,2.4-5.632c.256-.064.352-.16.352-.3,0-.1-.08-.192-.24-.24l-1.5-.48-.032.848a15.416,15.416,0,0,1-1.68,4.608A8.446,8.446,0,0,1,270.608.48Zm.352-5.712a5.992,5.992,0,0,0-2.64-3.552l-.272.208a10.747,10.747,0,0,1,1.648,3.824Zm3.168-.4A6.331,6.331,0,0,0,271.76-8.72l-.288.224a10.817,10.817,0,0,1,1.536,3.824Zm15.328-5.6c.176-.352.32-.7.56-1.328.3-.144.416-.24.416-.416,0-.144-.112-.24-.352-.288l-1.5-.32-.16.912a13.642,13.642,0,0,1-4.3,6.368l.256.384a10.736,10.736,0,0,0,4.7-4.576h5.008a13.973,13.973,0,0,1-3.9,7.168,15.725,15.725,0,0,1-6,3.136l.1.48A14.244,14.244,0,0,0,290.864-1.7c2.64-1.92,4.4-5.024,5.136-9.072Zm15.312-.752h-.9V.176h-4.464v.9h5.36ZM316.72-8.64l.256.992c.064.192.144.288.272.288s.224-.08.32-.32a21.853,21.853,0,0,1,2.416-.576,29.733,29.733,0,0,1-3.184,8l1.184.688a28.137,28.137,0,0,0,3.424-8.912,16.418,16.418,0,0,1,2.08-.192,1.1,1.1,0,0,1,1.024.448,3.975,3.975,0,0,1,.224,1.7,17.732,17.732,0,0,1-.752,5.024c-.352,1.024-.688,1.44-1.136,1.44a3.218,3.218,0,0,1-1.856-1.024l-.416.64a4.35,4.35,0,0,0,2.688,1.44c.848,0,1.408-.512,1.9-1.728a15.87,15.87,0,0,0,.912-5.488,4.6,4.6,0,0,0-.384-2.24c-.352-.64-1.136-.96-2.336-.96-.48,0-1.056.032-1.76.08.16-.688.272-1.328.528-2.752.24-.1.336-.192.336-.32s-.112-.24-.32-.288l-1.36-.3-.016.736c-.224,1.376-.368,2.224-.56,3.088-.992.128-1.984.3-3.04.512Zm14.56-3.3a3.126,3.126,0,0,0-1.872-1.664l-.272.224a6.664,6.664,0,0,1,1.088,2.016Zm-4.416,1.952c1.264,1.744,1.968,3.712,2.624,7.088l1.472-.624c-.608-3.072-2.08-5.712-3.76-6.72Zm.4-3.152a7.259,7.259,0,0,1,.992,2.192l1.056-.512a3.1,3.1,0,0,0-1.744-1.888Zm8.88,4.928,3.088-.5.656.016-.144-.88-.608.224-2.992.48V-12.5c.208-.144.256-.208.256-.32,0-.144-.112-.208-.336-.208H334.88v4.368l-1.008.16-.64-.016.144.9.592-.224L334.88-8v4.976c0,.944.4,1.36,1.344,1.344h1.648a1.15,1.15,0,0,0,1.36-1.216l.16-1.92-.72-.112-.112,1.44c-.048.448-.208.608-.656.608h-1.088c-.464,0-.672-.192-.672-.672Zm6.608-3.424h3.024c-.048,2.88-.16,5.04-.368,7.856A14.125,14.125,0,0,1,344.9-.048a1.046,1.046,0,0,1-1.056.464h-1.552v.672H344.7c1.168.016,1.664-.4,1.808-1.568a110.337,110.337,0,0,0,.7-11.792H339.28l-.64-.128v.9l.64-.128h2.1v1.008a24.488,24.488,0,0,1-1.136,7.68A8.5,8.5,0,0,1,337.216.88l.272.4c3.792-1.872,5.152-4.944,5.264-11.9ZM355.5.976A9.89,9.89,0,0,0,357.68.512,6.856,6.856,0,0,0,361.152-2c.7-1.056.976-2.416.976-4.752,0-1.232-.032-4.32-.048-5.376.192-.176.272-.288.272-.432,0-.16-.144-.256-.368-.272l-1.552-.128.112.864c.1,1.648.128,3.28.128,5.392,0,2.88-.448,4.144-1.936,5.456A7.691,7.691,0,0,1,355.408.464Zm-2.768-12.784c-.192,2.3-.24,3.376-.24,4.688,0,2.56.464,3.712,1.472,3.712.976,0,1.952-1.248,2.576-3.3l-.576-.256c-.8,1.728-1.216,2.32-1.6,2.32-.32,0-.5-.832-.5-2.416a40.492,40.492,0,0,1,.256-4.576c.24-.192.32-.3.32-.448s-.112-.24-.272-.272l-1.456-.192Zm19.088,8.8A3.549,3.549,0,0,1,369.7.464l.224.4a4.476,4.476,0,0,0,2.448-1.632,4.264,4.264,0,0,0,.672-2.24h2.192V.7h1.232V-3.008h1.792l.64.128v-.9l-.64.128h-1.792v-2.32h1.184l.64.128v-.9l-.64.128h-6.816l-.64-.128v.9l.64-.128h1.088V-5.6c0,.448-.016,1.152-.048,1.952H370.24l-.624-.128v.9l.624-.128Zm1.328-2.96h2.08v2.32h-2.144c.048-.7.064-1.344.064-1.952Zm1.808-1.92h4.72V-.3c0,.512-.224.736-.736.736H377.6V1.1h2.208c.8,0,1.136-.336,1.136-1.152V-12.864H374.96Zm1.2-.64V-10.1h3.52v1.568Zm0-2.208v-1.488h3.52v1.488Zm-2.816-2.128h-5.776V1.184h1.264V-7.888h4.512Zm-4.512.64h3.312v1.488h-3.312Zm3.312,2.128v1.568h-3.312V-10.1Zm20.576-2.352a44.01,44.01,0,0,1-5.392,4.416c-1.1.832-1.424,1.152-1.424,1.472,0,.24.208.5.672.8a26.124,26.124,0,0,1,7.2,6.848L395.232.08a20.379,20.379,0,0,0-3.152-3.216,41.094,41.094,0,0,0-4.656-3.2c-.32-.176-.4-.24-.4-.3,0-.048.08-.112.368-.288a46.719,46.719,0,0,0,7.008-4.96c.32-.016.464-.112.464-.288,0-.112-.08-.208-.272-.352l-1.184-.8ZM405.328.128a9.62,9.62,0,0,0-4.464-3.056l-.3.384a14.281,14.281,0,0,1,3.456,3.824ZM420.3-4.832A14.151,14.151,0,0,1,417.392-.4l.224.352a11.51,11.51,0,0,0,3.088-3.1l.032-.048V1.184h1.248V-3.328a12.484,12.484,0,0,1,1.664,2.16l.832-1.12a7.5,7.5,0,0,0-2.112-1.3c-.32-.128-.32-.144-.384-.16V-4.832h2.32l.64.128v-.9l-.64.128h-2.32V-7.424h2.576l.624.128v-.9l-.624.128h-2.016a20.492,20.492,0,0,0,1.216-2.816h.592l.64.128v-.9l-.64.128H422v-1.3c.208-.144.256-.208.256-.32,0-.144-.112-.208-.336-.208h-1.232v1.824h-2.432l-.64-.128v.9l.64-.128h.512l.016.048a17.1,17.1,0,0,1,.528,2.448l.032.16.032.16h-1.36l-.624-.128v.9l.624-.128h2.72v1.952h-2.48l-.64-.128v.9l.64-.128Zm2.176-6.048a26.24,26.24,0,0,1-.464,2.768L422-8.064h-2.384l1.008-.64a9.2,9.2,0,0,0-1.328-2.128l-.032-.048Zm4.528-1.184-1.264-.464v1.968a48.287,48.287,0,0,1-.256,7.12,7.745,7.745,0,0,1-1.968,4.3l.272.336a6.422,6.422,0,0,0,2.816-4.064,18.945,18.945,0,0,0,.384-4.48h2.1V1.184h1.28V-7.344h1.1l.64.128v-.9l-.64.128h-4.464v-3.552a19.084,19.084,0,0,0,3.952-.5,1.66,1.66,0,0,0,.368.048c.128,0,.272-.1.272-.208a.292.292,0,0,0-.1-.16l-.928-.96a18.259,18.259,0,0,1-3.52,1.232Zm11.2,2.272A47.774,47.774,0,0,1,434.88.192L436.3.608a55.5,55.5,0,0,0,3.3-10.432,38.154,38.154,0,0,0,5.344-.4l.064-1.1-1.1.48c-1.424.16-2.016.224-3.36.272-.064,0-.4.016-.784.032v-.032l.048-.24c.064-.32.128-.624.3-1.472.192-.128.288-.24.288-.384a.3.3,0,0,0-.272-.272l-1.408-.288-.032,1.008c-.144.768-.176.992-.336,1.728h-2.608l-1.008-.336.1,1.072h1.04c.56,0,.768,0,1.744-.016Zm2.976,5.52a4.509,4.509,0,0,0-.544,2.112c0,1.872,1.536,2.7,4.976,2.7a16.946,16.946,0,0,0,2.7-.192V-1.2a11.781,11.781,0,0,1-3.056.368,6.459,6.459,0,0,1-3.056-.56,1.4,1.4,0,0,1-.752-1.312,4.887,4.887,0,0,1,.24-1.424Zm6.5-3.952a10.348,10.348,0,0,0-1.7-.128,10.065,10.065,0,0,0-3.184.5,4.743,4.743,0,0,0-1.136.528l.128.464a16.052,16.052,0,0,1,2.96-.256,10.444,10.444,0,0,1,2.928.336Zm7.52-2.912c-1.36,0-1.92-.032-2.784-.08l-.864-.368.08,1.088c1.152.08,1.712.1,2.7.1h.624a35.354,35.354,0,0,1-3.632,7.856l1.216.784a42.505,42.505,0,0,0,3.856-8.688c1.216-.048,2.544-.16,3.872-.336l.048-1.136-.992.5c-1.136.128-1.792.192-2.672.24a1.913,1.913,0,0,1,.064-.224c.048-.144.192-.576.336-1.04.24-.16.288-.24.288-.352a.259.259,0,0,0-.224-.256l-1.408-.272-.128.816c-.08.32-.144.56-.176.672l-.192.656Zm10.208,9.488a9.77,9.77,0,0,0-3.9-2.128V-6.768c.256-.176.32-.24.32-.352,0-.16-.144-.256-.384-.256l-1.264-.016.048,1.184v2.176a8.624,8.624,0,0,0-1.408-.112c-2.08,0-3.328.9-3.328,2.4,0,1.52,1.488,2.624,3.536,2.624a2.432,2.432,0,0,0,2.256-.96,2.427,2.427,0,0,0,.224-1.2V-2.608a10.572,10.572,0,0,1,2.96,2.16Zm-5.184.3c0,.768-.448,1.136-1.392,1.136-1.472,0-2.56-.688-2.56-1.632a1.1,1.1,0,0,1,.288-.736,2.756,2.756,0,0,1,2-.592,5.878,5.878,0,0,1,1.664.224Zm5.376-7.9a7.93,7.93,0,0,0-3.136-.512,8.027,8.027,0,0,0-2.816.416l.032.448a11.931,11.931,0,0,1,5.024.96Zm11.04,3.92a20.147,20.147,0,0,0,3.3-6.48h-9.472l-.7-.144v1.024l.7-.144h7.568A18.438,18.438,0,0,1,468.368-.288l.224.5A16.085,16.085,0,0,0,476.3-4.9,27.31,27.31,0,0,1,480.88.32L482.3-.832a19.544,19.544,0,0,0-5.456-4.384Zm21.7-1.536.7.144V-7.744l-.7.144H485.824l-.7-.144V-6.72l.7-.144h5.712a9,9,0,0,1-.544,3.5A7.427,7.427,0,0,1,486.144.352l.128.528c2.592-.528,4.7-1.648,5.632-2.976a7.643,7.643,0,0,0,1.184-4.768Zm-2.08-5.184h-8.448l-.7-.144v1.024l.7-.144h8.448l.7.144v-1.024ZM515.7-6.464l-13.36-.5v1.68l13.36-.48Zm16.72-5.424a3.21,3.21,0,0,0-1.856-1.7l-.272.224a6.108,6.108,0,0,1,1.056,2.016Zm-.4,2.688a12.806,12.806,0,0,1-2.7,4.144,13.3,13.3,0,0,1-8.048,3.9l-.768.016.576,1.344c.1.24.224.352.384.352.176,0,.272-.08.4-.32,3.9-.784,6.528-2.208,8.352-4.5A12.3,12.3,0,0,0,532.5-9.024Zm-11.328-2.464A15.523,15.523,0,0,1,524.8-9.712l.848-1.424a10.237,10.237,0,0,0-4.864-.976Zm7.632-1.488a7.065,7.065,0,0,1,.944,2.224l1.072-.48a3.184,3.184,0,0,0-1.728-1.952Zm-8.416,6A14.379,14.379,0,0,1,524-5.376l.816-1.44A9.057,9.057,0,0,0,520.8-7.6c-.192,0-.448,0-.8.016ZM537.76-3.728a2.507,2.507,0,0,0-2.544,2.48,2.51,2.51,0,0,0,2.512,2.528,2.513,2.513,0,0,0,2.5-2.512A2.525,2.525,0,0,0,537.76-3.728Zm-.064.736a1.769,1.769,0,0,1,1.792,1.744,1.772,1.772,0,0,1-1.76,1.792,1.782,1.782,0,0,1-1.776-1.776A1.783,1.783,0,0,1,537.7-2.992Z" transform="translate(929 3877.2)"/>
      <path id="パス_142" data-name="パス 142" d="M32.85-2.4V0H19V-2.4h3.9l-3.05-9.05H10.4L7.25-2.4h3.7V0H.5V-2.4H4.3L15-32.4h3.55l10.7,30ZM19-13.95,15.3-24.9h-.25l-3.8,10.95ZM34.4-2.4h3.9V-30H34.4v-2.4H48.25V-30h-3.9V-2.4H54.2l2.5-6.7h3.5V0H34.4Zm27.95,0h3.9V-30h-3.9v-2.4H76.2V-30H72.3V-2.4h9.85l2.5-6.7h3.5V0H62.35ZM91.1-14.45h11.4v2.9H91.1ZM131.4-9.1V0H105.6V-2.4h3.9V-30h-3.9v-2.4H131v9.1h-3.5L124.95-30h-9.4v11.65h5.2v-3.9h3v10.3h-3v-3.9h-5.2V-2.4h9.85l2.5-6.7Zm2.75,6.7h3.9V-30h-3.9v-2.4H148V-30h-3.9V-2.4h9.85l2.5-6.7h3.5V0h-25.8ZM187.9-9.1V0H162.1V-2.4H166V-30h-3.9v-2.4h25.4v9.1H184L181.45-30h-9.4v11.65h5.2v-3.9h3v10.3h-3v-3.9h-5.2V-2.4h9.85l2.5-6.7ZM205.55.6a14.109,14.109,0,0,1-8.425-2.35,13.5,13.5,0,0,1-4.75-5.975A20.3,20.3,0,0,1,190.9-15.45a23.594,23.594,0,0,1,1.55-8.6,14.5,14.5,0,0,1,4.825-6.475A13.339,13.339,0,0,1,205.55-33a16.4,16.4,0,0,1,5.65.85,26.636,26.636,0,0,1,4.4,2.1v6.75h-4.25q-.4-3.9-2.1-5.7A5.6,5.6,0,0,0,205-30.8a6.381,6.381,0,0,0-5.95,3.5,18.021,18.021,0,0,0-1.95,8.85,27.508,27.508,0,0,0,1.225,8.675A12.939,12.939,0,0,0,201.7-4.15a7.031,7.031,0,0,0,4.85,1.95,7.488,7.488,0,0,0,4.9-1.725,8.691,8.691,0,0,0,2.8-5.225h2.6a11.3,11.3,0,0,1-3.825,7.2A11.325,11.325,0,0,1,205.55.6Zm19.3-3h4.75V-30h-4.5l-2.5,6.7h-3.25v-9.1H245.9v9.1h-3.25L240.1-30h-4.45V-2.4h4.75V0H224.85Zm53.95,0V0h-8.95l-9.1-14.7h-2.8V-2.4h3.9V0H248V-2.4h3.9V-30H248v-2.4h15.05q5.15,0,7.8,2.5a8.236,8.236,0,0,1,2.65,6.25,8.391,8.391,0,0,1-1.7,5.2,9.168,9.168,0,0,1-4.7,3.2L275.35-2.4ZM257.95-17.1h4.55a3.911,3.911,0,0,0,3.25-1.925,7.85,7.85,0,0,0,1.35-4.625,7.55,7.55,0,0,0-1.3-4.575A3.939,3.939,0,0,0,262.5-30h-4.55ZM291.1-30V-2.4h4.85V0H280.2V-2.4h4.85V-30H280.2v-2.4h15.75V-30ZM313.15.6a14.109,14.109,0,0,1-8.425-2.35,13.5,13.5,0,0,1-4.75-5.975A20.3,20.3,0,0,1,298.5-15.45a23.594,23.594,0,0,1,1.55-8.6,14.5,14.5,0,0,1,4.825-6.475A13.338,13.338,0,0,1,313.15-33a16.4,16.4,0,0,1,5.65.85,26.636,26.636,0,0,1,4.4,2.1v6.75h-4.25q-.4-3.9-2.1-5.7a5.6,5.6,0,0,0-4.25-1.8,6.381,6.381,0,0,0-5.95,3.5,18.021,18.021,0,0,0-1.95,8.85,27.507,27.507,0,0,0,1.225,8.675A12.939,12.939,0,0,0,309.3-4.15a7.031,7.031,0,0,0,4.85,1.95,7.488,7.488,0,0,0,4.9-1.725,8.691,8.691,0,0,0,2.8-5.225h2.6a11.3,11.3,0,0,1-3.825,7.2A11.325,11.325,0,0,1,313.15.6Zm26.45-3h3.9V-30h-3.9v-2.4h9.65L359.7-9.55l9.75-22.85h9.65V-30h-3.9V-2.4h3.9V0H365.4V-2.4h3.75V-24.75L359.6-2.4h-3.1L346.25-24.7V-2.4h3.7V0H339.6ZM392.3-30V-2.4h4.85V0H381.4V-2.4h4.85V-30H381.4v-2.4h15.75V-30Zm7.15,27.6h3.9V-30h-3.9v-2.4h8.95l14.25,22.3V-30H418.8v-2.4h10.5V-30h-3.9V0h-3.7L406.1-24.65V-2.4h3.75V0h-10.4ZM442-30V-2.4h4.85V0H431.1V-2.4h4.85V-30H431.1v-2.4h15.75V-30ZM476.55.6a14.109,14.109,0,0,1-8.425-2.35,13.5,13.5,0,0,1-4.75-5.975A20.3,20.3,0,0,1,461.9-15.45a23.594,23.594,0,0,1,1.55-8.6,14.5,14.5,0,0,1,4.825-6.475A13.338,13.338,0,0,1,476.55-33a16.4,16.4,0,0,1,5.65.85,26.636,26.636,0,0,1,4.4,2.1v6.75h-4.25q-.4-3.9-2.1-5.7A5.6,5.6,0,0,0,476-30.8a6.381,6.381,0,0,0-5.95,3.5,18.021,18.021,0,0,0-1.95,8.85,27.507,27.507,0,0,0,1.225,8.675A12.939,12.939,0,0,0,472.7-4.15a7.031,7.031,0,0,0,4.85,1.95,7.488,7.488,0,0,0,4.9-1.725,8.691,8.691,0,0,0,2.8-5.225h2.6a11.3,11.3,0,0,1-3.825,7.2A11.325,11.325,0,0,1,476.55.6ZM505.4.6a14.334,14.334,0,0,1-8.425-2.3,13.214,13.214,0,0,1-4.75-5.9,19.98,19.98,0,0,1-1.475-7.65,23.654,23.654,0,0,1,1.575-8.65,14.887,14.887,0,0,1,4.875-6.575A13.1,13.1,0,0,1,505.4-33a14.386,14.386,0,0,1,8.375,2.3,13.245,13.245,0,0,1,4.825,5.925,19.747,19.747,0,0,1,1.5,7.625,23.654,23.654,0,0,1-1.575,8.65,14.887,14.887,0,0,1-4.875,6.575A13.18,13.18,0,0,1,505.4.6Zm.65-2.2a6.342,6.342,0,0,0,5.925-3.45A18.036,18.036,0,0,0,513.9-13.9,28.517,28.517,0,0,0,511.65-26q-2.25-4.8-6.8-4.8a6.381,6.381,0,0,0-5.95,3.5,18.137,18.137,0,0,0-1.95,8.9,27.9,27.9,0,0,0,2.275,12.05Q501.5-1.6,506.05-1.6ZM538.55.6a14.334,14.334,0,0,1-8.425-2.3,13.214,13.214,0,0,1-4.75-5.9,19.98,19.98,0,0,1-1.475-7.65,23.654,23.654,0,0,1,1.575-8.65,14.887,14.887,0,0,1,4.875-6.575A13.1,13.1,0,0,1,538.55-33a14.386,14.386,0,0,1,8.375,2.3,13.245,13.245,0,0,1,4.825,5.925,19.747,19.747,0,0,1,1.5,7.625,23.654,23.654,0,0,1-1.575,8.65A14.887,14.887,0,0,1,546.8-1.925,13.179,13.179,0,0,1,538.55.6Zm.65-2.2a6.342,6.342,0,0,0,5.925-3.45,18.036,18.036,0,0,0,1.925-8.85A28.517,28.517,0,0,0,544.8-26q-2.25-4.8-6.8-4.8a6.381,6.381,0,0,0-5.95,3.5,18.137,18.137,0,0,0-1.95,8.9,27.9,27.9,0,0,0,2.275,12.05Q534.65-1.6,539.2-1.6Zm31.65-30.8a11.552,11.552,0,0,1,7.625,2.35A7.829,7.829,0,0,1,581.3-23.7a8.378,8.378,0,0,1-1.325,4.65,8.747,8.747,0,0,1-3.7,3.175,12.528,12.528,0,0,1-5.425,1.125h-5.1V-2.4h3.9V0H555.8V-2.4h3.9V-30h-3.9v-2.4Zm-.55,15.25a3.911,3.911,0,0,0,3.25-1.925A7.85,7.85,0,0,0,574.9-23.7a7.567,7.567,0,0,0-1.275-4.525A3.919,3.919,0,0,0,570.3-30h-4.55v12.85ZM609.4-9.1V0H583.6V-2.4h3.9V-30h-3.9v-2.4H609v9.1h-3.5L602.95-30h-9.4v11.65h5.2v-3.9h3v10.3h-3v-3.9h-5.2V-2.4h9.85l2.5-6.7Zm33.55,6.7V0H634l-9.1-14.7h-2.8V-2.4H626V0H612.15V-2.4h3.9V-30h-3.9v-2.4H627.2q5.15,0,7.8,2.5a8.236,8.236,0,0,1,2.65,6.25,8.39,8.39,0,0,1-1.7,5.2,9.168,9.168,0,0,1-4.7,3.2L639.5-2.4ZM622.1-17.1h4.55a3.911,3.911,0,0,0,3.25-1.925,7.85,7.85,0,0,0,1.35-4.625,7.55,7.55,0,0,0-1.3-4.575A3.939,3.939,0,0,0,626.65-30H622.1ZM645.25-2.8a3.232,3.232,0,0,1,.975-2.375A3.232,3.232,0,0,1,648.6-6.15a3.232,3.232,0,0,1,2.375.975A3.232,3.232,0,0,1,651.95-2.8a3.232,3.232,0,0,1-.975,2.375A3.232,3.232,0,0,1,648.6.55a3.232,3.232,0,0,1-2.375-.975A3.232,3.232,0,0,1,645.25-2.8Z" transform="translate(929 3849)"/>
    </g>
  </g>
</svg>
