<svg xmlns="http://www.w3.org/2000/svg" width="680" height="137" viewBox="0 0 680 137">
  <g id="sec02-02" transform="translate(-453 -7616)">
    <g id="パス_81" data-name="パス 81" transform="translate(453 7616)" fill="#fff">
      <path d="M 679.5 136.5 L 0.5 136.5 L 0.5 0.5 L 679.5 0.5 L 679.5 136.5 Z" stroke="none"/>
      <path d="M 1 1 L 1 136 L 679 136 L 679 1 L 1 1 M 0 0 L 680 0 L 680 137 L 0 137 L 0 0 Z" stroke="none" fill="#707070"/>
    </g>
    <path id="パス_80" data-name="パス 80" d="M1.248.672h13.5v-13.5H1.248Zm29.824-4.08.624.128v-.9l-.624.128H25.1A17.773,17.773,0,0,0,25.28-5.84H29.3l.64.128v-.9l-.64.128H25.312c.032-.24.048-.912.064-1.632H29.92l.64.128v-.9l-.64.128H25.392v-1.264c.208-.144.256-.208.256-.32,0-.144-.112-.208-.336-.208H24.08v.9l-.016.9H19.888l-.64-.128v.9l.64-.128h4.176v.688l-.048.9v.048H20.352l-.624-.128v.9l.624-.128h3.632c-.08.96-.128,1.328-.208,1.792H18.608l-.64-.128v.9l.64-.128h5.024C23.12-1.52,20.976-.048,17.472.768L17.6,1.3A12.307,12.307,0,0,0,23.136-.64,4.5,4.5,0,0,0,24.88-3.088l.032.048C25.968-.992,28.368.528,31.5,1.136a10.982,10.982,0,0,1,.688-1.472c-3.168-.352-5.776-1.488-6.96-3.072Zm-11.5-8.32v-.144a2.751,2.751,0,0,0-.048-.544h-.544a4.473,4.473,0,0,1-1.5,2.672l.928,1.2a3.438,3.438,0,0,0,1.136-2.544H30.3a10.929,10.929,0,0,1-.848,1.76l.336.256a5.976,5.976,0,0,0,2.4-2.656h-6.7v-1.184c.208-.144.256-.208.256-.32,0-.144-.112-.208-.336-.208H24.032v1.712Zm24.56,4.944-1.456.32V-8.288c.208-.144.256-.208.256-.32,0-.144-.112-.208-.336-.208H41.5v2.592l-.528.128H40.32l.192.864.592-.256.4-.08V-.48c-.016.944.464,1.3,1.776,1.3h3.856C48.256.8,48.688.464,48.816-.512l.192-1.36-.688-.08L48.16-.944c-.08.5-.3.64-.992.64H43.5c-.608-.016-.816-.16-.832-.56v-4.96l1.456-.3v4.736H45.3V-6.384l1.648-.352V-3.7c0,.432-.128.56-.544.608l-.688.08v.656L46.944-2.5c.864-.1,1.184-.464,1.184-1.376V-7.648L45.3-7.04V-9.3c.208-.144.256-.208.256-.32,0-.144-.112-.208-.336-.208H44.128Zm3.984-3.6.64.128v-.9l-.64.128H42.448c.192-.352.368-.688.736-1.44.336-.128.432-.224.432-.416,0-.128-.128-.256-.3-.3L42.1-13.44a15.289,15.289,0,0,1-2.432,5.072l.32.3a10.518,10.518,0,0,0,2.08-2.32Zm-11.9.464v.56c-.064,5.424-.576,8.128-1.9,10.208l.3.272c1.68-1.456,2.528-3.92,2.752-7.872h1.408a53.432,53.432,0,0,1-.384,5.728C38.224.32,38.176.4,37.552.432H36.464V1.1h1.712c.912,0,1.232-.32,1.376-1.36.176-.96.384-4.1.48-7.136h-2.64c.032-.8.048-1.472.048-1.968v-.56H39.7l.64.128v-.9l-.64.128h-1.68v-2.256c.208-.144.256-.208.256-.3,0-.16-.112-.224-.336-.224H36.7v2.784h-1.68l-.64-.128v.9l.64-.128ZM58.48-4.512H54.768v5.7H56.08V.3h7.168v.768h1.344V-4.512H59.824V-7.2h4.608l.608.128v-.9l-.608.128H59.824v-1.9c.208-.144.256-.208.256-.32,0-.144-.112-.208-.336-.208H58.48ZM56.08-.336V-3.872h7.168V-.336Zm3.632-11.328v-1.248c.208-.144.256-.208.256-.32,0-.144-.112-.208-.336-.208H58.256v1.776H52.384V-9.04c0,6.032-.192,7.632-1.248,9.952l.352.224A8.188,8.188,0,0,0,53.312-2.3c.3-1.056.432-2.944.448-6.736v-1.984H65.008l.64.128v-.9l-.64.128Zm11.92-.88.064-.128c.288-.048.416-.144.416-.288a.238.238,0,0,0-.208-.192l-1.36-.288a18.267,18.267,0,0,1-2.576,4.688l.32.3a12.535,12.535,0,0,0,3.1-3.68l.048.048a14.656,14.656,0,0,1,1.824,2.32l.912-.992A8.856,8.856,0,0,0,71.6-12.5ZM77.664-8.9H74.752V.864H75.9V-2.944h1.76V1.184h1.152V-2.944h2.016V-.576c-.016.5-.176.656-.656.672H79.52V.768h1.136C81.6.768,82.016.384,82-.5V-8.9H78.816v-1.616h3.248l.624.128v-.9l-.624.128H78.816v-1.664c.208-.16.256-.208.256-.32,0-.144-.112-.208-.336-.208H77.664v2.192h-2.64l-.64-.128v.9l.64-.128h2.64Zm0,5.312H75.9v-2.1h1.76Zm1.152,0v-2.1h2.016v2.1ZM77.664-6.32H75.9V-8.256h1.76Zm1.152,0V-8.256h2.016V-6.32Zm-8.144.56H68.7l-.64-.128v.9l.64-.128h4.784l.64.128v-.9l-.64.128H71.84V-7.744h1.28l.64.128v-.9l-.64.128H71.84V-9.776c.208-.144.256-.208.256-.32,0-.144-.112-.208-.336-.208H70.672v1.92H69.536l-.624-.128v.9l.624-.128h1.136Zm2.944,6.5V-3.888H68.8v4.8h1.152V.064h2.5V.736ZM72.448-.576h-2.5V-3.248h2.5Zm9.376-11.488A10.039,10.039,0,0,0,79.872-13.2l-.32.288a9.238,9.238,0,0,1,1.264,1.68ZM92.176-3.472a1.089,1.089,0,0,0-1.1,1.072,1.076,1.076,0,0,0,1.072,1.088A1.079,1.079,0,0,0,93.232-2.4,1.079,1.079,0,0,0,92.176-3.472Zm0-7.36a1.089,1.089,0,0,0-1.1,1.072A1.089,1.089,0,0,0,92.16-8.672,1.076,1.076,0,0,0,93.232-9.76,1.079,1.079,0,0,0,92.176-10.832ZM111.824-.576h1.28V-9.792h-1.28v-.576h2.736l3.52,8.016,3.392-8.016h2.672v.576h-1.28V-.576h1.28V0h-3.92V-.576h1.28v-8.08L118.08-.592h-.736L113.792-8.72V-.576h1.232V0h-3.2Zm18.7,0V0h-4.5V-.576H127.6V-9.792h-1.5v-.576h4.368v.576h-1.5V-.576Zm1.888,0h1.28V-9.792h-1.28v-.576h2.608l4.816,7.776v-7.2h-1.28v-.576h3.248v.576h-1.28V0h-.736l-5.408-8.816v8.24h1.28V0h-3.248Zm15.616,0V0h-4.5V-.576H145.1V-9.792h-1.5v-.576h4.368v.576h-1.5V-.576Zm9.36-12.416-.48.5c-.96.08-1.648.112-3.44.144l-1.008-.336.1,1.056c.56.016.976.032,1.248.032.8,0,1.84-.048,3.136-.16-.656,2.032-.992,2.96-1.616,4.624a7.382,7.382,0,0,0-1.952.32,3.836,3.836,0,0,0-2.928,3.648,2.149,2.149,0,0,0,1.888,2.4,2.58,2.58,0,0,0,2.048-1.392,23.42,23.42,0,0,0,2-4.144,15.385,15.385,0,0,1,4.736.992C160.528-2.384,159.472-.8,157.248.5l.208.4A6.585,6.585,0,0,0,160.928-1.3a7.9,7.9,0,0,0,1.488-3.488c.784.368,1.1.528,1.872.96l.464-1.088a15.862,15.862,0,0,0-2.128-.944c.112-.672.16-.992.24-1.744.208-.128.288-.24.288-.368s-.128-.24-.368-.288l-1.312-.3.016.688c-.08.816-.1.9-.192,1.6a22.305,22.305,0,0,0-4.608-.832c.72-1.888.928-2.464,1.616-4.464.32-.192.448-.352.448-.528a.417.417,0,0,0-.24-.336Zm-2.576,7.168c-1.36,3.184-1.936,4.1-2.608,4.1-.448,0-.816-.56-.816-1.264a3.225,3.225,0,0,1,1.728-2.72,4.7,4.7,0,0,1,1.888-.544Zm16.192-5.312c-1.36,0-1.92-.032-2.784-.08l-.864-.368.08,1.088c1.152.08,1.712.1,2.7.1h.624a35.354,35.354,0,0,1-3.632,7.856l1.216.784a42.505,42.505,0,0,0,3.856-8.688c1.216-.048,2.544-.16,3.872-.336l.048-1.136-.992.5c-1.136.128-1.792.192-2.672.24a1.9,1.9,0,0,1,.064-.224c.048-.144.192-.576.336-1.04.24-.16.288-.24.288-.352a.259.259,0,0,0-.224-.256l-1.408-.272-.128.816c-.08.32-.144.56-.176.672l-.192.656Zm10.208,9.488a9.77,9.77,0,0,0-3.9-2.128V-6.768c.256-.176.32-.24.32-.352,0-.16-.144-.256-.384-.256l-1.264-.016.048,1.184v2.176a8.624,8.624,0,0,0-1.408-.112c-2.08,0-3.328.9-3.328,2.4,0,1.52,1.488,2.624,3.536,2.624a2.432,2.432,0,0,0,2.256-.96,2.426,2.426,0,0,0,.224-1.2V-2.608a10.571,10.571,0,0,1,2.96,2.16Zm-5.184.3c0,.768-.448,1.136-1.392,1.136-1.472,0-2.56-.688-2.56-1.632a1.1,1.1,0,0,1,.288-.736,2.756,2.756,0,0,1,2-.592,5.877,5.877,0,0,1,1.664.224Zm5.376-7.9a7.93,7.93,0,0,0-3.136-.512,8.027,8.027,0,0,0-2.816.416l.032.448a11.931,11.931,0,0,1,5.024.96Zm8.7-3.184c.192-.16.256-.272.256-.4a.3.3,0,0,0-.3-.272H188.48l.272.96L189.76-7.28A14.439,14.439,0,0,0,187.776-6.1c-1.568,1.12-2.24,2.128-2.24,3.344a2.857,2.857,0,0,0,1.92,2.72A11.816,11.816,0,0,0,191.92.56a30.476,30.476,0,0,0,4.544-.272V-1.264a24.115,24.115,0,0,1-4.688.432c-3.616,0-5.152-.592-5.152-2.016,0-1.9,2.9-3.632,9.232-5.536a.887.887,0,0,0,.432.144.291.291,0,0,0,.272-.256.553.553,0,0,0-.048-.192l-.56-1.3-.56.416c-1.248.48-2.448.928-3.584,1.376-.32.128-.544.208-.784.32Zm17.776-.56-.48.5c-.96.08-1.648.112-3.44.144l-1.008-.336.1,1.056c.56.016.976.032,1.248.032.8,0,1.84-.048,3.136-.16-.656,2.032-.992,2.96-1.616,4.624a7.382,7.382,0,0,0-1.952.32,3.836,3.836,0,0,0-2.928,3.648,2.149,2.149,0,0,0,1.888,2.4A2.58,2.58,0,0,0,204.88-2.16a23.42,23.42,0,0,0,2-4.144,15.385,15.385,0,0,1,4.736.992C211.024-2.384,209.968-.8,207.744.5l.208.4A6.585,6.585,0,0,0,211.424-1.3a7.9,7.9,0,0,0,1.488-3.488c.784.368,1.1.528,1.872.96l.464-1.088a15.862,15.862,0,0,0-2.128-.944c.112-.672.16-.992.24-1.744.208-.128.288-.24.288-.368s-.128-.24-.368-.288l-1.312-.3.016.688c-.08.816-.1.9-.192,1.6a22.305,22.305,0,0,0-4.608-.832c.72-1.888.928-2.464,1.616-4.464.32-.192.448-.352.448-.528a.417.417,0,0,0-.24-.336Zm-2.576,7.168c-1.36,3.184-1.936,4.1-2.608,4.1-.448,0-.816-.56-.816-1.264a3.225,3.225,0,0,1,1.728-2.72,4.7,4.7,0,0,1,1.888-.544ZM220.7-3.312a6.584,6.584,0,0,1,1.5-1.744,6.436,6.436,0,0,1,4.064-1.472c1.808,0,2.928.928,2.928,2.416s-1.088,2.688-3.1,3.472A18.1,18.1,0,0,1,222.128.3l.064.544A17.38,17.38,0,0,0,227.44.016C229.6-.8,230.8-2.224,230.8-4a3.092,3.092,0,0,0-.944-2.272,4.745,4.745,0,0,0-3.344-1.088,7.143,7.143,0,0,0-5.44,2.32l.368-4.832c.224-.16.3-.256.3-.4s-.112-.256-.3-.272l-1.488-.16.112.832-.432,6.56Zm.976-9.184a13.221,13.221,0,0,1,5.2,1.712l1.152-1.344a7.537,7.537,0,0,0-1.52-.528,15.651,15.651,0,0,0-3.424-.416c-.352,0-.672.016-1.36.048Zm18.8,8.976c-.368,1.456-.864,2.432-1.248,2.432-.368,0-.944-.752-1.392-1.776a18.964,18.964,0,0,1-.9-6.848v-1.024c.272-.192.352-.288.352-.448s-.16-.272-.4-.288l-1.44-.1.08.96c.016,2.064.032,3.168.032,3.312a15.063,15.063,0,0,0,.96,5.04c.688,1.664,1.552,2.544,2.464,2.544.9,0,1.68-1.28,2.192-3.584Zm8.256.128a12.127,12.127,0,0,0-4.1-7.472l-.4.3A19.488,19.488,0,0,1,247.2-2.7Zm7.056,3.52a9.62,9.62,0,0,0-4.464-3.056l-.3.384A14.281,14.281,0,0,1,254.48,1.28Zm11.952-.7h1.28V-9.792h-1.28v-.576h2.736L274-2.352l3.392-8.016h2.672v.576h-1.28V-.576h1.28V0h-3.92V-.576h1.28v-8.08L274-.592h-.736L269.712-8.72V-.576h1.232V0h-3.2Zm18.7,0V0h-4.5V-.576h1.568V-9.792h-1.5v-.576h4.368v.576h-1.5V-.576Zm1.888,0h1.28V-9.792h-1.28v-.576h2.608l4.816,7.776v-7.2h-1.28v-.576h3.248v.576h-1.28V0h-.736L290.3-8.816v8.24h1.28V0h-3.248Zm15.616,0V0h-4.5V-.576h1.568V-9.792h-1.5v-.576h4.368v.576h-1.5V-.576Zm16-7.184.64.128v-.9l-.64.128h-2.5v-2.336h1.68l.64.128v-.9l-.64.128h-1.68v-1.44c.208-.144.256-.208.256-.32,0-.144-.112-.208-.336-.208h-1.12v1.968h-2.72v-1.44c.208-.16.256-.208.256-.32,0-.144-.112-.208-.336-.208H312.3v1.968h-1.536l-.624-.128v.9l.624-.128H312.3V-8.4H310l-.64-.128v.9L310-7.76h2.16l-.016.064A11.233,11.233,0,0,1,309.216-4l.208.352A8.955,8.955,0,0,0,311.632-5.2H316.5v1.936H311.04V-.48c.032.96.528,1.3,1.936,1.3h5.12c1.072.016,1.6-.464,1.632-1.5l.112-1.392-.672-.064-.1,1.184a.715.715,0,0,1-.848.656h-4.976c-.688-.016-.976-.176-.976-.544V-2.624h5.456V-5.568a7.309,7.309,0,0,0,2.3,1.728c.288-.624.336-.7.64-1.264A7.933,7.933,0,0,1,316.9-7.76Zm-3.568,0a8.1,8.1,0,0,0,1.12,1.92H312.24a7.8,7.8,0,0,0,1.3-1.92Zm-2.848-.64v-2.336h2.72V-8.4Zm-6.512-4.224A13.117,13.117,0,0,1,308.9-10.56l.944-1.264a7.5,7.5,0,0,0-2.592-1.232ZM308.8-5.456a36.146,36.146,0,0,1-2.512,5.328l.928.912a.491.491,0,0,0,.3.144.333.333,0,0,0,.3-.336,1.626,1.626,0,0,0-.08-.352,39.638,39.638,0,0,0,1.52-5.536Zm-2.768-3.056A11.325,11.325,0,0,1,307.968-6.4l.992-1.312a7.046,7.046,0,0,0-2.7-1.216ZM330.88-5.568h-4.288l-.624-.128v.9l.624-.128h2.832v1.952H326.24L325.6-3.1v.9l.64-.128h3.184V.752h1.28V-2.336h3.328l.64.128v-.9l-.64.128H330.7V-4.928h2.976l.64.128v-.9l-.64.128h-2.208A10.576,10.576,0,0,0,332.8-7.344c.32-.064.48-.16.48-.336a.3.3,0,0,0-.192-.24l-1.312-.416a18.2,18.2,0,0,1-.88,2.72ZM329.392-9.12h-5.808v10.3h1.344V-8.48H335.36V-.272c-.016.528-.176.688-.688.7h-1.728V1.1h2.336c1.008,0,1.44-.4,1.424-1.328v-8.9h-5.968v-1.888h6.128l.64.128v-.9l-.64.128h-6.128v-1.264c.208-.144.256-.208.256-.32,0-.144-.112-.208-.336-.208h-1.264v1.792h-5.968l-.64-.128v.9l.64-.128h5.968Zm-2.416,1.088a10.7,10.7,0,0,1,1.088,2.416l1.248-.752a6.4,6.4,0,0,0-1.968-1.9Zm27.2.72a18.483,18.483,0,0,0-4.976-4.256l-.464.368a24.025,24.025,0,0,1,2.416,2.624c-1.36.08-4.016.176-7.344.256l-.384.016a22.327,22.327,0,0,0,3.088-3.952c.384-.08.56-.208.56-.416a.317.317,0,0,0-.256-.288l-1.584-.48A33.111,33.111,0,0,1,342.7-8.416l-.064.128-.672.016-.656.016c-.272,0-.784,0-1.5.016l.4,1.328c.08.272.176.384.336.384s.272-.112.4-.4c5.536-.4,8.064-.672,10.624-1.1.448.624.688.976,1.152,1.728ZM343.008.288h7.952v.736h1.408V-5.488H341.6V1.1h1.408Zm0-.672V-4.816h7.952V-.384Zm18.208.512a9.62,9.62,0,0,0-4.464-3.056l-.3.384A14.281,14.281,0,0,1,359.9,1.28Zm11.952-.7h1.28V-9.792h-1.28v-.576H375.9l3.52,8.016,3.392-8.016h2.672v.576h-1.28V-.576h1.28V0h-3.92V-.576h1.28v-8.08L379.424-.592h-.736L375.136-8.72V-.576h1.232V0h-3.2Zm18.7,0V0h-4.5V-.576h1.568V-9.792h-1.5v-.576h4.368v.576h-1.5V-.576Zm1.888,0h1.28V-9.792h-1.28v-.576h2.608l4.816,7.776v-7.2H399.9v-.576h3.248v.576h-1.28V0h-.736l-5.408-8.816v8.24h1.28V0H393.76Zm15.616,0V0h-4.5V-.576h1.568V-9.792h-1.5v-.576h4.368v.576h-1.5V-.576Zm12.176.384h2.688V.816h1.2V-12.56h-5.056V.992h1.168Zm0-8.608v-3.12h2.688V-8.8Zm0,.64h2.688v3.232h-2.688Zm0,3.872h2.688V-.832h-2.688Zm-4.528,5.472h1.184v-8a16.814,16.814,0,0,1,.912,2.448l.944-.752a5.62,5.62,0,0,0-1.856-2.224v-2.1h1.008l.624.128v-.9l-.624.128h-1.008v-2.736c.208-.144.256-.208.256-.32,0-.144-.112-.208-.336-.208h-1.1v3.264h-1.488l-.64-.128v.9l.64-.128h1.344l-.064.432a27.7,27.7,0,0,1-2.048,6.544l.336.272a15.054,15.054,0,0,0,1.92-3.6Zm-1.792-13.1a6.6,6.6,0,0,0-2.592-1.136l-.24.432a13.482,13.482,0,0,1,1.936,1.984ZM414.064-5.3a34.35,34.35,0,0,1-2.336,5.168l.944.912a.453.453,0,0,0,.32.144.325.325,0,0,0,.32-.336,1.291,1.291,0,0,0-.1-.352,39.243,39.243,0,0,0,1.328-5.376Zm.256-2.5A6,6,0,0,0,411.7-8.928l-.24.432a10.385,10.385,0,0,1,1.952,2.064ZM436.3-5.568h-4.288l-.624-.128v.9l.624-.128h2.832v1.952h-3.184l-.64-.128v.9l.64-.128h3.184V.752h1.28V-2.336h3.328l.64.128v-.9l-.64.128h-3.328V-4.928H439.1l.64.128v-.9l-.64.128H436.9a10.576,10.576,0,0,0,1.328-1.776c.32-.064.48-.16.48-.336a.3.3,0,0,0-.192-.24L437.2-8.336a18.2,18.2,0,0,1-.88,2.72ZM434.816-9.12h-5.808v10.3h1.344V-8.48h10.432V-.272c-.016.528-.176.688-.688.7h-1.728V1.1H440.7c1.008,0,1.44-.4,1.424-1.328v-8.9H436.16v-1.888h6.128l.64.128v-.9l-.64.128H436.16v-1.264c.208-.144.256-.208.256-.32,0-.144-.112-.208-.336-.208h-1.264v1.792h-5.968l-.64-.128v.9l.64-.128h5.968ZM432.4-8.032a10.7,10.7,0,0,1,1.088,2.416l1.248-.752a6.4,6.4,0,0,0-1.968-1.9ZM1.248,24.672h13.5v-13.5H1.248Zm24-10.448-.208-2.56c.192-.16.272-.256.272-.384,0-.176-.144-.288-.368-.288H23.376l.192.9.192,2.432-4.4.288-.64-.1.064.992.624-.16,4.416-.288.336,4.064-5.76.368-.64-.08.064.992.624-.176,5.776-.368.432,5.12,1.488-.1-.432-5.12,5.456-.336.72.08-.08-1.008-.688.176-5.472.352-.336-4.064,4.672-.288.72.1-.064-1.024-.7.192Zm15.68,3.68,4.192-.56a7.246,7.246,0,0,1-2.656,3.424l.24.368a6.767,6.767,0,0,0,4.24-4.752l-6.1.8-.256-2.128c.176-.144.24-.24.24-.336a.245.245,0,0,0-.272-.24H39.1l.128.816.24,2.064-2.528.336-.7-.032.128.992.672-.224,2.528-.336.816,7.04,1.376-.176Zm24.256-3.92a15.882,15.882,0,0,1-4.08,5.184,15.05,15.05,0,0,1-7.344,3.248l-.848.016.576,1.424c.1.224.24.352.4.352.176,0,.3-.112.416-.368,3.616-.816,5.888-1.9,7.856-3.76a13.486,13.486,0,0,0,3.472-5.888ZM52.768,12.24a15.042,15.042,0,0,1,3.984,3.424l1.312-1.328a9.874,9.874,0,0,0-5.1-2.512Zm29.9,10.224C80.48,20.256,76.688,16,74.848,13.648c-.736-.944-1.024-1.216-1.312-1.216-.272,0-.64.288-1.072.848-1.92,2.368-2.624,3.2-3.7,4.352l-.8.672.9,1.216c.112.16.208.224.32.224.192,0,.288-.144.3-.448,1.472-2.112,3.312-4.7,3.728-5.248.176-.24.3-.368.368-.368s.192.112.32.3a102.011,102.011,0,0,0,7.632,9.84ZM81.056,10.608a1.616,1.616,0,1,0,1.584,1.616A1.626,1.626,0,0,0,81.056,10.608Zm-.048.64a.983.983,0,0,1,.992.976.97.97,0,0,1-.976.976.976.976,0,0,1-.016-1.952Zm17.936,6.288-13.36-.5v1.68l13.36-.48Zm16.736-3.552a15.882,15.882,0,0,1-4.08,5.184,15.05,15.05,0,0,1-7.344,3.248l-.848.016.576,1.424c.1.224.24.352.4.352.176,0,.3-.112.416-.368,3.616-.816,5.888-1.9,7.856-3.76a13.486,13.486,0,0,0,3.472-5.888ZM103.264,12.24a15.041,15.041,0,0,1,3.984,3.424l1.312-1.328a9.874,9.874,0,0,0-5.1-2.512Zm22.416,1.968.64.128v-.9l-.64.128h-2.72V11.184c.208-.144.256-.208.256-.32,0-.144-.112-.208-.336-.208h-1.3v2.912H119.2l-.64-.128v.9l.64-.128h4.3a13.187,13.187,0,0,1-1.008,4.224,30.561,30.561,0,0,0-3.04-2.9l-.384.336a40.961,40.961,0,0,1,2.9,3.552l.032.048a14.461,14.461,0,0,1-3.536,4.432l.3.448a12.723,12.723,0,0,0,3.968-3.872,33.442,33.442,0,0,1,2.048,3.3l1.328-.864a31.985,31.985,0,0,0-2.736-3.5,12.805,12.805,0,0,0,1.488-5.2Zm4.48.656H126.5l-.64-.128v.9l.64-.128h3.664v8.064c0,.656-.288.944-.944.944h-1.632v.672h2.5c1.024,0,1.472-.416,1.456-1.424V15.5h1.008l.64.128v-.9l-.64.128h-1.008v-3.68c.208-.144.256-.208.256-.32,0-.144-.112-.208-.336-.208h-1.3ZM126,17.392a24.505,24.505,0,0,1,1.92,3.472l1.36-.976a11.162,11.162,0,0,0-2.928-2.8Zm17.984,2.528A6.438,6.438,0,0,0,141.92,17.5a7.525,7.525,0,0,0,.8-.448l.256-.144h5.7V13.7h-5.2a12.022,12.022,0,0,0,2.656-2h-5.776l.064-.064.3-.3c.48-.08.576-.128.576-.3,0-.112-.112-.208-.256-.24l-1.28-.224a17.886,17.886,0,0,1-4.464,3.792l.16.416c.624-.24,1.024-.416,1.52-.656v2.8h4.064a23.649,23.649,0,0,1-5.728,2.272l.1.432a19.115,19.115,0,0,0,6.048-1.856,8.686,8.686,0,0,1,.592.656,21.09,21.09,0,0,1-6.688,2.928l.08.48a19.79,19.79,0,0,0,7.168-2.56,4.3,4.3,0,0,1,.384.9l-.048.032a16.6,16.6,0,0,1-3.248,2.016,22.154,22.154,0,0,1-4.4,1.6l.112.448a18.42,18.42,0,0,0,7.84-2.864,5.033,5.033,0,0,1,.048.7,3.432,3.432,0,0,1-.48,2.064c-.272.288-.5.368-1.1.368h-1.424V25.2h1.76a2.213,2.213,0,0,0,1.648-.464,3,3,0,0,0,.8-2.4,5.619,5.619,0,0,0-.368-2.048l.128-.032.112.16a10.223,10.223,0,0,0,4.768,4.128,6.387,6.387,0,0,1,.88-1.36,11.87,11.87,0,0,1-5.392-3.056,18.4,18.4,0,0,0,3.712-1.616,1.585,1.585,0,0,0,.3.048c.208,0,.352-.112.352-.256,0-.08-.048-.144-.192-.256l-1.088-.816A24.073,24.073,0,0,1,144,19.9Zm-.192-7.584A13.066,13.066,0,0,1,142.7,13.7h-4.992a13.216,13.216,0,0,0,1.92-1.36Zm-1.664,2v1.936h-3.9V14.336Zm1.232,0h4.032v1.936H143.36Zm13.92,3.232v4.144c0,1.36.224,1.824,1.024,2.1a17.182,17.182,0,0,0,4.208.3c1.072,0,1.872-.032,2.96-.1V22.56a31.25,31.25,0,0,1-3.744.224,8.272,8.272,0,0,1-2.528-.24c-.32-.144-.4-.336-.4-.976v-4h6.88l.72.144V16.688l-.72.144H158.8V12.9h5.3l.7.144V12.016l-.7.144h-9.84l-.7-.144V13.04l.7-.144h3.024v3.936h-4.016l-.72-.144v1.024l.72-.144Zm24.912-.192.7.144V16.5l-.7.144h-12.32l-.7-.144V17.52l.7-.144h5.584a7.863,7.863,0,0,1-.768,3.84,7.589,7.589,0,0,1-4.624,3.3l.128.544a9.817,9.817,0,0,0,5.36-2.624c1.008-1.1,1.472-2.688,1.472-5.056ZM179.36,12.16h-7.536l-.7-.144V13.04l.7-.144h7.536l.7.144V12.016Zm4.48-.1a3.16,3.16,0,0,0-1.888-1.664l-.256.224a6.431,6.431,0,0,1,1.072,2.016Zm-3.9-1.2a7.164,7.164,0,0,1,.976,2.192l1.056-.512a3.053,3.053,0,0,0-1.744-1.888ZM193.6,24.512a7.927,7.927,0,0,0,4.752-2.9,11.2,11.2,0,0,0,2.32-5.264l-.5-.16c-1.056,3.008-3.056,5.456-5.152,6.3V12.16c.24-.16.32-.272.32-.416a.3.3,0,0,0-.3-.272l-1.584-.112.144.96Zm-7.568.048a8.778,8.778,0,0,0,3.584-3.808,14.907,14.907,0,0,0,.944-6.24V12.7c.24-.16.32-.272.32-.416a.288.288,0,0,0-.3-.272l-1.632-.112.144.96v1.792c0,4.864-.768,7.056-3.344,9.488ZM210,20.528a1.089,1.089,0,0,0-1.1,1.072,1.08,1.08,0,1,0,1.1-1.072Zm0-7.36a1.08,1.08,0,1,0-.016,2.16,1.08,1.08,0,0,0,.016-2.16ZM10.272,47.424V48H6.56v-.576H7.728L6.576,44.176H3.136L1.984,47.424H3.152V48H.16v-.576H1.3l3.536-9.792h.752l3.552,9.792Zm-3.92-3.856L4.88,39.424H4.816L3.344,43.568Zm5.456,3.856h1.28V38.208h-1.28v-.576h3.968v.576H14.448v9.216h3.744l.848-2.24h.608V48h-7.84Zm9.52,0h1.28V38.208h-1.28v-.576H25.3v.576H23.968v9.216h3.744l.848-2.24h.608V48h-7.84Zm9.616-3.936h3.5v.624h-3.5Zm13.408,1.7V48h-7.92v-.576h1.28V38.208h-1.28v-.576h7.792v2.784h-.608l-.848-2.208h-3.7v4.016h2.512V40.992h.736v3.072h-.736V42.832H39.072v4.592H42.9l.848-2.24Zm1.936,2.24h1.28V38.208h-1.28v-.576h3.968v.576H48.928v9.216h3.744l.848-2.24h.608V48h-7.84Zm17.44-2.24V48h-7.92v-.576h1.28V38.208h-1.28v-.576H63.6v2.784h-.608l-.848-2.208h-3.7v4.016H60.96V40.992H61.7v3.072H60.96V42.832H58.448v4.592h3.824l.848-2.24Zm6.7,3.008a4.22,4.22,0,0,1-2.616-.768,4.31,4.31,0,0,1-1.464-1.96,7.058,7.058,0,0,1-.448-2.5,7.58,7.58,0,0,1,.464-2.648,4.609,4.609,0,0,1,1.488-2.064,4.056,4.056,0,0,1,2.592-.808,4.874,4.874,0,0,1,1.8.3,5.367,5.367,0,0,1,1.336.76v1.92h-.912a2.847,2.847,0,0,0-.768-1.872,2.224,2.224,0,0,0-1.568-.592A2.515,2.515,0,0,0,68.072,39.1a5.325,5.325,0,0,0-.744,2.952,9.78,9.78,0,0,0,.344,2.64A4.788,4.788,0,0,0,68.736,46.7a2.344,2.344,0,0,0,1.792.776,2.78,2.78,0,0,0,2.752-2.3h.608a3.639,3.639,0,0,1-.64,1.552,3.572,3.572,0,0,1-1.232,1.08A3.319,3.319,0,0,1,70.432,48.192Zm6.976-.768h1.408V38.208H76.832L76,40.416h-.592V37.632h8.144v2.784H82.96l-.8-2.208H80.176v9.216h1.408V48H77.408Zm17.44,0V48H92.4l-3.04-4.784H87.872v4.208h1.264V48h-3.9v-.576h1.28V38.208h-1.28v-.576h4.656a3.215,3.215,0,0,1,2.352.776,2.662,2.662,0,0,1,.784,1.976,2.736,2.736,0,0,1-.592,1.784,2.771,2.771,0,0,1-1.616.952l2.88,4.3Zm-6.976-4.816h1.84a1.636,1.636,0,0,0,1.3-.616,2.359,2.359,0,0,0,.52-1.576,2.426,2.426,0,0,0-.5-1.6,1.632,1.632,0,0,0-1.32-.608h-1.84Zm12.912,4.816V48h-4.5v-.576h1.568V38.208h-1.5v-.576h4.368v.576h-1.5v9.216Zm6.5.768a4.22,4.22,0,0,1-2.616-.768,4.31,4.31,0,0,1-1.464-1.96,7.058,7.058,0,0,1-.448-2.5,7.58,7.58,0,0,1,.464-2.648,4.609,4.609,0,0,1,1.488-2.064,4.056,4.056,0,0,1,2.592-.808,4.874,4.874,0,0,1,1.8.3,5.367,5.367,0,0,1,1.336.76v1.92h-.912a2.847,2.847,0,0,0-.768-1.872,2.224,2.224,0,0,0-1.568-.592A2.515,2.515,0,0,0,104.92,39.1a5.325,5.325,0,0,0-.744,2.952,9.78,9.78,0,0,0,.344,2.64,4.788,4.788,0,0,0,1.064,2.008,2.344,2.344,0,0,0,1.792.776,2.78,2.78,0,0,0,2.752-2.3h.608a3.639,3.639,0,0,1-.64,1.552,3.572,3.572,0,0,1-1.232,1.08A3.319,3.319,0,0,1,107.28,48.192Zm9.936-.768h1.28V38.208h-1.28v-.576h2.736l3.52,8.016,3.392-8.016h2.672v.576h-1.28v9.216h1.28V48h-3.92v-.576h1.28v-8.08l-3.424,8.064h-.736l-3.552-8.128v8.144h1.232V48h-3.2Zm18.7,0V48h-4.5v-.576h1.568V38.208h-1.5v-.576h4.368v.576h-1.5v9.216Zm1.888,0h1.28V38.208h-1.28v-.576h2.608l4.816,7.776v-7.2h-1.28v-.576H147.2v.576h-1.28V48h-.736l-5.408-8.816v8.24h1.28V48h-3.248Zm15.616,0V48h-4.5v-.576H150.5V38.208h-1.5v-.576h4.368v.576h-1.5v9.216Zm11.248.768a4.22,4.22,0,0,1-2.616-.768,4.31,4.31,0,0,1-1.464-1.96,7.058,7.058,0,0,1-.448-2.5,7.579,7.579,0,0,1,.464-2.648,4.609,4.609,0,0,1,1.488-2.064,4.056,4.056,0,0,1,2.592-.808,4.874,4.874,0,0,1,1.8.3,5.367,5.367,0,0,1,1.336.76v1.92h-.912a2.847,2.847,0,0,0-.768-1.872,2.224,2.224,0,0,0-1.568-.592,2.516,2.516,0,0,0-2.264,1.144,5.325,5.325,0,0,0-.744,2.952,9.779,9.779,0,0,0,.344,2.64,4.788,4.788,0,0,0,1.064,2.008,2.344,2.344,0,0,0,1.792.776,2.78,2.78,0,0,0,2.752-2.3h.608a3.639,3.639,0,0,1-.64,1.552,3.572,3.572,0,0,1-1.232,1.08A3.319,3.319,0,0,1,164.672,48.192Zm9.808,0a4.067,4.067,0,0,1-2.5-.736,4.2,4.2,0,0,1-1.432-1.912,7.019,7.019,0,0,1-.448-2.52,7.742,7.742,0,0,1,.456-2.632,4.7,4.7,0,0,1,1.5-2.112,4.092,4.092,0,0,1,2.656-.84,4.138,4.138,0,0,1,2.52.736,4.325,4.325,0,0,1,1.472,1.912,6.659,6.659,0,0,1,.472,2.5,7.416,7.416,0,0,1-.48,2.624,4.9,4.9,0,0,1-1.528,2.128A4.125,4.125,0,0,1,174.48,48.192Zm.384-.528a2.354,2.354,0,0,0,2.144-1.176,5.979,5.979,0,0,0,.72-3.144,9.508,9.508,0,0,0-.344-2.584,4.663,4.663,0,0,0-1.1-2.008,2.564,2.564,0,0,0-1.936-.784,2.3,2.3,0,0,0-2.136,1.16,5.772,5.772,0,0,0-.68,2.952,8.91,8.91,0,0,0,.8,3.952A2.649,2.649,0,0,0,174.864,47.664Zm10.864.528a4.067,4.067,0,0,1-2.5-.736,4.2,4.2,0,0,1-1.432-1.912,7.019,7.019,0,0,1-.448-2.52,7.742,7.742,0,0,1,.456-2.632,4.7,4.7,0,0,1,1.5-2.112,4.092,4.092,0,0,1,2.656-.84,4.138,4.138,0,0,1,2.52.736,4.324,4.324,0,0,1,1.472,1.912,6.659,6.659,0,0,1,.472,2.5,7.416,7.416,0,0,1-.48,2.624,4.9,4.9,0,0,1-1.528,2.128A4.125,4.125,0,0,1,185.728,48.192Zm.384-.528a2.354,2.354,0,0,0,2.144-1.176,5.979,5.979,0,0,0,.72-3.144,9.508,9.508,0,0,0-.344-2.584,4.663,4.663,0,0,0-1.1-2.008,2.564,2.564,0,0,0-1.936-.784,2.3,2.3,0,0,0-2.136,1.16,5.772,5.772,0,0,0-.68,2.952,8.91,8.91,0,0,0,.8,3.952A2.649,2.649,0,0,0,186.112,47.664Zm10.9-10.032a3.279,3.279,0,0,1,2.352.752,2.583,2.583,0,0,1,.784,1.952,2.789,2.789,0,0,1-.376,1.44,2.676,2.676,0,0,1-1.088,1.016,3.531,3.531,0,0,1-1.672.376h-2.016v4.256h1.28V48h-3.92v-.576h1.28V38.208h-1.28v-.576Zm-.192,4.928a1.636,1.636,0,0,0,1.3-.616,2.7,2.7,0,0,0,.024-3.152,1.654,1.654,0,0,0-1.328-.584h-1.824V42.56Zm13.008,2.624V48H201.9v-.576h1.28V38.208H201.9v-.576H209.7v2.784h-.608l-.848-2.208h-3.7v4.016h2.512V40.992h.736v3.072h-.736V42.832h-2.512v4.592h3.824l.848-2.24Zm11.552,2.24V48h-2.448l-3.04-4.784H214.4v4.208h1.264V48h-3.9v-.576h1.28V38.208h-1.28v-.576h4.656a3.215,3.215,0,0,1,2.352.776,2.662,2.662,0,0,1,.784,1.976,2.736,2.736,0,0,1-.592,1.784,2.771,2.771,0,0,1-1.616.952l2.88,4.3ZM214.4,42.608h1.84a1.636,1.636,0,0,0,1.3-.616,2.359,2.359,0,0,0,.52-1.576,2.426,2.426,0,0,0-.5-1.6,1.632,1.632,0,0,0-1.32-.608H214.4Zm9.888,5.568a.956.956,0,1,1,.68-.28A.926.926,0,0,1,224.288,48.176Zm6.272.816a5.792,5.792,0,0,1-2.088-2.36,8.25,8.25,0,0,1-.712-3.624,8.312,8.312,0,0,1,.728-3.608,5.782,5.782,0,0,1,2.072-2.408l.24.224a4.939,4.939,0,0,0-1.368,2.272,11.721,11.721,0,0,0,0,7.008,4.939,4.939,0,0,0,1.368,2.272Zm6.816-6.592a2.72,2.72,0,0,1,2.24,2.656,2.749,2.749,0,0,1-.52,1.68,3.324,3.324,0,0,1-1.344,1.072,4.173,4.173,0,0,1-1.72.368,3.46,3.46,0,0,1-1.848-.5,3.654,3.654,0,0,1-1.272-1.3l.512-.32a2.57,2.57,0,0,0,1.088,1.072,3.028,3.028,0,0,0,1.392.352,2.484,2.484,0,0,0,1.112-.256,2.061,2.061,0,0,0,.848-.784,2.379,2.379,0,0,0,.328-1.28,2.271,2.271,0,0,0-.648-1.7,2.212,2.212,0,0,0-1.608-.632h-.4v-.5a2.711,2.711,0,0,0,1.1-.24,2.085,2.085,0,0,0,.9-.76,2.275,2.275,0,0,0,.352-1.3,2.378,2.378,0,0,0-.448-1.464,1.7,1.7,0,0,0-2.664.1,3.51,3.51,0,0,0-.52,1.736h-.864V38.48a3.166,3.166,0,0,1,1.184-.768,4.264,4.264,0,0,1,1.568-.288,3.874,3.874,0,0,1,1.552.3,2.694,2.694,0,0,1,1.128.88,2.231,2.231,0,0,1,.424,1.36A2.622,2.622,0,0,1,237.376,42.4Zm9.5-4.768a4.107,4.107,0,0,1,3.44,1.384,5.668,5.668,0,0,1,1.088,3.608,7.163,7.163,0,0,1-.472,2.6,4.5,4.5,0,0,1-1.488,2A4.109,4.109,0,0,1,246.88,48h-4.864v-.576h1.28V38.208h-1.28v-.576Zm0,9.792a2.474,2.474,0,0,0,2.352-1.392,7.256,7.256,0,0,0,.736-3.424,5.9,5.9,0,0,0-.76-3.216,2.574,2.574,0,0,0-2.328-1.184h-2.224v9.216Zm11.088.768a4.067,4.067,0,0,1-2.5-.736,4.2,4.2,0,0,1-1.432-1.912,7.019,7.019,0,0,1-.448-2.52,7.742,7.742,0,0,1,.456-2.632,4.7,4.7,0,0,1,1.5-2.112,4.092,4.092,0,0,1,2.656-.84,4.138,4.138,0,0,1,2.52.736,4.325,4.325,0,0,1,1.472,1.912,6.659,6.659,0,0,1,.472,2.5,7.416,7.416,0,0,1-.48,2.624,4.9,4.9,0,0,1-1.528,2.128A4.125,4.125,0,0,1,257.968,48.192Zm.384-.528a2.354,2.354,0,0,0,2.144-1.176,5.979,5.979,0,0,0,.72-3.144,9.508,9.508,0,0,0-.344-2.584,4.663,4.663,0,0,0-1.1-2.008,2.564,2.564,0,0,0-1.936-.784,2.3,2.3,0,0,0-2.136,1.16,5.772,5.772,0,0,0-.68,2.952,8.91,8.91,0,0,0,.8,3.952A2.649,2.649,0,0,0,258.352,47.664Zm10.864.528a4.067,4.067,0,0,1-2.5-.736,4.2,4.2,0,0,1-1.432-1.912,7.019,7.019,0,0,1-.448-2.52,7.742,7.742,0,0,1,.456-2.632,4.7,4.7,0,0,1,1.5-2.112,4.092,4.092,0,0,1,2.656-.84,4.138,4.138,0,0,1,2.52.736,4.325,4.325,0,0,1,1.472,1.912,6.659,6.659,0,0,1,.472,2.5,7.417,7.417,0,0,1-.48,2.624,4.9,4.9,0,0,1-1.528,2.128A4.125,4.125,0,0,1,269.216,48.192Zm.384-.528a2.354,2.354,0,0,0,2.144-1.176,5.979,5.979,0,0,0,.72-3.144,9.508,9.508,0,0,0-.344-2.584,4.663,4.663,0,0,0-1.1-2.008,2.564,2.564,0,0,0-1.936-.784,2.3,2.3,0,0,0-2.136,1.16,5.772,5.772,0,0,0-.68,2.952,8.91,8.91,0,0,0,.8,3.952A2.649,2.649,0,0,0,269.6,47.664Zm15.856-.24V48h-2.448l-3.04-4.784H278.48v4.208h1.264V48h-3.9v-.576h1.28V38.208h-1.28v-.576H280.5a3.215,3.215,0,0,1,2.352.776,2.662,2.662,0,0,1,.784,1.976,2.736,2.736,0,0,1-.592,1.784,2.771,2.771,0,0,1-1.616.952l2.88,4.3Zm-6.976-4.816h1.84a1.636,1.636,0,0,0,1.3-.616,2.359,2.359,0,0,0,.52-1.576,2.426,2.426,0,0,0-.5-1.6,1.632,1.632,0,0,0-1.32-.608h-1.84Zm8.448-5.616a5.792,5.792,0,0,1,2.088,2.36,8.25,8.25,0,0,1,.712,3.624A8.312,8.312,0,0,1,289,46.584a5.782,5.782,0,0,1-2.072,2.408l-.24-.224a4.939,4.939,0,0,0,1.368-2.272,11.721,11.721,0,0,0,0-7.008,4.939,4.939,0,0,0-1.368-2.272Zm9.258,2.835,3.257,3.257.373-.373-3.257-3.257,3.257-3.257-.373-.373-3.257,3.257-3.257-3.257-.373.373,3.257,3.257-3.257,3.257.373.373Zm-2.9-1.213a.835.835,0,1,0,.821.831A.843.843,0,0,0,293.284,38.614Zm5.842,0a.835.835,0,1,0,.821.831A.843.843,0,0,0,299.126,38.614Zm-2.921,2.931a.835.835,0,1,0,.821.831A.843.843,0,0,0,296.205,41.544Zm0-5.852a.835.835,0,1,0,.821.831A.843.843,0,0,0,296.205,35.692Zm5.506,5.226a2.565,2.565,0,0,0,.336,1.419,1.865,1.865,0,0,0,1.624.821,1.837,1.837,0,0,0,1.279-.448,2.279,2.279,0,0,0,.625-1.615,1.888,1.888,0,0,0-.495-1.344,1.811,1.811,0,0,0-.868-.476,1.475,1.475,0,0,0,.719-.364,1.834,1.834,0,0,0,.5-1.307,1.809,1.809,0,0,0-3.425-.849,2.559,2.559,0,0,0-.2,1.111h.821a2.19,2.19,0,0,1,.289-1.335.846.846,0,0,1,.709-.392c.6,0,.971.523.971,1.372,0,1.017-.429,1.568-1.223,1.568h-.56v.457h.541a1.183,1.183,0,0,1,1.036.4,2.126,2.126,0,0,1,.317,1.232,2.024,2.024,0,0,1-.373,1.26.926.926,0,0,1-.7.345.974.974,0,0,1-.765-.429,2.58,2.58,0,0,1-.336-1.428Zm11.194,7.129,7.984-12.256h-1.072l-7.984,12.256Zm24.432-.624V48h-3.712v-.576h1.168l-1.152-3.248H330.2l-1.152,3.248h1.168V48h-2.992v-.576h1.136l3.536-9.792h.752l3.552,9.792Zm-3.92-3.856-1.472-4.144h-.064l-1.472,4.144Zm5.456,3.856h1.28V38.208h-1.28v-.576h3.968v.576h-1.328v9.216h3.744l.848-2.24h.608V48h-7.84Zm9.52,0h1.28V38.208h-1.28v-.576h3.968v.576h-1.328v9.216h3.744l.848-2.24h.608V48h-7.84Zm9.616-3.936h3.5v.624h-3.5Zm13.408,1.7V48H363.5v-.576h1.28V38.208H363.5v-.576h7.792v2.784h-.608l-.848-2.208h-3.7v4.016h2.512V40.992h.736v3.072h-.736V42.832h-2.512v4.592h3.824l.848-2.24Zm1.936,2.24h1.28V38.208h-1.28v-.576h3.968v.576h-1.328v9.216h3.744l.848-2.24h.608V48h-7.84Zm17.44-2.24V48h-7.92v-.576h1.28V38.208h-1.28v-.576h7.792v2.784h-.608l-.848-2.208h-3.7v4.016h2.512V40.992h.736v3.072h-.736V42.832h-2.512v4.592h3.824l.848-2.24Zm6.7,3.008a4.22,4.22,0,0,1-2.616-.768,4.31,4.31,0,0,1-1.464-1.96,7.058,7.058,0,0,1-.448-2.5,7.58,7.58,0,0,1,.464-2.648,4.609,4.609,0,0,1,1.488-2.064,4.056,4.056,0,0,1,2.592-.808,4.873,4.873,0,0,1,1.8.3,5.366,5.366,0,0,1,1.336.76v1.92h-.912a2.847,2.847,0,0,0-.768-1.872,2.224,2.224,0,0,0-1.568-.592,2.516,2.516,0,0,0-2.264,1.144,5.325,5.325,0,0,0-.744,2.952,9.779,9.779,0,0,0,.344,2.64A4.788,4.788,0,0,0,395.8,46.7a2.344,2.344,0,0,0,1.792.776,2.78,2.78,0,0,0,2.752-2.3h.608a3.639,3.639,0,0,1-.64,1.552,3.572,3.572,0,0,1-1.232,1.08A3.319,3.319,0,0,1,397.5,48.192Zm6.976-.768h1.408V38.208H403.9l-.832,2.208h-.592V37.632h8.144v2.784h-.592l-.8-2.208h-1.984v9.216h1.408V48h-4.176Zm17.44,0V48h-2.448l-3.04-4.784h-1.488v4.208H416.2V48h-3.9v-.576h1.28V38.208H412.3v-.576h4.656a3.215,3.215,0,0,1,2.352.776,2.662,2.662,0,0,1,.784,1.976,2.736,2.736,0,0,1-.592,1.784,2.771,2.771,0,0,1-1.616.952l2.88,4.3Zm-6.976-4.816h1.84a1.636,1.636,0,0,0,1.3-.616,2.359,2.359,0,0,0,.52-1.576,2.426,2.426,0,0,0-.5-1.6,1.632,1.632,0,0,0-1.32-.608h-1.84Zm12.912,4.816V48h-4.5v-.576h1.568V38.208h-1.5v-.576h4.368v.576h-1.5v9.216Zm6.5.768a4.22,4.22,0,0,1-2.616-.768,4.31,4.31,0,0,1-1.464-1.96,7.058,7.058,0,0,1-.448-2.5,7.58,7.58,0,0,1,.464-2.648,4.609,4.609,0,0,1,1.488-2.064,4.056,4.056,0,0,1,2.592-.808,4.873,4.873,0,0,1,1.8.3,5.366,5.366,0,0,1,1.336.76v1.92h-.912a2.847,2.847,0,0,0-.768-1.872,2.224,2.224,0,0,0-1.568-.592,2.516,2.516,0,0,0-2.264,1.144,5.325,5.325,0,0,0-.744,2.952,9.779,9.779,0,0,0,.344,2.64A4.788,4.788,0,0,0,432.65,46.7a2.344,2.344,0,0,0,1.792.776,2.78,2.78,0,0,0,2.752-2.3h.608a3.639,3.639,0,0,1-.64,1.552,3.572,3.572,0,0,1-1.232,1.08A3.319,3.319,0,0,1,434.346,48.192Zm9.936-.768h1.28V38.208h-1.28v-.576h2.736l3.52,8.016,3.392-8.016H456.6v.576h-1.28v9.216h1.28V48h-3.92v-.576h1.28v-8.08l-3.424,8.064H449.8L446.25,39.28v8.144h1.232V48h-3.2Zm18.7,0V48h-4.5v-.576h1.568V38.208h-1.5v-.576h4.368v.576h-1.5v9.216Zm1.888,0h1.28V38.208h-1.28v-.576h2.608l4.816,7.776v-7.2h-1.28v-.576h3.248v.576h-1.28V48h-.736l-5.408-8.816v8.24h1.28V48h-3.248Zm15.616,0V48h-4.5v-.576h1.568V38.208h-1.5v-.576h4.368v.576h-1.5v9.216Zm11.248.768a4.22,4.22,0,0,1-2.616-.768,4.31,4.31,0,0,1-1.464-1.96,7.058,7.058,0,0,1-.448-2.5,7.58,7.58,0,0,1,.464-2.648,4.609,4.609,0,0,1,1.488-2.064,4.056,4.056,0,0,1,2.592-.808,4.873,4.873,0,0,1,1.8.3,5.366,5.366,0,0,1,1.336.76v1.92h-.912a2.847,2.847,0,0,0-.768-1.872,2.224,2.224,0,0,0-1.568-.592,2.516,2.516,0,0,0-2.264,1.144,5.325,5.325,0,0,0-.744,2.952,9.779,9.779,0,0,0,.344,2.64,4.788,4.788,0,0,0,1.064,2.008,2.344,2.344,0,0,0,1.792.776,2.78,2.78,0,0,0,2.752-2.3h.608a3.639,3.639,0,0,1-.64,1.552,3.572,3.572,0,0,1-1.232,1.08A3.319,3.319,0,0,1,491.738,48.192Zm9.808,0a4.067,4.067,0,0,1-2.5-.736,4.2,4.2,0,0,1-1.432-1.912,7.019,7.019,0,0,1-.448-2.52,7.742,7.742,0,0,1,.456-2.632,4.7,4.7,0,0,1,1.5-2.112,4.092,4.092,0,0,1,2.656-.84,4.138,4.138,0,0,1,2.52.736,4.325,4.325,0,0,1,1.472,1.912,6.659,6.659,0,0,1,.472,2.5,7.417,7.417,0,0,1-.48,2.624,4.9,4.9,0,0,1-1.528,2.128A4.125,4.125,0,0,1,501.546,48.192Zm.384-.528a2.354,2.354,0,0,0,2.144-1.176,5.979,5.979,0,0,0,.72-3.144,9.508,9.508,0,0,0-.344-2.584,4.663,4.663,0,0,0-1.1-2.008,2.564,2.564,0,0,0-1.936-.784,2.3,2.3,0,0,0-2.136,1.16,5.772,5.772,0,0,0-.68,2.952,8.91,8.91,0,0,0,.8,3.952A2.649,2.649,0,0,0,501.93,47.664Zm10.816.528a3.543,3.543,0,0,1-2.544-.9,3.383,3.383,0,0,1-.944-2.576V38.208h-1.28v-.576h3.92v.576h-1.28V44.88a2.588,2.588,0,0,0,.664,1.968,2.454,2.454,0,0,0,1.752.624,2.552,2.552,0,0,0,1.784-.632,2.5,2.5,0,0,0,.7-1.944V38.208H514.25v-.576h3.216v.576H516.2V44.96a3.062,3.062,0,0,1-.944,2.352A3.536,3.536,0,0,1,512.746,48.192Zm6.416-.768h1.28V38.208h-1.28v-.576h2.608l4.816,7.776v-7.2h-1.28v-.576h3.248v.576h-1.28V48h-.736l-5.408-8.816v8.24h1.28V48h-3.248Zm12.912,0h1.408V38.208H531.5l-.832,2.208h-.592V37.632h8.144v2.784h-.592l-.8-2.208h-1.984v9.216h1.408V48h-4.176Zm17.44,0V48h-2.448l-3.04-4.784h-1.488v4.208H543.8V48h-3.9v-.576h1.28V38.208H539.9v-.576h4.656a3.215,3.215,0,0,1,2.352.776,2.662,2.662,0,0,1,.784,1.976,2.736,2.736,0,0,1-.592,1.784,2.771,2.771,0,0,1-1.616.952l2.88,4.3Zm-6.976-4.816h1.84a1.636,1.636,0,0,0,1.3-.616,2.359,2.359,0,0,0,.52-1.576,2.426,2.426,0,0,0-.5-1.6,1.632,1.632,0,0,0-1.32-.608h-1.84Zm12.3.688v4.128h1.408V48h-4.176v-.576h1.408V43.712l-2.736-5.5h-1.28v-.576h4.064v.576h-1.28l2.208,4.5,2.3-4.5h-1.28v-.576h3.28v.576h-1.28Zm5.28,4.128h1.28V38.208h-1.28v-.576h2.736l3.52,8.016,3.392-8.016h2.672v.576h-1.28v9.216h1.28V48h-3.92v-.576h1.28v-8.08l-3.424,8.064h-.736L562.09,39.28v8.144h1.232V48h-3.2Zm23.952,0V48h-3.712v-.576h1.168l-1.152-3.248h-3.44l-1.152,3.248h1.168V48h-2.992v-.576H575.1l3.536-9.792h.752l3.552,9.792Zm-3.92-3.856-1.472-4.144h-.064l-1.472,4.144Zm5.456,3.856h1.28V38.208h-1.28v-.576h2.608l4.816,7.776v-7.2h-1.28v-.576H595v.576h-1.28V48h-.736l-5.408-8.816v8.24h1.28V48H585.61Zm12.272.752a.956.956,0,1,1,.68-.28A.926.926,0,0,1,597.882,48.176Zm7.178-8.349,3.257,3.257.373-.373-3.257-3.257,3.257-3.257-.373-.373L605.06,39.08,601.8,35.823l-.373.373,3.257,3.257-3.257,3.257.373.373Zm-2.9-1.213a.835.835,0,1,0,.821.831A.843.843,0,0,0,602.158,38.614Zm5.842,0a.835.835,0,1,0,.821.831A.843.843,0,0,0,608,38.614Zm-2.921,2.931a.835.835,0,1,0,.821.831A.843.843,0,0,0,605.079,41.544Zm0-5.852a.835.835,0,1,0,.821.831A.843.843,0,0,0,605.079,35.692Zm5.506,5.226a2.565,2.565,0,0,0,.336,1.419,1.865,1.865,0,0,0,1.624.821,1.837,1.837,0,0,0,1.279-.448,2.279,2.279,0,0,0,.625-1.615,1.888,1.888,0,0,0-.495-1.344,1.811,1.811,0,0,0-.868-.476,1.475,1.475,0,0,0,.719-.364,1.834,1.834,0,0,0,.5-1.307,1.809,1.809,0,0,0-3.425-.849,2.56,2.56,0,0,0-.2,1.111h.821a2.191,2.191,0,0,1,.289-1.335.846.846,0,0,1,.709-.392c.6,0,.971.523.971,1.372,0,1.017-.429,1.568-1.223,1.568h-.56v.457h.541a1.183,1.183,0,0,1,1.036.4,2.126,2.126,0,0,1,.317,1.232,2.025,2.025,0,0,1-.373,1.26.926.926,0,0,1-.7.345.974.974,0,0,1-.765-.429,2.58,2.58,0,0,1-.336-1.428ZM10.272,71.424V72H6.56v-.576H7.728L6.576,68.176H3.136L1.984,71.424H3.152V72H.16v-.576H1.3l3.536-9.792h.752l3.552,9.792Zm-3.92-3.856L4.88,63.424H4.816L3.344,67.568Zm5.456,3.856h1.28V62.208h-1.28v-.576h3.968v.576H14.448v9.216h3.744l.848-2.24h.608V72h-7.84Zm9.52,0h1.28V62.208h-1.28v-.576H25.3v.576H23.968v9.216h3.744l.848-2.24h.608V72h-7.84Zm9.616-3.936h3.5v.624h-3.5Zm13.408,1.7V72h-7.92v-.576h1.28V62.208h-1.28v-.576h7.792v2.784h-.608l-.848-2.208h-3.7v4.016h2.512V64.992h.736v3.072h-.736V66.832H39.072v4.592H42.9l.848-2.24Zm1.936,2.24h1.28V62.208h-1.28v-.576h3.968v.576H48.928v9.216h3.744l.848-2.24h.608V72h-7.84Zm17.44-2.24V72h-7.92v-.576h1.28V62.208h-1.28v-.576H63.6v2.784h-.608l-.848-2.208h-3.7v4.016H60.96V64.992H61.7v3.072H60.96V66.832H58.448v4.592h3.824l.848-2.24Zm6.7,3.008a4.22,4.22,0,0,1-2.616-.768,4.31,4.31,0,0,1-1.464-1.96,7.058,7.058,0,0,1-.448-2.5,7.58,7.58,0,0,1,.464-2.648,4.609,4.609,0,0,1,1.488-2.064,4.056,4.056,0,0,1,2.592-.808,4.874,4.874,0,0,1,1.8.3,5.367,5.367,0,0,1,1.336.76v1.92h-.912a2.847,2.847,0,0,0-.768-1.872,2.224,2.224,0,0,0-1.568-.592A2.515,2.515,0,0,0,68.072,63.1a5.325,5.325,0,0,0-.744,2.952,9.78,9.78,0,0,0,.344,2.64A4.788,4.788,0,0,0,68.736,70.7a2.344,2.344,0,0,0,1.792.776,2.78,2.78,0,0,0,2.752-2.3h.608a3.639,3.639,0,0,1-.64,1.552,3.572,3.572,0,0,1-1.232,1.08A3.319,3.319,0,0,1,70.432,72.192Zm6.976-.768h1.408V62.208H76.832L76,64.416h-.592V61.632h8.144v2.784H82.96l-.8-2.208H80.176v9.216h1.408V72H77.408Zm17.44,0V72H92.4l-3.04-4.784H87.872v4.208h1.264V72h-3.9v-.576h1.28V62.208h-1.28v-.576h4.656a3.215,3.215,0,0,1,2.352.776,2.662,2.662,0,0,1,.784,1.976,2.736,2.736,0,0,1-.592,1.784,2.771,2.771,0,0,1-1.616.952l2.88,4.3Zm-6.976-4.816h1.84a1.636,1.636,0,0,0,1.3-.616,2.359,2.359,0,0,0,.52-1.576,2.426,2.426,0,0,0-.5-1.6,1.632,1.632,0,0,0-1.32-.608h-1.84Zm12.912,4.816V72h-4.5v-.576h1.568V62.208h-1.5v-.576h4.368v.576h-1.5v9.216Zm6.5.768a4.22,4.22,0,0,1-2.616-.768,4.31,4.31,0,0,1-1.464-1.96,7.058,7.058,0,0,1-.448-2.5,7.58,7.58,0,0,1,.464-2.648,4.609,4.609,0,0,1,1.488-2.064,4.056,4.056,0,0,1,2.592-.808,4.874,4.874,0,0,1,1.8.3,5.367,5.367,0,0,1,1.336.76v1.92h-.912a2.847,2.847,0,0,0-.768-1.872,2.224,2.224,0,0,0-1.568-.592A2.515,2.515,0,0,0,104.92,63.1a5.325,5.325,0,0,0-.744,2.952,9.78,9.78,0,0,0,.344,2.64,4.788,4.788,0,0,0,1.064,2.008,2.344,2.344,0,0,0,1.792.776,2.78,2.78,0,0,0,2.752-2.3h.608a3.639,3.639,0,0,1-.64,1.552,3.572,3.572,0,0,1-1.232,1.08A3.319,3.319,0,0,1,107.28,72.192Zm9.936-.768h1.28V62.208h-1.28v-.576h2.736l3.52,8.016,3.392-8.016h2.672v.576h-1.28v9.216h1.28V72h-3.92v-.576h1.28v-8.08l-3.424,8.064h-.736l-3.552-8.128v8.144h1.232V72h-3.2Zm18.7,0V72h-4.5v-.576h1.568V62.208h-1.5v-.576h4.368v.576h-1.5v9.216Zm1.888,0h1.28V62.208h-1.28v-.576h2.608l4.816,7.776v-7.2h-1.28v-.576H147.2v.576h-1.28V72h-.736l-5.408-8.816v8.24h1.28V72h-3.248Zm15.616,0V72h-4.5v-.576H150.5V62.208h-1.5v-.576h4.368v.576h-1.5v9.216Zm16.384,0V72H166.1v-.576h1.168l-1.152-3.248h-3.44l-1.152,3.248h1.168V72H159.7v-.576h1.136l3.536-9.792h.752l3.552,9.792Zm-3.92-3.856-1.472-4.144h-.064l-1.472,4.144Zm9.408,4.624a4.22,4.22,0,0,1-2.616-.768,4.31,4.31,0,0,1-1.464-1.96,7.058,7.058,0,0,1-.448-2.5,7.579,7.579,0,0,1,.464-2.648,4.609,4.609,0,0,1,1.488-2.064,4.056,4.056,0,0,1,2.592-.808,4.873,4.873,0,0,1,1.8.3,5.367,5.367,0,0,1,1.336.76v1.92h-.912a2.847,2.847,0,0,0-.768-1.872,2.224,2.224,0,0,0-1.568-.592,2.516,2.516,0,0,0-2.264,1.144,5.325,5.325,0,0,0-.744,2.952,9.78,9.78,0,0,0,.344,2.64A4.788,4.788,0,0,0,173.6,70.7a2.344,2.344,0,0,0,1.792.776,2.78,2.78,0,0,0,2.752-2.3h.608a3.639,3.639,0,0,1-.64,1.552,3.572,3.572,0,0,1-1.232,1.08A3.319,3.319,0,0,1,175.3,72.192Zm13.1-3.008V72h-7.92v-.576h1.28V62.208h-1.28v-.576h7.792v2.784h-.608l-.848-2.208h-3.7v4.016h2.512V64.992h.736v3.072h-.736V66.832H183.12v4.592h3.824l.848-2.24Zm1.936,2.24h1.28V62.208h-1.28v-.576h2.736l3.52,8.016,3.392-8.016h2.672v.576h-1.28v9.216h1.28V72h-3.92v-.576h1.28v-8.08l-3.424,8.064h-.736L192.3,63.28v8.144h1.232V72h-3.2Zm23.952,0V72h-3.712v-.576h1.168l-1.152-3.248h-3.44L206,71.424h1.168V72h-2.992v-.576h1.136l3.536-9.792h.752l3.552,9.792Zm-3.92-3.856L208.9,63.424h-.064l-1.472,4.144Zm5.456,3.856h1.28V62.208h-1.28v-.576h2.608l4.816,7.776v-7.2h-1.28v-.576h3.248v.576h-1.28V72H223.2l-5.408-8.816v8.24h1.28V72h-3.248Zm12.272.752a.956.956,0,1,1,.68-.28A.926.926,0,0,1,228.1,72.176Zm7.178-8.349,3.257,3.257.373-.373-3.257-3.257L238.9,60.2l-.373-.373-3.257,3.257-3.257-3.257-.373.373,3.257,3.257-3.257,3.257.373.373Zm-2.9-1.213a.835.835,0,1,0,.821.831A.843.843,0,0,0,232.372,62.614Zm5.842,0a.835.835,0,1,0,.821.831A.843.843,0,0,0,238.214,62.614Zm-2.921,2.931a.835.835,0,1,0,.821.831A.843.843,0,0,0,235.293,65.544Zm0-5.852a.835.835,0,1,0,.821.831A.843.843,0,0,0,235.293,59.692Zm5.506,5.226a2.565,2.565,0,0,0,.336,1.419,1.865,1.865,0,0,0,1.624.821,1.837,1.837,0,0,0,1.279-.448,2.279,2.279,0,0,0,.625-1.615,1.888,1.888,0,0,0-.495-1.344,1.811,1.811,0,0,0-.868-.476,1.475,1.475,0,0,0,.719-.364,1.834,1.834,0,0,0,.5-1.307,1.809,1.809,0,0,0-3.425-.849,2.559,2.559,0,0,0-.2,1.111h.821a2.19,2.19,0,0,1,.289-1.335.846.846,0,0,1,.709-.392c.6,0,.971.523.971,1.372,0,1.017-.429,1.568-1.223,1.568h-.56v.457h.541a1.183,1.183,0,0,1,1.036.4,2.126,2.126,0,0,1,.317,1.232,2.024,2.024,0,0,1-.373,1.26.926.926,0,0,1-.7.345.974.974,0,0,1-.765-.429,2.579,2.579,0,0,1-.336-1.428Zm11.194,7.129,7.984-12.256h-1.072l-7.984,12.256Zm14.688-.624h1.28V62.208h-1.28v-.576h2.736l3.52,8.016,3.392-8.016H279v.576h-1.28v9.216H279V72h-3.92v-.576h1.28v-8.08l-3.424,8.064H272.2L268.65,63.28v8.144h1.232V72h-3.2Zm18.7,0V72h-4.5v-.576h1.568V62.208h-1.5v-.576h4.368v.576h-1.5v9.216Zm1.888,0h1.28V62.208h-1.28v-.576h2.608l4.816,7.776v-7.2h-1.28v-.576h3.248v.576h-1.28V72h-.736l-5.408-8.816v8.24h1.28V72h-3.248Zm15.616,0V72h-4.5v-.576h1.568V62.208h-1.5v-.576h4.368v.576h-1.5v9.216Zm8.816.768a2.736,2.736,0,0,1-1.384-.3,3.319,3.319,0,0,1-.92-.824V69.184h.864a5.051,5.051,0,0,0,.432,1.9,1.059,1.059,0,0,0,.992.576q1.2,0,1.2-1.728V62.208h-1.328v-.576h3.984v.576h-1.3v7.3a2.6,2.6,0,0,1-.736,2.008A2.565,2.565,0,0,1,311.706,72.192Zm10,0a4.067,4.067,0,0,1-2.5-.736,4.2,4.2,0,0,1-1.432-1.912,7.019,7.019,0,0,1-.448-2.52,7.742,7.742,0,0,1,.456-2.632,4.7,4.7,0,0,1,1.5-2.112,4.092,4.092,0,0,1,2.656-.84,4.138,4.138,0,0,1,2.52.736,4.325,4.325,0,0,1,1.472,1.912,6.659,6.659,0,0,1,.472,2.5,7.417,7.417,0,0,1-.48,2.624,4.9,4.9,0,0,1-1.528,2.128A4.125,4.125,0,0,1,321.706,72.192Zm.384-.528a2.354,2.354,0,0,0,2.144-1.176,5.979,5.979,0,0,0,.72-3.144,9.508,9.508,0,0,0-.344-2.584,4.663,4.663,0,0,0-1.1-2.008,2.564,2.564,0,0,0-1.936-.784,2.3,2.3,0,0,0-2.136,1.16,5.772,5.772,0,0,0-.68,2.952,8.91,8.91,0,0,0,.8,3.952A2.649,2.649,0,0,0,322.09,71.664Zm14.96-9.456v9.216h1.28V72h-3.888v-.576h1.248V66.832h-4.72v4.592h1.248V72H328.33v-.576h1.28V62.208h-1.28v-.576h3.888v.576H330.97v4.016h4.72V62.208h-1.248v-.576h3.888v.576Zm3.168,9.216h1.28V62.208h-1.28v-.576h2.608l4.816,7.776v-7.2h-1.28v-.576h3.248v.576h-1.28V72h-.736l-5.408-8.816v8.24h1.28V72h-3.248Zm20.48.768a4.22,4.22,0,0,1-2.616-.768,4.31,4.31,0,0,1-1.464-1.96,7.058,7.058,0,0,1-.448-2.5,7.58,7.58,0,0,1,.464-2.648,4.609,4.609,0,0,1,1.488-2.064,4.056,4.056,0,0,1,2.592-.808,4.873,4.873,0,0,1,1.8.3,5.366,5.366,0,0,1,1.336.76v1.92h-.912a2.847,2.847,0,0,0-.768-1.872,2.224,2.224,0,0,0-1.568-.592,2.516,2.516,0,0,0-2.264,1.144,5.325,5.325,0,0,0-.744,2.952,9.78,9.78,0,0,0,.344,2.64A4.788,4.788,0,0,0,359,70.7a2.344,2.344,0,0,0,1.792.776,2.78,2.78,0,0,0,2.752-2.3h.608a3.639,3.639,0,0,1-.64,1.552,3.572,3.572,0,0,1-1.232,1.08A3.319,3.319,0,0,1,360.7,72.192Zm9.808,0a4.067,4.067,0,0,1-2.5-.736,4.2,4.2,0,0,1-1.432-1.912,7.019,7.019,0,0,1-.448-2.52,7.742,7.742,0,0,1,.456-2.632,4.7,4.7,0,0,1,1.5-2.112,4.092,4.092,0,0,1,2.656-.84,4.138,4.138,0,0,1,2.52.736,4.325,4.325,0,0,1,1.472,1.912,6.659,6.659,0,0,1,.472,2.5,7.417,7.417,0,0,1-.48,2.624,4.9,4.9,0,0,1-1.528,2.128A4.125,4.125,0,0,1,370.506,72.192Zm.384-.528a2.354,2.354,0,0,0,2.144-1.176,5.979,5.979,0,0,0,.72-3.144,9.508,9.508,0,0,0-.344-2.584,4.663,4.663,0,0,0-1.1-2.008,2.564,2.564,0,0,0-1.936-.784,2.3,2.3,0,0,0-2.136,1.16,5.772,5.772,0,0,0-.68,2.952,8.91,8.91,0,0,0,.8,3.952A2.649,2.649,0,0,0,370.89,71.664Zm10.864.528a4.067,4.067,0,0,1-2.5-.736,4.2,4.2,0,0,1-1.432-1.912,7.019,7.019,0,0,1-.448-2.52,7.742,7.742,0,0,1,.456-2.632,4.7,4.7,0,0,1,1.5-2.112,4.092,4.092,0,0,1,2.656-.84,4.138,4.138,0,0,1,2.52.736,4.325,4.325,0,0,1,1.472,1.912,6.659,6.659,0,0,1,.472,2.5,7.417,7.417,0,0,1-.48,2.624,4.9,4.9,0,0,1-1.528,2.128A4.125,4.125,0,0,1,381.754,72.192Zm.384-.528a2.354,2.354,0,0,0,2.144-1.176,5.979,5.979,0,0,0,.72-3.144,9.508,9.508,0,0,0-.344-2.584,4.663,4.663,0,0,0-1.1-2.008,2.564,2.564,0,0,0-1.936-.784,2.3,2.3,0,0,0-2.136,1.16,5.772,5.772,0,0,0-.68,2.952,8.91,8.91,0,0,0,.8,3.952A2.649,2.649,0,0,0,382.138,71.664Zm10.9-10.032a3.279,3.279,0,0,1,2.352.752,2.583,2.583,0,0,1,.784,1.952,2.789,2.789,0,0,1-.376,1.44,2.675,2.675,0,0,1-1.088,1.016,3.531,3.531,0,0,1-1.672.376h-2.016v4.256h1.28V72h-3.92v-.576h1.28V62.208h-1.28v-.576Zm-.192,4.928a1.636,1.636,0,0,0,1.3-.616,2.7,2.7,0,0,0,.024-3.152,1.654,1.654,0,0,0-1.328-.584h-1.824V66.56Zm13.008,2.624V72h-7.92v-.576h1.28V62.208h-1.28v-.576h7.792v2.784h-.608l-.848-2.208h-3.7v4.016h2.512V64.992h.736v3.072h-.736V66.832H400.57v4.592h3.824l.848-2.24Zm11.552,2.24V72h-2.448l-3.04-4.784h-1.488v4.208h1.264V72h-3.9v-.576h1.28V62.208h-1.28v-.576h4.656a3.215,3.215,0,0,1,2.352.776,2.662,2.662,0,0,1,.784,1.976,2.736,2.736,0,0,1-.592,1.784,2.771,2.771,0,0,1-1.616.952l2.88,4.3Zm-6.976-4.816h1.84a1.636,1.636,0,0,0,1.3-.616,2.359,2.359,0,0,0,.52-1.576,2.426,2.426,0,0,0-.5-1.6,1.632,1.632,0,0,0-1.32-.608h-1.84Zm27.984-4.4h-1.184L434.458,72h-.736l-2.864-8.1L428.25,72h-.736l-2.928-9.792h-1.264v-.576h4v.576h-1.28l2.192,7.632,2.608-8.144h.672l2.928,8.1,2.1-7.584h-1.264v-.576h3.136Zm5.28,9.984a4.067,4.067,0,0,1-2.5-.736,4.2,4.2,0,0,1-1.432-1.912,7.019,7.019,0,0,1-.448-2.52,7.742,7.742,0,0,1,.456-2.632,4.7,4.7,0,0,1,1.5-2.112,4.092,4.092,0,0,1,2.656-.84,4.138,4.138,0,0,1,2.52.736,4.325,4.325,0,0,1,1.472,1.912,6.659,6.659,0,0,1,.472,2.5,7.417,7.417,0,0,1-.48,2.624,4.9,4.9,0,0,1-1.528,2.128A4.125,4.125,0,0,1,443.69,72.192Zm.384-.528a2.354,2.354,0,0,0,2.144-1.176,5.979,5.979,0,0,0,.72-3.144,9.508,9.508,0,0,0-.344-2.584,4.663,4.663,0,0,0-1.1-2.008,2.564,2.564,0,0,0-1.936-.784,2.3,2.3,0,0,0-2.136,1.16,5.772,5.772,0,0,0-.68,2.952,8.91,8.91,0,0,0,.8,3.952A2.649,2.649,0,0,0,444.074,71.664Zm15.856-.24V72h-2.448l-3.04-4.784h-1.488v4.208h1.264V72h-3.9v-.576h1.28V62.208h-1.28v-.576h4.656a3.215,3.215,0,0,1,2.352.776,2.662,2.662,0,0,1,.784,1.976,2.736,2.736,0,0,1-.592,1.784,2.771,2.771,0,0,1-1.616.952l2.88,4.3Zm-6.976-4.816h1.84a1.636,1.636,0,0,0,1.3-.616,2.359,2.359,0,0,0,.52-1.576,2.426,2.426,0,0,0-.5-1.6,1.632,1.632,0,0,0-1.32-.608h-1.84Zm17.776,4.816V72h-2.5l-3.664-5.168h-.576v4.592h1.248V72H461.37v-.576h1.264V62.208H461.37v-.576h3.872v.576h-1.248v4.016h.784l3.344-4.016h-1.184v-.576h3.232v.576h-1.184l-3.264,3.952,3.824,5.264Zm4.688.768a4.943,4.943,0,0,1-1.832-.32,2.9,2.9,0,0,1-1.192-.784V69.2h.864a3.181,3.181,0,0,0,.72,1.912,2.006,2.006,0,0,0,1.472.552,2.105,2.105,0,0,0,1.528-.52,1.86,1.86,0,0,0,.536-1.4,1.789,1.789,0,0,0-.88-1.6l-2.848-1.84a3.419,3.419,0,0,1-1.016-.944,2.276,2.276,0,0,1-.36-1.312,2.361,2.361,0,0,1,.84-1.9,3.464,3.464,0,0,1,2.312-.712,4.66,4.66,0,0,1,1.64.272,3.072,3.072,0,0,1,1.192.768v1.936h-.864a3.418,3.418,0,0,0-.608-1.928,1.731,1.731,0,0,0-1.36-.536,1.869,1.869,0,0,0-1.464.512,1.789,1.789,0,0,0-.456,1.232,1.523,1.523,0,0,0,.736,1.376l2.8,1.792a4.042,4.042,0,0,1,1.256,1.144,2.414,2.414,0,0,1,.376,1.336,2.654,2.654,0,0,1-1.56,2.48A4.172,4.172,0,0,1,475.418,72.192Zm18.064-3.008V72h-7.92v-.576h1.28V62.208h-1.28v-.576h7.792v2.784h-.608l-.848-2.208h-3.7v4.016h2.512V64.992h.736v3.072h-.736V66.832H488.2v4.592h3.824l.848-2.24Zm3.088,2.992a.956.956,0,1,1,.68-.28A.926.926,0,0,1,496.57,72.176Zm7.178-8.349,3.257,3.257.373-.373-3.257-3.257,3.257-3.257-.373-.373-3.257,3.257-3.257-3.257-.373.373,3.257,3.257-3.257,3.257.373.373Zm-2.9-1.213a.835.835,0,1,0,.821.831A.843.843,0,0,0,500.846,62.614Zm5.842,0a.835.835,0,1,0,.821.831A.843.843,0,0,0,506.688,62.614Zm-2.921,2.931a.835.835,0,1,0,.821.831A.843.843,0,0,0,503.767,65.544Zm0-5.852a.835.835,0,1,0,.821.831A.843.843,0,0,0,503.767,59.692Zm5.506,5.226a2.565,2.565,0,0,0,.336,1.419,1.865,1.865,0,0,0,1.624.821,1.837,1.837,0,0,0,1.279-.448,2.279,2.279,0,0,0,.625-1.615,1.888,1.888,0,0,0-.495-1.344,1.811,1.811,0,0,0-.868-.476,1.475,1.475,0,0,0,.719-.364,1.834,1.834,0,0,0,.5-1.307,1.809,1.809,0,0,0-3.425-.849,2.559,2.559,0,0,0-.2,1.111h.821a2.19,2.19,0,0,1,.289-1.335.846.846,0,0,1,.709-.392c.6,0,.971.523.971,1.372,0,1.017-.429,1.568-1.223,1.568h-.56v.457h.541a1.183,1.183,0,0,1,1.036.4,2.126,2.126,0,0,1,.317,1.232,2.025,2.025,0,0,1-.373,1.26.926.926,0,0,1-.7.345.974.974,0,0,1-.765-.429,2.58,2.58,0,0,1-.336-1.428Z" transform="translate(485.84 7655.44)"/>
  </g>
</svg>
