<svg xmlns="http://www.w3.org/2000/svg" width="496.406" height="172.096" viewBox="0 0 496.406 172.096">
  <g id="sec06-txt04-sp" transform="translate(0.224 2.268)">
    <g id="情報-1" transform="translate(2.777 -4125.218)">
      <g id="text" transform="translate(-3 3946.825)">
        <g id="price" transform="translate(-142 -1940.333)">
          <path id="パス_145" data-name="パス 145" d="M1.712-12.464V1.072H3.12v-6.48H12.9V-.592c0,.624-.272.9-.9.9H9.936V.976h2.816C13.84.976,14.3.512,14.3-.56v-11.9Zm1.408.64H7.232v5.776H3.12Zm5.5,0H12.9v5.776H8.624Z" transform="translate(439.65 2282)" fill="#111"/>
          <path id="パス_143" data-name="パス 143" d="M10.86-10.08A6.941,6.941,0,0,0,8.244-4.56,6.941,6.941,0,0,0,10.86.96h.66a7.108,7.108,0,0,1-2.4-5.508,7.587,7.587,0,0,1,1.236-4.224A5.4,5.4,0,0,1,11.52-10.08Zm5.028,3.768A22.587,22.587,0,0,1,19.32-4.644,9.535,9.535,0,0,1,14.076.1l.132.348a8.8,8.8,0,0,0,6.024-4.5A14.143,14.143,0,0,1,22.7-1.932l.8-.96a12.437,12.437,0,0,0-2.808-2.1,20.194,20.194,0,0,0,1.2-3.78c.216-.072.3-.144.3-.264,0-.1-.072-.168-.2-.2L20.744-9.56l-.048.672a16.421,16.421,0,0,1-1,3.408,15.833,15.833,0,0,0-3.664-1.18Zm21.12,1.464L26.988-5.22v1.26l10.02-.36Zm11.448-1.92A42.223,42.223,0,0,1,48-2.172a5.5,5.5,0,0,1-.36,1.716.751.751,0,0,1-.756.336H45.5V.432h2.064C48.5.444,48.764.132,49-1.2a46.441,46.441,0,0,0,.624-6.12H45.084c.036-.552.06-.984.06-1.512v-.312c.168-.1.24-.18.24-.288a.209.209,0,0,0-.071-.149.209.209,0,0,0-.157-.051L43.9-9.72l.08.72v.18c0,.336-.024.9-.072,1.5H40.74l-.48-.1v.744l.48-.1h3.108A8.366,8.366,0,0,1,39.84.132l.144.288A7.2,7.2,0,0,0,43.6-2.38a9.622,9.622,0,0,0,1.428-4.392Zm14.472,1.92L52.908-5.22v1.26l10.02-.36ZM67.344.072h1V-3.516h2.34V.96h1V-3.516H74.3v2.472c-.012.4-.144.528-.54.54h-.912V0h1.44c.72,0,1.032-.288,1.02-.936V-4H71.676v-.9c.156-.12.192-.156.192-.24,0-.108-.084-.156-.252-.156H70.68V-4H68.052a10.925,10.925,0,0,0,1.74-1.752H75.84l.48.1v-.672l-.48.1H70.164l.024-.036.4-.552c.252-.036.384-.12.384-.24,0-.084-.06-.132-.168-.156L69.8-7.472a6.9,6.9,0,0,1-.768,1.248H65.772l-.48-.1v.672l.48-.1h2.88A14.156,14.156,0,0,1,65.28-2.676l.168.312a9.867,9.867,0,0,0,1.9-1.092ZM66.732-9.42c1.32.312,2.412.624,3.432.972-1.1.42-3.468,1.14-4.416,1.368l.084.348a24.132,24.132,0,0,0,5.4-1.344c.672.24,2.016.816,3.192,1.368L75.1-7.44a26.573,26.573,0,0,0-2.808-1.068c.576-.252,1.008-.444,1.764-.8a2.019,2.019,0,0,0,.24.024c.144,0,.3-.1.3-.192,0-.048-.06-.108-.144-.156l-.84-.444a15.156,15.156,0,0,1-2.436,1.224,21.891,21.891,0,0,0-4.284-.888Zm20.8,3.336c-.144,1.224-.192,1.332-.672,1.344h-.888v.5h1.32c.7-.012.924-.228,1.056-.96a38.6,38.6,0,0,0,.4-4.452h-4.46c-.024,3.42-.42,4.524-1.932,5.436l.2.324a3.5,3.5,0,0,0,2.268-2.2Zm.048-.48H84.96c.06-.3.12-.744.156-1.08h2.556l-.012.18-.012.192-.06.672Zm.132-1.56h-2.56l.012-.036.048-1.008H87.78c-.024.42-.024.516-.048.8ZM81.54-8.76v-.852c.156-.108.192-.156.192-.24,0-.108-.084-.156-.252-.156h-.924V-8.76H78.72l-.48-.1v.672l.48-.1h.432v2.4c.024.768.336.984,1.476.984h2.364v-.84H80.808c-.6-.012-.72-.1-.732-.468V-8.28h3.072l.48.1v-.672l-.48.1Zm2.652,5.568h3.96l.468.1v-.672l-.468.1H79.368l-.468-.1V-3.1l.468-.1H83.2v1.344H80.052l-.48-.1v.672l.48-.1H83.2V.072H78.8l-.48-.1V.648l.48-.1h9.936l.48.1V-.024l-.48.1H84.192v-1.44h3.276l.48.1v-.672l-.48.1H84.192ZM94.464.264V.828h1.7c.8,0,1.14-.336,1.14-1.14V-9.54c.156-.108.192-.156.192-.228,0-.12-.084-.168-.252-.168H96.2V-.384c0,.456-.192.648-.648.648Zm4.3-7.812a28.8,28.8,0,0,1,2.292,6.216L102.24-2a17.644,17.644,0,0,0-3.084-5.772ZM91.512-1.236A13.241,13.241,0,0,0,94.356-7.08c.24-.048.36-.144.36-.3,0-.108-.084-.168-.276-.228l-1.1-.3a22.445,22.445,0,0,1-2.124,6.456ZM105.72-5.16v-.132a1.652,1.652,0,0,0-.024-.384h-.408a3.036,3.036,0,0,1-1.128,1.92l.72.936a2.485,2.485,0,0,0,.816-1.824V-4.68h8.148a4.774,4.774,0,0,1-.708,1.332l.372.228A4.31,4.31,0,0,0,115.2-5.16Zm4.428-3.516v-.948c.156-.108.192-.156.192-.24,0-.108-.084-.156-.252-.156h-.972v1.344H104.8l-.48-.1V-8.1l.48-.1h4.32v1.344h-3.28l-.48-.1v.672l.48-.1h7.68l.48.1v-.672l-.48.1h-3.372V-8.2h4.416l.48.1v-.672l-.48.1ZM104.52.84a5.587,5.587,0,0,0,2.7-.912,3.315,3.315,0,0,0,1.26-3v-.3c.144-.108.192-.156.192-.24,0-.108-.084-.156-.264-.156h-.96V-3.1a3.172,3.172,0,0,1-.984,2.6,4.511,4.511,0,0,1-2.04.984Zm6.036-4.608v3.36c.024.732.372.96,1.548,1h1.68c.84,0,1.188-.324,1.248-1.164l.06-1.02L114.6-1.64l-.06.744c-.048.408-.2.552-.564.552H112.26c-.5-.012-.7-.12-.7-.372V-3.372c.156-.108.192-.156.192-.24,0-.12-.084-.156-.336-.156ZM122.76-6.7h-2.052V.828h.888V.06h5.076V.744h.924V-6.7h-2.1V-9.04h2.184l.48.1v-.672l-.48.1h-6.744l-.468-.1v.672l.468-.1h1.824Zm.828-2.34h1.08V-6.7h-1.08Zm0,2.82h1.08v5.8h-1.08Zm-.828,5.8H121.6v-5.8h1.164Zm2.736-5.8h1.176v5.8H125.5ZM119.448-7.4c.252-.708.36-1.044.636-1.932.192-.036.288-.12.288-.24,0-.1-.084-.168-.2-.2l-1.008-.3a28.442,28.442,0,0,1-2.04,6.516l.252.192a13,13,0,0,0,1.14-1.848v6.1h.936ZM133.62-2.772a11.55,11.55,0,0,0,3.888-2.28,11.591,11.591,0,0,0,3.156,1.992A3.976,3.976,0,0,1,141.12-4a12.418,12.418,0,0,1-3.048-1.62,12.4,12.4,0,0,0,2.22-3.18h-3.9l.012-.036c.132-.252.144-.276.3-.612.228-.084.324-.156.324-.24a.224.224,0,0,0-.12-.168l-1.02-.228a11.161,11.161,0,0,1-.864,2.2,11.092,11.092,0,0,1-1.14,1.836l.24.228a8.152,8.152,0,0,0,1.716-2,5.445,5.445,0,0,0,1.1,2.184,13.169,13.169,0,0,1-3.44,2.564Zm2.52-5.544h2.88a14.543,14.543,0,0,1-1.6,2.172,4.517,4.517,0,0,1-1.332-2.1Zm-4.248,9.2h.924V-5.484a8.092,8.092,0,0,1,.852,1.824l.744-.648a4.244,4.244,0,0,0-1.6-1.524V-7.08h.876l.48.1v-.672l-.48.1h-.876v-2.06c.144-.108.192-.156.192-.24,0-.108-.084-.156-.252-.156h-.864V-7.56h-1.26l-.48-.1v.672l.48-.1h1.152a20.078,20.078,0,0,1-1.7,5.052l.264.18a11.81,11.81,0,0,0,1.548-2.832ZM139.98.816V-3.216h-5.028v4.1h.948V.312h3.12v.5ZM135.9-.168V-2.736h3.12V-.168Zm7.14-9.912a7.145,7.145,0,0,1,2.4,5.532A7.126,7.126,0,0,1,143.04.96h.648a6.9,6.9,0,0,0,2.628-5.52,6.9,6.9,0,0,0-2.628-5.52Z" transform="translate(133.756 2282)" fill="#111"/>
          <g id="グループ_897" data-name="グループ 897" transform="translate(-3 0.083)">
            <path id="パス_137" data-name="パス 137" d="M142.663-18.194l1.865-.682-.531-.91-1.517,1.274.349-1.956h-1.062l.349,1.956L140.6-19.783l-.531.91,1.865.682-1.865.682.531.91,1.517-1.274-.349,1.941h1.062l-.349-1.941L144-16.6l.531-.91Zm5.994.09a2.534,2.534,0,0,0-.681.093,2.623,2.623,0,0,0-.629.267,2.878,2.878,0,0,0-.548.418,2.873,2.873,0,0,0-.437.541L145.8-17.1a3.65,3.65,0,0,1,1.281-1.248,3.239,3.239,0,0,1,1.607-.418,3.929,3.929,0,0,1,1.111.163,3.2,3.2,0,0,1,1,.492,2.533,2.533,0,0,1,.726.837,2.453,2.453,0,0,1,.278,1.2,2.542,2.542,0,0,1-.241,1.111,4.824,4.824,0,0,1-.629.977,11.218,11.218,0,0,1-.892.959q-.5.485-1.022,1.063l-1.644,1.785h4.539V-9H146v-.5l2.747-3.118q.341-.392.655-.822a7.8,7.8,0,0,0,.555-.87,5.307,5.307,0,0,0,.385-.878,2.685,2.685,0,0,0,.144-.844,2.541,2.541,0,0,0-.13-.829,1.918,1.918,0,0,0-.37-.652,1.718,1.718,0,0,0-.578-.43,1.773,1.773,0,0,0-.751-.157Z" transform="translate(288.447 2284)" fill="#111"/>
            <path id="パス_110" data-name="パス 110" d="M9.152-13.184a6.7,6.7,0,0,1,3.12.752,5.776,5.776,0,0,1,2.336,2.224,6.671,6.671,0,0,1,.88,3.488,7.324,7.324,0,0,1-.912,3.664A6.527,6.527,0,0,1,12.1-.544a6.843,6.843,0,0,1-3.456.9A6.145,6.145,0,0,1,4.832-.88a7.772,7.772,0,0,1-2.512-3.5A14.666,14.666,0,0,1,1.44-9.7a15.568,15.568,0,0,1,1.088-6.032,9.665,9.665,0,0,1,2.9-4.016,6.251,6.251,0,0,1,3.92-1.408,5.906,5.906,0,0,1,2.992.8A7.2,7.2,0,0,1,14.72-18.08l-.96.8a6.76,6.76,0,0,0-1.936-1.92,4.3,4.3,0,0,0-2.352-.7,4.092,4.092,0,0,0-3.728,2.512,15.55,15.55,0,0,0-1.488,6.64,6.467,6.467,0,0,1,2-1.728A5.738,5.738,0,0,1,9.152-13.184ZM9.184-.672A2.9,2.9,0,0,0,11.856-2.16a7.576,7.576,0,0,0,.88-3.888,6.943,6.943,0,0,0-1.216-4.464A3.741,3.741,0,0,0,8.512-12a3.705,3.705,0,0,0-2.7,1.088A5.475,5.475,0,0,0,4.32-8.32,11.529,11.529,0,0,0,5.856-2.64,3.89,3.89,0,0,0,9.184-.672ZM20.128-3.264a1.852,1.852,0,0,1,1.424.656,2.65,2.65,0,0,1,.592,1.84,4.811,4.811,0,0,1-.9,2.88A6.243,6.243,0,0,1,18.816,4.1l-.48-.768a4.666,4.666,0,0,0,1.456-1.2A2.494,2.494,0,0,0,20.48.544a.971.971,0,0,0-.032-.288,1.988,1.988,0,0,1-.384.032,1.688,1.688,0,0,1-1.3-.5A1.777,1.777,0,0,1,18.3-1.472a1.71,1.71,0,0,1,.528-1.28A1.791,1.791,0,0,1,20.128-3.264ZM38.5-2.5V0H25.92V-1.12q4.064-4.416,5.936-6.672a20.282,20.282,0,0,0,2.688-3.952A8.1,8.1,0,0,0,35.36-15.3a5.261,5.261,0,0,0-1.04-3.536,3.375,3.375,0,0,0-2.672-1.2,3.16,3.16,0,0,0-2.784,1.408,6.766,6.766,0,0,0-1.088,3.456H26.048v-3.84a5.984,5.984,0,0,1,2.4-1.536,9.128,9.128,0,0,1,3.232-.576,8.482,8.482,0,0,1,3.088.576,5.532,5.532,0,0,1,2.464,1.872,5.355,5.355,0,0,1,.976,3.312,5.916,5.916,0,0,1-.768,2.9A18.421,18.421,0,0,1,34.9-9.136Q33.12-7.2,28.48-2.5ZM48.8.352A5.936,5.936,0,0,1,44.96-.992a8.589,8.589,0,0,1-2.576-3.792,16.025,16.025,0,0,1-.912-5.616,15.891,15.891,0,0,1,.912-5.6,8.533,8.533,0,0,1,2.592-3.776,6,6,0,0,1,3.856-1.344,6.045,6.045,0,0,1,3.856,1.328,8.419,8.419,0,0,1,2.592,3.76,15.891,15.891,0,0,1,.912,5.6,15.775,15.775,0,0,1-.928,5.616,8.756,8.756,0,0,1-2.608,3.808A5.956,5.956,0,0,1,48.8.352Zm.032-1.024q2.176,0,3.328-2.5A17.843,17.843,0,0,0,53.312-10.4a17.742,17.742,0,0,0-1.152-7.2q-1.152-2.5-3.328-2.5T45.5-17.6a17.742,17.742,0,0,0-1.152,7.2A17.843,17.843,0,0,0,45.5-3.168Q46.656-.672,48.832-.672ZM65.568.352a5.936,5.936,0,0,1-3.84-1.344,8.589,8.589,0,0,1-2.576-3.792A16.025,16.025,0,0,1,58.24-10.4a15.891,15.891,0,0,1,.912-5.6,8.533,8.533,0,0,1,2.592-3.776A6,6,0,0,1,65.6-21.12a6.045,6.045,0,0,1,3.856,1.328,8.419,8.419,0,0,1,2.592,3.76,15.891,15.891,0,0,1,.912,5.6,15.775,15.775,0,0,1-.928,5.616,8.756,8.756,0,0,1-2.608,3.808A5.956,5.956,0,0,1,65.568.352ZM65.6-.672q2.176,0,3.328-2.5A17.843,17.843,0,0,0,70.08-10.4a17.742,17.742,0,0,0-1.152-7.2q-1.152-2.5-3.328-2.5t-3.328,2.5a17.742,17.742,0,0,0-1.152,7.2,17.843,17.843,0,0,0,1.152,7.232Q63.424-.672,65.6-.672ZM77.344-3.264a1.852,1.852,0,0,1,1.424.656,2.65,2.65,0,0,1,.592,1.84,4.811,4.811,0,0,1-.9,2.88A6.243,6.243,0,0,1,76.032,4.1l-.48-.768a4.666,4.666,0,0,0,1.456-1.2A2.494,2.494,0,0,0,77.7.544a.971.971,0,0,0-.032-.288,1.988,1.988,0,0,1-.384.032,1.688,1.688,0,0,1-1.3-.5,1.777,1.777,0,0,1-.464-1.264,1.71,1.71,0,0,1,.528-1.28A1.791,1.791,0,0,1,77.344-3.264ZM89.248.352a5.936,5.936,0,0,1-3.84-1.344,8.589,8.589,0,0,1-2.576-3.792A16.025,16.025,0,0,1,81.92-10.4a15.891,15.891,0,0,1,.912-5.6,8.533,8.533,0,0,1,2.592-3.776A6,6,0,0,1,89.28-21.12a6.045,6.045,0,0,1,3.856,1.328,8.419,8.419,0,0,1,2.592,3.76,15.891,15.891,0,0,1,.912,5.6,15.775,15.775,0,0,1-.928,5.616A8.756,8.756,0,0,1,93.1-1.008,5.956,5.956,0,0,1,89.248.352ZM89.28-.672q2.176,0,3.328-2.5A17.843,17.843,0,0,0,93.76-10.4a17.742,17.742,0,0,0-1.152-7.2q-1.152-2.5-3.328-2.5t-3.328,2.5A17.742,17.742,0,0,0,84.8-10.4a17.843,17.843,0,0,0,1.152,7.232Q87.1-.672,89.28-.672ZM106.016.352a5.936,5.936,0,0,1-3.84-1.344A8.589,8.589,0,0,1,99.6-4.784a16.025,16.025,0,0,1-.912-5.616A15.891,15.891,0,0,1,99.6-16a8.533,8.533,0,0,1,2.592-3.776,6,6,0,0,1,3.856-1.344,6.045,6.045,0,0,1,3.856,1.328,8.419,8.419,0,0,1,2.592,3.76,15.891,15.891,0,0,1,.912,5.6,15.775,15.775,0,0,1-.928,5.616,8.756,8.756,0,0,1-2.608,3.808A5.956,5.956,0,0,1,106.016.352Zm.032-1.024q2.176,0,3.328-2.5a17.843,17.843,0,0,0,1.152-7.232,17.742,17.742,0,0,0-1.152-7.2q-1.152-2.5-3.328-2.5t-3.328,2.5a17.742,17.742,0,0,0-1.152,7.2,17.843,17.843,0,0,0,1.152,7.232Q103.872-.672,106.048-.672ZM122.784.352a5.936,5.936,0,0,1-3.84-1.344,8.589,8.589,0,0,1-2.576-3.792,16.025,16.025,0,0,1-.912-5.616,15.891,15.891,0,0,1,.912-5.6,8.533,8.533,0,0,1,2.592-3.776,6,6,0,0,1,3.856-1.344,6.045,6.045,0,0,1,3.856,1.328,8.419,8.419,0,0,1,2.592,3.76,15.891,15.891,0,0,1,.912,5.6,15.775,15.775,0,0,1-.928,5.616,8.756,8.756,0,0,1-2.608,3.808A5.956,5.956,0,0,1,122.784.352Zm.032-1.024q2.176,0,3.328-2.5A17.843,17.843,0,0,0,127.3-10.4a17.742,17.742,0,0,0-1.152-7.2q-1.152-2.5-3.328-2.5t-3.328,2.5a17.742,17.742,0,0,0-1.152,7.2,17.843,17.843,0,0,0,1.152,7.232Q120.64-.672,122.816-.672Z" transform="translate(295.406 2284.375)" fill="#111"/>
          </g>
        </g>
        <text id="全長3_860mm_全幅1_755mm_全高1_460mm_ホイールベース2_525mm_最高出力190kW_最大トルク350Nm_リチウム_イオン_バッテリー容量_54.2kWh" data-name="全長3,860mm、全幅1,755mm、全高1,460mm、ホイールベース2,525mm、最高出力190kW、最大トルク350Nm、リチウム・イオン・バッテリー容量
54.2kWh" transform="translate(0.406 274.939)" fill="#111" font-size="15" font-family="MotoyaAporoStd-W3, Motoya Aporo Std"><tspan x="0" y="0">全長</tspan><tspan y="0" font-family="MINISerif-Regular, MINI Serif">3,860mm</tspan><tspan y="0">、全幅</tspan><tspan y="0" font-family="MINISerif-Regular, MINI Serif">1,755mm</tspan><tspan y="0">、全高</tspan><tspan y="0" font-family="MINISerif-Regular, MINI Serif">1,460mm</tspan><tspan y="0">、ホイールベース</tspan><tspan y="0" font-family="MINISerif-Regular, MINI Serif">2,525mm</tspan><tspan y="0">、</tspan><tspan x="0" y="24">最高出力</tspan><tspan y="24" font-family="MINISerif-Regular, MINI Serif">190kW</tspan><tspan y="24">、最大</tspan><tspan y="24">トルク</tspan><tspan y="24" font-family="MINISerif-Regular, MINI Serif">350Nm</tspan><tspan y="24">、リチウム・イオン・バッテリー</tspan><tspan y="24">容量</tspan><tspan font-family="MINISerif-Regular, MINI Serif"><tspan x="0" y="48">54.2kWh</tspan></tspan></text>
      </g>
      <g id="car-name" transform="translate(-933 2.391)">
        <g id="グループ_877" data-name="グループ 877" transform="translate(-3 4156.641)">
          <rect id="長方形_201" data-name="長方形 201" width="224.656" height="22.624" transform="translate(933 2.56)"/>
          <path id="パス_141" data-name="パス 141" d="M1.472-5.76H14.528l.832.16V-6.928l-.832.16H1.472L.64-6.928V-5.6ZM28.7-6.352a12.527,12.527,0,0,1,1.14,1.344l1.168-1.248a18.637,18.637,0,0,0-4.992-3.36l-.384.432A24.615,24.615,0,0,1,28.16-6.928L27.3-6.9c-1.824.064-2.56.08-5.28.112l-.928.016a19.144,19.144,0,0,0,2.592-3.616l.016-.048h6.832l.64.128v-.9l-.64.128h-5.78V-12.9c.192-.144.256-.208.256-.32,0-.144-.112-.208-.352-.208H23.3v2.352H17.488l-.624-.128v.9l.624-.128h4.56a28.969,28.969,0,0,1-1.632,3.408l-.144.256c-1.824.032-2,.032-2.208.032h-.816l.32,1.264c.064.24.176.368.32.368s.256-.128.352-.384c.544-.016,1.056-.048,1.216-.064l.88-.048.88-.064A8.781,8.781,0,0,1,20.32-2,5.822,5.822,0,0,1,16.656.688l.176.5A6.953,6.953,0,0,0,21.2-1.088,7.466,7.466,0,0,0,22.624-5.76l.192-.016c.336-.032.352-.032,1.2-.1.1-.016.576-.064,1.008-.1V-.7c0,1.216.432,1.568,1.888,1.552h2.56c1.1.016,1.568-.416,1.68-1.5l.208-1.872-.72-.112L30.464-1.1c-.064.528-.288.72-.816.72H27.12c-.608-.032-.752-.16-.752-.64V-6.08l.432-.048a8.407,8.407,0,0,0,1.04-.128Zm11.744,4.96H45.76v-4.5H34.208V-.3h1.2V-1.392h3.856V-.144C39.3.624,39.68.88,40.848.912h5.008c.864,0,1.216-.3,1.344-1.168l.144-1.184L46.72-1.5l-.128.8c-.08.432-.256.56-.784.576H41.04c-.528-.032-.608-.08-.592-.48Zm0-3.856h4.08V-4h-4.08Zm0,1.888h4.08v1.328h-4.08Zm-1.18,1.328H35.408V-3.36h3.856Zm0-1.968H35.408V-5.248h3.856Zm0-6.4v3.856h1.184V-10.4H45.76a15.072,15.072,0,0,1-.784,2.208L45.392-8a6.015,6.015,0,0,0,1.952-3.04h-6.9v-1.1H45.4l.64.128v-.9l-.64.128H34.784l-.624-.128v.9l.624-.128h4.48v1.1H34.512v-.048L34.5-11.5h-.544A4.387,4.387,0,0,1,32.64-8.816l.992,1.12a4.282,4.282,0,0,0,.88-2.7Zm-4.3,3.392h3.5v-.64h-3.5Zm0-1.7h3.5v-.64h-3.5Zm6.288,1.7H44.82v-.64H41.248Zm0-1.7H44.8v-.64H41.248Zm15.6,4.88H61.1l.64.128v-.9l-.64.128H56.848v-2.72h5.776l.64.128v-.9l-.64.128H56.848v-2.7h4.464l.64.128v-.9l-.64.128H56.848v-1.664c.208-.16.256-.208.256-.3,0-.16-.112-.224-.352-.224h-1.28v2.192h-4.8l-.624-.128v.9l.624-.128h4.8v2.7h-6.08l-.624-.128v.9l.624-.128h6.08v6.26a4.963,4.963,0,0,1-3.088-2.848c.1-.416.176-.8.32-1.68.24-.1.368-.208.368-.352,0-.112-.128-.208-.3-.224L51.4-6.192c-.3,3.584-1,5.344-2.756,7.024l.288.352a6.458,6.458,0,0,0,3.3-4.3,9.281,9.281,0,0,0,.56,1.136A5.3,5.3,0,0,0,56.8.56a32.072,32.072,0,0,0,4.752.224h1.36A7.221,7.221,0,0,1,63.36-.64c-1.6.1-2.816.144-3.936.144a20.331,20.331,0,0,1-2.576-.128ZM76.88-7.2h1.84l.64.128v-.9l-.64.128H70.9l-.64-.128v.9L70.9-7.2h4.576V-.336c0,.512-.224.736-.72.736H73.008v.672h2.416c1.024,0,1.472-.416,1.456-1.392ZM67.008,1.184h1.328V-7.024c.352-.448.56-.7,1.088-1.408.416-.032.56-.112.56-.336,0-.1-.064-.176-.192-.256l-1.12-.736A25.083,25.083,0,0,1,64.64-4.368l.272.4a19.061,19.061,0,0,0,2.1-1.664Zm4.88-12.976H77.9l.64.128v-.928l-.64.128H71.888l-.64-.128v.928ZM65.1-9.344a14.366,14.366,0,0,0,4-2.72,1.133,1.133,0,0,0,.432-.048.252.252,0,0,0,.192-.224c0-.08-.048-.16-.176-.256l-1.12-.848a17.149,17.149,0,0,1-3.6,3.7ZM84.86-4.688h1.12l.64.128v-.9l-.64.128H84.86v-2.48h1.52v-4.96H81.42v4.96h2.288v6.9c-.144.016-.576.08-1.056.16v-5.28c.176-.144.224-.208.224-.3,0-.144-.112-.208-.352-.208H81.5V-.608h-.06c-.224.032-.368.048-.8.1l.3,1.136c.048.192.144.3.272.3s.24-.112.288-.352A32.334,32.334,0,0,0,86.78-.992l-.064-.464c-.432.08-.88.176-1.344.256-.288.048-.352.064-.512.1Zm-2.24-3.76v-3.68h2.56v3.68Zm6.34,8.08v-3.36h5.616V-9.072H88.96v-2.976h5.488l.64.128v-.9l-.64.128h-6.8V1.184H88.96V.272H94.7L95.36.4V-.5l-.66.132Zm0-8.064h4.272v4.064H88.96Zm14.1,6.544V-.512c-.016.528-.192.7-.7.72h-1.136V.88h1.616c.944,0,1.36-.384,1.344-1.264V-5.232h-3.328c.08-.288.192-.688.272-1.088h2.624V-9.952c.208-.144.256-.208.256-.32,0-.144-.112-.208-.336-.208h-1.008v3.52H98.48V-9.968c.208-.16.256-.224.256-.32,0-.144-.128-.224-.336-.224H97.392V-6.32h2.624c-.032.288-.048.32-.176,1.088H97.12V.928h1.152v-5.52h1.44c-.208,1.04-.352,1.728-.432,2.08l-.064.016c-.336.016-.336.016-.768.032l.288.976c.032.144.128.24.224.24s.192-.1.272-.3a15.46,15.46,0,0,0,2.5-.72,9.869,9.869,0,0,1,.336.976Zm0-2.7v2.64a7.518,7.518,0,0,0-1.712-2.032l-.336.16c.288.56.4.8.528,1.1-.368.048-1.408.16-1.648.176.208-.48.592-1.5.768-2.048Zm6-2.512V-9.58h1.472l.64.128v-.9l-.64.128h-2.064a9.662,9.662,0,0,0,1.328-2.16c.256-.08.416-.208.416-.3a.332.332,0,0,0-.224-.24l-1.216-.384a20.606,20.606,0,0,1-.88,3.088H106.02l.016-.048a16.239,16.239,0,0,0,.944-2.208c.288-.1.448-.224.448-.336,0-.08-.112-.192-.208-.224l-1.264-.4A25.475,25.475,0,0,1,103.9-7.824l.32.24a13.739,13.739,0,0,0,1.04-1.344V1.184h1.12V.32h4.336l.64.128v-.9l-.64.128h-1.664V-3.312h1.1l.64.128v-.9l-.64.128h-1.1V-6.464h1.1l.64.128v-.9l-.64.128Zm-1.1,0h-1.568V-9.58h1.568Zm0,.64v2.512h-1.568V-6.464Zm0,3.152V-.32h-1.568V-3.312Zm-9.1-6.752c.608.464.8.608,1.3,1.04a13.337,13.337,0,0,1-1.536,1.44l.24.336A9.653,9.653,0,0,0,100.72-8.5a10.256,10.256,0,0,1,1.088,1.12l.736-.752a9.7,9.7,0,0,0-1.216-.96l.032-.032c.24-.272.368-.432.416-.48.1-.112.128-.176.256-.32.272-.016.4-.1.4-.224a.217.217,0,0,0-.112-.176l-.88-.464a13.624,13.624,0,0,1-.832,1.216c-.448-.288-.8-.48-1.472-.832Zm2.44-1.78v-.976c.208-.144.256-.208.256-.32,0-.144-.112-.208-.336-.208H99.984v1.5h-2.7l-.64-.128v.9l.64-.128H103.9l.624.128v-.9l-.624.128Zm18.72,8.368a1.089,1.089,0,0,0-1.1,1.072,1.076,1.076,0,0,0,.309.767,1.076,1.076,0,0,0,.763.321,1.079,1.079,0,0,0,.767-.319,1.079,1.079,0,0,0,.313-.769,1.079,1.079,0,0,0-1.056-1.072Zm0-7.36a1.089,1.089,0,0,0-1.1,1.072A1.089,1.089,0,0,0,120-8.672a1.076,1.076,0,0,0,.763-.321,1.076,1.076,0,0,0,.309-.767,1.079,1.079,0,0,0-1.056-1.072Zm8.707,7.111,6.338-8.955H136.1v8.418h2.2V-2.92h-2.2V0h-1.6V-2.92h-5.781Zm5.781-.537v-6.357l-4.463,6.357ZM143.625-12a3.341,3.341,0,0,0-.9.122,3.459,3.459,0,0,0-.83.352,3.8,3.8,0,0,0-.723.552,3.788,3.788,0,0,0-.576.713l-.742-.42a4.814,4.814,0,0,1,1.689-1.646,4.271,4.271,0,0,1,2.119-.552,5.182,5.182,0,0,1,1.465.215,4.216,4.216,0,0,1,1.323.649,3.341,3.341,0,0,1,.957,1.1,3.235,3.235,0,0,1,.366,1.577,3.353,3.353,0,0,1-.317,1.465,6.361,6.361,0,0,1-.83,1.289,14.8,14.8,0,0,1-1.177,1.265q-.664.64-1.348,1.4l-2.168,2.354h5.986V0h-7.8V-.664l3.623-4.111q.449-.518.864-1.084a10.283,10.283,0,0,0,.732-1.147,7,7,0,0,0,.508-1.157,3.541,3.541,0,0,0,.19-1.113,3.351,3.351,0,0,0-.171-1.094,2.529,2.529,0,0,0-.488-.859,2.265,2.265,0,0,0-.762-.566,2.338,2.338,0,0,0-.99-.2Zm6.943,1.66,3.5-2.334h.361V-.7h1.855V0h-5.273V-.7h1.836V-10.9l-1.855,1.182Zm7.63-1.576v-.5l2.646-.185v7.928h.281l2.988-2.9h-1.222v-.545h3.472v.545h-1.345l-2.628,2.61,3.744,4.43h1.081V0h-3.981V-.536H164.3l-2.883-3.533h-.571V-.536h1.116V0h-3.621V-.536h1.151V-11.918ZM170.107-.536h.958V0h-3.5V-.536h1.187v-7.04H167.6V-8.1l2.47-.141.035.861a2.161,2.161,0,0,1,.835-.7,2.787,2.787,0,0,1,1.222-.246,3.25,3.25,0,0,1,.813.092,2.25,2.25,0,0,1,.62.255,1.842,1.842,0,0,1,.448.382,2.271,2.271,0,0,1,.308.475,2.312,2.312,0,0,1,.439-.536,2.465,2.465,0,0,1,.558-.378,2.678,2.678,0,0,1,.642-.22,3.382,3.382,0,0,1,.69-.07,2.838,2.838,0,0,1,1.248.237,1.954,1.954,0,0,1,.756.624,2.319,2.319,0,0,1,.374.9,5.365,5.365,0,0,1,.1,1.046V-.536h1.169V0h-3.454V-.536h.923V-5.528a3.3,3.3,0,0,0-.325-1.657,1.1,1.1,0,0,0-1.011-.541,2.156,2.156,0,0,0-.571.088,1.667,1.667,0,0,0-.593.308,1.731,1.731,0,0,0-.466.6,2.189,2.189,0,0,0-.189.971V-.536h1.028V0h-3.4V-.536H173.3V-5.528q0-2.2-1.354-2.2a1.868,1.868,0,0,0-.541.1,1.788,1.788,0,0,0-.6.334,1.972,1.972,0,0,0-.492.624,2.073,2.073,0,0,0-.2.967Zm13.072-10.18.241,1.953h-.7l.231-1.953L181.39-9.527l-.343-.62,1.794-.754-1.794-.769.359-.61,1.543,1.179-.231-1.922h.7L183.18-11.1l1.553-1.169.354.6L183.3-10.9l1.784.754-.343.61Zm3.117-.713,1.835-1.225h.19v6.285h.974V-6h-2.768v-.369h.964v-5.352l-.974.62Z" transform="translate(950.36 20)" fill="#fff"/>
        </g>
        <path id="パス_140" data-name="パス 140" d="M22.625-19.906v18.75h2.5V0H17.406V-1.156h2.5v-16.5L13.188-.031H11.75L11.719,0,4.734-17.8V-1.156H7.2V0H.8V-1.156H3.359v-18.75H.8v-1.187H6.2L13.063-3.547,19.75-21.094h5.375v1.188Zm13.25-.031H32.7V-1.156H36V0H26.719V-1.156h3.3V-19.937H26.844v-1.156h9.031Zm20.641-1.156v1.188H53.828V0H52.344L41.531-17.766v16.61H44.25V0H37.594V-1.156h2.563v-18.75H37.594v-1.187h5.219L52.406-5.375V-19.906H49.828v-1.187Zm10.75,1.156H64.094V-1.156h3.3V0H58.109V-1.156h3.3V-19.937H58.234v-1.156h9.031Zm9.469,0v-1.156h9.156v1.156H82.625V1.922a6.388,6.388,0,0,1-.414,2.43,4.739,4.739,0,0,1-1.094,1.656,4.284,4.284,0,0,1-1.539.953,5.2,5.2,0,0,1-1.75.3,6.055,6.055,0,0,1-2.172-.375,5.476,5.476,0,0,1-1.609-.906l.828-.828a4.607,4.607,0,0,0,1.2.742,4.4,4.4,0,0,0,1.758.3,1.712,1.712,0,0,0,.93-.25,2.029,2.029,0,0,0,.664-.7,3.367,3.367,0,0,0,.391-1.078,7.233,7.233,0,0,0,.125-1.4v-22.7Zm26.5,10.844a22.739,22.739,0,0,0-.164-2.711,18.624,18.624,0,0,0-.5-2.617,14.21,14.21,0,0,0-.844-2.336,7.99,7.99,0,0,0-1.2-1.883,5.374,5.374,0,0,0-1.589-1.26,4.252,4.252,0,0,0-1.984-.461,5.912,5.912,0,0,0-2.922.664,5.239,5.239,0,0,0-1.906,1.8A7.947,7.947,0,0,0,91.1-15.256a15.606,15.606,0,0,0-.312,3.188,21.321,21.321,0,0,0,.141,2.688,19.17,19.17,0,0,0,.484,2.625,14.342,14.342,0,0,0,.836,2.375,8.476,8.476,0,0,0,1.2,1.93,5.336,5.336,0,0,0,1.578,1.3,4.106,4.106,0,0,0,1.969.477,6.051,6.051,0,0,0,2.945-.656,5.283,5.283,0,0,0,1.93-1.8,7.861,7.861,0,0,0,1.055-2.68,16.126,16.126,0,0,0,.313-3.285Zm-6.25-12.281a9.76,9.76,0,0,1,2.977.422A8.112,8.112,0,0,1,102.29-19.8a7.757,7.757,0,0,1,1.727,1.727,10.1,10.1,0,0,1,1.18,2.125,11.362,11.362,0,0,1,.672,2.352,14.179,14.179,0,0,1,.211,2.422,16.326,16.326,0,0,1-.219,2.625,14.73,14.73,0,0,1-.68,2.625,12.147,12.147,0,0,1-1.189,2.42,8.881,8.881,0,0,1-1.734,2,7.847,7.847,0,0,1-2.32,1.359,8.244,8.244,0,0,1-2.953.5,9.838,9.838,0,0,1-3.031-.43,8.008,8.008,0,0,1-2.328-1.172,7.61,7.61,0,0,1-1.7-1.742,9.825,9.825,0,0,1-1.141-2.141,12.122,12.122,0,0,1-.641-2.367,14.85,14.85,0,0,1-.2-2.43,17.065,17.065,0,0,1,.211-2.633A14.892,14.892,0,0,1,88.8-15.18a11.708,11.708,0,0,1,1.156-2.4,8.409,8.409,0,0,1,1.719-1.969A7.879,7.879,0,0,1,94-20.885a8.475,8.475,0,0,1,2.981-.49Zm28.641,1.438v18.78h2.313V0h-7.172V-1.156h2.141v-9.375h-9.781v9.375H115.3V0h-7.172V-1.156h2.313V-19.937h-2.312v-1.156H115.3v1.156h-2.172v8.156h9.781v-8.156h-2.141v-1.156h7.172v1.156Zm22.828-1.156V-19.9h-2.687V0h-1.484L133.469-17.766v16.61h2.719V0h-6.656V-1.156h2.563v-18.75h-2.562v-1.187h5.219l9.594,15.719V-19.906h-2.578v-1.187ZM172-15.391a6.894,6.894,0,0,0-.6-2.32,5.034,5.034,0,0,0-1.1-1.531,4.047,4.047,0,0,0-1.4-.852,4.535,4.535,0,0,0-1.508-.266,5.947,5.947,0,0,0-2.937.664,5.3,5.3,0,0,0-1.914,1.8A7.846,7.846,0,0,0,161.5-15.25a15.605,15.605,0,0,0-.312,3.188,22.026,22.026,0,0,0,.164,2.672,18.212,18.212,0,0,0,.5,2.578A13.664,13.664,0,0,0,162.7-4.5a7.941,7.941,0,0,0,1.227,1.875,5.352,5.352,0,0,0,1.625,1.25,4.528,4.528,0,0,0,2.039.453,5.249,5.249,0,0,0,1.734-.3,5.358,5.358,0,0,0,1.625-.914,6.2,6.2,0,0,0,1.32-1.508,6.263,6.263,0,0,0,.82-2.086h1.219a7.839,7.839,0,0,1-.852,2.414,7.364,7.364,0,0,1-1.531,1.938A6.872,6.872,0,0,1,169.852-.1a6.623,6.623,0,0,1-2.461.461,9.838,9.838,0,0,1-3.031-.43,8.008,8.008,0,0,1-2.328-1.172,7.61,7.61,0,0,1-1.7-1.742,9.825,9.825,0,0,1-1.141-2.141,12.122,12.122,0,0,1-.641-2.367,14.848,14.848,0,0,1-.2-2.43,16.914,16.914,0,0,1,.211-2.625,14.923,14.923,0,0,1,.656-2.617,11.9,11.9,0,0,1,1.156-2.406,8.344,8.344,0,0,1,1.719-1.977,7.879,7.879,0,0,1,2.328-1.336,8.475,8.475,0,0,1,2.977-.492,10.4,10.4,0,0,1,2.219.219,9.489,9.489,0,0,1,1.813.578,7.815,7.815,0,0,1,1.445.82,7.644,7.644,0,0,1,1.086.945v3.422Zm19.594,6.3a22.739,22.739,0,0,0-.164-2.711,18.624,18.624,0,0,0-.5-2.617,14.21,14.21,0,0,0-.844-2.336,7.99,7.99,0,0,0-1.2-1.883A5.374,5.374,0,0,0,187.3-19.9a4.252,4.252,0,0,0-1.984-.461,5.912,5.912,0,0,0-2.922.664,5.239,5.239,0,0,0-1.906,1.8,7.947,7.947,0,0,0-1.031,2.641,15.605,15.605,0,0,0-.312,3.188,21.32,21.32,0,0,0,.141,2.688,19.171,19.171,0,0,0,.484,2.625,14.342,14.342,0,0,0,.836,2.375,8.477,8.477,0,0,0,1.2,1.93,5.336,5.336,0,0,0,1.578,1.3,4.106,4.106,0,0,0,1.969.477,6.051,6.051,0,0,0,2.945-.656,5.283,5.283,0,0,0,1.93-1.8,7.861,7.861,0,0,0,1.055-2.68,16.125,16.125,0,0,0,.311-3.285Zm-6.25-12.281a9.76,9.76,0,0,1,2.977.422,8.112,8.112,0,0,1,2.328,1.156,7.757,7.757,0,0,1,1.727,1.727,10.1,10.1,0,0,1,1.18,2.125,11.361,11.361,0,0,1,.672,2.352,14.177,14.177,0,0,1,.211,2.422,16.325,16.325,0,0,1-.219,2.625,14.728,14.728,0,0,1-.68,2.625A12.146,12.146,0,0,1,192.352-3.5a8.881,8.881,0,0,1-1.734,2A7.847,7.847,0,0,1,188.3-.141a8.244,8.244,0,0,1-2.953.5,9.838,9.838,0,0,1-3.031-.43,8.008,8.008,0,0,1-2.328-1.172,7.609,7.609,0,0,1-1.7-1.742,9.826,9.826,0,0,1-1.141-2.141,12.122,12.122,0,0,1-.641-2.367,14.849,14.849,0,0,1-.2-2.43,17.064,17.064,0,0,1,.211-2.633,14.888,14.888,0,0,1,.656-2.625,11.71,11.71,0,0,1,1.156-2.4,8.409,8.409,0,0,1,1.719-1.969,7.879,7.879,0,0,1,2.328-1.336,8.475,8.475,0,0,1,2.968-.489Zm26.89,12.278a22.739,22.739,0,0,0-.164-2.711,18.626,18.626,0,0,0-.5-2.617,14.208,14.208,0,0,0-.844-2.336,7.991,7.991,0,0,0-1.2-1.883A5.374,5.374,0,0,0,207.94-19.9a4.252,4.252,0,0,0-1.984-.461,5.912,5.912,0,0,0-2.922.664,5.239,5.239,0,0,0-1.906,1.8,7.947,7.947,0,0,0-1.031,2.641,15.606,15.606,0,0,0-.312,3.188,21.32,21.32,0,0,0,.141,2.688,19.171,19.171,0,0,0,.484,2.625,14.34,14.34,0,0,0,.836,2.375,8.477,8.477,0,0,0,1.2,1.93,5.336,5.336,0,0,0,1.578,1.3,4.106,4.106,0,0,0,1.969.477,6.051,6.051,0,0,0,2.945-.656,5.283,5.283,0,0,0,1.93-1.8,7.861,7.861,0,0,0,1.055-2.68A16.124,16.124,0,0,0,212.234-9.094Zm-6.25-12.281a9.76,9.76,0,0,1,2.977.422,8.112,8.112,0,0,1,2.328,1.156,7.757,7.757,0,0,1,1.727,1.727,10.1,10.1,0,0,1,1.18,2.125,11.361,11.361,0,0,1,.672,2.352,14.179,14.179,0,0,1,.211,2.422,16.325,16.325,0,0,1-.219,2.625,14.728,14.728,0,0,1-.68,2.625A12.146,12.146,0,0,1,212.992-3.5a8.881,8.881,0,0,1-1.734,2,7.847,7.847,0,0,1-2.32,1.359,8.244,8.244,0,0,1-2.953.5,9.838,9.838,0,0,1-3.031-.43,8.008,8.008,0,0,1-2.328-1.172,7.61,7.61,0,0,1-1.7-1.742,9.825,9.825,0,0,1-1.141-2.141,12.121,12.121,0,0,1-.641-2.367,14.851,14.851,0,0,1-.2-2.43,17.064,17.064,0,0,1,.211-2.633,14.89,14.89,0,0,1,.656-2.625,11.71,11.71,0,0,1,1.156-2.4,8.409,8.409,0,0,1,1.719-1.969,7.879,7.879,0,0,1,2.328-1.336A8.475,8.475,0,0,1,205.984-21.375Zm20.453.281a8.059,8.059,0,0,1,2.828.445,5.392,5.392,0,0,1,1.953,1.211,4.821,4.821,0,0,1,1.133,1.766,6.116,6.116,0,0,1,.367,2.125,5.768,5.768,0,0,1-.43,2.227,5.29,5.29,0,0,1-1.234,1.813,5.862,5.862,0,0,1-1.977,1.227,7.275,7.275,0,0,1-2.641.453h-4.062v8.672h2.563V0h-7.812V-1.156h2.563V-19.937h-2.562v-1.156Zm-4.062,10.047h3.688a3.218,3.218,0,0,0,1.445-.328,3.556,3.556,0,0,0,1.156-.914,4.248,4.248,0,0,0,.766-1.406,5.627,5.627,0,0,0,.273-1.789,6.052,6.052,0,0,0-.258-1.82,4.2,4.2,0,0,0-.734-1.406,3.289,3.289,0,0,0-1.148-.906,3.442,3.442,0,0,0-1.5-.32h-3.687Zm15.453-8.891h-2.812v-1.156H250.8v5.641h-1.156l-1.719-4.484h-7.406v8.094h5.156v-2.3h1.469V-8.25h-1.469v-2.312h-5.156v9.406H248.2l1.7-4.469h1.141V0H235.016V-1.156h2.813Zm22.766,10.11h-2.437v8.672h2.531V0h-7.781V-1.156h2.531V-19.937h-2.531v-1.156h9.281a8.11,8.11,0,0,1,2.844.445,5.392,5.392,0,0,1,1.953,1.211,4.736,4.736,0,0,1,1.125,1.766,6.234,6.234,0,0,1,.359,2.125,5.968,5.968,0,0,1-.344,2.055,5.159,5.159,0,0,1-.977,1.664,5.19,5.19,0,0,1-1.547,1.188,6.94,6.94,0,0,1-2.039.656l5.766,8.828H271.8V0h-5Zm-2.437-1.219h3.688a3.184,3.184,0,0,0,1.43-.328,3.555,3.555,0,0,0,1.156-.914A4.358,4.358,0,0,0,265.2-13.7a5.484,5.484,0,0,0,.281-1.789,5.887,5.887,0,0,0-.266-1.82,4.3,4.3,0,0,0-.742-1.406,3.289,3.289,0,0,0-1.148-.906,3.4,3.4,0,0,0-1.484-.32h-3.687ZM304.2-21.094h6.656v1.156h-2.625L302.281,0h-1.469l-5.406-16.359L290.516,0h-1.484L282.8-19.937h-2.562v-1.156h8.3v1.156h-2.859L290.492-4.39l4.891-16.562h1.344L302.29-4.389l4.578-15.547H304.2Zm23.656,12A22.741,22.741,0,0,0,327.7-11.8a18.622,18.622,0,0,0-.5-2.617,14.208,14.208,0,0,0-.844-2.336,7.99,7.99,0,0,0-1.2-1.883,5.374,5.374,0,0,0-1.586-1.258,4.252,4.252,0,0,0-1.984-.461,5.912,5.912,0,0,0-2.922.664,5.239,5.239,0,0,0-1.906,1.8,7.948,7.948,0,0,0-1.031,2.641,15.6,15.6,0,0,0-.312,3.188,21.323,21.323,0,0,0,.141,2.688,19.171,19.171,0,0,0,.484,2.625,14.345,14.345,0,0,0,.836,2.375,8.476,8.476,0,0,0,1.2,1.93,5.336,5.336,0,0,0,1.578,1.3,4.106,4.106,0,0,0,1.969.477,6.051,6.051,0,0,0,2.945-.656,5.283,5.283,0,0,0,1.93-1.8,7.861,7.861,0,0,0,1.055-2.68,16.128,16.128,0,0,0,.306-3.291Zm-6.25-12.281a9.76,9.76,0,0,1,2.977.422,8.112,8.112,0,0,1,2.328,1.156,7.757,7.757,0,0,1,1.727,1.727,10.1,10.1,0,0,1,1.18,2.125,11.36,11.36,0,0,1,.672,2.352,14.177,14.177,0,0,1,.211,2.422,16.325,16.325,0,0,1-.219,2.625,14.726,14.726,0,0,1-.68,2.625A12.147,12.147,0,0,1,328.617-3.5a8.881,8.881,0,0,1-1.734,2,7.847,7.847,0,0,1-2.32,1.359,8.244,8.244,0,0,1-2.953.5,9.838,9.838,0,0,1-3.031-.43,8.008,8.008,0,0,1-2.328-1.172,7.61,7.61,0,0,1-1.7-1.742,9.824,9.824,0,0,1-1.141-2.141,12.121,12.121,0,0,1-.641-2.367,14.854,14.854,0,0,1-.2-2.43,17.066,17.066,0,0,1,.211-2.633,14.89,14.89,0,0,1,.656-2.625,11.709,11.709,0,0,1,1.156-2.4,8.41,8.41,0,0,1,1.719-1.969,7.878,7.878,0,0,1,2.328-1.336,8.475,8.475,0,0,1,2.97-.489ZM340.438-9.828H338v8.672h2.531V0H332.75V-1.156h2.531V-19.937H332.75v-1.156h9.281a8.11,8.11,0,0,1,2.844.445,5.392,5.392,0,0,1,1.953,1.211,4.736,4.736,0,0,1,1.125,1.766,6.235,6.235,0,0,1,.359,2.125,5.969,5.969,0,0,1-.344,2.055,5.159,5.159,0,0,1-.977,1.664,5.19,5.19,0,0,1-1.547,1.188,6.941,6.941,0,0,1-2.039.656l5.766,8.828h2.469V0h-5ZM338-11.047h3.688a3.184,3.184,0,0,0,1.43-.328,3.555,3.555,0,0,0,1.156-.914,4.357,4.357,0,0,0,.773-1.406,5.484,5.484,0,0,0,.281-1.789,5.887,5.887,0,0,0-.266-1.82,4.3,4.3,0,0,0-.742-1.406,3.289,3.289,0,0,0-1.148-.906,3.4,3.4,0,0,0-1.484-.32H338Zm34.844,9.891V0H364.36V-1.156h2.406L358.7-10.344h-.8v9.188h2.531V0h-7.594V-1.156h2.344V-19.937h-2.344v-1.156h7.594v1.156H357.9v8.3h.484l8.594-8.3h-2.359v-1.156h6.906v1.156h-2.687l-8.031,7.844,9.672,10.938ZM375.859-5.7a9.417,9.417,0,0,0,.531,2.352,4.639,4.639,0,0,0,.938,1.547,3.3,3.3,0,0,0,1.289.844,4.81,4.81,0,0,0,1.617.258,5.073,5.073,0,0,0,1.742-.281,3.678,3.678,0,0,0,1.3-.789,3.384,3.384,0,0,0,.813-1.219,4.279,4.279,0,0,0,.281-1.586,3.39,3.39,0,0,0-.422-1.719,4.25,4.25,0,0,0-1.219-1.312q-.313-.219-.828-.562t-1.141-.742l-1.289-.828q-.664-.428-1.25-.8t-1.047-.664q-.461-.289-.68-.43a8.587,8.587,0,0,1-.977-.758,4.427,4.427,0,0,1-.8-.969,5.017,5.017,0,0,1-.547-1.258,5.872,5.872,0,0,1-.2-1.625,4.672,4.672,0,0,1,.445-2.031,4.775,4.775,0,0,1,1.266-1.625,6.034,6.034,0,0,1,1.992-1.078,8.272,8.272,0,0,1,2.625-.391,11.343,11.343,0,0,1,1.852.148,10.324,10.324,0,0,1,1.672.414,7.27,7.27,0,0,1,1.406.648,5.064,5.064,0,0,1,1.086.867v3.875h-1.937a10.726,10.726,0,0,0-.469-2.422,4.276,4.276,0,0,0-.844-1.516,2.727,2.727,0,0,0-1.227-.781,5.438,5.438,0,0,0-1.6-.219,4.481,4.481,0,0,0-1.75.3,3.308,3.308,0,0,0-1.18.813,3.048,3.048,0,0,0-.664,1.172,4.648,4.648,0,0,0-.2,1.367,3.378,3.378,0,0,0,.359,1.5,2.825,2.825,0,0,0,1.109,1.188q.188.125.672.43t1.109.711q.625.406,1.328.852t1.328.852l1.109.719q.484.312.688.438a6.329,6.329,0,0,1,2.117,2.039,5.227,5.227,0,0,1,.7,2.758,5.232,5.232,0,0,1-.461,2.188,5.1,5.1,0,0,1-1.328,1.766,6.456,6.456,0,0,1-2.117,1.188,8.478,8.478,0,0,1-2.812.438A11.806,11.806,0,0,1,378.1.18a9.856,9.856,0,0,1-1.764-.48,7,7,0,0,1-1.383-.7,4.873,4.873,0,0,1-.984-.852V-5.7Zm23.859-14.234h-2.812V-21.09h15.781v5.641h-1.156l-1.719-4.484h-7.406v8.094h5.156v-2.3h1.469V-8.25h-1.469v-2.312h-5.156v9.406h7.688l1.7-4.469h1.141V0H396.906V-1.156h2.813Zm15.72,18.465a1.928,1.928,0,0,1,.148-.758,1.893,1.893,0,0,1,.406-.609,1.893,1.893,0,0,1,.609-.406,1.928,1.928,0,0,1,.758-.148,1.928,1.928,0,0,1,.758.148,1.893,1.893,0,0,1,.609.406,1.892,1.892,0,0,1,.406.609,1.928,1.928,0,0,1,.148.758,1.928,1.928,0,0,1-.148.758,1.892,1.892,0,0,1-.406.609,1.893,1.893,0,0,1-.609.406,1.928,1.928,0,0,1-.758.148A1.928,1.928,0,0,1,416.6.3a1.893,1.893,0,0,1-.609-.406,1.893,1.893,0,0,1-.406-.609,1.929,1.929,0,0,1-.147-.754Z" transform="translate(930 4141.935)"/>
      </g>
    </g>
  </g>
</svg>
