<svg xmlns="http://www.w3.org/2000/svg" width="612" height="150" viewBox="0 0 612 150">
  <g id="sec06-tit03-sp" transform="translate(-929 -3815)">
    <rect id="長方形_258" data-name="長方形 258" width="612" height="150" transform="translate(929 3815)" fill="none"/>
    <g id="グループ_907" data-name="グループ 907" transform="translate(-0.46)">
      <path id="パス_159" data-name="パス 159" d="M13.46-13.76a12.308,12.308,0,0,0,1.14-1.82c.4-.06.58-.18.58-.38a.315.315,0,0,0-.24-.28l-1.68-.5c-.24,1.08-.44,1.8-.8,2.98H8.5c.44-.62.7-1.04,1.12-1.74.42-.06.64-.2.64-.44,0-.14-.12-.26-.36-.34L8.3-16.8a22.619,22.619,0,0,1-3.44,6.2l.36.42a15.5,15.5,0,0,0,2.16-2.1V-2.4h10.9l.8.16V-3.36l-.8.16h-4.2V-6h3.3l.8.16V-6.96l-.8.16h-3.3V-9.5h3.3l.8.16v-1.12l-.8.16h-3.3v-2.66h3.84l.8.16v-1.12l-.8.16ZM12.58-6v2.8H8.94V-6Zm0-.8H8.94V-9.5h3.64Zm0-3.5H8.94v-2.66h3.64ZM4.64-1.28A5.19,5.19,0,0,0,8.96.9c1.2.08,4.12.14,7.12.14.5,0,1.48,0,2.64-.02a10.061,10.061,0,0,1,.46-1.64c-1.18.04-4.96.1-6.72.1L10.04-.54A11.909,11.909,0,0,1,7.08-.8,3.669,3.669,0,0,1,5.22-1.84V-9.2H1.72l-.8-.16v1.12l.8-.16h1.9v6.7A20.975,20.975,0,0,1,.8-.64l.64,1.76a.338.338,0,0,0,.3.2c.18,0,.34-.24.42-.66A16.966,16.966,0,0,0,4.6-1.24Zm1.3-13.4a9.34,9.34,0,0,0-3.96-1.46l-.24.5a13.869,13.869,0,0,1,3.12,2.78Zm26.88-1.2c.24-.18.32-.26.32-.4,0-.18-.14-.26-.44-.26H31.08v15.5C31.12.46,31.82.88,34.3.88h3.64c1.4,0,1.96-.54,2.08-2l.22-2.6-.92-.12-.18,2.06c-.08.8-.36,1.04-1.2,1.06H34.66c-1.46,0-1.86-.24-1.84-1.14V-8.1l.22-.1a24.448,24.448,0,0,0,5.88-3.4,2.107,2.107,0,0,0,.36.06.416.416,0,0,0,.42-.36.479.479,0,0,0-.2-.32L37.94-13.5a22.1,22.1,0,0,1-5.12,4.66ZM25.04,1.48H26.7V-11.86c.56-1.12,1.06-2.22,1.62-3.64q.48-.09.48-.42c0-.14-.14-.28-.34-.34L26.6-16.8A37.724,37.724,0,0,1,21.84-6l.46.38A19.833,19.833,0,0,0,25.04-9ZM52.8-2.7h1.64V-6.1c1.36-.42,2.68-.76,5.3-1.36a2.373,2.373,0,0,0,.6.1.358.358,0,0,0,.4-.36.883.883,0,0,0-.14-.38l-.72-1.2-.84.38c-.94.28-1.62.48-1.92.58l-2.64.88-.06.02A2.948,2.948,0,0,0,53.8-9.4a2.912,2.912,0,0,0-2.06-.76,6.546,6.546,0,0,0-3.5,1.02c.74-1.1,1.2-1.82,2.22-3.58h1.06c2.6-.02,3.9-.08,6.42-.3l.2-1.46-1.52.6c-2.44.18-2.92.2-5.58.24h-.08l.92-1.64c.54-.18.64-.26.64-.46,0-.16-.14-.28-.42-.38l-1.58-.54-.28.88c-.58,1.16-.82,1.66-1.1,2.16-1.12-.02-1.94-.04-3.6-.1l-1.24-.5.1,1.38c2.04.08,2.5.1,4.24.12a52.494,52.494,0,0,1-4.66,6.6l1.26,1.1L47-7.32a6.476,6.476,0,0,1,4.28-1.86,1.179,1.179,0,0,1,1.34.96,5.326,5.326,0,0,1,.18,1.4,21.962,21.962,0,0,0-2.56,1.14c-2.08,1.12-3,2.2-3,3.56A2.5,2.5,0,0,0,48.6.1c1.14.58,2.8.84,5.48.84A34.286,34.286,0,0,0,58.42.7V-1.1a24.454,24.454,0,0,1-4.64.44,11.121,11.121,0,0,1-4.46-.64,1.244,1.244,0,0,1-.68-1.1c0-1.12,1.24-2.06,4.16-3.14ZM81.08-13.28l.8.16v-1.12l-.8.16H77.44a9.42,9.42,0,0,0,1.84-1.64c.4-.06.58-.18.58-.4,0-.14-.12-.24-.28-.3L77.9-16.8a12.423,12.423,0,0,1-1.36,2.66l-.04.06H70.16l-.8-.16v1.12l.8-.16h4.16a18.8,18.8,0,0,1-5.46,3.64l.2.5a17.751,17.751,0,0,0,5.1-2.34c.34.44.52.7.68.94a19.831,19.831,0,0,1-5.68,3.9l.22.5a15.679,15.679,0,0,0,6.04-3.24,7.03,7.03,0,0,1,.34,1.32,20.637,20.637,0,0,1-6.9,5.2l.22.52a16.629,16.629,0,0,0,6.86-4.02,1.525,1.525,0,0,0-.02.34c-.14,3.18-.42,3.84-1.64,3.8h-1.6v.84h1.84c1.28,0,1.98-.26,2.32-.88a8.265,8.265,0,0,0,.54-3.28,10.816,10.816,0,0,0-.1-1.58,19.787,19.787,0,0,1,3.68,4.44L82.1-4.14a14.111,14.111,0,0,0-4.9-3.5c-.08-.34-.14-.52-.2-.72a12.7,12.7,0,0,0,3.72-2.34c.44-.02.64-.14.64-.36,0-.12-.1-.24-.26-.34l-1.32-.8a20.068,20.068,0,0,1-2.9,3.24l-.06.06a6.932,6.932,0,0,0-2.14-2.96,15.77,15.77,0,0,0,1.64-1.42ZM68.12-9.2h-3.3l-.8-.16v1.12l.8-.16h1.72v6.72l-.42.18a14.357,14.357,0,0,1-2.2.86l.62,1.74a.373.373,0,0,0,.3.22c.2,0,.36-.22.46-.66a18.4,18.4,0,0,0,2.24-1.94A4.747,4.747,0,0,0,70.38.64c1.06.28,3.36.4,7.86.4.82,0,2.04-.02,3.6-.04a12.859,12.859,0,0,1,.48-1.58c-1.64.1-4.62.16-7.08.16-3.26,0-4.76-.12-5.62-.42a3.94,3.94,0,0,1-1.5-.94Zm.78-5.5A9.4,9.4,0,0,0,65-16.14l-.24.5a12.772,12.772,0,0,1,3.02,2.68Zm2.24-1.76a11.815,11.815,0,0,1,1.34,2.3l1.58-.94a6.2,6.2,0,0,0-2.5-1.64ZM99.3-10.6a28.348,28.348,0,0,0,3.26-.38l.12-1.28-1.22.46c-.8.12-1.4.18-2.16.24v-2.98c.28-.18.4-.32.4-.5s-.16-.32-.4-.34l-1.9-.14.16,1.18v2.9c-.62.02-1.98.04-2.78.04-1.18,0-1.8-.02-3.12-.08l-.92-.36.12,1.26c.9.08,1.62.1,2.92.1s3.2-.02,3.78-.04v3.38c-.02,3.34-.6,4.96-2.26,6.4A7.846,7.846,0,0,1,91.98.9l.14.6A9.051,9.051,0,0,0,96.1.24c2.44-1.58,3.22-3.34,3.2-7.3Zm4.26-4.44A3.811,3.811,0,0,0,101.3-17l-.26.26a8.159,8.159,0,0,1,1.36,2.42ZM88.78-.64a28.556,28.556,0,0,1-.7-6.98,45.64,45.64,0,0,1,.5-6.82c.28-.16.38-.28.38-.46,0-.22-.16-.34-.5-.38l-1.72-.22.08,1.16a61.459,61.459,0,0,0-.48,6.96,33.378,33.378,0,0,0,.7,7.06ZM99.3-16.42a8.478,8.478,0,0,1,1.1,2.6l1.26-.64a4.186,4.186,0,0,0-2.08-2.18Zm11.68,4.18A59.719,59.719,0,0,1,106.82.24l1.78.52a69.383,69.383,0,0,0,4.12-13.04,47.694,47.694,0,0,0,6.68-.5l.08-1.38-1.38.6c-1.78.2-2.52.28-4.2.34-.08,0-.5.02-.98.04v-.04l.06-.3c.08-.4.16-.78.38-1.84.24-.16.36-.3.36-.48a.381.381,0,0,0-.34-.34l-1.76-.36-.04,1.26c-.18.96-.22,1.24-.42,2.16H107.9l-1.26-.42.12,1.34h1.3c.7,0,.96,0,2.18-.02Zm3.72,6.9a5.636,5.636,0,0,0-.68,2.64c0,2.34,1.92,3.38,6.22,3.38a21.183,21.183,0,0,0,3.38-.24V-1.5a14.727,14.727,0,0,1-3.82.46,8.074,8.074,0,0,1-3.82-.7,1.754,1.754,0,0,1-.94-1.64,6.109,6.109,0,0,1,.3-1.78Zm8.12-4.94a12.934,12.934,0,0,0-2.12-.16,12.582,12.582,0,0,0-3.98.62,5.928,5.928,0,0,0-1.42.66l.16.58a20.065,20.065,0,0,1,3.7-.32,13.055,13.055,0,0,1,3.66.42ZM126.9-.72h1.6V-12.24h-1.6v-.72h3.42l4.4,10.02,4.24-10.02h3.34v.72h-1.6V-.72h1.6V0h-4.9V-.72H139v-10.1L134.72-.74h-.92L129.36-10.9V-.72h1.54V0h-4Zm23.38,0V0h-5.62V-.72h1.96V-12.24h-1.88v-.72h5.46v.72h-1.88V-.72Zm2.36,0h1.6V-12.24h-1.6v-.72h3.26l6.02,9.72v-9h-1.6v-.72h4.06v.72h-1.6V0h-.92L155.1-11.02V-.72h1.6V0h-4.06Zm19.52,0V0h-5.62V-.72h1.96V-12.24h-1.88v-.72h5.46v.72H170.2V-.72ZM184.08.36a11.539,11.539,0,0,0,5.5-2,7.076,7.076,0,0,0,2.88-5.86c0-4.4-3.26-7.3-8.24-7.3a9.185,9.185,0,0,0-6,1.98,8.189,8.189,0,0,0-2.94,6.38c0,3,1.38,5.18,3.26,5.18a3.483,3.483,0,0,0,2.52-1.38,12.263,12.263,0,0,0,2.22-3.86,32.55,32.55,0,0,0,1.7-7.26,5.391,5.391,0,0,1,3.08,1.02,6.124,6.124,0,0,1,2.46,5.1,6.977,6.977,0,0,1-3.42,6.06,11.692,11.692,0,0,1-3.18,1.32Zm-.86-14.16a37.631,37.631,0,0,1-.92,4.88c-1,3.8-2.56,6.62-3.68,6.62-.94,0-1.7-1.78-1.7-4.06a7.857,7.857,0,0,1,1.94-5.24A6.327,6.327,0,0,1,183.22-13.8ZM199.52.24a6.178,6.178,0,0,1-2.29-.4,3.624,3.624,0,0,1-1.49-.98V-3.5h1.08a3.976,3.976,0,0,0,.9,2.39,2.508,2.508,0,0,0,1.84.69,2.632,2.632,0,0,0,1.91-.65,2.326,2.326,0,0,0,.67-1.75,2.236,2.236,0,0,0-1.1-2l-3.56-2.3a4.273,4.273,0,0,1-1.27-1.18,2.845,2.845,0,0,1-.45-1.64,2.951,2.951,0,0,1,1.05-2.37,4.33,4.33,0,0,1,2.89-.89,5.825,5.825,0,0,1,2.05.34,3.841,3.841,0,0,1,1.49.96v2.42h-1.08a4.272,4.272,0,0,0-.76-2.41,2.164,2.164,0,0,0-1.7-.67,2.336,2.336,0,0,0-1.83.64,2.236,2.236,0,0,0-.57,1.54,1.9,1.9,0,0,0,.92,1.72l3.5,2.24a5.053,5.053,0,0,1,1.57,1.43,3.017,3.017,0,0,1,.47,1.67,3.413,3.413,0,0,1-.5,1.83,3.386,3.386,0,0,1-1.45,1.27A5.215,5.215,0,0,1,199.52.24Zm12.46,0A4.429,4.429,0,0,1,208.8-.88a4.229,4.229,0,0,1-1.18-3.22v-8.14h-1.6v-.72h4.9v.72h-1.6V-3.9a3.235,3.235,0,0,0,.83,2.46,3.068,3.068,0,0,0,2.19.78,3.19,3.19,0,0,0,2.23-.79,3.124,3.124,0,0,0,.87-2.43v-8.36h-1.58v-.72h4.02v.72H216.3V-3.8a3.827,3.827,0,0,1-1.18,2.94A4.42,4.42,0,0,1,211.98.24Zm20.26-12.48h-1.5L226.44,0h-.92l-4.38-12.24h-1.6v-.72h4.98v.72h-1.6l3.5,9.82,3.5-9.82h-1.6v-.72h3.92ZM232.86.22a1.157,1.157,0,0,1-.85-.35,1.157,1.157,0,0,1-.35-.85,1.157,1.157,0,0,1,.35-.85,1.157,1.157,0,0,1,.85-.35,1.157,1.157,0,0,1,.85.35,1.157,1.157,0,0,1,.35.85,1.157,1.157,0,0,1-.35.85A1.157,1.157,0,0,1,232.86.22Zm13.7-1.96h6.64V-7.36H238.76V-.38h1.5V-1.74h4.82V-.18c.04.96.52,1.28,1.98,1.32h6.26c1.08,0,1.52-.38,1.68-1.46l.18-1.48-.78-.08-.16,1c-.1.54-.32.7-.98.72H247.3c-.66-.04-.76-.1-.74-.6Zm0-4.82h5.1V-5h-5.1Zm0,2.36h5.1v1.66h-5.1Zm-1.48,1.66h-4.82V-4.2h4.82Zm0-2.46h-4.82V-6.56h4.82Zm0-8v4.82h1.48V-13h6.64a18.839,18.839,0,0,1-.98,2.76l.52.24a7.519,7.519,0,0,0,2.44-3.8h-8.62v-1.38h6.2l.8.16v-1.12l-.8.16H239.48l-.78-.16v1.12l.78-.16h5.6v1.38h-5.94v-.06l-.02-.52h-.68a5.484,5.484,0,0,1-1.64,3.36l1.24,1.4a5.353,5.353,0,0,0,1.1-3.38ZM239.7-8.76h4.38v-.8H239.7Zm0-2.12h4.38v-.8H239.7Zm7.86,2.12h4.46v-.8h-4.46Zm0-2.12H252v-.8h-4.44ZM264.4-3.6A26.874,26.874,0,0,1,258.24.74l.26.5a21.885,21.885,0,0,0,7.12-4.02,30.913,30.913,0,0,1,3.96,3.2l1.14-1.62a40.593,40.593,0,0,0-3.92-2.66c.78-.76,1.2-1.22,2.26-2.44h.1c.32,0,.64-.2.64-.4,0-.1-.12-.22-.26-.3l-1.52-.74a18.172,18.172,0,0,1-2.56,3.12,31.721,31.721,0,0,0-5.44-2.22l-.28.52a28.411,28.411,0,0,1,3.78,2.18Zm-2.16-10.62h12.34l.8.16v-1.12l-.8.16h-11.8l.04-.04.06-.1c.16-.22.3-.46.46-.7.4-.04.62-.18.62-.38,0-.12-.14-.24-.28-.26l-1.82-.3a20.1,20.1,0,0,1-4.02,5.94l.34.42a13.112,13.112,0,0,0,4.02-3.72ZM273.16-9.3H259.9l-.78-.16v1.12l.78-.16h11.6c.04,3.58.56,6.84,1.38,8.5.48.96,1.1,1.48,1.76,1.48.58,0,.98-.46,1.18-1.3a15.458,15.458,0,0,0,.4-3.1l-.72-.14a14.639,14.639,0,0,1-.42,2.6c-.04.2-.16.34-.26.34-.14,0-.28-.18-.5-.7a21.158,21.158,0,0,1-1.16-7.62Zm-10.98-2.2H272.7l.8.16v-1.12l-.8.16H262.18l-.78-.16v1.12Zm18.7-2.82V1.48h1.72V.18h10.98V1.34h1.72V-14.32h-8.08a7.877,7.877,0,0,0,1.26-1.48c.42-.1.6-.24.6-.46,0-.16-.2-.28-.5-.32l-1.92-.22a16,16,0,0,1-.62,2.48Zm1.72,4.38v-3.58h10.98v3.58Zm0,.8h10.98V-5.5H282.6Zm0,4.44h10.98V-.62H282.6Zm23.34-.66h3.72v-5.66h-3.72V-12.5h3.48l.8.16v-1.12l-.8.16h-3.48v-1.74a25.99,25.99,0,0,0,2.68-.4,2.624,2.624,0,0,0,.62.1c.22,0,.38-.12.38-.3,0-.12-.04-.18-.26-.34l-1.02-.82a46.559,46.559,0,0,1-8.06,1.54l.08.6c1.5-.04,2.74-.1,4.26-.24v1.6h-3.88l-.8-.16v1.12l.8-.16h3.88v1.48h-3.7v5.66h3.7v1.52H301.5L300.7-4v1.12l.8-.16h3.12v1.86c-2.14.14-3.72.24-4.7.28l.54,1.44c.08.2.22.36.36.36.16,0,.26-.12.38-.44A55.484,55.484,0,0,0,310-1.08l-.1-.56c-1.32.16-1.34.16-2.72.26-.26.02-.62.06-1.24.1V-3.04h3.1l.8.16V-4l-.8.16h-3.1Zm-1.32-.74H302.3V-7.88h2.32Zm1.32,0V-7.88h2.34V-6.1Zm-1.32-2.52H302.3v-1.66h2.32Zm1.32,0v-1.66h2.34v1.66Zm5.22-3.46-.78-.16v1.12l.78-.16h1.14C312.06-4.16,311.06-1,308.46,1.1l.36.5a8.181,8.181,0,0,0,3.94-4.92,28.915,28.915,0,0,0,1.08-7.96h2.18c-.08,3.08-.44,9.1-.64,10.28-.16,1.24-.32,1.48-1.1,1.5h-1.56v.84h2.3a1.582,1.582,0,0,0,1.86-1.58c.24-1.2.54-5.9.74-11.84h-3.74c.04-.92.06-1.92.06-3.06v-.76c.26-.18.32-.26.32-.4,0-.18-.14-.26-.42-.26h-1.46v1.42c0,1.48-.02,2.46-.04,3.06Zm19.68,7.5h6.26V-12.1h-6.26v-1.8h7.02l.78.16v-1.12l-.78.16h-7.02v-1.44c.26-.18.32-.26.32-.38,0-.2-.14-.28-.42-.28H329.2v2.1h-6.74l-.78-.16v1.12l.78-.16h6.74v1.8h-5.98v7.52h5.98v1.92h-7.44l-.8-.16V-1.7l.8-.16h7.44V1.6h1.64V-1.86h7.72l.8.16V-2.82l-.8.16h-7.72Zm0-3.44h4.62v2.64h-4.62Zm-1.64,0v2.64h-4.34V-8.02Zm1.64-3.28h4.62v2.48h-4.62Zm-1.64,0v2.48h-4.34V-11.3Zm20.82-4.24c.24-.2.32-.34.32-.5a.374.374,0,0,0-.38-.34h-1.98l.34,1.2,1.26,6.08a18.048,18.048,0,0,0-2.48,1.48c-1.96,1.4-2.8,2.66-2.8,4.18a3.571,3.571,0,0,0,2.4,3.4,14.77,14.77,0,0,0,5.58.74,38.1,38.1,0,0,0,5.68-.34V-1.58a30.144,30.144,0,0,1-5.86.54c-4.52,0-6.44-.74-6.44-2.52,0-2.38,3.62-4.54,11.54-6.92a1.108,1.108,0,0,0,.54.18.364.364,0,0,0,.34-.32.692.692,0,0,0-.06-.24l-.7-1.62-.7.52c-1.56.6-3.06,1.16-4.48,1.72-.4.16-.68.26-.98.4ZM370.9-4.4c-.46,1.82-1.08,3.04-1.56,3.04-.46,0-1.18-.94-1.74-2.22-.74-1.76-1.12-4.58-1.12-8.56v-1.28c.34-.24.44-.36.44-.56s-.2-.34-.5-.36l-1.8-.12.1,1.2c.02,2.58.04,3.96.04,4.14a18.829,18.829,0,0,0,1.2,6.3c.86,2.08,1.94,3.18,3.08,3.18,1.12,0,2.1-1.6,2.74-4.48Zm10.32.16c-.66-3.88-2.64-7.48-5.12-9.34l-.5.38a24.36,24.36,0,0,1,3.7,9.82Zm8.72,5.8c3.18-.28,6.2-1.46,7.84-3.06A7.412,7.412,0,0,0,399.92-7c0-3.26-1.78-4.84-5.42-4.84a26.533,26.533,0,0,0-7.26,1.28l-1.06.1.28,1.56c.06.28.2.44.38.44.2,0,.34-.14.52-.5a18.991,18.991,0,0,1,7.2-1.84,3.863,3.863,0,0,1,2.4.76,3.828,3.828,0,0,1,.96,2.82,7.5,7.5,0,0,1-.98,3.78A7.341,7.341,0,0,1,394.4-.9,14.6,14.6,0,0,1,389.84.94Zm7.3-16.72a11.361,11.361,0,0,0-5.74-1.14h-.56l-1.1.02h-.56l-.06.68a16.168,16.168,0,0,1,6.66,2.04ZM411.08.16a12.025,12.025,0,0,0-5.58-3.82l-.38.48a17.85,17.85,0,0,1,4.32,4.78ZM4.44,29.96A17.688,17.688,0,0,1,.8,35.5l.28.44a14.387,14.387,0,0,0,3.86-3.88L4.98,32v5.48H6.54V31.84a15.607,15.607,0,0,1,2.08,2.7l1.04-1.4a9.378,9.378,0,0,0-2.64-1.62c-.4-.16-.4-.18-.48-.2V29.96h2.9l.8.16V29l-.8.16H6.54V26.72H9.76l.78.16V25.76l-.78.16H7.24A25.616,25.616,0,0,0,8.76,22.4H9.5l.8.16V21.44l-.8.16H6.56V19.98c.26-.18.32-.26.32-.4,0-.18-.14-.26-.42-.26H4.92V21.6H1.88l-.8-.16v1.12l.8-.16h.64l.02.06a21.371,21.371,0,0,1,.66,3.06l.04.2.04.2H1.58L.8,25.76v1.12l.78-.16h3.4v2.44H1.88L1.08,29v1.12l.8-.16ZM7.16,22.4a32.8,32.8,0,0,1-.58,3.46l-.02.06H3.58l1.26-.8a11.494,11.494,0,0,0-1.66-2.66l-.04-.06Zm5.66-1.48-1.58-.58V22.8a60.362,60.362,0,0,1-.32,8.9,9.681,9.681,0,0,1-2.46,5.38l.34.42a8.027,8.027,0,0,0,3.52-5.08,23.681,23.681,0,0,0,.48-5.6h2.62V37.48h1.6V26.82H18.4l.8.16V25.86l-.8.16H12.82V21.58a23.855,23.855,0,0,0,4.94-.62,2.075,2.075,0,0,0,.46.06c.16,0,.34-.12.34-.26a.365.365,0,0,0-.12-.2l-1.16-1.2a22.825,22.825,0,0,1-4.4,1.54Zm14,2.84a59.719,59.719,0,0,1-4.16,12.48l1.78.52a69.383,69.383,0,0,0,4.12-13.04,47.694,47.694,0,0,0,6.68-.5l.08-1.38-1.38.6c-1.78.2-2.52.28-4.2.34-.08,0-.5.02-.98.04v-.04l.06-.3c.08-.4.16-.78.38-1.84.24-.16.36-.3.36-.48a.381.381,0,0,0-.34-.34l-1.76-.36-.04,1.26c-.18.96-.22,1.24-.42,2.16H23.74l-1.26-.42.12,1.34h1.3c.7,0,.96,0,2.18-.02Zm3.72,6.9a5.636,5.636,0,0,0-.68,2.64c0,2.34,1.92,3.38,6.22,3.38a21.183,21.183,0,0,0,3.38-.24V34.5a14.727,14.727,0,0,1-3.82.46,8.074,8.074,0,0,1-3.82-.7,1.754,1.754,0,0,1-.94-1.64,6.109,6.109,0,0,1,.3-1.78Zm8.12-4.94a12.934,12.934,0,0,0-2.12-.16,12.582,12.582,0,0,0-3.98.62,5.928,5.928,0,0,0-1.42.66l.16.58A20.065,20.065,0,0,1,35,27.1a13.056,13.056,0,0,1,3.66.42Zm9.4-3.64c-1.7,0-2.4-.04-3.48-.1l-1.08-.46.1,1.36c1.44.1,2.14.12,3.38.12h.78a44.192,44.192,0,0,1-4.54,9.82l1.52.98a53.132,53.132,0,0,0,4.82-10.86c1.52-.06,3.18-.2,4.84-.42l.06-1.42-1.24.62c-1.42.16-2.24.24-3.34.3a2.379,2.379,0,0,1,.08-.28c.06-.18.24-.72.42-1.3.3-.2.36-.3.36-.44a.323.323,0,0,0-.28-.32l-1.76-.34-.16,1.02c-.1.4-.18.7-.22.84l-.24.82ZM60.82,33.94a12.213,12.213,0,0,0-4.88-2.66V27.54c.32-.22.4-.3.4-.44,0-.2-.18-.32-.48-.32l-1.58-.02.06,1.48v2.72a10.78,10.78,0,0,0-1.76-.14c-2.6,0-4.16,1.12-4.16,3,0,1.9,1.86,3.28,4.42,3.28a3.04,3.04,0,0,0,2.82-1.2,3.033,3.033,0,0,0,.28-1.5V32.74a13.214,13.214,0,0,1,3.7,2.7Zm-6.48.38c0,.96-.56,1.42-1.74,1.42-1.84,0-3.2-.86-3.2-2.04a1.371,1.371,0,0,1,.36-.92,3.444,3.444,0,0,1,2.5-.74,7.347,7.347,0,0,1,2.08.28Zm6.72-9.88a9.912,9.912,0,0,0-3.92-.64,10.034,10.034,0,0,0-3.52.52l.04.56a14.914,14.914,0,0,1,6.28,1.2ZM66.2,28.1v9.38h1.66v-.96h10.5v.8h1.66V28.1Zm1.66.8h10.5v1.68H67.86Zm0,6.82V33.9h10.5v1.82Zm0-2.62V31.38h10.5V33.1Zm-2.72-6.86H81.08v-6.3H65.14Zm14.3-.8H66.78v-2H79.44Zm0-2.8H66.78v-1.9H79.44ZM96.2,25.4v1.88H92.06v4.68h3.78c-.56,2.3-2.58,4.18-5.44,5.06l.16.58c3.7-.74,6.08-2.52,6.68-5a8.556,8.556,0,0,0,5.24,4.9,8.832,8.832,0,0,1,.88-1.6,9.507,9.507,0,0,1-5.74-3.94h4.4V27.28H97.66V25.4h2.06l.8.16V24.6a13.382,13.382,0,0,0,2.02,1.22,7.569,7.569,0,0,1,.82-1.6,13.509,13.509,0,0,1-5.94-4.04c.38-.16.5-.26.5-.4a.344.344,0,0,0-.32-.28l-1.48-.3a19.327,19.327,0,0,1-5.5,6.42l.34.48a14.4,14.4,0,0,0,2.62-1.56v1.02l.78-.16Zm1.46,2.62h2.86v3.2H97.48a24.838,24.838,0,0,0,.18-3.14Zm-1.46,0a26.146,26.146,0,0,1-.22,3.2H93.5v-3.2Zm.88-7.34a12.96,12.96,0,0,0,3.28,3.8l-.64.12H94.36l-.68-.14a14.367,14.367,0,0,0,3.38-3.72Zm-11.2-.72V37.48h1.54V20.76h2.34a41.465,41.465,0,0,1-1.52,5.26,13.414,13.414,0,0,1,1,2.08,8.51,8.51,0,0,1,.38,2.3,4.329,4.329,0,0,1-.28,1.68,1.309,1.309,0,0,1-1.18.52h-.38v.84h.44c1.44,0,2.14-.3,2.56-1.04a4.383,4.383,0,0,0,.42-1.92A5.664,5.664,0,0,0,90.6,28a8.782,8.782,0,0,0-1.52-2.06,22.041,22.041,0,0,0,2.64-5.98ZM106.4,25.2l.32,1.24c.08.24.18.36.34.36s.28-.1.4-.4a27.316,27.316,0,0,1,3.02-.72,37.165,37.165,0,0,1-3.98,10l1.48.86a35.172,35.172,0,0,0,4.28-11.14,20.523,20.523,0,0,1,2.6-.24,1.381,1.381,0,0,1,1.28.56,4.969,4.969,0,0,1,.28,2.12,22.165,22.165,0,0,1-.94,6.28c-.44,1.28-.86,1.8-1.42,1.8a4.022,4.022,0,0,1-2.32-1.28l-.52.8c1.42,1.26,2.42,1.8,3.36,1.8,1.06,0,1.76-.64,2.38-2.16a19.838,19.838,0,0,0,1.14-6.86,5.754,5.754,0,0,0-.48-2.8c-.44-.8-1.42-1.2-2.92-1.2-.6,0-1.32.04-2.2.1.2-.86.34-1.66.66-3.44.3-.12.42-.24.42-.4s-.14-.3-.4-.36l-1.7-.38-.02.92c-.28,1.72-.46,2.78-.7,3.86-1.24.16-2.48.38-3.8.64Zm18.2-4.12A3.907,3.907,0,0,0,122.26,19l-.34.28a8.33,8.33,0,0,1,1.36,2.52Zm-5.52,2.44c1.58,2.18,2.46,4.64,3.28,8.86l1.84-.78c-.76-3.84-2.6-7.14-4.7-8.4Zm.5-3.94a9.074,9.074,0,0,1,1.24,2.74l1.32-.64a3.871,3.871,0,0,0-2.18-2.36Zm17.26,13.56h3.82v2.04c0,.66-.26.92-.88.92H138.7v.84h1.8c1.2,0,1.72-.48,1.7-1.6V32.78a12.658,12.658,0,0,0,2.66,1.26,7.058,7.058,0,0,1,.58-1.56,11.79,11.79,0,0,1-5.16-2.42h4.24l.8.16V29.1l-.8.16H134.18c.28-.36.42-.58.88-1.28h7.78V22.82h-2.8V21.48h4.36l.78.16V20.52l-.78.16h-4.36v-.82c.24-.18.3-.26.3-.4,0-.18-.12-.26-.4-.26h-1.48v1.48h-4.6v-.82c.26-.2.32-.26.32-.4,0-.18-.14-.26-.42-.26H132.3v1.48h-4.22l-.78-.16v1.12l.78-.16h4.22v1.34h-2.66v5.16h3.68l-.06.1a13.692,13.692,0,0,1-.84,1.18h-4.46l-.8-.16v1.12l.8-.16h3.78a16.358,16.358,0,0,1-4.7,3.52l.28.5a12.29,12.29,0,0,0,2.98-1.38v4.26h1.54V33.14h3.46V37.6h1.54Zm-5.96-.8a13.329,13.329,0,0,0,2.66-2.28h5.98a7.962,7.962,0,0,0,2.06,2.28h-4.74v-.88c.24-.18.32-.26.32-.4,0-.18-.14-.26-.42-.26H135.3v1.54Zm2.98-9.52V21.48h4.6v1.34Zm-2.66,4.36v-1.4h10.08v1.4Zm0-2.2V23.62h10.08v1.36ZM158,33.3h1.64V29.9c1.36-.42,2.68-.76,5.3-1.36a2.373,2.373,0,0,0,.6.1.358.358,0,0,0,.4-.36.883.883,0,0,0-.14-.38l-.72-1.2-.84.38c-.94.28-1.62.48-1.92.58l-2.64.88-.06.02A2.948,2.948,0,0,0,159,26.6a2.912,2.912,0,0,0-2.06-.76,6.546,6.546,0,0,0-3.5,1.02c.74-1.1,1.2-1.82,2.22-3.58h1.06c2.6-.02,3.9-.08,6.42-.3l.2-1.46-1.52.6c-2.44.18-2.92.2-5.58.24h-.08l.92-1.64c.54-.18.64-.26.64-.46,0-.16-.14-.28-.42-.38l-1.58-.54-.28.88c-.58,1.16-.82,1.66-1.1,2.16-1.12-.02-1.94-.04-3.6-.1l-1.24-.5.1,1.38c2.04.08,2.5.1,4.24.12a52.492,52.492,0,0,1-4.66,6.6l1.26,1.1,1.76-2.3a6.476,6.476,0,0,1,4.28-1.86,1.179,1.179,0,0,1,1.34.96,5.326,5.326,0,0,1,.18,1.4,21.962,21.962,0,0,0-2.56,1.14c-2.08,1.12-3,2.2-3,3.56a2.5,2.5,0,0,0,1.36,2.22c1.14.58,2.8.84,5.48.84a34.286,34.286,0,0,0,4.34-.24V34.9a24.454,24.454,0,0,1-4.64.44,11.121,11.121,0,0,1-4.46-.64,1.244,1.244,0,0,1-.68-1.1c0-1.12,1.24-2.06,4.16-3.14Zm17.28-1.06c-.16,2.32-.84,3.4-2.66,4.34l.28.5a5.6,5.6,0,0,0,3.06-2.04,5.33,5.33,0,0,0,.84-2.8h2.74v4.64h1.54V32.24h2.24l.8.16V31.28l-.8.16h-2.24v-2.9h1.48l.8.16V27.58l-.8.16h-8.52l-.8-.16V28.7l.8-.16h1.36V29c0,.56-.02,1.44-.06,2.44H173.3l-.78-.16V32.4l.78-.16Zm1.66-3.7h2.6v2.9h-2.68c.06-.88.08-1.68.08-2.44Zm2.26-2.4h5.9v9.48c0,.64-.28.92-.92.92H182.5v.84h2.76c1,0,1.42-.42,1.42-1.44V19.92H179.2Zm1.5-.8V23.38h4.4v1.96Zm0-2.76V20.72h4.4v1.86Zm-3.52-2.66h-7.22V37.48h1.58V26.14h5.64Zm-5.64.8h4.14v1.86h-4.14Zm4.14,2.66v1.96h-4.14V23.38ZM205,25.12l.06-.02a23.438,23.438,0,0,0,3.2-.36l.12-1.28-1.22.46c-.84.12-1.42.18-2.16.24V20.7c.28-.18.4-.32.4-.5s-.16-.32-.4-.34l-1.9-.12.16,1.16v3.36c-.28.02-2.26.06-2.98.06-.94,0-1.6-.02-2.92-.1l-.92-.34.12,1.26c.92.08,1.68.1,3.02.1,1.36,0,3-.02,3.68-.04v3.36c-.02,3.36-.58,4.96-2.26,6.42a7.96,7.96,0,0,1-3.32,1.64l.14.6a8.823,8.823,0,0,0,3.98-1.28c2.44-1.56,3.22-3.32,3.2-7.28Zm-10.66,9.96a28.772,28.772,0,0,1-.7-6.98,46.3,46.3,0,0,1,.5-6.84c.28-.14.38-.26.38-.46s-.16-.32-.52-.36l-1.72-.22.08,1.14a65.724,65.724,0,0,0-.46,6.98,32.976,32.976,0,0,0,.68,7.04Zm30.8-13.48c.58-.1.82-.26.82-.54a.563.563,0,0,0-.36-.48l-1.36-.72-.58.56c-2.12.14-2.8.16-7.4.22l-1.24-.46.16,1.42c3.66-.02,5.82-.08,7.8-.2l-10.4,8.76.98,1.18,2.58-2.16a12.661,12.661,0,0,1,5.6-1.4c2.74,0,4.4,1.28,4.4,3.4a3.846,3.846,0,0,1-1.28,2.86,4.445,4.445,0,0,1-1.78,1.06,6.524,6.524,0,0,0-1.48-2.24,4.918,4.918,0,0,0-3.42-1.52c-1.58,0-2.68.9-2.68,2.2,0,1.86,2.46,3.32,5.6,3.32,3.86,0,6.9-2.44,6.9-5.54,0-2.76-2.36-4.52-6.06-4.52a10.494,10.494,0,0,0-3.78.68ZM221.9,35.42a3.175,3.175,0,0,1-.88.08,7.2,7.2,0,0,1-3.42-.8,1.423,1.423,0,0,1-.9-1.24c0-.62.56-1.04,1.42-1.04,1.62,0,3.04,1.1,3.84,3Zm13.52-4.08a3.13,3.13,0,1,0,3.08,3.12A3.133,3.133,0,0,0,235.42,31.34Zm-.08.92a2.21,2.21,0,1,1-2.18,2.2A2.211,2.211,0,0,1,235.34,32.26Z" transform="translate(929 3926.912)"/>
      <path id="パス_158" data-name="パス 158" d="M30.222-2.208V0H17.48V-2.208h3.588l-2.806-8.326H9.568L6.67-2.208h3.4V0H.46V-2.208h3.5l9.844-27.6h3.266l9.844,27.6ZM17.48-12.834l-3.4-10.074h-.23l-3.5,10.074ZM31.648-2.208h3.588V-27.6H31.648v-2.208H44.39V-27.6H40.8V-2.208h9.062l2.3-6.164h3.22V0H31.648Zm25.714,0H60.95V-27.6H57.362v-2.208H70.1V-27.6H66.516V-2.208h9.062l2.3-6.164H81.1V0H57.362Zm26.45-11.086H94.3v2.668H83.812Zm37.076,4.922V0H97.152V-2.208h3.588V-27.6H97.152v-2.208H120.52v8.372H117.3L114.954-27.6h-8.648v10.718h4.784V-20.47h2.76v9.476h-2.76v-3.588h-4.784V-2.208h9.062l2.3-6.164Zm2.53,6.164h3.588V-27.6h-3.588v-2.208H136.16V-27.6h-3.588V-2.208h9.062l2.3-6.164h3.22V0H123.418Zm49.45-6.164V0H149.132V-2.208h3.588V-27.6h-3.588v-2.208H172.5v8.372h-3.22L166.934-27.6h-8.648v10.718h4.784V-20.47h2.76v9.476h-2.76v-3.588h-4.784V-2.208h9.062l2.3-6.164ZM189.106.552a12.98,12.98,0,0,1-7.751-2.162,12.421,12.421,0,0,1-4.37-5.5,18.674,18.674,0,0,1-1.357-7.107,21.706,21.706,0,0,1,1.426-7.912,13.335,13.335,0,0,1,4.439-5.957,12.271,12.271,0,0,1,7.613-2.277,15.086,15.086,0,0,1,5.2.782,24.505,24.505,0,0,1,4.048,1.932v6.21h-3.91a8.817,8.817,0,0,0-1.932-5.244,5.155,5.155,0,0,0-3.91-1.656,5.871,5.871,0,0,0-5.474,3.22,16.58,16.58,0,0,0-1.794,8.142,25.307,25.307,0,0,0,1.127,7.981,11.9,11.9,0,0,0,3.1,5.175,6.469,6.469,0,0,0,4.462,1.794,6.889,6.889,0,0,0,4.508-1.587,8,8,0,0,0,2.576-4.807H199.5a10.392,10.392,0,0,1-3.519,6.624A10.419,10.419,0,0,1,189.106.552Zm17.756-2.76h4.37V-27.6h-4.14l-2.3,6.164H201.8v-8.372h24.426v8.372h-2.99L220.892-27.6H216.8V-2.208h4.37V0H206.862Zm49.634,0V0h-8.234L239.89-13.524h-2.576V-2.208H240.9V0H228.16V-2.208h3.588V-27.6H228.16v-2.208h13.846q4.738,0,7.176,2.3a7.577,7.577,0,0,1,2.438,5.75,7.719,7.719,0,0,1-1.564,4.784,8.434,8.434,0,0,1-4.324,2.944l7.59,11.822ZM237.314-15.732H241.5a3.6,3.6,0,0,0,2.99-1.771,7.221,7.221,0,0,0,1.242-4.255,6.946,6.946,0,0,0-1.2-4.209A3.624,3.624,0,0,0,241.5-27.6h-4.186Zm30.5-11.868V-2.208h4.462V0h-14.49V-2.208h4.462V-27.6h-4.462v-2.208h14.49V-27.6ZM288.1.552a12.98,12.98,0,0,1-7.751-2.162,12.422,12.422,0,0,1-4.37-5.5,18.674,18.674,0,0,1-1.357-7.107,21.707,21.707,0,0,1,1.426-7.912,13.335,13.335,0,0,1,4.439-5.957A12.271,12.271,0,0,1,288.1-30.36a15.086,15.086,0,0,1,5.2.782,24.5,24.5,0,0,1,4.048,1.932v6.21h-3.91A8.817,8.817,0,0,0,291.5-26.68a5.155,5.155,0,0,0-3.91-1.656,5.871,5.871,0,0,0-5.474,3.22,16.579,16.579,0,0,0-1.794,8.142,25.308,25.308,0,0,0,1.127,7.981,11.9,11.9,0,0,0,3.105,5.175,6.469,6.469,0,0,0,4.462,1.794,6.889,6.889,0,0,0,4.508-1.587A8,8,0,0,0,296.1-8.418h2.392a10.392,10.392,0,0,1-3.519,6.624A10.419,10.419,0,0,1,288.1.552Zm24.334-2.76h3.588V-27.6h-3.588v-2.208h8.878l9.614,21.022,8.97-21.022h8.878V-27.6h-3.588V-2.208h3.588V0h-12.6V-2.208h3.45V-22.77L330.832-2.208H327.98l-9.43-20.516V-2.208h3.4V0h-9.522ZM360.916-27.6V-2.208h4.462V0h-14.49V-2.208h4.462V-27.6h-4.462v-2.208h14.49V-27.6Zm6.578,25.392h3.588V-27.6h-3.588v-2.208h8.234l13.11,20.516V-27.6H385.3v-2.208h9.66V-27.6h-3.588V0h-3.4L373.612-22.678v20.47h3.45V0h-9.568ZM406.64-27.6V-2.208H411.1V0h-14.49V-2.208h4.462V-27.6h-4.462v-2.208H411.1V-27.6ZM14.766,50.552A12.98,12.98,0,0,1,7.015,48.39a12.421,12.421,0,0,1-4.37-5.5,18.674,18.674,0,0,1-1.357-7.107,21.707,21.707,0,0,1,1.426-7.912,13.335,13.335,0,0,1,4.439-5.957,12.271,12.271,0,0,1,7.613-2.277,15.086,15.086,0,0,1,5.2.782,24.505,24.505,0,0,1,4.048,1.932v6.21H20.1A8.817,8.817,0,0,0,18.17,23.32a5.155,5.155,0,0,0-3.91-1.656,5.871,5.871,0,0,0-5.474,3.22,16.58,16.58,0,0,0-1.794,8.142,25.307,25.307,0,0,0,1.127,7.981,11.9,11.9,0,0,0,3.105,5.175,6.469,6.469,0,0,0,4.462,1.794,6.889,6.889,0,0,0,4.508-1.587,8,8,0,0,0,2.576-4.807h2.392a10.392,10.392,0,0,1-3.519,6.624A10.419,10.419,0,0,1,14.766,50.552Zm26.542,0a13.187,13.187,0,0,1-7.751-2.116,12.157,12.157,0,0,1-4.37-5.428A18.382,18.382,0,0,1,27.83,35.97a21.762,21.762,0,0,1,1.449-7.958,13.7,13.7,0,0,1,4.485-6.049,12.05,12.05,0,0,1,7.544-2.323,13.235,13.235,0,0,1,7.705,2.116,12.185,12.185,0,0,1,4.439,5.451,18.167,18.167,0,0,1,1.38,7.015,21.762,21.762,0,0,1-1.449,7.958A13.7,13.7,0,0,1,48.9,48.229,12.125,12.125,0,0,1,41.308,50.552Zm.6-2.024a5.835,5.835,0,0,0,5.451-3.174,16.593,16.593,0,0,0,1.771-8.142,26.236,26.236,0,0,0-2.07-11.132q-2.07-4.416-6.256-4.416a5.871,5.871,0,0,0-5.474,3.22,16.686,16.686,0,0,0-1.794,8.188,25.67,25.67,0,0,0,2.093,11.086Q37.72,48.528,41.906,48.528Zm29.256,1.978a11.309,11.309,0,0,1-7.981-2.737q-2.967-2.737-2.967-8.257V22.4H56.626V20.192H69.368V22.4H65.78V41.076a7.378,7.378,0,0,0,1.633,5.175,5.915,5.915,0,0,0,4.577,1.771,6.8,6.8,0,0,0,3.312-.828A6.137,6.137,0,0,0,77.717,44.8a7.27,7.27,0,0,0,.9-3.68V22.4H75.026V20.192h9.706V22.4H81.144V40.938a9.426,9.426,0,0,1-2.622,6.9A9.851,9.851,0,0,1,71.162,50.506Zm15.364-2.714h3.588V22.4H86.526V20.192H94.76l13.11,20.516V22.4h-3.542V20.192h9.66V22.4H110.4V50H107L92.644,27.322v20.47h3.45V50H86.526Zm34.04,0h4.37V22.4H120.8l-2.3,6.164h-2.99V20.192h24.426v8.372h-2.99L134.6,22.4H130.5V47.792h4.37V50H120.566Zm49.634,0V50h-8.234l-8.372-13.524h-2.576V47.792h3.588V50H141.864V47.792h3.588V22.4h-3.588V20.192H155.71q4.738,0,7.176,2.3a7.577,7.577,0,0,1,2.438,5.75,7.719,7.719,0,0,1-1.564,4.784,8.434,8.434,0,0,1-4.324,2.944l7.59,11.822ZM151.018,34.268H155.2a3.6,3.6,0,0,0,2.99-1.771,7.221,7.221,0,0,0,1.242-4.255,6.946,6.946,0,0,0-1.2-4.209A3.624,3.624,0,0,0,155.2,22.4h-4.186Zm36.432,1.978V47.792h3.956V50H177.928V47.792h3.956V37.35L174.478,22.4H170.89V20.192h12.788V22.4h-3.312l5.566,11.408L191.866,22.4h-3.68V20.192h9.936V22.4h-3.588Zm12.19,11.546h3.588V22.4H199.64V20.192h8.878l9.614,21.022,8.97-21.022h8.878V22.4h-3.588V47.792h3.588V50h-12.6V47.792h3.45V27.23L218.04,47.792h-2.852l-9.43-20.516V47.792h3.4V50H199.64Zm67.62,0V50H254.518V47.792h3.588L255.3,39.466h-8.694l-2.9,8.326h3.4V50H237.5V47.792h3.5l9.844-27.6H254.1l9.844,27.6ZM254.518,37.166l-3.4-10.074h-.23l-3.5,10.074Zm14.168,10.626h3.588V22.4h-3.588V20.192h8.234l13.11,20.516V22.4h-3.542V20.192h9.66V22.4H292.56V50h-3.4L274.8,27.322v20.47h3.45V50h-9.568Zm29.946-.368a3.063,3.063,0,1,1,.9,2.185A2.974,2.974,0,0,1,298.632,47.424Z" transform="translate(929 3845.36)"/>
    </g>
  </g>
</svg>
