<svg xmlns="http://www.w3.org/2000/svg" width="569" height="175.82" viewBox="0 0 569 175.82">
  <g id="sec02-02-sp" transform="translate(-453 -7616)">
    <g id="パス_81" data-name="パス 81" transform="translate(453 7616)" fill="#fff">
      <path d="M 568.5 175.3200073242188 L 0.5 175.3200073242188 L 0.5 0.5000036358833313 L 568.5 0.5000036358833313 L 568.5 175.3200073242188 Z" stroke="none"/>
      <path d="M 1 1 L 1 174.8200073242188 L 568 174.8200073242188 L 568 1 L 1 1 M 0 0 L 569 0 L 569 175.8200073242188 L 0 175.8200073242188 L 0 0 Z" stroke="none" fill="#707070"/>
    </g>
    <path id="パス_80" data-name="パス 80" d="M1.461,3.431H17.6V-12.713H1.461ZM37.116-1.447l.746.153V-2.365l-.746.153H29.981a21.248,21.248,0,0,0,.21-2.142h4.8l.765.153V-5.272l-.765.153H30.229c.038-.287.057-1.09.077-1.951h5.432l.765.153V-7.988l-.765.153H30.325V-9.347c.249-.172.306-.249.306-.383,0-.172-.134-.249-.4-.249H28.757v1.071l-.019,1.071H23.745l-.765-.153v1.071l.765-.153h4.992v.823L28.68-5.177v.057H24.3l-.746-.153V-4.2l.746-.153h4.342c-.1,1.148-.153,1.588-.249,2.142H22.215l-.765-.153v1.071l.765-.153h6.006C27.609.81,25.046,2.57,20.857,3.546l.153.631a14.713,14.713,0,0,0,6.618-2.315,5.386,5.386,0,0,0,2.085-2.927l.038.057c1.262,2.448,4.132,4.266,7.881,4.992a13.129,13.129,0,0,1,.823-1.76c-3.787-.421-6.905-1.779-8.321-3.673ZM23.362-11.393v-.172a3.288,3.288,0,0,0-.057-.65h-.65a5.347,5.347,0,0,1-1.8,3.194l1.109,1.435a4.11,4.11,0,0,0,1.358-3.041H36.2a13.066,13.066,0,0,1-1.014,2.1l.4.306a7.145,7.145,0,0,0,2.869-3.175H30.44v-1.415c.249-.172.306-.249.306-.383,0-.172-.134-.249-.4-.249H28.7v2.047ZM52.724-5.483,50.983-5.1V-7.281c.249-.172.306-.249.306-.383,0-.172-.134-.249-.4-.249h-1.3v3.1l-.631.153h-.784l.23,1.033.708-.306.478-.1V2.054C49.568,3.182,50.142,3.6,51.71,3.6h4.61c1.339-.019,1.855-.421,2.008-1.588L58.558.39l-.823-.1L57.544,1.5c-.1.593-.363.765-1.186.765h-4.38c-.727-.019-.976-.191-.995-.669v-5.93L52.724-4.7V.963h1.4V-5l1.97-.421v3.634c0,.516-.153.669-.65.727l-.823.1v.784l1.473-.172C57.124-.471,57.506-.911,57.506-2V-6.516l-3.386.727v-2.7c.249-.172.306-.249.306-.383,0-.172-.134-.249-.4-.249h-1.3Zm4.763-4.3.765.153V-10.7l-.765.153H50.716c.23-.421.44-.823.88-1.722.4-.153.516-.268.516-.5,0-.153-.153-.306-.363-.363l-1.454-.306a18.278,18.278,0,0,1-2.907,6.064l.383.363a12.574,12.574,0,0,0,2.487-2.774Zm-14.231.555v.669c-.077,6.484-.689,9.717-2.276,12.2l.363.325c2.008-1.741,3.022-4.686,3.29-9.411h1.683A63.879,63.879,0,0,1,45.857,1.4c-.191,1.607-.249,1.7-.995,1.741h-1.3v.8h2.047c1.09,0,1.473-.383,1.645-1.626.21-1.148.459-4.9.574-8.531H44.671c.038-.956.057-1.76.057-2.353v-.669h2.7l.765.153V-10.15L47.426-10H45.417v-2.7c.249-.172.306-.249.306-.363,0-.191-.134-.268-.4-.268H43.849V-10H41.84l-.765-.153v1.071l.765-.153ZM69.882-2.767H65.444v6.81h1.569V2.991h8.569v.918h1.607V-2.767h-5.7V-5.98H77l.727.153V-6.9L77-6.745H71.489V-9.021c.249-.172.306-.249.306-.383,0-.172-.134-.249-.4-.249H69.882ZM67.013,2.226V-2h8.569V2.226Zm4.342-13.543v-1.492c.249-.172.306-.249.306-.383,0-.172-.134-.249-.4-.249H69.614v2.123h-7.02V-8.18c0,7.211-.23,9.124-1.492,11.9l.421.268A9.788,9.788,0,0,0,63.7-.127c.363-1.262.516-3.52.536-8.053v-2.372H77.686l.765.153V-11.47l-.765.153Zm14.25-1.052.077-.153c.344-.057.5-.172.5-.344a.285.285,0,0,0-.249-.23L84.3-13.44a21.838,21.838,0,0,1-3.08,5.6l.383.363a14.986,14.986,0,0,0,3.711-4.4l.057.057a17.521,17.521,0,0,1,2.181,2.774l1.09-1.186a10.588,10.588,0,0,0-3.08-2.085Zm7.211,4.361H89.335V3.661h1.377V-.892h2.1V4.043h1.377V-.892H96.6V1.939c-.019.593-.21.784-.784.8h-.784v.8h1.358c1.129,0,1.626-.459,1.607-1.511V-8.008H94.194V-9.94h3.883l.746.153v-1.071l-.746.153H94.194v-1.989c.249-.191.306-.249.306-.383,0-.172-.134-.249-.4-.249H92.817V-10.7H89.66l-.765-.153v1.071l.765-.153h3.156Zm0,6.351h-2.1V-4.163h2.1Zm1.377,0V-4.163H96.6v2.506ZM92.817-4.928h-2.1V-7.242h2.1Zm1.377,0V-7.242H96.6v2.315Zm-9.736.669H82.1l-.765-.153V-3.34l.765-.153h5.719l.765.153V-4.412l-.765.153h-1.97V-6.63h1.53l.765.153V-7.549l-.765.153h-1.53V-9.06c.249-.172.306-.249.306-.383,0-.172-.134-.249-.4-.249h-1.3v2.3H83.1l-.746-.153v1.071L83.1-6.63h1.358Zm3.52,7.766V-2.021H82.22V3.718H83.6V2.7h2.984v.8Zm-1.4-1.569H83.6V-1.255h2.984ZM97.79-11.795a12,12,0,0,0-2.334-1.358l-.383.344A11.044,11.044,0,0,1,96.585-10.8ZM110.166-1.523a1.3,1.3,0,0,0-1.32,1.282,1.286,1.286,0,0,0,1.282,1.3,1.29,1.29,0,0,0,1.3-1.3A1.29,1.29,0,0,0,110.166-1.523Zm0-8.8a1.3,1.3,0,0,0-1.32,1.282,1.3,1.3,0,0,0,1.3,1.3,1.286,1.286,0,0,0,1.282-1.3A1.29,1.29,0,0,0,110.166-10.322ZM133.655,1.939h1.53V-9.079h-1.53v-.689h3.271l4.208,9.583,4.055-9.583h3.194v.689h-1.53V1.939h1.53v.689H143.7V1.939h1.53v-9.66L141.134,1.92h-.88L136.008-7.8V1.939h1.473v.689h-3.826Zm22.361,0v.689h-5.375V1.939h1.875V-9.079h-1.8v-.689h5.222v.689h-1.8V1.939Zm2.257,0h1.53V-9.079h-1.53v-.689h3.118l5.758,9.3V-9.079h-1.53v-.689H169.5v.689h-1.53V2.628h-.88l-6.465-10.54V1.939h1.53v.689h-3.883Zm18.669,0v.689h-5.375V1.939h1.875V-9.079h-1.8v-.689h5.222v.689h-1.8V1.939ZM188.132-12.9l-.574.593c-1.148.1-1.97.134-4.113.172l-1.205-.4.115,1.262c.669.019,1.167.038,1.492.038.956,0,2.2-.057,3.749-.191C186.812-9,186.41-7.893,185.664-5.9a8.826,8.826,0,0,0-2.334.383,4.586,4.586,0,0,0-3.5,4.361c0,1.626.976,2.869,2.257,2.869A3.085,3.085,0,0,0,184.536.045a28,28,0,0,0,2.391-4.954,18.393,18.393,0,0,1,5.662,1.186c-.708,3.5-1.97,5.394-4.629,6.944l.249.478a7.872,7.872,0,0,0,4.151-2.621,9.441,9.441,0,0,0,1.779-4.17c.937.44,1.32.631,2.238,1.148l.555-1.3a18.962,18.962,0,0,0-2.544-1.129c.134-.8.191-1.186.287-2.085.249-.153.344-.287.344-.44s-.153-.287-.44-.344l-1.569-.363.019.823c-.1.976-.115,1.071-.23,1.913a26.666,26.666,0,0,0-5.509-.995c.861-2.257,1.109-2.946,1.932-5.337.383-.23.536-.421.536-.631a.5.5,0,0,0-.287-.4Zm-3.08,8.569c-1.626,3.806-2.314,4.9-3.118,4.9-.536,0-.976-.669-.976-1.511A3.856,3.856,0,0,1,183.025-4.2a5.619,5.619,0,0,1,2.257-.65Zm19.358-6.351c-1.626,0-2.3-.038-3.328-.1l-1.033-.44.1,1.3c1.377.1,2.047.115,3.233.115h.746a42.267,42.267,0,0,1-4.342,9.392l1.454.937a50.817,50.817,0,0,0,4.61-10.387c1.454-.057,3.041-.191,4.629-.4l.057-1.358-1.186.593c-1.358.153-2.142.23-3.194.287a2.272,2.272,0,0,1,.077-.268c.057-.172.23-.689.4-1.243.287-.191.344-.287.344-.421a.309.309,0,0,0-.268-.306l-1.683-.325-.153.976c-.1.383-.172.669-.21.8l-.23.784ZM216.614.657a11.68,11.68,0,0,0-4.667-2.544V-5.464c.306-.21.383-.287.383-.421,0-.191-.172-.306-.459-.306l-1.511-.019.057,1.415v2.6a10.31,10.31,0,0,0-1.683-.134c-2.487,0-3.979,1.071-3.979,2.869,0,1.817,1.779,3.137,4.227,3.137a2.908,2.908,0,0,0,2.7-1.148,2.9,2.9,0,0,0,.268-1.435V-.49a12.638,12.638,0,0,1,3.539,2.582Zm-6.2.363c0,.918-.536,1.358-1.664,1.358-1.76,0-3.06-.823-3.06-1.951a1.311,1.311,0,0,1,.344-.88,3.294,3.294,0,0,1,2.391-.708,7.027,7.027,0,0,1,1.989.268Zm6.427-9.449a9.48,9.48,0,0,0-3.749-.612,9.6,9.6,0,0,0-3.367.5l.038.536a14.264,14.264,0,0,1,6.006,1.148Zm10.406-3.806c.23-.191.306-.325.306-.478a.357.357,0,0,0-.363-.325H225.3l.325,1.148,1.205,5.815a17.262,17.262,0,0,0-2.372,1.415c-1.875,1.339-2.678,2.544-2.678,4a3.416,3.416,0,0,0,2.3,3.252,14.127,14.127,0,0,0,5.337.708,36.435,36.435,0,0,0,5.432-.325V1.116a28.83,28.83,0,0,1-5.6.516c-4.323,0-6.159-.708-6.159-2.41,0-2.276,3.462-4.342,11.037-6.618a1.06,1.06,0,0,0,.516.172.348.348,0,0,0,.325-.306.661.661,0,0,0-.057-.23l-.669-1.549-.669.5c-1.492.574-2.927,1.109-4.285,1.645-.383.153-.65.249-.937.383ZM248.5-12.9l-.574.593c-1.148.1-1.97.134-4.113.172l-1.205-.4.115,1.262c.669.019,1.167.038,1.492.038.956,0,2.2-.057,3.749-.191C247.18-9,246.779-7.893,246.033-5.9a8.825,8.825,0,0,0-2.334.383,4.586,4.586,0,0,0-3.5,4.361c0,1.626.976,2.869,2.257,2.869A3.085,3.085,0,0,0,244.9.045,28,28,0,0,0,247.3-4.909a18.393,18.393,0,0,1,5.662,1.186c-.708,3.5-1.97,5.394-4.629,6.944l.249.478a7.872,7.872,0,0,0,4.151-2.621,9.442,9.442,0,0,0,1.779-4.17c.937.44,1.32.631,2.238,1.148l.555-1.3a18.963,18.963,0,0,0-2.544-1.129c.134-.8.191-1.186.287-2.085.249-.153.344-.287.344-.44s-.153-.287-.44-.344l-1.569-.363.019.823c-.1.976-.115,1.071-.23,1.913a26.666,26.666,0,0,0-5.509-.995c.861-2.257,1.109-2.946,1.932-5.337.383-.23.536-.421.536-.631a.5.5,0,0,0-.287-.4Zm-3.08,8.569c-1.626,3.806-2.314,4.9-3.118,4.9-.536,0-.976-.669-.976-1.511A3.856,3.856,0,0,1,243.393-4.2a5.619,5.619,0,0,1,2.257-.65Zm18.4,3a7.871,7.871,0,0,1,1.8-2.085,7.694,7.694,0,0,1,4.859-1.76c2.161,0,3.5,1.109,3.5,2.888s-1.3,3.214-3.711,4.151a21.64,21.64,0,0,1-4.744,1.129l.077.65c3.386-.23,4.8-.44,6.274-.995,2.582-.976,4.017-2.678,4.017-4.8a3.7,3.7,0,0,0-1.129-2.716,5.672,5.672,0,0,0-4-1.3,8.539,8.539,0,0,0-6.5,2.774l.44-5.777c.268-.191.363-.306.363-.478s-.134-.306-.363-.325l-1.779-.191.134.995-.516,7.843Zm1.167-10.98a15.805,15.805,0,0,1,6.217,2.047l1.377-1.607a9.011,9.011,0,0,0-1.817-.631,18.712,18.712,0,0,0-4.093-.5c-.421,0-.8.019-1.626.057ZM287.464-1.581c-.44,1.741-1.033,2.907-1.492,2.907-.44,0-1.129-.9-1.664-2.123-.708-1.683-1.071-4.38-1.071-8.187v-1.224c.325-.23.421-.344.421-.536s-.191-.325-.478-.344l-1.721-.115.1,1.148c.019,2.468.038,3.787.038,3.96A18.008,18.008,0,0,0,282.74-.069c.823,1.989,1.855,3.041,2.946,3.041,1.071,0,2.008-1.53,2.621-4.285Zm9.87.153c-.631-3.711-2.525-7.154-4.9-8.933l-.478.363A23.3,23.3,0,0,1,295.5-.605Zm8.435,4.208a11.5,11.5,0,0,0-5.337-3.653l-.363.459A17.073,17.073,0,0,1,304.2,4.158Zm14.289-.842h1.53V-9.079h-1.53v-.689h3.271l4.208,9.583,4.055-9.583h3.194v.689h-1.53V1.939h1.53v.689H330.1V1.939h1.53v-9.66L327.538,1.92h-.88L322.411-7.8V1.939h1.473v.689h-3.826Zm22.361,0v.689h-5.375V1.939h1.875V-9.079h-1.8v-.689h5.222v.689h-1.8V1.939Zm2.257,0h1.53V-9.079h-1.53v-.689h3.118l5.758,9.3V-9.079h-1.53v-.689H355.9v.689h-1.53V2.628h-.88l-6.465-10.54V1.939h1.53v.689h-3.883Zm18.669,0v.689H357.97V1.939h1.875V-9.079h-1.8v-.689h5.222v.689h-1.8V1.939ZM382.474-6.65l.765.153V-7.568l-.765.153H379.49v-2.793H381.5l.765.153v-1.071l-.765.153H379.49v-1.722c.249-.172.306-.249.306-.383,0-.172-.134-.249-.4-.249h-1.339v2.353H374.8v-1.722c.249-.191.306-.249.306-.383,0-.172-.134-.249-.4-.249H373.33v2.353h-1.836l-.746-.153v1.071l.746-.153h1.836v2.793h-2.754l-.765-.153V-6.5l.765-.153h2.582l-.019.077a13.429,13.429,0,0,1-3.5,4.419l.249.421a10.706,10.706,0,0,0,2.64-1.855h5.815v2.315h-6.523V2.054c.038,1.148.631,1.549,2.315,1.549h6.121c1.282.019,1.913-.555,1.951-1.8L382.34.141l-.8-.077-.115,1.415a.855.855,0,0,1-1.014.784h-5.949c-.823-.019-1.167-.21-1.167-.65V-.509h6.523v-3.52a8.738,8.738,0,0,0,2.754,2.066c.344-.746.4-.842.765-1.511A9.483,9.483,0,0,1,378.82-6.65Zm-4.266,0a9.679,9.679,0,0,0,1.339,2.3h-6.293a9.328,9.328,0,0,0,1.549-2.3Zm-3.4-.765v-2.793h3.252v2.793Zm-7.785-5.05A15.68,15.68,0,0,1,369.256-10l1.129-1.511a8.961,8.961,0,0,0-3.1-1.473ZM369.141-3.9a43.21,43.21,0,0,1-3,6.37l1.109,1.09a.587.587,0,0,0,.363.172.4.4,0,0,0,.363-.4,1.945,1.945,0,0,0-.1-.421A47.388,47.388,0,0,0,369.7-3.7Zm-3.309-3.653a13.539,13.539,0,0,1,2.314,2.525l1.186-1.569A8.423,8.423,0,0,0,366.1-8.046Zm29.706,3.52h-5.126l-.746-.153v1.071l.746-.153H393.8V-.93h-3.806l-.765-.153V-.012l.765-.153H393.8V3.527h1.53V-.165h3.979l.765.153V-1.083l-.765.153h-3.979V-3.264h3.558l.765.153V-4.182l-.765.153h-2.64a12.643,12.643,0,0,0,1.588-2.123c.383-.077.574-.191.574-.4a.353.353,0,0,0-.23-.287l-1.569-.5a21.755,21.755,0,0,1-1.052,3.252Zm-1.779-4.246h-6.943V4.043h1.607V-7.51h12.472V2.3c-.019.631-.21.823-.823.842h-2.066v.8H400.8c1.205,0,1.722-.478,1.7-1.588V-8.275h-7.135v-2.257h7.326l.765.153v-1.071l-.765.153h-7.326v-1.511c.249-.172.306-.249.306-.383,0-.172-.134-.249-.4-.249h-1.511V-11.3h-7.135l-.765-.153v1.071l.765-.153h7.135Zm-2.888,1.3a12.787,12.787,0,0,1,1.3,2.888l1.492-.9a7.657,7.657,0,0,0-2.353-2.276Zm32.518.861A22.1,22.1,0,0,0,417.44-11.2l-.555.44a28.724,28.724,0,0,1,2.888,3.137c-1.626.1-4.8.21-8.78.306l-.459.019a26.694,26.694,0,0,0,3.692-4.725c.459-.1.669-.249.669-.5a.379.379,0,0,0-.306-.344L412.7-13.44a39.585,39.585,0,0,1-3.022,6.006l-.077.153-.8.019-.784.019c-.325,0-.937,0-1.8.019l.478,1.588c.1.325.21.459.4.459s.325-.134.478-.478c6.618-.478,9.641-.8,12.7-1.32.536.746.823,1.167,1.377,2.066ZM410.037,2.972h9.507v.88h1.683V-3.933H408.354V3.947h1.683Zm0-.8v-5.3h9.507v5.3Zm21.768.612a11.5,11.5,0,0,0-5.337-3.653l-.363.459a17.073,17.073,0,0,1,4.132,4.572Zm14.289-.842h1.53V-9.079h-1.53v-.689h3.271l4.208,9.583,4.055-9.583h3.194v.689h-1.53V1.939h1.53v.689h-4.686V1.939h1.53v-9.66L453.573,1.92h-.88L448.446-7.8V1.939h1.473v.689h-3.826Zm22.361,0v.689h-5.375V1.939h1.875V-9.079h-1.8v-.689h5.222v.689h-1.8V1.939Zm2.257,0h1.53V-9.079h-1.53v-.689h3.118l5.758,9.3V-9.079h-1.53v-.689h3.883v.689h-1.53V2.628h-.88l-6.465-10.54V1.939h1.53v.689h-3.883Zm18.669,0v.689h-5.375V1.939h1.875V-9.079h-1.8v-.689H489.3v.689h-1.8V1.939Zm14.557.459h3.214V3.6h1.435V-12.388h-6.045v16.2h1.4Zm0-10.291v-3.73h3.214v3.73Zm0,.765h3.214v3.864h-3.214Zm0,4.629h3.214V1.633h-3.214Zm-5.413,6.542h1.415V-5.521a20.1,20.1,0,0,1,1.09,2.927l1.129-.9a6.719,6.719,0,0,0-2.219-2.659V-8.658h1.205l.746.153V-9.576l-.746.153h-1.205v-3.271c.249-.172.306-.249.306-.383,0-.172-.134-.249-.4-.249h-1.32v3.9h-1.779l-.765-.153V-8.5l.765-.153h1.607l-.077.516a33.119,33.119,0,0,1-2.448,7.823l.4.325a18,18,0,0,0,2.3-4.3Zm-2.142-15.666a7.891,7.891,0,0,0-3.1-1.358l-.287.516a16.116,16.116,0,0,1,2.315,2.372Zm-1.4,7.919a41.066,41.066,0,0,1-2.793,6.178l1.129,1.09a.541.541,0,0,0,.383.172.388.388,0,0,0,.383-.4,1.543,1.543,0,0,0-.115-.421,46.917,46.917,0,0,0,1.588-6.427Zm.306-2.984a7.171,7.171,0,0,0-3.137-1.358l-.287.516A12.414,12.414,0,0,1,494.2-5.062Zm26.282,2.659h-5.126l-.746-.153v1.071l.746-.153h3.386V-.93h-3.806l-.765-.153V-.012l.765-.153h3.806V3.527h1.53V-.165h3.979l.765.153V-1.083l-.765.153h-3.979V-3.264h3.558l.765.153V-4.182l-.765.153h-2.64a12.642,12.642,0,0,0,1.588-2.123c.383-.077.574-.191.574-.4a.353.353,0,0,0-.229-.287l-1.569-.5a21.752,21.752,0,0,1-1.052,3.252Zm-1.779-4.246h-6.943V4.043h1.607V-7.51h12.472V2.3c-.019.631-.21.823-.823.842h-2.066v.8h2.793c1.205,0,1.721-.478,1.7-1.588V-8.275H521.4v-2.257h7.326l.765.153v-1.071l-.765.153H521.4v-1.511c.249-.172.306-.249.306-.383,0-.172-.134-.249-.4-.249h-1.511V-11.3h-7.135l-.765-.153v1.071l.765-.153h7.135Zm-2.888,1.3a12.787,12.787,0,0,1,1.3,2.888l1.492-.9a7.657,7.657,0,0,0-2.353-2.276ZM1.461,32.123H17.6V15.979H1.461ZM30.153,19.633l-.249-3.06c.23-.191.325-.306.325-.459,0-.21-.172-.344-.44-.344H27.915l.23,1.071.23,2.907-5.26.344-.765-.115.077,1.186.746-.191,5.279-.344.4,4.859-6.886.44-.765-.1.077,1.186.746-.21,6.905-.44.516,6.121,1.779-.115-.516-6.121,6.523-.4.861.1L38,24.74l-.823.21-6.542.421-.4-4.859,5.585-.344.861.115L36.6,19.059l-.842.23Zm18.746,4.4,5.012-.669a8.663,8.663,0,0,1-3.175,4.093l.287.44a8.09,8.09,0,0,0,5.069-5.681l-7.288.956L48.5,20.627c.21-.172.287-.287.287-.4a.293.293,0,0,0-.325-.287H46.718l.153.976.287,2.468-3.022.4-.842-.038.153,1.186.8-.268,3.022-.4.976,8.416,1.645-.21Zm29-4.686a18.987,18.987,0,0,1-4.878,6.2c-2.544,2.066-4.725,3.041-8.78,3.883l-1.014.019.689,1.7c.115.268.287.421.478.421.21,0,.363-.134.5-.44,4.323-.976,7.039-2.276,9.392-4.5a16.123,16.123,0,0,0,4.151-7.039ZM63.053,17.261a17.982,17.982,0,0,1,4.763,4.093l1.569-1.588a11.8,11.8,0,0,0-6.1-3ZM98.8,29.483c-2.621-2.64-7.154-7.728-9.354-10.54-.88-1.129-1.224-1.454-1.569-1.454-.325,0-.765.344-1.282,1.014-2.3,2.831-3.137,3.826-4.419,5.2l-.956.8L82.3,25.964c.134.191.249.268.383.268.23,0,.344-.172.363-.536C84.8,23.171,87,20.072,87.5,19.422c.21-.287.363-.44.44-.44s.23.134.383.363a121.956,121.956,0,0,0,9.124,11.764ZM96.872,15.31a1.932,1.932,0,1,0,1.894,1.932A1.944,1.944,0,0,0,96.872,15.31Zm-.057.765A1.176,1.176,0,0,1,98,17.241a1.159,1.159,0,0,1-1.167,1.167,1.167,1.167,0,0,1-.019-2.334Zm21.443,7.517L102.285,23v2.008l15.972-.574Zm20.008-4.246a18.986,18.986,0,0,1-4.878,6.2c-2.544,2.066-4.725,3.041-8.78,3.883l-1.014.019.689,1.7c.115.268.287.421.478.421.21,0,.363-.134.5-.44,4.323-.976,7.039-2.276,9.392-4.5a16.123,16.123,0,0,0,4.151-7.039Zm-14.843-2.085a17.982,17.982,0,0,1,4.763,4.093l1.569-1.588a11.8,11.8,0,0,0-6.1-3Zm26.8,2.353.765.153V18.7l-.765.153h-3.252V16c.249-.172.306-.249.306-.383,0-.172-.134-.249-.4-.249h-1.549v3.481h-2.85l-.765-.153v1.071l.765-.153h5.145a15.765,15.765,0,0,1-1.205,5.05,36.534,36.534,0,0,0-3.634-3.462l-.459.4a48.967,48.967,0,0,1,3.462,4.246l.038.057a17.289,17.289,0,0,1-4.227,5.3l.363.536a15.21,15.21,0,0,0,4.744-4.629,39.98,39.98,0,0,1,2.448,3.94l1.588-1.033a38.238,38.238,0,0,0-3.271-4.189,15.309,15.309,0,0,0,1.779-6.217Zm5.356.784H151.2l-.765-.153v1.071l.765-.153h4.38V30.8c0,.784-.344,1.129-1.129,1.129H152.5v.8h2.984c1.224,0,1.76-.5,1.741-1.7v-9.87h1.205l.765.153V20.245l-.765.153h-1.205V16c.249-.172.306-.249.306-.383,0-.172-.134-.249-.4-.249h-1.549ZM150.6,23.42a29.3,29.3,0,0,1,2.3,4.151l1.626-1.167a13.344,13.344,0,0,0-3.5-3.347Zm21.5,3.022a7.7,7.7,0,0,0-2.468-2.888,9,9,0,0,0,.956-.536l.306-.172h6.81V19H171.49a14.372,14.372,0,0,0,3.175-2.391h-6.905l.076-.077.363-.363c.574-.1.689-.153.689-.363,0-.134-.134-.249-.306-.287l-1.53-.268a21.383,21.383,0,0,1-5.337,4.533l.191.5c.746-.287,1.224-.5,1.817-.784v3.347h4.859a28.272,28.272,0,0,1-6.848,2.716l.115.516a22.852,22.852,0,0,0,7.23-2.219,10.387,10.387,0,0,1,.708.784,25.214,25.214,0,0,1-8,3.5l.1.574a23.66,23.66,0,0,0,8.569-3.06,5.14,5.14,0,0,1,.459,1.071l-.057.038a19.843,19.843,0,0,1-3.883,2.41,26.486,26.486,0,0,1-5.26,1.913l.134.536a22.022,22.022,0,0,0,9.373-3.424,6.017,6.017,0,0,1,.057.842,4.1,4.1,0,0,1-.574,2.468c-.325.344-.593.44-1.32.44h-1.7v.8h2.1a2.645,2.645,0,0,0,1.97-.555,3.589,3.589,0,0,0,.956-2.869,6.717,6.717,0,0,0-.44-2.448l.153-.038.134.191a12.222,12.222,0,0,0,5.7,4.935,7.636,7.636,0,0,1,1.052-1.626,14.191,14.191,0,0,1-6.446-3.653,22,22,0,0,0,4.438-1.932,1.9,1.9,0,0,0,.363.057c.249,0,.421-.134.421-.306,0-.1-.057-.172-.23-.306l-1.3-.976a28.779,28.779,0,0,1-4.438,3.194Zm-.23-9.067a15.623,15.623,0,0,1-1.3,1.626H164.6a15.8,15.8,0,0,0,2.3-1.626Zm-1.989,2.391v2.314h-4.667V19.766Zm1.473,0h4.82v2.314h-4.82ZM188,23.63v4.954c0,1.626.268,2.181,1.224,2.506a20.541,20.541,0,0,0,5.031.363c1.282,0,2.238-.038,3.539-.115V29.6a37.36,37.36,0,0,1-4.476.268,9.889,9.889,0,0,1-3.022-.287c-.383-.172-.478-.4-.478-1.167V23.63h8.225l.861.172V22.578l-.861.172h-8.225V18.045h6.331l.842.172V16.993l-.842.172H184.383l-.842-.172v1.224l.842-.172H188V22.75h-4.8l-.861-.172V23.8l.861-.172Zm29.782-.23.842.172V22.349l-.842.172H203.052l-.842-.172v1.224l.842-.172h6.676a9.4,9.4,0,0,1-.918,4.591,9.073,9.073,0,0,1-5.528,3.94l.153.65a11.736,11.736,0,0,0,6.408-3.137c1.205-1.32,1.76-3.214,1.76-6.044Zm-3.386-6.236h-9.009l-.842-.172v1.224l.842-.172h9.009l.842.172V16.993Zm5.356-.115a3.777,3.777,0,0,0-2.257-1.989l-.306.268a7.688,7.688,0,0,1,1.282,2.41Zm-4.667-1.435a8.564,8.564,0,0,1,1.167,2.621l1.262-.612a3.65,3.65,0,0,0-2.085-2.257Zm16.335,16.316A9.477,9.477,0,0,0,237.1,28.47a13.388,13.388,0,0,0,2.774-6.293l-.593-.191c-1.262,3.6-3.653,6.523-6.159,7.536V17.165c.287-.191.383-.325.383-.5a.358.358,0,0,0-.363-.325l-1.894-.134.172,1.148Zm-9.048.057a10.494,10.494,0,0,0,4.285-4.552c.784-1.7,1.129-3.94,1.129-7.46V17.815c.287-.191.383-.325.383-.5a.345.345,0,0,0-.363-.325l-1.951-.134.172,1.148v2.142c0,5.815-.918,8.435-4,11.343Zm28.654-4.82a1.3,1.3,0,0,0-1.32,1.282,1.291,1.291,0,1,0,1.32-1.282Zm0-8.8a1.291,1.291,0,1,0-.019,2.582,1.291,1.291,0,0,0,.019-2.582Z" transform="translate(472.84 7649.44)"/>
    <path id="パス_86" data-name="パス 86" d="M12.249,59.323v.689H7.811v-.689h1.4L7.83,55.44H3.718L2.341,59.323h1.4v.689H.16v-.689H1.518L5.745,47.617h.9l4.246,11.706Zm-4.686-4.61L5.8,49.759H5.726l-1.76,4.954Zm6.523,4.61h1.53V48.306h-1.53v-.689h4.744v.689H17.241V59.323h4.476l1.014-2.678h.727v3.367H14.085Zm11.381,0H27V48.306h-1.53v-.689H30.21v.689H28.623V59.323H33.1l1.014-2.678h.727v3.367H25.466Zm11.5-4.706h4.189v.746H36.962Zm16.029,2.028v3.367H43.523v-.689h1.53V48.306h-1.53v-.689h9.315v3.328h-.727L51.1,48.306H46.68v4.8h3V51.634h.88v3.673h-.88V53.834h-3v5.49h4.572l1.014-2.678Zm2.314,2.678h1.53V48.306h-1.53v-.689H60.05v.689H58.462V59.323h4.476l1.014-2.678h.727v3.367H55.306Zm20.85-2.678v3.367H66.688v-.689h1.53V48.306h-1.53v-.689H76v3.328h-.727l-1.014-2.64H69.844v4.8h3V51.634h.88v3.673h-.88V53.834h-3v5.49h4.572l1.014-2.678Zm8.015,3.6a5.045,5.045,0,0,1-3.127-.918,5.153,5.153,0,0,1-1.75-2.343,8.438,8.438,0,0,1-.536-2.994,9.062,9.062,0,0,1,.555-3.166,5.51,5.51,0,0,1,1.779-2.468,4.849,4.849,0,0,1,3.1-.966,5.826,5.826,0,0,1,2.152.354,6.416,6.416,0,0,1,1.6.909v2.3h-1.09a3.4,3.4,0,0,0-.918-2.238A2.659,2.659,0,0,0,84.056,48a3.007,3.007,0,0,0-2.707,1.368A6.366,6.366,0,0,0,80.46,52.9a11.692,11.692,0,0,0,.411,3.156,5.724,5.724,0,0,0,1.272,2.4,2.8,2.8,0,0,0,2.142.928,3.324,3.324,0,0,0,3.29-2.754H88.3a4.35,4.35,0,0,1-.765,1.855,4.27,4.27,0,0,1-1.473,1.291A3.967,3.967,0,0,1,84.171,60.241Zm8.34-.918h1.683V48.306H91.822l-.995,2.64h-.708V47.617h9.736v3.328h-.708l-.956-2.64H95.82V59.323H97.5v.689H92.511Zm20.85,0v.689h-2.927L106.8,54.293H105.02v5.031h1.511v.689h-4.667v-.689h1.53V48.306h-1.53v-.689h5.566a3.843,3.843,0,0,1,2.812.928,3.183,3.183,0,0,1,.937,2.362,3.271,3.271,0,0,1-.708,2.133,3.312,3.312,0,0,1-1.932,1.138l3.443,5.145Zm-8.34-5.758h2.2a1.956,1.956,0,0,0,1.559-.736,2.82,2.82,0,0,0,.622-1.884,2.9,2.9,0,0,0-.6-1.913,1.951,1.951,0,0,0-1.578-.727h-2.2Zm15.436,5.758v.689h-5.375v-.689h1.875V48.306h-1.8v-.689h5.222v.689h-1.8V59.323Zm7.766.918a5.045,5.045,0,0,1-3.127-.918,5.153,5.153,0,0,1-1.75-2.343,8.438,8.438,0,0,1-.536-2.994,9.062,9.062,0,0,1,.555-3.166,5.51,5.51,0,0,1,1.779-2.468,4.849,4.849,0,0,1,3.1-.966,5.826,5.826,0,0,1,2.152.354,6.416,6.416,0,0,1,1.6.909v2.3H130.9a3.4,3.4,0,0,0-.918-2.238A2.659,2.659,0,0,0,128.108,48a3.007,3.007,0,0,0-2.707,1.368,6.366,6.366,0,0,0-.889,3.529,11.692,11.692,0,0,0,.411,3.156,5.724,5.724,0,0,0,1.272,2.4,2.8,2.8,0,0,0,2.142.928,3.324,3.324,0,0,0,3.29-2.754h.727a4.35,4.35,0,0,1-.765,1.855,4.27,4.27,0,0,1-1.473,1.291A3.967,3.967,0,0,1,128.223,60.241Zm11.879-.918h1.53V48.306H140.1v-.689h3.271L147.58,57.2l4.055-9.583h3.194v.689H153.3V59.323h1.53v.689h-4.686v-.689h1.53v-9.66L147.58,59.3h-.88l-4.246-9.717v9.736h1.473v.689H140.1Zm22.361,0v.689h-5.375v-.689h1.875V48.306h-1.8v-.689h5.222v.689h-1.8V59.323Zm2.257,0h1.53V48.306h-1.53v-.689h3.118l5.758,9.3V48.306h-1.53v-.689h3.883v.689h-1.53V60.012h-.88l-6.465-10.54v9.851h1.53v.689h-3.883Zm18.669,0v.689h-5.375v-.689h1.875V48.306h-1.8v-.689h5.222v.689h-1.8V59.323Zm13.447.918a5.045,5.045,0,0,1-3.127-.918,5.153,5.153,0,0,1-1.75-2.343,8.438,8.438,0,0,1-.536-2.994,9.061,9.061,0,0,1,.555-3.166,5.51,5.51,0,0,1,1.779-2.468,4.849,4.849,0,0,1,3.1-.966,5.826,5.826,0,0,1,2.152.354,6.416,6.416,0,0,1,1.6.909v2.3h-1.09a3.4,3.4,0,0,0-.918-2.238A2.659,2.659,0,0,0,196.72,48a3.007,3.007,0,0,0-2.707,1.368,6.366,6.366,0,0,0-.889,3.529,11.692,11.692,0,0,0,.411,3.156,5.724,5.724,0,0,0,1.272,2.4,2.8,2.8,0,0,0,2.142.928,3.324,3.324,0,0,0,3.29-2.754h.727a4.35,4.35,0,0,1-.765,1.855,4.271,4.271,0,0,1-1.473,1.291A3.967,3.967,0,0,1,196.835,60.241Zm11.726,0a4.862,4.862,0,0,1-2.994-.88,5.027,5.027,0,0,1-1.712-2.286,8.391,8.391,0,0,1-.536-3.013,9.255,9.255,0,0,1,.545-3.147,5.622,5.622,0,0,1,1.788-2.525,4.893,4.893,0,0,1,3.175-1,4.947,4.947,0,0,1,3.013.88,5.17,5.17,0,0,1,1.76,2.286,7.961,7.961,0,0,1,.564,2.994,8.867,8.867,0,0,1-.574,3.137,5.858,5.858,0,0,1-1.827,2.544A4.931,4.931,0,0,1,208.561,60.241Zm.459-.631a2.814,2.814,0,0,0,2.563-1.406,7.148,7.148,0,0,0,.861-3.759,11.367,11.367,0,0,0-.411-3.089,5.574,5.574,0,0,0-1.31-2.4,3.065,3.065,0,0,0-2.315-.937,2.747,2.747,0,0,0-2.554,1.387,6.9,6.9,0,0,0-.813,3.529A10.652,10.652,0,0,0,206,57.659,3.167,3.167,0,0,0,209.02,59.61Zm12.988.631a4.862,4.862,0,0,1-2.994-.88,5.027,5.027,0,0,1-1.712-2.286,8.391,8.391,0,0,1-.536-3.013,9.255,9.255,0,0,1,.545-3.147,5.622,5.622,0,0,1,1.788-2.525,4.893,4.893,0,0,1,3.175-1,4.947,4.947,0,0,1,3.013.88,5.17,5.17,0,0,1,1.76,2.286,7.961,7.961,0,0,1,.564,2.994,8.866,8.866,0,0,1-.574,3.137,5.858,5.858,0,0,1-1.827,2.544A4.931,4.931,0,0,1,222.008,60.241Zm.459-.631A2.814,2.814,0,0,0,225.03,58.2a7.148,7.148,0,0,0,.861-3.759,11.366,11.366,0,0,0-.411-3.089,5.574,5.574,0,0,0-1.31-2.4,3.065,3.065,0,0,0-2.314-.937,2.747,2.747,0,0,0-2.554,1.387,6.9,6.9,0,0,0-.813,3.529,10.652,10.652,0,0,0,.956,4.725A3.167,3.167,0,0,0,222.467,59.61Zm13.026-11.993a3.92,3.92,0,0,1,2.812.9,3.088,3.088,0,0,1,.937,2.334,3.334,3.334,0,0,1-.45,1.722,3.2,3.2,0,0,1-1.3,1.215,4.222,4.222,0,0,1-2,.45h-2.41v5.088h1.53v.689h-4.686v-.689h1.53V48.306h-1.53v-.689Zm-.23,5.891a1.956,1.956,0,0,0,1.559-.736A3.227,3.227,0,0,0,236.851,49a1.977,1.977,0,0,0-1.588-.7h-2.181v5.2Zm15.551,3.137v3.367h-9.468v-.689h1.53V48.306h-1.53v-.689h9.315v3.328h-.727l-1.014-2.64H244.5v4.8h3V51.634h.88v3.673h-.88V53.834h-3v5.49h4.572l1.014-2.678Zm13.81,2.678v.689H261.7l-3.634-5.719h-1.779v5.031H257.8v.689h-4.667v-.689h1.53V48.306h-1.53v-.689H258.7a3.843,3.843,0,0,1,2.812.928,3.183,3.183,0,0,1,.937,2.362,3.271,3.271,0,0,1-.708,2.133,3.312,3.312,0,0,1-1.932,1.138l3.443,5.145Zm-8.34-5.758h2.2a1.956,1.956,0,0,0,1.559-.736,2.82,2.82,0,0,0,.622-1.884,2.9,2.9,0,0,0-.6-1.913,1.951,1.951,0,0,0-1.578-.727h-2.2Zm11.821,6.657a1.143,1.143,0,1,1,.813-.335A1.107,1.107,0,0,1,268.107,60.222Zm7.5.976a6.924,6.924,0,0,1-2.5-2.821,9.863,9.863,0,0,1-.851-4.333,9.937,9.937,0,0,1,.87-4.313,6.912,6.912,0,0,1,2.477-2.879l.287.268a5.9,5.9,0,0,0-1.635,2.716,14.012,14.012,0,0,0,0,8.378,5.9,5.9,0,0,0,1.635,2.716Zm8.149-7.881q2.678.861,2.678,3.175a3.286,3.286,0,0,1-.622,2.008,3.974,3.974,0,0,1-1.607,1.282,4.989,4.989,0,0,1-2.056.44,4.137,4.137,0,0,1-2.209-.593,4.368,4.368,0,0,1-1.521-1.549l.612-.383a3.072,3.072,0,0,0,1.3,1.282,3.62,3.62,0,0,0,1.664.421,2.97,2.97,0,0,0,1.329-.306,2.464,2.464,0,0,0,1.014-.937,2.844,2.844,0,0,0,.392-1.53,2.715,2.715,0,0,0-.775-2.037,2.645,2.645,0,0,0-1.922-.756h-.478v-.593a3.242,3.242,0,0,0,1.32-.287,2.493,2.493,0,0,0,1.071-.909,2.721,2.721,0,0,0,.421-1.559,2.843,2.843,0,0,0-.536-1.75,2.027,2.027,0,0,0-3.185.115,4.2,4.2,0,0,0-.622,2.075H278.99v-2.3a3.785,3.785,0,0,1,1.415-.918,5.1,5.1,0,0,1,1.875-.344,4.632,4.632,0,0,1,1.855.363,3.221,3.221,0,0,1,1.349,1.052,2.667,2.667,0,0,1,.507,1.626A3.135,3.135,0,0,1,283.753,53.317Zm11.362-5.7a4.911,4.911,0,0,1,4.113,1.655,6.776,6.776,0,0,1,1.3,4.313,8.563,8.563,0,0,1-.564,3.108,5.382,5.382,0,0,1-1.779,2.391,4.912,4.912,0,0,1-3.07.928H289.3v-.689h1.53V48.306H289.3v-.689Zm0,11.706a2.958,2.958,0,0,0,2.812-1.664,8.674,8.674,0,0,0,.88-4.093,7.059,7.059,0,0,0-.909-3.845,3.078,3.078,0,0,0-2.783-1.415h-2.659V59.323Zm13.256.918a4.862,4.862,0,0,1-2.994-.88,5.027,5.027,0,0,1-1.712-2.286,8.391,8.391,0,0,1-.536-3.013,9.255,9.255,0,0,1,.545-3.147,5.622,5.622,0,0,1,1.788-2.525,4.892,4.892,0,0,1,3.175-1,4.947,4.947,0,0,1,3.013.88,5.17,5.17,0,0,1,1.76,2.286,7.961,7.961,0,0,1,.564,2.994,8.865,8.865,0,0,1-.574,3.137,5.858,5.858,0,0,1-1.827,2.544A4.931,4.931,0,0,1,308.371,60.241Zm.459-.631a2.814,2.814,0,0,0,2.563-1.406,7.147,7.147,0,0,0,.861-3.759,11.367,11.367,0,0,0-.411-3.089,5.575,5.575,0,0,0-1.31-2.4,3.065,3.065,0,0,0-2.314-.937,2.747,2.747,0,0,0-2.554,1.387,6.9,6.9,0,0,0-.813,3.529,10.652,10.652,0,0,0,.956,4.725A3.167,3.167,0,0,0,308.83,59.61Zm12.988.631a4.862,4.862,0,0,1-2.994-.88,5.027,5.027,0,0,1-1.712-2.286,8.39,8.39,0,0,1-.536-3.013,9.256,9.256,0,0,1,.545-3.147,5.622,5.622,0,0,1,1.788-2.525,4.893,4.893,0,0,1,3.175-1,4.947,4.947,0,0,1,3.013.88,5.17,5.17,0,0,1,1.76,2.286,7.961,7.961,0,0,1,.564,2.994,8.867,8.867,0,0,1-.574,3.137,5.858,5.858,0,0,1-1.827,2.544A4.931,4.931,0,0,1,321.818,60.241Zm.459-.631A2.814,2.814,0,0,0,324.84,58.2a7.147,7.147,0,0,0,.861-3.759,11.366,11.366,0,0,0-.411-3.089,5.574,5.574,0,0,0-1.31-2.4,3.065,3.065,0,0,0-2.314-.937,2.747,2.747,0,0,0-2.554,1.387,6.9,6.9,0,0,0-.813,3.529,10.652,10.652,0,0,0,.956,4.725A3.167,3.167,0,0,0,322.277,59.61Zm18.956-.287v.689h-2.927l-3.634-5.719h-1.779v5.031H334.4v.689h-4.667v-.689h1.53V48.306h-1.53v-.689H335.3a3.843,3.843,0,0,1,2.812.928,3.183,3.183,0,0,1,.937,2.362,3.271,3.271,0,0,1-.708,2.133,3.312,3.312,0,0,1-1.932,1.138l3.443,5.145Zm-8.34-5.758h2.2a1.956,1.956,0,0,0,1.559-.736,2.82,2.82,0,0,0,.622-1.884,2.9,2.9,0,0,0-.6-1.913,1.951,1.951,0,0,0-1.578-.727h-2.2Zm10.1-6.714a6.925,6.925,0,0,1,2.5,2.821,9.863,9.863,0,0,1,.851,4.333,9.938,9.938,0,0,1-.87,4.313,6.913,6.913,0,0,1-2.477,2.879l-.287-.268a5.9,5.9,0,0,0,1.635-2.716,14.013,14.013,0,0,0,0-8.378,5.9,5.9,0,0,0-1.635-2.716Zm11.068,3.389,3.894,3.894.446-.446-3.894-3.894L358.4,45.9l-.446-.446-3.894,3.894-3.894-3.894-.446.446,3.894,3.894-3.894,3.894.446.446Zm-3.47-1.45a1,1,0,1,0,.982.993A1.007,1.007,0,0,0,350.592,48.79Zm6.985,0a1,1,0,1,0,.982.993A1.007,1.007,0,0,0,357.576,48.79Zm-3.492,3.5a1,1,0,1,0,.982.993A1.007,1.007,0,0,0,354.084,52.294Zm0-7a1,1,0,1,0,.982.993A1.007,1.007,0,0,0,354.084,45.3Zm6.583,6.248a3.067,3.067,0,0,0,.4,1.7,2.23,2.23,0,0,0,1.941.982,2.2,2.2,0,0,0,1.529-.536,2.724,2.724,0,0,0,.748-1.93,2.257,2.257,0,0,0-.591-1.607,2.165,2.165,0,0,0-1.038-.569,1.763,1.763,0,0,0,.859-.435,2.192,2.192,0,0,0,.6-1.562,2.162,2.162,0,0,0-4.095-1.015,3.059,3.059,0,0,0-.234,1.328h.982a2.618,2.618,0,0,1,.346-1.6,1.011,1.011,0,0,1,.848-.469c.714,0,1.16.625,1.16,1.64,0,1.216-.513,1.874-1.462,1.874h-.669V49.9h.647a1.415,1.415,0,0,1,1.238.48,2.541,2.541,0,0,1,.379,1.473,2.42,2.42,0,0,1-.446,1.506,1.107,1.107,0,0,1-.837.413,1.164,1.164,0,0,1-.915-.513,3.084,3.084,0,0,1-.4-1.707Zm13.383,8.523,9.545-14.652h-1.282l-9.545,14.652Zm29.209-.746v.689h-4.438v-.689h1.4L398.84,55.44h-4.113l-1.377,3.883h1.4v.689h-3.577v-.689h1.358l4.227-11.706h.9L401.9,59.323Zm-4.686-4.61-1.76-4.954h-.077l-1.76,4.954Zm6.523,4.61h1.53V48.306h-1.53v-.689h4.744v.689h-1.588V59.323h4.476l1.014-2.678h.727v3.367h-9.373Zm11.381,0h1.53V48.306h-1.53v-.689h4.744v.689h-1.588V59.323h4.476l1.014-2.678h.727v3.367h-9.373Zm11.5-4.706h4.189v.746h-4.189ZM444,56.645v3.367h-9.468v-.689h1.53V48.306h-1.53v-.689h9.315v3.328h-.727l-1.014-2.64h-4.419v4.8h3V51.634h.88v3.673h-.88V53.834h-3v5.49h4.572l1.014-2.678Zm2.314,2.678h1.53V48.306h-1.53v-.689h4.744v.689h-1.588V59.323h4.476l1.014-2.678h.727v3.367h-9.373Zm20.85-2.678v3.367H457.7v-.689h1.53V48.306H457.7v-.689h9.315v3.328h-.727l-1.014-2.64h-4.419v4.8h3V51.634h.88v3.673h-.88V53.834h-3v5.49h4.572l1.014-2.678Zm8.015,3.6a5.045,5.045,0,0,1-3.127-.918,5.153,5.153,0,0,1-1.75-2.343,8.438,8.438,0,0,1-.536-2.994,9.062,9.062,0,0,1,.555-3.166,5.511,5.511,0,0,1,1.779-2.468,4.849,4.849,0,0,1,3.1-.966,5.826,5.826,0,0,1,2.152.354,6.416,6.416,0,0,1,1.6.909v2.3h-1.09a3.4,3.4,0,0,0-.918-2.238A2.659,2.659,0,0,0,475.065,48a3.007,3.007,0,0,0-2.707,1.368,6.366,6.366,0,0,0-.889,3.529,11.69,11.69,0,0,0,.411,3.156,5.724,5.724,0,0,0,1.272,2.4,2.8,2.8,0,0,0,2.142.928,3.324,3.324,0,0,0,3.29-2.754h.727a4.35,4.35,0,0,1-.765,1.855,4.27,4.27,0,0,1-1.473,1.291A3.967,3.967,0,0,1,475.18,60.241Zm8.34-.918H485.2V48.306h-2.372l-.995,2.64h-.708V47.617h9.736v3.328h-.708l-.956-2.64h-2.372V59.323h1.683v.689H483.52Zm20.85,0v.689h-2.927l-3.634-5.719H496.03v5.031h1.511v.689h-4.667v-.689h1.53V48.306h-1.53v-.689h5.566a3.843,3.843,0,0,1,2.812.928,3.183,3.183,0,0,1,.937,2.362,3.271,3.271,0,0,1-.708,2.133,3.312,3.312,0,0,1-1.932,1.138l3.443,5.145Zm-8.34-5.758h2.2a1.956,1.956,0,0,0,1.559-.736,2.82,2.82,0,0,0,.622-1.884,2.9,2.9,0,0,0-.6-1.913,1.951,1.951,0,0,0-1.578-.727h-2.2Zm15.436,5.758v.689h-5.375v-.689h1.875V48.306h-1.8v-.689h5.222v.689h-1.8V59.323Zm7.766.918a5.045,5.045,0,0,1-3.127-.918,5.153,5.153,0,0,1-1.75-2.343,8.438,8.438,0,0,1-.536-2.994,9.061,9.061,0,0,1,.555-3.166,5.511,5.511,0,0,1,1.779-2.468,4.849,4.849,0,0,1,3.1-.966,5.826,5.826,0,0,1,2.152.354,6.415,6.415,0,0,1,1.6.909v2.3h-1.09a3.4,3.4,0,0,0-.918-2.238A2.658,2.658,0,0,0,519.117,48a3.007,3.007,0,0,0-2.707,1.368,6.366,6.366,0,0,0-.889,3.529,11.694,11.694,0,0,0,.411,3.156,5.725,5.725,0,0,0,1.272,2.4,2.8,2.8,0,0,0,2.142.928,3.324,3.324,0,0,0,3.29-2.754h.727a4.35,4.35,0,0,1-.765,1.855,4.27,4.27,0,0,1-1.473,1.291A3.968,3.968,0,0,1,519.232,60.241Z" transform="translate(472.84 7657.066)"/>
    <path id="パス_87" data-name="パス 87" d="M301.229,88.761l9.545-14.652h-1.282l-9.545,14.652Zm17.56-.746h1.53V77h-1.53v-.689h3.271l4.208,9.583,4.055-9.583h3.194V77h-1.53V88.015h1.53V88.7h-4.686v-.689h1.53v-9.66L326.268,88h-.88l-4.246-9.717v9.736h1.473V88.7h-3.826Zm22.361,0V88.7h-5.375v-.689h1.875V77h-1.8v-.689h5.222V77h-1.8V88.015Zm2.257,0h1.53V77h-1.53v-.689h3.118l5.758,9.3V77h-1.53v-.689h3.883V77H353.1V88.7h-.88l-6.465-10.54v9.851h1.53V88.7h-3.883Zm18.669,0V88.7H356.7v-.689h1.875V77h-1.8v-.689H362V77h-1.8V88.015Zm10.54.918a3.271,3.271,0,0,1-1.655-.354,3.968,3.968,0,0,1-1.1-.985V85.338h1.033a6.038,6.038,0,0,0,.516,2.276,1.266,1.266,0,0,0,1.186.689q1.435,0,1.435-2.066V77h-1.588v-.689h4.763V77h-1.549V85.72a3.109,3.109,0,0,1-.88,2.4A3.067,3.067,0,0,1,372.615,88.934Zm11.955,0a4.862,4.862,0,0,1-2.994-.88,5.027,5.027,0,0,1-1.712-2.286,8.391,8.391,0,0,1-.536-3.013,9.255,9.255,0,0,1,.545-3.147,5.621,5.621,0,0,1,1.788-2.525,4.892,4.892,0,0,1,3.175-1,4.947,4.947,0,0,1,3.013.88,5.17,5.17,0,0,1,1.76,2.286,7.961,7.961,0,0,1,.564,2.994,8.867,8.867,0,0,1-.574,3.137,5.858,5.858,0,0,1-1.827,2.544A4.931,4.931,0,0,1,384.57,88.934Zm.459-.631a2.814,2.814,0,0,0,2.563-1.406,7.148,7.148,0,0,0,.861-3.759,11.367,11.367,0,0,0-.411-3.089,5.574,5.574,0,0,0-1.31-2.4,3.065,3.065,0,0,0-2.314-.937,2.747,2.747,0,0,0-2.554,1.387,6.9,6.9,0,0,0-.813,3.529,10.652,10.652,0,0,0,.956,4.725A3.167,3.167,0,0,0,385.029,88.3ZM402.914,77V88.015h1.53V88.7H399.8v-.689h1.492v-5.49h-5.643v5.49h1.492V88.7h-4.648v-.689h1.53V77h-1.53v-.689h4.648V77h-1.492v4.8h5.643V77H399.8v-.689h4.648V77ZM406.7,88.015h1.53V77H406.7v-.689h3.118l5.758,9.3V77h-1.53v-.689h3.883V77H416.4V88.7h-.88l-6.465-10.54v9.851h1.53V88.7H406.7Zm24.484.918a5.045,5.045,0,0,1-3.127-.918,5.154,5.154,0,0,1-1.75-2.343,8.438,8.438,0,0,1-.536-2.994,9.062,9.062,0,0,1,.555-3.166,5.51,5.51,0,0,1,1.779-2.468,4.849,4.849,0,0,1,3.1-.966,5.827,5.827,0,0,1,2.152.354,6.416,6.416,0,0,1,1.6.909v2.3h-1.09a3.4,3.4,0,0,0-.918-2.238,2.659,2.659,0,0,0-1.875-.708,3.007,3.007,0,0,0-2.707,1.368,6.366,6.366,0,0,0-.889,3.529,11.691,11.691,0,0,0,.411,3.156,5.724,5.724,0,0,0,1.272,2.4,2.8,2.8,0,0,0,2.142.928,3.324,3.324,0,0,0,3.29-2.754h.727a4.35,4.35,0,0,1-.765,1.855,4.27,4.27,0,0,1-1.473,1.291A3.967,3.967,0,0,1,431.185,88.934Zm11.726,0a4.862,4.862,0,0,1-2.994-.88,5.027,5.027,0,0,1-1.712-2.286,8.391,8.391,0,0,1-.536-3.013,9.256,9.256,0,0,1,.545-3.147A5.622,5.622,0,0,1,440,77.084a4.893,4.893,0,0,1,3.175-1,4.947,4.947,0,0,1,3.013.88,5.17,5.17,0,0,1,1.76,2.286,7.961,7.961,0,0,1,.564,2.994,8.867,8.867,0,0,1-.574,3.137,5.858,5.858,0,0,1-1.827,2.544A4.931,4.931,0,0,1,442.911,88.934Zm.459-.631a2.814,2.814,0,0,0,2.563-1.406,7.147,7.147,0,0,0,.861-3.759,11.366,11.366,0,0,0-.411-3.089,5.574,5.574,0,0,0-1.31-2.4,3.065,3.065,0,0,0-2.314-.937A2.747,2.747,0,0,0,440.2,78.1a6.9,6.9,0,0,0-.813,3.529,10.652,10.652,0,0,0,.956,4.725A3.167,3.167,0,0,0,443.37,88.3Zm12.988.631a4.862,4.862,0,0,1-2.994-.88,5.027,5.027,0,0,1-1.712-2.286,8.39,8.39,0,0,1-.536-3.013,9.255,9.255,0,0,1,.545-3.147,5.622,5.622,0,0,1,1.788-2.525,4.892,4.892,0,0,1,3.175-1,4.947,4.947,0,0,1,3.013.88,5.17,5.17,0,0,1,1.76,2.286,7.96,7.96,0,0,1,.564,2.994,8.867,8.867,0,0,1-.574,3.137,5.858,5.858,0,0,1-1.827,2.544A4.931,4.931,0,0,1,456.358,88.934Zm.459-.631A2.814,2.814,0,0,0,459.38,86.9a7.148,7.148,0,0,0,.861-3.759,11.367,11.367,0,0,0-.411-3.089,5.574,5.574,0,0,0-1.31-2.4,3.065,3.065,0,0,0-2.314-.937,2.747,2.747,0,0,0-2.554,1.387,6.9,6.9,0,0,0-.813,3.529,10.652,10.652,0,0,0,.956,4.725A3.167,3.167,0,0,0,456.817,88.3Zm13.026-11.993a3.92,3.92,0,0,1,2.812.9,3.088,3.088,0,0,1,.937,2.334,3.334,3.334,0,0,1-.45,1.722,3.2,3.2,0,0,1-1.3,1.215,4.222,4.222,0,0,1-2,.45h-2.41v5.088h1.53V88.7h-4.686v-.689h1.53V77h-1.53v-.689Zm-.23,5.891a1.956,1.956,0,0,0,1.559-.736A3.226,3.226,0,0,0,471.2,77.7a1.977,1.977,0,0,0-1.588-.7h-2.181v5.2Zm15.551,3.137V88.7H475.7v-.689h1.53V77H475.7v-.689h9.315v3.328h-.727L483.271,77h-4.419v4.8h3V80.326h.88V84h-.88V82.526h-3v5.49h4.572l1.014-2.678Zm13.81,2.678V88.7h-2.927l-3.634-5.719h-1.779v5.031h1.511V88.7h-4.667v-.689h1.53V77h-1.53v-.689h5.566a3.843,3.843,0,0,1,2.812.928,3.183,3.183,0,0,1,.937,2.362,3.271,3.271,0,0,1-.708,2.133,3.312,3.312,0,0,1-1.932,1.138l3.443,5.145Zm-8.34-5.758h2.2a1.956,1.956,0,0,0,1.559-.736,2.82,2.82,0,0,0,.622-1.884,2.9,2.9,0,0,0-.6-1.913A1.951,1.951,0,0,0,492.835,77h-2.2ZM524.091,77h-1.416L519.366,88.7h-.88l-3.424-9.679L511.944,88.7h-.88L507.564,77h-1.511v-.689h4.782V77H509.3l2.621,9.124,3.118-9.736h.8l3.5,9.679L521.853,77h-1.511v-.689h3.749ZM530.4,88.934a4.862,4.862,0,0,1-2.994-.88,5.027,5.027,0,0,1-1.712-2.286,8.391,8.391,0,0,1-.536-3.013,9.256,9.256,0,0,1,.545-3.147,5.622,5.622,0,0,1,1.789-2.525,4.892,4.892,0,0,1,3.175-1,4.947,4.947,0,0,1,3.013.88,5.17,5.17,0,0,1,1.76,2.286,7.961,7.961,0,0,1,.564,2.994,8.866,8.866,0,0,1-.574,3.137,5.858,5.858,0,0,1-1.827,2.544A4.931,4.931,0,0,1,530.4,88.934Zm.459-.631a2.814,2.814,0,0,0,2.563-1.406,7.148,7.148,0,0,0,.861-3.759,11.367,11.367,0,0,0-.411-3.089,5.574,5.574,0,0,0-1.31-2.4,3.065,3.065,0,0,0-2.314-.937A2.747,2.747,0,0,0,527.7,78.1a6.9,6.9,0,0,0-.813,3.529,10.652,10.652,0,0,0,.956,4.725A3.167,3.167,0,0,0,530.862,88.3Zm18.956-.287V88.7h-2.927l-3.634-5.719h-1.779v5.031h1.511V88.7h-4.667v-.689h1.53V77h-1.53v-.689h5.566a3.843,3.843,0,0,1,2.812.928,3.183,3.183,0,0,1,.937,2.362,3.271,3.271,0,0,1-.708,2.133A3.313,3.313,0,0,1,545,82.87l3.443,5.145Zm-8.34-5.758h2.2a1.956,1.956,0,0,0,1.559-.736,2.82,2.82,0,0,0,.622-1.884,2.9,2.9,0,0,0-.6-1.913A1.951,1.951,0,0,0,543.678,77h-2.2Zm21.251,5.758V88.7h-2.984l-4.38-6.178h-.689v5.49h1.492V88.7h-4.629v-.689h1.511V77h-1.511v-.689h4.629V77h-1.492v4.8h.937l4-4.8H558.2v-.689h3.864V77h-1.415l-3.9,4.725,4.572,6.293Zm5.6.918a5.908,5.908,0,0,1-2.19-.383,3.466,3.466,0,0,1-1.425-.937V85.357h1.033a3.8,3.8,0,0,0,.861,2.286,2.4,2.4,0,0,0,1.76.66,2.517,2.517,0,0,0,1.827-.622,2.224,2.224,0,0,0,.641-1.674,2.138,2.138,0,0,0-1.052-1.913l-3.4-2.2a4.087,4.087,0,0,1-1.215-1.129,2.72,2.72,0,0,1-.43-1.569,2.822,2.822,0,0,1,1-2.267,4.142,4.142,0,0,1,2.764-.851,5.571,5.571,0,0,1,1.961.325,3.674,3.674,0,0,1,1.425.918v2.314h-1.033a4.086,4.086,0,0,0-.727-2.3,2.069,2.069,0,0,0-1.626-.641,2.235,2.235,0,0,0-1.75.612,2.138,2.138,0,0,0-.545,1.473,1.82,1.82,0,0,0,.88,1.645l3.347,2.142a4.833,4.833,0,0,1,1.5,1.368,2.885,2.885,0,0,1,.45,1.6,3.173,3.173,0,0,1-1.865,2.965A4.988,4.988,0,0,1,568.334,88.934Zm21.6-3.6V88.7h-9.468v-.689h1.53V77h-1.53v-.689h9.315v3.328h-.727L588.036,77h-4.419v4.8h3V80.326h.88V84h-.88V82.526h-3v5.49h4.572l1.014-2.678Zm3.692,3.577a1.143,1.143,0,1,1,.813-.335A1.107,1.107,0,0,1,593.621,88.915Zm8.582-9.981,3.894,3.894.446-.446-3.894-3.894,3.894-3.894-.446-.446L602.2,78.04l-3.894-3.894-.446.446,3.894,3.894-3.894,3.894.446.446Zm-3.47-1.45a1,1,0,1,0,.982.993A1.007,1.007,0,0,0,598.733,77.483Zm6.985,0a1,1,0,1,0,.982.993A1.007,1.007,0,0,0,605.718,77.483Zm-3.492,3.5a1,1,0,1,0,.982.993A1.007,1.007,0,0,0,602.225,80.986Zm0-7a1,1,0,1,0,.982.993A1.007,1.007,0,0,0,602.225,73.99Zm6.583,6.248a3.067,3.067,0,0,0,.4,1.7,2.23,2.23,0,0,0,1.941.982,2.2,2.2,0,0,0,1.529-.536,2.724,2.724,0,0,0,.747-1.93,2.257,2.257,0,0,0-.591-1.607,2.165,2.165,0,0,0-1.038-.569,1.763,1.763,0,0,0,.859-.435,2.192,2.192,0,0,0,.6-1.562,2.162,2.162,0,0,0-4.095-1.015,3.058,3.058,0,0,0-.234,1.328h.982a2.618,2.618,0,0,1,.346-1.6,1.012,1.012,0,0,1,.848-.469c.714,0,1.16.625,1.16,1.64,0,1.216-.513,1.874-1.462,1.874h-.669v.547h.647a1.414,1.414,0,0,1,1.238.48,2.541,2.541,0,0,1,.379,1.473,2.421,2.421,0,0,1-.446,1.506,1.107,1.107,0,0,1-.837.413,1.164,1.164,0,0,1-.915-.513,3.083,3.083,0,0,1-.4-1.707Z" transform="translate(174.353 7682.89)"/>
    <path id="パス_88" data-name="パス 88" d="M531.111,59.323h1.53V48.306h-1.53v-.689h3.271L538.59,57.2l4.055-9.583h3.194v.689h-1.53V59.323h1.53v.689h-4.686v-.689h1.53v-9.66L538.59,59.3h-.88l-4.246-9.717v9.736h1.473v.689h-3.826Zm22.361,0v.689H548.1v-.689h1.875V48.306h-1.8v-.689h5.222v.689h-1.8V59.323Zm2.257,0h1.53V48.306h-1.53v-.689h3.118l5.758,9.3V48.306h-1.53v-.689h3.883v.689h-1.53V60.012h-.88l-6.465-10.54v9.851h1.53v.689h-3.883Zm18.669,0v.689h-5.375v-.689H570.9V48.306h-1.8v-.689h5.222v.689h-1.8V59.323Zm13.447.918a5.046,5.046,0,0,1-3.127-.918,5.153,5.153,0,0,1-1.75-2.343,8.438,8.438,0,0,1-.536-2.994,9.062,9.062,0,0,1,.555-3.166,5.511,5.511,0,0,1,1.779-2.468,4.849,4.849,0,0,1,3.1-.966,5.826,5.826,0,0,1,2.152.354,6.415,6.415,0,0,1,1.6.909v2.3h-1.09a3.4,3.4,0,0,0-.918-2.238A2.658,2.658,0,0,0,587.73,48a3.007,3.007,0,0,0-2.707,1.368,6.366,6.366,0,0,0-.889,3.529,11.692,11.692,0,0,0,.411,3.156,5.724,5.724,0,0,0,1.272,2.4,2.8,2.8,0,0,0,2.142.928,3.324,3.324,0,0,0,3.29-2.754h.727a4.35,4.35,0,0,1-.765,1.855,4.27,4.27,0,0,1-1.473,1.291A3.968,3.968,0,0,1,587.845,60.241Zm11.726,0a4.862,4.862,0,0,1-2.994-.88,5.027,5.027,0,0,1-1.712-2.286,8.39,8.39,0,0,1-.536-3.013,9.256,9.256,0,0,1,.545-3.147,5.622,5.622,0,0,1,1.789-2.525,4.892,4.892,0,0,1,3.175-1,4.947,4.947,0,0,1,3.013.88,5.17,5.17,0,0,1,1.76,2.286,7.96,7.96,0,0,1,.564,2.994,8.867,8.867,0,0,1-.574,3.137,5.858,5.858,0,0,1-1.827,2.544A4.931,4.931,0,0,1,599.57,60.241Zm.459-.631a2.814,2.814,0,0,0,2.563-1.406,7.148,7.148,0,0,0,.861-3.759,11.367,11.367,0,0,0-.411-3.089,5.575,5.575,0,0,0-1.31-2.4,3.065,3.065,0,0,0-2.315-.937,2.747,2.747,0,0,0-2.554,1.387,6.9,6.9,0,0,0-.813,3.529,10.653,10.653,0,0,0,.956,4.725A3.167,3.167,0,0,0,600.029,59.61Zm12.931.631a4.236,4.236,0,0,1-3.041-1.071,4.044,4.044,0,0,1-1.129-3.08V48.306h-1.53v-.689h4.686v.689h-1.53v7.976a3.094,3.094,0,0,0,.794,2.353,2.934,2.934,0,0,0,2.094.746,3.051,3.051,0,0,0,2.133-.756,2.988,2.988,0,0,0,.832-2.324v-8h-1.511v-.689H618.6v.689h-1.511v8.072a3.66,3.66,0,0,1-1.129,2.812A4.227,4.227,0,0,1,612.96,60.241Zm7.67-.918h1.53V48.306h-1.53v-.689h3.118l5.758,9.3V48.306h-1.53v-.689h3.883v.689h-1.53V60.012h-.88l-6.465-10.54v9.851h1.53v.689H620.63Zm15.436,0h1.683V48.306h-2.372l-.995,2.64h-.708V47.617h9.736v3.328H642.7l-.956-2.64h-2.372V59.323h1.683v.689h-4.992Zm20.85,0v.689H653.99l-3.634-5.719h-1.779v5.031h1.511v.689H645.42v-.689h1.53V48.306h-1.53v-.689h5.566a3.843,3.843,0,0,1,2.812.928,3.183,3.183,0,0,1,.937,2.362,3.271,3.271,0,0,1-.708,2.133,3.313,3.313,0,0,1-1.932,1.138l3.443,5.145Zm-8.34-5.758h2.2a1.956,1.956,0,0,0,1.559-.736,2.821,2.821,0,0,0,.622-1.884,2.9,2.9,0,0,0-.6-1.913,1.951,1.951,0,0,0-1.578-.727h-2.2Zm14.709.823v4.935h1.683v.689h-4.992v-.689h1.683V54.886l-3.271-6.58h-1.53v-.689h4.859v.689h-1.53l2.64,5.375,2.754-5.375h-1.53v-.689h3.921v.689h-1.53Zm6.312,4.935h1.53V48.306H669.6v-.689h3.271l4.208,9.583,4.055-9.583h3.194v.689H682.8V59.323h1.53v.689H679.64v-.689h1.53v-9.66L677.077,59.3h-.88l-4.246-9.717v9.736h1.473v.689H669.6Zm28.635,0v.689H693.8v-.689h1.4l-1.377-3.883H689.7l-1.377,3.883h1.4v.689h-3.577v-.689H687.5l4.227-11.706h.9l4.246,11.706Zm-4.686-4.61-1.76-4.954h-.077l-1.76,4.954Zm6.523,4.61h1.53V48.306h-1.53v-.689h3.118l5.758,9.3V48.306h-1.53v-.689H711.3v.689h-1.53V60.012h-.88l-6.465-10.54v9.851h1.53v.689h-3.883Zm14.671.9a1.143,1.143,0,1,1,.813-.335A1.107,1.107,0,0,1,714.74,60.222Zm8.582-9.981,3.894,3.894.446-.446-3.894-3.894,3.894-3.894-.446-.446-3.894,3.894-3.894-3.894-.446.446,3.894,3.894-3.894,3.894.446.446Zm-3.47-1.45a1,1,0,1,0,.982.993A1.007,1.007,0,0,0,719.852,48.79Zm6.984,0a1,1,0,1,0,.982.993A1.007,1.007,0,0,0,726.837,48.79Zm-3.492,3.5a1,1,0,1,0,.982.993A1.007,1.007,0,0,0,723.345,52.294Zm0-7a1,1,0,1,0,.982.993A1.007,1.007,0,0,0,723.345,45.3Zm6.583,6.248a3.067,3.067,0,0,0,.4,1.7,2.23,2.23,0,0,0,1.941.982,2.2,2.2,0,0,0,1.529-.536,2.724,2.724,0,0,0,.747-1.93,2.257,2.257,0,0,0-.591-1.607,2.165,2.165,0,0,0-1.038-.569,1.763,1.763,0,0,0,.859-.435,2.192,2.192,0,0,0,.6-1.562,2.162,2.162,0,0,0-4.095-1.015,3.061,3.061,0,0,0-.234,1.328h.982a2.618,2.618,0,0,1,.346-1.6,1.011,1.011,0,0,1,.848-.469c.714,0,1.16.625,1.16,1.64,0,1.216-.513,1.874-1.462,1.874h-.669V49.9h.647a1.415,1.415,0,0,1,1.239.48,2.542,2.542,0,0,1,.379,1.473,2.421,2.421,0,0,1-.446,1.506,1.107,1.107,0,0,1-.837.413,1.164,1.164,0,0,1-.915-.513,3.084,3.084,0,0,1-.4-1.707Z" transform="translate(-56.81 7684.802)"/>
    <path id="パス_89" data-name="パス 89" d="M12.249,88.015V88.7H7.811v-.689h1.4L7.83,84.132H3.718L2.341,88.015h1.4V88.7H.16v-.689H1.518L5.745,76.309h.9l4.246,11.706Zm-4.686-4.61L5.8,78.451H5.726l-1.76,4.954Zm6.523,4.61h1.53V77h-1.53v-.689h4.744V77H17.241V88.015h4.476l1.014-2.678h.727V88.7H14.085Zm11.381,0H27V77h-1.53v-.689H30.21V77H28.623V88.015H33.1l1.014-2.678h.727V88.7H25.466Zm11.5-4.706h4.189v.746H36.962Zm16.029,2.028V88.7H43.523v-.689h1.53V77h-1.53v-.689h9.315v3.328h-.727L51.1,77H46.68v4.8h3V80.326h.88V84h-.88V82.526h-3v5.49h4.572l1.014-2.678Zm2.314,2.678h1.53V77h-1.53v-.689H60.05V77H58.462V88.015h4.476l1.014-2.678h.727V88.7H55.306Zm20.85-2.678V88.7H66.688v-.689h1.53V77h-1.53v-.689H76v3.328h-.727L74.262,77H69.844v4.8h3V80.326h.88V84h-.88V82.526h-3v5.49h4.572l1.014-2.678Zm8.015,3.6a5.045,5.045,0,0,1-3.127-.918,5.153,5.153,0,0,1-1.75-2.343,8.438,8.438,0,0,1-.536-2.994,9.061,9.061,0,0,1,.555-3.166,5.51,5.51,0,0,1,1.779-2.468,4.849,4.849,0,0,1,3.1-.966,5.826,5.826,0,0,1,2.152.354,6.416,6.416,0,0,1,1.6.909v2.3h-1.09A3.4,3.4,0,0,0,85.93,77.4a2.659,2.659,0,0,0-1.875-.708,3.007,3.007,0,0,0-2.707,1.368,6.366,6.366,0,0,0-.889,3.529,11.692,11.692,0,0,0,.411,3.156,5.724,5.724,0,0,0,1.272,2.4,2.8,2.8,0,0,0,2.142.928,3.324,3.324,0,0,0,3.29-2.754H88.3a4.35,4.35,0,0,1-.765,1.855,4.27,4.27,0,0,1-1.473,1.291A3.967,3.967,0,0,1,84.171,88.934Zm8.34-.918h1.683V77H91.822l-.995,2.64h-.708V76.309h9.736v3.328h-.708L98.192,77H95.82V88.015H97.5V88.7H92.511Zm20.85,0V88.7h-2.927L106.8,82.985H105.02v5.031h1.511V88.7h-4.667v-.689h1.53V77h-1.53v-.689h5.566a3.843,3.843,0,0,1,2.812.928,3.183,3.183,0,0,1,.937,2.362,3.271,3.271,0,0,1-.708,2.133,3.312,3.312,0,0,1-1.932,1.138l3.443,5.145Zm-8.34-5.758h2.2a1.956,1.956,0,0,0,1.559-.736,2.82,2.82,0,0,0,.622-1.884,2.9,2.9,0,0,0-.6-1.913A1.951,1.951,0,0,0,107.22,77h-2.2Zm15.436,5.758V88.7h-5.375v-.689h1.875V77h-1.8v-.689h5.222V77h-1.8V88.015Zm7.766.918a5.045,5.045,0,0,1-3.127-.918,5.153,5.153,0,0,1-1.75-2.343,8.438,8.438,0,0,1-.536-2.994,9.061,9.061,0,0,1,.555-3.166,5.51,5.51,0,0,1,1.779-2.468,4.849,4.849,0,0,1,3.1-.966,5.826,5.826,0,0,1,2.152.354,6.416,6.416,0,0,1,1.6.909v2.3H130.9a3.4,3.4,0,0,0-.918-2.238,2.659,2.659,0,0,0-1.875-.708,3.007,3.007,0,0,0-2.707,1.368,6.366,6.366,0,0,0-.889,3.529,11.692,11.692,0,0,0,.411,3.156,5.724,5.724,0,0,0,1.272,2.4,2.8,2.8,0,0,0,2.142.928,3.324,3.324,0,0,0,3.29-2.754h.727a4.35,4.35,0,0,1-.765,1.855,4.27,4.27,0,0,1-1.473,1.291A3.967,3.967,0,0,1,128.223,88.934Zm11.879-.918h1.53V77H140.1v-.689h3.271l4.208,9.583,4.055-9.583h3.194V77H153.3V88.015h1.53V88.7h-4.686v-.689h1.53v-9.66L147.58,88h-.88l-4.246-9.717v9.736h1.473V88.7H140.1Zm22.361,0V88.7h-5.375v-.689h1.875V77h-1.8v-.689h5.222V77h-1.8V88.015Zm2.257,0h1.53V77h-1.53v-.689h3.118l5.758,9.3V77h-1.53v-.689h3.883V77h-1.53V88.7h-.88l-6.465-10.54v9.851h1.53V88.7h-3.883Zm18.669,0V88.7h-5.375v-.689h1.875V77h-1.8v-.689h5.222V77h-1.8V88.015Zm19.587,0V88.7h-4.438v-.689h1.4l-1.377-3.883h-4.113l-1.377,3.883h1.4V88.7h-3.577v-.689h1.358l4.227-11.706h.9l4.246,11.706Zm-4.686-4.61-1.76-4.954h-.077l-1.76,4.954Zm11.247,5.528a5.045,5.045,0,0,1-3.127-.918,5.153,5.153,0,0,1-1.75-2.343,8.439,8.439,0,0,1-.536-2.994,9.061,9.061,0,0,1,.555-3.166,5.51,5.51,0,0,1,1.779-2.468,4.849,4.849,0,0,1,3.1-.966,5.826,5.826,0,0,1,2.152.354,6.416,6.416,0,0,1,1.6.909v2.3h-1.09A3.4,3.4,0,0,0,211.3,77.4a2.659,2.659,0,0,0-1.875-.708,3.007,3.007,0,0,0-2.707,1.368,6.366,6.366,0,0,0-.889,3.529,11.692,11.692,0,0,0,.411,3.156,5.724,5.724,0,0,0,1.272,2.4,2.8,2.8,0,0,0,2.142.928,3.324,3.324,0,0,0,3.29-2.754h.727a4.35,4.35,0,0,1-.765,1.855,4.27,4.27,0,0,1-1.473,1.291A3.967,3.967,0,0,1,209.536,88.934Zm15.666-3.6V88.7h-9.468v-.689h1.53V77h-1.53v-.689h9.315v3.328h-.727L223.309,77H218.89v4.8h3V80.326h.88V84h-.88V82.526h-3v5.49h4.572l1.014-2.678Zm2.314,2.678h1.53V77h-1.53v-.689h3.271L235,85.892l4.055-9.583h3.194V77h-1.53V88.015h1.53V88.7h-4.686v-.689h1.53v-9.66L235,88h-.88l-4.246-9.717v9.736h1.473V88.7h-3.826Zm28.635,0V88.7h-4.438v-.689h1.4l-1.377-3.883H247.62l-1.377,3.883h1.4V88.7h-3.577v-.689h1.358l4.227-11.706h.9l4.246,11.706Zm-4.686-4.61-1.76-4.954h-.077l-1.76,4.954Zm6.523,4.61h1.53V77h-1.53v-.689h3.118l5.758,9.3V77h-1.53v-.689h3.883V77h-1.53V88.7h-.88l-6.465-10.54v9.851h1.53V88.7h-3.883Zm14.671.9a1.143,1.143,0,1,1,.813-.335A1.107,1.107,0,0,1,272.659,88.915Zm8.582-9.981,3.894,3.894.446-.446-3.894-3.894,3.894-3.894-.446-.446-3.894,3.894-3.894-3.894-.446.446,3.894,3.894L276.9,82.381l.446.446Zm-3.47-1.45a1,1,0,1,0,.982.993A1.007,1.007,0,0,0,277.771,77.483Zm6.985,0a1,1,0,1,0,.982.993A1.007,1.007,0,0,0,284.755,77.483Zm-3.492,3.5a1,1,0,1,0,.982.993A1.007,1.007,0,0,0,281.263,80.986Zm0-7a1,1,0,1,0,.982.993A1.007,1.007,0,0,0,281.263,73.99Zm6.583,6.248a3.067,3.067,0,0,0,.4,1.7,2.23,2.23,0,0,0,1.941.982,2.2,2.2,0,0,0,1.529-.536,2.724,2.724,0,0,0,.747-1.93,2.257,2.257,0,0,0-.591-1.607,2.165,2.165,0,0,0-1.038-.569,1.763,1.763,0,0,0,.859-.435,2.192,2.192,0,0,0,.6-1.562,2.162,2.162,0,0,0-4.095-1.015,3.06,3.06,0,0,0-.234,1.328h.982a2.619,2.619,0,0,1,.346-1.6,1.012,1.012,0,0,1,.848-.469c.714,0,1.16.625,1.16,1.64,0,1.216-.513,1.874-1.462,1.874h-.669v.547h.647a1.415,1.415,0,0,1,1.238.48,2.541,2.541,0,0,1,.379,1.473,2.42,2.42,0,0,1-.446,1.506,1.107,1.107,0,0,1-.837.413,1.164,1.164,0,0,1-.915-.513,3.084,3.084,0,0,1-.4-1.707Z" transform="translate(708.84 7656.11)"/>
    <path id="パス_90" data-name="パス 90" d="M301.229,88.761l9.545-14.652h-1.282l-9.545,14.652Z" transform="translate(388.572 7656.11)"/>
  </g>
</svg>
