<svg xmlns="http://www.w3.org/2000/svg" width="612" height="100" viewBox="0 0 612 100">
  <g id="sec06-tit01-sp" transform="translate(-6 -3661.64)">
    <g id="グループ_906" data-name="グループ 906" transform="translate(-0.46 -162)">
      <path id="パス_155" data-name="パス 155" d="M.66-.72h1.6V-12.24H.66v-.72H4.08L8.48-2.94l4.24-10.02h3.34v.72h-1.6V-.72h1.6V0h-4.9V-.72h1.6v-10.1L8.48-.74H7.56L3.12-10.9V-.72H4.66V0h-4Zm23.38,0V0H18.42V-.72h1.96V-12.24H18.5v-.72h5.46v.72H22.08V-.72Zm2.36,0H28V-12.24H26.4v-.72h3.26l6.02,9.72v-9h-1.6v-.72h4.06v.72h-1.6V0h-.92L28.86-11.02V-.72h1.6V0H26.4Zm19.52,0V0H40.3V-.72h1.96V-12.24H40.38v-.72h5.46v.72H43.96V-.72ZM57.84.36a11.539,11.539,0,0,0,5.5-2A7.076,7.076,0,0,0,66.22-7.5c0-4.4-3.26-7.3-8.24-7.3a9.185,9.185,0,0,0-6,1.98,8.189,8.189,0,0,0-2.94,6.38c0,3,1.38,5.18,3.26,5.18a3.483,3.483,0,0,0,2.52-1.38A12.263,12.263,0,0,0,57.04-6.5a32.551,32.551,0,0,0,1.7-7.26,5.391,5.391,0,0,1,3.08,1.02,6.124,6.124,0,0,1,2.46,5.1,6.977,6.977,0,0,1-3.42,6.06A11.692,11.692,0,0,1,57.68-.26ZM56.98-13.8a37.629,37.629,0,0,1-.92,4.88c-1,3.8-2.56,6.62-3.68,6.62-.94,0-1.7-1.78-1.7-4.06a7.857,7.857,0,0,1,1.94-5.24A6.327,6.327,0,0,1,56.98-13.8Zm22.4,3.22c.28-.22.38-.36.38-.52a.374.374,0,0,0-.38-.32l-2.02-.16.16,1.16v1.1c-.06,3.4-.62,5.18-2.12,6.64A12.887,12.887,0,0,1,71.06.02l.18.54a12.067,12.067,0,0,0,5.2-2.3,7.072,7.072,0,0,0,2.74-4.92,10.523,10.523,0,0,0,8.08-8.18H71.58l-.88-.18v1.28l.88-.18H84.94a10.287,10.287,0,0,1-5.66,6.5c.06-.68.1-1.32.1-1.98Zm22.52-.14a51.419,51.419,0,0,0,4.26-3.76c.54-.06.76-.2.76-.48a.62.62,0,0,0-.32-.46l-1.54-1.02-.72,1.08a38.909,38.909,0,0,1-13.12,9.1l.22.6a26.378,26.378,0,0,0,8.6-3.72V1.06h1.86Zm12.64-2.2h11.32V-2.24H114.48l-.9-.18v1.28l.9-.18H127.8V-13.84H114.54l-.88-.18v1.28Zm35.6.4a19.852,19.852,0,0,1-5.1,6.48c-2.66,2.16-4.94,3.18-9.18,4.06l-1.06.02.72,1.78c.12.28.3.44.5.44.22,0,.38-.14.52-.46,4.52-1.02,7.36-2.38,9.82-4.7a16.858,16.858,0,0,0,4.34-7.36ZM134.62-14.7a18.8,18.8,0,0,1,4.98,4.28l1.64-1.66a12.342,12.342,0,0,0-6.38-3.14ZM165.32-.78h1.12V-15.42h5.58v-1.12h-6.7ZM180.24-7q2.8.9,2.8,3.32a3.436,3.436,0,0,1-.65,2.1,4.155,4.155,0,0,1-1.68,1.34,5.216,5.216,0,0,1-2.15.46,4.325,4.325,0,0,1-2.31-.62,4.567,4.567,0,0,1-1.59-1.62l.64-.4a3.212,3.212,0,0,0,1.36,1.34,3.785,3.785,0,0,0,1.74.44,3.105,3.105,0,0,0,1.39-.32,2.576,2.576,0,0,0,1.06-.98,2.974,2.974,0,0,0,.41-1.6,2.839,2.839,0,0,0-.81-2.13,2.765,2.765,0,0,0-2.01-.79h-.5v-.62a3.389,3.389,0,0,0,1.38-.3,2.607,2.607,0,0,0,1.12-.95,2.844,2.844,0,0,0,.44-1.63,2.972,2.972,0,0,0-.56-1.83,1.9,1.9,0,0,0-1.62-.75,1.908,1.908,0,0,0-1.71.87,4.387,4.387,0,0,0-.65,2.17h-1.08v-2.4a3.958,3.958,0,0,1,1.48-.96,5.33,5.33,0,0,1,1.96-.36,4.843,4.843,0,0,1,1.94.38,3.367,3.367,0,0,1,1.41,1.1,2.789,2.789,0,0,1,.53,1.7Q182.58-8.02,180.24-7Zm17.82-5.96a5.134,5.134,0,0,1,4.3,1.73,7.085,7.085,0,0,1,1.36,4.51,8.954,8.954,0,0,1-.59,3.25,5.628,5.628,0,0,1-1.86,2.5,5.136,5.136,0,0,1-3.21.97h-6.08V-.72h1.6V-12.24h-1.6v-.72Zm0,12.24A3.093,3.093,0,0,0,201-2.46a9.07,9.07,0,0,0,.92-4.28,7.38,7.38,0,0,0-.95-4.02,3.218,3.218,0,0,0-2.91-1.48h-2.78V-.72Zm13.86.96a5.084,5.084,0,0,1-3.13-.92A5.256,5.256,0,0,1,207-3.07a8.773,8.773,0,0,1-.56-3.15,9.677,9.677,0,0,1,.57-3.29,5.878,5.878,0,0,1,1.87-2.64,5.116,5.116,0,0,1,3.32-1.05,5.172,5.172,0,0,1,3.15.92,5.406,5.406,0,0,1,1.84,2.39,8.324,8.324,0,0,1,.59,3.13,9.27,9.27,0,0,1-.6,3.28,6.125,6.125,0,0,1-1.91,2.66A5.156,5.156,0,0,1,211.92.24Zm.48-.66a2.942,2.942,0,0,0,2.68-1.47,7.473,7.473,0,0,0,.9-3.93,11.885,11.885,0,0,0-.43-3.23,5.828,5.828,0,0,0-1.37-2.51,3.2,3.2,0,0,0-2.42-.98,2.873,2.873,0,0,0-2.67,1.45,7.215,7.215,0,0,0-.85,3.69,11.138,11.138,0,0,0,1,4.94A3.311,3.311,0,0,0,212.4-.42Zm13.58.66a5.084,5.084,0,0,1-3.13-.92,5.256,5.256,0,0,1-1.79-2.39,8.773,8.773,0,0,1-.56-3.15,9.677,9.677,0,0,1,.57-3.29,5.878,5.878,0,0,1,1.87-2.64,5.116,5.116,0,0,1,3.32-1.05,5.172,5.172,0,0,1,3.15.92,5.406,5.406,0,0,1,1.84,2.39,8.324,8.324,0,0,1,.59,3.13,9.27,9.27,0,0,1-.6,3.28,6.125,6.125,0,0,1-1.91,2.66A5.156,5.156,0,0,1,225.98.24Zm.48-.66a2.942,2.942,0,0,0,2.68-1.47,7.473,7.473,0,0,0,.9-3.93,11.885,11.885,0,0,0-.43-3.23,5.828,5.828,0,0,0-1.37-2.51,3.2,3.2,0,0,0-2.42-.98,2.873,2.873,0,0,0-2.67,1.45,7.215,7.215,0,0,0-.85,3.69,11.138,11.138,0,0,0,1,4.94A3.311,3.311,0,0,0,226.46-.42Zm19.82-.3V0h-3.06l-3.8-5.98h-1.86V-.72h1.58V0h-4.88V-.72h1.6V-12.24h-1.6v-.72h5.82a4.018,4.018,0,0,1,2.94.97A3.328,3.328,0,0,1,244-9.52a3.42,3.42,0,0,1-.74,2.23,3.463,3.463,0,0,1-2.02,1.19l3.6,5.38Zm-8.72-6.02h2.3a2.045,2.045,0,0,0,1.63-.77,2.949,2.949,0,0,0,.65-1.97,3.032,3.032,0,0,0-.63-2,2.04,2.04,0,0,0-1.65-.76h-2.3ZM248.78-.8c3.36-2.72,5.4-6.4,6.58-11.86.42-.16.6-.34.6-.58s-.22-.4-.78-.54l-1.76-.46-.06,1.2A27.373,27.373,0,0,1,248.34-1.2Zm10.04-13A36.389,36.389,0,0,1,264.48-.98l2.04-1.14c-1.46-4.96-4.2-9.62-7.16-12.12ZM275.34,1.18a10.608,10.608,0,0,0,6.32-3.52c1.36-1.6,2.28-3.74,3-7.04.32-.08.44-.2.44-.38,0-.12-.1-.24-.3-.3l-1.88-.6-.04,1.06a19.27,19.27,0,0,1-2.1,5.76A10.558,10.558,0,0,1,275.14.6Zm.44-7.14a7.49,7.49,0,0,0-3.3-4.44l-.34.26a13.433,13.433,0,0,1,2.06,4.78Zm3.96-.5a7.914,7.914,0,0,0-3.16-4.44l-.36.28a13.521,13.521,0,0,1,1.92,4.78Zm11.94-2.72-.88-.18v1.28l.88-.18h7.52c-.18,2.52-.64,4.04-1.58,5.18a11.955,11.955,0,0,1-5.34,3.5l.16.58a12.415,12.415,0,0,0,6.44-3.1c1.34-1.34,1.98-3.14,2.18-6.16h6.26l.88.18V-9.36l-.88.18h-6.2c.04-1.06.06-1.96.06-2.58v-1.8c1.08-.1,2.08-.26,4.2-.64a2.977,2.977,0,0,0,.58.1.416.416,0,0,0,.42-.38.868.868,0,0,0-.3-.58l-1.04-.98-.94.4A68.868,68.868,0,0,1,292-13.78l.04.62c1.56.04,1.8.04,2.42.04,1.54,0,2.16-.04,4.8-.24h.06v1.6c0,.58-.02,1.5-.06,2.58Zm38.26-5.74A4,4,0,0,0,327.58-17l-.32.28a8.038,8.038,0,0,1,1.34,2.52ZM311.68-.3c3.3-2.62,5.44-6.46,6.56-11.84.44-.16.62-.34.62-.6,0-.2-.16-.36-.46-.44l-2.08-.52-.06,1.16A27.147,27.147,0,0,1,311.24-.68Zm10.06-12.98A38.5,38.5,0,0,1,327.28-.44l2.08-1.16c-1.44-4.9-4.18-9.58-7.08-12.1Zm3.18-3.14a8.791,8.791,0,0,1,1.22,2.74l1.34-.64a3.957,3.957,0,0,0-2.2-2.36Zm13.54,17.6a10.608,10.608,0,0,0,6.32-3.52c1.36-1.6,2.28-3.74,3-7.04.32-.08.44-.2.44-.38,0-.12-.1-.24-.3-.3l-1.88-.6L346-9.6a19.27,19.27,0,0,1-2.1,5.76A10.558,10.558,0,0,1,338.26.6Zm.44-7.14a7.49,7.49,0,0,0-3.3-4.44l-.34.26a13.433,13.433,0,0,1,2.06,4.78Zm3.96-.5a7.914,7.914,0,0,0-3.16-4.44l-.36.28a13.521,13.521,0,0,1,1.92,4.78Zm19.16-7c.22-.44.4-.88.7-1.66.38-.18.52-.3.52-.52,0-.18-.14-.3-.44-.36l-1.88-.4-.2,1.14a17.052,17.052,0,0,1-5.38,7.96l.32.48a13.42,13.42,0,0,0,5.88-5.72h6.26a17.466,17.466,0,0,1-4.88,8.96,19.656,19.656,0,0,1-7.5,3.92l.12.6c3.8-.7,5.84-1.48,8.04-3.06,3.3-2.4,5.5-6.28,6.42-11.34Zm19.14-.94h-1.12V.22h-5.58V1.34h6.7Zm14.74,3.6.32,1.24c.08.24.18.36.34.36s.28-.1.4-.4a27.315,27.315,0,0,1,3.02-.72A37.165,37.165,0,0,1,396-.32l1.48.86a35.172,35.172,0,0,0,4.28-11.14,20.523,20.523,0,0,1,2.6-.24,1.381,1.381,0,0,1,1.28.56,4.969,4.969,0,0,1,.28,2.12,22.165,22.165,0,0,1-.94,6.28c-.44,1.28-.86,1.8-1.42,1.8a4.022,4.022,0,0,1-2.32-1.28l-.52.8c1.42,1.26,2.42,1.8,3.36,1.8,1.06,0,1.76-.64,2.38-2.16a19.838,19.838,0,0,0,1.14-6.86,5.754,5.754,0,0,0-.48-2.8c-.44-.8-1.42-1.2-2.92-1.2-.6,0-1.32.04-2.2.1.2-.86.34-1.66.66-3.44.3-.12.42-.24.42-.4s-.14-.3-.4-.36l-1.7-.38-.02.92c-.28,1.72-.46,2.78-.7,3.86-1.24.16-2.48.38-3.8.64Zm18.2-4.12A3.907,3.907,0,0,0,411.76-17l-.34.28a8.33,8.33,0,0,1,1.36,2.52Zm-5.52,2.44c1.58,2.18,2.46,4.64,3.28,8.86l1.84-.78c-.76-3.84-2.6-7.14-4.7-8.4Zm.5-3.94a9.074,9.074,0,0,1,1.24,2.74l1.32-.64a3.871,3.871,0,0,0-2.18-2.36Zm11.1,6.16,3.86-.62.82.02-.18-1.1-.76.28-3.74.6v-4.54c.26-.18.32-.26.32-.4,0-.18-.14-.26-.42-.26H418.6v5.46l-1.26.2-.8-.02.18,1.12.74-.28,1.14-.2v6.22c0,1.18.5,1.7,1.68,1.68h2.06a1.437,1.437,0,0,0,1.7-1.52l.2-2.4-.9-.14-.14,1.8c-.06.56-.26.76-.82.76h-1.36c-.58,0-.84-.24-.84-.84Zm8.26-4.28h3.78c-.06,3.6-.2,6.3-.46,9.82-.24,3-.44,4.44-.64,4.66a1.308,1.308,0,0,1-1.32.58h-1.94v.84h3.02c1.46.02,2.08-.5,2.26-1.96a137.914,137.914,0,0,0,.88-14.74H424.1l-.8-.16v1.12l.8-.16h2.62v1.26a30.61,30.61,0,0,1-1.42,9.6,10.623,10.623,0,0,1-3.78,4.78l.34.5c4.74-2.34,6.44-6.18,6.58-14.88ZM444.38,1.22A12.362,12.362,0,0,0,447.1.64a8.57,8.57,0,0,0,4.34-3.14c.88-1.32,1.22-3.02,1.22-5.94,0-1.54-.04-5.4-.06-6.72.24-.22.34-.36.34-.54,0-.2-.18-.32-.46-.34l-1.94-.16.14,1.08c.12,2.06.16,4.1.16,6.74,0,3.6-.56,5.18-2.42,6.82A9.614,9.614,0,0,1,444.26.58Zm-3.46-15.98c-.24,2.88-.3,4.22-.3,5.86,0,3.2.58,4.64,1.84,4.64,1.22,0,2.44-1.56,3.22-4.12l-.72-.32c-1,2.16-1.52,2.9-2,2.9-.4,0-.62-1.04-.62-3.02a50.614,50.614,0,0,1,.32-5.72c.3-.24.4-.38.4-.56s-.14-.3-.34-.34l-1.82-.24Zm23.86,11c-.16,2.32-.84,3.4-2.66,4.34l.28.5a5.6,5.6,0,0,0,3.06-2.04,5.33,5.33,0,0,0,.84-2.8h2.74V.88h1.54V-3.76h2.24l.8.16V-4.72l-.8.16h-2.24v-2.9h1.48l.8.16V-8.42l-.8.16h-8.52l-.8-.16V-7.3l.8-.16h1.36V-7c0,.56-.02,1.44-.06,2.44H462.8l-.78-.16V-3.6l.78-.16Zm1.66-3.7h2.6v2.9h-2.68c.06-.88.08-1.68.08-2.44Zm2.26-2.4h5.9V-.38c0,.64-.28.92-.92.92H472v.84h2.76c1,0,1.42-.42,1.42-1.44V-16.08H468.7Zm1.5-.8v-1.96h4.4v1.96Zm0-2.76v-1.86h4.4v1.86Zm-3.52-2.66h-7.22V1.48h1.58V-9.86h5.64Zm-5.64.8h4.14v1.86h-4.14Zm4.14,2.66v1.96h-4.14v-1.96Zm25.72-2.94a55.016,55.016,0,0,1-6.74,5.52C482.78-9,482.38-8.6,482.38-8.2c0,.3.26.62.84,1a32.654,32.654,0,0,1,9,8.56L494.04.1a25.472,25.472,0,0,0-3.94-4.02,51.369,51.369,0,0,0-5.82-4c-.4-.22-.5-.3-.5-.38,0-.06.1-.14.46-.36a58.4,58.4,0,0,0,8.76-6.2c.4-.02.58-.14.58-.36,0-.14-.1-.26-.34-.44l-1.48-1ZM506.66.16a12.025,12.025,0,0,0-5.58-3.82l-.38.48a17.85,17.85,0,0,1,4.32,4.78ZM4.44,29.96A17.688,17.688,0,0,1,.8,35.5l.28.44a14.387,14.387,0,0,0,3.86-3.88L4.98,32v5.48H6.54V31.84a15.607,15.607,0,0,1,2.08,2.7l1.04-1.4a9.378,9.378,0,0,0-2.64-1.62c-.4-.16-.4-.18-.48-.2V29.96h2.9l.8.16V29l-.8.16H6.54V26.72H9.76l.78.16V25.76l-.78.16H7.24A25.616,25.616,0,0,0,8.76,22.4H9.5l.8.16V21.44l-.8.16H6.56V19.98c.26-.18.32-.26.32-.4,0-.18-.14-.26-.42-.26H4.92V21.6H1.88l-.8-.16v1.12l.8-.16h.64l.02.06a21.371,21.371,0,0,1,.66,3.06l.04.2.04.2H1.58L.8,25.76v1.12l.78-.16h3.4v2.44H1.88L1.08,29v1.12l.8-.16ZM7.16,22.4a32.8,32.8,0,0,1-.58,3.46l-.02.06H3.58l1.26-.8a11.494,11.494,0,0,0-1.66-2.66l-.04-.06Zm5.66-1.48-1.58-.58V22.8a60.362,60.362,0,0,1-.32,8.9,9.681,9.681,0,0,1-2.46,5.38l.34.42a8.027,8.027,0,0,0,3.52-5.08,23.681,23.681,0,0,0,.48-5.6h2.62V37.48h1.6V26.82H18.4l.8.16V25.86l-.8.16H12.82V21.58a23.855,23.855,0,0,0,4.94-.62,2.075,2.075,0,0,0,.46.06c.16,0,.34-.12.34-.26a.365.365,0,0,0-.12-.2l-1.16-1.2a22.825,22.825,0,0,1-4.4,1.54Zm14,2.84a59.719,59.719,0,0,1-4.16,12.48l1.78.52a69.383,69.383,0,0,0,4.12-13.04,47.694,47.694,0,0,0,6.68-.5l.08-1.38-1.38.6c-1.78.2-2.52.28-4.2.34-.08,0-.5.02-.98.04v-.04l.06-.3c.08-.4.16-.78.38-1.84.24-.16.36-.3.36-.48a.381.381,0,0,0-.34-.34l-1.76-.36-.04,1.26c-.18.96-.22,1.24-.42,2.16H23.74l-1.26-.42.12,1.34h1.3c.7,0,.96,0,2.18-.02Zm3.72,6.9a5.636,5.636,0,0,0-.68,2.64c0,2.34,1.92,3.38,6.22,3.38a21.183,21.183,0,0,0,3.38-.24V34.5a14.727,14.727,0,0,1-3.82.46,8.074,8.074,0,0,1-3.82-.7,1.754,1.754,0,0,1-.94-1.64,6.109,6.109,0,0,1,.3-1.78Zm8.12-4.94a12.934,12.934,0,0,0-2.12-.16,12.582,12.582,0,0,0-3.98.62,5.928,5.928,0,0,0-1.42.66l.16.58A20.065,20.065,0,0,1,35,27.1a13.056,13.056,0,0,1,3.66.42Zm9.4-3.64c-1.7,0-2.4-.04-3.48-.1l-1.08-.46.1,1.36c1.44.1,2.14.12,3.38.12h.78a44.192,44.192,0,0,1-4.54,9.82l1.52.98a53.132,53.132,0,0,0,4.82-10.86c1.52-.06,3.18-.2,4.84-.42l.06-1.42-1.24.62c-1.42.16-2.24.24-3.34.3a2.379,2.379,0,0,1,.08-.28c.06-.18.24-.72.42-1.3.3-.2.36-.3.36-.44a.323.323,0,0,0-.28-.32l-1.76-.34-.16,1.02c-.1.4-.18.7-.22.84l-.24.82ZM60.82,33.94a12.213,12.213,0,0,0-4.88-2.66V27.54c.32-.22.4-.3.4-.44,0-.2-.18-.32-.48-.32l-1.58-.02.06,1.48v2.72a10.78,10.78,0,0,0-1.76-.14c-2.6,0-4.16,1.12-4.16,3,0,1.9,1.86,3.28,4.42,3.28a3.04,3.04,0,0,0,2.82-1.2,3.033,3.033,0,0,0,.28-1.5V32.74a13.214,13.214,0,0,1,3.7,2.7Zm-6.48.38c0,.96-.56,1.42-1.74,1.42-1.84,0-3.2-.86-3.2-2.04a1.371,1.371,0,0,1,.36-.92,3.444,3.444,0,0,1,2.5-.74,7.347,7.347,0,0,1,2.08.28Zm6.72-9.88a9.912,9.912,0,0,0-3.92-.64,10.034,10.034,0,0,0-3.52.52l.04.56a14.914,14.914,0,0,1,6.28,1.2Zm13.8,4.9a25.185,25.185,0,0,0,4.12-8.1H67.14l-.88-.18v1.28l.88-.18H76.6A23.048,23.048,0,0,1,64.52,35.64l.28.62a20.106,20.106,0,0,0,9.64-6.38,34.139,34.139,0,0,1,5.72,6.52l1.78-1.44a24.43,24.43,0,0,0-6.82-5.48Zm27.12-1.92.88.18V26.32l-.88.18H86.34l-.88-.18V27.6l.88-.18h7.14a11.253,11.253,0,0,1-.68,4.38c-.86,2.02-3.12,3.76-6.06,4.64l.16.66c3.24-.66,5.88-2.06,7.04-3.72,1.02-1.36,1.48-3.2,1.48-5.96Zm-2.6-6.48H88.82l-.88-.18v1.28l.88-.18H99.38l.88.18V20.76Zm24.3,6.98-16.7-.62v2.1l16.7-.6Zm20.9-6.78a4.013,4.013,0,0,0-2.32-2.12l-.34.28a7.636,7.636,0,0,1,1.32,2.52Zm-.5,3.36a16.01,16.01,0,0,1-3.38,5.18,16.624,16.624,0,0,1-10.06,4.88l-.96.02.72,1.68c.12.3.28.44.48.44.22,0,.34-.1.5-.4,4.88-.98,8.16-2.76,10.44-5.62a15.376,15.376,0,0,0,2.86-5.96Zm-14.16-3.08a19.4,19.4,0,0,1,5.14,2.44l1.06-1.78a12.8,12.8,0,0,0-6.08-1.22Zm9.54-1.86a8.831,8.831,0,0,1,1.18,2.78l1.34-.6a3.979,3.979,0,0,0-2.16-2.44Zm-10.52,7.5a17.974,17.974,0,0,1,5.12,2.22l1.02-1.8a11.321,11.321,0,0,0-5.02-.98c-.24,0-.56,0-1,.02Zm22.32,4.28a3.13,3.13,0,1,0,3.08,3.12A3.133,3.133,0,0,0,151.26,31.34Zm-.08.92a2.21,2.21,0,1,1-2.18,2.2A2.211,2.211,0,0,1,151.18,32.26Z" transform="translate(6 3886)"/>
      <path id="パス_154" data-name="パス 154" d="M30.222-2.208V0H17.48V-2.208h3.588l-2.806-8.326H9.568L6.67-2.208h3.4V0H.46V-2.208h3.5l9.844-27.6h3.266l9.844,27.6ZM17.48-12.834l-3.4-10.074h-.23l-3.5,10.074ZM31.648-2.208h3.588V-27.6H31.648v-2.208H44.39V-27.6H40.8V-2.208h9.062l2.3-6.164h3.22V0H31.648Zm25.714,0H60.95V-27.6H57.362v-2.208H70.1V-27.6H66.516V-2.208h9.062l2.3-6.164H81.1V0H57.362Zm26.45-11.086H94.3v2.668H83.812Zm37.076,4.922V0H97.152V-2.208h3.588V-27.6H97.152v-2.208H120.52v8.372H117.3L114.954-27.6h-8.648v10.718h4.784V-20.47h2.76v9.476h-2.76v-3.588h-4.784V-2.208h9.062l2.3-6.164Zm2.53,6.164h3.588V-27.6h-3.588v-2.208H136.16V-27.6h-3.588V-2.208h9.062l2.3-6.164h3.22V0H123.418Zm49.45-6.164V0H149.132V-2.208h3.588V-27.6h-3.588v-2.208H172.5v8.372h-3.22L166.934-27.6h-8.648v10.718h4.784V-20.47h2.76v9.476h-2.76v-3.588h-4.784V-2.208h9.062l2.3-6.164ZM189.106.552a12.98,12.98,0,0,1-7.751-2.162,12.421,12.421,0,0,1-4.37-5.5,18.674,18.674,0,0,1-1.357-7.107,21.706,21.706,0,0,1,1.426-7.912,13.335,13.335,0,0,1,4.439-5.957,12.271,12.271,0,0,1,7.613-2.277,15.086,15.086,0,0,1,5.2.782,24.505,24.505,0,0,1,4.048,1.932v6.21h-3.91a8.817,8.817,0,0,0-1.932-5.244,5.155,5.155,0,0,0-3.91-1.656,5.871,5.871,0,0,0-5.474,3.22,16.58,16.58,0,0,0-1.794,8.142,25.307,25.307,0,0,0,1.127,7.981,11.9,11.9,0,0,0,3.1,5.175,6.469,6.469,0,0,0,4.462,1.794,6.889,6.889,0,0,0,4.508-1.587,8,8,0,0,0,2.576-4.807H199.5a10.392,10.392,0,0,1-3.519,6.624A10.419,10.419,0,0,1,189.106.552Zm17.756-2.76h4.37V-27.6h-4.14l-2.3,6.164H201.8v-8.372h24.426v8.372h-2.99L220.892-27.6H216.8V-2.208h4.37V0H206.862Zm49.634,0V0h-8.234L239.89-13.524h-2.576V-2.208H240.9V0H228.16V-2.208h3.588V-27.6H228.16v-2.208h13.846q4.738,0,7.176,2.3a7.577,7.577,0,0,1,2.438,5.75,7.719,7.719,0,0,1-1.564,4.784,8.434,8.434,0,0,1-4.324,2.944l7.59,11.822ZM237.314-15.732H241.5a3.6,3.6,0,0,0,2.99-1.771,7.221,7.221,0,0,0,1.242-4.255,6.946,6.946,0,0,0-1.2-4.209A3.624,3.624,0,0,0,241.5-27.6h-4.186Zm30.5-11.868V-2.208h4.462V0h-14.49V-2.208h4.462V-27.6h-4.462v-2.208h14.49V-27.6ZM288.1.552a12.98,12.98,0,0,1-7.751-2.162,12.422,12.422,0,0,1-4.37-5.5,18.674,18.674,0,0,1-1.357-7.107,21.707,21.707,0,0,1,1.426-7.912,13.335,13.335,0,0,1,4.439-5.957A12.271,12.271,0,0,1,288.1-30.36a15.086,15.086,0,0,1,5.2.782,24.5,24.5,0,0,1,4.048,1.932v6.21h-3.91A8.817,8.817,0,0,0,291.5-26.68a5.155,5.155,0,0,0-3.91-1.656,5.871,5.871,0,0,0-5.474,3.22,16.579,16.579,0,0,0-1.794,8.142,25.308,25.308,0,0,0,1.127,7.981,11.9,11.9,0,0,0,3.105,5.175,6.469,6.469,0,0,0,4.462,1.794,6.889,6.889,0,0,0,4.508-1.587A8,8,0,0,0,296.1-8.418h2.392a10.392,10.392,0,0,1-3.519,6.624A10.419,10.419,0,0,1,288.1.552Zm24.334-2.76h3.588V-27.6h-3.588v-2.208h8.878l9.614,21.022,8.97-21.022h8.878V-27.6h-3.588V-2.208h3.588V0h-12.6V-2.208h3.45V-22.77L330.832-2.208H327.98l-9.43-20.516V-2.208h3.4V0h-9.522ZM360.916-27.6V-2.208h4.462V0h-14.49V-2.208h4.462V-27.6h-4.462v-2.208h14.49V-27.6Zm6.578,25.392h3.588V-27.6h-3.588v-2.208h8.234l13.11,20.516V-27.6H385.3v-2.208h9.66V-27.6h-3.588V0h-3.4L373.612-22.678v20.47h3.45V0h-9.568ZM406.64-27.6V-2.208H411.1V0h-14.49V-2.208h4.462V-27.6h-4.462v-2.208H411.1V-27.6ZM438.426.552a12.98,12.98,0,0,1-7.751-2.162,12.422,12.422,0,0,1-4.37-5.5,18.674,18.674,0,0,1-1.357-7.107,21.707,21.707,0,0,1,1.426-7.912,13.335,13.335,0,0,1,4.439-5.957,12.271,12.271,0,0,1,7.613-2.277,15.086,15.086,0,0,1,5.2.782,24.5,24.5,0,0,1,4.048,1.932v6.21h-3.91a8.817,8.817,0,0,0-1.932-5.244,5.155,5.155,0,0,0-3.91-1.656,5.871,5.871,0,0,0-5.474,3.22,16.579,16.579,0,0,0-1.794,8.142,25.308,25.308,0,0,0,1.127,7.981,11.9,11.9,0,0,0,3.105,5.175,6.469,6.469,0,0,0,4.462,1.794,6.889,6.889,0,0,0,4.508-1.587,8,8,0,0,0,2.576-4.807h2.392A10.392,10.392,0,0,1,445.3-1.794,10.419,10.419,0,0,1,438.426.552Zm26.542,0a13.187,13.187,0,0,1-7.751-2.116,12.157,12.157,0,0,1-4.37-5.428,18.382,18.382,0,0,1-1.357-7.038,21.762,21.762,0,0,1,1.449-7.958,13.7,13.7,0,0,1,4.485-6.049,12.05,12.05,0,0,1,7.544-2.323,13.235,13.235,0,0,1,7.705,2.116,12.185,12.185,0,0,1,4.439,5.451,18.167,18.167,0,0,1,1.38,7.015,21.762,21.762,0,0,1-1.449,7.958,13.7,13.7,0,0,1-4.485,6.049A12.125,12.125,0,0,1,464.968.552Zm.6-2.024a5.834,5.834,0,0,0,5.451-3.174,16.593,16.593,0,0,0,1.771-8.142,26.236,26.236,0,0,0-2.07-11.132q-2.07-4.416-6.256-4.416a5.871,5.871,0,0,0-5.474,3.22,16.686,16.686,0,0,0-1.794,8.188,25.671,25.671,0,0,0,2.093,11.086Q461.38-1.472,465.566-1.472Zm29.9,2.024a13.187,13.187,0,0,1-7.751-2.116,12.157,12.157,0,0,1-4.37-5.428,18.382,18.382,0,0,1-1.357-7.038,21.762,21.762,0,0,1,1.449-7.958,13.7,13.7,0,0,1,4.485-6.049,12.05,12.05,0,0,1,7.544-2.323,13.235,13.235,0,0,1,7.705,2.116,12.185,12.185,0,0,1,4.439,5.451,18.167,18.167,0,0,1,1.38,7.015,21.762,21.762,0,0,1-1.449,7.958,13.7,13.7,0,0,1-4.485,6.049A12.125,12.125,0,0,1,495.466.552Zm.6-2.024a5.834,5.834,0,0,0,5.451-3.174,16.593,16.593,0,0,0,1.771-8.142,26.236,26.236,0,0,0-2.07-11.132q-2.07-4.416-6.256-4.416a5.871,5.871,0,0,0-5.474,3.22,16.686,16.686,0,0,0-1.794,8.188,25.671,25.671,0,0,0,2.093,11.086Q491.878-1.472,496.064-1.472Zm29.118-28.336a10.628,10.628,0,0,1,7.015,2.162,7.2,7.2,0,0,1,2.6,5.842,7.708,7.708,0,0,1-1.219,4.278,8.047,8.047,0,0,1-3.4,2.921,11.526,11.526,0,0,1-4.991,1.035H520.49V-2.208h3.588V0H511.336V-2.208h3.588V-27.6h-3.588v-2.208Zm-.506,14.03a3.6,3.6,0,0,0,2.99-1.771,7.221,7.221,0,0,0,1.242-4.255,6.961,6.961,0,0,0-1.173-4.163,3.605,3.605,0,0,0-3.059-1.633H520.49v11.822Zm35.972,7.406V0H536.912V-2.208H540.5V-27.6h-3.588v-2.208H560.28v8.372h-3.22L554.714-27.6h-8.648v10.718h4.784V-20.47h2.76v9.476h-2.76v-3.588h-4.784V-2.208h9.062l2.3-6.164Zm30.866,6.164V0H583.28l-8.372-13.524h-2.576V-2.208h3.588V0H563.178V-2.208h3.588V-27.6h-3.588v-2.208h13.846q4.738,0,7.176,2.3a7.577,7.577,0,0,1,2.438,5.75,7.719,7.719,0,0,1-1.564,4.784,8.434,8.434,0,0,1-4.324,2.944l7.59,11.822ZM572.332-15.732h4.186a3.6,3.6,0,0,0,2.99-1.771,7.221,7.221,0,0,0,1.242-4.255,6.946,6.946,0,0,0-1.2-4.209,3.624,3.624,0,0,0-3.036-1.633h-4.186Zm21.3,13.156a2.974,2.974,0,0,1,.9-2.185,2.973,2.973,0,0,1,2.185-.9,2.974,2.974,0,0,1,2.185.9,2.974,2.974,0,0,1,.9,2.185,2.974,2.974,0,0,1-.9,2.185,2.974,2.974,0,0,1-2.185.9,2.973,2.973,0,0,1-2.185-.9A2.974,2.974,0,0,1,593.63-2.576Z" transform="translate(6 3854)"/>
    </g>
    <rect id="長方形_257" data-name="長方形 257" width="612" height="100" transform="translate(6 3661.64)" fill="none"/>
  </g>
</svg>
