<svg xmlns="http://www.w3.org/2000/svg" width="532.741" height="171.634" viewBox="0 0 532.741 171.634">
  <g id="sec06-txt01-sp" transform="translate(0.223 2.268)">
    <g id="情報-1" transform="translate(2.777 -4125.218)">
      <g id="text" transform="translate(-3 3946.825)">
        <g id="price" transform="translate(-142 -1940.333)">
          <path id="パス_145" data-name="パス 145" d="M1.712-12.464V1.072H3.12v-6.48H12.9V-.592c0,.624-.272.9-.9.9H9.936V.976h2.816C13.84.976,14.3.512,14.3-.56v-11.9Zm1.408.64H7.232v5.776H3.12Zm5.5,0H12.9v5.776H8.624Z" transform="translate(441.65 2282)" fill="#111"/>
          <path id="パス_144" data-name="パス 144" d="M4.672-10.937A3.145,3.145,0,0,1,5.25-11.7a4.981,4.981,0,0,1,1.008-.773,6.551,6.551,0,0,1,1.352-.6,5.208,5.208,0,0,1,1.609-.242,8.389,8.389,0,0,1,2.609.406,6.018,6.018,0,0,1,2.2,1.258,6.089,6.089,0,0,1,1.508,2.164,7.945,7.945,0,0,1,.563,3.141,6.205,6.205,0,0,1-.578,2.68,6.976,6.976,0,0,1-1.531,2.125,6.955,6.955,0,0,1-2.2,1.4,6.822,6.822,0,0,1-2.57.5A6.948,6.948,0,0,1,6.906-.008,6.739,6.739,0,0,1,5.016-1.023,7.232,7.232,0,0,1,3.539-2.555,9.548,9.548,0,0,1,2.477-4.477a10.849,10.849,0,0,1-.641-2.18,12.6,12.6,0,0,1-.211-2.3,16.558,16.558,0,0,1,.352-3.531,13.4,13.4,0,0,1,.969-2.906,10.407,10.407,0,0,1,1.445-2.273A9.03,9.03,0,0,1,6.18-19.3a7.593,7.593,0,0,1,2-.984,6.8,6.8,0,0,1,2.055-.328,6.824,6.824,0,0,1,2.781.578,6.778,6.778,0,0,1,2.375,1.8l-.953.859A5.056,5.056,0,0,0,12.672-18.8a5.456,5.456,0,0,0-2.406-.5,4.081,4.081,0,0,0-2.344.688,5.806,5.806,0,0,0-1.711,1.836,9.873,9.873,0,0,0-1.086,2.664A14.931,14.931,0,0,0,4.672-10.937ZM4.641-8.156a18.027,18.027,0,0,0,.344,2.9,8.711,8.711,0,0,0,.828,2.383,4.546,4.546,0,0,0,1.4,1.609A3.475,3.475,0,0,0,9.25-.672a3.2,3.2,0,0,0,1.594-.422,4.15,4.15,0,0,0,1.3-1.172,5.923,5.923,0,0,0,.875-1.781,7.553,7.553,0,0,0,.32-2.25,9.16,9.16,0,0,0-.32-2.562,5.536,5.536,0,0,0-.875-1.82,3.587,3.587,0,0,0-1.3-1.086,3.711,3.711,0,0,0-1.625-.359,4.193,4.193,0,0,0-1.352.242,4.81,4.81,0,0,0-1.359.734A5.071,5.071,0,0,0,5.359-9.906,5.078,5.078,0,0,0,4.641-8.156Zm18.3,7.391a4.827,4.827,0,0,1-.375,2,4.885,4.885,0,0,1-1,1.453,7.044,7.044,0,0,1-.727.641q-.352.266-.617.438a3.9,3.9,0,0,1-.609.328l-.641-.641.5-.344q.219-.156.453-.344t.422-.359a3.676,3.676,0,0,0,.672-.922A2.278,2.278,0,0,0,21.25.313q-.047.016-.109.031a1.514,1.514,0,0,1-.281.016,1.6,1.6,0,0,1-.68-.148A1.808,1.808,0,0,1,19.617-.2a2,2,0,0,1-.383-.586,1.727,1.727,0,0,1-.141-.687,1.806,1.806,0,0,1,.141-.719,1.739,1.739,0,0,1,.391-.57,1.765,1.765,0,0,1,.586-.375,1.916,1.916,0,0,1,.711-.133,2.146,2.146,0,0,1,.75.133,1.717,1.717,0,0,1,.641.422,2.1,2.1,0,0,1,.453.766A3.506,3.506,0,0,1,22.938-.766Zm3.969-15.781L32.5-20.281h.578V-1.125h2.969V0H27.609V-1.125h2.938V-17.437l-2.969,1.891Zm16.5,5.609a3.145,3.145,0,0,1,.578-.758,4.981,4.981,0,0,1,1.008-.773,6.551,6.551,0,0,1,1.352-.6,5.208,5.208,0,0,1,1.609-.242,8.389,8.389,0,0,1,2.609.406,6.018,6.018,0,0,1,2.2,1.258,6.089,6.089,0,0,1,1.508,2.164,7.945,7.945,0,0,1,.563,3.141,6.205,6.205,0,0,1-.578,2.68,6.976,6.976,0,0,1-1.531,2.125,6.955,6.955,0,0,1-2.2,1.4,6.822,6.822,0,0,1-2.57.5,6.948,6.948,0,0,1-2.312-.367A6.739,6.739,0,0,1,43.75-1.023a7.232,7.232,0,0,1-1.477-1.531,9.548,9.548,0,0,1-1.062-1.922,10.849,10.849,0,0,1-.641-2.18,12.6,12.6,0,0,1-.211-2.3,16.558,16.558,0,0,1,.352-3.531,13.4,13.4,0,0,1,.969-2.906,10.407,10.407,0,0,1,1.445-2.273A9.03,9.03,0,0,1,44.914-19.3a7.593,7.593,0,0,1,2-.984,6.8,6.8,0,0,1,2.055-.328,6.824,6.824,0,0,1,2.781.578,6.778,6.778,0,0,1,2.375,1.8l-.953.859A5.056,5.056,0,0,0,51.406-18.8,5.456,5.456,0,0,0,49-19.3a4.081,4.081,0,0,0-2.344.688,5.806,5.806,0,0,0-1.711,1.836,9.873,9.873,0,0,0-1.086,2.664A14.931,14.931,0,0,0,43.406-10.937Zm-.031,2.781a18.027,18.027,0,0,0,.344,2.9,8.712,8.712,0,0,0,.828,2.383,4.546,4.546,0,0,0,1.4,1.609,3.475,3.475,0,0,0,2.039.594,3.2,3.2,0,0,0,1.594-.422,4.15,4.15,0,0,0,1.3-1.172,5.923,5.923,0,0,0,.875-1.781,7.553,7.553,0,0,0,.32-2.25,9.16,9.16,0,0,0-.32-2.562,5.536,5.536,0,0,0-.875-1.82,3.587,3.587,0,0,0-1.3-1.086,3.711,3.711,0,0,0-1.625-.359,4.193,4.193,0,0,0-1.352.242,4.81,4.81,0,0,0-1.359.734,5.07,5.07,0,0,0-1.148,1.242A5.078,5.078,0,0,0,43.375-8.156ZM65.453.281a5.962,5.962,0,0,1-2.187-.391,6.268,6.268,0,0,1-1.8-1.078,7.487,7.487,0,0,1-1.414-1.625,10.439,10.439,0,0,1-1.023-2.047A12.9,12.9,0,0,1,58.4-7.2a14.815,14.815,0,0,1-.211-2.5,16.925,16.925,0,0,1,.625-4.906,9.7,9.7,0,0,1,1.711-3.367,6.693,6.693,0,0,1,2.539-1.945,7.746,7.746,0,0,1,3.094-.625,6.093,6.093,0,0,1,2.773.664,6.8,6.8,0,0,1,2.313,1.938,10.008,10.008,0,0,1,1.586,3.125,13.831,13.831,0,0,1,.594,4.227A16.218,16.218,0,0,1,72.789-5.8a10.255,10.255,0,0,1-1.711,3.391A6.956,6.956,0,0,1,68.547-.391,7.283,7.283,0,0,1,65.453.281Zm-.031-19.8a3.686,3.686,0,0,0-2.234.641A4.461,4.461,0,0,0,61.8-17.187a8.116,8.116,0,0,0-.7,2.367,18.4,18.4,0,0,0-.2,2.7q0,1.125.086,2.406t.3,2.547a16.392,16.392,0,0,0,.594,2.43,8.618,8.618,0,0,0,.969,2.055,4.781,4.781,0,0,0,1.414,1.422,3.538,3.538,0,0,0,1.953.531,3.592,3.592,0,0,0,2.211-.648,4.544,4.544,0,0,0,1.375-1.7,8.225,8.225,0,0,0,.7-2.391,18.715,18.715,0,0,0,.2-2.711q0-1.234-.094-2.555a24.207,24.207,0,0,0-.32-2.578,15.787,15.787,0,0,0-.617-2.383,8.077,8.077,0,0,0-.977-1.969,4.694,4.694,0,0,0-1.4-1.344A3.5,3.5,0,0,0,65.422-19.516ZM80.688-.766a4.827,4.827,0,0,1-.375,2,4.885,4.885,0,0,1-1,1.453,7.044,7.044,0,0,1-.727.641q-.352.266-.617.438a3.9,3.9,0,0,1-.609.328l-.641-.641.5-.344q.219-.156.453-.344t.422-.359a3.676,3.676,0,0,0,.672-.922A2.278,2.278,0,0,0,79,.313q-.047.016-.109.031a1.514,1.514,0,0,1-.281.016,1.6,1.6,0,0,1-.68-.148A1.808,1.808,0,0,1,77.367-.2a2,2,0,0,1-.383-.586,1.727,1.727,0,0,1-.141-.687,1.806,1.806,0,0,1,.141-.719,1.739,1.739,0,0,1,.391-.57,1.765,1.765,0,0,1,.586-.375,1.916,1.916,0,0,1,.711-.133,2.146,2.146,0,0,1,.75.133,1.717,1.717,0,0,1,.641.422,2.1,2.1,0,0,1,.453.766A3.506,3.506,0,0,1,80.688-.766ZM91.375.281a5.962,5.962,0,0,1-2.187-.391,6.268,6.268,0,0,1-1.8-1.078,7.487,7.487,0,0,1-1.414-1.625,10.439,10.439,0,0,1-1.023-2.047A12.9,12.9,0,0,1,84.32-7.2a14.815,14.815,0,0,1-.211-2.5,16.925,16.925,0,0,1,.625-4.906,9.7,9.7,0,0,1,1.711-3.367,6.693,6.693,0,0,1,2.539-1.945,7.746,7.746,0,0,1,3.094-.625,6.093,6.093,0,0,1,2.773.664,6.8,6.8,0,0,1,2.313,1.938A10.008,10.008,0,0,1,98.75-14.82a13.831,13.831,0,0,1,.594,4.227A16.218,16.218,0,0,1,98.711-5.8,10.255,10.255,0,0,1,97-2.414,6.956,6.956,0,0,1,94.469-.391,7.283,7.283,0,0,1,91.375.281Zm-.031-19.8a3.686,3.686,0,0,0-2.234.641,4.461,4.461,0,0,0-1.383,1.688,8.116,8.116,0,0,0-.7,2.367,18.4,18.4,0,0,0-.2,2.7q0,1.125.086,2.406t.3,2.547a16.392,16.392,0,0,0,.594,2.43,8.618,8.618,0,0,0,.969,2.055,4.78,4.78,0,0,0,1.414,1.422,3.538,3.538,0,0,0,1.953.531,3.592,3.592,0,0,0,2.211-.648,4.544,4.544,0,0,0,1.375-1.7,8.225,8.225,0,0,0,.7-2.391,18.715,18.715,0,0,0,.2-2.711q0-1.234-.094-2.555a24.207,24.207,0,0,0-.32-2.578,15.787,15.787,0,0,0-.617-2.383,8.077,8.077,0,0,0-.977-1.969,4.694,4.694,0,0,0-1.4-1.344A3.5,3.5,0,0,0,91.344-19.516ZM110.391.281A5.962,5.962,0,0,1,108.2-.109a6.268,6.268,0,0,1-1.8-1.078,7.487,7.487,0,0,1-1.414-1.625,10.439,10.439,0,0,1-1.023-2.047,12.9,12.9,0,0,1-.625-2.344,14.815,14.815,0,0,1-.211-2.5,16.925,16.925,0,0,1,.625-4.906,9.7,9.7,0,0,1,1.711-3.367A6.693,6.693,0,0,1,108-19.922a7.746,7.746,0,0,1,3.094-.625,6.093,6.093,0,0,1,2.773.664,6.8,6.8,0,0,1,2.313,1.938,10.008,10.008,0,0,1,1.586,3.125,13.831,13.831,0,0,1,.594,4.227,16.218,16.218,0,0,1-.633,4.789,10.255,10.255,0,0,1-1.711,3.391,6.956,6.956,0,0,1-2.531,2.023A7.283,7.283,0,0,1,110.391.281Zm-.031-19.8a3.686,3.686,0,0,0-2.234.641,4.461,4.461,0,0,0-1.383,1.688,8.116,8.116,0,0,0-.7,2.367,18.4,18.4,0,0,0-.2,2.7q0,1.125.086,2.406t.3,2.547a16.392,16.392,0,0,0,.594,2.43,8.618,8.618,0,0,0,.969,2.055A4.78,4.78,0,0,0,109.2-1.266a3.538,3.538,0,0,0,1.953.531,3.592,3.592,0,0,0,2.211-.648,4.544,4.544,0,0,0,1.375-1.7,8.225,8.225,0,0,0,.7-2.391,18.715,18.715,0,0,0,.2-2.711q0-1.234-.094-2.555a24.207,24.207,0,0,0-.32-2.578,15.787,15.787,0,0,0-.617-2.383,8.077,8.077,0,0,0-.977-1.969,4.694,4.694,0,0,0-1.4-1.344A3.5,3.5,0,0,0,110.359-19.516ZM129.406.281a5.962,5.962,0,0,1-2.187-.391,6.268,6.268,0,0,1-1.8-1.078A7.487,7.487,0,0,1,124-2.812a10.439,10.439,0,0,1-1.023-2.047,12.9,12.9,0,0,1-.625-2.344,14.815,14.815,0,0,1-.211-2.5,16.925,16.925,0,0,1,.625-4.906,9.7,9.7,0,0,1,1.711-3.367,6.693,6.693,0,0,1,2.539-1.945,7.746,7.746,0,0,1,3.094-.625,6.093,6.093,0,0,1,2.773.664,6.8,6.8,0,0,1,2.313,1.938,10.008,10.008,0,0,1,1.586,3.125,13.831,13.831,0,0,1,.594,4.227,16.218,16.218,0,0,1-.633,4.789,10.255,10.255,0,0,1-1.711,3.391A6.956,6.956,0,0,1,132.5-.391,7.283,7.283,0,0,1,129.406.281Zm-.031-19.8a3.686,3.686,0,0,0-2.234.641,4.461,4.461,0,0,0-1.383,1.688,8.116,8.116,0,0,0-.7,2.367,18.4,18.4,0,0,0-.2,2.7q0,1.125.086,2.406t.3,2.547a16.392,16.392,0,0,0,.594,2.43,8.618,8.618,0,0,0,.969,2.055,4.78,4.78,0,0,0,1.414,1.422,3.538,3.538,0,0,0,1.953.531,3.592,3.592,0,0,0,2.211-.648,4.544,4.544,0,0,0,1.375-1.7,8.225,8.225,0,0,0,.7-2.391,18.716,18.716,0,0,0,.2-2.711q0-1.234-.094-2.555a24.2,24.2,0,0,0-.32-2.578,15.787,15.787,0,0,0-.617-2.383,8.077,8.077,0,0,0-.977-1.969,4.694,4.694,0,0,0-1.4-1.344A3.5,3.5,0,0,0,129.375-19.516Zm13.288,1.325,1.865-.682-.531-.91-1.517,1.274.349-1.956h-1.062l.349,1.956L140.6-19.783l-.531.91,1.865.682-1.865.682.531.91,1.517-1.274-.349,1.941h1.062l-.349-1.941L144-16.6l.531-.91Zm5.994.09a2.534,2.534,0,0,0-.681.093,2.623,2.623,0,0,0-.629.267,2.878,2.878,0,0,0-.548.418,2.872,2.872,0,0,0-.437.541L145.8-17.1a3.65,3.65,0,0,1,1.281-1.248,3.239,3.239,0,0,1,1.607-.418,3.929,3.929,0,0,1,1.111.163,3.2,3.2,0,0,1,1,.492,2.533,2.533,0,0,1,.726.837,2.453,2.453,0,0,1,.278,1.2,2.542,2.542,0,0,1-.241,1.111,4.824,4.824,0,0,1-.629.977,11.217,11.217,0,0,1-.892.959q-.5.485-1.022,1.063l-1.644,1.785h4.539V-9H146v-.5l2.747-3.118q.341-.392.655-.822a7.8,7.8,0,0,0,.555-.87,5.306,5.306,0,0,0,.385-.878,2.685,2.685,0,0,0,.144-.844,2.541,2.541,0,0,0-.13-.829,1.918,1.918,0,0,0-.37-.652,1.718,1.718,0,0,0-.578-.43A1.773,1.773,0,0,0,148.657-18.1Z" transform="translate(287.447 2284)" fill="#111"/>
          <path id="パス_143" data-name="パス 143" d="M10.86-10.08A6.941,6.941,0,0,0,8.244-4.56,6.941,6.941,0,0,0,10.86.96h.66a7.108,7.108,0,0,1-2.4-5.508,7.587,7.587,0,0,1,1.236-4.224A5.4,5.4,0,0,1,11.52-10.08Zm5.028,3.768A22.587,22.587,0,0,1,19.32-4.644,9.535,9.535,0,0,1,14.076.1l.132.348a8.8,8.8,0,0,0,6.024-4.5A14.143,14.143,0,0,1,22.7-1.932l.8-.96a12.437,12.437,0,0,0-2.808-2.1,20.194,20.194,0,0,0,1.2-3.78c.216-.072.3-.144.3-.264,0-.1-.072-.168-.2-.2l-1.248-.324-.048.672a16.421,16.421,0,0,1-1,3.408A15.833,15.833,0,0,0,16.032-6.66Zm21.12,1.464L26.988-5.22v1.26l10.02-.36Zm11.448-1.92A42.223,42.223,0,0,1,48-2.172a5.5,5.5,0,0,1-.36,1.716.751.751,0,0,1-.756.336H45.5V.432h2.064c.936.012,1.2-.3,1.44-1.632a46.441,46.441,0,0,0,.624-6.12H45.084c.036-.552.06-.984.06-1.512v-.312c.168-.1.24-.18.24-.288a.209.209,0,0,0-.228-.2L43.9-9.72,43.98-9v.18c0,.336-.024.9-.072,1.5H40.74l-.48-.1v.744l.48-.1h3.108A8.366,8.366,0,0,1,39.84.132l.144.288a7.2,7.2,0,0,0,3.612-2.8,9.622,9.622,0,0,0,1.428-4.392Zm14.472,1.92L52.908-5.22v1.26l10.02-.36ZM67.344.072h1V-3.516h2.34V.96h1V-3.516H74.3v2.472c-.012.4-.144.528-.54.54h-.912V0h1.44c.72,0,1.032-.288,1.02-.936V-4H71.676v-.9c.156-.12.192-.156.192-.24,0-.108-.084-.156-.252-.156H70.68V-4H68.052a10.925,10.925,0,0,0,1.74-1.752H75.84l.48.1v-.672l-.48.1H70.164l.024-.036.4-.552c.252-.036.384-.12.384-.24,0-.084-.06-.132-.168-.156l-1.008-.264a6.9,6.9,0,0,1-.768,1.248H65.772l-.48-.1v.672l.48-.1h2.88A14.156,14.156,0,0,1,65.28-2.676l.168.312a9.867,9.867,0,0,0,1.9-1.092ZM66.732-9.42c1.32.312,2.412.624,3.432.972-1.1.42-3.468,1.14-4.416,1.368l.084.348a24.132,24.132,0,0,0,5.4-1.344c.672.24,2.016.816,3.192,1.368L75.1-7.44a26.573,26.573,0,0,0-2.808-1.068c.576-.252,1.008-.444,1.764-.8a2.019,2.019,0,0,0,.24.024c.144,0,.3-.1.3-.192,0-.048-.06-.108-.144-.156l-.84-.444a15.156,15.156,0,0,1-2.436,1.224,21.891,21.891,0,0,0-4.284-.888Zm20.8,3.336c-.144,1.224-.192,1.332-.672,1.344h-.888v.5h1.32c.7-.012.924-.228,1.056-.96a38.6,38.6,0,0,0,.4-4.452H84.288c-.024,3.42-.42,4.524-1.932,5.436l.2.324a3.5,3.5,0,0,0,2.268-2.2Zm.048-.48H84.96c.06-.3.12-.744.156-1.08h2.556l-.012.18-.012.192-.06.672Zm.132-1.56H85.152l.012-.036.048-1.008H87.78c-.024.42-.024.516-.048.8ZM81.54-8.76v-.852c.156-.108.192-.156.192-.24,0-.108-.084-.156-.252-.156h-.924V-8.76H78.72l-.48-.1v.672l.48-.1h.432v2.4c.024.768.336.984,1.476.984h2.364v-.84H80.808c-.6-.012-.72-.1-.732-.468V-8.28h3.072l.48.1v-.672l-.48.1Zm2.652,5.568h3.96l.468.1v-.672l-.468.1H79.368l-.468-.1V-3.1l.468-.1H83.2v1.344H80.052l-.48-.1v.672l.48-.1H83.2V.072h-4.4l-.48-.1V.648l.48-.1h9.936l.48.1V-.024l-.48.1H84.192v-1.44h3.276l.48.1v-.672l-.48.1H84.192ZM94.464.264V.828h1.7c.8,0,1.14-.336,1.14-1.14V-9.54c.156-.108.192-.156.192-.228,0-.12-.084-.168-.252-.168H96.2V-.384c0,.456-.192.648-.648.648Zm4.3-7.812a28.8,28.8,0,0,1,2.292,6.216L102.24-2a17.644,17.644,0,0,0-3.084-5.772ZM91.512-1.236A13.241,13.241,0,0,0,94.356-7.08c.24-.048.36-.144.36-.3,0-.108-.084-.168-.276-.228l-1.1-.3a22.445,22.445,0,0,1-2.124,6.456ZM105.72-5.16v-.132a1.652,1.652,0,0,0-.024-.384h-.408a3.036,3.036,0,0,1-1.128,1.92l.72.936a2.485,2.485,0,0,0,.816-1.824V-4.68h8.148a4.774,4.774,0,0,1-.708,1.332l.372.228A4.31,4.31,0,0,0,115.2-5.16Zm4.428-3.516v-.948c.156-.108.192-.156.192-.24,0-.108-.084-.156-.252-.156h-.972v1.344H104.8l-.48-.1V-8.1l.48-.1h4.32v1.344H105.84l-.48-.1v.672l.48-.1h7.68l.48.1v-.672l-.48.1h-3.372V-8.2h4.416l.48.1v-.672l-.48.1ZM104.52.84a5.587,5.587,0,0,0,2.7-.912,3.315,3.315,0,0,0,1.26-3v-.3c.144-.108.192-.156.192-.24,0-.108-.084-.156-.264-.156h-.96V-3.1A3.172,3.172,0,0,1,106.464-.5a4.511,4.511,0,0,1-2.04.984Zm6.036-4.608v3.36c.024.732.372.96,1.548,1h1.68c.84,0,1.188-.324,1.248-1.164l.06-1.02-.492-.048-.06.744c-.048.408-.2.552-.564.552H112.26c-.5-.012-.7-.12-.7-.372V-3.372c.156-.108.192-.156.192-.24,0-.12-.084-.156-.336-.156ZM122.76-6.7h-2.052V.828h.888V.06h5.076V.744h.924V-6.7h-2.1v-2.34h2.184l.48.1v-.672l-.48.1h-6.744l-.468-.1v.672l.468-.1h1.824Zm.828-2.34h1.08V-6.7h-1.08Zm0,2.82h1.08v5.8h-1.08Zm-.828,5.8H121.6v-5.8h1.164Zm2.736-5.8h1.176v5.8H125.5ZM119.448-7.4c.252-.708.36-1.044.636-1.932.192-.036.288-.12.288-.24,0-.1-.084-.168-.2-.2l-1.008-.3a28.442,28.442,0,0,1-2.04,6.516l.252.192a13.006,13.006,0,0,0,1.14-1.848V.888h.936ZM133.62-2.772a11.55,11.55,0,0,0,3.888-2.28,11.591,11.591,0,0,0,3.156,1.992A3.976,3.976,0,0,1,141.12-4a12.418,12.418,0,0,1-3.048-1.62,12.4,12.4,0,0,0,2.22-3.18h-3.9l.012-.036c.132-.252.144-.276.3-.612.228-.084.324-.156.324-.24a.224.224,0,0,0-.12-.168l-1.02-.228a11.161,11.161,0,0,1-.864,2.2,11.092,11.092,0,0,1-1.14,1.836l.24.228a8.152,8.152,0,0,0,1.716-2,5.445,5.445,0,0,0,1.1,2.184A13.169,13.169,0,0,1,133.5-3.072Zm2.52-5.544h2.88a14.544,14.544,0,0,1-1.6,2.172,4.517,4.517,0,0,1-1.332-2.1Zm-4.248,9.2h.924V-5.484a8.091,8.091,0,0,1,.852,1.824l.744-.648a4.244,4.244,0,0,0-1.6-1.524V-7.08h.876l.48.1v-.672l-.48.1h-.876V-9.612c.144-.108.192-.156.192-.24,0-.108-.084-.156-.252-.156h-.864V-7.56h-1.26l-.48-.1v.672l.48-.1h1.152a20.078,20.078,0,0,1-1.7,5.052l.264.18a11.81,11.81,0,0,0,1.548-2.832ZM139.98.816V-3.216h-5.028v4.1h.948V.312h3.12v.5ZM135.9-.168V-2.736h3.12V-.168Zm7.14-9.912a7.145,7.145,0,0,1,2.4,5.532A7.126,7.126,0,0,1,143.04.96h.648a6.9,6.9,0,0,0,2.628-5.52,6.9,6.9,0,0,0-2.628-5.52Z" transform="translate(133.756 2282)" fill="#111"/>
        </g>
        <path id="パス_142" data-name="パス 142" d="M8.448-12.688c.272-.1.384-.208.384-.352,0-.128-.112-.224-.32-.24l-1.36-.16a16.541,16.541,0,0,1-2.384,3.3A23.047,23.047,0,0,1,.64-6.608l.208.416A17.091,17.091,0,0,0,8.1-12.176l.064.1a14.028,14.028,0,0,0,6.5,5.584,8.661,8.661,0,0,1,.7-1.456,15.089,15.089,0,0,1-4.512-2.416A14.37,14.37,0,0,1,8.416-12.64Zm.176,6.064H12.08l.64.128v-.9l-.64.128H3.92l-.64-.128v.9l.64-.128H7.248v2.8h-3.5L3.12-3.952v.9l.624-.128h3.5V.048H2.064L1.424-.08v.9l.64-.128H14.112l.64.128v-.9l-.64.128H8.624V-3.184h3.632l.624.128v-.9l-.624.128H8.624Zm22.1,1.6.64.128v-.9l-.64.128H20.48V-7.44h8.208l.64.128v-.9l-.64.128H20.48V-9.76h8.208l.64.128v-.9l-.64.128H20.48v-1.648h8.832l.64.128v-.9l-.64.128H19.136v7.024H17.28l-.64-.128v.9l.64-.128h1.856V-.608c-.752.1-1.184.144-2.416.24L17.264.944c.112.256.176.336.3.336.176,0,.256-.1.352-.384A42.906,42.906,0,0,0,25.7-1.168l.08-.016A9.8,9.8,0,0,0,30.592,1.28,7.753,7.753,0,0,1,31.36-.16,11.4,11.4,0,0,1,26.672-1.9a20.486,20.486,0,0,0,3.04-1.424l.32.016c.224,0,.4-.128.4-.288,0-.064-.064-.16-.192-.24l-1.2-.8a18.73,18.73,0,0,1-2.832,2.384,6.819,6.819,0,0,1-2.1-2.768Zm-7.3,0A8.539,8.539,0,0,0,25.36-1.616l-.144.032c-1.136.256-2.3.448-4.736.8v-4.24Zm13.842-.382a3.864,3.864,0,0,1,.625.266,2.373,2.373,0,0,1,.6.453A2.263,2.263,0,0,1,38.941-4a2.451,2.451,0,0,1,.176.977,2.874,2.874,0,0,1-.324,1.4,3.073,3.073,0,0,1-.844.988,3.6,3.6,0,0,1-1.164.586,4.47,4.47,0,0,1-1.277.191A4.261,4.261,0,0,1,34.461.023a3.875,3.875,0,0,1-.824-.3A3.409,3.409,0,0,1,33-.7a4.4,4.4,0,0,1-.457-.437L33.07-1.6a2.637,2.637,0,0,0,.98.734,3.523,3.523,0,0,0,1.457.273,2.662,2.662,0,0,0,.809-.125,1.889,1.889,0,0,0,.7-.4,2,2,0,0,0,.492-.707A2.664,2.664,0,0,0,37.7-2.883a2.666,2.666,0,0,0-.148-.926,1.908,1.908,0,0,0-.418-.68,1.771,1.771,0,0,0-.648-.422,2.363,2.363,0,0,0-.848-.145h-.516v-.5a2.592,2.592,0,0,0,.8-.133,2.283,2.283,0,0,0,.742-.4,2.155,2.155,0,0,0,.547-.676,2.028,2.028,0,0,0,.215-.961,2.192,2.192,0,0,0-.141-.824,1.613,1.613,0,0,0-.379-.574,1.512,1.512,0,0,0-.555-.336,2.03,2.03,0,0,0-.668-.109,2.608,2.608,0,0,0-1.355.332,2.9,2.9,0,0,0-.949.934L32.8-8.656a3.655,3.655,0,0,1,1.277-1.238,3.251,3.251,0,0,1,1.605-.41,4.009,4.009,0,0,1,1.117.16,3.091,3.091,0,0,1,1,.488,2.5,2.5,0,0,1,.715.836,2.5,2.5,0,0,1,.273,1.2,1.991,1.991,0,0,1-.121.68,2.631,2.631,0,0,1-.328.629,2.885,2.885,0,0,1-.48.527A2.431,2.431,0,0,1,37.266-5.406ZM42.625-.383a2.413,2.413,0,0,1-.187,1,2.443,2.443,0,0,1-.5.727,3.522,3.522,0,0,1-.363.32q-.176.133-.309.219a1.952,1.952,0,0,1-.3.164l-.32-.32.25-.172q.109-.078.227-.172t.211-.18a1.838,1.838,0,0,0,.336-.461,1.139,1.139,0,0,0,.117-.586l-.055.016a.757.757,0,0,1-.141.008.8.8,0,0,1-.34-.074.9.9,0,0,1-.281-.2,1,1,0,0,1-.191-.293.864.864,0,0,1-.07-.344.9.9,0,0,1,.07-.359.869.869,0,0,1,.2-.285.882.882,0,0,1,.293-.187.958.958,0,0,1,.355-.066,1.073,1.073,0,0,1,.375.066.859.859,0,0,1,.32.211,1.052,1.052,0,0,1,.227.383A1.753,1.753,0,0,1,42.625-.383Zm5.211-4.734a2.243,2.243,0,0,0-.93.18,1.9,1.9,0,0,0-.668.492,2.1,2.1,0,0,0-.406.738,3.013,3.013,0,0,0-.137.926,3.49,3.49,0,0,0,.164,1.133,2.157,2.157,0,0,0,.453.785,1.793,1.793,0,0,0,.68.457,2.356,2.356,0,0,0,.844.148,2.387,2.387,0,0,0,.848-.148,1.787,1.787,0,0,0,.684-.457,2.157,2.157,0,0,0,.453-.785,3.49,3.49,0,0,0,.164-1.133,3.013,3.013,0,0,0-.137-.926,2.1,2.1,0,0,0-.406-.738,1.891,1.891,0,0,0-.672-.492A2.27,2.27,0,0,0,47.836-5.117Zm1.477-.3a3.1,3.1,0,0,1,.8.348,2.791,2.791,0,0,1,.66.563,2.612,2.612,0,0,1,.453.766,2.606,2.606,0,0,1,.168.949,2.9,2.9,0,0,1-.312,1.4,2.833,2.833,0,0,1-.816.949A3.34,3.34,0,0,1,49.121.09a5.018,5.018,0,0,1-1.285.168A5.109,5.109,0,0,1,46.527.09a3.3,3.3,0,0,1-1.137-.539,2.734,2.734,0,0,1-.8-.949,3,3,0,0,1-.3-1.4,2.606,2.606,0,0,1,.168-.949,2.612,2.612,0,0,1,.453-.766,2.791,2.791,0,0,1,.66-.562,3.1,3.1,0,0,1,.8-.348,2.259,2.259,0,0,1-.6-.3,2.686,2.686,0,0,1-.551-.512,2.723,2.723,0,0,1-.4-.672,2,2,0,0,1-.156-.785,2.7,2.7,0,0,1,.281-1.289,2.375,2.375,0,0,1,.734-.84,2.986,2.986,0,0,1,1.02-.453,4.861,4.861,0,0,1,1.145-.137,4.91,4.91,0,0,1,1.148.137,2.984,2.984,0,0,1,1.023.453,2.375,2.375,0,0,1,.734.84A2.7,2.7,0,0,1,51.023-7.7a2,2,0,0,1-.156.785,2.723,2.723,0,0,1-.4.672,2.686,2.686,0,0,1-.551.512A2.259,2.259,0,0,1,49.313-5.422Zm-1.477-.227A1.858,1.858,0,0,0,48.59-5.8a1.738,1.738,0,0,0,.594-.422,1.969,1.969,0,0,0,.387-.645,2.342,2.342,0,0,0,.141-.828,2.879,2.879,0,0,0-.145-.957,1.967,1.967,0,0,0-.395-.684,1.632,1.632,0,0,0-.594-.414,1.941,1.941,0,0,0-.742-.141,1.912,1.912,0,0,0-.738.141,1.64,1.64,0,0,0-.59.414,1.967,1.967,0,0,0-.395.684,2.879,2.879,0,0,0-.145.957,2.342,2.342,0,0,0,.141.828,1.934,1.934,0,0,0,.391.645,1.789,1.789,0,0,0,.594.422A1.811,1.811,0,0,0,47.836-5.648Zm6.9.18a1.573,1.573,0,0,1,.289-.379,2.491,2.491,0,0,1,.5-.387,3.276,3.276,0,0,1,.676-.3,2.6,2.6,0,0,1,.8-.121,4.194,4.194,0,0,1,1.3.2,3.009,3.009,0,0,1,1.1.629,3.044,3.044,0,0,1,.754,1.082,3.973,3.973,0,0,1,.281,1.57,3.1,3.1,0,0,1-.289,1.34A3.488,3.488,0,0,1,59.391-.77a3.478,3.478,0,0,1-1.1.7,3.411,3.411,0,0,1-1.285.25A3.474,3.474,0,0,1,55.852,0a3.37,3.37,0,0,1-.945-.508,3.616,3.616,0,0,1-.738-.766,4.774,4.774,0,0,1-.531-.961,5.425,5.425,0,0,1-.32-1.09,6.3,6.3,0,0,1-.105-1.148,8.279,8.279,0,0,1,.176-1.766A6.7,6.7,0,0,1,53.871-7.7a5.2,5.2,0,0,1,.723-1.137,4.515,4.515,0,0,1,.895-.816,3.8,3.8,0,0,1,1-.492,3.4,3.4,0,0,1,1.027-.164,3.412,3.412,0,0,1,1.391.289,3.389,3.389,0,0,1,1.188.9l-.477.43a2.528,2.528,0,0,0-.883-.711,2.728,2.728,0,0,0-1.2-.25,2.041,2.041,0,0,0-1.172.344,2.9,2.9,0,0,0-.855.918,4.937,4.937,0,0,0-.543,1.332A7.465,7.465,0,0,0,54.734-5.469Zm-.016,1.391a9.013,9.013,0,0,0,.172,1.449A4.356,4.356,0,0,0,55.3-1.437a2.273,2.273,0,0,0,.7.8,1.737,1.737,0,0,0,1.02.3,1.6,1.6,0,0,0,.8-.211,2.075,2.075,0,0,0,.652-.586,2.962,2.962,0,0,0,.438-.891,3.777,3.777,0,0,0,.16-1.125,4.58,4.58,0,0,0-.16-1.281,2.768,2.768,0,0,0-.437-.91,1.794,1.794,0,0,0-.652-.543,1.856,1.856,0,0,0-.812-.18,2.1,2.1,0,0,0-.676.121,2.4,2.4,0,0,0-.68.367,2.535,2.535,0,0,0-.574.621A2.539,2.539,0,0,0,54.719-4.078ZM65.758.141a2.981,2.981,0,0,1-1.094-.2,3.134,3.134,0,0,1-.9-.539,3.743,3.743,0,0,1-.707-.812,5.219,5.219,0,0,1-.512-1.023A6.451,6.451,0,0,1,62.23-3.6a7.407,7.407,0,0,1-.105-1.25A8.462,8.462,0,0,1,62.438-7.3a4.849,4.849,0,0,1,.855-1.684,3.346,3.346,0,0,1,1.27-.973,3.873,3.873,0,0,1,1.547-.312,3.047,3.047,0,0,1,1.387.332,3.4,3.4,0,0,1,1.156.969,5,5,0,0,1,.793,1.563,6.915,6.915,0,0,1,.3,2.113A8.109,8.109,0,0,1,69.426-2.9a5.128,5.128,0,0,1-.855,1.7A3.478,3.478,0,0,1,67.3-.2,3.642,3.642,0,0,1,65.758.141Zm-.016-9.9a1.843,1.843,0,0,0-1.117.32,2.231,2.231,0,0,0-.691.844,4.058,4.058,0,0,0-.352,1.184,9.2,9.2,0,0,0-.1,1.348q0,.563.043,1.2t.148,1.273a8.2,8.2,0,0,0,.3,1.215,4.309,4.309,0,0,0,.484,1.027,2.39,2.39,0,0,0,.707.711,1.769,1.769,0,0,0,.977.266,1.8,1.8,0,0,0,1.105-.324,2.272,2.272,0,0,0,.688-.852,4.112,4.112,0,0,0,.352-1.2,9.358,9.358,0,0,0,.1-1.355q0-.617-.047-1.277a12.1,12.1,0,0,0-.16-1.289,7.893,7.893,0,0,0-.309-1.191,4.039,4.039,0,0,0-.488-.984,2.347,2.347,0,0,0-.7-.672A1.752,1.752,0,0,0,65.742-9.758Zm7.585,1.742H71.855V-.064h1.472v-5.36a2.269,2.269,0,0,1,.752-1.184,2.28,2.28,0,0,1,1.664-.8c.784,0,1.168.544,1.168,1.664v5.68h1.472V-5.392a2.677,2.677,0,0,1,.736-1.232,2.255,2.255,0,0,1,1.6-.784,1.241,1.241,0,0,1,.816.288,2.21,2.21,0,0,1,.432,1.648V-.064h1.472V-5.6A2.652,2.652,0,0,0,82.9-7.408a2.621,2.621,0,0,0-1.888-.72,3.165,3.165,0,0,0-2.8,1.648,1.724,1.724,0,0,0-.416-.928,2.3,2.3,0,0,0-1.776-.72,3.206,3.206,0,0,0-2.688,1.52Zm13.92,0H85.775V-.064h1.472v-5.36A2.269,2.269,0,0,1,88-6.608a2.28,2.28,0,0,1,1.664-.8c.784,0,1.168.544,1.168,1.664v5.68H92.3V-5.392a2.677,2.677,0,0,1,.736-1.232,2.255,2.255,0,0,1,1.6-.784,1.241,1.241,0,0,1,.816.288,2.21,2.21,0,0,1,.432,1.648V-.064h1.472V-5.6a2.652,2.652,0,0,0-.544-1.808,2.621,2.621,0,0,0-1.888-.72,3.165,3.165,0,0,0-2.8,1.648,1.724,1.724,0,0,0-.416-.928,2.3,2.3,0,0,0-1.776-.72,3.206,3.206,0,0,0-2.688,1.52ZM103.935.128a9.62,9.62,0,0,0-4.464-3.056l-.3.384a14.281,14.281,0,0,1,3.456,3.824Zm19.04-12.816c.272-.1.384-.208.384-.352,0-.128-.112-.224-.32-.24l-1.36-.16a16.541,16.541,0,0,1-2.384,3.3,23.047,23.047,0,0,1-4.128,3.536l.208.416a17.091,17.091,0,0,0,7.248-5.984l.064.1a14.028,14.028,0,0,0,6.5,5.584,8.66,8.66,0,0,1,.7-1.456,15.089,15.089,0,0,1-4.512-2.416,14.37,14.37,0,0,1-2.432-2.272Zm.176,6.064h3.456l.64.128v-.9l-.64.128h-8.16l-.64-.128v.9l.64-.128h3.328v2.8h-3.5l-.624-.128v.9l.624-.128h3.5V.048h-5.184l-.64-.128v.9l.64-.128h12.048l.64.128v-.9l-.64.128h-5.488V-3.184h3.632l.624.128v-.9l-.624.128h-3.632Zm11.616-3.808h1.04v7.184c0,.3-.1.384-.384.4h-.464v.64h.816c.768,0,1.088-.32,1.088-1.056v-7.76h-2.1v-1.792c.208-.144.256-.208.256-.32,0-.144-.112-.208-.336-.208h-.976v2.32H131.7v8.912h1.056v-8.32h.96V1.184h1.056Zm10.56,4.624h-7.712V1.184h1.168V.4h5.344v.672h1.2Zm-1.2,3.328V-.24h-2.144V-2.48Zm0-.64h-2.144V-5.168h2.144Zm-3.3-2.048V-3.12h-2.048V-5.168ZM138.783-.24V-2.48h2.048V-.24Zm5.9-7.04v-3.488h-6.56V-7.28Zm-1.232-.64h-4.128v-2.208h4.128Zm-5.792-4.208h7.584l.64.128v-.9l-.64.128h-7.584l-.64-.128v.9Zm10.083,3.855,2.8-1.867h.289V-.562h1.484V0H148.1V-.562h1.469V-8.719l-1.484.945Zm8.6,7.891a2.413,2.413,0,0,1-.187,1,2.443,2.443,0,0,1-.5.727,3.522,3.522,0,0,1-.363.32q-.176.133-.309.219a1.953,1.953,0,0,1-.3.164l-.32-.32.25-.172q.109-.078.227-.172t.211-.18a1.838,1.838,0,0,0,.336-.461A1.139,1.139,0,0,0,155.5.156l-.055.016a.757.757,0,0,1-.141.008.8.8,0,0,1-.34-.074.9.9,0,0,1-.281-.2,1,1,0,0,1-.191-.293.864.864,0,0,1-.07-.344.9.9,0,0,1,.07-.359.869.869,0,0,1,.2-.285.882.882,0,0,1,.293-.187.958.958,0,0,1,.355-.066,1.073,1.073,0,0,1,.375.066.859.859,0,0,1,.32.211,1.052,1.052,0,0,1,.227.383A1.753,1.753,0,0,1,156.348-.383ZM159.895,0h-.844l4.125-8.914H158.7l-.562,1.328h-.547v-2.555h6.727v.555Zm6.8-6.383h1.617a5.3,5.3,0,0,1,1.336.164,2.943,2.943,0,0,1,1.105.539,2.639,2.639,0,0,1,.754.988,3.6,3.6,0,0,1,.281,1.5,3.1,3.1,0,0,1-.328,1.461,3.294,3.294,0,0,1-.844,1.043,3.616,3.616,0,0,1-1.156.629,4.053,4.053,0,0,1-1.273.211,4.176,4.176,0,0,1-1.051-.121,4,4,0,0,1-.828-.309,3.18,3.18,0,0,1-.629-.418,4.928,4.928,0,0,1-.453-.441l.508-.469a2.942,2.942,0,0,0,1,.762,3.319,3.319,0,0,0,1.457.293,2.437,2.437,0,0,0,.855-.152,1.981,1.981,0,0,0,.727-.473,2.294,2.294,0,0,0,.5-.82,3.408,3.408,0,0,0,.188-1.2,2.192,2.192,0,0,0-.16-.867,1.747,1.747,0,0,0-.445-.629,1.938,1.938,0,0,0-.68-.387,2.691,2.691,0,0,0-.863-.133h-2.43l.672-4.937h4.875V-8.9h-4.4Zm8.258,0h1.617a5.3,5.3,0,0,1,1.336.164,2.943,2.943,0,0,1,1.105.539,2.639,2.639,0,0,1,.754.988,3.6,3.6,0,0,1,.281,1.5,3.1,3.1,0,0,1-.328,1.461,3.294,3.294,0,0,1-.844,1.043,3.616,3.616,0,0,1-1.156.629,4.053,4.053,0,0,1-1.273.211A4.176,4.176,0,0,1,175.4.035a4,4,0,0,1-.828-.309,3.18,3.18,0,0,1-.629-.418,4.928,4.928,0,0,1-.453-.441L174-1.6a2.942,2.942,0,0,0,1,.762,3.319,3.319,0,0,0,1.457.293A2.437,2.437,0,0,0,177.3-.7a1.981,1.981,0,0,0,.727-.473,2.294,2.294,0,0,0,.5-.82,3.408,3.408,0,0,0,.188-1.2,2.192,2.192,0,0,0-.16-.867,1.747,1.747,0,0,0-.445-.629,1.938,1.938,0,0,0-.68-.387,2.691,2.691,0,0,0-.863-.133h-2.43l.672-4.937h4.875V-8.9h-4.4Zm8.82-1.633H182.3V-.064h1.472v-5.36a2.269,2.269,0,0,1,.752-1.184,2.28,2.28,0,0,1,1.664-.8c.784,0,1.168.544,1.168,1.664v5.68h1.472V-5.392a2.677,2.677,0,0,1,.736-1.232,2.255,2.255,0,0,1,1.6-.784,1.241,1.241,0,0,1,.816.288,2.21,2.21,0,0,1,.432,1.648V-.064h1.472V-5.6a2.652,2.652,0,0,0-.544-1.808,2.622,2.622,0,0,0-1.888-.72,3.165,3.165,0,0,0-2.8,1.648,1.724,1.724,0,0,0-.416-.928,2.3,2.3,0,0,0-1.776-.72,3.206,3.206,0,0,0-2.688,1.52Zm13.92,0h-1.472V-.064H197.7v-5.36a2.269,2.269,0,0,1,.752-1.184,2.28,2.28,0,0,1,1.664-.8c.784,0,1.168.544,1.168,1.664v5.68h1.472V-5.392a2.677,2.677,0,0,1,.736-1.232,2.255,2.255,0,0,1,1.6-.784,1.241,1.241,0,0,1,.816.288,2.21,2.21,0,0,1,.432,1.648V-.064h1.472V-5.6a2.652,2.652,0,0,0-.544-1.808,2.621,2.621,0,0,0-1.888-.72,3.165,3.165,0,0,0-2.8,1.648,1.724,1.724,0,0,0-.416-.928,2.3,2.3,0,0,0-1.776-.72,3.206,3.206,0,0,0-2.688,1.52ZM214.385.128a9.62,9.62,0,0,0-4.464-3.056l-.3.384a14.281,14.281,0,0,1,3.456,3.824Zm19.04-12.816c.272-.1.384-.208.384-.352,0-.128-.112-.224-.32-.24l-1.36-.16a16.54,16.54,0,0,1-2.384,3.3,23.047,23.047,0,0,1-4.128,3.536l.208.416a17.09,17.09,0,0,0,7.248-5.984l.064.1a14.028,14.028,0,0,0,6.5,5.584,8.66,8.66,0,0,1,.7-1.456,15.089,15.089,0,0,1-4.512-2.416,14.37,14.37,0,0,1-2.432-2.272Zm.176,6.064h3.456l.64.128v-.9l-.64.128H228.9l-.64-.128v.9l.64-.128h3.328v2.8h-3.5l-.624-.128v.9l.624-.128h3.5V.048h-5.184L226.4-.08v.9l.64-.128h12.048l.64.128v-.9l-.64.128H233.6V-3.184h3.632l.624.128v-.9l-.624.128H233.6Zm14.576-5.136h-5.824l-.64-.128v.9l.64-.128h13.232l.64.128v-.9l-.64.128h-5.952V-12.9c.208-.16.256-.224.256-.32,0-.16-.112-.224-.336-.224h-1.376Zm7.376,6.048H242.385v6.9h1.328V-5.072h10.512V-.24c-.016.5-.176.656-.672.672h-1.36V1.1h1.968c.976,0,1.408-.4,1.392-1.328ZM245.345-3.888V0h1.264V-.736h5.712V-3.888Zm1.264,2.512V-3.248h4.464v1.872Zm7.024-5.552V-9.952H244.3v3.024Zm-8-.64V-9.312H252.3v1.744ZM258.2-8.273l2.8-1.867h.289V-.562h1.484V0h-4.219V-.562h1.469V-8.719l-1.484.945Zm8.6,7.891a2.413,2.413,0,0,1-.187,1,2.442,2.442,0,0,1-.5.727,3.522,3.522,0,0,1-.363.32q-.176.133-.309.219a1.951,1.951,0,0,1-.3.164l-.32-.32.25-.172q.109-.078.227-.172t.211-.18a1.838,1.838,0,0,0,.336-.461,1.139,1.139,0,0,0,.117-.586L265.9.172a.757.757,0,0,1-.141.008.8.8,0,0,1-.34-.074.9.9,0,0,1-.281-.2,1,1,0,0,1-.191-.293.864.864,0,0,1-.07-.344.9.9,0,0,1,.07-.359.869.869,0,0,1,.2-.285.883.883,0,0,1,.293-.187.958.958,0,0,1,.355-.066,1.073,1.073,0,0,1,.375.066.859.859,0,0,1,.32.211,1.052,1.052,0,0,1,.227.383A1.753,1.753,0,0,1,266.8-.383Zm1.344-2.594,5.07-7.164h.828v6.734H275.8v1.07h-1.766V0h-1.273V-2.336h-4.625Zm4.625-.43V-8.492L269.2-3.406Zm6.125-2.062a1.573,1.573,0,0,1,.289-.379,2.49,2.49,0,0,1,.5-.387,3.276,3.276,0,0,1,.676-.3,2.6,2.6,0,0,1,.8-.121,4.194,4.194,0,0,1,1.3.2,3.009,3.009,0,0,1,1.1.629,3.045,3.045,0,0,1,.754,1.082,3.973,3.973,0,0,1,.281,1.57,3.1,3.1,0,0,1-.289,1.34,3.488,3.488,0,0,1-.766,1.063,3.478,3.478,0,0,1-1.1.7,3.411,3.411,0,0,1-1.285.25A3.474,3.474,0,0,1,280.008,0a3.369,3.369,0,0,1-.945-.508,3.616,3.616,0,0,1-.738-.766,4.773,4.773,0,0,1-.531-.961,5.425,5.425,0,0,1-.32-1.09,6.3,6.3,0,0,1-.105-1.148,8.279,8.279,0,0,1,.176-1.766,6.7,6.7,0,0,1,.484-1.453,5.2,5.2,0,0,1,.723-1.137,4.515,4.515,0,0,1,.895-.816,3.8,3.8,0,0,1,1-.492,3.4,3.4,0,0,1,1.027-.164,3.412,3.412,0,0,1,1.391.289,3.389,3.389,0,0,1,1.188.9l-.477.43a2.528,2.528,0,0,0-.883-.711,2.728,2.728,0,0,0-1.2-.25,2.041,2.041,0,0,0-1.172.344,2.9,2.9,0,0,0-.855.918,4.937,4.937,0,0,0-.543,1.332A7.465,7.465,0,0,0,278.891-5.469Zm-.016,1.391a9.014,9.014,0,0,0,.172,1.449,4.356,4.356,0,0,0,.414,1.191,2.273,2.273,0,0,0,.7.8,1.737,1.737,0,0,0,1.02.3,1.6,1.6,0,0,0,.8-.211,2.075,2.075,0,0,0,.652-.586,2.962,2.962,0,0,0,.438-.891,3.776,3.776,0,0,0,.16-1.125,4.58,4.58,0,0,0-.16-1.281,2.768,2.768,0,0,0-.437-.91,1.794,1.794,0,0,0-.652-.543,1.856,1.856,0,0,0-.812-.18,2.1,2.1,0,0,0-.676.121,2.4,2.4,0,0,0-.68.367,2.535,2.535,0,0,0-.574.621A2.539,2.539,0,0,0,278.875-4.078ZM289.914.141a2.981,2.981,0,0,1-1.094-.2,3.134,3.134,0,0,1-.9-.539,3.744,3.744,0,0,1-.707-.812A5.22,5.22,0,0,1,286.7-2.43a6.45,6.45,0,0,1-.312-1.172,7.407,7.407,0,0,1-.105-1.25,8.462,8.462,0,0,1,.313-2.453,4.85,4.85,0,0,1,.855-1.684,3.346,3.346,0,0,1,1.27-.973,3.873,3.873,0,0,1,1.547-.312,3.047,3.047,0,0,1,1.387.332,3.4,3.4,0,0,1,1.156.969A5,5,0,0,1,293.6-7.41a6.916,6.916,0,0,1,.3,2.113,8.109,8.109,0,0,1-.316,2.395,5.128,5.128,0,0,1-.855,1.7A3.478,3.478,0,0,1,291.461-.2,3.642,3.642,0,0,1,289.914.141Zm-.016-9.9a1.843,1.843,0,0,0-1.117.32,2.231,2.231,0,0,0-.691.844,4.057,4.057,0,0,0-.352,1.184,9.2,9.2,0,0,0-.1,1.348q0,.563.043,1.2t.148,1.273a8.2,8.2,0,0,0,.3,1.215,4.308,4.308,0,0,0,.484,1.027,2.39,2.39,0,0,0,.707.711,1.769,1.769,0,0,0,.977.266A1.8,1.8,0,0,0,291.4-.691a2.272,2.272,0,0,0,.688-.852,4.112,4.112,0,0,0,.352-1.2,9.359,9.359,0,0,0,.1-1.355q0-.617-.047-1.277a12.1,12.1,0,0,0-.16-1.289,7.893,7.893,0,0,0-.309-1.191,4.039,4.039,0,0,0-.488-.984,2.347,2.347,0,0,0-.7-.672A1.752,1.752,0,0,0,289.9-9.758Zm7.585,1.742h-1.472V-.064h1.472v-5.36a2.269,2.269,0,0,1,.752-1.184,2.28,2.28,0,0,1,1.664-.8c.784,0,1.168.544,1.168,1.664v5.68h1.472V-5.392a2.677,2.677,0,0,1,.736-1.232,2.255,2.255,0,0,1,1.6-.784,1.241,1.241,0,0,1,.816.288,2.21,2.21,0,0,1,.432,1.648V-.064H307.6V-5.6a2.652,2.652,0,0,0-.544-1.808,2.622,2.622,0,0,0-1.888-.72,3.165,3.165,0,0,0-2.8,1.648,1.724,1.724,0,0,0-.416-.928,2.3,2.3,0,0,0-1.776-.72,3.206,3.206,0,0,0-2.688,1.52Zm13.92,0h-1.472V-.064H311.4v-5.36a2.269,2.269,0,0,1,.752-1.184,2.28,2.28,0,0,1,1.664-.8c.784,0,1.168.544,1.168,1.664v5.68h1.472V-5.392a2.677,2.677,0,0,1,.736-1.232,2.255,2.255,0,0,1,1.6-.784,1.241,1.241,0,0,1,.816.288,2.21,2.21,0,0,1,.432,1.648V-.064h1.472V-5.6a2.652,2.652,0,0,0-.544-1.808,2.622,2.622,0,0,0-1.888-.72,3.165,3.165,0,0,0-2.8,1.648,1.724,1.724,0,0,0-.416-.928,2.3,2.3,0,0,0-1.776-.72,3.206,3.206,0,0,0-2.688,1.52ZM328.092.128a9.62,9.62,0,0,0-4.464-3.056l-.3.384A14.281,14.281,0,0,1,326.78,1.28Zm19.424-9.28h5.024l.7.144v-1.024l-.7.144h-5.024V-12.16c.224-.16.32-.272.32-.416a.288.288,0,0,0-.3-.272l-1.616-.112.144.96v2.112h-5.12l-.7-.144v1.024l.7-.144h5.12V-.944c0,.544-.24.784-.8.784h-1.632V.576h2.688c.832.016,1.2-.384,1.2-1.3Zm1.584,1.9a19.893,19.893,0,0,1,3.2,5.984l1.536-.8A11.525,11.525,0,0,0,349.42-7.52ZM339.756-1.2a11.027,11.027,0,0,0,4.224-5.2c.288-.112.4-.224.4-.384a.337.337,0,0,0-.24-.3l-1.5-.544-.192.88a14.806,14.806,0,0,1-2.976,5.2Zm24.688-7.376a41.137,41.137,0,0,0,3.408-3.008c.432-.048.608-.16.608-.384a.5.5,0,0,0-.256-.368l-1.232-.816-.576.864a31.127,31.127,0,0,1-10.5,7.28l.176.48a21.1,21.1,0,0,0,6.88-2.976V.848h1.488Zm21.024,2.112-13.36-.5v1.68l13.36-.48ZM395.132.512a7.927,7.927,0,0,0,4.752-2.9,11.2,11.2,0,0,0,2.32-5.264l-.5-.16c-1.056,3.008-3.056,5.456-5.152,6.3V-11.84c.24-.16.32-.272.32-.416a.3.3,0,0,0-.3-.272l-1.584-.112.144.96ZM387.564.56a8.778,8.778,0,0,0,3.584-3.808,14.907,14.907,0,0,0,.944-6.24V-11.3c.24-.16.32-.272.32-.416a.288.288,0,0,0-.3-.272l-1.632-.112.144.96v1.792c0,4.864-.768,7.056-3.344,9.488Zm29.824-12.128a3.178,3.178,0,0,0-1.84-1.7l-.288.224a5.975,5.975,0,0,1,1.056,2.016Zm-3.968-1.1a6.556,6.556,0,0,1,.88,2.128l1.12-.512a3.309,3.309,0,0,0-1.712-1.824Zm4.608,11.12c-2.3-2.32-6.128-6.608-7.952-8.944-.656-.848-.9-1.072-1.184-1.072-.32,0-.576.24-1.712,1.648-1.728,2.1-2.208,2.672-3.056,3.552l-.8.672.9,1.216a.394.394,0,0,0,.32.208c.192,0,.288-.144.3-.432.864-1.2,1.376-1.936,3.168-4.56.64-.976.752-1.12.864-1.12.064,0,.144.08.336.384a111.83,111.83,0,0,0,7.68,9.808Zm15.44-4.912-13.36-.5v1.68l13.36-.48Zm10.608,1.136a20.147,20.147,0,0,0,3.3-6.48H437.9l-.7-.144v1.024l.7-.144h7.568A18.438,18.438,0,0,1,435.8-.288l.224.5a16.085,16.085,0,0,0,7.712-5.1A27.31,27.31,0,0,1,448.316.32L449.74-.832a19.544,19.544,0,0,0-5.456-4.384ZM454.192-9.6a2.673,2.673,0,0,0-.719.1,2.768,2.768,0,0,0-.664.281,3.036,3.036,0,0,0-.578.441,3.03,3.03,0,0,0-.461.57l-.594-.336a3.851,3.851,0,0,1,1.352-1.316,3.417,3.417,0,0,1,1.7-.441,4.145,4.145,0,0,1,1.172.172,3.373,3.373,0,0,1,1.059.52,2.672,2.672,0,0,1,.766.883,2.588,2.588,0,0,1,.293,1.262,2.682,2.682,0,0,1-.254,1.172,5.089,5.089,0,0,1-.664,1.031,11.836,11.836,0,0,1-.941,1.012q-.531.512-1.078,1.121L452.84-1.25h4.789V0h-6.242V-.531l2.9-3.289q.359-.414.691-.867a8.228,8.228,0,0,0,.586-.918,5.6,5.6,0,0,0,.406-.926,2.833,2.833,0,0,0,.152-.891,2.681,2.681,0,0,0-.137-.875,2.023,2.023,0,0,0-.391-.687,1.812,1.812,0,0,0-.609-.453A1.87,1.87,0,0,0,454.192-9.6Zm7.023,9.219a2.413,2.413,0,0,1-.187,1,2.442,2.442,0,0,1-.5.727,3.522,3.522,0,0,1-.363.32q-.176.133-.309.219a1.951,1.951,0,0,1-.3.164l-.32-.32.25-.172q.109-.078.227-.172t.211-.18a1.838,1.838,0,0,0,.336-.461,1.139,1.139,0,0,0,.117-.586l-.055.016a.757.757,0,0,1-.141.008.8.8,0,0,1-.34-.074.9.9,0,0,1-.281-.2,1,1,0,0,1-.191-.293.864.864,0,0,1-.07-.344.9.9,0,0,1,.07-.359.869.869,0,0,1,.2-.285.883.883,0,0,1,.293-.187.958.958,0,0,1,.355-.066,1.073,1.073,0,0,1,.375.066.859.859,0,0,1,.32.211,1.052,1.052,0,0,1,.227.383A1.753,1.753,0,0,1,461.215-.383Zm2.844-6h1.617a5.3,5.3,0,0,1,1.336.164,2.942,2.942,0,0,1,1.105.539,2.639,2.639,0,0,1,.754.988,3.6,3.6,0,0,1,.281,1.5,3.1,3.1,0,0,1-.328,1.461,3.294,3.294,0,0,1-.844,1.043,3.615,3.615,0,0,1-1.156.629,4.053,4.053,0,0,1-1.273.211A4.176,4.176,0,0,1,464.5.035a4,4,0,0,1-.828-.309,3.181,3.181,0,0,1-.629-.418,4.926,4.926,0,0,1-.453-.441L463.1-1.6a2.942,2.942,0,0,0,1,.762,3.319,3.319,0,0,0,1.457.293,2.437,2.437,0,0,0,.855-.152,1.981,1.981,0,0,0,.727-.473,2.294,2.294,0,0,0,.5-.82,3.408,3.408,0,0,0,.188-1.2,2.192,2.192,0,0,0-.16-.867,1.748,1.748,0,0,0-.445-.629,1.938,1.938,0,0,0-.68-.387,2.691,2.691,0,0,0-.863-.133h-2.43l.672-4.937h4.875V-8.9h-4.4ZM473.747-9.6a2.673,2.673,0,0,0-.719.1,2.768,2.768,0,0,0-.664.281,3.036,3.036,0,0,0-.578.441,3.03,3.03,0,0,0-.461.57l-.594-.336a3.851,3.851,0,0,1,1.352-1.316,3.417,3.417,0,0,1,1.7-.441,4.145,4.145,0,0,1,1.172.172,3.373,3.373,0,0,1,1.059.52,2.672,2.672,0,0,1,.766.883,2.588,2.588,0,0,1,.293,1.262,2.682,2.682,0,0,1-.254,1.172,5.089,5.089,0,0,1-.664,1.031,11.836,11.836,0,0,1-.941,1.012q-.531.512-1.078,1.121L472.395-1.25h4.789V0h-6.242V-.531l2.9-3.289q.359-.414.691-.867a8.228,8.228,0,0,0,.586-.918,5.6,5.6,0,0,0,.406-.926,2.833,2.833,0,0,0,.152-.891,2.681,2.681,0,0,0-.137-.875,2.023,2.023,0,0,0-.391-.687,1.812,1.812,0,0,0-.609-.453A1.87,1.87,0,0,0,473.747-9.6Zm6.414,3.219h1.617a5.3,5.3,0,0,1,1.336.164,2.942,2.942,0,0,1,1.105.539,2.639,2.639,0,0,1,.754.988,3.6,3.6,0,0,1,.281,1.5,3.1,3.1,0,0,1-.328,1.461,3.294,3.294,0,0,1-.844,1.043,3.615,3.615,0,0,1-1.156.629,4.053,4.053,0,0,1-1.273.211A4.176,4.176,0,0,1,480.6.035a4,4,0,0,1-.828-.309,3.181,3.181,0,0,1-.629-.418,4.926,4.926,0,0,1-.453-.441L479.2-1.6a2.942,2.942,0,0,0,1,.762,3.319,3.319,0,0,0,1.457.293,2.437,2.437,0,0,0,.855-.152,1.981,1.981,0,0,0,.727-.473,2.294,2.294,0,0,0,.5-.82,3.408,3.408,0,0,0,.188-1.2,2.192,2.192,0,0,0-.16-.867,1.748,1.748,0,0,0-.445-.629,1.938,1.938,0,0,0-.68-.387,2.691,2.691,0,0,0-.863-.133h-2.43l.672-4.937h4.875V-8.9h-4.4Zm8.82-1.633h-1.472V-.064h1.472v-5.36a2.269,2.269,0,0,1,.752-1.184,2.28,2.28,0,0,1,1.664-.8c.784,0,1.168.544,1.168,1.664v5.68h1.472V-5.392a2.677,2.677,0,0,1,.736-1.232,2.255,2.255,0,0,1,1.6-.784,1.241,1.241,0,0,1,.816.288,2.21,2.21,0,0,1,.432,1.648V-.064h1.472V-5.6a2.652,2.652,0,0,0-.544-1.808,2.622,2.622,0,0,0-1.888-.72,3.165,3.165,0,0,0-2.8,1.648,1.724,1.724,0,0,0-.416-.928,2.3,2.3,0,0,0-1.776-.72,3.206,3.206,0,0,0-2.688,1.52Zm13.92,0h-1.472V-.064H502.9v-5.36a2.269,2.269,0,0,1,.752-1.184,2.28,2.28,0,0,1,1.664-.8c.784,0,1.168.544,1.168,1.664v5.68h1.472V-5.392a2.677,2.677,0,0,1,.736-1.232,2.255,2.255,0,0,1,1.6-.784,1.241,1.241,0,0,1,.816.288,2.21,2.21,0,0,1,.432,1.648V-.064h1.472V-5.6a2.652,2.652,0,0,0-.544-1.808,2.622,2.622,0,0,0-1.888-.72,3.165,3.165,0,0,0-2.8,1.648,1.724,1.724,0,0,0-.416-.928,2.3,2.3,0,0,0-1.776-.72,3.206,3.206,0,0,0-2.688,1.52ZM519.588.128a9.62,9.62,0,0,0-4.464-3.056l-.3.384a14.282,14.282,0,0,1,3.456,3.824ZM7.5,17.168H14.72l.64.128v-.9l-.64.128H1.28L.64,16.4v.9l.64-.128h.8V23.28c-.128.032-.208.032-.432.064-.336.048-.672.1-1.008.128l.448,1.168c.064.16.176.256.288.256.128,0,.224-.1.3-.32a32.7,32.7,0,0,0,4.64-1.584V25.28H7.5ZM6.32,19.12v1.424H3.264V19.12Zm-3.056-.64V17.168H6.32V18.48Zm3.056,2.7v1.28L6,22.528c-.8.192-1.968.432-2.736.56v-1.9Zm1.664,4.1a8.75,8.75,0,0,0,3.552-1.92,8.179,8.179,0,0,0,3.136,1.824,8.063,8.063,0,0,1,.688-1.248,8.878,8.878,0,0,1-3.024-1.424,13.664,13.664,0,0,0,2.272-4.224H8.864l-.64-.128v.9l.64-.128h.192a8.825,8.825,0,0,0,1.808,3.728A8.173,8.173,0,0,1,7.792,24.88Zm5.024-6.352a12.782,12.782,0,0,1-1.5,2.912,7.43,7.43,0,0,1-1.888-2.912ZM2.72,11.136v4.272H13.36V11.136ZM4,14.768V13.552h8.048v1.216Zm0-1.856V11.776h8.048v1.136Zm19.2-.672H17.376l-.64-.128v.9l.64-.128H30.608l.64.128v-.9l-.64.128H24.656V11.1c.208-.16.256-.224.256-.32,0-.16-.112-.224-.336-.224H23.2Zm7.376,6.048H17.408v6.9h1.328V18.928H29.248V23.76c-.016.5-.176.656-.672.672h-1.36V25.1h1.968c.976,0,1.408-.4,1.392-1.328ZM20.368,20.112V24h1.264v-.736h5.712V20.112Zm1.264,2.512V20.752H26.1v1.872Zm7.024-5.552V14.048H19.328v3.024Zm-8-.64V14.688h6.672v1.744Zm18.576,7.1H34.7V19.328c.208-.144.256-.208.256-.32,0-.144-.112-.208-.336-.208h-1.3v6.272H34.7v-.9H45.3v.8h1.376V19.328c.208-.16.256-.208.256-.32,0-.144-.112-.208-.336-.208H45.3v4.736H40.608V17.36H45.92V12.5c.208-.144.256-.208.256-.32,0-.144-.112-.208-.336-.208h-1.3V16.72H40.608V11.184c.192-.144.256-.208.256-.32,0-.144-.112-.208-.336-.208h-1.3V16.72H35.44V12.5c.208-.144.256-.208.256-.32,0-.144-.112-.208-.336-.208h-1.3V17.36h5.168Zm14.64-9.248a20.243,20.243,0,0,1-.912,5.168,9.614,9.614,0,0,1-4.32,5.136l.24.512a9.561,9.561,0,0,0,5.2-4.7,17.206,17.206,0,0,0,1.248-6.112H60.8c-.08,2.464-.384,6.88-.544,7.968-.144,1.536-.416,1.9-1.376,1.888H56.752V24.9h2.88c1.36.016,1.936-.528,2.08-1.984.176-1.12.544-7.024.608-9.3H55.36c.048-.544.064-1.056.064-1.584v-.944c.192-.144.256-.208.256-.32,0-.144-.112-.208-.336-.208H53.952v1.472c0,.384-.016.944-.048,1.584H49.68l-.624-.128v.928l.624-.128Zm11.347,1.439,2.8-1.867H68.3v9.578h1.484V24H65.57v-.562h1.469V15.281l-1.484.945Zm12.328,3.617a1.662,1.662,0,0,1-.289.371,2.6,2.6,0,0,1-.5.391,3.149,3.149,0,0,1-.676.3,2.6,2.6,0,0,1-.8.121,4.194,4.194,0,0,1-1.3-.2,2.981,2.981,0,0,1-1.1-.633,3.084,3.084,0,0,1-.754-1.086,3.973,3.973,0,0,1-.281-1.57,3.1,3.1,0,0,1,.289-1.34,3.44,3.44,0,0,1,.766-1.059,3.514,3.514,0,0,1,1.1-.7,3.411,3.411,0,0,1,1.285-.25,3.306,3.306,0,0,1,1.656.4,3.706,3.706,0,0,1,1.188,1.059,4.708,4.708,0,0,1,.715,1.5,6.253,6.253,0,0,1,.238,1.715,8.038,8.038,0,0,1-.359,2.523,5.773,5.773,0,0,1-.945,1.816,3.972,3.972,0,0,1-1.336,1.1,3.4,3.4,0,0,1-1.523.371,3.285,3.285,0,0,1-2.555-1.187l.477-.43a2.205,2.205,0,0,0,.879.676,3.038,3.038,0,0,0,1.184.215,2.013,2.013,0,0,0,1.16-.332,2.638,2.638,0,0,0,.809-.895,4.648,4.648,0,0,0,.484-1.309A9.381,9.381,0,0,0,77.547,19.344Zm.016-1.391a8.929,8.929,0,0,0-.172-1.445,4.418,4.418,0,0,0-.414-1.191,2.264,2.264,0,0,0-.7-.809,1.737,1.737,0,0,0-1.02-.3,1.6,1.6,0,0,0-.8.211,2.075,2.075,0,0,0-.652.586,2.962,2.962,0,0,0-.437.891,3.777,3.777,0,0,0-.16,1.125,4.58,4.58,0,0,0,.16,1.281,2.768,2.768,0,0,0,.438.91,1.794,1.794,0,0,0,.652.543,1.856,1.856,0,0,0,.813.18,2.1,2.1,0,0,0,.676-.121,2.4,2.4,0,0,0,.68-.367,2.563,2.563,0,0,0,.574-.617A2.5,2.5,0,0,0,77.563,17.953Zm6.945,6.188a2.981,2.981,0,0,1-1.094-.2,3.134,3.134,0,0,1-.9-.539,3.743,3.743,0,0,1-.707-.812,5.219,5.219,0,0,1-.512-1.023A6.451,6.451,0,0,1,80.98,20.4a7.407,7.407,0,0,1-.105-1.25,8.462,8.462,0,0,1,.313-2.453,4.849,4.849,0,0,1,.855-1.684,3.346,3.346,0,0,1,1.27-.973,3.873,3.873,0,0,1,1.547-.312,3.047,3.047,0,0,1,1.387.332,3.4,3.4,0,0,1,1.156.969A5,5,0,0,1,88.2,16.59a6.915,6.915,0,0,1,.3,2.113,8.109,8.109,0,0,1-.316,2.395,5.128,5.128,0,0,1-.855,1.7A3.478,3.478,0,0,1,86.055,23.8,3.642,3.642,0,0,1,84.508,24.141Zm-.016-9.9a1.843,1.843,0,0,0-1.117.32,2.231,2.231,0,0,0-.691.844,4.058,4.058,0,0,0-.352,1.184,9.2,9.2,0,0,0-.1,1.348q0,.563.043,1.2t.148,1.273a8.2,8.2,0,0,0,.3,1.215,4.309,4.309,0,0,0,.484,1.027,2.39,2.39,0,0,0,.707.711,1.769,1.769,0,0,0,.977.266A1.8,1.8,0,0,0,86,23.309a2.272,2.272,0,0,0,.688-.852,4.112,4.112,0,0,0,.352-1.2,9.358,9.358,0,0,0,.1-1.355q0-.617-.047-1.277a12.1,12.1,0,0,0-.16-1.289,7.893,7.893,0,0,0-.309-1.191,4.039,4.039,0,0,0-.488-.984,2.347,2.347,0,0,0-.7-.672A1.752,1.752,0,0,0,84.492,14.242ZM92.077,19.9l3.952,4.032h2.016l-4.56-4.672,3.952-3.28H96.205l-4.128,3.408V11.9H90.605V23.936h1.472Zm13.7-8-2.656,9.472L100.366,11.9H98.749l3.5,12.032h1.04l2.672-9.5,2.736,9.5h1.04l3.5-12.032h-.912l-2.768,9.536-2.72-9.536Zm13.232,12.224a9.62,9.62,0,0,0-4.464-3.056l-.3.384a14.281,14.281,0,0,1,3.456,3.824Zm18.1-6.96h7.216l.64.128v-.9l-.64.128h-13.44l-.64-.128v.9l.64-.128h.8V23.28c-.128.032-.208.032-.432.064-.336.048-.672.1-1.008.128l.448,1.168c.064.16.176.256.288.256.128,0,.224-.1.3-.32a32.7,32.7,0,0,0,4.64-1.584V25.28H137.1Zm-1.184,1.952v1.424h-3.056V19.12Zm-3.056-.64V17.168h3.056V18.48Zm3.056,2.7v1.28l-.32.064c-.8.192-1.968.432-2.736.56v-1.9Zm1.664,4.1a8.75,8.75,0,0,0,3.552-1.92,8.179,8.179,0,0,0,3.136,1.824,8.064,8.064,0,0,1,.688-1.248,8.878,8.878,0,0,1-3.024-1.424,13.664,13.664,0,0,0,2.272-4.224h-5.744l-.64-.128v.9l.64-.128h.192a8.825,8.825,0,0,0,1.808,3.728,8.173,8.173,0,0,1-3.072,2.224Zm5.024-6.352a12.781,12.781,0,0,1-1.5,2.912,7.43,7.43,0,0,1-1.888-2.912Zm-10.288-7.792v4.272h10.64V11.136Zm1.28,3.632V13.552h8.048v1.216Zm0-1.856V11.776h8.048v1.136Zm26.384,2.752.672.128v-.976l-.672.128H153.95l.016-.048c.112-1.12.192-2.32.192-3.216v-.5c.208-.144.256-.208.256-.32,0-.144-.112-.208-.336-.208H152.7v1.056c.016.464-.112,2.288-.208,3.184l-.016.048h-5.264l-.672-.128v.976l.672-.128H152.4a11.275,11.275,0,0,1-6.16,9.088l.256.432a10.6,10.6,0,0,0,7.3-8.912,13.409,13.409,0,0,0,6.3,8.832,9.42,9.42,0,0,1,.864-1.6,13.407,13.407,0,0,1-5.216-4.448,9.958,9.958,0,0,1-1.648-3.392Zm8.272-3.856c.208-.112.32-.24.32-.384s-.128-.256-.32-.272l-1.6-.112.112.96V24.768h1.488v-8.48a15.894,15.894,0,0,1,5.968,4.128l1.088-1.456a17.076,17.076,0,0,0-7.056-3.264Zm17.792,12.7a7.927,7.927,0,0,0,4.752-2.9,11.2,11.2,0,0,0,2.32-5.264l-.5-.16c-1.056,3.008-3.056,5.456-5.152,6.3V12.16c.24-.16.32-.272.32-.416a.3.3,0,0,0-.3-.272L185.9,11.36l.144.96Zm-7.568.048a8.778,8.778,0,0,0,3.584-3.808,14.907,14.907,0,0,0,.944-6.24V12.7c.24-.16.32-.272.32-.416a.288.288,0,0,0-.3-.272L181.39,11.9l.144.96v1.792c0,4.864-.768,7.056-3.344,9.488Zm22.64-11.328c.176-.352.32-.7.56-1.328.3-.144.416-.24.416-.416,0-.144-.112-.24-.352-.288l-1.5-.32-.16.912a13.641,13.641,0,0,1-4.3,6.368l.256.384a10.736,10.736,0,0,0,4.7-4.576h5.008a13.972,13.972,0,0,1-3.9,7.168,15.725,15.725,0,0,1-6,3.136l.1.48a14.244,14.244,0,0,0,6.432-2.448c2.64-1.92,4.4-5.024,5.136-9.072Zm13.746,5.362a3.864,3.864,0,0,1,.625.266,2.373,2.373,0,0,1,.6.453,2.263,2.263,0,0,1,.449.688,2.451,2.451,0,0,1,.176.977,2.874,2.874,0,0,1-.324,1.4,3.073,3.073,0,0,1-.844.988,3.6,3.6,0,0,1-1.164.586,4.47,4.47,0,0,1-1.277.191,4.261,4.261,0,0,1-1.047-.117,3.875,3.875,0,0,1-.824-.3,3.409,3.409,0,0,1-.633-.414,4.4,4.4,0,0,1-.457-.437l.523-.469a2.637,2.637,0,0,0,.98.734,3.523,3.523,0,0,0,1.457.273,2.661,2.661,0,0,0,.809-.125,1.889,1.889,0,0,0,.7-.4,2,2,0,0,0,.492-.707,3.025,3.025,0,0,0,.039-1.984,1.907,1.907,0,0,0-.418-.68,1.771,1.771,0,0,0-.648-.422,2.363,2.363,0,0,0-.848-.145h-.516v-.5a2.592,2.592,0,0,0,.8-.133,2.283,2.283,0,0,0,.742-.4,2.155,2.155,0,0,0,.547-.676,2.028,2.028,0,0,0,.215-.961,2.192,2.192,0,0,0-.141-.824,1.613,1.613,0,0,0-.379-.574,1.512,1.512,0,0,0-.555-.336,2.03,2.03,0,0,0-.668-.109,2.608,2.608,0,0,0-1.355.332,2.9,2.9,0,0,0-.949.934l-.578-.352a3.655,3.655,0,0,1,1.277-1.238,3.251,3.251,0,0,1,1.605-.41,4.009,4.009,0,0,1,1.117.16,3.091,3.091,0,0,1,1,.488,2.435,2.435,0,0,1,.988,2.039,1.991,1.991,0,0,1-.121.68,2.631,2.631,0,0,1-.328.629,2.884,2.884,0,0,1-.48.527A2.432,2.432,0,0,1,214.863,18.594Zm4.75-.977h1.617a5.3,5.3,0,0,1,1.336.164,2.943,2.943,0,0,1,1.105.539,2.639,2.639,0,0,1,.754.988,3.6,3.6,0,0,1,.281,1.5,3.1,3.1,0,0,1-.328,1.461,3.294,3.294,0,0,1-.844,1.043,3.616,3.616,0,0,1-1.156.629,4.053,4.053,0,0,1-1.273.211,4.176,4.176,0,0,1-1.051-.121,4,4,0,0,1-.828-.309,3.18,3.18,0,0,1-.629-.418,4.928,4.928,0,0,1-.453-.441l.508-.469a2.942,2.942,0,0,0,1,.762,3.319,3.319,0,0,0,1.457.293,2.437,2.437,0,0,0,.855-.152,1.981,1.981,0,0,0,.727-.473,2.294,2.294,0,0,0,.5-.82,3.408,3.408,0,0,0,.188-1.2,2.192,2.192,0,0,0-.16-.867,1.747,1.747,0,0,0-.445-.629,1.938,1.938,0,0,0-.68-.387,2.691,2.691,0,0,0-.863-.133H218.8l.672-4.937h4.875V15.1h-4.4Zm10.758,6.523a2.981,2.981,0,0,1-1.094-.2,3.134,3.134,0,0,1-.9-.539,3.743,3.743,0,0,1-.707-.812,5.219,5.219,0,0,1-.512-1.023,6.452,6.452,0,0,1-.312-1.172,7.407,7.407,0,0,1-.105-1.25,8.463,8.463,0,0,1,.313-2.453,4.849,4.849,0,0,1,.855-1.684,3.346,3.346,0,0,1,1.27-.973,3.873,3.873,0,0,1,1.547-.312,3.047,3.047,0,0,1,1.387.332,3.4,3.4,0,0,1,1.156.969,5,5,0,0,1,.793,1.563,6.915,6.915,0,0,1,.3,2.113,8.109,8.109,0,0,1-.316,2.395,5.128,5.128,0,0,1-.855,1.7,3.478,3.478,0,0,1-1.266,1.012A3.642,3.642,0,0,1,230.371,24.141Zm-.016-9.9a1.843,1.843,0,0,0-1.117.32,2.231,2.231,0,0,0-.691.844,4.058,4.058,0,0,0-.352,1.184,9.2,9.2,0,0,0-.1,1.348q0,.563.043,1.2t.148,1.273a8.2,8.2,0,0,0,.3,1.215,4.309,4.309,0,0,0,.484,1.027,2.39,2.39,0,0,0,.707.711,1.769,1.769,0,0,0,.977.266,1.8,1.8,0,0,0,1.105-.324,2.272,2.272,0,0,0,.688-.852,4.113,4.113,0,0,0,.352-1.2,9.357,9.357,0,0,0,.1-1.355q0-.617-.047-1.277a12.1,12.1,0,0,0-.16-1.289,7.893,7.893,0,0,0-.309-1.191,4.038,4.038,0,0,0-.488-.984,2.347,2.347,0,0,0-.7-.672A1.752,1.752,0,0,0,230.355,14.242Zm14.721,9.694h1.056V11.9h-.88v9.712L237.685,11.9h-1.056V23.936h.88V14.224Zm5.024-7.952h-1.472v7.952H250.1v-5.36a2.269,2.269,0,0,1,.752-1.184,2.28,2.28,0,0,1,1.664-.8c.784,0,1.168.544,1.168,1.664v5.68h1.472V18.608a2.677,2.677,0,0,1,.736-1.232,2.255,2.255,0,0,1,1.6-.784,1.241,1.241,0,0,1,.816.288,2.21,2.21,0,0,1,.432,1.648v5.408h1.472V18.4a2.652,2.652,0,0,0-.544-1.808,2.622,2.622,0,0,0-1.888-.72,3.165,3.165,0,0,0-2.8,1.648,1.724,1.724,0,0,0-.416-.928,2.3,2.3,0,0,0-1.776-.72,3.206,3.206,0,0,0-2.688,1.52Zm16.688,8.144a9.62,9.62,0,0,0-4.464-3.056l-.3.384a14.281,14.281,0,0,1,3.456,3.824Zm16.24.848a10.049,10.049,0,0,0,4.384-1.744c2.064-1.568,2.592-3.056,2.576-7.2v-4.16c.24-.16.32-.272.32-.416a.288.288,0,0,0-.3-.272l-1.648-.112.144.96v4.1c-.016,3.488-.368,4.72-1.808,6.176a9.275,9.275,0,0,1-3.776,2.192Zm-2.256-12.7v7.776h1.488v-7.92c.24-.176.32-.288.32-.416a.288.288,0,0,0-.3-.272l-1.648-.128Zm14.352,4.384-.7-.144v1.024l.7-.144h6.016a6.941,6.941,0,0,1-1.264,4.144,9.564,9.564,0,0,1-4.272,2.8l.128.464a9.932,9.932,0,0,0,5.152-2.48c1.072-1.072,1.584-2.512,1.744-4.928h5.008l.7.144V16.512l-.7.144h-4.96c.032-.848.048-1.568.048-2.064v-1.44c.864-.08,1.664-.208,3.36-.512a2.381,2.381,0,0,0,.464.08.333.333,0,0,0,.336-.3.7.7,0,0,0-.24-.464l-.832-.784-.752.32a55.094,55.094,0,0,1-9.68,1.488l.032.5c1.248.032,1.44.032,1.936.032,1.232,0,1.728-.032,3.84-.192h.048v1.28c0,.464-.016,1.2-.048,2.064Zm21.36-2.784h-5.056v4.8h1.52V14.608h8.816c-.032,2.7-.592,4.832-1.616,6.112a11.312,11.312,0,0,1-6.176,3.568l.1.5a11.994,11.994,0,0,0,6.816-2.768c1.776-1.728,2.448-3.808,2.624-8.144h-5.488V11.92c.24-.16.32-.272.32-.416a.3.3,0,0,0-.3-.272l-1.7-.112.144.96Zm24.08,9.632a14.7,14.7,0,0,0-5.008-6.88l-.336.288a23.978,23.978,0,0,1,2.5,4.128c-3.056.448-5.056.656-8.048.848l.192-.352a74.173,74.173,0,0,0,4-9.12c.3-.128.432-.24.432-.416,0-.144-.112-.256-.336-.32l-1.584-.5-.16.928a84.111,84.111,0,0,1-3.28,9.312l-.224.544h-.1c-.432.032-.832.048-2.176.112l.512,1.392c.128.3.224.416.384.416.176,0,.288-.1.432-.384a69.611,69.611,0,0,0,10.256-1.856,25.081,25.081,0,0,1,1.024,2.768Zm8.832-7.312a1.736,1.736,0,1,0,1.712,1.728A1.738,1.738,0,0,0,349.4,16.192Zm17.744-.768a41.137,41.137,0,0,0,3.408-3.008c.432-.048.608-.16.608-.384a.5.5,0,0,0-.256-.368l-1.232-.816-.576.864a31.127,31.127,0,0,1-10.5,7.28l.176.48a21.1,21.1,0,0,0,6.88-2.976v8.352h1.488Zm15.968,7.744c-.032.672-.256.88-.928.9h-1.664V24.8h2.624a1.551,1.551,0,0,0,1.04-.3,1.412,1.412,0,0,0,.4-.96V23.28l-.192-8.224h3.536l.64.128v-.992l-.64.128h-3.552l-.064-2.592c.208-.16.272-.256.272-.384,0-.16-.144-.272-.4-.272l-1.488-.08.16,1.072.048,2.256h-7.248l-.64-.128v.992l.64-.128h6.288l-.032.048a18.977,18.977,0,0,1-7.2,7.776l.208.384c3.328-1.248,5.456-3.072,8.032-6.912Zm20.96-9.184a15.882,15.882,0,0,1-4.08,5.184,15.05,15.05,0,0,1-7.344,3.248l-.848.016.576,1.424c.1.224.24.352.4.352.176,0,.3-.112.416-.368,3.616-.816,5.888-1.9,7.856-3.76a13.486,13.486,0,0,0,3.472-5.888ZM391.653,12.24a15.042,15.042,0,0,1,3.984,3.424l1.312-1.328a9.874,9.874,0,0,0-5.1-2.512ZM413.4,16.192a1.736,1.736,0,1,0,1.712,1.728A1.738,1.738,0,0,0,413.4,16.192Zm23.5-4.128a3.2,3.2,0,0,0-1.888-1.664l-.256.224a6.431,6.431,0,0,1,1.072,2.016Zm-14.608,11.7c2.64-2.1,4.352-5.168,5.248-9.472.352-.128.5-.272.5-.48,0-.16-.128-.288-.368-.352L426,13.04l-.048.928a21.717,21.717,0,0,1-4.016,9.488Zm8.048-10.384a30.8,30.8,0,0,1,4.432,10.272l1.664-.928c-1.152-3.92-3.344-7.664-5.664-9.68Zm2.544-2.512a7.033,7.033,0,0,1,.976,2.192l1.072-.512a3.166,3.166,0,0,0-1.76-1.888Zm10,14.08a8.486,8.486,0,0,0,5.056-2.816,12.429,12.429,0,0,0,2.4-5.632c.256-.064.352-.16.352-.3,0-.1-.08-.192-.24-.24l-1.5-.48-.032.848a15.416,15.416,0,0,1-1.68,4.608,8.446,8.446,0,0,1-4.512,3.552Zm.352-5.712a5.992,5.992,0,0,0-2.64-3.552l-.272.208a10.747,10.747,0,0,1,1.648,3.824Zm3.168-.4a6.331,6.331,0,0,0-2.528-3.552l-.288.224a10.817,10.817,0,0,1,1.536,3.824Zm21.232-1.7.7.144V16.256l-.7.144H455.125l-.7-.144V17.28l.7-.144h5.712a9,9,0,0,1-.544,3.5,7.427,7.427,0,0,1-4.848,3.712l.128.528c2.592-.528,4.7-1.648,5.632-2.976a7.643,7.643,0,0,0,1.184-4.768Zm-2.08-5.184h-8.448l-.7-.144v1.024l.7-.144h8.448l.7.144V11.808Zm9.472,13.024a10.049,10.049,0,0,0,4.384-1.744c2.064-1.568,2.592-3.056,2.576-7.2v-4.16c.24-.16.32-.272.32-.416a.288.288,0,0,0-.3-.272l-1.648-.112.144.96v4.1c-.016,3.488-.368,4.72-1.808,6.176a9.275,9.275,0,0,1-3.776,2.192Zm-2.256-12.7v7.776h1.488v-7.92c.24-.176.32-.288.32-.416a.288.288,0,0,0-.3-.272l-1.648-.128Zm27.392,5.264-13.36-.5v1.68l13.36-.48Zm9.68-1.392c.256-.112.352-.192.352-.336,0-.128-.08-.192-.336-.256l-1.072-.272a19.989,19.989,0,0,1-6.768,5.536l.144.432a18.469,18.469,0,0,0,2.512-1.024v4.96H506v-.7h6.752V25.1h1.328V20.24a13.126,13.126,0,0,0,2,.832,7.257,7.257,0,0,1,.656-1.392,15.274,15.274,0,0,1-6.848-3.5Zm-4.992,3.984a15.777,15.777,0,0,0,4.64-3.632,13.772,13.772,0,0,0,4.384,3.632ZM506,23.84V20.768h6.752V23.84ZM508.6,12.128h-4.48a4.2,4.2,0,0,0-.032-.672h-.544a4.073,4.073,0,0,1-1.52,2.592L503,15.232a3.39,3.39,0,0,0,1.088-2.464h10.784a12.525,12.525,0,0,1-.88,1.808l.32.24a6.114,6.114,0,0,0,2.432-2.688H510v-1.04c.208-.16.256-.208.256-.3,0-.16-.112-.224-.336-.224H508.6Zm1.888,1.968a18.9,18.9,0,0,1,4,3.04l1.088-1.12A16.533,16.533,0,0,0,510.8,13.7Zm-7.12,3.2a11.865,11.865,0,0,0,4.224-2.608c.352-.064.544-.176.544-.336,0-.08-.112-.192-.256-.256l-1.2-.528a14,14,0,0,1-3.552,3.328Zm21.376,6.928h-6.08l-.64-.128v.848l.64-.128H532.1l.64.128V24.1l-.64.128h-6.192V23.008h5.04l.624.128v-.848l-.624.128h-5.04v-1.1H530.9V17.328h-11.04v3.984h4.88v1.1H519.8l-.624-.128v.848l.624-.128h4.944Zm0-3.5h-3.648V19.6h3.648Zm0-1.712h-3.648V17.92h3.648Zm1.168-1.088h3.76v1.088h-3.76Zm0,1.68h3.76v1.12h-3.76Zm-5.84-8.48v3.872h10.624V11.12Zm1.28.592h8.064v1.024h-8.064Zm0,2.688V13.328h8.064V14.4Zm-2.592,2.048H532l.64.128v-.848l-.64.128H518.757l-.64-.128v.848ZM2.078,41.617H3.7a5.3,5.3,0,0,1,1.336.164,2.942,2.942,0,0,1,1.105.539,2.639,2.639,0,0,1,.754.988,3.6,3.6,0,0,1,.281,1.5,3.1,3.1,0,0,1-.328,1.461A3.294,3.294,0,0,1,6,47.316a3.616,3.616,0,0,1-1.156.629,4.053,4.053,0,0,1-1.273.211,4.176,4.176,0,0,1-1.051-.121,4,4,0,0,1-.828-.309,3.18,3.18,0,0,1-.629-.418,4.927,4.927,0,0,1-.453-.441l.508-.469a2.942,2.942,0,0,0,1,.762,3.319,3.319,0,0,0,1.457.293,2.437,2.437,0,0,0,.855-.152,1.981,1.981,0,0,0,.727-.473,2.294,2.294,0,0,0,.5-.82,3.408,3.408,0,0,0,.188-1.2,2.192,2.192,0,0,0-.16-.867,1.747,1.747,0,0,0-.445-.629,1.938,1.938,0,0,0-.68-.387A2.691,2.691,0,0,0,3.7,42.8H1.266l.672-4.937H6.813V39.1h-4.4Zm6.758,3.406,5.07-7.164h.828v6.734H16.5v1.07H14.734V48H13.461V45.664H8.836Zm4.625-.43V39.508l-3.57,5.086Zm4.508,2.672a.964.964,0,0,1,.074-.379.934.934,0,0,1,.508-.508,1,1,0,0,1,.758,0,.934.934,0,0,1,.508.508,1,1,0,0,1,0,.758.934.934,0,0,1-.508.508,1,1,0,0,1-.758,0,.934.934,0,0,1-.508-.508A.964.964,0,0,1,17.969,47.266ZM24.117,38.4a2.673,2.673,0,0,0-.719.1,2.768,2.768,0,0,0-.664.281A3.063,3.063,0,0,0,21.7,39.789l-.594-.336a3.851,3.851,0,0,1,1.352-1.316,3.417,3.417,0,0,1,1.7-.441,4.145,4.145,0,0,1,1.172.172,3.373,3.373,0,0,1,1.059.52,2.672,2.672,0,0,1,.766.883,2.588,2.588,0,0,1,.293,1.262,2.682,2.682,0,0,1-.254,1.172,5.088,5.088,0,0,1-.664,1.031,11.835,11.835,0,0,1-.941,1.012q-.531.512-1.078,1.121L22.766,46.75h4.789V48H21.313v-.531l2.9-3.289q.359-.414.691-.867a8.225,8.225,0,0,0,.586-.918,5.6,5.6,0,0,0,.406-.926,2.833,2.833,0,0,0,.152-.891,2.681,2.681,0,0,0-.137-.875,2.023,2.023,0,0,0-.391-.687,1.812,1.812,0,0,0-.609-.453A1.87,1.87,0,0,0,24.117,38.4ZM31.093,43.9l3.952,4.032h2.016L32.5,43.264l3.952-3.28H35.221l-4.128,3.408V35.9H29.621V47.936h1.472Zm13.7-8-2.656,9.472L39.381,35.9H37.765l3.5,12.032h1.04l2.672-9.5,2.736,9.5h1.04l3.5-12.032h-.912L48.581,45.44,45.861,35.9Zm8.944,0V47.936h1.472v-5.2a3.377,3.377,0,0,1,.9-1.408,1.959,1.959,0,0,1,1.44-.736c.928,0,1.44.7,1.44,1.984v5.36h1.472V42.512a2.461,2.461,0,0,0-2.576-2.64,3.1,3.1,0,0,0-2.672,1.648V35.9Z" transform="translate(0 274.831)" fill="#111"/>
      </g>
      <g id="car-name" transform="translate(-933 2.391)">
        <g id="グループ_877" data-name="グループ 877" transform="translate(-3 4156.641)">
          <rect id="長方形_201" data-name="長方形 201" width="224.656" height="22.624" transform="translate(933 2.56)"/>
          <path id="パス_141" data-name="パス 141" d="M1.472-5.76H14.528l.832.16V-6.928l-.832.16H1.472L.64-6.928V-5.6ZM28.7-6.352A12.527,12.527,0,0,1,29.84-5.008l1.168-1.248a18.637,18.637,0,0,0-4.992-3.36l-.384.432A24.615,24.615,0,0,1,28.16-6.928L27.3-6.9c-1.824.064-2.56.08-5.28.112l-.928.016a19.144,19.144,0,0,0,2.592-3.616l.016-.048h6.832l.64.128v-.9l-.64.128H24.752V-12.9c.192-.144.256-.208.256-.32,0-.144-.112-.208-.352-.208H23.3v2.352H17.488l-.624-.128v.9l.624-.128h4.56a28.969,28.969,0,0,1-1.632,3.408l-.144.256c-1.824.032-2,.032-2.208.032h-.816l.32,1.264c.064.24.176.368.32.368s.256-.128.352-.384c.544-.016,1.056-.048,1.216-.064l.88-.048.88-.064A8.781,8.781,0,0,1,20.32-2,5.822,5.822,0,0,1,16.656.688l.176.5A6.953,6.953,0,0,0,21.2-1.088,7.466,7.466,0,0,0,22.624-5.76l.192-.016c.336-.032.352-.032,1.2-.1.1-.016.576-.064,1.008-.1v5.28c0,1.216.432,1.568,1.888,1.552h2.56c1.1.016,1.568-.416,1.68-1.5l.208-1.872-.72-.112L30.464-1.1c-.064.528-.288.72-.816.72H27.12c-.608-.032-.752-.16-.752-.64V-6.08l.432-.048a8.407,8.407,0,0,0,1.04-.128Zm11.744,4.96H45.76v-4.5H34.208V-.3h1.2V-1.392h3.856V-.144C39.3.624,39.68.88,40.848.912h5.008c.864,0,1.216-.3,1.344-1.168l.144-1.184L46.72-1.5l-.128.8c-.08.432-.256.56-.784.576H41.04c-.528-.032-.608-.08-.592-.48Zm0-3.856h4.08V-4h-4.08Zm0,1.888h4.08v1.328h-4.08ZM39.264-2.032H35.408V-3.36h3.856Zm0-1.968H35.408V-5.248h3.856Zm0-6.4v3.856h1.184V-10.4H45.76a15.071,15.071,0,0,1-.784,2.208L45.392-8a6.015,6.015,0,0,0,1.952-3.04h-6.9v-1.1h4.96l.64.128v-.9l-.64.128H34.784l-.624-.128v.9l.624-.128h4.48v1.1H34.512v-.048L34.5-11.5h-.544A4.387,4.387,0,0,1,32.64-8.816l.992,1.12a4.282,4.282,0,0,0,.88-2.7Zm-4.3,3.392h3.5v-.64h-3.5Zm0-1.7h3.5v-.64h-3.5Zm6.288,1.7h3.568v-.64H41.248Zm0-1.7H44.8v-.64H41.248Zm15.6,4.88H61.1l.64.128v-.9l-.64.128H56.848v-2.72h5.776l.64.128v-.9l-.64.128H56.848v-2.7h4.464l.64.128v-.9l-.64.128H56.848v-1.664c.208-.16.256-.208.256-.3,0-.16-.112-.224-.352-.224h-1.28v2.192h-4.8l-.624-.128v.9l.624-.128h4.8v2.7h-6.08l-.624-.128v.9l.624-.128h6.08V-.928a4.963,4.963,0,0,1-3.088-2.848c.1-.416.176-.8.32-1.68.24-.1.368-.208.368-.352,0-.112-.128-.208-.3-.224l-1.376-.16C51.1-2.608,50.4-.848,48.64.832l.288.352a6.458,6.458,0,0,0,3.3-4.3,9.28,9.28,0,0,0,.56,1.136A5.3,5.3,0,0,0,56.8.56a32.073,32.073,0,0,0,4.752.224h1.36A7.221,7.221,0,0,1,63.36-.64c-1.6.1-2.816.144-3.936.144a20.332,20.332,0,0,1-2.576-.128ZM76.88-7.2h1.84l.64.128v-.9l-.64.128H70.9l-.64-.128v.9L70.9-7.2h4.576V-.336c0,.512-.224.736-.72.736H73.008v.672h2.416c1.024,0,1.472-.416,1.456-1.392ZM67.008,1.184h1.328V-7.024c.352-.448.56-.7,1.088-1.408.416-.032.56-.112.56-.336,0-.1-.064-.176-.192-.256l-1.12-.736A25.083,25.083,0,0,1,64.64-4.368l.272.4a19.061,19.061,0,0,0,2.1-1.664Zm4.88-12.976H77.9l.64.128v-.928l-.64.128H71.888l-.64-.128v.928ZM65.1-9.344a14.366,14.366,0,0,0,4-2.72,1.133,1.133,0,0,0,.432-.048.252.252,0,0,0,.192-.224c0-.08-.048-.16-.176-.256l-1.12-.848a17.149,17.149,0,0,1-3.6,3.7Zm19.76,4.656h1.12l.64.128v-.9l-.64.128h-1.12v-2.48h1.52v-4.96h-4.96v4.96h2.288v6.9c-.144.016-.576.08-1.056.16v-5.28c.176-.144.224-.208.224-.3,0-.144-.112-.208-.352-.208H81.5V-.608H81.44c-.224.032-.368.048-.8.1l.3,1.136c.048.192.144.3.272.3s.24-.112.288-.352a32.334,32.334,0,0,0,5.28-1.568l-.064-.464c-.432.08-.88.176-1.344.256-.288.048-.352.064-.512.1Zm-2.24-3.76v-3.68h2.56v3.68ZM88.96-.368v-3.36h5.616V-9.072H88.96v-2.976h5.488l.64.128v-.9l-.64.128h-6.8V1.184H88.96V.272H94.7L95.36.4V-.5L94.7-.368Zm0-8.064h4.272v4.064H88.96Zm14.1,6.544V-.512c-.016.528-.192.7-.7.72h-1.136V.88h1.616c.944,0,1.36-.384,1.344-1.264V-5.232h-3.328c.08-.288.192-.688.272-1.088h2.624V-9.952c.208-.144.256-.208.256-.32,0-.144-.112-.208-.336-.208h-1.008v3.52H98.48V-9.968c.208-.16.256-.224.256-.32,0-.144-.128-.224-.336-.224H97.392V-6.32h2.624c-.032.288-.048.32-.176,1.088H97.12V.928h1.152v-5.52h1.44c-.208,1.04-.352,1.728-.432,2.08l-.064.016c-.336.016-.336.016-.768.032l.288.976c.032.144.128.24.224.24s.192-.1.272-.3a15.46,15.46,0,0,0,2.5-.72,9.867,9.867,0,0,1,.336.976Zm0-2.7v2.64a7.518,7.518,0,0,0-1.712-2.032l-.336.16c.288.56.4.8.528,1.1-.368.048-1.408.16-1.648.176.208-.48.592-1.5.768-2.048Zm6-2.512v-2.48h1.472l.64.128v-.9l-.64.128h-2.064a9.662,9.662,0,0,0,1.328-2.16c.256-.08.416-.208.416-.3a.332.332,0,0,0-.224-.24l-1.216-.384a20.606,20.606,0,0,1-.88,3.088h-1.872l.016-.048a16.239,16.239,0,0,0,.944-2.208c.288-.1.448-.224.448-.336,0-.08-.112-.192-.208-.224l-1.264-.4A25.474,25.474,0,0,1,103.9-7.824l.32.24a13.738,13.738,0,0,0,1.04-1.344V1.184h1.12V.32h4.336l.64.128v-.9l-.64.128h-1.664V-3.312h1.1l.64.128v-.9l-.64.128h-1.1V-6.464h1.1l.64.128v-.9l-.64.128Zm-1.1,0h-1.568v-2.48h1.568Zm0,.64v2.512h-1.568V-6.464Zm0,3.152V-.32h-1.568V-3.312Zm-9.1-6.752c.608.464.8.608,1.3,1.04a13.337,13.337,0,0,1-1.536,1.44l.24.336A9.653,9.653,0,0,0,100.72-8.5a10.257,10.257,0,0,1,1.088,1.12l.736-.752a9.7,9.7,0,0,0-1.216-.96l.032-.032c.24-.272.368-.432.416-.48.1-.112.128-.176.256-.32.272-.016.4-.1.4-.224a.217.217,0,0,0-.112-.176l-.88-.464a13.623,13.623,0,0,1-.832,1.216c-.448-.288-.8-.48-1.472-.832ZM101.3-11.84v-.976c.208-.144.256-.208.256-.32,0-.144-.112-.208-.336-.208H99.984v1.5h-2.7l-.64-.128v.9l.64-.128H103.9l.624.128v-.9l-.624.128Zm18.72,8.368a1.089,1.089,0,0,0-1.1,1.072,1.076,1.076,0,0,0,1.072,1.088A1.079,1.079,0,0,0,121.072-2.4,1.079,1.079,0,0,0,120.016-3.472Zm0-7.36a1.089,1.089,0,0,0-1.1,1.072A1.089,1.089,0,0,0,120-8.672a1.076,1.076,0,0,0,1.072-1.088A1.079,1.079,0,0,0,120.016-10.832Zm8.707,7.111,6.338-8.955H136.1v8.418H138.3V-2.92H136.1V0H134.5V-2.92h-5.781Zm5.781-.537v-6.357l-4.463,6.357ZM143.625-12a3.341,3.341,0,0,0-.9.122,3.459,3.459,0,0,0-.83.352,3.8,3.8,0,0,0-.723.552,3.787,3.787,0,0,0-.576.713l-.742-.42a4.814,4.814,0,0,1,1.689-1.646,4.271,4.271,0,0,1,2.119-.552,5.182,5.182,0,0,1,1.465.215,4.216,4.216,0,0,1,1.323.649,3.341,3.341,0,0,1,.957,1.1,3.235,3.235,0,0,1,.366,1.577,3.353,3.353,0,0,1-.317,1.465,6.361,6.361,0,0,1-.83,1.289,14.794,14.794,0,0,1-1.177,1.265q-.664.64-1.348,1.4l-2.168,2.354h5.986V0h-7.8V-.664l3.623-4.111q.449-.518.864-1.084a10.283,10.283,0,0,0,.732-1.147,7,7,0,0,0,.508-1.157,3.541,3.541,0,0,0,.19-1.113,3.351,3.351,0,0,0-.171-1.094,2.529,2.529,0,0,0-.488-.859,2.265,2.265,0,0,0-.762-.566A2.338,2.338,0,0,0,143.625-12Zm6.943,1.66,3.5-2.334h.361V-.7h1.855V0h-5.273V-.7h1.836V-10.9l-1.855,1.182Zm7.63-1.576v-.5l2.646-.185v7.928h.281l2.988-2.9h-1.222v-.545h3.472v.545h-1.345l-2.628,2.61,3.744,4.43h1.081V0h-3.981V-.536H164.3l-2.883-3.533h-.571V-.536h1.116V0h-3.621V-.536h1.151V-11.918ZM170.107-.536h.958V0h-3.5V-.536h1.187v-7.04H167.6V-8.1l2.47-.141.035.861a2.161,2.161,0,0,1,.835-.7,2.787,2.787,0,0,1,1.222-.246,3.25,3.25,0,0,1,.813.092,2.25,2.25,0,0,1,.62.255,1.842,1.842,0,0,1,.448.382,2.27,2.27,0,0,1,.308.475,2.312,2.312,0,0,1,.439-.536,2.465,2.465,0,0,1,.558-.378,2.678,2.678,0,0,1,.642-.22,3.382,3.382,0,0,1,.69-.07,2.838,2.838,0,0,1,1.248.237,1.954,1.954,0,0,1,.756.624,2.319,2.319,0,0,1,.374.9,5.365,5.365,0,0,1,.1,1.046V-.536h1.169V0h-3.454V-.536h.923V-5.528a3.3,3.3,0,0,0-.325-1.657,1.1,1.1,0,0,0-1.011-.541,2.156,2.156,0,0,0-.571.088,1.667,1.667,0,0,0-.593.308,1.731,1.731,0,0,0-.466.6,2.189,2.189,0,0,0-.189.971V-.536h1.028V0h-3.4V-.536H173.3V-5.528q0-2.2-1.354-2.2a1.868,1.868,0,0,0-.541.1,1.788,1.788,0,0,0-.6.334,1.972,1.972,0,0,0-.492.624,2.073,2.073,0,0,0-.2.967Zm13.072-10.18.241,1.953h-.7l.231-1.953L181.39-9.527l-.343-.62,1.794-.754-1.794-.769.359-.61,1.543,1.179-.231-1.922h.7L183.18-11.1l1.553-1.169.354.6L183.3-10.9l1.784.754-.343.61Zm3.117-.713,1.835-1.225h.19v6.285h.974V-6h-2.768v-.369h.964v-5.352l-.974.62Z" transform="translate(950.36 20)" fill="#fff"/>
        </g>
        <path id="パス_140" data-name="パス 140" d="M22.625-19.906v18.75h2.5V0H17.406V-1.156h2.5v-16.5L13.188-.031H11.75L11.719,0,4.734-17.8V-1.156H7.2V0H.8V-1.156H3.359v-18.75H.8v-1.187H6.2L13.063-3.547,19.75-21.094h5.375v1.188Zm13.25-.031H32.7V-1.156H36V0H26.719V-1.156h3.3V-19.937H26.844v-1.156h9.031Zm20.641-1.156v1.188H53.828V0H52.344L41.531-17.766V-1.156H44.25V0H37.594V-1.156h2.563v-18.75H37.594v-1.187h5.219L52.406-5.375V-19.906H49.828v-1.187Zm10.75,1.156H64.094V-1.156h3.3V0H58.109V-1.156h3.3V-19.937H58.234v-1.156h9.031Zm9.469,0v-1.156h9.156v1.156H82.625V1.922a6.388,6.388,0,0,1-.414,2.43,4.739,4.739,0,0,1-1.094,1.656,4.284,4.284,0,0,1-1.539.953,5.2,5.2,0,0,1-1.75.3,6.055,6.055,0,0,1-2.172-.375,5.476,5.476,0,0,1-1.609-.906l.828-.828a4.607,4.607,0,0,0,1.2.742,4.4,4.4,0,0,0,1.758.3,1.712,1.712,0,0,0,.93-.25,2.029,2.029,0,0,0,.664-.7,3.367,3.367,0,0,0,.391-1.078,7.233,7.233,0,0,0,.125-1.4V-19.937Zm26.5,10.844a22.737,22.737,0,0,0-.164-2.711,18.623,18.623,0,0,0-.5-2.617,14.21,14.21,0,0,0-.844-2.336,7.99,7.99,0,0,0-1.2-1.883A5.374,5.374,0,0,0,98.938-19.9a4.252,4.252,0,0,0-1.984-.461,5.912,5.912,0,0,0-2.922.664,5.239,5.239,0,0,0-1.906,1.8,7.947,7.947,0,0,0-1.031,2.641,15.607,15.607,0,0,0-.312,3.188,21.321,21.321,0,0,0,.141,2.688,19.171,19.171,0,0,0,.484,2.625,14.342,14.342,0,0,0,.836,2.375,8.476,8.476,0,0,0,1.2,1.93,5.336,5.336,0,0,0,1.578,1.3,4.106,4.106,0,0,0,1.969.477,6.051,6.051,0,0,0,2.945-.656,5.283,5.283,0,0,0,1.93-1.8,7.861,7.861,0,0,0,1.055-2.68A16.126,16.126,0,0,0,103.234-9.094Zm-6.25-12.281a9.76,9.76,0,0,1,2.977.422,8.112,8.112,0,0,1,2.328,1.156,7.757,7.757,0,0,1,1.727,1.727,10.1,10.1,0,0,1,1.18,2.125,11.362,11.362,0,0,1,.672,2.352,14.179,14.179,0,0,1,.211,2.422,16.325,16.325,0,0,1-.219,2.625,14.73,14.73,0,0,1-.68,2.625A12.147,12.147,0,0,1,103.992-3.5a8.881,8.881,0,0,1-1.734,2,7.847,7.847,0,0,1-2.32,1.359,8.244,8.244,0,0,1-2.953.5,9.838,9.838,0,0,1-3.031-.43,8.008,8.008,0,0,1-2.328-1.172,7.61,7.61,0,0,1-1.7-1.742,9.825,9.825,0,0,1-1.141-2.141,12.122,12.122,0,0,1-.641-2.367,14.851,14.851,0,0,1-.2-2.43,17.065,17.065,0,0,1,.211-2.633A14.892,14.892,0,0,1,88.8-15.18a11.708,11.708,0,0,1,1.156-2.4,8.409,8.409,0,0,1,1.719-1.969,7.879,7.879,0,0,1,2.328-1.336A8.475,8.475,0,0,1,96.984-21.375Zm28.641,1.438V-1.156h2.313V0h-7.172V-1.156h2.141v-9.375h-9.781v9.375H115.3V0h-7.172V-1.156h2.313V-19.937h-2.312v-1.156H115.3v1.156h-2.172v8.156h9.781v-8.156h-2.141v-1.156h7.172v1.156Zm22.828-1.156v1.188h-2.687V0h-1.484L133.469-17.766V-1.156h2.719V0h-6.656V-1.156h2.563v-18.75h-2.562v-1.187h5.219l9.594,15.719V-19.906h-2.578v-1.187ZM172-15.391a6.894,6.894,0,0,0-.6-2.32,5.034,5.034,0,0,0-1.1-1.531,4.047,4.047,0,0,0-1.4-.852,4.535,4.535,0,0,0-1.508-.266,5.947,5.947,0,0,0-2.937.664,5.3,5.3,0,0,0-1.914,1.8A7.846,7.846,0,0,0,161.5-15.25a15.607,15.607,0,0,0-.312,3.188,22.028,22.028,0,0,0,.164,2.672,18.213,18.213,0,0,0,.5,2.578A13.663,13.663,0,0,0,162.7-4.5a7.941,7.941,0,0,0,1.227,1.875,5.352,5.352,0,0,0,1.625,1.25,4.528,4.528,0,0,0,2.039.453,5.249,5.249,0,0,0,1.734-.3,5.358,5.358,0,0,0,1.625-.914,6.2,6.2,0,0,0,1.32-1.508,6.263,6.263,0,0,0,.82-2.086h1.219a7.839,7.839,0,0,1-.852,2.414,7.364,7.364,0,0,1-1.531,1.938A6.872,6.872,0,0,1,169.852-.1a6.623,6.623,0,0,1-2.461.461,9.838,9.838,0,0,1-3.031-.43,8.008,8.008,0,0,1-2.328-1.172,7.61,7.61,0,0,1-1.7-1.742,9.825,9.825,0,0,1-1.141-2.141,12.122,12.122,0,0,1-.641-2.367,14.851,14.851,0,0,1-.2-2.43,16.916,16.916,0,0,1,.211-2.625,14.922,14.922,0,0,1,.656-2.617,11.9,11.9,0,0,1,1.156-2.406,8.344,8.344,0,0,1,1.719-1.977,7.879,7.879,0,0,1,2.328-1.336,8.475,8.475,0,0,1,2.977-.492,10.4,10.4,0,0,1,2.219.219,9.489,9.489,0,0,1,1.813.578,7.815,7.815,0,0,1,1.445.82,7.644,7.644,0,0,1,1.086.945v3.422Zm19.594,6.3a22.737,22.737,0,0,0-.164-2.711,18.624,18.624,0,0,0-.5-2.617,14.209,14.209,0,0,0-.844-2.336,7.99,7.99,0,0,0-1.2-1.883A5.374,5.374,0,0,0,187.3-19.9a4.252,4.252,0,0,0-1.984-.461,5.912,5.912,0,0,0-2.922.664,5.239,5.239,0,0,0-1.906,1.8,7.947,7.947,0,0,0-1.031,2.641,15.607,15.607,0,0,0-.312,3.188,21.319,21.319,0,0,0,.141,2.688,19.172,19.172,0,0,0,.484,2.625,14.341,14.341,0,0,0,.836,2.375,8.477,8.477,0,0,0,1.2,1.93,5.336,5.336,0,0,0,1.578,1.3,4.106,4.106,0,0,0,1.969.477,6.051,6.051,0,0,0,2.945-.656,5.283,5.283,0,0,0,1.93-1.8,7.861,7.861,0,0,0,1.055-2.68A16.125,16.125,0,0,0,191.594-9.094Zm-6.25-12.281a9.76,9.76,0,0,1,2.977.422,8.112,8.112,0,0,1,2.328,1.156,7.757,7.757,0,0,1,1.727,1.727,10.1,10.1,0,0,1,1.18,2.125,11.361,11.361,0,0,1,.672,2.352,14.179,14.179,0,0,1,.211,2.422,16.326,16.326,0,0,1-.219,2.625,14.728,14.728,0,0,1-.68,2.625A12.147,12.147,0,0,1,192.352-3.5a8.881,8.881,0,0,1-1.734,2A7.847,7.847,0,0,1,188.3-.141a8.244,8.244,0,0,1-2.953.5,9.838,9.838,0,0,1-3.031-.43,8.008,8.008,0,0,1-2.328-1.172,7.61,7.61,0,0,1-1.7-1.742,9.825,9.825,0,0,1-1.141-2.141,12.122,12.122,0,0,1-.641-2.367,14.851,14.851,0,0,1-.2-2.43,17.065,17.065,0,0,1,.211-2.633,14.892,14.892,0,0,1,.656-2.625,11.709,11.709,0,0,1,1.156-2.4,8.409,8.409,0,0,1,1.719-1.969,7.879,7.879,0,0,1,2.328-1.336A8.475,8.475,0,0,1,185.344-21.375ZM212.234-9.094a22.737,22.737,0,0,0-.164-2.711,18.624,18.624,0,0,0-.5-2.617,14.209,14.209,0,0,0-.844-2.336,7.99,7.99,0,0,0-1.2-1.883,5.374,5.374,0,0,0-1.586-1.258,4.252,4.252,0,0,0-1.984-.461,5.912,5.912,0,0,0-2.922.664,5.239,5.239,0,0,0-1.906,1.8,7.947,7.947,0,0,0-1.031,2.641,15.607,15.607,0,0,0-.312,3.188,21.319,21.319,0,0,0,.141,2.688,19.172,19.172,0,0,0,.484,2.625,14.341,14.341,0,0,0,.836,2.375,8.477,8.477,0,0,0,1.2,1.93,5.336,5.336,0,0,0,1.578,1.3,4.106,4.106,0,0,0,1.969.477,6.051,6.051,0,0,0,2.945-.656,5.283,5.283,0,0,0,1.93-1.8,7.861,7.861,0,0,0,1.055-2.68A16.125,16.125,0,0,0,212.234-9.094Zm-6.25-12.281a9.76,9.76,0,0,1,2.977.422,8.112,8.112,0,0,1,2.328,1.156,7.757,7.757,0,0,1,1.727,1.727,10.1,10.1,0,0,1,1.18,2.125,11.361,11.361,0,0,1,.672,2.352,14.179,14.179,0,0,1,.211,2.422,16.326,16.326,0,0,1-.219,2.625,14.728,14.728,0,0,1-.68,2.625A12.147,12.147,0,0,1,212.992-3.5a8.881,8.881,0,0,1-1.734,2,7.847,7.847,0,0,1-2.32,1.359,8.244,8.244,0,0,1-2.953.5,9.838,9.838,0,0,1-3.031-.43,8.008,8.008,0,0,1-2.328-1.172,7.61,7.61,0,0,1-1.7-1.742,9.825,9.825,0,0,1-1.141-2.141,12.122,12.122,0,0,1-.641-2.367,14.851,14.851,0,0,1-.2-2.43,17.065,17.065,0,0,1,.211-2.633,14.892,14.892,0,0,1,.656-2.625,11.709,11.709,0,0,1,1.156-2.4,8.409,8.409,0,0,1,1.719-1.969,7.879,7.879,0,0,1,2.328-1.336A8.475,8.475,0,0,1,205.984-21.375Zm20.453.281a8.059,8.059,0,0,1,2.828.445,5.392,5.392,0,0,1,1.953,1.211,4.821,4.821,0,0,1,1.133,1.766,6.116,6.116,0,0,1,.367,2.125,5.768,5.768,0,0,1-.43,2.227,5.29,5.29,0,0,1-1.234,1.813,5.862,5.862,0,0,1-1.977,1.227,7.275,7.275,0,0,1-2.641.453h-4.062v8.672h2.563V0h-7.812V-1.156h2.563V-19.937h-2.562v-1.156Zm-4.062,10.047h3.688a3.218,3.218,0,0,0,1.445-.328,3.556,3.556,0,0,0,1.156-.914,4.248,4.248,0,0,0,.766-1.406,5.627,5.627,0,0,0,.273-1.789,6.052,6.052,0,0,0-.258-1.82,4.2,4.2,0,0,0-.734-1.406,3.289,3.289,0,0,0-1.148-.906,3.442,3.442,0,0,0-1.5-.32h-3.687Zm15.453-8.891h-2.812v-1.156H250.8v5.641h-1.156l-1.719-4.484h-7.406v8.094h5.156v-2.3h1.469V-8.25h-1.469v-2.312h-5.156v9.406H248.2l1.7-4.469h1.141V0H235.016V-1.156h2.813ZM260.594-9.828h-2.437v8.672h2.531V0h-7.781V-1.156h2.531V-19.937h-2.531v-1.156h9.281a8.11,8.11,0,0,1,2.844.445,5.392,5.392,0,0,1,1.953,1.211,4.736,4.736,0,0,1,1.125,1.766,6.235,6.235,0,0,1,.359,2.125,5.969,5.969,0,0,1-.344,2.055,5.159,5.159,0,0,1-.977,1.664,5.19,5.19,0,0,1-1.547,1.188,6.94,6.94,0,0,1-2.039.656l5.766,8.828H271.8V0h-5Zm-2.437-1.219h3.688a3.184,3.184,0,0,0,1.43-.328,3.555,3.555,0,0,0,1.156-.914A4.358,4.358,0,0,0,265.2-13.7a5.484,5.484,0,0,0,.281-1.789,5.887,5.887,0,0,0-.266-1.82,4.3,4.3,0,0,0-.742-1.406,3.289,3.289,0,0,0-1.148-.906,3.4,3.4,0,0,0-1.484-.32h-3.687ZM304.2-21.094h6.656v1.156h-2.625L302.281,0h-1.469l-5.406-16.359L290.516,0h-1.484L282.8-19.937h-2.562v-1.156h8.3v1.156h-2.859l4.813,15.547,4.891-16.562h1.344l5.563,16.563,4.578-15.547H304.2Zm23.656,12A22.737,22.737,0,0,0,327.7-11.8a18.622,18.622,0,0,0-.5-2.617,14.212,14.212,0,0,0-.844-2.336,7.99,7.99,0,0,0-1.2-1.883,5.374,5.374,0,0,0-1.586-1.258,4.252,4.252,0,0,0-1.984-.461,5.912,5.912,0,0,0-2.922.664,5.239,5.239,0,0,0-1.906,1.8,7.948,7.948,0,0,0-1.031,2.641,15.606,15.606,0,0,0-.312,3.188,21.324,21.324,0,0,0,.141,2.688,19.17,19.17,0,0,0,.484,2.625,14.343,14.343,0,0,0,.836,2.375,8.476,8.476,0,0,0,1.2,1.93,5.336,5.336,0,0,0,1.578,1.3,4.106,4.106,0,0,0,1.969.477,6.051,6.051,0,0,0,2.945-.656,5.283,5.283,0,0,0,1.93-1.8,7.861,7.861,0,0,0,1.055-2.68A16.126,16.126,0,0,0,327.859-9.094Zm-6.25-12.281a9.76,9.76,0,0,1,2.977.422,8.112,8.112,0,0,1,2.328,1.156,7.757,7.757,0,0,1,1.727,1.727,10.1,10.1,0,0,1,1.18,2.125,11.362,11.362,0,0,1,.672,2.352,14.179,14.179,0,0,1,.211,2.422,16.324,16.324,0,0,1-.219,2.625,14.731,14.731,0,0,1-.68,2.625A12.147,12.147,0,0,1,328.617-3.5a8.881,8.881,0,0,1-1.734,2,7.847,7.847,0,0,1-2.32,1.359,8.244,8.244,0,0,1-2.953.5,9.838,9.838,0,0,1-3.031-.43,8.008,8.008,0,0,1-2.328-1.172,7.61,7.61,0,0,1-1.7-1.742,9.825,9.825,0,0,1-1.141-2.141,12.122,12.122,0,0,1-.641-2.367,14.852,14.852,0,0,1-.2-2.43,17.065,17.065,0,0,1,.211-2.633,14.892,14.892,0,0,1,.656-2.625,11.708,11.708,0,0,1,1.156-2.4,8.409,8.409,0,0,1,1.719-1.969,7.879,7.879,0,0,1,2.328-1.336A8.475,8.475,0,0,1,321.609-21.375ZM340.438-9.828H338v8.672h2.531V0H332.75V-1.156h2.531V-19.937H332.75v-1.156h9.281a8.11,8.11,0,0,1,2.844.445,5.392,5.392,0,0,1,1.953,1.211,4.736,4.736,0,0,1,1.125,1.766,6.235,6.235,0,0,1,.359,2.125,5.969,5.969,0,0,1-.344,2.055,5.159,5.159,0,0,1-.977,1.664,5.19,5.19,0,0,1-1.547,1.188,6.94,6.94,0,0,1-2.039.656l5.766,8.828h2.469V0h-5ZM338-11.047h3.688a3.184,3.184,0,0,0,1.43-.328,3.555,3.555,0,0,0,1.156-.914,4.358,4.358,0,0,0,.773-1.406,5.484,5.484,0,0,0,.281-1.789,5.887,5.887,0,0,0-.266-1.82,4.3,4.3,0,0,0-.742-1.406,3.289,3.289,0,0,0-1.148-.906,3.4,3.4,0,0,0-1.484-.32H338Zm34.844,9.891V0h-8.484V-1.156h2.406L358.7-10.344h-.8v9.188h2.531V0h-7.594V-1.156h2.344V-19.937h-2.344v-1.156h7.594v1.156h-2.531v8.3h.484l8.594-8.3h-2.359v-1.156h6.906v1.156h-2.687l-8.031,7.844,9.672,10.938ZM375.859-5.7a9.416,9.416,0,0,0,.531,2.352,4.639,4.639,0,0,0,.938,1.547,3.3,3.3,0,0,0,1.289.844,4.81,4.81,0,0,0,1.617.258,5.073,5.073,0,0,0,1.742-.281,3.678,3.678,0,0,0,1.3-.789,3.385,3.385,0,0,0,.813-1.219,4.278,4.278,0,0,0,.281-1.586,3.39,3.39,0,0,0-.422-1.719,4.25,4.25,0,0,0-1.219-1.312q-.313-.219-.828-.562t-1.141-.742q-.625-.4-1.289-.828t-1.25-.8q-.586-.375-1.047-.664t-.68-.43a8.587,8.587,0,0,1-.977-.758,4.427,4.427,0,0,1-.8-.969,5.018,5.018,0,0,1-.547-1.258,5.873,5.873,0,0,1-.2-1.625,4.673,4.673,0,0,1,.445-2.031,4.775,4.775,0,0,1,1.266-1.625,6.034,6.034,0,0,1,1.992-1.078,8.272,8.272,0,0,1,2.625-.391,11.343,11.343,0,0,1,1.852.148,10.325,10.325,0,0,1,1.672.414,7.269,7.269,0,0,1,1.406.648,5.063,5.063,0,0,1,1.086.867v3.875h-1.937a10.725,10.725,0,0,0-.469-2.422,4.275,4.275,0,0,0-.844-1.516,2.727,2.727,0,0,0-1.227-.781,5.438,5.438,0,0,0-1.6-.219,4.481,4.481,0,0,0-1.75.3,3.308,3.308,0,0,0-1.18.813,3.048,3.048,0,0,0-.664,1.172,4.648,4.648,0,0,0-.2,1.367,3.378,3.378,0,0,0,.359,1.5,2.824,2.824,0,0,0,1.109,1.188q.188.125.672.43t1.109.711q.625.406,1.328.852t1.328.852l1.109.719q.484.312.688.438a6.329,6.329,0,0,1,2.117,2.039,5.227,5.227,0,0,1,.7,2.758,5.231,5.231,0,0,1-.461,2.188,5.1,5.1,0,0,1-1.328,1.766,6.456,6.456,0,0,1-2.117,1.188,8.478,8.478,0,0,1-2.812.438A11.806,11.806,0,0,1,378.1.18,9.856,9.856,0,0,1,376.336-.3a7,7,0,0,1-1.383-.7,4.873,4.873,0,0,1-.984-.852V-5.7Zm23.859-14.234h-2.812v-1.156h15.781v5.641h-1.156l-1.719-4.484h-7.406v8.094h5.156v-2.3h1.469V-8.25h-1.469v-2.312h-5.156v9.406h7.688l1.7-4.469h1.141V0H396.906V-1.156h2.813ZM415.438-1.469a1.928,1.928,0,0,1,.148-.758,1.893,1.893,0,0,1,.406-.609,1.893,1.893,0,0,1,.609-.406,1.928,1.928,0,0,1,.758-.148,1.928,1.928,0,0,1,.758.148,1.893,1.893,0,0,1,.609.406,1.893,1.893,0,0,1,.406.609,1.928,1.928,0,0,1,.148.758,1.928,1.928,0,0,1-.148.758,1.893,1.893,0,0,1-.406.609,1.893,1.893,0,0,1-.609.406,1.928,1.928,0,0,1-.758.148A1.928,1.928,0,0,1,416.6.3a1.893,1.893,0,0,1-.609-.406,1.893,1.893,0,0,1-.406-.609A1.928,1.928,0,0,1,415.438-1.469Z" transform="translate(930 4141.935)"/>
      </g>
    </g>
  </g>
</svg>
