<svg xmlns="http://www.w3.org/2000/svg" width="608.012" height="172.433" viewBox="0 0 608.012 172.433">
  <g id="情報-1" transform="translate(-0.6 -4119.866)">
    <g id="text" transform="translate(0 3952.405)">
      <g id="price" transform="translate(-141.4 -1948.2)">
        <path id="パス_138" data-name="パス 138" d="M1.712-12.464V1.072H3.12v-6.48H12.9V-.592c0,.624-.272.9-.9.9H9.936V.976h2.816C13.84.976,14.3.512,14.3-.56v-11.9Zm1.408.64H7.232v5.776H3.12Zm5.5,0H12.9v5.776H8.624Z" transform="translate(442.65 2282)" fill="#111"/>
        <path id="パス_137" data-name="パス 137" d="M4.672-10.937A3.145,3.145,0,0,1,5.25-11.7a4.981,4.981,0,0,1,1.008-.773,6.551,6.551,0,0,1,1.352-.6,5.208,5.208,0,0,1,1.609-.242,8.389,8.389,0,0,1,2.609.406,6.018,6.018,0,0,1,2.2,1.258,6.089,6.089,0,0,1,1.508,2.164,7.945,7.945,0,0,1,.563,3.141,6.205,6.205,0,0,1-.578,2.68,6.976,6.976,0,0,1-1.531,2.125,6.955,6.955,0,0,1-2.2,1.4,6.822,6.822,0,0,1-2.57.5A6.948,6.948,0,0,1,6.906-.008,6.739,6.739,0,0,1,5.016-1.023,7.232,7.232,0,0,1,3.539-2.555,9.548,9.548,0,0,1,2.477-4.477a10.849,10.849,0,0,1-.641-2.18,12.6,12.6,0,0,1-.211-2.3,16.558,16.558,0,0,1,.352-3.531,13.4,13.4,0,0,1,.969-2.906,10.407,10.407,0,0,1,1.445-2.273A9.03,9.03,0,0,1,6.18-19.3a7.593,7.593,0,0,1,2-.984,6.8,6.8,0,0,1,2.055-.328,6.824,6.824,0,0,1,2.781.578,6.778,6.778,0,0,1,2.375,1.8l-.953.859A5.056,5.056,0,0,0,12.672-18.8a5.456,5.456,0,0,0-2.406-.5,4.081,4.081,0,0,0-2.344.688,5.806,5.806,0,0,0-1.711,1.836,9.873,9.873,0,0,0-1.086,2.664A14.931,14.931,0,0,0,4.672-10.937ZM4.641-8.156a18.027,18.027,0,0,0,.344,2.9,8.711,8.711,0,0,0,.828,2.383,4.546,4.546,0,0,0,1.4,1.609A3.475,3.475,0,0,0,9.25-.672a3.2,3.2,0,0,0,1.594-.422,4.15,4.15,0,0,0,1.3-1.172,5.923,5.923,0,0,0,.875-1.781,7.553,7.553,0,0,0,.32-2.25,9.16,9.16,0,0,0-.32-2.562,5.536,5.536,0,0,0-.875-1.82,3.587,3.587,0,0,0-1.3-1.086,3.711,3.711,0,0,0-1.625-.359,4.193,4.193,0,0,0-1.352.242,4.81,4.81,0,0,0-1.359.734A5.071,5.071,0,0,0,5.359-9.906,5.078,5.078,0,0,0,4.641-8.156Zm18.3,7.391a4.827,4.827,0,0,1-.375,2,4.885,4.885,0,0,1-1,1.453,7.044,7.044,0,0,1-.727.641q-.352.266-.617.438a3.9,3.9,0,0,1-.609.328l-.641-.641.5-.344q.219-.156.453-.344t.422-.359a3.676,3.676,0,0,0,.672-.922A2.278,2.278,0,0,0,21.25.313q-.047.016-.109.031a1.514,1.514,0,0,1-.281.016,1.6,1.6,0,0,1-.68-.148A1.808,1.808,0,0,1,19.617-.2a2,2,0,0,1-.383-.586,1.727,1.727,0,0,1-.141-.687,1.806,1.806,0,0,1,.141-.719,1.739,1.739,0,0,1,.391-.57,1.765,1.765,0,0,1,.586-.375,1.916,1.916,0,0,1,.711-.133,2.146,2.146,0,0,1,.75.133,1.717,1.717,0,0,1,.641.422,2.1,2.1,0,0,1,.453.766A3.506,3.506,0,0,1,22.938-.766Zm3.969-15.781L32.5-20.281h.578V-1.125h2.969V0H27.609V-1.125h2.938V-17.437l-2.969,1.891Zm16.5,5.609a3.145,3.145,0,0,1,.578-.758,4.981,4.981,0,0,1,1.008-.773,6.551,6.551,0,0,1,1.352-.6,5.208,5.208,0,0,1,1.609-.242,8.389,8.389,0,0,1,2.609.406,6.018,6.018,0,0,1,2.2,1.258,6.089,6.089,0,0,1,1.508,2.164,7.945,7.945,0,0,1,.563,3.141,6.205,6.205,0,0,1-.578,2.68,6.976,6.976,0,0,1-1.531,2.125,6.955,6.955,0,0,1-2.2,1.4,6.822,6.822,0,0,1-2.57.5,6.948,6.948,0,0,1-2.312-.367A6.739,6.739,0,0,1,43.75-1.023a7.232,7.232,0,0,1-1.477-1.531,9.548,9.548,0,0,1-1.062-1.922,10.849,10.849,0,0,1-.641-2.18,12.6,12.6,0,0,1-.211-2.3,16.558,16.558,0,0,1,.352-3.531,13.4,13.4,0,0,1,.969-2.906,10.407,10.407,0,0,1,1.445-2.273A9.03,9.03,0,0,1,44.914-19.3a7.593,7.593,0,0,1,2-.984,6.8,6.8,0,0,1,2.055-.328,6.824,6.824,0,0,1,2.781.578,6.778,6.778,0,0,1,2.375,1.8l-.953.859A5.056,5.056,0,0,0,51.406-18.8,5.456,5.456,0,0,0,49-19.3a4.081,4.081,0,0,0-2.344.688,5.806,5.806,0,0,0-1.711,1.836,9.873,9.873,0,0,0-1.086,2.664A14.931,14.931,0,0,0,43.406-10.937Zm-.031,2.781a18.027,18.027,0,0,0,.344,2.9,8.712,8.712,0,0,0,.828,2.383,4.546,4.546,0,0,0,1.4,1.609,3.475,3.475,0,0,0,2.039.594,3.2,3.2,0,0,0,1.594-.422,4.15,4.15,0,0,0,1.3-1.172,5.923,5.923,0,0,0,.875-1.781,7.553,7.553,0,0,0,.32-2.25,9.16,9.16,0,0,0-.32-2.562,5.536,5.536,0,0,0-.875-1.82,3.587,3.587,0,0,0-1.3-1.086,3.711,3.711,0,0,0-1.625-.359,4.193,4.193,0,0,0-1.352.242,4.81,4.81,0,0,0-1.359.734,5.07,5.07,0,0,0-1.148,1.242A5.078,5.078,0,0,0,43.375-8.156ZM65.453.281a5.962,5.962,0,0,1-2.187-.391,6.268,6.268,0,0,1-1.8-1.078,7.487,7.487,0,0,1-1.414-1.625,10.439,10.439,0,0,1-1.023-2.047A12.9,12.9,0,0,1,58.4-7.2a14.815,14.815,0,0,1-.211-2.5,16.925,16.925,0,0,1,.625-4.906,9.7,9.7,0,0,1,1.711-3.367,6.693,6.693,0,0,1,2.539-1.945,7.746,7.746,0,0,1,3.094-.625,6.093,6.093,0,0,1,2.773.664,6.8,6.8,0,0,1,2.313,1.938,10.008,10.008,0,0,1,1.586,3.125,13.831,13.831,0,0,1,.594,4.227A16.218,16.218,0,0,1,72.789-5.8a10.255,10.255,0,0,1-1.711,3.391A6.956,6.956,0,0,1,68.547-.391,7.283,7.283,0,0,1,65.453.281Zm-.031-19.8a3.686,3.686,0,0,0-2.234.641A4.461,4.461,0,0,0,61.8-17.187a8.116,8.116,0,0,0-.7,2.367,18.4,18.4,0,0,0-.2,2.7q0,1.125.086,2.406t.3,2.547a16.392,16.392,0,0,0,.594,2.43,8.618,8.618,0,0,0,.969,2.055,4.781,4.781,0,0,0,1.414,1.422,3.538,3.538,0,0,0,1.953.531,3.592,3.592,0,0,0,2.211-.648,4.544,4.544,0,0,0,1.375-1.7,8.225,8.225,0,0,0,.7-2.391,18.715,18.715,0,0,0,.2-2.711q0-1.234-.094-2.555a24.207,24.207,0,0,0-.32-2.578,15.787,15.787,0,0,0-.617-2.383,8.077,8.077,0,0,0-.977-1.969,4.694,4.694,0,0,0-1.4-1.344A3.5,3.5,0,0,0,65.422-19.516ZM80.688-.766a4.827,4.827,0,0,1-.375,2,4.885,4.885,0,0,1-1,1.453,7.044,7.044,0,0,1-.727.641q-.352.266-.617.438a3.9,3.9,0,0,1-.609.328l-.641-.641.5-.344q.219-.156.453-.344t.422-.359a3.676,3.676,0,0,0,.672-.922A2.278,2.278,0,0,0,79,.313q-.047.016-.109.031a1.514,1.514,0,0,1-.281.016,1.6,1.6,0,0,1-.68-.148A1.808,1.808,0,0,1,77.367-.2a2,2,0,0,1-.383-.586,1.727,1.727,0,0,1-.141-.687,1.806,1.806,0,0,1,.141-.719,1.739,1.739,0,0,1,.391-.57,1.765,1.765,0,0,1,.586-.375,1.916,1.916,0,0,1,.711-.133,2.146,2.146,0,0,1,.75.133,1.717,1.717,0,0,1,.641.422,2.1,2.1,0,0,1,.453.766A3.506,3.506,0,0,1,80.688-.766ZM91.375.281a5.962,5.962,0,0,1-2.187-.391,6.268,6.268,0,0,1-1.8-1.078,7.487,7.487,0,0,1-1.414-1.625,10.439,10.439,0,0,1-1.023-2.047A12.9,12.9,0,0,1,84.32-7.2a14.815,14.815,0,0,1-.211-2.5,16.925,16.925,0,0,1,.625-4.906,9.7,9.7,0,0,1,1.711-3.367,6.693,6.693,0,0,1,2.539-1.945,7.746,7.746,0,0,1,3.094-.625,6.093,6.093,0,0,1,2.773.664,6.8,6.8,0,0,1,2.313,1.938A10.008,10.008,0,0,1,98.75-14.82a13.831,13.831,0,0,1,.594,4.227A16.218,16.218,0,0,1,98.711-5.8,10.255,10.255,0,0,1,97-2.414,6.956,6.956,0,0,1,94.469-.391,7.283,7.283,0,0,1,91.375.281Zm-.031-19.8a3.686,3.686,0,0,0-2.234.641,4.461,4.461,0,0,0-1.383,1.688,8.116,8.116,0,0,0-.7,2.367,18.4,18.4,0,0,0-.2,2.7q0,1.125.086,2.406t.3,2.547a16.392,16.392,0,0,0,.594,2.43,8.618,8.618,0,0,0,.969,2.055,4.78,4.78,0,0,0,1.414,1.422,3.538,3.538,0,0,0,1.953.531,3.592,3.592,0,0,0,2.211-.648,4.544,4.544,0,0,0,1.375-1.7,8.225,8.225,0,0,0,.7-2.391,18.715,18.715,0,0,0,.2-2.711q0-1.234-.094-2.555a24.207,24.207,0,0,0-.32-2.578,15.787,15.787,0,0,0-.617-2.383,8.077,8.077,0,0,0-.977-1.969,4.694,4.694,0,0,0-1.4-1.344A3.5,3.5,0,0,0,91.344-19.516ZM110.391.281A5.962,5.962,0,0,1,108.2-.109a6.268,6.268,0,0,1-1.8-1.078,7.487,7.487,0,0,1-1.414-1.625,10.439,10.439,0,0,1-1.023-2.047,12.9,12.9,0,0,1-.625-2.344,14.815,14.815,0,0,1-.211-2.5,16.925,16.925,0,0,1,.625-4.906,9.7,9.7,0,0,1,1.711-3.367A6.693,6.693,0,0,1,108-19.922a7.746,7.746,0,0,1,3.094-.625,6.093,6.093,0,0,1,2.773.664,6.8,6.8,0,0,1,2.313,1.938,10.008,10.008,0,0,1,1.586,3.125,13.831,13.831,0,0,1,.594,4.227,16.218,16.218,0,0,1-.633,4.789,10.255,10.255,0,0,1-1.711,3.391,6.956,6.956,0,0,1-2.531,2.023A7.283,7.283,0,0,1,110.391.281Zm-.031-19.8a3.686,3.686,0,0,0-2.234.641,4.461,4.461,0,0,0-1.383,1.688,8.116,8.116,0,0,0-.7,2.367,18.4,18.4,0,0,0-.2,2.7q0,1.125.086,2.406t.3,2.547a16.392,16.392,0,0,0,.594,2.43,8.618,8.618,0,0,0,.969,2.055A4.78,4.78,0,0,0,109.2-1.266a3.538,3.538,0,0,0,1.953.531,3.592,3.592,0,0,0,2.211-.648,4.544,4.544,0,0,0,1.375-1.7,8.225,8.225,0,0,0,.7-2.391,18.715,18.715,0,0,0,.2-2.711q0-1.234-.094-2.555a24.207,24.207,0,0,0-.32-2.578,15.787,15.787,0,0,0-.617-2.383,8.077,8.077,0,0,0-.977-1.969,4.694,4.694,0,0,0-1.4-1.344A3.5,3.5,0,0,0,110.359-19.516ZM129.406.281a5.962,5.962,0,0,1-2.187-.391,6.268,6.268,0,0,1-1.8-1.078A7.487,7.487,0,0,1,124-2.812a10.439,10.439,0,0,1-1.023-2.047,12.9,12.9,0,0,1-.625-2.344,14.815,14.815,0,0,1-.211-2.5,16.925,16.925,0,0,1,.625-4.906,9.7,9.7,0,0,1,1.711-3.367,6.693,6.693,0,0,1,2.539-1.945,7.746,7.746,0,0,1,3.094-.625,6.093,6.093,0,0,1,2.773.664,6.8,6.8,0,0,1,2.313,1.938,10.008,10.008,0,0,1,1.586,3.125,13.831,13.831,0,0,1,.594,4.227,16.218,16.218,0,0,1-.633,4.789,10.255,10.255,0,0,1-1.711,3.391A6.956,6.956,0,0,1,132.5-.391,7.283,7.283,0,0,1,129.406.281Zm-.031-19.8a3.686,3.686,0,0,0-2.234.641,4.461,4.461,0,0,0-1.383,1.688,8.116,8.116,0,0,0-.7,2.367,18.4,18.4,0,0,0-.2,2.7q0,1.125.086,2.406t.3,2.547a16.392,16.392,0,0,0,.594,2.43,8.618,8.618,0,0,0,.969,2.055,4.78,4.78,0,0,0,1.414,1.422,3.538,3.538,0,0,0,1.953.531,3.592,3.592,0,0,0,2.211-.648,4.544,4.544,0,0,0,1.375-1.7,8.225,8.225,0,0,0,.7-2.391,18.716,18.716,0,0,0,.2-2.711q0-1.234-.094-2.555a24.2,24.2,0,0,0-.32-2.578,15.787,15.787,0,0,0-.617-2.383,8.077,8.077,0,0,0-.977-1.969,4.694,4.694,0,0,0-1.4-1.344A3.5,3.5,0,0,0,129.375-19.516Zm13.288,1.325,1.865-.682-.531-.91-1.517,1.274.349-1.956h-1.062l.349,1.956L140.6-19.783l-.531.91,1.865.682-1.865.682.531.91,1.517-1.274-.349,1.941h1.062l-.349-1.941L144-16.6l.531-.91Zm5.994.09a2.534,2.534,0,0,0-.681.093,2.623,2.623,0,0,0-.629.267,2.878,2.878,0,0,0-.548.418,2.872,2.872,0,0,0-.437.541L145.8-17.1a3.65,3.65,0,0,1,1.281-1.248,3.239,3.239,0,0,1,1.607-.418,3.929,3.929,0,0,1,1.111.163,3.2,3.2,0,0,1,1,.492,2.533,2.533,0,0,1,.726.837,2.453,2.453,0,0,1,.278,1.2,2.542,2.542,0,0,1-.241,1.111,4.824,4.824,0,0,1-.629.977,11.217,11.217,0,0,1-.892.959q-.5.485-1.022,1.063l-1.644,1.785h4.539V-9H146v-.5l2.747-3.118q.341-.392.655-.822a7.8,7.8,0,0,0,.555-.87,5.306,5.306,0,0,0,.385-.878,2.685,2.685,0,0,0,.144-.844,2.541,2.541,0,0,0-.13-.829,1.918,1.918,0,0,0-.37-.652,1.718,1.718,0,0,0-.578-.43A1.773,1.773,0,0,0,148.657-18.1Z" transform="translate(288.447 2284)" fill="#111"/>
        <path id="パス_136" data-name="パス 136" d="M10.86-10.08A6.941,6.941,0,0,0,8.244-4.56,6.941,6.941,0,0,0,10.86.96h.66a7.108,7.108,0,0,1-2.4-5.508,7.587,7.587,0,0,1,1.236-4.224A5.4,5.4,0,0,1,11.52-10.08Zm5.028,3.768A22.587,22.587,0,0,1,19.32-4.644,9.535,9.535,0,0,1,14.076.1l.132.348a8.8,8.8,0,0,0,6.024-4.5A14.143,14.143,0,0,1,22.7-1.932l.8-.96a12.437,12.437,0,0,0-2.808-2.1,20.194,20.194,0,0,0,1.2-3.78c.216-.072.3-.144.3-.264,0-.1-.072-.168-.2-.2l-1.248-.324-.048.672a16.421,16.421,0,0,1-1,3.408A15.833,15.833,0,0,0,16.032-6.66Zm21.12,1.464L26.988-5.22v1.26l10.02-.36Zm11.448-1.92A42.223,42.223,0,0,1,48-2.172a5.5,5.5,0,0,1-.36,1.716.751.751,0,0,1-.756.336H45.5V.432h2.064c.936.012,1.2-.3,1.44-1.632a46.441,46.441,0,0,0,.624-6.12H45.084c.036-.552.06-.984.06-1.512v-.312c.168-.1.24-.18.24-.288a.209.209,0,0,0-.228-.2L43.9-9.72,43.98-9v.18c0,.336-.024.9-.072,1.5H40.74l-.48-.1v.744l.48-.1h3.108A8.366,8.366,0,0,1,39.84.132l.144.288a7.2,7.2,0,0,0,3.612-2.8,9.622,9.622,0,0,0,1.428-4.392Zm14.472,1.92L52.908-5.22v1.26l10.02-.36ZM67.344.072h1V-3.516h2.34V.96h1V-3.516H74.3v2.472c-.012.4-.144.528-.54.54h-.912V0h1.44c.72,0,1.032-.288,1.02-.936V-4H71.676v-.9c.156-.12.192-.156.192-.24,0-.108-.084-.156-.252-.156H70.68V-4H68.052a10.925,10.925,0,0,0,1.74-1.752H75.84l.48.1v-.672l-.48.1H70.164l.024-.036.4-.552c.252-.036.384-.12.384-.24,0-.084-.06-.132-.168-.156l-1.008-.264a6.9,6.9,0,0,1-.768,1.248H65.772l-.48-.1v.672l.48-.1h2.88A14.156,14.156,0,0,1,65.28-2.676l.168.312a9.867,9.867,0,0,0,1.9-1.092ZM66.732-9.42c1.32.312,2.412.624,3.432.972-1.1.42-3.468,1.14-4.416,1.368l.084.348a24.132,24.132,0,0,0,5.4-1.344c.672.24,2.016.816,3.192,1.368L75.1-7.44a26.573,26.573,0,0,0-2.808-1.068c.576-.252,1.008-.444,1.764-.8a2.019,2.019,0,0,0,.24.024c.144,0,.3-.1.3-.192,0-.048-.06-.108-.144-.156l-.84-.444a15.156,15.156,0,0,1-2.436,1.224,21.891,21.891,0,0,0-4.284-.888Zm20.8,3.336c-.144,1.224-.192,1.332-.672,1.344h-.888v.5h1.32c.7-.012.924-.228,1.056-.96a38.6,38.6,0,0,0,.4-4.452H84.288c-.024,3.42-.42,4.524-1.932,5.436l.2.324a3.5,3.5,0,0,0,2.268-2.2Zm.048-.48H84.96c.06-.3.12-.744.156-1.08h2.556l-.012.18-.012.192-.06.672Zm.132-1.56H85.152l.012-.036.048-1.008H87.78c-.024.42-.024.516-.048.8ZM81.54-8.76v-.852c.156-.108.192-.156.192-.24,0-.108-.084-.156-.252-.156h-.924V-8.76H78.72l-.48-.1v.672l.48-.1h.432v2.4c.024.768.336.984,1.476.984h2.364v-.84H80.808c-.6-.012-.72-.1-.732-.468V-8.28h3.072l.48.1v-.672l-.48.1Zm2.652,5.568h3.96l.468.1v-.672l-.468.1H79.368l-.468-.1V-3.1l.468-.1H83.2v1.344H80.052l-.48-.1v.672l.48-.1H83.2V.072h-4.4l-.48-.1V.648l.48-.1h9.936l.48.1V-.024l-.48.1H84.192v-1.44h3.276l.48.1v-.672l-.48.1H84.192ZM94.464.264V.828h1.7c.8,0,1.14-.336,1.14-1.14V-9.54c.156-.108.192-.156.192-.228,0-.12-.084-.168-.252-.168H96.2V-.384c0,.456-.192.648-.648.648Zm4.3-7.812a28.8,28.8,0,0,1,2.292,6.216L102.24-2a17.644,17.644,0,0,0-3.084-5.772ZM91.512-1.236A13.241,13.241,0,0,0,94.356-7.08c.24-.048.36-.144.36-.3,0-.108-.084-.168-.276-.228l-1.1-.3a22.445,22.445,0,0,1-2.124,6.456ZM105.72-5.16v-.132a1.652,1.652,0,0,0-.024-.384h-.408a3.036,3.036,0,0,1-1.128,1.92l.72.936a2.485,2.485,0,0,0,.816-1.824V-4.68h8.148a4.774,4.774,0,0,1-.708,1.332l.372.228A4.31,4.31,0,0,0,115.2-5.16Zm4.428-3.516v-.948c.156-.108.192-.156.192-.24,0-.108-.084-.156-.252-.156h-.972v1.344H104.8l-.48-.1V-8.1l.48-.1h4.32v1.344H105.84l-.48-.1v.672l.48-.1h7.68l.48.1v-.672l-.48.1h-3.372V-8.2h4.416l.48.1v-.672l-.48.1ZM104.52.84a5.587,5.587,0,0,0,2.7-.912,3.315,3.315,0,0,0,1.26-3v-.3c.144-.108.192-.156.192-.24,0-.108-.084-.156-.264-.156h-.96V-3.1A3.172,3.172,0,0,1,106.464-.5a4.511,4.511,0,0,1-2.04.984Zm6.036-4.608v3.36c.024.732.372.96,1.548,1h1.68c.84,0,1.188-.324,1.248-1.164l.06-1.02-.492-.048-.06.744c-.048.408-.2.552-.564.552H112.26c-.5-.012-.7-.12-.7-.372V-3.372c.156-.108.192-.156.192-.24,0-.12-.084-.156-.336-.156ZM122.76-6.7h-2.052V.828h.888V.06h5.076V.744h.924V-6.7h-2.1v-2.34h2.184l.48.1v-.672l-.48.1h-6.744l-.468-.1v.672l.468-.1h1.824Zm.828-2.34h1.08V-6.7h-1.08Zm0,2.82h1.08v5.8h-1.08Zm-.828,5.8H121.6v-5.8h1.164Zm2.736-5.8h1.176v5.8H125.5ZM119.448-7.4c.252-.708.36-1.044.636-1.932.192-.036.288-.12.288-.24,0-.1-.084-.168-.2-.2l-1.008-.3a28.442,28.442,0,0,1-2.04,6.516l.252.192a13.006,13.006,0,0,0,1.14-1.848V.888h.936ZM133.62-2.772a11.55,11.55,0,0,0,3.888-2.28,11.591,11.591,0,0,0,3.156,1.992A3.976,3.976,0,0,1,141.12-4a12.418,12.418,0,0,1-3.048-1.62,12.4,12.4,0,0,0,2.22-3.18h-3.9l.012-.036c.132-.252.144-.276.3-.612.228-.084.324-.156.324-.24a.224.224,0,0,0-.12-.168l-1.02-.228a11.161,11.161,0,0,1-.864,2.2,11.092,11.092,0,0,1-1.14,1.836l.24.228a8.152,8.152,0,0,0,1.716-2,5.445,5.445,0,0,0,1.1,2.184A13.169,13.169,0,0,1,133.5-3.072Zm2.52-5.544h2.88a14.544,14.544,0,0,1-1.6,2.172,4.517,4.517,0,0,1-1.332-2.1Zm-4.248,9.2h.924V-5.484a8.091,8.091,0,0,1,.852,1.824l.744-.648a4.244,4.244,0,0,0-1.6-1.524V-7.08h.876l.48.1v-.672l-.48.1h-.876V-9.612c.144-.108.192-.156.192-.24,0-.108-.084-.156-.252-.156h-.864V-7.56h-1.26l-.48-.1v.672l.48-.1h1.152a20.078,20.078,0,0,1-1.7,5.052l.264.18a11.81,11.81,0,0,0,1.548-2.832ZM139.98.816V-3.216h-5.028v4.1h.948V.312h3.12v.5ZM135.9-.168V-2.736h3.12V-.168Zm7.14-9.912a7.145,7.145,0,0,1,2.4,5.532A7.126,7.126,0,0,1,143.04.96h.648a6.9,6.9,0,0,0,2.628-5.52,6.9,6.9,0,0,0-2.628-5.52Z" transform="translate(133.756 2282)" fill="#111"/>
      </g>
      <path id="パス_146" data-name="パス 146" d="M7.92-11.895c.255-.09.36-.2.36-.33,0-.12-.1-.21-.3-.225L6.7-12.6A15.507,15.507,0,0,1,4.47-9.51,21.606,21.606,0,0,1,.6-6.195l.2.39a16.022,16.022,0,0,0,6.795-5.61l.06.09A13.151,13.151,0,0,0,13.74-6.09a8.12,8.12,0,0,1,.66-1.365A14.146,14.146,0,0,1,10.17-9.72a13.472,13.472,0,0,1-2.28-2.13ZM8.085-6.21h3.24l.6.12v-.84l-.6.12H3.675l-.6-.12v.84l.6-.12H6.8v2.625H3.51L2.925-3.7v.84l.585-.12H6.8V.045H1.935l-.6-.12v.84l.6-.12h11.3l.6.12v-.84l-.6.12H8.085v-3.03h3.4l.585.12V-3.7l-.585.12h-3.4ZM28.8-4.71l.6.12v-.84l-.6.12H19.2V-6.975H26.9l.6.12V-7.7l-.6.12H19.2V-9.15H26.9l.6.12v-.84l-.6.12H19.2V-11.3h8.28l.6.12v-.84l-.6.12H17.94V-5.31H16.2l-.6-.12v.84l.6-.12h1.74V-.57c-.7.09-1.11.135-2.265.225l.51,1.23c.105.24.165.315.285.315.165,0,.24-.09.33-.36A40.224,40.224,0,0,0,24.09-1.1l.075-.015A9.183,9.183,0,0,0,28.68,1.2,7.269,7.269,0,0,1,29.4-.15a10.684,10.684,0,0,1-4.395-1.635,19.2,19.2,0,0,0,2.85-1.335l.3.015c.21,0,.375-.12.375-.27,0-.06-.06-.15-.18-.225l-1.125-.75A17.559,17.559,0,0,1,24.57-2.115,6.393,6.393,0,0,1,22.6-4.71Zm-6.84,0a8.005,8.005,0,0,0,1.815,3.195l-.135.03c-1.065.24-2.16.42-4.44.75V-4.71Zm12.977-.358a3.623,3.623,0,0,1,.586.249,2.224,2.224,0,0,1,.564.425,2.121,2.121,0,0,1,.421.645,2.3,2.3,0,0,1,.165.916,2.7,2.7,0,0,1-.3,1.311,2.881,2.881,0,0,1-.791.927,3.378,3.378,0,0,1-1.091.549,4.19,4.19,0,0,1-1.2.179,3.994,3.994,0,0,1-.981-.11,3.633,3.633,0,0,1-.773-.286,3.2,3.2,0,0,1-.593-.388,4.122,4.122,0,0,1-.428-.41L31-1.5a2.472,2.472,0,0,0,.919.688,3.3,3.3,0,0,0,1.366.256,2.5,2.5,0,0,0,.758-.117,1.771,1.771,0,0,0,.656-.374,1.873,1.873,0,0,0,.461-.663,2.5,2.5,0,0,0,.176-.992,2.5,2.5,0,0,0-.139-.868,1.788,1.788,0,0,0-.392-.637,1.661,1.661,0,0,0-.608-.4,2.215,2.215,0,0,0-.795-.135h-.483v-.469a2.43,2.43,0,0,0,.751-.125,2.141,2.141,0,0,0,.7-.377,2.02,2.02,0,0,0,.513-.634,1.9,1.9,0,0,0,.2-.9,2.055,2.055,0,0,0-.132-.773,1.513,1.513,0,0,0-.355-.538,1.417,1.417,0,0,0-.52-.315,1.9,1.9,0,0,0-.626-.1,2.445,2.445,0,0,0-1.271.311,2.715,2.715,0,0,0-.89.875l-.542-.33a3.427,3.427,0,0,1,1.2-1.161,3.048,3.048,0,0,1,1.505-.385,3.759,3.759,0,0,1,1.047.15,2.9,2.9,0,0,1,.934.458,2.348,2.348,0,0,1,.67.784,2.346,2.346,0,0,1,.256,1.128,1.867,1.867,0,0,1-.114.637,2.467,2.467,0,0,1-.308.59,2.7,2.7,0,0,1-.45.494A2.279,2.279,0,0,1,34.937-5.068ZM39.961-.359a2.263,2.263,0,0,1-.176.938,2.29,2.29,0,0,1-.469.681,3.3,3.3,0,0,1-.341.3q-.165.125-.289.205a1.83,1.83,0,0,1-.286.154l-.3-.3.234-.161q.1-.073.212-.161t.2-.168A1.723,1.723,0,0,0,39.06.7a1.068,1.068,0,0,0,.11-.549l-.051.015a.71.71,0,0,1-.132.007A.749.749,0,0,1,38.668.1a.847.847,0,0,1-.264-.19.937.937,0,0,1-.179-.275.81.81,0,0,1-.066-.322.846.846,0,0,1,.066-.337.815.815,0,0,1,.183-.267.827.827,0,0,1,.275-.176.9.9,0,0,1,.333-.062,1.006,1.006,0,0,1,.352.062.805.805,0,0,1,.3.2.986.986,0,0,1,.212.359A1.643,1.643,0,0,1,39.961-.359ZM44.846-4.8a2.1,2.1,0,0,0-.872.168,1.781,1.781,0,0,0-.626.461,1.966,1.966,0,0,0-.381.692,2.825,2.825,0,0,0-.128.868,3.272,3.272,0,0,0,.154,1.062,2.022,2.022,0,0,0,.425.736,1.681,1.681,0,0,0,.637.428,2.208,2.208,0,0,0,.791.139,2.238,2.238,0,0,0,.795-.139,1.675,1.675,0,0,0,.641-.428,2.022,2.022,0,0,0,.425-.736,3.272,3.272,0,0,0,.154-1.062,2.825,2.825,0,0,0-.128-.868,1.966,1.966,0,0,0-.381-.692,1.773,1.773,0,0,0-.63-.461A2.129,2.129,0,0,0,44.846-4.8Zm1.384-.286a2.9,2.9,0,0,1,.747.326,2.617,2.617,0,0,1,.619.527,2.449,2.449,0,0,1,.425.718,2.443,2.443,0,0,1,.157.89,2.723,2.723,0,0,1-.293,1.311,2.656,2.656,0,0,1-.765.89,3.131,3.131,0,0,1-1.069.505,4.7,4.7,0,0,1-1.2.157A4.789,4.789,0,0,1,43.619.084a3.092,3.092,0,0,1-1.066-.505,2.563,2.563,0,0,1-.751-.89,2.811,2.811,0,0,1-.282-1.311,2.443,2.443,0,0,1,.157-.89A2.449,2.449,0,0,1,42.1-4.23a2.617,2.617,0,0,1,.619-.527,2.9,2.9,0,0,1,.747-.326,2.118,2.118,0,0,1-.564-.286,2.519,2.519,0,0,1-.516-.48,2.553,2.553,0,0,1-.377-.63,1.877,1.877,0,0,1-.146-.736,2.527,2.527,0,0,1,.264-1.208,2.226,2.226,0,0,1,.688-.787,2.8,2.8,0,0,1,.956-.425,4.557,4.557,0,0,1,1.073-.128,4.6,4.6,0,0,1,1.077.128,2.8,2.8,0,0,1,.959.425,2.226,2.226,0,0,1,.688.787,2.527,2.527,0,0,1,.264,1.208,1.877,1.877,0,0,1-.146.736,2.553,2.553,0,0,1-.377.63,2.519,2.519,0,0,1-.516.48A2.118,2.118,0,0,1,46.23-5.083ZM44.846-5.3a1.741,1.741,0,0,0,.707-.143,1.629,1.629,0,0,0,.557-.4,1.846,1.846,0,0,0,.363-.6,2.2,2.2,0,0,0,.132-.776,2.7,2.7,0,0,0-.135-.9,1.844,1.844,0,0,0-.37-.641,1.53,1.53,0,0,0-.557-.388,1.82,1.82,0,0,0-.7-.132,1.792,1.792,0,0,0-.692.132,1.537,1.537,0,0,0-.553.388,1.844,1.844,0,0,0-.37.641,2.7,2.7,0,0,0-.135.9,2.2,2.2,0,0,0,.132.776,1.813,1.813,0,0,0,.366.6,1.677,1.677,0,0,0,.557.4A1.7,1.7,0,0,0,44.846-5.3Zm6.467.168a1.474,1.474,0,0,1,.271-.355,2.335,2.335,0,0,1,.472-.363,3.071,3.071,0,0,1,.634-.282,2.441,2.441,0,0,1,.754-.114,3.932,3.932,0,0,1,1.223.19,2.821,2.821,0,0,1,1.029.59A2.854,2.854,0,0,1,56.4-4.446a3.724,3.724,0,0,1,.264,1.472A2.909,2.909,0,0,1,56.4-1.718a3.27,3.27,0,0,1-.718,1,3.26,3.26,0,0,1-1.029.656,3.2,3.2,0,0,1-1.2.234A3.257,3.257,0,0,1,52.361,0a3.159,3.159,0,0,1-.886-.476,3.39,3.39,0,0,1-.692-.718,4.476,4.476,0,0,1-.5-.9,5.086,5.086,0,0,1-.3-1.022,5.908,5.908,0,0,1-.1-1.077,7.762,7.762,0,0,1,.165-1.655A6.283,6.283,0,0,1,50.5-7.214a4.878,4.878,0,0,1,.677-1.066,4.233,4.233,0,0,1,.839-.765,3.559,3.559,0,0,1,.938-.461,3.186,3.186,0,0,1,.963-.154,3.2,3.2,0,0,1,1.3.271,3.177,3.177,0,0,1,1.113.842l-.447.4a2.37,2.37,0,0,0-.828-.667,2.557,2.557,0,0,0-1.128-.234,1.913,1.913,0,0,0-1.1.322,2.721,2.721,0,0,0-.8.861,4.628,4.628,0,0,0-.509,1.249A7,7,0,0,0,51.313-5.127Zm-.015,1.3a8.45,8.45,0,0,0,.161,1.359,4.084,4.084,0,0,0,.388,1.117,2.131,2.131,0,0,0,.656.754,1.629,1.629,0,0,0,.956.278,1.5,1.5,0,0,0,.747-.2,1.945,1.945,0,0,0,.612-.549,2.776,2.776,0,0,0,.41-.835,3.541,3.541,0,0,0,.15-1.055,4.294,4.294,0,0,0-.15-1.2,2.6,2.6,0,0,0-.41-.853,1.681,1.681,0,0,0-.612-.509,1.74,1.74,0,0,0-.762-.168,1.965,1.965,0,0,0-.634.114,2.255,2.255,0,0,0-.637.344,2.377,2.377,0,0,0-.538.582A2.38,2.38,0,0,0,51.3-3.823ZM61.648.132a2.8,2.8,0,0,1-1.025-.183,2.938,2.938,0,0,1-.846-.505,3.509,3.509,0,0,1-.663-.762,4.893,4.893,0,0,1-.48-.959,6.048,6.048,0,0,1-.293-1.1,6.945,6.945,0,0,1-.1-1.172,7.933,7.933,0,0,1,.293-2.3,4.546,4.546,0,0,1,.8-1.578,3.137,3.137,0,0,1,1.19-.912,3.631,3.631,0,0,1,1.45-.293,2.856,2.856,0,0,1,1.3.311,3.185,3.185,0,0,1,1.084.908A4.691,4.691,0,0,1,65.1-6.947a6.483,6.483,0,0,1,.278,1.981,7.6,7.6,0,0,1-.3,2.245,4.807,4.807,0,0,1-.8,1.589A3.261,3.261,0,0,1,63.1-.183,3.414,3.414,0,0,1,61.648.132Zm-.015-9.28a1.728,1.728,0,0,0-1.047.3,2.091,2.091,0,0,0-.648.791,3.8,3.8,0,0,0-.33,1.11,8.623,8.623,0,0,0-.092,1.263q0,.527.04,1.128T59.7-3.362a7.684,7.684,0,0,0,.278,1.139,4.039,4.039,0,0,0,.454.963,2.241,2.241,0,0,0,.663.667,1.659,1.659,0,0,0,.916.249,1.684,1.684,0,0,0,1.036-.3,2.13,2.13,0,0,0,.645-.8,3.856,3.856,0,0,0,.33-1.121,8.773,8.773,0,0,0,.092-1.271q0-.579-.044-1.2a11.346,11.346,0,0,0-.15-1.208,7.4,7.4,0,0,0-.289-1.117,3.786,3.786,0,0,0-.458-.923,2.2,2.2,0,0,0-.656-.63A1.643,1.643,0,0,0,61.633-9.148Zm7.111,1.633h-1.38V-.06h1.38V-5.085a2.127,2.127,0,0,1,.705-1.11,2.138,2.138,0,0,1,1.56-.75c.735,0,1.1.51,1.1,1.56V-.06h1.38v-5a2.51,2.51,0,0,1,.69-1.155,2.114,2.114,0,0,1,1.5-.735,1.163,1.163,0,0,1,.765.27,2.072,2.072,0,0,1,.4,1.545V-.06h1.38V-5.25a2.487,2.487,0,0,0-.51-1.7,2.458,2.458,0,0,0-1.77-.675A2.967,2.967,0,0,0,73.32-6.075a1.616,1.616,0,0,0-.39-.87,2.156,2.156,0,0,0-1.665-.675,3.006,3.006,0,0,0-2.52,1.425Zm13.05,0h-1.38V-.06h1.38V-5.085a2.127,2.127,0,0,1,.705-1.11,2.138,2.138,0,0,1,1.56-.75c.735,0,1.1.51,1.1,1.56V-.06h1.38v-5a2.51,2.51,0,0,1,.69-1.155,2.114,2.114,0,0,1,1.5-.735,1.163,1.163,0,0,1,.765.27,2.072,2.072,0,0,1,.4,1.545V-.06h1.38V-5.25a2.487,2.487,0,0,0-.51-1.7,2.458,2.458,0,0,0-1.77-.675A2.967,2.967,0,0,0,86.37-6.075a1.616,1.616,0,0,0-.39-.87,2.156,2.156,0,0,0-1.665-.675,3.006,3.006,0,0,0-2.52,1.425ZM97.44.12a9.019,9.019,0,0,0-4.185-2.865l-.285.36A13.388,13.388,0,0,1,96.21,1.2Zm17.85-12.015c.255-.09.36-.2.36-.33,0-.12-.1-.21-.3-.225l-1.275-.15a15.507,15.507,0,0,1-2.235,3.09,21.606,21.606,0,0,1-3.87,3.315l.195.39a16.022,16.022,0,0,0,6.795-5.61l.06.09a13.151,13.151,0,0,0,6.09,5.235,8.12,8.12,0,0,1,.66-1.365,14.146,14.146,0,0,1-4.23-2.265,13.472,13.472,0,0,1-2.28-2.13Zm.165,5.685h3.24l.6.12v-.84l-.6.12h-7.65l-.6-.12v.84l.6-.12h3.12v2.625H110.88l-.585-.12v.84l.585-.12h3.285V.045H109.3l-.6-.12v.84l.6-.12h11.3l.6.12v-.84l-.6.12h-5.145v-3.03h3.4l.585.12V-3.7l-.585.12h-3.4Zm10.89-3.57h.975v6.735c0,.285-.09.36-.36.375h-.435v.6h.765c.72,0,1.02-.3,1.02-.99v-7.275h-1.965v-1.68c.195-.135.24-.195.24-.3,0-.135-.1-.2-.315-.2h-.915v2.175h-1.89V-1.98h.99v-7.8h.9V1.11h.99Zm9.9,4.335h-7.23V1.11h1.1V.375h5.01V1h1.125Zm-1.125,3.12v2.1h-2.01v-2.1Zm0-.6h-2.01v-1.92h2.01Zm-3.09-1.92v1.92h-1.92v-1.92Zm-1.92,4.62v-2.1h1.92v2.1Zm5.535-6.6v-3.27h-6.15v3.27Zm-1.155-.6h-3.87v-2.07h3.87Zm-5.43-3.945h7.11l.6.12v-.84l-.6.12h-7.11l-.6-.12v.84Zm9.453,3.614,2.622-1.75h.271V-.527H142.8V0h-3.955V-.527h1.377V-8.174l-1.392.886Zm8.064,7.4a2.263,2.263,0,0,1-.176.938,2.29,2.29,0,0,1-.469.681,3.3,3.3,0,0,1-.341.3q-.165.125-.289.205a1.83,1.83,0,0,1-.286.154l-.3-.3.234-.161q.1-.073.212-.161t.2-.168A1.723,1.723,0,0,0,145.675.7a1.068,1.068,0,0,0,.11-.549l-.051.015a.71.71,0,0,1-.132.007.749.749,0,0,1-.319-.07.847.847,0,0,1-.264-.19.937.937,0,0,1-.179-.275.81.81,0,0,1-.066-.322.846.846,0,0,1,.066-.337.815.815,0,0,1,.183-.267.827.827,0,0,1,.275-.176.9.9,0,0,1,.333-.062,1.006,1.006,0,0,1,.352.062.805.805,0,0,1,.3.2.986.986,0,0,1,.212.359A1.643,1.643,0,0,1,146.576-.359ZM149.9,0h-.791l3.867-8.357h-4.2l-.527,1.245h-.513v-2.4h6.306v.52Zm6.379-5.984H157.8a4.973,4.973,0,0,1,1.252.154,2.759,2.759,0,0,1,1.036.505,2.474,2.474,0,0,1,.707.927,3.372,3.372,0,0,1,.264,1.41,2.906,2.906,0,0,1-.308,1.37,3.088,3.088,0,0,1-.791.978,3.39,3.39,0,0,1-1.084.59,3.8,3.8,0,0,1-1.194.2,3.915,3.915,0,0,1-.985-.114,3.753,3.753,0,0,1-.776-.289,2.981,2.981,0,0,1-.59-.392,4.62,4.62,0,0,1-.425-.414l.476-.439a2.758,2.758,0,0,0,.934.714,3.112,3.112,0,0,0,1.366.275,2.285,2.285,0,0,0,.8-.143,1.857,1.857,0,0,0,.681-.443,2.151,2.151,0,0,0,.472-.769,3.2,3.2,0,0,0,.176-1.121,2.055,2.055,0,0,0-.15-.813,1.638,1.638,0,0,0-.417-.59,1.817,1.817,0,0,0-.637-.363,2.523,2.523,0,0,0-.809-.125h-2.278l.63-4.629h4.57v1.165H156.6Zm7.742,0h1.516a4.973,4.973,0,0,1,1.252.154,2.759,2.759,0,0,1,1.036.505,2.474,2.474,0,0,1,.707.927,3.372,3.372,0,0,1,.264,1.41,2.906,2.906,0,0,1-.308,1.37,3.088,3.088,0,0,1-.791.978,3.39,3.39,0,0,1-1.084.59,3.8,3.8,0,0,1-1.194.2,3.915,3.915,0,0,1-.985-.114,3.753,3.753,0,0,1-.776-.289,2.981,2.981,0,0,1-.59-.392,4.62,4.62,0,0,1-.425-.414l.476-.439a2.758,2.758,0,0,0,.934.714,3.112,3.112,0,0,0,1.366.275,2.285,2.285,0,0,0,.8-.143A1.857,1.857,0,0,0,166.9-1.1a2.151,2.151,0,0,0,.472-.769,3.2,3.2,0,0,0,.176-1.121,2.055,2.055,0,0,0-.15-.813,1.638,1.638,0,0,0-.417-.59,1.817,1.817,0,0,0-.637-.363,2.523,2.523,0,0,0-.809-.125h-2.278l.63-4.629h4.57v1.165h-4.124Zm8.268-1.531h-1.38V-.06h1.38V-5.085a2.127,2.127,0,0,1,.7-1.11,2.138,2.138,0,0,1,1.56-.75c.735,0,1.1.51,1.1,1.56V-.06h1.38v-5a2.51,2.51,0,0,1,.69-1.155,2.114,2.114,0,0,1,1.5-.735,1.163,1.163,0,0,1,.765.27,2.072,2.072,0,0,1,.4,1.545V-.06h1.38V-5.25a2.487,2.487,0,0,0-.51-1.7,2.458,2.458,0,0,0-1.77-.675,2.967,2.967,0,0,0-2.625,1.545,1.616,1.616,0,0,0-.39-.87,2.156,2.156,0,0,0-1.665-.675,3.006,3.006,0,0,0-2.52,1.425Zm13.05,0h-1.38V-.06h1.38V-5.085a2.127,2.127,0,0,1,.7-1.11,2.138,2.138,0,0,1,1.56-.75c.735,0,1.1.51,1.1,1.56V-.06h1.38v-5a2.51,2.51,0,0,1,.69-1.155,2.114,2.114,0,0,1,1.5-.735,1.163,1.163,0,0,1,.765.27,2.072,2.072,0,0,1,.4,1.545V-.06h1.38V-5.25a2.487,2.487,0,0,0-.51-1.7,2.458,2.458,0,0,0-1.77-.675,2.967,2.967,0,0,0-2.625,1.545,1.616,1.616,0,0,0-.39-.87,2.156,2.156,0,0,0-1.665-.675,3.006,3.006,0,0,0-2.52,1.425ZM200.986.12A9.019,9.019,0,0,0,196.8-2.745l-.285.36a13.388,13.388,0,0,1,3.24,3.585Zm17.85-12.015c.255-.09.36-.2.36-.33,0-.12-.1-.21-.3-.225l-1.275-.15a15.507,15.507,0,0,1-2.235,3.09,21.607,21.607,0,0,1-3.87,3.315l.195.39a16.022,16.022,0,0,0,6.795-5.61l.06.09a13.151,13.151,0,0,0,6.09,5.235,8.119,8.119,0,0,1,.66-1.365,14.146,14.146,0,0,1-4.23-2.265,13.472,13.472,0,0,1-2.28-2.13ZM219-6.21h3.24l.6.12v-.84l-.6.12h-7.65l-.6-.12v.84l.6-.12h3.12v2.625h-3.285l-.585-.12v.84l.585-.12h3.285V.045h-4.86l-.6-.12v.84l.6-.12h11.295l.6.12v-.84l-.6.12H219v-3.03h3.4l.585.12V-3.7l-.585.12H219Zm13.665-4.815h-5.46l-.6-.12v.84l.6-.12h12.4l.6.12v-.84l-.6.12h-5.58V-12.09c.195-.15.24-.21.24-.3,0-.15-.1-.21-.315-.21h-1.29Zm6.915,5.67H227.236V1.11h1.245V-4.755h9.855v4.53c-.015.465-.165.615-.63.63h-1.275v.63h1.845c.915,0,1.32-.375,1.3-1.245Zm-9.57,1.71V0H231.2V-.69h5.355V-3.645ZM231.2-1.29V-3.045h4.185V-1.29Zm6.585-5.2V-9.33h-8.745v2.835Zm-7.5-.6V-8.73h6.255v1.635Zm11.778-.661,2.622-1.75h.271V-.527h1.392V0h-3.955V-.527h1.377V-8.174l-1.392.886Zm8.064,7.4a2.263,2.263,0,0,1-.176.938,2.29,2.29,0,0,1-.469.681,3.3,3.3,0,0,1-.341.3q-.165.125-.289.205a1.83,1.83,0,0,1-.286.154l-.3-.3.234-.161q.1-.073.212-.161t.2-.168A1.723,1.723,0,0,0,249.221.7a1.068,1.068,0,0,0,.11-.549l-.051.015a.71.71,0,0,1-.132.007A.749.749,0,0,1,248.83.1a.847.847,0,0,1-.264-.19.937.937,0,0,1-.179-.275.81.81,0,0,1-.066-.322.846.846,0,0,1,.066-.337.815.815,0,0,1,.183-.267.827.827,0,0,1,.275-.176.9.9,0,0,1,.333-.062,1.006,1.006,0,0,1,.352.062.805.805,0,0,1,.3.2.986.986,0,0,1,.212.359A1.643,1.643,0,0,1,250.122-.359Zm1.26-2.432,4.753-6.716h.776v6.313h1.655v1h-1.655V0h-1.194V-2.19h-4.336Zm4.336-.4V-7.961l-3.347,4.768Zm5.742-1.934a1.474,1.474,0,0,1,.271-.355,2.335,2.335,0,0,1,.472-.363,3.071,3.071,0,0,1,.634-.282,2.441,2.441,0,0,1,.754-.114,3.932,3.932,0,0,1,1.223.19,2.821,2.821,0,0,1,1.029.59,2.854,2.854,0,0,1,.707,1.014,3.724,3.724,0,0,1,.264,1.472,2.909,2.909,0,0,1-.271,1.256,3.27,3.27,0,0,1-.718,1,3.26,3.26,0,0,1-1.029.656,3.2,3.2,0,0,1-1.2.234A3.257,3.257,0,0,1,262.508,0a3.159,3.159,0,0,1-.886-.476,3.39,3.39,0,0,1-.692-.718,4.476,4.476,0,0,1-.5-.9,5.086,5.086,0,0,1-.3-1.022,5.908,5.908,0,0,1-.1-1.077,7.762,7.762,0,0,1,.165-1.655,6.283,6.283,0,0,1,.454-1.362,4.878,4.878,0,0,1,.677-1.066,4.233,4.233,0,0,1,.839-.765,3.559,3.559,0,0,1,.938-.461,3.186,3.186,0,0,1,.963-.154,3.2,3.2,0,0,1,1.3.271,3.177,3.177,0,0,1,1.113.842l-.447.4a2.37,2.37,0,0,0-.828-.667,2.557,2.557,0,0,0-1.128-.234,1.913,1.913,0,0,0-1.1.322,2.721,2.721,0,0,0-.8.861,4.628,4.628,0,0,0-.509,1.249A7,7,0,0,0,261.46-5.127Zm-.015,1.3a8.45,8.45,0,0,0,.161,1.359,4.084,4.084,0,0,0,.388,1.117,2.131,2.131,0,0,0,.656.754,1.629,1.629,0,0,0,.956.278,1.5,1.5,0,0,0,.747-.2,1.945,1.945,0,0,0,.612-.549,2.776,2.776,0,0,0,.41-.835,3.541,3.541,0,0,0,.15-1.055,4.294,4.294,0,0,0-.15-1.2,2.6,2.6,0,0,0-.41-.853,1.681,1.681,0,0,0-.612-.509,1.74,1.74,0,0,0-.762-.168,1.965,1.965,0,0,0-.634.114,2.255,2.255,0,0,0-.637.344,2.377,2.377,0,0,0-.538.582A2.38,2.38,0,0,0,261.446-3.823ZM271.795.132a2.8,2.8,0,0,1-1.025-.183,2.938,2.938,0,0,1-.846-.505,3.509,3.509,0,0,1-.663-.762,4.893,4.893,0,0,1-.48-.959,6.048,6.048,0,0,1-.293-1.1,6.945,6.945,0,0,1-.1-1.172,7.933,7.933,0,0,1,.293-2.3,4.546,4.546,0,0,1,.8-1.578,3.137,3.137,0,0,1,1.19-.912,3.631,3.631,0,0,1,1.45-.293,2.856,2.856,0,0,1,1.3.311,3.185,3.185,0,0,1,1.084.908,4.691,4.691,0,0,1,.743,1.465,6.483,6.483,0,0,1,.278,1.981,7.6,7.6,0,0,1-.3,2.245,4.807,4.807,0,0,1-.8,1.589,3.261,3.261,0,0,1-1.187.948A3.414,3.414,0,0,1,271.795.132Zm-.015-9.28a1.728,1.728,0,0,0-1.047.3,2.091,2.091,0,0,0-.648.791,3.8,3.8,0,0,0-.33,1.11,8.623,8.623,0,0,0-.092,1.263q0,.527.04,1.128t.139,1.194a7.684,7.684,0,0,0,.278,1.139,4.039,4.039,0,0,0,.454.963,2.241,2.241,0,0,0,.663.667,1.659,1.659,0,0,0,.916.249,1.684,1.684,0,0,0,1.036-.3,2.13,2.13,0,0,0,.645-.8,3.856,3.856,0,0,0,.33-1.121,8.773,8.773,0,0,0,.092-1.271q0-.579-.044-1.2a11.346,11.346,0,0,0-.15-1.208,7.4,7.4,0,0,0-.289-1.117,3.786,3.786,0,0,0-.458-.923,2.2,2.2,0,0,0-.656-.63A1.643,1.643,0,0,0,271.78-9.148Zm7.111,1.633h-1.38V-.06h1.38V-5.085a2.127,2.127,0,0,1,.7-1.11,2.138,2.138,0,0,1,1.56-.75c.735,0,1.1.51,1.1,1.56V-.06h1.38v-5a2.51,2.51,0,0,1,.69-1.155,2.114,2.114,0,0,1,1.5-.735,1.163,1.163,0,0,1,.765.27,2.072,2.072,0,0,1,.4,1.545V-.06h1.38V-5.25a2.487,2.487,0,0,0-.51-1.7,2.458,2.458,0,0,0-1.77-.675,2.967,2.967,0,0,0-2.625,1.545,1.616,1.616,0,0,0-.39-.87,2.156,2.156,0,0,0-1.665-.675,3.005,3.005,0,0,0-2.52,1.425Zm13.05,0h-1.38V-.06h1.38V-5.085a2.127,2.127,0,0,1,.7-1.11,2.138,2.138,0,0,1,1.56-.75c.735,0,1.1.51,1.1,1.56V-.06h1.38v-5a2.51,2.51,0,0,1,.69-1.155,2.114,2.114,0,0,1,1.5-.735,1.163,1.163,0,0,1,.765.27,2.072,2.072,0,0,1,.4,1.545V-.06h1.38V-5.25a2.487,2.487,0,0,0-.51-1.7,2.458,2.458,0,0,0-1.77-.675,2.967,2.967,0,0,0-2.625,1.545,1.616,1.616,0,0,0-.39-.87,2.156,2.156,0,0,0-1.665-.675,3.005,3.005,0,0,0-2.52,1.425ZM307.586.12A9.019,9.019,0,0,0,303.4-2.745l-.285.36a13.388,13.388,0,0,1,3.24,3.585Zm18.21-8.7h4.71l.66.135V-9.4l-.66.135H325.8V-11.4c.21-.15.3-.255.3-.39a.27.27,0,0,0-.285-.255l-1.515-.1.135.9v1.98h-4.8l-.66-.135v.96l.66-.135h4.8V-.885c0,.51-.225.735-.75.735h-1.53V.54h2.52c.78.015,1.125-.36,1.125-1.215ZM327.281-6.8a18.651,18.651,0,0,1,3,5.61l1.44-.75a10.8,10.8,0,0,0-4.14-5.115Zm-8.76,5.67A10.338,10.338,0,0,0,322.481-6c.27-.105.375-.21.375-.36a.316.316,0,0,0-.225-.285l-1.41-.51-.18.825a13.88,13.88,0,0,1-2.79,4.875ZM341.666-8.04a38.563,38.563,0,0,0,3.2-2.82c.4-.045.57-.15.57-.36a.465.465,0,0,0-.24-.345l-1.155-.765-.54.81a29.182,29.182,0,0,1-9.84,6.825l.165.45a19.784,19.784,0,0,0,6.45-2.79V.8h1.395Zm19.71,1.98-12.525-.465V-4.95l12.525-.45Zm9.06,6.54a7.431,7.431,0,0,0,4.455-2.715,10.5,10.5,0,0,0,2.175-4.935l-.465-.15c-.99,2.82-2.865,5.115-4.83,5.91V-11.1c.225-.15.3-.255.3-.39a.281.281,0,0,0-.285-.255L370.3-11.85l.135.9Zm-7.1.045a8.229,8.229,0,0,0,3.36-3.57,13.975,13.975,0,0,0,.885-5.85V-10.59c.225-.15.3-.255.3-.39a.27.27,0,0,0-.285-.255l-1.53-.1.135.9v1.68c0,4.56-.72,6.615-3.135,8.9Zm27.96-11.37a2.979,2.979,0,0,0-1.725-1.59l-.27.21a5.6,5.6,0,0,1,.99,1.89Zm-3.72-1.035a6.147,6.147,0,0,1,.825,2l1.05-.48a3.1,3.1,0,0,0-1.605-1.71ZM391.9-1.455c-2.16-2.175-5.745-6.195-7.455-8.385-.615-.8-.84-1.005-1.11-1.005-.3,0-.54.225-1.605,1.545-1.62,1.965-2.07,2.505-2.865,3.33l-.75.63.84,1.14a.369.369,0,0,0,.3.2c.18,0,.27-.135.285-.405.81-1.125,1.29-1.815,2.97-4.275.6-.915.705-1.05.81-1.05.06,0,.135.075.315.36a104.84,104.84,0,0,0,7.2,9.195ZM406.376-6.06l-12.525-.465V-4.95l12.525-.45Zm9.945,1.065a18.888,18.888,0,0,0,3.09-6.075h-8.88l-.66-.135v.96l.66-.135h7.095a17.286,17.286,0,0,1-9.06,10.11l.21.465a15.08,15.08,0,0,0,7.23-4.785A25.6,25.6,0,0,1,420.3.3l1.335-1.08a18.322,18.322,0,0,0-5.115-4.11ZM425.8-9a2.506,2.506,0,0,0-.674.092,2.594,2.594,0,0,0-.623.264,2.847,2.847,0,0,0-.542.414,2.841,2.841,0,0,0-.432.535l-.557-.315a3.61,3.61,0,0,1,1.267-1.234,3.2,3.2,0,0,1,1.589-.414,3.886,3.886,0,0,1,1.1.161,3.162,3.162,0,0,1,.992.487,2.505,2.505,0,0,1,.718.828A2.426,2.426,0,0,1,428.918-7a2.515,2.515,0,0,1-.238,1.1,4.77,4.77,0,0,1-.623.967,11.1,11.1,0,0,1-.883.948q-.5.48-1.011,1.051l-1.626,1.765h4.49V0h-5.852V-.5l2.717-3.083q.337-.388.648-.813a7.711,7.711,0,0,0,.549-.861,5.248,5.248,0,0,0,.381-.868,2.656,2.656,0,0,0,.143-.835,2.513,2.513,0,0,0-.128-.82,1.9,1.9,0,0,0-.366-.645,1.7,1.7,0,0,0-.571-.425A1.753,1.753,0,0,0,425.8-9Zm6.584,8.643a2.263,2.263,0,0,1-.176.938,2.29,2.29,0,0,1-.469.681,3.3,3.3,0,0,1-.341.3q-.165.125-.289.205a1.83,1.83,0,0,1-.286.154l-.3-.3.234-.161q.1-.073.212-.161t.2-.168A1.723,1.723,0,0,0,431.488.7a1.068,1.068,0,0,0,.11-.549l-.051.015a.71.71,0,0,1-.132.007A.749.749,0,0,1,431.1.1a.847.847,0,0,1-.264-.19.937.937,0,0,1-.179-.275.81.81,0,0,1-.066-.322.846.846,0,0,1,.066-.337.815.815,0,0,1,.183-.267.827.827,0,0,1,.275-.176.9.9,0,0,1,.333-.062,1.006,1.006,0,0,1,.352.062.805.805,0,0,1,.3.2.986.986,0,0,1,.212.359A1.643,1.643,0,0,1,432.389-.359Zm2.666-5.625h1.516a4.973,4.973,0,0,1,1.252.154,2.759,2.759,0,0,1,1.036.505,2.474,2.474,0,0,1,.707.927,3.372,3.372,0,0,1,.264,1.41,2.906,2.906,0,0,1-.308,1.37,3.088,3.088,0,0,1-.791.978,3.39,3.39,0,0,1-1.084.59,3.8,3.8,0,0,1-1.194.2,3.915,3.915,0,0,1-.985-.114,3.753,3.753,0,0,1-.776-.289,2.981,2.981,0,0,1-.59-.392,4.62,4.62,0,0,1-.425-.414l.476-.439a2.758,2.758,0,0,0,.934.714,3.112,3.112,0,0,0,1.366.275,2.285,2.285,0,0,0,.8-.143,1.857,1.857,0,0,0,.681-.443,2.151,2.151,0,0,0,.472-.769,3.2,3.2,0,0,0,.176-1.121,2.055,2.055,0,0,0-.15-.813,1.638,1.638,0,0,0-.417-.59,1.817,1.817,0,0,0-.637-.363,2.523,2.523,0,0,0-.809-.125h-2.278l.63-4.629h4.57v1.165H435.37ZM444.137-9a2.506,2.506,0,0,0-.674.092,2.594,2.594,0,0,0-.623.264,2.847,2.847,0,0,0-.542.414,2.841,2.841,0,0,0-.432.535l-.557-.315a3.61,3.61,0,0,1,1.267-1.234,3.2,3.2,0,0,1,1.589-.414,3.886,3.886,0,0,1,1.1.161,3.162,3.162,0,0,1,.992.487,2.505,2.505,0,0,1,.718.828A2.426,2.426,0,0,1,447.25-7a2.515,2.515,0,0,1-.238,1.1,4.77,4.77,0,0,1-.623.967,11.1,11.1,0,0,1-.883.948q-.5.48-1.011,1.051L442.87-1.172h4.49V0h-5.852V-.5l2.717-3.083q.337-.388.648-.813a7.711,7.711,0,0,0,.549-.861,5.248,5.248,0,0,0,.381-.868,2.656,2.656,0,0,0,.143-.835,2.513,2.513,0,0,0-.128-.82,1.9,1.9,0,0,0-.366-.645,1.7,1.7,0,0,0-.571-.425A1.753,1.753,0,0,0,444.137-9Zm6.013,3.018h1.516a4.973,4.973,0,0,1,1.252.154,2.759,2.759,0,0,1,1.036.505,2.474,2.474,0,0,1,.707.927,3.372,3.372,0,0,1,.264,1.41,2.906,2.906,0,0,1-.308,1.37,3.088,3.088,0,0,1-.791.978,3.39,3.39,0,0,1-1.084.59,3.8,3.8,0,0,1-1.194.2,3.915,3.915,0,0,1-.985-.114,3.753,3.753,0,0,1-.776-.289,2.981,2.981,0,0,1-.59-.392,4.62,4.62,0,0,1-.425-.414l.476-.439a2.758,2.758,0,0,0,.934.714,3.112,3.112,0,0,0,1.366.275,2.285,2.285,0,0,0,.8-.143,1.857,1.857,0,0,0,.681-.443,2.151,2.151,0,0,0,.472-.769,3.2,3.2,0,0,0,.176-1.121,2.055,2.055,0,0,0-.15-.813,1.638,1.638,0,0,0-.417-.59,1.817,1.817,0,0,0-.637-.363,2.523,2.523,0,0,0-.809-.125h-2.278l.63-4.629h4.57v1.165h-4.124Zm8.268-1.531h-1.38V-.06h1.38V-5.085a2.127,2.127,0,0,1,.7-1.11,2.138,2.138,0,0,1,1.56-.75c.735,0,1.1.51,1.1,1.56V-.06h1.38v-5a2.51,2.51,0,0,1,.69-1.155,2.114,2.114,0,0,1,1.5-.735,1.163,1.163,0,0,1,.765.27,2.072,2.072,0,0,1,.4,1.545V-.06h1.38V-5.25a2.487,2.487,0,0,0-.51-1.7,2.458,2.458,0,0,0-1.77-.675,2.967,2.967,0,0,0-2.625,1.545,1.616,1.616,0,0,0-.39-.87,2.156,2.156,0,0,0-1.665-.675,3.005,3.005,0,0,0-2.52,1.425Zm13.05,0h-1.38V-.06h1.38V-5.085a2.127,2.127,0,0,1,.7-1.11,2.138,2.138,0,0,1,1.56-.75c.735,0,1.1.51,1.1,1.56V-.06h1.38v-5a2.51,2.51,0,0,1,.69-1.155,2.114,2.114,0,0,1,1.5-.735,1.163,1.163,0,0,1,.765.27,2.072,2.072,0,0,1,.4,1.545V-.06h1.38V-5.25a2.487,2.487,0,0,0-.51-1.7,2.458,2.458,0,0,0-1.77-.675,2.967,2.967,0,0,0-2.625,1.545,1.616,1.616,0,0,0-.39-.87,2.156,2.156,0,0,0-1.665-.675,3.005,3.005,0,0,0-2.52,1.425ZM487.114.12a9.019,9.019,0,0,0-4.185-2.865l-.285.36a13.388,13.388,0,0,1,3.24,3.585ZM504.079-6.4h6.765l.6.12v-.84l-.6.12h-12.6l-.6-.12v.84l.6-.12h.75v5.73c-.12.03-.2.03-.4.06-.315.045-.63.09-.945.12L498.064.6c.06.15.165.24.27.24s.21-.09.285-.3a30.651,30.651,0,0,0,4.35-1.485V1.2h1.11Zm-1.11,1.83V-3.24H500.1V-4.575Zm-2.865-.6V-6.4h2.865v1.23Zm2.865,2.535v1.2l-.3.06c-.75.18-1.845.405-2.565.525V-2.64Zm1.56,3.84a8.2,8.2,0,0,0,3.33-1.8,7.668,7.668,0,0,0,2.94,1.71,7.559,7.559,0,0,1,.645-1.17,8.323,8.323,0,0,1-2.835-1.335,12.81,12.81,0,0,0,2.13-3.96h-5.385l-.6-.12v.84l.6-.12h.18a8.273,8.273,0,0,0,1.7,3.5,7.662,7.662,0,0,1-2.88,2.085Zm4.71-5.955a11.983,11.983,0,0,1-1.41,2.73,6.966,6.966,0,0,1-1.77-2.73Zm-9.645-7.305v4.005h9.975V-12.06Zm1.2,3.4V-9.8h7.545v1.14Zm0-1.74V-11.46h7.545V-10.4Zm18-.63h-5.46l-.6-.12v.84l.6-.12h12.405l.6.12v-.84l-.6.12h-5.58V-12.09c.2-.15.24-.21.24-.3,0-.15-.1-.21-.315-.21h-1.29Zm6.915,5.67H513.364V1.11h1.245V-4.755h9.855v4.53c-.015.465-.165.615-.63.63h-1.275v.63H524.4c.915,0,1.32-.375,1.3-1.245Zm-9.57,1.71V0h1.185V-.69h5.355V-3.645Zm1.185,2.355V-3.045h4.185V-1.29Zm6.585-5.2V-9.33h-8.745v2.835Zm-7.5-.6V-8.73h6.255v1.635Zm17.415,6.66h-4.245V-4.38c.2-.135.24-.2.24-.3,0-.135-.105-.195-.315-.195h-1.215V1h1.29V.165h9.93v.75h1.29v-5.3c.2-.15.24-.2.24-.3,0-.135-.1-.195-.315-.195h-1.215v4.44h-4.4v-5.79h4.98v-4.56c.2-.135.24-.195.24-.3,0-.135-.1-.195-.315-.195H538.8v4.455h-3.69v-5.19c.18-.135.24-.195.24-.3,0-.135-.1-.2-.315-.2h-1.215v5.685h-3.555v-3.96c.2-.135.24-.195.24-.3,0-.135-.105-.195-.315-.195h-1.215v5.055h4.845ZM547.549-9.1a18.979,18.979,0,0,1-.855,4.845,9.013,9.013,0,0,1-4.05,4.815l.225.48a8.964,8.964,0,0,0,4.875-4.41,16.131,16.131,0,0,0,1.17-5.73h5.13c-.075,2.31-.36,6.45-.51,7.47-.135,1.44-.39,1.785-1.29,1.77h-1.995V.84h2.7c1.275.015,1.815-.5,1.95-1.86.165-1.05.51-6.585.57-8.715h-6.525c.045-.51.06-.99.06-1.485V-12.1c.18-.135.24-.2.24-.3,0-.135-.105-.195-.315-.195h-1.3v1.38c0,.36-.015.885-.045,1.485h-3.96l-.585-.12v.87l.585-.12Zm10.638,1.349,2.622-1.75h.271V-.527h1.392V0h-3.955V-.527h1.377V-8.174l-1.392.886Zm11.558,3.391a1.558,1.558,0,0,1-.271.348,2.435,2.435,0,0,1-.472.366,2.952,2.952,0,0,1-.634.286,2.441,2.441,0,0,1-.754.114,3.932,3.932,0,0,1-1.223-.19,2.8,2.8,0,0,1-1.029-.593,2.891,2.891,0,0,1-.707-1.018,3.724,3.724,0,0,1-.264-1.472,2.909,2.909,0,0,1,.271-1.256,3.225,3.225,0,0,1,.718-.992,3.294,3.294,0,0,1,1.029-.652,3.2,3.2,0,0,1,1.2-.234,3.1,3.1,0,0,1,1.553.377,3.474,3.474,0,0,1,1.113.992,4.414,4.414,0,0,1,.67,1.4,5.862,5.862,0,0,1,.223,1.608,7.535,7.535,0,0,1-.337,2.366,5.412,5.412,0,0,1-.886,1.7A3.724,3.724,0,0,1,568.7-.179a3.19,3.19,0,0,1-1.428.348,3.145,3.145,0,0,1-1.3-.275,3.118,3.118,0,0,1-1.1-.839l.447-.4a2.067,2.067,0,0,0,.824.634,2.848,2.848,0,0,0,1.11.2,1.887,1.887,0,0,0,1.088-.311,2.473,2.473,0,0,0,.758-.839,4.358,4.358,0,0,0,.454-1.227A8.8,8.8,0,0,0,569.744-4.365Zm.015-1.3a8.371,8.371,0,0,0-.161-1.355,4.142,4.142,0,0,0-.388-1.117,2.123,2.123,0,0,0-.656-.758,1.629,1.629,0,0,0-.956-.278,1.5,1.5,0,0,0-.747.2,1.945,1.945,0,0,0-.612.549,2.776,2.776,0,0,0-.41.835,3.541,3.541,0,0,0-.15,1.055,4.294,4.294,0,0,0,.15,1.2,2.6,2.6,0,0,0,.41.853,1.681,1.681,0,0,0,.612.509,1.74,1.74,0,0,0,.762.168,1.965,1.965,0,0,0,.634-.114,2.255,2.255,0,0,0,.637-.344,2.4,2.4,0,0,0,.538-.579A2.341,2.341,0,0,0,569.759-5.669Zm6.511,5.8a2.8,2.8,0,0,1-1.025-.183,2.938,2.938,0,0,1-.846-.505,3.509,3.509,0,0,1-.663-.762,4.893,4.893,0,0,1-.48-.959,6.048,6.048,0,0,1-.293-1.1,6.945,6.945,0,0,1-.1-1.172,7.933,7.933,0,0,1,.293-2.3,4.546,4.546,0,0,1,.8-1.578,3.137,3.137,0,0,1,1.19-.912,3.631,3.631,0,0,1,1.45-.293,2.856,2.856,0,0,1,1.3.311,3.185,3.185,0,0,1,1.084.908,4.691,4.691,0,0,1,.743,1.465,6.483,6.483,0,0,1,.278,1.981,7.6,7.6,0,0,1-.3,2.245,4.807,4.807,0,0,1-.8,1.589,3.261,3.261,0,0,1-1.187.948A3.414,3.414,0,0,1,576.27.132Zm-.015-9.28a1.728,1.728,0,0,0-1.047.3,2.091,2.091,0,0,0-.648.791,3.8,3.8,0,0,0-.33,1.11,8.623,8.623,0,0,0-.092,1.263q0,.527.04,1.128t.139,1.194a7.684,7.684,0,0,0,.278,1.139,4.039,4.039,0,0,0,.454.963,2.241,2.241,0,0,0,.663.667,1.659,1.659,0,0,0,.916.249,1.684,1.684,0,0,0,1.036-.3,2.13,2.13,0,0,0,.645-.8,3.856,3.856,0,0,0,.33-1.121,8.773,8.773,0,0,0,.092-1.271q0-.579-.044-1.2a11.346,11.346,0,0,0-.15-1.208,7.4,7.4,0,0,0-.289-1.117,3.786,3.786,0,0,0-.458-.923,2.2,2.2,0,0,0-.656-.63A1.643,1.643,0,0,0,576.255-9.148Zm7.111,5.308,3.705,3.78h1.89l-4.275-4.38,3.705-3.075h-1.155l-3.87,3.2v-7.02h-1.38V-.06h1.38Zm12.84-7.5-2.49,8.88-2.58-8.88h-1.515L592.907-.06h.975l2.5-8.91,2.565,8.91h.975l3.285-11.28h-.855l-2.6,8.94-2.55-8.94ZM608.612.12a9.019,9.019,0,0,0-4.185-2.865l-.285.36a13.388,13.388,0,0,1,3.24,3.585ZM7.035,17.6H13.8l.6.12v-.84l-.6.12H1.2l-.6-.12v.84l.6-.12h.75v5.73c-.12.03-.195.03-.4.06-.315.045-.63.09-.945.12l.42,1.1c.06.15.165.24.27.24s.21-.09.285-.3a30.652,30.652,0,0,0,4.35-1.485V25.2h1.11Zm-1.11,1.83V20.76H3.06V19.425Zm-2.865-.6V17.6H5.925v1.23ZM5.925,21.36v1.2l-.3.06c-.75.18-1.845.4-2.565.525V21.36Zm1.56,3.84a8.2,8.2,0,0,0,3.33-1.8,7.668,7.668,0,0,0,2.94,1.71,7.559,7.559,0,0,1,.645-1.17A8.323,8.323,0,0,1,11.565,22.6a12.81,12.81,0,0,0,2.13-3.96H8.31l-.6-.12v.84l.6-.12h.18a8.273,8.273,0,0,0,1.7,3.5A7.662,7.662,0,0,1,7.3,24.825Zm4.71-5.955a11.983,11.983,0,0,1-1.41,2.73,6.966,6.966,0,0,1-1.77-2.73ZM2.55,11.94v4.005h9.975V11.94Zm1.2,3.4V14.2H11.3v1.14Zm0-1.74V12.54H11.3V13.6Zm24.735,2.58.63.12V15.39l-.63.12H22.83l.015-.045c.1-1.05.18-2.175.18-3.015v-.465c.195-.135.24-.195.24-.3,0-.135-.1-.2-.315-.2H21.66v.99c.015.435-.1,2.145-.195,2.985l-.015.045H16.515l-.63-.12v.915l.63-.12h4.86A10.57,10.57,0,0,1,15.6,24.7l.24.405a9.94,9.94,0,0,0,6.84-8.355,12.571,12.571,0,0,0,5.91,8.28,8.832,8.832,0,0,1,.81-1.5,12.569,12.569,0,0,1-4.89-4.17,9.336,9.336,0,0,1-1.545-3.18ZM36.24,12.57c.195-.1.3-.225.3-.36s-.12-.24-.3-.255l-1.5-.1.1.9V24.72h1.4V16.77a14.9,14.9,0,0,1,5.595,3.87l1.02-1.365a16.009,16.009,0,0,0-6.615-3.06ZM52.92,24.48a7.431,7.431,0,0,0,4.455-2.715A10.5,10.5,0,0,0,59.55,16.83l-.465-.15c-.99,2.82-2.865,5.115-4.83,5.91V12.9c.225-.15.3-.255.3-.39a.281.281,0,0,0-.285-.255l-1.485-.105.135.9Zm-7.095.045a8.229,8.229,0,0,0,3.36-3.57,13.975,13.975,0,0,0,.885-5.85V13.41c.225-.15.3-.255.3-.39a.27.27,0,0,0-.285-.255l-1.53-.1.135.9v1.68c0,4.56-.72,6.615-3.135,8.9ZM67.05,13.905c.165-.33.3-.66.525-1.245.285-.135.39-.225.39-.39,0-.135-.1-.225-.33-.27l-1.41-.3-.15.855a12.789,12.789,0,0,1-4.035,5.97l.24.36a10.065,10.065,0,0,0,4.41-4.29h4.695a13.1,13.1,0,0,1-3.66,6.72,14.742,14.742,0,0,1-5.625,2.94l.09.45a13.354,13.354,0,0,0,6.03-2.3c2.475-1.8,4.125-4.71,4.815-8.5Zm12.887,5.027a3.623,3.623,0,0,1,.586.249,2.224,2.224,0,0,1,.564.425,2.121,2.121,0,0,1,.421.645,2.3,2.3,0,0,1,.165.916,2.7,2.7,0,0,1-.3,1.311,2.881,2.881,0,0,1-.791.927,3.378,3.378,0,0,1-1.091.549,4.19,4.19,0,0,1-1.2.179,3.994,3.994,0,0,1-.981-.11,3.633,3.633,0,0,1-.773-.286,3.2,3.2,0,0,1-.593-.388,4.122,4.122,0,0,1-.428-.41L76,22.5a2.472,2.472,0,0,0,.919.688,3.3,3.3,0,0,0,1.366.256,2.5,2.5,0,0,0,.758-.117,1.771,1.771,0,0,0,.656-.374,1.873,1.873,0,0,0,.461-.663,2.836,2.836,0,0,0,.037-1.86,1.788,1.788,0,0,0-.392-.637,1.661,1.661,0,0,0-.608-.4,2.215,2.215,0,0,0-.795-.135h-.483v-.469a2.43,2.43,0,0,0,.751-.125,2.141,2.141,0,0,0,.7-.377,2.02,2.02,0,0,0,.513-.634,1.9,1.9,0,0,0,.2-.9,2.055,2.055,0,0,0-.132-.773,1.513,1.513,0,0,0-.355-.538,1.417,1.417,0,0,0-.52-.315,1.9,1.9,0,0,0-.626-.1,2.445,2.445,0,0,0-1.271.311,2.715,2.715,0,0,0-.89.875l-.542-.33a3.427,3.427,0,0,1,1.2-1.161,3.048,3.048,0,0,1,1.505-.385,3.759,3.759,0,0,1,1.047.15,2.9,2.9,0,0,1,.934.458,2.283,2.283,0,0,1,.927,1.912,1.867,1.867,0,0,1-.114.637,2.467,2.467,0,0,1-.308.59,2.7,2.7,0,0,1-.45.494A2.279,2.279,0,0,1,79.937,18.932Zm4.453-.916h1.516a4.973,4.973,0,0,1,1.252.154,2.759,2.759,0,0,1,1.036.505,2.474,2.474,0,0,1,.707.927,3.372,3.372,0,0,1,.264,1.41,2.906,2.906,0,0,1-.308,1.37,3.088,3.088,0,0,1-.791.978,3.39,3.39,0,0,1-1.084.59,3.8,3.8,0,0,1-1.194.2,3.915,3.915,0,0,1-.985-.114,3.753,3.753,0,0,1-.776-.289,2.981,2.981,0,0,1-.59-.392,4.62,4.62,0,0,1-.425-.414l.476-.439a2.758,2.758,0,0,0,.934.714,3.112,3.112,0,0,0,1.366.275,2.285,2.285,0,0,0,.8-.143,1.857,1.857,0,0,0,.681-.443,2.151,2.151,0,0,0,.472-.769,3.2,3.2,0,0,0,.176-1.121,2.055,2.055,0,0,0-.15-.813,1.638,1.638,0,0,0-.417-.59,1.817,1.817,0,0,0-.637-.363,2.523,2.523,0,0,0-.809-.125H83.628l.63-4.629h4.57v1.165H84.7Zm10.085,6.116a2.8,2.8,0,0,1-1.025-.183,2.938,2.938,0,0,1-.846-.505,3.509,3.509,0,0,1-.663-.762,4.893,4.893,0,0,1-.48-.959,6.048,6.048,0,0,1-.293-1.1,6.945,6.945,0,0,1-.1-1.172,7.933,7.933,0,0,1,.293-2.3,4.546,4.546,0,0,1,.8-1.578,3.137,3.137,0,0,1,1.19-.912,3.631,3.631,0,0,1,1.45-.293,2.856,2.856,0,0,1,1.3.311,3.185,3.185,0,0,1,1.084.908,4.691,4.691,0,0,1,.743,1.465,6.483,6.483,0,0,1,.278,1.981,7.6,7.6,0,0,1-.3,2.245,4.807,4.807,0,0,1-.8,1.589,3.261,3.261,0,0,1-1.187.948A3.414,3.414,0,0,1,94.475,24.132Zm-.015-9.28a1.728,1.728,0,0,0-1.047.3,2.091,2.091,0,0,0-.648.791,3.8,3.8,0,0,0-.33,1.11,8.623,8.623,0,0,0-.092,1.263q0,.527.04,1.128t.139,1.194a7.684,7.684,0,0,0,.278,1.139,4.039,4.039,0,0,0,.454.963,2.241,2.241,0,0,0,.663.667,1.659,1.659,0,0,0,.916.249,1.684,1.684,0,0,0,1.036-.3,2.13,2.13,0,0,0,.645-.8,3.856,3.856,0,0,0,.33-1.121,8.773,8.773,0,0,0,.092-1.271q0-.579-.044-1.2a11.346,11.346,0,0,0-.15-1.208,7.4,7.4,0,0,0-.289-1.117,3.786,3.786,0,0,0-.458-.923,2.2,2.2,0,0,0-.656-.63A1.643,1.643,0,0,0,94.46,14.852Zm13.8,9.088h.99V12.66h-.825v9.1l-7.1-9.1h-.99V23.94h.825V14.835Zm4.71-7.455h-1.38V23.94h1.38V18.915a2.127,2.127,0,0,1,.705-1.11,2.138,2.138,0,0,1,1.56-.75c.735,0,1.1.51,1.1,1.56V23.94h1.38v-5a2.51,2.51,0,0,1,.69-1.155,2.114,2.114,0,0,1,1.5-.735,1.163,1.163,0,0,1,.765.27,2.072,2.072,0,0,1,.4,1.545v5.07h1.38V18.75a2.487,2.487,0,0,0-.51-1.695,2.458,2.458,0,0,0-1.77-.675,2.967,2.967,0,0,0-2.625,1.545,1.616,1.616,0,0,0-.39-.87,2.156,2.156,0,0,0-1.665-.675,3.006,3.006,0,0,0-2.52,1.425Zm15.645,7.635a9.019,9.019,0,0,0-4.185-2.865l-.285.36a13.388,13.388,0,0,1,3.24,3.585Zm15.225.8a9.421,9.421,0,0,0,4.11-1.635c1.935-1.47,2.43-2.865,2.415-6.75v-3.9c.225-.15.3-.255.3-.39a.27.27,0,0,0-.285-.255l-1.545-.105.135.9v3.84c-.015,3.27-.345,4.425-1.7,5.79a8.7,8.7,0,0,1-3.54,2.055Zm-2.115-11.91V20.3h1.4V12.87c.225-.165.3-.27.3-.39a.27.27,0,0,0-.285-.255l-1.545-.12Zm13.455,4.11-.66-.135v.96l.66-.135h5.64a6.507,6.507,0,0,1-1.185,3.885,8.966,8.966,0,0,1-4,2.625l.12.435a9.311,9.311,0,0,0,4.83-2.325c1-1,1.485-2.355,1.635-4.62h4.7l.66.135v-.96l-.66.135h-4.65c.03-.8.045-1.47.045-1.935V13.83c.81-.075,1.56-.195,3.15-.48a2.232,2.232,0,0,0,.435.075.312.312,0,0,0,.315-.285.651.651,0,0,0-.225-.435l-.78-.735-.705.3a51.651,51.651,0,0,1-9.075,1.4l.03.465c1.17.03,1.35.03,1.815.03,1.155,0,1.62-.03,3.6-.18h.045v1.2c0,.435-.015,1.125-.045,1.935Zm20.025-2.61h-4.74v4.5h1.425v-3.81h8.265c-.03,2.535-.555,4.53-1.515,5.73a10.605,10.605,0,0,1-5.79,3.345l.09.465a11.244,11.244,0,0,0,6.39-2.6c1.665-1.62,2.295-3.57,2.46-7.635h-5.145v-1.83c.225-.15.3-.255.3-.39a.281.281,0,0,0-.285-.255l-1.59-.105.135.9Zm22.575,9.03a13.783,13.783,0,0,0-4.7-6.45l-.315.27a22.48,22.48,0,0,1,2.34,3.87c-2.865.42-4.74.615-7.545.8l.18-.33a69.534,69.534,0,0,0,3.75-8.55c.285-.12.4-.225.4-.39,0-.135-.1-.24-.315-.3l-1.485-.465-.15.87a78.849,78.849,0,0,1-3.075,8.73l-.21.51h-.09c-.4.03-.78.045-2.04.105l.48,1.3c.12.285.21.39.36.39s.27-.09.4-.36A65.26,65.26,0,0,0,195.4,21.8a23.513,23.513,0,0,1,.96,2.595Zm8.28-6.855a1.628,1.628,0,1,0,1.6,1.62A1.629,1.629,0,0,0,206.062,16.68Zm16.635-.72a38.563,38.563,0,0,0,3.2-2.82c.4-.045.57-.15.57-.36a.465.465,0,0,0-.24-.345l-1.155-.765-.54.81a29.182,29.182,0,0,1-9.84,6.825l.165.45a19.784,19.784,0,0,0,6.45-2.79V24.8H222.7Zm14.97,7.26c-.03.63-.24.825-.87.84h-1.56v.69h2.46a1.454,1.454,0,0,0,.975-.285,1.324,1.324,0,0,0,.375-.9v-.24l-.18-7.71h3.315l.6.12v-.93l-.6.12h-3.33l-.06-2.43c.2-.15.255-.24.255-.36,0-.15-.135-.255-.375-.255l-1.4-.075.15,1.005.045,2.115h-6.795l-.6-.12v.93l.6-.12h5.895l-.03.045a17.791,17.791,0,0,1-6.75,7.29l.2.36c3.12-1.17,5.115-2.88,7.53-6.48Zm19.65-8.61a14.889,14.889,0,0,1-3.825,4.86,14.109,14.109,0,0,1-6.885,3.045l-.795.015.54,1.335c.09.21.225.33.375.33.165,0,.285-.1.39-.345,3.39-.765,5.52-1.785,7.365-3.525a12.643,12.643,0,0,0,3.255-5.52Zm-11.64-1.635a14.1,14.1,0,0,1,3.735,3.21l1.23-1.245a9.257,9.257,0,0,0-4.785-2.355Zm20.385,3.705a1.628,1.628,0,1,0,1.6,1.62A1.629,1.629,0,0,0,266.062,16.68ZM288.1,12.81a3,3,0,0,0-1.77-1.56l-.24.21a6.03,6.03,0,0,1,1.005,1.89ZM274.4,23.775c2.475-1.965,4.08-4.845,4.92-8.88.33-.12.465-.255.465-.45,0-.15-.12-.27-.345-.33l-1.56-.39-.045.87a20.36,20.36,0,0,1-3.765,8.895Zm7.545-9.735a28.875,28.875,0,0,1,4.155,9.63l1.56-.87a20.207,20.207,0,0,0-5.31-9.075Zm2.385-2.355a6.593,6.593,0,0,1,.915,2.055l1-.48a2.968,2.968,0,0,0-1.65-1.77Zm9.375,13.2a7.956,7.956,0,0,0,4.74-2.64,11.653,11.653,0,0,0,2.25-5.28c.24-.06.33-.15.33-.285,0-.09-.075-.18-.225-.225l-1.41-.45-.03.795a14.451,14.451,0,0,1-1.575,4.32,7.919,7.919,0,0,1-4.23,3.33Zm.33-5.355a5.618,5.618,0,0,0-2.475-3.33l-.255.195a10.075,10.075,0,0,1,1.545,3.585Zm2.97-.375a5.935,5.935,0,0,0-2.37-3.33l-.27.21a10.141,10.141,0,0,1,1.44,3.585Zm19.9-1.59.66.135v-.96l-.66.135h-11.73l-.66-.135v.96l.66-.135h5.355a8.439,8.439,0,0,1-.51,3.285,6.963,6.963,0,0,1-4.545,3.48l.12.5c2.43-.5,4.41-1.545,5.28-2.79a7.165,7.165,0,0,0,1.11-4.47Zm-1.95-4.86h-7.92l-.66-.135v.96l.66-.135h7.92l.66.135v-.96Zm8.88,12.21a9.421,9.421,0,0,0,4.11-1.635c1.935-1.47,2.43-2.865,2.415-6.75v-3.9c.225-.15.3-.255.3-.39a.27.27,0,0,0-.285-.255l-1.545-.105.135.9v3.84c-.015,3.27-.345,4.425-1.695,5.79a8.7,8.7,0,0,1-3.54,2.055Zm-2.115-11.91V20.3h1.4V12.87c.225-.165.3-.27.3-.39a.27.27,0,0,0-.285-.255l-1.545-.12Zm25.68,4.935-12.525-.465V19.05l12.525-.45Zm9.075-1.3c.24-.1.33-.18.33-.315,0-.12-.075-.18-.315-.24l-1.005-.255a18.74,18.74,0,0,1-6.345,5.19l.135.405a17.315,17.315,0,0,0,2.355-.96v4.65h1.245v-.66h6.33v.585h1.245v-4.56a12.3,12.3,0,0,0,1.875.78,6.8,6.8,0,0,1,.615-1.305,14.319,14.319,0,0,1-6.42-3.285ZM351.8,20.37a14.791,14.791,0,0,0,4.35-3.405,12.91,12.91,0,0,0,4.11,3.405Zm1.08,3.48V20.97h6.33v2.88Zm2.43-10.98h-4.2a3.931,3.931,0,0,0-.03-.63h-.51a3.819,3.819,0,0,1-1.425,2.43l.915,1.11a3.178,3.178,0,0,0,1.02-2.31h10.11a11.747,11.747,0,0,1-.825,1.7l.3.225a5.732,5.732,0,0,0,2.28-2.52h-6.315V11.9c.2-.15.24-.2.24-.285,0-.15-.105-.21-.315-.21h-1.245Zm1.77,1.845a17.718,17.718,0,0,1,3.75,2.85l1.02-1.05a15.5,15.5,0,0,0-4.47-2.175Zm-6.675,3a11.124,11.124,0,0,0,3.96-2.445c.33-.06.51-.165.51-.315,0-.075-.1-.18-.24-.24l-1.125-.495a13.126,13.126,0,0,1-3.33,3.12Zm20.04,6.495h-5.7l-.6-.12v.8l.6-.12h12.6l.6.12v-.8l-.6.12h-5.8V23.07h4.725l.585.12v-.8l-.585.12h-4.725V21.48h4.68V17.745h-10.35V21.48h4.575v1.035h-4.635l-.585-.12v.8l.585-.12h4.635Zm0-3.285h-3.42v-1.05h3.42Zm0-1.6h-3.42V18.3h3.42Zm1.1-1.02h3.525v1.02h-3.525Zm0,1.575h3.525v1.05h-3.525Zm-5.475-7.95v3.63h9.96v-3.63Zm1.2.555h7.56v.96h-7.56Zm0,2.52V13.995h7.56V15Zm-2.43,1.92h12.42l.6.12v-.8l-.6.12h-12.42l-.6-.12v.8Zm15.658,1.1h1.516a4.973,4.973,0,0,1,1.252.154,2.759,2.759,0,0,1,1.036.505,2.474,2.474,0,0,1,.707.927,3.372,3.372,0,0,1,.264,1.41,2.906,2.906,0,0,1-.308,1.37,3.088,3.088,0,0,1-.791.978,3.39,3.39,0,0,1-1.084.59,3.8,3.8,0,0,1-1.194.2,3.915,3.915,0,0,1-.985-.114,3.753,3.753,0,0,1-.776-.289,2.981,2.981,0,0,1-.59-.392,4.62,4.62,0,0,1-.425-.414l.476-.439a2.758,2.758,0,0,0,.934.714,3.112,3.112,0,0,0,1.366.275,2.285,2.285,0,0,0,.8-.143,1.857,1.857,0,0,0,.681-.443,2.151,2.151,0,0,0,.472-.769,3.2,3.2,0,0,0,.176-1.121,2.055,2.055,0,0,0-.15-.813,1.638,1.638,0,0,0-.417-.59,1.817,1.817,0,0,0-.637-.363,2.523,2.523,0,0,0-.809-.125h-2.278l.63-4.629h4.57v1.165H380.81Zm6.335,3.193,4.753-6.716h.776v6.313h1.655v1H392.36V24h-1.194V21.81H386.83Zm4.336-.4V16.039l-3.347,4.768Zm4.226,2.5a.9.9,0,0,1,.07-.355.875.875,0,0,1,.476-.476.942.942,0,0,1,.71,0,.875.875,0,0,1,.476.476.942.942,0,0,1,0,.71.875.875,0,0,1-.476.476.942.942,0,0,1-.71,0,.875.875,0,0,1-.476-.476A.9.9,0,0,1,395.392,23.312ZM401.157,15a2.506,2.506,0,0,0-.674.092,2.594,2.594,0,0,0-.623.264,2.872,2.872,0,0,0-.974.948l-.557-.315a3.61,3.61,0,0,1,1.267-1.234,3.2,3.2,0,0,1,1.589-.414,3.886,3.886,0,0,1,1.1.161,3.162,3.162,0,0,1,.992.487,2.505,2.505,0,0,1,.718.828A2.426,2.426,0,0,1,404.269,17a2.515,2.515,0,0,1-.238,1.1,4.77,4.77,0,0,1-.623.967,11.1,11.1,0,0,1-.883.948q-.5.48-1.011,1.051l-1.626,1.765h4.49V24h-5.852v-.5l2.717-3.083q.337-.388.648-.813a7.711,7.711,0,0,0,.549-.861,5.248,5.248,0,0,0,.381-.868,2.656,2.656,0,0,0,.143-.835,2.513,2.513,0,0,0-.128-.82,1.9,1.9,0,0,0-.366-.645,1.7,1.7,0,0,0-.571-.425A1.753,1.753,0,0,0,401.157,15Zm6.54,5.161,3.7,3.78h1.89l-4.275-4.38,3.7-3.075h-1.155L407.7,19.68V12.66h-1.38V23.94h1.38Zm12.84-7.5-2.49,8.88-2.58-8.88h-1.515l3.285,11.28h.975l2.505-8.91,2.565,8.91h.975l3.285-11.28h-.855l-2.6,8.94-2.55-8.94Zm8.385,0V23.94h1.38V19.065a3.166,3.166,0,0,1,.84-1.32,1.836,1.836,0,0,1,1.35-.69c.87,0,1.35.66,1.35,1.86V23.94h1.38V18.855a2.307,2.307,0,0,0-2.415-2.475,2.91,2.91,0,0,0-2.505,1.545V12.66Z" transform="translate(0 274.991)" fill="#111"/>
    </g>
    <g id="car-name" transform="translate(-929 2.391)">
      <g id="グループ_877" data-name="グループ 877" transform="translate(-2.104 4160.221)">
        <rect id="長方形_201" data-name="長方形 201" width="226.154" height="28.709" transform="translate(933 -0.525)"/>
        <path id="パス_134" data-name="パス 134" d="M1.472-5.76H14.528l.832.16V-6.928l-.832.16H1.472L.64-6.928V-5.6ZM28.7-6.352A12.527,12.527,0,0,1,29.84-5.008l1.168-1.248a18.637,18.637,0,0,0-4.992-3.36l-.384.432A24.615,24.615,0,0,1,28.16-6.928L27.3-6.9c-1.824.064-2.56.08-5.28.112l-.928.016a19.144,19.144,0,0,0,2.592-3.616l.016-.048h6.832l.64.128v-.9l-.64.128H24.752V-12.9c.192-.144.256-.208.256-.32,0-.144-.112-.208-.352-.208H23.3v2.352H17.488l-.624-.128v.9l.624-.128h4.56a28.969,28.969,0,0,1-1.632,3.408l-.144.256c-1.824.032-2,.032-2.208.032h-.816l.32,1.264c.064.24.176.368.32.368s.256-.128.352-.384c.544-.016,1.056-.048,1.216-.064l.88-.048.88-.064A8.781,8.781,0,0,1,20.32-2,5.822,5.822,0,0,1,16.656.688l.176.5A6.953,6.953,0,0,0,21.2-1.088,7.466,7.466,0,0,0,22.624-5.76l.192-.016c.336-.032.352-.032,1.2-.1.1-.016.576-.064,1.008-.1v5.28c0,1.216.432,1.568,1.888,1.552h2.56c1.1.016,1.568-.416,1.68-1.5l.208-1.872-.72-.112L30.464-1.1c-.064.528-.288.72-.816.72H27.12c-.608-.032-.752-.16-.752-.64V-6.08l.432-.048a8.407,8.407,0,0,0,1.04-.128Zm11.744,4.96H45.76v-4.5H34.208V-.3h1.2V-1.392h3.856V-.144C39.3.624,39.68.88,40.848.912h5.008c.864,0,1.216-.3,1.344-1.168l.144-1.184L46.72-1.5l-.128.8c-.08.432-.256.56-.784.576H41.04c-.528-.032-.608-.08-.592-.48Zm0-3.856h4.08V-4h-4.08Zm0,1.888h4.08v1.328h-4.08ZM39.264-2.032H35.408V-3.36h3.856Zm0-1.968H35.408V-5.248h3.856Zm0-6.4v3.856h1.184V-10.4H45.76a15.071,15.071,0,0,1-.784,2.208L45.392-8a6.015,6.015,0,0,0,1.952-3.04h-6.9v-1.1h4.96l.64.128v-.9l-.64.128H34.784l-.624-.128v.9l.624-.128h4.48v1.1H34.512v-.048L34.5-11.5h-.544A4.387,4.387,0,0,1,32.64-8.816l.992,1.12a4.282,4.282,0,0,0,.88-2.7Zm-4.3,3.392h3.5v-.64h-3.5Zm0-1.7h3.5v-.64h-3.5Zm6.288,1.7h3.568v-.64H41.248Zm0-1.7H44.8v-.64H41.248Zm15.6,4.88H61.1l.64.128v-.9l-.64.128H56.848v-2.72h5.776l.64.128v-.9l-.64.128H56.848v-2.7h4.464l.64.128v-.9l-.64.128H56.848v-1.664c.208-.16.256-.208.256-.3,0-.16-.112-.224-.352-.224h-1.28v2.192h-4.8l-.624-.128v.9l.624-.128h4.8v2.7h-6.08l-.624-.128v.9l.624-.128h6.08V-.928a4.963,4.963,0,0,1-3.088-2.848c.1-.416.176-.8.32-1.68.24-.1.368-.208.368-.352,0-.112-.128-.208-.3-.224l-1.376-.16C51.1-2.608,50.4-.848,48.64.832l.288.352a6.458,6.458,0,0,0,3.3-4.3,9.28,9.28,0,0,0,.56,1.136A5.3,5.3,0,0,0,56.8.56a32.073,32.073,0,0,0,4.752.224h1.36A7.221,7.221,0,0,1,63.36-.64c-1.6.1-2.816.144-3.936.144a20.332,20.332,0,0,1-2.576-.128ZM76.88-7.2h1.84l.64.128v-.9l-.64.128H70.9l-.64-.128v.9L70.9-7.2h4.576V-.336c0,.512-.224.736-.72.736H73.008v.672h2.416c1.024,0,1.472-.416,1.456-1.392ZM67.008,1.184h1.328V-7.024c.352-.448.56-.7,1.088-1.408.416-.032.56-.112.56-.336,0-.1-.064-.176-.192-.256l-1.12-.736A25.083,25.083,0,0,1,64.64-4.368l.272.4a19.061,19.061,0,0,0,2.1-1.664Zm4.88-12.976H77.9l.64.128v-.928l-.64.128H71.888l-.64-.128v.928ZM65.1-9.344a14.366,14.366,0,0,0,4-2.72,1.133,1.133,0,0,0,.432-.048.252.252,0,0,0,.192-.224c0-.08-.048-.16-.176-.256l-1.12-.848a17.149,17.149,0,0,1-3.6,3.7Zm19.76,4.656h1.12l.64.128v-.9l-.64.128h-1.12v-2.48h1.52v-4.96h-4.96v4.96h2.288v6.9c-.144.016-.576.08-1.056.16v-5.28c.176-.144.224-.208.224-.3,0-.144-.112-.208-.352-.208H81.5V-.608H81.44c-.224.032-.368.048-.8.1l.3,1.136c.048.192.144.3.272.3s.24-.112.288-.352a32.334,32.334,0,0,0,5.28-1.568l-.064-.464c-.432.08-.88.176-1.344.256-.288.048-.352.064-.512.1Zm-2.24-3.76v-3.68h2.56v3.68ZM88.96-.368v-3.36h5.616V-9.072H88.96v-2.976h5.488l.64.128v-.9l-.64.128h-6.8V1.184H88.96V.272H94.7L95.36.4V-.5L94.7-.368Zm0-8.064h4.272v4.064H88.96Zm14.1,6.544V-.512c-.016.528-.192.7-.7.72h-1.136V.88h1.616c.944,0,1.36-.384,1.344-1.264V-5.232h-3.328c.08-.288.192-.688.272-1.088h2.624V-9.952c.208-.144.256-.208.256-.32,0-.144-.112-.208-.336-.208h-1.008v3.52H98.48V-9.968c.208-.16.256-.224.256-.32,0-.144-.128-.224-.336-.224H97.392V-6.32h2.624c-.032.288-.048.32-.176,1.088H97.12V.928h1.152v-5.52h1.44c-.208,1.04-.352,1.728-.432,2.08l-.064.016c-.336.016-.336.016-.768.032l.288.976c.032.144.128.24.224.24s.192-.1.272-.3a15.46,15.46,0,0,0,2.5-.72,9.867,9.867,0,0,1,.336.976Zm0-2.7v2.64a7.518,7.518,0,0,0-1.712-2.032l-.336.16c.288.56.4.8.528,1.1-.368.048-1.408.16-1.648.176.208-.48.592-1.5.768-2.048Zm6-2.512v-2.48h1.472l.64.128v-.9l-.64.128h-2.064a9.662,9.662,0,0,0,1.328-2.16c.256-.08.416-.208.416-.3a.332.332,0,0,0-.224-.24l-1.216-.384a20.606,20.606,0,0,1-.88,3.088h-1.872l.016-.048a16.239,16.239,0,0,0,.944-2.208c.288-.1.448-.224.448-.336,0-.08-.112-.192-.208-.224l-1.264-.4A25.474,25.474,0,0,1,103.9-7.824l.32.24a13.738,13.738,0,0,0,1.04-1.344V1.184h1.12V.32h4.336l.64.128v-.9l-.64.128h-1.664V-3.312h1.1l.64.128v-.9l-.64.128h-1.1V-6.464h1.1l.64.128v-.9l-.64.128Zm-1.1,0h-1.568v-2.48h1.568Zm0,.64v2.512h-1.568V-6.464Zm0,3.152V-.32h-1.568V-3.312Zm-9.1-6.752c.608.464.8.608,1.3,1.04a13.337,13.337,0,0,1-1.536,1.44l.24.336A9.653,9.653,0,0,0,100.72-8.5a10.257,10.257,0,0,1,1.088,1.12l.736-.752a9.7,9.7,0,0,0-1.216-.96l.032-.032c.24-.272.368-.432.416-.48.1-.112.128-.176.256-.32.272-.016.4-.1.4-.224a.217.217,0,0,0-.112-.176l-.88-.464a13.623,13.623,0,0,1-.832,1.216c-.448-.288-.8-.48-1.472-.832ZM101.3-11.84v-.976c.208-.144.256-.208.256-.32,0-.144-.112-.208-.336-.208H99.984v1.5h-2.7l-.64-.128v.9l.64-.128H103.9l.624.128v-.9l-.624.128Zm18.72,8.368a1.089,1.089,0,0,0-1.1,1.072,1.076,1.076,0,0,0,1.072,1.088A1.079,1.079,0,0,0,121.072-2.4,1.079,1.079,0,0,0,120.016-3.472Zm0-7.36a1.089,1.089,0,0,0-1.1,1.072A1.089,1.089,0,0,0,120-8.672a1.076,1.076,0,0,0,1.072-1.088A1.079,1.079,0,0,0,120.016-10.832Zm8.743,6.925,6.655-9.4H136.5v8.839h2.317v1.4H136.5V0h-1.671V-3.066h-6.07Zm6.07-.564v-6.675l-4.686,6.675Zm9.577-8.131a3.508,3.508,0,0,0-.943.128,3.632,3.632,0,0,0-.872.369,3.985,3.985,0,0,0-.759.579,3.977,3.977,0,0,0-.6.749l-.779-.441a5.054,5.054,0,0,1,1.774-1.728,4.485,4.485,0,0,1,2.225-.579,5.441,5.441,0,0,1,1.538.226,4.427,4.427,0,0,1,1.389.682,3.507,3.507,0,0,1,1,1.159,3.4,3.4,0,0,1,.385,1.656,3.521,3.521,0,0,1-.333,1.538,6.679,6.679,0,0,1-.872,1.354,15.533,15.533,0,0,1-1.236,1.328q-.7.672-1.415,1.471l-2.276,2.471h6.286V0h-8.193V-.7l3.8-4.317q.472-.543.907-1.138a10.8,10.8,0,0,0,.769-1.2,7.348,7.348,0,0,0,.533-1.215,3.718,3.718,0,0,0,.2-1.169,3.519,3.519,0,0,0-.179-1.148,2.656,2.656,0,0,0-.513-.9,2.378,2.378,0,0,0-.8-.595A2.454,2.454,0,0,0,144.406-12.6Zm7.291,1.743,3.671-2.451h.379V-.738H157.7V0h-5.537V-.738h1.928V-11.443L152.138-10.2Zm8-1.059v-.5l2.646-.185v7.928h.281l2.988-2.9H164.39v-.545h3.472v.545h-1.345l-2.628,2.61,3.744,4.43h1.081V0h-3.981V-.536H165.8l-2.883-3.533h-.571V-.536h1.116V0h-3.621V-.536h1.151V-11.918ZM171.605-.536h.958V0h-3.5V-.536h1.187v-7.04H169.1V-8.1l2.47-.141.035.861a2.161,2.161,0,0,1,.835-.7,2.787,2.787,0,0,1,1.222-.246,3.25,3.25,0,0,1,.813.092,2.25,2.25,0,0,1,.62.255,1.842,1.842,0,0,1,.448.382,2.27,2.27,0,0,1,.308.475,2.312,2.312,0,0,1,.439-.536,2.465,2.465,0,0,1,.558-.378,2.678,2.678,0,0,1,.642-.22,3.382,3.382,0,0,1,.69-.07,2.838,2.838,0,0,1,1.248.237,1.954,1.954,0,0,1,.756.624,2.319,2.319,0,0,1,.374.9,5.365,5.365,0,0,1,.1,1.046V-.536h1.169V0h-3.454V-.536h.923V-5.528a3.3,3.3,0,0,0-.325-1.657,1.1,1.1,0,0,0-1.011-.541,2.156,2.156,0,0,0-.571.088,1.667,1.667,0,0,0-.593.308,1.731,1.731,0,0,0-.466.6,2.189,2.189,0,0,0-.189.971V-.536h1.028V0h-3.4V-.536H174.8V-5.528q0-2.2-1.354-2.2a1.868,1.868,0,0,0-.541.1,1.788,1.788,0,0,0-.6.334,1.972,1.972,0,0,0-.492.624,2.073,2.073,0,0,0-.2.967Zm13.072-10.18.241,1.953h-.7l.231-1.953-1.559,1.189-.343-.62,1.794-.754-1.794-.769.359-.61,1.543,1.179-.231-1.922h.7l-.241,1.922,1.553-1.169.354.6L184.8-10.9l1.784.754-.343.61Zm3.117-.713,1.835-1.225h.19v6.285h.974V-6h-2.768v-.369h.964v-5.352l-.974.62Z" transform="translate(950.36 20)" fill="#fff"/>
      </g>
      <path id="パス_133" data-name="パス 133" d="M25.453-22.395V-1.3h2.813V0H19.582V-1.3h2.813V-19.863L14.836-.035H13.219L13.184,0,5.326-20.021V-1.3H8.1V0H.9V-1.3H3.779V-22.395H.9V-23.73H6.979L14.7-3.99l7.523-19.74h6.047v1.336Zm14.906-.035H36.791V-1.3H40.5V0H30.059V-1.3h3.709V-22.43H30.2v-1.3h10.16Zm23.221-1.3v1.336H60.557V0h-1.67L46.723-19.986V-1.3h3.059V0H42.293V-1.3h2.883V-22.395H42.293V-23.73h5.871L58.957-6.047V-22.395h-2.9V-23.73Zm12.094,1.3H72.105V-1.3h3.709V0H65.373V-1.3h3.709V-22.43H65.514v-1.3h10.16Zm10.652,0v-1.3h10.3v1.3H92.953V2.162A7.187,7.187,0,0,1,92.487,4.9a5.331,5.331,0,0,1-1.23,1.863,4.819,4.819,0,0,1-1.731,1.072,5.852,5.852,0,0,1-1.969.343,6.812,6.812,0,0,1-2.443-.422A6.16,6.16,0,0,1,83.3,6.732l.932-.932a5.183,5.183,0,0,0,1.345.835,4.948,4.948,0,0,0,1.978.343A1.926,1.926,0,0,0,88.6,6.7a2.283,2.283,0,0,0,.747-.782A3.788,3.788,0,0,0,89.789,4.7a8.138,8.138,0,0,0,.141-1.573V-22.43Zm29.813,12.2a25.579,25.579,0,0,0-.185-3.05,20.951,20.951,0,0,0-.562-2.944,15.986,15.986,0,0,0-.949-2.628,8.989,8.989,0,0,0-1.354-2.118,6.046,6.046,0,0,0-1.784-1.415,4.784,4.784,0,0,0-2.232-.519,6.651,6.651,0,0,0-3.287.747,5.893,5.893,0,0,0-2.145,2.03,8.941,8.941,0,0,0-1.16,2.971,17.558,17.558,0,0,0-.352,3.586,23.985,23.985,0,0,0,.158,3.023,21.568,21.568,0,0,0,.545,2.953,16.135,16.135,0,0,0,.94,2.672,9.536,9.536,0,0,0,1.345,2.171,6,6,0,0,0,1.775,1.459,4.62,4.62,0,0,0,2.215.536,6.807,6.807,0,0,0,3.313-.738,5.943,5.943,0,0,0,2.171-2.021,8.844,8.844,0,0,0,1.187-3.015A18.142,18.142,0,0,0,116.139-10.23Zm-7.031-13.816a10.98,10.98,0,0,1,3.349.475,9.126,9.126,0,0,1,2.619,1.3,8.727,8.727,0,0,1,1.942,1.942,11.356,11.356,0,0,1,1.327,2.391,12.782,12.782,0,0,1,.756,2.646,15.951,15.951,0,0,1,.237,2.725,18.366,18.366,0,0,1-.246,2.953,16.57,16.57,0,0,1-.765,2.953,13.665,13.665,0,0,1-1.336,2.725,9.991,9.991,0,0,1-1.951,2.25,8.828,8.828,0,0,1-2.61,1.529A9.275,9.275,0,0,1,109.107.4a11.068,11.068,0,0,1-3.41-.483A9.009,9.009,0,0,1,103.078-1.4a8.562,8.562,0,0,1-1.916-1.96,11.053,11.053,0,0,1-1.283-2.408,13.638,13.638,0,0,1-.721-2.663,16.707,16.707,0,0,1-.229-2.733,19.2,19.2,0,0,1,.237-2.962,16.753,16.753,0,0,1,.738-2.953,13.172,13.172,0,0,1,1.3-2.7,9.46,9.46,0,0,1,1.934-2.215,8.864,8.864,0,0,1,2.619-1.5A9.534,9.534,0,0,1,109.107-24.047Zm32.221,1.617V-1.3h2.6V0h-8.068V-1.3h2.408V-11.848h-11V-1.3h2.443V0h-8.068V-1.3h2.6V-22.43h-2.6v-1.3h8.068v1.3h-2.443v9.176h11V-22.43h-2.408v-1.3h8.068v1.3Zm25.682-1.3v1.336h-3.023V0h-1.67L150.152-19.986V-1.3h3.059V0h-7.488V-1.3h2.883V-22.395h-2.883V-23.73h5.871L162.387-6.047V-22.395h-2.9V-23.73Zm26.49,6.416a7.755,7.755,0,0,0-.677-2.61,5.663,5.663,0,0,0-1.239-1.723,4.553,4.553,0,0,0-1.573-.958,5.1,5.1,0,0,0-1.7-.3,6.691,6.691,0,0,0-3.3.747,5.965,5.965,0,0,0-2.153,2.03,8.827,8.827,0,0,0-1.169,2.971,17.558,17.558,0,0,0-.352,3.586,24.782,24.782,0,0,0,.185,3.006,20.488,20.488,0,0,0,.563,2.9,15.372,15.372,0,0,0,.958,2.6,8.934,8.934,0,0,0,1.38,2.109,6.021,6.021,0,0,0,1.828,1.406,5.094,5.094,0,0,0,2.294.51,5.9,5.9,0,0,0,1.951-.343,6.028,6.028,0,0,0,1.828-1.028,6.981,6.981,0,0,0,1.485-1.7,7.046,7.046,0,0,0,.923-2.347H196.1a8.818,8.818,0,0,1-.958,2.716,8.285,8.285,0,0,1-1.723,2.18,7.731,7.731,0,0,1-2.338,1.441A7.451,7.451,0,0,1,188.314.4a11.068,11.068,0,0,1-3.41-.483A9.009,9.009,0,0,1,182.285-1.4a8.562,8.562,0,0,1-1.916-1.96,11.053,11.053,0,0,1-1.283-2.408,13.638,13.638,0,0,1-.721-2.663,16.707,16.707,0,0,1-.229-2.733,19.03,19.03,0,0,1,.237-2.953,16.788,16.788,0,0,1,.738-2.944,13.391,13.391,0,0,1,1.3-2.707,9.387,9.387,0,0,1,1.934-2.224,8.864,8.864,0,0,1,2.619-1.5,9.534,9.534,0,0,1,3.349-.554,11.7,11.7,0,0,1,2.5.246,10.675,10.675,0,0,1,2.039.65,8.792,8.792,0,0,1,1.626.923,8.6,8.6,0,0,1,1.222,1.063v3.85Zm22.043,7.084a25.579,25.579,0,0,0-.185-3.05,20.951,20.951,0,0,0-.562-2.944,15.986,15.986,0,0,0-.949-2.628,8.989,8.989,0,0,0-1.354-2.118,6.046,6.046,0,0,0-1.784-1.415,4.784,4.784,0,0,0-2.232-.519,6.651,6.651,0,0,0-3.287.747,5.893,5.893,0,0,0-2.145,2.03,8.941,8.941,0,0,0-1.16,2.971,17.558,17.558,0,0,0-.352,3.586,23.985,23.985,0,0,0,.158,3.023,21.568,21.568,0,0,0,.545,2.953,16.135,16.135,0,0,0,.94,2.672,9.536,9.536,0,0,0,1.345,2.171A6,6,0,0,0,206.3-1.292a4.62,4.62,0,0,0,2.215.536,6.807,6.807,0,0,0,3.313-.738A5.943,5.943,0,0,0,214-3.516a8.844,8.844,0,0,0,1.187-3.015A18.142,18.142,0,0,0,215.543-10.23Zm-7.031-13.816a10.98,10.98,0,0,1,3.349.475,9.126,9.126,0,0,1,2.619,1.3,8.727,8.727,0,0,1,1.942,1.942,11.356,11.356,0,0,1,1.327,2.391,12.782,12.782,0,0,1,.756,2.646,15.951,15.951,0,0,1,.237,2.725,18.366,18.366,0,0,1-.246,2.953,16.57,16.57,0,0,1-.765,2.953A13.665,13.665,0,0,1,216.4-3.937a9.991,9.991,0,0,1-1.951,2.25,8.828,8.828,0,0,1-2.61,1.529A9.275,9.275,0,0,1,208.512.4a11.068,11.068,0,0,1-3.41-.483A9.009,9.009,0,0,1,202.482-1.4a8.562,8.562,0,0,1-1.916-1.96,11.053,11.053,0,0,1-1.283-2.408,13.638,13.638,0,0,1-.721-2.663,16.707,16.707,0,0,1-.229-2.733,19.2,19.2,0,0,1,.237-2.962,16.753,16.753,0,0,1,.738-2.953,13.172,13.172,0,0,1,1.3-2.7,9.46,9.46,0,0,1,1.934-2.215,8.864,8.864,0,0,1,2.619-1.5A9.534,9.534,0,0,1,208.512-24.047ZM238.764-10.23a25.579,25.579,0,0,0-.185-3.05,20.951,20.951,0,0,0-.562-2.944,15.986,15.986,0,0,0-.949-2.628,8.989,8.989,0,0,0-1.354-2.118,6.046,6.046,0,0,0-1.784-1.415A4.784,4.784,0,0,0,231.7-22.9a6.651,6.651,0,0,0-3.287.747,5.893,5.893,0,0,0-2.145,2.03,8.941,8.941,0,0,0-1.16,2.971,17.558,17.558,0,0,0-.352,3.586,23.985,23.985,0,0,0,.158,3.023,21.568,21.568,0,0,0,.545,2.953,16.135,16.135,0,0,0,.94,2.672,9.536,9.536,0,0,0,1.345,2.171,6,6,0,0,0,1.775,1.459,4.62,4.62,0,0,0,2.215.536,6.807,6.807,0,0,0,3.313-.738,5.943,5.943,0,0,0,2.171-2.021A8.844,8.844,0,0,0,238.4-6.53,18.142,18.142,0,0,0,238.764-10.23Zm-7.031-13.816a10.98,10.98,0,0,1,3.349.475,9.126,9.126,0,0,1,2.619,1.3,8.727,8.727,0,0,1,1.942,1.942,11.356,11.356,0,0,1,1.327,2.391,12.782,12.782,0,0,1,.756,2.646,15.951,15.951,0,0,1,.237,2.725,18.366,18.366,0,0,1-.246,2.953,16.57,16.57,0,0,1-.765,2.953,13.665,13.665,0,0,1-1.336,2.725,9.991,9.991,0,0,1-1.951,2.25,8.828,8.828,0,0,1-2.61,1.529A9.275,9.275,0,0,1,231.732.4a11.068,11.068,0,0,1-3.41-.483A9.009,9.009,0,0,1,225.7-1.4a8.562,8.562,0,0,1-1.916-1.96A11.053,11.053,0,0,1,222.5-5.766a13.638,13.638,0,0,1-.721-2.663,16.707,16.707,0,0,1-.229-2.733,19.2,19.2,0,0,1,.237-2.962,16.753,16.753,0,0,1,.738-2.953,13.172,13.172,0,0,1,1.3-2.7,9.46,9.46,0,0,1,1.934-2.215,8.864,8.864,0,0,1,2.619-1.5A9.534,9.534,0,0,1,231.732-24.047Zm23.01.316a9.067,9.067,0,0,1,3.182.5,6.066,6.066,0,0,1,2.2,1.362,5.424,5.424,0,0,1,1.274,1.986,6.881,6.881,0,0,1,.413,2.391,6.489,6.489,0,0,1-.483,2.5,5.952,5.952,0,0,1-1.389,2.039,6.594,6.594,0,0,1-2.224,1.38,8.184,8.184,0,0,1-2.971.51h-4.57V-1.3h2.883V0h-8.789V-1.3h2.883V-22.43h-2.883v-1.3Zm-4.57,11.3h4.148a3.62,3.62,0,0,0,1.626-.369,4,4,0,0,0,1.3-1.028,4.779,4.779,0,0,0,.861-1.582,6.33,6.33,0,0,0,.308-2.013,6.808,6.808,0,0,0-.29-2.048,4.719,4.719,0,0,0-.826-1.582,3.7,3.7,0,0,0-1.292-1.02,3.872,3.872,0,0,0-1.687-.36h-4.148Zm17.385-10h-3.164v-1.3h17.754v6.346h-1.3l-1.934-5.045H270.58v9.105h5.8v-2.584h1.652v6.627h-1.652v-2.6h-5.8V-1.3h8.648l1.916-5.027h1.283V0H264.393V-1.3h3.164Zm25.611,11.373h-2.742V-1.3h2.848V0H284.52V-1.3h2.848V-22.43H284.52v-1.3h10.441a9.124,9.124,0,0,1,3.2.5,6.066,6.066,0,0,1,2.2,1.362,5.328,5.328,0,0,1,1.266,1.986,7.015,7.015,0,0,1,.4,2.391,6.715,6.715,0,0,1-.387,2.312,5.8,5.8,0,0,1-1.1,1.872,5.838,5.838,0,0,1-1.74,1.336,7.807,7.807,0,0,1-2.294.738L302.994-1.3h2.777V0h-5.625Zm-2.742-1.371h4.148a3.581,3.581,0,0,0,1.608-.369,4,4,0,0,0,1.3-1.028,4.9,4.9,0,0,0,.87-1.582,6.169,6.169,0,0,0,.316-2.013,6.623,6.623,0,0,0-.3-2.048,4.842,4.842,0,0,0-.835-1.582,3.7,3.7,0,0,0-1.292-1.02,3.83,3.83,0,0,0-1.67-.36h-4.148Zm51.8-11.3h7.488v1.3h-2.953L340.066,0h-1.652l-6.082-18.4L326.83,0h-1.67l-7.014-22.43h-2.883v-1.3H324.6v1.3h-3.217l5.414,17.49,5.5-18.633h1.512l6.258,18.633,5.15-17.49h-2.988Zm26.613,13.5a25.579,25.579,0,0,0-.185-3.05,20.951,20.951,0,0,0-.562-2.944,15.986,15.986,0,0,0-.949-2.628,8.989,8.989,0,0,0-1.354-2.118,6.046,6.046,0,0,0-1.784-1.415,4.784,4.784,0,0,0-2.232-.519,6.651,6.651,0,0,0-3.287.747,5.893,5.893,0,0,0-2.145,2.03,8.941,8.941,0,0,0-1.16,2.971,17.558,17.558,0,0,0-.352,3.586,23.985,23.985,0,0,0,.158,3.023,21.568,21.568,0,0,0,.545,2.953,16.135,16.135,0,0,0,.94,2.672,9.536,9.536,0,0,0,1.345,2.171A6,6,0,0,0,359.6-1.292a4.62,4.62,0,0,0,2.215.536,6.807,6.807,0,0,0,3.313-.738,5.943,5.943,0,0,0,2.171-2.021,8.844,8.844,0,0,0,1.187-3.015A18.142,18.142,0,0,0,368.842-10.23Zm-7.031-13.816a10.98,10.98,0,0,1,3.349.475,9.126,9.126,0,0,1,2.619,1.3,8.727,8.727,0,0,1,1.942,1.942,11.356,11.356,0,0,1,1.327,2.391,12.782,12.782,0,0,1,.756,2.646,15.951,15.951,0,0,1,.237,2.725,18.366,18.366,0,0,1-.246,2.953,16.57,16.57,0,0,1-.765,2.953,13.665,13.665,0,0,1-1.336,2.725,9.991,9.991,0,0,1-1.951,2.25,8.828,8.828,0,0,1-2.61,1.529A9.275,9.275,0,0,1,361.811.4a11.068,11.068,0,0,1-3.41-.483A9.009,9.009,0,0,1,355.781-1.4a8.562,8.562,0,0,1-1.916-1.96,11.053,11.053,0,0,1-1.283-2.408,13.638,13.638,0,0,1-.721-2.663,16.707,16.707,0,0,1-.229-2.733,19.2,19.2,0,0,1,.237-2.962,16.753,16.753,0,0,1,.738-2.953,13.172,13.172,0,0,1,1.3-2.7,9.46,9.46,0,0,1,1.934-2.215,8.864,8.864,0,0,1,2.619-1.5A9.534,9.534,0,0,1,361.811-24.047Zm21.182,12.99H380.25V-1.3H383.1V0h-8.754V-1.3h2.848V-22.43h-2.848v-1.3h10.441a9.124,9.124,0,0,1,3.2.5,6.066,6.066,0,0,1,2.2,1.362,5.328,5.328,0,0,1,1.266,1.986,7.015,7.015,0,0,1,.4,2.391,6.715,6.715,0,0,1-.387,2.312,5.8,5.8,0,0,1-1.1,1.872,5.838,5.838,0,0,1-1.74,1.336,7.807,7.807,0,0,1-2.294.738L392.818-1.3H395.6V0h-5.625Zm-2.742-1.371H384.4a3.581,3.581,0,0,0,1.608-.369,4,4,0,0,0,1.3-1.028,4.9,4.9,0,0,0,.87-1.582,6.169,6.169,0,0,0,.316-2.013,6.623,6.623,0,0,0-.3-2.048,4.842,4.842,0,0,0-.835-1.582,3.7,3.7,0,0,0-1.292-1.02,3.83,3.83,0,0,0-1.67-.36H380.25ZM419.449-1.3V0H409.9V-1.3h2.707l-9.07-10.336h-.9V-1.3h2.848V0h-8.543V-1.3h2.637V-22.43h-2.637v-1.3h8.543v1.3h-2.848V-13.1h.545l9.668-9.334H410.2v-1.3h7.77v1.3h-3.023l-9.035,8.824L416.795-1.3Zm3.393-5.115a10.594,10.594,0,0,0,.6,2.646,5.219,5.219,0,0,0,1.055,1.74,3.715,3.715,0,0,0,1.45.949,5.411,5.411,0,0,0,1.819.29,5.707,5.707,0,0,0,1.96-.316A4.138,4.138,0,0,0,431.191-2a3.808,3.808,0,0,0,.914-1.371,4.813,4.813,0,0,0,.316-1.784,3.814,3.814,0,0,0-.475-1.934,4.781,4.781,0,0,0-1.371-1.477q-.352-.246-.932-.633t-1.283-.835q-.7-.448-1.45-.932t-1.406-.905q-.659-.422-1.178-.747t-.765-.483a9.661,9.661,0,0,1-1.1-.853,4.981,4.981,0,0,1-.905-1.09,5.646,5.646,0,0,1-.615-1.415,6.606,6.606,0,0,1-.229-1.828,5.257,5.257,0,0,1,.5-2.285,5.372,5.372,0,0,1,1.424-1.828,6.788,6.788,0,0,1,2.241-1.213,9.306,9.306,0,0,1,2.953-.439,12.76,12.76,0,0,1,2.083.167,11.616,11.616,0,0,1,1.881.466,8.178,8.178,0,0,1,1.582.729,5.7,5.7,0,0,1,1.222.976v4.359h-2.18a12.065,12.065,0,0,0-.527-2.725,4.809,4.809,0,0,0-.949-1.705,3.068,3.068,0,0,0-1.38-.879,6.118,6.118,0,0,0-1.8-.246,5.041,5.041,0,0,0-1.969.343,3.721,3.721,0,0,0-1.327.914,3.429,3.429,0,0,0-.747,1.318,5.229,5.229,0,0,0-.229,1.538,3.8,3.8,0,0,0,.4,1.688,3.177,3.177,0,0,0,1.248,1.336q.211.141.756.483t1.248.8q.7.457,1.494.958t1.494.958l1.248.809q.545.352.773.492a7.12,7.12,0,0,1,2.382,2.294,5.88,5.88,0,0,1,.782,3.1A5.884,5.884,0,0,1,434.8-3.41a5.737,5.737,0,0,1-1.494,1.986,7.263,7.263,0,0,1-2.382,1.336A9.538,9.538,0,0,1,427.764.4a13.281,13.281,0,0,1-2.4-.2,11.087,11.087,0,0,1-1.986-.545,7.876,7.876,0,0,1-1.556-.791,5.482,5.482,0,0,1-1.107-.958V-6.416ZM449.684-22.43H446.52v-1.3h17.754v6.346h-1.3l-1.934-5.045h-8.332v9.105h5.8v-2.584h1.652v6.627h-1.652v-2.6h-5.8V-1.3h8.648l1.916-5.027h1.283V0H446.52V-1.3h3.164ZM467.367-1.652a2.169,2.169,0,0,1,.167-.853,2.13,2.13,0,0,1,.457-.686,2.13,2.13,0,0,1,.686-.457,2.169,2.169,0,0,1,.853-.167,2.169,2.169,0,0,1,.853.167,2.13,2.13,0,0,1,.686.457,2.13,2.13,0,0,1,.457.686,2.169,2.169,0,0,1,.167.853,2.169,2.169,0,0,1-.167.853,2.13,2.13,0,0,1-.457.686,2.13,2.13,0,0,1-.686.457,2.169,2.169,0,0,1-.853.167,2.169,2.169,0,0,1-.853-.167,2.13,2.13,0,0,1-.686-.457,2.13,2.13,0,0,1-.457-.686A2.169,2.169,0,0,1,467.367-1.652Z" transform="translate(930 4141.522)"/>
    </g>
  </g>
</svg>
