<svg xmlns="http://www.w3.org/2000/svg" width="670" height="112.376" viewBox="0 0 670 112.376">
  <g id="sec06-tit05" transform="translate(-832 -3816)">
    <path id="パス_139" data-name="パス 139" d="M.528-.576h1.28V-9.792H.528v-.576H3.264l3.52,8.016,3.392-8.016h2.672v.576h-1.28V-.576h1.28V0H8.928V-.576h1.28v-8.08L6.784-.592H6.048L2.5-8.72V-.576H3.728V0H.528Zm18.7,0V0h-4.5V-.576H16.3V-9.792H14.8v-.576h4.368v.576h-1.5V-.576Zm1.888,0H22.4V-9.792H21.12v-.576h2.608l4.816,7.776v-7.2h-1.28v-.576h3.248v.576h-1.28V0H28.5L23.088-8.816v8.24h1.28V0H21.12Zm15.616,0V0h-4.5V-.576h1.568V-9.792H32.3v-.576h4.368v.576h-1.5V-.576ZM50.288-.5V0h-2.08L46.4-2.992,44.832-.5h.976V0h-2.72V-.5h1.04L46.064-3.52,44.112-6.752h-.944v-.48h2.048l1.648,2.7,1.392-2.224h-.88v-.48h2.48v.48h-.9L47.184-4,49.328-.5Zm10.976-9.872a3.279,3.279,0,0,1,2.352.752A2.583,2.583,0,0,1,64.4-7.664a2.789,2.789,0,0,1-.376,1.44,2.675,2.675,0,0,1-1.088,1.016,3.531,3.531,0,0,1-1.672.376H59.248V-.576h1.28V0h-3.92V-.576h1.28V-9.792h-1.28v-.576ZM61.072-5.44a1.636,1.636,0,0,0,1.3-.616,2.359,2.359,0,0,0,.52-1.576,2.355,2.355,0,0,0-.5-1.576,1.654,1.654,0,0,0-1.328-.584H59.248V-5.44ZM72.416-.384a1.661,1.661,0,0,1-.536.4,1.6,1.6,0,0,1-.712.16,1.216,1.216,0,0,1-.7-.208,1.129,1.129,0,0,1-.432-.56,3.025,3.025,0,0,1-.936.576A3.3,3.3,0,0,1,67.92.176a2.063,2.063,0,0,1-1.4-.464,1.513,1.513,0,0,1-.536-1.2q0-1.376,1.744-1.952L70-4.224v-.768a2.76,2.76,0,0,0-.3-1.48,1.116,1.116,0,0,0-1-.44,1.264,1.264,0,0,0-1.072.512,2.569,2.569,0,0,0-.416,1.472H66.4V-6.64a2.383,2.383,0,0,1,.976-.552,4.325,4.325,0,0,1,1.328-.2,2.744,2.744,0,0,1,1.88.576,2.151,2.151,0,0,1,.648,1.7V-.9a.382.382,0,0,0,.432.432.682.682,0,0,0,.528-.256ZM68.432-.432a1.737,1.737,0,0,0,.816-.192A2.562,2.562,0,0,0,70-1.28V-3.7L68.336-3.1a1.534,1.534,0,0,0-.76.544,1.524,1.524,0,0,0-.264.912,1.22,1.22,0,0,0,.328.864A1.044,1.044,0,0,0,68.432-.432ZM81.392-.48v.464L79.2.1l-.032-.8a2.535,2.535,0,0,1-2.032.88,2.53,2.53,0,0,1-1.776-.6A2.431,2.431,0,0,1,74.7-2.3V-6.752H73.7v-.48H75.92V-2.3a2.158,2.158,0,0,0,.408,1.472,1.336,1.336,0,0,0,1.032.448A2.043,2.043,0,0,0,78.608-.8a1.641,1.641,0,0,0,.56-1.408V-6.752H78.144v-.48h2.224V-.48Zm1.6,0h1.024v-9.968l-1.152-.016v-.464l2.368-.128V-.48h1.024V0H82.992Zm12.9.672a4.943,4.943,0,0,1-1.832-.32,2.9,2.9,0,0,1-1.192-.784V-2.8h.864a3.181,3.181,0,0,0,.72,1.912,2.006,2.006,0,0,0,1.472.552,2.105,2.105,0,0,0,1.528-.52,1.86,1.86,0,0,0,.536-1.4,1.789,1.789,0,0,0-.88-1.6L94.256-5.7A3.419,3.419,0,0,1,93.24-6.64a2.276,2.276,0,0,1-.36-1.312,2.361,2.361,0,0,1,.84-1.9,3.464,3.464,0,0,1,2.312-.712,4.66,4.66,0,0,1,1.64.272,3.072,3.072,0,0,1,1.192.768v1.936H98a3.417,3.417,0,0,0-.608-1.928,1.731,1.731,0,0,0-1.36-.536,1.869,1.869,0,0,0-1.464.512A1.788,1.788,0,0,0,94.112-8.3a1.523,1.523,0,0,0,.736,1.376l2.8,1.792A4.042,4.042,0,0,1,98.9-3.992a2.414,2.414,0,0,1,.376,1.336,2.73,2.73,0,0,1-.4,1.464A2.709,2.709,0,0,1,97.72-.176,4.172,4.172,0,0,1,95.888.192ZM112.56-.48V0H109.5V-.48h.816V-5.088a2.368,2.368,0,0,0-.3-1.336,1.051,1.051,0,0,0-.928-.44,1.468,1.468,0,0,0-1.144.512,1.876,1.876,0,0,0-.456,1.3V-.48h.912V0h-3.024V-.48h.912V-5.088a2.368,2.368,0,0,0-.3-1.336,1.051,1.051,0,0,0-.928-.44,1.485,1.485,0,0,0-1.16.512,1.876,1.876,0,0,0-.456,1.3V-.48h.848V0h-3.1V-.48h1.056V-6.752h-1.024v-.464l2.192-.128.032.752a2.263,2.263,0,0,1,1.92-.816,2.361,2.361,0,0,1,1.152.28,1.732,1.732,0,0,1,.752.776,2.032,2.032,0,0,1,.832-.784,2.618,2.618,0,0,1,1.216-.272q2.208,0,2.208,2.5V-.48Zm1.552,0h1.3V-6.752H114.24v-.464l2.368-.16v6.9h1.3V0h-3.792Zm.816-9.072a.971.971,0,0,1,.3-.712.971.971,0,0,1,.712-.3.971.971,0,0,1,.712.3.971.971,0,0,1,.3.712.971.971,0,0,1-.3.712.971.971,0,0,1-.712.3.971.971,0,0,1-.712-.3A.971.971,0,0,1,114.928-9.552Zm9.3,9.008a3.427,3.427,0,0,1-.88.552,2.413,2.413,0,0,1-.912.168,1.921,1.921,0,0,1-1.5-.568,2.37,2.37,0,0,1-.512-1.64v-4.72H119.6v-.384l1.648-1.712h.384v1.616h2.416v.48h-2.416v4.8a1.925,1.925,0,0,0,.28,1.128.948.948,0,0,0,.824.392,1.855,1.855,0,0,0,1.2-.48Zm9.024.064V0h-3.264V-.48h1.04V-4.912a2.391,2.391,0,0,0-.368-1.44,1.3,1.3,0,0,0-1.12-.5,1.727,1.727,0,0,0-1.264.488,1.685,1.685,0,0,0-.5,1.256V-.48H128.8V0h-3.248V-.48h1.024v-9.968h-1.152v-.464l2.352-.144v4.464a1.987,1.987,0,0,1,.848-.6,3.316,3.316,0,0,1,1.232-.216,2.357,2.357,0,0,1,1.768.632,2.568,2.568,0,0,1,.616,1.864V-.48Zm2.784.656a.926.926,0,0,1-.68-.28.926.926,0,0,1-.28-.68.926.926,0,0,1,.28-.68.926.926,0,0,1,.68-.28.926.926,0,0,1,.68.28.926.926,0,0,1,.28.68.926.926,0,0,1-.28.68A.926.926,0,0,1,136.032.176Zm15.36-3.44a9.3,9.3,0,0,0,6.592,4.448,6.917,6.917,0,0,1,.656-1.456c-3.264-.48-5.632-1.632-6.848-3.376h6.128l.624.128v-.9l-.624.128h-1.472V-8.256h-4.56V-9.408c.192-.144.24-.208.24-.3,0-.144-.112-.208-.336-.208h-1.184v1.664h-4.464v3.968h-1.472l-.64-.128v.9l.64-.128h5.456C149.632-1.712,147.1.1,143.936.768l.112.512c4.16-.608,6.544-2.1,7.328-4.592Zm-3.92-1.024V-7.616h3.12v.048a18.232,18.232,0,0,1-.3,3.28Zm4.144,0a24.457,24.457,0,0,0,.256-3.328h3.248v3.328Zm2.96-7.264v-1.28c.208-.144.256-.208.256-.32,0-.144-.112-.208-.336-.208h-1.2v1.808h-4.112v-1.28c.208-.144.256-.208.256-.32,0-.144-.112-.208-.336-.208h-1.2v1.808h-3.04l-.64-.128v.9l.64-.128h3.04V-9.2h1.28v-1.712H153.3V-9.2h1.28v-1.712h3.152l.64.128v-.9l-.64.128Zm14.064,1.9h2.9l.64.128v-.9l-.64.128h-6.944l-.624-.128v.9l.624-.128h2.784V-6.96h-2.224l-.64-.128v.9l.64-.128h2.224v3.5H164.16l-.64-.128v.9l.64-.128H172.1l.624.128v-.9l-.624.128H168.64v-3.5h2.224l.64.128v-.9l-.64.128H168.64Zm.8,4.16a8.252,8.252,0,0,1,1.248,2.16L171.9-4.16a7.022,7.022,0,0,0-2.064-1.584ZM162.768.3h10.72v.768h1.328v-13.84H161.44V1.184h1.328Zm0-.64V-12.128h10.72V-.336ZM185.536-2.16h1.312V-4.88c1.088-.336,2.144-.608,4.24-1.088a1.9,1.9,0,0,0,.48.08.287.287,0,0,0,.32-.288.706.706,0,0,0-.112-.3l-.576-.96-.672.3c-.752.224-1.3.384-1.536.464l-2.112.7-.048.016a2.358,2.358,0,0,0-.5-1.568,2.33,2.33,0,0,0-1.648-.608,5.237,5.237,0,0,0-2.8.816c.592-.88.96-1.456,1.776-2.864h.848c2.08-.016,3.12-.064,5.136-.24l.16-1.168-1.216.48c-1.952.144-2.336.16-4.464.192h-.064l.736-1.312c.432-.144.512-.208.512-.368,0-.128-.112-.224-.336-.3l-1.264-.432-.224.7c-.464.928-.656,1.328-.88,1.728-.9-.016-1.552-.032-2.88-.08l-.992-.4.08,1.1c1.632.064,2,.08,3.392.1A41.994,41.994,0,0,1,178.48-4.9l1.008.88,1.408-1.84a5.181,5.181,0,0,1,3.424-1.488.943.943,0,0,1,1.072.768,4.261,4.261,0,0,1,.144,1.12,17.57,17.57,0,0,0-2.048.912c-1.664.9-2.4,1.76-2.4,2.848A2,2,0,0,0,182.176.08a9.909,9.909,0,0,0,4.384.672A27.429,27.429,0,0,0,190.032.56V-.88a19.563,19.563,0,0,1-3.712.352,8.9,8.9,0,0,1-3.568-.512,1,1,0,0,1-.544-.88c0-.9.992-1.648,3.328-2.512Zm11.072,3.344h1.28V-9.52c.4-.88.736-1.76,1.136-2.9.256-.048.384-.16.384-.32a.317.317,0,0,0-.256-.288l-1.44-.416a33.069,33.069,0,0,1-3.28,8.672l.352.288a14.68,14.68,0,0,0,1.824-2.544ZM203.76-8.832c-.08-.608-.192-2.832-.192-3.808v-.144c.208-.16.256-.208.256-.32,0-.144-.112-.208-.336-.208H202.16v.56c0,1.376.08,2.992.192,4.048l-3.408.3-.464-.048.064.848.464-.144,3.408-.3a21.407,21.407,0,0,0,.464,2.72,11.024,11.024,0,0,0,2.752,5.3A4.162,4.162,0,0,0,207.7,1.184a1,1,0,0,0,.56-.24A1.9,1.9,0,0,0,208.72.1a16.274,16.274,0,0,0,.432-3.008l-.672-.128C208.272-.992,208.1-.3,207.792-.3c-.528,0-1.664-1.152-2.368-2.4a13.2,13.2,0,0,1-1.6-5.472l4.528-.416.48.064-.08-.864-.448.144Zm.9-3.472a10.967,10.967,0,0,1,1.7,2.384l1.328-1.072a7.96,7.96,0,0,0-2.672-1.664Zm12.688,6-.256.272a28.3,28.3,0,0,1-5.824,4.88l.192.432a18.2,18.2,0,0,0,4-2.256V-.448c-.784.112-1.264.192-2.128.3l.592,1.152c.112.208.192.288.32.288.176,0,.256-.08.32-.336A30.557,30.557,0,0,0,221.7-1.36,10.718,10.718,0,0,0,225.008.928a8.768,8.768,0,0,1,.96-1.2,13.5,13.5,0,0,1-4.1-2.576,18.882,18.882,0,0,0,2.368-1.568c.4-.032.592-.112.592-.32a.335.335,0,0,0-.112-.224l-1.248-.784a16.567,16.567,0,0,1-1.984,2.512,8.723,8.723,0,0,1-2.08-3.072h5.856l.64.128v-.9l-.64.128h-5.9v-1.92h4.08l.64.128v-.9l-.64.128h-4.08v-1.68H224.3l.64.128v-.9l-.64.128H219.36v-1.088c.192-.144.256-.208.256-.32,0-.144-.112-.208-.352-.208h-1.28v1.616h-4.928l-.624-.128v.9l.624-.128h4.928V-9.5h-4.16l-.624-.128v.9l.624-.128h4.16v1.92H212.16l-.624-.128v.9l.624-.128Zm-.576,2.288a25.531,25.531,0,0,0,2.112-2.1,10.442,10.442,0,0,0,2.4,4.3,40.255,40.255,0,0,1-4.512,1.12Zm20.9-7.024v-1.488c.24-.16.32-.256.32-.4s-.128-.256-.32-.272l-1.456-.112.128.992v1.312l-.528.016c-1.6.032-2.112.048-2.672.048-.7,0-3.264-.048-4-.064l-.88-.336.064,1.008c.832.08,2.72.128,4.72.128.72,0,1.232-.016,2.752-.048l.544-.016V-7.84a2.61,2.61,0,0,0-1.872-.752,3.116,3.116,0,0,0-3.136,3.2,2.687,2.687,0,0,0,.672,1.9,3.124,3.124,0,0,0,2.208.928,2.971,2.971,0,0,0,2.064-.816c-.384,2.24-1.92,3.6-4.592,4.032l.1.5a7.534,7.534,0,0,0,3.856-1.168c1.456-1.04,2.032-2.336,2.032-4.576V-10.3h.208a43.357,43.357,0,0,0,4.752-.272l.048-1.072-.944.384c-1.536.128-2.544.192-3.808.224Zm-1.328,6.624a2.214,2.214,0,0,1-1.808,1.04A1.9,1.9,0,0,1,232.7-5.488a2.1,2.1,0,0,1,1.984-2.288,1.984,1.984,0,0,1,1.648.88Zm19.744-7.1c.464-.08.656-.208.656-.432a.45.45,0,0,0-.288-.384l-1.088-.576-.464.448c-1.7.112-2.24.128-5.92.176l-.992-.368.128,1.136c2.928-.016,4.656-.064,6.24-.16l-8.32,7.008.784.944,2.064-1.728a10.129,10.129,0,0,1,4.48-1.12c2.192,0,3.52,1.024,3.52,2.72a3.077,3.077,0,0,1-1.024,2.288,3.556,3.556,0,0,1-1.424.848,5.219,5.219,0,0,0-1.184-1.792,3.935,3.935,0,0,0-2.736-1.216c-1.264,0-2.144.72-2.144,1.76,0,1.488,1.968,2.656,4.48,2.656,3.088,0,5.52-1.952,5.52-4.432,0-2.208-1.888-3.616-4.848-3.616a8.4,8.4,0,0,0-3.024.544ZM253.488-.464a2.54,2.54,0,0,1-.7.064,5.757,5.757,0,0,1-2.736-.64,1.138,1.138,0,0,1-.72-.992c0-.5.448-.832,1.136-.832a3.446,3.446,0,0,1,3.072,2.4Zm15.04-.784V0H262.24V-.56q2.032-2.208,2.968-3.336a10.142,10.142,0,0,0,1.344-1.976,4.047,4.047,0,0,0,.408-1.776,2.631,2.631,0,0,0-.52-1.768,1.688,1.688,0,0,0-1.336-.6,1.58,1.58,0,0,0-1.392.7,3.383,3.383,0,0,0-.544,1.728H262.3V-9.5a2.992,2.992,0,0,1,1.2-.768,4.564,4.564,0,0,1,1.616-.288,4.241,4.241,0,0,1,1.544.288,2.766,2.766,0,0,1,1.232.936,2.677,2.677,0,0,1,.488,1.656A2.958,2.958,0,0,1,268-6.232a9.21,9.21,0,0,1-1.272,1.664q-.888.968-3.208,3.32Zm2.832-8.416.4,1.28a.386.386,0,0,0,.32.3c.16,0,.272-.112.4-.4,1.1-.32,1.776-.5,3.248-.832a20.865,20.865,0,0,1,4.432-.656,3.582,3.582,0,0,1,1.936.432,3.178,3.178,0,0,1,1.392,2.864c0,2.352-1.472,4.1-4.128,4.928a25.02,25.02,0,0,1-3.968.816l.08.576a31.348,31.348,0,0,0,4.224-.5c3.36-.624,5.408-2.784,5.408-5.68a4.03,4.03,0,0,0-2.048-3.76,6.04,6.04,0,0,0-2.88-.56,37.74,37.74,0,0,0-7.712,1.088ZM295.344.288a9.231,9.231,0,0,0,4.4-1.6A5.661,5.661,0,0,0,302.048-6c0-3.52-2.608-5.84-6.592-5.84a7.348,7.348,0,0,0-4.8,1.584,6.551,6.551,0,0,0-2.352,5.1c0,2.4,1.1,4.144,2.608,4.144a2.787,2.787,0,0,0,2.016-1.1A9.811,9.811,0,0,0,294.7-5.2a26.041,26.041,0,0,0,1.36-5.808,4.312,4.312,0,0,1,2.464.816,4.9,4.9,0,0,1,1.968,4.08,5.581,5.581,0,0,1-2.736,4.848,9.354,9.354,0,0,1-2.544,1.056Zm-.688-11.328a30.111,30.111,0,0,1-.736,3.9c-.8,3.04-2.048,5.3-2.944,5.3-.752,0-1.36-1.424-1.36-3.248a6.286,6.286,0,0,1,1.552-4.192A5.062,5.062,0,0,1,294.656-11.04Zm24.864-.928a3.159,3.159,0,0,0-1.856-1.632l-.272.224a6.229,6.229,0,0,1,1.056,1.984ZM307.5.432c3.36-.72,5.408-1.776,7.136-3.7a13.556,13.556,0,0,0,3.1-7.664H306.752l-.7-.144v1.024l.7-.144H316a11.8,11.8,0,0,1-8.672,10.08ZM315.52-13.3a6.224,6.224,0,0,1,.9,2.048l1.1-.5a3.186,3.186,0,0,0-1.68-1.76Zm17.76,1.072h-8.864l-.7-.144v1.024l.7-.144h8.864l.7.144v-1.024Zm-10.1,3.7-.7-.144v1.024l.7-.144h9.984C332.5-3.92,329.536-1.1,324.88.048l.112.528c5.76-.608,9.472-4,9.984-9.1Zm29.168-1.488a15.882,15.882,0,0,1-4.08,5.184,15.05,15.05,0,0,1-7.344,3.248l-.848.016.576,1.424c.1.224.24.352.4.352.176,0,.3-.112.416-.368,3.616-.816,5.888-1.9,7.856-3.76A13.486,13.486,0,0,0,352.8-9.808ZM339.936-11.76a15.042,15.042,0,0,1,3.984,3.424l1.312-1.328a9.874,9.874,0,0,0-5.1-2.512Zm21.168-.432c.208-.112.32-.24.32-.384s-.128-.256-.32-.272l-1.6-.112.112.96V.768H361.1v-8.5a16.031,16.031,0,0,1,6.016,4.144l1.088-1.456A17.059,17.059,0,0,0,361.1-8.3Zm8.1.288a3.16,3.16,0,0,0-1.856-1.7l-.272.224a5.943,5.943,0,0,1,1.04,2.016Zm-3.984-1.264a6.568,6.568,0,0,1,.9,2.112l1.1-.5a3.283,3.283,0,0,0-1.7-1.824ZM379.5.288a9.231,9.231,0,0,0,4.4-1.6A5.661,5.661,0,0,0,386.208-6c0-3.52-2.608-5.84-6.592-5.84a7.348,7.348,0,0,0-4.8,1.584,6.551,6.551,0,0,0-2.352,5.1c0,2.4,1.1,4.144,2.608,4.144a2.787,2.787,0,0,0,2.016-1.1A9.811,9.811,0,0,0,378.864-5.2a26.041,26.041,0,0,0,1.36-5.808,4.312,4.312,0,0,1,2.464.816,4.9,4.9,0,0,1,1.968,4.08,5.581,5.581,0,0,1-2.736,4.848,9.354,9.354,0,0,1-2.544,1.056Zm-.688-11.328a30.111,30.111,0,0,1-.736,3.9c-.8,3.04-2.048,5.3-2.944,5.3-.752,0-1.36-1.424-1.36-3.248a6.286,6.286,0,0,1,1.552-4.192A5.062,5.062,0,0,1,378.816-11.04ZM393.568.128A9.62,9.62,0,0,0,389.1-2.928l-.3.384a14.281,14.281,0,0,1,3.456,3.824ZM419.7-6.4l.64.128v-.9l-.64.128h-9.072l-.64-.128v.9l.64-.128h2.816l-.064.272a39.486,39.486,0,0,1-1.568,4.976l-.1.24-.368.016-.368.016s-.544.016-1.024.016L410.4.512c.08.272.16.368.3.368.16,0,.272-.112.4-.4a54.267,54.267,0,0,0,6.96-1.248c.224.5.448.992.8,1.856L420.352.16A14.647,14.647,0,0,0,416.688-4.1l-.432.336A21.629,21.629,0,0,1,417.792-1.3c-1.6.16-3.9.3-5.088.352h-.288l.176-.272A29.052,29.052,0,0,0,415.184-6.4Zm-11.92,7.584h1.264V-9.552c.368-.864.672-1.68,1.1-2.9.24-.048.368-.16.368-.32a.288.288,0,0,0-.256-.272l-1.392-.4a33.168,33.168,0,0,1-3.232,8.672l.352.272a13.918,13.918,0,0,0,1.792-2.5Zm4.048-12.656h6.7l.64.128v-.928l-.64.128h-6.7l-.64-.128v.928ZM433.1-.128c.032.656.416.96,1.216.96h1.488c.816,0,1.184-.32,1.232-1.12l.144-1.9-.656-.08L436.416-.8c-.048.4-.16.5-.544.512H434.72c-.352-.016-.432-.1-.448-.432V-6.256c.384-.08.576-.112.672-.128l.256-.064.272-.048c.272.576.384.832.64,1.488l1.072-.928a10.481,10.481,0,0,0-2.784-3.28l-.368.336c.56.832.768,1.184,1.152,1.84l.016.048-.208.016c-1.232.048-1.936.064-3.456.1l-.752.016a15.023,15.023,0,0,0,1.84-3.408h3.824l.64.128v-.9l-.64.128h-3.312v-1.872c.208-.144.256-.208.256-.32,0-.144-.112-.208-.352-.208h-1.184v2.4h-2.784l-.64-.128v.9l.64-.128h2.16a21.707,21.707,0,0,1-1.1,3.424c-.464.016-.7.016-1.584.032l.368,1.184c.064.192.176.3.3.3.112,0,.224-.112.336-.352.544-.048.752-.064.992-.08v.048c-.112,3.728-1.04,5.552-3.36,6.56l.224.432c3.008-.816,4.256-2.88,4.32-7.168.752-.1,1.088-.144,1.376-.192ZM424.88,1.184h1.168V-5.9c.64-.128.672-.144,1.008-.208l.192-.048a7.95,7.95,0,0,1,.224,1.088l1.088-.544A5.743,5.743,0,0,0,426.9-8.144l-.32.224a9.743,9.743,0,0,1,.528,1.248c-.544.048-1.76.112-2.5.144a38.646,38.646,0,0,0,3.136-3.76c.336-.032.464-.128.464-.32a.241.241,0,0,0-.144-.224l-1.1-.64a36.726,36.726,0,0,1-3.088,4.96l-.048.016h-.416l-.944.016.336,1.1a.291.291,0,0,0,.224.208c.112,0,.208-.08.352-.3.576-.08.848-.112,1.5-.224ZM422.512-10.64A13.5,13.5,0,0,1,424.48-8l.784-1.152a4.747,4.747,0,0,0-1.072-.96,16.639,16.639,0,0,0,1.7-2.144c.368-.1.5-.192.5-.352a.325.325,0,0,0-.176-.272l-1.3-.56a19.454,19.454,0,0,1-1.184,3.008,5.671,5.671,0,0,0-1.008-.56Zm4.176,6.24a18.224,18.224,0,0,1,.752,3.5l1.2-.544A9.327,9.327,0,0,0,427.1-4.56Zm-3.568-.16a23.67,23.67,0,0,1-.656,4.288l.352.176a11.612,11.612,0,0,0,1.344-3.5c.272-.08.4-.192.4-.352,0-.128-.064-.192-.256-.24Zm22.592-7.872c.192-.16.256-.272.256-.4a.3.3,0,0,0-.3-.272H444.08l.272.96L445.36-7.28A14.437,14.437,0,0,0,443.376-6.1c-1.568,1.12-2.24,2.128-2.24,3.344a2.857,2.857,0,0,0,1.92,2.72A11.816,11.816,0,0,0,447.52.56a30.476,30.476,0,0,0,4.544-.272V-1.264a24.115,24.115,0,0,1-4.688.432c-3.616,0-5.152-.592-5.152-2.016,0-1.9,2.9-3.632,9.232-5.536a.887.887,0,0,0,.432.144.291.291,0,0,0,.272-.256.553.553,0,0,0-.048-.192l-.56-1.3-.56.416c-1.248.48-2.448.928-3.584,1.376-.32.128-.544.208-.784.32Zm15.568,6v4.144c0,1.36.224,1.824,1.024,2.1a17.182,17.182,0,0,0,4.208.3c1.072,0,1.872-.032,2.96-.1V-1.44a31.251,31.251,0,0,1-3.744.224,8.272,8.272,0,0,1-2.528-.24c-.32-.144-.4-.336-.4-.976v-4h6.88l.72.144V-7.312l-.72.144H462.8V-11.1h5.3l.7.144v-1.024l-.7.144h-9.84l-.7-.144v1.024l.7-.144h3.024v3.936h-4.016l-.72-.144v1.024l.72-.144ZM474.448.96a13.492,13.492,0,0,0,7.3-3.344,15.993,15.993,0,0,0,4.4-8.4h-6.56l.016-.048.288-.64c.016-.048.08-.208.176-.448.288-.128.4-.256.4-.432,0-.144-.112-.24-.352-.288l-1.472-.336-.128.784a15.759,15.759,0,0,1-4.4,6.88l.3.368A11.784,11.784,0,0,0,479.2-10l.032-.048h5.184a14.347,14.347,0,0,1-2.128,4.9,8.482,8.482,0,0,0-4.128-2l-.272.416a11.279,11.279,0,0,1,3.488,2.816A14.29,14.29,0,0,1,474.3.448Zm13.392-12.8a3.228,3.228,0,0,0-1.872-1.664l-.256.24a6.354,6.354,0,0,1,1.056,2Zm-4-1.328a6.892,6.892,0,0,1,.928,2.08l1.088-.512a3.145,3.145,0,0,0-1.728-1.776Zm20,3.152a15.882,15.882,0,0,1-4.08,5.184,15.05,15.05,0,0,1-7.344,3.248l-.848.016.576,1.424c.1.224.24.352.4.352.176,0,.3-.112.416-.368,3.616-.816,5.888-1.9,7.856-3.76a13.486,13.486,0,0,0,3.472-5.888ZM491.424-11.76a15.042,15.042,0,0,1,3.984,3.424l1.312-1.328a9.874,9.874,0,0,0-5.1-2.512Zm19.344.624c-1.36,0-1.92-.032-2.784-.08l-.864-.368.08,1.088c1.152.08,1.712.1,2.7.1h.624A35.354,35.354,0,0,1,506.9-2.544l1.216.784a42.505,42.505,0,0,0,3.856-8.688c1.216-.048,2.544-.16,3.872-.336l.048-1.136-.992.5c-1.136.128-1.792.192-2.672.24a1.9,1.9,0,0,1,.064-.224c.048-.144.192-.576.336-1.04.24-.16.288-.24.288-.352a.259.259,0,0,0-.224-.256l-1.408-.272-.128.816c-.08.32-.144.56-.176.672l-.192.656Zm10.208,9.488a9.77,9.77,0,0,0-3.9-2.128V-6.768c.256-.176.32-.24.32-.352,0-.16-.144-.256-.384-.256l-1.264-.016.048,1.184v2.176a8.623,8.623,0,0,0-1.408-.112c-2.08,0-3.328.9-3.328,2.4,0,1.52,1.488,2.624,3.536,2.624a2.432,2.432,0,0,0,2.256-.96,2.427,2.427,0,0,0,.224-1.2V-2.608a10.571,10.571,0,0,1,2.96,2.16Zm-5.184.3c0,.768-.448,1.136-1.392,1.136-1.472,0-2.56-.688-2.56-1.632a1.1,1.1,0,0,1,.288-.736,2.756,2.756,0,0,1,2-.592,5.877,5.877,0,0,1,1.664.224Zm5.376-7.9a7.93,7.93,0,0,0-3.136-.512,8.027,8.027,0,0,0-2.816.416l.032.448a11.931,11.931,0,0,1,5.024.96Zm16.16-1.712.64.128v-.9l-.64.128h-4.064c-.032-.32-.032-.544-.064-1.232.208-.144.272-.208.272-.32,0-.144-.112-.208-.352-.208H532c0,.88.016,1.328.048,1.76h-7.5v1.7c-.032,3.568-.272,5.056-1.088,6.528l.352.336c1.552-1.6,1.936-2.96,1.968-6.864V-10.96h6.336a12.54,12.54,0,0,0,1.456,5.136,12.329,12.329,0,0,1-2.16,2.112l.256.368a11.7,11.7,0,0,0,2.416-1.744,5.067,5.067,0,0,0,.848.816,4.03,4.03,0,0,0,1.984.88c.352,0,.656-.272.832-.752a8.94,8.94,0,0,0,.432-2.3l-.608-.1c-.176,1.376-.352,1.872-.672,1.872a2.9,2.9,0,0,1-1.424-.736A4.974,4.974,0,0,1,534.928-6,14.629,14.629,0,0,0,536.8-9.072c.32-.048.448-.128.448-.3a.254.254,0,0,0-.176-.24L535.9-10.1a12.782,12.782,0,0,1-1.552,3.2,11.383,11.383,0,0,1-1.04-4.064ZM526.5-4.32h4.832V-7.664H526.5Zm1.152-.64V-7.024h2.528V-4.96Zm3.408-4.656h-4.224l-.624-.128v.9l.624-.128h4.224l.64.128v-.9Zm3.776,6.688a18.682,18.682,0,0,1,1.84,3.6l1.408-.848a10.113,10.113,0,0,0-2.816-2.992ZM525.52-3.2a7.922,7.922,0,0,1-1.984,3.056l1.376.832a8.082,8.082,0,0,0,1.168-3.744Zm8.656-9.84a8.833,8.833,0,0,1,1.536,1.376l1.2-.8a4.978,4.978,0,0,0-2.464-.8Zm-6.72,9.568V-.448c.016.96.5,1.264,1.888,1.28h3.36c1.056.016,1.52-.416,1.584-1.488l.1-1.28L533.744-2l-.08.992c-.048.464-.24.64-.72.64h-3.232c-.7-.016-.976-.176-.976-.544V-2.944c.208-.16.256-.208.256-.32,0-.144-.112-.208-.336-.208Zm2.592.08a11.04,11.04,0,0,1,1.3,2.224l1.232-.944A7.737,7.737,0,0,0,530.4-3.68Zm19.7-5.616v3.872h-2.5l-.64-.128v.9l.64-.128h2.5V-.112h-4.16L544.96-.24v.9l.624-.128h8.688l.64.128v-.9l-.64.128h-3.184V-4.5h2.272l.64.128v-.9l-.64.128h-2.272V-9.008H553.9l.64.128v-.9l-.64.128h-2.816V-12.72c.208-.144.256-.208.256-.32,0-.144-.112-.208-.336-.208h-1.264v3.6h-2.176c.128-.5.208-.832.384-1.68.256-.064.384-.192.384-.368,0-.144-.112-.256-.32-.288l-1.328-.288a24.576,24.576,0,0,1-1.632,7.024l.384.272a13.319,13.319,0,0,0,1.952-4.032Zm-5.824-1.808a11.155,11.155,0,0,1,.928,2.512l.976-1.04a4.509,4.509,0,0,0-1.616-1.712Zm-2.752,5.168a7.715,7.715,0,0,0,.56-3.408c0-.512,0-.672-.064-2.032h-.544a12.5,12.5,0,0,1-.832,4.176Zm1.344-7.7V1.184h1.264v-14c.208-.16.256-.208.256-.32,0-.144-.112-.208-.336-.208Zm14.928,4.7.256.992c.064.192.144.288.272.288s.224-.08.32-.32a21.855,21.855,0,0,1,2.416-.576,29.731,29.731,0,0,1-3.184,8L558.7.432a28.138,28.138,0,0,0,3.424-8.912,16.418,16.418,0,0,1,2.08-.192,1.1,1.1,0,0,1,1.024.448,3.975,3.975,0,0,1,.224,1.7A17.732,17.732,0,0,1,564.7-1.5c-.352,1.024-.688,1.44-1.136,1.44a3.218,3.218,0,0,1-1.856-1.024l-.416.64a4.351,4.351,0,0,0,2.688,1.44c.848,0,1.408-.512,1.9-1.728a15.87,15.87,0,0,0,.912-5.488,4.6,4.6,0,0,0-.384-2.24c-.352-.64-1.136-.96-2.336-.96-.48,0-1.056.032-1.76.08.16-.688.272-1.328.528-2.752.24-.1.336-.192.336-.32s-.112-.24-.32-.288l-1.36-.3-.016.736c-.224,1.376-.368,2.224-.56,3.088-.992.128-1.984.3-3.04.512Zm14.56-3.3a3.126,3.126,0,0,0-1.872-1.664l-.272.224a6.663,6.663,0,0,1,1.088,2.016Zm-4.416,1.952c1.264,1.744,1.968,3.712,2.624,7.088l1.472-.624c-.608-3.072-2.08-5.712-3.76-6.72Zm.4-3.152a7.258,7.258,0,0,1,.992,2.192l1.056-.512a3.1,3.1,0,0,0-1.744-1.888Zm17.84,2.88V-12.7c.208-.144.256-.208.256-.32,0-.144-.112-.208-.352-.208H584.72v2.976h-2.16v7.072h1.056V-4.192h1.1V-.608h-.048l-1.488.192c-.112,0-.432.032-.912.08l.32,1.2c.064.192.16.3.272.3.128,0,.208-.112.272-.336a35.425,35.425,0,0,0,4.192-1.3c.048.3.064.576.176,1.632l1.168-.592a13.6,13.6,0,0,0-1.424-3.936l-.368.16c.176.88.272,1.488.384,2.224q-.576.1-.96.144c-.064.016-.256.032-.48.064V-4.192H588.1v-6.064Zm0,.592h1.168v4.88h-1.168Zm-1.1,4.88h-1.1v-4.88h1.1Zm-9.152,1.76c1.568-.448,2.1-1.152,2.16-2.9v-.048h.8V-4.32c.016.608.336.848,1.168.864H580.7v3.2c-.016.512-.176.672-.688.688h-.784V1.1h1.248c.928,0,1.344-.4,1.328-1.3V-6.608h-7.3V1.1h1.056Zm0-2.944h1.168c-.016,1.44-.288,2-1.168,2.464Zm5.136,1.68h-.864c-.3-.016-.368-.08-.368-.384v-1.3H580.7Zm-3.248,2.48V.7h1.024V-1.808H579.7l.608.128v-.9l-.608.128h-3.12l-.608-.128v.9l.608-.128Zm3.632-6.032v-3.088h-5.872V-7.84Zm-4.816-.64v-1.808h3.712V-8.48Zm-1.232-3.648h6.5l.64.128v-.9l-.64.128h-6.5l-.64-.128v.9Zm23.536-.576c.256-.1.368-.192.368-.352,0-.128-.112-.208-.3-.24l-1.328-.144a21.132,21.132,0,0,1-6.528,6.816l.208.416a16.73,16.73,0,0,0,7.216-5.968l.08.112a14.139,14.139,0,0,0,6.528,5.536,6.7,6.7,0,0,1,.688-1.456,16.064,16.064,0,0,1-6.976-4.64Zm4.8,13.808V-5.008H592.912V1.184h1.408V.192h7.648V1.1ZM594.32-.48V-4.336h7.648V-.48Zm.48-6.528h6.528l.64.128v-.928l-.64.128H594.8l-.64-.128v.928Zm15.36,3.28a2.507,2.507,0,0,0-2.544,2.48,2.51,2.51,0,0,0,2.512,2.528,2.513,2.513,0,0,0,2.5-2.512A2.525,2.525,0,0,0,610.16-3.728Zm-.064.736a1.769,1.769,0,0,1,1.792,1.744,1.772,1.772,0,0,1-1.76,1.792,1.782,1.782,0,0,1-1.776-1.776A1.783,1.783,0,0,1,610.1-2.992Z" transform="translate(831.472 3927.08)" fill="#94a04b"/>
    <path id="パス_138" data-name="パス 138" d="M6.5-2.4h4.75V-30H6.75l-2.5,6.7H1v-9.1H27.55v9.1H24.3L21.75-30H17.3V-2.4h4.75V0H6.5ZM58.55-30V-2.4h3.9V0H48.6V-2.4h3.9V-15.85H39.6V-2.4h3.9V0H29.65V-2.4h3.9V-30h-3.9v-2.4h13.9V-30H39.6v11.65H52.5V-30H48.6v-2.4H62.45V-30Zm32,20.9V0H64.75V-2.4h3.9V-30h-3.9v-2.4h25.4v9.1h-3.5L84.1-30H74.7v11.65h5.2v-3.9h3v10.3h-3v-3.9H74.7V-2.4h9.85l2.5-6.7ZM105.8-2.4h3.9V-30h-3.9v-2.4h9.65L125.9-9.55l9.75-22.85h9.65V-30h-3.9V-2.4h3.9V0H131.6V-2.4h3.75V-24.75L125.8-2.4h-3.1L112.45-24.7V-2.4h3.7V0H105.8ZM158.5-30V-2.4h4.85V0H147.6V-2.4h4.85V-30H147.6v-2.4h15.75V-30Zm7.15,27.6h3.9V-30h-3.9v-2.4h8.95l14.25,22.3V-30H185v-2.4h10.5V-30h-3.9V0h-3.7L172.3-24.65V-2.4h3.75V0h-10.4ZM208.2-30V-2.4h4.85V0H197.3V-2.4h4.85V-30H197.3v-2.4h15.75V-30ZM16.2,17.6a11.552,11.552,0,0,1,7.625,2.35A7.829,7.829,0,0,1,26.65,26.3a8.379,8.379,0,0,1-1.325,4.65,8.747,8.747,0,0,1-3.7,3.175A12.528,12.528,0,0,1,16.2,35.25H11.1V47.6H15V50H1.15V47.6h3.9V20H1.15V17.6Zm-.55,15.25a3.911,3.911,0,0,0,3.25-1.925A7.849,7.849,0,0,0,20.25,26.3a7.567,7.567,0,0,0-1.275-4.525A3.919,3.919,0,0,0,15.65,20H11.1V32.85ZM56.15,47.6V50H42.3V47.6h3.9l-3.05-9.05H33.7L30.55,47.6h3.7V50H23.8V47.6h3.8l10.7-30h3.55l10.7,30ZM42.3,36.05,38.6,25.1h-.25l-3.8,10.95Zm28.1,14.5a12.293,12.293,0,0,1-8.675-2.975Q58.5,44.6,58.5,38.6V20H54.6V17.6H68.45V20h-3.9V40.3a8.02,8.02,0,0,0,1.775,5.625A6.43,6.43,0,0,0,71.3,47.85a7.4,7.4,0,0,0,3.6-.9,6.671,6.671,0,0,0,2.625-2.6,7.9,7.9,0,0,0,.975-4V20H74.6V17.6H85.15V20h-3.9V40.15a10.246,10.246,0,0,1-2.85,7.5Q75.55,50.55,70.4,50.55ZM87.1,47.6H91V20H87.1V17.6h13.85V20h-3.9V47.6h9.85l2.5-6.7h3.5V50H87.1Zm51.2,3a15.635,15.635,0,0,1-6.15-1.125,9.82,9.82,0,0,1-3.8-2.525V40.9h4.2q.5,3.95,2,5.675A4.871,4.871,0,0,0,138.4,48.3a5.008,5.008,0,0,0,3.775-1.475A5.275,5.275,0,0,0,143.6,43a5.491,5.491,0,0,0-2.6-4.8l-8.45-5.6a10.515,10.515,0,0,1-3.125-3.175A7.974,7.974,0,0,1,128.2,25.05a7.159,7.159,0,0,1,2.725-5.825A11.486,11.486,0,0,1,138.4,17a16.044,16.044,0,0,1,5.8,1,10.229,10.229,0,0,1,4,2.55V26.7h-4.25q-.4-4.15-1.8-5.825a4.584,4.584,0,0,0-3.7-1.675,4.5,4.5,0,0,0-3.475,1.325,4.846,4.846,0,0,0-1.225,3.425A4.727,4.727,0,0,0,136,28.1l8.85,5.8a10.374,10.374,0,0,1,3.4,3.575A9.06,9.06,0,0,1,149.45,42a7.532,7.532,0,0,1-1.375,4.45,9.054,9.054,0,0,1-3.9,3.05A14.6,14.6,0,0,1,138.3,50.6Zm13.9-3h3.9V20h-3.9V17.6h9.65L172.3,40.45l9.75-22.85h9.65V20h-3.9V47.6h3.9V50H178V47.6h3.75V25.25L172.2,47.6h-3.1L158.85,25.3V47.6h3.7V50H152.2ZM204.9,20V47.6h4.85V50H194V47.6h4.85V20H194V17.6h15.75V20Zm12.5,27.6h4.75V20h-4.5l-2.5,6.7H211.9V17.6h26.55v9.1H235.2L232.65,20H228.2V47.6h4.75V50H217.4ZM269.45,20V47.6h3.9V50H259.5V47.6h3.9V34.15H250.5V47.6h3.9V50H240.55V47.6h3.9V20h-3.9V17.6h13.9V20H250.5V31.65h12.9V20h-3.9V17.6h13.85V20Zm44.5,20.9V50h-25.8V47.6h3.9V20h-3.9V17.6h25.4v9.1h-3.5L307.5,20h-9.4V31.65h5.2v-3.9h3v10.3h-3v-3.9h-5.2V47.6h9.85l2.5-6.7Zm18.2-23.3a16.681,16.681,0,0,1,8.675,2.1,13.061,13.061,0,0,1,5.225,5.625,18.011,18.011,0,0,1,1.7,7.925,19.126,19.126,0,0,1-1.75,8,15.157,15.157,0,0,1-5.3,6.3A14.68,14.68,0,0,1,332.15,50H316.7V47.6h4.05V20H316.7V17.6Zm-.35,30a7.41,7.41,0,0,0,5.275-2.05,12.712,12.712,0,0,0,3.275-5.35,21.992,21.992,0,0,0,1.1-7,18.889,18.889,0,0,0-1.15-6.8,10.534,10.534,0,0,0-3.35-4.7A8.181,8.181,0,0,0,331.8,20h-5V47.6ZM361.2,20V47.6h4.85V50H350.3V47.6h4.85V20H350.3V17.6h15.75V20Zm12.5,27.6h4.75V20h-4.5l-2.5,6.7H368.2V17.6h26.55v9.1H391.5L388.95,20H384.5V47.6h4.75V50H373.7ZM407.75,20V47.6h4.85V50H396.85V47.6h4.85V20h-4.85V17.6H412.6V20ZM429.8,50.6a14.334,14.334,0,0,1-8.425-2.3,13.214,13.214,0,0,1-4.75-5.9,19.98,19.98,0,0,1-1.475-7.65,23.654,23.654,0,0,1,1.575-8.65,14.887,14.887,0,0,1,4.875-6.575A13.1,13.1,0,0,1,429.8,17a14.386,14.386,0,0,1,8.375,2.3A13.245,13.245,0,0,1,443,25.225a19.747,19.747,0,0,1,1.5,7.625,23.654,23.654,0,0,1-1.575,8.65,14.887,14.887,0,0,1-4.875,6.575A13.179,13.179,0,0,1,429.8,50.6Zm.65-2.2a6.342,6.342,0,0,0,5.925-3.45A18.036,18.036,0,0,0,438.3,36.1,28.517,28.517,0,0,0,436.05,24q-2.25-4.8-6.8-4.8a6.381,6.381,0,0,0-5.95,3.5,18.137,18.137,0,0,0-1.95,8.9,27.9,27.9,0,0,0,2.275,12.05Q425.9,48.4,430.45,48.4Zm16.6-.8h3.9V20h-3.9V17.6H456l14.25,22.3V20H466.4V17.6h10.5V20H473V50h-3.7L453.7,25.35V47.6h3.75V50h-10.4Zm32.55-.4a3.329,3.329,0,1,1,.975,2.375A3.232,3.232,0,0,1,479.6,47.2Z" transform="translate(831 3848.4)" fill="#94a04b"/>
    <rect id="長方形_247" data-name="長方形 247" width="670" height="112.376" transform="translate(832 3816)" fill="none"/>
  </g>
</svg>
