<svg xmlns="http://www.w3.org/2000/svg" width="670" height="62.48" viewBox="0 0 670 62.48">
  <g id="sec06-tit04" transform="translate(-929 -3816)">
    <rect id="長方形_246" data-name="長方形 246" width="670" height="62.48" transform="translate(929 3816)" fill="none"/>
    <g id="グループ_899" data-name="グループ 899" transform="translate(-0.528)">
      <path id="パス_141" data-name="パス 141" d="M.528-.576h1.28V-9.792H.528v-.576H3.264l3.52,8.016,3.392-8.016h2.672v.576h-1.28V-.576h1.28V0H8.928V-.576h1.28v-8.08L6.784-.592H6.048L2.5-8.72V-.576H3.728V0H.528Zm18.7,0V0h-4.5V-.576H16.3V-9.792H14.8v-.576h4.368v.576h-1.5V-.576Zm1.888,0H22.4V-9.792H21.12v-.576h2.608l4.816,7.776v-7.2h-1.28v-.576h3.248v.576h-1.28V0H28.5L23.088-8.816v8.24h1.28V0H21.12Zm15.616,0V0h-4.5V-.576h1.568V-9.792H32.3v-.576h4.368v.576h-1.5V-.576Zm8.752-10.512H40.32V-5.84h4.928a7.206,7.206,0,0,1-.9,2.816,7.3,7.3,0,0,1-2.32-2.32l-.448.144a7.292,7.292,0,0,0,2.208,2.96A9.864,9.864,0,0,1,38.752.752l.16.448A10.566,10.566,0,0,0,44.8-1.536,21.155,21.155,0,0,0,52.752,1.1a15.836,15.836,0,0,1,.7-1.488A23.215,23.215,0,0,1,45.488-2.4,7.888,7.888,0,0,0,46.64-5.84h5.52v-5.248h-5.3v-1.728c.208-.16.256-.208.256-.32,0-.144-.112-.208-.352-.208h-1.28ZM41.664-6.48v-3.968h3.808c.016,1.024-.064,2.752-.16,3.968Zm5.04,0c.08-1.232.1-1.472.128-2.944l.016-1.024h3.968V-6.48ZM61.52-.384H56.24l-.672-.128V.464L56.24.336H69.616l.672.128V-.512l-.672.128H63.04V-7.776h5.1l.672.128v-.976l-.672.128h-5.1V-12.7c.208-.144.256-.208.256-.3,0-.16-.112-.224-.336-.224H61.52ZM76.1-6.8a20.577,20.577,0,0,0,2.448-4.016H76.128v-2c.208-.144.256-.208.256-.32,0-.144-.112-.208-.336-.208H74.864v2.528h-1.7l-.624-.128v.9l.624-.128H76.8A26.822,26.822,0,0,1,72.4-3.9l.288.384a19.418,19.418,0,0,0,2.16-1.856v6.56H76.1V-5.792a12.076,12.076,0,0,1,1.648,2.544l1.008-1.024a9.38,9.38,0,0,0-1.776-1.392A7.728,7.728,0,0,0,78.5-6.8c.32,0,.512-.08.512-.24,0-.08-.064-.16-.208-.256l-.976-.64A10.372,10.372,0,0,1,76.576-5.92c-.288-.176-.368-.224-.48-.288Zm6.064-4.816h2.8c-.1,4.768-.544,10.912-.816,11.408a.987.987,0,0,1-1.136.624h-1.52v.672h2.368A1.646,1.646,0,0,0,85.232.656c.336-.336.448-.784.576-2.064.32-3.632.5-7.28.56-10.848H79.216l-.624-.128v.9l.624-.128h1.568v.992c-.112,6.112-1.168,9.28-3.792,11.456l.3.448A8.172,8.172,0,0,0,81.1-3.184a23.064,23.064,0,0,0,1.056-7.44Zm9.616,7.888a2.507,2.507,0,0,0-2.544,2.48A2.51,2.51,0,0,0,91.744,1.28a2.513,2.513,0,0,0,2.5-2.512A2.525,2.525,0,0,0,91.776-3.728Zm-.064.736A1.769,1.769,0,0,1,93.5-1.248,1.772,1.772,0,0,1,91.744.544a1.782,1.782,0,0,1-1.776-1.776A1.783,1.783,0,0,1,91.712-2.992Zm14.8,2.352c2.688-2.176,4.32-5.12,5.264-9.488.336-.128.48-.272.48-.464s-.176-.32-.624-.432l-1.408-.368-.048.96A21.9,21.9,0,0,1,106.16-.96Zm8.032-10.4A29.111,29.111,0,0,1,119.072-.784L120.7-1.7c-1.168-3.968-3.36-7.7-5.728-9.7Zm17.472,2.464a41.132,41.132,0,0,0,3.408-3.008c.432-.048.608-.16.608-.384a.5.5,0,0,0-.256-.368l-1.232-.816-.576.864a31.127,31.127,0,0,1-10.5,7.28l.176.48a21.1,21.1,0,0,0,6.88-2.976V.848h1.488Zm15.088.768a1.738,1.738,0,0,0-1.76,1.728,1.738,1.738,0,0,0,1.744,1.744,1.745,1.745,0,0,0,1.728-1.744A1.749,1.749,0,0,0,147.1-7.808Zm9.9,7.328c2.672-2.144,4.352-5.168,5.264-9.472.336-.144.48-.272.48-.464,0-.208-.176-.32-.624-.448l-1.408-.352-.048.944a21.852,21.852,0,0,1-4.016,9.488Zm8.032-10.4A29.221,29.221,0,0,1,169.568-.608L171.2-1.52c-1.184-4.016-3.344-7.68-5.728-9.712Zm4.816-2.72a1.626,1.626,0,0,0-1.648,1.6,1.625,1.625,0,0,0,1.616,1.632,1.632,1.632,0,0,0,1.616-1.616A1.615,1.615,0,0,0,169.856-13.6Zm-.048.64a.98.98,0,0,1,.992.96.973.973,0,0,1-.976.992.99.99,0,0,1-.976-.976A.987.987,0,0,1,169.808-12.96ZM176.48.144A12.666,12.666,0,0,0,182.7-2.7c2.224-1.984,3.584-4.928,4.016-8.7H175.728l-.7-.144v1.024l.7-.144h9.248C184.144-5.408,181.312-2.048,176.3-.4Zm21.088-6.256a18.072,18.072,0,0,1-5.392,5.76l.176.336a13.517,13.517,0,0,0,6.112-5.152l.128,4.528v.224c0,.416-.16.592-.576.592H196.56V.912H198.9c.72,0,1.04-.3,1.056-1.056l-.16-5.968h2.032l.7.144V-6.992l-.7.144h-2.048l-.064-2.128c.192-.144.256-.24.256-.352,0-.144-.128-.224-.368-.24l-1.344-.048.112.976.048,1.792h-4.944l-.7-.144v1.024l.7-.144ZM221.2-6.464l-13.36-.5v1.68l13.36-.48Zm5.808.272a24.951,24.951,0,0,1,6,6.256l1.376-1.056a12.838,12.838,0,0,0-2.56-2.832l-.048-.032.048-.032.1-.048a13.507,13.507,0,0,0,6.16-7.344H225.408l-.7-.144V-10.4l.7-.144h10.64a15.811,15.811,0,0,1-4.768,6.288,18.3,18.3,0,0,0-4.016-2.352Zm27.76-3.824a15.882,15.882,0,0,1-4.08,5.184,15.05,15.05,0,0,1-7.344,3.248l-.848.016.576,1.424c.1.224.24.352.4.352.176,0,.3-.112.416-.368,3.616-.816,5.888-1.9,7.856-3.76a13.486,13.486,0,0,0,3.472-5.888ZM242.352-11.76a15.042,15.042,0,0,1,3.984,3.424l1.312-1.328a9.874,9.874,0,0,0-5.1-2.512ZM266.3-5.328a20.147,20.147,0,0,0,3.3-6.48h-9.472l-.7-.144v1.024l.7-.144H267.7A18.438,18.438,0,0,1,258.032-.288l.224.5a16.085,16.085,0,0,0,7.712-5.1A27.31,27.31,0,0,1,270.544.32l1.424-1.152a19.544,19.544,0,0,0-5.456-4.384Zm15.456-2.48A1.738,1.738,0,0,0,280-6.08a1.738,1.738,0,0,0,1.744,1.744,1.745,1.745,0,0,0,1.728-1.744A1.749,1.749,0,0,0,281.76-7.808Zm14.608,1.376v4.144c0,1.36.224,1.824,1.024,2.1a17.181,17.181,0,0,0,4.208.3c1.072,0,1.872-.032,2.96-.1V-1.44a31.251,31.251,0,0,1-3.744.224,8.272,8.272,0,0,1-2.528-.24c-.32-.144-.4-.336-.4-.976v-4h6.88l.72.144V-7.312l-.72.144h-6.88V-11.1h5.3l.7.144v-1.024l-.7.144h-9.84l-.7-.144v1.024l.7-.144h3.024v3.936h-4.016l-.72-.144v1.024l.72-.144Zm24.912-.192.7.144V-7.5l-.7.144H308.96l-.7-.144V-6.48l.7-.144h5.584a7.863,7.863,0,0,1-.768,3.84,7.589,7.589,0,0,1-4.624,3.3l.128.544a9.817,9.817,0,0,0,5.36-2.624c1.008-1.1,1.472-2.688,1.472-5.056Zm-2.832-5.216h-7.536l-.7-.144v1.024l.7-.144h7.536l.7.144v-1.024Zm4.48-.1A3.16,3.16,0,0,0,321.04-13.6l-.256.224a6.431,6.431,0,0,1,1.072,2.016Zm-3.9-1.2A7.164,7.164,0,0,1,320-10.944l1.056-.512a3.053,3.053,0,0,0-1.744-1.888ZM332.688.512a7.927,7.927,0,0,0,4.752-2.9,11.2,11.2,0,0,0,2.32-5.264l-.5-.16c-1.056,3.008-3.056,5.456-5.152,6.3V-11.84c.24-.16.32-.272.32-.416a.3.3,0,0,0-.3-.272l-1.584-.112.144.96ZM325.12.56A8.778,8.778,0,0,0,328.7-3.248a14.907,14.907,0,0,0,.944-6.24V-11.3c.24-.16.32-.272.32-.416a.288.288,0,0,0-.3-.272l-1.632-.112.144.96v1.792c0,4.864-.768,7.056-3.344,9.488ZM343.776.192a2.736,2.736,0,0,1-1.384-.3,3.319,3.319,0,0,1-.92-.824V-2.816h.864a5.051,5.051,0,0,0,.432,1.9,1.059,1.059,0,0,0,.992.576q1.2,0,1.2-1.728V-9.792h-1.328v-.576h3.984v.576h-1.3v7.3a2.6,2.6,0,0,1-.736,2.008A2.565,2.565,0,0,1,343.776.192Zm10,0a4.067,4.067,0,0,1-2.5-.736,4.2,4.2,0,0,1-1.432-1.912,7.019,7.019,0,0,1-.448-2.52,7.742,7.742,0,0,1,.456-2.632,4.7,4.7,0,0,1,1.5-2.112A4.092,4.092,0,0,1,354-10.56a4.138,4.138,0,0,1,2.52.736,4.325,4.325,0,0,1,1.472,1.912,6.659,6.659,0,0,1,.472,2.5,7.417,7.417,0,0,1-.48,2.624,4.9,4.9,0,0,1-1.528,2.128A4.125,4.125,0,0,1,353.776.192Zm.384-.528A2.354,2.354,0,0,0,356.3-1.512a5.979,5.979,0,0,0,.72-3.144,9.508,9.508,0,0,0-.344-2.584,4.663,4.663,0,0,0-1.1-2.008,2.564,2.564,0,0,0-1.936-.784,2.3,2.3,0,0,0-2.136,1.16,5.772,5.772,0,0,0-.68,2.952,8.91,8.91,0,0,0,.8,3.952A2.649,2.649,0,0,0,354.16-.336Zm14.96-9.456V-.576h1.28V0h-3.888V-.576h1.248V-5.168h-4.72V-.576h1.248V0H360.4V-.576h1.28V-9.792H360.4v-.576h3.888v.576H363.04v4.016h4.72V-9.792h-1.248v-.576H370.4v.576Zm3.168,9.216h1.28V-9.792h-1.28v-.576H374.9l4.816,7.776v-7.2h-1.28v-.576h3.248v.576H380.4V0h-.736l-5.408-8.816v8.24h1.28V0h-3.248Zm20.48.768a4.22,4.22,0,0,1-2.616-.768,4.31,4.31,0,0,1-1.464-1.96,7.058,7.058,0,0,1-.448-2.5,7.58,7.58,0,0,1,.464-2.648,4.609,4.609,0,0,1,1.488-2.064,4.056,4.056,0,0,1,2.592-.808,4.873,4.873,0,0,1,1.8.3,5.367,5.367,0,0,1,1.336.76v1.92h-.912a2.847,2.847,0,0,0-.768-1.872,2.224,2.224,0,0,0-1.568-.592A2.516,2.516,0,0,0,390.408-8.9a5.325,5.325,0,0,0-.744,2.952,9.779,9.779,0,0,0,.344,2.64A4.788,4.788,0,0,0,391.072-1.3a2.344,2.344,0,0,0,1.792.776,2.8,2.8,0,0,0,1.728-.592,2.784,2.784,0,0,0,1.024-1.712h.608a3.639,3.639,0,0,1-.64,1.552A3.572,3.572,0,0,1,394.352-.2,3.319,3.319,0,0,1,392.768.192Zm9.808,0a4.067,4.067,0,0,1-2.5-.736,4.2,4.2,0,0,1-1.432-1.912,7.019,7.019,0,0,1-.448-2.52,7.742,7.742,0,0,1,.456-2.632,4.7,4.7,0,0,1,1.5-2.112,4.092,4.092,0,0,1,2.656-.84,4.138,4.138,0,0,1,2.52.736,4.325,4.325,0,0,1,1.472,1.912,6.659,6.659,0,0,1,.472,2.5,7.417,7.417,0,0,1-.48,2.624,4.9,4.9,0,0,1-1.528,2.128A4.125,4.125,0,0,1,402.576.192Zm.384-.528A2.354,2.354,0,0,0,405.1-1.512a5.979,5.979,0,0,0,.72-3.144,9.508,9.508,0,0,0-.344-2.584,4.663,4.663,0,0,0-1.1-2.008,2.564,2.564,0,0,0-1.936-.784,2.3,2.3,0,0,0-2.136,1.16,5.772,5.772,0,0,0-.68,2.952,8.91,8.91,0,0,0,.8,3.952A2.649,2.649,0,0,0,402.96-.336Zm10.864.528a4.067,4.067,0,0,1-2.5-.736,4.2,4.2,0,0,1-1.432-1.912,7.019,7.019,0,0,1-.448-2.52,7.742,7.742,0,0,1,.456-2.632,4.7,4.7,0,0,1,1.5-2.112,4.092,4.092,0,0,1,2.656-.84,4.138,4.138,0,0,1,2.52.736,4.325,4.325,0,0,1,1.472,1.912,6.659,6.659,0,0,1,.472,2.5,7.417,7.417,0,0,1-.48,2.624A4.9,4.9,0,0,1,416.5-.656,4.125,4.125,0,0,1,413.824.192Zm.384-.528a2.354,2.354,0,0,0,2.144-1.176,5.979,5.979,0,0,0,.72-3.144,9.508,9.508,0,0,0-.344-2.584,4.663,4.663,0,0,0-1.1-2.008,2.564,2.564,0,0,0-1.936-.784,2.3,2.3,0,0,0-2.136,1.16,5.772,5.772,0,0,0-.68,2.952,8.91,8.91,0,0,0,.8,3.952A2.649,2.649,0,0,0,414.208-.336Zm10.9-10.032a3.279,3.279,0,0,1,2.352.752,2.583,2.583,0,0,1,.784,1.952,2.789,2.789,0,0,1-.376,1.44,2.675,2.675,0,0,1-1.088,1.016,3.531,3.531,0,0,1-1.672.376h-2.016V-.576h1.28V0h-3.92V-.576h1.28V-9.792h-1.28v-.576Zm-.192,4.928a1.636,1.636,0,0,0,1.3-.616,2.359,2.359,0,0,0,.52-1.576,2.355,2.355,0,0,0-.5-1.576,1.654,1.654,0,0,0-1.328-.584h-1.824V-5.44ZM437.92-2.816V0H430V-.576h1.28V-9.792H430v-.576h7.792v2.784h-.608l-.848-2.208h-3.7v4.016h2.512V-7.008h.736v3.072h-.736V-5.168H432.64V-.576h3.824l.848-2.24Zm11.552,2.24V0h-2.448l-3.04-4.784H442.5V-.576h1.264V0h-3.9V-.576h1.28V-9.792h-1.28v-.576h4.656a3.215,3.215,0,0,1,2.352.776,2.662,2.662,0,0,1,.784,1.976,2.736,2.736,0,0,1-.592,1.784,2.771,2.771,0,0,1-1.616.952l2.88,4.3ZM442.5-5.392h1.84a1.636,1.636,0,0,0,1.3-.616,2.359,2.359,0,0,0,.52-1.576,2.426,2.426,0,0,0-.5-1.6,1.632,1.632,0,0,0-1.32-.608H442.5Zm27.984-4.4H469.3L466.528,0h-.736l-2.864-8.1L460.32,0h-.736l-2.928-9.792h-1.264v-.576h4v.576h-1.28L460.3-2.16l2.608-8.144h.672l2.928,8.1,2.1-7.584h-1.264v-.576h3.136ZM475.76.192a4.067,4.067,0,0,1-2.5-.736,4.2,4.2,0,0,1-1.432-1.912,7.019,7.019,0,0,1-.448-2.52,7.742,7.742,0,0,1,.456-2.632,4.7,4.7,0,0,1,1.5-2.112,4.092,4.092,0,0,1,2.656-.84,4.138,4.138,0,0,1,2.52.736,4.325,4.325,0,0,1,1.472,1.912,6.659,6.659,0,0,1,.472,2.5,7.417,7.417,0,0,1-.48,2.624A4.9,4.9,0,0,1,478.44-.656,4.125,4.125,0,0,1,475.76.192Zm.384-.528a2.354,2.354,0,0,0,2.144-1.176,5.979,5.979,0,0,0,.72-3.144,9.508,9.508,0,0,0-.344-2.584,4.663,4.663,0,0,0-1.1-2.008,2.564,2.564,0,0,0-1.936-.784,2.3,2.3,0,0,0-2.136,1.16,5.772,5.772,0,0,0-.68,2.952,8.91,8.91,0,0,0,.8,3.952A2.649,2.649,0,0,0,476.144-.336ZM492-.576V0h-2.448l-3.04-4.784h-1.488V-.576h1.264V0h-3.9V-.576h1.28V-9.792h-1.28v-.576h4.656a3.215,3.215,0,0,1,2.352.776,2.662,2.662,0,0,1,.784,1.976,2.736,2.736,0,0,1-.592,1.784,2.771,2.771,0,0,1-1.616.952l2.88,4.3Zm-6.976-4.816h1.84a1.636,1.636,0,0,0,1.3-.616,2.359,2.359,0,0,0,.52-1.576,2.426,2.426,0,0,0-.5-1.6,1.632,1.632,0,0,0-1.32-.608h-1.84ZM502.8-.576V0h-2.5L496.64-5.168h-.576V-.576h1.248V0H493.44V-.576H494.7V-9.792H493.44v-.576h3.872v.576h-1.248v4.016h.784l3.344-4.016h-1.184v-.576h3.232v.576h-1.184L497.792-5.84l3.824,5.264Zm4.688.768a4.943,4.943,0,0,1-1.832-.32,2.9,2.9,0,0,1-1.192-.784V-2.8h.864a3.181,3.181,0,0,0,.72,1.912,2.006,2.006,0,0,0,1.472.552,2.105,2.105,0,0,0,1.528-.52,1.86,1.86,0,0,0,.536-1.4,1.789,1.789,0,0,0-.88-1.6L505.856-5.7a3.418,3.418,0,0,1-1.016-.944,2.276,2.276,0,0,1-.36-1.312,2.361,2.361,0,0,1,.84-1.9,3.464,3.464,0,0,1,2.312-.712,4.66,4.66,0,0,1,1.64.272,3.072,3.072,0,0,1,1.192.768v1.936H509.6a3.418,3.418,0,0,0-.608-1.928,1.731,1.731,0,0,0-1.36-.536,1.869,1.869,0,0,0-1.464.512,1.789,1.789,0,0,0-.456,1.232,1.523,1.523,0,0,0,.736,1.376l2.8,1.792A4.042,4.042,0,0,1,510.5-3.992a2.414,2.414,0,0,1,.376,1.336,2.73,2.73,0,0,1-.4,1.464,2.709,2.709,0,0,1-1.16,1.016A4.172,4.172,0,0,1,507.488.192ZM526.24-11.1a12.723,12.723,0,0,0-2.048-.144A9.156,9.156,0,0,0,519.248-10l.112.48a19.4,19.4,0,0,1,3.936-.416,13.588,13.588,0,0,1,2.944.288ZM515.2-12.592l.016.768a60.348,60.348,0,0,0-.48,7.392,24.294,24.294,0,0,0,.384,4.9l1.456-.272a24.119,24.119,0,0,1-.448-5.1,54.434,54.434,0,0,1,.5-6.784c.24-.16.336-.272.336-.4s-.128-.24-.336-.272Zm4,6.8a4.306,4.306,0,0,0-.528,2.064A2.907,2.907,0,0,0,520.24-.992a8.124,8.124,0,0,0,3.632.608,18.541,18.541,0,0,0,2.976-.224V-2.144a16.8,16.8,0,0,1-3.5.336,5.751,5.751,0,0,1-2.88-.528,2.1,2.1,0,0,1-.992-1.952,4.5,4.5,0,0,1,.208-1.376Zm18.432,4.4h5.312v-4.5H531.392V-.3h1.2V-1.392h3.856V-.144c.032.768.416,1.024,1.584,1.056h5.008c.864,0,1.216-.3,1.344-1.168l.144-1.184L543.9-1.5l-.128.8c-.08.432-.256.56-.784.576h-4.768c-.528-.032-.608-.08-.592-.48Zm0-3.856h4.08V-4h-4.08Zm0,1.888h4.08v1.328h-4.08Zm-1.184,1.328h-3.856V-3.36h3.856Zm0-1.968h-3.856V-5.248h3.856Zm0-6.4v3.856h1.184V-10.4h5.312a15.071,15.071,0,0,1-.784,2.208l.416.192a6.015,6.015,0,0,0,1.952-3.04h-6.9v-1.1h4.96l.64.128v-.9l-.64.128H531.968l-.624-.128v.9l.624-.128h4.48v1.1H531.7v-.048l-.016-.416h-.544a4.387,4.387,0,0,1-1.312,2.688l.992,1.12a4.283,4.283,0,0,0,.88-2.7Zm-4.3,3.392h3.5v-.64h-3.5Zm0-1.7h3.5v-.64h-3.5Zm6.288,1.7H542v-.64h-3.568Zm0-1.7h3.552v-.64h-3.552ZM551.9-2.88A21.5,21.5,0,0,1,546.976.592l.208.4a17.508,17.508,0,0,0,5.7-3.216,24.729,24.729,0,0,1,3.168,2.56l.912-1.3a32.47,32.47,0,0,0-3.136-2.128c.624-.608.96-.976,1.808-1.952h.08c.256,0,.512-.16.512-.32,0-.08-.1-.176-.208-.24L554.8-6.192a14.539,14.539,0,0,1-2.048,2.5A25.375,25.375,0,0,0,548.4-5.472l-.224.416A22.727,22.727,0,0,1,551.2-3.312Zm-1.728-8.5h9.872l.64.128v-.9l-.64.128h-9.44l.032-.032.048-.08c.128-.176.24-.368.368-.56.32-.032.5-.144.5-.3,0-.1-.112-.192-.224-.208l-1.456-.24a16.083,16.083,0,0,1-3.216,4.752l.272.336a10.488,10.488,0,0,0,3.216-2.976Zm8.736,3.936H548.3l-.624-.128v.9L548.3-6.8h9.28a18.083,18.083,0,0,0,1.1,6.8c.384.768.88,1.184,1.408,1.184.464,0,.784-.368.944-1.04a12.363,12.363,0,0,0,.32-2.48l-.576-.112a11.716,11.716,0,0,1-.336,2.08c-.032.16-.128.272-.208.272-.112,0-.224-.144-.4-.56a16.927,16.927,0,0,1-.928-6.1ZM550.128-9.2h8.416l.64.128v-.9l-.64.128h-8.416l-.624-.128v.9Zm14.96-2.256V1.184h1.376V.144h8.784v.928h1.376V-11.456H570.16a6.3,6.3,0,0,0,1.008-1.184c.336-.08.48-.192.48-.368,0-.128-.16-.224-.4-.256l-1.536-.176a12.8,12.8,0,0,1-.5,1.984Zm1.376,3.5v-2.864h8.784v2.864Zm0,.64h8.784V-4.4h-8.784Zm0,3.552h8.784V-.5h-8.784Zm18.672-.528h2.976V-8.816h-2.976V-10h2.784l.64.128v-.9l-.64.128h-2.784v-1.392a20.79,20.79,0,0,0,2.144-.32,2.1,2.1,0,0,0,.5.08c.176,0,.3-.1.3-.24,0-.1-.032-.144-.208-.272l-.816-.656a37.246,37.246,0,0,1-6.448,1.232l.064.48c1.2-.032,2.192-.08,3.408-.192v1.28h-3.1l-.64-.128v.9l.64-.128h3.1v1.184h-2.96v4.528h2.96v1.216h-2.5l-.64-.128v.9l.64-.128h2.5V-.944c-1.712.112-2.976.192-3.76.224l.432,1.152c.064.16.176.288.288.288.128,0,.208-.1.3-.352a44.387,44.387,0,0,0,7.04-1.232l-.08-.448c-1.056.128-1.072.128-2.176.208-.208.016-.5.048-.992.08V-2.432h2.48l.64.128v-.9l-.64.128h-2.48ZM584.08-4.88h-1.856V-6.3h1.856Zm1.056,0V-6.3h1.872V-4.88ZM584.08-6.9h-1.856V-8.224h1.856Zm1.056,0V-8.224h1.872V-6.9Zm4.176-2.768-.624-.128v.9l.624-.128h.912c-.192,5.7-.992,8.224-3.072,9.9l.288.4a6.545,6.545,0,0,0,3.152-3.936,23.131,23.131,0,0,0,.864-6.368H593.2c-.064,2.464-.352,7.28-.512,8.224-.128.992-.256,1.184-.88,1.2H590.56v.672h1.84a1.266,1.266,0,0,0,1.488-1.264c.192-.96.432-4.72.592-9.472h-2.992c.032-.736.048-1.536.048-2.448v-.608c.208-.144.256-.208.256-.32,0-.144-.112-.208-.336-.208h-1.168v1.136c0,1.184-.016,1.968-.032,2.448Zm15.744,6h5.008V-9.68h-5.008v-1.44h5.616l.624.128v-.9l-.624.128h-5.616v-1.152c.208-.144.256-.208.256-.3,0-.16-.112-.224-.336-.224h-1.232v1.68h-5.392l-.624-.128v.9l.624-.128h5.392v1.44H598.96v6.016h4.784v1.536h-5.952l-.64-.128v.9l.64-.128h5.952V1.28h1.312V-1.488h6.176l.64.128v-.9l-.64.128h-6.176Zm0-2.752h3.7V-4.3h-3.7Zm-1.312,0V-4.3h-3.472V-6.416Zm1.312-2.624h3.7v1.984h-3.7Zm-1.312,0v1.984h-3.472V-9.04Zm10.56.4.256.992c.064.192.144.288.272.288s.224-.08.32-.32a21.855,21.855,0,0,1,2.416-.576,29.731,29.731,0,0,1-3.184,8l1.184.688a28.138,28.138,0,0,0,3.424-8.912,16.418,16.418,0,0,1,2.08-.192,1.1,1.1,0,0,1,1.024.448,3.975,3.975,0,0,1,.224,1.7,17.732,17.732,0,0,1-.752,5.024c-.352,1.024-.688,1.44-1.136,1.44a3.218,3.218,0,0,1-1.856-1.024l-.416.64a4.351,4.351,0,0,0,2.688,1.44c.848,0,1.408-.512,1.9-1.728a15.87,15.87,0,0,0,.912-5.488,4.6,4.6,0,0,0-.384-2.24c-.352-.64-1.136-.96-2.336-.96-.48,0-1.056.032-1.76.08.16-.688.272-1.328.528-2.752.24-.1.336-.192.336-.32s-.112-.24-.32-.288l-1.36-.3-.016.736c-.224,1.376-.368,2.224-.56,3.088-.992.128-1.984.3-3.04.512Zm14.56-3.3a3.126,3.126,0,0,0-1.872-1.664l-.272.224a6.663,6.663,0,0,1,1.088,2.016Zm-4.416,1.952c1.264,1.744,1.968,3.712,2.624,7.088l1.472-.624c-.608-3.072-2.08-5.712-3.76-6.72Zm.4-3.152a7.258,7.258,0,0,1,.992,2.192l1.056-.512a3.1,3.1,0,0,0-1.744-1.888ZM637.5-7.824c.416-.848,1.264-2.944,1.9-4.752h-2.992l-.64-.128v.9l.64-.128h1.552a27.381,27.381,0,0,1-2.176,5.2h1.136c.144-.256.192-.336.256-.448h1.2a20.451,20.451,0,0,1-.736,4.448,10.159,10.159,0,0,1-1.088-3.152l-.512.08a7.96,7.96,0,0,0,1.216,4.032A7.982,7.982,0,0,1,635.2.912l.272.368a6.963,6.963,0,0,0,2.384-2.288C639.392.624,640.56.928,645.2.944a6.736,6.736,0,0,1,.336-1.328c-.592.032-.9.032-1.44.032-2.512,0-3.584-.144-4.432-.576a5.972,5.972,0,0,1-1.328-.96,15.616,15.616,0,0,0,1.152-5.936Zm4.832,5.3H641.3V-8.48c.192-.144.24-.192.24-.288,0-.144-.112-.208-.336-.208h-.96v6.448h-.176l-.64-.128v.9l.64-.128h4.64l.64.128v-.9l-.64.128H643.44V-7.3h1.04l.64.128v-.9l-.64.128h-1.04V-11.68c.16-.032.464-.128,1.056-.3a2.743,2.743,0,0,0,.384.064.232.232,0,0,0,.24-.224c0-.08-.048-.144-.192-.288l-.784-.72a20.506,20.506,0,0,1-4.368,1.52l.048.48c.976-.1,1.5-.16,2.464-.32h.048ZM632.448.112h1.712V.5h1.056V-3.888h-3.824v4.8h1.056Zm0-.592V-3.3h1.712V-.48Zm2.128-12.24h-2.544l-.64-.128v.928l.64-.128h2.544l.64.128v-.928Zm.016,4.416h-2.56l-.64-.128V-7.5l.64-.128h2.56l.64.128v-.928Zm0,2.208h-2.56l-.64-.128V-5.3l.64-.128h2.56l.64.128v-.928Zm.592-4.416h-3.728l-.64-.128v.928l.64-.128h3.728l.64.128v-.928Zm20.88.592V-12.7c.192-.144.256-.208.256-.32,0-.144-.112-.208-.336-.208h-1.328V-9.92h-3.392c.192-.528.288-.768.544-1.568.32-.1.464-.224.464-.4,0-.128-.128-.256-.336-.32l-1.424-.416a22.045,22.045,0,0,1-2.864,7.6l.4.352a15.05,15.05,0,0,0,2.96-4.608h3.648v3.888h-4.064l-.624-.128v.9l.624-.128h4.064V-.144H648.48l-.624-.128v.9L648.48.5h13.056l.64.128v-.9l-.64.128h-5.472V-4.752h4.064l.64.128v-.9l-.64.128h-4.064V-9.28h4.816l.624.128v-.9l-.624.128Zm10.96,6.192a2.507,2.507,0,0,0-2.544,2.48,2.51,2.51,0,0,0,2.512,2.528,2.513,2.513,0,0,0,2.5-2.512A2.525,2.525,0,0,0,667.024-3.728Zm-.064.736a1.769,1.769,0,0,1,1.792,1.744,1.772,1.772,0,0,1-1.76,1.792,1.782,1.782,0,0,1-1.776-1.776A1.783,1.783,0,0,1,666.96-2.992Z" transform="translate(929 3877.2)"/>
      <path id="パス_140" data-name="パス 140" d="M1.15-2.4h3.9V-30H1.15v-2.4H10.8L21.25-9.55,31-32.4h9.65V-30h-3.9V-2.4h3.9V0H26.95V-2.4H30.7V-24.75L21.15-2.4h-3.1L7.8-24.7V-2.4h3.7V0H1.15ZM53.85-30V-2.4H58.7V0H42.95V-2.4H47.8V-30H42.95v-2.4H58.7V-30ZM61-2.4h3.9V-30H61v-2.4h8.95L84.2-10.1V-30H80.35v-2.4h10.5V-30h-3.9V0h-3.7L67.65-24.65V-2.4H71.4V0H61ZM103.55-30V-2.4h4.85V0H92.65V-2.4H97.5V-30H92.65v-2.4H108.4V-30ZM132.15.55a11.522,11.522,0,0,1-5.175-1.125A11.493,11.493,0,0,1,123.45-3.1v-6h4.3a27.228,27.228,0,0,0,.825,4.45,4.5,4.5,0,0,0,1.3,2.225,3.493,3.493,0,0,0,2.275.675,3.326,3.326,0,0,0,3.1-1.4,8,8,0,0,0,.85-4.1V-30h-4.3v-2.4h14.25V-30h-3.9V-8.2a8.331,8.331,0,0,1-2.55,6.325Q137.05.55,132.15.55Zm30.7.05a14.334,14.334,0,0,1-8.425-2.3,13.214,13.214,0,0,1-4.75-5.9,19.98,19.98,0,0,1-1.475-7.65,23.654,23.654,0,0,1,1.575-8.65,14.888,14.888,0,0,1,4.875-6.575A13.1,13.1,0,0,1,162.85-33a14.386,14.386,0,0,1,8.375,2.3,13.245,13.245,0,0,1,4.825,5.925,19.747,19.747,0,0,1,1.5,7.625,23.654,23.654,0,0,1-1.575,8.65A14.888,14.888,0,0,1,171.1-1.925,13.179,13.179,0,0,1,162.85.6Zm.65-2.2a6.342,6.342,0,0,0,5.925-3.45,18.036,18.036,0,0,0,1.925-8.85A28.517,28.517,0,0,0,169.1-26q-2.25-4.8-6.8-4.8a6.381,6.381,0,0,0-5.95,3.5,18.137,18.137,0,0,0-1.95,8.9,27.9,27.9,0,0,0,2.275,12.05Q158.95-1.6,163.5-1.6ZM209-30V-2.4h3.9V0H199.05V-2.4h3.9V-15.85h-12.9V-2.4h3.9V0H180.1V-2.4H184V-30h-3.9v-2.4H194V-30h-3.95v11.65h12.9V-30h-3.9v-2.4H212.9V-30Zm6.2,27.6h3.9V-30h-3.9v-2.4h8.95L238.4-10.1V-30h-3.85v-2.4h10.5V-30h-3.9V0h-3.7l-15.6-24.65V-2.4h3.75V0H215.2Zm59.05,3a14.109,14.109,0,0,1-8.425-2.35,13.5,13.5,0,0,1-4.75-5.975A20.3,20.3,0,0,1,259.6-15.45a23.594,23.594,0,0,1,1.55-8.6,14.5,14.5,0,0,1,4.825-6.475A13.338,13.338,0,0,1,274.25-33a16.4,16.4,0,0,1,5.65.85,26.636,26.636,0,0,1,4.4,2.1v6.75h-4.25q-.4-3.9-2.1-5.7a5.6,5.6,0,0,0-4.25-1.8,6.381,6.381,0,0,0-5.95,3.5,18.021,18.021,0,0,0-1.95,8.85,27.507,27.507,0,0,0,1.225,8.675A12.939,12.939,0,0,0,270.4-4.15a7.031,7.031,0,0,0,4.85,1.95,7.488,7.488,0,0,0,4.9-1.725,8.691,8.691,0,0,0,2.8-5.225h2.6a11.3,11.3,0,0,1-3.825,7.2A11.325,11.325,0,0,1,274.25.6ZM303.1.6a14.334,14.334,0,0,1-8.425-2.3,13.214,13.214,0,0,1-4.75-5.9,19.98,19.98,0,0,1-1.475-7.65,23.654,23.654,0,0,1,1.575-8.65,14.887,14.887,0,0,1,4.875-6.575A13.1,13.1,0,0,1,303.1-33a14.386,14.386,0,0,1,8.375,2.3,13.245,13.245,0,0,1,4.825,5.925,19.747,19.747,0,0,1,1.5,7.625,23.654,23.654,0,0,1-1.575,8.65,14.887,14.887,0,0,1-4.875,6.575A13.179,13.179,0,0,1,303.1.6Zm.65-2.2a6.342,6.342,0,0,0,5.925-3.45A18.036,18.036,0,0,0,311.6-13.9,28.517,28.517,0,0,0,309.35-26q-2.25-4.8-6.8-4.8a6.381,6.381,0,0,0-5.95,3.5,18.137,18.137,0,0,0-1.95,8.9,27.9,27.9,0,0,0,2.275,12.05Q299.2-1.6,303.75-1.6ZM336.25.6a14.334,14.334,0,0,1-8.425-2.3,13.214,13.214,0,0,1-4.75-5.9,19.98,19.98,0,0,1-1.475-7.65,23.654,23.654,0,0,1,1.575-8.65,14.887,14.887,0,0,1,4.875-6.575A13.1,13.1,0,0,1,336.25-33a14.386,14.386,0,0,1,8.375,2.3,13.245,13.245,0,0,1,4.825,5.925,19.747,19.747,0,0,1,1.5,7.625,23.654,23.654,0,0,1-1.575,8.65A14.887,14.887,0,0,1,344.5-1.925,13.179,13.179,0,0,1,336.25.6Zm.65-2.2a6.342,6.342,0,0,0,5.925-3.45,18.036,18.036,0,0,0,1.925-8.85A28.517,28.517,0,0,0,342.5-26q-2.25-4.8-6.8-4.8a6.381,6.381,0,0,0-5.95,3.5,18.137,18.137,0,0,0-1.95,8.9,27.9,27.9,0,0,0,2.275,12.05Q332.35-1.6,336.9-1.6Zm31.65-30.8a11.552,11.552,0,0,1,7.625,2.35A7.829,7.829,0,0,1,379-23.7a8.379,8.379,0,0,1-1.325,4.65,8.747,8.747,0,0,1-3.7,3.175,12.528,12.528,0,0,1-5.425,1.125h-5.1V-2.4h3.9V0H353.5V-2.4h3.9V-30h-3.9v-2.4ZM368-17.15a3.911,3.911,0,0,0,3.25-1.925A7.85,7.85,0,0,0,372.6-23.7a7.567,7.567,0,0,0-1.275-4.525A3.919,3.919,0,0,0,368-30h-4.55v12.85ZM407.1-9.1V0H381.3V-2.4h3.9V-30h-3.9v-2.4h25.4v9.1h-3.5L400.65-30h-9.4v11.65h5.2v-3.9h3v10.3h-3v-3.9h-5.2V-2.4h9.85l2.5-6.7Zm33.55,6.7V0H431.7l-9.1-14.7h-2.8V-2.4h3.9V0H409.85V-2.4h3.9V-30h-3.9v-2.4H424.9q5.15,0,7.8,2.5a8.236,8.236,0,0,1,2.65,6.25,8.391,8.391,0,0,1-1.7,5.2,9.168,9.168,0,0,1-4.7,3.2L437.2-2.4ZM419.8-17.1h4.55a3.911,3.911,0,0,0,3.25-1.925,7.85,7.85,0,0,0,1.35-4.625,7.55,7.55,0,0,0-1.3-4.575A3.939,3.939,0,0,0,424.35-30H419.8ZM501.3-30h-3.9L488.6,0h-3.4l-7.75-22.9L470.5,0h-3.45l-9.2-30H453.9v-2.4h14V-30h-3.95L470.3-8.75l7-23.45h3.2l7.9,23.55L494.6-30h-3.9v-2.4h10.6ZM515.85.6a14.334,14.334,0,0,1-8.425-2.3,13.214,13.214,0,0,1-4.75-5.9,19.98,19.98,0,0,1-1.475-7.65,23.654,23.654,0,0,1,1.575-8.65,14.887,14.887,0,0,1,4.875-6.575A13.1,13.1,0,0,1,515.85-33a14.386,14.386,0,0,1,8.375,2.3,13.245,13.245,0,0,1,4.825,5.925,19.747,19.747,0,0,1,1.5,7.625,23.654,23.654,0,0,1-1.575,8.65A14.887,14.887,0,0,1,524.1-1.925,13.179,13.179,0,0,1,515.85.6Zm.65-2.2a6.342,6.342,0,0,0,5.925-3.45,18.036,18.036,0,0,0,1.925-8.85A28.517,28.517,0,0,0,522.1-26q-2.25-4.8-6.8-4.8a6.381,6.381,0,0,0-5.95,3.5,18.137,18.137,0,0,0-1.95,8.9,27.9,27.9,0,0,0,2.275,12.05Q511.95-1.6,516.5-1.6Zm47.4-.8V0h-8.95l-9.1-14.7h-2.8V-2.4h3.9V0H533.1V-2.4H537V-30h-3.9v-2.4h15.05q5.15,0,7.8,2.5a8.236,8.236,0,0,1,2.65,6.25,8.39,8.39,0,0,1-1.7,5.2,9.168,9.168,0,0,1-4.7,3.2L560.45-2.4ZM543.05-17.1h4.55a3.911,3.911,0,0,0,3.25-1.925,7.85,7.85,0,0,0,1.35-4.625,7.55,7.55,0,0,0-1.3-4.575A3.939,3.939,0,0,0,547.6-30h-4.55ZM596.6-2.4V0h-9.7L576.75-15.85h-1.5V-2.4h3.9V0H565.3V-2.4h3.9V-30h-3.9v-2.4h13.85V-30h-3.9v11.65h2.65L587.3-30h-3.75v-2.4h11.1V-30H590.6l-8.85,11,11,16.6Zm11.9,3a15.635,15.635,0,0,1-6.15-1.125,9.82,9.82,0,0,1-3.8-2.525V-9.1h4.2q.5,3.95,2,5.675A4.871,4.871,0,0,0,608.6-1.7a5.008,5.008,0,0,0,3.775-1.475A5.275,5.275,0,0,0,613.8-7a5.491,5.491,0,0,0-2.6-4.8l-8.45-5.6a10.515,10.515,0,0,1-3.125-3.175A7.974,7.974,0,0,1,598.4-24.95a7.159,7.159,0,0,1,2.725-5.825A11.486,11.486,0,0,1,608.6-33a16.044,16.044,0,0,1,5.8,1,10.229,10.229,0,0,1,4,2.55v6.15h-4.25q-.4-4.15-1.8-5.825a4.584,4.584,0,0,0-3.7-1.675,4.5,4.5,0,0,0-3.475,1.325,4.846,4.846,0,0,0-1.225,3.425,4.727,4.727,0,0,0,2.25,4.15l8.85,5.8a10.373,10.373,0,0,1,3.4,3.575A9.06,9.06,0,0,1,619.65-8a7.531,7.531,0,0,1-1.375,4.45,9.054,9.054,0,0,1-3.9,3.05A14.6,14.6,0,0,1,608.5.6Zm14.8-3.4a3.232,3.232,0,0,1,.975-2.375,3.232,3.232,0,0,1,2.375-.975,3.232,3.232,0,0,1,2.375.975A3.232,3.232,0,0,1,630-2.8a3.232,3.232,0,0,1-.975,2.375A3.232,3.232,0,0,1,626.65.55a3.232,3.232,0,0,1-2.375-.975A3.232,3.232,0,0,1,623.3-2.8Z" transform="translate(929 3849)"/>
    </g>
  </g>
</svg>
