<svg xmlns="http://www.w3.org/2000/svg" width="670" height="62.48" viewBox="0 0 670 62.48">
  <g id="sec06-tit02" transform="translate(-758 -3816)">
    <rect id="長方形_249" data-name="長方形 249" width="670" height="62.48" transform="translate(758 3816)" fill="none"/>
    <g id="グループ_901" data-name="グループ 901" transform="translate(-171.5)">
      <path id="パス_145" data-name="パス 145" d="M.528-.576h1.28V-9.792H.528v-.576H3.264l3.52,8.016,3.392-8.016h2.672v.576h-1.28V-.576h1.28V0H8.928V-.576h1.28v-8.08L6.784-.592H6.048L2.5-8.72V-.576H3.728V0H.528Zm18.7,0V0h-4.5V-.576H16.3V-9.792H14.8v-.576h4.368v.576h-1.5V-.576Zm1.888,0H22.4V-9.792H21.12v-.576h2.608l4.816,7.776v-7.2h-1.28v-.576h3.248v.576h-1.28V0H28.5L23.088-8.816v8.24h1.28V0H21.12Zm15.616,0V0h-4.5V-.576h1.568V-9.792H32.3v-.576h4.368v.576h-1.5V-.576Zm8.752-10.512H40.32V-5.84h4.928a7.206,7.206,0,0,1-.9,2.816,7.3,7.3,0,0,1-2.32-2.32l-.448.144a7.292,7.292,0,0,0,2.208,2.96A9.864,9.864,0,0,1,38.752.752l.16.448A10.566,10.566,0,0,0,44.8-1.536,21.155,21.155,0,0,0,52.752,1.1a15.836,15.836,0,0,1,.7-1.488A23.215,23.215,0,0,1,45.488-2.4,7.888,7.888,0,0,0,46.64-5.84h5.52v-5.248h-5.3v-1.728c.208-.16.256-.208.256-.32,0-.144-.112-.208-.352-.208h-1.28ZM41.664-6.48v-3.968h3.808c.016,1.024-.064,2.752-.16,3.968Zm5.04,0c.08-1.232.1-1.472.128-2.944l.016-1.024h3.968V-6.48ZM61.52-.384H56.24l-.672-.128V.464L56.24.336H69.616l.672.128V-.512l-.672.128H63.04V-7.776h5.1l.672.128v-.976l-.672.128h-5.1V-12.7c.208-.144.256-.208.256-.3,0-.16-.112-.224-.336-.224H61.52ZM76.1-6.8a20.577,20.577,0,0,0,2.448-4.016H76.128v-2c.208-.144.256-.208.256-.32,0-.144-.112-.208-.336-.208H74.864v2.528h-1.7l-.624-.128v.9l.624-.128H76.8A26.822,26.822,0,0,1,72.4-3.9l.288.384a19.418,19.418,0,0,0,2.16-1.856v6.56H76.1V-5.792a12.076,12.076,0,0,1,1.648,2.544l1.008-1.024a9.38,9.38,0,0,0-1.776-1.392A7.728,7.728,0,0,0,78.5-6.8c.32,0,.512-.08.512-.24,0-.08-.064-.16-.208-.256l-.976-.64A10.372,10.372,0,0,1,76.576-5.92c-.288-.176-.368-.224-.48-.288Zm6.064-4.816h2.8c-.1,4.768-.544,10.912-.816,11.408a.987.987,0,0,1-1.136.624h-1.52v.672h2.368A1.646,1.646,0,0,0,85.232.656c.336-.336.448-.784.576-2.064.32-3.632.5-7.28.56-10.848H79.216l-.624-.128v.9l.624-.128h1.568v.992c-.112,6.112-1.168,9.28-3.792,11.456l.3.448A8.172,8.172,0,0,0,81.1-3.184a23.064,23.064,0,0,0,1.056-7.44ZM96.768.288a9.231,9.231,0,0,0,4.4-1.6A5.661,5.661,0,0,0,103.472-6c0-3.52-2.608-5.84-6.592-5.84a7.348,7.348,0,0,0-4.8,1.584,6.551,6.551,0,0,0-2.352,5.1c0,2.4,1.1,4.144,2.608,4.144a2.787,2.787,0,0,0,2.016-1.1A9.811,9.811,0,0,0,96.128-5.2a26.041,26.041,0,0,0,1.36-5.808,4.313,4.313,0,0,1,2.464.816,4.9,4.9,0,0,1,1.968,4.08,5.581,5.581,0,0,1-2.736,4.848A9.354,9.354,0,0,1,96.64-.208ZM96.08-11.04a30.1,30.1,0,0,1-.736,3.9c-.8,3.04-2.048,5.3-2.944,5.3-.752,0-1.36-1.424-1.36-3.248A6.286,6.286,0,0,1,92.592-9.28,5.062,5.062,0,0,1,96.08-11.04Zm19.856,6.432h3.808l.624.128v-.9l-.624.128H107.12l-.64-.128v.9l.64-.128h3.52C110.5-1.824,109.008-.1,106.064.7l.176.5c3.744-.544,5.7-2.5,5.84-5.808h2.512v3.84c.032,1.232.4,1.536,1.9,1.552h2.416c1.088,0,1.536-.4,1.664-1.488l.208-1.808-.72-.128-.176,1.52c-.08.5-.24.656-.736.656h-2.464c-.592-.032-.752-.16-.752-.64Zm-3.312-7.008h-4.432v-.176a1.631,1.631,0,0,0-.08-.528h-.544a4.275,4.275,0,0,1-1.5,2.672l1.008,1.2a3.452,3.452,0,0,0,1.088-2.528h10.752a11.2,11.2,0,0,1-.736,1.792l.384.288a5.9,5.9,0,0,0,2.224-2.72h-6.7v-1.3c.208-.144.256-.208.256-.32,0-.144-.112-.208-.336-.208h-1.376Zm-3.44,3.648h8.448l.64.128v-.9l-.64.128h-8.448l-.64-.128v.9Zm21.52-4.72c.272-.1.384-.208.384-.352,0-.128-.112-.224-.32-.24l-1.36-.16a16.54,16.54,0,0,1-2.384,3.3A23.047,23.047,0,0,1,122.9-6.608l.208.416a17.09,17.09,0,0,0,7.248-5.984l.064.1a14.028,14.028,0,0,0,6.5,5.584,8.66,8.66,0,0,1,.7-1.456,15.089,15.089,0,0,1-4.512-2.416,14.37,14.37,0,0,1-2.432-2.272Zm.176,6.064h3.456l.64.128v-.9l-.64.128h-8.16l-.64-.128v.9l.64-.128H129.5v2.8H126l-.624-.128v.9L126-3.184h3.5V.048H124.32l-.64-.128v.9l.64-.128h12.048l.64.128v-.9l-.64.128H130.88V-3.184h3.632l.624.128v-.9l-.624.128H130.88Zm16.656,5.232h5.312v-4.5H141.3V-.3h1.2V-1.392h3.856V-.144c.032.768.416,1.024,1.584,1.056h5.008c.864,0,1.216-.3,1.344-1.168l.144-1.184-.624-.064-.128.8c-.08.432-.256.56-.784.576h-4.768c-.528-.032-.608-.08-.592-.48Zm0-3.856h4.08V-4h-4.08Zm0,1.888h4.08v1.328h-4.08Zm-1.184,1.328H142.5V-3.36h3.856Zm0-1.968H142.5V-5.248h3.856Zm0-6.4v3.856h1.184V-10.4h5.312a15.071,15.071,0,0,1-.784,2.208L152.48-8a6.015,6.015,0,0,0,1.952-3.04h-6.9v-1.1h4.96l.64.128v-.9l-.64.128H141.872l-.624-.128v.9l.624-.128h4.48v1.1H141.6v-.048l-.016-.416h-.544a4.387,4.387,0,0,1-1.312,2.688l.992,1.12a4.282,4.282,0,0,0,.88-2.7Zm-4.3,3.392h3.5v-.64h-3.5Zm0-1.7h3.5v-.64h-3.5Zm6.288,1.7H151.9v-.64h-3.568Zm0-1.7h3.552v-.64h-3.552Zm13.04,4.416h2.976V-8.816h-2.976V-10h2.784l.64.128v-.9l-.64.128h-2.784v-1.392a20.792,20.792,0,0,0,2.144-.32,2.1,2.1,0,0,0,.5.08c.176,0,.3-.1.3-.24,0-.1-.032-.144-.208-.272l-.816-.656a37.248,37.248,0,0,1-6.448,1.232l.064.48c1.2-.032,2.192-.08,3.408-.192v1.28h-3.1l-.64-.128v.9l.64-.128h3.1v1.184h-2.96v4.528h2.96v1.216h-2.5l-.64-.128v.9l.64-.128h2.5V-.944c-1.712.112-2.976.192-3.76.224l.432,1.152c.064.16.176.288.288.288.128,0,.208-.1.3-.352a44.387,44.387,0,0,0,7.04-1.232l-.08-.448c-1.056.128-1.072.128-2.176.208-.208.016-.5.048-.992.08V-2.432h2.48l.64.128v-.9l-.64.128h-2.48ZM160.32-4.88h-1.856V-6.3h1.856Zm1.056,0V-6.3h1.872V-4.88ZM160.32-6.9h-1.856V-8.224h1.856Zm1.056,0V-8.224h1.872V-6.9Zm4.176-2.768-.624-.128v.9l.624-.128h.912c-.192,5.7-.992,8.224-3.072,9.9l.288.4a6.545,6.545,0,0,0,3.152-3.936,23.132,23.132,0,0,0,.864-6.368h1.744c-.064,2.464-.352,7.28-.512,8.224-.128.992-.256,1.184-.88,1.2H166.8v.672h1.84a1.266,1.266,0,0,0,1.488-1.264c.192-.96.432-4.72.592-9.472h-2.992c.032-.736.048-1.536.048-2.448v-.608c.208-.144.256-.208.256-.32,0-.144-.112-.208-.336-.208h-1.168v1.136c0,1.184-.016,1.968-.032,2.448Zm21.536.192a13.178,13.178,0,0,1-10.816,8.16l-.752.016L176.1.08c.1.224.208.336.384.336.16,0,.272-.08.4-.32a14.776,14.776,0,0,0,7.168-3.248,12.214,12.214,0,0,0,3.552-6.16Zm-11.36-2.352a15.522,15.522,0,0,1,4.112,1.952l.848-1.424a10.344,10.344,0,0,0-4.864-.976Zm-.784,4.512a14.379,14.379,0,0,1,4.1,1.776l.816-1.424a8.838,8.838,0,0,0-3.984-.8c-.208,0-.464,0-.832.016Zm28.9.448.7.144V-7.744l-.7.144H191.328l-.7-.144V-6.72l.7-.144h5.712a9,9,0,0,1-.544,3.5A7.427,7.427,0,0,1,191.648.352l.128.528c2.592-.528,4.7-1.648,5.632-2.976a7.643,7.643,0,0,0,1.184-4.768Zm-2.08-5.184h-8.448l-.7-.144v1.024l.7-.144h8.448l.7.144v-1.024ZM214.384,1.024h1.344v-7.1c.784-.688,1.392-1.264,2.24-2.144.3-.032.432-.1.432-.272,0-.1-.064-.176-.208-.272l-1.1-.752-.448.656a21.137,21.137,0,0,1-7.552,5.872l.144.432a15.175,15.175,0,0,0,5.152-2.448Zm16.88-8.832A1.738,1.738,0,0,0,229.5-6.08a1.738,1.738,0,0,0,1.744,1.744,1.745,1.745,0,0,0,1.728-1.744A1.749,1.749,0,0,0,231.264-7.808Zm16.336-2.96c.176-.352.32-.7.56-1.328.3-.144.416-.24.416-.416,0-.144-.112-.24-.352-.288l-1.5-.32-.16.912a13.641,13.641,0,0,1-4.3,6.368l.256.384a10.736,10.736,0,0,0,4.7-4.576h5.008a13.972,13.972,0,0,1-3.9,7.168,15.725,15.725,0,0,1-6,3.136l.1.48A14.244,14.244,0,0,0,248.848-1.7c2.64-1.92,4.4-5.024,5.136-9.072Zm11.648-.5V-.9h11.328V-11.264Zm1.52.736h8.288v8.9h-8.288Zm22.368,5.2a20.147,20.147,0,0,0,3.3-6.48H276.96l-.7-.144v1.024l.7-.144h7.568A18.438,18.438,0,0,1,274.864-.288l.224.5A16.085,16.085,0,0,0,282.8-4.9,27.31,27.31,0,0,1,287.376.32L288.8-.832a19.544,19.544,0,0,0-5.456-4.384ZM300.3-.832c-.032.672-.256.88-.928.9h-1.664V.8h2.624a1.551,1.551,0,0,0,1.04-.3,1.412,1.412,0,0,0,.4-.96V-.72l-.192-8.224h3.536l.64.128v-.992l-.64.128h-3.552l-.064-2.592c.208-.16.272-.256.272-.384,0-.16-.144-.272-.4-.272l-1.488-.08.16,1.072L300.1-9.68h-7.248l-.64-.128v.992l.64-.128h6.288L299.1-8.9a18.977,18.977,0,0,1-7.2,7.776l.208.384c3.328-1.248,5.456-3.072,8.032-6.912Zm21.888-5.632-13.36-.5v1.68l13.36-.48Zm17.568-5.472a3.2,3.2,0,0,0-1.888-1.664l-.256.224a6.431,6.431,0,0,1,1.072,2.016ZM325.152-.24c2.64-2.1,4.352-5.168,5.248-9.472.352-.128.5-.272.5-.48,0-.16-.128-.288-.368-.352l-1.664-.416-.048.928A21.717,21.717,0,0,1,324.8-.544ZM333.2-10.624A30.8,30.8,0,0,1,337.632-.352L339.3-1.28c-1.152-3.92-3.344-7.664-5.664-9.68Zm2.544-2.512a7.033,7.033,0,0,1,.976,2.192l1.072-.512a3.166,3.166,0,0,0-1.76-1.888Zm20.112,6.672-13.36-.5v1.68l13.36-.48Z" transform="translate(929 3877.2)" fill="#ee510e"/>
      <path id="パス_144" data-name="パス 144" d="M32.85-2.4V0H19V-2.4h3.9l-3.05-9.05H10.4L7.25-2.4h3.7V0H.5V-2.4H4.3L15-32.4h3.55l10.7,30ZM19-13.95,15.3-24.9h-.25l-3.8,10.95ZM34.4-2.4h3.9V-30H34.4v-2.4H48.25V-30h-3.9V-2.4H54.2l2.5-6.7h3.5V0H34.4Zm27.95,0h3.9V-30h-3.9v-2.4H76.2V-30H72.3V-2.4h9.85l2.5-6.7h3.5V0H62.35ZM91.1-14.45h11.4v2.9H91.1ZM131.4-9.1V0H105.6V-2.4h3.9V-30h-3.9v-2.4H131v9.1h-3.5L124.95-30h-9.4v11.65h5.2v-3.9h3v10.3h-3v-3.9h-5.2V-2.4h9.85l2.5-6.7Zm2.75,6.7h3.9V-30h-3.9v-2.4H148V-30h-3.9V-2.4h9.85l2.5-6.7h3.5V0h-25.8ZM187.9-9.1V0H162.1V-2.4H166V-30h-3.9v-2.4h25.4v9.1H184L181.45-30h-9.4v11.65h5.2v-3.9h3v10.3h-3v-3.9h-5.2V-2.4h9.85l2.5-6.7ZM205.55.6a14.109,14.109,0,0,1-8.425-2.35,13.5,13.5,0,0,1-4.75-5.975A20.3,20.3,0,0,1,190.9-15.45a23.594,23.594,0,0,1,1.55-8.6,14.5,14.5,0,0,1,4.825-6.475A13.339,13.339,0,0,1,205.55-33a16.4,16.4,0,0,1,5.65.85,26.636,26.636,0,0,1,4.4,2.1v6.75h-4.25q-.4-3.9-2.1-5.7A5.6,5.6,0,0,0,205-30.8a6.381,6.381,0,0,0-5.95,3.5,18.021,18.021,0,0,0-1.95,8.85,27.508,27.508,0,0,0,1.225,8.675A12.939,12.939,0,0,0,201.7-4.15a7.031,7.031,0,0,0,4.85,1.95,7.488,7.488,0,0,0,4.9-1.725,8.691,8.691,0,0,0,2.8-5.225h2.6a11.3,11.3,0,0,1-3.825,7.2A11.325,11.325,0,0,1,205.55.6Zm19.3-3h4.75V-30h-4.5l-2.5,6.7h-3.25v-9.1H245.9v9.1h-3.25L240.1-30h-4.45V-2.4h4.75V0H224.85Zm53.95,0V0h-8.95l-9.1-14.7h-2.8V-2.4h3.9V0H248V-2.4h3.9V-30H248v-2.4h15.05q5.15,0,7.8,2.5a8.236,8.236,0,0,1,2.65,6.25,8.391,8.391,0,0,1-1.7,5.2,9.168,9.168,0,0,1-4.7,3.2L275.35-2.4ZM257.95-17.1h4.55a3.911,3.911,0,0,0,3.25-1.925,7.85,7.85,0,0,0,1.35-4.625,7.55,7.55,0,0,0-1.3-4.575A3.939,3.939,0,0,0,262.5-30h-4.55ZM291.1-30V-2.4h4.85V0H280.2V-2.4h4.85V-30H280.2v-2.4h15.75V-30ZM313.15.6a14.109,14.109,0,0,1-8.425-2.35,13.5,13.5,0,0,1-4.75-5.975A20.3,20.3,0,0,1,298.5-15.45a23.594,23.594,0,0,1,1.55-8.6,14.5,14.5,0,0,1,4.825-6.475A13.338,13.338,0,0,1,313.15-33a16.4,16.4,0,0,1,5.65.85,26.636,26.636,0,0,1,4.4,2.1v6.75h-4.25q-.4-3.9-2.1-5.7a5.6,5.6,0,0,0-4.25-1.8,6.381,6.381,0,0,0-5.95,3.5,18.021,18.021,0,0,0-1.95,8.85,27.507,27.507,0,0,0,1.225,8.675A12.939,12.939,0,0,0,309.3-4.15a7.031,7.031,0,0,0,4.85,1.95,7.488,7.488,0,0,0,4.9-1.725,8.691,8.691,0,0,0,2.8-5.225h2.6a11.3,11.3,0,0,1-3.825,7.2A11.325,11.325,0,0,1,313.15.6Zm26.45-3h3.9V-30h-3.9v-2.4h9.65L359.7-9.55l9.75-22.85h9.65V-30h-3.9V-2.4h3.9V0H365.4V-2.4h3.75V-24.75L359.6-2.4h-3.1L346.25-24.7V-2.4h3.7V0H339.6ZM392.3-30V-2.4h4.85V0H381.4V-2.4h4.85V-30H381.4v-2.4h15.75V-30Zm7.15,27.6h3.9V-30h-3.9v-2.4h8.95l14.25,22.3V-30H418.8v-2.4h10.5V-30h-3.9V0h-3.7L406.1-24.65V-2.4h3.75V0h-10.4ZM442-30V-2.4h4.85V0H431.1V-2.4h4.85V-30H431.1v-2.4h15.75V-30ZM493.35-2.4V0H479.5V-2.4h3.9l-3.05-9.05H470.9L467.75-2.4h3.7V0H461V-2.4h3.8l10.7-30h3.55l10.7,30ZM479.5-13.95,475.8-24.9h-.25l-3.8,10.95ZM508.3.6a14.109,14.109,0,0,1-8.425-2.35,13.5,13.5,0,0,1-4.75-5.975,20.3,20.3,0,0,1-1.475-7.725,23.594,23.594,0,0,1,1.55-8.6,14.5,14.5,0,0,1,4.825-6.475A13.338,13.338,0,0,1,508.3-33a16.4,16.4,0,0,1,5.65.85,26.635,26.635,0,0,1,4.4,2.1v6.75H514.1q-.4-3.9-2.1-5.7a5.6,5.6,0,0,0-4.25-1.8,6.381,6.381,0,0,0-5.95,3.5,18.021,18.021,0,0,0-1.95,8.85,27.507,27.507,0,0,0,1.225,8.675A12.939,12.939,0,0,0,504.45-4.15,7.031,7.031,0,0,0,509.3-2.2a7.488,7.488,0,0,0,4.9-1.725A8.691,8.691,0,0,0,517-9.15h2.6a11.3,11.3,0,0,1-3.825,7.2A11.325,11.325,0,0,1,508.3.6Zm39.75-9.7V0h-25.8V-2.4h3.9V-30h-3.9v-2.4h25.4v9.1h-3.5L541.6-30h-9.4v11.65h5.2v-3.9h3v10.3h-3v-3.9h-5.2V-2.4h9.85l2.5-6.7Zm2.75,6.7h3.9V-30h-3.9v-2.4h9.65L570.9-9.55l9.75-22.85h9.65V-30h-3.9V-2.4h3.9V0H576.6V-2.4h3.75V-24.75L570.8-2.4h-3.1L557.45-24.7V-2.4h3.7V0H550.8Zm73.5,0V0H610.45V-2.4h3.9l-3.05-9.05h-9.45L598.7-2.4h3.7V0H591.95V-2.4h3.8l10.7-30H610l10.7,30ZM610.45-13.95l-3.7-10.95h-.25l-3.8,10.95ZM625.85-2.4h3.9V-30h-3.9v-2.4h8.95l14.25,22.3V-30H645.2v-2.4h10.5V-30h-3.9V0h-3.7L632.5-24.65V-2.4h3.75V0h-10.4Zm32.55-.4a3.232,3.232,0,0,1,.975-2.375,3.232,3.232,0,0,1,2.375-.975,3.232,3.232,0,0,1,2.375.975A3.232,3.232,0,0,1,665.1-2.8a3.232,3.232,0,0,1-.975,2.375A3.232,3.232,0,0,1,661.75.55a3.232,3.232,0,0,1-2.375-.975A3.232,3.232,0,0,1,658.4-2.8Z" transform="translate(929 3849)" fill="#ee510e"/>
    </g>
  </g>
</svg>
