<svg xmlns="http://www.w3.org/2000/svg" width="612" height="64" viewBox="0 0 612 64">
  <g id="sec06-tit02-sp" transform="translate(-929 -3815)">
    <rect id="長方形_254" data-name="長方形 254" width="612" height="64" transform="translate(929 3815)" fill="none"/>
    <g id="グループ_903" data-name="グループ 903" transform="translate(-0.46)">
      <path id="パス_157" data-name="パス 157" d="M.66-.72h1.6V-12.24H.66v-.72H4.08L8.48-2.94l4.24-10.02h3.34v.72h-1.6V-.72h1.6V0h-4.9V-.72h1.6v-10.1L8.48-.74H7.56L3.12-10.9V-.72H4.66V0h-4Zm23.38,0V0H18.42V-.72h1.96V-12.24H18.5v-.72h5.46v.72H22.08V-.72Zm2.36,0H28V-12.24H26.4v-.72h3.26l6.02,9.72v-9h-1.6v-.72h4.06v.72h-1.6V0h-.92L28.86-11.02V-.72h1.6V0H26.4Zm19.52,0V0H40.3V-.72h1.96V-12.24H40.38v-.72h5.46v.72H43.96V-.72ZM56.86-13.86H50.4V-7.3h6.16a9.008,9.008,0,0,1-1.12,3.52,9.118,9.118,0,0,1-2.9-2.9l-.56.18a9.115,9.115,0,0,0,2.76,3.7A12.331,12.331,0,0,1,48.44.94l.2.56A13.207,13.207,0,0,0,56-1.92c2.34,1.5,5.58,2.58,9.94,3.3a19.794,19.794,0,0,1,.88-1.86A29.019,29.019,0,0,1,56.86-3,9.86,9.86,0,0,0,58.3-7.3h6.9v-6.56H58.58v-2.16c.26-.2.32-.26.32-.4,0-.18-.14-.26-.44-.26h-1.6ZM52.08-8.1v-4.96h4.76c.02,1.28-.08,3.44-.2,4.96Zm6.3,0c.1-1.54.12-1.84.16-3.68l.02-1.28h4.96V-8.1ZM76.9-.48H70.3l-.84-.16V.58L70.3.42H87.02l.84.16V-.64l-.84.16H78.8V-9.72h6.38l.84.16v-1.22l-.84.16H78.8v-5.26c.26-.18.32-.26.32-.38,0-.2-.14-.28-.42-.28H76.9ZM95.12-8.5a25.721,25.721,0,0,0,3.06-5.02H95.16v-2.5c.26-.18.32-.26.32-.4,0-.18-.14-.26-.42-.26H93.58v3.16H91.46l-.78-.16v1.12l.78-.16H96a33.527,33.527,0,0,1-5.5,7.84l.36.48a24.273,24.273,0,0,0,2.7-2.32v8.2h1.56V-7.24a15.094,15.094,0,0,1,2.06,3.18l1.26-1.28a11.724,11.724,0,0,0-2.22-1.74,9.661,9.661,0,0,0,1.9-1.42c.4,0,.64-.1.64-.3,0-.1-.08-.2-.26-.32l-1.22-.8A12.965,12.965,0,0,1,95.72-7.4c-.36-.22-.46-.28-.6-.36Zm7.58-6.02h3.5c-.12,5.96-.68,13.64-1.02,14.26a1.234,1.234,0,0,1-1.42.78h-1.9v.84h2.96a2.057,2.057,0,0,0,1.72-.54c.42-.42.56-.98.72-2.58.4-4.54.62-9.1.7-13.56H99.02l-.78-.16v1.12l.78-.16h1.96v1.24c-.14,7.64-1.46,11.6-4.74,14.32l.38.56a10.215,10.215,0,0,0,4.76-5.58c.74-1.66,1.28-5.46,1.32-9.3ZM120.96.36a11.539,11.539,0,0,0,5.5-2,7.076,7.076,0,0,0,2.88-5.86c0-4.4-3.26-7.3-8.24-7.3a9.185,9.185,0,0,0-6,1.98,8.189,8.189,0,0,0-2.94,6.38c0,3,1.38,5.18,3.26,5.18a3.483,3.483,0,0,0,2.52-1.38,12.263,12.263,0,0,0,2.22-3.86,32.551,32.551,0,0,0,1.7-7.26,5.391,5.391,0,0,1,3.08,1.02,6.124,6.124,0,0,1,2.46,5.1,6.977,6.977,0,0,1-3.42,6.06A11.692,11.692,0,0,1,120.8-.26ZM120.1-13.8a37.629,37.629,0,0,1-.92,4.88c-1,3.8-2.56,6.62-3.68,6.62-.94,0-1.7-1.78-1.7-4.06a7.857,7.857,0,0,1,1.94-5.24A6.327,6.327,0,0,1,120.1-13.8Zm24.82,8.04h4.76l.78.16V-6.72l-.78.16H133.9l-.8-.16V-5.6l.8-.16h4.4c-.18,3.48-2.04,5.64-5.72,6.64l.22.62c4.68-.68,7.12-3.12,7.3-7.26h3.14v4.8c.04,1.54.5,1.92,2.38,1.94h3.02c1.36,0,1.92-.5,2.08-1.86l.26-2.26-.9-.16-.22,1.9c-.1.62-.3.82-.92.82h-3.08c-.74-.04-.94-.2-.94-.8Zm-4.14-8.76h-5.54v-.22a2.039,2.039,0,0,0-.1-.66h-.68a5.344,5.344,0,0,1-1.88,3.34l1.26,1.5a4.315,4.315,0,0,0,1.36-3.16h13.44a14,14,0,0,1-.92,2.24l.48.36a7.376,7.376,0,0,0,2.78-3.4H142.6v-1.62c.26-.18.32-.26.32-.4,0-.18-.14-.26-.42-.26h-1.72Zm-4.3,4.56h10.56l.8.16v-1.12l-.8.16H136.48l-.8-.16V-9.8Zm26.9-5.9c.34-.12.48-.26.48-.44,0-.16-.14-.28-.4-.3l-1.7-.2a20.676,20.676,0,0,1-2.98,4.12,28.809,28.809,0,0,1-5.16,4.42l.26.52a21.363,21.363,0,0,0,9.06-7.48l.08.12a17.535,17.535,0,0,0,8.12,6.98,10.828,10.828,0,0,1,.88-1.82,18.861,18.861,0,0,1-5.64-3.02,17.963,17.963,0,0,1-3.04-2.84Zm.22,7.58h4.32l.8.16V-9.24l-.8.16h-10.2l-.8-.16v1.12l.8-.16h4.16v3.5H157.5l-.78-.16v1.12l.78-.16h4.38V.06H155.4l-.8-.16V1.02l.8-.16h15.06l.8.16V-.1l-.8.16H163.6V-3.98h4.54l.78.16V-4.94l-.78.16H163.6Zm20.82,6.54h6.64V-7.36H176.62V-.38h1.5V-1.74h4.82V-.18c.04.96.52,1.28,1.98,1.32h6.26c1.08,0,1.52-.38,1.68-1.46l.18-1.48-.78-.08-.16,1c-.1.54-.32.7-.98.72h-5.96c-.66-.04-.76-.1-.74-.6Zm0-4.82h5.1V-5h-5.1Zm0,2.36h5.1v1.66h-5.1Zm-1.48,1.66h-4.82V-4.2h4.82Zm0-2.46h-4.82V-6.56h4.82Zm0-8v4.82h1.48V-13h6.64a18.837,18.837,0,0,1-.98,2.76l.52.24a7.519,7.519,0,0,0,2.44-3.8h-8.62v-1.38h6.2l.8.16v-1.12l-.8.16H177.34l-.78-.16v1.12l.78-.16h5.6v1.38H177v-.06l-.02-.52h-.68a5.484,5.484,0,0,1-1.64,3.36l1.24,1.4A5.353,5.353,0,0,0,177-13Zm-5.38,4.24h4.38v-.8h-4.38Zm0-2.12h4.38v-.8h-4.38Zm7.86,2.12h4.46v-.8h-4.46Zm0-2.12h4.44v-.8h-4.44Zm16.3,5.52h3.72v-5.66h-3.72V-12.5h3.48l.8.16v-1.12l-.8.16h-3.48v-1.74a25.99,25.99,0,0,0,2.68-.4,2.624,2.624,0,0,0,.62.1c.22,0,.38-.12.38-.3,0-.12-.04-.18-.26-.34l-1.02-.82a46.559,46.559,0,0,1-8.06,1.54l.08.6c1.5-.04,2.74-.1,4.26-.24v1.6h-3.88l-.8-.16v1.12l.8-.16h3.88v1.48h-3.7v5.66h3.7v1.52h-3.12l-.8-.16v1.12l.8-.16h3.12v1.86c-2.14.14-3.72.24-4.7.28l.54,1.44c.08.2.22.36.36.36.16,0,.26-.12.38-.44a55.485,55.485,0,0,0,8.8-1.54l-.1-.56c-1.32.16-1.34.16-2.72.26-.26.02-.62.06-1.24.1V-3.04h3.1l.8.16V-4l-.8.16h-3.1ZM200.4-6.1h-2.32V-7.88h2.32Zm1.32,0V-7.88h2.34V-6.1ZM200.4-8.62h-2.32v-1.66h2.32Zm1.32,0v-1.66h2.34v1.66Zm5.22-3.46-.78-.16v1.12l.78-.16h1.14C207.84-4.16,206.84-1,204.24,1.1l.36.5a8.181,8.181,0,0,0,3.94-4.92,28.915,28.915,0,0,0,1.08-7.96h2.18c-.08,3.08-.44,9.1-.64,10.28C211,.24,210.84.48,210.06.5H208.5v.84h2.3a1.582,1.582,0,0,0,1.86-1.58c.24-1.2.54-5.9.74-11.84h-3.74c.04-.92.06-1.92.06-3.06v-.76c.26-.18.32-.26.32-.4,0-.18-.14-.26-.42-.26h-1.46v1.42c0,1.48-.02,2.46-.04,3.06Zm26.92.24a16.472,16.472,0,0,1-13.52,10.2l-.94.02L220.12.1c.12.28.26.42.48.42.2,0,.34-.1.5-.4a18.47,18.47,0,0,0,8.96-4.06,15.267,15.267,0,0,0,4.44-7.7Zm-14.2-2.94a19.4,19.4,0,0,1,5.14,2.44l1.06-1.78a12.93,12.93,0,0,0-6.08-1.22Zm-.98,5.64a17.974,17.974,0,0,1,5.12,2.22l1.02-1.78a11.048,11.048,0,0,0-4.98-1c-.26,0-.58,0-1.04.02Zm36.12.56.88.18V-9.68l-.88.18H239.16l-.88-.18V-8.4l.88-.18h7.14a11.253,11.253,0,0,1-.68,4.38c-.86,2.02-3.12,3.76-6.06,4.64l.16.66c3.24-.66,5.88-2.06,7.04-3.72,1.02-1.36,1.48-3.2,1.48-5.96Zm-2.6-6.48H241.64l-.88-.18v1.28l.88-.18H252.2l.88.18v-1.28ZM267.98,1.28h1.68V-7.6c.98-.86,1.74-1.58,2.8-2.68.38-.04.54-.12.54-.34,0-.12-.08-.22-.26-.34l-1.38-.94-.56.82a26.421,26.421,0,0,1-9.44,7.34l.18.54a18.968,18.968,0,0,0,6.44-3.06Zm21.1-11.04a2.173,2.173,0,0,0-2.2,2.16,2.172,2.172,0,0,0,2.18,2.18,2.181,2.181,0,0,0,2.16-2.18A2.186,2.186,0,0,0,289.08-9.76Zm20.42-3.7c.22-.44.4-.88.7-1.66.38-.18.52-.3.52-.52,0-.18-.14-.3-.44-.36l-1.88-.4-.2,1.14a17.052,17.052,0,0,1-5.38,7.96l.32.48a13.42,13.42,0,0,0,5.88-5.72h6.26a17.466,17.466,0,0,1-4.88,8.96A19.656,19.656,0,0,1,302.9.34l.12.6c3.8-.7,5.84-1.48,8.04-3.06,3.3-2.4,5.5-6.28,6.42-11.34Zm14.56-.62V-1.12h14.16V-14.08Zm1.9.92h10.36V-2.04H325.96Zm27.96,6.5a25.184,25.184,0,0,0,4.12-8.1H346.2l-.88-.18v1.28l.88-.18h9.46A23.048,23.048,0,0,1,343.58-.36l.28.62a20.106,20.106,0,0,0,9.64-6.38A34.14,34.14,0,0,1,359.22.4L361-1.04a24.43,24.43,0,0,0-6.82-5.48Zm21.46,5.62c-.04.84-.32,1.1-1.16,1.12h-2.08V1h3.28a1.938,1.938,0,0,0,1.3-.38,1.765,1.765,0,0,0,.5-1.2V-.9l-.24-10.28h4.42l.8.16v-1.24l-.8.16h-4.44l-.08-3.24c.26-.2.34-.32.34-.48,0-.2-.18-.34-.5-.34l-1.86-.1.2,1.34.06,2.82h-9.06l-.8-.16v1.24l.8-.16h7.86l-.04.06a23.722,23.722,0,0,1-9,9.72l.26.48c4.16-1.56,6.82-3.84,10.04-8.64Zm27.36-7.04-16.7-.62v2.1l16.7-.6Zm21.96-6.84A4,4,0,0,0,422.34-17l-.32.28a8.038,8.038,0,0,1,1.34,2.52ZM406.44-.3c3.3-2.62,5.44-6.46,6.56-11.84.44-.16.62-.34.62-.6,0-.2-.16-.36-.46-.44l-2.08-.52-.06,1.16A27.147,27.147,0,0,1,406-.68ZM416.5-13.28A38.5,38.5,0,0,1,422.04-.44l2.08-1.16c-1.44-4.9-4.18-9.58-7.08-12.1Zm3.18-3.14a8.791,8.791,0,0,1,1.22,2.74l1.34-.64a3.957,3.957,0,0,0-2.2-2.36Zm25.14,8.34-16.7-.62v2.1l16.7-.6Z" transform="translate(929 3876.912)" fill="#ee510e"/>
      <path id="パス_156" data-name="パス 156" d="M30.222-2.208V0H17.48V-2.208h3.588l-2.806-8.326H9.568L6.67-2.208h3.4V0H.46V-2.208h3.5l9.844-27.6h3.266l9.844,27.6ZM17.48-12.834l-3.4-10.074h-.23l-3.5,10.074ZM31.648-2.208h3.588V-27.6H31.648v-2.208H44.39V-27.6H40.8V-2.208h9.062l2.3-6.164h3.22V0H31.648Zm25.714,0H60.95V-27.6H57.362v-2.208H70.1V-27.6H66.516V-2.208h9.062l2.3-6.164H81.1V0H57.362Zm26.45-11.086H94.3v2.668H83.812Zm37.076,4.922V0H97.152V-2.208h3.588V-27.6H97.152v-2.208H120.52v8.372H117.3L114.954-27.6h-8.648v10.718h4.784V-20.47h2.76v9.476h-2.76v-3.588h-4.784V-2.208h9.062l2.3-6.164Zm2.53,6.164h3.588V-27.6h-3.588v-2.208H136.16V-27.6h-3.588V-2.208h9.062l2.3-6.164h3.22V0H123.418Zm49.45-6.164V0H149.132V-2.208h3.588V-27.6h-3.588v-2.208H172.5v8.372h-3.22L166.934-27.6h-8.648v10.718h4.784V-20.47h2.76v9.476h-2.76v-3.588h-4.784V-2.208h9.062l2.3-6.164ZM189.106.552a12.98,12.98,0,0,1-7.751-2.162,12.421,12.421,0,0,1-4.37-5.5,18.674,18.674,0,0,1-1.357-7.107,21.706,21.706,0,0,1,1.426-7.912,13.335,13.335,0,0,1,4.439-5.957,12.271,12.271,0,0,1,7.613-2.277,15.086,15.086,0,0,1,5.2.782,24.505,24.505,0,0,1,4.048,1.932v6.21h-3.91a8.817,8.817,0,0,0-1.932-5.244,5.155,5.155,0,0,0-3.91-1.656,5.871,5.871,0,0,0-5.474,3.22,16.58,16.58,0,0,0-1.794,8.142,25.307,25.307,0,0,0,1.127,7.981,11.9,11.9,0,0,0,3.1,5.175,6.469,6.469,0,0,0,4.462,1.794,6.889,6.889,0,0,0,4.508-1.587,8,8,0,0,0,2.576-4.807H199.5a10.392,10.392,0,0,1-3.519,6.624A10.419,10.419,0,0,1,189.106.552Zm17.756-2.76h4.37V-27.6h-4.14l-2.3,6.164H201.8v-8.372h24.426v8.372h-2.99L220.892-27.6H216.8V-2.208h4.37V0H206.862Zm49.634,0V0h-8.234L239.89-13.524h-2.576V-2.208H240.9V0H228.16V-2.208h3.588V-27.6H228.16v-2.208h13.846q4.738,0,7.176,2.3a7.577,7.577,0,0,1,2.438,5.75,7.719,7.719,0,0,1-1.564,4.784,8.434,8.434,0,0,1-4.324,2.944l7.59,11.822ZM237.314-15.732H241.5a3.6,3.6,0,0,0,2.99-1.771,7.221,7.221,0,0,0,1.242-4.255,6.946,6.946,0,0,0-1.2-4.209A3.624,3.624,0,0,0,241.5-27.6h-4.186Zm30.5-11.868V-2.208h4.462V0h-14.49V-2.208h4.462V-27.6h-4.462v-2.208h14.49V-27.6ZM288.1.552a12.98,12.98,0,0,1-7.751-2.162,12.422,12.422,0,0,1-4.37-5.5,18.674,18.674,0,0,1-1.357-7.107,21.707,21.707,0,0,1,1.426-7.912,13.335,13.335,0,0,1,4.439-5.957A12.271,12.271,0,0,1,288.1-30.36a15.086,15.086,0,0,1,5.2.782,24.5,24.5,0,0,1,4.048,1.932v6.21h-3.91A8.817,8.817,0,0,0,291.5-26.68a5.155,5.155,0,0,0-3.91-1.656,5.871,5.871,0,0,0-5.474,3.22,16.579,16.579,0,0,0-1.794,8.142,25.308,25.308,0,0,0,1.127,7.981,11.9,11.9,0,0,0,3.105,5.175,6.469,6.469,0,0,0,4.462,1.794,6.889,6.889,0,0,0,4.508-1.587A8,8,0,0,0,296.1-8.418h2.392a10.392,10.392,0,0,1-3.519,6.624A10.419,10.419,0,0,1,288.1.552Zm24.334-2.76h3.588V-27.6h-3.588v-2.208h8.878l9.614,21.022,8.97-21.022h8.878V-27.6h-3.588V-2.208h3.588V0h-12.6V-2.208h3.45V-22.77L330.832-2.208H327.98l-9.43-20.516V-2.208h3.4V0h-9.522ZM360.916-27.6V-2.208h4.462V0h-14.49V-2.208h4.462V-27.6h-4.462v-2.208h14.49V-27.6Zm6.578,25.392h3.588V-27.6h-3.588v-2.208h8.234l13.11,20.516V-27.6H385.3v-2.208h9.66V-27.6h-3.588V0h-3.4L373.612-22.678v20.47h3.45V0h-9.568ZM406.64-27.6V-2.208H411.1V0h-14.49V-2.208h4.462V-27.6h-4.462v-2.208H411.1V-27.6ZM453.882-2.208V0H441.14V-2.208h3.588l-2.806-8.326h-8.694l-2.9,8.326h3.4V0H424.12V-2.208h3.5l9.844-27.6h3.266l9.844,27.6ZM441.14-12.834l-3.4-10.074h-.23l-3.5,10.074ZM467.636.552a12.98,12.98,0,0,1-7.751-2.162,12.422,12.422,0,0,1-4.37-5.5,18.674,18.674,0,0,1-1.357-7.107,21.707,21.707,0,0,1,1.426-7.912,13.335,13.335,0,0,1,4.439-5.957,12.271,12.271,0,0,1,7.613-2.277,15.086,15.086,0,0,1,5.2.782,24.5,24.5,0,0,1,4.048,1.932v6.21h-3.91a8.817,8.817,0,0,0-1.932-5.244,5.155,5.155,0,0,0-3.91-1.656,5.871,5.871,0,0,0-5.474,3.22,16.579,16.579,0,0,0-1.794,8.142,25.308,25.308,0,0,0,1.127,7.981,11.9,11.9,0,0,0,3.105,5.175,6.469,6.469,0,0,0,4.462,1.794,6.889,6.889,0,0,0,4.508-1.587,8,8,0,0,0,2.576-4.807h2.392a10.392,10.392,0,0,1-3.519,6.624A10.419,10.419,0,0,1,467.636.552Zm36.57-8.924V0H480.47V-2.208h3.588V-27.6H480.47v-2.208h23.368v8.372h-3.22L498.272-27.6h-8.648v10.718h4.784V-20.47h2.76v9.476h-2.76v-3.588h-4.784V-2.208h9.062l2.3-6.164Zm2.53,6.164h3.588V-27.6h-3.588v-2.208h8.878l9.614,21.022,8.97-21.022h8.878V-27.6h-3.588V-2.208h3.588V0h-12.6V-2.208h3.45V-22.77L525.136-2.208h-2.852l-9.43-20.516V-2.208h3.4V0h-9.522Zm67.62,0V0H561.614V-2.208H565.2L562.4-10.534H553.7l-2.9,8.326h3.4V0h-9.614V-2.208h3.5l9.844-27.6H561.2l9.844,27.6ZM561.614-12.834l-3.4-10.074h-.23l-3.5,10.074ZM575.782-2.208h3.588V-27.6h-3.588v-2.208h8.234l13.11,20.516V-27.6h-3.542v-2.208h9.66V-27.6h-3.588V0h-3.4L581.9-22.678v20.47h3.45V0h-9.568Zm29.946-.368a2.974,2.974,0,0,1,.9-2.185,2.973,2.973,0,0,1,2.185-.9,2.974,2.974,0,0,1,2.185.9,2.974,2.974,0,0,1,.9,2.185,2.974,2.974,0,0,1-.9,2.185,2.974,2.974,0,0,1-2.185.9,2.973,2.973,0,0,1-2.185-.9A2.974,2.974,0,0,1,605.728-2.576Z" transform="translate(929 3845.36)" fill="#ee510e"/>
    </g>
  </g>
</svg>
