<svg xmlns="http://www.w3.org/2000/svg" width="680" height="137" viewBox="0 0 680 137">
  <g id="グループ_894" data-name="グループ 894" transform="translate(-453 -7616)">
    <g id="長方形_202" data-name="長方形 202" transform="translate(453 7616)" fill="#fff" stroke="#707070" stroke-width="1">
      <rect width="680" height="137" stroke="none"/>
      <rect x="0.5" y="0.5" width="679" height="136" fill="none"/>
    </g>
    <path id="パス_43" data-name="パス 43" d="M.936.5H11.064V-9.624H.936ZM23.3-2.556l.468.1v-.672l-.468.1H18.828A13.33,13.33,0,0,0,18.96-4.38h3.012l.48.1v-.672l-.48.1H18.984c.024-.18.036-.684.048-1.224H22.44l.48.1V-6.66l-.48.1h-3.4v-.948c.156-.108.192-.156.192-.24,0-.108-.084-.156-.252-.156H18.06v.672l-.012.672H14.916l-.48-.1v.672l.48-.1h3.132v.516l-.036.672v.036H15.264l-.468-.1v.672l.468-.1h2.724c-.06.72-.1,1-.156,1.344H13.956l-.48-.1v.672l.48-.1h3.768C17.34-1.14,15.732-.036,13.1.576l.1.4A9.23,9.23,0,0,0,17.352-.48,3.379,3.379,0,0,0,18.66-2.316l.024.036A6.809,6.809,0,0,0,23.628.852a8.237,8.237,0,0,1,.516-1.1c-2.376-.264-4.332-1.116-5.22-2.3ZM14.676-8.8V-8.9a2.063,2.063,0,0,0-.036-.408h-.408a3.355,3.355,0,0,1-1.128,2l.7.9a2.578,2.578,0,0,0,.852-1.908h8.076A8.2,8.2,0,0,1,22.092-7l.252.192a4.482,4.482,0,0,0,1.8-1.992H19.116v-.888c.156-.108.192-.156.192-.24,0-.108-.084-.156-.252-.156H18.024V-8.8ZM33.1-5.088,32-4.848V-6.216c.156-.108.192-.156.192-.24,0-.108-.084-.156-.252-.156h-.816v1.944l-.4.1H30.24l.144.648.444-.192.3-.06V-.36c-.012.708.348.972,1.332.972h2.892c.84-.012,1.164-.264,1.26-1l.144-1.02-.516-.06-.12.756c-.06.372-.228.48-.744.48H32.628c-.456-.012-.612-.12-.624-.42v-3.72L33.1-4.6v3.552h.876V-4.788l1.236-.264v2.28c0,.324-.1.42-.408.456l-.516.06v.492l.924-.108c.648-.072.888-.348.888-1.032V-5.736l-2.124.456V-6.972c.156-.108.192-.156.192-.24,0-.108-.084-.156-.252-.156H33.1Zm2.988-2.7.48.1v-.672l-.48.1H31.836c.144-.264.276-.516.552-1.08.252-.1.324-.168.324-.312,0-.1-.1-.192-.228-.228l-.912-.192a11.467,11.467,0,0,1-1.824,3.8l.24.228a7.888,7.888,0,0,0,1.56-1.74Zm-8.928.348v.42c-.048,4.068-.432,6.1-1.428,7.656l.228.2c1.26-1.092,1.9-2.94,2.064-5.9h1.056a40.074,40.074,0,0,1-.288,4.3C28.668.24,28.632.3,28.164.324h-.816v.5h1.284c.684,0,.924-.24,1.032-1.02.132-.72.288-3.072.36-5.352h-1.98c.024-.6.036-1.1.036-1.476v-.42h1.692l.48.1v-.672l-.48.1h-1.26V-9.612c.156-.108.192-.156.192-.228,0-.12-.084-.168-.252-.168h-.924V-7.92h-1.26l-.48-.1v.672l.48-.1Zm16.7,4.056H41.076V.888h.984V.228h5.376V.8h1.008V-3.384H44.868V-5.4h3.456l.456.1v-.672l-.456.1H44.868V-7.308c.156-.108.192-.156.192-.24,0-.108-.084-.156-.252-.156H43.86ZM42.06-.252V-2.9h5.376V-.252Zm2.724-8.5v-.936c.156-.108.192-.156.192-.24,0-.108-.084-.156-.252-.156H43.692v1.332h-4.4V-6.78c0,4.524-.144,5.724-.936,7.464l.264.168a6.141,6.141,0,0,0,1.368-2.58A22.172,22.172,0,0,0,40.32-6.78V-8.268h8.436l.48.1v-.672l-.48.1Zm8.94-.66.048-.1c.216-.036.312-.108.312-.216a.179.179,0,0,0-.156-.144l-1.02-.216a13.7,13.7,0,0,1-1.932,3.516l.24.228A9.4,9.4,0,0,0,53.544-9.1l.036.036a10.992,10.992,0,0,1,1.368,1.74l.684-.744A6.642,6.642,0,0,0,53.7-9.372Zm4.524,2.736H56.064V.648h.864V-2.208h1.32v3.1h.864v-3.1h1.512V-.432c-.012.372-.132.492-.492.5H59.64v.5h.852c.708,0,1.02-.288,1.008-.948v-6.3H59.112V-7.884h2.436l.468.1V-8.46l-.468.1H59.112V-9.612c.156-.12.192-.156.192-.24,0-.108-.084-.156-.252-.156h-.8v1.644h-1.98l-.48-.1v.672l.48-.1h1.98Zm0,3.984h-1.32V-4.26h1.32Zm.864,0V-4.26h1.512v1.572ZM58.248-4.74h-1.32V-6.192h1.32Zm.864,0V-6.192h1.512V-4.74ZM53-4.32H51.528l-.48-.1v.672l.48-.1h3.588l.48.1v-.672l-.48.1H53.88V-5.808h.96l.48.1v-.672l-.48.1h-.96V-7.332c.156-.108.192-.156.192-.24,0-.108-.084-.156-.252-.156H53v1.44h-.852l-.468-.1v.672l.468-.1H53ZM55.212.552V-2.916H51.6v3.6h.864V.048h1.872v.5Zm-.876-.984H52.464v-2h1.872Zm7.032-8.616A7.529,7.529,0,0,0,59.9-9.9l-.24.216a6.929,6.929,0,0,1,.948,1.26ZM69.132-2.6a.817.817,0,0,0-.828.8.807.807,0,0,0,.8.816.809.809,0,0,0,.816-.816A.809.809,0,0,0,69.132-2.6Zm0-5.52a.817.817,0,0,0-.828.8.817.817,0,0,0,.816.816.807.807,0,0,0,.8-.816A.809.809,0,0,0,69.132-8.124ZM83.868-.432h.96V-7.344h-.96v-.432H85.92l2.64,6.012L91.1-7.776h2v.432h-.96V-.432h.96V0h-2.94V-.432h.96v-6.06L88.56-.444h-.552l-2.664-6.1V-.432h.924V0h-2.4Zm14.028,0V0H94.524V-.432H95.7V-7.344H94.572v-.432h3.276v.432H96.72V-.432Zm1.416,0h.96V-7.344h-.96v-.432h1.956l3.612,5.832v-5.4h-.96v-.432h2.436v.432h-.96V0h-.552l-4.056-6.612v6.18h.96V0H99.312Zm11.712,0V0h-3.372V-.432h1.176V-7.344H107.7v-.432h3.276v.432h-1.128V-.432Zm7.02-9.312-.36.372c-.72.06-1.236.084-2.58.108l-.756-.252.072.792c.42.012.732.024.936.024.6,0,1.38-.036,2.352-.12-.492,1.524-.744,2.22-1.212,3.468a5.537,5.537,0,0,0-1.464.24,2.877,2.877,0,0,0-2.2,2.736,1.612,1.612,0,0,0,1.416,1.8,1.935,1.935,0,0,0,1.536-1.044,17.565,17.565,0,0,0,1.5-3.108,11.539,11.539,0,0,1,3.552.744,5.689,5.689,0,0,1-2.9,4.356l.156.3a4.939,4.939,0,0,0,2.6-1.644,5.923,5.923,0,0,0,1.116-2.616c.588.276.828.4,1.4.72l.348-.816a11.9,11.9,0,0,0-1.6-.708c.084-.5.12-.744.18-1.308.156-.1.216-.18.216-.276s-.1-.18-.276-.216L121.1-6.42l.012.516c-.06.612-.072.672-.144,1.2a16.729,16.729,0,0,0-3.456-.624c.54-1.416.7-1.848,1.212-3.348.24-.144.336-.264.336-.4a.313.313,0,0,0-.18-.252Zm-1.932,5.376C115.092-1.98,114.66-1.3,114.156-1.3c-.336,0-.612-.42-.612-.948a2.419,2.419,0,0,1,1.3-2.04,3.525,3.525,0,0,1,1.416-.408Zm12.144-3.984c-1.02,0-1.44-.024-2.088-.06l-.648-.276.06.816c.864.06,1.284.072,2.028.072h.468a26.516,26.516,0,0,1-2.724,5.892l.912.588a31.879,31.879,0,0,0,2.892-6.516c.912-.036,1.908-.12,2.9-.252l.036-.852-.744.372c-.852.1-1.344.144-2,.18a1.43,1.43,0,0,1,.048-.168c.036-.108.144-.432.252-.78.18-.12.216-.18.216-.264a.194.194,0,0,0-.168-.192L128.64-10l-.1.612c-.06.24-.108.42-.132.5l-.144.492Zm7.656,7.116a7.327,7.327,0,0,0-2.928-1.6V-5.076c.192-.132.24-.18.24-.264,0-.12-.108-.192-.288-.192l-.948-.012.036.888v1.632a6.468,6.468,0,0,0-1.056-.084c-1.56,0-2.5.672-2.5,1.8S129.588.66,131.124.66a1.824,1.824,0,0,0,1.692-.72,1.82,1.82,0,0,0,.168-.9v-1a7.928,7.928,0,0,1,2.22,1.62Zm-3.888.228c0,.576-.336.852-1.044.852-1.1,0-1.92-.516-1.92-1.224a.823.823,0,0,1,.216-.552,2.067,2.067,0,0,1,1.5-.444,4.408,4.408,0,0,1,1.248.168Zm4.032-5.928A5.947,5.947,0,0,0,133.7-7.32a6.02,6.02,0,0,0-2.112.312l.024.336a8.948,8.948,0,0,1,3.768.72Zm6.528-2.388c.144-.12.192-.2.192-.3a.224.224,0,0,0-.228-.2H141.36l.2.72.756,3.648a10.829,10.829,0,0,0-1.488.888c-1.176.84-1.68,1.6-1.68,2.508a2.143,2.143,0,0,0,1.44,2.04A8.862,8.862,0,0,0,143.94.42a22.857,22.857,0,0,0,3.408-.2V-.948a18.086,18.086,0,0,1-3.516.324c-2.712,0-3.864-.444-3.864-1.512,0-1.428,2.172-2.724,6.924-4.152a.665.665,0,0,0,.324.108.218.218,0,0,0,.2-.192.415.415,0,0,0-.036-.144l-.42-.972-.42.312c-.936.36-1.836.7-2.688,1.032-.24.1-.408.156-.588.24Zm13.332-.42-.36.372c-.72.06-1.236.084-2.58.108l-.756-.252.072.792c.42.012.732.024.936.024.6,0,1.38-.036,2.352-.12-.492,1.524-.744,2.22-1.212,3.468a5.537,5.537,0,0,0-1.464.24,2.877,2.877,0,0,0-2.2,2.736,1.612,1.612,0,0,0,1.416,1.8A1.935,1.935,0,0,0,153.66-1.62a17.566,17.566,0,0,0,1.5-3.108,11.539,11.539,0,0,1,3.552.744,5.689,5.689,0,0,1-2.9,4.356l.156.3a4.939,4.939,0,0,0,2.6-1.644,5.923,5.923,0,0,0,1.116-2.616c.588.276.828.4,1.4.72l.348-.816a11.9,11.9,0,0,0-1.6-.708c.084-.5.12-.744.18-1.308.156-.1.216-.18.216-.276s-.1-.18-.276-.216l-.984-.228.012.516c-.06.612-.072.672-.144,1.2a16.729,16.729,0,0,0-3.456-.624c.54-1.416.7-1.848,1.212-3.348.24-.144.336-.264.336-.4a.313.313,0,0,0-.18-.252Zm-1.932,5.376c-1.02,2.388-1.452,3.072-1.956,3.072-.336,0-.612-.42-.612-.948a2.419,2.419,0,0,1,1.3-2.04,3.525,3.525,0,0,1,1.416-.408Zm11.544,1.884a4.938,4.938,0,0,1,1.128-1.308A4.827,4.827,0,0,1,169.7-4.9c1.356,0,2.2.7,2.2,1.812s-.816,2.016-2.328,2.6A13.576,13.576,0,0,1,166.6.228l.048.408A13.035,13.035,0,0,0,170.58.012C172.2-.6,173.1-1.668,173.1-3a2.319,2.319,0,0,0-.708-1.7,3.559,3.559,0,0,0-2.508-.816,5.357,5.357,0,0,0-4.08,1.74L166.08-7.4c.168-.12.228-.192.228-.3s-.084-.192-.228-.2l-1.116-.12.084.624-.324,4.92Zm.732-6.888a9.915,9.915,0,0,1,3.9,1.284l.864-1.008a5.653,5.653,0,0,0-1.14-.4,11.739,11.739,0,0,0-2.568-.312c-.264,0-.5.012-1.02.036Zm14.1,6.732c-.276,1.092-.648,1.824-.936,1.824s-.708-.564-1.044-1.332a14.223,14.223,0,0,1-.672-5.136v-.768c.2-.144.264-.216.264-.336s-.12-.2-.3-.216l-1.08-.072.06.72c.012,1.548.024,2.376.024,2.484a11.3,11.3,0,0,0,.72,3.78c.516,1.248,1.164,1.908,1.848,1.908s1.26-.96,1.644-2.688Zm6.192.1a9.1,9.1,0,0,0-3.072-5.6l-.3.228a14.616,14.616,0,0,1,2.22,5.892ZM191.844.1A7.215,7.215,0,0,0,188.5-2.2l-.228.288A10.711,10.711,0,0,1,190.86.96Zm8.964-.528h.96V-7.344h-.96v-.432h2.052l2.64,6.012,2.544-6.012h2v.432h-.96V-.432h.96V0h-2.94V-.432h.96v-6.06L205.5-.444h-.552l-2.664-6.1V-.432h.924V0h-2.4Zm14.028,0V0h-3.372V-.432h1.176V-7.344h-1.128v-.432h3.276v.432H213.66V-.432Zm1.416,0h.96V-7.344h-.96v-.432h1.956l3.612,5.832v-5.4h-.96v-.432H223.3v.432h-.96V0h-.552l-4.056-6.612v6.18h.96V0h-2.436Zm11.712,0V0h-3.372V-.432h1.176V-7.344H224.64v-.432h3.276v.432h-1.128V-.432Zm12-5.388.48.1V-6.4l-.48.1h-1.872V-8.052h1.26l.48.1v-.672l-.48.1h-1.26v-1.08c.156-.108.192-.156.192-.24,0-.108-.084-.156-.252-.156h-.84v1.476h-2.04v-1.08c.156-.12.192-.156.192-.24,0-.108-.084-.156-.252-.156h-.864v1.476h-1.152l-.468-.1v.672l.468-.1h1.152V-6.3H232.5l-.48-.1v.672l.48-.1h1.62l-.012.048A8.424,8.424,0,0,1,231.912-3l.156.264A6.716,6.716,0,0,0,233.724-3.9h3.648v1.452H233.28V-.36c.024.72.4.972,1.452.972h3.84c.8.012,1.2-.348,1.224-1.128l.084-1.044-.5-.048L239.3-.72a.536.536,0,0,1-.636.492h-3.732c-.516-.012-.732-.132-.732-.408V-1.968H238.3V-4.176a5.482,5.482,0,0,0,1.728,1.3c.216-.468.252-.528.48-.948a5.949,5.949,0,0,1-2.832-1.992Zm-2.676,0a6.07,6.07,0,0,0,.84,1.44H234.18a5.852,5.852,0,0,0,.972-1.44Zm-2.136-.48V-8.052h2.04V-6.3Zm-4.884-3.168a9.837,9.837,0,0,1,1.4,1.548l.708-.948a5.622,5.622,0,0,0-1.944-.924ZM231.6-4.092a27.107,27.107,0,0,1-1.884,4l.7.684A.368.368,0,0,0,230.64.7a.25.25,0,0,0,.228-.252,1.22,1.22,0,0,0-.06-.264,29.729,29.729,0,0,0,1.14-4.152Zm-2.076-2.292A8.493,8.493,0,0,1,230.976-4.8l.744-.984a5.284,5.284,0,0,0-2.028-.912ZM248.16-4.176h-3.216l-.468-.1V-3.6l.468-.1h2.124v1.464H244.68l-.48-.1v.672l.48-.1h2.388V.564h.96V-1.752h2.5l.48.1v-.672l-.48.1h-2.5V-3.7h2.232l.48.1v-.672l-.48.1H248.6a7.932,7.932,0,0,0,1-1.332c.24-.048.36-.12.36-.252a.222.222,0,0,0-.144-.18l-.984-.312a13.647,13.647,0,0,1-.66,2.04ZM247.044-6.84h-4.356V.888H243.7V-6.36h7.824V-.2c-.012.4-.132.516-.516.528h-1.3v.5h1.752c.756,0,1.08-.3,1.068-1V-6.84h-4.476V-8.256h4.6l.48.1v-.672l-.48.1h-4.6v-.948c.156-.108.192-.156.192-.24,0-.108-.084-.156-.252-.156h-.948v1.344h-4.476l-.48-.1v.672l.48-.1h4.476Zm-1.812.816a8.021,8.021,0,0,1,.816,1.812l.936-.564A4.8,4.8,0,0,0,245.508-6.2Zm20.4.54A13.862,13.862,0,0,0,261.9-8.676l-.348.276a18.016,18.016,0,0,1,1.812,1.968c-1.02.06-3.012.132-5.508.192l-.288.012a16.745,16.745,0,0,0,2.316-2.964c.288-.06.42-.156.42-.312a.238.238,0,0,0-.192-.216l-1.188-.36a24.828,24.828,0,0,1-1.9,3.768l-.048.1-.5.012-.492.012c-.2,0-.588,0-1.128.012l.3,1c.06.2.132.288.252.288s.2-.084.3-.3c4.152-.3,6.048-.5,7.968-.828.336.468.516.732.864,1.3Zm-8.376,5.7h5.964V.768h1.056V-4.116H256.2V.828h1.056Zm0-.5V-3.612h5.964V-.288ZM270.912.1A7.215,7.215,0,0,0,267.564-2.2l-.228.288A10.711,10.711,0,0,1,269.928.96Zm8.964-.528h.96V-7.344h-.96v-.432h2.052l2.64,6.012,2.544-6.012h2v.432h-.96V-.432h.96V0h-2.94V-.432h.96v-6.06L284.568-.444h-.552l-2.664-6.1V-.432h.924V0h-2.4Zm14.028,0V0h-3.372V-.432h1.176V-7.344H290.58v-.432h3.276v.432h-1.128V-.432Zm1.416,0h.96V-7.344h-.96v-.432h1.956l3.612,5.832v-5.4h-.96v-.432h2.436v.432h-.96V0h-.552L296.8-6.612v6.18h.96V0H295.32Zm11.712,0V0H303.66V-.432h1.176V-7.344h-1.128v-.432h3.276v.432h-1.128V-.432Zm9.132.288h2.016V.612h.9V-9.42h-3.792V.744h.876Zm0-6.456V-8.94h2.016V-6.6Zm0,.48h2.016V-3.7h-2.016Zm0,2.9h2.016V-.624h-2.016Zm-3.4,4.1h.888v-6a12.61,12.61,0,0,1,.684,1.836l.708-.564a4.215,4.215,0,0,0-1.392-1.668V-7.08h.756l.468.1v-.672l-.468.1h-.756V-9.612c.156-.108.192-.156.192-.24,0-.108-.084-.156-.252-.156h-.828V-7.56h-1.116l-.48-.1v.672l.48-.1h1.008l-.048.324a20.777,20.777,0,0,1-1.536,4.908l.252.2a11.291,11.291,0,0,0,1.44-2.7ZM311.424-8.94a4.951,4.951,0,0,0-1.944-.852l-.18.324a10.112,10.112,0,0,1,1.452,1.488Zm-.876,4.968A25.759,25.759,0,0,1,308.8-.1l.708.684a.339.339,0,0,0,.24.108.244.244,0,0,0,.24-.252.968.968,0,0,0-.072-.264,29.426,29.426,0,0,0,1-4.032Zm.192-1.872a4.5,4.5,0,0,0-1.968-.852l-.18.324a7.789,7.789,0,0,1,1.464,1.548Zm16.488,1.668h-3.216l-.468-.1V-3.6l.468-.1h2.124v1.464h-2.388l-.48-.1v.672l.48-.1h2.388V.564h.96V-1.752h2.5l.48.1v-.672l-.48.1h-2.5V-3.7h2.232l.48.1v-.672l-.48.1h-1.656a7.931,7.931,0,0,0,1-1.332c.24-.048.36-.12.36-.252a.222.222,0,0,0-.144-.18l-.984-.312a13.648,13.648,0,0,1-.66,2.04ZM326.112-6.84h-4.356V.888h1.008V-6.36h7.824V-.2c-.012.4-.132.516-.516.528h-1.3v.5h1.752c.756,0,1.08-.3,1.068-1V-6.84H327.12V-8.256h4.6l.48.1v-.672l-.48.1h-4.6v-.948c.156-.108.192-.156.192-.24,0-.108-.084-.156-.252-.156h-.948v1.344h-4.476l-.48-.1v.672l.48-.1h4.476Zm-1.812.816a8.02,8.02,0,0,1,.816,1.812l.936-.564A4.8,4.8,0,0,0,324.576-6.2ZM.936,24.5H11.064V14.376H.936Zm18-7.836-.156-1.92c.144-.12.2-.192.2-.288,0-.132-.108-.216-.276-.216H17.532l.144.672.144,1.824-3.3.216-.48-.072.048.744.468-.12,3.312-.216.252,3.048-4.32.276-.48-.06.048.744.468-.132,4.332-.276.324,3.84,1.116-.072-.324-3.84,4.092-.252.54.06-.06-.756L23.34,20l-4.1.264-.252-3.048,3.5-.216.54.072-.048-.768-.528.144Zm11.76,2.76,3.144-.42a5.434,5.434,0,0,1-1.992,2.568l.18.276a5.075,5.075,0,0,0,3.18-3.564l-4.572.6-.192-1.6c.132-.108.18-.18.18-.252a.184.184,0,0,0-.2-.18H29.328l.1.612.18,1.548-1.9.252-.528-.024.1.744.5-.168,1.9-.252.612,5.28,1.032-.132Zm18.192-2.94a11.911,11.911,0,0,1-3.06,3.888,11.287,11.287,0,0,1-5.508,2.436l-.636.012.432,1.068c.072.168.18.264.3.264s.228-.084.312-.276a11.64,11.64,0,0,0,5.892-2.82,10.115,10.115,0,0,0,2.6-4.416ZM39.576,15.18a11.281,11.281,0,0,1,2.988,2.568l.984-1a7.405,7.405,0,0,0-3.828-1.884ZM62,22.848C60.36,21.192,57.516,18,56.136,16.236c-.552-.708-.768-.912-.984-.912s-.48.216-.8.636c-1.44,1.776-1.968,2.4-2.772,3.264l-.6.5.672.912c.084.12.156.168.24.168.144,0,.216-.108.228-.336,1.1-1.584,2.484-3.528,2.8-3.936.132-.18.228-.276.276-.276s.144.084.24.228a76.509,76.509,0,0,0,5.724,7.38Zm-1.212-8.892a1.212,1.212,0,1,0,1.188,1.212A1.219,1.219,0,0,0,60.792,13.956Zm-.036.48a.738.738,0,0,1,.744.732.727.727,0,0,1-.732.732.732.732,0,0,1-.012-1.464Zm13.452,4.716-10.02-.372v1.26l10.02-.36ZM86.76,16.488a11.911,11.911,0,0,1-3.06,3.888,11.287,11.287,0,0,1-5.508,2.436l-.636.012.432,1.068c.072.168.18.264.3.264s.228-.084.312-.276a11.64,11.64,0,0,0,5.892-2.82,10.115,10.115,0,0,0,2.6-4.416ZM77.448,15.18a11.281,11.281,0,0,1,2.988,2.568l.984-1a7.405,7.405,0,0,0-3.828-1.884ZM94.26,16.656l.48.1V16.08l-.48.1H92.22V14.388c.156-.108.192-.156.192-.24,0-.108-.084-.156-.252-.156h-.972v2.184H89.4l-.48-.1v.672l.48-.1h3.228a9.89,9.89,0,0,1-.756,3.168,22.92,22.92,0,0,0-2.28-2.172L89.3,17.9a30.721,30.721,0,0,1,2.172,2.664l.024.036a10.846,10.846,0,0,1-2.652,3.324l.228.336a9.542,9.542,0,0,0,2.976-2.9,25.08,25.08,0,0,1,1.536,2.472l1-.648a23.989,23.989,0,0,0-2.052-2.628,9.6,9.6,0,0,0,1.116-3.9Zm3.36.492H94.872l-.48-.1v.672l.48-.1H97.62v6.048c0,.492-.216.708-.708.708H95.688v.5H97.56c.768,0,1.1-.312,1.092-1.068V17.628h.756l.48.1v-.672l-.48.1h-.756v-2.76c.156-.108.192-.156.192-.24,0-.108-.084-.156-.252-.156H97.62Zm-3.12,1.9a18.379,18.379,0,0,1,1.44,2.6l1.02-.732a8.371,8.371,0,0,0-2.2-2.1Zm13.488,1.9a4.828,4.828,0,0,0-1.548-1.812,5.642,5.642,0,0,0,.6-.336l.192-.108H111.5V16.272h-3.9a9.017,9.017,0,0,0,1.992-1.5h-4.332l.048-.048.228-.228c.36-.06.432-.1.432-.228,0-.084-.084-.156-.192-.18l-.96-.168a13.415,13.415,0,0,1-3.348,2.844l.12.312c.468-.18.768-.312,1.14-.492v2.1h3.048a17.737,17.737,0,0,1-4.3,1.7l.072.324a14.336,14.336,0,0,0,4.536-1.392,6.514,6.514,0,0,1,.444.492,15.818,15.818,0,0,1-5.016,2.2l.06.36a14.843,14.843,0,0,0,5.376-1.92,3.226,3.226,0,0,1,.288.672l-.036.024a12.449,12.449,0,0,1-2.436,1.512,16.616,16.616,0,0,1-3.3,1.2l.084.336a13.815,13.815,0,0,0,5.88-2.148,3.774,3.774,0,0,1,.036.528,2.574,2.574,0,0,1-.36,1.548c-.2.216-.372.276-.828.276h-1.068v.5h1.32a1.66,1.66,0,0,0,1.236-.348,2.252,2.252,0,0,0,.6-1.8,4.214,4.214,0,0,0-.276-1.536l.1-.024.084.12a7.668,7.668,0,0,0,3.576,3.1,4.79,4.79,0,0,1,.66-1.02,8.9,8.9,0,0,1-4.044-2.292,13.8,13.8,0,0,0,2.784-1.212,1.189,1.189,0,0,0,.228.036c.156,0,.264-.084.264-.192,0-.06-.036-.108-.144-.192l-.816-.612a18.055,18.055,0,0,1-2.784,2Zm-.144-5.688a9.8,9.8,0,0,1-.816,1.02h-3.744a9.912,9.912,0,0,0,1.44-1.02Zm-1.248,1.5V18.2h-2.928V16.752Zm.924,0h3.024V18.2H107.52Zm10.44,2.424v3.108c0,1.02.168,1.368.768,1.572a12.886,12.886,0,0,0,3.156.228c.8,0,1.4-.024,2.22-.072V22.92a23.438,23.438,0,0,1-2.808.168,6.2,6.2,0,0,1-1.9-.18c-.24-.108-.3-.252-.3-.732v-3h5.16l.54.108v-.768l-.54.108H119.1V15.672h3.972l.528.108v-.768l-.528.108h-7.38l-.528-.108v.768l.528-.108h2.268v2.952h-3.012l-.54-.108v.768l.54-.108Zm18.684-.144.528.108v-.768l-.528.108H127.4l-.528-.108v.768l.528-.108h4.188a5.9,5.9,0,0,1-.576,2.88,5.692,5.692,0,0,1-3.468,2.472l.1.408a7.363,7.363,0,0,0,4.02-1.968,5.347,5.347,0,0,0,1.1-3.792ZM134.52,15.12h-5.652l-.528-.108v.768l.528-.108h5.652l.528.108v-.768Zm3.36-.072a2.37,2.37,0,0,0-1.416-1.248l-.192.168a4.823,4.823,0,0,1,.8,1.512Zm-2.928-.9a5.373,5.373,0,0,1,.732,1.644l.792-.384a2.29,2.29,0,0,0-1.308-1.416ZM145.2,24.384a5.945,5.945,0,0,0,3.564-2.172,8.4,8.4,0,0,0,1.74-3.948l-.372-.12a7.873,7.873,0,0,1-3.864,4.728V15.12c.18-.12.24-.2.24-.312a.224.224,0,0,0-.228-.2l-1.188-.084.108.72Zm-5.676.036a6.584,6.584,0,0,0,2.688-2.856,11.18,11.18,0,0,0,.708-4.68V15.528c.18-.12.24-.2.24-.312a.216.216,0,0,0-.228-.2l-1.224-.084.108.72v1.344c0,3.648-.576,5.292-2.508,7.116ZM157.5,21.4a.817.817,0,0,0-.828.8.81.81,0,1,0,.828-.8Zm0-5.52a.81.81,0,1,0-.012,1.62.81.81,0,0,0,.012-1.62ZM7.7,47.568V48H4.92v-.432H5.8l-.864-2.436H2.352l-.864,2.436h.876V48H.12v-.432H.972l2.652-7.344h.564l2.664,7.344Zm-2.94-2.892-1.1-3.108H3.612l-1.1,3.108Zm4.092,2.892h.96V40.656h-.96v-.432h2.976v.432h-1v6.912h2.808l.636-1.68h.456V48H8.856Zm7.14,0h.96V40.656H16v-.432h2.976v.432h-1v6.912h2.808l.636-1.68h.456V48H16Zm7.212-2.952h2.628v.468H23.208Zm10.056,1.272V48h-5.94v-.432h.96V40.656h-.96v-.432h5.844v2.088h-.456l-.636-1.656H29.3v3.012h1.884v-.924h.552v2.3h-.552v-.924H29.3v3.444h2.868l.636-1.68Zm1.452,1.68h.96V40.656h-.96v-.432h2.976v.432h-1v6.912H39.5l.636-1.68H40.6V48h-5.88Zm13.08-1.68V48h-5.94v-.432h.96V40.656h-.96v-.432H47.7v2.088h-.456l-.636-1.656H43.836v3.012H45.72v-.924h.552v2.3H45.72v-.924H43.836v3.444H46.7l.636-1.68Zm5.028,2.256a3.165,3.165,0,0,1-1.962-.576,3.233,3.233,0,0,1-1.1-1.47,5.294,5.294,0,0,1-.336-1.878,5.685,5.685,0,0,1,.348-1.986,3.457,3.457,0,0,1,1.116-1.548,3.042,3.042,0,0,1,1.944-.606,3.655,3.655,0,0,1,1.35.222,4.025,4.025,0,0,1,1,.57v1.44H54.5a2.135,2.135,0,0,0-.576-1.4,1.668,1.668,0,0,0-1.176-.444,1.887,1.887,0,0,0-1.7.858,3.994,3.994,0,0,0-.558,2.214,7.335,7.335,0,0,0,.258,1.98,3.591,3.591,0,0,0,.8,1.506A1.758,1.758,0,0,0,52.9,47.6a2.085,2.085,0,0,0,2.064-1.728h.456a2.729,2.729,0,0,1-.48,1.164,2.679,2.679,0,0,1-.924.81A2.489,2.489,0,0,1,52.824,48.144Zm5.232-.576h1.056V40.656H57.624L57,42.312h-.444V40.224h6.108v2.088H62.22l-.6-1.656H60.132v6.912h1.056V48H58.056Zm13.08,0V48H69.3l-2.28-3.588H65.9v3.156h.948V48H63.924v-.432h.96V40.656h-.96v-.432h3.492a2.411,2.411,0,0,1,1.764.582,2,2,0,0,1,.588,1.482,2.052,2.052,0,0,1-.444,1.338,2.078,2.078,0,0,1-1.212.714l2.16,3.228ZM65.9,43.956h1.38a1.227,1.227,0,0,0,.978-.462,1.769,1.769,0,0,0,.39-1.182,1.819,1.819,0,0,0-.378-1.2,1.224,1.224,0,0,0-.99-.456H65.9Zm9.684,3.612V48H72.216v-.432h1.176V40.656H72.264v-.432H75.54v.432H74.412v6.912Zm4.872.576a3.165,3.165,0,0,1-1.962-.576,3.233,3.233,0,0,1-1.1-1.47,5.294,5.294,0,0,1-.336-1.878,5.685,5.685,0,0,1,.348-1.986,3.457,3.457,0,0,1,1.116-1.548,3.042,3.042,0,0,1,1.944-.606,3.655,3.655,0,0,1,1.35.222,4.025,4.025,0,0,1,1,.57v1.44H82.14a2.135,2.135,0,0,0-.576-1.4,1.668,1.668,0,0,0-1.176-.444,1.887,1.887,0,0,0-1.7.858,3.994,3.994,0,0,0-.558,2.214,7.335,7.335,0,0,0,.258,1.98,3.591,3.591,0,0,0,.8,1.506,1.758,1.758,0,0,0,1.344.582A2.085,2.085,0,0,0,82.6,45.876h.456a2.729,2.729,0,0,1-.48,1.164,2.679,2.679,0,0,1-.924.81A2.489,2.489,0,0,1,80.46,48.144Zm7.452-.576h.96V40.656h-.96v-.432h2.052l2.64,6.012,2.544-6.012h2v.432h-.96v6.912h.96V48h-2.94v-.432h.96v-6.06L92.6,47.556h-.552l-2.664-6.1v6.108h.924V48h-2.4Zm14.028,0V48H98.568v-.432h1.176V40.656H98.616v-.432h3.276v.432h-1.128v6.912Zm1.416,0h.96V40.656h-.96v-.432h1.956l3.612,5.832v-5.4h-.96v-.432H110.4v.432h-.96V48h-.552l-4.056-6.612v6.18h.96V48h-2.436Zm11.712,0V48H111.7v-.432h1.176V40.656h-1.128v-.432h3.276v.432h-1.128v6.912Zm8.436.576a3.165,3.165,0,0,1-1.962-.576,3.233,3.233,0,0,1-1.1-1.47,5.294,5.294,0,0,1-.336-1.878,5.685,5.685,0,0,1,.348-1.986,3.457,3.457,0,0,1,1.116-1.548,3.042,3.042,0,0,1,1.944-.606,3.655,3.655,0,0,1,1.35.222,4.025,4.025,0,0,1,1,.57v1.44h-.684a2.135,2.135,0,0,0-.576-1.4,1.668,1.668,0,0,0-1.176-.444,1.887,1.887,0,0,0-1.7.858,3.994,3.994,0,0,0-.558,2.214,7.335,7.335,0,0,0,.258,1.98,3.591,3.591,0,0,0,.8,1.506,1.758,1.758,0,0,0,1.344.582,2.085,2.085,0,0,0,2.064-1.728h.456a2.729,2.729,0,0,1-.48,1.164,2.679,2.679,0,0,1-.924.81A2.489,2.489,0,0,1,123.5,48.144Zm7.356,0a3.05,3.05,0,0,1-1.878-.552,3.154,3.154,0,0,1-1.074-1.434,5.264,5.264,0,0,1-.336-1.89,5.806,5.806,0,0,1,.342-1.974,3.527,3.527,0,0,1,1.122-1.584,3.069,3.069,0,0,1,1.992-.63,3.1,3.1,0,0,1,1.89.552,3.244,3.244,0,0,1,1.1,1.434,4.994,4.994,0,0,1,.354,1.878,5.562,5.562,0,0,1-.36,1.968,3.675,3.675,0,0,1-1.146,1.6A3.093,3.093,0,0,1,130.86,48.144Zm.288-.4a1.765,1.765,0,0,0,1.608-.882,4.484,4.484,0,0,0,.54-2.358,7.131,7.131,0,0,0-.258-1.938,3.5,3.5,0,0,0-.822-1.506,1.923,1.923,0,0,0-1.452-.588,1.724,1.724,0,0,0-1.6.87,4.329,4.329,0,0,0-.51,2.214,6.683,6.683,0,0,0,.6,2.964A1.987,1.987,0,0,0,131.148,47.748Zm8.148.4a3.05,3.05,0,0,1-1.878-.552,3.154,3.154,0,0,1-1.074-1.434,5.264,5.264,0,0,1-.336-1.89,5.806,5.806,0,0,1,.342-1.974,3.527,3.527,0,0,1,1.122-1.584,3.069,3.069,0,0,1,1.992-.63,3.1,3.1,0,0,1,1.89.552,3.244,3.244,0,0,1,1.1,1.434,4.994,4.994,0,0,1,.354,1.878,5.562,5.562,0,0,1-.36,1.968,3.675,3.675,0,0,1-1.146,1.6A3.093,3.093,0,0,1,139.3,48.144Zm.288-.4a1.765,1.765,0,0,0,1.608-.882,4.484,4.484,0,0,0,.54-2.358,7.131,7.131,0,0,0-.258-1.938,3.5,3.5,0,0,0-.822-1.506,1.923,1.923,0,0,0-1.452-.588,1.724,1.724,0,0,0-1.6.87,4.329,4.329,0,0,0-.51,2.214,6.683,6.683,0,0,0,.6,2.964A1.987,1.987,0,0,0,139.584,47.748Zm8.172-7.524a2.459,2.459,0,0,1,1.764.564,1.937,1.937,0,0,1,.588,1.464,2.092,2.092,0,0,1-.282,1.08,2.007,2.007,0,0,1-.816.762,2.649,2.649,0,0,1-1.254.282h-1.512v3.192h.96V48h-2.94v-.432h.96V40.656h-.96v-.432Zm-.144,3.7a1.227,1.227,0,0,0,.978-.462,2.024,2.024,0,0,0,.018-2.364,1.24,1.24,0,0,0-1-.438h-1.368V43.92Zm9.756,1.968V48h-5.94v-.432h.96V40.656h-.96v-.432h5.844v2.088h-.456l-.636-1.656h-2.772v3.012h1.884v-.924h.552v2.3h-.552v-.924h-1.884v3.444h2.868l.636-1.68Zm8.664,1.68V48H164.2l-2.28-3.588H160.8v3.156h.948V48H158.82v-.432h.96V40.656h-.96v-.432h3.492a2.411,2.411,0,0,1,1.764.582,2,2,0,0,1,.588,1.482,2.052,2.052,0,0,1-.444,1.338,2.078,2.078,0,0,1-1.212.714l2.16,3.228ZM160.8,43.956h1.38a1.227,1.227,0,0,0,.978-.462,1.769,1.769,0,0,0,.39-1.182,1.819,1.819,0,0,0-.378-1.2,1.224,1.224,0,0,0-.99-.456H160.8Zm7.416,4.176a.717.717,0,1,1,.51-.21A.694.694,0,0,1,168.216,48.132Zm4.7.612a4.344,4.344,0,0,1-1.566-1.77,7.08,7.08,0,0,1,.012-5.424,4.337,4.337,0,0,1,1.554-1.806l.18.168a3.7,3.7,0,0,0-1.026,1.7,8.791,8.791,0,0,0,0,5.256,3.7,3.7,0,0,0,1.026,1.7Zm5.112-4.944a2.04,2.04,0,0,1,1.68,1.992,2.062,2.062,0,0,1-.39,1.26,2.493,2.493,0,0,1-1.008.8,3.13,3.13,0,0,1-1.29.276,2.6,2.6,0,0,1-1.386-.372,2.74,2.74,0,0,1-.954-.972l.384-.24a1.927,1.927,0,0,0,.816.8,2.271,2.271,0,0,0,1.044.264,1.863,1.863,0,0,0,.834-.192,1.546,1.546,0,0,0,.636-.588,1.784,1.784,0,0,0,.246-.96,1.7,1.7,0,0,0-.486-1.278,1.659,1.659,0,0,0-1.206-.474h-.3v-.372a2.034,2.034,0,0,0,.828-.18,1.564,1.564,0,0,0,.672-.57,1.707,1.707,0,0,0,.264-.978,1.783,1.783,0,0,0-.336-1.1,1.272,1.272,0,0,0-2,.072,2.632,2.632,0,0,0-.39,1.3h-.648V40.86a2.375,2.375,0,0,1,.888-.576,3.2,3.2,0,0,1,1.176-.216,2.906,2.906,0,0,1,1.164.228,2.021,2.021,0,0,1,.846.66,1.673,1.673,0,0,1,.318,1.02A1.967,1.967,0,0,1,178.032,43.8Zm7.128-3.576a3.081,3.081,0,0,1,2.58,1.038,4.251,4.251,0,0,1,.816,2.706,5.372,5.372,0,0,1-.354,1.95,3.377,3.377,0,0,1-1.116,1.5A3.082,3.082,0,0,1,185.16,48h-3.648v-.432h.96V40.656h-.96v-.432Zm0,7.344a1.856,1.856,0,0,0,1.764-1.044,5.442,5.442,0,0,0,.552-2.568,4.428,4.428,0,0,0-.57-2.412,1.931,1.931,0,0,0-1.746-.888h-1.668v6.912Zm8.316.576a3.05,3.05,0,0,1-1.878-.552,3.154,3.154,0,0,1-1.074-1.434,5.264,5.264,0,0,1-.336-1.89,5.806,5.806,0,0,1,.342-1.974,3.527,3.527,0,0,1,1.122-1.584,3.069,3.069,0,0,1,1.992-.63,3.1,3.1,0,0,1,1.89.552,3.244,3.244,0,0,1,1.1,1.434,4.994,4.994,0,0,1,.354,1.878,5.562,5.562,0,0,1-.36,1.968,3.675,3.675,0,0,1-1.146,1.6A3.093,3.093,0,0,1,193.476,48.144Zm.288-.4a1.765,1.765,0,0,0,1.608-.882,4.484,4.484,0,0,0,.54-2.358,7.131,7.131,0,0,0-.258-1.938,3.5,3.5,0,0,0-.822-1.506,1.923,1.923,0,0,0-1.452-.588,1.724,1.724,0,0,0-1.6.87,4.329,4.329,0,0,0-.51,2.214,6.683,6.683,0,0,0,.6,2.964A1.987,1.987,0,0,0,193.764,47.748Zm8.148.4a3.05,3.05,0,0,1-1.878-.552,3.154,3.154,0,0,1-1.074-1.434,5.264,5.264,0,0,1-.336-1.89,5.806,5.806,0,0,1,.342-1.974,3.527,3.527,0,0,1,1.122-1.584,3.069,3.069,0,0,1,1.992-.63,3.1,3.1,0,0,1,1.89.552,3.244,3.244,0,0,1,1.1,1.434,4.994,4.994,0,0,1,.354,1.878,5.562,5.562,0,0,1-.36,1.968,3.675,3.675,0,0,1-1.146,1.6A3.093,3.093,0,0,1,201.912,48.144Zm.288-.4a1.765,1.765,0,0,0,1.608-.882,4.484,4.484,0,0,0,.54-2.358,7.131,7.131,0,0,0-.258-1.938,3.5,3.5,0,0,0-.822-1.506,1.923,1.923,0,0,0-1.452-.588,1.724,1.724,0,0,0-1.6.87,4.329,4.329,0,0,0-.51,2.214,6.683,6.683,0,0,0,.6,2.964A1.987,1.987,0,0,0,202.2,47.748Zm11.892-.18V48h-1.836l-2.28-3.588H208.86v3.156h.948V48H206.88v-.432h.96V40.656h-.96v-.432h3.492a2.411,2.411,0,0,1,1.764.582,2,2,0,0,1,.588,1.482,2.052,2.052,0,0,1-.444,1.338,2.078,2.078,0,0,1-1.212.714l2.16,3.228Zm-5.232-3.612h1.38a1.227,1.227,0,0,0,.978-.462,1.769,1.769,0,0,0,.39-1.182,1.819,1.819,0,0,0-.378-1.2,1.224,1.224,0,0,0-.99-.456h-1.38Zm6.336-4.212a4.344,4.344,0,0,1,1.566,1.77,7.08,7.08,0,0,1-.012,5.424,4.337,4.337,0,0,1-1.554,1.806l-.18-.168a3.7,3.7,0,0,0,1.026-1.7,8.791,8.791,0,0,0,0-5.256,3.7,3.7,0,0,0-1.026-1.7Zm6.944,1.876,2.443,2.443.28-.28L222.42,41.34l2.443-2.443-.28-.28L222.14,41.06,219.7,38.617l-.28.28,2.443,2.443-2.443,2.443.28.28Zm-2.177-.91a.627.627,0,1,0,.616.623A.632.632,0,0,0,219.963,40.71Zm4.382,0a.627.627,0,1,0,.616.623A.632.632,0,0,0,224.345,40.71Zm-2.191,2.2a.627.627,0,1,0,.616.623A.632.632,0,0,0,222.154,42.908Zm0-4.389a.627.627,0,1,0,.616.623A.632.632,0,0,0,222.154,38.519Zm4.13,3.92a1.924,1.924,0,0,0,.252,1.064,1.4,1.4,0,0,0,1.218.616,1.378,1.378,0,0,0,.959-.336,1.709,1.709,0,0,0,.469-1.211,1.416,1.416,0,0,0-.371-1.008,1.358,1.358,0,0,0-.651-.357,1.106,1.106,0,0,0,.539-.273,1.375,1.375,0,0,0,.378-.98,1.356,1.356,0,0,0-2.569-.637,1.919,1.919,0,0,0-.147.833h.616a1.643,1.643,0,0,1,.217-1,.635.635,0,0,1,.532-.294c.448,0,.728.392.728,1.029,0,.763-.322,1.176-.917,1.176h-.42V41.4h.406a.887.887,0,0,1,.777.3,1.594,1.594,0,0,1,.238.924,1.518,1.518,0,0,1-.28.945.694.694,0,0,1-.525.259.731.731,0,0,1-.574-.322,1.935,1.935,0,0,1-.252-1.071Zm8.4,5.6,5.988-9.192h-.8l-5.988,9.192ZM253,47.568V48h-2.784v-.432h.876l-.864-2.436h-2.58l-.864,2.436h.876V48h-2.244v-.432h.852l2.652-7.344h.564l2.664,7.344Zm-2.94-2.892-1.1-3.108h-.048l-1.1,3.108Zm4.092,2.892h.96V40.656h-.96v-.432h2.976v.432h-1v6.912h2.808l.636-1.68h.456V48h-5.88Zm7.14,0h.96V40.656h-.96v-.432h2.976v.432h-1v6.912h2.808l.636-1.68h.456V48H261.3Zm7.212-2.952h2.628v.468h-2.628Zm10.056,1.272V48h-5.94v-.432h.96V40.656h-.96v-.432h5.844v2.088h-.456l-.636-1.656H274.6v3.012h1.884v-.924h.552v2.3h-.552v-.924H274.6v3.444h2.868l.636-1.68Zm1.452,1.68h.96V40.656h-.96v-.432h2.976v.432h-1v6.912H284.8l.636-1.68h.456V48h-5.88Zm13.08-1.68V48h-5.94v-.432h.96V40.656h-.96v-.432H293v2.088h-.456l-.636-1.656h-2.772v3.012h1.884v-.924h.552v2.3h-.552v-.924h-1.884v3.444H292l.636-1.68Zm5.028,2.256a3.165,3.165,0,0,1-1.962-.576,3.233,3.233,0,0,1-1.1-1.47,5.294,5.294,0,0,1-.336-1.878,5.685,5.685,0,0,1,.348-1.986,3.457,3.457,0,0,1,1.116-1.548,3.042,3.042,0,0,1,1.944-.606,3.655,3.655,0,0,1,1.35.222,4.025,4.025,0,0,1,1,.57v1.44H299.8a2.135,2.135,0,0,0-.576-1.4,1.668,1.668,0,0,0-1.176-.444,1.887,1.887,0,0,0-1.7.858,3.994,3.994,0,0,0-.558,2.214,7.334,7.334,0,0,0,.258,1.98,3.591,3.591,0,0,0,.8,1.506,1.758,1.758,0,0,0,1.344.582,2.085,2.085,0,0,0,2.064-1.728h.456a2.729,2.729,0,0,1-.48,1.164,2.679,2.679,0,0,1-.924.81A2.489,2.489,0,0,1,298.123,48.144Zm5.232-.576h1.056V40.656h-1.488l-.624,1.656h-.444V40.224h6.108v2.088h-.444l-.6-1.656h-1.488v6.912h1.056V48h-3.132Zm13.08,0V48H314.6l-2.28-3.588H311.2v3.156h.948V48h-2.928v-.432h.96V40.656h-.96v-.432h3.492a2.411,2.411,0,0,1,1.764.582,2,2,0,0,1,.588,1.482,2.052,2.052,0,0,1-.444,1.338,2.078,2.078,0,0,1-1.212.714l2.16,3.228ZM311.2,43.956h1.38a1.227,1.227,0,0,0,.978-.462,1.769,1.769,0,0,0,.39-1.182,1.819,1.819,0,0,0-.378-1.2,1.224,1.224,0,0,0-.99-.456H311.2Zm9.684,3.612V48h-3.372v-.432h1.176V40.656h-1.128v-.432h3.276v.432h-1.128v6.912Zm4.872.576a3.165,3.165,0,0,1-1.962-.576,3.233,3.233,0,0,1-1.1-1.47,5.294,5.294,0,0,1-.336-1.878,5.685,5.685,0,0,1,.348-1.986,3.457,3.457,0,0,1,1.116-1.548,3.042,3.042,0,0,1,1.944-.606,3.655,3.655,0,0,1,1.35.222,4.025,4.025,0,0,1,1,.57v1.44h-.684a2.135,2.135,0,0,0-.576-1.4,1.668,1.668,0,0,0-1.176-.444,1.887,1.887,0,0,0-1.7.858,3.994,3.994,0,0,0-.558,2.214,7.334,7.334,0,0,0,.258,1.98,3.591,3.591,0,0,0,.8,1.506,1.758,1.758,0,0,0,1.344.582,2.085,2.085,0,0,0,2.064-1.728h.456a2.729,2.729,0,0,1-.48,1.164,2.679,2.679,0,0,1-.924.81A2.489,2.489,0,0,1,325.759,48.144Zm7.452-.576h.96V40.656h-.96v-.432h2.052l2.64,6.012,2.544-6.012h2v.432h-.96v6.912h.96V48h-2.94v-.432h.96v-6.06L337.9,47.556h-.552l-2.664-6.1v6.108h.924V48h-2.4Zm14.028,0V48h-3.372v-.432h1.176V40.656h-1.128v-.432h3.276v.432h-1.128v6.912Zm1.416,0h.96V40.656h-.96v-.432h1.956l3.612,5.832v-5.4h-.96v-.432H355.7v.432h-.96V48h-.552l-4.056-6.612v6.18h.96V48h-2.436Zm11.712,0V48H357v-.432h1.176V40.656h-1.128v-.432h3.276v.432h-1.128v6.912Zm8.436.576a3.165,3.165,0,0,1-1.962-.576,3.233,3.233,0,0,1-1.1-1.47,5.294,5.294,0,0,1-.336-1.878,5.685,5.685,0,0,1,.348-1.986,3.457,3.457,0,0,1,1.116-1.548,3.042,3.042,0,0,1,1.944-.606,3.655,3.655,0,0,1,1.35.222,4.025,4.025,0,0,1,1,.57v1.44h-.684a2.135,2.135,0,0,0-.576-1.4,1.668,1.668,0,0,0-1.176-.444,1.887,1.887,0,0,0-1.7.858,3.994,3.994,0,0,0-.558,2.214,7.334,7.334,0,0,0,.258,1.98,3.591,3.591,0,0,0,.8,1.506,1.758,1.758,0,0,0,1.344.582,2.085,2.085,0,0,0,2.064-1.728h.456a2.729,2.729,0,0,1-.48,1.164,2.679,2.679,0,0,1-.924.81A2.489,2.489,0,0,1,368.8,48.144Zm7.356,0a3.05,3.05,0,0,1-1.878-.552,3.154,3.154,0,0,1-1.074-1.434,5.264,5.264,0,0,1-.336-1.89,5.806,5.806,0,0,1,.342-1.974,3.527,3.527,0,0,1,1.122-1.584,3.069,3.069,0,0,1,1.992-.63,3.1,3.1,0,0,1,1.89.552,3.243,3.243,0,0,1,1.1,1.434,4.994,4.994,0,0,1,.354,1.878,5.562,5.562,0,0,1-.36,1.968,3.674,3.674,0,0,1-1.146,1.6A3.093,3.093,0,0,1,376.159,48.144Zm.288-.4a1.765,1.765,0,0,0,1.608-.882,4.484,4.484,0,0,0,.54-2.358,7.131,7.131,0,0,0-.258-1.938,3.5,3.5,0,0,0-.822-1.506,1.923,1.923,0,0,0-1.452-.588,1.724,1.724,0,0,0-1.6.87,4.329,4.329,0,0,0-.51,2.214,6.683,6.683,0,0,0,.6,2.964A1.987,1.987,0,0,0,376.447,47.748Zm8.112.4a2.657,2.657,0,0,1-1.908-.672,2.537,2.537,0,0,1-.708-1.932V40.656h-.96v-.432h2.94v.432h-.96v5a1.941,1.941,0,0,0,.5,1.476,1.841,1.841,0,0,0,1.314.468,1.914,1.914,0,0,0,1.338-.474,1.875,1.875,0,0,0,.522-1.458V40.656h-.948v-.432H388.1v.432h-.948V45.72a2.3,2.3,0,0,1-.708,1.764A2.652,2.652,0,0,1,384.559,48.144Zm4.812-.576h.96V40.656h-.96v-.432h1.956l3.612,5.832v-5.4h-.96v-.432h2.436v.432h-.96V48H394.9l-4.056-6.612v6.18h.96V48h-2.436Zm9.684,0h1.056V40.656h-1.488L398,42.312h-.444V40.224h6.108v2.088h-.444l-.6-1.656h-1.488v6.912h1.056V48h-3.132Zm13.08,0V48H410.3l-2.28-3.588H406.9v3.156h.948V48h-2.928v-.432h.96V40.656h-.96v-.432h3.492a2.411,2.411,0,0,1,1.764.582,2,2,0,0,1,.588,1.482,2.052,2.052,0,0,1-.444,1.338,2.078,2.078,0,0,1-1.212.714l2.16,3.228ZM406.9,43.956h1.38a1.227,1.227,0,0,0,.978-.462,1.769,1.769,0,0,0,.39-1.182,1.819,1.819,0,0,0-.378-1.2,1.224,1.224,0,0,0-.99-.456H406.9Zm9.228.516v3.1h1.056V48h-3.132v-.432h1.056V44.784l-2.052-4.128h-.96v-.432h3.048v.432h-.96l1.656,3.372,1.728-3.372h-.96v-.432h2.46v.432h-.96Zm3.96,3.1h.96V40.656h-.96v-.432h2.052l2.64,6.012,2.544-6.012h2v.432h-.96v6.912h.96V48h-2.94v-.432h.96v-6.06l-2.568,6.048h-.552l-2.664-6.1v6.108h.924V48h-2.4Zm17.964,0V48h-2.784v-.432h.876l-.864-2.436H432.7l-.864,2.436h.876V48h-2.244v-.432h.852l2.652-7.344h.564l2.664,7.344Zm-2.94-2.892-1.1-3.108h-.048l-1.1,3.108Zm4.092,2.892h.96V40.656h-.96v-.432h1.956l3.612,5.832v-5.4h-.96v-.432h2.436v.432h-.96V48h-.552l-4.056-6.612v6.18h.96V48h-2.436Zm9.2.564a.717.717,0,1,1,.51-.21A.694.694,0,0,1,448.411,48.132ZM453.8,41.62l2.443,2.443.28-.28-2.443-2.443,2.443-2.443-.28-.28L453.8,41.06l-2.443-2.443-.28.28,2.443,2.443-2.443,2.443.28.28Zm-2.177-.91a.627.627,0,1,0,.616.623A.632.632,0,0,0,451.618,40.71Zm4.382,0a.627.627,0,1,0,.616.623A.632.632,0,0,0,456,40.71Zm-2.191,2.2a.627.627,0,1,0,.616.623A.632.632,0,0,0,453.809,42.908Zm0-4.389a.627.627,0,1,0,.616.623A.632.632,0,0,0,453.809,38.519Zm4.13,3.92a1.924,1.924,0,0,0,.252,1.064,1.4,1.4,0,0,0,1.218.616,1.378,1.378,0,0,0,.959-.336,1.709,1.709,0,0,0,.469-1.211,1.416,1.416,0,0,0-.371-1.008,1.358,1.358,0,0,0-.651-.357,1.106,1.106,0,0,0,.539-.273,1.375,1.375,0,0,0,.378-.98,1.356,1.356,0,0,0-2.569-.637,1.919,1.919,0,0,0-.147.833h.616a1.643,1.643,0,0,1,.217-1,.635.635,0,0,1,.532-.294c.448,0,.728.392.728,1.029,0,.763-.322,1.176-.917,1.176h-.42V41.4h.406a.887.887,0,0,1,.777.3,1.594,1.594,0,0,1,.238.924,1.518,1.518,0,0,1-.28.945.694.694,0,0,1-.525.259.731.731,0,0,1-.574-.322,1.935,1.935,0,0,1-.252-1.071ZM7.7,71.568V72H4.92v-.432H5.8l-.864-2.436H2.352l-.864,2.436h.876V72H.12v-.432H.972l2.652-7.344h.564l2.664,7.344Zm-2.94-2.892-1.1-3.108H3.612l-1.1,3.108Zm4.092,2.892h.96V64.656h-.96v-.432h2.976v.432h-1v6.912h2.808l.636-1.68h.456V72H8.856Zm7.14,0h.96V64.656H16v-.432h2.976v.432h-1v6.912h2.808l.636-1.68h.456V72H16Zm7.212-2.952h2.628v.468H23.208Zm10.056,1.272V72h-5.94v-.432h.96V64.656h-.96v-.432h5.844v2.088h-.456l-.636-1.656H29.3v3.012h1.884v-.924h.552v2.3h-.552v-.924H29.3v3.444h2.868l.636-1.68Zm1.452,1.68h.96V64.656h-.96v-.432h2.976v.432h-1v6.912H39.5l.636-1.68H40.6V72h-5.88Zm13.08-1.68V72h-5.94v-.432h.96V64.656h-.96v-.432H47.7v2.088h-.456l-.636-1.656H43.836v3.012H45.72v-.924h.552v2.3H45.72v-.924H43.836v3.444H46.7l.636-1.68Zm5.028,2.256a3.165,3.165,0,0,1-1.962-.576,3.233,3.233,0,0,1-1.1-1.47,5.294,5.294,0,0,1-.336-1.878,5.685,5.685,0,0,1,.348-1.986,3.457,3.457,0,0,1,1.116-1.548,3.042,3.042,0,0,1,1.944-.606,3.655,3.655,0,0,1,1.35.222,4.025,4.025,0,0,1,1,.57v1.44H54.5a2.135,2.135,0,0,0-.576-1.4,1.668,1.668,0,0,0-1.176-.444,1.887,1.887,0,0,0-1.7.858,3.994,3.994,0,0,0-.558,2.214,7.335,7.335,0,0,0,.258,1.98,3.591,3.591,0,0,0,.8,1.506A1.758,1.758,0,0,0,52.9,71.6a2.085,2.085,0,0,0,2.064-1.728h.456a2.729,2.729,0,0,1-.48,1.164,2.679,2.679,0,0,1-.924.81A2.489,2.489,0,0,1,52.824,72.144Zm5.232-.576h1.056V64.656H57.624L57,66.312h-.444V64.224h6.108v2.088H62.22l-.6-1.656H60.132v6.912h1.056V72H58.056Zm13.08,0V72H69.3l-2.28-3.588H65.9v3.156h.948V72H63.924v-.432h.96V64.656h-.96v-.432h3.492a2.411,2.411,0,0,1,1.764.582,2,2,0,0,1,.588,1.482,2.052,2.052,0,0,1-.444,1.338,2.078,2.078,0,0,1-1.212.714l2.16,3.228ZM65.9,67.956h1.38a1.227,1.227,0,0,0,.978-.462,1.769,1.769,0,0,0,.39-1.182,1.819,1.819,0,0,0-.378-1.2,1.224,1.224,0,0,0-.99-.456H65.9Zm9.684,3.612V72H72.216v-.432h1.176V64.656H72.264v-.432H75.54v.432H74.412v6.912Zm4.872.576a3.165,3.165,0,0,1-1.962-.576,3.233,3.233,0,0,1-1.1-1.47,5.294,5.294,0,0,1-.336-1.878,5.685,5.685,0,0,1,.348-1.986,3.457,3.457,0,0,1,1.116-1.548,3.042,3.042,0,0,1,1.944-.606,3.655,3.655,0,0,1,1.35.222,4.025,4.025,0,0,1,1,.57v1.44H82.14a2.135,2.135,0,0,0-.576-1.4,1.668,1.668,0,0,0-1.176-.444,1.887,1.887,0,0,0-1.7.858,3.994,3.994,0,0,0-.558,2.214,7.335,7.335,0,0,0,.258,1.98,3.591,3.591,0,0,0,.8,1.506,1.758,1.758,0,0,0,1.344.582A2.085,2.085,0,0,0,82.6,69.876h.456a2.729,2.729,0,0,1-.48,1.164,2.679,2.679,0,0,1-.924.81A2.489,2.489,0,0,1,80.46,72.144Zm7.452-.576h.96V64.656h-.96v-.432h2.052l2.64,6.012,2.544-6.012h2v.432h-.96v6.912h.96V72h-2.94v-.432h.96v-6.06L92.6,71.556h-.552l-2.664-6.1v6.108h.924V72h-2.4Zm14.028,0V72H98.568v-.432h1.176V64.656H98.616v-.432h3.276v.432h-1.128v6.912Zm1.416,0h.96V64.656h-.96v-.432h1.956l3.612,5.832v-5.4h-.96v-.432H110.4v.432h-.96V72h-.552l-4.056-6.612v6.18h.96V72h-2.436Zm11.712,0V72H111.7v-.432h1.176V64.656h-1.128v-.432h3.276v.432h-1.128v6.912Zm12.288,0V72h-2.784v-.432h.876l-.864-2.436H122l-.864,2.436h.876V72h-2.244v-.432h.852l2.652-7.344h.564l2.664,7.344Zm-2.94-2.892-1.1-3.108h-.048l-1.1,3.108Zm7.056,3.468a3.165,3.165,0,0,1-1.962-.576,3.233,3.233,0,0,1-1.1-1.47,5.294,5.294,0,0,1-.336-1.878,5.685,5.685,0,0,1,.348-1.986,3.457,3.457,0,0,1,1.116-1.548,3.042,3.042,0,0,1,1.944-.606,3.655,3.655,0,0,1,1.35.222,4.025,4.025,0,0,1,1,.57v1.44h-.684a2.135,2.135,0,0,0-.576-1.4,1.668,1.668,0,0,0-1.176-.444,1.887,1.887,0,0,0-1.7.858,3.994,3.994,0,0,0-.558,2.214,7.334,7.334,0,0,0,.258,1.98,3.591,3.591,0,0,0,.8,1.506,1.758,1.758,0,0,0,1.344.582,2.085,2.085,0,0,0,2.064-1.728h.456a2.729,2.729,0,0,1-.48,1.164,2.679,2.679,0,0,1-.924.81A2.489,2.489,0,0,1,131.472,72.144Zm9.828-2.256V72h-5.94v-.432h.96V64.656h-.96v-.432H141.2v2.088h-.456l-.636-1.656H137.34v3.012h1.884v-.924h.552v2.3h-.552v-.924H137.34v3.444h2.868l.636-1.68Zm1.452,1.68h.96V64.656h-.96v-.432H144.8l2.64,6.012,2.544-6.012h2v.432h-.96v6.912h.96V72h-2.94v-.432h.96v-6.06l-2.568,6.048h-.552l-2.664-6.1v6.108h.924V72h-2.4Zm17.964,0V72h-2.784v-.432h.876l-.864-2.436h-2.58l-.864,2.436h.876V72h-2.244v-.432h.852l2.652-7.344h.564l2.664,7.344Zm-2.94-2.892-1.1-3.108h-.048l-1.1,3.108Zm4.092,2.892h.96V64.656h-.96v-.432h1.956l3.612,5.832v-5.4h-.96v-.432h2.436v.432h-.96V72H167.4l-4.056-6.612v6.18h.96V72h-2.436Zm9.2.564a.717.717,0,1,1,.51-.21A.694.694,0,0,1,171.072,72.132Zm5.384-6.512,2.443,2.443.28-.28-2.443-2.443,2.443-2.443-.28-.28-2.443,2.443-2.443-2.443-.28.28,2.443,2.443-2.443,2.443.28.28Zm-2.177-.91a.627.627,0,1,0,.616.623A.632.632,0,0,0,174.279,64.71Zm4.382,0a.627.627,0,1,0,.616.623A.632.632,0,0,0,178.661,64.71Zm-2.191,2.2a.627.627,0,1,0,.616.623A.632.632,0,0,0,176.47,66.908Zm0-4.389a.627.627,0,1,0,.616.623A.632.632,0,0,0,176.47,62.519Zm4.13,3.92a1.924,1.924,0,0,0,.252,1.064,1.4,1.4,0,0,0,1.218.616,1.378,1.378,0,0,0,.959-.336,1.709,1.709,0,0,0,.469-1.211,1.416,1.416,0,0,0-.371-1.008,1.358,1.358,0,0,0-.651-.357,1.106,1.106,0,0,0,.539-.273,1.375,1.375,0,0,0,.378-.98,1.356,1.356,0,0,0-2.569-.637,1.919,1.919,0,0,0-.147.833h.616a1.643,1.643,0,0,1,.217-1,.635.635,0,0,1,.532-.294c.448,0,.728.392.728,1.029,0,.763-.322,1.176-.917,1.176h-.42V65.4h.406a.887.887,0,0,1,.777.3,1.594,1.594,0,0,1,.238.924,1.518,1.518,0,0,1-.28.945.694.694,0,0,1-.525.259.731.731,0,0,1-.574-.322,1.935,1.935,0,0,1-.252-1.071Zm8.4,5.6,5.988-9.192h-.8l-5.988,9.192Zm11.016-.468h.96V64.656h-.96v-.432h2.052l2.64,6.012,2.544-6.012h2v.432h-.96v6.912h.96V72h-2.94v-.432h.96v-6.06L204.7,71.556h-.552l-2.664-6.1v6.108h.924V72h-2.4Zm14.028,0V72h-3.372v-.432h1.176V64.656h-1.128v-.432h3.276v.432h-1.128v6.912Zm1.416,0h.96V64.656h-.96v-.432h1.956l3.612,5.832v-5.4h-.96v-.432H222.5v.432h-.96V72h-.552l-4.056-6.612v6.18h.96V72h-2.436Zm11.712,0V72H223.8v-.432h1.176V64.656h-1.128v-.432h3.276v.432h-1.128v6.912Zm6.612.576a2.052,2.052,0,0,1-1.038-.222,2.489,2.489,0,0,1-.69-.618V69.888h.648a3.788,3.788,0,0,0,.324,1.428.794.794,0,0,0,.744.432q.9,0,.9-1.3v-5.8h-1v-.432h2.988v.432h-.972v5.472a1.95,1.95,0,0,1-.552,1.506A1.924,1.924,0,0,1,233.779,72.144Zm7.5,0a3.05,3.05,0,0,1-1.878-.552,3.154,3.154,0,0,1-1.074-1.434,5.264,5.264,0,0,1-.336-1.89,5.806,5.806,0,0,1,.342-1.974,3.527,3.527,0,0,1,1.122-1.584,3.069,3.069,0,0,1,1.992-.63,3.1,3.1,0,0,1,1.89.552,3.244,3.244,0,0,1,1.1,1.434,4.994,4.994,0,0,1,.354,1.878,5.562,5.562,0,0,1-.36,1.968,3.675,3.675,0,0,1-1.146,1.6A3.093,3.093,0,0,1,241.279,72.144Zm.288-.4a1.765,1.765,0,0,0,1.608-.882,4.484,4.484,0,0,0,.54-2.358,7.131,7.131,0,0,0-.258-1.938,3.5,3.5,0,0,0-.822-1.506,1.923,1.923,0,0,0-1.452-.588,1.724,1.724,0,0,0-1.6.87,4.329,4.329,0,0,0-.51,2.214,6.683,6.683,0,0,0,.6,2.964A1.987,1.987,0,0,0,241.567,71.748Zm11.22-7.092v6.912h.96V72h-2.916v-.432h.936V68.124h-3.54v3.444h.936V72h-2.916v-.432h.96V64.656h-.96v-.432h2.916v.432h-.936v3.012h3.54V64.656h-.936v-.432h2.916v.432Zm2.376,6.912h.96V64.656h-.96v-.432h1.956l3.612,5.832v-5.4h-.96v-.432h2.436v.432h-.96V72H260.7l-4.056-6.612v6.18h.96V72h-2.436Zm15.36.576a3.165,3.165,0,0,1-1.962-.576,3.233,3.233,0,0,1-1.1-1.47,5.294,5.294,0,0,1-.336-1.878,5.685,5.685,0,0,1,.348-1.986,3.457,3.457,0,0,1,1.116-1.548,3.042,3.042,0,0,1,1.944-.606,3.655,3.655,0,0,1,1.35.222,4.025,4.025,0,0,1,1,.57v1.44H272.2a2.135,2.135,0,0,0-.576-1.4,1.668,1.668,0,0,0-1.176-.444,1.887,1.887,0,0,0-1.7.858,3.994,3.994,0,0,0-.558,2.214,7.334,7.334,0,0,0,.258,1.98,3.591,3.591,0,0,0,.8,1.506,1.758,1.758,0,0,0,1.344.582,2.085,2.085,0,0,0,2.064-1.728h.456a2.729,2.729,0,0,1-.48,1.164,2.679,2.679,0,0,1-.924.81A2.489,2.489,0,0,1,270.523,72.144Zm7.356,0A3.05,3.05,0,0,1,276,71.592a3.154,3.154,0,0,1-1.074-1.434,5.264,5.264,0,0,1-.336-1.89,5.806,5.806,0,0,1,.342-1.974,3.527,3.527,0,0,1,1.122-1.584,3.069,3.069,0,0,1,1.992-.63,3.1,3.1,0,0,1,1.89.552,3.243,3.243,0,0,1,1.1,1.434,4.994,4.994,0,0,1,.354,1.878,5.562,5.562,0,0,1-.36,1.968,3.675,3.675,0,0,1-1.146,1.6A3.093,3.093,0,0,1,277.879,72.144Zm.288-.4a1.765,1.765,0,0,0,1.608-.882,4.484,4.484,0,0,0,.54-2.358,7.131,7.131,0,0,0-.258-1.938,3.5,3.5,0,0,0-.822-1.506,1.923,1.923,0,0,0-1.452-.588,1.724,1.724,0,0,0-1.6.87,4.329,4.329,0,0,0-.51,2.214,6.683,6.683,0,0,0,.6,2.964A1.987,1.987,0,0,0,278.167,71.748Zm8.148.4a3.05,3.05,0,0,1-1.878-.552,3.154,3.154,0,0,1-1.074-1.434,5.264,5.264,0,0,1-.336-1.89,5.806,5.806,0,0,1,.342-1.974,3.527,3.527,0,0,1,1.122-1.584,3.069,3.069,0,0,1,1.992-.63,3.1,3.1,0,0,1,1.89.552,3.243,3.243,0,0,1,1.1,1.434,4.994,4.994,0,0,1,.354,1.878,5.562,5.562,0,0,1-.36,1.968,3.675,3.675,0,0,1-1.146,1.6A3.093,3.093,0,0,1,286.315,72.144Zm.288-.4a1.765,1.765,0,0,0,1.608-.882,4.484,4.484,0,0,0,.54-2.358,7.131,7.131,0,0,0-.258-1.938,3.5,3.5,0,0,0-.822-1.506,1.923,1.923,0,0,0-1.452-.588,1.724,1.724,0,0,0-1.6.87,4.329,4.329,0,0,0-.51,2.214,6.683,6.683,0,0,0,.6,2.964A1.987,1.987,0,0,0,286.6,71.748Zm8.172-7.524a2.459,2.459,0,0,1,1.764.564,1.937,1.937,0,0,1,.588,1.464,2.092,2.092,0,0,1-.282,1.08,2.007,2.007,0,0,1-.816.762,2.648,2.648,0,0,1-1.254.282h-1.512v3.192h.96V72h-2.94v-.432h.96V64.656h-.96v-.432Zm-.144,3.7a1.227,1.227,0,0,0,.978-.462,2.024,2.024,0,0,0,.018-2.364,1.24,1.24,0,0,0-1-.438h-1.368V67.92Zm9.756,1.968V72h-5.94v-.432h.96V64.656h-.96v-.432h5.844v2.088h-.456l-.636-1.656h-2.772v3.012h1.884v-.924h.552v2.3h-.552v-.924h-1.884v3.444H303.3l.636-1.68Zm8.664,1.68V72h-1.836l-2.28-3.588h-1.116v3.156h.948V72h-2.928v-.432h.96V64.656h-.96v-.432h3.492a2.411,2.411,0,0,1,1.764.582,2,2,0,0,1,.588,1.482,2.052,2.052,0,0,1-.444,1.338,2.078,2.078,0,0,1-1.212.714l2.16,3.228Zm-5.232-3.612h1.38a1.227,1.227,0,0,0,.978-.462,1.769,1.769,0,0,0,.39-1.182,1.819,1.819,0,0,0-.378-1.2,1.224,1.224,0,0,0-.99-.456h-1.38Zm20.988-3.3h-.888L325.843,72h-.552l-2.148-6.072L321.187,72h-.552l-2.2-7.344h-.948v-.432h3v.432h-.96l1.644,5.724,1.956-6.108h.5l2.2,6.072,1.572-5.688h-.948v-.432h2.352Zm3.96,7.488a3.05,3.05,0,0,1-1.878-.552,3.154,3.154,0,0,1-1.074-1.434,5.264,5.264,0,0,1-.336-1.89,5.806,5.806,0,0,1,.342-1.974,3.527,3.527,0,0,1,1.122-1.584,3.069,3.069,0,0,1,1.992-.63,3.1,3.1,0,0,1,1.89.552,3.243,3.243,0,0,1,1.1,1.434,4.994,4.994,0,0,1,.354,1.878,5.562,5.562,0,0,1-.36,1.968,3.675,3.675,0,0,1-1.146,1.6A3.093,3.093,0,0,1,332.767,72.144Zm.288-.4a1.765,1.765,0,0,0,1.608-.882,4.484,4.484,0,0,0,.54-2.358,7.131,7.131,0,0,0-.258-1.938,3.5,3.5,0,0,0-.822-1.506,1.923,1.923,0,0,0-1.452-.588,1.724,1.724,0,0,0-1.6.87,4.329,4.329,0,0,0-.51,2.214,6.683,6.683,0,0,0,.6,2.964A1.987,1.987,0,0,0,333.055,71.748Zm11.892-.18V72h-1.836l-2.28-3.588h-1.116v3.156h.948V72h-2.928v-.432h.96V64.656h-.96v-.432h3.492a2.411,2.411,0,0,1,1.764.582,2,2,0,0,1,.588,1.482,2.052,2.052,0,0,1-.444,1.338,2.078,2.078,0,0,1-1.212.714l2.16,3.228Zm-5.232-3.612h1.38a1.227,1.227,0,0,0,.978-.462,1.769,1.769,0,0,0,.39-1.182,1.819,1.819,0,0,0-.378-1.2,1.224,1.224,0,0,0-.99-.456h-1.38Zm13.332,3.612V72h-1.872l-2.748-3.876H348v3.444h.936V72h-2.9v-.432h.948V64.656h-.948v-.432h2.9v.432H348v3.012h.588l2.508-3.012H350.2v-.432h2.424v.432h-.888l-2.448,2.964,2.868,3.948Zm3.516.576a3.707,3.707,0,0,1-1.374-.24,2.174,2.174,0,0,1-.894-.588V69.9h.648a2.386,2.386,0,0,0,.54,1.434,1.5,1.5,0,0,0,1.1.414,1.579,1.579,0,0,0,1.146-.39,1.4,1.4,0,0,0,.4-1.05,1.341,1.341,0,0,0-.66-1.2l-2.136-1.38a2.564,2.564,0,0,1-.762-.708,1.707,1.707,0,0,1-.27-.984,1.77,1.77,0,0,1,.63-1.422,2.6,2.6,0,0,1,1.734-.534,3.5,3.5,0,0,1,1.23.2,2.3,2.3,0,0,1,.894.576v1.452h-.648a2.563,2.563,0,0,0-.456-1.446,1.3,1.3,0,0,0-1.02-.4,1.4,1.4,0,0,0-1.1.384,1.341,1.341,0,0,0-.342.924,1.142,1.142,0,0,0,.552,1.032l2.1,1.344a3.031,3.031,0,0,1,.942.858,1.81,1.81,0,0,1,.282,1,1.99,1.99,0,0,1-1.17,1.86A3.129,3.129,0,0,1,356.563,72.144Zm13.548-2.256V72h-5.94v-.432h.96V64.656h-.96v-.432h5.844v2.088h-.456l-.636-1.656h-2.772v3.012h1.884v-.924h.552v2.3h-.552v-.924h-1.884v3.444h2.868l.636-1.68Zm2.316,2.244a.717.717,0,1,1,.51-.21A.694.694,0,0,1,372.427,72.132Zm5.384-6.512,2.443,2.443.28-.28-2.443-2.443,2.443-2.443-.28-.28-2.443,2.443-2.443-2.443-.28.28,2.443,2.443-2.443,2.443.28.28Zm-2.177-.91a.627.627,0,1,0,.616.623A.632.632,0,0,0,375.634,64.71Zm4.382,0a.627.627,0,1,0,.616.623A.632.632,0,0,0,380.016,64.71Zm-2.191,2.2a.627.627,0,1,0,.616.623A.632.632,0,0,0,377.825,66.908Zm0-4.389a.627.627,0,1,0,.616.623A.632.632,0,0,0,377.825,62.519Zm4.13,3.92a1.924,1.924,0,0,0,.252,1.064,1.4,1.4,0,0,0,1.218.616,1.378,1.378,0,0,0,.959-.336,1.709,1.709,0,0,0,.469-1.211,1.416,1.416,0,0,0-.371-1.008,1.358,1.358,0,0,0-.651-.357,1.106,1.106,0,0,0,.539-.273,1.375,1.375,0,0,0,.378-.98,1.356,1.356,0,0,0-2.569-.637,1.919,1.919,0,0,0-.147.833h.616a1.643,1.643,0,0,1,.217-1,.635.635,0,0,1,.532-.294c.448,0,.728.392.728,1.029,0,.763-.322,1.176-.917,1.176h-.42V65.4h.406a.887.887,0,0,1,.777.3,1.594,1.594,0,0,1,.238.924,1.518,1.518,0,0,1-.28.945.694.694,0,0,1-.525.259.731.731,0,0,1-.574-.322,1.935,1.935,0,0,1-.252-1.071Z" transform="translate(576 7653)"/>
  </g>
</svg>
