<svg xmlns="http://www.w3.org/2000/svg" width="612" height="100" viewBox="0 0 612 100">
  <g id="sec06-tit04-sp" transform="translate(-424 -3815)">
    <rect id="長方形_256" data-name="長方形 256" width="612" height="100" transform="translate(424 3815)" fill="none"/>
    <g id="グループ_905" data-name="グループ 905" transform="translate(-505.5)">
      <path id="パス_153" data-name="パス 153" d="M.66-.72h1.6V-12.24H.66v-.72H4.08L8.48-2.94l4.24-10.02h3.34v.72h-1.6V-.72h1.6V0h-4.9V-.72h1.6v-10.1L8.48-.74H7.56L3.12-10.9V-.72H4.66V0h-4Zm23.38,0V0H18.42V-.72h1.96V-12.24H18.5v-.72h5.46v.72H22.08V-.72Zm2.36,0H28V-12.24H26.4v-.72h3.26l6.02,9.72v-9h-1.6v-.72h4.06v.72h-1.6V0h-.92L28.86-11.02V-.72h1.6V0H26.4Zm19.52,0V0H40.3V-.72h1.96V-12.24H40.38v-.72h5.46v.72H43.96V-.72ZM56.86-13.86H50.4V-7.3h6.16a9.008,9.008,0,0,1-1.12,3.52,9.118,9.118,0,0,1-2.9-2.9l-.56.18a9.115,9.115,0,0,0,2.76,3.7A12.331,12.331,0,0,1,48.44.94l.2.56A13.207,13.207,0,0,0,56-1.92c2.34,1.5,5.58,2.58,9.94,3.3a19.794,19.794,0,0,1,.88-1.86A29.019,29.019,0,0,1,56.86-3,9.86,9.86,0,0,0,58.3-7.3h6.9v-6.56H58.58v-2.16c.26-.2.32-.26.32-.4,0-.18-.14-.26-.44-.26h-1.6ZM52.08-8.1v-4.96h4.76c.02,1.28-.08,3.44-.2,4.96Zm6.3,0c.1-1.54.12-1.84.16-3.68l.02-1.28h4.96V-8.1ZM76.9-.48H70.3l-.84-.16V.58L70.3.42H87.02l.84.16V-.64l-.84.16H78.8V-9.72h6.38l.84.16v-1.22l-.84.16H78.8v-5.26c.26-.18.32-.26.32-.38,0-.2-.14-.28-.42-.28H76.9ZM95.12-8.5a25.721,25.721,0,0,0,3.06-5.02H95.16v-2.5c.26-.18.32-.26.32-.4,0-.18-.14-.26-.42-.26H93.58v3.16H91.46l-.78-.16v1.12l.78-.16H96a33.527,33.527,0,0,1-5.5,7.84l.36.48a24.273,24.273,0,0,0,2.7-2.32v8.2h1.56V-7.24a15.094,15.094,0,0,1,2.06,3.18l1.26-1.28a11.724,11.724,0,0,0-2.22-1.74,9.661,9.661,0,0,0,1.9-1.42c.4,0,.64-.1.64-.3,0-.1-.08-.2-.26-.32l-1.22-.8A12.965,12.965,0,0,1,95.72-7.4c-.36-.22-.46-.28-.6-.36Zm7.58-6.02h3.5c-.12,5.96-.68,13.64-1.02,14.26a1.234,1.234,0,0,1-1.42.78h-1.9v.84h2.96a2.057,2.057,0,0,0,1.72-.54c.42-.42.56-.98.72-2.58.4-4.54.62-9.1.7-13.56H99.02l-.78-.16v1.12l.78-.16h1.96v1.24c-.14,7.64-1.46,11.6-4.74,14.32l.38.56a10.215,10.215,0,0,0,4.76-5.58c.74-1.66,1.28-5.46,1.32-9.3Zm12.02,9.86a3.133,3.133,0,0,0-3.18,3.1,3.137,3.137,0,0,0,3.14,3.16,3.141,3.141,0,0,0,3.12-3.14A3.156,3.156,0,0,0,114.72-4.66Zm-.08.92a2.211,2.211,0,0,1,2.24,2.18,2.215,2.215,0,0,1-2.2,2.24,2.228,2.228,0,0,1-2.22-2.22A2.229,2.229,0,0,1,114.64-3.74ZM133.14-.8c3.36-2.72,5.4-6.4,6.58-11.86.42-.16.6-.34.6-.58s-.22-.4-.78-.54l-1.76-.46-.06,1.2A27.373,27.373,0,0,1,132.7-1.2Zm10.04-13A36.388,36.388,0,0,1,148.84-.98l2.04-1.14c-1.46-4.96-4.2-9.62-7.16-12.12Zm21.84,3.08a51.42,51.42,0,0,0,4.26-3.76c.54-.06.76-.2.76-.48a.62.62,0,0,0-.32-.46l-1.54-1.02-.72,1.08a38.909,38.909,0,0,1-13.12,9.1l.22.6a26.378,26.378,0,0,0,8.6-3.72V1.06h1.86Zm18.86.96a2.173,2.173,0,0,0-2.2,2.16,2.172,2.172,0,0,0,2.18,2.18,2.181,2.181,0,0,0,2.16-2.18A2.186,2.186,0,0,0,183.88-9.76ZM196.26-.6c3.34-2.68,5.44-6.46,6.58-11.84.42-.18.6-.34.6-.58,0-.26-.22-.4-.78-.56l-1.76-.44-.06,1.18A27.316,27.316,0,0,1,195.82-.98Zm10.04-13A36.526,36.526,0,0,1,211.96-.76L214-1.9c-1.48-5.02-4.18-9.6-7.16-12.14Zm6.02-3.4a2.032,2.032,0,0,0-2.06,2,2.032,2.032,0,0,0,2.02,2.04,2.04,2.04,0,0,0,2.02-2.02A2.019,2.019,0,0,0,212.32-17Zm-.06.8A1.225,1.225,0,0,1,213.5-15a1.217,1.217,0,0,1-1.22,1.24,1.238,1.238,0,0,1-1.22-1.22A1.234,1.234,0,0,1,212.26-16.2ZM220.6.18c3.66-.82,5.68-1.74,7.78-3.56,2.78-2.48,4.48-6.16,5.02-10.88H219.66l-.88-.18v1.28l.88-.18h11.56C230.18-6.76,226.64-2.56,220.38-.5Zm26.36-7.82a22.59,22.59,0,0,1-6.74,7.2l.22.42a16.9,16.9,0,0,0,7.64-6.44l.16,5.66v.28c0,.52-.2.74-.72.74H245.7v.92h2.92c.9,0,1.3-.38,1.32-1.32l-.2-7.46h2.54l.88.18V-8.74l-.88.18h-2.56l-.08-2.66c.24-.18.32-.3.32-.44,0-.18-.16-.28-.46-.3l-1.68-.06.14,1.22.06,2.24h-6.18l-.88-.18v1.28l.88-.18Zm29.54-.44L259.8-8.7v2.1l16.7-.6Zm7.26.34a31.19,31.19,0,0,1,7.5,7.82l1.72-1.32a16.047,16.047,0,0,0-3.2-3.54l-.06-.04.06-.04.12-.06c3.64-2.06,6.72-5.74,7.7-9.18H281.76l-.88-.18V-13l.88-.18h13.3a19.764,19.764,0,0,1-5.96,7.86,22.877,22.877,0,0,0-5.02-2.94Zm34.7-4.78a19.852,19.852,0,0,1-5.1,6.48c-2.66,2.16-4.94,3.18-9.18,4.06l-1.06.02.72,1.78c.12.28.3.44.5.44.22,0,.38-.14.52-.46,4.52-1.02,7.36-2.38,9.82-4.7a16.858,16.858,0,0,0,4.34-7.36ZM302.94-14.7a18.8,18.8,0,0,1,4.98,4.28l1.64-1.66a12.342,12.342,0,0,0-6.38-3.14Zm29.94,8.04a25.184,25.184,0,0,0,4.12-8.1H325.16l-.88-.18v1.28l.88-.18h9.46A23.048,23.048,0,0,1,322.54-.36l.28.62a20.106,20.106,0,0,0,9.64-6.38A34.14,34.14,0,0,1,338.18.4l1.78-1.44a24.43,24.43,0,0,0-6.82-5.48Zm19.32-3.1A2.173,2.173,0,0,0,350-7.6a2.172,2.172,0,0,0,2.18,2.18,2.181,2.181,0,0,0,2.16-2.18A2.186,2.186,0,0,0,352.2-9.76Zm18.26,1.72v5.18c0,1.7.28,2.28,1.28,2.62A21.477,21.477,0,0,0,377,.14c1.34,0,2.34-.04,3.7-.12V-1.8a39.064,39.064,0,0,1-4.68.28,10.34,10.34,0,0,1-3.16-.3c-.4-.18-.5-.42-.5-1.22v-5h8.6l.9.18V-9.14l-.9.18h-8.6v-4.92h6.62l.88.18v-1.28l-.88.18h-12.3l-.88-.18v1.28l.88-.18h3.78v4.92h-5.02l-.9-.18v1.28l.9-.18Zm31.14-.24.88.18V-9.38l-.88.18H386.2l-.88-.18V-8.1l.88-.18h6.98a9.829,9.829,0,0,1-.96,4.8A9.486,9.486,0,0,1,386.44.64l.16.68a12.271,12.271,0,0,0,6.7-3.28c1.26-1.38,1.84-3.36,1.84-6.32Zm-3.54-6.52h-9.42l-.88-.18v1.28l.88-.18h9.42l.88.18v-1.28Zm5.6-.12A3.95,3.95,0,0,0,401.3-17l-.32.28a8.038,8.038,0,0,1,1.34,2.52Zm-4.88-1.5A8.955,8.955,0,0,1,400-13.68l1.32-.64a3.817,3.817,0,0,0-2.18-2.36ZM415.86.64a9.908,9.908,0,0,0,5.94-3.62,14,14,0,0,0,2.9-6.58l-.62-.2c-1.32,3.76-3.82,6.82-6.44,7.88V-14.8c.3-.2.4-.34.4-.52a.374.374,0,0,0-.38-.34l-1.98-.14.18,1.2ZM406.4.7a10.972,10.972,0,0,0,4.48-4.76c.82-1.78,1.18-4.12,1.18-7.8v-2.26c.3-.2.4-.34.4-.52a.36.36,0,0,0-.38-.34l-2.04-.14.18,1.2v2.24c0,6.08-.96,8.82-4.18,11.86ZM3.38,36.24a3.42,3.42,0,0,1-1.73-.37A4.149,4.149,0,0,1,.5,34.84V32.48H1.58a6.314,6.314,0,0,0,.54,2.38,1.324,1.324,0,0,0,1.24.72q1.5,0,1.5-2.16V23.76H3.2v-.72H8.18v.72H6.56v9.12a3.251,3.251,0,0,1-.92,2.51A3.207,3.207,0,0,1,3.38,36.24Zm12.5,0a5.084,5.084,0,0,1-3.13-.92,5.256,5.256,0,0,1-1.79-2.39,8.774,8.774,0,0,1-.56-3.15,9.677,9.677,0,0,1,.57-3.29,5.878,5.878,0,0,1,1.87-2.64,5.115,5.115,0,0,1,3.32-1.05,5.173,5.173,0,0,1,3.15.92,5.406,5.406,0,0,1,1.84,2.39,8.324,8.324,0,0,1,.59,3.13,9.27,9.27,0,0,1-.6,3.28,6.125,6.125,0,0,1-1.91,2.66A5.156,5.156,0,0,1,15.88,36.24Zm.48-.66a2.942,2.942,0,0,0,2.68-1.47,7.473,7.473,0,0,0,.9-3.93,11.885,11.885,0,0,0-.43-3.23,5.828,5.828,0,0,0-1.37-2.51,3.2,3.2,0,0,0-2.42-.98,2.873,2.873,0,0,0-2.67,1.45,7.215,7.215,0,0,0-.85,3.69,11.138,11.138,0,0,0,1,4.94A3.311,3.311,0,0,0,16.36,35.58Zm18.7-11.82V35.28h1.6V36H31.8v-.72h1.56V29.54h-5.9v5.74h1.56V36H24.16v-.72h1.6V23.76h-1.6v-.72h4.86v.72H27.46v5.02h5.9V23.76H31.8v-.72h4.86v.72Zm3.96,11.52h1.6V23.76h-1.6v-.72h3.26l6.02,9.72v-9H46.7v-.72h4.06v.72h-1.6V36h-.92L41.48,24.98v10.3h1.6V36H39.02Zm25.6.96a5.275,5.275,0,0,1-3.27-.96,5.388,5.388,0,0,1-1.83-2.45,8.823,8.823,0,0,1-.56-3.13,9.475,9.475,0,0,1,.58-3.31,5.761,5.761,0,0,1,1.86-2.58,5.07,5.07,0,0,1,3.24-1.01,6.092,6.092,0,0,1,2.25.37,6.708,6.708,0,0,1,1.67.95v2.4H67.42a3.558,3.558,0,0,0-.96-2.34,2.78,2.78,0,0,0-1.96-.74,3.144,3.144,0,0,0-2.83,1.43,6.657,6.657,0,0,0-.93,3.69,12.225,12.225,0,0,0,.43,3.3,5.985,5.985,0,0,0,1.33,2.51,2.931,2.931,0,0,0,2.24.97,3.475,3.475,0,0,0,3.44-2.88h.76a4.549,4.549,0,0,1-.8,1.94,4.465,4.465,0,0,1-1.54,1.35A4.148,4.148,0,0,1,64.62,36.24Zm12.26,0a5.084,5.084,0,0,1-3.13-.92,5.256,5.256,0,0,1-1.79-2.39,8.774,8.774,0,0,1-.56-3.15,9.677,9.677,0,0,1,.57-3.29,5.878,5.878,0,0,1,1.87-2.64,5.116,5.116,0,0,1,3.32-1.05,5.173,5.173,0,0,1,3.15.92,5.406,5.406,0,0,1,1.84,2.39,8.324,8.324,0,0,1,.59,3.13,9.27,9.27,0,0,1-.6,3.28,6.125,6.125,0,0,1-1.91,2.66A5.156,5.156,0,0,1,76.88,36.24Zm.48-.66a2.942,2.942,0,0,0,2.68-1.47,7.473,7.473,0,0,0,.9-3.93,11.885,11.885,0,0,0-.43-3.23,5.828,5.828,0,0,0-1.37-2.51,3.2,3.2,0,0,0-2.42-.98,2.873,2.873,0,0,0-2.67,1.45,7.214,7.214,0,0,0-.85,3.69,11.138,11.138,0,0,0,1,4.94A3.311,3.311,0,0,0,77.36,35.58Zm13.58.66a5.084,5.084,0,0,1-3.13-.92,5.256,5.256,0,0,1-1.79-2.39,8.774,8.774,0,0,1-.56-3.15,9.677,9.677,0,0,1,.57-3.29,5.878,5.878,0,0,1,1.87-2.64,5.116,5.116,0,0,1,3.32-1.05,5.173,5.173,0,0,1,3.15.92,5.406,5.406,0,0,1,1.84,2.39,8.324,8.324,0,0,1,.59,3.13,9.27,9.27,0,0,1-.6,3.28,6.125,6.125,0,0,1-1.91,2.66A5.156,5.156,0,0,1,90.94,36.24Zm.48-.66a2.942,2.942,0,0,0,2.68-1.47,7.473,7.473,0,0,0,.9-3.93,11.885,11.885,0,0,0-.43-3.23,5.828,5.828,0,0,0-1.37-2.51,3.2,3.2,0,0,0-2.42-.98,2.873,2.873,0,0,0-2.67,1.45,7.214,7.214,0,0,0-.85,3.69,11.138,11.138,0,0,0,1,4.94A3.311,3.311,0,0,0,91.42,35.58Zm13.62-12.54a4.1,4.1,0,0,1,2.94.94,3.229,3.229,0,0,1,.98,2.44,3.487,3.487,0,0,1-.47,1.8,3.344,3.344,0,0,1-1.36,1.27,4.414,4.414,0,0,1-2.09.47h-2.52v5.32h1.6V36h-4.9v-.72h1.6V23.76h-1.6v-.72Zm-.24,6.16a2.045,2.045,0,0,0,1.63-.77,2.949,2.949,0,0,0,.65-1.97,2.943,2.943,0,0,0-.62-1.97,2.067,2.067,0,0,0-1.66-.73h-2.28V29.2Zm16.26,3.28V36h-9.9v-.72h1.6V23.76h-1.6v-.72h9.74v3.48h-.76l-1.06-2.76h-4.62v5.02h3.14V27.24h.92v3.84h-.92V29.54h-3.14v5.74h4.78l1.06-2.8Zm14.44,2.8V36h-3.06l-3.8-5.98h-1.86v5.26h1.58V36h-4.88v-.72h1.6V23.76h-1.6v-.72h5.82a4.018,4.018,0,0,1,2.94.97,3.328,3.328,0,0,1,.98,2.47,3.42,3.42,0,0,1-.74,2.23,3.463,3.463,0,0,1-2.02,1.19l3.6,5.38Zm-8.72-6.02h2.3a2.045,2.045,0,0,0,1.63-.77,2.949,2.949,0,0,0,.65-1.97,3.032,3.032,0,0,0-.63-2,2.04,2.04,0,0,0-1.65-.76h-2.3Zm34.98-5.5h-1.48L156.82,36h-.92l-3.58-10.12L149.06,36h-.92l-3.66-12.24H142.9v-.72h5v.72h-1.6l2.74,9.54,3.26-10.18h.84l3.66,10.12,2.62-9.48h-1.58v-.72h3.92Zm6.6,12.48a5.084,5.084,0,0,1-3.13-.92,5.256,5.256,0,0,1-1.79-2.39,8.773,8.773,0,0,1-.56-3.15,9.677,9.677,0,0,1,.57-3.29,5.878,5.878,0,0,1,1.87-2.64,5.116,5.116,0,0,1,3.32-1.05,5.172,5.172,0,0,1,3.15.92,5.406,5.406,0,0,1,1.84,2.39,8.324,8.324,0,0,1,.59,3.13,9.27,9.27,0,0,1-.6,3.28,6.125,6.125,0,0,1-1.91,2.66A5.156,5.156,0,0,1,168.36,36.24Zm.48-.66a2.942,2.942,0,0,0,2.68-1.47,7.473,7.473,0,0,0,.9-3.93,11.885,11.885,0,0,0-.43-3.23,5.828,5.828,0,0,0-1.37-2.51,3.2,3.2,0,0,0-2.42-.98,2.873,2.873,0,0,0-2.67,1.45,7.215,7.215,0,0,0-.85,3.69,11.138,11.138,0,0,0,1,4.94A3.311,3.311,0,0,0,168.84,35.58Zm19.82-.3V36H185.6l-3.8-5.98h-1.86v5.26h1.58V36h-4.88v-.72h1.6V23.76h-1.6v-.72h5.82a4.018,4.018,0,0,1,2.94.97,3.328,3.328,0,0,1,.98,2.47,3.42,3.42,0,0,1-.74,2.23,3.463,3.463,0,0,1-2.02,1.19l3.6,5.38Zm-8.72-6.02h2.3a2.045,2.045,0,0,0,1.63-.77,2.949,2.949,0,0,0,.65-1.97,3.032,3.032,0,0,0-.63-2,2.04,2.04,0,0,0-1.65-.76h-2.3Zm22.22,6.02V36h-3.12l-4.58-6.46h-.72v5.74h1.56V36h-4.84v-.72h1.58V23.76h-1.58v-.72h4.84v.72h-1.56v5.02h.98l4.18-5.02h-1.48v-.72h4.04v.72h-1.48L195.9,28.7l4.78,6.58Zm5.86.96a6.178,6.178,0,0,1-2.29-.4,3.624,3.624,0,0,1-1.49-.98V32.5h1.08a3.976,3.976,0,0,0,.9,2.39,2.508,2.508,0,0,0,1.84.69,2.632,2.632,0,0,0,1.91-.65,2.326,2.326,0,0,0,.67-1.75,2.236,2.236,0,0,0-1.1-2l-3.56-2.3a4.273,4.273,0,0,1-1.27-1.18,2.845,2.845,0,0,1-.45-1.64,2.951,2.951,0,0,1,1.05-2.37,4.33,4.33,0,0,1,2.89-.89,5.825,5.825,0,0,1,2.05.34,3.841,3.841,0,0,1,1.49.96v2.42h-1.08a4.272,4.272,0,0,0-.76-2.41,2.164,2.164,0,0,0-1.7-.67,2.336,2.336,0,0,0-1.83.64,2.236,2.236,0,0,0-.57,1.54,1.9,1.9,0,0,0,.92,1.72l3.5,2.24a5.053,5.053,0,0,1,1.57,1.43,3.017,3.017,0,0,1,.47,1.67,3.317,3.317,0,0,1-1.95,3.1A5.215,5.215,0,0,1,208.02,36.24Zm23.44-14.12a15.9,15.9,0,0,0-2.56-.18,11.445,11.445,0,0,0-6.18,1.56l.14.6a24.244,24.244,0,0,1,4.92-.52,16.985,16.985,0,0,1,3.68.36Zm-13.8-1.86.02.96a75.443,75.443,0,0,0-.6,9.24,30.37,30.37,0,0,0,.48,6.12l1.82-.34a30.149,30.149,0,0,1-.56-6.38,68.034,68.034,0,0,1,.62-8.48c.3-.2.42-.34.42-.5s-.16-.3-.42-.34Zm5,8.5a5.383,5.383,0,0,0-.66,2.58,3.634,3.634,0,0,0,1.96,3.42,10.155,10.155,0,0,0,4.54.76,23.177,23.177,0,0,0,3.72-.28V33.32a21,21,0,0,1-4.38.42,7.189,7.189,0,0,1-3.6-.66A2.631,2.631,0,0,1,223,30.64a5.62,5.62,0,0,1,.26-1.72Zm23.04,5.5h6.64V28.64H237.9v6.98h1.5V34.26h4.82v1.56c.04.96.52,1.28,1.98,1.32h6.26c1.08,0,1.52-.38,1.68-1.46l.18-1.48-.78-.08-.16,1c-.1.54-.32.7-.98.72h-5.96c-.66-.04-.76-.1-.74-.6Zm0-4.82h5.1V31h-5.1Zm0,2.36h5.1v1.66h-5.1Zm-1.48,1.66H239.4V31.8h4.82Zm0-2.46H239.4V29.44h4.82Zm0-8v4.82h1.48V23h6.64a18.837,18.837,0,0,1-.98,2.76l.52.24a7.519,7.519,0,0,0,2.44-3.8H245.7V20.82h6.2l.8.16V19.86l-.8.16H238.62l-.78-.16v1.12l.78-.16h5.6V22.2h-5.94v-.06l-.02-.52h-.68a5.484,5.484,0,0,1-1.64,3.36l1.24,1.4a5.353,5.353,0,0,0,1.1-3.38Zm-5.38,4.24h4.38v-.8h-4.38Zm0-2.12h4.38v-.8h-4.38Zm7.86,2.12h4.46v-.8H246.7Zm0-2.12h4.44v-.8H246.7Zm16.84,7.28a26.874,26.874,0,0,1-6.16,4.34l.26.5a21.885,21.885,0,0,0,7.12-4.02,30.916,30.916,0,0,1,3.96,3.2l1.14-1.62a40.593,40.593,0,0,0-3.92-2.66c.78-.76,1.2-1.22,2.26-2.44h.1c.32,0,.64-.2.64-.4,0-.1-.12-.22-.26-.3l-1.52-.74a18.172,18.172,0,0,1-2.56,3.12,31.721,31.721,0,0,0-5.44-2.22l-.28.52a28.411,28.411,0,0,1,3.78,2.18Zm-2.16-10.62h12.34l.8.16V20.82l-.8.16h-11.8l.04-.04.06-.1c.16-.22.3-.46.46-.7.4-.04.62-.18.62-.38,0-.12-.14-.24-.28-.26L261,19.2a20.1,20.1,0,0,1-4.02,5.94l.34.42a13.112,13.112,0,0,0,4.02-3.72ZM272.3,26.7H259.04l-.78-.16v1.12l.78-.16h11.6c.04,3.58.56,6.84,1.38,8.5.48.96,1.1,1.48,1.76,1.48.58,0,.98-.46,1.18-1.3a15.458,15.458,0,0,0,.4-3.1l-.72-.14a14.639,14.639,0,0,1-.42,2.6c-.04.2-.16.34-.26.34-.14,0-.28-.18-.5-.7a21.158,21.158,0,0,1-1.16-7.62Zm-10.98-2.2h10.52l.8.16V23.54l-.8.16H261.32l-.78-.16v1.12Zm18.7-2.82v15.8h1.72v-1.3h10.98v1.16h1.72V21.68h-8.08a7.877,7.877,0,0,0,1.26-1.48c.42-.1.6-.24.6-.46,0-.16-.2-.28-.5-.32l-1.92-.22a16,16,0,0,1-.62,2.48Zm1.72,4.38V22.48h10.98v3.58Zm0,.8h10.98V30.5H281.74Zm0,4.44h10.98v4.08H281.74Zm23.34-.66h3.72V24.98h-3.72V23.5h3.48l.8.16V22.54l-.8.16h-3.48V20.96a25.99,25.99,0,0,0,2.68-.4,2.624,2.624,0,0,0,.62.1c.22,0,.38-.12.38-.3,0-.12-.04-.18-.26-.34l-1.02-.82a46.559,46.559,0,0,1-8.06,1.54l.08.6c1.5-.04,2.74-.1,4.26-.24v1.6h-3.88l-.8-.16v1.12l.8-.16h3.88v1.48h-3.7v5.66h3.7v1.52h-3.12l-.8-.16v1.12l.8-.16h3.12v1.86c-2.14.14-3.72.24-4.7.28l.54,1.44c.08.2.22.36.36.36.16,0,.26-.12.38-.44a55.484,55.484,0,0,0,8.8-1.54l-.1-.56c-1.32.16-1.34.16-2.72.26-.26.02-.62.06-1.24.1V32.96h3.1l.8.16V32l-.8.16h-3.1Zm-1.32-.74h-2.32V28.12h2.32Zm1.32,0V28.12h2.34V29.9Zm-1.32-2.52h-2.32V25.72h2.32Zm1.32,0V25.72h2.34v1.66Zm5.22-3.46-.78-.16v1.12l.78-.16h1.14C311.2,31.84,310.2,35,307.6,37.1l.36.5a8.181,8.181,0,0,0,3.94-4.92,28.915,28.915,0,0,0,1.08-7.96h2.18c-.08,3.08-.44,9.1-.64,10.28-.16,1.24-.32,1.48-1.1,1.5h-1.56v.84h2.3a1.582,1.582,0,0,0,1.86-1.58c.24-1.2.54-5.9.74-11.84h-3.74c.04-.92.06-1.92.06-3.06V20.1c.26-.18.32-.26.32-.4,0-.18-.14-.26-.42-.26h-1.46v1.42c0,1.48-.02,2.46-.04,3.06Zm19.68,7.5h6.26V23.9h-6.26V22.1H337l.78.16V21.14l-.78.16h-7.02V19.86c.26-.18.32-.26.32-.38,0-.2-.14-.28-.42-.28h-1.54v2.1H321.6l-.78-.16v1.12l.78-.16h6.74v1.8h-5.98v7.52h5.98v1.92H320.9l-.8-.16V34.3l.8-.16h7.44V37.6h1.64V34.14h7.72l.8.16V33.18l-.8.16h-7.72Zm0-3.44h4.62v2.64h-4.62Zm-1.64,0v2.64H324V27.98Zm1.64-3.28h4.62v2.48h-4.62Zm-1.64,0v2.48H324V24.7Zm13.2.5.32,1.24c.08.24.18.36.34.36s.28-.1.4-.4a27.315,27.315,0,0,1,3.02-.72,37.165,37.165,0,0,1-3.98,10l1.48.86A35.172,35.172,0,0,0,347.4,25.4a20.523,20.523,0,0,1,2.6-.24,1.381,1.381,0,0,1,1.28.56,4.969,4.969,0,0,1,.28,2.12,22.165,22.165,0,0,1-.94,6.28c-.44,1.28-.86,1.8-1.42,1.8a4.022,4.022,0,0,1-2.32-1.28l-.52.8c1.42,1.26,2.42,1.8,3.36,1.8,1.06,0,1.76-.64,2.38-2.16a19.838,19.838,0,0,0,1.14-6.86,5.754,5.754,0,0,0-.48-2.8c-.44-.8-1.42-1.2-2.92-1.2-.6,0-1.32.04-2.2.1.2-.86.34-1.66.66-3.44.3-.12.42-.24.42-.4s-.14-.3-.4-.36l-1.7-.38-.02.92c-.28,1.72-.46,2.78-.7,3.86-1.24.16-2.48.38-3.8.64Zm18.2-4.12A3.907,3.907,0,0,0,357.4,19l-.34.28a8.33,8.33,0,0,1,1.36,2.52Zm-5.52,2.44c1.58,2.18,2.46,4.64,3.28,8.86l1.84-.78c-.76-3.84-2.6-7.14-4.7-8.4Zm.5-3.94a9.074,9.074,0,0,1,1.24,2.74l1.32-.64a3.871,3.871,0,0,0-2.18-2.36Zm15.82,6.64c.52-1.06,1.58-3.68,2.38-5.94h-3.74l-.8-.16v1.12l.8-.16h1.94a34.22,34.22,0,0,1-2.72,6.5h1.42c.18-.32.24-.42.32-.56h1.5a25.561,25.561,0,0,1-.92,5.56,12.7,12.7,0,0,1-1.36-3.94l-.64.1a9.95,9.95,0,0,0,1.52,5.04,9.978,9.978,0,0,1-2.58,3.36l.34.46a8.7,8.7,0,0,0,2.98-2.86c1.92,2.04,3.38,2.42,9.18,2.44a8.419,8.419,0,0,1,.42-1.66c-.74.04-1.12.04-1.8.04-3.14,0-4.48-.18-5.54-.72a7.465,7.465,0,0,1-1.66-1.2c.82-1.74,1.22-3.76,1.44-7.42Zm6.04,6.62h-1.3V25.4c.24-.18.3-.24.3-.36,0-.18-.14-.26-.42-.26h-1.2v8.06h-.22l-.8-.16V33.8l.8-.16h5.8l.8.16V32.68l-.8.16h-1.58V26.88h1.3l.8.16V25.92l-.8.16h-1.3V21.4c.2-.04.58-.16,1.32-.38a3.429,3.429,0,0,0,.48.08.291.291,0,0,0,.3-.28c0-.1-.06-.18-.24-.36l-.98-.9a25.633,25.633,0,0,1-5.46,1.9l.06.6c1.22-.12,1.88-.2,3.08-.4h.06Zm-12.36,3.3h2.14v.48h1.32V31.14H362.9v6h1.32Zm0-.74V31.88h2.14V35.4Zm2.66-15.3H363.7l-.8-.16V21.1l.8-.16h3.18l.8.16V19.94Zm.02,5.52h-3.2l-.8-.16v1.16l.8-.16h3.2l.8.16V25.46Zm0,2.76h-3.2l-.8-.16v1.16l.8-.16h3.2l.8.16V28.22Zm.74-5.52h-4.66l-.8-.16v1.16l.8-.16h4.66l.8.16V22.7Zm26.1.74V20.12c.24-.18.32-.26.32-.4,0-.18-.14-.26-.42-.26h-1.66V23.6h-4.24c.24-.66.36-.96.68-1.96.4-.12.58-.28.58-.5,0-.16-.16-.32-.42-.4l-1.78-.52a27.555,27.555,0,0,1-3.58,9.5l.5.44a18.814,18.814,0,0,0,3.7-5.76h4.56v4.86H386.9l-.78-.16v1.12l.78-.16h5.08v5.76h-7.72l-.78-.16v1.12l.78-.16h16.32l.8.16V35.66l-.8.16h-6.84V30.06h5.08l.8.16V29.1l-.8.16h-5.08V24.4h6.02l.78.16V23.44l-.78.16Zm13.7,7.74a3.13,3.13,0,1,0,3.08,3.12A3.133,3.133,0,0,0,407.44,31.34Zm-.08.92a2.21,2.21,0,1,1-2.18,2.2A2.211,2.211,0,0,1,407.36,32.26Z" transform="translate(929 3876.912)" fill="#e00000"/>
      <path id="パス_152" data-name="パス 152" d="M1.058-2.208H4.646V-27.6H1.058v-2.208H9.936L19.55-8.786l8.97-21.022H37.4V-27.6H33.81V-2.208H37.4V0h-12.6V-2.208h3.45V-22.77L19.458-2.208H16.606L7.176-22.724V-2.208h3.4V0H1.058ZM49.542-27.6V-2.208H54V0H39.514V-2.208h4.462V-27.6H39.514v-2.208H54V-27.6ZM56.12-2.208h3.588V-27.6H56.12v-2.208h8.234L77.464-9.292V-27.6H73.922v-2.208h9.66V-27.6H79.994V0h-3.4L62.238-22.678v20.47h3.45V0H56.12ZM95.266-27.6V-2.208h4.462V0H85.238V-2.208H89.7V-27.6H85.238v-2.208h14.49V-27.6ZM121.578.506a10.6,10.6,0,0,1-4.761-1.035,10.573,10.573,0,0,1-3.243-2.323v-5.52h3.956a25.05,25.05,0,0,0,.759,4.094,4.144,4.144,0,0,0,1.2,2.047,3.213,3.213,0,0,0,2.093.621A3.06,3.06,0,0,0,124.43-2.9a7.36,7.36,0,0,0,.782-3.772V-27.6h-3.956v-2.208h13.11V-27.6h-3.588V-7.544a7.665,7.665,0,0,1-2.346,5.819Q126.086.506,121.578.506Zm28.244.046a13.187,13.187,0,0,1-7.751-2.116,12.157,12.157,0,0,1-4.37-5.428,18.381,18.381,0,0,1-1.357-7.038,21.762,21.762,0,0,1,1.449-7.958,13.7,13.7,0,0,1,4.485-6.049,12.05,12.05,0,0,1,7.544-2.323,13.235,13.235,0,0,1,7.705,2.116,12.185,12.185,0,0,1,4.439,5.451,18.167,18.167,0,0,1,1.38,7.015A21.762,21.762,0,0,1,161.9-7.82a13.7,13.7,0,0,1-4.485,6.049A12.125,12.125,0,0,1,149.822.552Zm.6-2.024a5.835,5.835,0,0,0,5.451-3.174,16.593,16.593,0,0,0,1.771-8.142,26.236,26.236,0,0,0-2.07-11.132q-2.07-4.416-6.256-4.416a5.871,5.871,0,0,0-5.474,3.22,16.686,16.686,0,0,0-1.794,8.188,25.67,25.67,0,0,0,2.093,11.086Q146.234-1.472,150.42-1.472ZM192.28-27.6V-2.208h3.588V0H183.126V-2.208h3.588V-14.582H174.846V-2.208h3.588V0H165.692V-2.208h3.588V-27.6h-3.588v-2.208H178.48V-27.6h-3.634v10.718h11.868V-27.6h-3.588v-2.208h12.742V-27.6Zm5.7,25.392h3.588V-27.6h-3.588v-2.208h8.234l13.11,20.516V-27.6h-3.542v-2.208h9.66V-27.6h-3.588V0h-3.4L204.1-22.678v20.47h3.45V0h-9.568ZM252.31.552a12.98,12.98,0,0,1-7.751-2.162,12.421,12.421,0,0,1-4.37-5.5,18.674,18.674,0,0,1-1.357-7.107,21.706,21.706,0,0,1,1.426-7.912,13.335,13.335,0,0,1,4.439-5.957,12.271,12.271,0,0,1,7.613-2.277,15.086,15.086,0,0,1,5.2.782,24.5,24.5,0,0,1,4.048,1.932v6.21h-3.91a8.817,8.817,0,0,0-1.932-5.244,5.155,5.155,0,0,0-3.91-1.656,5.871,5.871,0,0,0-5.474,3.22,16.58,16.58,0,0,0-1.794,8.142,25.307,25.307,0,0,0,1.127,7.981,11.9,11.9,0,0,0,3.1,5.175,6.469,6.469,0,0,0,4.462,1.794,6.889,6.889,0,0,0,4.508-1.587,8,8,0,0,0,2.576-4.807h2.392a10.392,10.392,0,0,1-3.519,6.624A10.419,10.419,0,0,1,252.31.552Zm26.542,0A13.187,13.187,0,0,1,271.1-1.564a12.157,12.157,0,0,1-4.37-5.428,18.382,18.382,0,0,1-1.357-7.038,21.762,21.762,0,0,1,1.449-7.958,13.7,13.7,0,0,1,4.485-6.049,12.05,12.05,0,0,1,7.544-2.323,13.235,13.235,0,0,1,7.705,2.116A12.185,12.185,0,0,1,291-22.793a18.167,18.167,0,0,1,1.38,7.015,21.762,21.762,0,0,1-1.449,7.958,13.7,13.7,0,0,1-4.485,6.049A12.125,12.125,0,0,1,278.852.552Zm.6-2.024A5.834,5.834,0,0,0,284.9-4.646a16.593,16.593,0,0,0,1.771-8.142A26.236,26.236,0,0,0,284.6-23.92q-2.07-4.416-6.256-4.416a5.871,5.871,0,0,0-5.474,3.22,16.686,16.686,0,0,0-1.794,8.188,25.671,25.671,0,0,0,2.093,11.086Q275.264-1.472,279.45-1.472ZM309.35.552A13.187,13.187,0,0,1,301.6-1.564a12.157,12.157,0,0,1-4.37-5.428,18.382,18.382,0,0,1-1.357-7.038,21.762,21.762,0,0,1,1.449-7.958,13.7,13.7,0,0,1,4.485-6.049,12.05,12.05,0,0,1,7.544-2.323,13.235,13.235,0,0,1,7.705,2.116,12.185,12.185,0,0,1,4.439,5.451,18.167,18.167,0,0,1,1.38,7.015,21.762,21.762,0,0,1-1.449,7.958,13.7,13.7,0,0,1-4.485,6.049A12.125,12.125,0,0,1,309.35.552Zm.6-2.024A5.834,5.834,0,0,0,315.4-4.646a16.593,16.593,0,0,0,1.771-8.142A26.236,26.236,0,0,0,315.1-23.92q-2.07-4.416-6.256-4.416a5.871,5.871,0,0,0-5.474,3.22,16.686,16.686,0,0,0-1.794,8.188,25.671,25.671,0,0,0,2.093,11.086Q305.762-1.472,309.948-1.472Zm29.118-28.336a10.628,10.628,0,0,1,7.015,2.162,7.2,7.2,0,0,1,2.6,5.842,7.708,7.708,0,0,1-1.219,4.278,8.047,8.047,0,0,1-3.4,2.921,11.525,11.525,0,0,1-4.991,1.035h-4.692V-2.208h3.588V0H325.22V-2.208h3.588V-27.6H325.22v-2.208Zm-.506,14.03a3.6,3.6,0,0,0,2.99-1.771,7.221,7.221,0,0,0,1.242-4.255,6.961,6.961,0,0,0-1.173-4.163A3.605,3.605,0,0,0,338.56-27.6h-4.186v11.822Zm35.972,7.406V0H350.8V-2.208h3.588V-27.6H350.8v-2.208h23.368v8.372h-3.22L368.6-27.6H359.95v10.718h4.784V-20.47h2.76v9.476h-2.76v-3.588H359.95V-2.208h9.062l2.3-6.164ZM405.4-2.208V0h-8.234l-8.372-13.524h-2.576V-2.208H389.8V0H377.062V-2.208h3.588V-27.6h-3.588v-2.208h13.846q4.738,0,7.176,2.3a7.577,7.577,0,0,1,2.438,5.75,7.719,7.719,0,0,1-1.564,4.784,8.434,8.434,0,0,1-4.324,2.944l7.59,11.822ZM386.216-15.732H390.4a3.6,3.6,0,0,0,2.99-1.771,7.221,7.221,0,0,0,1.242-4.255,6.946,6.946,0,0,0-1.2-4.209A3.624,3.624,0,0,0,390.4-27.6h-4.186ZM461.2-27.6h-3.588L449.512,0h-3.128l-7.13-21.068L432.86,0h-3.174l-8.464-27.6h-3.634v-2.208h12.88V-27.6h-3.634l5.842,19.55,6.44-21.574h2.944l7.268,21.666,5.7-19.642h-3.588v-2.208H461.2ZM474.582.552a13.187,13.187,0,0,1-7.751-2.116,12.157,12.157,0,0,1-4.37-5.428A18.382,18.382,0,0,1,461.1-14.03a21.762,21.762,0,0,1,1.449-7.958,13.7,13.7,0,0,1,4.485-6.049,12.05,12.05,0,0,1,7.544-2.323,13.235,13.235,0,0,1,7.705,2.116,12.185,12.185,0,0,1,4.439,5.451,18.167,18.167,0,0,1,1.38,7.015,21.762,21.762,0,0,1-1.449,7.958,13.7,13.7,0,0,1-4.485,6.049A12.125,12.125,0,0,1,474.582.552Zm.6-2.024a5.834,5.834,0,0,0,5.451-3.174,16.593,16.593,0,0,0,1.771-8.142,26.236,26.236,0,0,0-2.07-11.132q-2.07-4.416-6.256-4.416a5.871,5.871,0,0,0-5.474,3.22,16.686,16.686,0,0,0-1.794,8.188A25.671,25.671,0,0,0,468.9-5.842Q470.994-1.472,475.18-1.472Zm43.608-.736V0h-8.234l-8.372-13.524h-2.576V-2.208h3.588V0H490.452V-2.208h3.588V-27.6h-3.588v-2.208H504.3q4.738,0,7.176,2.3a7.577,7.577,0,0,1,2.438,5.75,7.719,7.719,0,0,1-1.564,4.784,8.434,8.434,0,0,1-4.324,2.944l7.59,11.822ZM499.606-15.732h4.186a3.6,3.6,0,0,0,2.99-1.771,7.221,7.221,0,0,0,1.242-4.255,6.946,6.946,0,0,0-1.2-4.209,3.624,3.624,0,0,0-3.036-1.633h-4.186ZM548.872-2.208V0h-8.924L530.61-14.582h-1.38V-2.208h3.588V0H520.076V-2.208h3.588V-27.6h-3.588v-2.208h12.742V-27.6H529.23v10.718h2.438L540.316-27.6h-3.45v-2.208h10.212V-27.6h-3.726L535.21-17.48,545.33-2.208ZM559.82.552a14.384,14.384,0,0,1-5.658-1.035,9.035,9.035,0,0,1-3.5-2.323V-8.372h3.864a9.886,9.886,0,0,0,1.84,5.221,4.481,4.481,0,0,0,3.542,1.587,4.608,4.608,0,0,0,3.473-1.357A4.853,4.853,0,0,0,564.7-6.44a5.052,5.052,0,0,0-2.392-4.416l-7.774-5.152a9.673,9.673,0,0,1-2.875-2.921,7.336,7.336,0,0,1-1.127-4.025,6.586,6.586,0,0,1,2.507-5.359,10.567,10.567,0,0,1,6.877-2.047,14.76,14.76,0,0,1,5.336.92,9.411,9.411,0,0,1,3.68,2.346v5.658h-3.91q-.368-3.818-1.656-5.359a4.217,4.217,0,0,0-3.4-1.541,4.137,4.137,0,0,0-3.2,1.219,4.458,4.458,0,0,0-1.127,3.151,4.348,4.348,0,0,0,2.07,3.818l8.142,5.336a9.544,9.544,0,0,1,3.128,3.289,8.335,8.335,0,0,1,1.1,4.163,6.929,6.929,0,0,1-1.265,4.094A8.329,8.329,0,0,1,565.225-.46,13.436,13.436,0,0,1,559.82.552Zm13.616-3.128a2.974,2.974,0,0,1,.9-2.185,2.973,2.973,0,0,1,2.185-.9,2.974,2.974,0,0,1,2.185.9,2.974,2.974,0,0,1,.9,2.185,2.974,2.974,0,0,1-.9,2.185,2.974,2.974,0,0,1-2.185.9,2.973,2.973,0,0,1-2.185-.9A2.974,2.974,0,0,1,573.436-2.576Z" transform="translate(929 3845.36)" fill="#e00000"/>
    </g>
  </g>
</svg>
