<svg xmlns="http://www.w3.org/2000/svg" width="359.936" height="231.645" viewBox="0 0 359.936 231.645">
  <g id="sec02-04" transform="translate(-858 -3275.81)">
    <g id="価格" transform="translate(89 137.455)">
      <path id="パス_138" data-name="パス 138" d="M16.352-19.584,12.8-12.768h3.52v1.216H12.192l-1.12,2.144v.32H16.32v1.216H11.072v6.72h2.816V0H5.536V-1.152H8.352v-6.72H3.1V-9.088H8.1L6.88-11.552H3.1v-1.216H6.272L2.88-19.584H.32v-1.152H8.448v1.152H5.888L10.3-10.592l4.608-8.992h-2.56v-1.152h6.56v1.152ZM28.64-13.472a6.7,6.7,0,0,1,3.12.752,5.928,5.928,0,0,1,2.368,2.256A6.781,6.781,0,0,1,35.04-6.88a7.15,7.15,0,0,1-1.056,3.968A6.821,6.821,0,0,1,31.312-.464a7.332,7.332,0,0,1-3.344.816,7.355,7.355,0,0,1-3.744-.96,6.807,6.807,0,0,1-2.592-2.624l1.024-.64a5.517,5.517,0,0,0,2.112,2.144,5.849,5.849,0,0,0,2.912.736,4.149,4.149,0,0,0,2.256-.656,4.7,4.7,0,0,0,1.68-1.936,6.726,6.726,0,0,0,.64-3.04,6.425,6.425,0,0,0-.64-2.992,4.309,4.309,0,0,0-1.68-1.824,4.483,4.483,0,0,0-2.256-.592,3.664,3.664,0,0,0-1.92.48,5.98,5.98,0,0,0-1.44,1.216H23.072l.768-10.4H34.016v2.56H24.832l-.448,6.208a5.645,5.645,0,0,1,1.84-1.088A6.8,6.8,0,0,1,28.64-13.472ZM41.28-3.264a1.852,1.852,0,0,1,1.424.656A2.65,2.65,0,0,1,43.3-.768a4.811,4.811,0,0,1-.9,2.88A6.243,6.243,0,0,1,39.968,4.1l-.48-.768a4.666,4.666,0,0,0,1.456-1.2A2.494,2.494,0,0,0,41.632.544.971.971,0,0,0,41.6.256a1.988,1.988,0,0,1-.384.032,1.688,1.688,0,0,1-1.3-.5,1.777,1.777,0,0,1-.464-1.264,1.71,1.71,0,0,1,.528-1.28A1.791,1.791,0,0,1,41.28-3.264ZM56-11.2q4.48,1.44,4.48,5.312a5.5,5.5,0,0,1-1.04,3.36A6.648,6.648,0,0,1,56.752-.384a8.346,8.346,0,0,1-3.44.736,6.921,6.921,0,0,1-3.7-.992,7.307,7.307,0,0,1-2.544-2.592l1.024-.64a5.14,5.14,0,0,0,2.176,2.144,6.055,6.055,0,0,0,2.784.7,4.968,4.968,0,0,0,2.224-.512,4.122,4.122,0,0,0,1.7-1.568,4.758,4.758,0,0,0,.656-2.56,4.542,4.542,0,0,0-1.3-3.408,4.425,4.425,0,0,0-3.216-1.264h-.8v-.992a5.423,5.423,0,0,0,2.208-.48,4.171,4.171,0,0,0,1.792-1.52,4.551,4.551,0,0,0,.7-2.608,4.755,4.755,0,0,0-.9-2.928,3.037,3.037,0,0,0-2.592-1.2A3.053,3.053,0,0,0,50.8-18.672,7.02,7.02,0,0,0,49.76-15.2H48.032v-3.84A6.332,6.332,0,0,1,50.4-20.576a8.529,8.529,0,0,1,3.136-.576,7.748,7.748,0,0,1,3.1.608,5.388,5.388,0,0,1,2.256,1.76,4.462,4.462,0,0,1,.848,2.72Q59.744-12.832,56-11.2Zm22.976-9.536v1.12L70.048,0h-1.5l8.448-18.272h-8.96l-1.12,3.1h-1.12v-5.568ZM89.6.352A5.936,5.936,0,0,1,85.76-.992a8.589,8.589,0,0,1-2.576-3.792,16.025,16.025,0,0,1-.912-5.616,15.891,15.891,0,0,1,.912-5.6,8.533,8.533,0,0,1,2.592-3.776,6,6,0,0,1,3.856-1.344,6.045,6.045,0,0,1,3.856,1.328,8.419,8.419,0,0,1,2.592,3.76,15.891,15.891,0,0,1,.912,5.6,15.775,15.775,0,0,1-.928,5.616,8.756,8.756,0,0,1-2.608,3.808A5.956,5.956,0,0,1,89.6.352Zm.032-1.024q2.176,0,3.328-2.5A17.843,17.843,0,0,0,94.112-10.4a17.742,17.742,0,0,0-1.152-7.2q-1.152-2.5-3.328-2.5T86.3-17.6a17.742,17.742,0,0,0-1.152,7.2A17.843,17.843,0,0,0,86.3-3.168Q87.456-.672,89.632-.672Zm12.7-2.592a1.852,1.852,0,0,1,1.424.656,2.65,2.65,0,0,1,.592,1.84,4.811,4.811,0,0,1-.9,2.88A6.243,6.243,0,0,1,101.024,4.1l-.48-.768A4.666,4.666,0,0,0,102,2.128a2.494,2.494,0,0,0,.688-1.584.971.971,0,0,0-.032-.288,1.988,1.988,0,0,1-.384.032,1.688,1.688,0,0,1-1.3-.5,1.777,1.777,0,0,1-.464-1.264,1.71,1.71,0,0,1,.528-1.28A1.791,1.791,0,0,1,102.336-3.264ZM115.2.352a5.936,5.936,0,0,1-3.84-1.344,8.589,8.589,0,0,1-2.576-3.792,16.025,16.025,0,0,1-.912-5.616,15.891,15.891,0,0,1,.912-5.6,8.533,8.533,0,0,1,2.592-3.776,6,6,0,0,1,3.856-1.344,6.045,6.045,0,0,1,3.856,1.328,8.419,8.419,0,0,1,2.592,3.76,15.891,15.891,0,0,1,.912,5.6,15.775,15.775,0,0,1-.928,5.616,8.756,8.756,0,0,1-2.608,3.808A5.956,5.956,0,0,1,115.2.352Zm.032-1.024q2.176,0,3.328-2.5a17.843,17.843,0,0,0,1.152-7.232,17.742,17.742,0,0,0-1.152-7.2q-1.152-2.5-3.328-2.5T111.9-17.6a17.742,17.742,0,0,0-1.152,7.2A17.843,17.843,0,0,0,111.9-3.168Q113.056-.672,115.232-.672Zm17.7,1.024a5.936,5.936,0,0,1-3.84-1.344,8.589,8.589,0,0,1-2.576-3.792A16.025,16.025,0,0,1,125.6-10.4a15.891,15.891,0,0,1,.912-5.6,8.533,8.533,0,0,1,2.592-3.776,6,6,0,0,1,3.856-1.344,6.045,6.045,0,0,1,3.856,1.328,8.419,8.419,0,0,1,2.592,3.76,15.891,15.891,0,0,1,.912,5.6,15.775,15.775,0,0,1-.928,5.616,8.756,8.756,0,0,1-2.608,3.808A5.956,5.956,0,0,1,132.928.352Zm.032-1.024q2.176,0,3.328-2.5A17.843,17.843,0,0,0,137.44-10.4a17.742,17.742,0,0,0-1.152-7.2q-1.152-2.5-3.328-2.5t-3.328,2.5a17.742,17.742,0,0,0-1.152,7.2,17.843,17.843,0,0,0,1.152,7.232Q130.784-.672,132.96-.672Zm17.7,1.024a5.936,5.936,0,0,1-3.84-1.344,8.589,8.589,0,0,1-2.576-3.792,16.025,16.025,0,0,1-.912-5.616,15.891,15.891,0,0,1,.912-5.6,8.533,8.533,0,0,1,2.592-3.776,6,6,0,0,1,3.856-1.344,6.045,6.045,0,0,1,3.856,1.328,8.419,8.419,0,0,1,2.592,3.76,15.891,15.891,0,0,1,.912,5.6,15.775,15.775,0,0,1-.928,5.616,8.755,8.755,0,0,1-2.608,3.808A5.956,5.956,0,0,1,150.656.352Zm.032-1.024q2.176,0,3.328-2.5a17.844,17.844,0,0,0,1.152-7.232,17.742,17.742,0,0,0-1.152-7.2q-1.152-2.5-3.328-2.5t-3.328,2.5a17.742,17.742,0,0,0-1.152,7.2,17.844,17.844,0,0,0,1.152,7.232Q148.512-.672,150.688-.672Z" transform="translate(769 3365.904)"/>
      <path id="パス_137" data-name="パス 137" d="M3.367-6.175l1.2,1.4-.611.455-.962-1.6-.962,1.6-.611-.455L2.626-6.162.832-6.578l.234-.728,1.7.715L2.613-8.424H3.38L3.211-6.591l1.7-.715.247.728Zm-.377-.1-.013.013H2.99L3-6.279Zm9.4,5.265V0H7.28V-.455q1.651-1.794,2.411-2.71a8.24,8.24,0,0,0,1.092-1.606,3.288,3.288,0,0,0,.331-1.443,2.137,2.137,0,0,0-.422-1.437,1.371,1.371,0,0,0-1.085-.487,1.284,1.284,0,0,0-1.131.572,2.749,2.749,0,0,0-.442,1.4h-.7v-1.56a2.431,2.431,0,0,1,.975-.624A3.708,3.708,0,0,1,9.62-8.58a3.446,3.446,0,0,1,1.255.234,2.247,2.247,0,0,1,1,.761,2.175,2.175,0,0,1,.4,1.346,2.4,2.4,0,0,1-.312,1.176,7.483,7.483,0,0,1-1.033,1.352q-.721.786-2.607,2.7Z" transform="translate(928 3351.904)"/>
    </g>
    <path id="パス_33" data-name="パス 33" d="M3.416-7.364a26.351,26.351,0,0,1,4,1.946A11.124,11.124,0,0,1,1.3.112l.154.406a10.269,10.269,0,0,0,7.028-5.25,16.5,16.5,0,0,1,2.884,2.478l.938-1.12A14.509,14.509,0,0,0,9.03-5.824a23.559,23.559,0,0,0,1.4-4.41c.252-.084.35-.168.35-.308,0-.112-.084-.2-.238-.238l-1.456-.378-.056.784A19.157,19.157,0,0,1,7.868-6.4,18.472,18.472,0,0,0,3.584-7.77Zm23.94,1.708L15.666-6.09v1.47l11.69-.42ZM40.012-7.9a49.257,49.257,0,0,1-.532,5.362,6.417,6.417,0,0,1-.42,2,.877.877,0,0,1-.882.392h-1.61V.5h2.408c1.092.014,1.4-.35,1.68-1.9a54.181,54.181,0,0,0,.728-7.14H36.078c.042-.644.07-1.148.07-1.764v-.364c.2-.112.28-.21.28-.336a.244.244,0,0,0-.081-.177.244.244,0,0,0-.185-.061l-1.47-.1.1.84v.21c0,.392-.028,1.05-.084,1.75h-3.7l-.56-.112v.868l.56-.112h3.626c-.364,3.766-1.82,6.258-4.676,8.05l.168.336A8.4,8.4,0,0,0,34.34-2.774,11.226,11.226,0,0,0,36.008-7.9ZM56.2-5.656,44.506-6.09v1.47L56.2-5.04ZM60.648.084H61.81V-4.1h2.73V1.12H65.7V-4.1h3.066v2.884c-.014.462-.168.616-.63.63H67.074V0h1.68c.84,0,1.2-.336,1.19-1.092v-3.57H65.7v-1.05c.182-.14.224-.182.224-.28,0-.126-.1-.182-.294-.182H64.54v1.512H61.474A12.746,12.746,0,0,0,63.5-6.706h7.06l.56.112v-.784l-.56.112H63.938l.028-.042.462-.644c.294-.042.448-.14.448-.28,0-.1-.07-.154-.2-.182L63.5-8.722a8.047,8.047,0,0,1-.9,1.456H58.814l-.56-.112v.784l.56-.112h3.36A16.515,16.515,0,0,1,58.24-3.122l.2.364a11.511,11.511,0,0,0,2.212-1.274ZM59.934-10.99c1.54.364,2.814.728,4,1.134-1.288.49-4.046,1.33-5.152,1.6l.1.406a28.154,28.154,0,0,0,6.3-1.568c.784.28,2.352.952,3.724,1.6l.784-.854a31,31,0,0,0-3.276-1.246c.672-.294,1.176-.518,2.058-.938a2.356,2.356,0,0,0,.28.028c.168,0,.35-.112.35-.224,0-.056-.07-.126-.168-.182l-.98-.518a17.683,17.683,0,0,1-2.842,1.428,25.539,25.539,0,0,0-5-1.036ZM83.5-7.1c-.168,1.428-.224,1.554-.784,1.568h-1.04v.588h1.54c.812-.014,1.078-.266,1.232-1.12a45.035,45.035,0,0,0,.462-5.194H79.716c-.028,3.99-.49,5.278-2.254,6.342l.238.378A4.088,4.088,0,0,0,80.346-7.1Zm.056-.56H80.5c.07-.35.14-.868.182-1.26h2.982l-.014.21-.014.224-.07.784Zm.154-1.82H80.724l.014-.042.056-1.176h3c-.028.49-.028.6-.056.938Zm-7.2-.742v-.994c.182-.126.224-.182.224-.28,0-.126-.1-.182-.294-.182H75.362v1.456H73.22l-.56-.112v.784l.56-.112h.5v2.8c.028.9.392,1.148,1.722,1.148H78.2v-.98H75.656c-.7-.014-.84-.112-.854-.546V-9.66h3.584l.56.112v-.784l-.56.112Zm3.094,6.5h4.62l.546.112V-4.4l-.546.112H73.976L73.43-4.4v.784l.546-.112h4.466V-2.16H74.774l-.56-.112v.784l.56-.112h3.668V.084H73.3l-.56-.112V.756L73.3.644H84.9l.56.112V-.028L84.9.084H79.6V-1.6h3.822l.56.112v-.784l-.56.112H79.6ZM90.888.308V.966h1.988c.938,0,1.33-.392,1.33-1.33V-11.13c.182-.126.224-.182.224-.266,0-.14-.1-.2-.294-.2H92.918V-.448c0,.532-.224.756-.756.756ZM95.9-8.806a33.6,33.6,0,0,1,2.674,7.252l1.386-.784a20.584,20.584,0,0,0-3.6-6.734ZM87.444-1.442A15.448,15.448,0,0,0,90.762-8.26c.28-.056.42-.168.42-.35,0-.126-.1-.2-.322-.266l-1.288-.35a26.186,26.186,0,0,1-2.478,7.532ZM103.32-6.02v-.154a1.928,1.928,0,0,0-.028-.448h-.476a3.542,3.542,0,0,1-1.316,2.24l.84,1.092a2.9,2.9,0,0,0,.952-2.128V-5.46H112.8a5.569,5.569,0,0,1-.826,1.554l.434.266a5.028,5.028,0,0,0,1.974-2.38Zm5.166-4.1v-1.106c.182-.126.224-.182.224-.28,0-.126-.1-.182-.294-.182h-1.134v1.568h-5.04l-.56-.112v.784l.56-.112h5.04v1.568H103.46L102.9-8.1v.784l.56-.112h8.96l.56.112V-8.1l-.56.112h-3.934v-1.57h5.152l.56.112v-.784l-.56.112ZM101.92.98a6.519,6.519,0,0,0,3.15-1.064c1.008-.714,1.456-1.764,1.47-3.5v-.35c.168-.126.224-.182.224-.28,0-.126-.1-.182-.308-.182h-1.12v.784a3.7,3.7,0,0,1-1.148,3.024A5.262,5.262,0,0,1,101.808.56Zm7.042-5.38V-.48c.028.854.434,1.12,1.806,1.162h1.96c.98,0,1.386-.378,1.456-1.358l.07-1.19-.574-.056-.07.868c-.056.476-.238.644-.658.644h-2c-.588-.014-.812-.14-.812-.434v-3.09c.182-.126.224-.182.224-.28,0-.14-.1-.182-.392-.182ZM122.5-7.812h-2.394V.966h1.036V.07h5.922v.8h1.078V-7.81h-2.45v-2.73h2.548l.56.112v-.784l-.56.112h-7.868l-.546-.112v.784l.546-.112H122.5Zm.966-2.73h1.26v2.73h-1.26Zm0,3.29h1.26V-.49h-1.26ZM122.5-.49h-1.358V-7.252H122.5Zm3.192-6.762h1.372V-.49h-1.372Zm-7.056-1.386c.294-.826.42-1.218.742-2.254.224-.042.336-.14.336-.28,0-.112-.1-.2-.238-.238l-1.176-.35a33.182,33.182,0,0,1-2.38,7.6l.294.224a15.174,15.174,0,0,0,1.33-2.156V1.036h1.092Zm15.834,5.4a13.474,13.474,0,0,0,4.536-2.66,13.523,13.523,0,0,0,3.682,2.324,4.637,4.637,0,0,1,.532-1.092,14.488,14.488,0,0,1-3.556-1.89,14.469,14.469,0,0,0,2.59-3.71H137.7l.014-.042c.154-.294.168-.322.35-.714.266-.1.378-.182.378-.28a.262.262,0,0,0-.14-.2l-1.19-.266a13.021,13.021,0,0,1-1,2.568,12.941,12.941,0,0,1-1.33,2.142l.28.266a9.512,9.512,0,0,0,2-2.338,6.353,6.353,0,0,0,1.288,2.548,15.365,15.365,0,0,1-4.018,3ZM137.41-9.7h3.36a16.968,16.968,0,0,1-1.862,2.534,5.27,5.27,0,0,1-1.554-2.45ZM132.454,1.036h1.078V-6.4a9.44,9.44,0,0,1,.994,2.128l.868-.756A4.952,4.952,0,0,0,133.532-6.8V-8.26h1.022l.56.112v-.784l-.56.112h-1.022v-2.394c.168-.126.224-.182.224-.28,0-.126-.1-.182-.294-.182h-1.008V-8.82h-1.47l-.56-.112v.784l.56-.112h1.344a23.425,23.425,0,0,1-1.988,5.894l.308.21a13.778,13.778,0,0,0,1.806-3.3ZM141.89.952v-4.7h-5.866V1.036h1.106V.364h3.64V.952ZM137.13-.2v-3h3.64v3Z" transform="translate(858 3465)"/>
    <path id="パス_32" data-name="パス 32" d="M7.392-11.1c.238-.084.336-.182.336-.308s-.1-.2-.28-.21l-1.19-.14A14.473,14.473,0,0,1,4.172-8.876,20.166,20.166,0,0,1,.56-5.782l.182.364a14.954,14.954,0,0,0,6.342-5.236l.056.084a12.274,12.274,0,0,0,5.684,4.886,7.578,7.578,0,0,1,.616-1.274A13.2,13.2,0,0,1,9.492-9.072,12.574,12.574,0,0,1,7.364-11.06Zm.154,5.3H10.57l.56.112v-.784l-.56.112H3.43l-.56-.112v.784L3.43-5.8H6.342v2.45H3.276L2.73-3.458v.784l.546-.112H6.342V.042H1.806L1.246-.07V.714L1.806.6H12.348l.56.112V-.07l-.56.112h-4.8V-2.786h3.178l.546.112v-.784l-.546.112H7.546ZM27.3-4.4l.56.112v-.784l-.56.112H18.34V-6.51h7.182l.56.112v-.784l-.56.112H18.34V-8.54h7.182l.56.112v-.784l-.56.112H18.34v-1.442h7.728l.56.112v-.784l-.56.112h-8.9v6.146H15.54l-.56-.112v.784l.56-.112h1.624V-.532c-.658.084-1.036.126-2.114.21L15.526.826c.1.224.154.294.266.294.154,0,.224-.084.308-.336a37.543,37.543,0,0,0,6.8-1.806l.07-.014A8.57,8.57,0,0,0,27.188,1.12,6.784,6.784,0,0,1,27.86-.14a9.972,9.972,0,0,1-4.1-1.526,17.925,17.925,0,0,0,2.66-1.246l.28.014c.2,0,.35-.112.35-.252,0-.056-.056-.14-.168-.21l-1.05-.7a16.389,16.389,0,0,1-2.478,2.086A5.966,5.966,0,0,1,21.518-4.4Zm-6.384,0A7.472,7.472,0,0,0,22.61-1.414l-.126.028c-.994.224-2.016.392-4.144.7V-4.4ZM33.944-5.6a2.72,2.72,0,0,1,2.24,2.656,2.749,2.749,0,0,1-.52,1.68A3.324,3.324,0,0,1,34.32-.192,4.173,4.173,0,0,1,32.6.176a3.46,3.46,0,0,1-1.848-.5,3.654,3.654,0,0,1-1.272-1.3l.512-.32A2.57,2.57,0,0,0,31.08-.864a3.028,3.028,0,0,0,1.392.352,2.484,2.484,0,0,0,1.112-.256,2.061,2.061,0,0,0,.848-.784,2.379,2.379,0,0,0,.328-1.28,2.271,2.271,0,0,0-.648-1.7A2.212,2.212,0,0,0,32.5-5.168h-.4v-.5a2.712,2.712,0,0,0,1.1-.24,2.085,2.085,0,0,0,.9-.76,2.275,2.275,0,0,0,.352-1.3A2.378,2.378,0,0,0,34-9.432a1.518,1.518,0,0,0-1.3-.6,1.526,1.526,0,0,0-1.368.7,3.51,3.51,0,0,0-.52,1.736H29.96V-9.52a3.166,3.166,0,0,1,1.184-.768,4.264,4.264,0,0,1,1.568-.288,3.874,3.874,0,0,1,1.552.3,2.694,2.694,0,0,1,1.128.88,2.231,2.231,0,0,1,.424,1.36A2.622,2.622,0,0,1,33.944-5.6Zm5.44,3.968A.926.926,0,0,1,40.1-1.3a1.325,1.325,0,0,1,.3.92,2.406,2.406,0,0,1-.448,1.44,3.121,3.121,0,0,1-1.216.992l-.24-.384a2.333,2.333,0,0,0,.728-.6,1.247,1.247,0,0,0,.336-.8.485.485,0,0,0-.016-.144.994.994,0,0,1-.192.016A.844.844,0,0,1,38.7-.1a.888.888,0,0,1-.232-.632.855.855,0,0,1,.264-.64.9.9,0,0,1,.652-.26Zm7.92-3.9a3.061,3.061,0,0,1,1.512.96,2.625,2.625,0,0,1,.584,1.76,2.674,2.674,0,0,1-.512,1.656,3.045,3.045,0,0,1-1.336,1,4.651,4.651,0,0,1-1.736.328A4.476,4.476,0,0,1,44.08-.16a3.087,3.087,0,0,1-1.312-1.008,2.668,2.668,0,0,1-.5-1.648,2.625,2.625,0,0,1,.584-1.76,3.061,3.061,0,0,1,1.512-.96,2.682,2.682,0,0,1-1.2-.848,2.367,2.367,0,0,1-.528-1.584A2.283,2.283,0,0,1,43.08-9.4a2.757,2.757,0,0,1,1.176-.88,4.144,4.144,0,0,1,1.576-.3,4.2,4.2,0,0,1,1.56.288,2.729,2.729,0,0,1,1.184.88,2.289,2.289,0,0,1,.456,1.44A2.367,2.367,0,0,1,48.5-6.384a2.682,2.682,0,0,1-1.2.848Zm-1.472-4.512a1.757,1.757,0,0,0-1.352.584,2.217,2.217,0,0,0-.536,1.56,2.217,2.217,0,0,0,.536,1.56,1.757,1.757,0,0,0,1.352.584,1.75,1.75,0,0,0,1.36-.584A2.238,2.238,0,0,0,47.72-7.9a2.217,2.217,0,0,0-.536-1.56,1.757,1.757,0,0,0-1.352-.588Zm0,9.712A2.035,2.035,0,0,0,47.384-.98a2.551,2.551,0,0,0,.608-1.82,2.645,2.645,0,0,0-.56-1.776,1.988,1.988,0,0,0-1.6-.656,1.988,1.988,0,0,0-1.6.656,2.645,2.645,0,0,0-.56,1.776A2.551,2.551,0,0,0,44.28-.984a2.035,2.035,0,0,0,1.552.648Zm9.248-6.26a3.351,3.351,0,0,1,1.56.376A2.888,2.888,0,0,1,57.808-5.1a3.336,3.336,0,0,1,.44,1.744,3.662,3.662,0,0,1-.456,1.832,3.263,3.263,0,0,1-1.24,1.256A3.422,3.422,0,0,1,54.824.18a3.072,3.072,0,0,1-1.9-.616,3.886,3.886,0,0,1-1.256-1.752,7.333,7.333,0,0,1-.44-2.656,7.784,7.784,0,0,1,.544-3.016A4.832,4.832,0,0,1,53.22-9.868a3.125,3.125,0,0,1,1.96-.7,2.953,2.953,0,0,1,1.5.4A3.6,3.6,0,0,1,57.864-9.04l-.48.4a3.38,3.38,0,0,0-.968-.96,2.15,2.15,0,0,0-1.176-.352A2.046,2.046,0,0,0,53.376-8.7a7.775,7.775,0,0,0-.744,3.32,3.234,3.234,0,0,1,1-.864,2.869,2.869,0,0,1,1.448-.348ZM55.1-.336a1.45,1.45,0,0,0,1.336-.744,3.788,3.788,0,0,0,.44-1.944,3.472,3.472,0,0,0-.608-2.232A1.87,1.87,0,0,0,54.76-6a1.853,1.853,0,0,0-1.352.544,2.738,2.738,0,0,0-.744,1.3,5.764,5.764,0,0,0,.768,2.84,1.945,1.945,0,0,0,1.668.98Zm8.448.512A2.968,2.968,0,0,1,61.624-.5a4.3,4.3,0,0,1-1.288-1.9,8.013,8.013,0,0,1-.456-2.8A7.946,7.946,0,0,1,60.336-8a4.267,4.267,0,0,1,1.3-1.888,3,3,0,0,1,1.928-.672,3.023,3.023,0,0,1,1.928.664,4.21,4.21,0,0,1,1.3,1.88,7.946,7.946,0,0,1,.456,2.8,7.888,7.888,0,0,1-.464,2.808,4.378,4.378,0,0,1-1.3,1.9,2.978,2.978,0,0,1-1.94.684Zm.016-.512a1.811,1.811,0,0,0,1.664-1.248A8.922,8.922,0,0,0,65.8-5.2a8.871,8.871,0,0,0-.576-3.6,1.811,1.811,0,0,0-1.664-1.248A1.811,1.811,0,0,0,61.9-8.8a8.871,8.871,0,0,0-.576,3.6A8.922,8.922,0,0,0,61.9-1.584,1.811,1.811,0,0,0,63.56-.336ZM80.04-.48V0H76.984V-.48H77.8V-5.088a2.368,2.368,0,0,0-.3-1.336,1.051,1.051,0,0,0-.928-.44,1.468,1.468,0,0,0-1.144.512,1.876,1.876,0,0,0-.456,1.3V-.48h.912V0H72.856V-.48h.912V-5.088a2.368,2.368,0,0,0-.3-1.336,1.051,1.051,0,0,0-.928-.44,1.485,1.485,0,0,0-1.16.512,1.876,1.876,0,0,0-.456,1.3V-.48h.848V0h-3.1V-.48H69.72V-6.752H68.7v-.464l2.192-.128.032.752a2.263,2.263,0,0,1,1.92-.816A2.361,2.361,0,0,1,74-7.128a1.732,1.732,0,0,1,.752.776,2.032,2.032,0,0,1,.832-.784A2.618,2.618,0,0,1,76.8-7.408q2.2,0,2.2,2.5V-.48Zm12.56,0V0H89.544V-.48h.816V-5.088a2.368,2.368,0,0,0-.3-1.336,1.051,1.051,0,0,0-.928-.44,1.468,1.468,0,0,0-1.144.512,1.876,1.876,0,0,0-.456,1.3V-.48h.912V0H85.416V-.48h.912V-5.088a2.368,2.368,0,0,0-.3-1.336,1.051,1.051,0,0,0-.928-.44,1.485,1.485,0,0,0-1.16.512,1.876,1.876,0,0,0-.456,1.3V-.48h.848V0h-3.1V-.48H82.28V-6.752H81.256v-.464l2.192-.128.032.752a2.263,2.263,0,0,1,1.92-.816,2.361,2.361,0,0,1,1.152.28,1.732,1.732,0,0,1,.752.776,2.032,2.032,0,0,1,.832-.784,2.618,2.618,0,0,1,1.216-.272q2.208,0,2.208,2.5V-.48Zm7.766-6.352a1.521,1.521,0,0,0-1.085.436,1.521,1.521,0,0,0-.455,1.076,1.521,1.521,0,0,0,.445,1.081,1.521,1.521,0,0,0,1.081.445,1.527,1.527,0,0,0,1.512-1.526,1.53,1.53,0,0,0-1.5-1.512Zm14.8-4.27c.238-.084.336-.182.336-.308s-.1-.2-.28-.21l-1.19-.14a14.473,14.473,0,0,1-2.086,2.884,20.166,20.166,0,0,1-3.612,3.094l.182.364a14.954,14.954,0,0,0,6.342-5.236l.056.084A12.274,12.274,0,0,0,120.6-5.684a7.579,7.579,0,0,1,.616-1.274,13.2,13.2,0,0,1-3.948-2.114,12.574,12.574,0,0,1-2.128-1.988Zm.154,5.3h3.024l.56.112v-.784l-.56.112H111.2l-.56-.112v.784l.56-.112h2.912v2.45h-3.066l-.546-.112v.784l.546-.112h3.066V.042h-4.536l-.56-.112V.714l.56-.112H120.12l.56.112V-.07l-.56.112h-4.8V-2.786h3.18l.546.112v-.784l-.546.112h-3.178ZM125.9-9.128h.91v6.286c0,.266-.084.336-.336.35h-.406v.56h.714c.672,0,.952-.28.952-.924v-6.79H125.9v-1.568c.182-.126.224-.182.224-.28,0-.126-.1-.182-.294-.182h-.854v2.03h-1.764v7.8h.924v-7.28h.84V1.036h.924Zm9.24,4.046h-6.748V1.036h1.022V.35h4.676V.938h1.05ZM134.09-2.17V-.21h-1.876V-2.17Zm0-.56h-1.876V-4.522h1.876Zm-2.884-1.792V-2.73h-1.792V-4.522ZM129.416-.21V-2.17h1.792V-.21Zm5.166-6.16V-9.422h-5.74V-6.37ZM133.5-6.93h-3.612V-8.862H133.5Zm-5.068-3.682h6.636l.56.112v-.784l-.56.112h-6.636l-.56-.112v.784ZM143.188-.576V0h-4.48V-.576h1.648V-9.1l-1.584,1.02-.336-.512,2.64-1.776h.544V-.576Zm3.968-1.056a.926.926,0,0,1,.712.328,1.325,1.325,0,0,1,.3.92,2.406,2.406,0,0,1-.448,1.44,3.121,3.121,0,0,1-1.216.992l-.24-.384a2.333,2.333,0,0,0,.728-.6,1.247,1.247,0,0,0,.344-.792.485.485,0,0,0-.016-.144.994.994,0,0,1-.192.016A.844.844,0,0,1,146.48-.1a.888.888,0,0,1-.232-.632.855.855,0,0,1,.264-.64.9.9,0,0,1,.644-.256Zm9.184-8.736v.56L151.876,0h-.752l4.224-9.136h-4.48l-.56,1.552h-.56v-2.784Zm5.36,3.632a3.351,3.351,0,0,1,1.56.376,2.964,2.964,0,0,1,1.184,1.128A3.391,3.391,0,0,1,164.9-3.44a3.575,3.575,0,0,1-.528,1.984,3.41,3.41,0,0,1-1.336,1.224,3.666,3.666,0,0,1-1.672.408,3.678,3.678,0,0,1-1.872-.48,3.4,3.4,0,0,1-1.3-1.312l.512-.32A2.759,2.759,0,0,0,159.76-.864a2.925,2.925,0,0,0,1.46.364,2.075,2.075,0,0,0,1.128-.328,2.351,2.351,0,0,0,.84-.968,3.363,3.363,0,0,0,.32-1.52,3.213,3.213,0,0,0-.32-1.5,2.155,2.155,0,0,0-.84-.912,2.242,2.242,0,0,0-1.128-.3,1.832,1.832,0,0,0-.96.24,2.99,2.99,0,0,0-.72.608h-.624l.384-5.2h5.088V-9.1H159.8L159.576-6a2.823,2.823,0,0,1,.92-.544,3.4,3.4,0,0,1,1.2-.192Zm8.864,0a3.351,3.351,0,0,1,1.56.376,2.964,2.964,0,0,1,1.184,1.128,3.391,3.391,0,0,1,.456,1.792,3.575,3.575,0,0,1-.528,1.984A3.41,3.41,0,0,1,171.9-.232a3.666,3.666,0,0,1-1.672.408,3.678,3.678,0,0,1-1.872-.48,3.4,3.4,0,0,1-1.3-1.312l.512-.32a2.759,2.759,0,0,0,1.056,1.072A2.925,2.925,0,0,0,170.08-.5a2.075,2.075,0,0,0,1.128-.328,2.351,2.351,0,0,0,.84-.968,3.363,3.363,0,0,0,.32-1.52,3.213,3.213,0,0,0-.32-1.5,2.155,2.155,0,0,0-.84-.912,2.242,2.242,0,0,0-1.128-.3,1.832,1.832,0,0,0-.96.24,2.99,2.99,0,0,0-.72.608h-.624l.384-5.2h5.088V-9.1H168.66L168.436-6a2.823,2.823,0,0,1,.92-.544,3.4,3.4,0,0,1,1.208-.2ZM187.012-.48V0h-3.056V-.48h.816V-5.088a2.368,2.368,0,0,0-.3-1.336,1.051,1.051,0,0,0-.928-.44,1.468,1.468,0,0,0-1.144.512,1.876,1.876,0,0,0-.456,1.3V-.48h.912V0h-3.024V-.48h.912V-5.088a2.368,2.368,0,0,0-.3-1.336,1.051,1.051,0,0,0-.928-.44,1.485,1.485,0,0,0-1.16.512,1.876,1.876,0,0,0-.456,1.3V-.48h.848V0h-3.1V-.48H176.7V-6.752h-1.02v-.464l2.192-.128.032.752a2.263,2.263,0,0,1,1.92-.816,2.361,2.361,0,0,1,1.152.28,1.732,1.732,0,0,1,.752.776,2.031,2.031,0,0,1,.832-.784,2.618,2.618,0,0,1,1.216-.272q2.208,0,2.208,2.5V-.48Zm12.56,0V0h-3.056V-.48h.816V-5.088a2.368,2.368,0,0,0-.3-1.336,1.051,1.051,0,0,0-.928-.44,1.468,1.468,0,0,0-1.144.512,1.876,1.876,0,0,0-.456,1.3V-.48h.912V0h-3.024V-.48h.912V-5.088a2.368,2.368,0,0,0-.3-1.336,1.051,1.051,0,0,0-.928-.44,1.485,1.485,0,0,0-1.16.512,1.876,1.876,0,0,0-.456,1.3V-.48h.848V0h-3.1V-.48h1.056V-6.752H188.24v-.464l2.192-.128.032.752a2.263,2.263,0,0,1,1.92-.816,2.361,2.361,0,0,1,1.152.28,1.732,1.732,0,0,1,.752.776,2.031,2.031,0,0,1,.832-.784,2.618,2.618,0,0,1,1.216-.272q2.208,0,2.208,2.5V-.48Zm7.766-6.352a1.521,1.521,0,0,0-1.083.436A1.521,1.521,0,0,0,205.8-5.32a1.521,1.521,0,0,0,.445,1.081,1.521,1.521,0,0,0,1.081.445,1.527,1.527,0,0,0,1.512-1.526,1.53,1.53,0,0,0-1.5-1.512Zm14.8-4.27c.238-.084.336-.182.336-.308s-.1-.2-.28-.21L221-11.76a14.473,14.473,0,0,1-2.086,2.884A20.165,20.165,0,0,1,215.3-5.782l.182.364a14.954,14.954,0,0,0,6.342-5.236l.056.084a12.274,12.274,0,0,0,5.684,4.886,7.579,7.579,0,0,1,.616-1.274,13.2,13.2,0,0,1-3.948-2.114A12.574,12.574,0,0,1,222.1-11.06Zm.152,5.3h3.024l.56.112v-.784l-.56.112h-7.14l-.56-.112v.784l.56-.112h2.912v2.45H218.02l-.546-.112v.784l.546-.112h3.066V.042H216.55l-.56-.112V.714L216.55.6h10.542l.56.112V-.07l-.56.112h-4.8V-2.786h3.178l.546.112v-.784l-.546.112h-3.18ZM235.464-10.3h-5.1l-.56-.112v.784l.56-.112h11.578l.56.112V-10.4l-.56.112h-5.208v-.994c.182-.14.224-.2.224-.28,0-.14-.1-.2-.294-.2h-1.2ZM241.918-5H230.4V1.036h1.162V-4.438h9.2V-.21c-.014.434-.154.574-.588.588h-1.19V.966H240.7c.854,0,1.232-.35,1.218-1.162Zm-8.932,1.6V0h1.106V-.644h5V-3.4Zm1.106,2.2V-2.842H238V-1.2Zm6.146-4.858v-2.65h-8.162v2.646Zm-7-.56v-1.53h5.838v1.526ZM250.16-.576V0h-4.48V-.576h1.648V-9.1l-1.584,1.02-.336-.512,2.64-1.776h.544V-.576Zm3.968-1.056a.926.926,0,0,1,.712.328,1.325,1.325,0,0,1,.3.92,2.406,2.406,0,0,1-.448,1.44,3.121,3.121,0,0,1-1.216.992l-.24-.384a2.333,2.333,0,0,0,.728-.6A1.247,1.247,0,0,0,254.3.272a.485.485,0,0,0-.016-.144.994.994,0,0,1-.192.016.844.844,0,0,1-.648-.248.888.888,0,0,1-.232-.632.855.855,0,0,1,.264-.64.9.9,0,0,1,.652-.256Zm10.24-.72h-1.76V0h-1.264V-2.352h-4.48v-.624l4.1-7.392h1.648V-3.44h1.76ZM261.344-3.44V-9.5h-.208l-3.264,6.06Zm8.48-3.152a3.351,3.351,0,0,1,1.56.376A2.888,2.888,0,0,1,272.552-5.1a3.336,3.336,0,0,1,.44,1.744,3.662,3.662,0,0,1-.456,1.832A3.263,3.263,0,0,1,271.3-.272a3.422,3.422,0,0,1-1.728.448,3.072,3.072,0,0,1-1.9-.616,3.886,3.886,0,0,1-1.256-1.752,7.333,7.333,0,0,1-.44-2.656,7.784,7.784,0,0,1,.544-3.016,4.832,4.832,0,0,1,1.448-2.008,3.125,3.125,0,0,1,1.96-.7,2.953,2.953,0,0,1,1.5.4,3.6,3.6,0,0,1,1.192,1.136l-.48.4a3.38,3.38,0,0,0-.968-.96A2.15,2.15,0,0,0,270-9.948,2.046,2.046,0,0,0,268.12-8.7a7.775,7.775,0,0,0-.744,3.32,3.234,3.234,0,0,1,1-.864,2.869,2.869,0,0,1,1.448-.348Zm.016,6.256a1.45,1.45,0,0,0,1.336-.744,3.788,3.788,0,0,0,.44-1.944,3.472,3.472,0,0,0-.608-2.232A1.87,1.87,0,0,0,269.5-6a1.853,1.853,0,0,0-1.352.544,2.737,2.737,0,0,0-.744,1.3,5.764,5.764,0,0,0,.768,2.84A1.945,1.945,0,0,0,269.84-.336Zm8.448.512a2.968,2.968,0,0,1-1.92-.672,4.3,4.3,0,0,1-1.288-1.9,8.013,8.013,0,0,1-.456-2.808A7.946,7.946,0,0,1,275.08-8a4.268,4.268,0,0,1,1.3-1.888,3,3,0,0,1,1.928-.672,3.023,3.023,0,0,1,1.928.664,4.21,4.21,0,0,1,1.3,1.88,7.944,7.944,0,0,1,.456,2.8,7.887,7.887,0,0,1-.464,2.808,4.378,4.378,0,0,1-1.3,1.9,2.978,2.978,0,0,1-1.94.684Zm.016-.512a1.811,1.811,0,0,0,1.664-1.248,8.922,8.922,0,0,0,.576-3.616,8.871,8.871,0,0,0-.576-3.6,1.811,1.811,0,0,0-1.664-1.248A1.811,1.811,0,0,0,276.64-8.8a8.871,8.871,0,0,0-.576,3.6,8.922,8.922,0,0,0,.576,3.616A1.811,1.811,0,0,0,278.3-.336Zm16.48-.144V0h-3.056V-.48h.816V-5.088a2.368,2.368,0,0,0-.3-1.336,1.051,1.051,0,0,0-.928-.44,1.468,1.468,0,0,0-1.144.512,1.876,1.876,0,0,0-.456,1.3V-.48h.912V0H287.6V-.48h.912V-5.088a2.368,2.368,0,0,0-.3-1.336,1.051,1.051,0,0,0-.928-.44,1.485,1.485,0,0,0-1.16.512,1.876,1.876,0,0,0-.456,1.3V-.48h.848V0h-3.1V-.48h1.056V-6.752H283.44v-.464l2.192-.128.032.752a2.263,2.263,0,0,1,1.92-.816,2.361,2.361,0,0,1,1.152.28,1.732,1.732,0,0,1,.752.776,2.032,2.032,0,0,1,.832-.784,2.618,2.618,0,0,1,1.216-.272q2.208,0,2.208,2.5V-.48Zm12.56,0V0h-3.056V-.48h.816V-5.088a2.368,2.368,0,0,0-.3-1.336,1.051,1.051,0,0,0-.928-.44,1.468,1.468,0,0,0-1.144.512,1.876,1.876,0,0,0-.456,1.3V-.48h.912V0H300.16V-.48h.912V-5.088a2.368,2.368,0,0,0-.3-1.336,1.051,1.051,0,0,0-.928-.44,1.485,1.485,0,0,0-1.16.512,1.876,1.876,0,0,0-.456,1.3V-.48h.848V0h-3.1V-.48h1.056V-6.752H296v-.464l2.192-.128.032.752a2.263,2.263,0,0,1,1.92-.816,2.361,2.361,0,0,1,1.152.28,1.732,1.732,0,0,1,.752.776,2.032,2.032,0,0,1,.832-.784,2.618,2.618,0,0,1,1.216-.272q2.208,0,2.208,2.5V-.48ZM7.728,12.992h4.4l.616.126v-.9l-.616.126h-4.4V10.36c.2-.14.28-.238.28-.364a.252.252,0,0,0-.266-.238l-1.414-.1.126.84v1.848H1.974l-.616-.126v.9l.616-.126h4.48v7.182c0,.476-.21.686-.7.686H4.326V21.5H6.678c.728.014,1.05-.336,1.05-1.134Zm1.386,1.666a17.406,17.406,0,0,1,2.8,5.236l1.344-.7A10.084,10.084,0,0,0,9.394,14.42ZM.938,19.95a9.648,9.648,0,0,0,3.7-4.55c.252-.1.35-.2.35-.336a.3.3,0,0,0-.21-.266l-1.316-.476-.168.77a12.955,12.955,0,0,1-2.6,4.55ZM22.96,13.5a35.994,35.994,0,0,0,2.982-2.632c.378-.042.532-.14.532-.336a.434.434,0,0,0-.224-.322L25.172,9.5l-.5.756a27.236,27.236,0,0,1-9.184,6.37l.154.42a18.465,18.465,0,0,0,6.02-2.6v7.3h1.3Zm18.816,1.848-11.69-.434v1.47l11.69-.42Zm8.876,6.1a6.936,6.936,0,0,0,4.158-2.534,9.8,9.8,0,0,0,2.03-4.606l-.434-.14c-.924,2.632-2.674,4.774-4.508,5.516V10.64c.21-.14.28-.238.28-.364a.262.262,0,0,0-.266-.238l-1.386-.1.126.84Zm-6.622.042a7.681,7.681,0,0,0,3.136-3.332,13.044,13.044,0,0,0,.826-5.46V11.116c.21-.14.28-.238.28-.364a.252.252,0,0,0-.266-.238l-1.428-.1.126.84v1.568c0,4.256-.672,6.174-2.926,8.3ZM70.546,10.878a2.781,2.781,0,0,0-1.61-1.484l-.252.2a5.228,5.228,0,0,1,.924,1.764Zm-3.472-.966a5.737,5.737,0,0,1,.77,1.862l.98-.448a2.9,2.9,0,0,0-1.5-1.6Zm4.032,9.73c-2.016-2.03-5.362-5.782-6.958-7.826-.574-.742-.784-.938-1.036-.938-.28,0-.5.21-1.5,1.442-1.512,1.834-1.932,2.338-2.674,3.108l-.7.588.784,1.064a.345.345,0,0,0,.28.182c.168,0,.252-.126.266-.378.756-1.05,1.2-1.694,2.772-3.99.56-.854.658-.98.756-.98.056,0,.126.07.294.336a97.849,97.849,0,0,0,6.72,8.582Zm13.93-4.3-11.69-.434v1.47l11.69-.42Zm9.7.994a17.629,17.629,0,0,0,2.884-5.67H89.334l-.616-.126v.9l.616-.126h6.622A16.133,16.133,0,0,1,87.5,20.748l.2.434a14.074,14.074,0,0,0,6.748-4.466,23.9,23.9,0,0,1,4,4.564l1.246-1.008a17.1,17.1,0,0,0-4.774-3.836Zm13.61,3.414V21H102.06v-.56q2.032-2.208,2.968-3.336a10.141,10.141,0,0,0,1.344-1.976,4.047,4.047,0,0,0,.408-1.776,2.63,2.63,0,0,0-.52-1.768,1.687,1.687,0,0,0-1.336-.6,1.58,1.58,0,0,0-1.392.7,3.383,3.383,0,0,0-.544,1.728h-.864V11.5a2.992,2.992,0,0,1,1.2-.768,4.564,4.564,0,0,1,1.616-.288,4.241,4.241,0,0,1,1.544.288,2.766,2.766,0,0,1,1.232.936,2.677,2.677,0,0,1,.488,1.656,2.958,2.958,0,0,1-.384,1.448,9.21,9.21,0,0,1-1.272,1.664q-.888.968-3.208,3.32Zm3.136-.384a.926.926,0,0,1,.712.328,1.325,1.325,0,0,1,.3.92,2.406,2.406,0,0,1-.448,1.44,3.121,3.121,0,0,1-1.216.992l-.24-.384a2.333,2.333,0,0,0,.728-.6,1.247,1.247,0,0,0,.344-.792.485.485,0,0,0-.016-.144.994.994,0,0,1-.192.016.844.844,0,0,1-.648-.248.888.888,0,0,1-.232-.632.855.855,0,0,1,.264-.64.9.9,0,0,1,.646-.254Zm6.32-5.1a3.351,3.351,0,0,1,1.56.376,2.964,2.964,0,0,1,1.184,1.128A3.391,3.391,0,0,1,121,17.56a3.575,3.575,0,0,1-.528,1.984,3.41,3.41,0,0,1-1.336,1.224A3.764,3.764,0,0,1,115.6,20.7a3.4,3.4,0,0,1-1.3-1.312l.512-.32a2.759,2.759,0,0,0,1.056,1.072,2.925,2.925,0,0,0,1.456.368,2.075,2.075,0,0,0,1.128-.328,2.351,2.351,0,0,0,.84-.968,3.363,3.363,0,0,0,.32-1.52,3.213,3.213,0,0,0-.32-1.5,2.155,2.155,0,0,0-.84-.912,2.242,2.242,0,0,0-1.128-.3,1.832,1.832,0,0,0-.96.24,2.99,2.99,0,0,0-.72.608h-.624l.384-5.2h5.088v1.28H115.9l-.224,3.1a2.822,2.822,0,0,1,.92-.544,3.4,3.4,0,0,1,1.2-.2Zm12.048,5.488V21h-6.288v-.56q2.032-2.208,2.968-3.336a10.141,10.141,0,0,0,1.344-1.976,4.047,4.047,0,0,0,.408-1.776,2.631,2.631,0,0,0-.52-1.768,1.687,1.687,0,0,0-1.336-.6,1.58,1.58,0,0,0-1.392.7,3.383,3.383,0,0,0-.544,1.728h-.864V11.5a2.992,2.992,0,0,1,1.2-.768,4.564,4.564,0,0,1,1.616-.288,4.241,4.241,0,0,1,1.544.288,2.766,2.766,0,0,1,1.232.936,2.677,2.677,0,0,1,.488,1.656,2.958,2.958,0,0,1-.384,1.448,9.21,9.21,0,0,1-1.272,1.664q-.888.968-3.208,3.32Zm5.68-5.488a3.351,3.351,0,0,1,1.56.376,2.964,2.964,0,0,1,1.184,1.128,3.391,3.391,0,0,1,.456,1.792,3.575,3.575,0,0,1-.528,1.984,3.41,3.41,0,0,1-1.336,1.224,3.764,3.764,0,0,1-3.544-.072,3.4,3.4,0,0,1-1.3-1.312l.512-.32a2.759,2.759,0,0,0,1.056,1.072,2.925,2.925,0,0,0,1.456.368,2.075,2.075,0,0,0,1.128-.328,2.351,2.351,0,0,0,.84-.968,3.363,3.363,0,0,0,.32-1.52,3.213,3.213,0,0,0-.32-1.5,2.155,2.155,0,0,0-.84-.912,2.242,2.242,0,0,0-1.128-.3,1.832,1.832,0,0,0-.96.24,2.99,2.99,0,0,0-.72.608h-.624l.384-5.2h5.088v1.28h-4.592l-.224,3.1a2.823,2.823,0,0,1,.92-.544,3.4,3.4,0,0,1,1.214-.2Zm16.45,6.254V21h-3.056v-.48h.816V15.912a2.368,2.368,0,0,0-.3-1.336,1.051,1.051,0,0,0-.928-.44,1.468,1.468,0,0,0-1.144.512,1.876,1.876,0,0,0-.456,1.3V20.52h.912V21H144.8v-.48h.912V15.912a2.368,2.368,0,0,0-.3-1.336,1.051,1.051,0,0,0-.928-.44,1.485,1.485,0,0,0-1.16.512,1.876,1.876,0,0,0-.456,1.3V20.52h.848V21h-3.1v-.48h1.056V14.248h-1.024v-.464l2.192-.128.032.752a2.263,2.263,0,0,1,1.92-.816,2.361,2.361,0,0,1,1.152.28,1.732,1.732,0,0,1,.752.776,2.031,2.031,0,0,1,.832-.784,2.618,2.618,0,0,1,1.216-.272q2.208,0,2.208,2.5V20.52Zm12.56,0V21h-3.056v-.48h.816V15.912a2.368,2.368,0,0,0-.3-1.336,1.051,1.051,0,0,0-.928-.44,1.468,1.468,0,0,0-1.144.512,1.876,1.876,0,0,0-.456,1.3V20.52h.912V21H157.36v-.48h.912V15.912a2.368,2.368,0,0,0-.3-1.336,1.051,1.051,0,0,0-.928-.44,1.485,1.485,0,0,0-1.16.512,1.876,1.876,0,0,0-.456,1.3V20.52h.848V21h-3.1v-.48h1.056V14.248H153.2v-.464l2.192-.128.032.752a2.263,2.263,0,0,1,1.92-.816,2.361,2.361,0,0,1,1.152.28,1.732,1.732,0,0,1,.752.776,2.031,2.031,0,0,1,.832-.784,2.618,2.618,0,0,1,1.216-.272q2.208,0,2.208,2.5V20.52ZM6.566,36.022H12.88l.56.112V35.35l-.56.112H1.12L.56,35.35v.784l.56-.112h.7V41.37c-.112.028-.182.028-.378.056-.294.042-.588.084-.882.112L.952,42.56c.056.14.154.224.252.224s.2-.084.266-.28a28.609,28.609,0,0,0,4.06-1.386v2H6.566ZM5.53,37.73v1.246H2.856V37.73Zm-2.674-.56V36.022H5.53V37.17ZM5.53,39.536v1.12l-.28.056c-.7.168-1.722.378-2.394.49V39.536ZM6.986,43.12a7.656,7.656,0,0,0,3.108-1.68,7.157,7.157,0,0,0,2.744,1.6,7.055,7.055,0,0,1,.6-1.092A7.768,7.768,0,0,1,10.794,40.7,11.956,11.956,0,0,0,12.782,37H7.756L7.2,36.89v.784l.56-.112h.168A7.722,7.722,0,0,0,9.51,40.824,7.151,7.151,0,0,1,6.818,42.77Zm4.4-5.558A11.184,11.184,0,0,1,10.07,40.11a6.5,6.5,0,0,1-1.652-2.548Zm-9-6.818v3.738H11.7V30.744ZM3.5,33.922V32.858h7.042v1.064Zm0-1.624v-1h7.042v1Zm17.22-.588h-5.1l-.56-.112v.784l.56-.112H27.2l.56.112V31.6l-.56.112H21.994v-.994c.182-.14.224-.2.224-.28,0-.14-.1-.2-.294-.2h-1.2ZM27.174,37H15.652v6.034h1.162V37.562h9.2V41.79c-.014.434-.154.574-.588.588h-1.19v.588h1.722c.854,0,1.232-.35,1.218-1.162Zm-8.932,1.6V42h1.106v-.644h5V38.6Zm1.106,2.2V39.158h3.906V40.8Zm6.146-4.858v-2.65H17.332v2.646Zm-7-.56v-1.53h5.838v1.526ZM35.168,41.6H31.206V37.912c.182-.126.224-.182.224-.28,0-.126-.1-.182-.294-.182H30v5.488h1.2v-.784h9.268v.7h1.2V37.912c.182-.14.224-.182.224-.28,0-.126-.1-.182-.294-.182H40.474v4.144h-4.1v-5.4H41.02v-4.26c.182-.126.224-.182.224-.28,0-.126-.1-.182-.294-.182H39.816V35.63H36.372V30.786c.168-.126.224-.182.224-.28,0-.126-.1-.182-.294-.182H35.168V35.63H31.85v-3.7c.182-.126.224-.182.224-.28,0-.126-.1-.182-.294-.182H30.646V36.19h4.522ZM48.4,33.5a17.712,17.712,0,0,1-.8,4.522,8.413,8.413,0,0,1-3.78,4.494l.21.448a8.366,8.366,0,0,0,4.55-4.116A15.055,15.055,0,0,0,49.672,33.5H54.46c-.07,2.156-.336,6.02-.476,6.972-.126,1.344-.364,1.666-1.2,1.652H50.918v.658h2.52c1.19.014,1.694-.462,1.82-1.736.154-.98.476-6.146.532-8.134H49.7c.042-.476.056-.924.056-1.386V30.7c.168-.126.224-.182.224-.28,0-.126-.1-.182-.294-.182H48.468v1.288c0,.336-.014.826-.042,1.386h-3.7L44.18,32.8v.812l.546-.112Zm15.858,7.922V42h-4.48v-.576h1.648V32.9L59.84,33.92l-.336-.512,2.64-1.776h.544v9.792Zm6.864-6.016a3.351,3.351,0,0,1,1.56.376A2.888,2.888,0,0,1,73.848,36.9a3.336,3.336,0,0,1,.44,1.744,3.662,3.662,0,0,1-.456,1.832,3.263,3.263,0,0,1-1.24,1.256,3.422,3.422,0,0,1-1.728.448,3.072,3.072,0,0,1-1.9-.616A3.886,3.886,0,0,1,67.7,39.808a7.333,7.333,0,0,1-.44-2.656,7.784,7.784,0,0,1,.544-3.016,4.832,4.832,0,0,1,1.448-2.008,3.125,3.125,0,0,1,1.96-.7,2.953,2.953,0,0,1,1.5.4A3.6,3.6,0,0,1,73.9,32.96l-.48.4a3.38,3.38,0,0,0-.968-.96,2.15,2.15,0,0,0-1.176-.352,2.046,2.046,0,0,0-1.86,1.252,7.775,7.775,0,0,0-.744,3.32,3.234,3.234,0,0,1,1-.864,2.869,2.869,0,0,1,1.448-.348Zm.016,6.256a1.45,1.45,0,0,0,1.336-.744,3.788,3.788,0,0,0,.44-1.944,3.472,3.472,0,0,0-.608-2.232,1.919,1.919,0,0,0-2.856-.2,2.738,2.738,0,0,0-.744,1.3,5.765,5.765,0,0,0,.768,2.84,1.945,1.945,0,0,0,1.662.982Zm8.448.512a2.968,2.968,0,0,1-1.92-.672,4.3,4.3,0,0,1-1.288-1.9,8.849,8.849,0,0,1,0-5.608,4.267,4.267,0,0,1,1.3-1.888,3.116,3.116,0,0,1,3.856-.008,4.21,4.21,0,0,1,1.3,1.88,8.776,8.776,0,0,1-.008,5.608,4.378,4.378,0,0,1-1.3,1.9,2.978,2.978,0,0,1-1.942.69Zm.016-.512a1.811,1.811,0,0,0,1.664-1.248A8.922,8.922,0,0,0,81.84,36.8a8.871,8.871,0,0,0-.576-3.6,1.733,1.733,0,0,0-3.328,0,8.871,8.871,0,0,0-.576,3.6,8.922,8.922,0,0,0,.576,3.616A1.811,1.811,0,0,0,79.6,41.664Zm12.5-.144V42h-2.16L87.35,38.368h-.512V41.52h.992V42H84.608v-.48h1.024V31.552H84.48v-.464l2.352-.144v6.88h.544l2.448-2.576H88.736v-.48h2.912v.48H90.64L88.34,37.7l2.8,3.824Zm15.952-9.312H106.87L104.1,42h-.736L100.5,33.9,97.888,42h-.736l-2.928-9.792H92.96v-.576h4v.576H95.68l2.192,7.632,2.608-8.14h.672l2.928,8.1,2.1-7.584h-1.264V31.64h3.136Zm7.75,2.96a1.519,1.519,0,1,0,1.5,1.512A1.519,1.519,0,0,0,115.8,35.166Zm13.972.854h6.314l.56.112V35.35l-.56.112H124.33l-.56-.112v.784l.56-.112h.7V41.37c-.112.028-.182.028-.378.056-.294.042-.588.084-.882.112l.392,1.022c.056.14.154.224.252.224s.2-.084.266-.28a28.609,28.609,0,0,0,4.06-1.386v2h1.036Zm-1.036,1.708v1.246h-2.68V37.73Zm-2.674-.56V36.022h2.674V37.17Zm2.674,2.366v1.12l-.28.056c-.7.168-1.722.378-2.394.49V39.536Zm1.456,3.584a7.656,7.656,0,0,0,3.108-1.68,7.157,7.157,0,0,0,2.744,1.6,7.057,7.057,0,0,1,.6-1.092A7.768,7.768,0,0,1,134,40.7a11.956,11.956,0,0,0,1.988-3.7H130.96l-.56-.112v.784l.56-.112h.168a7.722,7.722,0,0,0,1.582,3.262,7.151,7.151,0,0,1-2.688,1.946Zm4.4-5.558a11.184,11.184,0,0,1-1.316,2.548,6.5,6.5,0,0,1-1.652-2.548Zm-9-6.818V34.48h9.31V30.744Zm1.12,3.178V32.858h7.042v1.064Zm0-1.624v-1h7.042v1Zm23.506,2.4.588.112v-.854l-.588.112h-5.278l.014-.042c.1-.98.168-2.03.168-2.814V30.78c.182-.126.224-.182.224-.28,0-.126-.1-.182-.294-.182h-1.2v.924c.014.406-.1,2-.182,2.786l-.014.042h-4.606l-.588-.112v.854l.588-.112h4.536a9.866,9.866,0,0,1-5.39,7.952l.224.378a9.277,9.277,0,0,0,6.384-7.8,11.733,11.733,0,0,0,5.516,7.728,8.239,8.239,0,0,1,.756-1.4,11.731,11.731,0,0,1-4.564-3.892,8.713,8.713,0,0,1-1.442-2.968Zm7.658-3.374c.182-.1.28-.21.28-.336s-.112-.224-.28-.238l-1.4-.1.1.84v11.18h1.3v-7.42a13.907,13.907,0,0,1,5.222,3.612l.952-1.274a14.941,14.941,0,0,0-6.174-2.856Zm15.988,11.116a6.936,6.936,0,0,0,4.158-2.534,9.8,9.8,0,0,0,2.03-4.606l-.434-.14c-.924,2.632-2.674,4.774-4.508,5.516V31.64c.21-.14.28-.238.28-.364a.262.262,0,0,0-.266-.238l-1.386-.1.126.84Zm-6.622.042a7.681,7.681,0,0,0,3.136-3.332,13.044,13.044,0,0,0,.826-5.46v-1.58c.21-.14.28-.238.28-.364a.252.252,0,0,0-.266-.238l-1.428-.1.126.84v1.568c0,4.256-.672,6.174-2.926,8.3Zm20.23-9.912c.154-.308.28-.616.49-1.162.266-.126.364-.21.364-.364,0-.126-.1-.21-.308-.252l-1.316-.28-.14.8A11.936,11.936,0,0,1,182.8,36.89l.224.336a9.394,9.394,0,0,0,4.116-4h4.382a12.226,12.226,0,0,1-3.416,6.272,13.759,13.759,0,0,1-5.25,2.744l.084.42a12.464,12.464,0,0,0,5.628-2.142,12.114,12.114,0,0,0,4.494-7.938ZM200.408,36.4a2.72,2.72,0,0,1,2.24,2.656,2.749,2.749,0,0,1-.52,1.68,3.324,3.324,0,0,1-1.344,1.072,4.173,4.173,0,0,1-1.72.368,3.46,3.46,0,0,1-1.848-.5,3.654,3.654,0,0,1-1.272-1.3l.512-.32a2.57,2.57,0,0,0,1.088,1.072,3.028,3.028,0,0,0,1.392.352,2.484,2.484,0,0,0,1.112-.256,2.061,2.061,0,0,0,.848-.784,2.379,2.379,0,0,0,.328-1.28,2.271,2.271,0,0,0-.648-1.7,2.212,2.212,0,0,0-1.608-.632h-.4v-.5a2.711,2.711,0,0,0,1.1-.24,2.085,2.085,0,0,0,.9-.76,2.276,2.276,0,0,0,.352-1.3,2.378,2.378,0,0,0-.448-1.464,1.7,1.7,0,0,0-2.664.1,3.51,3.51,0,0,0-.52,1.736h-.864V32.48a3.166,3.166,0,0,1,1.184-.768,4.264,4.264,0,0,1,1.568-.288,3.874,3.874,0,0,1,1.552.3,2.694,2.694,0,0,1,1.128.88,2.231,2.231,0,0,1,.424,1.36,2.622,2.622,0,0,1-1.872,2.436Zm8.864,0a2.72,2.72,0,0,1,2.24,2.656,2.749,2.749,0,0,1-.52,1.68,3.324,3.324,0,0,1-1.344,1.072,4.173,4.173,0,0,1-1.72.368,3.46,3.46,0,0,1-1.848-.5,3.654,3.654,0,0,1-1.272-1.3l.512-.32a2.57,2.57,0,0,0,1.088,1.072,3.028,3.028,0,0,0,1.392.352,2.484,2.484,0,0,0,1.112-.256,2.061,2.061,0,0,0,.848-.784,2.379,2.379,0,0,0,.328-1.28,2.271,2.271,0,0,0-.648-1.7,2.212,2.212,0,0,0-1.608-.632h-.4v-.5a2.711,2.711,0,0,0,1.1-.24,2.085,2.085,0,0,0,.9-.76,2.275,2.275,0,0,0,.352-1.3,2.378,2.378,0,0,0-.448-1.464,1.7,1.7,0,0,0-2.664.1,3.51,3.51,0,0,0-.52,1.736h-.864V32.48a3.166,3.166,0,0,1,1.184-.768,4.264,4.264,0,0,1,1.568-.288,3.874,3.874,0,0,1,1.552.3,2.694,2.694,0,0,1,1.128.88,2.231,2.231,0,0,1,.424,1.36,2.622,2.622,0,0,1-1.872,2.436Zm7.936,5.776a2.968,2.968,0,0,1-1.92-.672A4.3,4.3,0,0,1,214,39.6a8.849,8.849,0,0,1,0-5.6,4.267,4.267,0,0,1,1.3-1.888,3.116,3.116,0,0,1,3.856-.008,4.21,4.21,0,0,1,1.3,1.88,8.776,8.776,0,0,1-.008,5.608,4.378,4.378,0,0,1-1.3,1.9A2.978,2.978,0,0,1,217.208,42.176Zm.016-.512a1.811,1.811,0,0,0,1.664-1.248,8.922,8.922,0,0,0,.576-3.616,8.871,8.871,0,0,0-.576-3.6,1.733,1.733,0,0,0-3.328,0,8.871,8.871,0,0,0-.576,3.6,8.922,8.922,0,0,0,.576,3.616,1.811,1.811,0,0,0,1.664,1.248Zm5.2-.24h1.28V32.208h-1.28v-.576h2.608l4.816,7.776v-7.2h-1.28v-.576h3.248v.576h-1.28V42H229.8l-5.408-8.816v8.24h1.28V42h-3.248Zm22.048.1V42h-3.056v-.48h.816V36.912a2.368,2.368,0,0,0-.3-1.336,1.051,1.051,0,0,0-.928-.44,1.468,1.468,0,0,0-1.144.512,1.876,1.876,0,0,0-.456,1.3V41.52h.912V42h-3.024v-.48h.912V36.912a2.368,2.368,0,0,0-.3-1.336,1.051,1.051,0,0,0-.928-.44,1.485,1.485,0,0,0-1.16.512,1.876,1.876,0,0,0-.456,1.3V41.52h.848V42h-3.1v-.48h1.056V35.248H233.14v-.464l2.192-.128.032.752a2.263,2.263,0,0,1,1.92-.816,2.361,2.361,0,0,1,1.152.28,1.732,1.732,0,0,1,.752.776,2.031,2.031,0,0,1,.832-.784,2.618,2.618,0,0,1,1.216-.272q2.208,0,2.208,2.5V41.52ZM4.942,63.854a8.793,8.793,0,0,0,3.836-1.526c1.806-1.372,2.268-2.674,2.254-6.3v-3.64c.21-.14.28-.238.28-.364a.252.252,0,0,0-.266-.238l-1.442-.1.126.84V56.11c-.014,3.052-.322,4.13-1.582,5.4a8.115,8.115,0,0,1-3.3,1.918ZM2.968,52.738v6.8h1.3v-6.93c.21-.154.28-.252.28-.364a.252.252,0,0,0-.266-.238L2.842,51.9Zm12.978,3.836-.616-.126v.9l.616-.126H21.21a6.073,6.073,0,0,1-1.11,3.622,8.369,8.369,0,0,1-3.738,2.45l.112.406a8.691,8.691,0,0,0,4.508-2.17c.938-.938,1.386-2.2,1.526-4.312H26.89l.616.126v-.9l-.616.126H22.55c.028-.742.042-1.372.042-1.806V53.5c.756-.07,1.456-.182,2.94-.448a2.083,2.083,0,0,0,.406.07.292.292,0,0,0,.294-.266.608.608,0,0,0-.21-.406l-.728-.686-.658.28a48.208,48.208,0,0,1-8.47,1.3l.028.434c1.092.028,1.26.028,1.694.028,1.078,0,1.512-.028,3.36-.168h.042v1.12c0,.406-.014,1.05-.042,1.806Zm19.11-2.436H30.632v4.2h1.33V54.782h7.714a8.879,8.879,0,0,1-1.414,5.348,9.9,9.9,0,0,1-5.4,3.122l.084.434a10.5,10.5,0,0,0,5.964-2.422c1.554-1.512,2.142-3.332,2.3-7.126H36.4V52.43c.21-.14.28-.238.28-.364a.262.262,0,0,0-.266-.238l-1.484-.1.126.84Zm21.49,8.428a12.865,12.865,0,0,0-4.382-6.02l-.294.252a20.982,20.982,0,0,1,2.184,3.612c-2.674.392-4.424.574-7.042.742l.168-.308a64.9,64.9,0,0,0,3.5-7.98c.266-.112.378-.21.378-.364,0-.126-.1-.224-.294-.28l-1.386-.434-.14.812a73.594,73.594,0,0,1-2.87,8.148l-.2.476h-.084c-.378.028-.728.042-1.9.1l.448,1.218c.112.266.2.364.336.364s.252-.084.378-.336a60.912,60.912,0,0,0,8.974-1.624,21.941,21.941,0,0,1,.9,2.422Zm8.148-6.4a1.519,1.519,0,1,0,1.5,1.512,1.519,1.519,0,0,0-1.5-1.512ZM80.64,55.5a36,36,0,0,0,2.982-2.632c.378-.042.532-.14.532-.336a.434.434,0,0,0-.224-.322l-1.078-.71-.5.756a27.236,27.236,0,0,1-9.184,6.37l.154.42a18.465,18.465,0,0,0,6.02-2.6v7.3h1.3Zm14.392,6.776c-.028.588-.224.77-.812.784H92.764v.64h2.3a1.357,1.357,0,0,0,.91-.266,1.236,1.236,0,0,0,.35-.84V62.37l-.168-7.2H99.25l.56.112v-.868l-.56.112H96.138l-.056-2.268c.182-.14.238-.224.238-.336,0-.14-.126-.238-.35-.238l-1.3-.07.14.938.042,1.974H88.508l-.56-.112v.868l.56-.112h5.5l-.028.042a16.6,16.6,0,0,1-6.3,6.8l.182.336c2.912-1.092,4.774-2.688,7.028-6.048Zm18.76-8.036a13.9,13.9,0,0,1-3.57,4.536,13.168,13.168,0,0,1-6.426,2.842l-.742.014.5,1.246c.084.2.21.308.35.308s.266-.1.364-.322a13.58,13.58,0,0,0,6.874-3.29,11.8,11.8,0,0,0,3.038-5.152Zm-10.864-1.53a13.161,13.161,0,0,1,3.486,3l1.148-1.162a8.64,8.64,0,0,0-4.466-2.2Zm19.446,3.458a1.519,1.519,0,1,0,1.5,1.512A1.519,1.519,0,0,0,122.374,56.168Zm20.986-3.612a2.8,2.8,0,0,0-1.652-1.456l-.224.2a5.627,5.627,0,0,1,.938,1.764ZM130.578,62.79c2.31-1.834,3.808-4.522,4.592-8.288.308-.112.434-.238.434-.42,0-.14-.112-.252-.322-.308l-1.456-.364-.042.812a19,19,0,0,1-3.514,8.3Zm7.042-9.09a26.95,26.95,0,0,1,3.878,8.988l1.456-.812A18.86,18.86,0,0,0,138,53.41Zm2.226-2.2a6.153,6.153,0,0,1,.854,1.918l.938-.448a2.77,2.77,0,0,0-1.54-1.652Zm9.17,12.32a7.426,7.426,0,0,0,4.424-2.464,10.876,10.876,0,0,0,2.1-4.928c.224-.056.308-.14.308-.266,0-.084-.07-.168-.21-.21l-1.316-.42-.028.742a13.488,13.488,0,0,1-1.47,4.032,7.391,7.391,0,0,1-3.948,3.108Zm.308-5a5.243,5.243,0,0,0-2.31-3.108l-.238.182a9.4,9.4,0,0,1,1.442,3.346Zm2.772-.35a5.54,5.54,0,0,0-2.212-3.108l-.252.2a9.465,9.465,0,0,1,1.344,3.346Zm19-1.484.616.126v-.9l-.616.126h-10.95l-.616-.126v.9l.616-.126h5a7.877,7.877,0,0,1-.476,3.066,6.5,6.5,0,0,1-4.242,3.248l.112.462a8.089,8.089,0,0,0,4.928-2.6A6.688,6.688,0,0,0,166.5,56.99Zm-1.82-4.536h-7.392l-.616-.126v.9l.616-.126h7.392l.616.126v-.9Zm8.708,11.4a8.793,8.793,0,0,0,3.836-1.526c1.806-1.372,2.268-2.674,2.254-6.3v-3.64c.21-.14.28-.238.28-.364a.252.252,0,0,0-.266-.238l-1.442-.1.126.84v3.584c-.014,3.052-.322,4.13-1.582,5.4a8.115,8.115,0,0,1-3.3,1.918ZM176.01,52.734v6.8h1.3V52.6c.21-.154.28-.252.28-.364a.252.252,0,0,0-.266-.238l-1.442-.112Zm24.39,4.61-11.69-.434v1.47l11.69-.42Zm8.89-1.218c.224-.1.308-.168.308-.294s-.07-.168-.294-.224l-.938-.238a17.49,17.49,0,0,1-5.922,4.844l.126.378a16.16,16.16,0,0,0,2.2-.9v4.34h1.162V63.42h5.908v.546H213V59.71a11.483,11.483,0,0,0,1.75.728,6.349,6.349,0,0,1,.574-1.218,13.365,13.365,0,0,1-5.992-3.066Zm-4.368,3.486a13.805,13.805,0,0,0,4.06-3.178,12.05,12.05,0,0,0,3.836,3.178Zm1.008,3.248V60.172h5.908V62.86Zm2.27-10.248h-3.92a3.671,3.671,0,0,0-.028-.588h-.476a3.564,3.564,0,0,1-1.33,2.268l.854,1.036a2.966,2.966,0,0,0,.952-2.156h9.436a10.964,10.964,0,0,1-.77,1.582l.28.21a5.35,5.35,0,0,0,2.128-2.352h-5.9V51.7c.182-.14.224-.182.224-.266,0-.14-.1-.2-.294-.2H208.2Zm1.652,1.722a16.538,16.538,0,0,1,3.5,2.66l.952-.98a14.466,14.466,0,0,0-4.172-2.03Zm-6.23,2.8a10.382,10.382,0,0,0,3.7-2.282c.308-.056.476-.154.476-.294,0-.07-.1-.168-.224-.224l-1.05-.462a12.251,12.251,0,0,1-3.108,2.912ZM222.74,63.2h-5.32l-.56-.112v.742l.56-.112h11.76l.56.112v-.742l-.56.112h-5.418V62.132h4.41l.546.112V61.5l-.546.112h-4.41v-.966h4.368V57.162h-9.66v3.486h4.27v.966h-4.326l-.546-.112v.742l.546-.112h4.326Zm0-3.066h-3.192v-.98h3.192Zm0-1.5h-3.192V57.68h3.192Zm1.022-.952h3.29v.952h-3.29Zm0,1.47h3.29v.98h-3.29Zm-5.11-7.42V55.12h9.3V51.73Zm1.12.518h7.056v.9h-7.056Zm0,2.352v-.938h7.056V54.6Zm-2.272,1.79h11.6l.56.112v-.742l-.56.112H217.5l-.56-.112V56.5Zm19.8,6.032V63h-4.48v-.576h1.648V53.9l-1.588,1.02-.336-.512,2.64-1.776h.544v9.792Zm7.392-5.024a2.72,2.72,0,0,1,2.24,2.656,2.749,2.749,0,0,1-.52,1.68,3.324,3.324,0,0,1-1.344,1.072,4.173,4.173,0,0,1-1.72.368,3.46,3.46,0,0,1-1.848-.5,3.654,3.654,0,0,1-1.272-1.3l.512-.32a2.57,2.57,0,0,0,1.088,1.072,3.028,3.028,0,0,0,1.392.352,2.484,2.484,0,0,0,1.112-.256,2.061,2.061,0,0,0,.848-.784,2.379,2.379,0,0,0,.328-1.28,2.271,2.271,0,0,0-.648-1.7,2.212,2.212,0,0,0-1.608-.632h-.4v-.5a2.711,2.711,0,0,0,1.1-.24,2.085,2.085,0,0,0,.9-.76,2.276,2.276,0,0,0,.352-1.3,2.378,2.378,0,0,0-.448-1.464,1.7,1.7,0,0,0-2.664.1,3.51,3.51,0,0,0-.52,1.736H240.7V53.48a3.166,3.166,0,0,1,1.184-.768,4.264,4.264,0,0,1,1.568-.288,3.874,3.874,0,0,1,1.552.3,2.694,2.694,0,0,1,1.128.88,2.231,2.231,0,0,1,.424,1.36,2.622,2.622,0,0,1-1.868,2.436Zm8.336-.992a3.351,3.351,0,0,1,1.56.376,2.888,2.888,0,0,1,1.168,1.112,3.336,3.336,0,0,1,.44,1.744,3.661,3.661,0,0,1-.456,1.832,3.263,3.263,0,0,1-1.24,1.256,3.422,3.422,0,0,1-1.728.448,3.072,3.072,0,0,1-1.9-.616,3.886,3.886,0,0,1-1.256-1.752,7.333,7.333,0,0,1-.44-2.656,7.784,7.784,0,0,1,.544-3.016,4.832,4.832,0,0,1,1.448-2.008,3.125,3.125,0,0,1,1.96-.7,2.953,2.953,0,0,1,1.5.4,3.6,3.6,0,0,1,1.192,1.136l-.48.4a3.38,3.38,0,0,0-.968-.96,2.15,2.15,0,0,0-1.176-.352A2.046,2.046,0,0,0,251.32,54.3a7.775,7.775,0,0,0-.744,3.32,3.233,3.233,0,0,1,1-.864,2.869,2.869,0,0,1,1.448-.348Zm.016,6.256a1.45,1.45,0,0,0,1.336-.744,3.788,3.788,0,0,0,.44-1.944,3.472,3.472,0,0,0-.608-2.232,1.919,1.919,0,0,0-2.856-.2,2.738,2.738,0,0,0-.744,1.3,5.764,5.764,0,0,0,.768,2.84,1.945,1.945,0,0,0,1.66.98Zm5.952.512a.956.956,0,1,1,.68-.28.926.926,0,0,1-.684.28Zm6.336,0a2.968,2.968,0,0,1-1.92-.672,4.3,4.3,0,0,1-1.288-1.9,8.849,8.849,0,0,1,0-5.608,4.267,4.267,0,0,1,1.3-1.888,3.116,3.116,0,0,1,3.856-.008,4.21,4.21,0,0,1,1.3,1.88,8.776,8.776,0,0,1-.008,5.608,4.378,4.378,0,0,1-1.3,1.9,2.978,2.978,0,0,1-1.944.688Zm.016-.512a1.811,1.811,0,0,0,1.664-1.248,8.922,8.922,0,0,0,.576-3.616,8.871,8.871,0,0,0-.576-3.6,1.733,1.733,0,0,0-3.328,0,8.871,8.871,0,0,0-.576,3.6,8.921,8.921,0,0,0,.576,3.616,1.811,1.811,0,0,0,1.66,1.248Zm14.944-.24V63H276.58v-.576h1.168L276.6,59.176h-3.44L272,62.424h1.168V63h-2.992v-.576h1.136l3.536-9.792h.752l3.552,9.792Zm-3.92-3.856L274.9,54.424h-.064l-1.472,4.144ZM288.8,62.52V63h-3.264v-.48h1.04V58.088a2.391,2.391,0,0,0-.368-1.44,1.3,1.3,0,0,0-1.12-.5,1.727,1.727,0,0,0-1.264.488,1.685,1.685,0,0,0-.5,1.256V62.52h1.024V63H281.1v-.48h1.024V52.552h-1.152v-.464l2.352-.144v4.464a1.987,1.987,0,0,1,.848-.6,3.316,3.316,0,0,1,1.232-.216,2.357,2.357,0,0,1,1.768.632,2.568,2.568,0,0,1,.616,1.864V62.52Zm6.48-10.5h.672l-5.2,11.392h-.672Zm5.744,4.24a3.351,3.351,0,0,1,1.56.376,2.964,2.964,0,0,1,1.184,1.128,3.39,3.39,0,0,1,.456,1.792,3.575,3.575,0,0,1-.528,1.984,3.41,3.41,0,0,1-1.336,1.224,3.764,3.764,0,0,1-3.544-.072,3.4,3.4,0,0,1-1.3-1.312l.512-.32a2.759,2.759,0,0,0,1.056,1.072,2.925,2.925,0,0,0,1.456.368,2.075,2.075,0,0,0,1.128-.328,2.351,2.351,0,0,0,.84-.968,3.364,3.364,0,0,0,.32-1.52,3.212,3.212,0,0,0-.32-1.5,2.155,2.155,0,0,0-.84-.912,2.242,2.242,0,0,0-1.128-.3,1.832,1.832,0,0,0-.96.24,2.991,2.991,0,0,0-.72.608h-.624l.384-5.2h5.088V53.9H299.12L298.9,57a2.822,2.822,0,0,1,.92-.544,3.4,3.4,0,0,1,1.208-.192Zm12.624,4.384h-1.76V63h-1.264V60.648h-4.48v-.624l4.1-7.392h1.648V59.56h1.76Zm-3.024-1.088V53.5h-.208l-3.264,6.064Zm5.584,3.616a.956.956,0,1,1,.68-.28.926.926,0,0,1-.68.284Zm9.568-1.424V63h-6.288v-.56q2.032-2.208,2.968-3.336a10.142,10.142,0,0,0,1.344-1.976,4.047,4.047,0,0,0,.408-1.776,2.631,2.631,0,0,0-.52-1.768,1.688,1.688,0,0,0-1.336-.6,1.58,1.58,0,0,0-1.392.7,3.383,3.383,0,0,0-.544,1.728h-.864V53.5a2.992,2.992,0,0,1,1.2-.768,4.564,4.564,0,0,1,1.616-.288,4.241,4.241,0,0,1,1.544.288,2.766,2.766,0,0,1,1.232.936,2.677,2.677,0,0,1,.488,1.656,2.957,2.957,0,0,1-.384,1.448,9.211,9.211,0,0,1-1.272,1.664q-.888.968-3.208,3.32Zm9.28.768V63H332.9l-2.6-3.632h-.512V62.52h.992V63h-3.216v-.48h1.024V52.552H327.44v-.464l2.352-.144v6.88h.544l2.448-2.576H331.7v-.48h2.912v.48H333.6L331.3,58.7l2.8,3.824ZM351.008,53.2h-1.184L347.056,63h-.736l-2.864-8.1L340.848,63h-.736l-2.928-9.792H335.92v-.576h4v.576h-1.28l2.192,7.632,2.608-8.14h.672l2.928,8.1,2.1-7.584h-1.264V52.64h3.136Zm8.928,9.312V63h-3.264v-.48h1.04V58.088a2.391,2.391,0,0,0-.368-1.44,1.3,1.3,0,0,0-1.12-.5,1.727,1.727,0,0,0-1.264.488,1.685,1.685,0,0,0-.5,1.256V62.52h1.024V63H352.24v-.48h1.024V52.552h-1.152v-.464l2.352-.144v4.464a1.987,1.987,0,0,1,.848-.6,3.316,3.316,0,0,1,1.232-.216,2.357,2.357,0,0,1,1.768.632,2.568,2.568,0,0,1,.616,1.864V62.52Z" transform="translate(858 3368)"/>
    <g id="グループ_106" data-name="グループ 106" transform="translate(-224 35)">
      <g id="パス_31" data-name="パス 31" transform="translate(1082 3272)">
        <path id="パス_123" data-name="パス 123" d="M223.5,29.5H.5V.5h223Z" fill="#fff"/>
        <path id="パス_124" data-name="パス 124" d="M1,1V29H223V1H1M0,0H224V30H0Z"/>
      </g>
      <path id="パス_30" data-name="パス 30" d="M1.288-5.04H12.712l.728.14V-6.062l-.728.14H1.288L.56-6.062V-4.9Zm24.248-.518a10.96,10.96,0,0,1,.994,1.176l1.022-1.092a16.307,16.307,0,0,0-4.368-2.94l-.336.378A21.538,21.538,0,0,1,25.06-6.062l-.756.028c-1.6.056-2.24.07-4.62.1l-.812.014A16.751,16.751,0,0,0,21.14-9.086l.014-.042h5.978l.56.112V-9.8l-.56.112H22.078v-1.6c.168-.126.224-.182.224-.28,0-.126-.1-.182-.308-.182H20.8v2.058H15.722L15.176-9.8v.784l.546-.112h3.99a25.348,25.348,0,0,1-1.428,2.982l-.126.224c-1.6.028-1.75.028-1.932.028h-.714l.28,1.106c.056.21.154.322.28.322s.224-.112.308-.336c.476-.014.924-.042,1.064-.056l.77-.042.77-.056A7.683,7.683,0,0,1,18.2-1.75,5.094,5.094,0,0,1,14.994.6l.154.434A6.084,6.084,0,0,0,18.97-.952,6.533,6.533,0,0,0,20.216-5.04l.168-.014c.294-.028.308-.028,1.05-.084.084-.014.5-.056.882-.084V-.6c0,1.064.378,1.372,1.652,1.358h2.24C27.174.77,27.58.392,27.678-.56L27.86-2.2l-.63-.1L27.076-.97c-.056.462-.252.63-.714.63H24.15c-.532-.028-.658-.14-.658-.56V-5.32l.378-.042a7.356,7.356,0,0,0,.91-.112Zm10.7,4.34H40.88V-5.152H30.772V-.266h1.05v-.952H35.2V-.126c.028.672.364.9,1.386.924h4.382c.752,0,1.06-.266,1.172-1.022l.126-1.036-.546-.056-.112.7c-.07.378-.224.49-.686.5H36.75c-.462-.028-.532-.07-.518-.42Zm0-3.374H39.8V-3.5H36.23Zm0,1.652H39.8v1.162H36.23ZM35.2-1.778H31.822V-2.94H35.2Zm0-1.722H31.822V-4.592H35.2Zm0-5.6v3.374h1.036V-9.1H40.88a13.188,13.188,0,0,1-.686,1.932L40.558-7a5.263,5.263,0,0,0,1.708-2.66H36.232v-.966h4.34l.56.112V-11.3l-.56.112h-9.3L30.73-11.3v.784l.546-.112H35.2v.966H31.038V-9.7l-.014-.364h-.476A3.839,3.839,0,0,1,29.4-7.714l.868.98a3.747,3.747,0,0,0,.77-2.366ZM31.43-6.132H34.5v-.56H31.43Zm0-1.484H34.5v-.56H31.43Zm5.5,1.484h3.122v-.56h-3.12Zm0-1.484h3.11v-.56H36.932ZM51-3.346h3.724l.56.112v-.784l-.56.112H51v-2.38h5.054l.56.112v-.784l-.56.112H51V-9.212h3.906l.56.112v-.784l-.56.112H51v-1.456c.182-.14.224-.182.224-.266,0-.14-.1-.2-.308-.2H49.8v1.918H45.6l-.546-.112V-9.1l.546-.112h4.2v2.366H44.48l-.546-.112v.784l.546-.112H49.8V-.812A4.342,4.342,0,0,1,47.1-3.3c.084-.364.154-.7.28-1.47.21-.084.322-.182.322-.308,0-.1-.112-.182-.266-.2l-1.2-.14C45.976-2.282,45.36-.742,43.82.728l.252.308A5.651,5.651,0,0,0,46.956-2.73a8.12,8.12,0,0,0,.49.994A4.638,4.638,0,0,0,50.96.49a28.063,28.063,0,0,0,4.158.2h1.19A6.318,6.318,0,0,1,56.7-.56c-1.4.084-2.464.126-3.444.126A17.79,17.79,0,0,1,51-.546ZM68.95-6.3h1.61l.56.112v-.784l-.56.112H63.714l-.56-.112v.784l.56-.112h4V-.294c0,.448-.2.644-.63.644H65.562V.938h2.114c.9,0,1.288-.364,1.274-1.218ZM60.312,1.036h1.162V-6.146c.308-.392.49-.616.952-1.232.364-.028.49-.1.49-.294,0-.084-.056-.154-.168-.224l-.98-.644A21.948,21.948,0,0,1,58.24-3.822l.238.35a16.678,16.678,0,0,0,1.834-1.456Zm4.27-11.354h5.264l.56.112v-.812l-.56.112H64.582l-.56-.112v.812ZM58.646-8.176a12.57,12.57,0,0,0,3.5-2.38.991.991,0,0,0,.378-.042.221.221,0,0,0,.168-.2c0-.07-.042-.14-.154-.224l-.98-.742a15.006,15.006,0,0,1-3.15,3.234ZM76.356-4.1h.98l.56.112v-.784l-.56.112h-.98V-6.83h1.33v-4.34h-4.34v4.34h2V-.8c-.126.014-.5.07-.924.14V-5.28c.154-.126.2-.182.2-.266,0-.126-.1-.182-.308-.182h-.9v5.2H73.36c-.2.028-.322.042-.7.084l.266.994c.042.168.126.266.238.266s.21-.1.252-.308a28.292,28.292,0,0,0,4.62-1.372L77.98-1.27c-.378.07-.77.154-1.176.224-.252.042-.308.056-.448.084ZM74.4-7.392v-3.22h2.24v3.22Zm5.54,7.07v-2.94h4.914V-7.938H79.94v-2.6h4.8l.56.112v-.784l-.56.112H78.79V1.036h1.15v-.8h5.026L85.54.35V-.434l-.574.112Zm0-7.056h3.738v3.556H79.94ZM92.694-1.652v1.2c-.014.462-.168.616-.616.63h-.994V.77H92.5c.826,0,1.19-.336,1.176-1.106V-4.578H90.762c.07-.252.168-.6.238-.952h2.3V-8.708c.182-.126.224-.182.224-.28,0-.126-.1-.182-.294-.182h-.882v3.08H88.69V-8.722c.182-.14.224-.2.224-.28,0-.126-.112-.2-.294-.2h-.882V-5.53h2.3c-.028.252-.042.28-.154.952H87.5V.812h1.008v-4.83h1.26c-.182.91-.308,1.512-.378,1.82l-.056.014c-.294.014-.294.014-.672.028l.252.854c.028.126.112.21.2.21s.168-.084.238-.266a13.528,13.528,0,0,0,2.184-.63,8.627,8.627,0,0,1,.294.854Zm0-2.366v2.31a6.578,6.578,0,0,0-1.5-1.778l-.294.14c.252.49.35.7.462.966-.322.042-1.232.14-1.442.154.182-.42.518-1.316.672-1.792Zm5.25-2.2v-2.17h1.288l.56.112V-9.06l-.56.112H97.426a8.454,8.454,0,0,0,1.162-1.89c.224-.07.364-.182.364-.266a.291.291,0,0,0-.2-.21l-1.064-.336a18.031,18.031,0,0,1-.77,2.7H95.284l.014-.042a14.208,14.208,0,0,0,.826-1.932c.252-.084.392-.2.392-.294,0-.07-.1-.168-.182-.2l-1.106-.35a22.29,22.29,0,0,1-1.792,4.914l.28.21a12.023,12.023,0,0,0,.91-1.176V1.036h.98V.28H99.4l.56.112V-.392L99.4-.28H97.944V-2.9h.966l.56.112V-3.57l-.56.112h-.966v-2.2h.966l.56.112V-6.33l-.56.112Zm-.966,0H95.606v-2.17h1.372Zm0,.56v2.2H95.606v-2.2Zm0,2.758V-.28H95.606V-2.9ZM89.012-8.806c.532.406.7.532,1.134.91A11.67,11.67,0,0,1,88.8-6.636l.21.294a8.446,8.446,0,0,0,1.64-1.092,8.974,8.974,0,0,1,.952.98l.644-.658a8.486,8.486,0,0,0-1.064-.84l.028-.028c.21-.238.322-.378.364-.42.084-.1.112-.154.224-.28.238-.014.35-.084.35-.2a.19.19,0,0,0-.1-.154l-.77-.406a11.917,11.917,0,0,1-.728,1.064c-.392-.252-.7-.42-1.288-.728Zm2.142-1.554v-.854c.182-.126.224-.182.224-.28,0-.126-.1-.182-.294-.182H90.006v1.316H87.64l-.56-.112v.784l.56-.112h5.8l.546.112v-.784l-.546.112Z" transform="translate(1096 3294)"/>
      <path id="パス_29" data-name="パス 29" d="M11.477-3.381H8.947V0H7.13V-3.381H.69v-.9L6.578-14.9H8.947v9.959h2.53ZM7.13-4.945v-8.717h-.3L2.139-4.945ZM18.975.253a4.267,4.267,0,0,1-2.76-.966,6.174,6.174,0,0,1-1.851-2.725,11.518,11.518,0,0,1-.656-4.036,11.422,11.422,0,0,1,.656-4.025,6.133,6.133,0,0,1,1.863-2.714A4.312,4.312,0,0,1,19-15.18a4.345,4.345,0,0,1,2.771.955,6.051,6.051,0,0,1,1.863,2.7A11.422,11.422,0,0,1,24.288-7.5a11.338,11.338,0,0,1-.667,4.037A6.293,6.293,0,0,1,21.747-.725a4.281,4.281,0,0,1-2.772.978ZM19-.483a2.6,2.6,0,0,0,2.39-1.794,12.825,12.825,0,0,0,.828-5.2,12.752,12.752,0,0,0-.828-5.175A2.6,2.6,0,0,0,19-14.444a2.6,2.6,0,0,0-2.392,1.794,12.752,12.752,0,0,0-.828,5.175,12.825,12.825,0,0,0,.828,5.2A2.6,2.6,0,0,0,19-.483ZM36.6-1.794V0H27.554V-.805q2.921-3.174,4.266-4.8a14.578,14.578,0,0,0,1.932-2.84A5.818,5.818,0,0,0,34.338-11a3.781,3.781,0,0,0-.748-2.542,2.426,2.426,0,0,0-1.92-.862,2.272,2.272,0,0,0-2,1.012,4.863,4.863,0,0,0-.782,2.484H27.646v-2.76a4.3,4.3,0,0,1,1.725-1.1,6.561,6.561,0,0,1,2.323-.414,6.1,6.1,0,0,1,2.22.414,3.976,3.976,0,0,1,1.771,1.345,3.849,3.849,0,0,1,.7,2.381,4.252,4.252,0,0,1-.552,2.082,13.24,13.24,0,0,1-1.828,2.392Q32.728-5.177,29.394-1.8Zm13.57,1.1V0H47.058L43.332-5.221H42.6V-.69h1.426V0H39.4V-.69h1.472V-15.019H39.215v-.667l3.381-.207V-6h.782L46.9-9.7H45.333v-.69h4.186v.69H48.07L44.758-6.187l4.025,5.5Zm18.078,0V0h-4.4V-.69h1.173V-7.314a3.4,3.4,0,0,0-.437-1.921,1.511,1.511,0,0,0-1.334-.632,2.11,2.11,0,0,0-1.645.736,2.7,2.7,0,0,0-.656,1.863V-.69H62.26V0H57.914V-.69h1.311V-7.314a3.4,3.4,0,0,0-.437-1.921,1.511,1.511,0,0,0-1.334-.632,2.135,2.135,0,0,0-1.667.736,2.7,2.7,0,0,0-.656,1.863V-.69H56.35V0H51.888V-.69h1.518V-9.706H51.934v-.667l3.151-.184.046,1.081a3.254,3.254,0,0,1,2.76-1.173,3.394,3.394,0,0,1,1.656.4,2.49,2.49,0,0,1,1.081,1.115,2.92,2.92,0,0,1,1.2-1.127,3.764,3.764,0,0,1,1.748-.391q3.174,0,3.174,3.588V-.69Z" transform="translate(1208 3295)"/>
      <path id="パス_52" data-name="パス 52" d="M73.027-14.373l1.234,1.449-.631.47-.993-1.65-.993,1.65-.631-.47,1.248-1.436-1.851-.429.241-.751,1.757.738-.161-1.892h.792L72.866-14.8l1.757-.738.255.751Zm-.389-.107-.013.013h.013l.013-.013Zm9.136,6V-8H78.017v-.483H79.4v-7.151l-1.328.859L77.79-15.2,80-16.694h.456v8.211Z" transform="translate(1209.663 3295)"/>
    </g>
    <path id="パス_28" data-name="パス 28" d="M.759-.828H2.6V-14.076H.759V-14.9H4.692L9.752-3.381,14.628-14.9h3.841v.828h-1.84V-.828h1.84V0H12.834V-.828h1.84V-12.443L9.752-.851H8.694L3.588-12.535V-.828H5.359V0H.759Zm26.611,0V0H20.907V-.828h2.254V-14.076H21V-14.9h6.279v.828H25.116V-.828Zm2.438,0h1.84V-14.076h-1.84V-14.9h3.749L40.48-3.726v-10.35H38.64V-14.9h4.669v.828h-1.84V0H40.411L32.637-12.673V-.828h1.84V0H29.808Zm22.172,0V0H45.517V-.828h2.254V-14.076H45.609V-14.9h6.279v.828H49.726V-.828ZM67.6.276a6.067,6.067,0,0,1-3.76-1.1,6.2,6.2,0,0,1-2.1-2.817,10.146,10.146,0,0,1-.644-3.6,10.9,10.9,0,0,1,.667-3.807A6.625,6.625,0,0,1,63.9-14.015a5.83,5.83,0,0,1,3.72-1.165,7.006,7.006,0,0,1,2.588.426,7.715,7.715,0,0,1,1.92,1.092v2.76H70.817a4.092,4.092,0,0,0-1.1-2.691,3.2,3.2,0,0,0-2.254-.851A3.616,3.616,0,0,0,64.2-12.8a7.655,7.655,0,0,0-1.069,4.244,14.058,14.058,0,0,0,.494,3.795,6.883,6.883,0,0,0,1.53,2.887,3.37,3.37,0,0,0,2.58,1.115,4.029,4.029,0,0,0,2.484-.851,4,4,0,0,0,1.472-2.461h.874a5.231,5.231,0,0,1-.92,2.231A5.135,5.135,0,0,1,69.874-.287,4.77,4.77,0,0,1,67.6.276ZM79.442.253A4.291,4.291,0,0,1,77.1-.4a4.3,4.3,0,0,1-1.6-1.851,6.407,6.407,0,0,1-.563-2.76,6.748,6.748,0,0,1,.61-2.921,4.75,4.75,0,0,1,1.7-2,4.464,4.464,0,0,1,2.5-.713,4.333,4.333,0,0,1,2.369.656,4.375,4.375,0,0,1,1.61,1.851,6.3,6.3,0,0,1,.575,2.76,6.588,6.588,0,0,1-.621,2.9A4.879,4.879,0,0,1,81.949-.472a4.467,4.467,0,0,1-2.507.725Zm.414-.69A2.156,2.156,0,0,0,81.7-1.564a5.887,5.887,0,0,0,.736-3.22,8.656,8.656,0,0,0-.38-2.668,4.379,4.379,0,0,0-1.069-1.84A2.218,2.218,0,0,0,79.4-9.959a2.15,2.15,0,0,0-1.89,1.138A5.843,5.843,0,0,0,76.8-5.7a8.585,8.585,0,0,0,.391,2.657,4.691,4.691,0,0,0,1.092,1.909,2.178,2.178,0,0,0,1.573.7Zm11.822.69A4.291,4.291,0,0,1,89.332-.4a4.3,4.3,0,0,1-1.6-1.851,6.407,6.407,0,0,1-.563-2.76,6.748,6.748,0,0,1,.61-2.921,4.75,4.75,0,0,1,1.7-2,4.464,4.464,0,0,1,2.5-.713,4.333,4.333,0,0,1,2.369.656,4.375,4.375,0,0,1,1.61,1.851,6.3,6.3,0,0,1,.575,2.76,6.588,6.588,0,0,1-.621,2.9A4.879,4.879,0,0,1,94.185-.472a4.467,4.467,0,0,1-2.507.725Zm.414-.69a2.156,2.156,0,0,0,1.84-1.127,5.887,5.887,0,0,0,.736-3.22,8.656,8.656,0,0,0-.38-2.668,4.379,4.379,0,0,0-1.069-1.84,2.218,2.218,0,0,0-1.587-.667,2.15,2.15,0,0,0-1.886,1.138A5.843,5.843,0,0,0,89.033-5.7a8.585,8.585,0,0,0,.391,2.657,4.691,4.691,0,0,0,1.092,1.909,2.178,2.178,0,0,0,1.576.7ZM104.42-10.649a4.275,4.275,0,0,1,2.346.644,4.278,4.278,0,0,1,1.575,1.84,6.465,6.465,0,0,1,.563,2.783,7.014,7.014,0,0,1-.575,2.909,4.732,4.732,0,0,1-1.621,2,4.157,4.157,0,0,1-2.426.725,4.185,4.185,0,0,1-1.622-.31,3.271,3.271,0,0,1-1.23-.862V4.232h1.656v.69h-5.06v-.69H99.7V-10.4h1.7l.023.966a3.027,3.027,0,0,1,1.242-.9,4.552,4.552,0,0,1,1.75-.315Zm-.138,10.12a2.288,2.288,0,0,0,2.07-1.035,5.967,5.967,0,0,0,.667-3.174,7.607,7.607,0,0,0-.782-3.76,2.448,2.448,0,0,0-2.231-1.368,2.43,2.43,0,0,0-1.852.77,2.787,2.787,0,0,0-.725,1.99v3.979a2.406,2.406,0,0,0,.805,1.875,2.944,2.944,0,0,0,2.048.723Zm12.282-10.12a3.869,3.869,0,0,1,2.921,1.173,4.262,4.262,0,0,1,1.127,3.082q0,.207-.046.713h-7.015a6.823,6.823,0,0,0,.494,2.518,4.624,4.624,0,0,0,1.242,1.794,2.552,2.552,0,0,0,1.69.655,2.627,2.627,0,0,0,1.852-.77,3.276,3.276,0,0,0,1-1.921h.713a3.867,3.867,0,0,1-.667,1.875,3.961,3.961,0,0,1-1.507,1.311,4.442,4.442,0,0,1-2.035.471,4.236,4.236,0,0,1-2.346-.667,4.518,4.518,0,0,1-1.621-1.875,6.267,6.267,0,0,1-.587-2.771,6.562,6.562,0,0,1,.61-2.864,4.844,4.844,0,0,1,1.7-2,4.373,4.373,0,0,1,2.475-.724Zm-.253.69a2.311,2.311,0,0,0-1.9.955,4.481,4.481,0,0,0-.84,2.564h4.991a4.592,4.592,0,0,0-.541-2.6,1.907,1.907,0,0,0-1.71-.919Zm12.765-.69a2.577,2.577,0,0,1,.966.184,1.7,1.7,0,0,1,.69.46v2.047H129.72A1.4,1.4,0,0,0,129.261-9a1.4,1.4,0,0,0-1.082-.357,1.434,1.434,0,0,0-1.265.851,4.035,4.035,0,0,0-.483,2.024v5.8h1.978V0h-5.221V-.69h1.518V-9.706h-1.5v-.667l3.151-.184L126.38-8.9a2.912,2.912,0,0,1,1.116-1.253A2.885,2.885,0,0,1,129.076-10.649ZM143.75.276a7.1,7.1,0,0,1-2.633-.46A4.167,4.167,0,0,1,139.4-1.311V-4.025h1.242a4.573,4.573,0,0,0,1.035,2.749,2.884,2.884,0,0,0,2.116.794,3.026,3.026,0,0,0,2.2-.748,2.674,2.674,0,0,0,.771-2.013,2.571,2.571,0,0,0-1.265-2.3l-4.1-2.645a4.915,4.915,0,0,1-1.46-1.357,3.271,3.271,0,0,1-.518-1.886,3.393,3.393,0,0,1,1.208-2.726,4.98,4.98,0,0,1,3.324-1.024,6.7,6.7,0,0,1,2.357.391,4.417,4.417,0,0,1,1.714,1.1v2.79h-1.242a4.913,4.913,0,0,0-.874-2.771,2.488,2.488,0,0,0-1.955-.771,2.687,2.687,0,0,0-2.1.736,2.571,2.571,0,0,0-.656,1.771,2.189,2.189,0,0,0,1.058,1.978l4.025,2.576a5.811,5.811,0,0,1,1.8,1.645,3.47,3.47,0,0,1,.54,1.921,3.925,3.925,0,0,1-.575,2.1,3.894,3.894,0,0,1-1.667,1.461,6,6,0,0,1-2.634.53Zm18.86-4.324V0H151.225V-.828h1.84V-14.076h-1.84V-14.9h11.2v4h-.874l-1.219-3.174H155.02V-8.3h3.611v-1.771h1.058v4.416h-1.058V-7.429H155.02v6.6h5.5l1.219-3.22Zm15.64-4q3.22,1.035,3.22,3.818a3.952,3.952,0,0,1-.748,2.415A4.778,4.778,0,0,1,178.79-.276a6,6,0,0,1-2.473.529,4.974,4.974,0,0,1-2.656-.713,5.252,5.252,0,0,1-1.829-1.863l.736-.46a3.694,3.694,0,0,0,1.564,1.541,4.352,4.352,0,0,0,2,.506,3.571,3.571,0,0,0,1.6-.368,2.963,2.963,0,0,0,1.219-1.127,3.42,3.42,0,0,0,.471-1.84,3.264,3.264,0,0,0-.931-2.449,3.18,3.18,0,0,0-2.312-.909H175.6v-.713a3.9,3.9,0,0,0,1.587-.345A3,3,0,0,0,178.48-9.58a3.271,3.271,0,0,0,.506-1.874,3.418,3.418,0,0,0-.644-2.1,2.183,2.183,0,0,0-1.863-.862,2.194,2.194,0,0,0-1.966,1,5.045,5.045,0,0,0-.747,2.5h-1.242v-2.76a4.551,4.551,0,0,1,1.7-1.1,6.13,6.13,0,0,1,2.254-.414,5.569,5.569,0,0,1,2.231.437,3.873,3.873,0,0,1,1.622,1.265,3.207,3.207,0,0,1,.609,1.955q0,2.31-2.69,3.483ZM191.636-14.9a5.9,5.9,0,0,1,4.945,1.99,8.147,8.147,0,0,1,1.564,5.187,10.3,10.3,0,0,1-.678,3.737,6.472,6.472,0,0,1-2.139,2.875A5.907,5.907,0,0,1,191.636,0h-6.992V-.828h1.84V-14.076h-1.84V-14.9Zm0,14.076a3.557,3.557,0,0,0,3.381-2,10.43,10.43,0,0,0,1.058-4.922,8.488,8.488,0,0,0-1.092-4.623,3.7,3.7,0,0,0-3.346-1.7h-3.2V-.828ZM205.321.253A4.291,4.291,0,0,1,202.975-.4a4.3,4.3,0,0,1-1.6-1.851,6.407,6.407,0,0,1-.564-2.76,6.748,6.748,0,0,1,.609-2.921,4.75,4.75,0,0,1,1.7-2,4.464,4.464,0,0,1,2.5-.713,4.333,4.333,0,0,1,2.369.656,4.375,4.375,0,0,1,1.61,1.851,6.3,6.3,0,0,1,.575,2.76,6.588,6.588,0,0,1-.621,2.9,4.879,4.879,0,0,1-1.725,2.012,4.467,4.467,0,0,1-2.507.719Zm.414-.69a2.156,2.156,0,0,0,1.84-1.127,5.887,5.887,0,0,0,.736-3.22,8.655,8.655,0,0,0-.38-2.668,4.379,4.379,0,0,0-1.07-1.84,2.218,2.218,0,0,0-1.587-.667,2.15,2.15,0,0,0-1.886,1.138,5.844,5.844,0,0,0-.713,3.117,8.586,8.586,0,0,0,.391,2.657,4.691,4.691,0,0,0,1.092,1.909,2.178,2.178,0,0,0,1.577.7Zm11.822.69A4.291,4.291,0,0,1,215.211-.4a4.3,4.3,0,0,1-1.6-1.851,6.407,6.407,0,0,1-.564-2.76,6.748,6.748,0,0,1,.609-2.921,4.75,4.75,0,0,1,1.7-2,4.464,4.464,0,0,1,2.5-.713,4.333,4.333,0,0,1,2.369.656,4.375,4.375,0,0,1,1.61,1.851,6.3,6.3,0,0,1,.575,2.76,6.588,6.588,0,0,1-.621,2.9,4.879,4.879,0,0,1-1.725,2.012,4.467,4.467,0,0,1-2.507.719Zm.414-.69a2.156,2.156,0,0,0,1.84-1.127,5.887,5.887,0,0,0,.736-3.22,8.655,8.655,0,0,0-.38-2.668,4.379,4.379,0,0,0-1.07-1.84,2.218,2.218,0,0,0-1.587-.667,2.15,2.15,0,0,0-1.886,1.138,5.844,5.844,0,0,0-.713,3.117,8.586,8.586,0,0,0,.391,2.657,4.691,4.691,0,0,0,1.1,1.909,2.178,2.178,0,0,0,1.571.7Zm12.788-10.212a2.577,2.577,0,0,1,.966.184,1.7,1.7,0,0,1,.69.46v2.047H231.4A1.4,1.4,0,0,0,230.941-9a1.4,1.4,0,0,0-1.082-.357,1.434,1.434,0,0,0-1.265.851,4.035,4.035,0,0,0-.483,2.024v5.8h1.978V0h-5.221V-.69h1.518V-9.706h-1.5v-.667l3.151-.184L228.06-8.9a2.911,2.911,0,0,1,1.116-1.253,2.885,2.885,0,0,1,1.583-.5Z" transform="translate(858 3291)"/>
  </g>
</svg>
