<svg xmlns="http://www.w3.org/2000/svg" xmlns:xlink="http://www.w3.org/1999/xlink" width="650" height="172.44" viewBox="0 0 650 172.44">
  <defs>
    <clipPath id="clip-sec06-txt04">
      <rect width="650" height="172.44"/>
    </clipPath>
  </defs>
  <g id="sec06-txt04" clip-path="url(#clip-sec06-txt04)">
    <g id="情報-1" transform="translate(-0.6 -4119.86)">
      <g id="text" transform="translate(0 3952.405)">
        <g id="price" transform="translate(-141.4 -1948.2)">
          <path id="パス_138" data-name="パス 138" d="M1.712-12.464V1.072H3.12v-6.48H12.9V-.592c0,.624-.272.9-.9.9H9.936V.976h2.816C13.84.976,14.3.512,14.3-.56v-11.9Zm1.408.64H7.232v5.776H3.12Zm5.5,0H12.9v5.776H8.624Z" transform="translate(435.65 2282)" fill="#111"/>
          <path id="パス_136" data-name="パス 136" d="M10.86-10.08A6.941,6.941,0,0,0,8.244-4.56,6.941,6.941,0,0,0,10.86.96h.66a7.108,7.108,0,0,1-2.4-5.508,7.587,7.587,0,0,1,1.236-4.224A5.4,5.4,0,0,1,11.52-10.08Zm5.028,3.768A22.587,22.587,0,0,1,19.32-4.644,9.535,9.535,0,0,1,14.076.1l.132.348a8.8,8.8,0,0,0,6.024-4.5A14.143,14.143,0,0,1,22.7-1.932l.8-.96a12.437,12.437,0,0,0-2.808-2.1,20.194,20.194,0,0,0,1.2-3.78c.216-.072.3-.144.3-.264,0-.1-.072-.168-.2-.2L20.744-9.56l-.048.672a16.421,16.421,0,0,1-1,3.408,15.833,15.833,0,0,0-3.664-1.18Zm21.12,1.464L26.988-5.22v1.26l10.02-.36Zm11.448-1.92A42.223,42.223,0,0,1,48-2.172a5.5,5.5,0,0,1-.36,1.716.751.751,0,0,1-.756.336H45.5V.432h2.064C48.5.444,48.764.132,49-1.2a46.441,46.441,0,0,0,.624-6.12H45.084c.036-.552.06-.984.06-1.512v-.312c.168-.1.24-.18.24-.288a.209.209,0,0,0-.071-.149.209.209,0,0,0-.157-.051L43.9-9.72l.08.72v.18c0,.336-.024.9-.072,1.5H40.74l-.48-.1v.744l.48-.1h3.108A8.366,8.366,0,0,1,39.84.132l.144.288A7.2,7.2,0,0,0,43.6-2.38a9.622,9.622,0,0,0,1.428-4.392Zm14.472,1.92L52.908-5.22v1.26l10.02-.36ZM67.344.072h1V-3.516h2.34V.96h1V-3.516H74.3v2.472c-.012.4-.144.528-.54.54h-.912V0h1.44c.72,0,1.032-.288,1.02-.936V-4H71.676v-.9c.156-.12.192-.156.192-.24,0-.108-.084-.156-.252-.156H70.68V-4H68.052a10.925,10.925,0,0,0,1.74-1.752H75.84l.48.1v-.672l-.48.1H70.164l.024-.036.4-.552c.252-.036.384-.12.384-.24,0-.084-.06-.132-.168-.156L69.8-7.472a6.9,6.9,0,0,1-.768,1.248H65.772l-.48-.1v.672l.48-.1h2.88A14.156,14.156,0,0,1,65.28-2.676l.168.312a9.867,9.867,0,0,0,1.9-1.092ZM66.732-9.42c1.32.312,2.412.624,3.432.972-1.1.42-3.468,1.14-4.416,1.368l.084.348a24.132,24.132,0,0,0,5.4-1.344c.672.24,2.016.816,3.192,1.368L75.1-7.44a26.573,26.573,0,0,0-2.808-1.068c.576-.252,1.008-.444,1.764-.8a2.019,2.019,0,0,0,.24.024c.144,0,.3-.1.3-.192,0-.048-.06-.108-.144-.156l-.84-.444a15.156,15.156,0,0,1-2.436,1.224,21.891,21.891,0,0,0-4.284-.888Zm20.8,3.336c-.144,1.224-.192,1.332-.672,1.344h-.888v.5h1.32c.7-.012.924-.228,1.056-.96a38.6,38.6,0,0,0,.4-4.452h-4.46c-.024,3.42-.42,4.524-1.932,5.436l.2.324a3.5,3.5,0,0,0,2.268-2.2Zm.048-.48H84.96c.06-.3.12-.744.156-1.08h2.556l-.012.18-.012.192-.06.672Zm.132-1.56h-2.56l.012-.036.048-1.008H87.78c-.024.42-.024.516-.048.8ZM81.54-8.76v-.852c.156-.108.192-.156.192-.24,0-.108-.084-.156-.252-.156h-.924V-8.76H78.72l-.48-.1v.672l.48-.1h.432v2.4c.024.768.336.984,1.476.984h2.364v-.84H80.808c-.6-.012-.72-.1-.732-.468V-8.28h3.072l.48.1v-.672l-.48.1Zm2.652,5.568h3.96l.468.1v-.672l-.468.1H79.368l-.468-.1V-3.1l.468-.1H83.2v1.344H80.052l-.48-.1v.672l.48-.1H83.2V.072H78.8l-.48-.1V.648l.48-.1h9.936l.48.1V-.024l-.48.1H84.192v-1.44h3.276l.48.1v-.672l-.48.1H84.192ZM94.464.264V.828h1.7c.8,0,1.14-.336,1.14-1.14V-9.54c.156-.108.192-.156.192-.228,0-.12-.084-.168-.252-.168H96.2V-.384c0,.456-.192.648-.648.648Zm4.3-7.812a28.8,28.8,0,0,1,2.292,6.216L102.24-2a17.644,17.644,0,0,0-3.084-5.772ZM91.512-1.236A13.241,13.241,0,0,0,94.356-7.08c.24-.048.36-.144.36-.3,0-.108-.084-.168-.276-.228l-1.1-.3a22.445,22.445,0,0,1-2.124,6.456ZM105.72-5.16v-.132a1.652,1.652,0,0,0-.024-.384h-.408a3.036,3.036,0,0,1-1.128,1.92l.72.936a2.485,2.485,0,0,0,.816-1.824V-4.68h8.148a4.774,4.774,0,0,1-.708,1.332l.372.228A4.31,4.31,0,0,0,115.2-5.16Zm4.428-3.516v-.948c.156-.108.192-.156.192-.24,0-.108-.084-.156-.252-.156h-.972v1.344H104.8l-.48-.1V-8.1l.48-.1h4.32v1.344h-3.28l-.48-.1v.672l.48-.1h7.68l.48.1v-.672l-.48.1h-3.372V-8.2h4.416l.48.1v-.672l-.48.1ZM104.52.84a5.587,5.587,0,0,0,2.7-.912,3.315,3.315,0,0,0,1.26-3v-.3c.144-.108.192-.156.192-.24,0-.108-.084-.156-.264-.156h-.96V-3.1a3.172,3.172,0,0,1-.984,2.6,4.511,4.511,0,0,1-2.04.984Zm6.036-4.608v3.36c.024.732.372.96,1.548,1h1.68c.84,0,1.188-.324,1.248-1.164l.06-1.02L114.6-1.64l-.06.744c-.048.408-.2.552-.564.552H112.26c-.5-.012-.7-.12-.7-.372V-3.372c.156-.108.192-.156.192-.24,0-.12-.084-.156-.336-.156ZM122.76-6.7h-2.052V.828h.888V.06h5.076V.744h.924V-6.7h-2.1V-9.04h2.184l.48.1v-.672l-.48.1h-6.744l-.468-.1v.672l.468-.1h1.824Zm.828-2.34h1.08V-6.7h-1.08Zm0,2.82h1.08v5.8h-1.08Zm-.828,5.8H121.6v-5.8h1.164Zm2.736-5.8h1.176v5.8H125.5ZM119.448-7.4c.252-.708.36-1.044.636-1.932.192-.036.288-.12.288-.24,0-.1-.084-.168-.2-.2l-1.008-.3a28.442,28.442,0,0,1-2.04,6.516l.252.192a13,13,0,0,0,1.14-1.848v6.1h.936ZM133.62-2.772a11.55,11.55,0,0,0,3.888-2.28,11.591,11.591,0,0,0,3.156,1.992A3.976,3.976,0,0,1,141.12-4a12.418,12.418,0,0,1-3.048-1.62,12.4,12.4,0,0,0,2.22-3.18h-3.9l.012-.036c.132-.252.144-.276.3-.612.228-.084.324-.156.324-.24a.224.224,0,0,0-.12-.168l-1.02-.228a11.161,11.161,0,0,1-.864,2.2,11.092,11.092,0,0,1-1.14,1.836l.24.228a8.152,8.152,0,0,0,1.716-2,5.445,5.445,0,0,0,1.1,2.184,13.169,13.169,0,0,1-3.44,2.564Zm2.52-5.544h2.88a14.543,14.543,0,0,1-1.6,2.172,4.517,4.517,0,0,1-1.332-2.1Zm-4.248,9.2h.924V-5.484a8.092,8.092,0,0,1,.852,1.824l.744-.648a4.244,4.244,0,0,0-1.6-1.524V-7.08h.876l.48.1v-.672l-.48.1h-.876v-2.06c.144-.108.192-.156.192-.24,0-.108-.084-.156-.252-.156h-.864V-7.56h-1.26l-.48-.1v.672l.48-.1h1.152a20.078,20.078,0,0,1-1.7,5.052l.264.18a11.81,11.81,0,0,0,1.548-2.832ZM139.98.816V-3.216h-5.028v4.1h.948V.312h3.12v.5ZM135.9-.168V-2.736h3.12V-.168Zm7.14-9.912a7.145,7.145,0,0,1,2.4,5.532A7.126,7.126,0,0,1,143.04.96h.648a6.9,6.9,0,0,0,2.628-5.52,6.9,6.9,0,0,0-2.628-5.52Z" transform="translate(133.756 2282)" fill="#111"/>
          <g id="グループ_897" data-name="グループ 897" transform="translate(-7)">
            <path id="パス_137" data-name="パス 137" d="M142.663-18.194l1.865-.682-.531-.91-1.517,1.274.349-1.956h-1.062l.349,1.956L140.6-19.783l-.531.91,1.865.682-1.865.682.531.91,1.517-1.274-.349,1.941h1.062l-.349-1.941L144-16.6l.531-.91Zm5.994.09a2.534,2.534,0,0,0-.681.093,2.623,2.623,0,0,0-.629.267,2.878,2.878,0,0,0-.548.418,2.873,2.873,0,0,0-.437.541L145.8-17.1a3.65,3.65,0,0,1,1.281-1.248,3.239,3.239,0,0,1,1.607-.418,3.929,3.929,0,0,1,1.111.163,3.2,3.2,0,0,1,1,.492,2.533,2.533,0,0,1,.726.837,2.453,2.453,0,0,1,.278,1.2,2.542,2.542,0,0,1-.241,1.111,4.824,4.824,0,0,1-.629.977,11.218,11.218,0,0,1-.892.959q-.5.485-1.022,1.063l-1.644,1.785h4.539V-9H146v-.5l2.747-3.118q.341-.392.655-.822a7.8,7.8,0,0,0,.555-.87,5.307,5.307,0,0,0,.385-.878,2.685,2.685,0,0,0,.144-.844,2.541,2.541,0,0,0-.13-.829,1.918,1.918,0,0,0-.37-.652,1.718,1.718,0,0,0-.578-.43,1.773,1.773,0,0,0-.751-.157Z" transform="translate(288.447 2284)" fill="#111"/>
            <path id="パス_110" data-name="パス 110" d="M9.152-13.184a6.7,6.7,0,0,1,3.12.752,5.776,5.776,0,0,1,2.336,2.224,6.671,6.671,0,0,1,.88,3.488,7.324,7.324,0,0,1-.912,3.664A6.527,6.527,0,0,1,12.1-.544a6.843,6.843,0,0,1-3.456.9A6.145,6.145,0,0,1,4.832-.88a7.772,7.772,0,0,1-2.512-3.5A14.666,14.666,0,0,1,1.44-9.7a15.568,15.568,0,0,1,1.088-6.032,9.665,9.665,0,0,1,2.9-4.016,6.251,6.251,0,0,1,3.92-1.408,5.906,5.906,0,0,1,2.992.8A7.2,7.2,0,0,1,14.72-18.08l-.96.8a6.76,6.76,0,0,0-1.936-1.92,4.3,4.3,0,0,0-2.352-.7,4.092,4.092,0,0,0-3.728,2.512,15.55,15.55,0,0,0-1.488,6.64,6.467,6.467,0,0,1,2-1.728A5.738,5.738,0,0,1,9.152-13.184ZM9.184-.672A2.9,2.9,0,0,0,11.856-2.16a7.576,7.576,0,0,0,.88-3.888,6.943,6.943,0,0,0-1.216-4.464A3.741,3.741,0,0,0,8.512-12a3.705,3.705,0,0,0-2.7,1.088A5.475,5.475,0,0,0,4.32-8.32,11.529,11.529,0,0,0,5.856-2.64,3.89,3.89,0,0,0,9.184-.672ZM20.128-3.264a1.852,1.852,0,0,1,1.424.656,2.65,2.65,0,0,1,.592,1.84,4.811,4.811,0,0,1-.9,2.88A6.243,6.243,0,0,1,18.816,4.1l-.48-.768a4.666,4.666,0,0,0,1.456-1.2A2.494,2.494,0,0,0,20.48.544a.971.971,0,0,0-.032-.288,1.988,1.988,0,0,1-.384.032,1.688,1.688,0,0,1-1.3-.5A1.777,1.777,0,0,1,18.3-1.472a1.71,1.71,0,0,1,.528-1.28A1.791,1.791,0,0,1,20.128-3.264ZM38.5-2.5V0H25.92V-1.12q4.064-4.416,5.936-6.672a20.282,20.282,0,0,0,2.688-3.952A8.1,8.1,0,0,0,35.36-15.3a5.261,5.261,0,0,0-1.04-3.536,3.375,3.375,0,0,0-2.672-1.2,3.16,3.16,0,0,0-2.784,1.408,6.766,6.766,0,0,0-1.088,3.456H26.048v-3.84a5.984,5.984,0,0,1,2.4-1.536,9.128,9.128,0,0,1,3.232-.576,8.482,8.482,0,0,1,3.088.576,5.532,5.532,0,0,1,2.464,1.872,5.355,5.355,0,0,1,.976,3.312,5.916,5.916,0,0,1-.768,2.9A18.421,18.421,0,0,1,34.9-9.136Q33.12-7.2,28.48-2.5ZM48.8.352A5.936,5.936,0,0,1,44.96-.992a8.589,8.589,0,0,1-2.576-3.792,16.025,16.025,0,0,1-.912-5.616,15.891,15.891,0,0,1,.912-5.6,8.533,8.533,0,0,1,2.592-3.776,6,6,0,0,1,3.856-1.344,6.045,6.045,0,0,1,3.856,1.328,8.419,8.419,0,0,1,2.592,3.76,15.891,15.891,0,0,1,.912,5.6,15.775,15.775,0,0,1-.928,5.616,8.756,8.756,0,0,1-2.608,3.808A5.956,5.956,0,0,1,48.8.352Zm.032-1.024q2.176,0,3.328-2.5A17.843,17.843,0,0,0,53.312-10.4a17.742,17.742,0,0,0-1.152-7.2q-1.152-2.5-3.328-2.5T45.5-17.6a17.742,17.742,0,0,0-1.152,7.2A17.843,17.843,0,0,0,45.5-3.168Q46.656-.672,48.832-.672ZM65.568.352a5.936,5.936,0,0,1-3.84-1.344,8.589,8.589,0,0,1-2.576-3.792A16.025,16.025,0,0,1,58.24-10.4a15.891,15.891,0,0,1,.912-5.6,8.533,8.533,0,0,1,2.592-3.776A6,6,0,0,1,65.6-21.12a6.045,6.045,0,0,1,3.856,1.328,8.419,8.419,0,0,1,2.592,3.76,15.891,15.891,0,0,1,.912,5.6,15.775,15.775,0,0,1-.928,5.616,8.756,8.756,0,0,1-2.608,3.808A5.956,5.956,0,0,1,65.568.352ZM65.6-.672q2.176,0,3.328-2.5A17.843,17.843,0,0,0,70.08-10.4a17.742,17.742,0,0,0-1.152-7.2q-1.152-2.5-3.328-2.5t-3.328,2.5a17.742,17.742,0,0,0-1.152,7.2,17.843,17.843,0,0,0,1.152,7.232Q63.424-.672,65.6-.672ZM77.344-3.264a1.852,1.852,0,0,1,1.424.656,2.65,2.65,0,0,1,.592,1.84,4.811,4.811,0,0,1-.9,2.88A6.243,6.243,0,0,1,76.032,4.1l-.48-.768a4.666,4.666,0,0,0,1.456-1.2A2.494,2.494,0,0,0,77.7.544a.971.971,0,0,0-.032-.288,1.988,1.988,0,0,1-.384.032,1.688,1.688,0,0,1-1.3-.5,1.777,1.777,0,0,1-.464-1.264,1.71,1.71,0,0,1,.528-1.28A1.791,1.791,0,0,1,77.344-3.264ZM89.248.352a5.936,5.936,0,0,1-3.84-1.344,8.589,8.589,0,0,1-2.576-3.792A16.025,16.025,0,0,1,81.92-10.4a15.891,15.891,0,0,1,.912-5.6,8.533,8.533,0,0,1,2.592-3.776A6,6,0,0,1,89.28-21.12a6.045,6.045,0,0,1,3.856,1.328,8.419,8.419,0,0,1,2.592,3.76,15.891,15.891,0,0,1,.912,5.6,15.775,15.775,0,0,1-.928,5.616A8.756,8.756,0,0,1,93.1-1.008,5.956,5.956,0,0,1,89.248.352ZM89.28-.672q2.176,0,3.328-2.5A17.843,17.843,0,0,0,93.76-10.4a17.742,17.742,0,0,0-1.152-7.2q-1.152-2.5-3.328-2.5t-3.328,2.5A17.742,17.742,0,0,0,84.8-10.4a17.843,17.843,0,0,0,1.152,7.232Q87.1-.672,89.28-.672ZM106.016.352a5.936,5.936,0,0,1-3.84-1.344A8.589,8.589,0,0,1,99.6-4.784a16.025,16.025,0,0,1-.912-5.616A15.891,15.891,0,0,1,99.6-16a8.533,8.533,0,0,1,2.592-3.776,6,6,0,0,1,3.856-1.344,6.045,6.045,0,0,1,3.856,1.328,8.419,8.419,0,0,1,2.592,3.76,15.891,15.891,0,0,1,.912,5.6,15.775,15.775,0,0,1-.928,5.616,8.756,8.756,0,0,1-2.608,3.808A5.956,5.956,0,0,1,106.016.352Zm.032-1.024q2.176,0,3.328-2.5a17.843,17.843,0,0,0,1.152-7.232,17.742,17.742,0,0,0-1.152-7.2q-1.152-2.5-3.328-2.5t-3.328,2.5a17.742,17.742,0,0,0-1.152,7.2,17.843,17.843,0,0,0,1.152,7.232Q103.872-.672,106.048-.672ZM122.784.352a5.936,5.936,0,0,1-3.84-1.344,8.589,8.589,0,0,1-2.576-3.792,16.025,16.025,0,0,1-.912-5.616,15.891,15.891,0,0,1,.912-5.6,8.533,8.533,0,0,1,2.592-3.776,6,6,0,0,1,3.856-1.344,6.045,6.045,0,0,1,3.856,1.328,8.419,8.419,0,0,1,2.592,3.76,15.891,15.891,0,0,1,.912,5.6,15.775,15.775,0,0,1-.928,5.616,8.756,8.756,0,0,1-2.608,3.808A5.956,5.956,0,0,1,122.784.352Zm.032-1.024q2.176,0,3.328-2.5A17.843,17.843,0,0,0,127.3-10.4a17.742,17.742,0,0,0-1.152-7.2q-1.152-2.5-3.328-2.5t-3.328,2.5a17.742,17.742,0,0,0-1.152,7.2,17.843,17.843,0,0,0,1.152,7.232Q120.64-.672,122.816-.672Z" transform="translate(295.406 2284.375)" fill="#111"/>
          </g>
        </g>
        <path id="パス_111" data-name="パス 111" d="M7.92-11.895c.255-.09.36-.2.36-.33,0-.12-.1-.21-.3-.225L6.7-12.6A15.507,15.507,0,0,1,4.47-9.51,21.606,21.606,0,0,1,.6-6.195l.2.39a16.022,16.022,0,0,0,6.795-5.61l.06.09A13.151,13.151,0,0,0,13.74-6.09a8.12,8.12,0,0,1,.66-1.365A14.146,14.146,0,0,1,10.17-9.72a13.472,13.472,0,0,1-2.28-2.13ZM8.085-6.21h3.24l.6.12v-.84l-.6.12H3.675l-.6-.12v.84l.6-.12H6.8v2.625H3.51L2.925-3.7v.84l.585-.12H6.8V.045H1.935l-.6-.12v.84l.6-.12h11.3l.6.12v-.84l-.6.12H8.085v-3.03h3.4l.585.12V-3.7l-.585.12h-3.4ZM28.8-4.71l.6.12v-.84l-.6.12H19.2V-6.975H26.9l.6.12V-7.7l-.6.12H19.2V-9.15H26.9l.6.12v-.84l-.6.12H19.2V-11.3h8.28l.6.12v-.84l-.6.12H17.94V-5.31H16.2l-.6-.12v.84l.6-.12h1.74V-.57c-.7.09-1.11.135-2.265.225l.51,1.23c.105.24.165.315.285.315.165,0,.24-.09.33-.36A40.224,40.224,0,0,0,24.09-1.1l.075-.015A9.183,9.183,0,0,0,28.68,1.2,7.269,7.269,0,0,1,29.4-.15a10.684,10.684,0,0,1-4.395-1.635,19.2,19.2,0,0,0,2.85-1.335l.3.015c.21,0,.375-.12.375-.27,0-.06-.06-.15-.18-.225l-1.125-.75A17.559,17.559,0,0,1,24.57-2.115,6.393,6.393,0,0,1,22.6-4.71Zm-6.84,0a8.005,8.005,0,0,0,1.815,3.195l-.135.03c-1.065.24-2.16.42-4.44.75V-4.71Zm12.825-.54a2.55,2.55,0,0,1,2.1,2.49A2.577,2.577,0,0,1,36.4-1.185,3.116,3.116,0,0,1,35.138-.18a3.912,3.912,0,0,1-1.612.345A3.244,3.244,0,0,1,31.792-.3,3.425,3.425,0,0,1,30.6-1.515l.48-.3a2.409,2.409,0,0,0,1.02,1A2.838,2.838,0,0,0,33.4-.48a2.329,2.329,0,0,0,1.042-.24,1.932,1.932,0,0,0,.8-.735,2.23,2.23,0,0,0,.307-1.2,2.129,2.129,0,0,0-.607-1.6,2.074,2.074,0,0,0-1.507-.593H33.06V-5.31A2.542,2.542,0,0,0,34.1-5.535a1.955,1.955,0,0,0,.84-.713,2.133,2.133,0,0,0,.33-1.222,2.229,2.229,0,0,0-.42-1.372A1.424,1.424,0,0,0,33.63-9.4a1.431,1.431,0,0,0-1.283.652,3.291,3.291,0,0,0-.487,1.628h-.81v-1.8a2.968,2.968,0,0,1,1.11-.72,4,4,0,0,1,1.47-.27,3.632,3.632,0,0,1,1.455.285,2.526,2.526,0,0,1,1.058.825,2.092,2.092,0,0,1,.4,1.275A2.458,2.458,0,0,1,34.785-5.25Zm4.65,3.72a.868.868,0,0,1,.667.308,1.242,1.242,0,0,1,.278.862A2.255,2.255,0,0,1,39.96.99a2.926,2.926,0,0,1-1.14.93L38.6,1.56A2.187,2.187,0,0,0,39.278,1,1.169,1.169,0,0,0,39.6.255.455.455,0,0,0,39.585.12a.932.932,0,0,1-.18.015A.791.791,0,0,1,38.8-.1.833.833,0,0,1,38.58-.69a.8.8,0,0,1,.247-.6A.839.839,0,0,1,39.435-1.53ZM46.41-5.19a2.869,2.869,0,0,1,1.417.9,2.461,2.461,0,0,1,.548,1.65,2.507,2.507,0,0,1-.48,1.552,2.855,2.855,0,0,1-1.252.945,4.36,4.36,0,0,1-1.627.307A4.2,4.2,0,0,1,43.387-.15a2.894,2.894,0,0,1-1.23-.945,2.5,2.5,0,0,1-.472-1.545,2.461,2.461,0,0,1,.548-1.65,2.869,2.869,0,0,1,1.417-.9,2.514,2.514,0,0,1-1.125-.8A2.219,2.219,0,0,1,42.03-7.47a2.14,2.14,0,0,1,.42-1.343,2.585,2.585,0,0,1,1.1-.825,3.885,3.885,0,0,1,1.478-.278,3.939,3.939,0,0,1,1.463.27,2.558,2.558,0,0,1,1.11.825,2.146,2.146,0,0,1,.428,1.35,2.219,2.219,0,0,1-.495,1.485A2.514,2.514,0,0,1,46.41-5.19ZM45.03-9.42a1.647,1.647,0,0,0-1.268.548,2.078,2.078,0,0,0-.5,1.462,2.078,2.078,0,0,0,.5,1.463A1.647,1.647,0,0,0,45.03-5.4a1.641,1.641,0,0,0,1.275-.547A2.1,2.1,0,0,0,46.8-7.41a2.078,2.078,0,0,0-.5-1.462A1.647,1.647,0,0,0,45.03-9.42Zm0,9.105a1.907,1.907,0,0,0,1.455-.608,2.392,2.392,0,0,0,.57-1.7A2.48,2.48,0,0,0,46.53-4.29a1.864,1.864,0,0,0-1.5-.615,1.864,1.864,0,0,0-1.5.615A2.48,2.48,0,0,0,43-2.625a2.392,2.392,0,0,0,.57,1.7A1.907,1.907,0,0,0,45.03-.315ZM53.25-6.18a3.141,3.141,0,0,1,1.462.352,2.708,2.708,0,0,1,1.1,1.043A3.127,3.127,0,0,1,56.22-3.15a3.433,3.433,0,0,1-.427,1.717A3.059,3.059,0,0,1,54.63-.255a3.208,3.208,0,0,1-1.62.42,2.88,2.88,0,0,1-1.785-.577,3.643,3.643,0,0,1-1.177-1.642,6.874,6.874,0,0,1-.413-2.49,7.3,7.3,0,0,1,.51-2.827A4.53,4.53,0,0,1,51.5-9.255a2.93,2.93,0,0,1,1.838-.66,2.768,2.768,0,0,1,1.4.375A3.376,3.376,0,0,1,55.86-8.475l-.45.375A3.169,3.169,0,0,0,54.5-9a2.015,2.015,0,0,0-1.1-.33,1.918,1.918,0,0,0-1.747,1.177,7.289,7.289,0,0,0-.7,3.113,3.031,3.031,0,0,1,.938-.81A2.69,2.69,0,0,1,53.25-6.18Zm.015,5.865a1.359,1.359,0,0,0,1.252-.7,3.551,3.551,0,0,0,.413-1.822,3.255,3.255,0,0,0-.57-2.093,1.753,1.753,0,0,0-1.41-.7,1.737,1.737,0,0,0-1.268.51,2.566,2.566,0,0,0-.7,1.215,5.4,5.4,0,0,0,.72,2.662A1.824,1.824,0,0,0,53.265-.315Zm7.47.48a2.783,2.783,0,0,1-1.8-.63,4.026,4.026,0,0,1-1.208-1.778A7.512,7.512,0,0,1,57.3-4.875,7.449,7.449,0,0,1,57.728-7.5a4,4,0,0,1,1.215-1.77A2.812,2.812,0,0,1,60.75-9.9a2.834,2.834,0,0,1,1.807.623,3.947,3.947,0,0,1,1.215,1.763A7.449,7.449,0,0,1,64.2-4.89a7.4,7.4,0,0,1-.435,2.632A4.1,4.1,0,0,1,62.542-.472,2.792,2.792,0,0,1,60.735.165Zm.015-.48a1.7,1.7,0,0,0,1.56-1.17,8.364,8.364,0,0,0,.54-3.39,8.316,8.316,0,0,0-.54-3.375,1.7,1.7,0,0,0-1.56-1.17,1.7,1.7,0,0,0-1.56,1.17,8.317,8.317,0,0,0-.54,3.375,8.364,8.364,0,0,0,.54,3.39A1.7,1.7,0,0,0,60.75-.315Zm15-.135V0H72.885V-.45h.765V-4.77a2.22,2.22,0,0,0-.285-1.253.985.985,0,0,0-.87-.412,1.376,1.376,0,0,0-1.073.48A1.759,1.759,0,0,0,71-4.74V-.45h.855V0H69.015V-.45h.855V-4.77a2.22,2.22,0,0,0-.285-1.253.985.985,0,0,0-.87-.412,1.392,1.392,0,0,0-1.087.48A1.759,1.759,0,0,0,67.2-4.74V-.45H68V0h-2.91V-.45h.99V-6.33h-.96v-.435l2.055-.12.03.7A2.122,2.122,0,0,1,69-6.945a2.213,2.213,0,0,1,1.08.263,1.624,1.624,0,0,1,.705.727,1.9,1.9,0,0,1,.78-.735,2.455,2.455,0,0,1,1.14-.255q2.07,0,2.07,2.34V-.45Zm11.325,0V0H84.21V-.45h.765V-4.77a2.22,2.22,0,0,0-.285-1.253.985.985,0,0,0-.87-.412,1.376,1.376,0,0,0-1.073.48A1.759,1.759,0,0,0,82.32-4.74V-.45h.855V0H80.34V-.45h.855V-4.77a2.22,2.22,0,0,0-.285-1.253.985.985,0,0,0-.87-.412,1.392,1.392,0,0,0-1.087.48,1.759,1.759,0,0,0-.428,1.215V-.45h.8V0H76.41V-.45h.99V-6.33h-.96v-.435l2.055-.12.03.7a2.122,2.122,0,0,1,1.8-.765,2.213,2.213,0,0,1,1.08.263,1.624,1.624,0,0,1,.705.727,1.9,1.9,0,0,1,.78-.735,2.455,2.455,0,0,1,1.14-.255q2.07,0,2.07,2.34V-.45ZM92.4.12a9.019,9.019,0,0,0-4.185-2.865l-.285.36A13.388,13.388,0,0,1,91.17,1.2Zm17.85-12.015c.255-.09.36-.2.36-.33,0-.12-.1-.21-.3-.225l-1.275-.15A15.507,15.507,0,0,1,106.8-9.51a21.606,21.606,0,0,1-3.87,3.315l.195.39a16.022,16.022,0,0,0,6.795-5.61l.06.09a13.151,13.151,0,0,0,6.09,5.235,8.12,8.12,0,0,1,.66-1.365A14.146,14.146,0,0,1,112.5-9.72a13.472,13.472,0,0,1-2.28-2.13Zm.165,5.685h3.24l.6.12v-.84l-.6.12h-7.65l-.6-.12v.84l.6-.12h3.12v2.625H105.84l-.585-.12v.84l.585-.12h3.285V.045h-4.86l-.6-.12v.84l.6-.12h11.3l.6.12v-.84l-.6.12h-5.145v-3.03h3.4l.585.12V-3.7l-.585.12h-3.4Zm10.89-3.57h.975v6.735c0,.285-.09.36-.36.375h-.435v.6h.765c.72,0,1.02-.3,1.02-.99v-7.275h-1.965v-1.68c.195-.135.24-.195.24-.3,0-.135-.1-.2-.315-.2h-.915v2.175h-1.89V-1.98h.99v-7.8h.9V1.11h.99Zm9.9,4.335h-7.23V1.11h1.1V.375h5.01V1h1.125Zm-1.125,3.12v2.1h-2.01v-2.1Zm0-.6h-2.01v-1.92h2.01Zm-3.09-1.92v1.92h-1.92v-1.92Zm-1.92,4.62v-2.1h1.92v2.1Zm5.535-6.6v-3.27h-6.15v3.27Zm-1.155-.6h-3.87v-2.07h3.87Zm-5.43-3.945h7.11l.6.12v-.84l-.6.12h-7.11l-.6-.12v.84ZM138.495-.54V0h-4.2V-.54h1.545V-8.535l-1.485.96-.315-.48,2.475-1.665h.51V-.54Zm3.27-.99a.868.868,0,0,1,.667.308,1.242,1.242,0,0,1,.278.862,2.255,2.255,0,0,1-.42,1.35,2.926,2.926,0,0,1-1.14.93l-.225-.36A2.187,2.187,0,0,0,141.607,1a1.169,1.169,0,0,0,.323-.742.455.455,0,0,0-.015-.135.932.932,0,0,1-.18.015.791.791,0,0,1-.607-.232.833.833,0,0,1-.217-.592.8.8,0,0,1,.247-.6A.839.839,0,0,1,141.765-1.53Zm8.16-8.19v.525L145.74,0h-.705l3.96-8.565h-4.2L144.27-7.11h-.525V-9.72ZM154.5-6.315a3.141,3.141,0,0,1,1.462.352,2.779,2.779,0,0,1,1.11,1.058,3.179,3.179,0,0,1,.428,1.68,3.351,3.351,0,0,1-.5,1.86,3.2,3.2,0,0,1-1.253,1.148,3.437,3.437,0,0,1-1.567.382,3.448,3.448,0,0,1-1.755-.45,3.191,3.191,0,0,1-1.215-1.23l.48-.3a2.586,2.586,0,0,0,.99,1,2.742,2.742,0,0,0,1.365.345,1.945,1.945,0,0,0,1.058-.307,2.2,2.2,0,0,0,.787-.908,3.153,3.153,0,0,0,.3-1.425,3.012,3.012,0,0,0-.3-1.4,2.02,2.02,0,0,0-.787-.855,2.1,2.1,0,0,0-1.058-.278,1.718,1.718,0,0,0-.9.225,2.8,2.8,0,0,0-.675.57h-.585l.36-4.875h4.77v1.2h-4.3l-.21,2.91a2.646,2.646,0,0,1,.863-.51A3.187,3.187,0,0,1,154.5-6.315Zm7.86,0a3.141,3.141,0,0,1,1.462.352,2.779,2.779,0,0,1,1.11,1.058,3.179,3.179,0,0,1,.428,1.68,3.351,3.351,0,0,1-.5,1.86,3.2,3.2,0,0,1-1.253,1.148,3.437,3.437,0,0,1-1.567.382,3.448,3.448,0,0,1-1.755-.45,3.191,3.191,0,0,1-1.215-1.23l.48-.3a2.586,2.586,0,0,0,.99,1,2.742,2.742,0,0,0,1.365.345,1.945,1.945,0,0,0,1.058-.307,2.2,2.2,0,0,0,.787-.908,3.153,3.153,0,0,0,.3-1.425,3.012,3.012,0,0,0-.3-1.4,2.02,2.02,0,0,0-.787-.855,2.1,2.1,0,0,0-1.058-.278,1.718,1.718,0,0,0-.9.225,2.8,2.8,0,0,0-.675.57h-.585l.36-4.875h4.77v1.2h-4.3l-.21,2.91a2.646,2.646,0,0,1,.863-.51A3.187,3.187,0,0,1,162.36-6.315ZM177.33-.45V0h-2.865V-.45h.765V-4.77a2.22,2.22,0,0,0-.285-1.253.985.985,0,0,0-.87-.412,1.376,1.376,0,0,0-1.073.48,1.759,1.759,0,0,0-.427,1.215V-.45h.855V0H170.6V-.45h.855V-4.77a2.22,2.22,0,0,0-.285-1.253.985.985,0,0,0-.87-.412,1.392,1.392,0,0,0-1.088.48,1.759,1.759,0,0,0-.427,1.215V-.45h.795V0h-2.91V-.45h.99V-6.33h-.96v-.435l2.055-.12.03.7a2.122,2.122,0,0,1,1.8-.765,2.213,2.213,0,0,1,1.08.263,1.624,1.624,0,0,1,.705.727,1.9,1.9,0,0,1,.78-.735,2.455,2.455,0,0,1,1.14-.255q2.07,0,2.07,2.34V-.45Zm11.325,0V0H185.79V-.45h.765V-4.77a2.22,2.22,0,0,0-.285-1.253.985.985,0,0,0-.87-.412,1.376,1.376,0,0,0-1.073.48A1.759,1.759,0,0,0,183.9-4.74V-.45h.855V0H181.92V-.45h.855V-4.77a2.22,2.22,0,0,0-.285-1.253.985.985,0,0,0-.87-.412,1.392,1.392,0,0,0-1.088.48,1.759,1.759,0,0,0-.427,1.215V-.45h.795V0h-2.91V-.45h.99V-6.33h-.96v-.435l2.055-.12.03.7a2.122,2.122,0,0,1,1.8-.765,2.213,2.213,0,0,1,1.08.263,1.624,1.624,0,0,1,.705.727,1.9,1.9,0,0,1,.78-.735,2.455,2.455,0,0,1,1.14-.255q2.07,0,2.07,2.34V-.45Zm5.325.57a9.019,9.019,0,0,0-4.185-2.865l-.285.36A13.388,13.388,0,0,1,192.75,1.2Zm17.85-12.015c.255-.09.36-.2.36-.33,0-.12-.1-.21-.3-.225l-1.275-.15a15.507,15.507,0,0,1-2.235,3.09,21.607,21.607,0,0,1-3.87,3.315l.195.39a16.022,16.022,0,0,0,6.795-5.61l.06.09a13.151,13.151,0,0,0,6.09,5.235,8.119,8.119,0,0,1,.66-1.365,14.146,14.146,0,0,1-4.23-2.265,13.472,13.472,0,0,1-2.28-2.13ZM212-6.21h3.24l.6.12v-.84l-.6.12h-7.65l-.6-.12v.84l.6-.12h3.12v2.625H207.42l-.585-.12v.84l.585-.12h3.285V.045h-4.86l-.6-.12v.84l.6-.12H217.14l.6.12v-.84l-.6.12H212v-3.03h3.4l.585.12V-3.7l-.585.12H212Zm13.665-4.815H220.2l-.6-.12v.84l.6-.12h12.405l.6.12v-.84l-.6.12h-5.58V-12.09c.195-.15.24-.21.24-.3,0-.15-.1-.21-.315-.21h-1.29Zm6.915,5.67H220.23V1.11h1.245V-4.755h9.855v4.53c-.015.465-.165.615-.63.63h-1.275v.63h1.845c.915,0,1.32-.375,1.3-1.245Zm-9.57,1.71V0h1.185V-.69h5.355V-3.645ZM224.19-1.29V-3.045h4.185V-1.29Zm6.585-5.2V-9.33H222.03v2.835Zm-7.5-.6V-8.73h6.255v1.635Zm16.8,6.555V0h-4.2V-.54h1.545V-8.535l-1.485.96-.315-.48L238.1-9.72h.51V-.54Zm3.27-.99a.868.868,0,0,1,.667.308,1.242,1.242,0,0,1,.278.862,2.255,2.255,0,0,1-.42,1.35,2.926,2.926,0,0,1-1.14.93l-.225-.36A2.187,2.187,0,0,0,243.188,1a1.169,1.169,0,0,0,.323-.742A.455.455,0,0,0,243.5.12a.932.932,0,0,1-.18.015.791.791,0,0,1-.607-.232.833.833,0,0,1-.217-.592.8.8,0,0,1,.247-.6A.839.839,0,0,1,243.345-1.53Zm9.15-.675h-1.65V0H249.66V-2.2h-4.2V-2.79l3.84-6.93h1.545v6.5h1.65Zm-2.835-1.02V-8.91h-.195L246.4-3.225Zm7.5-2.955a3.141,3.141,0,0,1,1.462.352,2.708,2.708,0,0,1,1.1,1.043,3.127,3.127,0,0,1,.413,1.635,3.433,3.433,0,0,1-.428,1.717A3.059,3.059,0,0,1,258.54-.255a3.208,3.208,0,0,1-1.62.42,2.88,2.88,0,0,1-1.785-.577,3.643,3.643,0,0,1-1.178-1.642,6.875,6.875,0,0,1-.412-2.49,7.3,7.3,0,0,1,.51-2.827,4.53,4.53,0,0,1,1.357-1.883,2.93,2.93,0,0,1,1.838-.66,2.768,2.768,0,0,1,1.4.375,3.376,3.376,0,0,1,1.117,1.065l-.45.375a3.169,3.169,0,0,0-.908-.9,2.015,2.015,0,0,0-1.1-.33,1.918,1.918,0,0,0-1.747,1.177,7.289,7.289,0,0,0-.7,3.113,3.032,3.032,0,0,1,.938-.81A2.69,2.69,0,0,1,257.16-6.18Zm.015,5.865a1.359,1.359,0,0,0,1.253-.7,3.551,3.551,0,0,0,.413-1.822,3.255,3.255,0,0,0-.57-2.093,1.753,1.753,0,0,0-1.41-.7,1.737,1.737,0,0,0-1.267.51,2.567,2.567,0,0,0-.7,1.215,5.4,5.4,0,0,0,.72,2.662A1.823,1.823,0,0,0,257.175-.315Zm7.47.48a2.783,2.783,0,0,1-1.8-.63,4.026,4.026,0,0,1-1.207-1.778,7.512,7.512,0,0,1-.427-2.632,7.449,7.449,0,0,1,.427-2.625,4,4,0,0,1,1.215-1.77,2.812,2.812,0,0,1,1.807-.63,2.834,2.834,0,0,1,1.807.623,3.947,3.947,0,0,1,1.215,1.763,7.449,7.449,0,0,1,.427,2.625,7.394,7.394,0,0,1-.435,2.632,4.1,4.1,0,0,1-1.223,1.785A2.792,2.792,0,0,1,264.645.165Zm.015-.48a1.7,1.7,0,0,0,1.56-1.17,8.364,8.364,0,0,0,.54-3.39,8.316,8.316,0,0,0-.54-3.375,1.7,1.7,0,0,0-1.56-1.17,1.7,1.7,0,0,0-1.56,1.17,8.316,8.316,0,0,0-.54,3.375,8.364,8.364,0,0,0,.54,3.39A1.7,1.7,0,0,0,264.66-.315Zm15-.135V0h-2.865V-.45h.765V-4.77a2.22,2.22,0,0,0-.285-1.253.985.985,0,0,0-.87-.412,1.376,1.376,0,0,0-1.073.48A1.759,1.759,0,0,0,274.9-4.74V-.45h.855V0h-2.835V-.45h.855V-4.77a2.22,2.22,0,0,0-.285-1.253.985.985,0,0,0-.87-.412,1.392,1.392,0,0,0-1.087.48,1.759,1.759,0,0,0-.428,1.215V-.45h.8V0h-2.91V-.45h.99V-6.33h-.96v-.435l2.055-.12.03.7a2.122,2.122,0,0,1,1.8-.765,2.213,2.213,0,0,1,1.08.263,1.624,1.624,0,0,1,.705.727,1.9,1.9,0,0,1,.78-.735,2.455,2.455,0,0,1,1.14-.255q2.07,0,2.07,2.34V-.45Zm11.325,0V0H288.12V-.45h.765V-4.77a2.22,2.22,0,0,0-.285-1.253.985.985,0,0,0-.87-.412,1.376,1.376,0,0,0-1.073.48,1.759,1.759,0,0,0-.427,1.215V-.45h.855V0H284.25V-.45h.855V-4.77a2.22,2.22,0,0,0-.285-1.253.985.985,0,0,0-.87-.412,1.392,1.392,0,0,0-1.087.48,1.759,1.759,0,0,0-.428,1.215V-.45h.8V0h-2.91V-.45h.99V-6.33h-.96v-.435l2.055-.12.03.7a2.122,2.122,0,0,1,1.8-.765,2.213,2.213,0,0,1,1.08.263,1.624,1.624,0,0,1,.705.727,1.9,1.9,0,0,1,.78-.735,2.455,2.455,0,0,1,1.14-.255q2.07,0,2.07,2.34V-.45Zm5.325.57a9.019,9.019,0,0,0-4.185-2.865l-.285.36A13.388,13.388,0,0,1,295.08,1.2Zm18.21-8.7h4.71l.66.135V-9.4l-.66.135h-4.71V-11.4c.21-.15.3-.255.3-.39a.27.27,0,0,0-.285-.255l-1.515-.1.135.9v1.98h-4.8l-.66-.135v.96l.66-.135h4.8V-.885c0,.51-.225.735-.75.735h-1.53V.54h2.52c.78.015,1.125-.36,1.125-1.215ZM316.005-6.8a18.651,18.651,0,0,1,3,5.61l1.44-.75A10.8,10.8,0,0,0,316.3-7.05Zm-8.76,5.67A10.338,10.338,0,0,0,311.2-6c.27-.105.375-.21.375-.36a.316.316,0,0,0-.225-.285l-1.41-.51-.18.825a13.88,13.88,0,0,1-2.79,4.875ZM330.39-8.04a38.563,38.563,0,0,0,3.2-2.82c.4-.045.57-.15.57-.36a.465.465,0,0,0-.24-.345l-1.155-.765-.54.81a29.182,29.182,0,0,1-9.84,6.825l.165.45a19.784,19.784,0,0,0,6.45-2.79V.8h1.395ZM350.1-6.06l-12.525-.465V-4.95L350.1-5.4ZM359.16.48a7.431,7.431,0,0,0,4.455-2.715A10.5,10.5,0,0,0,365.79-7.17l-.465-.15c-.99,2.82-2.865,5.115-4.83,5.91V-11.1c.225-.15.3-.255.3-.39a.281.281,0,0,0-.285-.255l-1.485-.105.135.9Zm-7.1.045a8.229,8.229,0,0,0,3.36-3.57,13.975,13.975,0,0,0,.885-5.85V-10.59c.225-.15.3-.255.3-.39a.27.27,0,0,0-.285-.255l-1.53-.1.135.9v1.68c0,4.56-.72,6.615-3.135,8.9Zm27.96-11.37a2.979,2.979,0,0,0-1.725-1.59l-.27.21a5.6,5.6,0,0,1,.99,1.89ZM376.3-11.88a6.147,6.147,0,0,1,.825,2l1.05-.48a3.1,3.1,0,0,0-1.605-1.71Zm4.32,10.425c-2.16-2.175-5.745-6.195-7.455-8.385-.615-.8-.84-1.005-1.11-1.005-.3,0-.54.225-1.605,1.545-1.62,1.965-2.07,2.505-2.865,3.33l-.75.63.84,1.14a.369.369,0,0,0,.3.2c.18,0,.27-.135.285-.405.81-1.125,1.29-1.815,2.97-4.275.6-.915.705-1.05.81-1.05.06,0,.135.075.315.36a104.84,104.84,0,0,0,7.2,9.195ZM395.1-6.06l-12.525-.465V-4.95L395.1-5.4Zm9.945,1.065a18.888,18.888,0,0,0,3.09-6.075h-8.88l-.66-.135v.96l.66-.135h7.095A17.286,17.286,0,0,1,397.29-.27L397.5.2a15.08,15.08,0,0,0,7.23-4.785A25.6,25.6,0,0,1,409.02.3l1.335-1.08a18.322,18.322,0,0,0-5.115-4.11Zm13.14,3.825V0h-5.9V-.525q1.9-2.07,2.783-3.127a9.508,9.508,0,0,0,1.26-1.853,3.794,3.794,0,0,0,.383-1.665,2.466,2.466,0,0,0-.488-1.658,1.582,1.582,0,0,0-1.253-.562,1.482,1.482,0,0,0-1.3.66,3.172,3.172,0,0,0-.51,1.62h-.81v-1.8a2.805,2.805,0,0,1,1.125-.72,4.279,4.279,0,0,1,1.515-.27,3.976,3.976,0,0,1,1.448.27,2.593,2.593,0,0,1,1.155.877A2.51,2.51,0,0,1,418.05-7.2a2.773,2.773,0,0,1-.36,1.358,8.636,8.636,0,0,1-1.193,1.56q-.833.908-3.008,3.112Zm2.49-.36a.868.868,0,0,1,.667.308,1.242,1.242,0,0,1,.277.862A2.255,2.255,0,0,1,421.2.99a2.926,2.926,0,0,1-1.14.93l-.225-.36A2.187,2.187,0,0,0,420.518,1a1.169,1.169,0,0,0,.322-.742.456.456,0,0,0-.015-.135.932.932,0,0,1-.18.015.791.791,0,0,1-.608-.232.833.833,0,0,1-.217-.592.8.8,0,0,1,.247-.6A.839.839,0,0,1,420.675-1.53Zm5.475-4.785a3.141,3.141,0,0,1,1.462.352,2.779,2.779,0,0,1,1.11,1.058,3.179,3.179,0,0,1,.427,1.68,3.352,3.352,0,0,1-.495,1.86A3.2,3.2,0,0,1,427.4-.218a3.437,3.437,0,0,1-1.568.382,3.448,3.448,0,0,1-1.755-.45,3.191,3.191,0,0,1-1.215-1.23l.48-.3a2.586,2.586,0,0,0,.99,1,2.742,2.742,0,0,0,1.365.345,1.945,1.945,0,0,0,1.057-.307,2.2,2.2,0,0,0,.788-.908,3.153,3.153,0,0,0,.3-1.425,3.012,3.012,0,0,0-.3-1.4,2.02,2.02,0,0,0-.788-.855A2.1,2.1,0,0,0,425.7-5.64a1.718,1.718,0,0,0-.9.225,2.8,2.8,0,0,0-.675.57h-.585l.36-4.875h4.77v1.2h-4.305l-.21,2.91a2.646,2.646,0,0,1,.863-.51A3.187,3.187,0,0,1,426.15-6.315ZM436.995-1.17V0h-5.9V-.525q1.9-2.07,2.783-3.127a9.508,9.508,0,0,0,1.26-1.853,3.794,3.794,0,0,0,.383-1.665,2.466,2.466,0,0,0-.488-1.658,1.582,1.582,0,0,0-1.253-.562,1.482,1.482,0,0,0-1.3.66,3.172,3.172,0,0,0-.51,1.62h-.81v-1.8a2.805,2.805,0,0,1,1.125-.72A4.279,4.279,0,0,1,433.8-9.9a3.976,3.976,0,0,1,1.448.27,2.593,2.593,0,0,1,1.155.877A2.51,2.51,0,0,1,436.86-7.2a2.773,2.773,0,0,1-.36,1.358,8.636,8.636,0,0,1-1.193,1.56q-.833.908-3.008,3.112Zm4.875-5.145a3.141,3.141,0,0,1,1.462.352,2.779,2.779,0,0,1,1.11,1.058,3.179,3.179,0,0,1,.427,1.68,3.352,3.352,0,0,1-.495,1.86,3.2,3.2,0,0,1-1.253,1.148,3.437,3.437,0,0,1-1.568.382,3.448,3.448,0,0,1-1.755-.45,3.191,3.191,0,0,1-1.215-1.23l.48-.3a2.586,2.586,0,0,0,.99,1,2.742,2.742,0,0,0,1.365.345,1.945,1.945,0,0,0,1.057-.307,2.2,2.2,0,0,0,.788-.908,3.153,3.153,0,0,0,.3-1.425,3.012,3.012,0,0,0-.3-1.4,2.02,2.02,0,0,0-.788-.855,2.1,2.1,0,0,0-1.057-.278,1.718,1.718,0,0,0-.9.225,2.8,2.8,0,0,0-.675.57h-.585l.36-4.875h4.77v1.2h-4.305l-.21,2.91a2.646,2.646,0,0,1,.863-.51A3.187,3.187,0,0,1,441.87-6.315ZM456.84-.45V0h-2.865V-.45h.765V-4.77a2.22,2.22,0,0,0-.285-1.253.985.985,0,0,0-.87-.412,1.376,1.376,0,0,0-1.073.48,1.759,1.759,0,0,0-.427,1.215V-.45h.855V0H450.1V-.45h.855V-4.77a2.22,2.22,0,0,0-.285-1.253.985.985,0,0,0-.87-.412,1.392,1.392,0,0,0-1.087.48,1.759,1.759,0,0,0-.428,1.215V-.45h.8V0h-2.91V-.45h.99V-6.33h-.96v-.435l2.055-.12.03.7a2.122,2.122,0,0,1,1.8-.765,2.213,2.213,0,0,1,1.08.263,1.624,1.624,0,0,1,.705.727,1.9,1.9,0,0,1,.78-.735,2.455,2.455,0,0,1,1.14-.255q2.07,0,2.07,2.34V-.45Zm11.325,0V0H465.3V-.45h.765V-4.77a2.22,2.22,0,0,0-.285-1.253.985.985,0,0,0-.87-.412,1.376,1.376,0,0,0-1.073.48,1.759,1.759,0,0,0-.427,1.215V-.45h.855V0H461.43V-.45h.855V-4.77A2.22,2.22,0,0,0,462-6.023a.985.985,0,0,0-.87-.412,1.392,1.392,0,0,0-1.087.48,1.759,1.759,0,0,0-.428,1.215V-.45h.8V0H457.5V-.45h.99V-6.33h-.96v-.435l2.055-.12.03.7a2.122,2.122,0,0,1,1.8-.765,2.213,2.213,0,0,1,1.08.263,1.624,1.624,0,0,1,.705.727,1.9,1.9,0,0,1,.78-.735,2.455,2.455,0,0,1,1.14-.255q2.07,0,2.07,2.34V-.45Zm5.325.57a9.019,9.019,0,0,0-4.185-2.865l-.285.36A13.388,13.388,0,0,1,472.26,1.2ZM7.035,17.6H13.8l.6.12v-.84l-.6.12H1.2l-.6-.12v.84l.6-.12h.75v5.73c-.12.03-.195.03-.4.06-.315.045-.63.09-.945.12l.42,1.1c.06.15.165.24.27.24s.21-.09.285-.3a30.652,30.652,0,0,0,4.35-1.485V25.2h1.11Zm-1.11,1.83V20.76H3.06V19.425Zm-2.865-.6V17.6H5.925v1.23ZM5.925,21.36v1.2l-.3.06c-.75.18-1.845.4-2.565.525V21.36Zm1.56,3.84a8.2,8.2,0,0,0,3.33-1.8,7.668,7.668,0,0,0,2.94,1.71,7.559,7.559,0,0,1,.645-1.17A8.323,8.323,0,0,1,11.565,22.6a12.81,12.81,0,0,0,2.13-3.96H8.31l-.6-.12v.84l.6-.12h.18a8.273,8.273,0,0,0,1.7,3.5A7.662,7.662,0,0,1,7.3,24.825Zm4.71-5.955a11.983,11.983,0,0,1-1.41,2.73,6.966,6.966,0,0,1-1.77-2.73ZM2.55,11.94v4.005h9.975V11.94Zm1.2,3.4V14.2H11.3v1.14Zm0-1.74V12.54H11.3V13.6Zm18-.63H16.29l-.6-.12v.84l.6-.12h12.4l.6.12v-.84l-.6.12h-5.58V11.91c.2-.15.24-.21.24-.3,0-.15-.1-.21-.315-.21H21.75Zm6.915,5.67H16.32V25.11h1.245V19.245H27.42v4.53c-.015.465-.165.615-.63.63H25.515v.63H27.36c.915,0,1.32-.375,1.305-1.245Zm-9.57,1.71V24H20.28v-.69h5.355V20.355ZM20.28,22.71V20.955h4.185V22.71Zm6.585-5.2V14.67H18.12v2.835Zm-7.5-.6V15.27H25.62v1.635Zm17.415,6.66H32.535V19.62c.195-.135.24-.195.24-.3,0-.135-.105-.195-.315-.195H31.245V25h1.29v-.84h9.93v.75h1.29v-5.3c.195-.15.24-.195.24-.3,0-.135-.105-.195-.315-.195H42.465v4.44h-4.4v-5.79h4.98v-4.56c.195-.135.24-.195.24-.3,0-.135-.1-.195-.315-.195H41.76v4.455H38.07v-5.19c.18-.135.24-.195.24-.3,0-.135-.1-.2-.315-.2H36.78v5.685H33.225v-3.96c.195-.135.24-.195.24-.3,0-.135-.1-.195-.315-.195H31.935v5.055H36.78ZM50.505,14.9a18.977,18.977,0,0,1-.855,4.845,9.014,9.014,0,0,1-4.05,4.815l.225.48a8.964,8.964,0,0,0,4.875-4.41,16.131,16.131,0,0,0,1.17-5.73H57c-.075,2.31-.36,6.45-.51,7.47-.135,1.44-.39,1.785-1.29,1.77H53.205v.7h2.7c1.275.015,1.815-.5,1.95-1.86.165-1.05.51-6.585.57-8.715H51.9c.045-.51.06-.99.06-1.485V11.9c.18-.135.24-.2.24-.3,0-.135-.1-.195-.315-.195h-1.3v1.38c0,.36-.015.885-.045,1.485h-3.96l-.585-.12v.87l.585-.12Zm15.66,8.565V24h-4.2v-.54H63.51V15.465l-1.485.96-.315-.48,2.475-1.665h.51v9.18Zm5.565-9.375a2.932,2.932,0,0,1,1.785.563A3.589,3.589,0,0,1,74.7,16.275a6.856,6.856,0,0,1,.42,2.52,7.493,7.493,0,0,1-.5,2.827A4.483,4.483,0,0,1,73.3,23.5a2.85,2.85,0,0,1-1.808.66,2.966,2.966,0,0,1-1.582-.458,3.249,3.249,0,0,1-1.162-1.222l.48-.315a2.907,2.907,0,0,0,.96,1.035,2.221,2.221,0,0,0,1.215.375,1.889,1.889,0,0,0,1.732-1.17,7.3,7.3,0,0,0,.668-3.12,3.031,3.031,0,0,1-.937.81,2.69,2.69,0,0,1-1.358.33,3.089,3.089,0,0,1-1.462-.36,2.76,2.76,0,0,1-1.1-1.05,3.157,3.157,0,0,1-.412-1.65,3.364,3.364,0,0,1,.435-1.732,3.049,3.049,0,0,1,1.162-1.148A3.229,3.229,0,0,1,71.73,14.085Zm.075,5.79a1.737,1.737,0,0,0,1.268-.51,2.679,2.679,0,0,0,.713-1.215,5.7,5.7,0,0,0-.683-2.67,1.774,1.774,0,0,0-1.567-.915,1.4,1.4,0,0,0-1.3.69,3.543,3.543,0,0,0-.413,1.83,3.286,3.286,0,0,0,.563,2.093A1.747,1.747,0,0,0,71.805,19.875Zm7.83,4.29a2.783,2.783,0,0,1-1.8-.63,4.026,4.026,0,0,1-1.207-1.778,7.512,7.512,0,0,1-.427-2.632,7.449,7.449,0,0,1,.427-2.625,4,4,0,0,1,1.215-1.77,2.922,2.922,0,0,1,3.615-.008,3.947,3.947,0,0,1,1.215,1.763A7.449,7.449,0,0,1,83.1,19.11a7.4,7.4,0,0,1-.435,2.632,4.1,4.1,0,0,1-1.222,1.785A2.792,2.792,0,0,1,79.635,24.165Zm.015-.48a1.7,1.7,0,0,0,1.56-1.17,8.364,8.364,0,0,0,.54-3.39,8.316,8.316,0,0,0-.54-3.375,1.625,1.625,0,0,0-3.12,0,8.316,8.316,0,0,0-.54,3.375,8.364,8.364,0,0,0,.54,3.39A1.7,1.7,0,0,0,79.65,23.685Zm11.265-.135V24H88.89l-2.43-3.405h-.48V23.55h.93V24H83.9v-.45h.96V14.2h-1.08V13.77l2.205-.135v6.45h.51l2.295-2.415h-1.02v-.45H90.5v.45H89.55l-2.16,2.3,2.625,3.585Zm14.505-8.73h-1.11l-2.6,9.18h-.69L98.34,16.41,95.9,24h-.69L92.46,14.82H91.275v-.54h3.75v.54h-1.2l2.055,7.155,2.445-7.635h.63l2.745,7.59,1.965-7.11H102.48v-.54h2.94Zm5.31,9.3a9.019,9.019,0,0,0-4.185-2.865l-.285.36A13.388,13.388,0,0,1,109.5,25.2ZM127.7,17.6h6.765l.6.12v-.84l-.6.12h-12.6l-.6-.12v.84l.6-.12h.75v5.73c-.12.03-.195.03-.4.06-.315.045-.63.09-.945.12l.42,1.1c.06.15.165.24.27.24s.21-.09.285-.3a30.652,30.652,0,0,0,4.35-1.485V25.2h1.11Zm-1.11,1.83V20.76H123.72V19.425Zm-2.865-.6V17.6h2.865v1.23Zm2.865,2.535v1.2l-.3.06c-.75.18-1.845.4-2.565.525V21.36Zm1.56,3.84a8.2,8.2,0,0,0,3.33-1.8,7.668,7.668,0,0,0,2.94,1.71,7.558,7.558,0,0,1,.645-1.17,8.323,8.323,0,0,1-2.835-1.335,12.81,12.81,0,0,0,2.13-3.96H128.97l-.6-.12v.84l.6-.12h.18a8.273,8.273,0,0,0,1.695,3.5,7.662,7.662,0,0,1-2.88,2.085Zm4.71-5.955a11.984,11.984,0,0,1-1.41,2.73,6.966,6.966,0,0,1-1.77-2.73Zm-9.645-7.3v4.005h9.975V11.94Zm1.2,3.4V14.2h7.545v1.14Zm0-1.74V12.54h7.545V13.6Zm24.735,2.58.63.12V15.39l-.63.12H143.49l.015-.045c.1-1.05.18-2.175.18-3.015v-.465c.2-.135.24-.195.24-.3,0-.135-.1-.2-.315-.2h-1.29v.99c.015.435-.105,2.145-.2,2.985l-.015.045h-4.935l-.63-.12v.915l.63-.12h4.86a10.57,10.57,0,0,1-5.775,8.52l.24.405a9.94,9.94,0,0,0,6.84-8.355,12.571,12.571,0,0,0,5.91,8.28,8.832,8.832,0,0,1,.81-1.5,12.569,12.569,0,0,1-4.89-4.17,9.336,9.336,0,0,1-1.545-3.18ZM156.9,12.57c.195-.1.3-.225.3-.36s-.12-.24-.3-.255l-1.5-.1.1.9V24.72h1.4V16.77a14.9,14.9,0,0,1,5.6,3.87l1.02-1.365a16.009,16.009,0,0,0-6.615-3.06Zm16.68,11.91a7.431,7.431,0,0,0,4.455-2.715,10.5,10.5,0,0,0,2.175-4.935l-.465-.15c-.99,2.82-2.865,5.115-4.83,5.91V12.9c.225-.15.3-.255.3-.39a.281.281,0,0,0-.285-.255l-1.485-.105.135.9Zm-7.1.045a8.229,8.229,0,0,0,3.36-3.57,13.975,13.975,0,0,0,.885-5.85V13.41c.225-.15.3-.255.3-.39a.27.27,0,0,0-.285-.255l-1.53-.1.135.9v1.68c0,4.56-.72,6.615-3.135,8.9Zm21.225-10.62c.165-.33.3-.66.525-1.245.285-.135.39-.225.39-.39,0-.135-.1-.225-.33-.27l-1.41-.3-.15.855a12.789,12.789,0,0,1-4.035,5.97l.24.36a10.065,10.065,0,0,0,4.41-4.29h4.695a13.1,13.1,0,0,1-3.66,6.72,14.742,14.742,0,0,1-5.625,2.94l.09.45a13.354,13.354,0,0,0,6.03-2.3c2.475-1.8,4.125-4.71,4.815-8.5Zm12.735,4.845a2.55,2.55,0,0,1,2.1,2.49,2.577,2.577,0,0,1-.487,1.575,3.116,3.116,0,0,1-1.26,1,3.912,3.912,0,0,1-1.613.345,3.244,3.244,0,0,1-1.732-.465,3.425,3.425,0,0,1-1.192-1.215l.48-.3a2.409,2.409,0,0,0,1.02,1.005,2.838,2.838,0,0,0,1.3.33,2.329,2.329,0,0,0,1.042-.24,1.932,1.932,0,0,0,.795-.735,2.23,2.23,0,0,0,.308-1.2,2.129,2.129,0,0,0-.607-1.6,2.074,2.074,0,0,0-1.508-.593h-.375V18.69a2.542,2.542,0,0,0,1.035-.225,1.955,1.955,0,0,0,.84-.712,2.133,2.133,0,0,0,.33-1.222,2.229,2.229,0,0,0-.42-1.373,1.59,1.59,0,0,0-2.5.09,3.29,3.29,0,0,0-.488,1.628h-.81v-1.8a2.968,2.968,0,0,1,1.11-.72,4,4,0,0,1,1.47-.27,3.632,3.632,0,0,1,1.455.285,2.526,2.526,0,0,1,1.057.825,2.092,2.092,0,0,1,.4,1.275A2.458,2.458,0,0,1,200.445,18.75Zm7.035-1.065a3.141,3.141,0,0,1,1.462.353,2.779,2.779,0,0,1,1.11,1.058,3.179,3.179,0,0,1,.428,1.68,3.351,3.351,0,0,1-.5,1.86,3.2,3.2,0,0,1-1.253,1.147,3.528,3.528,0,0,1-3.322-.067,3.191,3.191,0,0,1-1.215-1.23l.48-.3a2.586,2.586,0,0,0,.99,1.005,2.742,2.742,0,0,0,1.365.345,1.945,1.945,0,0,0,1.058-.307,2.2,2.2,0,0,0,.787-.908,3.153,3.153,0,0,0,.3-1.425,3.012,3.012,0,0,0-.3-1.4,2.02,2.02,0,0,0-.787-.855,2.1,2.1,0,0,0-1.058-.278,1.718,1.718,0,0,0-.9.225,2.8,2.8,0,0,0-.675.57h-.585l.36-4.875H210v1.2h-4.3l-.21,2.91a2.646,2.646,0,0,1,.863-.51A3.187,3.187,0,0,1,207.48,17.685Zm7.815,6.48a2.783,2.783,0,0,1-1.8-.63,4.026,4.026,0,0,1-1.208-1.778,7.512,7.512,0,0,1-.428-2.632,7.449,7.449,0,0,1,.428-2.625,4,4,0,0,1,1.215-1.77,2.922,2.922,0,0,1,3.615-.008,3.947,3.947,0,0,1,1.215,1.763,7.449,7.449,0,0,1,.428,2.625,7.4,7.4,0,0,1-.435,2.632,4.1,4.1,0,0,1-1.223,1.785A2.792,2.792,0,0,1,215.295,24.165Zm.015-.48a1.7,1.7,0,0,0,1.56-1.17,8.364,8.364,0,0,0,.54-3.39,8.317,8.317,0,0,0-.54-3.375,1.625,1.625,0,0,0-3.12,0,8.317,8.317,0,0,0-.54,3.375,8.364,8.364,0,0,0,.54,3.39A1.7,1.7,0,0,0,215.31,23.685Zm4.425-.225h1.2V14.82h-1.2v-.54h2.445l4.515,7.29V14.82h-1.2v-.54h3.045v.54h-1.2V24h-.69l-5.07-8.265V23.46h1.2V24h-3.045Zm20.22.09V24H237.09v-.45h.765V19.23a2.22,2.22,0,0,0-.285-1.252.985.985,0,0,0-.87-.413,1.376,1.376,0,0,0-1.073.48,1.759,1.759,0,0,0-.427,1.215v4.29h.855V24H233.22v-.45h.855V19.23a2.22,2.22,0,0,0-.285-1.252.985.985,0,0,0-.87-.413,1.392,1.392,0,0,0-1.088.48,1.759,1.759,0,0,0-.427,1.215v4.29h.795V24h-2.91v-.45h.99V17.67h-.96v-.435l2.055-.12.03.7a2.122,2.122,0,0,1,1.8-.765,2.213,2.213,0,0,1,1.08.263,1.624,1.624,0,0,1,.705.727,1.9,1.9,0,0,1,.78-.735,2.455,2.455,0,0,1,1.14-.255q2.07,0,2.07,2.34V23.55Zm5.325.57a9.019,9.019,0,0,0-4.185-2.865l-.285.36a13.388,13.388,0,0,1,3.24,3.585Zm15.225.8a9.421,9.421,0,0,0,4.11-1.635c1.935-1.47,2.43-2.865,2.415-6.75v-3.9c.225-.15.3-.255.3-.39a.27.27,0,0,0-.285-.255L265.5,11.88l.135.9v3.84c-.015,3.27-.345,4.425-1.7,5.79a8.7,8.7,0,0,1-3.54,2.055Zm-2.115-11.91V20.3h1.395V12.87c.225-.165.3-.27.3-.39a.27.27,0,0,0-.285-.255l-1.545-.12Zm13.455,4.11-.66-.135v.96l.66-.135h5.64A6.507,6.507,0,0,1,276.3,21.69a8.966,8.966,0,0,1-4.005,2.625l.12.435a9.311,9.311,0,0,0,4.83-2.325c1.005-1,1.485-2.355,1.635-4.62h4.695l.66.135v-.96l-.66.135h-4.65c.03-.8.045-1.47.045-1.935V13.83c.81-.075,1.56-.195,3.15-.48a2.232,2.232,0,0,0,.435.075.312.312,0,0,0,.315-.285.651.651,0,0,0-.225-.435l-.78-.735-.7.3a51.651,51.651,0,0,1-9.075,1.4l.03.465c1.17.03,1.35.03,1.815.03,1.155,0,1.62-.03,3.6-.18h.045v1.2c0,.435-.015,1.125-.045,1.935Zm20.025-2.61h-4.74v4.5h1.425v-3.81h8.265c-.03,2.535-.555,4.53-1.515,5.73a10.605,10.605,0,0,1-5.79,3.345l.09.465a11.244,11.244,0,0,0,6.39-2.6c1.665-1.62,2.295-3.57,2.46-7.635H293.31v-1.83c.225-.15.3-.255.3-.39a.281.281,0,0,0-.285-.255l-1.59-.105.135.9Zm22.575,9.03a13.784,13.784,0,0,0-4.695-6.45l-.315.27a22.481,22.481,0,0,1,2.34,3.87c-2.865.42-4.74.615-7.545.8l.18-.33a69.541,69.541,0,0,0,3.75-8.55c.285-.12.4-.225.4-.39,0-.135-.105-.24-.315-.3l-1.485-.465-.15.87a78.849,78.849,0,0,1-3.075,8.73l-.21.51h-.09c-.4.03-.78.045-2.04.105l.48,1.3c.12.285.21.39.36.39.165,0,.27-.09.4-.36a65.259,65.259,0,0,0,9.615-1.74,23.507,23.507,0,0,1,.96,2.595Zm8.28-6.855a1.628,1.628,0,1,0,1.6,1.62A1.629,1.629,0,0,0,322.725,16.68Zm16.635-.72a38.563,38.563,0,0,0,3.2-2.82c.4-.045.57-.15.57-.36a.465.465,0,0,0-.24-.345l-1.155-.765-.54.81a29.182,29.182,0,0,1-9.84,6.825l.165.45a19.784,19.784,0,0,0,6.45-2.79V24.8h1.395Zm14.97,7.26c-.03.63-.24.825-.87.84H351.9v.69h2.46a1.454,1.454,0,0,0,.975-.285,1.324,1.324,0,0,0,.375-.9v-.24l-.18-7.71h3.315l.6.12v-.93l-.6.12h-3.33l-.06-2.43c.2-.15.255-.24.255-.36,0-.15-.135-.255-.375-.255L353.94,11.8l.15,1.005.045,2.115H347.34l-.6-.12v.93l.6-.12h5.895l-.03.045a17.791,17.791,0,0,1-6.75,7.29l.2.36c3.12-1.17,5.115-2.88,7.53-6.48Zm19.65-8.61a14.889,14.889,0,0,1-3.825,4.86,14.109,14.109,0,0,1-6.885,3.045l-.795.015.54,1.335c.09.21.225.33.375.33.165,0,.285-.1.39-.345,3.39-.765,5.52-1.785,7.365-3.525a12.643,12.643,0,0,0,3.255-5.52Zm-11.64-1.635a14.1,14.1,0,0,1,3.735,3.21l1.23-1.245a9.257,9.257,0,0,0-4.785-2.355Zm20.385,3.705a1.628,1.628,0,1,0,1.6,1.62A1.629,1.629,0,0,0,382.725,16.68Zm22.035-3.87a3,3,0,0,0-1.77-1.56l-.24.21a6.03,6.03,0,0,1,1.005,1.89ZM391.065,23.775c2.475-1.965,4.08-4.845,4.92-8.88.33-.12.465-.255.465-.45,0-.15-.12-.27-.345-.33l-1.56-.39-.045.87a20.36,20.36,0,0,1-3.765,8.895Zm7.545-9.735a28.875,28.875,0,0,1,4.155,9.63l1.56-.87a20.207,20.207,0,0,0-5.31-9.075Zm2.385-2.355a6.593,6.593,0,0,1,.915,2.055l1-.48a2.968,2.968,0,0,0-1.65-1.77Zm9.375,13.2a7.956,7.956,0,0,0,4.74-2.64,11.653,11.653,0,0,0,2.25-5.28c.24-.06.33-.15.33-.285,0-.09-.075-.18-.225-.225l-1.41-.45-.03.795a14.451,14.451,0,0,1-1.575,4.32,7.919,7.919,0,0,1-4.23,3.33Zm.33-5.355a5.618,5.618,0,0,0-2.475-3.33l-.255.195a10.075,10.075,0,0,1,1.545,3.585Zm2.97-.375a5.935,5.935,0,0,0-2.37-3.33l-.27.21a10.141,10.141,0,0,1,1.44,3.585Zm19.9-1.59.66.135v-.96l-.66.135h-11.73l-.66-.135v.96l.66-.135H427.2a8.439,8.439,0,0,1-.51,3.285,6.963,6.963,0,0,1-4.545,3.48l.12.5c2.43-.5,4.41-1.545,5.28-2.79a7.165,7.165,0,0,0,1.11-4.47Zm-1.95-4.86H423.7l-.66-.135v.96l.66-.135h7.92l.66.135v-.96Zm8.88,12.21a9.421,9.421,0,0,0,4.11-1.635c1.935-1.47,2.43-2.865,2.415-6.75v-3.9c.225-.15.3-.255.3-.39a.27.27,0,0,0-.285-.255L445.5,11.88l.135.9v3.84c-.015,3.27-.345,4.425-1.695,5.79a8.7,8.7,0,0,1-3.54,2.055Zm-2.115-11.91V20.3h1.4V12.87c.225-.165.3-.27.3-.39a.27.27,0,0,0-.285-.255l-1.545-.12Zm25.68,4.935-12.525-.465V19.05l12.525-.45Zm9.075-1.3c.24-.1.33-.18.33-.315,0-.12-.075-.18-.315-.24l-1.005-.255a18.74,18.74,0,0,1-6.345,5.19l.135.405a17.315,17.315,0,0,0,2.355-.96v4.65h1.245v-.66h6.33v.585h1.245v-4.56a12.3,12.3,0,0,0,1.875.78,6.8,6.8,0,0,1,.615-1.305,14.319,14.319,0,0,1-6.42-3.285Zm-4.68,3.735a14.791,14.791,0,0,0,4.35-3.405,12.91,12.91,0,0,0,4.11,3.405Zm1.08,3.48V20.97h6.33v2.88Zm2.43-10.98h-4.2a3.931,3.931,0,0,0-.03-.63h-.51a3.819,3.819,0,0,1-1.425,2.43l.915,1.11a3.178,3.178,0,0,0,1.02-2.31h10.11a11.747,11.747,0,0,1-.825,1.7l.3.225a5.732,5.732,0,0,0,2.28-2.52h-6.315V11.9c.2-.15.24-.2.24-.285,0-.15-.105-.21-.315-.21h-1.245Zm1.77,1.845a17.718,17.718,0,0,1,3.75,2.85l1.02-1.05a15.5,15.5,0,0,0-4.47-2.175Zm-6.675,3a11.124,11.124,0,0,0,3.96-2.445c.33-.06.51-.165.51-.315,0-.075-.1-.18-.24-.24l-1.125-.495a13.126,13.126,0,0,1-3.33,3.12Zm20.04,6.495h-5.7l-.6-.12v.8l.6-.12h12.6l.6.12v-.8l-.6.12h-5.8V23.07h4.725l.585.12v-.8l-.585.12H488.2V21.48h4.68V17.745h-10.35V21.48h4.575v1.035h-4.635l-.585-.12v.8l.585-.12h4.635Zm0-3.285h-3.42v-1.05h3.42Zm0-1.6h-3.42V18.3h3.42Zm1.1-1.02h3.525v1.02H488.2Zm0,1.575h3.525v1.05H488.2Zm-5.475-7.95v3.63h9.96v-3.63Zm1.2.555h7.56v.96h-7.56Zm0,2.52V13.995h7.56V15Zm-2.43,1.92h12.42l.6.12v-.8l-.6.12H481.5l-.6-.12v.8Zm17.67.765a3.141,3.141,0,0,1,1.462.353,2.779,2.779,0,0,1,1.11,1.058,3.179,3.179,0,0,1,.427,1.68,3.352,3.352,0,0,1-.495,1.86,3.2,3.2,0,0,1-1.253,1.147,3.528,3.528,0,0,1-3.322-.067,3.191,3.191,0,0,1-1.215-1.23l.48-.3a2.586,2.586,0,0,0,.99,1.005,2.742,2.742,0,0,0,1.365.345,1.945,1.945,0,0,0,1.057-.307,2.2,2.2,0,0,0,.788-.908,3.153,3.153,0,0,0,.3-1.425,3.012,3.012,0,0,0-.3-1.4,2.02,2.02,0,0,0-.788-.855,2.1,2.1,0,0,0-1.057-.278,1.718,1.718,0,0,0-.9.225,2.8,2.8,0,0,0-.675.57h-.585l.36-4.875h4.77v1.2h-4.305l-.21,2.91a2.646,2.646,0,0,1,.863-.51A3.187,3.187,0,0,1,499.17,17.685Zm11.385,4.11H508.9V24H507.72V21.8h-4.2V21.21l3.84-6.93H508.9v6.495h1.65Zm-2.835-1.02V15.09h-.2l-3.06,5.685Zm4.785,3.39a.9.9,0,1,1,.638-.263A.868.868,0,0,1,512.505,24.165Zm8.52-1.335V24h-5.9v-.525q1.905-2.07,2.783-3.128a9.507,9.507,0,0,0,1.26-1.853,3.8,3.8,0,0,0,.382-1.665,2.466,2.466,0,0,0-.487-1.658,1.582,1.582,0,0,0-1.253-.562,1.481,1.481,0,0,0-1.3.66,3.171,3.171,0,0,0-.51,1.62h-.81v-1.8a2.805,2.805,0,0,1,1.125-.72,4.279,4.279,0,0,1,1.515-.27,3.976,3.976,0,0,1,1.448.27,2.593,2.593,0,0,1,1.155.877,2.51,2.51,0,0,1,.458,1.552,2.773,2.773,0,0,1-.36,1.358,8.635,8.635,0,0,1-1.193,1.56q-.832.907-3.008,3.112Zm8.25.72V24H527.25l-2.43-3.405h-.48V23.55h.93V24h-3.015v-.45h.96V14.2h-1.08V13.77l2.205-.135v6.45h.51l2.3-2.415h-1.02v-.45h2.73v.45h-.945l-2.16,2.3,2.625,3.585Zm14.505-8.73h-1.11l-2.6,9.18h-.69L536.7,16.41,534.255,24h-.69l-2.745-9.18h-1.185v-.54h3.75v.54h-1.2l2.055,7.155,2.445-7.635h.63l2.745,7.59,1.965-7.11H540.84v-.54h2.94Zm7.92,8.73V24h-3.06v-.45h.975V19.4a2.242,2.242,0,0,0-.345-1.35,1.222,1.222,0,0,0-1.05-.465,1.619,1.619,0,0,0-1.185.458,1.58,1.58,0,0,0-.465,1.177V23.55h.96V24h-3.045v-.45h.96V14.2h-1.08V13.77l2.205-.135V17.82a1.862,1.862,0,0,1,.795-.562,3.109,3.109,0,0,1,1.155-.2,2.21,2.21,0,0,1,1.658.592,2.407,2.407,0,0,1,.578,1.748V23.55Z" transform="translate(0.406 274.775)" fill="#111"/>
      </g>
      <g id="car-name" transform="translate(-929 2.391)">
        <g id="グループ_877" data-name="グループ 877" transform="translate(-2.104 4160.221)">
          <rect id="長方形_201" data-name="長方形 201" width="226.154" height="28.709" transform="translate(933 -0.525)"/>
          <path id="パス_134" data-name="パス 134" d="M1.472-5.76H14.528l.832.16V-6.928l-.832.16H1.472L.64-6.928V-5.6ZM28.7-6.352a12.527,12.527,0,0,1,1.14,1.344l1.168-1.248a18.637,18.637,0,0,0-4.992-3.36l-.384.432A24.615,24.615,0,0,1,28.16-6.928L27.3-6.9c-1.824.064-2.56.08-5.28.112l-.928.016a19.144,19.144,0,0,0,2.592-3.616l.016-.048h6.832l.64.128v-.9l-.64.128h-5.78V-12.9c.192-.144.256-.208.256-.32,0-.144-.112-.208-.352-.208H23.3v2.352H17.488l-.624-.128v.9l.624-.128h4.56a28.969,28.969,0,0,1-1.632,3.408l-.144.256c-1.824.032-2,.032-2.208.032h-.816l.32,1.264c.064.24.176.368.32.368s.256-.128.352-.384c.544-.016,1.056-.048,1.216-.064l.88-.048.88-.064A8.781,8.781,0,0,1,20.32-2,5.822,5.822,0,0,1,16.656.688l.176.5A6.953,6.953,0,0,0,21.2-1.088,7.466,7.466,0,0,0,22.624-5.76l.192-.016c.336-.032.352-.032,1.2-.1.1-.016.576-.064,1.008-.1V-.7c0,1.216.432,1.568,1.888,1.552h2.56c1.1.016,1.568-.416,1.68-1.5l.208-1.872-.72-.112L30.464-1.1c-.064.528-.288.72-.816.72H27.12c-.608-.032-.752-.16-.752-.64V-6.08l.432-.048a8.407,8.407,0,0,0,1.04-.128Zm11.744,4.96H45.76v-4.5H34.208V-.3h1.2V-1.392h3.856V-.144C39.3.624,39.68.88,40.848.912h5.008c.864,0,1.216-.3,1.344-1.168l.144-1.184L46.72-1.5l-.128.8c-.08.432-.256.56-.784.576H41.04c-.528-.032-.608-.08-.592-.48Zm0-3.856h4.08V-4h-4.08Zm0,1.888h4.08v1.328h-4.08Zm-1.18,1.328H35.408V-3.36h3.856Zm0-1.968H35.408V-5.248h3.856Zm0-6.4v3.856h1.184V-10.4H45.76a15.072,15.072,0,0,1-.784,2.208L45.392-8a6.015,6.015,0,0,0,1.952-3.04h-6.9v-1.1H45.4l.64.128v-.9l-.64.128H34.784l-.624-.128v.9l.624-.128h4.48v1.1H34.512v-.048L34.5-11.5h-.544A4.387,4.387,0,0,1,32.64-8.816l.992,1.12a4.282,4.282,0,0,0,.88-2.7Zm-4.3,3.392h3.5v-.64h-3.5Zm0-1.7h3.5v-.64h-3.5Zm6.288,1.7H44.82v-.64H41.248Zm0-1.7H44.8v-.64H41.248Zm15.6,4.88H61.1l.64.128v-.9l-.64.128H56.848v-2.72h5.776l.64.128v-.9l-.64.128H56.848v-2.7h4.464l.64.128v-.9l-.64.128H56.848v-1.664c.208-.16.256-.208.256-.3,0-.16-.112-.224-.352-.224h-1.28v2.192h-4.8l-.624-.128v.9l.624-.128h4.8v2.7h-6.08l-.624-.128v.9l.624-.128h6.08v6.26a4.963,4.963,0,0,1-3.088-2.848c.1-.416.176-.8.32-1.68.24-.1.368-.208.368-.352,0-.112-.128-.208-.3-.224L51.4-6.192c-.3,3.584-1,5.344-2.756,7.024l.288.352a6.458,6.458,0,0,0,3.3-4.3,9.281,9.281,0,0,0,.56,1.136A5.3,5.3,0,0,0,56.8.56a32.072,32.072,0,0,0,4.752.224h1.36A7.221,7.221,0,0,1,63.36-.64c-1.6.1-2.816.144-3.936.144a20.331,20.331,0,0,1-2.576-.128ZM76.88-7.2h1.84l.64.128v-.9l-.64.128H70.9l-.64-.128v.9L70.9-7.2h4.576V-.336c0,.512-.224.736-.72.736H73.008v.672h2.416c1.024,0,1.472-.416,1.456-1.392ZM67.008,1.184h1.328V-7.024c.352-.448.56-.7,1.088-1.408.416-.032.56-.112.56-.336,0-.1-.064-.176-.192-.256l-1.12-.736A25.083,25.083,0,0,1,64.64-4.368l.272.4a19.061,19.061,0,0,0,2.1-1.664Zm4.88-12.976H77.9l.64.128v-.928l-.64.128H71.888l-.64-.128v.928ZM65.1-9.344a14.366,14.366,0,0,0,4-2.72,1.133,1.133,0,0,0,.432-.048.252.252,0,0,0,.192-.224c0-.08-.048-.16-.176-.256l-1.12-.848a17.149,17.149,0,0,1-3.6,3.7ZM84.86-4.688h1.12l.64.128v-.9l-.64.128H84.86v-2.48h1.52v-4.96H81.42v4.96h2.288v6.9c-.144.016-.576.08-1.056.16v-5.28c.176-.144.224-.208.224-.3,0-.144-.112-.208-.352-.208H81.5V-.608h-.06c-.224.032-.368.048-.8.1l.3,1.136c.048.192.144.3.272.3s.24-.112.288-.352A32.334,32.334,0,0,0,86.78-.992l-.064-.464c-.432.08-.88.176-1.344.256-.288.048-.352.064-.512.1Zm-2.24-3.76v-3.68h2.56v3.68Zm6.34,8.08v-3.36h5.616V-9.072H88.96v-2.976h5.488l.64.128v-.9l-.64.128h-6.8V1.184H88.96V.272H94.7L95.36.4V-.5l-.66.132Zm0-8.064h4.272v4.064H88.96Zm14.1,6.544V-.512c-.016.528-.192.7-.7.72h-1.136V.88h1.616c.944,0,1.36-.384,1.344-1.264V-5.232h-3.328c.08-.288.192-.688.272-1.088h2.624V-9.952c.208-.144.256-.208.256-.32,0-.144-.112-.208-.336-.208h-1.008v3.52H98.48V-9.968c.208-.16.256-.224.256-.32,0-.144-.128-.224-.336-.224H97.392V-6.32h2.624c-.032.288-.048.32-.176,1.088H97.12V.928h1.152v-5.52h1.44c-.208,1.04-.352,1.728-.432,2.08l-.064.016c-.336.016-.336.016-.768.032l.288.976c.032.144.128.24.224.24s.192-.1.272-.3a15.46,15.46,0,0,0,2.5-.72,9.869,9.869,0,0,1,.336.976Zm0-2.7v2.64a7.518,7.518,0,0,0-1.712-2.032l-.336.16c.288.56.4.8.528,1.1-.368.048-1.408.16-1.648.176.208-.48.592-1.5.768-2.048Zm6-2.512V-9.58h1.472l.64.128v-.9l-.64.128h-2.064a9.662,9.662,0,0,0,1.328-2.16c.256-.08.416-.208.416-.3a.332.332,0,0,0-.224-.24l-1.216-.384a20.606,20.606,0,0,1-.88,3.088H106.02l.016-.048a16.239,16.239,0,0,0,.944-2.208c.288-.1.448-.224.448-.336,0-.08-.112-.192-.208-.224l-1.264-.4A25.475,25.475,0,0,1,103.9-7.824l.32.24a13.739,13.739,0,0,0,1.04-1.344V1.184h1.12V.32h4.336l.64.128v-.9l-.64.128h-1.664V-3.312h1.1l.64.128v-.9l-.64.128h-1.1V-6.464h1.1l.64.128v-.9l-.64.128Zm-1.1,0h-1.568V-9.58h1.568Zm0,.64v2.512h-1.568V-6.464Zm0,3.152V-.32h-1.568V-3.312Zm-9.1-6.752c.608.464.8.608,1.3,1.04a13.337,13.337,0,0,1-1.536,1.44l.24.336A9.653,9.653,0,0,0,100.72-8.5a10.256,10.256,0,0,1,1.088,1.12l.736-.752a9.7,9.7,0,0,0-1.216-.96l.032-.032c.24-.272.368-.432.416-.48.1-.112.128-.176.256-.32.272-.016.4-.1.4-.224a.217.217,0,0,0-.112-.176l-.88-.464a13.624,13.624,0,0,1-.832,1.216c-.448-.288-.8-.48-1.472-.832Zm2.44-1.78v-.976c.208-.144.256-.208.256-.32,0-.144-.112-.208-.336-.208H99.984v1.5h-2.7l-.64-.128v.9l.64-.128H103.9l.624.128v-.9l-.624.128Zm18.72,8.368a1.089,1.089,0,0,0-1.1,1.072,1.076,1.076,0,0,0,.309.767,1.076,1.076,0,0,0,.763.321,1.079,1.079,0,0,0,.767-.319,1.079,1.079,0,0,0,.313-.769,1.079,1.079,0,0,0-1.056-1.072Zm0-7.36a1.089,1.089,0,0,0-1.1,1.072A1.089,1.089,0,0,0,120-8.672a1.076,1.076,0,0,0,.763-.321,1.076,1.076,0,0,0,.309-.767,1.079,1.079,0,0,0-1.056-1.072Zm8.743,6.925,6.655-9.4H136.5v8.839h2.317v1.4H136.5V0h-1.671V-3.066h-6.07Zm6.07-.564v-6.675l-4.686,6.675ZM144.41-12.6a3.508,3.508,0,0,0-.943.128,3.632,3.632,0,0,0-.872.369,3.985,3.985,0,0,0-.759.579,3.976,3.976,0,0,0-.6.749l-.779-.441a5.054,5.054,0,0,1,1.774-1.728,4.485,4.485,0,0,1,2.225-.579,5.441,5.441,0,0,1,1.538.226,4.427,4.427,0,0,1,1.389.682,3.507,3.507,0,0,1,1,1.159,3.4,3.4,0,0,1,.385,1.656,3.521,3.521,0,0,1-.333,1.538,6.679,6.679,0,0,1-.872,1.354,15.534,15.534,0,0,1-1.236,1.328q-.7.672-1.415,1.471L142.636-1.64h6.286V0h-8.193V-.7l3.8-4.317q.472-.543.907-1.138a10.8,10.8,0,0,0,.769-1.2,7.348,7.348,0,0,0,.533-1.215,3.718,3.718,0,0,0,.2-1.169,3.519,3.519,0,0,0-.179-1.148,2.656,2.656,0,0,0-.513-.9,2.378,2.378,0,0,0-.8-.6,2.454,2.454,0,0,0-1.04-.218Zm7.291,1.743,3.671-2.451h.379V-.738H157.7V0h-5.537V-.738h1.928v-10.7L152.138-10.2Zm8-1.059v-.5l2.646-.185v7.928h.281l2.988-2.9H164.39V-8.12h3.472v.545h-1.345l-2.628,2.61,3.744,4.43h1.081V0h-3.981V-.536H165.8l-2.883-3.533h-.571V-.536h1.116V0h-3.621V-.536h1.151V-11.918ZM171.6-.536h.958V0h-3.5V-.536h1.187v-7.04H169.1V-8.1l2.47-.141.035.861a2.161,2.161,0,0,1,.835-.7,2.787,2.787,0,0,1,1.222-.246,3.25,3.25,0,0,1,.813.092,2.25,2.25,0,0,1,.62.255,1.842,1.842,0,0,1,.448.382,2.269,2.269,0,0,1,.308.475,2.312,2.312,0,0,1,.439-.536,2.465,2.465,0,0,1,.558-.378,2.678,2.678,0,0,1,.642-.22,3.382,3.382,0,0,1,.69-.07,2.838,2.838,0,0,1,1.248.237,1.954,1.954,0,0,1,.756.624,2.319,2.319,0,0,1,.374.9,5.363,5.363,0,0,1,.1,1.046V-.536h1.169V0h-3.454V-.536h.923V-5.528a3.3,3.3,0,0,0-.325-1.657,1.1,1.1,0,0,0-1.011-.541,2.156,2.156,0,0,0-.571.088,1.667,1.667,0,0,0-.593.308,1.731,1.731,0,0,0-.466.6,2.189,2.189,0,0,0-.189.971V-.536h1.028V0h-3.4V-.536H174.8V-5.528q0-2.2-1.354-2.2a1.868,1.868,0,0,0-.541.1,1.788,1.788,0,0,0-.6.334,1.972,1.972,0,0,0-.492.624,2.073,2.073,0,0,0-.2.967Zm13.072-10.18.241,1.953h-.7l.231-1.953L182.89-9.527l-.343-.62,1.794-.754-1.794-.769.359-.61,1.543,1.179-.231-1.922h.7l-.241,1.922,1.553-1.169.354.6-1.784.77,1.784.754-.343.61Zm3.117-.713,1.835-1.225h.19v6.285h.974V-6h-2.768v-.369h.964v-5.352l-.974.62Z" transform="translate(950.36 20)" fill="#fff"/>
        </g>
        <path id="パス_133" data-name="パス 133" d="M25.453-22.4V-1.3h2.813V0H19.582V-1.3H22.4V-19.863L14.836-.035H13.219L13.184,0,5.326-20.021V-1.3H8.1V0H.9V-1.3H3.779V-22.4H.9V-23.73H6.979L14.7-3.99l7.523-19.74H28.27v1.336Zm14.906-.035H36.791V-1.3H40.5V0H30.059V-1.3h3.709V-22.43H30.2v-1.3H40.36Zm23.221-1.3v1.336H60.557V0h-1.67L46.723-19.986V-1.3h3.059V0H42.293V-1.3h2.883V-22.4H42.293V-23.73h5.871L58.957-6.047V-22.4h-2.9V-23.73Zm12.094,1.3H72.105V-1.3h3.709V0H65.373V-1.3h3.709V-22.43H65.514v-1.3h10.16Zm10.652,0v-1.3h10.3v1.3H92.953V2.162A7.187,7.187,0,0,1,92.487,4.9a5.331,5.331,0,0,1-1.23,1.863,4.819,4.819,0,0,1-1.731,1.072,5.852,5.852,0,0,1-1.969.343,6.812,6.812,0,0,1-2.443-.422A6.16,6.16,0,0,1,83.3,6.732l.932-.932a5.183,5.183,0,0,0,1.345.835,4.948,4.948,0,0,0,1.978.343A1.926,1.926,0,0,0,88.6,6.7a2.283,2.283,0,0,0,.747-.782A3.788,3.788,0,0,0,89.789,4.7a8.138,8.138,0,0,0,.141-1.573V-22.43Zm29.813,12.2a25.58,25.58,0,0,0-.185-3.05,20.951,20.951,0,0,0-.562-2.944,15.986,15.986,0,0,0-.949-2.628,8.989,8.989,0,0,0-1.354-2.118,6.046,6.046,0,0,0-1.784-1.415,4.784,4.784,0,0,0-2.232-.519,6.651,6.651,0,0,0-3.287.747,5.893,5.893,0,0,0-2.145,2.03,8.941,8.941,0,0,0-1.16,2.971,17.557,17.557,0,0,0-.352,3.586,23.985,23.985,0,0,0,.158,3.023,21.567,21.567,0,0,0,.545,2.953,16.135,16.135,0,0,0,.94,2.672,9.536,9.536,0,0,0,1.345,2.171,6,6,0,0,0,1.775,1.459,4.62,4.62,0,0,0,2.215.536,6.807,6.807,0,0,0,3.313-.738,5.943,5.943,0,0,0,2.171-2.021,8.844,8.844,0,0,0,1.187-3.015,18.143,18.143,0,0,0,.361-3.7Zm-7.031-13.816a10.98,10.98,0,0,1,3.349.475,9.126,9.126,0,0,1,2.619,1.3,8.727,8.727,0,0,1,1.942,1.942,11.356,11.356,0,0,1,1.327,2.391,12.782,12.782,0,0,1,.756,2.646,15.951,15.951,0,0,1,.237,2.725,18.366,18.366,0,0,1-.246,2.953,16.571,16.571,0,0,1-.765,2.953,13.665,13.665,0,0,1-1.336,2.725,9.991,9.991,0,0,1-1.951,2.25,8.828,8.828,0,0,1-2.61,1.529A9.275,9.275,0,0,1,109.107.4a11.068,11.068,0,0,1-3.41-.483A9.009,9.009,0,0,1,103.078-1.4a8.562,8.562,0,0,1-1.916-1.96,11.052,11.052,0,0,1-1.283-2.408,13.637,13.637,0,0,1-.721-2.663,16.708,16.708,0,0,1-.229-2.733,19.2,19.2,0,0,1,.237-2.962,16.753,16.753,0,0,1,.738-2.953,13.172,13.172,0,0,1,1.3-2.7,9.46,9.46,0,0,1,1.934-2.215,8.864,8.864,0,0,1,2.619-1.5,9.534,9.534,0,0,1,3.35-.553Zm32.221,1.617V-1.3h2.6V0h-8.068V-1.3h2.408V-11.848h-11V-1.3h2.443V0h-8.068V-1.3h2.6V-22.43h-2.6v-1.3h8.068v1.3h-2.443v9.176h11V-22.43h-2.408v-1.3h8.068v1.3Zm25.682-1.3v1.336h-3.023V0h-1.67L150.152-19.986V-1.3h3.059V0h-7.488V-1.3h2.883V-22.4h-2.883V-23.73h5.871L162.387-6.047V-22.4h-2.9V-23.73Zm26.49,6.416a7.755,7.755,0,0,0-.677-2.61,5.663,5.663,0,0,0-1.239-1.723,4.553,4.553,0,0,0-1.573-.958,5.1,5.1,0,0,0-1.7-.3,6.691,6.691,0,0,0-3.3.747,5.965,5.965,0,0,0-2.153,2.03,8.827,8.827,0,0,0-1.169,2.971,17.558,17.558,0,0,0-.352,3.586,24.784,24.784,0,0,0,.185,3.006,20.487,20.487,0,0,0,.563,2.9,15.372,15.372,0,0,0,.958,2.6,8.934,8.934,0,0,0,1.38,2.109,6.021,6.021,0,0,0,1.828,1.406,5.094,5.094,0,0,0,2.294.51,5.9,5.9,0,0,0,1.951-.343,6.028,6.028,0,0,0,1.828-1.028,6.981,6.981,0,0,0,1.485-1.7,7.046,7.046,0,0,0,.923-2.347H196.1a8.818,8.818,0,0,1-.958,2.716,8.285,8.285,0,0,1-1.723,2.18A7.731,7.731,0,0,1,191.081-.12a7.451,7.451,0,0,1-2.767.52,11.068,11.068,0,0,1-3.41-.483A9.009,9.009,0,0,1,182.285-1.4a8.562,8.562,0,0,1-1.916-1.96,11.052,11.052,0,0,1-1.283-2.408,13.64,13.64,0,0,1-.721-2.663,16.708,16.708,0,0,1-.229-2.733,19.028,19.028,0,0,1,.237-2.953,16.786,16.786,0,0,1,.738-2.944,13.392,13.392,0,0,1,1.3-2.707,9.387,9.387,0,0,1,1.934-2.224,8.864,8.864,0,0,1,2.619-1.5,9.534,9.534,0,0,1,3.349-.554,11.7,11.7,0,0,1,2.5.246,10.675,10.675,0,0,1,2.039.65,8.792,8.792,0,0,1,1.626.923,8.6,8.6,0,0,1,1.222,1.063v3.85Zm22.043,7.084a25.58,25.58,0,0,0-.185-3.05,20.949,20.949,0,0,0-.562-2.944,15.985,15.985,0,0,0-.949-2.628,8.989,8.989,0,0,0-1.354-2.118,6.046,6.046,0,0,0-1.784-1.415,4.784,4.784,0,0,0-2.232-.519,6.651,6.651,0,0,0-3.287.747,5.893,5.893,0,0,0-2.145,2.03,8.941,8.941,0,0,0-1.16,2.971,17.558,17.558,0,0,0-.352,3.586,23.985,23.985,0,0,0,.158,3.023,21.566,21.566,0,0,0,.545,2.953,16.135,16.135,0,0,0,.94,2.672,9.535,9.535,0,0,0,1.345,2.171A6,6,0,0,0,206.3-1.292a4.62,4.62,0,0,0,2.215.536,6.807,6.807,0,0,0,3.313-.738A5.943,5.943,0,0,0,214-3.516a8.844,8.844,0,0,0,1.187-3.015,18.144,18.144,0,0,0,.356-3.7Zm-7.031-13.816a10.98,10.98,0,0,1,3.349.475,9.126,9.126,0,0,1,2.619,1.3,8.727,8.727,0,0,1,1.942,1.942,11.356,11.356,0,0,1,1.327,2.391,12.782,12.782,0,0,1,.756,2.646,15.951,15.951,0,0,1,.237,2.725,18.364,18.364,0,0,1-.246,2.953,16.572,16.572,0,0,1-.765,2.953A13.665,13.665,0,0,1,216.4-3.937a9.991,9.991,0,0,1-1.951,2.25,8.828,8.828,0,0,1-2.61,1.529A9.275,9.275,0,0,1,208.512.4a11.068,11.068,0,0,1-3.41-.483,9.009,9.009,0,0,1-2.62-1.317,8.562,8.562,0,0,1-1.916-1.96,11.053,11.053,0,0,1-1.283-2.408,13.638,13.638,0,0,1-.721-2.663,16.708,16.708,0,0,1-.229-2.733,19.2,19.2,0,0,1,.237-2.962,16.753,16.753,0,0,1,.738-2.953,13.172,13.172,0,0,1,1.3-2.7,9.46,9.46,0,0,1,1.934-2.215,8.864,8.864,0,0,1,2.619-1.5,9.534,9.534,0,0,1,3.351-.553ZM238.764-10.23a25.58,25.58,0,0,0-.185-3.05,20.949,20.949,0,0,0-.562-2.944,15.987,15.987,0,0,0-.949-2.628,8.99,8.99,0,0,0-1.354-2.118,6.046,6.046,0,0,0-1.784-1.415,4.784,4.784,0,0,0-2.23-.515,6.651,6.651,0,0,0-3.287.747,5.893,5.893,0,0,0-2.145,2.03,8.941,8.941,0,0,0-1.16,2.971,17.557,17.557,0,0,0-.352,3.586,23.985,23.985,0,0,0,.158,3.023,21.567,21.567,0,0,0,.545,2.953,16.135,16.135,0,0,0,.94,2.672,9.537,9.537,0,0,0,1.345,2.171,6,6,0,0,0,1.775,1.459,4.62,4.62,0,0,0,2.215.536,6.807,6.807,0,0,0,3.313-.738,5.943,5.943,0,0,0,2.171-2.021A8.844,8.844,0,0,0,238.4-6.53a18.143,18.143,0,0,0,.364-3.7Zm-7.031-13.816a10.98,10.98,0,0,1,3.349.475,9.126,9.126,0,0,1,2.619,1.3,8.727,8.727,0,0,1,1.942,1.942,11.357,11.357,0,0,1,1.327,2.391,12.781,12.781,0,0,1,.756,2.646,15.951,15.951,0,0,1,.237,2.725,18.366,18.366,0,0,1-.246,2.953,16.569,16.569,0,0,1-.765,2.953,13.664,13.664,0,0,1-1.336,2.725,9.991,9.991,0,0,1-1.951,2.25,8.828,8.828,0,0,1-2.61,1.529A9.275,9.275,0,0,1,231.732.4a11.068,11.068,0,0,1-3.41-.483A9.009,9.009,0,0,1,225.7-1.4a8.562,8.562,0,0,1-1.916-1.96A11.052,11.052,0,0,1,222.5-5.766a13.64,13.64,0,0,1-.721-2.663,16.706,16.706,0,0,1-.229-2.733,19.2,19.2,0,0,1,.237-2.962,16.754,16.754,0,0,1,.738-2.953,13.173,13.173,0,0,1,1.3-2.7,9.46,9.46,0,0,1,1.934-2.215,8.864,8.864,0,0,1,2.619-1.5,9.534,9.534,0,0,1,3.354-.555Zm23.01.316a9.067,9.067,0,0,1,3.182.5,6.066,6.066,0,0,1,2.2,1.362,5.424,5.424,0,0,1,1.274,1.986,6.881,6.881,0,0,1,.413,2.391,6.488,6.488,0,0,1-.483,2.5,5.952,5.952,0,0,1-1.389,2.039,6.594,6.594,0,0,1-2.224,1.38,8.184,8.184,0,0,1-2.971.51h-4.57V-1.3h2.883V0h-8.789V-1.3h2.883V-22.43h-2.883v-1.3Zm-4.57,11.3h4.148a3.62,3.62,0,0,0,1.626-.369,4,4,0,0,0,1.3-1.028,4.779,4.779,0,0,0,.861-1.582,6.331,6.331,0,0,0,.308-2.013,6.808,6.808,0,0,0-.29-2.048,4.719,4.719,0,0,0-.826-1.582,3.7,3.7,0,0,0-1.292-1.02,3.872,3.872,0,0,0-1.687-.36h-4.148Zm17.385-10h-3.164v-1.3h17.754v6.346h-1.3l-1.934-5.045H270.58v9.1h5.8v-2.584h1.652v6.627H276.38v-2.6h-5.8V-1.3h8.648l1.916-5.027h1.283V0H264.393V-1.3h3.164Zm25.611,11.373h-2.742V-1.3h2.848V0H284.52V-1.3h2.848V-22.43H284.52v-1.3h10.441a9.124,9.124,0,0,1,3.2.5,6.066,6.066,0,0,1,2.2,1.362,5.328,5.328,0,0,1,1.266,1.986,7.015,7.015,0,0,1,.4,2.391,6.715,6.715,0,0,1-.387,2.312,5.8,5.8,0,0,1-1.1,1.872,5.838,5.838,0,0,1-1.74,1.336,7.807,7.807,0,0,1-2.294.738L302.994-1.3h2.777V0h-5.625Zm-2.742-1.371h4.148a3.581,3.581,0,0,0,1.608-.369,4,4,0,0,0,1.3-1.028,4.9,4.9,0,0,0,.87-1.582,6.168,6.168,0,0,0,.316-2.013,6.622,6.622,0,0,0-.3-2.048,4.842,4.842,0,0,0-.835-1.582,3.7,3.7,0,0,0-1.292-1.02,3.83,3.83,0,0,0-1.67-.36h-4.148Zm51.8-11.3h7.488v1.3h-2.953L340.066,0h-1.652l-6.082-18.4L326.83,0h-1.67l-7.014-22.43h-2.883v-1.3H324.6v1.3h-3.217L326.8-4.94l5.5-18.633h1.512L340.067-4.94l5.15-17.49h-2.988Zm26.613,13.5a25.587,25.587,0,0,0-.185-3.05,20.951,20.951,0,0,0-.562-2.944,15.985,15.985,0,0,0-.949-2.628,8.988,8.988,0,0,0-1.354-2.118,6.046,6.046,0,0,0-1.784-1.415,4.784,4.784,0,0,0-2.232-.519,6.651,6.651,0,0,0-3.287.747,5.893,5.893,0,0,0-2.145,2.03,8.941,8.941,0,0,0-1.16,2.971,17.557,17.557,0,0,0-.352,3.586,23.988,23.988,0,0,0,.158,3.023,21.564,21.564,0,0,0,.545,2.953,16.136,16.136,0,0,0,.94,2.672,9.536,9.536,0,0,0,1.345,2.171A6,6,0,0,0,359.6-1.292a4.62,4.62,0,0,0,2.215.536,6.807,6.807,0,0,0,3.313-.738A5.943,5.943,0,0,0,367.3-3.515a8.844,8.844,0,0,0,1.187-3.015,18.145,18.145,0,0,0,.356-3.7Zm-7.031-13.816a10.98,10.98,0,0,1,3.349.475,9.125,9.125,0,0,1,2.619,1.3,8.727,8.727,0,0,1,1.942,1.942,11.357,11.357,0,0,1,1.327,2.391,12.781,12.781,0,0,1,.756,2.646,15.949,15.949,0,0,1,.237,2.725,18.364,18.364,0,0,1-.246,2.953,16.569,16.569,0,0,1-.765,2.953,13.665,13.665,0,0,1-1.336,2.725,9.99,9.99,0,0,1-1.951,2.25,8.828,8.828,0,0,1-2.61,1.529,9.275,9.275,0,0,1-3.32.555,11.068,11.068,0,0,1-3.41-.483,9.009,9.009,0,0,1-2.62-1.317,8.562,8.562,0,0,1-1.916-1.96,11.052,11.052,0,0,1-1.283-2.408,13.641,13.641,0,0,1-.721-2.663,16.706,16.706,0,0,1-.229-2.733,19.2,19.2,0,0,1,.237-2.962,16.757,16.757,0,0,1,.738-2.953,13.17,13.17,0,0,1,1.3-2.7,9.459,9.459,0,0,1,1.934-2.215,8.864,8.864,0,0,1,2.619-1.5,9.534,9.534,0,0,1,3.351-.553Zm21.182,12.99H380.25V-1.3h2.85V0h-8.754V-1.3h2.848V-22.43h-2.848v-1.3h10.441a9.124,9.124,0,0,1,3.2.5,6.066,6.066,0,0,1,2.2,1.362,5.329,5.329,0,0,1,1.266,1.986,7.015,7.015,0,0,1,.4,2.391,6.715,6.715,0,0,1-.387,2.312,5.8,5.8,0,0,1-1.1,1.872,5.839,5.839,0,0,1-1.74,1.336,7.807,7.807,0,0,1-2.294.738L392.818-1.3H395.6V0h-5.625Zm-2.742-1.371H384.4a3.581,3.581,0,0,0,1.608-.369,4,4,0,0,0,1.3-1.028,4.9,4.9,0,0,0,.87-1.582,6.168,6.168,0,0,0,.316-2.013,6.622,6.622,0,0,0-.3-2.048,4.842,4.842,0,0,0-.835-1.582,3.7,3.7,0,0,0-1.292-1.02,3.83,3.83,0,0,0-1.67-.36H380.25ZM419.449-1.3V0H409.9V-1.3h2.707l-9.07-10.336h-.9V-1.3h2.848V0h-8.543V-1.3h2.637V-22.43h-2.637v-1.3h8.543v1.3h-2.848v9.33h.545l9.668-9.334H410.2v-1.3h7.77v1.3h-3.023l-9.035,8.824L416.8-1.3Zm3.393-5.115a10.593,10.593,0,0,0,.6,2.646,5.219,5.219,0,0,0,1.055,1.74,3.715,3.715,0,0,0,1.45.949,5.411,5.411,0,0,0,1.819.29,5.707,5.707,0,0,0,1.96-.316A4.138,4.138,0,0,0,431.191-2a3.808,3.808,0,0,0,.914-1.371,4.813,4.813,0,0,0,.316-1.784,3.814,3.814,0,0,0-.475-1.934,4.782,4.782,0,0,0-1.371-1.477q-.352-.246-.932-.633t-1.283-.835q-.7-.448-1.45-.932l-1.406-.9q-.659-.422-1.178-.747t-.765-.483a9.663,9.663,0,0,1-1.1-.853,4.98,4.98,0,0,1-.905-1.09,5.647,5.647,0,0,1-.615-1.415,6.608,6.608,0,0,1-.229-1.828,5.257,5.257,0,0,1,.5-2.285,5.372,5.372,0,0,1,1.424-1.828,6.789,6.789,0,0,1,2.241-1.213,9.306,9.306,0,0,1,2.953-.439,12.76,12.76,0,0,1,2.083.167,11.616,11.616,0,0,1,1.881.466,8.177,8.177,0,0,1,1.582.729,5.7,5.7,0,0,1,1.222.976v4.359h-2.18a12.065,12.065,0,0,0-.527-2.725,4.809,4.809,0,0,0-.949-1.7,3.068,3.068,0,0,0-1.38-.879,6.118,6.118,0,0,0-1.8-.246,5.041,5.041,0,0,0-1.969.343,3.721,3.721,0,0,0-1.327.914,3.429,3.429,0,0,0-.747,1.318,5.228,5.228,0,0,0-.229,1.538,3.8,3.8,0,0,0,.4,1.688,3.177,3.177,0,0,0,1.248,1.336q.211.141.756.483t1.248.8q.7.457,1.494.958t1.494.958l1.248.809q.545.352.773.492a7.12,7.12,0,0,1,2.382,2.294,5.88,5.88,0,0,1,.782,3.1A5.882,5.882,0,0,1,434.8-3.41a5.737,5.737,0,0,1-1.494,1.986,7.263,7.263,0,0,1-2.382,1.336,9.538,9.538,0,0,1-3.16.488,13.281,13.281,0,0,1-2.4-.2,11.087,11.087,0,0,1-1.986-.545,7.877,7.877,0,0,1-1.556-.791,5.484,5.484,0,0,1-1.107-.958V-6.416ZM449.684-22.43H446.52v-1.3h17.754v6.346h-1.3l-1.934-5.045h-8.332v9.1h5.8v-2.584h1.652v6.627h-1.652v-2.6h-5.8V-1.3h8.648l1.916-5.027h1.283V0H446.52V-1.3h3.164ZM467.367-1.652a2.169,2.169,0,0,1,.167-.853,2.131,2.131,0,0,1,.457-.686,2.13,2.13,0,0,1,.686-.457,2.169,2.169,0,0,1,.853-.167,2.169,2.169,0,0,1,.853.167,2.13,2.13,0,0,1,.686.457,2.13,2.13,0,0,1,.457.686,2.169,2.169,0,0,1,.167.853,2.169,2.169,0,0,1-.167.853,2.13,2.13,0,0,1-.457.686,2.13,2.13,0,0,1-.686.457,2.169,2.169,0,0,1-.853.167,2.169,2.169,0,0,1-.853-.167,2.13,2.13,0,0,1-.686-.457,2.13,2.13,0,0,1-.457-.686,2.169,2.169,0,0,1-.167-.853Z" transform="translate(930 4141.522)"/>
      </g>
    </g>
  </g>
</svg>
