<svg xmlns="http://www.w3.org/2000/svg" width="670" height="112.48" viewBox="0 0 670 112.48">
  <g id="sec06-tit03" transform="translate(-850 -3816)">
    <rect id="長方形_250" data-name="長方形 250" width="670" height="112.48" transform="translate(850 3816)" fill="none"/>
    <g id="グループ_902" data-name="グループ 902" transform="translate(-79.5)">
      <path id="パス_147" data-name="パス 147" d="M10.768-11.008a9.846,9.846,0,0,0,.912-1.456c.32-.048.464-.144.464-.3a.252.252,0,0,0-.192-.224l-1.344-.4c-.192.864-.352,1.44-.64,2.384H6.8c.352-.5.56-.832.9-1.392.336-.048.512-.16.512-.352,0-.112-.1-.208-.288-.272L6.64-13.44A18.1,18.1,0,0,1,3.888-8.48l.288.336A12.4,12.4,0,0,0,5.9-9.824v7.9h8.72l.64.128v-.9l-.64.128h-3.36V-4.8H13.9l.64.128v-.9l-.64.128h-2.64V-7.6H13.9l.64.128v-.9l-.64.128h-2.64v-2.128h3.072l.64.128v-.9l-.64.128Zm-.7,6.208v2.24H7.152V-4.8Zm0-.64H7.152V-7.6h2.912Zm0-2.8H7.152v-2.128h2.912ZM3.712-1.024A4.152,4.152,0,0,0,7.168.72c.96.064,3.3.112,5.7.112.4,0,1.184,0,2.112-.016A8.048,8.048,0,0,1,15.344-.5c-.944.032-3.968.08-5.376.08L8.032-.432A9.527,9.527,0,0,1,5.664-.64a2.935,2.935,0,0,1-1.488-.832V-7.36h-2.8l-.64-.128v.9l.64-.128H2.9v5.36A16.78,16.78,0,0,1,.64-.512L1.152.9a.27.27,0,0,0,.24.16c.144,0,.272-.192.336-.528A13.573,13.573,0,0,0,3.68-.992Zm1.04-10.72a7.472,7.472,0,0,0-3.168-1.168l-.192.4a11.1,11.1,0,0,1,2.5,2.224Zm21.5-.96c.192-.144.256-.208.256-.32,0-.144-.112-.208-.352-.208h-1.3v12.4C24.9.368,25.456.7,27.44.7h2.912c1.12,0,1.568-.432,1.664-1.6l.176-2.08-.736-.1-.144,1.648c-.064.64-.288.832-.96.848H27.728c-1.168,0-1.488-.192-1.472-.912V-6.48l.176-.08a19.558,19.558,0,0,0,4.7-2.72,1.685,1.685,0,0,0,.288.048.333.333,0,0,0,.336-.288.383.383,0,0,0-.16-.256L30.352-10.8a17.677,17.677,0,0,1-4.1,3.728ZM20.032,1.184H21.36V-9.488c.448-.9.848-1.776,1.3-2.912q.384-.072.384-.336c0-.112-.112-.224-.272-.272L21.28-13.44A30.179,30.179,0,0,1,17.472-4.8l.368.3a15.867,15.867,0,0,0,2.192-2.7ZM42.24-2.16h1.312V-4.88c1.088-.336,2.144-.608,4.24-1.088a1.9,1.9,0,0,0,.48.08.287.287,0,0,0,.32-.288.706.706,0,0,0-.112-.3L47.9-7.44l-.672.3c-.752.224-1.3.384-1.536.464l-2.112.7-.048.016a2.359,2.359,0,0,0-.5-1.568,2.33,2.33,0,0,0-1.648-.608,5.237,5.237,0,0,0-2.8.816c.592-.88.96-1.456,1.776-2.864h.848c2.08-.016,3.12-.064,5.136-.24l.16-1.168L45.3-11.1c-1.952.144-2.336.16-4.464.192h-.064l.736-1.312c.432-.144.512-.208.512-.368,0-.128-.112-.224-.336-.3l-1.264-.432-.224.7c-.464.928-.656,1.328-.88,1.728-.9-.016-1.552-.032-2.88-.08l-.992-.4.08,1.1c1.632.064,2,.08,3.392.1A42,42,0,0,1,35.184-4.9l1.008.88L37.6-5.856a5.181,5.181,0,0,1,3.424-1.488.943.943,0,0,1,1.072.768,4.261,4.261,0,0,1,.144,1.12,17.57,17.57,0,0,0-2.048.912c-1.664.9-2.4,1.76-2.4,2.848A2,2,0,0,0,38.88.08a9.909,9.909,0,0,0,4.384.672A27.429,27.429,0,0,0,46.736.56V-.88a19.563,19.563,0,0,1-3.712.352,8.9,8.9,0,0,1-3.568-.512,1,1,0,0,1-.544-.88c0-.9.992-1.648,3.328-2.512Zm22.624-8.464.64.128v-.9l-.64.128H61.952a7.536,7.536,0,0,0,1.472-1.312c.32-.048.464-.144.464-.32,0-.112-.1-.192-.224-.24l-1.344-.3a9.939,9.939,0,0,1-1.088,2.128l-.032.048H56.128l-.64-.128v.9l.64-.128h3.328a15.036,15.036,0,0,1-4.368,2.912l.16.4a14.2,14.2,0,0,0,4.08-1.872c.272.352.416.56.544.752a15.865,15.865,0,0,1-4.544,3.12l.176.4A12.543,12.543,0,0,0,60.336-7.5a5.624,5.624,0,0,1,.272,1.056,16.51,16.51,0,0,1-5.52,4.16l.176.416a13.3,13.3,0,0,0,5.488-3.216,1.221,1.221,0,0,0-.016.272c-.112,2.544-.336,3.072-1.312,3.04h-1.28V-1.1h1.472c1.024,0,1.584-.208,1.856-.7A6.612,6.612,0,0,0,61.9-4.432a8.652,8.652,0,0,0-.08-1.264,15.829,15.829,0,0,1,2.944,3.552l.912-1.168a11.289,11.289,0,0,0-3.92-2.8c-.064-.272-.112-.416-.16-.576A10.157,10.157,0,0,0,64.576-8.56c.352-.016.512-.112.512-.288,0-.1-.08-.192-.208-.272l-1.056-.64A16.054,16.054,0,0,1,61.5-7.168l-.048.048a5.545,5.545,0,0,0-1.712-2.368,12.616,12.616,0,0,0,1.312-1.136ZM54.5-7.36h-2.64l-.64-.128v.9l.64-.128h1.376v5.376L52.9-1.2a11.485,11.485,0,0,1-1.76.688l.5,1.392a.3.3,0,0,0,.24.176c.16,0,.288-.176.368-.528a14.715,14.715,0,0,0,1.792-1.552A3.8,3.8,0,0,0,56.3.512a32.564,32.564,0,0,0,6.288.32c.656,0,1.632-.016,2.88-.032a10.287,10.287,0,0,1,.384-1.264c-1.312.08-3.7.128-5.664.128a16.041,16.041,0,0,1-4.5-.336,3.152,3.152,0,0,1-1.2-.752Zm.624-4.4A7.523,7.523,0,0,0,52-12.912l-.192.4a10.218,10.218,0,0,1,2.416,2.144Zm1.792-1.408a9.452,9.452,0,0,1,1.072,1.84l1.264-.752a4.961,4.961,0,0,0-2-1.312ZM79.44-8.48a22.679,22.679,0,0,0,2.608-.3l.1-1.024-.976.368c-.64.1-1.12.144-1.728.192v-2.384c.224-.144.32-.256.32-.4s-.128-.256-.32-.272l-1.52-.112.128.944v2.32c-.5.016-1.584.032-2.224.032-.944,0-1.44-.016-2.5-.064l-.736-.288.1,1.008c.72.064,1.3.08,2.336.08s2.56-.016,3.024-.032v2.7c-.016,2.672-.48,3.968-1.808,5.12A6.276,6.276,0,0,1,73.584.72l.112.48A7.241,7.241,0,0,0,76.88.192c1.952-1.264,2.576-2.672,2.56-5.84Zm3.408-3.552A3.048,3.048,0,0,0,81.04-13.6l-.208.208a6.527,6.527,0,0,1,1.088,1.936ZM71.024-.512a22.845,22.845,0,0,1-.56-5.584,36.511,36.511,0,0,1,.4-5.456c.224-.128.3-.224.3-.368,0-.176-.128-.272-.4-.3L69.392-12.4l.064.928A49.166,49.166,0,0,0,69.072-5.9a26.7,26.7,0,0,0,.56,5.648ZM79.44-13.136a6.782,6.782,0,0,1,.88,2.08l1.008-.512a3.349,3.349,0,0,0-1.664-1.744Zm9.344,3.344A47.775,47.775,0,0,1,85.456.192L86.88.608a55.506,55.506,0,0,0,3.3-10.432,38.155,38.155,0,0,0,5.344-.4l.064-1.1-1.1.48c-1.424.16-2.016.224-3.36.272-.064,0-.4.016-.784.032v-.032l.048-.24c.064-.32.128-.624.3-1.472.192-.128.288-.24.288-.384a.3.3,0,0,0-.272-.272L89.3-13.232l-.032,1.008c-.144.768-.176.992-.336,1.728H86.32l-1.008-.336.1,1.072h1.04c.56,0,.768,0,1.744-.016Zm2.976,5.52a4.509,4.509,0,0,0-.544,2.112c0,1.872,1.536,2.7,4.976,2.7A16.947,16.947,0,0,0,98.9.352V-1.2a11.781,11.781,0,0,1-3.056.368,6.459,6.459,0,0,1-3.056-.56A1.4,1.4,0,0,1,92.032-2.7a4.887,4.887,0,0,1,.24-1.424Zm6.5-3.952a10.347,10.347,0,0,0-1.7-.128,10.065,10.065,0,0,0-3.184.5,4.742,4.742,0,0,0-1.136.528l.128.464a16.052,16.052,0,0,1,2.96-.256,10.444,10.444,0,0,1,2.928.336ZM101.52-.576h1.28V-9.792h-1.28v-.576h2.736l3.52,8.016,3.392-8.016h2.672v.576h-1.28V-.576h1.28V0h-3.92V-.576h1.28v-8.08L107.776-.592h-.736L103.488-8.72V-.576h1.232V0h-3.2Zm18.7,0V0h-4.5V-.576H117.3V-9.792h-1.5v-.576h4.368v.576h-1.5V-.576Zm1.888,0h1.28V-9.792h-1.28v-.576h2.608l4.816,7.776v-7.2h-1.28v-.576H131.5v.576h-1.28V0h-.736L124.08-8.816v8.24h1.28V0h-3.248Zm15.616,0V0h-4.5V-.576H134.8V-9.792h-1.5v-.576h4.368v.576h-1.5V-.576Zm9.536.864a9.231,9.231,0,0,0,4.4-1.6A5.661,5.661,0,0,0,153.968-6c0-3.52-2.608-5.84-6.592-5.84a7.348,7.348,0,0,0-4.8,1.584,6.551,6.551,0,0,0-2.352,5.1c0,2.4,1.1,4.144,2.608,4.144a2.787,2.787,0,0,0,2.016-1.1A9.81,9.81,0,0,0,146.624-5.2a26.04,26.04,0,0,0,1.36-5.808,4.313,4.313,0,0,1,2.464.816,4.9,4.9,0,0,1,1.968,4.08,5.581,5.581,0,0,1-2.736,4.848,9.354,9.354,0,0,1-2.544,1.056Zm-.688-11.328a30.1,30.1,0,0,1-.736,3.9c-.8,3.04-2.048,5.3-2.944,5.3-.752,0-1.36-1.424-1.36-3.248a6.286,6.286,0,0,1,1.552-4.192A5.062,5.062,0,0,1,146.576-11.04ZM159.616.192a4.943,4.943,0,0,1-1.832-.32,2.9,2.9,0,0,1-1.192-.784V-2.8h.864a3.181,3.181,0,0,0,.72,1.912,2.006,2.006,0,0,0,1.472.552,2.105,2.105,0,0,0,1.528-.52,1.86,1.86,0,0,0,.536-1.4,1.789,1.789,0,0,0-.88-1.6L157.984-5.7a3.419,3.419,0,0,1-1.016-.944,2.276,2.276,0,0,1-.36-1.312,2.361,2.361,0,0,1,.84-1.9,3.464,3.464,0,0,1,2.312-.712,4.66,4.66,0,0,1,1.64.272,3.072,3.072,0,0,1,1.192.768v1.936h-.864a3.418,3.418,0,0,0-.608-1.928,1.731,1.731,0,0,0-1.36-.536,1.869,1.869,0,0,0-1.464.512A1.788,1.788,0,0,0,157.84-8.3a1.522,1.522,0,0,0,.736,1.376l2.8,1.792a4.042,4.042,0,0,1,1.256,1.144,2.414,2.414,0,0,1,.376,1.336,2.73,2.73,0,0,1-.4,1.464,2.709,2.709,0,0,1-1.16,1.016A4.172,4.172,0,0,1,159.616.192Zm9.968,0a3.543,3.543,0,0,1-2.544-.9A3.383,3.383,0,0,1,166.1-3.28V-9.792h-1.28v-.576h3.92v.576h-1.28V-3.12a2.588,2.588,0,0,0,.664,1.968,2.454,2.454,0,0,0,1.752.624,2.552,2.552,0,0,0,1.784-.632,2.5,2.5,0,0,0,.7-1.944V-9.792h-1.264v-.576H174.3v.576H173.04V-3.04A3.062,3.062,0,0,1,172.1-.688,3.536,3.536,0,0,1,169.584.192Zm16.208-9.984h-1.2L181.152,0h-.736l-3.5-9.792h-1.28v-.576h3.984v.576h-1.28l2.8,7.856,2.8-7.856h-1.28v-.576h3.136Zm.5,9.968a.926.926,0,0,1-.68-.28.926.926,0,0,1-.28-.68.926.926,0,0,1,.28-.68.926.926,0,0,1,.68-.28.926.926,0,0,1,.68.28.926.926,0,0,1,.28.68.926.926,0,0,1-.28.68A.926.926,0,0,1,186.288.176Zm10.96-1.568h5.312v-4.5H191.008V-.3h1.2V-1.392h3.856V-.144c.032.768.416,1.024,1.584,1.056h5.008c.864,0,1.216-.3,1.344-1.168l.144-1.184L203.52-1.5l-.128.8c-.08.432-.256.56-.784.576H197.84c-.528-.032-.608-.08-.592-.48Zm0-3.856h4.08V-4h-4.08Zm0,1.888h4.08v1.328h-4.08Zm-1.184,1.328h-3.856V-3.36h3.856Zm0-1.968h-3.856V-5.248h3.856Zm0-6.4v3.856h1.184V-10.4h5.312a15.071,15.071,0,0,1-.784,2.208l.416.192a6.015,6.015,0,0,0,1.952-3.04h-6.9v-1.1h4.96l.64.128v-.9l-.64.128H191.584l-.624-.128v.9l.624-.128h4.48v1.1h-4.752v-.048L191.3-11.5h-.544a4.387,4.387,0,0,1-1.312,2.688l.992,1.12a4.282,4.282,0,0,0,.88-2.7Zm-4.3,3.392h3.5v-.64h-3.5Zm0-1.7h3.5v-.64h-3.5Zm6.288,1.7h3.568v-.64h-3.568Zm0-1.7H201.6v-.64h-3.552ZM211.52-2.88A21.5,21.5,0,0,1,206.592.592l.208.4a17.508,17.508,0,0,0,5.7-3.216,24.732,24.732,0,0,1,3.168,2.56l.912-1.3a32.474,32.474,0,0,0-3.136-2.128c.624-.608.96-.976,1.808-1.952h.08c.256,0,.512-.16.512-.32,0-.08-.1-.176-.208-.24l-1.216-.592a14.537,14.537,0,0,1-2.048,2.5,25.376,25.376,0,0,0-4.352-1.776l-.224.416a22.728,22.728,0,0,1,3.024,1.744Zm-1.728-8.5h9.872l.64.128v-.9l-.64.128h-9.44l.032-.032.048-.08c.128-.176.24-.368.368-.56.32-.032.5-.144.5-.3,0-.1-.112-.192-.224-.208l-1.456-.24a16.081,16.081,0,0,1-3.216,4.752l.272.336a10.489,10.489,0,0,0,3.216-2.976Zm8.736,3.936H207.92l-.624-.128v.9l.624-.128h9.28A18.084,18.084,0,0,0,218.3,0c.384.768.88,1.184,1.408,1.184.464,0,.784-.368.944-1.04a12.367,12.367,0,0,0,.32-2.48l-.576-.112a11.714,11.714,0,0,1-.336,2.08c-.032.16-.128.272-.208.272-.112,0-.224-.144-.4-.56a16.927,16.927,0,0,1-.928-6.1ZM209.744-9.2h8.416l.64.128v-.9l-.64.128h-8.416l-.624-.128v.9Zm14.96-2.256V1.184h1.376V.144h8.784v.928h1.376V-11.456h-6.464a6.3,6.3,0,0,0,1.008-1.184c.336-.08.48-.192.48-.368,0-.128-.16-.224-.4-.256l-1.536-.176a12.8,12.8,0,0,1-.5,1.984Zm1.376,3.5v-2.864h8.784v2.864Zm0,.64h8.784V-4.4H226.08Zm0,3.552h8.784V-.5H226.08Zm18.672-.528h2.976V-8.816h-2.976V-10h2.784l.64.128v-.9l-.64.128h-2.784v-1.392a20.792,20.792,0,0,0,2.144-.32,2.1,2.1,0,0,0,.5.08c.176,0,.3-.1.3-.24,0-.1-.032-.144-.208-.272l-.816-.656a37.248,37.248,0,0,1-6.448,1.232l.064.48c1.2-.032,2.192-.08,3.408-.192v1.28h-3.1l-.64-.128v.9l.64-.128h3.1v1.184h-2.96v4.528h2.96v1.216h-2.5l-.64-.128v.9l.64-.128h2.5V-.944c-1.712.112-2.976.192-3.76.224l.432,1.152c.064.16.176.288.288.288.128,0,.208-.1.3-.352A44.387,44.387,0,0,0,248-.864l-.08-.448c-1.056.128-1.072.128-2.176.208-.208.016-.5.048-.992.08V-2.432h2.48l.64.128v-.9l-.64.128h-2.48ZM243.7-4.88H241.84V-6.3H243.7Zm1.056,0V-6.3h1.872V-4.88ZM243.7-6.9H241.84V-8.224H243.7Zm1.056,0V-8.224h1.872V-6.9Zm4.176-2.768-.624-.128v.9l.624-.128h.912c-.192,5.7-.992,8.224-3.072,9.9l.288.4a6.545,6.545,0,0,0,3.152-3.936,23.132,23.132,0,0,0,.864-6.368h1.744c-.064,2.464-.352,7.28-.512,8.224-.128.992-.256,1.184-.88,1.2h-1.248v.672h1.84A1.266,1.266,0,0,0,253.5-.192c.192-.96.432-4.72.592-9.472H251.1c.032-.736.048-1.536.048-2.448v-.608c.208-.144.256-.208.256-.32,0-.144-.112-.208-.336-.208H249.9v1.136c0,1.184-.016,1.968-.032,2.448Zm15.744,6h5.008V-9.68h-5.008v-1.44h5.616l.624.128v-.9l-.624.128h-5.616v-1.152c.208-.144.256-.208.256-.3,0-.16-.112-.224-.336-.224H263.36v1.68h-5.392l-.624-.128v.9l.624-.128h5.392v1.44h-4.784v6.016h4.784v1.536h-5.952l-.64-.128v.9l.64-.128h5.952V1.28h1.312V-1.488h6.176l.64.128v-.9l-.64.128h-6.176Zm0-2.752h3.7V-4.3h-3.7Zm-1.312,0V-4.3h-3.472V-6.416Zm1.312-2.624h3.7v1.984h-3.7Zm-1.312,0v1.984h-3.472V-9.04Zm16.656-3.392c.192-.16.256-.272.256-.4a.3.3,0,0,0-.3-.272h-1.584l.272.96,1.008,4.864A14.437,14.437,0,0,0,277.68-6.1c-1.568,1.12-2.24,2.128-2.24,3.344a2.857,2.857,0,0,0,1.92,2.72,11.816,11.816,0,0,0,4.464.592,30.476,30.476,0,0,0,4.544-.272V-1.264a24.115,24.115,0,0,1-4.688.432c-3.616,0-5.152-.592-5.152-2.016,0-1.9,2.9-3.632,9.232-5.536a.887.887,0,0,0,.432.144.291.291,0,0,0,.272-.256.553.553,0,0,0-.048-.192l-.56-1.3-.56.416c-1.248.48-2.448.928-3.584,1.376-.32.128-.544.208-.784.32Zm16.7,8.912c-.368,1.456-.864,2.432-1.248,2.432-.368,0-.944-.752-1.392-1.776a18.965,18.965,0,0,1-.9-6.848v-1.024c.272-.192.352-.288.352-.448s-.16-.272-.4-.288l-1.44-.1.08.96c.016,2.064.032,3.168.032,3.312a15.063,15.063,0,0,0,.96,5.04c.688,1.664,1.552,2.544,2.464,2.544.9,0,1.68-1.28,2.192-3.584Zm8.256.128a12.127,12.127,0,0,0-4.1-7.472l-.4.3A19.488,19.488,0,0,1,303.44-2.7Zm6.976,4.64A10.75,10.75,0,0,0,318.224-1.2a5.93,5.93,0,0,0,1.712-4.4c0-2.608-1.424-3.872-4.336-3.872a21.226,21.226,0,0,0-5.808,1.024l-.848.08.224,1.248c.048.224.16.352.3.352.16,0,.272-.112.416-.4a15.192,15.192,0,0,1,5.76-1.472,3.091,3.091,0,0,1,1.92.608,3.063,3.063,0,0,1,.768,2.256,6,6,0,0,1-.784,3.024A5.873,5.873,0,0,1,315.52-.72,11.678,11.678,0,0,1,311.872.752Zm5.84-13.376a9.089,9.089,0,0,0-4.592-.912h-.448l-.88.016h-.448l-.048.544a12.934,12.934,0,0,1,5.328,1.632ZM328.864.128A9.62,9.62,0,0,0,324.4-2.928l-.3.384a14.281,14.281,0,0,1,3.456,3.824Zm14.976-4.96A14.151,14.151,0,0,1,340.928-.4l.224.352a11.51,11.51,0,0,0,3.088-3.1l.032-.048V1.184h1.248V-3.328a12.484,12.484,0,0,1,1.664,2.16l.832-1.12a7.5,7.5,0,0,0-2.112-1.3c-.32-.128-.32-.144-.384-.16V-4.832h2.32l.64.128v-.9l-.64.128h-2.32V-7.424H348.1l.624.128v-.9l-.624.128H346.08A20.492,20.492,0,0,0,347.3-10.88h.592l.64.128v-.9l-.64.128h-2.352v-1.3c.208-.144.256-.208.256-.32,0-.144-.112-.208-.336-.208h-1.232v1.824h-2.432l-.64-.128v.9l.64-.128h.512l.016.048a17.1,17.1,0,0,1,.528,2.448l.032.16.032.16h-1.36l-.624-.128v.9l.624-.128h2.72v1.952h-2.48l-.64-.128v.9l.64-.128Zm2.176-6.048a26.24,26.24,0,0,1-.464,2.768l-.016.048h-2.384l1.008-.64a9.2,9.2,0,0,0-1.328-2.128l-.032-.048Zm4.528-1.184-1.264-.464v1.968a48.287,48.287,0,0,1-.256,7.12,7.745,7.745,0,0,1-1.968,4.3l.272.336a6.422,6.422,0,0,0,2.816-4.064,18.945,18.945,0,0,0,.384-4.48h2.1V1.184h1.28V-7.344h1.1l.64.128v-.9l-.64.128h-4.464v-3.552a19.084,19.084,0,0,0,3.952-.5,1.66,1.66,0,0,0,.368.048c.128,0,.272-.1.272-.208a.292.292,0,0,0-.1-.16l-.928-.96a18.259,18.259,0,0,1-3.52,1.232Zm11.2,2.272A47.774,47.774,0,0,1,358.416.192l1.424.416a55.5,55.5,0,0,0,3.3-10.432,38.154,38.154,0,0,0,5.344-.4l.064-1.1-1.1.48c-1.424.16-2.016.224-3.36.272-.064,0-.4.016-.784.032v-.032l.048-.24c.064-.32.128-.624.3-1.472.192-.128.288-.24.288-.384a.3.3,0,0,0-.272-.272l-1.408-.288-.032,1.008c-.144.768-.176.992-.336,1.728H359.28l-1.008-.336.1,1.072h1.04c.56,0,.768,0,1.744-.016Zm2.976,5.52a4.509,4.509,0,0,0-.544,2.112c0,1.872,1.536,2.7,4.976,2.7a16.946,16.946,0,0,0,2.7-.192V-1.2a11.781,11.781,0,0,1-3.056.368,6.459,6.459,0,0,1-3.056-.56,1.4,1.4,0,0,1-.752-1.312,4.887,4.887,0,0,1,.24-1.424Zm6.5-3.952a10.348,10.348,0,0,0-1.7-.128,10.065,10.065,0,0,0-3.184.5,4.743,4.743,0,0,0-1.136.528l.128.464a16.052,16.052,0,0,1,2.96-.256,10.444,10.444,0,0,1,2.928.336Zm7.52-2.912c-1.36,0-1.92-.032-2.784-.08l-.864-.368.08,1.088c1.152.08,1.712.1,2.7.1h.624a35.354,35.354,0,0,1-3.632,7.856l1.216.784a42.505,42.505,0,0,0,3.856-8.688c1.216-.048,2.544-.16,3.872-.336l.048-1.136-.992.5c-1.136.128-1.792.192-2.672.24a1.913,1.913,0,0,1,.064-.224c.048-.144.192-.576.336-1.04.24-.16.288-.24.288-.352a.259.259,0,0,0-.224-.256l-1.408-.272-.128.816c-.08.32-.144.56-.176.672l-.192.656Zm10.208,9.488a9.77,9.77,0,0,0-3.9-2.128V-6.768c.256-.176.32-.24.32-.352,0-.16-.144-.256-.384-.256l-1.264-.016.048,1.184v2.176a8.624,8.624,0,0,0-1.408-.112c-2.08,0-3.328.9-3.328,2.4,0,1.52,1.488,2.624,3.536,2.624a2.432,2.432,0,0,0,2.256-.96,2.427,2.427,0,0,0,.224-1.2V-2.608A10.572,10.572,0,0,1,388-.448Zm-5.184.3c0,.768-.448,1.136-1.392,1.136-1.472,0-2.56-.688-2.56-1.632a1.1,1.1,0,0,1,.288-.736,2.756,2.756,0,0,1,2-.592,5.878,5.878,0,0,1,1.664.224Zm5.376-7.9A7.93,7.93,0,0,0,386-9.76a8.027,8.027,0,0,0-2.816.416l.032.448a11.931,11.931,0,0,1,5.024.96Zm4.112,2.928v7.5h1.328V.416h8.4v.64H404.3V-6.32Zm1.328.64h8.4v1.344h-8.4Zm0,5.456V-1.68h8.4V-.224Zm0-2.1V-3.7h8.4V-2.32ZM392.4-7.808h12.752v-5.04H392.4Zm11.44-.64H393.712v-1.6H403.84Zm0-2.24H393.712v-1.52H403.84ZM417.248-8.48v1.5h-3.312v3.744h3.024A6.013,6.013,0,0,1,412.608.816l.128.464c2.96-.592,4.864-2.016,5.344-4a6.845,6.845,0,0,0,4.192,3.92,7.066,7.066,0,0,1,.7-1.28,7.606,7.606,0,0,1-4.592-3.152h3.52V-6.976h-3.488v-1.5h1.648l.64.128V-9.12a10.705,10.705,0,0,0,1.616.976,6.055,6.055,0,0,1,.656-1.28,10.808,10.808,0,0,1-4.752-3.232c.3-.128.4-.208.4-.32a.275.275,0,0,0-.256-.224l-1.184-.24a15.461,15.461,0,0,1-4.4,5.136l.272.384a11.518,11.518,0,0,0,2.1-1.248v.816l.624-.128Zm1.168,2.1H420.7v2.56h-2.432a19.867,19.867,0,0,0,.144-2.512Zm-1.168,0a20.915,20.915,0,0,1-.176,2.56h-1.984v-2.56Zm.7-5.872a10.368,10.368,0,0,0,2.624,3.04l-.512.1h-4.288l-.544-.112a11.493,11.493,0,0,0,2.7-2.976Zm-8.96-.576V1.184h1.232V-12.192H412.1a33.175,33.175,0,0,1-1.216,4.208,10.733,10.733,0,0,1,.8,1.664,6.808,6.808,0,0,1,.3,1.84,3.464,3.464,0,0,1-.224,1.344,1.047,1.047,0,0,1-.944.416h-.3v.672h.352c1.152,0,1.712-.24,2.048-.832a3.506,3.506,0,0,0,.336-1.536,4.531,4.531,0,0,0-.48-1.984,7.026,7.026,0,0,0-1.216-1.648,17.633,17.633,0,0,0,2.112-4.784ZM425.408-8.64l.256.992c.064.192.144.288.272.288s.224-.08.32-.32a21.853,21.853,0,0,1,2.416-.576,29.733,29.733,0,0,1-3.184,8l1.184.688A28.137,28.137,0,0,0,430.1-8.48a16.418,16.418,0,0,1,2.08-.192,1.1,1.1,0,0,1,1.024.448,3.975,3.975,0,0,1,.224,1.7,17.732,17.732,0,0,1-.752,5.024c-.352,1.024-.688,1.44-1.136,1.44a3.218,3.218,0,0,1-1.856-1.024l-.416.64a4.35,4.35,0,0,0,2.688,1.44c.848,0,1.408-.512,1.9-1.728a15.87,15.87,0,0,0,.912-5.488,4.6,4.6,0,0,0-.384-2.24c-.352-.64-1.136-.96-2.336-.96-.48,0-1.056.032-1.76.08.16-.688.272-1.328.528-2.752.24-.1.336-.192.336-.32s-.112-.24-.32-.288l-1.36-.3-.016.736c-.224,1.376-.368,2.224-.56,3.088-.992.128-1.984.3-3.04.512Zm14.56-3.3A3.126,3.126,0,0,0,438.1-13.6l-.272.224a6.664,6.664,0,0,1,1.088,2.016Zm-4.416,1.952c1.264,1.744,1.968,3.712,2.624,7.088l1.472-.624c-.608-3.072-2.08-5.712-3.76-6.72Zm.4-3.152a7.259,7.259,0,0,1,.992,2.192L438-11.456a3.1,3.1,0,0,0-1.744-1.888ZM449.76-2.288h3.056V-.656c0,.528-.208.736-.7.736h-.864V.752h1.44c.96,0,1.376-.384,1.36-1.28V-2.576a10.125,10.125,0,0,0,2.128,1.008,5.648,5.648,0,0,1,.464-1.248,9.432,9.432,0,0,1-4.128-1.936H455.9l.64.128v-.9l-.64.128h-8.272c.224-.288.336-.464.7-1.024h6.224v-4.128h-2.24v-1.072h3.488l.624.128v-.9l-.624.128H452.32v-.656c.192-.144.24-.208.24-.32,0-.144-.1-.208-.32-.208h-1.184v1.184h-3.68v-.656c.208-.16.256-.208.256-.32,0-.144-.112-.208-.336-.208h-1.168v1.184h-3.376l-.624-.128v.9l.624-.128h3.376v1.072H444v4.128h2.944l-.048.08a10.956,10.956,0,0,1-.672.944h-3.568l-.64-.128v.9l.64-.128h3.024a13.086,13.086,0,0,1-3.76,2.816l.224.4a9.832,9.832,0,0,0,2.384-1.1V.768h1.232V-2.288h2.768V1.28h1.232Zm-4.768-.64a10.664,10.664,0,0,0,2.128-1.824H451.9a6.37,6.37,0,0,0,1.648,1.824H449.76v-.7c.192-.144.256-.208.256-.32,0-.144-.112-.208-.336-.208h-1.152v1.232Zm2.384-7.616v-1.072h3.68v1.072Zm-2.128,3.488v-1.12h8.064v1.12Zm0-1.76V-9.9h8.064v1.088Zm21.44,6.656H468V-4.88c1.088-.336,2.144-.608,4.24-1.088a1.9,1.9,0,0,0,.48.08.287.287,0,0,0,.32-.288.706.706,0,0,0-.112-.3l-.576-.96-.672.3c-.752.224-1.3.384-1.536.464l-2.112.7-.048.016a2.359,2.359,0,0,0-.5-1.568,2.33,2.33,0,0,0-1.648-.608,5.237,5.237,0,0,0-2.8.816c.592-.88.96-1.456,1.776-2.864h.848c2.08-.016,3.12-.064,5.136-.24l.16-1.168-1.216.48c-1.952.144-2.336.16-4.464.192h-.064l.736-1.312c.432-.144.512-.208.512-.368,0-.128-.112-.224-.336-.3l-1.264-.432-.224.7c-.464.928-.656,1.328-.88,1.728-.9-.016-1.552-.032-2.88-.08l-.992-.4.08,1.1c1.632.064,2,.08,3.392.1a41.994,41.994,0,0,1-3.728,5.28l1.008.88,1.408-1.84a5.181,5.181,0,0,1,3.424-1.488.943.943,0,0,1,1.072.768,4.261,4.261,0,0,1,.144,1.12,17.568,17.568,0,0,0-2.048.912c-1.664.9-2.4,1.76-2.4,2.848A2,2,0,0,0,463.328.08a9.909,9.909,0,0,0,4.384.672A27.428,27.428,0,0,0,471.184.56V-.88a19.563,19.563,0,0,1-3.712.352A8.9,8.9,0,0,1,463.9-1.04a1,1,0,0,1-.544-.88c0-.9.992-1.648,3.328-2.512Zm13.824-.848A3.549,3.549,0,0,1,478.384.464l.224.4a4.476,4.476,0,0,0,2.448-1.632,4.264,4.264,0,0,0,.672-2.24h2.192V.7h1.232V-3.008h1.792l.64.128v-.9l-.64.128h-1.792v-2.32h1.184l.64.128v-.9l-.64.128H479.52l-.64-.128v.9l.64-.128h1.088V-5.6c0,.448-.016,1.152-.048,1.952h-1.632l-.624-.128v.9l.624-.128Zm1.328-2.96h2.08v2.32h-2.144c.048-.7.064-1.344.064-1.952Zm1.808-1.92h4.72V-.3c0,.512-.224.736-.736.736h-1.344V1.1H488.5c.8,0,1.136-.336,1.136-1.152V-12.864h-5.984Zm1.2-.64V-10.1h3.52v1.568Zm0-2.208v-1.488h3.52v1.488Zm-2.816-2.128h-5.776V1.184h1.264V-7.888h4.512Zm-4.512.64h3.312v1.488H477.52Zm3.312,2.128v1.568H477.52V-10.1ZM504.288-8.7l.048-.016a18.751,18.751,0,0,0,2.56-.288l.1-1.024-.976.368c-.672.1-1.136.144-1.728.192V-12.24c.224-.144.32-.256.32-.4s-.128-.256-.32-.272l-1.52-.1.128.928v2.688c-.224.016-1.808.048-2.384.048-.752,0-1.28-.016-2.336-.08L497.44-9.7l.1,1.008c.736.064,1.344.08,2.416.08,1.088,0,2.4-.016,2.944-.032v2.688c-.016,2.688-.464,3.968-1.808,5.136A6.368,6.368,0,0,1,498.432.5l.112.48a7.058,7.058,0,0,0,3.184-1.024C503.68-1.3,504.3-2.7,504.288-5.872ZM495.76-.736a23.018,23.018,0,0,1-.56-5.584,37.039,37.039,0,0,1,.4-5.472c.224-.112.3-.208.3-.368s-.128-.256-.416-.288l-1.376-.176.064.912a52.576,52.576,0,0,0-.368,5.584A26.383,26.383,0,0,0,494.352-.5ZM520.4-11.52c.464-.08.656-.208.656-.432a.45.45,0,0,0-.288-.384l-1.088-.576-.464.448c-1.7.112-2.24.128-5.92.176l-.992-.368.128,1.136c2.928-.016,4.656-.064,6.24-.16l-8.32,7.008.784.944L513.2-5.456a10.129,10.129,0,0,1,4.48-1.12c2.192,0,3.52,1.024,3.52,2.72a3.077,3.077,0,0,1-1.024,2.288,3.556,3.556,0,0,1-1.424.848,5.219,5.219,0,0,0-1.184-1.792,3.935,3.935,0,0,0-2.736-1.216c-1.264,0-2.144.72-2.144,1.76,0,1.488,1.968,2.656,4.48,2.656,3.088,0,5.52-1.952,5.52-4.432,0-2.208-1.888-3.616-4.848-3.616a8.4,8.4,0,0,0-3.024.544ZM517.808-.464a2.54,2.54,0,0,1-.7.064,5.757,5.757,0,0,1-2.736-.64,1.138,1.138,0,0,1-.72-.992c0-.5.448-.832,1.136-.832a3.446,3.446,0,0,1,3.072,2.4Zm10.816-3.264a2.507,2.507,0,0,0-2.544,2.48,2.51,2.51,0,0,0,2.512,2.528,2.513,2.513,0,0,0,2.5-2.512A2.525,2.525,0,0,0,528.624-3.728Zm-.064.736a1.769,1.769,0,0,1,1.792,1.744,1.772,1.772,0,0,1-1.76,1.792,1.782,1.782,0,0,1-1.776-1.776A1.783,1.783,0,0,1,528.56-2.992Z" transform="translate(929 3927.2)"/>
      <path id="パス_146" data-name="パス 146" d="M32.85-2.4V0H19V-2.4h3.9l-3.05-9.05H10.4L7.25-2.4h3.7V0H.5V-2.4H4.3L15-32.4h3.55l10.7,30ZM19-13.95,15.3-24.9h-.25l-3.8,10.95ZM34.4-2.4h3.9V-30H34.4v-2.4H48.25V-30h-3.9V-2.4H54.2l2.5-6.7h3.5V0H34.4Zm27.95,0h3.9V-30h-3.9v-2.4H76.2V-30H72.3V-2.4h9.85l2.5-6.7h3.5V0H62.35ZM91.1-14.45h11.4v2.9H91.1ZM131.4-9.1V0H105.6V-2.4h3.9V-30h-3.9v-2.4H131v9.1h-3.5L124.95-30h-9.4v11.65h5.2v-3.9h3v10.3h-3v-3.9h-5.2V-2.4h9.85l2.5-6.7Zm2.75,6.7h3.9V-30h-3.9v-2.4H148V-30h-3.9V-2.4h9.85l2.5-6.7h3.5V0h-25.8ZM187.9-9.1V0H162.1V-2.4H166V-30h-3.9v-2.4h25.4v9.1H184L181.45-30h-9.4v11.65h5.2v-3.9h3v10.3h-3v-3.9h-5.2V-2.4h9.85l2.5-6.7ZM205.55.6a14.109,14.109,0,0,1-8.425-2.35,13.5,13.5,0,0,1-4.75-5.975A20.3,20.3,0,0,1,190.9-15.45a23.594,23.594,0,0,1,1.55-8.6,14.5,14.5,0,0,1,4.825-6.475A13.339,13.339,0,0,1,205.55-33a16.4,16.4,0,0,1,5.65.85,26.636,26.636,0,0,1,4.4,2.1v6.75h-4.25q-.4-3.9-2.1-5.7A5.6,5.6,0,0,0,205-30.8a6.381,6.381,0,0,0-5.95,3.5,18.021,18.021,0,0,0-1.95,8.85,27.508,27.508,0,0,0,1.225,8.675A12.939,12.939,0,0,0,201.7-4.15a7.031,7.031,0,0,0,4.85,1.95,7.488,7.488,0,0,0,4.9-1.725,8.691,8.691,0,0,0,2.8-5.225h2.6a11.3,11.3,0,0,1-3.825,7.2A11.325,11.325,0,0,1,205.55.6Zm19.3-3h4.75V-30h-4.5l-2.5,6.7h-3.25v-9.1H245.9v9.1h-3.25L240.1-30h-4.45V-2.4h4.75V0H224.85Zm53.95,0V0h-8.95l-9.1-14.7h-2.8V-2.4h3.9V0H248V-2.4h3.9V-30H248v-2.4h15.05q5.15,0,7.8,2.5a8.236,8.236,0,0,1,2.65,6.25,8.391,8.391,0,0,1-1.7,5.2,9.168,9.168,0,0,1-4.7,3.2L275.35-2.4ZM257.95-17.1h4.55a3.911,3.911,0,0,0,3.25-1.925,7.85,7.85,0,0,0,1.35-4.625,7.55,7.55,0,0,0-1.3-4.575A3.939,3.939,0,0,0,262.5-30h-4.55ZM291.1-30V-2.4h4.85V0H280.2V-2.4h4.85V-30H280.2v-2.4h15.75V-30ZM313.15.6a14.109,14.109,0,0,1-8.425-2.35,13.5,13.5,0,0,1-4.75-5.975A20.3,20.3,0,0,1,298.5-15.45a23.594,23.594,0,0,1,1.55-8.6,14.5,14.5,0,0,1,4.825-6.475A13.338,13.338,0,0,1,313.15-33a16.4,16.4,0,0,1,5.65.85,26.636,26.636,0,0,1,4.4,2.1v6.75h-4.25q-.4-3.9-2.1-5.7a5.6,5.6,0,0,0-4.25-1.8,6.381,6.381,0,0,0-5.95,3.5,18.021,18.021,0,0,0-1.95,8.85,27.507,27.507,0,0,0,1.225,8.675A12.939,12.939,0,0,0,309.3-4.15a7.031,7.031,0,0,0,4.85,1.95,7.488,7.488,0,0,0,4.9-1.725,8.691,8.691,0,0,0,2.8-5.225h2.6a11.3,11.3,0,0,1-3.825,7.2A11.325,11.325,0,0,1,313.15.6Zm26.45-3h3.9V-30h-3.9v-2.4h9.65L359.7-9.55l9.75-22.85h9.65V-30h-3.9V-2.4h3.9V0H365.4V-2.4h3.75V-24.75L359.6-2.4h-3.1L346.25-24.7V-2.4h3.7V0H339.6ZM392.3-30V-2.4h4.85V0H381.4V-2.4h4.85V-30H381.4v-2.4h15.75V-30Zm7.15,27.6h3.9V-30h-3.9v-2.4h8.95l14.25,22.3V-30H418.8v-2.4h10.5V-30h-3.9V0h-3.7L406.1-24.65V-2.4h3.75V0h-10.4ZM442-30V-2.4h4.85V0H431.1V-2.4h4.85V-30H431.1v-2.4h15.75V-30ZM16.05,50.6a14.109,14.109,0,0,1-8.425-2.35,13.5,13.5,0,0,1-4.75-5.975A20.3,20.3,0,0,1,1.4,34.55a23.594,23.594,0,0,1,1.55-8.6,14.5,14.5,0,0,1,4.825-6.475A13.339,13.339,0,0,1,16.05,17a16.4,16.4,0,0,1,5.65.85,26.636,26.636,0,0,1,4.4,2.1V26.7H21.85q-.4-3.9-2.1-5.7a5.6,5.6,0,0,0-4.25-1.8,6.381,6.381,0,0,0-5.95,3.5A18.021,18.021,0,0,0,7.6,31.55a27.508,27.508,0,0,0,1.225,8.675A12.939,12.939,0,0,0,12.2,45.85a7.031,7.031,0,0,0,4.85,1.95,7.488,7.488,0,0,0,4.9-1.725,8.691,8.691,0,0,0,2.8-5.225h2.6a11.3,11.3,0,0,1-3.825,7.2A11.325,11.325,0,0,1,16.05,50.6Zm28.85,0a14.334,14.334,0,0,1-8.425-2.3,13.214,13.214,0,0,1-4.75-5.9,19.98,19.98,0,0,1-1.475-7.65,23.654,23.654,0,0,1,1.575-8.65A14.888,14.888,0,0,1,36.7,19.525,13.1,13.1,0,0,1,44.9,17a14.386,14.386,0,0,1,8.375,2.3A13.245,13.245,0,0,1,58.1,25.225a19.747,19.747,0,0,1,1.5,7.625,23.654,23.654,0,0,1-1.575,8.65,14.888,14.888,0,0,1-4.875,6.575A13.179,13.179,0,0,1,44.9,50.6Zm.65-2.2a6.342,6.342,0,0,0,5.925-3.45A18.036,18.036,0,0,0,53.4,36.1,28.517,28.517,0,0,0,51.15,24q-2.25-4.8-6.8-4.8a6.381,6.381,0,0,0-5.95,3.5,18.137,18.137,0,0,0-1.95,8.9,27.9,27.9,0,0,0,2.275,12.05Q41,48.4,45.55,48.4Zm31.8,2.15a12.293,12.293,0,0,1-8.675-2.975Q65.45,44.6,65.45,38.6V20h-3.9V17.6H75.4V20H71.5V40.3a8.02,8.02,0,0,0,1.775,5.625A6.43,6.43,0,0,0,78.25,47.85a7.4,7.4,0,0,0,3.6-.9,6.671,6.671,0,0,0,2.625-2.6,7.9,7.9,0,0,0,.975-4V20h-3.9V17.6H92.1V20H88.2V40.15a10.246,10.246,0,0,1-2.85,7.5Q82.5,50.55,77.35,50.55Zm16.7-2.95h3.9V20h-3.9V17.6H103l14.25,22.3V20H113.4V17.6h10.5V20H120V50h-3.7L100.7,25.35V47.6h3.75V50H94.05Zm37,0h4.75V20h-4.5l-2.5,6.7h-3.25V17.6H152.1v9.1h-3.25L146.3,20h-4.45V47.6h4.75V50H131.05Zm53.95,0V50h-8.95l-9.1-14.7h-2.8V47.6h3.9V50H154.2V47.6h3.9V20h-3.9V17.6h15.05q5.15,0,7.8,2.5a8.236,8.236,0,0,1,2.65,6.25,8.391,8.391,0,0,1-1.7,5.2,9.168,9.168,0,0,1-4.7,3.2l8.25,12.85ZM164.15,32.9h4.55a3.911,3.911,0,0,0,3.25-1.925,7.849,7.849,0,0,0,1.35-4.625,7.55,7.55,0,0,0-1.3-4.575A3.939,3.939,0,0,0,168.7,20h-4.55Zm39.6,2.15V47.6h4.3V50H193.4V47.6h4.3V36.25L189.65,20h-3.9V17.6h13.9V20h-3.6l6.05,12.4L208.55,20h-4V17.6h10.8V20h-3.9ZM217,47.6h3.9V20H217V17.6h9.65L237.1,40.45l9.75-22.85h9.65V20h-3.9V47.6h3.9V50H242.8V47.6h3.75V25.25L237,47.6h-3.1L223.65,25.3V47.6h3.7V50H217Zm73.5,0V50H276.65V47.6h3.9l-3.05-9.05h-9.45L264.9,47.6h3.7V50H258.15V47.6h3.8l10.7-30h3.55l10.7,30ZM276.65,36.05l-3.7-10.95h-.25l-3.8,10.95Zm15.4,11.55h3.9V20h-3.9V17.6H301l14.25,22.3V20H311.4V17.6h10.5V20H318V50h-3.7L298.7,25.35V47.6h3.75V50h-10.4Zm32.55-.4a3.329,3.329,0,1,1,.975,2.375A3.232,3.232,0,0,1,324.6,47.2Z" transform="translate(929 3849)"/>
    </g>
  </g>
</svg>
