<svg xmlns="http://www.w3.org/2000/svg" width="612" height="149" viewBox="0 0 612 149">
  <g id="sec06-tit05-sp" transform="translate(-930 -3814.614)">
    <rect id="長方形_255" data-name="長方形 255" width="612" height="149" transform="translate(930 3814.614)" fill="none"/>
    <g id="グループ_904" data-name="グループ 904" transform="translate(0.34 -0.386)">
      <path id="パス_151" data-name="パス 151" d="M.66-.72h1.6V-12.24H.66v-.72H4.08L8.48-2.94l4.24-10.02h3.34v.72h-1.6V-.72h1.6V0h-4.9V-.72h1.6v-10.1L8.48-.74H7.56L3.12-10.9V-.72H4.66V0h-4Zm23.38,0V0H18.42V-.72h1.96V-12.24H18.5v-.72h5.46v.72H22.08V-.72Zm2.36,0H28V-12.24H26.4v-.72h3.26l6.02,9.72v-9h-1.6v-.72h4.06v.72h-1.6V0h-.92L28.86-11.02V-.72h1.6V0H26.4Zm19.52,0V0H40.3V-.72h1.96V-12.24H40.38v-.72h5.46v.72H43.96V-.72Zm16.94.1V0h-2.6L58-3.74,56.04-.62h1.22V0h-3.4V-.62h1.3L57.58-4.4,55.14-8.44H53.96v-.6h2.56l2.06,3.38,1.74-2.78h-1.1v-.6h3.1v.6H61.2L58.98-5,61.66-.62ZM76.58-12.96a4.1,4.1,0,0,1,2.94.94,3.229,3.229,0,0,1,.98,2.44,3.487,3.487,0,0,1-.47,1.8,3.344,3.344,0,0,1-1.36,1.27,4.414,4.414,0,0,1-2.09.47H74.06V-.72h1.6V0h-4.9V-.72h1.6V-12.24h-1.6v-.72ZM76.34-6.8a2.045,2.045,0,0,0,1.63-.77,2.949,2.949,0,0,0,.65-1.97A2.943,2.943,0,0,0,78-11.51a2.067,2.067,0,0,0-1.66-.73H74.06V-6.8ZM90.52-.48a2.076,2.076,0,0,1-.67.5,2,2,0,0,1-.89.2,1.52,1.52,0,0,1-.88-.26,1.411,1.411,0,0,1-.54-.7,3.781,3.781,0,0,1-1.17.72A4.119,4.119,0,0,1,84.9.22a2.578,2.578,0,0,1-1.75-.58,1.892,1.892,0,0,1-.67-1.5q0-1.72,2.18-2.44l2.84-.98v-.96a3.45,3.45,0,0,0-.37-1.85,1.4,1.4,0,0,0-1.25-.55A1.579,1.579,0,0,0,84.54-8a3.211,3.211,0,0,0-.52,1.84H83V-8.3a2.978,2.978,0,0,1,1.22-.69,5.407,5.407,0,0,1,1.66-.25,3.43,3.43,0,0,1,2.35.72,2.688,2.688,0,0,1,.81,2.12v5.28a.477.477,0,0,0,.54.54.852.852,0,0,0,.66-.32ZM85.54-.54a2.171,2.171,0,0,0,1.02-.24,3.2,3.2,0,0,0,.94-.82V-4.62l-2.08.74a1.918,1.918,0,0,0-.95.68,1.905,1.905,0,0,0-.33,1.14,1.525,1.525,0,0,0,.41,1.08A1.3,1.3,0,0,0,85.54-.54Zm16.2-.06v.58L99,.12l-.04-1A3.169,3.169,0,0,1,96.42.22,3.163,3.163,0,0,1,94.2-.53a3.039,3.039,0,0,1-.82-2.35V-8.44H92.12v-.6H94.9v6.16a2.7,2.7,0,0,0,.51,1.84,1.669,1.669,0,0,0,1.29.56A2.554,2.554,0,0,0,98.26-1a2.051,2.051,0,0,0,.7-1.76V-8.44H97.68v-.6h2.78V-.6Zm2,0h1.28V-13.06l-1.44-.02v-.58l2.96-.16V-.6h1.28V0h-4.08Zm16.12.84a6.178,6.178,0,0,1-2.29-.4,3.624,3.624,0,0,1-1.49-.98V-3.5h1.08a3.976,3.976,0,0,0,.9,2.39,2.508,2.508,0,0,0,1.84.69,2.631,2.631,0,0,0,1.91-.65,2.326,2.326,0,0,0,.67-1.75,2.236,2.236,0,0,0-1.1-2l-3.56-2.3a4.274,4.274,0,0,1-1.27-1.18,2.845,2.845,0,0,1-.45-1.64,2.951,2.951,0,0,1,1.05-2.37,4.33,4.33,0,0,1,2.89-.89,5.824,5.824,0,0,1,2.05.34,3.84,3.84,0,0,1,1.49.96v2.42H122.5a4.272,4.272,0,0,0-.76-2.41,2.164,2.164,0,0,0-1.7-.67,2.336,2.336,0,0,0-1.83.64,2.236,2.236,0,0,0-.57,1.54,1.9,1.9,0,0,0,.92,1.72l3.5,2.24a5.053,5.053,0,0,1,1.57,1.43,3.017,3.017,0,0,1,.47,1.67,3.413,3.413,0,0,1-.5,1.83,3.386,3.386,0,0,1-1.45,1.27A5.215,5.215,0,0,1,119.86.24ZM140.7-.6V0h-3.82V-.6h1.02V-6.36a2.96,2.96,0,0,0-.38-1.67,1.314,1.314,0,0,0-1.16-.55,1.834,1.834,0,0,0-1.43.64,2.345,2.345,0,0,0-.57,1.62V-.6h1.14V0h-3.78V-.6h1.14V-6.36a2.96,2.96,0,0,0-.38-1.67,1.314,1.314,0,0,0-1.16-.55,1.856,1.856,0,0,0-1.45.64,2.345,2.345,0,0,0-.57,1.62V-.6h1.06V0h-3.88V-.6h1.32V-8.44h-1.28v-.58l2.74-.16.04.94a2.829,2.829,0,0,1,2.4-1.02,2.951,2.951,0,0,1,1.44.35,2.165,2.165,0,0,1,.94.97,2.539,2.539,0,0,1,1.04-.98,3.273,3.273,0,0,1,1.52-.34q2.76,0,2.76,3.12V-.6Zm1.94,0h1.62V-8.44H142.8v-.58l2.96-.2V-.6h1.62V0h-4.74Zm1.02-11.34a1.213,1.213,0,0,1,.37-.89,1.213,1.213,0,0,1,.89-.37,1.213,1.213,0,0,1,.89.37,1.213,1.213,0,0,1,.37.89,1.213,1.213,0,0,1-.37.89,1.213,1.213,0,0,1-.89.37,1.213,1.213,0,0,1-.89-.37A1.213,1.213,0,0,1,143.66-11.94ZM155.28-.68a4.284,4.284,0,0,1-1.1.69,3.017,3.017,0,0,1-1.14.21,2.4,2.4,0,0,1-1.88-.71,2.963,2.963,0,0,1-.64-2.05v-5.9H149.5v-.48l2.06-2.14h.48v2.02h3.02v.6h-3.02v6a2.406,2.406,0,0,0,.35,1.41,1.185,1.185,0,0,0,1.03.49,2.319,2.319,0,0,0,1.5-.6Zm11.28.08V0h-4.08V-.6h1.3V-6.14a2.989,2.989,0,0,0-.46-1.8,1.63,1.63,0,0,0-1.4-.62,2.159,2.159,0,0,0-1.58.61,2.107,2.107,0,0,0-.62,1.57V-.6H161V0h-4.06V-.6h1.28V-13.06h-1.44v-.58l2.94-.18v5.58a2.484,2.484,0,0,1,1.06-.75,4.145,4.145,0,0,1,1.54-.27,2.946,2.946,0,0,1,2.21.79,3.21,3.21,0,0,1,.77,2.33V-.6Zm3.48.82a1.157,1.157,0,0,1-.85-.35,1.157,1.157,0,0,1-.35-.85,1.157,1.157,0,0,1,.35-.85,1.157,1.157,0,0,1,.85-.35,1.157,1.157,0,0,1,.85.35,1.157,1.157,0,0,1,.35.85,1.157,1.157,0,0,1-.35.85A1.157,1.157,0,0,1,170.04.22Zm19.2-4.3c1.38,2.72,4.58,4.88,8.24,5.56a8.647,8.647,0,0,1,.82-1.82c-4.08-.6-7.04-2.04-8.56-4.22h7.66l.78.16V-5.52l-.78.16h-1.84v-4.96h-5.7v-1.44c.24-.18.3-.26.3-.38,0-.18-.14-.26-.42-.26h-1.48v2.08h-5.58v4.96h-1.84l-.8-.16V-4.4l.8-.16h6.82c-.62,2.42-3.78,4.68-7.74,5.52l.14.64c5.2-.76,8.18-2.62,9.16-5.74Zm-4.9-1.28V-9.52h3.9v.06a22.79,22.79,0,0,1-.38,4.1Zm5.18,0a30.574,30.574,0,0,0,.32-4.16h4.06v4.16Zm3.7-9.08v-1.6c.26-.18.32-.26.32-.4,0-.18-.14-.26-.42-.26h-1.5v2.26h-5.14v-1.6c.26-.18.32-.26.32-.4,0-.18-.14-.26-.42-.26h-1.5v2.26h-3.8l-.8-.16v1.12l.8-.16h3.8v2.14h1.6v-2.14h5.14v2.14h1.6v-2.14h3.94l.8.16V-14.6l-.8.16Zm17.58,2.38h3.62l.8.16v-1.12l-.8.16h-8.68l-.78-.16v1.12l.78-.16h3.48V-8.7h-2.78l-.8-.16v1.12l.8-.16h2.78v4.38H205.2l-.8-.16v1.12l.8-.16h9.92l.78.16V-3.68l-.78.16H210.8V-7.9h2.78l.8.16V-8.86l-.8.16H210.8Zm1,5.2a10.316,10.316,0,0,1,1.56,2.7l1.52-1.04a8.778,8.778,0,0,0-2.58-1.98ZM203.46.38h13.4v.96h1.66v-17.3H201.8V1.48h1.66Zm0-.8V-15.16h13.4V-.42ZM231.92-2.7h1.64V-6.1c1.36-.42,2.68-.76,5.3-1.36a2.373,2.373,0,0,0,.6.1.358.358,0,0,0,.4-.36.883.883,0,0,0-.14-.38L239-9.3l-.84.38c-.94.28-1.62.48-1.92.58l-2.64.88-.06.02a2.948,2.948,0,0,0-.62-1.96,2.912,2.912,0,0,0-2.06-.76,6.546,6.546,0,0,0-3.5,1.02c.74-1.1,1.2-1.82,2.22-3.58h1.06c2.6-.02,3.9-.08,6.42-.3l.2-1.46-1.52.6c-2.44.18-2.92.2-5.58.24h-.08l.92-1.64c.54-.18.64-.26.64-.46,0-.16-.14-.28-.42-.38l-1.58-.54-.28.88c-.58,1.16-.82,1.66-1.1,2.16-1.12-.02-1.94-.04-3.6-.1l-1.24-.5.1,1.38c2.04.08,2.5.1,4.24.12a52.492,52.492,0,0,1-4.66,6.6l1.26,1.1,1.76-2.3a6.476,6.476,0,0,1,4.28-1.86,1.179,1.179,0,0,1,1.34.96,5.326,5.326,0,0,1,.18,1.4,21.962,21.962,0,0,0-2.56,1.14c-2.08,1.12-3,2.2-3,3.56A2.5,2.5,0,0,0,227.72.1c1.14.58,2.8.84,5.48.84A34.286,34.286,0,0,0,237.54.7V-1.1a24.454,24.454,0,0,1-4.64.44,11.121,11.121,0,0,1-4.46-.64,1.244,1.244,0,0,1-.68-1.1c0-1.12,1.24-2.06,4.16-3.14Zm13.84,4.18h1.6V-11.9c.5-1.1.92-2.2,1.42-3.62.32-.06.48-.2.48-.4a.4.4,0,0,0-.32-.36l-1.8-.52a41.337,41.337,0,0,1-4.1,10.84l.44.36a18.35,18.35,0,0,0,2.28-3.18Zm8.94-12.52c-.1-.76-.24-3.54-.24-4.76v-.18c.26-.2.32-.26.32-.4,0-.18-.14-.26-.42-.26H252.7v.7c0,1.72.1,3.74.24,5.06l-4.26.38-.58-.06.08,1.06.58-.18,4.26-.38a26.757,26.757,0,0,0,.58,3.4,13.78,13.78,0,0,0,3.44,6.62,5.2,5.2,0,0,0,2.58,1.52,1.247,1.247,0,0,0,.7-.3A2.379,2.379,0,0,0,260.9.12a20.343,20.343,0,0,0,.54-3.76l-.84-.16c-.26,2.56-.48,3.42-.86,3.42-.66,0-2.08-1.44-2.96-3a16.5,16.5,0,0,1-2-6.84l5.66-.52.6.08-.1-1.08-.56.18Zm1.12-4.34a13.708,13.708,0,0,1,2.12,2.98l1.66-1.34a9.95,9.95,0,0,0-3.34-2.08Zm15.86,7.5-.32.34a35.368,35.368,0,0,1-7.28,6.1l.24.54a22.754,22.754,0,0,0,5-2.82V-.56c-.98.14-1.58.24-2.66.38l.74,1.44c.14.26.24.36.4.36.22,0,.32-.1.4-.42a38.2,38.2,0,0,0,8.92-2.9,13.4,13.4,0,0,0,4.14,2.86,10.958,10.958,0,0,1,1.2-1.5,16.877,16.877,0,0,1-5.12-3.22,23.6,23.6,0,0,0,2.96-1.96c.5-.04.74-.14.74-.4a.419.419,0,0,0-.14-.28l-1.56-.98a20.71,20.71,0,0,1-2.48,3.14,10.9,10.9,0,0,1-2.6-3.84h7.32l.8.16V-8.84l-.8.16H274.2v-2.4h5.1l.8.16v-1.12l-.8.16h-5.1v-2.1h6.18l.8.16v-1.12l-.8.16H274.2v-1.36c.24-.18.32-.26.32-.4,0-.18-.14-.26-.44-.26h-1.6v2.02h-6.16l-.78-.16v1.12l.78-.16h6.16v2.1h-5.2l-.78-.16v1.12l.78-.16h5.2v2.4H265.2l-.78-.16v1.12l.78-.16Zm-.72,2.86a31.915,31.915,0,0,0,2.64-2.62,13.052,13.052,0,0,0,3,5.38,50.318,50.318,0,0,1-5.64,1.4Zm26.12-8.78v-1.86c.3-.2.4-.32.4-.5s-.16-.32-.4-.34l-1.82-.14.16,1.24v1.64l-.66.02c-2,.04-2.64.06-3.34.06-.88,0-4.08-.06-5-.08l-1.1-.42.08,1.26c1.04.1,3.4.16,5.9.16.9,0,1.54-.02,3.44-.06l.68-.02V-9.8a3.263,3.263,0,0,0-2.34-.94,3.9,3.9,0,0,0-3.92,4A3.359,3.359,0,0,0,290-4.36a3.9,3.9,0,0,0,2.76,1.16,3.714,3.714,0,0,0,2.58-1.02c-.48,2.8-2.4,4.5-5.74,5.04l.12.62a9.418,9.418,0,0,0,4.82-1.46c1.82-1.3,2.54-2.92,2.54-5.72v-7.14h.26a54.2,54.2,0,0,0,5.94-.34l.06-1.34-1.18.48c-1.92.16-3.18.24-4.76.28Zm-1.66,8.28a2.768,2.768,0,0,1-2.26,1.3,2.37,2.37,0,0,1-2.28-2.64,2.621,2.621,0,0,1,2.48-2.86,2.48,2.48,0,0,1,2.06,1.1ZM320.1-14.4c.58-.1.82-.26.82-.54a.563.563,0,0,0-.36-.48l-1.36-.72-.58.56c-2.12.14-2.8.16-7.4.22l-1.24-.46.16,1.42c3.66-.02,5.82-.08,7.8-.2l-10.4,8.76.98,1.18,2.58-2.16a12.662,12.662,0,0,1,5.6-1.4c2.74,0,4.4,1.28,4.4,3.4a3.846,3.846,0,0,1-1.28,2.86A4.445,4.445,0,0,1,318.04-.9a6.524,6.524,0,0,0-1.48-2.24,4.918,4.918,0,0,0-3.42-1.52c-1.58,0-2.68.9-2.68,2.2,0,1.86,2.46,3.32,5.6,3.32,3.86,0,6.9-2.44,6.9-5.54,0-2.76-2.36-4.52-6.06-4.52a10.494,10.494,0,0,0-3.78.68ZM316.86-.58a3.175,3.175,0,0,1-.88.08,7.2,7.2,0,0,1-3.42-.8,1.423,1.423,0,0,1-.9-1.24c0-.62.56-1.04,1.42-1.04,1.62,0,3.04,1.1,3.84,3Zm18.8-.98V0H327.8V-.7q2.54-2.76,3.71-4.17a12.677,12.677,0,0,0,1.68-2.47,5.059,5.059,0,0,0,.51-2.22,3.288,3.288,0,0,0-.65-2.21,2.109,2.109,0,0,0-1.67-.75,1.975,1.975,0,0,0-1.74.88,4.229,4.229,0,0,0-.68,2.16h-1.08v-2.4a3.739,3.739,0,0,1,1.5-.96,5.705,5.705,0,0,1,2.02-.36,5.3,5.3,0,0,1,1.93.36,3.458,3.458,0,0,1,1.54,1.17,3.347,3.347,0,0,1,.61,2.07A3.7,3.7,0,0,1,335-7.79a11.514,11.514,0,0,1-1.59,2.08Q332.3-4.5,329.4-1.56Zm3.54-10.52.5,1.6a.483.483,0,0,0,.4.38c.2,0,.34-.14.5-.5,1.38-.4,2.22-.62,4.06-1.04a26.082,26.082,0,0,1,5.54-.82,4.477,4.477,0,0,1,2.42.54,3.973,3.973,0,0,1,1.74,3.58c0,2.94-1.84,5.12-5.16,6.16a31.276,31.276,0,0,1-4.96,1.02l.1.72a39.186,39.186,0,0,0,5.28-.62c4.2-.78,6.76-3.48,6.76-7.1a5.037,5.037,0,0,0-2.56-4.7,7.55,7.55,0,0,0-3.6-.7c-2.28,0-4.38.3-9.64,1.36ZM369.18.36a11.539,11.539,0,0,0,5.5-2,7.076,7.076,0,0,0,2.88-5.86c0-4.4-3.26-7.3-8.24-7.3a9.185,9.185,0,0,0-6,1.98,8.189,8.189,0,0,0-2.94,6.38c0,3,1.38,5.18,3.26,5.18a3.483,3.483,0,0,0,2.52-1.38,12.264,12.264,0,0,0,2.22-3.86,32.55,32.55,0,0,0,1.7-7.26,5.391,5.391,0,0,1,3.08,1.02,6.124,6.124,0,0,1,2.46,5.1,6.977,6.977,0,0,1-3.42,6.06,11.692,11.692,0,0,1-3.18,1.32Zm-.86-14.16a37.628,37.628,0,0,1-.92,4.88c-1,3.8-2.56,6.62-3.68,6.62-.94,0-1.7-1.78-1.7-4.06a7.857,7.857,0,0,1,1.94-5.24A6.327,6.327,0,0,1,368.32-13.8Zm31.08-1.16A3.949,3.949,0,0,0,397.08-17l-.34.28a7.786,7.786,0,0,1,1.32,2.48ZM384.38.54c4.2-.9,6.76-2.22,8.92-4.62a16.944,16.944,0,0,0,3.88-9.58H383.44l-.88-.18v1.28l.88-.18H395c-1.04,6.44-4.62,10.62-10.84,12.6ZM394.4-16.62a7.78,7.78,0,0,1,1.12,2.56l1.38-.62a3.983,3.983,0,0,0-2.1-2.2Zm22.2,1.34H405.52l-.88-.18v1.28l.88-.18H416.6l.88.18v-1.28Zm-12.62,4.62-.88-.18v1.28l.88-.18h12.48c-.84,4.84-4.54,8.36-10.36,9.8l.14.66c7.2-.76,11.84-5,12.48-11.38Zm36.46-1.86a19.852,19.852,0,0,1-5.1,6.48c-2.66,2.16-4.94,3.18-9.18,4.06l-1.06.02.72,1.78c.12.28.3.44.5.44.22,0,.38-.14.52-.46,4.52-1.02,7.36-2.38,9.82-4.7A16.858,16.858,0,0,0,441-12.26ZM424.92-14.7a18.8,18.8,0,0,1,4.98,4.28l1.64-1.66a12.342,12.342,0,0,0-6.38-3.14Zm26.46-.54c.26-.14.4-.3.4-.48s-.16-.32-.4-.34l-2-.14.14,1.2V.96h1.86V-9.66a20.039,20.039,0,0,1,7.52,5.18l1.36-1.82a21.324,21.324,0,0,0-8.88-4.08Zm10.12.36A3.95,3.95,0,0,0,459.18-17l-.34.28a7.429,7.429,0,0,1,1.3,2.52Zm-4.98-1.58a8.21,8.21,0,0,1,1.12,2.64l1.38-.62a4.1,4.1,0,0,0-2.12-2.28ZM474.38.36a11.539,11.539,0,0,0,5.5-2,7.076,7.076,0,0,0,2.88-5.86c0-4.4-3.26-7.3-8.24-7.3a9.185,9.185,0,0,0-6,1.98,8.189,8.189,0,0,0-2.94,6.38c0,3,1.38,5.18,3.26,5.18a3.483,3.483,0,0,0,2.52-1.38,12.264,12.264,0,0,0,2.22-3.86,32.55,32.55,0,0,0,1.7-7.26,5.391,5.391,0,0,1,3.08,1.02,6.124,6.124,0,0,1,2.46,5.1,6.977,6.977,0,0,1-3.42,6.06,11.692,11.692,0,0,1-3.18,1.32Zm-.86-14.16a37.628,37.628,0,0,1-.92,4.88c-1,3.8-2.56,6.62-3.68,6.62-.94,0-1.7-1.78-1.7-4.06a7.857,7.857,0,0,1,1.94-5.24A6.327,6.327,0,0,1,473.52-13.8ZM491.96.16a12.025,12.025,0,0,0-5.58-3.82l-.38.48a17.85,17.85,0,0,1,4.32,4.78ZM18.38,28l.8.16V27.04l-.8.16H7.04l-.8-.16v1.12l.8-.16h3.52l-.08.34a49.358,49.358,0,0,1-1.96,6.22l-.12.3-.46.02-.46.02s-.68.02-1.28.02l.56,1.72c.1.34.2.46.38.46.2,0,.34-.14.5-.5a67.833,67.833,0,0,0,8.7-1.56c.28.62.56,1.24,1,2.32L19.2,36.2a18.308,18.308,0,0,0-4.58-5.32l-.54.42A27.037,27.037,0,0,1,16,34.38c-2,.2-4.88.38-6.36.44H9.28l.22-.34A36.315,36.315,0,0,0,12.74,28ZM3.48,37.48H5.06V24.06c.46-1.08.84-2.1,1.38-3.62.3-.06.46-.2.46-.4a.36.36,0,0,0-.32-.34l-1.74-.5A41.459,41.459,0,0,1,.8,30.04l.44.34a17.4,17.4,0,0,0,2.24-3.12ZM8.54,21.66h8.38l.8.16V20.66l-.8.16H8.54l-.8-.16v1.16Zm26.6,14.18c.04.82.52,1.2,1.52,1.2h1.86c1.02,0,1.48-.4,1.54-1.4l.18-2.38-.82-.1L39.28,35c-.06.5-.2.62-.68.64H37.16c-.44-.02-.54-.12-.56-.54V28.18c.48-.1.72-.14.84-.16l.32-.08.34-.06c.34.72.48,1.04.8,1.86l1.34-1.16a13.1,13.1,0,0,0-3.48-4.1l-.46.42c.7,1.04.96,1.48,1.44,2.3l.02.06-.26.02c-1.54.06-2.42.08-4.32.12l-.94.02a18.78,18.78,0,0,0,2.3-4.26h4.78l.8.16V22.2l-.8.16H35.18V20.02c.26-.18.32-.26.32-.4,0-.18-.14-.26-.44-.26H33.58v3H30.1l-.8-.16v1.12l.8-.16h2.7a27.138,27.138,0,0,1-1.38,4.28c-.58.02-.88.02-1.98.04l.46,1.48c.08.24.22.38.38.38.14,0,.28-.14.42-.44.68-.06.94-.08,1.24-.1v.06c-.14,4.66-1.3,6.94-4.2,8.2l.28.54c3.76-1.02,5.32-3.6,5.4-8.96.94-.12,1.36-.18,1.72-.24ZM24.86,37.48h1.46V28.62c.8-.16.84-.18,1.26-.26l.24-.06a9.93,9.93,0,0,1,.28,1.36l1.36-.68a7.179,7.179,0,0,0-2.08-3.16l-.4.28a12.174,12.174,0,0,1,.66,1.56c-.68.06-2.2.14-3.12.18a48.3,48.3,0,0,0,3.92-4.7c.42-.04.58-.16.58-.4a.3.3,0,0,0-.18-.28l-1.38-.8a45.905,45.905,0,0,1-3.86,6.2l-.06.02h-.52l-1.18.02.42,1.38a.363.363,0,0,0,.28.26c.14,0,.26-.1.44-.38.72-.1,1.06-.14,1.88-.28ZM21.9,22.7A16.879,16.879,0,0,1,24.36,26l.98-1.44A5.934,5.934,0,0,0,24,23.36a20.8,20.8,0,0,0,2.12-2.68c.46-.12.62-.24.62-.44a.406.406,0,0,0-.22-.34l-1.62-.7a24.317,24.317,0,0,1-1.48,3.76,7.09,7.09,0,0,0-1.26-.7Zm5.22,7.8a22.781,22.781,0,0,1,.94,4.38l1.5-.68a11.659,11.659,0,0,0-1.92-3.9Zm-4.46-.2a29.587,29.587,0,0,1-.82,5.36l.44.22a14.514,14.514,0,0,0,1.68-4.38c.34-.1.5-.24.5-.44,0-.16-.08-.24-.32-.3ZM50.9,20.46c.24-.2.32-.34.32-.5a.374.374,0,0,0-.38-.34H48.86l.34,1.2,1.26,6.08a18.048,18.048,0,0,0-2.48,1.48c-1.96,1.4-2.8,2.66-2.8,4.18a3.571,3.571,0,0,0,2.4,3.4,14.77,14.77,0,0,0,5.58.74,38.1,38.1,0,0,0,5.68-.34V34.42a30.144,30.144,0,0,1-5.86.54c-4.52,0-6.44-.74-6.44-2.52,0-2.38,3.62-4.54,11.54-6.92a1.108,1.108,0,0,0,.54.18.364.364,0,0,0,.34-.32.691.691,0,0,0-.06-.24l-.7-1.62-.7.52c-1.56.6-3.06,1.16-4.48,1.72-.4.16-.68.26-.98.4Zm19.46,7.5v5.18c0,1.7.28,2.28,1.28,2.62a21.477,21.477,0,0,0,5.26.38c1.34,0,2.34-.04,3.7-.12V34.2a39.064,39.064,0,0,1-4.68.28,10.34,10.34,0,0,1-3.16-.3c-.4-.18-.5-.42-.5-1.22v-5h8.6l.9.18V26.86l-.9.18h-8.6V22.12h6.62l.88.18V21.02l-.88.18H66.58l-.88-.18V22.3l.88-.18h3.78v4.92H65.34l-.9-.18v1.28l.9-.18ZM86.82,37.2a16.865,16.865,0,0,0,9.12-4.18c2.5-2.2,4.68-6.36,5.5-10.5h-8.2l.02-.06.36-.8c.02-.06.1-.26.22-.56.36-.16.5-.32.5-.54,0-.18-.14-.3-.44-.36l-1.84-.42-.16.98a19.7,19.7,0,0,1-5.5,8.6l.38.46a14.73,14.73,0,0,0,5.98-6.32l.04-.06h6.48a17.934,17.934,0,0,1-2.66,6.12,10.6,10.6,0,0,0-5.16-2.5l-.34.52a14.1,14.1,0,0,1,4.36,3.52,17.863,17.863,0,0,1-8.84,5.46Zm16.74-16a4.036,4.036,0,0,0-2.34-2.08l-.32.3a7.943,7.943,0,0,1,1.32,2.5Zm-5-1.66a8.615,8.615,0,0,1,1.16,2.6l1.36-.64a3.931,3.931,0,0,0-2.16-2.22Zm25,3.94a19.852,19.852,0,0,1-5.1,6.48c-2.66,2.16-4.94,3.18-9.18,4.06l-1.06.02.72,1.78c.12.28.3.44.5.44.22,0,.38-.14.52-.46,4.52-1.02,7.36-2.38,9.82-4.7a16.858,16.858,0,0,0,4.34-7.36ZM108.04,21.3a18.8,18.8,0,0,1,4.98,4.28l1.64-1.66a12.342,12.342,0,0,0-6.38-3.14Zm24.18.78c-1.7,0-2.4-.04-3.48-.1l-1.08-.46.1,1.36c1.44.1,2.14.12,3.38.12h.78a44.192,44.192,0,0,1-4.54,9.82l1.52.98a53.133,53.133,0,0,0,4.82-10.86c1.52-.06,3.18-.2,4.84-.42l.06-1.42-1.24.62c-1.42.16-2.24.24-3.34.3a2.38,2.38,0,0,1,.08-.28c.06-.18.24-.72.42-1.3.3-.2.36-.3.36-.44a.323.323,0,0,0-.28-.32l-1.76-.34-.16,1.02c-.1.4-.18.7-.22.84l-.24.82Zm12.76,11.86a12.213,12.213,0,0,0-4.88-2.66V27.54c.32-.22.4-.3.4-.44,0-.2-.18-.32-.48-.32l-1.58-.02.06,1.48v2.72a10.78,10.78,0,0,0-1.76-.14c-2.6,0-4.16,1.12-4.16,3,0,1.9,1.86,3.28,4.42,3.28a3.04,3.04,0,0,0,2.82-1.2,3.033,3.033,0,0,0,.28-1.5V32.74a13.214,13.214,0,0,1,3.7,2.7Zm-6.48.38c0,.96-.56,1.42-1.74,1.42-1.84,0-3.2-.86-3.2-2.04a1.371,1.371,0,0,1,.36-.92,3.444,3.444,0,0,1,2.5-.74,7.347,7.347,0,0,1,2.08.28Zm6.72-9.88a9.912,9.912,0,0,0-3.92-.64,10.034,10.034,0,0,0-3.52.52l.04.56a14.914,14.914,0,0,1,6.28,1.2Zm20.2-2.14.8.16V21.34l-.8.16h-5.08c-.04-.4-.04-.68-.08-1.54.26-.18.34-.26.34-.4,0-.18-.14-.26-.44-.26h-1.4c0,1.1.02,1.66.06,2.2h-9.38v2.12c-.04,4.46-.34,6.32-1.36,8.16l.44.42c1.94-2,2.42-3.7,2.46-8.58V22.3h7.92a15.675,15.675,0,0,0,1.82,6.42,15.413,15.413,0,0,1-2.7,2.64l.32.46a14.63,14.63,0,0,0,3.02-2.18,6.333,6.333,0,0,0,1.06,1.02,5.037,5.037,0,0,0,2.48,1.1c.44,0,.82-.34,1.04-.94a11.176,11.176,0,0,0,.54-2.88l-.76-.12c-.22,1.72-.44,2.34-.84,2.34a3.622,3.622,0,0,1-1.78-.92,6.218,6.218,0,0,1-.68-.74,18.285,18.285,0,0,0,2.34-3.84c.4-.06.56-.16.56-.38a.318.318,0,0,0-.22-.3l-1.46-.6a15.976,15.976,0,0,1-1.94,4,14.229,14.229,0,0,1-1.3-5.08Zm-13.54,8.3h6.04V26.42h-6.04Zm1.44-.8V27.22h3.16V29.8Zm4.26-5.82H152.3l-.78-.16v1.12l.78-.16h5.28l.8.16V23.82Zm4.72,8.36a23.356,23.356,0,0,1,2.3,4.5l1.76-1.06a12.641,12.641,0,0,0-3.52-3.74ZM150.66,32a9.9,9.9,0,0,1-2.48,3.82l1.72,1.04a10.1,10.1,0,0,0,1.46-4.68Zm10.82-12.3a11.043,11.043,0,0,1,1.92,1.72l1.5-1a6.223,6.223,0,0,0-3.08-1Zm-8.4,11.96v3.78c.02,1.2.62,1.58,2.36,1.6h4.2c1.32.02,1.9-.52,1.98-1.86l.12-1.6-.8-.08-.1,1.24c-.06.58-.3.8-.9.8H155.9c-.88-.02-1.22-.22-1.22-.68V32.32c.26-.2.32-.26.32-.4,0-.18-.14-.26-.42-.26Zm3.24.1a13.8,13.8,0,0,1,1.62,2.78l1.54-1.18a9.671,9.671,0,0,0-2.72-1.96Zm24.62-7.02v4.84h-3.12l-.8-.16v1.12l.8-.16h3.12v5.48h-5.2l-.78-.16v1.12l.78-.16H186.6l.8.16V35.7l-.8.16h-3.98V30.38h2.84l.8.16V29.42l-.8.16h-2.84V24.74h3.52l.8.16V23.78l-.8.16h-3.52V20.1c.26-.18.32-.26.32-.4,0-.18-.14-.26-.42-.26h-1.58v4.5h-2.72c.16-.62.26-1.04.48-2.1.32-.08.48-.24.48-.46,0-.18-.14-.32-.4-.36l-1.66-.36a30.721,30.721,0,0,1-2.04,8.78l.48.34A16.648,16.648,0,0,0,178,24.74Zm-7.28-2.26a13.943,13.943,0,0,1,1.16,3.14l1.22-1.3a5.636,5.636,0,0,0-2.02-2.14Zm-3.44,6.46a9.643,9.643,0,0,0,.7-4.26c0-.64,0-.84-.08-2.54h-.68a15.627,15.627,0,0,1-1.04,5.22Zm1.68-9.62V37.48h1.58V19.98c.26-.2.32-.26.32-.4,0-.18-.14-.26-.42-.26Zm18.66,5.88.32,1.24c.08.24.18.36.34.36s.28-.1.4-.4a27.317,27.317,0,0,1,3.02-.72,37.165,37.165,0,0,1-3.98,10l1.48.86a35.172,35.172,0,0,0,4.28-11.14,20.523,20.523,0,0,1,2.6-.24,1.381,1.381,0,0,1,1.28.56,4.969,4.969,0,0,1,.28,2.12,22.166,22.166,0,0,1-.94,6.28c-.44,1.28-.86,1.8-1.42,1.8a4.022,4.022,0,0,1-2.32-1.28l-.52.8c1.42,1.26,2.42,1.8,3.36,1.8,1.06,0,1.76-.64,2.38-2.16a19.837,19.837,0,0,0,1.14-6.86,5.754,5.754,0,0,0-.48-2.8c-.44-.8-1.42-1.2-2.92-1.2-.6,0-1.32.04-2.2.1.2-.86.34-1.66.66-3.44.3-.12.42-.24.42-.4s-.14-.3-.4-.36l-1.7-.38-.02.92c-.28,1.72-.46,2.78-.7,3.86-1.24.16-2.48.38-3.8.64Zm18.2-4.12A3.907,3.907,0,0,0,206.42,19l-.34.28a8.33,8.33,0,0,1,1.36,2.52Zm-5.52,2.44c1.58,2.18,2.46,4.64,3.28,8.86l1.84-.78c-.76-3.84-2.6-7.14-4.7-8.4Zm.5-3.94a9.074,9.074,0,0,1,1.24,2.74l1.32-.64a3.871,3.871,0,0,0-2.18-2.36Zm22.3,3.6V20.12c.26-.18.32-.26.32-.4,0-.18-.14-.26-.44-.26h-1.26v3.72h-2.7v8.84h1.32V30.76h1.38v4.48h-.06l-1.86.24c-.14,0-.54.04-1.14.1l.4,1.5c.08.24.2.38.34.38.16,0,.26-.14.34-.42a44.282,44.282,0,0,0,5.24-1.62c.06.38.08.72.22,2.04l1.46-.74a17,17,0,0,0-1.78-4.92l-.46.2c.22,1.1.34,1.86.48,2.78q-.72.12-1.2.18c-.08.02-.32.04-.6.08V30.76h2.84V23.18Zm0,.74h1.46v6.1h-1.46Zm-1.38,6.1h-1.38v-6.1h1.38Zm-11.44,2.2c1.96-.56,2.62-1.44,2.7-3.62v-.06h1V30.6c.02.76.42,1.06,1.46,1.08h1.26v4c-.02.64-.22.84-.86.86h-.98v.84h1.56c1.16,0,1.68-.5,1.66-1.62V27.74H211.9v9.64h1.32Zm0-3.68h1.46c-.02,1.8-.36,2.5-1.46,3.08Zm6.42,2.1h-1.08c-.38-.02-.46-.1-.46-.48V28.54h1.54Zm-4.06,3.1v3.14h1.28V33.74h1.52l.76.16V32.78l-.76.16h-3.9l-.76-.16V33.9l.76-.16Zm4.54-7.54V22.34h-7.34V26.2Zm-6.02-.8V23.14h4.64V25.4Zm-1.54-4.56h8.12l.8.16V19.88l-.8.16h-8.12l-.8-.16V21Zm29.42-.72c.32-.12.46-.24.46-.44,0-.16-.14-.26-.38-.3l-1.66-.18a26.415,26.415,0,0,1-8.16,8.52l.26.52a20.912,20.912,0,0,0,9.02-7.46l.1.14a17.674,17.674,0,0,0,8.16,6.92,8.38,8.38,0,0,1,.86-1.82,20.08,20.08,0,0,1-8.72-5.8Zm6,17.26V29.74H234.9v7.74h1.76V36.24h9.56v1.14ZM236.66,35.4V30.58h9.56V35.4Zm.6-8.16h8.16l.8.16V26.24l-.8.16h-8.16l-.8-.16V27.4Zm19.2,4.1a3.13,3.13,0,1,0,3.08,3.12A3.133,3.133,0,0,0,256.46,31.34Zm-.08.92a2.21,2.21,0,1,1-2.18,2.2A2.211,2.211,0,0,1,256.38,32.26Z" transform="translate(929 3926.36)" fill="#94a04b"/>
      <path id="パス_150" data-name="パス 150" d="M5.98-2.208h4.37V-27.6H6.21l-2.3,6.164H.92v-8.372H25.346v8.372h-2.99L20.01-27.6H15.916V-2.208h4.37V0H5.98ZM53.866-27.6V-2.208h3.588V0H44.712V-2.208H48.3V-14.582H36.432V-2.208H40.02V0H27.278V-2.208h3.588V-27.6H27.278v-2.208H40.066V-27.6H36.432v10.718H48.3V-27.6H44.712v-2.208H57.454V-27.6ZM83.306-8.372V0H59.57V-2.208h3.588V-27.6H59.57v-2.208H82.938v8.372h-3.22L77.372-27.6H68.724v10.718h4.784V-20.47h2.76v9.476h-2.76v-3.588H68.724V-2.208h9.062l2.3-6.164Zm14.03,6.164h3.588V-27.6H97.336v-2.208h8.878l9.614,21.022,8.97-21.022h8.878V-27.6h-3.588V-2.208h3.588V0h-12.6V-2.208h3.45V-22.77L115.736-2.208h-2.852l-9.43-20.516V-2.208h3.4V0H97.336ZM145.82-27.6V-2.208h4.462V0h-14.49V-2.208h4.462V-27.6h-4.462v-2.208h14.49V-27.6ZM152.4-2.208h3.588V-27.6H152.4v-2.208h8.234l13.11,20.516V-27.6H170.2v-2.208h9.66V-27.6h-3.588V0h-3.4L158.516-22.678v20.47h3.45V0H152.4ZM191.544-27.6V-2.208h4.462V0h-14.49V-2.208h4.462V-27.6h-4.462v-2.208h14.49V-27.6ZM14.9,20.192a10.628,10.628,0,0,1,7.015,2.162,7.2,7.2,0,0,1,2.6,5.842A7.708,7.708,0,0,1,23.3,32.474,8.047,8.047,0,0,1,19.9,35.4,11.525,11.525,0,0,1,14.9,36.43H10.212V47.792H13.8V50H1.058V47.792H4.646V22.4H1.058V20.192ZM14.4,34.222a3.6,3.6,0,0,0,2.99-1.771A7.222,7.222,0,0,0,18.63,28.2a6.961,6.961,0,0,0-1.173-4.163A3.605,3.605,0,0,0,14.4,22.4H10.212V34.222Zm37.26,13.57V50H38.916V47.792H42.5L39.7,39.466H31l-2.9,8.326h3.4V50H21.9V47.792h3.5l9.844-27.6H38.5l9.844,27.6ZM38.916,37.166l-3.4-10.074h-.23l-3.5,10.074Zm25.852,13.34a11.309,11.309,0,0,1-7.981-2.737q-2.967-2.737-2.967-8.257V22.4H50.232V20.192H62.974V22.4H59.386V41.076a7.378,7.378,0,0,0,1.633,5.175A5.915,5.915,0,0,0,65.6,48.022a6.8,6.8,0,0,0,3.312-.828A6.137,6.137,0,0,0,71.323,44.8a7.27,7.27,0,0,0,.9-3.68V22.4H68.632V20.192h9.706V22.4H74.75V40.938a9.426,9.426,0,0,1-2.622,6.9A9.851,9.851,0,0,1,64.768,50.506Zm15.364-2.714H83.72V22.4H80.132V20.192H92.874V22.4H89.286V47.792h9.062l2.3-6.164h3.22V50H80.132Zm47.1,2.76a14.384,14.384,0,0,1-5.658-1.035,9.035,9.035,0,0,1-3.5-2.323V41.628h3.864a9.886,9.886,0,0,0,1.84,5.221,4.481,4.481,0,0,0,3.542,1.587,4.608,4.608,0,0,0,3.473-1.357,4.853,4.853,0,0,0,1.311-3.519,5.052,5.052,0,0,0-2.392-4.416l-7.774-5.152a9.674,9.674,0,0,1-2.875-2.921,7.336,7.336,0,0,1-1.127-4.025,6.586,6.586,0,0,1,2.507-5.359,10.567,10.567,0,0,1,6.877-2.047,14.76,14.76,0,0,1,5.336.92,9.411,9.411,0,0,1,3.68,2.346v5.658h-3.91q-.368-3.818-1.656-5.359a4.217,4.217,0,0,0-3.4-1.541,4.137,4.137,0,0,0-3.2,1.219,4.458,4.458,0,0,0-1.127,3.151,4.348,4.348,0,0,0,2.07,3.818l8.142,5.336a9.544,9.544,0,0,1,3.128,3.289,8.335,8.335,0,0,1,1.1,4.163,6.929,6.929,0,0,1-1.265,4.094,8.329,8.329,0,0,1-3.588,2.806A13.436,13.436,0,0,1,127.236,50.552Zm12.788-2.76h3.588V22.4h-3.588V20.192H148.9l9.614,21.022,8.97-21.022h8.878V22.4h-3.588V47.792h3.588V50h-12.6V47.792h3.45V27.23l-8.786,20.562h-2.852l-9.43-20.516V47.792h3.4V50h-9.522ZM188.508,22.4V47.792h4.462V50H178.48V47.792h4.462V22.4H178.48V20.192h14.49V22.4Zm11.5,25.392h4.37V22.4h-4.14l-2.3,6.164h-2.99V20.192h24.426v8.372h-2.99L214.038,22.4h-4.094V47.792h4.37V50H200.008ZM247.894,22.4V47.792h3.588V50H238.74V47.792h3.588V35.418H230.46V47.792h3.588V50H221.306V47.792h3.588V22.4h-3.588V20.192h12.788V22.4H230.46V33.118h11.868V22.4H238.74V20.192h12.742V22.4Zm40.94,19.228V50H265.1V47.792h3.588V22.4H265.1V20.192h23.368v8.372h-3.22L282.9,22.4h-8.648V33.118h4.784V29.53h2.76v9.476h-2.76V35.418h-4.784V47.792h9.062l2.3-6.164Zm16.744-21.436a15.347,15.347,0,0,1,7.981,1.932,12.016,12.016,0,0,1,4.807,5.175,16.57,16.57,0,0,1,1.564,7.291,17.6,17.6,0,0,1-1.61,7.36,13.945,13.945,0,0,1-4.876,5.8A13.506,13.506,0,0,1,305.578,50H291.364V47.792h3.726V22.4h-3.726V20.192Zm-.322,27.6a6.818,6.818,0,0,0,4.853-1.886,11.7,11.7,0,0,0,3.013-4.922,20.233,20.233,0,0,0,1.012-6.44,17.378,17.378,0,0,0-1.058-6.256,9.691,9.691,0,0,0-3.082-4.324,7.526,7.526,0,0,0-4.738-1.564h-4.6V47.792ZM332.3,22.4V47.792h4.462V50h-14.49V47.792h4.462V22.4h-4.462V20.192h14.49V22.4Zm11.5,25.392h4.37V22.4h-4.14l-2.3,6.164h-2.99V20.192H363.17v8.372h-2.99L357.834,22.4H353.74V47.792h4.37V50H343.8ZM375.13,22.4V47.792h4.462V50H365.1V47.792h4.462V22.4H365.1V20.192h14.49V22.4Zm20.286,28.152a13.187,13.187,0,0,1-7.751-2.116,12.157,12.157,0,0,1-4.37-5.428,18.382,18.382,0,0,1-1.357-7.038,21.762,21.762,0,0,1,1.449-7.958,13.7,13.7,0,0,1,4.485-6.049,12.05,12.05,0,0,1,7.544-2.323,13.235,13.235,0,0,1,7.705,2.116,12.185,12.185,0,0,1,4.439,5.451,18.167,18.167,0,0,1,1.38,7.015,21.762,21.762,0,0,1-1.449,7.958,13.7,13.7,0,0,1-4.485,6.049A12.125,12.125,0,0,1,395.416,50.552Zm.6-2.024a5.834,5.834,0,0,0,5.451-3.174,16.593,16.593,0,0,0,1.771-8.142,26.236,26.236,0,0,0-2.07-11.132q-2.07-4.416-6.256-4.416a5.871,5.871,0,0,0-5.474,3.22,16.686,16.686,0,0,0-1.794,8.188,25.671,25.671,0,0,0,2.093,11.086Q391.828,48.528,396.014,48.528Zm15.272-.736h3.588V22.4h-3.588V20.192h8.234l13.11,20.516V22.4h-3.542V20.192h9.66V22.4H435.16V50h-3.4L417.4,27.322v20.47h3.45V50h-9.568Zm29.946-.368a3.063,3.063,0,1,1,.9,2.185A2.974,2.974,0,0,1,441.232,47.424Z" transform="translate(929 3844.808)" fill="#94a04b"/>
    </g>
  </g>
</svg>
