<svg xmlns="http://www.w3.org/2000/svg" width="640" height="117.311" viewBox="0 0 640 117.311">
  <g id="tit02-sp" transform="translate(-8.285 -1345.595)">
    <path id="tit02" d="M967.646,46.115h-2.64c6.355-5.574,9.777-13.4,9.777-22.44,0-9.093-3.472-17.111-9.777-22.538h2.64a28.108,28.108,0,0,1,10.706,22.489A28.108,28.108,0,0,1,967.646,46.115Zm-2.667-27.769,1.515.49c-1.271,6.6-3.472,11.733-7.089,16.084-4.107,4.888-9.191,8.018-14.52,8.849V6.515l-.44-2.933,4.84.342a.914.914,0,0,1,.929.831c0,.44-.244.782-.978,1.271V37.608C955.64,35.018,961.751,27.538,964.978,18.346ZM935.6,13.213c0,9-.88,14.716-2.885,19.066A26.818,26.818,0,0,1,921.76,43.915l-.88-1.271c7.871-7.431,10.217-14.129,10.217-28.991V8.177l-.44-2.933,4.987.342a.881.881,0,0,1,.929.831c0,.44-.244.782-.978,1.271ZM904.63,18a6.629,6.629,0,0,0-.1,1.174c-.391,9.289-2.64,14.765-7.724,18.919A34.607,34.607,0,0,1,882.826,44.4l-.489-1.466c7.969-3.032,13.3-7.382,15.449-12.614,1.321-3.128,1.859-6.111,2.152-12.32h-18.09l-2.151.441v-3.13l2.151.44h18.139c.049-1.32.049-2.4.049-3.08V6.222l-.44-3.08,5.182.342a.919.919,0,0,1,.929.88c0,.391-.244.733-.978,1.222v7.089c0,.684,0,1.76-.049,3.08h15.253l2.152-.44v3.13L919.933,18ZM841.947,42.938c-.391.733-.684.978-1.222.978-.489,0-.88-.342-1.173-1.075l-1.761-4.107,2.348-.049c10.608-1.662,17.942-5.183,24.591-11.928a39.141,39.141,0,0,0,8.262-12.663l1.466.538A37.576,37.576,0,0,1,867.467,29.2C861.894,36.191,853.877,40.541,841.947,42.938ZM867.711,1.381,868.542.7a9.809,9.809,0,0,1,5.672,5.183l-3.275,1.662A18.659,18.659,0,0,0,867.711,1.381Zm-3.128,7.431a21.6,21.6,0,0,0-2.884-6.8l.88-.635a9.729,9.729,0,0,1,5.279,5.965Zm-26.2-2.249.293-1.369c6.55.049,10.608.88,14.862,2.982l-2.592,4.352A47.4,47.4,0,0,0,838.379,6.564Zm12.613,14.813-2.493,4.4a43.947,43.947,0,0,0-12.516-5.426l.293-1.32c1.075-.049,1.859-.049,2.445-.049A27.673,27.673,0,0,1,850.991,21.377Zm-24.83-3.521c.049,12.663-1.564,17.21-7.871,22A30.694,30.694,0,0,1,804.9,45.186l-.342-1.466a28.341,28.341,0,0,0,11.537-6.7c4.4-4.449,5.476-8.213,5.525-18.872V5.635l-.44-2.934,5.035.343a.882.882,0,0,1,.93.831c0,.44-.245.782-.979,1.271ZM802.548,30.128H798V6.368l-.44-2.933,5.035.391a.881.881,0,0,1,.929.831c0,.391-.244.733-.978,1.271ZM777.368,14.875,777.954,40v.782a4.314,4.314,0,0,1-1.222,2.934,4.739,4.739,0,0,1-3.178.929h-8.018V42.4h5.085c2.053-.049,2.737-.684,2.835-2.738l-.489-20.826c-7.871,11.733-14.372,17.306-24.542,21.119l-.635-1.173c8.7-4.888,16.964-13.787,22-23.76l.1-.147H750.674l-1.955.391V12.235l1.955.391h22.147l-.147-6.893-.489-3.276,4.547.244c.782,0,1.222.343,1.222.832,0,.391-.2.684-.831,1.173l.2,7.92h10.853l1.956-.391v3.031l-1.956-.391Zm-45.24-4.938,1.222-.929c6.062,4.547,10.9,13.347,12.516,22.831l-4.694,2.1C739.314,23.724,736.429,16.146,732.128,9.937ZM716.092,43.084c-2.787,0-5.427-2.69-7.529-7.773-1.662-3.912-2.592-8.946-2.934-15.4,0-.44-.049-3.814-.1-10.121l-.245-2.933,4.4.293c.733.049,1.222.391,1.222.88s-.245.782-1.075,1.369v3.13c0,9.729.929,16.622,2.737,20.924,1.369,3.13,3.13,5.427,4.254,5.427,1.173,0,2.689-2.982,3.813-7.431l2.152.684C721.225,39.173,718.829,43.084,716.092,43.084ZM672.313,44.8l-.2-1.662a55.254,55.254,0,0,0,12.125-2.885c6.16-2.4,9.484-6.061,9.484-10.608s-3.422-7.382-8.946-7.382a19.663,19.663,0,0,0-12.418,4.5,20.115,20.115,0,0,0-4.595,5.328h-3.276l1.321-20.044L665.468,9.5l4.547.489c.587.049.929.391.929.832s-.244.733-.929,1.222L668.891,26.8a21.822,21.822,0,0,1,16.622-7.089c4.4,0,8.018,1.173,10.218,3.324a9.446,9.446,0,0,1,2.885,6.942c0,5.427-3.667,9.777-10.267,12.272C684.584,43.671,680.967,44.209,672.313,44.8ZM670.749,4.022l.147-1.614c2.1-.1,3.081-.147,4.156-.147a47.76,47.76,0,0,1,10.462,1.272,23.053,23.053,0,0,1,4.645,1.613l-3.521,4.106A40.4,40.4,0,0,0,670.749,4.022Zm-14.474,26.5c-2.346-1.32-3.324-1.809-5.719-2.933-1.321,5.475-2.3,7.724-4.547,10.657a20.122,20.122,0,0,1-10.609,6.7l-.635-1.222c6.795-3.961,10.022-8.8,11.83-17.747a47.015,47.015,0,0,0-14.471-3.031c-2.542,6.307-4.253,9.826-6.111,12.663-1.906,2.835-4.008,4.253-6.257,4.253-3.276,0-5.769-3.177-5.769-7.333,0-5.181,3.471-9.484,8.947-11.146A22.554,22.554,0,0,1,628.9,20.4c1.906-5.085,2.933-7.92,4.937-14.129-3.959.342-7.138.489-9.582.489-.831,0-2.1-.049-3.813-.1l-.293-3.226,3.08,1.027c5.476-.1,7.578-.2,10.511-.44L635.2,2.506l3.422,1.712a1.273,1.273,0,0,1,.733,1.027c0,.538-.391,1.027-1.369,1.613-2.1,6.111-2.737,7.871-4.938,13.64a68.151,68.151,0,0,1,14.08,2.542c.293-2.151.342-2.4.587-4.889l-.049-2.1,4.009.929c.733.147,1.124.489,1.124.88s-.244.734-.88,1.125c-.244,2.3-.391,3.275-.733,5.328a48.333,48.333,0,0,1,6.5,2.885ZM622.15,24.75a9.855,9.855,0,0,0-5.28,8.311c0,2.152,1.124,3.863,2.494,3.863,2.053,0,3.813-2.786,7.969-12.516l-.413-1.32A15.662,15.662,0,0,0,622.15,24.75Zm-16.161-8.164C586.629,22.4,577.78,27.684,577.78,33.5c0,4.352,4.694,6.16,15.742,6.16a73.7,73.7,0,0,0,14.325-1.32v4.743a93.141,93.141,0,0,1-13.885.831c-6.454,0-10.609-.538-13.64-1.809-3.813-1.663-5.866-4.5-5.866-8.311,0-3.716,2.053-6.8,6.843-10.219a44.191,44.191,0,0,1,6.063-3.617L584.282,5.1l-.831-2.934h4.839a.915.915,0,0,1,.93.832c0,.391-.2.733-.783,1.222l2.787,13.932c.733-.342,1.417-.587,2.4-.978,3.472-1.369,7.138-2.737,10.952-4.2l1.711-1.271,1.711,3.959a1.689,1.689,0,0,1,.147.587.889.889,0,0,1-.831.782A2.709,2.709,0,0,1,605.989,16.586ZM550.3,15.022l-.1-1.369a24.537,24.537,0,0,1,8.605-1.271,24.236,24.236,0,0,1,9.582,1.564l-2.739,4.008A36.458,36.458,0,0,0,550.3,15.022Zm-10.022-4.743c-3.715,11.05-7.089,18.627-11.782,26.547l-3.716-2.4a108.027,108.027,0,0,0,11.1-24.005h-1.908c-3.031,0-4.741-.049-8.262-.293l-.244-3.324,2.641,1.124c2.64.147,4.35.244,8.506.244l.049-.147.587-2c.1-.342.293-1.075.538-2.053l.391-2.494,4.3.831a.791.791,0,0,1,.684.783c0,.342-.146.587-.88,1.075-.44,1.418-.88,2.737-1.027,3.177a5.839,5.839,0,0,0-.2.684c2.69-.147,4.694-.342,8.164-.733l3.032-1.515-.147,3.471C548.052,9.79,543.995,10.132,540.278,10.279Zm-19.246,20.24c-2.346-1.32-3.324-1.809-5.719-2.933-1.32,5.475-2.3,7.724-4.547,10.657a20.122,20.122,0,0,1-10.609,6.7l-.635-1.222c6.8-3.961,10.022-8.8,11.831-17.747a47.01,47.01,0,0,0-14.471-3.031c-2.542,6.307-4.253,9.826-6.11,12.663-1.908,2.835-4.009,4.253-6.258,4.253-3.276,0-5.769-3.177-5.769-7.333,0-5.181,3.471-9.484,8.947-11.146a22.562,22.562,0,0,1,5.965-.978c1.906-5.085,2.933-7.92,4.938-14.129-3.961.342-7.138.489-9.583.489-.831,0-2.1-.049-3.813-.1L484.9,3.435l3.08,1.027c5.476-.1,7.578-.2,10.512-.44l1.466-1.516,3.422,1.712a1.273,1.273,0,0,1,.733,1.027c0,.538-.391,1.027-1.369,1.613-2.1,6.111-2.737,7.871-4.938,13.64a68.152,68.152,0,0,1,14.08,2.542c.293-2.151.342-2.4.587-4.889l-.049-2.1,4.009.929c.733.147,1.124.489,1.124.88s-.244.734-.88,1.125c-.244,2.3-.391,3.275-.733,5.328a48.405,48.405,0,0,1,6.5,2.885ZM486.908,24.75a9.857,9.857,0,0,0-5.28,8.311c0,2.152,1.125,3.863,2.494,3.863,2.053,0,3.813-2.786,7.969-12.516l.587-1.32A14.36,14.36,0,0,0,486.908,24.75ZM459.827,40.092h5.749V6.305h-5.514V4.193h16.013V6.305h-5.514V40.092h5.748V42.2H459.827ZM452.085,42.2h-2.7L429.56,9.883V40.092h4.693V42.2H422.345V40.092h4.693V6.305h-4.693V4.193h9.561L449.563,32.7V6.305H444.87V4.193h11.907V6.305h-4.693Zm-49.665-2.112h5.749V6.305h-5.514V4.193h16.013V6.305h-5.514V40.092H418.9V42.2H402.419Zm-17.85,0h4.693V10.47L376.71,40.034h-2.7l-13.021-29.8V40.092h4.516V42.2H353.774V40.092h4.693V6.305h-4.693V4.193h10.031l12.9,29.388L389.146,4.193h9.8V6.305h-4.693V40.092h4.693V42.2H384.57ZM349.01,46.115a28.279,28.279,0,0,1-10.658-22.489A28.279,28.279,0,0,1,349.01,1.137H351.7a22.039,22.039,0,0,0-4.743,5.329,30.914,30.914,0,0,0-5.035,17.209c0,9.044,3.422,16.915,9.777,22.44Zm198.65-16.573a26.37,26.37,0,0,1,4.3.342V23.235l-.147-3.617,3.862.049c.733,0,1.173.293,1.173.782,0,.342-.2.538-.978,1.075v9.142a29.86,29.86,0,0,1,11.929,6.5l-2.885,3.666c-3.129-3.08-7.04-5.915-9.044-6.6v4.057a7.42,7.42,0,0,1-.684,3.667c-1.075,1.906-3.52,2.933-6.894,2.933-6.258,0-10.8-3.373-10.8-8.018C537.492,32.279,541.305,29.542,547.661,29.542Zm-6.893,4.792a3.351,3.351,0,0,0-.88,2.249c0,2.884,3.325,4.987,7.822,4.987,2.884,0,4.254-1.125,4.254-3.472V33.208a17.97,17.97,0,0,0-5.085-.684C543.995,32.524,541.745,33.208,540.767,34.333Z" transform="translate(-330.067 1416.791)" fill="#e6014b" fill-rule="evenodd"/>
    <path id="tit02-2" data-name="tit02" d="M355.05,26.839l-3.325,4.448A48.546,48.546,0,0,0,333.49,18.674V44.585h-4.547V5.572L328.6,2.638l4.889.342c.587.05.978.392.978.832s-.342.831-.978,1.173V16.864A52.186,52.186,0,0,1,355.05,26.839ZM283.844,41.75c-.342.782-.733,1.124-1.271,1.124-.489,0-.929-.391-1.222-1.075l-1.76-4.352,2.591-.049c10.365-2.151,15.938-4.645,22.44-9.924a48.547,48.547,0,0,0,12.467-15.84l1.369.635A41.212,41.212,0,0,1,307.849,30.26C301.836,35.932,294.893,39.256,283.844,41.75ZM279.151,6.3l.587-1.271c6.551,1.32,11.391,3.715,15.6,7.676l-4.009,4.057A45.963,45.963,0,0,0,279.151,6.3ZM266.882,1.367l.831-.684a9.955,9.955,0,0,1,5.671,5.183l-3.325,1.662A19.09,19.09,0,0,0,266.882,1.367ZM264,8.407A19.358,19.358,0,0,0,261.259,2l.929-.635a9.775,9.775,0,0,1,5.183,5.525ZM245.224,15.4l25.715-2.249c-2.346,8.018-8.849,14.96-17.4,18.626l-.782-1.271a37.813,37.813,0,0,0,12.076-14.569l-19.6,1.711V35.785c0,2.591.733,2.835,8.653,2.835,7.089,0,9.289-.147,13.836-.88V42.19a104.232,104.232,0,0,1-12.272.538c-2.1,0-5.719-.1-8.115-.147-3.275-.147-4.4-.391-5.279-1.174-.831-.684-1.271-2.3-1.271-4.5V18.038l-10.17.881-2.249.635-.293-3.13,2.3.244,10.414-.929V6.5l-.441-3.031,4.938.342a.954.954,0,0,1,.929.88c0,.44-.244.733-.978,1.271Zm-56.04,27.769V7.185l-.44-2.933,4.987.342a.919.919,0,0,1,.929.88c0,.391-.293.733-.978,1.222V37.643c11.832-2.2,22.587-10.169,28.747-21.267l1.369.684a35.495,35.495,0,0,1-13.4,17.992C204.682,39.207,195.784,42.63,189.184,43.167ZM176.4,10.264a4.934,4.934,0,0,1-3.031-1.027c-.929,7.578-2.739,13.1-6.111,18.725-5.28,8.507-12.663,13.2-25.031,15.938l-.538-1.662c15.2-4.938,23.955-15.351,26.448-31.387H140.175l-2.151.44V8.211l2.151.391,32.561.049a5.05,5.05,0,0,1-1.271-3.324,4.962,4.962,0,0,1,9.924,0A5,5,0,0,1,176.4,10.264Zm0-7.92a3.027,3.027,0,0,0-2.982,2.983,3.036,3.036,0,0,0,3.031,2.982,2.983,2.983,0,1,0-.049-5.965Zm-58.166,31a40.414,40.414,0,0,0-5.623-11.1l1.271-.88a28.149,28.149,0,0,1,8.41,9.24Zm12.516,6.991c-.44,3.912-1.859,5.329-5.525,5.28h-8.311V43.558h6.258c1.466.049,2.346-.391,2.835-1.515.684-.637,1.906-16.868,2.2-29.529H115.156a34.221,34.221,0,0,1-5.965,7.724l-1.173-.929c3.226-5.427,5.181-10.561,6.991-18.138L119.36,2.2a1.134,1.134,0,0,1,.88.93c0,.538-.44.88-1.418,1.124-1.466,3.764-1.955,4.937-2.64,6.306h16.329C132.316,19.75,131.338,35.834,130.752,40.331ZM96.48,22.194h.587c3.716-.147,4.84-.2,6.893-.293l.929-.1a21.375,21.375,0,0,0-1.906-3.912l1.124-.635a17.191,17.191,0,0,1,5.916,7.773l-3.667,1.712c-.44-1.712-.635-2.445-.978-3.472-.538.147-1.124.244-1.711.391l-2.2.44h-.147V45.856H97.555V24.735c-1.809.342-2.1.342-5.719.88-.44.588-.733.832-1.077.832a.945.945,0,0,1-.733-.637L89,22.389l2.934-.049,1.027-.049h1.075l.1-.147a110.737,110.737,0,0,0,9.533-14.96l3.521,1.955a.822.822,0,0,1,.489.733c0,.587-.391.881-1.468.979A119.069,119.069,0,0,1,96.48,22.194Zm-1.809-10.56a12.836,12.836,0,0,1,3.373,2.835l-2.493,3.617a39.646,39.646,0,0,0-6.307-8.115L89.929,8.9a17.422,17.422,0,0,1,3.276,1.76,49.5,49.5,0,0,0,3.862-9.484l4.009,1.711a.966.966,0,0,1,.684.832c0,.538-.391.831-1.564,1.075A51.194,51.194,0,0,1,94.671,11.634Zm-20.028,22.1a23.538,23.538,0,0,0,5.28,6.454,4.163,4.163,0,0,0,2,1.124c.881,0,1.419-2,1.956-7.627l1.76.246c-.2,4.35-.587,7.235-1.271,9.044-.538,1.613-1.515,2.64-2.494,2.64-2.786,0-6.843-3.666-10.071-9a34.923,34.923,0,0,1-15.644,9l-.44-1.466A39.4,39.4,0,0,0,70,33.389c-2.64-5.524-4.2-12.662-4.792-21.755H48.488v3.519l-.049,4.938H61.982c-.147,7.92-.44,14.276-.733,14.862-.489,2.053-1.859,2.933-4.3,2.933H51.176V35.834h3.863c1.809-.049,2.4-.684,2.591-2.787.244-3.422.489-7.627.538-11H48.439c0,6.6-.1,8.458-.733,12.272A20.305,20.305,0,0,1,41.741,45.66l-1.027-.831c3.275-6.16,3.863-10.56,3.716-29.676V9.678H65.11c-.049-1.124-.1-2.3-.1-3.813V1.22h3.667c.684,0,1.027.2,1.027.635,0,.342-.147.489-.782.978V5.865c0,1.564.049,2.689.1,3.813H82.711l1.955-.391v2.738l-1.955-.391H69.119c.489,7.822,1.515,12.955,3.568,18.04a50.84,50.84,0,0,0,5.427-12.418l3.519,1.37c.635.293.929.587.929,1.027,0,.538-.391.831-1.32,1.075a65.459,65.459,0,0,1-6.8,12.613l.1.147ZM72.932,2.98,74.056,2.2a18.084,18.084,0,0,1,6.4,3.569L76.551,8.553A30.17,30.17,0,0,0,72.932,2.98Zm-38.8-1.613.782-.684a9.792,9.792,0,0,1,5.769,5.085l-3.276,1.76A19.666,19.666,0,0,0,34.131,1.367ZM31.345,8.26A20.249,20.249,0,0,0,28.509,1.9l.88-.635A9.758,9.758,0,0,1,34.669,6.7Zm-1.125,3.765A45.97,45.97,0,0,0,17.167,10.46,82.384,82.384,0,0,0,3.38,11.585L2.989,9.922c5.427-2.444,10.12-3.275,18.528-3.275a41.9,41.9,0,0,1,8.7.733ZM2.744,31.336c0,5.329,5.329,7.871,16.475,7.871a76.183,76.183,0,0,0,15.4-1.466v4.987a105.182,105.182,0,0,1-14.178.929c-5.183,0-10.071-.538-12.663-1.418C2.842,40.575.006,37.349.006,33.389c0-2.689.783-5.133,2.641-8.262l1.613.684C3.136,28.3,2.744,29.625,2.744,31.336ZM95.4,29.429c.538.147.733.391.733.782,0,.489-.342.782-1.173,1.027-1.76,5.476-2.444,6.991-4.889,10.707L89,41.406a61.332,61.332,0,0,0,2.543-13.1Zm14.618,8.507-3.961,1.711a57.812,57.812,0,0,0-2.542-10.853l1.32-.489A27.892,27.892,0,0,1,110.022,37.936Z" transform="translate(8.279 1345.206)" fill="#e6014b" fill-rule="evenodd"/>
  </g>
</svg>
