<svg xmlns="http://www.w3.org/2000/svg" width="743.26" height="33.692" viewBox="0 0 743.26 33.692">
  <path id="tit08" d="M742.475,14.753a31.811,31.811,0,0,1-3.564,11.662,24.912,24.912,0,0,0,5.147,3.564,26.029,26.029,0,0,0-1.871,3.743,24.2,24.2,0,0,1-5.256-4.427,19.964,19.964,0,0,1-5.255,4.5L731.064,33v1.044h-3.419V2.01h14.686c-.144,5.292-.324,7.595-.648,8.423-.54,1.512-1.584,2.016-4.032,2.016h-4.175V10.577h2.735c2.124-.072,2.232-.288,2.484-6.839h-7.631V14.753Zm-3.852,1.727H733.26a16.068,16.068,0,0,0,3.383,7.559A29.022,29.022,0,0,0,738.623,16.48Zm-7.559,15.91a25.07,25.07,0,0,0,4.176-5.4,23.973,23.973,0,0,1-3.276-10.511h-.9Zm-6.443-19.941a28.087,28.087,0,0,1-3.312,6.191H724.8l1.512-.288v2.3l-1.512-.288h-4.68v4.679h3.924l1.512-.288v2.3l-1.512-.288h-3.924v7.379H716.7V26.775h-3.924l-1.511.288v-2.3l1.511.288H716.7V20.368h-4.68l-1.511.288v-2.3l1.511.288h1.908v-.108a47.87,47.87,0,0,0-1.224-6.083h-.972l-1.511.288v-2.3l1.511.288H716.7V6.294h-3.564l-1.511.288v-2.3l1.511.288H716.7V.462h3.239c.5,0,.756.144.756.5,0,.252-.108.4-.576.756V4.566h3.492l1.512-.288v2.3l-1.512-.288h-3.492v4.427h4.968l1.476-.288v2.3l-1.476-.288Zm-10.475,0a16.159,16.159,0,0,1,3.132,4.355l-2.484,1.836h4.823l.037-.108c.467-1.944.9-4.211,1.151-5.795l.036-.288Zm-27.577,1.764-1.512.288V12.2l1.512.288h8.1V9.677H689.7l-1.512.288v-2.3l1.512.287h4.967V5.322h-6.587L686.6,5.61v-2.3l1.476.288h6.587V.678h3.456q.756,0,.756.54c0,.216-.108.4-.576.756v1.62h7.019l1.512-.288v2.3l-1.512-.288H698.3V7.949h5.759l1.512-.287v2.3l-1.512-.288H698.3v2.808h8.243l1.511-.288v2.3l-1.511-.288Zm-1.188-2.3a20.243,20.243,0,0,0-2.123-5.363l.791-.72a8.619,8.619,0,0,1,3.924,3.743Zm-2.375,22.137h-3.528V.678h3.348c.5,0,.756.144.756.5,0,.252-.108.4-.576.756Zm-8.783-17.962A32.959,32.959,0,0,0,675.914,5.9h1.728c.18,2.231.216,3.563.216,5.435a20.313,20.313,0,0,1-1.224,8.027Zm-14.475,13.1V34.01h-3.276V29.187h-10.15l-1.512.288v-2.3l1.512.288h10.15V24.867h-8.818V13.673h8.818v-2.52H647.69l-1.476.288v-2.3l1.476.288h8.782V6.618h3.1c.5,0,.756.144.756.5,0,.252-.108.4-.576.756V9.425h9.971l1.476-.288v2.3l-1.476-.288h-9.971v2.52h9.143V24.867h-9.143v2.592h10.511l1.512-.288v2.3l-1.512-.288ZM656.472,15.4h-5.4V18.28h5.4Zm0,4.607h-5.4V23.14h5.4Zm9-4.607h-5.723V18.28h5.723Zm0,7.739V20.008h-5.723V23.14Zm-20.625-17.6v5.471c-.072,14.038-.9,17.494-5.435,23l-1.188-.684c2.2-5.147,2.663-8.819,2.663-22.317V3.81h13.247V.462h4.139c.5,0,.756.144.756.5,0,.252-.108.4-.576.756V3.81h11.627l1.512-.288v2.3l-1.512-.288ZM614.785,32.714,613.273,33V30.7l1.512.288h8.063V20.08h-6.479l-1.512.288v-2.3l1.512.288h6.479V9.893h3.78c.5,0,.756.18.756.5,0,.252-.108.4-.576.756v7.2h6.3l1.512-.288v2.3l-1.512-.288h-6.3V30.987h7.775l1.475-.288V33l-1.475-.288Zm1.3-25.2a42.089,42.089,0,0,1-4.427,8.566V34.046h-3.708V20.836a26.991,26.991,0,0,1-4.823,4.211l-.9-1.223a41.025,41.025,0,0,0,5.723-7.92V11.8l1.98.36c.576-1.152,1.512-3.384,1.979-4.643h-7.7l-1.511.288V5.5l1.511.288h8.279A47.712,47.712,0,0,0,613.957.462l3.816.756c.684.144.936.36.936.72s-.252.576-.936.9c-.5,1.548-.72,2.124-1.008,2.952h17.314l1.512-.288v2.3l-1.512-.288Zm-32.3,24.016a2.878,2.878,0,1,1,2.052-.843A2.793,2.793,0,0,1,583.777,31.534Zm-8.6-.475h-3.2l-13.478-21.3V28.985h3.24v2.074H552.76V28.985h3.37V5.139h-3.37V3.065h7.733L572.8,22.332V5.139h-3.327V3.065h9.072V5.139h-3.369Zm-35.726-2.074h3.369l-2.635-7.819h-8.165L529.3,28.985h3.2v2.074h-9.028V28.985h3.283L536,3.065h3.067l9.245,25.92h3.11v2.074H539.455Zm-3.2-19.44h-.216l-3.283,9.461h6.7Zm-26.05,19.44h3.24V9.675L505.2,28.985h-2.678L493.663,9.718V28.985h3.2v2.074h-8.942V28.985h3.37V5.139h-3.37V3.065h8.338l9.028,19.742,8.425-19.742h8.337V5.139h-3.369V28.985h3.369v2.074H510.208ZM476.469,18.142V28.985h3.715v2.074H467.527V28.985h3.715V19.179l-6.955-14.04h-3.37V3.065h12.01V5.139h-3.111l5.228,10.713,5.572-10.713H477.16V3.065h9.332V5.139h-3.37Zm-31.795.216h-2.419V28.985h3.369v2.074H433.658V28.985h3.37V5.139h-3.37V3.065h13q4.449,0,6.739,2.16a7.114,7.114,0,0,1,2.29,5.4,7.25,7.25,0,0,1-1.469,4.493,7.92,7.92,0,0,1-4.061,2.765l7.128,11.1h2.981v2.074h-7.733Zm4.363-11.686a3.4,3.4,0,0,0-2.851-1.533h-3.931V16.284h3.931a3.38,3.38,0,0,0,2.808-1.663,6.777,6.777,0,0,0,1.166-4A6.523,6.523,0,0,0,449.037,6.672Zm-22.2-1.533h-3.845V28.985h4.1v2.074H413.657V28.985h4.1V5.139h-3.888l-2.16,5.788H408.9V3.065h22.939v7.862h-2.808ZM404.11,31.059h-3.2l-13.478-21.3V28.985h3.24v2.074h-8.986V28.985h3.37V5.139h-3.37V3.065h7.733l12.312,19.267V5.139h-3.327V3.065h9.072V5.139H404.11Zm-27.475-8.511a8.853,8.853,0,0,1-2.462,6.48,9.251,9.251,0,0,1-6.912,2.506,10.621,10.621,0,0,1-7.5-2.571q-2.786-2.569-2.786-7.754V5.139h-3.37V3.065h11.967V5.139h-3.37V22.678a6.927,6.927,0,0,0,1.534,4.86,5.553,5.553,0,0,0,4.3,1.663,6.389,6.389,0,0,0,3.111-.778,5.766,5.766,0,0,0,2.268-2.246,6.833,6.833,0,0,0,.842-3.456V5.139h-3.37V3.065h9.116V5.139h-3.37ZM346.352,29.4a11.384,11.384,0,0,1-7.128,2.182,12.38,12.38,0,0,1-7.279-1.987,11.409,11.409,0,0,1-4.1-5.1,17.253,17.253,0,0,1-1.275-6.609,20.442,20.442,0,0,1,1.361-7.474,12.863,12.863,0,0,1,4.212-5.681,11.318,11.318,0,0,1,7.085-2.181,12.431,12.431,0,0,1,7.236,1.987,11.446,11.446,0,0,1,4.169,5.119,17.061,17.061,0,0,1,1.3,6.588,20.442,20.442,0,0,1-1.361,7.474A12.86,12.86,0,0,1,346.352,29.4ZM344.624,8.6q-1.944-4.148-5.875-4.148a5.514,5.514,0,0,0-5.141,3.024,15.678,15.678,0,0,0-1.685,7.69,24.1,24.1,0,0,0,1.966,10.411q1.965,4.105,5.9,4.1a5.48,5.48,0,0,0,5.12-2.981,15.591,15.591,0,0,0,1.663-7.646A24.633,24.633,0,0,0,344.624,8.6ZM310.971,27.473a6.076,6.076,0,0,0,4.191,1.685,6.467,6.467,0,0,0,4.233-1.491,7.5,7.5,0,0,0,2.419-4.514h2.247a9.421,9.421,0,0,1-9.763,8.424,12.188,12.188,0,0,1-7.28-2.03,11.669,11.669,0,0,1-4.1-5.163,17.545,17.545,0,0,1-1.274-6.674,20.386,20.386,0,0,1,1.339-7.431,12.527,12.527,0,0,1,4.169-5.594,11.52,11.52,0,0,1,7.15-2.138,14.182,14.182,0,0,1,4.881.734,23.136,23.136,0,0,1,3.8,1.814v5.832h-3.672A8.282,8.282,0,0,0,317.494,6a4.841,4.841,0,0,0-3.672-1.556,5.514,5.514,0,0,0-5.14,3.024A15.566,15.566,0,0,0,307,15.118a23.755,23.755,0,0,0,1.058,7.5A11.185,11.185,0,0,0,310.971,27.473Zm-35.942,1.512h4.191V5.139h-4.191V3.065h13.608V5.139h-4.19V28.985h4.19v2.074H275.029Zm-4.924,2.074h-3.2l-13.479-21.3V28.985h3.24v2.074h-8.985V28.985h3.369V5.139h-3.369V3.065h7.733l12.312,19.267V5.139H264.4V3.065h9.072V5.139h-3.369Zm-38.016-2.074h4.19V5.139h-4.19V3.065H245.7V5.139h-4.19V28.985h4.19v2.074H232.089Zm-13.824,0h3.24V9.675l-8.251,19.31h-2.679L201.719,9.718V28.985h3.2v2.074h-8.942V28.985h3.369V5.139h-3.369V3.065h8.337l9.029,19.742,8.424-19.742H230.1V5.139h-3.37V28.985h3.37v2.074H218.265Zm-45.489,2.074h-2.938l-6.7-19.786-6,19.786h-2.981l-7.949-25.92h-3.413V3.065h12.1V5.139h-3.413l5.487,18.36,6.048-20.261h2.765L172.6,23.585,177.96,5.139h-3.37V3.065h9.159V5.139h-3.37ZM118.69,28.985h3.369V5.139H118.69V3.065h21.945v7.862h-3.024l-2.2-5.788h-8.122V15.2h4.493V11.835h2.592v8.9h-2.592v-3.37h-4.493V28.985H135.8l2.16-5.789h3.024v7.863H118.69Zm-4.925,2.074h-3.2L97.09,9.761V28.985h3.24v2.074H91.344V28.985h3.37V5.139h-3.37V3.065h7.733l12.312,19.267V5.139h-3.326V3.065h9.072V5.139h-3.37ZM55.877,28.985h3.37V5.139h-3.37V3.065H77.823v7.862H74.8L72.6,5.139H64.474V15.2h4.493V11.835h2.592v8.9H68.967v-3.37H64.474V28.985h8.51l2.16-5.789h3.024v7.863H55.877Zm-13.953,0h3.369V17.364H34.148V28.985h3.369v2.074H25.551V28.985H28.92V5.139H25.551V3.065H37.56V5.139H34.148V15.2H45.293V5.139H41.924V3.065H53.89V5.139H50.52V28.985h3.37v2.074H41.924ZM18.726,5.139H14.881V28.985h4.1v2.074H5.55V28.985h4.1V5.139H5.766l-2.16,5.788H.8V3.065H23.737v7.862H20.929ZM705.4,31.023c0,2.051-.828,2.915-2.808,2.915h-5.831V32.066h3.239c1.188,0,1.728-.5,1.728-1.691V27.243H691.429v6.8h-3.564V16.48H705.4Zm-3.672-12.815H691.429v2.7h10.294Zm0,4.428H691.429v2.879h10.294Z" transform="translate(-0.798 -0.462)" fill-rule="evenodd"/>
</svg>
