<svg xmlns="http://www.w3.org/2000/svg" width="643.91" height="83.097" viewBox="0 0 643.91 83.097">
  <g id="tit08-sp" transform="translate(0 -436.368)">
    <path id="tit08" d="M641.526,34.405a3.163,3.163,0,1,1,2.255-.927A3.07,3.07,0,0,1,641.526,34.405Zm-9.447-.522h-3.514L613.752,10.476V31.6h3.561v2.279h-9.876V31.6h3.7V5.4h-3.7V3.116h8.5l13.532,21.176V5.4H625.81V3.116h9.971V5.4h-3.7ZM592.813,31.6h3.7l-2.9-8.594h-8.974L581.656,31.6h3.513v2.279h-9.922V31.6h3.608L589.015,3.116h3.371L602.547,31.6h3.418v2.279H592.813ZM589.3,10.238h-.237l-3.608,10.4h7.359ZM560.669,31.6h3.561V10.381L555.162,31.6h-2.943l-9.733-21.176V31.6H546v2.279H536.17V31.6h3.7V5.4h-3.7V3.116h9.164l9.922,21.7,9.26-21.7h9.163V5.4h-3.7V31.6h3.7v2.279h-13.01ZM523.588,19.687V31.6h4.083v2.279H513.76V31.6h4.083V20.827L510.2,5.4h-3.7V3.116h13.2V5.4h-3.419l5.746,11.774L528.146,5.4h-3.8V3.116H534.6V5.4h-3.7Zm-34.945.237h-2.659V31.6h3.7v2.279H476.536V31.6h3.7V5.4h-3.7V3.116h14.291q4.89,0,7.407,2.374a7.819,7.819,0,0,1,2.517,5.935,7.968,7.968,0,0,1-1.615,4.938,8.7,8.7,0,0,1-4.463,3.039l7.834,12.2h3.276v2.279h-8.5Zm4.8-12.844A3.741,3.741,0,0,0,490.305,5.4h-4.32V17.645h4.32a3.714,3.714,0,0,0,3.086-1.828,7.449,7.449,0,0,0,1.282-4.392A7.169,7.169,0,0,0,493.439,7.081ZM469.035,5.4h-4.226V31.6h4.511v2.279H454.554V31.6h4.511V5.4h-4.273l-2.374,6.361h-3.086V3.116h25.211v8.641h-3.086ZM444.061,33.883h-3.514L425.735,10.476V31.6H429.3v2.279h-9.876V31.6h3.7V5.4h-3.7V3.116h8.5L441.45,24.292V5.4h-3.657V3.116h9.971V5.4h-3.7Zm-30.2-9.354a9.73,9.73,0,0,1-2.706,7.122q-2.707,2.755-7.6,2.754a11.673,11.673,0,0,1-8.239-2.826q-3.061-2.824-3.062-8.522V5.4h-3.7V3.116H401.71V5.4h-3.7V24.672a7.613,7.613,0,0,0,1.686,5.341,6.1,6.1,0,0,0,4.724,1.828,7.022,7.022,0,0,0,3.419-.855,6.338,6.338,0,0,0,2.493-2.468,7.51,7.51,0,0,0,.925-3.8V5.4h-3.7V3.116h10.019V5.4h-3.7Zm-33.283,7.525a12.512,12.512,0,0,1-7.834,2.4,13.607,13.607,0,0,1-8-2.184,12.539,12.539,0,0,1-4.511-5.6,18.962,18.962,0,0,1-1.4-7.264,22.467,22.467,0,0,1,1.5-8.214,14.137,14.137,0,0,1,4.629-6.244,12.439,12.439,0,0,1,7.787-2.4A13.662,13.662,0,0,1,380.7,4.731a12.579,12.579,0,0,1,4.582,5.626,18.751,18.751,0,0,1,1.424,7.241,22.467,22.467,0,0,1-1.5,8.214A14.133,14.133,0,0,1,380.582,32.055Zm-1.9-22.86q-2.137-4.558-6.457-4.559a6.06,6.06,0,0,0-5.65,3.324,17.231,17.231,0,0,0-1.852,8.452,26.484,26.484,0,0,0,2.161,11.442q2.16,4.512,6.48,4.511a6.022,6.022,0,0,0,5.627-3.276,17.135,17.135,0,0,0,1.828-8.4A27.073,27.073,0,0,0,378.683,9.194ZM341.7,29.942a6.677,6.677,0,0,0,4.606,1.852,7.107,7.107,0,0,0,4.652-1.639,8.246,8.246,0,0,0,2.659-4.961h2.47a10.355,10.355,0,0,1-10.73,9.258,13.4,13.4,0,0,1-8-2.231,12.825,12.825,0,0,1-4.511-5.674,19.283,19.283,0,0,1-1.4-7.335,22.406,22.406,0,0,1,1.472-8.167A13.768,13.768,0,0,1,337.495,4.9a12.661,12.661,0,0,1,7.858-2.35,15.587,15.587,0,0,1,5.364.807A25.427,25.427,0,0,1,354.9,5.347v6.41H350.86a9.1,9.1,0,0,0-1.995-5.412,5.32,5.32,0,0,0-4.036-1.71,6.06,6.06,0,0,0-5.649,3.324,17.107,17.107,0,0,0-1.852,8.4,26.109,26.109,0,0,0,1.163,8.237A12.293,12.293,0,0,0,341.7,29.942Zm-39.5,1.662H306.8V5.4h-4.606V3.116H317.15V5.4h-4.605V31.6h4.605v2.279H302.194Zm-5.412,2.279h-3.514L278.454,10.476V31.6h3.561v2.279H272.14V31.6h3.7V5.4h-3.7V3.116h8.5l13.532,21.176V5.4h-3.657V3.116h9.971V5.4h-3.7ZM255,31.6h4.605V5.4H255V3.116h14.956V5.4h-4.605V31.6h4.605v2.279H255Zm-15.193,0h3.561V10.381L234.3,31.6h-2.944l-9.733-21.176V31.6h3.514v2.279h-9.828V31.6h3.7V5.4h-3.7V3.116h9.163l9.923,21.7,9.258-21.7h9.164V5.4h-3.7V31.6h3.7v2.279h-13.01Zm-50,2.279h-3.229l-7.359-21.746-6.6,21.746h-3.276L160.612,5.4h-3.751V3.116h13.294V5.4H166.4l6.031,20.179,6.647-22.268h3.039l7.5,22.363L195.509,5.4h-3.7V3.116h10.066V5.4h-3.7ZM130.368,31.6h3.7V5.4h-3.7V3.116h24.119v8.641h-3.324L148.742,5.4h-8.927V16.458h4.938v-3.7H147.6v9.781h-2.849v-3.7h-4.938V31.6h9.354l2.374-6.362h3.324v8.642h-24.5Zm-5.413,2.279h-3.514L106.629,10.476V31.6h3.561v2.279h-9.876V31.6h3.7V5.4h-3.7V3.116h8.5l13.532,21.176V5.4h-3.655V3.116h9.971V5.4h-3.7ZM61.333,31.6h3.7V5.4h-3.7V3.116h24.12v8.641H82.129L79.707,5.4H70.782V16.458H75.72v-3.7h2.849v9.781H75.72v-3.7H70.782V31.6h9.353l2.374-6.362h3.324v8.642h-24.5ZM46,31.6h3.7V18.832H37.452V31.6h3.7v2.279H28V31.6h3.7V5.4H28V3.116H41.2V5.4h-3.75V16.458H49.7V5.4H46V3.116H59.149V5.4h-3.7V31.6h3.7v2.279H46ZM20.5,5.4H16.276V31.6h4.511v2.279H6.021V31.6h4.511V5.4H6.258L3.884,11.757H.8V3.116H26.009v8.641H22.923Z" transform="translate(-0.798 433.821)" fill-rule="evenodd"/>
    <path id="tit08-2" data-name="tit08" d="M756.368,16.169a34.961,34.961,0,0,1-3.917,12.817,27.381,27.381,0,0,0,5.657,3.917,28.607,28.607,0,0,0-2.056,4.114,26.6,26.6,0,0,1-5.777-4.866A21.94,21.94,0,0,1,744.5,37.1l-.673-.87v1.147h-3.758V2.163H756.21c-.158,5.816-.356,8.347-.712,9.257-.594,1.662-1.741,2.216-4.431,2.216h-4.589V11.579h3.006c2.334-.079,2.453-.317,2.73-7.516h-8.387V16.169Zm-4.234,1.9H746.24a17.659,17.659,0,0,0,3.718,8.308A31.894,31.894,0,0,0,752.135,18.067Zm-8.308,17.486a27.553,27.553,0,0,0,4.59-5.934,26.348,26.348,0,0,1-3.6-11.552h-.989Zm-7.081-21.916a30.869,30.869,0,0,1-3.64,6.8h3.838l1.662-.317v2.532l-1.662-.317H731.8v5.142h4.313l1.662-.317V29.7l-1.662-.317H731.8v8.11h-3.758v-8.11h-4.313l-1.661.317V27.166l1.661.317h4.313V22.34H722.9l-1.661.317V20.124l1.661.317H725v-.119a52.6,52.6,0,0,0-1.345-6.686h-1.068l-1.661.317V11.421l1.661.317h5.46V6.872h-3.917l-1.661.317V4.656l1.661.317h3.917V.462h3.56c.554,0,.831.158.831.554,0,.277-.119.435-.633.831V4.973h3.838l1.662-.317V7.188l-1.662-.317H731.8v4.866h5.46l1.622-.317v2.532l-1.622-.317Zm-11.513,0a17.759,17.759,0,0,1,3.442,4.786l-2.73,2.018h5.3l.041-.119c.513-2.137.988-4.628,1.265-6.369l.04-.317Zm-30.309,1.939-1.662.317V13.359l1.662.317h8.9V10.59h-5.459l-1.662.317V8.375l1.662.315h5.459V5.8h-7.24l-1.622.317V3.588l1.622.317h7.24V.7h3.8q.831,0,.831.593c0,.237-.119.435-.633.831V3.9h7.714l1.662-.317V6.12L715.536,5.8h-7.714V8.691h6.329l1.662-.315v2.531l-1.662-.317h-6.329v3.086h9.06l1.661-.317v2.532l-1.661-.317Zm-1.306-2.532a22.249,22.249,0,0,0-2.333-5.894l.869-.791a9.472,9.472,0,0,1,4.313,4.114Zm-2.61,24.33h-3.877V.7h3.68c.554,0,.831.158.831.554,0,.277-.119.435-.633.831Zm-9.653-19.741a36.224,36.224,0,0,0,1.859-11.2h1.9c.2,2.452.237,3.916.237,5.973a22.325,22.325,0,0,1-1.345,8.822Zm-15.909,14.4v5.3h-3.6v-5.3H650.69l-1.662.317V29.817l1.662.317h11.155V27.285h-9.692v-12.3h9.692v-2.77h-9.652l-1.622.317V10l1.622.317h9.652V7.228h3.4c.554,0,.831.158.831.554,0,.277-.119.435-.633.831v1.7h10.959L678.027,10v2.532l-1.622-.317H665.446v2.77h10.049v12.3H665.446v2.849H677l1.662-.317v2.532L677,32.032Zm-3.6-15.152h-5.934v3.164h5.934Zm0,5.063h-5.934v3.442h5.934Zm9.89-5.063h-6.29v3.164h6.29Zm0,8.506V21.944h-6.29v3.442ZM649.068,6.041v6.013c-.079,15.429-.989,19.227-5.973,25.279l-1.306-.752c2.412-5.657,2.927-9.693,2.927-24.528V4.142h14.559V.462h4.549c.554,0,.831.158.831.554,0,.277-.119.435-.633.831V4.142H676.8l1.662-.317V6.357L676.8,6.041ZM616.029,35.909l-1.662.317V33.694l1.662.317h8.862V22.023H617.77l-1.662.317V19.808l1.662.317h7.121v-9.3h4.154c.554,0,.831.2.831.554,0,.277-.119.435-.633.831v7.912h6.923l1.662-.317V22.34l-1.662-.317h-6.923V34.011h8.545l1.621-.317v2.531l-1.621-.317Zm1.424-27.692a46.26,46.26,0,0,1-4.865,9.415V37.373h-4.075V22.854a29.666,29.666,0,0,1-5.3,4.628l-.989-1.344a45.089,45.089,0,0,0,6.29-8.7V12.924l2.176.4c.633-1.266,1.662-3.719,2.175-5.1H604.4l-1.661.317V6l1.661.317h9.1A52.439,52.439,0,0,0,615.119.462l4.194.831c.752.158,1.029.4,1.029.791s-.277.633-1.029.989c-.554,1.7-.791,2.334-1.108,3.244h19.029L638.9,6V8.533l-1.662-.317ZM715.615,34.05c0,2.254-.91,3.2-3.086,3.2H706.12V35.2h3.56c1.306,0,1.9-.553,1.9-1.859V29.9H700.266v7.477h-3.917V18.067h19.266Zm-4.036-14.084H700.266v2.967h11.314Zm0,4.867H700.266V28h11.314Z" transform="translate(-602.223 481.973)" fill-rule="evenodd"/>
  </g>
</svg>
