<svg xmlns="http://www.w3.org/2000/svg" width="1299.72" height="40.32" viewBox="0 0 1299.72 40.32">
  <path id="tit04" d="M1298.946,39.123a4.056,4.056,0,1,1,1.17-2.85A3.88,3.88,0,0,1,1298.946,39.123Zm-14.79.51h-4.44L1261,10.053v26.7h4.5v2.88h-12.48v-2.88h4.68V3.633h-4.68V.753h10.74l17.1,26.76V3.633h-4.62V.753h12.6v2.88h-4.68Zm-41.94-2.31a15.815,15.815,0,0,1-9.9,3.03,17.2,17.2,0,0,1-10.11-2.76,15.857,15.857,0,0,1-5.7-7.08,23.977,23.977,0,0,1-1.77-9.18,28.385,28.385,0,0,1,1.89-10.38,17.866,17.866,0,0,1,5.85-7.89,15.716,15.716,0,0,1,9.84-3.03,17.262,17.262,0,0,1,10.05,2.76,15.893,15.893,0,0,1,5.79,7.11,23.7,23.7,0,0,1,1.8,9.15,28.385,28.385,0,0,1-1.89,10.38A17.865,17.865,0,0,1,1242.216,37.323Zm-2.4-28.89q-2.7-5.76-8.16-5.76a7.657,7.657,0,0,0-7.14,4.2,21.765,21.765,0,0,0-2.34,10.68q0,8.76,2.73,14.46t8.19,5.7a7.61,7.61,0,0,0,7.11-4.14,21.655,21.655,0,0,0,2.31-10.62Q1242.516,14.193,1239.816,8.433Zm-47.04,28.32h5.82V3.633h-5.82V.753h18.9v2.88h-5.82v33.12h5.82v2.88h-18.9Zm-9.48-33.12h-5.34v33.12h5.7v2.88H1165v-2.88h5.7V3.633h-5.4l-3,8.04h-3.9V.753h31.86v10.92h-3.9Zm-46.08,31.02a8.438,8.438,0,0,0,5.82,2.34,8.986,8.986,0,0,0,5.88-2.07,10.43,10.43,0,0,0,3.36-6.27h3.12a13.555,13.555,0,0,1-4.59,8.64,13.59,13.59,0,0,1-8.97,3.06,16.931,16.931,0,0,1-10.11-2.82,16.2,16.2,0,0,1-5.7-7.17,24.357,24.357,0,0,1-1.77-9.27,28.313,28.313,0,0,1,1.86-10.32,17.394,17.394,0,0,1,5.79-7.77,16,16,0,0,1,9.93-2.97,19.681,19.681,0,0,1,6.78,1.02,31.962,31.962,0,0,1,5.28,2.52v8.1h-5.1q-.48-4.68-2.52-6.84a6.724,6.724,0,0,0-5.1-2.16,7.657,7.657,0,0,0-7.14,4.2,21.625,21.625,0,0,0-2.34,10.62,33.01,33.01,0,0,0,1.47,10.41A15.527,15.527,0,0,0,1137.216,34.653Zm-47.52,2.1h4.68V3.633h-4.68V.753h30.48v10.92h-4.2l-3.06-8.04h-11.28v13.98h6.24v-4.68h3.6v12.36h-3.6v-4.68h-6.24v16.14h11.82l3-8.04h4.2v10.92H1089.7Zm-33.54,0h4.68V3.633h-4.68V.753h16.62v2.88h-4.68v33.12h11.82l3-8.04h4.2v10.92h-30.96Zm-34.26,0h4.68V3.633h-4.68V.753h30.48v10.92h-4.2l-3.06-8.04h-11.28v13.98h6.24v-4.68h3.6v12.36h-3.6v-4.68h-6.24v16.14h11.82l3-8.04h4.2v10.92H1021.9Zm-9.63,2.28a17.545,17.545,0,0,1-7.05,1.32,18.762,18.762,0,0,1-7.38-1.35,11.777,11.777,0,0,1-4.56-3.03v-7.26h5.04q.6,4.74,2.4,6.81a5.843,5.843,0,0,0,4.62,2.07,6.01,6.01,0,0,0,4.53-1.77,6.33,6.33,0,0,0,1.71-4.59,6.592,6.592,0,0,0-3.12-5.76l-10.14-6.72a12.607,12.607,0,0,1-3.75-3.81,9.561,9.561,0,0,1-1.47-5.25,8.588,8.588,0,0,1,3.27-6.99q3.27-2.67,8.97-2.67a19.256,19.256,0,0,1,6.96,1.2,12.283,12.283,0,0,1,4.8,3.06v7.38H1012q-.481-4.98-2.16-6.99a5.5,5.5,0,0,0-4.44-2.01,5.4,5.4,0,0,0-4.17,1.59,5.81,5.81,0,0,0-1.47,4.11,5.672,5.672,0,0,0,2.7,4.98l10.62,6.96a12.448,12.448,0,0,1,4.08,4.29,10.871,10.871,0,0,1,1.44,5.43,9.038,9.038,0,0,1-1.65,5.34A10.877,10.877,0,0,1,1012.266,39.033Zm-44.43-35.4H962.5v33.12h5.7v2.88h-18.66v-2.88h5.7V3.633h-5.4l-3,8.04h-3.9V.753H974.8v10.92h-3.9Zm-34.35,35.4a17.546,17.546,0,0,1-7.05,1.32,18.761,18.761,0,0,1-7.38-1.35,11.777,11.777,0,0,1-4.56-3.03v-7.26h5.04q.6,4.74,2.4,6.81a5.843,5.843,0,0,0,4.62,2.07,6.01,6.01,0,0,0,4.53-1.77,6.33,6.33,0,0,0,1.71-4.59,6.592,6.592,0,0,0-3.12-5.76l-10.14-6.72a12.606,12.606,0,0,1-3.75-3.81,9.56,9.56,0,0,1-1.47-5.25,8.588,8.588,0,0,1,3.27-6.99q3.27-2.67,8.97-2.67a19.256,19.256,0,0,1,6.96,1.2,12.283,12.283,0,0,1,4.8,3.06v7.38h-5.1q-.481-4.98-2.16-6.99a5.5,5.5,0,0,0-4.44-2.01,5.4,5.4,0,0,0-4.17,1.59,5.811,5.811,0,0,0-1.47,4.11,5.672,5.672,0,0,0,2.7,4.98l10.62,6.96a12.448,12.448,0,0,1,4.08,4.29,10.871,10.871,0,0,1,1.44,5.43,9.038,9.038,0,0,1-1.65,5.34A10.877,10.877,0,0,1,933.486,39.033ZM890.2,21.993h-3.36v14.76h4.68v2.88H874.9v-2.88h4.68V3.633H874.9V.753h18.06q6.179,0,9.36,3a9.883,9.883,0,0,1,3.18,7.5,10.075,10.075,0,0,1-2.04,6.24,11,11,0,0,1-5.64,3.84l9.9,15.42h4.14v2.88h-10.74Zm6.06-16.23a4.729,4.729,0,0,0-3.96-2.13h-5.46v15.48h5.46a4.694,4.694,0,0,0,3.9-2.31,9.419,9.419,0,0,0,1.62-5.55A9.059,9.059,0,0,0,896.256,5.763Zm-43.02,30.99h5.82V3.633h-5.82V.753h18.9v2.88h-5.82v33.12h5.82v2.88h-18.9Zm-10.02-33.12h-11.28v13.98h6.24v-4.68h3.6v12.36h-3.6v-4.68h-6.24v16.14h4.68v2.88H820v-2.88h4.68V3.633H820V.753h30.48v10.92h-4.2Zm-45.06,36h-4.44L775,10.053v26.7h4.5v2.88h-12.48v-2.88h4.68V3.633h-4.68V.753h10.74l17.1,26.76V3.633h-4.62V.753h12.6v2.88h-4.68Zm-49.62-2.88h4.68l-3.66-10.86h-11.34l-3.78,10.86h4.44v2.88h-12.54v-2.88h4.56l12.84-36H748l12.84,36h4.32v2.88h-16.62Zm-4.44-27h-.3l-4.56,13.14h9.3Zm-36.18,27h4.5V9.933l-11.46,26.82h-3.72l-12.3-26.76v26.76h4.44v2.88h-12.42v-2.88h4.68V3.633h-4.68V.753h11.58l12.54,27.42,11.7-27.42h11.58v2.88h-4.68v33.12h4.68v2.88h-16.44Zm-46.86-15.06v15.06h5.16v2.88h-17.58v-2.88h5.16V23.133l-9.66-19.5h-4.68V.753h16.68v2.88h-4.32l7.26,14.88,7.74-14.88h-4.8V.753h12.96v2.88H670.3Zm-44.16.3h-3.36v14.76h4.68v2.88H601.6v-2.88h4.68V3.633H601.6V.753h18.06q6.179,0,9.36,3a9.883,9.883,0,0,1,3.18,7.5,10.075,10.075,0,0,1-2.04,6.24,11,11,0,0,1-5.64,3.84l9.9,15.42h4.14v2.88h-10.74Zm6.06-16.23A4.729,4.729,0,0,0,619,3.633h-5.46v15.48H619a4.694,4.694,0,0,0,3.9-2.31,9.419,9.419,0,0,0,1.62-5.55A9.06,9.06,0,0,0,622.956,5.763Zm-30.84-2.13h-5.34v33.12h5.7v2.88h-18.66v-2.88h5.7V3.633h-5.4l-3,8.04h-3.9V.753h31.86v10.92h-3.9Zm-31.56,36h-4.44L537.4,10.053v26.7h4.5v2.88h-12.48v-2.88h4.68V3.633h-4.68V.753h10.74l17.1,26.76V3.633h-4.62V.753h12.6v2.88h-4.68ZM522.4,27.813a12.3,12.3,0,0,1-3.42,9q-3.42,3.48-9.6,3.48-6.54,0-10.41-3.57t-3.87-10.77V3.633h-4.68V.753h16.62v2.88h-4.68v24.36q0,4.44,2.13,6.75a7.714,7.714,0,0,0,5.97,2.31,8.876,8.876,0,0,0,4.32-1.08,8.005,8.005,0,0,0,3.15-3.12,9.483,9.483,0,0,0,1.17-4.8V3.633h-4.68V.753h12.66v2.88H522.4Zm-42.06,9.51a15.815,15.815,0,0,1-9.9,3.03,17.2,17.2,0,0,1-10.11-2.76,15.85,15.85,0,0,1-5.7-7.08,23.976,23.976,0,0,1-1.77-9.18,28.385,28.385,0,0,1,1.89-10.38,17.865,17.865,0,0,1,5.85-7.89,15.715,15.715,0,0,1,9.84-3.03,17.265,17.265,0,0,1,10.05,2.76,15.894,15.894,0,0,1,5.79,7.11,23.7,23.7,0,0,1,1.8,9.15,28.385,28.385,0,0,1-1.89,10.38A17.865,17.865,0,0,1,480.336,37.323Zm-2.4-28.89q-2.7-5.76-8.16-5.76a7.656,7.656,0,0,0-7.14,4.2,21.765,21.765,0,0,0-2.34,10.68q0,8.76,2.73,14.46t8.19,5.7a7.61,7.61,0,0,0,7.11-4.14,21.655,21.655,0,0,0,2.31-10.62Q480.636,14.193,477.936,8.433ZM431.2,34.653a8.436,8.436,0,0,0,5.82,2.34,8.985,8.985,0,0,0,5.88-2.07,10.435,10.435,0,0,0,3.36-6.27h3.12a13.555,13.555,0,0,1-4.59,8.64,13.592,13.592,0,0,1-8.97,3.06,16.929,16.929,0,0,1-10.11-2.82,16.2,16.2,0,0,1-5.7-7.17,24.357,24.357,0,0,1-1.77-9.27,28.312,28.312,0,0,1,1.86-10.32A17.386,17.386,0,0,1,425.886,3a16,16,0,0,1,9.93-2.97,19.681,19.681,0,0,1,6.78,1.02,32,32,0,0,1,5.28,2.52v8.1h-5.1q-.482-4.68-2.52-6.84a6.724,6.724,0,0,0-5.1-2.16,7.656,7.656,0,0,0-7.14,4.2,21.626,21.626,0,0,0-2.34,10.62,32.981,32.981,0,0,0,1.47,10.41A15.527,15.527,0,0,0,431.2,34.653Zm-49.92,2.1h5.82V3.633h-5.82V.753h18.9v2.88h-5.82v33.12h5.82v2.88h-18.9Zm-6.84,2.88H370l-18.72-29.58v26.7h4.5v2.88H343.3v-2.88h4.68V3.633H343.3V.753h10.74l17.1,26.76V3.633h-4.62V.753h12.6v2.88h-4.68Zm-52.8-2.88h5.82V3.633h-5.82V.753h18.9v2.88h-5.82v33.12h5.82v2.88h-18.9Zm-19.2,0h4.5V9.933l-11.46,26.82h-3.72l-12.3-26.76v26.76h4.44v2.88h-12.42v-2.88h4.68V3.633h-4.68V.753h11.58l12.54,27.42L307.3.753h11.58v2.88H314.2v33.12h4.68v2.88h-16.44Zm-63.18,2.88h-4.08l-9.3-27.48-8.34,27.48H213.4l-11.04-36h-4.74V.753h16.8v2.88h-4.74l7.62,25.5L225.7.993h3.84l9.48,28.26,7.44-25.62h-4.68V.753H254.5v2.88h-4.68Zm-75.12-2.88h4.68V3.633h-4.68V.753h30.48v10.92h-4.2l-3.06-8.04h-11.28v13.98h6.24v-4.68h3.6v12.36h-3.6v-4.68h-6.24v16.14H187.9l3-8.04h4.2v10.92h-30.96Zm-6.84,2.88h-4.44l-18.72-29.58v26.7h4.5v2.88h-12.48v-2.88h4.68V3.633h-4.68V.753H136.9L154,27.513V3.633h-4.62V.753h12.6v2.88H157.3Zm-80.4-2.88h4.68V3.633H76.9V.753h30.48v10.92h-4.2l-3.06-8.04H88.836v13.98h6.24v-4.68h3.6v12.36h-3.6v-4.68h-6.24v16.14h11.82l3-8.04h4.2v10.92H76.9Zm-19.38,0H62.2V20.613H46.716v16.14H51.4v2.88H34.776v-2.88h4.68V3.633h-4.68V.753h16.68v2.88h-4.74v13.98H62.2V3.633h-4.68V.753h16.62v2.88h-4.68v33.12h4.68v2.88H57.516ZM25.3,3.633h-5.34v33.12h5.7v2.88H7v-2.88h5.7V3.633H7.3l-3,8.04H.4V.753h31.86v10.92h-3.9Z" transform="translate(-0.396 -0.033)" fill-rule="evenodd"/>
</svg>
