<svg xmlns="http://www.w3.org/2000/svg" width="914.429" height="41.19" viewBox="0 0 914.429 41.19">
  <path id="tit02" d="M904.8,41.579h-2.376a26.135,26.135,0,0,0,8.8-20.2c0-8.185-3.125-15.4-8.8-20.287H904.8a25.3,25.3,0,0,1,9.637,20.243A25.3,25.3,0,0,1,904.8,41.579Zm-2.4-25,1.364.441c-1.144,5.94-3.125,10.561-6.381,14.478-3.7,4.4-8.273,7.217-13.07,7.965V5.934l-.4-2.64,4.357.308a.823.823,0,0,1,.836.748c0,.4-.22.7-.88,1.144V33.922C893.991,31.59,899.492,24.857,902.4,16.583Zm-26.448-4.62c0,8.1-.792,13.246-2.6,17.162A24.14,24.14,0,0,1,863.495,39.6l-.792-1.144c7.085-6.689,9.2-12.718,9.2-26.1V7.43l-.4-2.64,4.489.308a.793.793,0,0,1,.836.748c0,.4-.22.7-.88,1.144Zm-27.873,4.312a5.954,5.954,0,0,0-.088,1.057c-.352,8.361-2.376,13.29-6.953,17.03a31.15,31.15,0,0,1-12.586,5.677l-.44-1.32c7.173-2.729,11.97-6.645,13.906-11.354,1.189-2.816,1.673-5.5,1.937-11.09H827.569l-1.936.4V13.855l1.936.4H843.9c.044-1.188.044-2.156.044-2.772V5.67l-.4-2.772,4.664.308a.828.828,0,0,1,.836.792c0,.352-.22.66-.88,1.1v6.381c0,.616,0,1.584-.044,2.772h13.73l1.937-.4v2.817l-1.937-.4ZM791.653,38.719c-.352.66-.616.88-1.1.88-.44,0-.792-.308-1.056-.968l-1.585-3.7,2.113-.044c9.549-1.5,16.15-4.665,22.135-10.737a35.231,35.231,0,0,0,7.437-11.4l1.32.484a33.823,33.823,0,0,1-6.293,13.114C809.608,32.646,802.391,36.562,791.653,38.719ZM814.844,1.313,815.592.7A8.829,8.829,0,0,1,820.7,5.362l-2.948,1.5A16.8,16.8,0,0,0,814.844,1.313ZM812.028,8a19.446,19.446,0,0,0-2.6-6.117l.792-.572a8.757,8.757,0,0,1,4.752,5.369ZM788.441,5.978l.264-1.232c5.9.044,9.549.792,13.378,2.684l-2.333,3.917A42.662,42.662,0,0,0,788.441,5.978Zm11.353,13.334-2.244,3.96a39.558,39.558,0,0,0-11.266-4.884l.264-1.188c.968-.044,1.673-.044,2.2-.044A24.91,24.91,0,0,1,799.794,19.312Zm-22.35-3.169c.044,11.4-1.408,15.491-7.085,19.8a27.629,27.629,0,0,1-12.057,4.8l-.308-1.32a25.51,25.51,0,0,0,10.385-6.029c3.961-4.005,4.929-7.393,4.973-16.987V5.142l-.4-2.641,4.532.309a.794.794,0,0,1,.837.748c0,.4-.221.7-.881,1.144ZM756.189,27.189H752.1V5.8l-.4-2.64,4.532.352a.793.793,0,0,1,.836.748c0,.352-.22.66-.88,1.144Zm-22.666-13.73.528,22.619v.7a3.883,3.883,0,0,1-1.1,2.641,4.266,4.266,0,0,1-2.861.836h-7.217V38.235h4.577c1.848-.044,2.464-.616,2.552-2.465l-.44-18.746c-7.085,10.561-12.937,15.578-22.091,19.01l-.572-1.056c7.833-4.4,15.27-12.41,19.8-21.387l.088-.132H709.495l-1.76.352V11.083l1.76.352H729.43L729.3,5.23l-.44-2.949,4.093.22c.7,0,1.1.309,1.1.749,0,.352-.176.616-.748,1.056l.176,7.129h9.769l1.761-.352v2.728l-1.761-.352ZM692.8,9.014l1.1-.836c5.457,4.093,9.813,12.014,11.266,20.551l-4.225,1.893C699.27,21.424,696.673,14.6,692.8,9.014ZM678.367,38.851c-2.509,0-4.885-2.421-6.777-7-1.5-3.521-2.333-8.053-2.641-13.862,0-.4-.044-3.433-.088-9.11l-.22-2.64,3.961.264c.66.044,1.1.352,1.1.792s-.22.7-.968,1.232v2.817c0,8.757.836,14.962,2.464,18.834,1.232,2.817,2.817,4.885,3.829,4.885,1.056,0,2.42-2.684,3.432-6.689l1.937.616C682.987,35.33,680.831,38.851,678.367,38.851Zm-39.407,1.54-.176-1.5A49.736,49.736,0,0,0,649.7,36.3c5.545-2.156,8.537-5.456,8.537-9.549s-3.08-6.645-8.053-6.645A17.7,17.7,0,0,0,639,24.153a18.105,18.105,0,0,0-4.136,4.8h-2.949l1.189-18.042L632.8,8.618l4.093.44c.528.044.836.352.836.749s-.22.66-.836,1.1L635.88,24.2a19.643,19.643,0,0,1,14.962-6.381c3.961,0,7.217,1.056,9.2,2.992a8.5,8.5,0,0,1,2.6,6.249c0,4.885-3.3,8.8-9.242,11.046C650.006,39.379,646.75,39.863,638.96,40.391Zm-1.408-36.7.132-1.453c1.892-.088,2.773-.132,3.741-.132a42.991,42.991,0,0,1,9.417,1.145A20.753,20.753,0,0,1,655.023,4.7l-3.169,3.7A36.36,36.36,0,0,0,637.552,3.69ZM624.523,27.541c-2.112-1.188-2.992-1.628-5.148-2.64-1.189,4.928-2.069,6.953-4.093,9.593a18.112,18.112,0,0,1-9.549,6.029l-.572-1.1c6.116-3.565,9.021-7.921,10.649-15.975a42.32,42.32,0,0,0-13.026-2.728,64.36,64.36,0,0,1-5.5,11.4c-1.716,2.552-3.608,3.828-5.632,3.828-2.949,0-5.193-2.86-5.193-6.6,0-4.664,3.124-8.537,8.053-10.033a20.3,20.3,0,0,1,5.369-.88c1.716-4.577,2.64-7.129,4.444-12.718-3.564.308-6.425.44-8.625.44-.748,0-1.892-.044-3.432-.088L592,3.162l2.772.924c4.929-.088,6.821-.176,9.461-.4l1.321-1.365,3.08,1.541a1.146,1.146,0,0,1,.66.924c0,.484-.352.924-1.232,1.452-1.892,5.5-2.464,7.085-4.445,12.278a61.345,61.345,0,0,1,12.674,2.288c.264-1.936.308-2.156.528-4.4l-.044-1.892,3.609.836c.66.132,1.012.44,1.012.792s-.22.661-.792,1.013c-.22,2.068-.352,2.948-.66,4.8a43.509,43.509,0,0,1,5.852,2.6Zm-30.716-5.193a8.871,8.871,0,0,0-4.753,7.481c0,1.937,1.012,3.477,2.245,3.477,1.848,0,3.432-2.508,7.173-11.266l-.372-1.188A14.1,14.1,0,0,0,593.807,22.348ZM579.26,15c-17.427,5.237-25.392,9.99-25.392,15.226,0,3.917,4.225,5.545,14.17,5.545a66.337,66.337,0,0,0,12.894-1.188v4.269a83.839,83.839,0,0,1-12.5.748c-5.809,0-9.549-.484-12.278-1.628-3.432-1.5-5.28-4.049-5.28-7.481,0-3.345,1.848-6.117,6.16-9.2a39.776,39.776,0,0,1,5.457-3.256L559.721,4.658l-.748-2.641h4.356a.823.823,0,0,1,.837.749c0,.352-.176.66-.705,1.1l2.509,12.541c.66-.308,1.276-.528,2.156-.88,3.125-1.232,6.425-2.464,9.858-3.784l1.54-1.144,1.54,3.564a1.522,1.522,0,0,1,.132.528.8.8,0,0,1-.748.7A2.438,2.438,0,0,1,579.26,15Zm-50.127-1.408-.088-1.232a22.086,22.086,0,0,1,7.746-1.144,21.815,21.815,0,0,1,8.625,1.408l-2.465,3.608A32.817,32.817,0,0,0,529.133,13.591Zm-9.021-4.269a116.9,116.9,0,0,1-10.605,23.9l-3.345-2.156a97.237,97.237,0,0,0,9.99-21.608h-1.717c-2.728,0-4.268-.044-7.437-.264l-.22-2.992,2.377,1.012c2.376.132,3.916.22,7.657.22l.044-.132.528-1.8c.088-.308.264-.968.484-1.848L518.22,1.4l3.872.748a.712.712,0,0,1,.616.705c0,.308-.131.528-.792.968-.4,1.276-.792,2.464-.924,2.86a5.233,5.233,0,0,0-.176.616c2.421-.132,4.225-.308,7.349-.66l2.729-1.364L530.762,8.4C527.109,8.882,523.457,9.19,520.112,9.322ZM502.788,27.541c-2.112-1.188-2.992-1.628-5.148-2.64-1.188,4.928-2.069,6.953-4.093,9.593A18.112,18.112,0,0,1,484,40.523l-.572-1.1c6.117-3.565,9.021-7.921,10.649-15.975a42.315,42.315,0,0,0-13.026-2.728,64.442,64.442,0,0,1-5.5,11.4c-1.717,2.552-3.609,3.828-5.633,3.828-2.949,0-5.193-2.86-5.193-6.6,0-4.664,3.124-8.537,8.053-10.033a20.309,20.309,0,0,1,5.369-.88c1.716-4.577,2.64-7.129,4.445-12.718-3.565.308-6.425.44-8.626.44-.748,0-1.892-.044-3.432-.088l-.264-2.9,2.772.924c4.929-.088,6.821-.176,9.462-.4l1.32-1.365,3.08,1.541a1.146,1.146,0,0,1,.66.924c0,.484-.352.924-1.232,1.452-1.892,5.5-2.464,7.085-4.445,12.278a61.345,61.345,0,0,1,12.674,2.288c.264-1.936.308-2.156.528-4.4l-.044-1.892,3.609.836c.66.132,1.012.44,1.012.792s-.22.661-.792,1.013c-.22,2.068-.352,2.948-.66,4.8a43.573,43.573,0,0,1,5.853,2.6Zm-30.716-5.193a8.873,8.873,0,0,0-4.753,7.481c0,1.937,1.013,3.477,2.245,3.477,1.848,0,3.432-2.508,7.173-11.266l.528-1.188A12.926,12.926,0,0,0,472.072,22.348ZM447.7,36.158h5.175V5.745h-4.963v-1.9h14.414v1.9h-4.963V36.158h5.174v1.9H447.7Zm-6.969,1.9H438.3L420.451,8.966V36.158h4.224v1.9H413.957v-1.9h4.224V5.745h-4.224v-1.9h8.606L438.456,29.5V5.745h-4.224v-1.9H444.95v1.9h-4.224Zm-44.705-1.9H401.2V5.745h-4.963v-1.9h14.414v1.9h-4.963V36.158h5.174v1.9H396.021Zm-16.067,0h4.224V9.494L372.879,36.1H370.45L358.729,9.283V36.158h4.065v1.9h-10.56v-1.9h4.224V5.745h-4.224v-1.9h9.029L372.879,30.3,384.073,3.844h8.817v1.9h-4.224V36.158h4.224v1.9H379.954Zm-32.008,5.421a25.455,25.455,0,0,1-9.594-20.243,25.455,25.455,0,0,1,9.594-20.243h2.42a19.839,19.839,0,0,0-4.269,4.8,27.827,27.827,0,0,0-4.532,15.49c0,8.141,3.08,15.226,8.8,20.2ZM319.592,24.2l-2.993,4a43.7,43.7,0,0,0-16.414-11.353V40.171h-4.093V5.054l-.308-2.641,4.4.308c.528.045.88.353.88.749s-.308.748-.88,1.056V15.219A46.974,46.974,0,0,1,319.592,24.2ZM255.5,37.619c-.308.7-.66,1.012-1.144,1.012-.44,0-.836-.352-1.1-.968l-1.584-3.917L254,33.7c9.33-1.936,14.346-4.181,20.2-8.933a43.7,43.7,0,0,0,11.222-14.258l1.232.572a37.1,37.1,0,0,1-9.549,16.194C271.692,32.382,265.443,35.374,255.5,37.619Zm-4.224-31.9L251.8,4.57a27.153,27.153,0,0,1,14.038,6.909l-3.609,3.652A41.372,41.372,0,0,0,251.273,5.714ZM240.229,1.269l.748-.616a8.961,8.961,0,0,1,5.1,4.665l-2.993,1.5A17.184,17.184,0,0,0,240.229,1.269Zm-2.6,6.337a17.425,17.425,0,0,0-2.465-5.765L236,1.269a8.8,8.8,0,0,1,4.665,4.973Zm-16.9,6.293,23.147-2.024c-2.112,7.217-7.965,13.466-15.666,16.766l-.7-1.144a34.036,34.036,0,0,0,10.87-13.114l-17.647,1.54V32.25c0,2.332.66,2.552,7.789,2.552a63.559,63.559,0,0,0,12.454-.792v4.005a93.822,93.822,0,0,1-11.046.484c-1.892,0-5.148-.088-7.3-.132-2.948-.132-3.96-.352-4.752-1.057-.748-.616-1.144-2.068-1.144-4.048V16.275l-9.154.793-2.024.572-.264-2.817,2.068.22,9.374-.836V5.89l-.4-2.728,4.445.308a.859.859,0,0,1,.836.792c0,.4-.22.66-.88,1.144Zm-50.443,25V6.506l-.4-2.64,4.489.308a.828.828,0,0,1,.836.792c0,.352-.264.66-.88,1.1V33.922c10.65-1.98,20.331-9.153,25.876-19.143l1.232.616A31.95,31.95,0,0,1,189.39,31.59C184.241,35.33,176.232,38.411,170.291,38.9ZM158.785,9.278a4.441,4.441,0,0,1-2.728-.924,40.155,40.155,0,0,1-5.5,16.855c-4.753,7.657-11.4,11.881-22.531,14.346l-.484-1.5c13.686-4.445,21.563-13.818,23.807-28.252H126.176l-1.936.4V7.43l1.936.352,29.309.044a4.545,4.545,0,0,1-1.144-2.992,4.467,4.467,0,0,1,8.933,0A4.5,4.5,0,0,1,158.785,9.278Zm0-7.129A2.725,2.725,0,0,0,156.1,4.834a2.733,2.733,0,0,0,2.728,2.684,2.685,2.685,0,1,0-.044-5.369Zm-52.357,27.9a36.378,36.378,0,0,0-5.061-9.989l1.144-.792a25.338,25.338,0,0,1,7.57,8.317Zm11.266,6.293c-.4,3.521-1.673,4.8-4.973,4.753H105.24V39.247h5.633a2.317,2.317,0,0,0,2.552-1.364c.616-.573,1.716-15.183,1.98-26.58H103.656a30.8,30.8,0,0,1-5.369,6.953l-1.056-.836a54.29,54.29,0,0,0,6.293-16.327l3.916.924a1.021,1.021,0,0,1,.792.837c0,.484-.4.792-1.276,1.012-1.32,3.388-1.76,4.444-2.376,5.676h14.7C119.1,17.816,118.222,32.294,117.694,36.342ZM86.845,20.016h.528c3.345-.132,4.357-.176,6.205-.264l.836-.088A19.24,19.24,0,0,0,92.7,16.143l1.012-.572a15.474,15.474,0,0,1,5.325,7l-3.3,1.541c-.4-1.541-.572-2.2-.88-3.125-.484.132-1.012.22-1.54.352l-1.98.4H91.2V41.315H87.813V22.3c-1.628.308-1.892.308-5.148.792-.4.529-.66.749-.969.749a.851.851,0,0,1-.66-.573l-.924-3.08,2.641-.044.924-.044h.968l.088-.132A99.679,99.679,0,0,0,93.314,6.506l3.169,1.76a.74.74,0,0,1,.44.66c0,.528-.352.793-1.321.881A107.178,107.178,0,0,1,86.845,20.016Zm-1.628-9.505a11.554,11.554,0,0,1,3.036,2.552l-2.244,3.256a35.686,35.686,0,0,0-5.677-7.305l.616-.968A15.682,15.682,0,0,1,83.9,9.63a44.56,44.56,0,0,0,3.476-8.537l3.609,1.54a.87.87,0,0,1,.616.749c0,.484-.352.748-1.408.968A46.081,46.081,0,0,1,85.217,10.511ZM67.189,30.4a21.187,21.187,0,0,0,4.753,5.809,3.747,3.747,0,0,0,1.8,1.012c.793,0,1.277-1.8,1.761-6.865l1.584.221c-.176,3.916-.528,6.512-1.144,8.141C75.463,40.171,74.583,41.1,73.7,41.1c-2.508,0-6.16-3.3-9.065-8.1a31.436,31.436,0,0,1-14.082,8.1l-.4-1.32a35.465,35.465,0,0,0,12.85-9.682c-2.376-4.972-3.785-11.4-4.313-19.582H43.646v3.168L43.6,18.124h12.19c-.132,7.129-.4,12.85-.66,13.378-.44,1.848-1.673,2.64-3.873,2.64H46.066V32.294h3.477c1.628-.044,2.156-.616,2.332-2.509.22-3.08.44-6.865.484-9.9H43.6c0,5.941-.088,7.613-.66,11.046a18.278,18.278,0,0,1-5.369,10.209l-.924-.748c2.948-5.545,3.477-9.5,3.345-26.712V8.75H58.608c-.044-1.012-.088-2.068-.088-3.432V1.137h3.3c.616,0,.924.176.924.572,0,.308-.132.44-.7.88V5.318c0,1.408.044,2.42.088,3.432H74.451l1.76-.352v2.465l-1.76-.352H62.217c.44,7.041,1.364,11.661,3.212,16.238a45.762,45.762,0,0,0,4.885-11.178L73.482,16.8c.572.264.836.528.836.924,0,.484-.352.748-1.188.968a58.921,58.921,0,0,1-6.117,11.353l.088.132Zm-1.54-27.68,1.012-.7A16.278,16.278,0,0,1,72.426,5.23l-3.52,2.508A27.157,27.157,0,0,0,65.649,2.721ZM30.723,1.269l.7-.616A8.814,8.814,0,0,1,36.62,5.23L33.671,6.814A17.7,17.7,0,0,0,30.723,1.269Zm-2.508,6.2a18.227,18.227,0,0,0-2.553-5.721l.792-.572a8.784,8.784,0,0,1,4.753,4.885ZM27.2,10.863A41.379,41.379,0,0,0,15.453,9.454a74.156,74.156,0,0,0-12.41,1.013l-.352-1.5C7.576,6.77,11.8,6.022,19.369,6.022a37.712,37.712,0,0,1,7.833.66ZM2.471,28.245c0,4.8,4.8,7.085,14.83,7.085a68.575,68.575,0,0,0,13.862-1.32V38.5a94.678,94.678,0,0,1-12.762.836c-4.665,0-9.065-.484-11.4-1.276-4.444-1.5-7-4.4-7-7.966a13.986,13.986,0,0,1,2.377-7.437l1.452.616A11.168,11.168,0,0,0,2.471,28.245Zm83.406-1.716c.484.132.66.352.66.7,0,.44-.308.7-1.056.924-1.584,4.929-2.2,6.293-4.4,9.638l-.968-.485A55.207,55.207,0,0,0,82.4,25.517Zm13.158,7.657-3.565,1.54a52.038,52.038,0,0,0-2.288-9.769l1.188-.44A25.106,25.106,0,0,1,99.035,34.186Zm427.722-7.525a23.736,23.736,0,0,1,3.873.308V20.984l-.132-3.256,3.476.044c.66,0,1.056.264,1.056.7,0,.308-.176.484-.88.968v8.229a26.877,26.877,0,0,1,10.738,5.853l-2.6,3.3c-2.816-2.772-6.337-5.324-8.141-5.94v3.652a6.679,6.679,0,0,1-.616,3.3c-.968,1.716-3.168,2.64-6.205,2.64-5.633,0-9.725-3.036-9.725-7.217C517.6,29.125,521.036,26.661,526.757,26.661Zm-6.205,4.313A3.017,3.017,0,0,0,519.76,33c0,2.6,2.993,4.489,7.041,4.489,2.6,0,3.829-1.013,3.829-3.125v-4.4a16.175,16.175,0,0,0-4.577-.616C523.457,29.345,521.432,29.961,520.552,30.974Z" transform="translate(-0.006 -0.389)" fill="#e6014b" fill-rule="evenodd"/>
</svg>
