<svg xmlns="http://www.w3.org/2000/svg" width="1143.826" height="58.969" viewBox="0 0 1143.826 58.969">
  <path id="tit01" d="M1091.739,34.458V26.142l52.5,2.331v3.591Zm-49.164,20.224-3.144.63V50.524l3.144.63h21.564l1.509-24.193h-16.975l-2.955.63V22.8l2.955.63h24.268l-1.634,27.721h7.67l3.144-.63v4.788l-3.144-.63Zm-18.8-52.732,1.572-1.134a12.975,12.975,0,0,1,7.545,7.056l-4.9,2.457A24.975,24.975,0,0,0,1023.777,1.95Zm-3.9,9.765a25.053,25.053,0,0,0-3.521-8.883l1.7-1.071a13.732,13.732,0,0,1,6.79,7.623Zm-26.909,11.97,29.235-4.662,3.018-1.071.754,4.977-3.144-.126-29.863,4.725V42.459c0,3.214.628,4.474,2.515,5.167,1.571.5,7.544.882,15.529.882a175.45,175.45,0,0,0,17.666-1.2v7.245c-5.344.441-11.631.63-18.421.63a147.237,147.237,0,0,1-15.026-.63c-3.772-.315-6.161-1.26-7.607-2.9-1.383-1.575-2.138-4.536-2.138-8.569V8.88l-.629-4.473,7.985.5a1.51,1.51,0,0,1,1.509,1.323c0,.567-.377,1.071-1.383,1.827ZM966.881,2.076l1.446-1.26a13.107,13.107,0,0,1,7.8,6.8l-4.779,2.646A25.1,25.1,0,0,0,966.881,2.076Zm-2.955,9.954a28.623,28.623,0,0,0-3.961-8.946l1.572-1.134A12.983,12.983,0,0,1,968.7,9.573Zm-3.081-.252-3.144-.63H928.969l-3.143.63V6.99l3.143.63H957.7l3.144-.63Zm11.191,12.663v4.788l-3.144-.63H950.157c0,9.639-2.263,16.381-6.979,20.728-4.526,4.221-12.322,7.686-21,9.324l-.943-2.961c6.979-2.016,12.763-5.607,16.284-10.206,3.018-3.781,4.275-8.569,4.527-16.885H921.488l-3.144.63V24.441l3.144.63h47.4ZM892.317,44.413a75.884,75.884,0,0,1,9.934,6.426l-5.6,6.615a116.23,116.23,0,0,0-21.879-17.7l1.509-2.394a94.616,94.616,0,0,1,12.951,5.418,100.85,100.85,0,0,0,11.757-23.436H878.988a74.917,74.917,0,0,1-17.666,19.089L859.5,36.348c7.293-8.064,14.461-21.1,17.919-32.571l7.858,2.268a1.247,1.247,0,0,1,1.006,1.134c0,.63-.44,1.008-1.7,1.323-1.823,4.158-2.326,5.1-3.458,7.245l-.126.189h30.681C908.035,25.7,902.313,34.143,892.317,44.413ZM850.823,58.462h-6.287c-3.52,0-5.155-1.323-5.281-4.158V35.214h5.6c.88,0,1.32.315,1.32.882,0,.441-.189.756-1.006,1.386v13.8c.063,1.323.377,1.638,1.76,1.7h3.836c1.7-.063,2.263-.567,2.389-2.268l.377-5.292,3.143.378-.565,7.812C855.916,57.076,854.407,58.462,850.823,58.462Zm-4.275-21.484a50.332,50.332,0,0,0,2.389-7.056H826.555c-.377,4.221-1.131,6.678-3.143,9.765l-4.15-5.166c2.767-3.024,3.9-5.544,4.59-10.017h2.64a22.27,22.27,0,0,1,.126,2.394H856.67c-1.383,4.347-3.835,7.749-8.173,11.466Zm-5.721-25.515v7.371h9.3l2.64-.5v4.032l-2.64-.5H825.927l-2.641.5V18.33l2.641.5h8.739V11.463H823.475l-2.641.5V7.935l2.641.5h11.191V1.194h5.847c.88,0,1.32.315,1.32.882,0,.441-.252.756-1.006,1.323v5.04h12.385l2.641-.5v4.032l-2.641-.5Zm-34.2,17.01c1.823-.063,5.659-.315,7.67-.441l.378-.063c-.5-1.449-.88-2.394-1.824-4.6l1.572-1.26c2.892,2.457,4.464,4.662,6.413,8.883L816.5,34.836c-.44-2.079-.692-2.961-1.006-4.221l-.44.126-.44.126c-.629.126-1.446.378-2.578.63V59.6h-5.47V32.631c-1.823.315-3.017.5-5.407.819-.5.882-.88,1.26-1.383,1.26a1.06,1.06,0,0,1-.88-.882l-1.32-5.166h2.452l2.515-.063h.188l.315-.5.314-.441a145.156,145.156,0,0,0,10.751-18.9l5.281,3.024c.44.252.629.5.629.882,0,.693-.566,1.134-1.949,1.386C813.478,20.409,808.637,26.52,806.625,28.473Zm-1.7-14.553a24.4,24.4,0,0,1,3.4,2.772l-3.835,6.237a53.952,53.952,0,0,0-6.916-10.08l1.069-2.2a32.785,32.785,0,0,1,3.772,1.764A79.879,79.879,0,0,0,806.374.816l6.224,2.52c.566.189.88.567.88.945,0,.63-.691,1.134-2.012,1.449A77.382,77.382,0,0,1,804.928,13.92Zm-43.01,17.929V50.675h7.331v3.692h-23.54V50.675h7.257V33.658L740.81,8.925h-6.262V5.382h21.328V8.925h-5.415l9.062,18.827,9.652-18.827h-6.336V5.382h17.35V8.925h-6.63ZM735.026,54.367H695.021V50.675H701.5V8.925h-6.483V5.382h22.25V8.925h-6.705v41.75h15.693L730.016,40.6h5.01ZM668.24,50.675h7.33V8.925h-7.33V5.382h23.686V8.925H684.6v41.75h7.33v3.692H668.24Zm-23.171,0h5.341V18.3L636.854,54.367h-4.678l-14.4-36.213V50.675h5.563v3.692H607.642V50.675h5.894V8.925h-5.894V5.382h14.551l14.661,36.951L650.889,5.382h14.33V8.925h-5.747v41.75h5.894v3.692h-20.3Zm-58.425,0h5.3l-5.084-13.916h-13.7l-4.826,13.916H573.9v3.692H557.764V50.675h6.115L580.014,5.382h5.194l16.319,45.293h5.415v3.692h-20.3Zm-6.557-33.961-5.562,16.095H585.76Zm-30.1-7.789H535.735V26.312h7.92V20.59h4.531V34.95h-4.531V30.336h-7.92V50.675h6.409v3.692H520.263V50.675h6.41V8.925h-6.41V5.382h38.864V18.658h-5.3Zm-75.37,41.75h7.331V8.925h-7.331V5.382h23.687V8.925h-7.331v41.75h7.331v3.692H474.621Zm-8.915,3.692h-5.6l-23.539-37.21V50.675h6.189v3.692H426.548V50.675h5.894V9H426.7V5.382h13.372L461.4,38.863V9h-5.783V5.382h16.282V9h-6.189Zm-65.939-3.692H407.1V8.925h-7.331V5.382h23.687V8.925h-7.331v41.75h7.331v3.692H399.767Zm-23.171,0h5.342V18.3L368.381,54.367H363.7L349.3,18.154V50.675h5.563v3.692H339.169V50.675h5.894V8.925h-5.894V5.382H353.72l14.661,36.951L382.416,5.382h14.33V8.925H390.1v41.75h6.794v3.692H376.6Zm-77.911,3.692h-5.121L282.623,20.48l-9.762,33.887h-5.194L253.043,8.925h-6.484V5.382h21.624V8.925h-5.857l9.946,31.82L282.365,5.382h4.826l11.2,35.511,9.8-31.968h-7.4V5.382h18.861V8.925H312.72Zm-93.126-3.692h6.41V8.925h-6.41V5.382h38.864V18.658h-5.305l-3.831-9.733H221.031V26.312h7.92V20.59h4.531V34.95h-4.531V30.336h-7.92V50.675H235.95l3.794-10.47h5.268V54.367H205.559Zm-9.283,3.692h-5.6l-23.54-37.21V50.675h6.189v3.692H157.117V50.675h5.895V9h-5.747V5.382h13.372l21.329,33.481V9h-5.784V5.382h16.283V9h-6.189ZM94.936,50.675h6.409V8.925H94.936V5.382H133.8V18.658h-5.3l-3.831-9.733H110.407V26.312h7.92V20.59h4.531V34.95h-4.531V30.336h-7.92V50.675h14.92l3.794-10.47h5.268V54.367H94.936Zm-22.729,0H77.18V30.409H57.8V50.675H62.85v3.692H43.621V50.675h5.12V8.925h-5.12V5.382H62.85V8.925H57.8V26.46H77.18V8.925H72.207V5.382H91.473V8.925H86.316v41.75h5.157v3.692H72.207ZM31.648,8.925h-6.7v41.75h6.41v3.692H9.472V50.675h6.41V8.925H9.067L5.31,19.151H.41V5.382H40.379V19.151h-4.9Zm773.4,29.313c.692.189,1.006.5,1.006.945,0,.63-.5,1.071-1.508,1.449-1.761,7.246-2.578,9.514-5.03,14.176l-1.949-.819a116.482,116.482,0,0,0,2.137-17.326Zm16.221,9.136L816.119,50.4a67.926,67.926,0,0,0-2.829-12.979l2.137-.756A31.329,31.329,0,0,1,821.274,47.374Zm7.105-12.16h5.595c.88,0,1.32.315,1.32.882,0,.441-.188.756-1.006,1.323v1.323C834.1,51.28,829.95,56.7,818.256,59.785l-.88-2.268c8.551-4.221,10.625-7.875,11-18.9Z" transform="translate(-0.41 -0.816)" fill="#e6014b" fill-rule="evenodd"/>
</svg>
