<svg xmlns="http://www.w3.org/2000/svg" width="1324.652" height="31.821" viewBox="0 0 1324.652 31.821">
  <path id="tit03" d="M1323.906,13.658a30.029,30.029,0,0,1-3.365,11.015,23.5,23.5,0,0,0,4.861,3.366,24.426,24.426,0,0,0-1.767,3.535,22.857,22.857,0,0,1-4.964-4.181,18.885,18.885,0,0,1-4.963,4.249l-.578-.748v.986h-3.23V1.623h13.871c-.136,5-.306,7.174-.612,7.956-.51,1.427-1.5,1.9-3.808,1.9h-3.944V9.715h2.584c2.006-.068,2.108-.272,2.346-6.46h-7.207v10.4Zm-3.637,1.632H1315.2a15.171,15.171,0,0,0,3.2,7.139A27.421,27.421,0,0,0,1320.269,15.29Zm-7.139,15.026a23.7,23.7,0,0,0,3.943-5.1,22.641,22.641,0,0,1-3.094-9.927h-.849Zm-6.086-18.834a26.572,26.572,0,0,1-3.127,5.848h3.3l1.428-.272v2.176l-1.428-.272H1302.8v4.419h3.7l1.428-.272v2.176l-1.428-.272h-3.7v6.969h-3.23V25.013h-3.706l-1.428.272V23.109l1.428.272h3.706V18.962h-4.42l-1.427.272V17.058l1.427.272h1.8v-.1a45.242,45.242,0,0,0-1.156-5.746h-.918l-1.427.272V9.579l1.427.272h4.692V5.669H1296.2l-1.428.272V3.765l1.428.272h3.366V.161h3.06c.476,0,.714.136.714.476,0,.238-.1.374-.544.714V4.037h3.3l1.428-.272V5.941l-1.428-.272h-3.3V9.851h4.691l1.394-.272v2.175l-1.394-.272Zm-9.893,0a15.251,15.251,0,0,1,2.958,4.114l-2.346,1.734h4.556l.034-.1c.442-1.836.85-3.978,1.088-5.474l.034-.272Zm-26.045,1.666-1.428.272V11.244l1.428.272h7.65V8.865h-4.692l-1.428.272V6.961l1.428.272h4.692V4.751h-6.222l-1.394.272V2.847l1.394.272h6.222V.365h3.263q.714,0,.714.51c0,.2-.1.374-.544.714v1.53h6.63l1.427-.272V5.023l-1.427-.272h-6.63V7.233h5.44l1.428-.272V9.137l-1.428-.272h-5.44v2.651h7.785l1.428-.272V13.42l-1.428-.272Zm-1.122-2.176a19.078,19.078,0,0,0-2.005-5.065l.748-.68a8.139,8.139,0,0,1,3.7,3.536Zm-2.243,20.908h-3.332V.365h3.162c.476,0,.714.136.714.476,0,.238-.1.374-.544.714Zm-8.295-16.964a31.133,31.133,0,0,0,1.6-9.621h1.632c.17,2.108.2,3.366.2,5.133a19.191,19.191,0,0,1-1.156,7.582Zm-13.67,12.375v4.555h-3.094V27.291h-9.587l-1.428.272V25.387l1.428.272h9.587V23.211h-8.329V12.638h8.329v-2.38h-8.3l-1.394.272V8.355l1.394.272h8.3V5.975h2.923c.477,0,.714.136.714.476,0,.238-.1.374-.543.714V8.627h9.417l1.393-.272V10.53l-1.393-.272h-9.417v2.38h8.635V23.211h-8.635v2.448h9.927l1.427-.272v2.176l-1.427-.272Zm-3.094-13.021h-5.1v2.72h5.1Zm0,4.352h-5.1v2.957h5.1Zm8.5-4.352h-5.405v2.72h5.405Zm0,7.309V18.622h-5.405v2.957ZM1231.7,4.955v5.167c-.068,13.259-.85,16.523-5.134,21.724l-1.121-.646c2.073-4.861,2.515-8.329,2.515-21.078v-6.8h12.511V.161h3.91c.476,0,.714.136.714.476,0,.238-.1.374-.544.714V3.323h10.98l1.428-.272V5.227l-1.428-.272ZM1203.31,30.622l-1.427.272V28.719l1.427.272h7.616V18.69h-6.12l-1.428.272V16.786l1.428.272h6.12V9.069h3.569c.476,0,.714.17.714.476,0,.238-.1.374-.544.713v6.8h5.95l1.427-.272v2.176l-1.427-.272h-5.95v10.3h7.344l1.393-.272v2.175l-1.393-.272Zm1.224-23.8a39.791,39.791,0,0,1-4.181,8.091V31.88h-3.5V19.4a25.538,25.538,0,0,1-4.556,3.977l-.849-1.156a38.737,38.737,0,0,0,5.4-7.479V10.87l1.87.34c.544-1.088,1.428-3.195,1.87-4.385h-7.276l-1.428.272V4.921l1.428.272h7.82a45.3,45.3,0,0,0,1.393-5.032l3.6.714c.646.136.884.34.884.68s-.238.544-.884.85c-.476,1.462-.68,2.006-.952,2.788h16.352l1.428-.272V7.1l-1.428-.272Zm-28.877,22.682a2.715,2.715,0,1,1,1.938-.8A2.637,2.637,0,0,1,1175.657,29.507Zm-19.339-12.444h-2.285V27.1h3.182v1.959h-11.3V27.1h3.183V4.579h-3.183V2.62h12.281q4.2,0,6.365,2.04a6.725,6.725,0,0,1,2.163,5.1A6.845,6.845,0,0,1,1165.334,14a7.483,7.483,0,0,1-3.835,2.612l6.732,10.485h2.815v1.959h-7.3Zm4.12-11.036a3.215,3.215,0,0,0-2.693-1.448h-3.712V15.1h3.712a3.189,3.189,0,0,0,2.652-1.571,6.4,6.4,0,0,0,1.1-3.774A6.162,6.162,0,0,0,1160.438,6.027ZM1122.617,27.1h3.182V4.579h-3.182V2.62h20.726v7.426h-2.856l-2.081-5.467h-7.67v9.506h4.243V10.9h2.448v8.4h-2.448V16.125h-4.243V27.1h8.038l2.04-5.467h2.856v7.426h-21.053Zm-5.977-11a10.23,10.23,0,0,1-4.427.918h-4.162V27.1h3.183v1.959h-11.3V27.1h3.182V4.579h-3.182V2.62h12.281a9.43,9.43,0,0,1,6.222,1.918,6.392,6.392,0,0,1,2.3,5.181,6.844,6.844,0,0,1-1.081,3.8A7.146,7.146,0,0,1,1116.64,16.1Zm-2.163-10.078a3.2,3.2,0,0,0-2.713-1.448h-3.713V15.064h3.713a3.19,3.19,0,0,0,2.652-1.571,6.405,6.405,0,0,0,1.1-3.774A6.174,6.174,0,0,0,1114.477,6.027Zm-21.889,21.461a10.751,10.751,0,0,1-6.732,2.06,11.688,11.688,0,0,1-6.874-1.877,10.773,10.773,0,0,1-3.877-4.814,16.308,16.308,0,0,1-1.2-6.242,19.3,19.3,0,0,1,1.285-7.059,12.153,12.153,0,0,1,3.978-5.365,10.689,10.689,0,0,1,6.691-2.06,11.748,11.748,0,0,1,6.834,1.876,10.813,10.813,0,0,1,3.938,4.835,16.137,16.137,0,0,1,1.224,6.222,19.3,19.3,0,0,1-1.286,7.059A12.141,12.141,0,0,1,1092.588,27.488Zm-1.632-19.645q-1.836-3.918-5.549-3.917a5.207,5.207,0,0,0-4.855,2.856,14.808,14.808,0,0,0-1.591,7.262,22.746,22.746,0,0,0,1.857,9.833q1.856,3.876,5.569,3.876a5.177,5.177,0,0,0,4.835-2.815,14.733,14.733,0,0,0,1.57-7.222A23.267,23.267,0,0,0,1090.956,7.843Zm-25.417,19.645a10.751,10.751,0,0,1-6.732,2.06,11.689,11.689,0,0,1-6.875-1.877,10.772,10.772,0,0,1-3.876-4.814,16.29,16.29,0,0,1-1.2-6.242,19.3,19.3,0,0,1,1.286-7.059,12.139,12.139,0,0,1,3.978-5.365,10.69,10.69,0,0,1,6.691-2.06,11.748,11.748,0,0,1,6.834,1.876,10.818,10.818,0,0,1,3.937,4.835,16.116,16.116,0,0,1,1.224,6.222,19.3,19.3,0,0,1-1.285,7.059A12.148,12.148,0,0,1,1065.539,27.488Zm-1.632-19.645q-1.836-3.918-5.549-3.917a5.207,5.207,0,0,0-4.855,2.856,14.8,14.8,0,0,0-1.591,7.262,22.763,22.763,0,0,0,1.856,9.833q1.856,3.876,5.569,3.876a5.175,5.175,0,0,0,4.835-2.815,14.721,14.721,0,0,0,1.571-7.222A23.267,23.267,0,0,0,1063.907,7.843Zm-31.783,17.829a5.735,5.735,0,0,0,3.957,1.591,6.115,6.115,0,0,0,4-1.407,7.1,7.1,0,0,0,2.285-4.264h2.121a8.9,8.9,0,0,1-9.221,7.956,11.513,11.513,0,0,1-6.874-1.917,11.018,11.018,0,0,1-3.877-4.876,16.569,16.569,0,0,1-1.2-6.3,19.233,19.233,0,0,1,1.265-7.017,11.819,11.819,0,0,1,3.937-5.284,10.884,10.884,0,0,1,6.752-2.019,13.4,13.4,0,0,1,4.611.693,21.81,21.81,0,0,1,3.59,1.714v5.508H1040a7.82,7.82,0,0,0-1.714-4.651,4.568,4.568,0,0,0-3.468-1.469,5.207,5.207,0,0,0-4.855,2.856A14.712,14.712,0,0,0,1028.37,14a22.425,22.425,0,0,0,1,7.079A10.553,10.553,0,0,0,1032.124,25.672ZM998.178,27.1h3.958V4.579h-3.958V2.62h12.852V4.579h-3.957V27.1h3.957v1.959H998.178Zm-4.651,1.959h-3.019L977.779,8.944V27.1h3.06v1.959h-8.487V27.1h3.183V4.579h-3.183V2.62h7.3l11.628,18.2V4.579h-3.141V2.62h8.568V4.579h-3.183Zm-35.9-1.959h3.957V4.579h-3.957V2.62h12.852V4.579h-3.958V27.1h3.958v1.959H957.624Zm-13.056,0h3.06V8.863L939.835,27.1H937.3L928.941,8.9V27.1h3.02v1.959h-8.446V27.1H926.7V4.579h-3.182V2.62h7.874l8.528,18.646L947.873,2.62h7.874V4.579h-3.182V27.1h3.182v1.959H944.568Zm-42.962,1.959h-2.775l-6.323-18.687-5.672,18.687h-2.815l-7.507-24.48h-3.223V2.62h11.424V4.579h-3.223l5.181,17.34,5.712-19.136H895L901.443,22,906.5,4.579H903.32V2.62h8.649V4.579h-3.182ZM850.524,27.1h3.183V4.579h-3.183V2.62h20.727v7.426H868.4l-2.081-5.467h-7.67v9.506h4.243V10.9h2.448v8.4h-2.448V16.125h-4.243V27.1h8.037l2.04-5.467h2.856v7.426H850.524Zm-4.651,1.959h-3.019L830.125,8.944V27.1h3.06v1.959H824.7V27.1h3.182V4.579H824.7V2.62H832l11.628,18.2V4.579h-3.141V2.62h8.568V4.579h-3.183ZM791.2,27.1h3.183V4.579H791.2V2.62h20.727v7.426h-2.856l-2.081-5.467h-7.67v9.506h4.243V10.9h2.448v8.4h-2.448V16.125h-4.243V27.1h8.037l2.04-5.467h2.856v7.426H791.2Zm-13.178,0h3.183V16.125H770.679V27.1h3.183v1.959h-11.3V27.1h3.182V4.579H762.56V2.62H773.9V4.579h-3.223v9.506h10.527V4.579h-3.183V2.62h11.3V4.579h-3.183V27.1h3.183v1.959h-11.3ZM756.114,4.579h-3.631V27.1h3.876v1.959H743.67V27.1h3.876V4.579h-3.672l-2.04,5.467h-2.652V2.62h21.665v7.426H758.2ZM713.4,29.507a2.714,2.714,0,1,1,1.938-.8A2.637,2.637,0,0,1,713.4,29.507ZM694.058,17.063h-2.285V27.1h3.182v1.959h-11.3V27.1h3.182V4.579h-3.182V2.62h12.281q4.2,0,6.364,2.04a6.721,6.721,0,0,1,2.163,5.1A6.85,6.85,0,0,1,703.075,14a7.486,7.486,0,0,1-3.836,2.612L705.971,27.1h2.816v1.959h-7.3Zm4.121-11.036a3.218,3.218,0,0,0-2.693-1.448h-3.713V15.1h3.713a3.192,3.192,0,0,0,2.652-1.571,6.407,6.407,0,0,0,1.1-3.774A6.169,6.169,0,0,0,698.179,6.027ZM660.357,27.1h3.182V4.579h-3.182V2.62h20.726v7.426h-2.856l-2.08-5.467h-7.671v9.506h4.243V10.9h2.448v8.4h-2.448V16.125h-4.243V27.1h8.038l2.04-5.467h2.856v7.426H660.357Zm-5.977-11a10.224,10.224,0,0,1-4.427.918h-4.162V27.1h3.183v1.959h-11.3V27.1h3.183V4.579h-3.183V2.62h12.281a9.43,9.43,0,0,1,6.222,1.918,6.392,6.392,0,0,1,2.3,5.181,6.843,6.843,0,0,1-1.081,3.8A7.146,7.146,0,0,1,654.38,16.1ZM652.217,6.027A3.2,3.2,0,0,0,649.5,4.579h-3.713V15.064H649.5a3.189,3.189,0,0,0,2.652-1.571,6.4,6.4,0,0,0,1.1-3.774A6.173,6.173,0,0,0,652.217,6.027ZM630.329,27.488a10.755,10.755,0,0,1-6.732,2.06,11.689,11.689,0,0,1-6.875-1.877,10.772,10.772,0,0,1-3.876-4.814,16.29,16.29,0,0,1-1.2-6.242,19.318,19.318,0,0,1,1.285-7.059,12.154,12.154,0,0,1,3.978-5.365,10.694,10.694,0,0,1,6.692-2.06,11.751,11.751,0,0,1,6.834,1.876,10.817,10.817,0,0,1,3.937,4.835,16.116,16.116,0,0,1,1.224,6.222,19.322,19.322,0,0,1-1.285,7.059A12.148,12.148,0,0,1,630.329,27.488ZM628.7,7.843q-1.836-3.918-5.549-3.917a5.2,5.2,0,0,0-4.855,2.856,14.8,14.8,0,0,0-1.592,7.262,22.761,22.761,0,0,0,1.857,9.833q1.855,3.876,5.569,3.876a5.175,5.175,0,0,0,4.835-2.815,14.721,14.721,0,0,0,1.571-7.222A23.267,23.267,0,0,0,628.7,7.843ZM603.279,27.488a10.751,10.751,0,0,1-6.732,2.06,11.689,11.689,0,0,1-6.875-1.877,10.772,10.772,0,0,1-3.876-4.814,16.308,16.308,0,0,1-1.2-6.242,19.3,19.3,0,0,1,1.285-7.059,12.154,12.154,0,0,1,3.978-5.365,10.689,10.689,0,0,1,6.691-2.06,11.748,11.748,0,0,1,6.834,1.876,10.811,10.811,0,0,1,3.937,4.835,16.117,16.117,0,0,1,1.224,6.222,19.3,19.3,0,0,1-1.285,7.059A12.149,12.149,0,0,1,603.279,27.488ZM601.647,7.843q-1.836-3.918-5.549-3.917a5.207,5.207,0,0,0-4.855,2.856,14.8,14.8,0,0,0-1.591,7.262,22.762,22.762,0,0,0,1.856,9.833q1.857,3.876,5.569,3.876a5.175,5.175,0,0,0,4.835-2.815,14.721,14.721,0,0,0,1.571-7.222A23.267,23.267,0,0,0,601.647,7.843ZM569.864,25.672a5.736,5.736,0,0,0,3.958,1.591,6.11,6.11,0,0,0,4-1.407,7.1,7.1,0,0,0,2.285-4.264h2.121a8.9,8.9,0,0,1-9.22,7.956,11.514,11.514,0,0,1-6.875-1.917,11.016,11.016,0,0,1-3.876-4.876,16.552,16.552,0,0,1-1.2-6.3,19.256,19.256,0,0,1,1.265-7.017,11.828,11.828,0,0,1,3.937-5.284,10.885,10.885,0,0,1,6.753-2.019,13.39,13.39,0,0,1,4.61.693,21.773,21.773,0,0,1,3.59,1.714v5.508h-3.468a7.826,7.826,0,0,0-1.713-4.651,4.571,4.571,0,0,0-3.468-1.469A5.2,5.2,0,0,0,567.7,6.782,14.7,14.7,0,0,0,566.11,14a22.425,22.425,0,0,0,1,7.079A10.553,10.553,0,0,0,569.864,25.672ZM535.919,27.1h3.957V4.579h-3.957V2.62h12.852V4.579h-3.958V27.1h3.958v1.959H535.919Zm-4.651,1.959h-3.02L515.519,8.944V27.1h3.06v1.959h-8.487V27.1h3.183V4.579h-3.183V2.62h7.3l11.628,18.2V4.579h-3.142V2.62h8.568V4.579h-3.182Zm-35.9-1.959h3.958V4.579h-3.958V2.62h12.852V4.579h-3.958V27.1h3.958v1.959H495.364Zm-13.056,0h3.06V8.863L477.575,27.1h-2.529L466.682,8.9V27.1H469.7v1.959h-8.446V27.1h3.183V4.579h-3.183V2.62h7.875l8.527,18.646L485.613,2.62h7.874V4.579H490.3V27.1h3.182v1.959H482.308Zm-45.777-1.428a5.734,5.734,0,0,0,3.957,1.591,6.115,6.115,0,0,0,4-1.407,7.1,7.1,0,0,0,2.284-4.264h2.122a8.9,8.9,0,0,1-9.221,7.956,11.516,11.516,0,0,1-6.875-1.917,11.023,11.023,0,0,1-3.876-4.876,16.57,16.57,0,0,1-1.2-6.3,19.235,19.235,0,0,1,1.265-7.017A11.82,11.82,0,0,1,432.92,4.15a10.884,10.884,0,0,1,6.752-2.019,13.4,13.4,0,0,1,4.611.693,21.812,21.812,0,0,1,3.59,1.714v5.508H444.4a7.82,7.82,0,0,0-1.714-4.651,4.569,4.569,0,0,0-3.468-1.469,5.207,5.207,0,0,0-4.855,2.856A14.7,14.7,0,0,0,432.777,14a22.424,22.424,0,0,0,1,7.079A10.553,10.553,0,0,0,436.531,25.672ZM412.785,27.1h3.958V4.579h-3.958V2.62h12.852V4.579H421.68V27.1h3.957v1.959H412.785ZM396.914,17.063h-2.285V27.1h3.183v1.959h-11.3V27.1h3.183V4.579H386.51V2.62h12.281q4.2,0,6.365,2.04a6.724,6.724,0,0,1,2.162,5.1A6.85,6.85,0,0,1,405.931,14a7.484,7.484,0,0,1-3.835,2.612L408.828,27.1h2.815v1.959h-7.3Zm4.121-11.036a3.217,3.217,0,0,0-2.693-1.448h-3.713V15.1h3.713a3.189,3.189,0,0,0,2.652-1.571,6.4,6.4,0,0,0,1.1-3.774A6.163,6.163,0,0,0,401.035,6.027ZM380.064,4.579h-3.631V27.1h3.876v1.959H367.62V27.1H371.5V4.579h-3.672l-2.04,5.467h-2.652V2.62H384.8v7.426h-2.652ZM348.73,25.672a5.736,5.736,0,0,0,3.958,1.591,6.11,6.11,0,0,0,4-1.407,7.1,7.1,0,0,0,2.285-4.264h2.121a8.9,8.9,0,0,1-9.22,7.956A11.514,11.514,0,0,1,345,27.631a11.016,11.016,0,0,1-3.876-4.876,16.552,16.552,0,0,1-1.2-6.3,19.255,19.255,0,0,1,1.265-7.017,11.827,11.827,0,0,1,3.937-5.284,10.885,10.885,0,0,1,6.753-2.019,13.4,13.4,0,0,1,4.61.693,21.773,21.773,0,0,1,3.59,1.714v5.508H356.6a7.826,7.826,0,0,0-1.713-4.651,4.57,4.57,0,0,0-3.468-1.469,5.2,5.2,0,0,0-4.855,2.856A14.7,14.7,0,0,0,344.976,14a22.424,22.424,0,0,0,1,7.079A10.553,10.553,0,0,0,348.73,25.672ZM316.416,27.1H319.6V4.579h-3.183V2.62h20.727v7.426h-2.856l-2.081-5.467h-7.67v9.506h4.243V10.9h2.448v8.4h-2.448V16.125h-4.243V27.1h8.037l2.04-5.467h2.856v7.426H316.416Zm-22.806,0h3.182V4.579H293.61V2.62h11.3V4.579h-3.182V27.1h8.037l2.04-5.467h2.856v7.426H293.61Zm-23.3,0h3.182V4.579h-3.182V2.62h20.726v7.426h-2.856L286.1,4.579h-7.67v9.506h4.243V10.9h2.448v8.4h-2.448V16.125h-4.243V27.1h8.038l2.04-5.467h2.856v7.426H270.313Zm-11.832-9.833h9.3v2.367h-9.3ZM235.021,27.1H238.2V4.579h-3.183V2.62h11.3V4.579H243.14V27.1h8.038l2.04-5.467h2.856v7.426H235.021Zm-22.807,0H215.4V4.579h-3.183V2.62h11.3V4.579h-3.182V27.1h8.037l2.04-5.467h2.856v7.426H212.214Zm-12.566,0h3.183l-2.489-7.385h-7.711L190.06,27.1h3.019v1.959h-8.527V27.1h3.1l8.731-24.48h2.9l8.731,24.48h2.938v1.959h-11.3ZM196.629,8.74h-.2l-3.1,8.935h6.324ZM163.174,29.059H160.4l-6.324-18.687L148.4,29.059h-2.815l-7.507-24.48h-3.224V2.62h11.424V4.579h-3.223l5.182,17.34,5.712-19.136h2.611L163.01,22l5.06-17.421h-3.183V2.62h8.65V4.579h-3.183ZM112.092,27.1h3.182V4.579h-3.182V2.62h20.726v7.426h-2.856l-2.08-5.467h-7.671v9.506h4.243V10.9H126.9v8.4h-2.448V16.125h-4.243V27.1h8.038l2.04-5.467h2.856v7.426H112.092Zm-4.651,1.959h-3.019L91.692,8.944V27.1h3.06v1.959H86.266V27.1h3.182V4.579H86.266V2.62h7.3l11.628,18.2V4.579h-3.142V2.62h8.568V4.579h-3.182ZM52.769,27.1h3.183V4.579H52.769V2.62H73.5v7.426H70.64L68.559,4.579H60.888v9.506h4.244V10.9H67.58v8.4H65.132V16.125H60.888V27.1h8.038l2.04-5.467h2.856v7.426H52.769Zm-13.178,0h3.182V16.125H32.247V27.1h3.182v1.959h-11.3V27.1H27.31V4.579H24.128V2.62H35.47V4.579H32.247v9.506H42.773V4.579H39.591V2.62h11.3V4.579H47.71V27.1h3.182v1.959h-11.3ZM17.682,4.579H14.05V27.1h3.876v1.959H5.238V27.1H9.114V4.579H5.442L3.4,10.046H.75V2.62H22.414v7.426H19.762Zm1271.2,24.446c0,1.937-.782,2.753-2.652,2.753h-5.508V30.01h3.06c1.122,0,1.632-.475,1.632-1.6V25.455H1275.7V31.88h-3.366V15.29h16.557Zm-3.468-12.1H1275.7v2.55h9.723Zm0,4.181H1275.7v2.72h9.723Z" transform="translate(-0.75 -0.161)" fill-rule="evenodd"/>
</svg>
