<?xml version="1.0" encoding="utf-8"?>
<!-- Generator: Adobe Illustrator 22.1.0, SVG Export Plug-In . SVG Version: 6.00 Build 0)  -->
<!DOCTYPE svg PUBLIC "-//W3C//DTD SVG 1.1//EN" "http://www.w3.org/Graphics/SVG/1.1/DTD/svg11.dtd">
<svg version="1.1" id="レイヤー_1" xmlns="http://www.w3.org/2000/svg" xmlns:xlink="http://www.w3.org/1999/xlink" x="0px"
	 y="0px" viewBox="0 0 300 31" style="enable-background:new 0 0 300 31;" xml:space="preserve">
<g>
	<path d="M13.4,5.1l5.3,13.6l5.5-14.6l5.3,14.6l5.6-13.6h3.3l-9.1,21.6l-5.2-14.4l-5.5,14.4L10.1,5.1H13.4z"/>
	<path d="M52.3,8h-8.2v4.9h7.9v2.9h-7.9v6.8h8.2v2.9H41.1V5.1h11.2V8z"/>
	<path d="M59.4,5.1v20.4h-3.1V5.1H59.4z"/>
	<path d="M64.3,25.5V3.7l14.8,15.5V5.1h3.1v21.6L67.4,11.2v14.3H64.3z"/>
	<path d="M98.6,8.2l-2.5,1.5c-0.5-0.8-0.9-1.3-1.3-1.6c-0.4-0.3-1-0.4-1.7-0.4c-0.9,0-1.6,0.2-2.1,0.7c-0.6,0.5-0.8,1.1-0.8,1.8
		c0,1,0.7,1.8,2.2,2.4l2,0.8c1.7,0.7,2.9,1.5,3.6,2.4c0.8,1,1.1,2.1,1.1,3.5c0,1.9-0.6,3.4-1.9,4.6c-1.3,1.2-2.8,1.8-4.7,1.8
		c-1.8,0-3.2-0.5-4.4-1.6c-1.1-1-1.8-2.5-2.1-4.4l3.1-0.7c0.1,1.2,0.4,2,0.7,2.5c0.6,0.9,1.6,1.3,2.8,1.3c1,0,1.8-0.3,2.4-1
		c0.6-0.6,0.9-1.5,0.9-2.4c0-0.4-0.1-0.8-0.2-1.1c-0.1-0.3-0.3-0.6-0.5-0.9c-0.2-0.3-0.5-0.5-0.9-0.8c-0.4-0.2-0.8-0.5-1.3-0.7
		l-2-0.8c-2.8-1.2-4.2-2.9-4.2-5.2c0-1.5,0.6-2.8,1.8-3.8c1.2-1,2.6-1.6,4.4-1.6C95.5,4.7,97.3,5.9,98.6,8.2z"/>
	<path d="M114.2,5.1v20.4h-3.1V5.1H114.2z"/>
	<path d="M118.4,25.5l4.3-21.9l7,15.8l7.2-15.8l3.8,21.9h-3.2l-2-12.3l-6,13.2l-5.9-13.2l-2.2,12.3H118.4z"/>
	<path d="M148.2,17.2v8.3h-3.1V5.1h3.5c1.7,0,3,0.1,3.9,0.4c0.9,0.2,1.7,0.7,2.3,1.3c1.2,1.1,1.8,2.6,1.8,4.3c0,1.9-0.6,3.3-1.9,4.4
		c-1.2,1.1-2.9,1.6-5,1.6H148.2z M148.2,14.4h1.1c2.8,0,4.2-1.1,4.2-3.3c0-2.1-1.5-3.2-4.4-3.2h-1V14.4z"/>
	<path d="M158.7,15.2c0-2.9,1-5.3,3.2-7.4c2.1-2.1,4.6-3.1,7.5-3.1c2.9,0,5.4,1,7.5,3.1c2.1,2.1,3.1,4.6,3.1,7.5
		c0,2.9-1,5.4-3.1,7.4c-2.1,2-4.6,3.1-7.6,3.1c-2.6,0-5-0.9-7.1-2.7C159.8,21.1,158.7,18.5,158.7,15.2z M161.8,15.3
		c0,2.2,0.8,4.1,2.3,5.5c1.5,1.5,3.2,2.2,5.2,2.2c2.1,0,3.9-0.7,5.4-2.2c1.5-1.5,2.2-3.3,2.2-5.5c0-2.2-0.7-4-2.2-5.5
		c-1.4-1.5-3.2-2.2-5.4-2.2c-2.1,0-3.9,0.7-5.4,2.2C162.5,11.3,161.8,13.1,161.8,15.3z"/>
	<path d="M190.7,16.8l6.3,8.7h-3.8l-5.8-8.3h-0.6v8.3h-3.1V5.1h3.6c2.7,0,4.6,0.5,5.8,1.5c1.3,1.1,2,2.6,2,4.5
		c0,1.4-0.4,2.7-1.2,3.7S192,16.5,190.7,16.8z M186.9,14.5h1c2.9,0,4.4-1.1,4.4-3.3c0-2.1-1.4-3.1-4.2-3.1h-1.1V14.5z"/>
	<path d="M205.7,8v17.5h-3.1V8h-4.7V5.1h12.4V8H205.7z"/>
	<path d="M236.5,6.2v3.6c-1.8-1.5-3.6-2.2-5.5-2.2c-2.1,0-3.9,0.8-5.3,2.3c-1.4,1.5-2.2,3.3-2.2,5.5c0,2.1,0.7,3.9,2.2,5.4
		c1.4,1.5,3.2,2.2,5.3,2.2c1.1,0,2-0.2,2.8-0.5c0.4-0.2,0.9-0.4,1.3-0.7c0.5-0.3,0.9-0.7,1.4-1.1v3.7c-1.8,1-3.6,1.5-5.5,1.5
		c-2.9,0-5.4-1-7.4-3c-2-2-3.1-4.5-3.1-7.4c0-2.6,0.9-4.9,2.6-6.9c2.1-2.5,4.8-3.7,8.2-3.7C233,4.7,234.7,5.2,236.5,6.2z"/>
	<path d="M252.3,20.5h-8.7l-2.3,4.9H238l10.1-21.6l9.7,21.6h-3.4L252.3,20.5z M251,17.7l-3-6.9l-3.2,6.9H251z"/>
	<path d="M267.2,16.8l6.3,8.7h-3.8l-5.8-8.3h-0.6v8.3h-3.1V5.1h3.6c2.7,0,4.6,0.5,5.8,1.5c1.3,1.1,2,2.6,2,4.5
		c0,1.4-0.4,2.7-1.2,3.7S268.6,16.5,267.2,16.8z M263.4,14.5h1c2.9,0,4.4-1.1,4.4-3.3c0-2.1-1.4-3.1-4.2-3.1h-1.1V14.5z"/>
	<path d="M288.1,8.2l-2.5,1.5c-0.5-0.8-0.9-1.3-1.3-1.6c-0.4-0.3-1-0.4-1.7-0.4c-0.9,0-1.6,0.2-2.1,0.7c-0.6,0.5-0.8,1.1-0.8,1.8
		c0,1,0.7,1.8,2.2,2.4l2,0.8c1.7,0.7,2.9,1.5,3.6,2.4c0.8,1,1.1,2.1,1.1,3.5c0,1.9-0.6,3.4-1.9,4.6c-1.3,1.2-2.8,1.8-4.7,1.8
		c-1.8,0-3.2-0.5-4.4-1.6c-1.1-1-1.8-2.5-2.1-4.4l3.1-0.7c0.1,1.2,0.4,2,0.7,2.5c0.6,0.9,1.6,1.3,2.8,1.3c1,0,1.8-0.3,2.4-1
		c0.6-0.6,0.9-1.5,0.9-2.4c0-0.4-0.1-0.8-0.2-1.1c-0.1-0.3-0.3-0.6-0.5-0.9c-0.2-0.3-0.5-0.5-0.9-0.8c-0.4-0.2-0.8-0.5-1.3-0.7
		l-2-0.8c-2.8-1.2-4.2-2.9-4.2-5.2c0-1.5,0.6-2.8,1.8-3.8c1.2-1,2.6-1.6,4.4-1.6C284.9,4.7,286.8,5.9,288.1,8.2z"/>
</g>
<g>
</g>
<g>
</g>
<g>
</g>
<g>
</g>
<g>
</g>
<g>
</g>
<g>
</g>
<g>
</g>
<g>
</g>
<g>
</g>
<g>
</g>
<g>
</g>
<g>
</g>
<g>
</g>
<g>
</g>
</svg>
