<?xml version="1.0" encoding="utf-8"?>
<!-- Generator: Adobe Illustrator 24.1.2, SVG Export Plug-In . SVG Version: 6.00 Build 0)  -->
<svg version="1.1" xmlns="http://www.w3.org/2000/svg" xmlns:xlink="http://www.w3.org/1999/xlink" x="0px" y="0px"
	 viewBox="0 0 226.8 170.1" style="enable-background:new 0 0 226.8 170.1;" xml:space="preserve">
<style type="text/css">
	.st0{display:none;}
	.st1{display:inline;}
	.st2{fill:#6F6F6F;}
	.st3{fill:#0066B1;}
</style>
<g id="BMW" class="st0">
	<g class="st1">
		<path class="st2" d="M113.4,3.4C68.3,3.4,31.7,40,31.7,85s36.6,81.6,81.6,81.6S195,130.1,195,85S158.5,3.4,113.4,3.4L113.4,3.4z
			 M189.7,85c0,42.2-34.2,76.3-76.3,76.3S37.1,127.2,37.1,85S71.2,8.7,113.4,8.7S189.7,42.9,189.7,85z"/>
		<path class="st2" d="M113.4,36.6v2.7l0,0c25.2,0,45.8,20.5,45.8,45.8h2.7C161.8,58.3,140.1,36.6,113.4,36.6L113.4,36.6
			 M113.4,130.8c-25.2,0-45.8-20.5-45.8-45.8H65c0,26.7,21.7,48.4,48.4,48.4"/>
		<g>
			<path id="W_61_" class="st2" d="M153,50.4c1.1,1.2,2.7,3.1,3.6,4.3l16.5-10.5c-0.8-1.1-2.1-2.7-3.1-3.9l-10.5,6.9l-0.7,0.6
				l0.5-0.8l4.6-9.2l-3.3-3.3l-9.2,4.6l-0.8,0.5l0.6-0.7l6.9-10.5c-1.2-1-2.4-2-3.9-3.1l-10.5,16.5c1.3,1,3.1,2.5,4.2,3.5l9.9-5.1
				l0.6-0.5l-0.5,0.6L153,50.4z"/>
			<path id="M_61_" class="st2" d="M115.4,29.5l4.5-10.1l0.3-0.9l-0.1,0.9l0.5,13.5c1.6,0.2,3.2,0.4,4.8,0.6l-0.7-20
				c-2.3-0.2-4.5-0.4-6.8-0.5l-4.4,11l-0.2,0.8l-0.2-0.8l-4.4-11c-2.2,0.1-4.5,0.3-6.8,0.5l-0.7,20c1.6-0.3,3.3-0.5,4.8-0.6
				l0.5-13.5l-0.1-0.9l0.3,0.9l4.5,10.1H115.4z"/>
			<path id="B_x5F_22d_61_" class="st2" d="M78.9,45.4c2.6-2.8,4.1-5.9,1.5-9c-1.4-1.6-3.8-2-5.8-1.2l-0.2,0.1l0.1-0.2
				c0.3-0.8,0.5-3.3-1.6-5c-1-0.8-2.3-1.2-3.7-1c-2.5,0.2-4.3,1.9-9.5,7.7c-1.5,1.7-3.8,4.5-5.2,6.2c0,0,14.1,13.4,14.1,13.4
				C73.3,51.2,75.2,49.3,78.9,45.4z M60.5,42.2c2.8-3.5,5.9-6.6,7.2-7.9c0.4-0.4,0.9-0.8,1.5-0.9c0.9-0.3,1.9,0.4,2.1,1.4
				c0.2,1-0.4,1.9-1,2.6c-1.5,1.7-7,7.5-7,7.5S60.5,42.2,60.5,42.2z M66,47.4c0,0,5.4-5.7,7.1-7.5c0.7-0.7,1.1-1.2,1.6-1.4
				c0.6-0.3,1.3-0.4,1.9,0c0.6,0.4,0.9,1.1,0.7,1.8c-0.2,0.8-0.8,1.6-1.4,2.2c-0.7,0.8-7.1,7.6-7.1,7.6L66,47.4z"/>
		</g>
		<path class="st3" d="M113.4,36.6V85H65C65,58.3,86.6,36.6,113.4,36.6z"/>
		<path class="st3" d="M161.8,85c0,26.8-21.7,48.4-48.4,48.4V85H161.8z"/>
	</g>
</g>
<g id="レイヤー_2">
	<g>
		<path d="M82.6,95.8h-4.3V73.5h6.5l5.7,17.7L96,73.5h6.5v22.2H98V79.3l-5.2,16.5H88l-5.3-16.6V95.8z M112.1,95.8h-4.6V73.5h4.6
			V95.8z M121.6,95.8h-4.4V73.5h5.4l8.9,16.1V73.5h4.4v22.2h-5.4l-8.8-16V95.8z M145.5,95.8h-4.6V73.5h4.6V95.8z M178.2,104h-21.1
			c1.1-2.6,2-5.4,2.7-8.2h26.6l7-7h-32.5c0.1-1.4,0.2-2.7,0.2-4.1c0-1.4-0.1-2.7-0.2-4.1h40.7l7-7h-48.8c-0.7-2.8-1.5-5.6-2.7-8.2
			h59.7l7-7h-70.4c-8.7-13.7-24-22.8-41.5-22.8c-17.4,0-32.7,9.1-41.5,22.8H0l7,7h59.7c-1.1,2.6-2,5.4-2.7,8.2H15.2l7,7h40.7
			c-0.1,1.4-0.2,2.7-0.2,4.1c0,1.4,0.1,2.7,0.2,4.1H30.4l7,7H64c0.7,2.8,1.6,5.6,2.7,8.2H45.6l7,7h17.8
			c8.7,13.7,24.1,22.8,41.5,22.8c17.4,0,32.7-9.1,41.5-22.8h17.8L178.2,104z M111.9,126.8c-23.2,0-42.1-18.9-42.1-42.1
			c0-23.2,18.9-42.1,42.1-42.1c23.2,0,42.1,18.9,42.1,42.1C154,107.9,135.1,126.8,111.9,126.8"/>
	</g>
</g>
</svg>
