<svg xmlns="http://www.w3.org/2000/svg" width="847.428" height="41.19" viewBox="0 0 847.428 41.19">
  <path id="tit09" d="M843.074,9.278a4.442,4.442,0,0,1-2.729-.924,40.141,40.141,0,0,1-5.5,16.855c-4.752,7.657-11.4,11.881-22.531,14.346l-.484-1.5c13.686-4.445,21.563-13.818,23.807-28.252H810.465l-1.936.4V7.43l1.936.352,29.308.044a4.545,4.545,0,0,1-1.144-2.992,4.467,4.467,0,0,1,8.933,0A4.5,4.5,0,0,1,843.074,9.278Zm0-7.129a2.725,2.725,0,0,0-2.685,2.685,2.733,2.733,0,0,0,2.729,2.684,2.685,2.685,0,1,0-.044-5.369ZM807.9,17.42c-1.585,7.261-3.609,11.969-6.6,15.49a23.347,23.347,0,0,1-13.906,7.745l-.44-1.276a23.229,23.229,0,0,0,12.409-9.77c1.8-2.9,3.345-7.085,4.621-12.673l.088-2.333,4.137,1.32c.44.132.66.4.66.66C808.868,16.98,808.6,17.244,807.9,17.42Zm-18.571-2.729.792-.616a17.416,17.416,0,0,1,6.953,9.77l-3.521,1.364A29.755,29.755,0,0,0,789.329,14.691Zm-8.977,1.056.748-.572a16.484,16.484,0,0,1,7.261,9.77l-3.477,1.32C783.652,21.6,782.2,18.124,780.352,15.747Zm-22.464.528a5.954,5.954,0,0,0-.088,1.057c-.352,8.361-2.377,13.29-6.953,17.03a31.156,31.156,0,0,1-12.586,5.677l-.44-1.32c7.173-2.729,11.97-6.645,13.906-11.354,1.188-2.816,1.672-5.5,1.936-11.09H737.381l-1.937.4V13.855l1.937.4h16.326c.044-1.188.044-2.156.044-2.772V5.67l-.4-2.772,4.665.308a.828.828,0,0,1,.836.792c0,.352-.22.66-.88,1.1v6.381c0,.616,0,1.584-.044,2.772h13.73l1.936-.4v2.817l-1.936-.4ZM700.422,37.619c-.309.7-.661,1.012-1.145,1.012-.44,0-.836-.352-1.1-.968l-1.584-3.917,2.332-.044c9.33-1.936,14.346-4.181,20.2-8.933a43.7,43.7,0,0,0,11.222-14.258l1.232.572a37.1,37.1,0,0,1-9.549,16.194C716.616,32.382,710.367,35.374,700.422,37.619ZM696.2,5.714l.528-1.144a27.153,27.153,0,0,1,14.038,6.909l-3.609,3.652A41.372,41.372,0,0,0,696.2,5.714Zm-18.508,8.757v25.92H673.6V17.42A58.036,58.036,0,0,1,654.674,25.6l-.484-1.32A85.623,85.623,0,0,0,683.058,4.262l1.584-2.377,3.389,2.245a1.364,1.364,0,0,1,.7,1.012c0,.616-.484.924-1.673,1.056A112.8,112.8,0,0,1,677.689,14.471Zm-55.623,23.72c12.806-3.169,20.947-10.914,22.8-21.563H617.4l-1.937.4V14.207l1.937.4h32.432c-1.408,14.038-11.617,23.368-27.46,25.04ZM620.79,6.462l-1.936.4V4.042l1.936.4h24.38l1.936-.4V6.858l-1.936-.4Zm-26.041,27.5v7.613H591.14V33.966H574.77l-1.761.352V31.854l1.761.352h16.37V27.981H577.982V11.435H591.14V7.474H576.31l-1.716.352V5.362l1.716.352h14.83V1.093h3.389c.616,0,.924.176.924.616,0,.264-.132.44-.7.836V5.714H610.2l1.716-.352V7.826L610.2,7.474H594.749v3.961h13.774V27.981H594.749v4.225h16.986l1.76-.352v2.464l-1.76-.352ZM591.14,13.195h-9.549v5.457h9.549Zm0,7.217h-9.549v5.809h9.549Zm13.774-7.217H594.749v5.457h10.165Zm0,13.026V20.412H594.749v5.809ZM566.56,17.86V41.315h-3.521V17.86h-5.765c-.132,7.085-.308,8.977-1.056,12.321a17.659,17.659,0,0,1-7.745,11.178l-.748-.924c3.037-3.345,4.533-6.689,5.413-11.838.572-4.092.7-7.217.7-19.583V3.6l3.476,1.276.133-.044a50.226,50.226,0,0,0,9.681-3.389l2.552,2.641a.8.8,0,0,1,.264.44c0,.308-.4.572-.748.572a4.566,4.566,0,0,1-1.012-.132,52.49,52.49,0,0,1-10.87,1.364V16.1H569.6l1.761-.352v2.465L569.6,17.86Zm-23.06-.22v5.368h6.381l1.761-.352v2.465l-1.761-.352H543.5v2.992c.177.044.177.088,1.057.44a20.608,20.608,0,0,1,5.808,3.565l-2.288,3.08a34.338,34.338,0,0,0-4.577-5.941v12.41h-3.432V29.257l-.088.132c-2.288,3.389-4.093,5.193-8.493,8.538l-.616-.969a38.921,38.921,0,0,0,8.009-12.189h-5.633l-1.76.352V22.656l1.76.352h6.821V17.64h-7.481l-1.716.352V15.527l1.716.352h3.74l-.088-.44-.088-.44A47.058,47.058,0,0,0,534.7,8.266l-.044-.132h-1.408l-1.76.352V6.022l1.76.352h6.689V1.357h3.388c.617,0,.925.176.925.572,0,.308-.132.484-.705.881V6.374h6.469l1.761-.352V8.486l-1.761-.352h-1.628a56.313,56.313,0,0,1-3.344,7.745h5.545l1.716-.352v2.465l-1.716-.352Zm-7.481-9.506.088.132a25.285,25.285,0,0,1,3.653,5.853l-2.772,1.76h6.556l.045-.132a72.117,72.117,0,0,0,1.276-7.613Zm-23.005,9.682c8.142,0,13.334,3.872,13.334,9.945,0,6.821-6.689,12.19-15.182,12.19-6.909,0-12.322-3.213-12.322-7.305,0-2.861,2.421-4.841,5.9-4.841a10.818,10.818,0,0,1,7.525,3.345,14.34,14.34,0,0,1,3.257,4.928,9.779,9.779,0,0,0,3.916-2.332,8.461,8.461,0,0,0,2.817-6.293c0-4.665-3.653-7.481-9.682-7.481-3.96,0-7,.748-12.321,3.08l-5.677,4.753-2.157-2.6L515.3,5.934c-4.357.264-9.11.4-17.163.44l-.352-3.124,2.729,1.012c10.121-.132,11.617-.176,16.282-.484l1.276-1.233,2.993,1.585a1.238,1.238,0,0,1,.792,1.056c0,.616-.528.968-1.8,1.188L504.7,19.312A23.1,23.1,0,0,1,513.014,17.816Zm-8.4,12.365c-1.892,0-3.124.925-3.124,2.289a3.13,3.13,0,0,0,1.98,2.728,15.836,15.836,0,0,0,7.525,1.76,6.986,6.986,0,0,0,1.936-.176h.132C511.3,32.6,508.174,30.181,504.609,30.181Zm-27.8-17.338.288,2.2.944.088c2.508-.176,4-.352,6.469-.66l2.6-1.364-.132,3.036a43.921,43.921,0,0,1-7.657.969h-.132a88.175,88.175,0,0,0,7.129,10.6l-2.992,1.892a13.316,13.316,0,0,0-5.193-3.212,25.393,25.393,0,0,0-8.845-1.628,18.5,18.5,0,0,0-8.714,1.892,4.537,4.537,0,0,0-2.552,3.917,4.341,4.341,0,0,0,2.64,3.872c2.773,1.32,6.865,2.024,11.882,2.024a41.341,41.341,0,0,0,9.505-1.056v4.137a48.317,48.317,0,0,1-8.185.616c-12.321,0-18.746-3.125-18.746-9.153a7.047,7.047,0,0,1,4.224-6.425,22.251,22.251,0,0,1,9.638-1.981A24.973,24.973,0,0,1,479.8,24.945c-1.584-2.421-3.256-5.237-4.533-7.525H475.1c-3.74.22-6.292.308-8.845.308a68.33,68.33,0,0,1-11-.66l-.352-2.685,2.948,1.012c3.168.22,5.281.308,8.009.308,2.508,0,5.193-.088,8.317-.264l-.088-.132c-.968-1.716-1.5-2.728-2.772-5.236h-.176l-.44.044c-1.716.088-3.609.132-5.9.132a51.711,51.711,0,0,1-9.989-.7L454.5,6.9l2.949.968a66.107,66.107,0,0,0,7.393.352c1.848,0,3.52-.044,5.457-.132l-1.937-3.784L467,1.753h4.4c.7,0,1.144.308,1.144.748a1.354,1.354,0,0,1-.528.969c.88,1.848,1.716,3.564,2.024,4.136a.931.931,0,0,1,.132.308c4.269-.352,5.633-.484,9.682-1.056l2.64-1.1-.22,2.728a79.8,79.8,0,0,1-11.09,1.365l.088.132Zm-33.263.44.7-.66a8.814,8.814,0,0,1,5.193,4.577L446.5,18.784A17.028,17.028,0,0,0,443.549,13.283Zm-6.073-4.005c-6.557,2.729-10.033,7.394-10.033,13.422a10.386,10.386,0,0,0,4.312,8.934c2.464,1.8,4.533,2.508,9.065,2.992L439.148,39.2c-5.017-.924-7.349-1.849-10.121-4.049a13.967,13.967,0,0,1-5.369-11.441c0-4.973,2.068-9.022,6.293-12.322A23.39,23.39,0,0,1,436.9,7.738a.84.84,0,0,0,.352-.132L410.544,8.662l-.308-3.036,2.552.792,31.421-1.1,2.9-1.056-.22,3.08A25.786,25.786,0,0,0,437.476,9.278Zm-37.787,4.8-.132.044v7.789c.044,8.714-1.672,12.586-7.041,16.019a19.41,19.41,0,0,1-8.757,2.816l-.308-1.32a17.5,17.5,0,0,0,7.305-3.609c3.7-3.212,4.929-6.733,4.973-14.126V14.3c-1.5.044-5.105.088-8.1.088-2.949,0-4.621-.044-6.645-.22l-.264-2.772,2.024.748c2.9.176,4.357.22,6.425.22,1.584,0,5.941-.088,6.557-.132V4.834l-.352-2.553,4.18.264c.528.044.881.353.881.749s-.265.7-.881,1.1v7.613c1.629-.132,2.9-.264,4.753-.528l2.684-1.012-.264,2.816A51.563,51.563,0,0,1,399.689,14.075Zm-25.127,6.6a63.312,63.312,0,0,0,1.54,15.358l-3.873.66a72.562,72.562,0,0,1-1.5-15.49,144.639,144.639,0,0,1,1.012-15.358l-.176-2.508,3.785.484c.792.088,1.144.352,1.144.792s-.22.7-.836,1.012A101.888,101.888,0,0,0,374.562,20.676ZM326.786,40.567l-.925-.616c2.9-5.5,3.653-11.046,3.653-27.152V3.162h34.193V13.371h-30.54C333.122,29.653,331.758,35.594,326.786,40.567ZM360.054,4.922H333.167v6.689h26.887ZM315.332,4.79l.7-.7a14.561,14.561,0,0,1,8.45,7.393l-3.653,2.068C319.117,9.542,317.357,6.726,315.332,4.79Zm-13.07,6.117v7.437a28.855,28.855,0,0,1,4.929-.4c4.269,0,7.3.616,9.858,2.068a10.522,10.522,0,0,1,5.236,9.329A9.778,9.778,0,0,1,312.12,39.423,8.841,8.841,0,0,1,306,37.266l.66-1.232a8.69,8.69,0,0,0,4.137,1.1c4.312,0,7.481-3.432,7.481-8.053a8.288,8.288,0,0,0-4.005-7.437A14,14,0,0,0,307.1,20.1a31.169,31.169,0,0,0-4.841.4V35.154a5.392,5.392,0,0,1-1.276,3.961,6.147,6.147,0,0,1-3.872,1.144c-5.941,0-10.342-3.917-10.342-9.153,0-3.345,1.672-6.337,4.885-8.67a22.463,22.463,0,0,1,6.909-3.3v-8.1c-.88.044-1.584.044-2.728.044-2.6,0-4.313-.044-7.966-.264l-.264-2.861,2.641.88c2.288.176,3.7.22,5.853.22.7,0,1.408,0,2.464-.044V4.086l-.352-2.729,4,.308c.529.044.925.352.925.748s-.22.661-.881,1.1V8.882a59.559,59.559,0,0,0,9.2-.968l2.684-1.364-.176,3.257C311.636,10.2,306.487,10.687,302.262,10.907Zm-3.7,10.517c-2.992,1.232-4.445,2.112-5.985,3.785a8.57,8.57,0,0,0-2.42,5.765,6.561,6.561,0,0,0,6.293,6.821c1.54,0,2.112-.793,2.112-2.993ZM272.85,37c-4.577,0-7.525-.484-9.989-1.672a8,8,0,0,1-4.313-7.525A11.849,11.849,0,0,1,260,22.128l1.32.352a12.375,12.375,0,0,0-.572,3.785,5.791,5.791,0,0,0,2.729,5.369c1.8,1.012,4.136,1.452,7.921,1.452a46.2,46.2,0,0,0,9.637-.924v4.224A50.993,50.993,0,0,1,272.85,37Zm-1.584-26.271a53.355,53.355,0,0,0-10.826,1.144l-.308-1.32a25.177,25.177,0,0,1,13.6-3.433,34.993,34.993,0,0,1,5.633.4v4A37.377,37.377,0,0,0,271.266,10.731ZM251.551,24.549a66.353,66.353,0,0,0,1.232,14.038l-4,.748a66.835,66.835,0,0,1-1.056-13.466,166.021,166.021,0,0,1,1.32-20.331L249,3.426l3.916.616c.572.088.924.4.924.748s-.264.66-.924,1.1A149.716,149.716,0,0,0,251.551,24.549ZM230.584,36.43h6.909c1.32,0,1.8-.44,1.98-1.8L240,30.049l2.068.308-.616,5.457c-.264,2.993-1.54,4.137-4.532,4.137H229.88c-4.225.044-5.413-.924-5.413-4.357V18.652h-6.381v.88c-.132,7.129-2.2,13.378-5.413,16.15A20.232,20.232,0,0,1,202.068,41.1l-.485-1.452a16.884,16.884,0,0,0,9.066-6.777c1.98-2.685,3.344-8.1,3.432-13.554v-.66h-9.857L202.376,19V16.275l1.848.308h35.205l1.848-.308V19l-1.848-.352H228.383V34.626C228.383,36.034,228.823,36.342,230.584,36.43ZM208.712,5.582l-1.848.352V3.162l1.848.352H234.5l1.848-.352V5.934L234.5,5.582Zm-25.662,20.9V37.222c0,2.861-1.233,4.137-4.005,4.093h-7.173V39.247h4.665c1.848,0,2.64-.792,2.64-2.685V26.485H161.971l-1.761.352V24.285l1.761.352h17.206v-8.8H165.931l-1.76.352V13.635l1.76.352h13.246V6.462l-3.256.176c-6.6.352-7.7.4-10.034.4-.528,0-1.452,0-2.64-.044l-.132-1.628C173.5,4.834,188.99,2.721,193.7,1.181l2.684,2.773c.221.264.353.44.353.66,0,.4-.485.748-1.013.748a3.745,3.745,0,0,1-1.452-.4c-6.293.792-8.8,1.056-11.221,1.232v7.789h12.1l1.761-.352v2.552l-1.761-.352h-12.1v8.8h15.886l1.76-.352v2.552l-1.76-.352ZM148.986,4.79l.7-.7a14.556,14.556,0,0,1,8.449,7.393l-3.652,2.068C152.771,9.542,151.01,6.726,148.986,4.79Zm-13.07,6.117v7.437a28.848,28.848,0,0,1,4.929-.4c4.268,0,7.3.616,9.857,2.068a10.521,10.521,0,0,1,5.237,9.329,9.779,9.779,0,0,1-10.166,10.078,8.838,8.838,0,0,1-6.116-2.157l.66-1.232a8.687,8.687,0,0,0,4.136,1.1c4.313,0,7.481-3.432,7.481-8.053a8.289,8.289,0,0,0-4-7.437,14,14,0,0,0-7.173-1.54,31.16,31.16,0,0,0-4.841.4V35.154a5.392,5.392,0,0,1-1.276,3.961,6.148,6.148,0,0,1-3.873,1.144c-5.941,0-10.341-3.917-10.341-9.153,0-3.345,1.672-6.337,4.885-8.67a22.464,22.464,0,0,1,6.909-3.3v-8.1c-.881.044-1.585.044-2.729.044-2.6,0-4.312-.044-7.965-.264l-.264-2.861,2.64.88c2.289.176,3.7.22,5.853.22.7,0,1.408,0,2.465-.044V4.086l-.353-2.729,4,.308c.528.044.924.352.924.748s-.22.661-.88,1.1V8.882a59.528,59.528,0,0,0,9.2-.968L147.8,6.55l-.176,3.257C145.289,10.2,140.141,10.687,135.916,10.907Zm-3.7,10.517c-2.993,1.232-4.445,2.112-5.985,3.785a8.566,8.566,0,0,0-2.421,5.765,6.562,6.562,0,0,0,6.293,6.821c1.54,0,2.113-.793,2.113-2.993ZM106.5,37c-4.577,0-7.525-.484-9.99-1.672A8,8,0,0,1,92.2,27.805a11.849,11.849,0,0,1,1.452-5.677l1.32.352a12.375,12.375,0,0,0-.572,3.785,5.79,5.79,0,0,0,2.728,5.369c1.805,1.012,4.137,1.452,7.922,1.452a46.208,46.208,0,0,0,9.637-.924v4.224A51.009,51.009,0,0,1,106.5,37ZM104.92,10.731a53.355,53.355,0,0,0-10.826,1.144l-.308-1.32a25.174,25.174,0,0,1,13.6-3.433,35.009,35.009,0,0,1,5.633.4v4A37.382,37.382,0,0,0,104.92,10.731ZM85.205,24.549a66.354,66.354,0,0,0,1.232,14.038l-4,.748a66.836,66.836,0,0,1-1.056-13.466A166.02,166.02,0,0,1,82.7,5.538l-.044-2.112,3.917.616c.572.088.924.4.924.748s-.264.66-.924,1.1A149.716,149.716,0,0,0,85.205,24.549ZM70.816,1.269l.7-.616A8.69,8.69,0,0,1,76.713,5.23L73.765,6.814A16.863,16.863,0,0,0,70.816,1.269ZM68.4,7.606a18.181,18.181,0,0,0-2.553-5.721l.792-.616a8.784,8.784,0,0,1,4.753,4.885ZM45.072,19.048c-.836.484-1.012.616-1.012.748,0,.176.176.308,1.1.836,7.7,4.885,10.342,6.689,12.85,8.8a57.569,57.569,0,0,1,8.625,8.846l-3.96,2.772A70.819,70.819,0,0,0,42.828,22.216c-1.232-.836-1.848-1.54-1.848-2.2,0-.836.836-1.716,3.828-3.917C52.553,10.423,55.282,8.178,59.242,4.35l1.893-2.421,3.256,2.2c.528.4.748.66.748.968,0,.484-.4.748-1.276.792A125.911,125.911,0,0,1,45.072,19.048ZM26.582,9.719H26.01v15.71c0,6.161-1.585,9.725-5.589,12.586-2.641,1.848-6.161,2.9-10.606,3.212l-.264-1.364c7.349-1.188,11.574-4.929,12.63-11.09A8.172,8.172,0,0,1,16.5,31.018a8.6,8.6,0,0,1-6.073-2.553,7.39,7.39,0,0,1-1.848-5.237,8.57,8.57,0,0,1,8.625-8.8A7.179,7.179,0,0,1,22.357,16.5V9.807l-1.5.044c-4.181.088-5.589.132-7.569.132C7.791,9.983,2.6,9.851.31,9.63L.134,6.858l2.42.924c2.025.044,9.066.176,11,.176,1.54,0,2.948-.044,7.349-.132l1.452-.044V4.174L22,1.445l4.005.308c.528.044.88.352.88.748s-.22.661-.88,1.1V7.694h.7c3.476-.088,6.249-.264,10.473-.616l2.6-1.056L39.652,8.97A119.455,119.455,0,0,1,26.582,9.719Zm-4.225,9.373a5.457,5.457,0,0,0-4.533-2.42c-3.124,0-5.456,2.684-5.456,6.292,0,3.433,2.068,5.809,5.016,5.809a6.09,6.09,0,0,0,4.973-2.86Zm325.376-4H350.9c.616,0,.924.176.924.572,0,.308-.132.484-.7.88V20.28h12.146V40.963H359.79V38.719H339.371v2.6h-3.388V20.28h11.75Zm3.388,21.871h8.669V30.313h-8.669Zm0-8.405h8.669V22.04h-8.669Zm-11.75,8.405h8.362V30.313h-8.362Zm0-14.918v6.513h8.362V22.04Zm99.777-8.713a8.65,8.65,0,0,1,4.841,5.237l-2.949,1.408a19.048,19.048,0,0,0-2.684-6.073Z" transform="translate(-0.134 -0.389)" fill="#0d0d0d" fill-rule="evenodd"/>
</svg>
