<svg xmlns="http://www.w3.org/2000/svg" width="640" height="84.966" viewBox="0 0 640 84.966">
  <g id="tit04-sp" transform="translate(0 -179.424)">
    <path id="tit04" d="M636.663,31.617h-3.541L618.192,8.025v21.3h3.589v2.3h-9.954v-2.3h3.733V2.9h-3.733V.607h8.566L634.031,21.95V2.9h-3.685V.607H640.4V2.9h-3.733Zm-39.575-2.3h3.733L597.9,20.658h-9.044l-3.015,8.662h3.541v2.3h-10v-2.3h3.637L593.26.607h3.4L606.9,29.32h3.445v2.3H597.088ZM593.547,7.785h-.239l-3.637,10.48h7.417ZM564.691,29.32h3.589V7.929L559.14,29.32h-2.967l-9.81-21.343V29.32H549.9v2.3H540v-2.3h3.733V2.9H540V.607h9.236l10,21.869L568.567.607H577.8V2.9H574.07V29.32H577.8v2.3H564.691ZM527.317,17.308V29.32h4.115v2.3H517.411v-2.3h4.115V18.457L513.822,2.9h-3.733V.607h13.3V2.9h-3.445l5.79,11.868L531.911,2.9h-3.828V.607h10.336V2.9h-3.733Zm-35.221.239h-2.68V29.32h3.733v2.3H479.894v-2.3h3.733V2.9h-3.733V.607h14.4q4.928,0,7.465,2.393A7.883,7.883,0,0,1,504.3,8.982a8.035,8.035,0,0,1-1.627,4.977,8.774,8.774,0,0,1-4.5,3.063l7.9,12.3h3.3v2.3h-8.566ZM496.93,4.6a3.772,3.772,0,0,0-3.158-1.7h-4.355V15.251h4.355a3.744,3.744,0,0,0,3.111-1.842,7.512,7.512,0,0,0,1.292-4.426A7.226,7.226,0,0,0,496.93,4.6Zm-24.6-1.7h-4.259V29.32h4.546v2.3H457.737v-2.3h4.546V2.9h-4.307l-2.393,6.412h-3.111V.607h25.411V9.317h-3.11ZM447.161,31.617H443.62L428.69,8.025v21.3h3.589v2.3h-9.954v-2.3h3.733V2.9h-3.733V.607h8.566L444.529,21.95V2.9h-3.685V.607h10.049V2.9h-3.733Zm-30.435-9.427A9.806,9.806,0,0,1,414,29.368q-2.728,2.776-7.657,2.776a11.765,11.765,0,0,1-8.3-2.847q-3.087-2.847-3.087-8.59V2.9H391.22V.607h13.256V2.9h-3.733V22.333a7.676,7.676,0,0,0,1.7,5.384,6.152,6.152,0,0,0,4.761,1.842,7.079,7.079,0,0,0,3.445-.861,6.385,6.385,0,0,0,2.512-2.488,7.564,7.564,0,0,0,.933-3.828V2.9h-3.733V.607h10.1V2.9h-3.733Zm-33.546,7.585a12.614,12.614,0,0,1-7.9,2.417,13.717,13.717,0,0,1-8.063-2.2,12.641,12.641,0,0,1-4.546-5.647,19.123,19.123,0,0,1-1.412-7.322,22.639,22.639,0,0,1,1.507-8.279,14.248,14.248,0,0,1,4.666-6.293A12.534,12.534,0,0,1,375.285.033a13.77,13.77,0,0,1,8.016,2.2A12.676,12.676,0,0,1,387.918,7.9a18.9,18.9,0,0,1,1.436,7.3,22.639,22.639,0,0,1-1.507,8.279A14.248,14.248,0,0,1,383.181,29.774ZM381.266,6.733q-2.153-4.594-6.508-4.594a6.106,6.106,0,0,0-5.695,3.35,17.359,17.359,0,0,0-1.866,8.518,26.694,26.694,0,0,0,2.177,11.533q2.177,4.546,6.532,4.546a6.07,6.07,0,0,0,5.671-3.3,17.271,17.271,0,0,0,1.842-8.47A27.293,27.293,0,0,0,381.266,6.733ZM343.988,27.645a6.728,6.728,0,0,0,4.642,1.866,7.166,7.166,0,0,0,4.69-1.651,8.322,8.322,0,0,0,2.68-5h2.488a10.811,10.811,0,0,1-3.661,6.891,10.84,10.84,0,0,1-7.154,2.441,13.5,13.5,0,0,1-8.063-2.249,12.916,12.916,0,0,1-4.546-5.719,19.427,19.427,0,0,1-1.412-7.393A22.581,22.581,0,0,1,335.135,8.6a13.866,13.866,0,0,1,4.618-6.2,12.765,12.765,0,0,1,7.92-2.369,15.7,15.7,0,0,1,5.408.814,25.524,25.524,0,0,1,4.211,2.01v6.46h-4.068a9.183,9.183,0,0,0-2.01-5.455,5.363,5.363,0,0,0-4.068-1.723,6.106,6.106,0,0,0-5.695,3.35,17.248,17.248,0,0,0-1.866,8.47,26.3,26.3,0,0,0,1.172,8.3A12.384,12.384,0,0,0,343.988,27.645ZM304.173,29.32h4.642V2.9h-4.642V.607h15.074V2.9h-4.642V29.32h4.642v2.3H304.173Zm-5.455,2.3h-3.541L280.246,8.025v21.3h3.589v2.3h-9.954v-2.3h3.733V2.9h-3.733V.607h8.566L296.086,21.95V2.9H292.4V.607h10.049V2.9h-3.733Zm-42.112-2.3h4.642V2.9h-4.642V.607h15.074V2.9h-4.642V29.32h4.642v2.3H256.607Zm-15.313,0h3.589V7.929l-9.14,21.391h-2.967l-9.81-21.343V29.32h3.541v2.3H216.6v-2.3h3.733V2.9H216.6V.607h9.236l10,21.869L245.169.607h9.236V2.9h-3.733V29.32h3.733v2.3H241.293Zm-50.39,2.3h-3.254L180.232,9.7,173.58,31.617h-3.3L161.473,2.9h-3.78V.607h13.4V2.9h-3.78l6.077,20.338L180.088.8h3.063l7.561,22.539L196.645,2.9h-3.733V.607h10.145V2.9h-3.733Zm-59.913-2.3h3.733V2.9H130.99V.607H155.3V9.317h-3.35L149.509,2.9h-9v11.15h4.977V10.322h2.871V20.18h-2.871V16.447h-4.977V29.32h9.427l2.393-6.412h3.35v8.709H130.99Zm-5.455,2.3h-3.541L107.063,8.025v21.3h3.589v2.3H100.7v-2.3h3.733V2.9H100.7V.607h8.566L122.9,21.95V2.9h-3.685V.607h10.049V2.9h-3.733ZM61.41,29.32h3.733V2.9H61.41V.607H85.72V9.317H82.37L79.929,2.9h-9v11.15H75.91V10.322h2.871V20.18H75.91V16.447H70.933V29.32H80.36l2.393-6.412H86.1v8.709H61.41Zm-15.457,0h3.733V16.447H37.339V29.32h3.733v2.3H27.816v-2.3h3.733V2.9H27.816V.607h13.3V2.9h-3.78v11.15H49.686V2.9H45.953V.607H59.209V2.9H55.476V29.32h3.733v2.3H45.953ZM20.255,2.9H16V29.32h4.546v2.3H5.66v-2.3h4.546V2.9H5.9L3.507,9.317H.4V.607h25.41V9.317H22.7Z" transform="translate(-0.396 179.391)" fill-rule="evenodd"/>
    <path id="tit04-2" data-name="tit04" d="M1013.265,31.21a3.235,3.235,0,1,1,.933-2.273A3.095,3.095,0,0,1,1013.265,31.21Zm-11.8.407h-3.541L983,8.025v21.3h3.589v2.3h-9.954v-2.3h3.733V2.9h-3.733V.607H985.2L998.837,21.95V2.9h-3.685V.607H1005.2V2.9h-3.733Zm-33.45-1.842a12.613,12.613,0,0,1-7.9,2.417,13.719,13.719,0,0,1-8.063-2.2,12.647,12.647,0,0,1-4.546-5.647,19.124,19.124,0,0,1-1.412-7.322,22.637,22.637,0,0,1,1.507-8.279,14.249,14.249,0,0,1,4.666-6.293A12.534,12.534,0,0,1,960.123.033a13.768,13.768,0,0,1,8.016,2.2A12.676,12.676,0,0,1,972.757,7.9a18.9,18.9,0,0,1,1.436,7.3,22.639,22.639,0,0,1-1.507,8.279A14.249,14.249,0,0,1,968.019,29.774ZM966.105,6.733q-2.154-4.594-6.508-4.594a6.107,6.107,0,0,0-5.695,3.35,17.36,17.36,0,0,0-1.866,8.518,26.706,26.706,0,0,0,2.177,11.533q2.177,4.546,6.532,4.546a6.07,6.07,0,0,0,5.671-3.3,17.271,17.271,0,0,0,1.842-8.47A27.293,27.293,0,0,0,966.105,6.733ZM928.588,29.32h4.642V2.9h-4.642V.607h15.074V2.9H939.02V29.32h4.642v2.3H928.588ZM921.027,2.9h-4.259V29.32h4.546v2.3H906.431v-2.3h4.546V2.9H906.67l-2.393,6.412h-3.111V.607h25.411V9.317h-3.111ZM884.275,27.645a6.73,6.73,0,0,0,4.642,1.866,7.167,7.167,0,0,0,4.69-1.651,8.319,8.319,0,0,0,2.68-5h2.488a10.811,10.811,0,0,1-3.661,6.891,10.839,10.839,0,0,1-7.154,2.441,13.5,13.5,0,0,1-8.063-2.249,12.922,12.922,0,0,1-4.546-5.719,19.426,19.426,0,0,1-1.412-7.393A22.582,22.582,0,0,1,875.422,8.6a13.873,13.873,0,0,1,4.618-6.2,12.765,12.765,0,0,1,7.92-2.369,15.7,15.7,0,0,1,5.407.814,25.488,25.488,0,0,1,4.211,2.01v6.46h-4.068a9.178,9.178,0,0,0-2.01-5.455,5.363,5.363,0,0,0-4.068-1.723,6.107,6.107,0,0,0-5.695,3.35,17.247,17.247,0,0,0-1.866,8.47,26.327,26.327,0,0,0,1.172,8.3A12.384,12.384,0,0,0,884.275,27.645Zm-37.9,1.675h3.733V2.9h-3.733V.607h24.31V9.317h-3.35L864.894,2.9h-9v11.15h4.977V10.322h2.871V20.18h-2.871V16.447H855.9V29.32h9.427l2.393-6.412h3.35v8.709H846.374Zm-26.75,0h3.733V2.9h-3.733V.607h13.256V2.9h-3.733V29.32h9.427l2.393-6.412h3.35v8.709H819.624Zm-27.325,0h3.733V2.9H792.3V.607h24.31V9.317h-3.35L810.819,2.9h-9v11.15H806.8V10.322h2.871V20.18H806.8V16.447h-4.977V29.32h9.427l2.393-6.412h3.35v8.709H792.3Zm-7.681,1.818A13.994,13.994,0,0,1,779,32.191a14.964,14.964,0,0,1-5.886-1.077,9.393,9.393,0,0,1-3.637-2.417v-5.79h4.02a10.278,10.278,0,0,0,1.914,5.431,4.66,4.66,0,0,0,3.685,1.651,4.794,4.794,0,0,0,3.613-1.412,5.049,5.049,0,0,0,1.364-3.661,5.257,5.257,0,0,0-2.488-4.594l-8.087-5.36a10.054,10.054,0,0,1-2.991-3.039,7.625,7.625,0,0,1-1.172-4.187,6.849,6.849,0,0,1,2.608-5.575,10.992,10.992,0,0,1,7.154-2.13,15.358,15.358,0,0,1,5.551.957,9.8,9.8,0,0,1,3.828,2.441V9.317H784.4q-.384-3.972-1.723-5.575a4.388,4.388,0,0,0-3.541-1.6,4.3,4.3,0,0,0-3.326,1.268,4.634,4.634,0,0,0-1.172,3.278,4.524,4.524,0,0,0,2.153,3.972l8.47,5.551a9.928,9.928,0,0,1,3.254,3.422,8.67,8.67,0,0,1,1.148,4.331,7.208,7.208,0,0,1-1.316,4.259A8.674,8.674,0,0,1,784.619,31.138ZM749.183,2.9h-4.259V29.32h4.546v2.3H734.587v-2.3h4.546V2.9h-4.307l-2.393,6.412h-3.11V.607h25.41V9.317h-3.11Zm-27.4,28.234a13.994,13.994,0,0,1-5.623,1.053,14.963,14.963,0,0,1-5.886-1.077,9.393,9.393,0,0,1-3.637-2.417v-5.79h4.02a10.278,10.278,0,0,0,1.914,5.431,4.661,4.661,0,0,0,3.685,1.651,4.793,4.793,0,0,0,3.613-1.412,5.049,5.049,0,0,0,1.364-3.661,5.257,5.257,0,0,0-2.488-4.594l-8.087-5.36a10.054,10.054,0,0,1-2.991-3.039A7.625,7.625,0,0,1,706.5,7.738,6.849,6.849,0,0,1,709.1,2.163a10.992,10.992,0,0,1,7.154-2.13A15.358,15.358,0,0,1,721.81.99a9.8,9.8,0,0,1,3.828,2.441V9.317h-4.068q-.384-3.972-1.723-5.575a4.388,4.388,0,0,0-3.541-1.6,4.3,4.3,0,0,0-3.326,1.268,4.635,4.635,0,0,0-1.172,3.278,4.524,4.524,0,0,0,2.153,3.972l8.47,5.551a9.928,9.928,0,0,1,3.254,3.422,8.671,8.671,0,0,1,1.149,4.331,7.208,7.208,0,0,1-1.316,4.259A8.675,8.675,0,0,1,721.786,31.138ZM687.26,17.548h-2.68V29.32h3.733v2.3H675.057v-2.3h3.733V2.9h-3.733V.607h14.4q4.928,0,7.465,2.393a7.882,7.882,0,0,1,2.536,5.982,8.035,8.035,0,0,1-1.627,4.977,8.774,8.774,0,0,1-4.5,3.063l7.9,12.3h3.3v2.3h-8.566ZM692.093,4.6a3.772,3.772,0,0,0-3.158-1.7H684.58V15.251h4.355a3.743,3.743,0,0,0,3.11-1.842,7.512,7.512,0,0,0,1.292-4.426A7.226,7.226,0,0,0,692.093,4.6ZM657.781,29.32h4.642V2.9h-4.642V.607h15.074V2.9h-4.642V29.32h4.642v2.3H657.781ZM649.79,2.9h-9v11.15h4.977V10.322h2.871V20.18H645.77V16.447h-4.977V29.32h3.733v2.3H631.27v-2.3H635V2.9H631.27V.607h24.31V9.317h-3.35Z" transform="translate(-631.27 232.199)" fill-rule="evenodd"/>
  </g>
</svg>
