<svg xmlns="http://www.w3.org/2000/svg" width="640" height="113.564" viewBox="0 0 640 113.564">
  <g id="tit01-sp" transform="translate(0 -1794.566)">
    <path id="tit01" d="M625.414,27.1V42.556h6.017v3.03h-19.32v-3.03h5.956V28.589L608.09,8.29h-5.14V5.382h17.5V8.29h-4.444l7.438,15.452L631.37,8.29h-5.2V5.382h14.24V8.29h-5.442ZM603.343,45.586H570.509v-3.03h5.321V8.29h-5.321V5.382H588.77V8.29h-5.5V42.556h12.88l3.084-8.271h4.112Zm-54.814-3.03h6.016V8.29h-6.016V5.382h19.44V8.29h-6.016V42.556h6.016v3.03h-19.44Zm-19.018,0h4.384V15.986l-11.126,29.6h-3.839L507.107,15.865V42.556h4.566v3.03h-12.88v-3.03h4.837V8.29h-4.837V5.382h11.943l12.033,30.327L534.288,5.382h11.761V8.29h-4.717V42.556h4.838v3.03H529.511Zm-47.952,0h4.354L481.74,31.135H470.493l-3.961,11.421H471.1v3.03H457.856v-3.03h5.019L476.117,5.382h4.263l13.394,37.174h4.444v3.03h-16.66Zm-5.382-27.873-4.565,13.21h9.221Zm-24.7-6.393h-11.7V22.56h6.5v-4.7h3.719V29.65h-3.719V25.863h-6.5V42.556h5.26v3.03H427.077v-3.03h5.261V8.29h-5.261V5.382h31.9v10.9H454.62Zm-61.86,34.266h6.017V8.29h-6.017V5.382h19.441V8.29H403.04V42.556h6.017v3.03H389.616Zm-7.317,3.03h-4.6l-19.32-30.54v27.51h5.08v3.03h-13.3v-3.03H355V8.351h-4.717V5.382h10.975l17.506,27.479V8.351h-4.746V5.382h13.363V8.351H382.3Zm-54.119-3.03H334.2V8.29H328.18V5.382h19.441V8.29H341.6V42.556h6.017v3.03H328.18Zm-19.017,0h4.384V15.986l-11.127,29.6h-3.839L286.759,15.865V42.556h4.566v3.03h-12.88v-3.03h4.837V8.29h-4.837V5.382h11.943L302.42,35.709,313.94,5.382H325.7V8.29h-5.455V42.556h5.576v3.03H309.163Zm-63.945,3.03h-4.2l-8.98-27.813-8.012,27.813H219.76l-12-37.3h-5.322V5.382h17.748V8.29h-4.807l8.163,26.116,8.284-29.024h3.961l9.192,29.145L253.018,8.29h-6.078V5.382h15.48V8.29h-5.684Zm-76.433-3.03h5.261V8.29h-5.261V5.382h31.9v10.9h-4.354L193.184,8.29h-11.7V22.56h6.5v-4.7H191.7V29.65h-3.719V25.863h-6.5V42.556h12.245l3.114-8.593h4.324V45.586H168.785Zm-7.619,3.03h-4.6l-19.32-30.54v27.51h5.08v3.03h-13.3v-3.03h4.838V8.351h-4.717V5.382h10.975l17.506,27.479V8.351h-4.747V5.382h13.364V8.351h-5.08Zm-83.174-3.03h5.26V8.29h-5.26V5.382h31.9v10.9h-4.353L102.391,8.29H90.69V22.56h6.5v-4.7h3.719V29.65H97.19V25.863h-6.5V42.556h12.246l3.114-8.593h4.324V45.586H77.992Zm-18.655,0h4.082V25.923h-15.9V42.556h4.142v3.03H35.875v-3.03h4.2V8.29h-4.2V5.382H51.657V8.29H47.515V22.682h15.9V8.29H59.337V5.382H75.15V8.29H70.917V42.556H75.15v3.03H59.337ZM26.048,8.29h-5.5V42.556h5.261v3.03H7.848v-3.03h5.261V8.29H7.515L4.432,16.683H.41V5.382h32.8v11.3H29.194Z" transform="translate(-0.41 1789.184)" fill="#e6014b" fill-rule="evenodd"/>
    <path id="tit01-2" data-name="tit01" d="M1039.008,28.428V21.6l43.087,1.913v2.947Zm-40.351,16.6-2.58.517v-3.93l2.58.517h17.7l1.238-19.856h-13.932l-2.425.517v-3.93l2.425.517h19.918l-1.341,22.752h6.3l2.58-.517v3.93l-2.58-.517ZM983.229,1.747l1.29-.931a10.649,10.649,0,0,1,6.193,5.791l-4.025,2.017A20.5,20.5,0,0,0,983.229,1.747Zm-3.2,8.015a20.563,20.563,0,0,0-2.89-7.291l1.393-.879a11.271,11.271,0,0,1,5.573,6.257Zm-22.085,9.824,23.995-3.826,2.477-.879.619,4.085-2.581-.1-24.51,3.878V34.994c0,2.638.515,3.672,2.064,4.241,1.289.414,6.192.724,12.745.724a144,144,0,0,0,14.5-.982v5.946c-4.386.362-9.546.517-15.119.517a120.844,120.844,0,0,1-12.333-.517c-3.1-.259-5.057-1.034-6.243-2.379-1.135-1.293-1.755-3.723-1.755-7.033V7.434l-.516-3.671,6.554.414a1.24,1.24,0,0,1,1.239,1.086c0,.465-.309.879-1.135,1.5ZM936.531,1.85,937.718.816a10.758,10.758,0,0,1,6.4,5.584l-3.922,2.172A20.6,20.6,0,0,0,936.531,1.85Zm-2.425,8.17a23.493,23.493,0,0,0-3.251-7.342l1.29-.931A10.656,10.656,0,0,1,938.028,8Zm-2.529-.207L929,9.3H905.415l-2.58.517V5.883l2.58.517H929l2.58-.517Zm9.185,10.393v3.93l-2.58-.517H922.805c0,7.911-1.857,13.445-5.728,17.012-3.715,3.464-10.113,6.308-17.235,7.653l-.774-2.43c5.728-1.655,10.475-4.6,13.365-8.377,2.477-3.1,3.509-7.033,3.716-13.858H899.275l-2.58.517v-3.93l2.58.517h38.907ZM875.333,36.6a62.281,62.281,0,0,1,8.153,5.274L878.894,47.3a95.4,95.4,0,0,0-17.957-14.53l1.239-1.965a77.656,77.656,0,0,1,10.63,4.447,82.773,82.773,0,0,0,9.649-19.235H864.394a61.488,61.488,0,0,1-14.5,15.667l-1.5-1.706c5.986-6.618,11.869-17.322,14.707-26.732l6.449,1.861a1.024,1.024,0,0,1,.826.931c0,.517-.361.827-1.393,1.086-1.5,3.413-1.909,4.188-2.838,5.946l-.1.155h25.181C888.234,21.24,883.538,28.169,875.333,36.6ZM841.277,48.129h-5.16c-2.889,0-4.231-1.086-4.334-3.413V29.048h4.593c.722,0,1.083.259,1.083.724,0,.362-.155.62-.826,1.138V42.234c.052,1.086.309,1.344,1.445,1.4h3.148c1.393-.052,1.857-.465,1.961-1.861l.309-4.343,2.58.31-.464,6.412C845.458,46.991,844.219,48.129,841.277,48.129ZM837.769,30.5A41.309,41.309,0,0,0,839.73,24.7H821.36a15.389,15.389,0,0,1-2.58,8.015l-3.406-4.24a13.711,13.711,0,0,0,3.767-8.221h2.167a18.278,18.278,0,0,1,.1,1.965h24.665c-1.135,3.568-3.148,6.36-6.708,9.411Zm-4.7-20.941V15.6h7.637l2.167-.414V18.5l-2.167-.414H820.844l-2.168.414V15.191l2.168.414h7.172V9.554h-9.185l-2.168.414V6.659l2.168.414h9.185V1.126h4.8c.722,0,1.083.259,1.083.724,0,.362-.207.62-.826,1.086V7.073h10.165l2.168-.414V9.968l-2.168-.414ZM805,23.515c1.5-.052,4.645-.259,6.3-.362l.31-.052c-.413-1.189-.722-1.965-1.5-3.775l1.29-1.034a18.486,18.486,0,0,1,5.263,7.291l-3.56,3.154c-.361-1.706-.568-2.43-.826-3.464l-.361.1-.361.1c-.516.1-1.187.31-2.116.517V49.059h-4.489V26.928c-1.5.259-2.476.414-4.438.672-.413.724-.722,1.034-1.135,1.034a.87.87,0,0,1-.722-.724l-1.083-4.24h2.012l2.064-.052h.154l.259-.414.258-.362a119.142,119.142,0,0,0,8.824-15.512l4.334,2.482c.361.207.516.414.516.724,0,.569-.465.931-1.6,1.138A123.373,123.373,0,0,1,805,23.515Zm-1.393-11.944a20.023,20.023,0,0,1,2.786,2.275l-3.148,5.119a44.283,44.283,0,0,0-5.676-8.273l.877-1.81a26.906,26.906,0,0,1,3.1,1.448A65.56,65.56,0,0,0,804.8.816L809.9,2.884c.464.155.722.465.722.776,0,.517-.567.931-1.651,1.189A63.5,63.5,0,0,1,803.609,11.571Zm.1,19.959c.568.155.826.414.826.776,0,.517-.413.879-1.238,1.189-1.445,5.947-2.116,7.809-4.128,11.635l-1.6-.672a95.607,95.607,0,0,0,1.754-14.22Zm13.313,7.5-4.231,2.482a55.747,55.747,0,0,0-2.322-10.652l1.754-.62A25.712,25.712,0,0,1,817.025,39.028Zm5.831-9.98h4.592c.722,0,1.083.259,1.083.724,0,.362-.154.62-.826,1.086v1.086c-.154,10.291-3.56,14.737-13.158,17.271l-.722-1.861c7.018-3.464,8.72-6.463,9.031-15.513Z" transform="translate(-797.572 1858.916)" fill="#e6014b" fill-rule="evenodd"/>
  </g>
</svg>
