<svg xmlns="http://www.w3.org/2000/svg" width="640" height="69.855" viewBox="0 0 640 69.855">
  <g id="tit03-sp" transform="translate(0 -1531.97)">
    <path id="tit03" d="M638.3,26.622a2.428,2.428,0,1,1,1.734-.711A2.359,2.359,0,0,1,638.3,26.622ZM621,15.49H618.96v8.979h2.847v1.753H611.7V24.469h2.847V4.321H611.7V2.568h10.987a8.006,8.006,0,0,1,5.693,1.825,6.013,6.013,0,0,1,1.935,4.563,6.129,6.129,0,0,1-1.241,3.8,6.7,6.7,0,0,1-3.432,2.337l6.023,9.38h2.519v1.753h-6.534Zm3.687-9.873a2.879,2.879,0,0,0-2.409-1.3H618.96v9.417h3.322a2.855,2.855,0,0,0,2.372-1.405,5.732,5.732,0,0,0,.985-3.376A5.519,5.519,0,0,0,624.691,5.616ZM590.854,24.469H593.7V4.321h-2.847V2.568H609.4V9.212h-2.555L604.98,4.321h-6.863v8.5h3.8V9.979h2.19V17.5h-2.19V14.65h-3.8v9.819h7.191l1.825-4.891h2.555v6.644H590.854Zm-5.347-9.836a9.147,9.147,0,0,1-3.961.821h-3.723v9.015h2.848v1.753H570.559V24.469h2.848V4.321h-2.848V2.568h10.987a8.436,8.436,0,0,1,5.566,1.716,5.718,5.718,0,0,1,2.062,4.635,6.122,6.122,0,0,1-.967,3.4A6.393,6.393,0,0,1,585.507,14.633Zm-1.935-9.016a2.861,2.861,0,0,0-2.427-1.3h-3.322V13.7h3.322a2.853,2.853,0,0,0,2.372-1.405,5.724,5.724,0,0,0,.986-3.376A5.523,5.523,0,0,0,583.572,5.616Zm-19.582,19.2a9.621,9.621,0,0,1-6.023,1.843,10.458,10.458,0,0,1-6.151-1.679,9.637,9.637,0,0,1-3.468-4.307,14.574,14.574,0,0,1-1.077-5.584,17.283,17.283,0,0,1,1.15-6.315,10.873,10.873,0,0,1,3.559-4.8,9.568,9.568,0,0,1,5.987-1.843,10.512,10.512,0,0,1,6.114,1.678A9.677,9.677,0,0,1,567.6,8.135a14.417,14.417,0,0,1,1.1,5.566,17.286,17.286,0,0,1-1.15,6.315A10.868,10.868,0,0,1,563.99,24.816ZM562.53,7.241q-1.643-3.505-4.964-3.5a4.656,4.656,0,0,0-4.343,2.555,13.238,13.238,0,0,0-1.424,6.5,20.362,20.362,0,0,0,1.661,8.8q1.66,3.468,4.982,3.468a4.63,4.63,0,0,0,4.326-2.518,13.169,13.169,0,0,0,1.406-6.461A20.815,20.815,0,0,0,562.53,7.241ZM539.79,24.816a9.618,9.618,0,0,1-6.023,1.843,10.458,10.458,0,0,1-6.151-1.679,9.637,9.637,0,0,1-3.468-4.307,14.589,14.589,0,0,1-1.076-5.584,17.265,17.265,0,0,1,1.15-6.315,10.873,10.873,0,0,1,3.559-4.8,9.563,9.563,0,0,1,5.986-1.843,10.51,10.51,0,0,1,6.114,1.678A9.671,9.671,0,0,1,543.4,8.135a14.418,14.418,0,0,1,1.1,5.566,17.268,17.268,0,0,1-1.15,6.315A10.869,10.869,0,0,1,539.79,24.816ZM538.33,7.241q-1.643-3.505-4.964-3.5a4.658,4.658,0,0,0-4.343,2.555,13.239,13.239,0,0,0-1.423,6.5,20.363,20.363,0,0,0,1.66,8.8q1.661,3.468,4.982,3.468a4.629,4.629,0,0,0,4.326-2.518,13.169,13.169,0,0,0,1.405-6.461A20.815,20.815,0,0,0,538.33,7.241ZM509.9,23.191a5.132,5.132,0,0,0,3.541,1.423,5.466,5.466,0,0,0,3.577-1.259,6.35,6.35,0,0,0,2.044-3.815h1.9a7.961,7.961,0,0,1-8.249,7.118,10.3,10.3,0,0,1-6.151-1.715,9.855,9.855,0,0,1-3.468-4.362,14.809,14.809,0,0,1-1.077-5.64,17.227,17.227,0,0,1,1.132-6.278,10.581,10.581,0,0,1,3.522-4.727,9.738,9.738,0,0,1,6.041-1.806,11.979,11.979,0,0,1,4.124.62,19.48,19.48,0,0,1,3.212,1.533V9.212h-3.1a7,7,0,0,0-1.532-4.161,4.089,4.089,0,0,0-3.1-1.314,4.656,4.656,0,0,0-4.343,2.555,13.152,13.152,0,0,0-1.424,6.46,20.062,20.062,0,0,0,.895,6.333A9.441,9.441,0,0,0,509.9,23.191Zm-30.368,1.278h3.54V4.321h-3.54V2.568h11.5V4.321h-3.541V24.469h3.541v1.753h-11.5Zm-4.161,1.753h-2.7l-11.388-18V24.469h2.738v1.753h-7.593V24.469h2.848V4.321h-2.848V2.568h6.534l10.4,16.28V4.321h-2.811V2.568h7.665V4.321h-2.847Zm-32.121-1.753h3.541V4.321h-3.541V2.568h11.5V4.321H451.2V24.469h3.541v1.753h-11.5Zm-11.68,0H434.3V8.154l-6.972,16.315h-2.263l-7.483-16.28v16.28h2.7v1.753h-7.556V24.469h2.848V4.321h-2.848V2.568h7.045l7.629,16.681,7.118-16.681h7.044V4.321H438.72V24.469h2.847v1.753h-10Zm-40.953-1.278a5.13,5.13,0,0,0,3.54,1.423,5.471,5.471,0,0,0,3.578-1.259,6.349,6.349,0,0,0,2.043-3.815h1.9a7.961,7.961,0,0,1-8.249,7.118,10.3,10.3,0,0,1-6.151-1.715,9.861,9.861,0,0,1-3.468-4.362,14.824,14.824,0,0,1-1.076-5.64,17.208,17.208,0,0,1,1.132-6.278,10.574,10.574,0,0,1,3.522-4.727,9.737,9.737,0,0,1,6.041-1.806,11.987,11.987,0,0,1,4.125.62,19.514,19.514,0,0,1,3.212,1.533V9.212h-3.1a7,7,0,0,0-1.533-4.161,4.087,4.087,0,0,0-3.1-1.314,4.658,4.658,0,0,0-4.343,2.555,13.153,13.153,0,0,0-1.423,6.46,20.061,20.061,0,0,0,.895,6.333A9.441,9.441,0,0,0,390.613,23.191Zm-21.244,1.278h3.541V4.321h-3.541V2.568h11.5V4.321h-3.54V24.469h3.54v1.753h-11.5Zm-14.2-8.979h-2.044v8.979h2.848v1.753H345.862V24.469h2.848V4.321h-2.848V2.568h10.987a8.008,8.008,0,0,1,5.694,1.825,6.015,6.015,0,0,1,1.934,4.563,6.129,6.129,0,0,1-1.241,3.8,6.7,6.7,0,0,1-3.431,2.337l6.023,9.38h2.518v1.753h-6.533Zm3.687-9.873a2.878,2.878,0,0,0-2.409-1.3h-3.322v9.417h3.322a2.853,2.853,0,0,0,2.373-1.405,5.726,5.726,0,0,0,.986-3.376A5.513,5.513,0,0,0,358.857,5.616ZM340.1,4.321h-3.248V24.469h3.468v1.753H328.963V24.469h3.468V4.321h-3.285L327.32,9.212h-2.373V2.568H344.33V9.212h-2.373Zm-28.032,18.87a5.132,5.132,0,0,0,3.541,1.423,5.466,5.466,0,0,0,3.577-1.259,6.35,6.35,0,0,0,2.044-3.815h1.9a7.961,7.961,0,0,1-8.249,7.118,10.3,10.3,0,0,1-6.151-1.715,9.855,9.855,0,0,1-3.468-4.362,14.808,14.808,0,0,1-1.077-5.64,17.226,17.226,0,0,1,1.132-6.278,10.581,10.581,0,0,1,3.522-4.727,9.738,9.738,0,0,1,6.041-1.806,11.986,11.986,0,0,1,4.124.62,19.477,19.477,0,0,1,3.212,1.533V9.212h-3.1a7,7,0,0,0-1.533-4.161,4.089,4.089,0,0,0-3.1-1.314,4.656,4.656,0,0,0-4.343,2.555,13.152,13.152,0,0,0-1.424,6.46,20.061,20.061,0,0,0,.895,6.333A9.441,9.441,0,0,0,312.063,23.191Zm-28.909,1.278H286V4.321h-2.848V2.568H301.7V9.212h-2.555L297.28,4.321h-6.862v8.5h3.8V9.979h2.19V17.5h-2.19V14.65h-3.8v9.819h7.19l1.825-4.891h2.555v6.644H283.154Zm-20.4,0H265.6V4.321h-2.847V2.568h10.11V4.321h-2.847V24.469h7.19l1.825-4.891h2.555v6.644H262.751Zm-20.842,0h2.847V4.321h-2.847V2.568h18.542V9.212H257.9l-1.862-4.891h-6.862v8.5h3.8V9.979h2.19V17.5h-2.19V14.65h-3.8v9.819h7.191l1.825-4.891h2.555v6.644H241.909Zm-10.585-8.8h8.322V17.79h-8.322Zm-20.988,8.8h2.848V4.321h-2.848V2.568h10.111V4.321H217.6V24.469h7.191l1.825-4.891h2.555v6.644H210.336Zm-20.4,0h2.848V4.321h-2.848V2.568h10.111V4.321H197.2V24.469h7.19l1.825-4.891h2.555v6.644H189.932Zm-11.242,0h2.848l-2.227-6.607h-6.9l-2.3,6.607h2.7v1.753h-7.628V24.469h2.774l7.811-21.9h2.592l7.811,21.9H188.8v1.753H178.69Zm-2.7-16.425h-.182l-2.774,7.994h5.658Zm-29.93,18.178h-2.483L137.919,9.5l-5.073,16.718h-2.518l-6.716-21.9h-2.884V2.568h10.22V4.321h-2.883L132.7,19.834l5.11-17.12h2.336l5.767,17.192,4.527-15.585h-2.848V2.568h7.739V4.321h-2.848Zm-45.7-1.753h2.847V4.321H100.36V2.568H118.9V9.212h-2.555l-1.861-4.891h-6.863v8.5h3.8V9.979h2.19V17.5h-2.19V14.65h-3.8v9.819h7.191l1.825-4.891h2.555v6.644H100.36ZM96.2,26.222H93.5l-11.389-18V24.469h2.738v1.753H77.255V24.469H80.1V4.321H77.255V2.568h6.533l10.4,16.28V4.321H91.38V2.568h7.665V4.321H96.2ZM47.288,24.469h2.848V4.321H47.288V2.568H65.831V9.212H63.276L61.414,4.321H54.551v8.5h3.8V9.979h2.19V17.5h-2.19V14.65h-3.8v9.819h7.191l1.825-4.891h2.555v6.644H47.288Zm-11.789,0h2.847V14.65H28.928v9.819h2.847v1.753H21.665V24.469h2.847V4.321H21.665V2.568H31.812V4.321H28.928v8.5h9.417v-8.5H35.5V2.568h10.11V4.321H42.762V24.469h2.847v1.753H35.5ZM15.9,4.321H12.649V24.469h3.468v1.753H4.765V24.469H8.233V4.321H4.948L3.123,9.212H.75V2.568H20.131V9.212H17.759Z" transform="translate(-0.75 1529.839)" fill-rule="evenodd"/>
    <path id="tit03-2" data-name="tit03" d="M1262.293,12.236a26.867,26.867,0,0,1-3.01,9.854,21.023,21.023,0,0,0,4.349,3.011,21.848,21.848,0,0,0-1.581,3.163,20.448,20.448,0,0,1-4.441-3.74,16.9,16.9,0,0,1-4.44,3.8l-.517-.669v.882h-2.89V1.469h12.409c-.122,4.471-.274,6.418-.547,7.118-.456,1.277-1.339,1.7-3.407,1.7h-3.528V8.708H1257c1.795-.061,1.886-.243,2.1-5.779h-6.448v9.307Zm-3.254,1.46h-4.532a13.572,13.572,0,0,0,2.859,6.387A24.529,24.529,0,0,0,1259.04,13.7Zm-6.387,13.443a21.2,21.2,0,0,0,3.527-4.562,20.255,20.255,0,0,1-2.768-8.881h-.76Zm-5.445-16.849a23.767,23.767,0,0,1-2.8,5.232h2.95l1.278-.243v1.947l-1.278-.243h-3.953v3.953h3.315l1.277-.243v1.947l-1.277-.243h-3.315v6.235h-2.89V22.394H1237.2l-1.277.243V20.691l1.277.243h3.315V16.981h-3.954l-1.277.243V15.278l1.277.243h1.612V15.43a40.488,40.488,0,0,0-1.034-5.141h-.821l-1.277.243V8.587l1.277.243h4.2V5.089h-3.011l-1.277.243V3.385l1.277.243h3.011V.161h2.738c.426,0,.639.122.639.426,0,.213-.091.335-.487.639v2.4h2.95l1.277-.243V5.332l-1.277-.243h-2.95V8.83h4.2l1.247-.243v1.946l-1.247-.243Zm-8.85,0A13.644,13.644,0,0,1,1241,13.97l-2.1,1.551h4.076l.03-.091c.4-1.643.76-3.559.973-4.9l.03-.243Zm-23.3,1.49-1.278.243V10.076l1.278.243h6.844V7.948h-4.2l-1.277.243V6.244l1.277.243h4.2V4.267h-5.566l-1.247.243V2.564l1.247.243h5.566V.344h2.919q.639,0,.639.456c0,.183-.091.335-.487.639V2.807h5.931l1.277-.243V4.511l-1.277-.243h-5.931v2.22h4.867l1.277-.243V8.191l-1.277-.243h-4.867V10.32h6.965l1.277-.243v1.947l-1.277-.243Zm-1-1.947a17.068,17.068,0,0,0-1.794-4.531l.669-.608a7.282,7.282,0,0,1,3.315,3.163Zm-2.007,18.7h-2.981V.344h2.829c.426,0,.639.122.639.426,0,.213-.091.335-.487.639Zm-7.421-15.176a27.85,27.85,0,0,0,1.429-8.607h1.46c.152,1.886.182,3.011.182,4.592a17.169,17.169,0,0,1-1.034,6.783ZM1192.4,24.432v4.075h-2.768V24.432h-8.577l-1.278.243V22.729l1.278.243h8.577v-2.19h-7.451V11.323h7.451V9.194h-7.421l-1.247.243V7.492l1.247.243h7.421V5.362h2.615c.427,0,.639.122.639.426,0,.213-.09.335-.486.639V7.735h8.425l1.246-.243V9.437l-1.246-.243H1192.4v2.129h7.725v9.459H1192.4v2.19h8.881l1.277-.243v1.947l-1.277-.243Zm-2.768-11.649h-4.563v2.433h4.563Zm0,3.893h-4.563v2.645h4.563Zm7.6-3.893H1192.4v2.433h4.836Zm0,6.539V16.677H1192.4v2.645ZM1179.8,4.45V9.072c-.061,11.862-.76,14.782-4.593,19.435l-1-.578c1.855-4.349,2.25-7.451,2.25-18.857V2.99h11.193V.161h3.5c.426,0,.639.122.639.426,0,.213-.091.335-.487.639V2.99h9.823l1.277-.243V4.693l-1.277-.243Zm-25.4,22.962-1.277.243V25.71l1.277.243h6.813V16.738h-5.475l-1.277.243V15.034l1.277.243h5.475V8.13h3.193c.426,0,.639.152.639.426,0,.213-.091.335-.487.638v6.083h5.323l1.277-.243v1.947l-1.277-.243h-5.323v9.216h6.57l1.246-.243v1.946l-1.246-.243ZM1155.5,6.123a35.6,35.6,0,0,1-3.74,7.238V28.538h-3.133V17.376a22.845,22.845,0,0,1-4.076,3.558l-.76-1.034a34.656,34.656,0,0,0,4.835-6.691V9.742l1.673.3c.487-.973,1.278-2.858,1.673-3.923h-6.509l-1.278.243V4.419l1.278.243h7a40.521,40.521,0,0,0,1.246-4.5l3.224.639c.578.122.791.3.791.608s-.213.487-.791.76c-.426,1.308-.608,1.795-.852,2.494h14.629l1.277-.243V6.366l-1.277-.243Zm-25.834,20.292a2.429,2.429,0,1,1,1.734-.711A2.359,2.359,0,0,1,1129.665,26.415Zm-17.3-11.133h-2.044v8.979h2.847v1.753h-10.111V24.261h2.848V4.113h-2.848V2.361h10.987a8.008,8.008,0,0,1,5.694,1.825,6.016,6.016,0,0,1,1.935,4.563,6.124,6.124,0,0,1-1.242,3.8A6.7,6.7,0,0,1,1117,14.881l6.023,9.38h2.518v1.753h-6.533Zm3.686-9.873a2.877,2.877,0,0,0-2.409-1.3h-3.321V13.53h3.321a2.853,2.853,0,0,0,2.373-1.405A5.726,5.726,0,0,0,1117,8.749,5.514,5.514,0,0,0,1116.05,5.409Zm-33.836,18.853h2.847V4.113h-2.847V2.361h18.542V9H1098.2l-1.862-4.891h-6.862v8.5h3.8V9.771h2.19V17.29h-2.19V14.443h-3.8v9.819h7.191l1.825-4.891h2.555v6.644h-18.835Zm-5.347-9.836a9.153,9.153,0,0,1-3.961.821h-3.723v9.015h2.848v1.753H1061.92V24.261h2.847V4.113h-2.847V2.361h10.987a8.436,8.436,0,0,1,5.566,1.716,5.718,5.718,0,0,1,2.062,4.635,6.123,6.123,0,0,1-.967,3.4A6.394,6.394,0,0,1,1076.867,14.425Zm-1.935-9.016a2.861,2.861,0,0,0-2.427-1.3h-3.322v9.38h3.322a2.854,2.854,0,0,0,2.373-1.405,5.73,5.73,0,0,0,.986-3.376A5.523,5.523,0,0,0,1074.932,5.409Zm-19.583,19.2a9.618,9.618,0,0,1-6.023,1.843,10.456,10.456,0,0,1-6.15-1.679,9.637,9.637,0,0,1-3.469-4.307,14.589,14.589,0,0,1-1.076-5.584,17.264,17.264,0,0,1,1.15-6.315,10.872,10.872,0,0,1,3.559-4.8,9.563,9.563,0,0,1,5.986-1.843,10.51,10.51,0,0,1,6.114,1.678,9.674,9.674,0,0,1,3.523,4.326,14.435,14.435,0,0,1,1.095,5.566,17.27,17.27,0,0,1-1.15,6.315A10.863,10.863,0,0,1,1055.349,24.609Zm-1.46-17.575q-1.642-3.505-4.964-3.5a4.658,4.658,0,0,0-4.343,2.555,13.248,13.248,0,0,0-1.423,6.5,20.35,20.35,0,0,0,1.661,8.8q1.66,3.468,4.982,3.468a4.631,4.631,0,0,0,4.326-2.518,13.18,13.18,0,0,0,1.4-6.461A20.814,20.814,0,0,0,1053.889,7.034Zm-22.739,17.575a9.618,9.618,0,0,1-6.023,1.843,10.458,10.458,0,0,1-6.151-1.679,9.637,9.637,0,0,1-3.468-4.307,14.574,14.574,0,0,1-1.077-5.584,17.267,17.267,0,0,1,1.15-6.315,10.861,10.861,0,0,1,3.559-4.8,9.563,9.563,0,0,1,5.986-1.843,10.51,10.51,0,0,1,6.114,1.678,9.679,9.679,0,0,1,3.522,4.326,14.419,14.419,0,0,1,1.095,5.566,17.267,17.267,0,0,1-1.15,6.315A10.867,10.867,0,0,1,1031.151,24.609Zm-1.46-17.575q-1.643-3.505-4.964-3.5a4.658,4.658,0,0,0-4.343,2.555,13.238,13.238,0,0,0-1.423,6.5,20.364,20.364,0,0,0,1.66,8.8q1.66,3.468,4.982,3.468a4.629,4.629,0,0,0,4.326-2.518,13.17,13.17,0,0,0,1.406-6.461A20.816,20.816,0,0,0,1029.691,7.034Zm-28.434,15.95a5.131,5.131,0,0,0,3.54,1.423,5.47,5.47,0,0,0,3.578-1.259,6.354,6.354,0,0,0,2.044-3.815h1.9a7.961,7.961,0,0,1-8.249,7.118,10.3,10.3,0,0,1-6.15-1.715,9.857,9.857,0,0,1-3.468-4.362,14.823,14.823,0,0,1-1.076-5.64A17.206,17.206,0,0,1,994.5,8.457a10.573,10.573,0,0,1,3.522-4.727,9.737,9.737,0,0,1,6.041-1.806,11.987,11.987,0,0,1,4.125.62,19.511,19.511,0,0,1,3.212,1.533V9h-3.1a7,7,0,0,0-1.533-4.161,4.086,4.086,0,0,0-3.1-1.314,4.658,4.658,0,0,0-4.343,2.555,13.162,13.162,0,0,0-1.423,6.46,20.063,20.063,0,0,0,.895,6.333A9.441,9.441,0,0,0,1001.257,22.984Zm-30.369,1.278h3.541V4.113h-3.541V2.361h11.5V4.113h-3.54V24.261h3.54v1.753h-11.5Zm-4.161,1.753h-2.7l-11.388-18V24.261h2.738v1.753h-7.593V24.261h2.848V4.113h-2.848V2.361h6.534l10.4,16.28V4.113h-2.81V2.361h7.665V4.113h-2.848Zm-32.12-1.753h3.54V4.113h-3.54V2.361h11.5V4.113h-3.541V24.261H946.1v1.753h-11.5Zm-11.68,0h2.738V7.946l-6.972,16.315h-2.263l-7.483-16.28v16.28h2.7v1.753h-7.556V24.261h2.847V4.113h-2.847V2.361h7.044l7.629,16.681,7.118-16.681h7.044V4.113h-2.847V24.261h2.847v1.753h-10Zm-38.435,1.753h-2.483L876.352,9.3l-5.074,16.718h-2.518l-6.716-21.9H859.16V2.361h10.22V4.113H866.5l4.635,15.513,5.11-17.12h2.336L884.345,19.7l4.526-15.585h-2.847V2.361h7.738V4.113h-2.847Zm-45.7-1.753h2.848V4.113h-2.848V2.361h18.543V9H854.78l-1.862-4.891h-6.862v8.5h3.8V9.771h2.19V17.29h-2.19V14.443h-3.8v9.819h7.19l1.825-4.891h2.555v6.644H838.792Zm-4.161,1.753h-2.7l-11.388-18V24.261h2.738v1.753h-7.593V24.261h2.847V4.113h-2.847V2.361h6.534l10.4,16.28V4.113h-2.81V2.361h7.665V4.113h-2.848ZM785.72,24.261h2.848V4.113H785.72V2.361h18.543V9h-2.555l-1.862-4.891h-6.862v8.5h3.8V9.771h2.19V17.29h-2.19V14.443h-3.8v9.819h7.19L802,19.37h2.555v6.644H785.72Zm-11.789,0h2.848V14.443H767.36v9.819h2.848v1.753H760.1V24.261h2.847V4.113H760.1V2.361h10.147V4.113H767.36v8.5h9.418v-8.5H773.93V2.361h10.111V4.113h-2.848V24.261h2.848v1.753H773.93ZM754.33,4.113h-3.248V24.261h3.468v1.753H743.2V24.261h3.468V4.113H743.38L741.555,9h-2.373V2.361h19.382V9h-2.372Zm476.634,21.87c0,1.733-.7,2.463-2.373,2.463h-4.927V26.865h2.737c1,0,1.46-.425,1.46-1.429V22.79h-8.7v5.748h-3.011V13.7h14.812Zm-3.1-10.828h-8.7v2.281h8.7Zm0,3.74h-8.7V21.33h8.7Z" transform="translate(-739.182 1573.196)" fill-rule="evenodd"/>
  </g>
</svg>
