<svg xmlns="http://www.w3.org/2000/svg" width="616.753" height="137.259" viewBox="0 0 616.753 137.259">
  <g id="tit10-sp" transform="translate(0 -561.774)">
    <path id="tit10" d="M329.945,20.012H327.3V31.634h3.685V33.9H317.9V31.634h3.685V5.556H317.9V3.289h14.22q4.864,0,7.369,2.362a7.782,7.782,0,0,1,2.5,5.905,7.929,7.929,0,0,1-1.606,4.913,8.661,8.661,0,0,1-4.441,3.023l7.795,12.142H347V33.9h-8.457Zm4.772-12.779A3.726,3.726,0,0,0,331.6,5.556h-4.3V17.744h4.3a3.7,3.7,0,0,0,3.071-1.818,7.416,7.416,0,0,0,1.275-4.37A7.139,7.139,0,0,0,334.716,7.233Zm-43.3,24.4H295.1V5.556h-3.685V3.289h24v8.6h-3.307L309.7,5.556h-8.881V16.563h4.913V12.878h2.834V22.61h-2.834V18.925h-4.913V31.634h9.306l2.362-6.331H315.8v8.6H291.419ZM275.65,33.9h-3.5L262.045,5.556h-3.637V3.289h13.511V5.556h-3.827l7.37,21.4,7.559-21.4h-4.3V3.289h11.1V5.556h-4.015ZM232.44,31.634h3.684V5.556H232.44V3.289h24v8.6H253.13l-2.409-6.331H241.84V16.563h4.913V12.878h2.834V22.61h-2.834V18.925H241.84V31.634h9.306l2.362-6.331h3.307v8.6H232.44ZM213.165,5.556h-4.2V31.634h4.488V33.9H198.757V31.634h4.488V5.556h-4.252l-2.362,6.331H193.56v-8.6h25.084v8.6h-3.071Zm-26,27.872a13.794,13.794,0,0,1-5.551,1.04,14.768,14.768,0,0,1-5.81-1.063,9.275,9.275,0,0,1-3.591-2.386V25.3h3.968a10.154,10.154,0,0,0,1.89,5.362,4.6,4.6,0,0,0,3.638,1.63,4.73,4.73,0,0,0,3.566-1.393,4.981,4.981,0,0,0,1.347-3.614,5.19,5.19,0,0,0-2.456-4.535l-7.984-5.291a9.934,9.934,0,0,1-2.953-3,7.531,7.531,0,0,1-1.157-4.134,6.762,6.762,0,0,1,2.574-5.5,10.852,10.852,0,0,1,7.063-2.1,15.176,15.176,0,0,1,5.479.945,9.682,9.682,0,0,1,3.779,2.41v5.811h-4.015q-.379-3.921-1.7-5.5a4.334,4.334,0,0,0-3.5-1.582,4.25,4.25,0,0,0-3.283,1.252,4.579,4.579,0,0,0-1.157,3.236,4.465,4.465,0,0,0,2.126,3.921l8.361,5.479a9.814,9.814,0,0,1,3.213,3.378,8.562,8.562,0,0,1,1.133,4.275,7.116,7.116,0,0,1-1.3,4.2A8.547,8.547,0,0,1,187.168,33.428ZM153.3,20.012h-2.645V31.634h3.684V33.9H141.25V31.634h3.685V5.556H141.25V3.289h14.22q4.864,0,7.369,2.362a7.782,7.782,0,0,1,2.5,5.905,7.929,7.929,0,0,1-1.606,4.913,8.661,8.661,0,0,1-4.441,3.023l7.795,12.142h3.26V33.9h-8.457Zm4.772-12.779a3.725,3.725,0,0,0-3.118-1.677h-4.3V17.744h4.3a3.7,3.7,0,0,0,3.071-1.818,7.415,7.415,0,0,0,1.275-4.37A7.139,7.139,0,0,0,158.068,7.233Zm-33.607,24.4h4.582V5.556H124.46V3.289h14.881V5.556h-4.582V31.634h4.582V33.9H124.46Zm-7.6-26.078h-8.881V16.563H112.9V12.878h2.834V22.61H112.9V18.925h-4.914V31.634h3.685V33.9H98.582V31.634h3.685V5.556H98.582V3.289h24v8.6h-3.307ZM59.8,31.634h3.685V5.556H59.8V3.289h24v8.6H80.489L78.08,5.556H69.2V16.563h4.913V12.878h2.834V22.61H74.111V18.925H69.2V31.634H78.5L80.867,25.3h3.307v8.6H59.8Zm-14.965,0h3.684V18.925H36.328V31.634h3.684V33.9H26.927V31.634h3.685V5.556H26.927V3.289H40.06V5.556H36.328V16.563H48.516V5.556H44.832V3.289H57.917V5.556H54.232V31.634h3.685V33.9H44.832ZM19.652,5.556h-4.2V31.634h4.488V33.9H5.244V31.634H9.731V5.556H5.48L3.118,11.887H.047v-8.6H25.131v8.6H22.061Z" transform="translate(-0.047 559.052)" fill-rule="evenodd"/>
    <path id="tit10-2" data-name="tit10" d="M973.106,34.421a3.145,3.145,0,1,1,2.244-.921A3.053,3.053,0,0,1,973.106,34.421ZM964.9,33.9h-3.5l-14.739-23.29V31.634h3.543V33.9h-9.826V31.634h3.685V5.556h-3.685V3.289h8.456L962.3,24.358V5.556h-3.637V3.289h9.921V5.556H964.9Zm-39.158-2.268h3.685l-2.881-8.551h-8.929l-2.976,8.551h3.5V33.9h-9.874V31.634h3.591L921.963,3.289h3.354l10.109,28.345h3.4V33.9H925.742Zm-3.5-21.258h-.236L918.42,20.721h7.322ZM893.722,31.634h3.543V10.516l-9.023,21.117h-2.93l-9.684-21.07v21.07h3.5V33.9h-9.779V31.634h3.684V5.556h-3.684V3.289h9.117l9.874,21.589,9.212-21.589h9.118V5.556h-3.685V31.634h3.685V33.9H893.722Zm-50.855,0h3.685V5.556h-3.685V3.289h24v8.6h-3.307L861.15,5.556h-8.881V16.563h4.913V12.878h2.835V22.61h-2.835V18.925h-4.913V31.634h9.306l2.362-6.331h3.307v8.6H842.868ZM827.155,29.98a6.645,6.645,0,0,0,4.582,1.842,7.075,7.075,0,0,0,4.63-1.63,8.217,8.217,0,0,0,2.646-4.937h2.456a10.3,10.3,0,0,1-10.677,9.212,13.32,13.32,0,0,1-7.96-2.221,12.739,12.739,0,0,1-4.488-5.645,19.154,19.154,0,0,1-1.394-7.3,22.282,22.282,0,0,1,1.465-8.125,13.693,13.693,0,0,1,4.558-6.118,12.6,12.6,0,0,1,7.819-2.339,15.493,15.493,0,0,1,5.338.8,25.2,25.2,0,0,1,4.157,1.984v6.378h-4.015A9.066,9.066,0,0,0,834.289,6.5a5.3,5.3,0,0,0-4.016-1.7,6.029,6.029,0,0,0-5.622,3.307,17.033,17.033,0,0,0-1.842,8.361,25.989,25.989,0,0,0,1.157,8.2A12.217,12.217,0,0,0,827.155,29.98ZM817.627,33.9H804.541V31.634h3.685l-2.882-8.551h-8.928l-2.976,8.551h3.5V33.9h-9.873V31.634h3.59l10.11-28.345h3.354l10.109,28.345h3.4ZM801.045,10.375h-.236l-3.59,10.345h7.322ZM758.812,31.634h4.582V5.556h-4.582V3.289h14.881V5.556H769.11V31.634h4.582V33.9H758.812ZM753.464,33.9h-3.5l-14.739-23.29V31.634h3.543V33.9h-9.826V31.634h3.685V5.556h-3.685V3.289H737.4l13.464,21.069V5.556h-3.637V3.289h9.921V5.556h-3.685Zm-41.308-2.268h4.583V5.556h-4.583V3.289h14.881V5.556h-4.582V31.634h4.582V33.9H712.156Zm-14.824,0h3.543V10.516l-9.023,21.117h-2.929l-9.684-21.07v21.07h3.5V33.9h-9.779V31.634h3.685V5.556h-3.685V3.289h9.118l9.873,21.589,9.212-21.589h9.118V5.556h-3.685V31.634h3.685V33.9H697.332Zm-53-1.653a6.645,6.645,0,0,0,4.582,1.842,7.074,7.074,0,0,0,4.63-1.63,8.213,8.213,0,0,0,2.646-4.937h2.456a10.3,10.3,0,0,1-10.677,9.212,13.321,13.321,0,0,1-7.96-2.221,12.739,12.739,0,0,1-4.488-5.645,19.17,19.17,0,0,1-1.393-7.3,22.3,22.3,0,0,1,1.464-8.125,13.69,13.69,0,0,1,4.559-6.118,12.6,12.6,0,0,1,7.818-2.339,15.487,15.487,0,0,1,5.338.8,25.2,25.2,0,0,1,4.157,1.984v6.378h-4.016A9.066,9.066,0,0,0,651.462,6.5a5.3,5.3,0,0,0-4.016-1.7,6.029,6.029,0,0,0-5.622,3.307,17.033,17.033,0,0,0-1.842,8.361,25.991,25.991,0,0,0,1.157,8.2A12.232,12.232,0,0,0,644.328,29.98Zm-25.751,1.653h4.583V5.556h-4.583V3.289h14.881V5.556h-4.582V31.634h4.582V33.9H618.577Zm-18.57-11.622h-2.646V31.634h3.685V33.9H587.96V31.634h3.685V5.556H587.96V3.289h14.22q4.864,0,7.369,2.362a7.782,7.782,0,0,1,2.5,5.905,7.928,7.928,0,0,1-1.606,4.913,8.661,8.661,0,0,1-4.441,3.023L613.8,31.634h3.26V33.9H608.6Zm4.771-12.779a3.724,3.724,0,0,0-3.117-1.677h-4.3V17.744h4.3a3.7,3.7,0,0,0,3.071-1.818,7.416,7.416,0,0,0,1.275-4.37A7.133,7.133,0,0,0,604.778,7.233ZM580.686,5.556h-4.2V31.634h4.488V33.9H566.276V31.634h4.489V5.556h-4.253l-2.362,6.331H561.08v-8.6h25.085v8.6h-3.071ZM545.434,29.98a6.646,6.646,0,0,0,4.583,1.842,7.071,7.071,0,0,0,4.629-1.63,8.212,8.212,0,0,0,2.646-4.937h2.456a10.3,10.3,0,0,1-10.676,9.212,13.323,13.323,0,0,1-7.96-2.221,12.74,12.74,0,0,1-4.488-5.645,19.17,19.17,0,0,1-1.393-7.3,22.3,22.3,0,0,1,1.464-8.125,13.689,13.689,0,0,1,4.559-6.118,12.6,12.6,0,0,1,7.819-2.339,15.485,15.485,0,0,1,5.338.8,25.2,25.2,0,0,1,4.157,1.984v6.378h-4.016A9.066,9.066,0,0,0,552.567,6.5a5.3,5.3,0,0,0-4.016-1.7,6.027,6.027,0,0,0-5.621,3.307,17.024,17.024,0,0,0-1.843,8.361,25.991,25.991,0,0,0,1.157,8.2A12.233,12.233,0,0,0,545.434,29.98ZM508.77,31.634h3.685V5.556H508.77V3.289h24v8.6h-3.307l-2.41-6.331h-8.881V16.563h4.914V12.878h2.834V22.61h-2.834V18.925h-4.914V31.634h9.307L529.84,25.3h3.307v8.6H508.77Zm-26.219,0h3.685V5.556h-3.685V3.289h13.086V5.556h-3.685V31.634h9.307l2.362-6.331h3.307v8.6H482.552Zm-26.479,0h3.685V5.556h-3.685V3.289h24v8.6h-3.307l-2.41-6.331h-8.881V16.563h4.913V12.878h2.834V22.61h-2.834V18.925h-4.913V31.634h9.306l2.362-6.331h3.307v8.6H456.073Zm-38.218,0h3.685V5.556h-3.685V3.289h13.086V5.556h-3.685V31.634h9.306l2.362-6.331h3.307v8.6H417.855Zm-26.219,0h3.685V5.556h-3.685V3.289h13.086V5.556h-3.685V31.634h9.306l2.362-6.331h3.307v8.6H391.637Zm-14.64,0h3.684L377.8,23.083h-8.929L365.9,31.634h3.5V33.9h-9.873V31.634h3.59l10.11-28.345h3.354l10.11,28.345h3.4V33.9H377Zm-3.5-21.258h-.236l-3.59,10.345H377Z" transform="translate(-359.518 609.295)" fill-rule="evenodd"/>
    <path id="tit10-3" data-name="tit10" d="M1062.079,37.444a6.339,6.339,0,1,1,6.378-6.339A6.343,6.343,0,0,1,1062.079,37.444Zm-.039-10.551a4.213,4.213,0,1,0,4.291,4.173A4.235,4.235,0,0,0,1062.04,26.893Zm-23.45-7.953a21.53,21.53,0,0,1-1.811,2.953h16.141a88.109,88.109,0,0,1-1.771,12.757c-.472,1.85-1.378,2.48-3.5,2.52h-5.63V35.122h3.347c1.339-.039,1.732-.394,2.047-1.969.63-2.953,1.142-6.063,1.535-9.528h-1.89l-.039.118c-2.047,7.717-7.166,11.694-17.087,13.229l-.394-1.535c7.914-2.205,11.732-5.473,13.74-11.812h-2.323c-2.48,5.04-5.59,7.52-11.85,9.41l-.512-1.417c4.212-2.047,6.535-4.173,8.583-7.874l.079-.118h-1.929a21.068,21.068,0,0,1-8.032,5.434l-.709-1.26a22.348,22.348,0,0,0,7.953-8.74l.039-.118h-4.527l-1.614.315v-2.52l1.614.315h22.323l1.653-.315v2.52l-1.653-.315ZM1032.211,1.5h18.229V14.57h-18.229Zm3.741,11.181h10.512V8.861h-10.512Zm0-5.708h10.512V3.388h-10.512Zm-10.04,5.118v11.3c.709-.276,1.732-.709,4.134-1.772l.669,1.3a45.414,45.414,0,0,1-11.024,7.126c-.276.709-.433.905-.827.905a.664.664,0,0,1-.63-.512l-1.22-4.212c2.323-.63,2.638-.709,4.882-1.417V12.089H1018.9l-1.614.315V9.885l1.614.315h2.992V.672h3.779c.591,0,.867.2.867.551,0,.276-.157.472-.63.827V10.2h2.716l1.653-.315V12.4l-1.653-.315Zm-12.686,5.63a36.347,36.347,0,0,1-7.835-3.9v1.969l-1.653-.315H989.367l-1.614.315V13.9a39.538,39.538,0,0,1-8.937,4.489l-.748-1.5a42.4,42.4,0,0,0,8.189-5.63l-.079-.118a32.193,32.193,0,0,0-4.212-4.173l.945-1.26a25.738,25.738,0,0,1,6.141,2.834,38.955,38.955,0,0,0,3.977-4.8H982.6l-1.653.315V1.538l1.653.315H999.25c-.354.551-.709,1.1-1.1,1.693a17.41,17.41,0,0,0,2.875,3.111,35.767,35.767,0,0,0,3.386-5l3.228,2.126a.67.67,0,0,1,.276.512c0,.394-.276.551-1.142.63a30.407,30.407,0,0,1-4.291,2.8l-.118.079a31.31,31.31,0,0,0,3.5,2.283,39.579,39.579,0,0,0,3.977-5l3.11,2.087a.685.685,0,0,1,.354.551c0,.394-.512.709-1.024.669h-.158a33.626,33.626,0,0,1-4.489,2.559,34.772,34.772,0,0,0,7.4,2.559C1014.132,15.436,1014.014,15.751,1013.226,17.72Zm-16.1-12.8a40.3,40.3,0,0,1-8.7,8.465l.945.2h14.371l1.024-.2A25.93,25.93,0,0,1,997.123,4.924Zm-7.8,29.411a29.959,29.959,0,0,0-2.008-6.142H983.5V18.94h26.1v9.252h-3.7a27.156,27.156,0,0,1-4.016,6.142h11.142l1.653-.315v2.52l-1.653-.315H980.076l-1.654.315V34.02l1.654.315Zm16.1-8.032V20.83H987.674V26.3ZM999.6,34.334a58.335,58.335,0,0,0,1.535-5.867l.079-.276H989.052A11.879,11.879,0,0,1,993.7,32.68l-3.464,1.654Z" transform="translate(-978.068 661.588)" fill-rule="evenodd"/>
  </g>
</svg>
