<svg xmlns="http://www.w3.org/2000/svg" width="1302.693" height="44.836" viewBox="0 0 1302.693 44.836">
  <path id="tit10" d="M1294.963,45.508a7.729,7.729,0,1,1,7.777-7.729A7.734,7.734,0,0,1,1294.963,45.508Zm-.048-12.865a5.137,5.137,0,1,0,5.232,5.088A5.163,5.163,0,0,0,1294.915,32.643Zm-28.592-9.7a26.252,26.252,0,0,1-2.208,3.6H1283.8a107.412,107.412,0,0,1-2.16,15.554c-.576,2.256-1.68,3.024-4.272,3.072H1270.5v-2.5h4.081c1.632-.048,2.112-.48,2.5-2.4.768-3.6,1.392-7.392,1.872-11.617h-2.3l-.048.144c-2.5,9.409-8.737,14.258-20.834,16.13l-.48-1.872c9.649-2.689,14.305-6.673,16.753-14.4H1269.2c-3.024,6.145-6.816,9.169-14.449,11.473l-.624-1.728c5.136-2.5,7.968-5.088,10.465-9.6l.1-.144h-2.352a25.688,25.688,0,0,1-9.793,6.625l-.864-1.536a27.248,27.248,0,0,0,9.7-10.657l.047-.144h-5.52l-1.968.384V20.258l1.968.384h27.218l2.016-.384V23.33l-2.016-.384ZM1258.546,1.68h22.226V17.617h-22.226Zm4.561,13.633h12.817V10.657h-12.817Zm0-6.96h12.817V3.984h-12.817Zm-12.241,6.24V28.37c.864-.336,2.112-.864,5.04-2.16l.816,1.584a55.372,55.372,0,0,1-13.441,8.689c-.336.864-.528,1.1-1.008,1.1a.81.81,0,0,1-.768-.624l-1.488-5.136c2.832-.768,3.216-.864,5.952-1.728V14.593h-3.648l-1.968.384V11.9l1.968.384h3.648V.672h4.608c.721,0,1.057.24,1.057.672,0,.336-.192.576-.768,1.008v9.937h3.312l2.016-.384v3.072l-2.016-.384ZM1235.4,21.458a44.317,44.317,0,0,1-9.553-4.753v2.4l-2.016-.384h-17.522l-1.968.384V16.8a48.206,48.206,0,0,1-10.9,5.473l-.912-1.824a51.691,51.691,0,0,0,9.985-6.865l-.1-.144a39.246,39.246,0,0,0-5.136-5.088l1.152-1.536a31.382,31.382,0,0,1,7.488,3.456,47.5,47.5,0,0,0,4.849-5.857h-12.721l-2.016.384V1.728l2.016.384h20.306c-.432.672-.864,1.344-1.345,2.064a21.227,21.227,0,0,0,3.505,3.793,43.6,43.6,0,0,0,4.128-6.1l3.936,2.592a.817.817,0,0,1,.336.624c0,.48-.336.672-1.392.768a37.076,37.076,0,0,1-5.232,3.409l-.144.1a38.171,38.171,0,0,0,4.272,2.784,48.254,48.254,0,0,0,4.849-6.1l3.792,2.545a.835.835,0,0,1,.432.672c0,.48-.624.864-1.248.816h-.192a41,41,0,0,1-5.473,3.12,42.4,42.4,0,0,0,9.025,3.12C1236.5,18.674,1236.358,19.058,1235.4,21.458Zm-19.634-15.6a49.139,49.139,0,0,1-10.609,10.321l1.152.24h17.522l1.248-.24A31.616,31.616,0,0,1,1215.764,5.856ZM1186.48,41.821a3.835,3.835,0,1,1,2.736-1.123A3.723,3.723,0,0,1,1186.48,41.821Zm-10.005-.633h-4.262l-17.971-28.4V38.423h4.32v2.765h-11.981V38.423h4.493V6.627h-4.493V3.863h10.31l16.416,25.689V6.627h-4.435V3.863h12.1V6.627h-4.493Zm-47.745-2.765h4.493L1129.71,28h-10.887l-3.629,10.426h4.263v2.765h-12.039V38.423h4.378l12.326-34.56h4.09l12.326,34.56h4.148v2.765H1128.73Zm-4.262-25.92h-.288L1119.8,25.117h8.928Zm-34.779,25.92h4.32V12.675l-11,25.748h-3.572l-11.808-25.69v25.69h4.263v2.765h-11.923V38.423h4.492V6.627h-4.492V3.863h11.116l12.039,26.323,11.232-26.323h11.117V6.627h-4.493v31.8h4.493v2.765h-15.783Zm-62.006,0h4.493V6.627h-4.493V3.863h29.26V14.346h-4.032l-2.937-7.719h-10.829V20.048h5.99V15.555h3.457V27.421h-3.457V22.928h-5.99v15.5h11.347l2.88-7.719h4.032V41.188h-29.721Zm-19.158-2.016a8.1,8.1,0,0,0,5.587,2.246,8.627,8.627,0,0,0,5.645-1.987,10.019,10.019,0,0,0,3.226-6.019h3a12.564,12.564,0,0,1-13.018,11.232,16.241,16.241,0,0,1-9.705-2.708,15.532,15.532,0,0,1-5.472-6.883,23.355,23.355,0,0,1-1.7-8.9,27.169,27.169,0,0,1,1.786-9.907,16.7,16.7,0,0,1,5.558-7.459,15.365,15.365,0,0,1,9.533-2.852,18.891,18.891,0,0,1,6.509.98,30.724,30.724,0,0,1,5.069,2.419v7.776h-4.9q-.462-4.492-2.419-6.567a6.457,6.457,0,0,0-4.9-2.073,7.351,7.351,0,0,0-6.855,4.032,20.769,20.769,0,0,0-2.246,10.2,31.687,31.687,0,0,0,1.411,9.994A14.9,14.9,0,0,0,1008.525,36.407Zm-11.618,4.781H980.952V38.423h4.493L981.931,28H971.045l-3.629,10.426h4.262v2.765H959.64V38.423h4.377l12.327-34.56h4.09l12.326,34.56h4.147ZM976.689,12.5H976.4l-4.377,12.614h8.928ZM925.2,38.423h5.587V6.627H925.2V3.863h18.144V6.627h-5.587v31.8h5.587v2.765H925.2Zm-6.52,2.765h-4.263l-17.971-28.4V38.423h4.32v2.765H888.78V38.423h4.493V6.627H888.78V3.863h10.311l16.416,25.689V6.627h-4.435V3.863h12.1V6.627h-4.493Zm-50.366-2.765H873.9V6.627h-5.588V3.863h18.144V6.627h-5.587v31.8h5.587v2.765H868.309Zm-18.075,0h4.32V12.675l-11,25.748h-3.571l-11.808-25.69v25.69h4.262v2.765H820.513V38.423h4.493V6.627h-4.493V3.863H831.63l12.038,26.323L854.9,3.863h11.117V6.627h-4.493v31.8h4.493v2.765H850.234Zm-64.627-2.016a8.1,8.1,0,0,0,5.587,2.246,8.625,8.625,0,0,0,5.645-1.987,10.013,10.013,0,0,0,3.226-6.019h2.995a12.562,12.562,0,0,1-13.018,11.232,16.242,16.242,0,0,1-9.705-2.708,15.532,15.532,0,0,1-5.472-6.883,23.374,23.374,0,0,1-1.7-8.9,27.19,27.19,0,0,1,1.785-9.907,16.691,16.691,0,0,1,5.559-7.459,15.36,15.36,0,0,1,9.532-2.852,18.883,18.883,0,0,1,6.509.98A30.724,30.724,0,0,1,801.62,6.57v7.776h-4.9q-.462-4.492-2.419-6.567a6.457,6.457,0,0,0-4.9-2.073,7.351,7.351,0,0,0-6.855,4.032,20.769,20.769,0,0,0-2.246,10.2,31.689,31.689,0,0,0,1.411,9.994A14.914,14.914,0,0,0,785.607,36.407Zm-31.4,2.016H759.8V6.627h-5.588V3.863h18.144V6.627h-5.587v31.8h5.587v2.765H754.209Zm-22.642-14.17h-3.226v14.17h4.493v2.765H716.879V38.423h4.493V6.627h-4.493V3.863h17.338q5.931,0,8.985,2.88a9.489,9.489,0,0,1,3.053,7.2,9.667,9.667,0,0,1-1.958,5.99,10.56,10.56,0,0,1-5.415,3.686l9.5,14.8h3.975v2.765H742.05Zm5.817-15.581a4.541,4.541,0,0,0-3.8-2.045h-5.242V21.488h5.242a4.507,4.507,0,0,0,3.744-2.217,9.042,9.042,0,0,0,1.555-5.328A8.7,8.7,0,0,0,737.384,8.672ZM708.009,6.627h-5.127v31.8h5.472v2.765H690.44V38.423h5.473V6.627h-5.185l-2.88,7.719H684.1V3.863H714.69V14.346h-3.744Zm-42.982,29.78a8.1,8.1,0,0,0,5.588,2.246,8.622,8.622,0,0,0,5.644-1.987,10.013,10.013,0,0,0,3.226-6.019h2.995a12.562,12.562,0,0,1-13.017,11.232,16.245,16.245,0,0,1-9.706-2.708,15.533,15.533,0,0,1-5.472-6.883,23.374,23.374,0,0,1-1.7-8.9,27.192,27.192,0,0,1,1.785-9.907,16.691,16.691,0,0,1,5.559-7.459,15.361,15.361,0,0,1,9.533-2.852,18.881,18.881,0,0,1,6.508.98A30.724,30.724,0,0,1,681.04,6.57v7.776h-4.9q-.462-4.492-2.419-6.567a6.457,6.457,0,0,0-4.9-2.073,7.349,7.349,0,0,0-6.854,4.032,20.757,20.757,0,0,0-2.247,10.2,31.689,31.689,0,0,0,1.411,9.994A14.915,14.915,0,0,0,665.027,36.407Zm-44.7,2.016h4.493V6.627h-4.493V3.863h29.261V14.346h-4.032l-2.938-7.719H631.786V20.048h5.991V15.555h3.456V27.421h-3.456V22.928h-5.991v15.5h11.348l2.88-7.719h4.032V41.188H620.324Zm-31.968,0h4.493V6.627h-4.493V3.863h15.955V6.627h-4.493v31.8h11.348l2.88-7.719h4.032V41.188H588.356Zm-32.285,0h4.493V6.627h-4.493V3.863h29.261V14.346H581.3l-2.938-7.719H567.534V20.048h5.99V15.555h3.456V27.421h-3.456V22.928h-5.99v15.5h11.347l2.88-7.719h4.032V41.188H556.071Zm-46.6,0h4.493V6.627h-4.493V3.863h15.955V6.627h-4.493v31.8h11.347l2.88-7.719h4.032V41.188H509.473Zm-31.968,0H482V6.627h-4.493V3.863H493.46V6.627h-4.493v31.8h11.347l2.88-7.719h4.032V41.188H477.505Zm-17.85,0h4.492L460.634,28H449.747l-3.628,10.426h4.262v2.765H438.343V38.423h4.377l12.327-34.56h4.089l12.327,34.56h4.147v2.765H459.655ZM455.392,12.5H455.1l-4.377,12.614h8.928Zm-53.107,11.75h-3.226v14.17h4.493v2.765H387.6V38.423h4.493V6.627H387.6V3.863h17.338q5.931,0,8.985,2.88a9.489,9.489,0,0,1,3.053,7.2,9.667,9.667,0,0,1-1.958,5.99,10.56,10.56,0,0,1-5.415,3.686l9.5,14.8h3.975v2.765H412.768ZM408.1,8.672a4.544,4.544,0,0,0-3.8-2.045h-5.242V21.488H404.3a4.507,4.507,0,0,0,3.744-2.217,9.042,9.042,0,0,0,1.555-5.328A8.7,8.7,0,0,0,408.1,8.672ZM355.312,38.423H359.8V6.627h-4.493V3.863h29.261V14.346h-4.032L377.6,6.627H366.775V20.048h5.99V15.555h3.456V27.421h-3.456V22.928h-5.99v15.5h11.347L381,30.7h4.032V41.188H355.312Zm-19.227,2.765h-4.262L319.5,6.627h-4.435V3.863h16.474V6.627h-4.666l8.986,26.093,9.216-26.093h-5.242V3.863h13.536V6.627h-4.9ZM283.4,38.423h4.492V6.627H283.4V3.863h29.26V14.346h-4.032L305.69,6.627H294.861V20.048h5.99V15.555h3.456V27.421h-3.456V22.928h-5.99v15.5h11.347l2.88-7.719h4.032V41.188H283.4Zm-23.5-31.8h-5.127v31.8h5.472v2.765H242.33V38.423H247.8V6.627h-5.184l-2.88,7.719h-3.744V3.863h30.585V14.346h-3.744ZM228.2,40.611a16.819,16.819,0,0,1-6.768,1.268,18.006,18.006,0,0,1-7.084-1.3,11.309,11.309,0,0,1-4.378-2.909V30.7h4.838q.576,4.551,2.3,6.538a5.61,5.61,0,0,0,4.436,1.987,5.768,5.768,0,0,0,4.348-1.7,6.073,6.073,0,0,0,1.642-4.407,6.328,6.328,0,0,0-2.995-5.529l-9.735-6.451a12.112,12.112,0,0,1-3.6-3.658,9.182,9.182,0,0,1-1.411-5.04,8.245,8.245,0,0,1,3.139-6.71q3.14-2.564,8.612-2.564a18.5,18.5,0,0,1,6.681,1.152,11.8,11.8,0,0,1,4.608,2.938v7.085h-4.9q-.462-4.78-2.073-6.711A5.284,5.284,0,0,0,221.6,5.706a5.182,5.182,0,0,0-4,1.526,5.583,5.583,0,0,0-1.411,3.946,5.444,5.444,0,0,0,2.592,4.781l10.195,6.681a11.965,11.965,0,0,1,3.917,4.119,10.44,10.44,0,0,1,1.382,5.212,8.677,8.677,0,0,1-1.584,5.127A10.422,10.422,0,0,1,228.2,40.611ZM186.9,24.253h-3.225v14.17h4.492v2.765H172.213V38.423h4.493V6.627h-4.493V3.863h17.338q5.931,0,8.985,2.88a9.489,9.489,0,0,1,3.053,7.2,9.667,9.667,0,0,1-1.958,5.99,10.56,10.56,0,0,1-5.415,3.686l9.5,14.8H207.7v2.765H197.384Zm5.818-15.581a4.542,4.542,0,0,0-3.8-2.045h-5.241V21.488h5.241a4.507,4.507,0,0,0,3.744-2.217,9.041,9.041,0,0,0,1.555-5.328A8.7,8.7,0,0,0,192.719,8.672ZM151.742,38.423h5.587V6.627h-5.587V3.863h18.144V6.627H164.3v31.8h5.587v2.765H151.742Zm-9.262-31.8H131.651V20.048h5.991V15.555H141.1V27.421h-3.456V22.928h-5.991v15.5h4.493v2.765H120.189V38.423h4.493V6.627h-4.493V3.863H149.45V14.346h-4.032ZM72.9,38.423h4.493V6.627H72.9V3.863H102.16V14.346H98.128L95.191,6.627H84.362V20.048h5.99V15.555h3.456V27.421H90.352V22.928h-5.99v15.5H95.709l2.88-7.719h4.032V41.188H72.9Zm-18.247,0h4.492v-15.5H44.284v15.5h4.492v2.765H32.821V38.423h4.493V6.627H32.821V3.863H48.834V6.627h-4.55V20.048h14.86V6.627H54.652V3.863H70.607V6.627H66.114v31.8h4.493v2.765H54.652Zm-30.7-31.8H18.824v31.8H24.3v2.765H6.383V38.423h5.472V6.627H6.671l-2.88,7.719H.047V3.863H30.632V14.346H26.888ZM1206.259,41.716a36.534,36.534,0,0,0-2.448-7.489h-4.656V22.946h31.827V34.227h-4.513a33.113,33.113,0,0,1-4.9,7.489h13.585l2.016-.384V44.4l-2.016-.384h-40.179l-2.017.384V41.332l2.017.384Zm19.634-9.793V25.25h-21.65v6.673Zm-7.1,9.793a71.137,71.137,0,0,0,1.872-7.153l.1-.336h-14.834a14.484,14.484,0,0,1,5.665,5.472l-4.224,2.017Z" transform="translate(-0.047 -0.672)" fill-rule="evenodd"/>
</svg>
