<svg xmlns="http://www.w3.org/2000/svg" width="411.021" height="35.165" viewBox="0 0 411.021 35.165">
  <path id="tit06" d="M410.3,27.082l1.571-.3v2.394l-1.571-.3H396.008v6.472h-3.966V28.877H378.276l-1.571.3V26.782l1.571.3h13.767v-3.4H380.707V9.088h11.335V5.871H379.547l-1.571.3V3.775l1.571.3h12.495V.184h3.779c.524,0,.786.15.786.524,0,.262-.112.411-.6.786V4.074h13.019l1.571-.3V6.17l-1.571-.3H396.008V9.088h11.859v14.59H396.008v3.4Zm-18.256-16.2h-7.369v4.452h7.369Zm0,6.247h-7.369v4.752h7.369ZM403.9,10.883h-7.893v4.452H403.9Zm0,11V17.13h-7.893v4.752ZM358.862,9.873v8.193h10.961V34.751h-4.3V32.918H348.388v1.945h-4.3v-16.8H354.41V9.873H340.868l-1.571.3V7.629l1.571.3H354.41V.334h4.265c.524,0,.786.187.786.524,0,.262-.112.449-.6.786V7.928h14.029l1.571-.3v2.544l-1.571-.3ZM348.388,20.012V30.973h17.133V20.012Zm-17.394,3.442h-9.5V35.088h-4.3V23.453h-9.24V26h-4.3V7.479H317.19V.408h4.116c.524,0,.786.15.786.524,0,.262-.112.449-.6.786V7.479h13.8V25.66h-4.3ZM317.19,9.275h-9.24V21.658h9.24Zm13.8,0h-9.5V21.658h9.5ZM292.613,30.3c1.683,0,2.357,0,7.033-.037a19.827,19.827,0,0,0-1.534,4.04c-8.492,0-12.2-.15-14.59-.486-5.35-.823-7.969-2.806-10.4-7.969-2.057,4.789-4.452,7.744-7.669,9.465l-.973-1.16c3.7-4.19,5.8-9.989,6.36-17.583l4.227.749c.673.112.935.337.935.711s-.3.673-.973,1.047a30.366,30.366,0,0,1-1.309,5.125,11,11,0,0,0,6.621,5.237V13.652H269.419l-1.571.3V11.968a3.058,3.058,0,0,0-.3.337l-3.067-3.4a9.946,9.946,0,0,0,3.554-5.986h1.8a6.847,6.847,0,0,1,.187,1.609h9.614V.184h4.3c.561,0,.823.15.823.524,0,.262-.112.449-.636.786v3.03h15.525a14.868,14.868,0,0,1-6.1,7l-1.2-.748A32.514,32.514,0,0,0,294.26,6.32H270.018c-.224,2.506-.712,3.965-1.871,5.274l1.272.262h25.552l1.534-.3v2.394l-1.534-.3H284.459v6.884h9.015l1.572-.3V22.63l-1.572-.3h-9.015v7.744C285.917,30.225,288.76,30.3,292.613,30.3ZM255.991,23.49l1.31-.786a21.833,21.833,0,0,1,4.938,7.258L258.8,32.432A50.263,50.263,0,0,0,255.991,23.49Zm-.075-4.676h-4.152V16.869h2.469c1.085,0,1.421-.374,1.646-1.683.3-1.571.636-5.686.936-11.073h-5.8V4.3a38.857,38.857,0,0,1-.786,5.088,34.252,34.252,0,0,1,4.639,2.244l-2.244,3.479c-1.609-1.272-2.319-1.758-3.441-2.544-1.5,3.254-4.152,5.5-8.268,7.071l-.673-1.2A13.458,13.458,0,0,0,246.3,10.7c-1.646-.973-2.582-1.459-4.49-2.394l.711-1.347c1.908.486,2.806.711,4.377,1.2a33.991,33.991,0,0,0,.524-4.041h-4.789l-1.571.3V2.017l1.571.3h17.995a118.971,118.971,0,0,1-1.085,13.729C259.172,18.066,258.274,18.74,255.916,18.815Zm-27.272-9.8-1.571.3V6.769l1.571.3h9.989l1.571-.3V9.312l-1.571-.3Zm1.534-5.238-1.571.3V1.531l1.571.3h7.108l1.571-.3V4.074l-1.571-.3ZM211.962,5.049h-4V29.828h4.264v2.155H198.27V29.828h4.264V5.049h-4.04l-2.244,6.015h-2.918V2.895h23.836v8.17h-2.918ZM176.679,20.356l-5.97,9.472h3.322v2.155H164.11V29.828h3.456l7.721-11.941L167.97,5.049h-3.5V2.895h8.484l5.791,10.235,5.3-8.08h-3.591V2.895h9.965V5.049H187L180.18,15.6l8.08,14.23h3.5v2.155h-8.439Zm-37.842,9.472h3.5V5.049h-3.5V2.895h22.8v8.17H158.5l-2.289-6.015H147.77V15.508h4.668v-3.5h2.693v9.247h-2.693v-3.5H147.77V29.828h8.843l2.244-6.015H162v8.17H138.837Zm-5.117,2.155H130.4L116.392,9.852V29.828h3.367v2.155h-9.337V29.828h3.5V5.049h-3.5V2.895h8.035l12.793,20.021V5.049h-3.456V2.895h9.427V5.049h-3.5ZM83,29.828H87.35V5.049H83V2.895h14.14V5.049H92.781V29.828h4.354v2.155H83Zm-5.117,2.155H74.556L60.551,9.852V29.828h3.367v2.155H54.581V29.828h3.5V5.049h-3.5V2.895h8.035L75.409,22.915V5.049H71.953V2.895H81.38V5.049h-3.5Zm-39.5-2.155h4.354V5.049H38.376V2.895h14.14V5.049H48.162V29.828h4.354v2.155H38.376Zm-14.365,0h3.367V9.763L18.8,29.828H16.022L6.819,9.808V29.828h3.322v2.155H.849V29.828h3.5V5.049H.849V2.895H9.513l9.382,20.514L27.648,2.895h8.664V5.049h-3.5V29.828h3.5v2.155h-12.3ZM237.287,12.3l1.571-.3v2.544l-1.571-.3h-7.108l-1.571.3V12.006l1.571.3Zm0,5.238,1.571-.3v2.544l-1.571-.3h-7.108l-1.571.3V17.243l1.571.3Zm1.571,16.572h-3.18V32.694h-3.891v1.87h-3.18V22.78h10.25Zm-3.18-9.54h-3.891V30.9h3.891Zm8.08-1.459c.075.935.075,1.384.075,2.02a23.3,23.3,0,0,1-1.309,8.492l-3.254-2.244a21.892,21.892,0,0,0,2.656-8.492Zm5.5-3.142.9-1.047a16.512,16.512,0,0,1,5.349,3.442l-3.03,2.768A35.419,35.419,0,0,0,249.258,19.974Zm.524,2.244c0,.224-.112.337-.524.673V30c.037.786.3,1.085,1.085,1.085h2.993c.786-.037,1.01-.224,1.085-1.047l.187-2.732,1.758.187-.224,3.929c-.112,2.095-.973,2.918-3.03,2.918h-4.377c-2.02,0-2.918-.86-2.88-2.843V21.732h3.18C249.52,21.732,249.782,21.882,249.782,22.219Z" transform="translate(-0.849 -0.184)" fill="#262626" fill-rule="evenodd"/>
</svg>
