<svg xmlns="http://www.w3.org/2000/svg" width="589.862" height="193.851" viewBox="0 0 589.862 193.851">
  <g id="text" transform="translate(-10.911 -246.681)">
    <g id="グループ_722" data-name="グループ 722" transform="translate(0 -0.32)">
      <g id="price" transform="translate(-22 -1847.244)">
        <path id="パス_30927" data-name="パス 30927" d="M1.284-9.348V.8H2.34v-4.86H9.672V-.444c0,.468-.2.672-.672.672H7.452v.5H9.564c.816,0,1.164-.348,1.164-1.152V-9.348Zm1.056.48H5.424v4.332H2.34Zm4.128,0h3.2v4.332h-3.2Zm8.976-.288a10.473,10.473,0,0,0-1.716,5.664,10.473,10.473,0,0,0,1.716,5.664h.66A13.63,13.63,0,0,1,15.252.216a11.765,11.765,0,0,1-.588-3.708A11.765,11.765,0,0,1,15.252-7.2,13.63,13.63,0,0,1,16.1-9.156ZM19.86.888h.888V-4.68a13.766,13.766,0,0,1,.9,2.076l.8-.708a7.494,7.494,0,0,0-1.7-1.752v-1.32h1l.468.1V-6.96l-.468.1h-1V-8.988c.312-.072.36-.084.816-.216a1.541,1.541,0,0,0,.3.048c.156,0,.264-.072.264-.18,0-.072-.024-.108-.12-.192l-.624-.552a14.34,14.34,0,0,1-3.312,1.092l.036.324A14.363,14.363,0,0,0,19.86-8.82v1.956H18.552l-.48-.1v.672l.48-.1H19.74A20.678,20.678,0,0,1,18-1.44l.24.2A10.165,10.165,0,0,0,19.86-4.08ZM22.668-7.44V-3.6h1.248v.036c-.1,2.3-.8,3.528-2.46,4.2l.156.324c2.2-.5,3.216-1.92,3.264-4.56h.936V-.108c.036.444.384.7.96.7h1.236c.6,0,.852-.228.9-.84l.132-1.464-.5-.06-.084,1.1c-.036.288-.132.372-.4.384h-.948c-.276-.012-.336-.072-.348-.324V-3.6h1.572V-7.44H26.5a8.222,8.222,0,0,0,1.272-1.908c.24-.024.372-.108.372-.228a.24.24,0,0,0-.192-.216l-1.1-.288a20.355,20.355,0,0,1-.792,2.64Zm.948,3.36V-6.96h3.756v2.88ZM22.872-9.8a9.122,9.122,0,0,1,1.068,2.2l.984-.528a5.367,5.367,0,0,0-1.752-1.872ZM33.288-.768c.7.924,1.38,1.236,2.952,1.32.624.036,2.136.072,3.312.072.5,0,1.2-.012,2.148-.024a7.715,7.715,0,0,1,.288-.948c-.78.048-2.76.1-4.248.1a10.164,10.164,0,0,1-3.3-.276,2.121,2.121,0,0,1-.816-.552V-5.52H31.512l-.48-.1v.672l.48-.1h1.152v4.008a13.136,13.136,0,0,1-1.7.648L31.344.66a.207.207,0,0,0,.168.132c.12,0,.216-.132.276-.4a11.963,11.963,0,0,0,1.464-1.14ZM36.1-9.624l-.48-.1v.7l.48-.1h1.956c.012.324.012.468.024.624-.612,3.18-1.9,5.484-3.864,6.96l.156.288a7.81,7.81,0,0,0,4.008-4.908A7.8,7.8,0,0,0,41.34-1.368c.3-.516.348-.588.648-1.068a6.969,6.969,0,0,1-2.76-3.312A10.237,10.237,0,0,1,38.6-9.624ZM34.068-8.8a5.508,5.508,0,0,0-2.4-.888l-.144.3a8.406,8.406,0,0,1,1.884,1.668Zm9.828-.36A14.236,14.236,0,0,1,44.748-7.2a11.82,11.82,0,0,1,.588,3.708A11.765,11.765,0,0,1,44.748.216,13.63,13.63,0,0,1,43.9,2.172h.66a10.5,10.5,0,0,0,1.716-5.664,10.5,10.5,0,0,0-1.716-5.664Z" transform="translate(449.787 2282)" fill="#111"/>
        <path id="パス_30926" data-name="パス 30926" d="M15.968-4.7h-3.52V0H9.92V-4.7H.96V-5.952L9.152-20.736h3.3V-6.88h3.52ZM9.92-6.88V-19.008H9.5L2.976-6.88ZM20.128-3.264a1.852,1.852,0,0,1,1.424.656,2.65,2.65,0,0,1,.592,1.84,4.811,4.811,0,0,1-.9,2.88A6.243,6.243,0,0,1,18.816,4.1l-.48-.768a4.666,4.666,0,0,0,1.456-1.2A2.494,2.494,0,0,0,20.48.544a.971.971,0,0,0-.032-.288,1.988,1.988,0,0,1-.384.032,1.688,1.688,0,0,1-1.3-.5A1.777,1.777,0,0,1,18.3-1.472a1.71,1.71,0,0,1,.528-1.28A1.791,1.791,0,0,1,20.128-3.264ZM35.552-1.152V0h-8.96V-1.152h3.3V-18.208L26.72-16.16l-.672-1.024,5.28-3.552h1.088V-1.152Zm16.768,0V0H43.36V-1.152h3.3V-18.208L43.488-16.16l-.672-1.024,5.28-3.552h1.088V-1.152ZM64.288.352a5.936,5.936,0,0,1-3.84-1.344,8.589,8.589,0,0,1-2.576-3.792A16.025,16.025,0,0,1,56.96-10.4a15.891,15.891,0,0,1,.912-5.6,8.533,8.533,0,0,1,2.592-3.776A6,6,0,0,1,64.32-21.12a6.045,6.045,0,0,1,3.856,1.328,8.419,8.419,0,0,1,2.592,3.76,15.891,15.891,0,0,1,.912,5.6,15.775,15.775,0,0,1-.928,5.616,8.756,8.756,0,0,1-2.608,3.808A5.956,5.956,0,0,1,64.288.352ZM64.32-.672q2.176,0,3.328-2.5A17.843,17.843,0,0,0,68.8-10.4a17.742,17.742,0,0,0-1.152-7.2Q66.5-20.1,64.32-20.1t-3.328,2.5a17.742,17.742,0,0,0-1.152,7.2,17.843,17.843,0,0,0,1.152,7.232Q62.144-.672,64.32-.672ZM76.064-3.264a1.852,1.852,0,0,1,1.424.656,2.65,2.65,0,0,1,.592,1.84,4.811,4.811,0,0,1-.9,2.88A6.243,6.243,0,0,1,74.752,4.1l-.48-.768a4.666,4.666,0,0,0,1.456-1.2A2.494,2.494,0,0,0,76.416.544a.971.971,0,0,0-.032-.288A1.988,1.988,0,0,1,76,.288a1.688,1.688,0,0,1-1.3-.5,1.777,1.777,0,0,1-.464-1.264,1.71,1.71,0,0,1,.528-1.28A1.791,1.791,0,0,1,76.064-3.264ZM87.968.352a5.936,5.936,0,0,1-3.84-1.344,8.589,8.589,0,0,1-2.576-3.792A16.025,16.025,0,0,1,80.64-10.4a15.891,15.891,0,0,1,.912-5.6,8.533,8.533,0,0,1,2.592-3.776A6,6,0,0,1,88-21.12a6.045,6.045,0,0,1,3.856,1.328,8.419,8.419,0,0,1,2.592,3.76,15.891,15.891,0,0,1,.912,5.6,15.775,15.775,0,0,1-.928,5.616,8.756,8.756,0,0,1-2.608,3.808A5.956,5.956,0,0,1,87.968.352ZM88-.672q2.176,0,3.328-2.5A17.843,17.843,0,0,0,92.48-10.4a17.742,17.742,0,0,0-1.152-7.2Q90.176-20.1,88-20.1t-3.328,2.5a17.742,17.742,0,0,0-1.152,7.2,17.843,17.843,0,0,0,1.152,7.232Q85.824-.672,88-.672ZM104.736.352A5.936,5.936,0,0,1,100.9-.992,8.589,8.589,0,0,1,98.32-4.784a16.025,16.025,0,0,1-.912-5.616A15.891,15.891,0,0,1,98.32-16a8.533,8.533,0,0,1,2.592-3.776,6,6,0,0,1,3.856-1.344,6.045,6.045,0,0,1,3.856,1.328,8.419,8.419,0,0,1,2.592,3.76,15.891,15.891,0,0,1,.912,5.6,15.775,15.775,0,0,1-.928,5.616,8.756,8.756,0,0,1-2.608,3.808A5.956,5.956,0,0,1,104.736.352Zm.032-1.024q2.176,0,3.328-2.5a17.843,17.843,0,0,0,1.152-7.232,17.742,17.742,0,0,0-1.152-7.2q-1.152-2.5-3.328-2.5t-3.328,2.5a17.742,17.742,0,0,0-1.152,7.2,17.843,17.843,0,0,0,1.152,7.232Q102.592-.672,104.768-.672ZM121.5.352a5.936,5.936,0,0,1-3.84-1.344,8.589,8.589,0,0,1-2.576-3.792,16.025,16.025,0,0,1-.912-5.616,15.891,15.891,0,0,1,.912-5.6,8.533,8.533,0,0,1,2.592-3.776,6,6,0,0,1,3.856-1.344,6.045,6.045,0,0,1,3.856,1.328,8.419,8.419,0,0,1,2.592,3.76,15.891,15.891,0,0,1,.912,5.6,15.775,15.775,0,0,1-.928,5.616,8.756,8.756,0,0,1-2.608,3.808A5.956,5.956,0,0,1,121.5.352Zm.032-1.024q2.176,0,3.328-2.5a17.843,17.843,0,0,0,1.152-7.232,17.742,17.742,0,0,0-1.152-7.2q-1.152-2.5-3.328-2.5t-3.328,2.5a17.742,17.742,0,0,0-1.152,7.2,17.843,17.843,0,0,0,1.152,7.232Q119.36-.672,121.536-.672Zm18.88-6.592a23.411,23.411,0,0,1-3.488-.64,23.411,23.411,0,0,0-3.488-.64,1.486,1.486,0,0,0-.992.352,1.28,1.28,0,0,0-.48.8h-.8a4.541,4.541,0,0,1,1.024-2.064,2.428,2.428,0,0,1,1.888-.816,9.2,9.2,0,0,1,1.728.272q1.216.272,1.568.336a20.259,20.259,0,0,0,3.552.672,1.5,1.5,0,0,0,.976-.352,1.261,1.261,0,0,0,.5-.8h.768a4.564,4.564,0,0,1-.928,2.08A2.257,2.257,0,0,1,140.416-7.264Zm12.9-13.224,1.075,1.075-3.454,3.454,3.454,3.463-1.075,1.1-3.463-3.463L146.4-11.392l-1.1-1.1,3.454-3.463L145.3-19.412l1.1-1.075,3.454,3.454Zm1.978,3.536v1.9h-1.987v-1.9Zm-8.558,0v1.9h-1.987v-1.9Zm2.114-4.138h1.9V-19.1h-1.9Zm0,8.558h1.9v1.987h-1.9Zm15.1.075V-11h-7.336v-.653q2.371-2.576,3.462-3.892a11.831,11.831,0,0,0,1.568-2.305,4.722,4.722,0,0,0,.476-2.072,3.069,3.069,0,0,0-.607-2.063,1.969,1.969,0,0,0-1.559-.7,1.844,1.844,0,0,0-1.624.821,3.946,3.946,0,0,0-.635,2.016H156.7v-2.24a3.49,3.49,0,0,1,1.4-.9,5.325,5.325,0,0,1,1.885-.336,4.947,4.947,0,0,1,1.8.336,3.227,3.227,0,0,1,1.437,1.092,3.123,3.123,0,0,1,.569,1.932,3.451,3.451,0,0,1-.448,1.689,10.745,10.745,0,0,1-1.484,1.941q-1.036,1.129-3.742,3.873Z" transform="translate(283.112 2284)" fill="#111"/>
        <path id="パス_30925" data-name="パス 30925" d="M10.86-10.08A6.941,6.941,0,0,0,8.244-4.56,6.941,6.941,0,0,0,10.86.96h.66a7.108,7.108,0,0,1-2.4-5.508,7.587,7.587,0,0,1,1.236-4.224A5.4,5.4,0,0,1,11.52-10.08Zm5.028,3.768A22.587,22.587,0,0,1,19.32-4.644,9.535,9.535,0,0,1,14.076.1l.132.348a8.8,8.8,0,0,0,6.024-4.5A14.143,14.143,0,0,1,22.7-1.932l.8-.96a12.437,12.437,0,0,0-2.808-2.1,20.194,20.194,0,0,0,1.2-3.78c.216-.072.3-.144.3-.264,0-.1-.072-.168-.2-.2l-1.248-.324-.048.672a16.421,16.421,0,0,1-1,3.408A15.833,15.833,0,0,0,16.032-6.66Zm21.12,1.464L26.988-5.22v1.26l10.02-.36Zm11.448-1.92A42.223,42.223,0,0,1,48-2.172a5.5,5.5,0,0,1-.36,1.716.751.751,0,0,1-.756.336H45.5V.432h2.064c.936.012,1.2-.3,1.44-1.632a46.441,46.441,0,0,0,.624-6.12H45.084c.036-.552.06-.984.06-1.512v-.312c.168-.1.24-.18.24-.288a.209.209,0,0,0-.228-.2L43.9-9.72,43.98-9v.18c0,.336-.024.9-.072,1.5H40.74l-.48-.1v.744l.48-.1h3.108A8.366,8.366,0,0,1,39.84.132l.144.288a7.2,7.2,0,0,0,3.612-2.8,9.622,9.622,0,0,0,1.428-4.392Zm14.472,1.92L52.908-5.22v1.26l10.02-.36ZM67.344.072h1V-3.516h2.34V.96h1V-3.516H74.3v2.472c-.012.4-.144.528-.54.54h-.912V0h1.44c.72,0,1.032-.288,1.02-.936V-4H71.676v-.9c.156-.12.192-.156.192-.24,0-.108-.084-.156-.252-.156H70.68V-4H68.052a10.925,10.925,0,0,0,1.74-1.752H75.84l.48.1v-.672l-.48.1H70.164l.024-.036.4-.552c.252-.036.384-.12.384-.24,0-.084-.06-.132-.168-.156l-1.008-.264a6.9,6.9,0,0,1-.768,1.248H65.772l-.48-.1v.672l.48-.1h2.88A14.156,14.156,0,0,1,65.28-2.676l.168.312a9.867,9.867,0,0,0,1.9-1.092ZM66.732-9.42c1.32.312,2.412.624,3.432.972-1.1.42-3.468,1.14-4.416,1.368l.084.348a24.132,24.132,0,0,0,5.4-1.344c.672.24,2.016.816,3.192,1.368L75.1-7.44a26.573,26.573,0,0,0-2.808-1.068c.576-.252,1.008-.444,1.764-.8a2.019,2.019,0,0,0,.24.024c.144,0,.3-.1.3-.192,0-.048-.06-.108-.144-.156l-.84-.444a15.156,15.156,0,0,1-2.436,1.224,21.891,21.891,0,0,0-4.284-.888Zm20.8,3.336c-.144,1.224-.192,1.332-.672,1.344h-.888v.5h1.32c.7-.012.924-.228,1.056-.96a38.6,38.6,0,0,0,.4-4.452H84.288c-.024,3.42-.42,4.524-1.932,5.436l.2.324a3.5,3.5,0,0,0,2.268-2.2Zm.048-.48H84.96c.06-.3.12-.744.156-1.08h2.556l-.012.18-.012.192-.06.672Zm.132-1.56H85.152l.012-.036.048-1.008H87.78c-.024.42-.024.516-.048.8ZM81.54-8.76v-.852c.156-.108.192-.156.192-.24,0-.108-.084-.156-.252-.156h-.924V-8.76H78.72l-.48-.1v.672l.48-.1h.432v2.4c.024.768.336.984,1.476.984h2.364v-.84H80.808c-.6-.012-.72-.1-.732-.468V-8.28h3.072l.48.1v-.672l-.48.1Zm2.652,5.568h3.96l.468.1v-.672l-.468.1H79.368l-.468-.1V-3.1l.468-.1H83.2v1.344H80.052l-.48-.1v.672l.48-.1H83.2V.072h-4.4l-.48-.1V.648l.48-.1h9.936l.48.1V-.024l-.48.1H84.192v-1.44h3.276l.48.1v-.672l-.48.1H84.192ZM94.464.264V.828h1.7c.8,0,1.14-.336,1.14-1.14V-9.54c.156-.108.192-.156.192-.228,0-.12-.084-.168-.252-.168H96.2V-.384c0,.456-.192.648-.648.648Zm4.3-7.812a28.8,28.8,0,0,1,2.292,6.216L102.24-2a17.644,17.644,0,0,0-3.084-5.772ZM91.512-1.236A13.241,13.241,0,0,0,94.356-7.08c.24-.048.36-.144.36-.3,0-.108-.084-.168-.276-.228l-1.1-.3a22.445,22.445,0,0,1-2.124,6.456ZM105.72-5.16v-.132a1.652,1.652,0,0,0-.024-.384h-.408a3.036,3.036,0,0,1-1.128,1.92l.72.936a2.485,2.485,0,0,0,.816-1.824V-4.68h8.148a4.774,4.774,0,0,1-.708,1.332l.372.228A4.31,4.31,0,0,0,115.2-5.16Zm4.428-3.516v-.948c.156-.108.192-.156.192-.24,0-.108-.084-.156-.252-.156h-.972v1.344H104.8l-.48-.1V-8.1l.48-.1h4.32v1.344H105.84l-.48-.1v.672l.48-.1h7.68l.48.1v-.672l-.48.1h-3.372V-8.2h4.416l.48.1v-.672l-.48.1ZM104.52.84a5.587,5.587,0,0,0,2.7-.912,3.315,3.315,0,0,0,1.26-3v-.3c.144-.108.192-.156.192-.24,0-.108-.084-.156-.264-.156h-.96V-3.1A3.172,3.172,0,0,1,106.464-.5a4.511,4.511,0,0,1-2.04.984Zm6.036-4.608v3.36c.024.732.372.96,1.548,1h1.68c.84,0,1.188-.324,1.248-1.164l.06-1.02-.492-.048-.06.744c-.048.408-.2.552-.564.552H112.26c-.5-.012-.7-.12-.7-.372V-3.372c.156-.108.192-.156.192-.24,0-.12-.084-.156-.336-.156ZM122.76-6.7h-2.052V.828h.888V.06h5.076V.744h.924V-6.7h-2.1v-2.34h2.184l.48.1v-.672l-.48.1h-6.744l-.468-.1v.672l.468-.1h1.824Zm.828-2.34h1.08V-6.7h-1.08Zm0,2.82h1.08v5.8h-1.08Zm-.828,5.8H121.6v-5.8h1.164Zm2.736-5.8h1.176v5.8H125.5ZM119.448-7.4c.252-.708.36-1.044.636-1.932.192-.036.288-.12.288-.24,0-.1-.084-.168-.2-.2l-1.008-.3a28.442,28.442,0,0,1-2.04,6.516l.252.192a13.006,13.006,0,0,0,1.14-1.848V.888h.936ZM133.62-2.772a11.55,11.55,0,0,0,3.888-2.28,11.591,11.591,0,0,0,3.156,1.992A3.976,3.976,0,0,1,141.12-4a12.418,12.418,0,0,1-3.048-1.62,12.4,12.4,0,0,0,2.22-3.18h-3.9l.012-.036c.132-.252.144-.276.3-.612.228-.084.324-.156.324-.24a.224.224,0,0,0-.12-.168l-1.02-.228a11.161,11.161,0,0,1-.864,2.2,11.092,11.092,0,0,1-1.14,1.836l.24.228a8.152,8.152,0,0,0,1.716-2,5.445,5.445,0,0,0,1.1,2.184A13.169,13.169,0,0,1,133.5-3.072Zm2.52-5.544h2.88a14.544,14.544,0,0,1-1.6,2.172,4.517,4.517,0,0,1-1.332-2.1Zm-4.248,9.2h.924V-5.484a8.091,8.091,0,0,1,.852,1.824l.744-.648a4.244,4.244,0,0,0-1.6-1.524V-7.08h.876l.48.1v-.672l-.48.1h-.876V-9.612c.144-.108.192-.156.192-.24,0-.108-.084-.156-.252-.156h-.864V-7.56h-1.26l-.48-.1v.672l.48-.1h1.152a20.078,20.078,0,0,1-1.7,5.052l.264.18a11.81,11.81,0,0,0,1.548-2.832ZM139.98.816V-3.216h-5.028v4.1h.948V.312h3.12v.5ZM135.9-.168V-2.736h3.12V-.168Zm7.14-9.912a7.145,7.145,0,0,1,2.4,5.532A7.126,7.126,0,0,1,143.04.96h.648a6.9,6.9,0,0,0,2.628-5.52,6.9,6.9,0,0,0-2.628-5.52Z" transform="translate(133.756 2282)" fill="#111"/>
      </g>
      <path id="パス_30924" data-name="パス 30924" d="M41.746.9c.238-.084.336-.182.336-.308s-.1-.2-.28-.21L40.612.24a14.473,14.473,0,0,1-2.086,2.884,20.166,20.166,0,0,1-3.612,3.094l.182.364a14.954,14.954,0,0,0,6.342-5.236l.056.084a12.274,12.274,0,0,0,5.684,4.886,7.578,7.578,0,0,1,.616-1.274,13.2,13.2,0,0,1-3.948-2.114A12.574,12.574,0,0,1,41.718.94ZM41.9,6.2h3.024l.56.112V5.532l-.56.112h-7.14l-.56-.112v.784l.56-.112H40.7v2.45H37.63l-.546-.112v.784l.546-.112H40.7v2.828H36.16l-.56-.112v.784l.56-.112H46.7l.56.112V11.93l-.56.112H41.9V9.214h3.178l.546.112V8.542l-.546.112H41.9ZM61.234,7.6l.56.112V6.932l-.56.112h-8.96V5.49h7.182l.56.112V4.818l-.56.112H52.274V3.46h7.182l.56.112V2.788l-.56.112H52.274V1.458H60l.56.112V.786L60,.9H51.1V7.044H49.474l-.56-.112v.784l.56-.112H51.1v3.864c-.658.084-1.036.126-2.114.21l.476,1.148c.1.224.154.294.266.294.154,0,.224-.084.308-.336a37.543,37.543,0,0,0,6.8-1.806l.07-.014a8.57,8.57,0,0,0,4.214,2.156,6.784,6.784,0,0,1,.672-1.26,9.972,9.972,0,0,1-4.1-1.526,17.925,17.925,0,0,0,2.66-1.246l.28.014c.2,0,.35-.112.35-.252,0-.056-.056-.14-.168-.21l-1.05-.7a16.389,16.389,0,0,1-2.478,2.086A5.966,5.966,0,0,1,55.452,7.6Zm-6.384,0a7.472,7.472,0,0,0,1.694,2.982l-.126.028c-.994.224-2.016.392-4.144.7V7.6ZM69.34,9.942H67.8V12H66.694V9.942h-3.92V9.4l3.584-6.468H67.8V8.99h1.54ZM66.694,8.99V3.684h-.182L63.656,8.99Zm4.466,1.582a.81.81,0,0,1,.623.287,1.159,1.159,0,0,1,.259.8,2.1,2.1,0,0,1-.392,1.26,2.731,2.731,0,0,1-1.064.868l-.21-.336a2.041,2.041,0,0,0,.637-.525,1.091,1.091,0,0,0,.3-.693.425.425,0,0,0-.014-.126.87.87,0,0,1-.168.014.738.738,0,0,1-.567-.217.777.777,0,0,1-.2-.553.748.748,0,0,1,.231-.56A.783.783,0,0,1,71.16,10.572Zm5.208,1.582a2.6,2.6,0,0,1-1.68-.588,3.758,3.758,0,0,1-1.127-1.659,7.011,7.011,0,0,1-.4-2.457,6.952,6.952,0,0,1,.4-2.45A3.733,3.733,0,0,1,74.7,3.348a2.727,2.727,0,0,1,3.374-.007A3.683,3.683,0,0,1,79.2,4.986a6.952,6.952,0,0,1,.4,2.45A6.9,6.9,0,0,1,79.2,9.893a3.831,3.831,0,0,1-1.141,1.666A2.606,2.606,0,0,1,76.368,12.154Zm.014-.448a1.585,1.585,0,0,0,1.456-1.092,7.807,7.807,0,0,0,.5-3.164,7.762,7.762,0,0,0-.5-3.15,1.517,1.517,0,0,0-2.912,0,7.762,7.762,0,0,0-.5,3.15,7.807,7.807,0,0,0,.5,3.164A1.585,1.585,0,0,0,76.382,11.706ZM84.516,7.1a2.38,2.38,0,0,1,1.96,2.324,2.4,2.4,0,0,1-.455,1.47,2.909,2.909,0,0,1-1.176.938,3.651,3.651,0,0,1-1.5.322,3.028,3.028,0,0,1-1.617-.434,3.2,3.2,0,0,1-1.113-1.134l.448-.28a2.249,2.249,0,0,0,.952.938,2.649,2.649,0,0,0,1.218.308,2.174,2.174,0,0,0,.973-.224,1.8,1.8,0,0,0,.742-.686,2.082,2.082,0,0,0,.287-1.12,1.987,1.987,0,0,0-.567-1.491,1.936,1.936,0,0,0-1.407-.553h-.35V7.044a2.373,2.373,0,0,0,.966-.21,1.825,1.825,0,0,0,.784-.665,1.991,1.991,0,0,0,.308-1.141,2.08,2.08,0,0,0-.392-1.281,1.484,1.484,0,0,0-2.331.084,3.071,3.071,0,0,0-.455,1.519H81.03V3.67A2.77,2.77,0,0,1,82.066,3a3.731,3.731,0,0,1,1.372-.252,3.39,3.39,0,0,1,1.358.266,2.357,2.357,0,0,1,.987.77,1.952,1.952,0,0,1,.371,1.19A2.294,2.294,0,0,1,84.516,7.1Zm6.566-.994a2.932,2.932,0,0,1,1.365.329,2.594,2.594,0,0,1,1.036.987,2.967,2.967,0,0,1,.4,1.568,3.128,3.128,0,0,1-.462,1.736A2.984,2.984,0,0,1,92.251,11.8a3.293,3.293,0,0,1-3.1-.063,2.978,2.978,0,0,1-1.134-1.148l.448-.28a2.414,2.414,0,0,0,.924.938,2.559,2.559,0,0,0,1.274.322,1.815,1.815,0,0,0,.987-.287,2.057,2.057,0,0,0,.735-.847,2.943,2.943,0,0,0,.28-1.33,2.811,2.811,0,0,0-.28-1.309,1.885,1.885,0,0,0-.735-.8,1.962,1.962,0,0,0-.987-.259,1.6,1.6,0,0,0-.84.21,2.617,2.617,0,0,0-.63.532h-.546l.336-4.55h4.452v1.12H89.416l-.2,2.716a2.47,2.47,0,0,1,.805-.476A2.975,2.975,0,0,1,91.082,6.106Zm13.972,5.474V12H102.38v-.42h.714V7.548a2.072,2.072,0,0,0-.266-1.169.92.92,0,0,0-.812-.385,1.284,1.284,0,0,0-1,.448,1.642,1.642,0,0,0-.4,1.134v4h.8V12H98.768v-.42h.8V7.548A2.072,2.072,0,0,0,99.3,6.379a.92.92,0,0,0-.812-.385,1.3,1.3,0,0,0-1.015.448,1.642,1.642,0,0,0-.4,1.134v4h.742V12H95.1v-.42h.924V6.092h-.9V5.686l1.918-.112.028.658a1.98,1.98,0,0,1,1.68-.714,2.066,2.066,0,0,1,1.008.245,1.515,1.515,0,0,1,.658.679,1.777,1.777,0,0,1,.728-.686,2.291,2.291,0,0,1,1.064-.238q1.932,0,1.932,2.184V11.58Zm10.57,0V12H112.95v-.42h.714V7.548a2.072,2.072,0,0,0-.266-1.169.92.92,0,0,0-.812-.385,1.284,1.284,0,0,0-1,.448,1.642,1.642,0,0,0-.4,1.134v4h.8V12h-2.646v-.42h.8V7.548a2.072,2.072,0,0,0-.266-1.169.92.92,0,0,0-.812-.385,1.3,1.3,0,0,0-1.015.448,1.642,1.642,0,0,0-.4,1.134v4h.742V12H105.67v-.42h.924V6.092h-.9V5.686l1.918-.112.028.658a1.98,1.98,0,0,1,1.68-.714,2.066,2.066,0,0,1,1.008.245,1.515,1.515,0,0,1,.658.679,1.777,1.777,0,0,1,.728-.686,2.291,2.291,0,0,1,1.064-.238q1.932,0,1.932,2.184V11.58Zm4.97.532a8.417,8.417,0,0,0-3.906-2.674l-.266.336a12.5,12.5,0,0,1,3.024,3.346ZM137.254.9c.238-.084.336-.182.336-.308s-.1-.2-.28-.21L136.12.24a14.473,14.473,0,0,1-2.086,2.884,20.165,20.165,0,0,1-3.612,3.094l.182.364a14.954,14.954,0,0,0,6.342-5.236L137,1.43a12.274,12.274,0,0,0,5.684,4.886,7.578,7.578,0,0,1,.616-1.274,13.2,13.2,0,0,1-3.948-2.114A12.574,12.574,0,0,1,137.226.94Zm.154,5.306h3.024l.56.112V5.532l-.56.112h-7.14l-.56-.112v.784l.56-.112H136.2v2.45h-3.066l-.546-.112v.784l.546-.112H136.2v2.828h-4.536l-.56-.112v.784l.56-.112H142.21l.56.112V11.93l-.56.112h-4.8V9.214h3.178l.546.112V8.542l-.546.112h-3.178Zm10.164-3.332h.91V9.158c0,.266-.084.336-.336.35h-.406v.56h.714c.672,0,.952-.28.952-.924V2.354h-1.834V.786c.182-.126.224-.182.224-.28,0-.126-.1-.182-.294-.182h-.854v2.03h-1.764v7.8h.924V2.872h.84V13.036h.924Zm9.24,4.046h-6.748v6.118h1.022V12.35h4.676v.588h1.05Zm-1.05,2.912v1.96h-1.876V9.83Zm0-.56h-1.876V7.478h1.876Zm-2.884-1.792V9.27h-1.792V7.478Zm-1.792,4.312V9.83h1.792v1.96Zm5.166-6.16V2.578h-5.74V5.63Zm-1.078-.56h-3.612V3.138h3.612Zm-5.068-3.682h6.636l.56.112V.716l-.56.112h-6.636l-.56-.112V1.5ZM163.616,11.5V12H159.7v-.5h1.442V4.034l-1.386.9-.294-.448,2.31-1.554h.476V11.5Zm3.052-.924a.81.81,0,0,1,.623.287,1.159,1.159,0,0,1,.259.8,2.1,2.1,0,0,1-.392,1.26,2.731,2.731,0,0,1-1.064.868l-.21-.336a2.041,2.041,0,0,0,.637-.525,1.091,1.091,0,0,0,.3-.693.425.425,0,0,0-.014-.126.87.87,0,0,1-.168.014.738.738,0,0,1-.567-.217.777.777,0,0,1-.2-.553.748.748,0,0,1,.231-.56A.783.783,0,0,1,166.668,10.572Zm7.616-7.644v.49L170.378,12h-.658l3.7-7.994H169.5l-.49,1.358h-.49V2.928ZM181,9.942h-1.54V12h-1.106V9.942h-3.92V9.4l3.584-6.468h1.442V8.99H181Zm-2.646-.952V3.684h-.182L175.32,8.99Zm6.692-2.884a2.932,2.932,0,0,1,1.365.329,2.594,2.594,0,0,1,1.036.987,2.967,2.967,0,0,1,.4,1.568,3.128,3.128,0,0,1-.462,1.736,2.984,2.984,0,0,1-1.169,1.071,3.293,3.293,0,0,1-3.1-.063,2.978,2.978,0,0,1-1.134-1.148l.448-.28a2.414,2.414,0,0,0,.924.938,2.559,2.559,0,0,0,1.274.322,1.815,1.815,0,0,0,.987-.287,2.057,2.057,0,0,0,.735-.847,2.943,2.943,0,0,0,.28-1.33,2.811,2.811,0,0,0-.28-1.309,1.885,1.885,0,0,0-.735-.8,1.962,1.962,0,0,0-.987-.259,1.6,1.6,0,0,0-.84.21,2.616,2.616,0,0,0-.63.532h-.546l.336-4.55H187.4v1.12h-4.018l-.2,2.716a2.47,2.47,0,0,1,.805-.476A2.975,2.975,0,0,1,185.05,6.106Zm13.972,5.474V12h-2.674v-.42h.714V7.548a2.072,2.072,0,0,0-.266-1.169.92.92,0,0,0-.812-.385,1.284,1.284,0,0,0-1,.448,1.642,1.642,0,0,0-.4,1.134v4h.8V12h-2.646v-.42h.8V7.548a2.072,2.072,0,0,0-.266-1.169.92.92,0,0,0-.812-.385,1.3,1.3,0,0,0-1.015.448,1.642,1.642,0,0,0-.4,1.134v4h.742V12h-2.716v-.42h.924V6.092h-.9V5.686l1.918-.112.028.658a1.98,1.98,0,0,1,1.68-.714,2.066,2.066,0,0,1,1.008.245,1.515,1.515,0,0,1,.658.679,1.778,1.778,0,0,1,.728-.686,2.291,2.291,0,0,1,1.064-.238q1.932,0,1.932,2.184V11.58Zm10.57,0V12h-2.674v-.42h.714V7.548a2.072,2.072,0,0,0-.266-1.169.92.92,0,0,0-.812-.385,1.284,1.284,0,0,0-1,.448,1.642,1.642,0,0,0-.4,1.134v4h.8V12h-2.646v-.42h.8V7.548a2.072,2.072,0,0,0-.266-1.169.92.92,0,0,0-.812-.385,1.3,1.3,0,0,0-1.015.448,1.642,1.642,0,0,0-.4,1.134v4h.742V12h-2.716v-.42h.924V6.092h-.9V5.686l1.918-.112.028.658a1.98,1.98,0,0,1,1.68-.714,2.066,2.066,0,0,1,1.008.245,1.515,1.515,0,0,1,.658.679,1.778,1.778,0,0,1,.728-.686,2.291,2.291,0,0,1,1.064-.238q1.932,0,1.932,2.184V11.58Zm4.97.532a8.417,8.417,0,0,0-3.906-2.674l-.266.336a12.5,12.5,0,0,1,3.024,3.346ZM231.222.9c.238-.084.336-.182.336-.308s-.1-.2-.28-.21l-1.19-.14A14.473,14.473,0,0,1,228,3.124a20.165,20.165,0,0,1-3.612,3.094l.182.364a14.954,14.954,0,0,0,6.342-5.236l.056.084a12.274,12.274,0,0,0,5.684,4.886,7.578,7.578,0,0,1,.616-1.274,13.2,13.2,0,0,1-3.948-2.114A12.574,12.574,0,0,1,231.194.94Zm.154,5.306H234.4l.56.112V5.532l-.56.112h-7.14l-.56-.112v.784l.56-.112h2.912v2.45h-3.066l-.546-.112v.784l.546-.112h3.066v2.828h-4.536l-.56-.112v.784l.56-.112h10.542l.56.112V11.93l-.56.112h-4.8V9.214h3.178l.546.112V8.542l-.546.112h-3.178ZM244.13,1.71h-5.1l-.56-.112v.784l.56-.112h11.578l.56.112V1.6l-.56.112H245.4V.716c.182-.14.224-.2.224-.28,0-.14-.1-.2-.294-.2h-1.2ZM250.584,7H239.062v6.034h1.162V7.562h9.2V11.79c-.014.434-.154.574-.588.588h-1.19v.588h1.722c.854,0,1.232-.35,1.218-1.162Zm-8.932,1.6V12h1.106v-.644h5V8.6Zm1.106,2.2V9.158h3.906V10.8ZM248.9,5.938V3.292h-8.162V5.938Zm-7-.56V3.852h5.838V5.378Zm15.68,6.118V12h-3.92v-.5h1.442V4.034l-1.386.9-.294-.448,2.31-1.554h.476V11.5Zm3.052-.924a.81.81,0,0,1,.623.287,1.159,1.159,0,0,1,.259.8,2.1,2.1,0,0,1-.392,1.26,2.731,2.731,0,0,1-1.064.868l-.21-.336a2.041,2.041,0,0,0,.637-.525,1.091,1.091,0,0,0,.3-.693.424.424,0,0,0-.014-.126.869.869,0,0,1-.168.014.738.738,0,0,1-.567-.217.777.777,0,0,1-.2-.553.748.748,0,0,1,.231-.56A.783.783,0,0,1,260.636,10.572Zm8.54-.63h-1.54V12H266.53V9.942h-3.92V9.4l3.584-6.468h1.442V8.99h1.54ZM266.53,8.99V3.684h-.182L263.492,8.99Zm9.758-6.062v.49L272.382,12h-.658l3.7-7.994H271.5l-.49,1.358h-.49V2.928Zm4.228,9.226a2.6,2.6,0,0,1-1.68-.588,3.758,3.758,0,0,1-1.127-1.659,7.011,7.011,0,0,1-.4-2.457,6.953,6.953,0,0,1,.4-2.45,3.734,3.734,0,0,1,1.134-1.652,2.727,2.727,0,0,1,3.374-.007,3.684,3.684,0,0,1,1.134,1.645,6.953,6.953,0,0,1,.4,2.45,6.9,6.9,0,0,1-.406,2.457,3.831,3.831,0,0,1-1.141,1.666A2.606,2.606,0,0,1,280.516,12.154Zm.014-.448a1.585,1.585,0,0,0,1.456-1.092,7.807,7.807,0,0,0,.5-3.164,7.762,7.762,0,0,0-.5-3.15,1.517,1.517,0,0,0-2.912,0,7.762,7.762,0,0,0-.5,3.15,7.807,7.807,0,0,0,.5,3.164A1.585,1.585,0,0,0,280.53,11.706Zm14-.126V12h-2.674v-.42h.714V7.548a2.072,2.072,0,0,0-.266-1.169.92.92,0,0,0-.812-.385,1.284,1.284,0,0,0-1,.448,1.642,1.642,0,0,0-.4,1.134v4h.8V12h-2.646v-.42h.8V7.548a2.072,2.072,0,0,0-.266-1.169.92.92,0,0,0-.812-.385,1.3,1.3,0,0,0-1.015.448,1.641,1.641,0,0,0-.4,1.134v4h.742V12h-2.716v-.42h.924V6.092h-.9V5.686l1.918-.112.028.658a1.98,1.98,0,0,1,1.68-.714,2.066,2.066,0,0,1,1.008.245,1.515,1.515,0,0,1,.658.679,1.777,1.777,0,0,1,.728-.686,2.291,2.291,0,0,1,1.064-.238q1.932,0,1.932,2.184V11.58Zm10.57,0V12h-2.674v-.42h.714V7.548a2.072,2.072,0,0,0-.266-1.169.92.92,0,0,0-.812-.385,1.284,1.284,0,0,0-1,.448,1.642,1.642,0,0,0-.4,1.134v4h.8V12h-2.646v-.42h.8V7.548a2.072,2.072,0,0,0-.266-1.169.92.92,0,0,0-.812-.385,1.3,1.3,0,0,0-1.015.448,1.641,1.641,0,0,0-.4,1.134v4h.742V12h-2.716v-.42h.924V6.092h-.9V5.686l1.918-.112.028.658a1.98,1.98,0,0,1,1.68-.714,2.066,2.066,0,0,1,1.008.245,1.515,1.515,0,0,1,.658.679,1.777,1.777,0,0,1,.728-.686,2.291,2.291,0,0,1,1.064-.238q1.932,0,1.932,2.184V11.58Zm4.97.532a8.417,8.417,0,0,0-3.906-2.674l-.266.336a12.5,12.5,0,0,1,3.024,3.346Zm17-8.12h4.4l.616.126v-.9l-.616.126h-4.4V1.36c.2-.14.28-.238.28-.364a.252.252,0,0,0-.266-.238l-1.414-.1.126.84V3.348h-4.48l-.616-.126v.9l.616-.126h4.48v7.182c0,.476-.21.686-.7.686h-1.428V12.5h2.352c.728.014,1.05-.336,1.05-1.134Zm1.386,1.666a17.407,17.407,0,0,1,2.8,5.236l1.344-.7a10.084,10.084,0,0,0-3.864-4.774Zm-8.176,5.292a9.648,9.648,0,0,0,3.7-4.55c.252-.1.35-.2.35-.336a.3.3,0,0,0-.21-.266L322.8,5.322l-.168.77a12.955,12.955,0,0,1-2.6,4.55Zm21.6-6.454a35.993,35.993,0,0,0,2.982-2.632c.378-.042.532-.14.532-.336a.434.434,0,0,0-.224-.322L344.09.492l-.5.756a27.236,27.236,0,0,1-9.184,6.37l.154.42a18.465,18.465,0,0,0,6.02-2.6v7.308h1.3Zm18.4,1.848-11.69-.434V7.38l11.69-.42Zm8.456,6.1a6.936,6.936,0,0,0,4.158-2.534,9.8,9.8,0,0,0,2.03-4.606l-.434-.14c-.924,2.632-2.674,4.774-4.508,5.516V1.64c.21-.14.28-.238.28-.364a.262.262,0,0,0-.266-.238L368.6.94l.126.84Zm-6.622.042a7.681,7.681,0,0,0,3.136-3.332,13.044,13.044,0,0,0,.826-5.46V2.116c.21-.14.28-.238.28-.364a.252.252,0,0,0-.266-.238l-1.428-.1.126.84V3.824c0,4.256-.672,6.174-2.926,8.3ZM388.2,1.878a2.781,2.781,0,0,0-1.61-1.484l-.252.2a5.229,5.229,0,0,1,.924,1.764ZM384.732.912a5.737,5.737,0,0,1,.77,1.862l.98-.448a2.9,2.9,0,0,0-1.5-1.6Zm4.032,9.73c-2.016-2.03-5.362-5.782-6.958-7.826-.574-.742-.784-.938-1.036-.938-.28,0-.5.21-1.5,1.442-1.512,1.834-1.932,2.338-2.674,3.108l-.7.588.784,1.064a.345.345,0,0,0,.28.182c.168,0,.252-.126.266-.378.756-1.05,1.2-1.694,2.772-3.99.56-.854.658-.98.756-.98.056,0,.126.07.294.336a97.849,97.849,0,0,0,6.72,8.582Zm13.51-4.3-11.69-.434V7.38l11.69-.42Zm9.282.994a17.629,17.629,0,0,0,2.884-5.67h-8.288l-.616-.126v.9l.616-.126h6.622a16.133,16.133,0,0,1-8.456,9.436l.2.434a14.074,14.074,0,0,0,6.748-4.466,23.9,23.9,0,0,1,4,4.564l1.246-1.008a17.1,17.1,0,0,0-4.774-3.836Zm12.264,3.57V12h-5.5v-.49q1.778-1.932,2.6-2.919a8.874,8.874,0,0,0,1.176-1.729,3.541,3.541,0,0,0,.357-1.554,2.3,2.3,0,0,0-.455-1.547,1.477,1.477,0,0,0-1.169-.525,1.383,1.383,0,0,0-1.218.616,2.96,2.96,0,0,0-.476,1.512h-.756V3.684a2.618,2.618,0,0,1,1.05-.672,3.994,3.994,0,0,1,1.414-.252,3.711,3.711,0,0,1,1.351.252,2.42,2.42,0,0,1,1.078.819,2.343,2.343,0,0,1,.427,1.449,2.588,2.588,0,0,1-.336,1.267A8.06,8.06,0,0,1,422.245,8q-.777.847-2.807,2.9Zm2.324-.336a.81.81,0,0,1,.623.287,1.159,1.159,0,0,1,.259.8,2.1,2.1,0,0,1-.392,1.26,2.731,2.731,0,0,1-1.064.868l-.21-.336a2.041,2.041,0,0,0,.637-.525,1.091,1.091,0,0,0,.3-.693.424.424,0,0,0-.014-.126.869.869,0,0,1-.168.014.738.738,0,0,1-.567-.217.777.777,0,0,1-.2-.553.748.748,0,0,1,.231-.56A.783.783,0,0,1,426.144,10.572Zm5.11-4.466a2.932,2.932,0,0,1,1.365.329,2.594,2.594,0,0,1,1.036.987,2.967,2.967,0,0,1,.4,1.568,3.128,3.128,0,0,1-.462,1.736,2.984,2.984,0,0,1-1.169,1.071,3.293,3.293,0,0,1-3.1-.063,2.978,2.978,0,0,1-1.134-1.148l.448-.28a2.414,2.414,0,0,0,.924.938,2.559,2.559,0,0,0,1.274.322,1.815,1.815,0,0,0,.987-.287,2.057,2.057,0,0,0,.735-.847,2.943,2.943,0,0,0,.28-1.33,2.811,2.811,0,0,0-.28-1.309,1.885,1.885,0,0,0-.735-.8,1.961,1.961,0,0,0-.987-.259,1.6,1.6,0,0,0-.84.21,2.617,2.617,0,0,0-.63.532h-.546l.336-4.55h4.452v1.12h-4.018l-.2,2.716a2.47,2.47,0,0,1,.8-.476A2.975,2.975,0,0,1,431.254,6.106Zm7.644.126a2.932,2.932,0,0,1,1.365.329,2.527,2.527,0,0,1,1.022.973,2.919,2.919,0,0,1,.385,1.526,3.2,3.2,0,0,1-.4,1.6,2.856,2.856,0,0,1-1.085,1.1,2.994,2.994,0,0,1-1.512.392,2.688,2.688,0,0,1-1.666-.539,3.4,3.4,0,0,1-1.1-1.533,6.416,6.416,0,0,1-.385-2.324A6.811,6.811,0,0,1,436,5.119a4.229,4.229,0,0,1,1.267-1.757,2.735,2.735,0,0,1,1.715-.616,2.584,2.584,0,0,1,1.309.35,3.151,3.151,0,0,1,1.043.994l-.42.35a2.957,2.957,0,0,0-.847-.84,1.881,1.881,0,0,0-1.029-.308,1.79,1.79,0,0,0-1.631,1.1,6.8,6.8,0,0,0-.651,2.905,2.829,2.829,0,0,1,.875-.756A2.51,2.51,0,0,1,438.9,6.232Zm.014,5.474a1.269,1.269,0,0,0,1.169-.651,3.315,3.315,0,0,0,.385-1.7,3.038,3.038,0,0,0-.532-1.953,1.679,1.679,0,0,0-2.5-.175,2.4,2.4,0,0,0-.651,1.134,5.044,5.044,0,0,0,.672,2.485A1.7,1.7,0,0,0,438.912,11.706Zm7.014-5.6a2.932,2.932,0,0,1,1.365.329,2.594,2.594,0,0,1,1.036.987,2.967,2.967,0,0,1,.4,1.568,3.128,3.128,0,0,1-.462,1.736A2.984,2.984,0,0,1,447.1,11.8a3.293,3.293,0,0,1-3.1-.063,2.978,2.978,0,0,1-1.134-1.148l.448-.28a2.414,2.414,0,0,0,.924.938,2.559,2.559,0,0,0,1.274.322,1.815,1.815,0,0,0,.987-.287,2.057,2.057,0,0,0,.735-.847,2.943,2.943,0,0,0,.28-1.33,2.811,2.811,0,0,0-.28-1.309,1.885,1.885,0,0,0-.735-.8,1.961,1.961,0,0,0-.987-.259,1.6,1.6,0,0,0-.84.21,2.617,2.617,0,0,0-.63.532h-.546l.336-4.55h4.452v1.12H444.26l-.2,2.716a2.47,2.47,0,0,1,.8-.476A2.975,2.975,0,0,1,445.926,6.106ZM459.9,11.58V12h-2.674v-.42h.714V7.548a2.072,2.072,0,0,0-.266-1.169.92.92,0,0,0-.812-.385,1.284,1.284,0,0,0-1,.448,1.642,1.642,0,0,0-.4,1.134v4h.8V12h-2.646v-.42h.8V7.548a2.072,2.072,0,0,0-.266-1.169.92.92,0,0,0-.812-.385,1.3,1.3,0,0,0-1.015.448,1.641,1.641,0,0,0-.4,1.134v4h.742V12h-2.716v-.42h.924V6.092h-.9V5.686l1.918-.112.028.658a1.98,1.98,0,0,1,1.68-.714,2.066,2.066,0,0,1,1.008.245,1.515,1.515,0,0,1,.658.679,1.777,1.777,0,0,1,.728-.686,2.291,2.291,0,0,1,1.064-.238q1.932,0,1.932,2.184V11.58Zm10.57,0V12h-2.674v-.42h.714V7.548a2.072,2.072,0,0,0-.266-1.169.92.92,0,0,0-.812-.385,1.284,1.284,0,0,0-1,.448,1.642,1.642,0,0,0-.4,1.134v4h.8V12h-2.646v-.42h.8V7.548a2.072,2.072,0,0,0-.266-1.169.92.92,0,0,0-.812-.385,1.3,1.3,0,0,0-1.015.448,1.641,1.641,0,0,0-.4,1.134v4h.742V12h-2.716v-.42h.924V6.092h-.9V5.686l1.918-.112.028.658a1.98,1.98,0,0,1,1.68-.714,2.066,2.066,0,0,1,1.008.245,1.515,1.515,0,0,1,.658.679,1.777,1.777,0,0,1,.728-.686,2.291,2.291,0,0,1,1.064-.238q1.932,0,1.932,2.184V11.58Zm4.97.532a8.417,8.417,0,0,0-3.906-2.674l-.266.336a12.5,12.5,0,0,1,3.024,3.346ZM488.22,6.848V3.712h.728l.56.112V3.04l-.56.112h-.728V.786c.182-.126.224-.182.224-.28,0-.126-.1-.182-.294-.182h-1.036V3.152h-1.2l-.56-.112v.784l.56-.112h1.2v3.5c-.56.182-1.05.308-1.848.5l.28,1.022c.042.112.14.21.224.21.126,0,.21-.1.308-.364.49-.21.714-.308,1.036-.448v3.808c-.014.322-.112.434-.434.434h-1.036v.588h1.54c.728,0,1.05-.294,1.036-.98V7.576a16.143,16.143,0,0,0,1.414-.826l-.126-.364c-.322.112-.672.252-.714.266l-.532.182Zm.91,6.272a4.914,4.914,0,0,0,3.318-2.45c.476-1.036.574-2.352.574-7.588V.884c.182-.126.224-.182.224-.28,0-.126-.084-.182-.294-.182h-1.036V2.606h-1.582l-.56-.112v.784l.56-.112h1.582l-.028,2.506H490.4l-.56-.112v.784l.56-.112h1.484c0,1.12-.014,1.358-.056,2.184a24.659,24.659,0,0,1-2.772.644l.336,1.022c.042.126.154.238.252.238s.182-.112.238-.336a14.878,14.878,0,0,0,1.9-1.022,4.153,4.153,0,0,1-2.842,3.766ZM495.5,2.606V.884c.182-.126.224-.182.224-.28,0-.126-.1-.182-.294-.182h-1.036V13.036H495.5V9.718h2.086l.56.112V9.046l-.56.112H495.5V6.288h1.61l.546.112V5.616l-.546.112H495.5V3.166h1.918l.56.112V2.494l-.56.112Zm8.358,6.874a18.812,18.812,0,0,1-4.312,3.038l.182.35a15.32,15.32,0,0,0,4.984-2.814,21.64,21.64,0,0,1,2.772,2.24l.8-1.134A28.412,28.412,0,0,0,505.538,9.3c.546-.532.84-.854,1.582-1.708h.07c.224,0,.448-.14.448-.28,0-.07-.084-.154-.182-.21l-1.064-.518A12.721,12.721,0,0,1,504.6,8.766a22.2,22.2,0,0,0-3.808-1.554l-.2.364A19.889,19.889,0,0,1,503.242,9.1Zm-1.512-7.434h8.638l.56.112V1.374l-.56.112h-8.26l.028-.028.042-.07c.112-.154.21-.322.322-.49.28-.028.434-.126.434-.266,0-.084-.1-.168-.2-.182L502.08.24A14.071,14.071,0,0,1,499.266,4.4l.238.294a9.178,9.178,0,0,0,2.814-2.6ZM509.99,5.49h-9.282l-.546-.112v.784l.546-.112h8.12a15.823,15.823,0,0,0,.966,5.95c.336.672.77,1.036,1.232,1.036.406,0,.686-.322.826-.91a10.824,10.824,0,0,0,.28-2.17l-.5-.1a10.248,10.248,0,0,1-.294,1.82c-.028.14-.112.238-.182.238-.1,0-.2-.126-.35-.49a14.811,14.811,0,0,1-.812-5.334ZM502.3,3.95h7.364l.56.112V3.278l-.56.112H502.3l-.546-.112v.784ZM519.146,12.2h-5.32l-.56-.112v.742l.56-.112h11.76l.56.112v-.742l-.56.112h-5.418V11.132h4.41l.546.112V10.5l-.546.112h-4.41V9.648h4.368V6.162h-9.66V9.648h4.27v.966H514.82l-.546-.112v.742l.546-.112h4.326Zm0-3.066h-3.192V8.15h3.192Zm0-1.5h-3.192V6.68h3.192Zm1.022-.952h3.29v.952h-3.29Zm0,1.47h3.29v.98h-3.29ZM515.058.73V4.118h9.3V.73Zm1.12.518h7.056v.9h-7.056Zm0,2.352V2.662h7.056V3.6ZM513.91,5.392H525.5l.56.112V4.762l-.56.112H513.91l-.56-.112V5.5Zm18.55,6.1V12h-3.92v-.5h1.442V4.034l-1.386.9-.294-.448,2.31-1.554h.476V11.5Zm3.052-.924a.81.81,0,0,1,.623.287,1.159,1.159,0,0,1,.259.8,2.105,2.105,0,0,1-.392,1.26,2.731,2.731,0,0,1-1.064.868l-.21-.336a2.042,2.042,0,0,0,.637-.525,1.091,1.091,0,0,0,.3-.693.424.424,0,0,0-.014-.126.87.87,0,0,1-.168.014.738.738,0,0,1-.567-.217.777.777,0,0,1-.2-.553.748.748,0,0,1,.231-.56A.783.783,0,0,1,535.512,10.572Zm8.54-.63h-1.54V12h-1.106V9.942h-3.92V9.4l3.584-6.468h1.442V8.99h1.54Zm-2.646-.952V3.684h-.182L538.368,8.99Zm6.608-6.244a2.736,2.736,0,0,1,1.666.525,3.35,3.35,0,0,1,1.106,1.519,6.4,6.4,0,0,1,.392,2.352,6.994,6.994,0,0,1-.462,2.639,4.184,4.184,0,0,1-1.239,1.757,2.66,2.66,0,0,1-1.687.616,2.768,2.768,0,0,1-1.477-.427,3.033,3.033,0,0,1-1.085-1.141l.448-.294a2.714,2.714,0,0,0,.9.966,2.073,2.073,0,0,0,1.134.35,1.763,1.763,0,0,0,1.617-1.092,6.814,6.814,0,0,0,.623-2.912,2.83,2.83,0,0,1-.875.756,2.51,2.51,0,0,1-1.267.308,2.883,2.883,0,0,1-1.365-.336,2.576,2.576,0,0,1-1.022-.98,2.947,2.947,0,0,1-.385-1.54,3.14,3.14,0,0,1,.406-1.617,2.846,2.846,0,0,1,1.085-1.071A3.014,3.014,0,0,1,548.014,2.746Zm.07,5.4a1.621,1.621,0,0,0,1.183-.476,2.5,2.5,0,0,0,.665-1.134,5.319,5.319,0,0,0-.637-2.492,1.655,1.655,0,0,0-1.463-.854,1.309,1.309,0,0,0-1.211.644,3.307,3.307,0,0,0-.385,1.708,3.067,3.067,0,0,0,.525,1.953A1.63,1.63,0,0,0,548.084,8.15Zm8.61-.994a2.678,2.678,0,0,1,1.323.84,2.3,2.3,0,0,1,.511,1.54,2.34,2.34,0,0,1-.448,1.449,2.664,2.664,0,0,1-1.169.882,4.069,4.069,0,0,1-1.519.287,3.916,3.916,0,0,1-1.519-.294,2.7,2.7,0,0,1-1.148-.882,2.335,2.335,0,0,1-.441-1.442A2.3,2.3,0,0,1,552.795,8a2.678,2.678,0,0,1,1.323-.84,2.346,2.346,0,0,1-1.05-.742,2.071,2.071,0,0,1-.462-1.386A2,2,0,0,1,553,3.775a2.412,2.412,0,0,1,1.029-.77,3.626,3.626,0,0,1,1.379-.259A3.677,3.677,0,0,1,556.771,3a2.388,2.388,0,0,1,1.036.77,2,2,0,0,1,.4,1.26,2.071,2.071,0,0,1-.462,1.386A2.346,2.346,0,0,1,556.694,7.156Zm-1.288-3.948a1.537,1.537,0,0,0-1.183.511,1.94,1.94,0,0,0-.469,1.365,1.94,1.94,0,0,0,.469,1.365,1.633,1.633,0,0,0,2.373,0,1.958,1.958,0,0,0,.462-1.365,1.94,1.94,0,0,0-.469-1.365A1.537,1.537,0,0,0,555.406,3.208Zm0,8.5a1.78,1.78,0,0,0,1.358-.567A2.232,2.232,0,0,0,557.3,9.55,2.315,2.315,0,0,0,556.806,8a1.994,1.994,0,0,0-2.8,0,2.315,2.315,0,0,0-.49,1.554,2.232,2.232,0,0,0,.532,1.589A1.78,1.78,0,0,0,555.406,11.706Zm7,.448a2.6,2.6,0,0,1-1.589-.462,2.625,2.625,0,0,1-.9-1.19,4.33,4.33,0,0,1-.28-1.568,4.532,4.532,0,0,1,.294-1.617,2.9,2.9,0,0,1,.952-1.288,2.682,2.682,0,0,1,1.694-.511,3.035,3.035,0,0,1,1.974.658v1.5h-.714a2.03,2.03,0,0,0-.42-1.267,1.269,1.269,0,0,0-1.022-.469,1.394,1.394,0,0,0-1.274.686,3.306,3.306,0,0,0-.42,1.75,4.946,4.946,0,0,0,.238,1.533,2.921,2.921,0,0,0,.693,1.19,1.45,1.45,0,0,0,1.057.455,1.643,1.643,0,0,0,1.169-.455,2.045,2.045,0,0,0,.609-1.169h.434a2.575,2.575,0,0,1-.8,1.589A2.371,2.371,0,0,1,562.406,12.154Zm6.286,0a2.6,2.6,0,0,1-1.589-.462,2.625,2.625,0,0,1-.9-1.19,4.33,4.33,0,0,1-.28-1.568,4.532,4.532,0,0,1,.294-1.617,2.9,2.9,0,0,1,.952-1.288,2.682,2.682,0,0,1,1.694-.511,3.035,3.035,0,0,1,1.974.658v1.5h-.714a2.03,2.03,0,0,0-.42-1.267,1.269,1.269,0,0,0-1.022-.469,1.394,1.394,0,0,0-1.274.686,3.306,3.306,0,0,0-.42,1.75,4.946,4.946,0,0,0,.238,1.533,2.921,2.921,0,0,0,.693,1.19,1.45,1.45,0,0,0,1.057.455,1.643,1.643,0,0,0,1.169-.455,2.045,2.045,0,0,0,.609-1.169h.434a2.575,2.575,0,0,1-.8,1.589A2.371,2.371,0,0,1,568.692,12.154Zm3.6-2.282a13.973,13.973,0,0,1,2.758,3.052l.784-.742a14.264,14.264,0,0,0-2.814-2.968ZM16.889,27.6H14.173v6.818h7.742V27.6H18.037V26.158h4.844l.546.112v-.784l-.546.112H18.037v-.882c.168-.126.224-.2.224-.294,0-.126-.1-.182-.294-.182H16.889V25.6H11.471l-.56-.112v.784l.56-.112h5.418Zm-1.624,6.258V32.206h5.544v1.652Zm0-2.212v-1.47h5.544v1.47Zm0-2.03V28.16h5.544v1.456Zm-2.52,6.16v-7.07c.182-.126.224-.182.224-.28,0-.126-.1-.182-.294-.182H11.6v8.792h1.148v-.7h10.3l.56.112v-.784l-.56.112Zm12.39,1.19c3.7-1.6,5.432-4.088,6.216-8.974H27.977a21.787,21.787,0,0,0,.686-2.534h2.7l.56.112v-.784l-.56.112H25.457l-.546-.112v.784l.546-.112h1.96a17.478,17.478,0,0,1-2.688,6.818l.308.294a11.079,11.079,0,0,0,2.73-4.018h2.3A13.769,13.769,0,0,1,29.1,31.87a7.671,7.671,0,0,0-2-1.232l-.266.294a15,15,0,0,1,1.652,2.1A11.437,11.437,0,0,1,24.9,36.588Zm7.392-2.786h1.148V26.06c.168-.126.224-.182.224-.28,0-.126-.1-.182-.308-.182H32.527Zm1.162,2.2v.588h2c.84,0,1.19-.336,1.19-1.134V25.024c.182-.126.224-.182.224-.28,0-.126-.1-.182-.294-.182H35.705V35.72c-.014.49-.168.644-.658.658ZM42.635,31.1a2.38,2.38,0,0,1,1.96,2.324,2.4,2.4,0,0,1-.455,1.47,2.909,2.909,0,0,1-1.176.938,3.651,3.651,0,0,1-1.5.322,3.028,3.028,0,0,1-1.617-.434,3.2,3.2,0,0,1-1.113-1.134l.448-.28a2.249,2.249,0,0,0,.952.938,2.649,2.649,0,0,0,1.218.308,2.174,2.174,0,0,0,.973-.224,1.8,1.8,0,0,0,.742-.686,2.082,2.082,0,0,0,.287-1.12,1.987,1.987,0,0,0-.567-1.491,1.936,1.936,0,0,0-1.407-.553h-.35v-.434a2.373,2.373,0,0,0,.966-.21,1.825,1.825,0,0,0,.784-.665,1.991,1.991,0,0,0,.308-1.141,2.08,2.08,0,0,0-.392-1.281,1.484,1.484,0,0,0-2.331.084,3.071,3.071,0,0,0-.455,1.519h-.756V27.67A2.77,2.77,0,0,1,40.185,27a3.731,3.731,0,0,1,1.372-.252,3.39,3.39,0,0,1,1.358.266,2.357,2.357,0,0,1,.987.77,1.952,1.952,0,0,1,.371,1.19A2.294,2.294,0,0,1,42.635,31.1Zm8.022,2.38a18.812,18.812,0,0,1-4.312,3.038l.182.35a15.32,15.32,0,0,0,4.984-2.814,21.64,21.64,0,0,1,2.772,2.24l.8-1.134A28.415,28.415,0,0,0,52.337,33.3c.546-.532.84-.854,1.582-1.708h.07c.224,0,.448-.14.448-.28,0-.07-.084-.154-.182-.21l-1.064-.518A12.72,12.72,0,0,1,51.4,32.766a22.2,22.2,0,0,0-3.808-1.554l-.2.364A19.887,19.887,0,0,1,50.041,33.1Zm-1.512-7.434h8.638l.56.112v-.784l-.56.112h-8.26l.028-.028.042-.07c.112-.154.21-.322.322-.49.28-.028.434-.126.434-.266,0-.084-.1-.168-.2-.182l-1.274-.21A14.071,14.071,0,0,1,46.065,28.4l.238.294a9.178,9.178,0,0,0,2.814-2.6Zm7.644,3.444H47.507l-.546-.112v.784l.546-.112h8.12A15.823,15.823,0,0,0,56.593,36c.336.672.77,1.036,1.232,1.036.406,0,.686-.322.826-.91a10.821,10.821,0,0,0,.28-2.17l-.5-.1a10.248,10.248,0,0,1-.294,1.82c-.028.14-.112.238-.182.238-.1,0-.2-.126-.35-.49a14.811,14.811,0,0,1-.812-5.334ZM49.1,27.95h7.364l.56.112v-.784l-.56.112H49.1l-.546-.112v.784Zm23.114-1.778.56.112V25.5l-.56.112h-3.99c.112-.182.2-.308.406-.63.266-.042.406-.14.406-.294,0-.084-.1-.168-.238-.2l-1.05-.252A10.367,10.367,0,0,1,65.819,27.5l.266.224a5.5,5.5,0,0,0,1.736-1.554H69.1a10.659,10.659,0,0,1,.448,1.68l1.232-.392a4.193,4.193,0,0,0-1.05-1.288Zm-8.932,0a16.334,16.334,0,0,1,.42,1.68l1.19-.364a4.736,4.736,0,0,0-1.008-1.316h1.848l.56.112V25.5l-.56.112H62.683c.168-.238.238-.336.42-.63.266-.042.406-.14.406-.294,0-.084-.1-.168-.238-.2l-1.05-.252a11.169,11.169,0,0,1-2.156,3.4l.266.252a6.414,6.414,0,0,0,1.946-1.722Zm.2,5.88v4.312h1.078V35.272h4.858v-3.22Zm1.078,2.66v-2.1h3.78v2.1ZM63.453,30.68H69.5l.56.112v-.784l-.56.112H63.453l-.546-.112v.784Zm8.792-2.492H60.765v8.806h1.148V28.748H71.1v6.986c0,.434-.2.616-.63.616H69.039v.588h1.932c.9,0,1.274-.378,1.274-1.26Zm12.264-.056a39.391,39.391,0,0,1-.938,7.336.879.879,0,0,1-.9.42h-1.61v.644h2.408c1.078.014,1.4-.35,1.68-1.9a56.974,56.974,0,0,0,.728-7.14H80.575c.056-.616.084-1.19.084-1.764V25.36c.182-.112.266-.21.266-.336a.239.239,0,0,0-.252-.238l-1.47-.1.1.84v.21c0,.406-.028,1.022-.1,1.75H75.521l-.56-.112v.868l.56-.112h3.626a9.922,9.922,0,0,1-4.536,7.9l.168.336c3.374-1.246,5.292-4,5.74-8.232Zm2.576-2.548A2.845,2.845,0,0,0,85.461,24.1l-.238.2a5.614,5.614,0,0,1,.91,1.764Zm-3.472-1.106a5.317,5.317,0,0,1,.784,1.834l.966-.434A2.845,2.845,0,0,0,83.879,24.3Zm7.112,11.816a9.737,9.737,0,0,0,6.5-3.486c1.162-1.456,1.89-3.416,2.394-6.468.238-.112.35-.224.35-.378,0-.112-.1-.21-.252-.238l-1.456-.336-.028.8a13.451,13.451,0,0,1-2.016,5.866,9.861,9.861,0,0,1-5.6,3.78Zm-1.61-10.276a16.417,16.417,0,0,1,2.31,4.354L92.8,29.49a8.8,8.8,0,0,0-3.4-3.738Zm17.332,10.836a8.793,8.793,0,0,0,3.836-1.526c1.806-1.372,2.268-2.674,2.254-6.3v-3.64c.21-.14.28-.238.28-.364a.252.252,0,0,0-.266-.238l-1.442-.1.126.84v3.584c-.014,3.052-.322,4.13-1.582,5.4a8.115,8.115,0,0,1-3.3,1.918Zm-1.974-11.116v6.8h1.3v-6.93c.21-.154.28-.252.28-.364a.252.252,0,0,0-.266-.238l-1.442-.112Zm23.884,1.5a13.9,13.9,0,0,1-3.57,4.536,13.168,13.168,0,0,1-6.426,2.842l-.742.014.5,1.246c.084.2.21.308.35.308s.266-.1.364-.322a13.58,13.58,0,0,0,6.874-3.29,11.8,11.8,0,0,0,3.038-5.152ZM117.493,25.71a13.161,13.161,0,0,1,3.486,3l1.148-1.162a8.64,8.64,0,0,0-4.466-2.2Zm19.026,3.458a1.519,1.519,0,1,0,1.5,1.512A1.521,1.521,0,0,0,136.519,29.168Zm13.244,5.4h-4.816l-.63-.126v.9l.63-.126h11.116l.63.126v-.9l-.63.126h-4.942V26.83h3.668l.616.126v-.9l-.616.126h-8.568l-.616-.126v.9l.616-.126h3.542Zm20.594-7.336a13.9,13.9,0,0,1-3.57,4.536,13.168,13.168,0,0,1-6.426,2.842l-.742.014.5,1.246c.084.2.21.308.35.308s.266-.1.364-.322a13.58,13.58,0,0,0,6.874-3.29,11.8,11.8,0,0,0,3.038-5.152ZM159.493,25.71a13.161,13.161,0,0,1,3.486,3l1.148-1.162a8.64,8.64,0,0,0-4.466-2.2Zm24.85-.112a2.809,2.809,0,0,0-1.624-1.484l-.238.2a5.345,5.345,0,0,1,.924,1.764Zm-.35,2.352a11.207,11.207,0,0,1-2.366,3.626,11.637,11.637,0,0,1-7.042,3.416l-.672.014.5,1.176c.084.21.2.308.336.308s.238-.07.35-.28c3.416-.686,5.712-1.932,7.308-3.934a10.763,10.763,0,0,0,2-4.172Zm-9.912-2.156a13.582,13.582,0,0,1,3.6,1.708l.742-1.246a8.957,8.957,0,0,0-4.256-.854Zm6.678-1.3a6.182,6.182,0,0,1,.826,1.946l.938-.42a2.786,2.786,0,0,0-1.512-1.708Zm-7.364,5.25a12.582,12.582,0,0,1,3.584,1.554l.714-1.26a7.924,7.924,0,0,0-3.514-.686c-.168,0-.392,0-.7.014Zm24.962-2.506a13.9,13.9,0,0,1-3.57,4.536,13.168,13.168,0,0,1-6.426,2.842l-.742.014.5,1.246c.084.2.21.308.35.308s.266-.1.364-.322a13.58,13.58,0,0,0,6.874-3.29,11.8,11.8,0,0,0,3.038-5.152ZM187.493,25.71a13.161,13.161,0,0,1,3.486,3l1.148-1.162a8.64,8.64,0,0,0-4.466-2.2Zm16.744,10.4a8.417,8.417,0,0,0-3.906-2.674l-.266.336a12.5,12.5,0,0,1,3.024,3.346Zm15.834-6.09h6.314l.56.112V29.35l-.56.112h-11.76l-.56-.112v.784l.56-.112h.7V35.37c-.112.028-.182.028-.378.056-.294.042-.588.084-.882.112l.392,1.022c.056.14.154.224.252.224s.2-.084.266-.28a28.609,28.609,0,0,0,4.06-1.386v2h1.036Zm-1.036,1.708v1.246h-2.674V31.73Zm-2.674-.56V30.022h2.674V31.17Zm2.674,2.366v1.12l-.28.056c-.7.168-1.722.378-2.394.49V33.536Zm1.456,3.584a7.656,7.656,0,0,0,3.108-1.68,7.157,7.157,0,0,0,2.744,1.6,7.055,7.055,0,0,1,.6-1.092A7.768,7.768,0,0,1,224.3,34.7a11.956,11.956,0,0,0,1.988-3.7h-5.026l-.56-.112v.784l.56-.112h.168a7.722,7.722,0,0,0,1.582,3.262,7.151,7.151,0,0,1-2.688,1.946Zm4.4-5.558a11.184,11.184,0,0,1-1.316,2.548,6.5,6.5,0,0,1-1.652-2.548Zm-9-6.818v3.738h9.31V24.744Zm1.12,3.178V26.858h7.042v1.064Zm0-1.624V25.3h7.042V26.3Zm16.8-.588h-5.1l-.56-.112v.784l.56-.112h11.578l.56.112V25.6l-.56.112h-5.208v-.994c.182-.14.224-.2.224-.28,0-.14-.1-.2-.294-.2h-1.2ZM240.259,31H228.737v6.034H229.9V31.562h9.2V35.79c-.014.434-.154.574-.588.588h-1.19v.588h1.722c.854,0,1.232-.35,1.218-1.162Zm-8.932,1.6V36h1.106v-.644h5V32.6Zm1.106,2.2V33.158h3.906V34.8Zm6.146-4.858V27.292h-8.162v2.646Zm-7-.56V27.852h5.838v1.526Zm16.254,6.216h-3.962V31.912c.182-.126.224-.182.224-.28,0-.126-.1-.182-.294-.182h-1.134v5.488h1.2v-.784h9.268v.7h1.2V31.912c.182-.14.224-.182.224-.28,0-.126-.1-.182-.294-.182h-1.134v4.144h-4.1v-5.4h4.648V25.934c.182-.126.224-.182.224-.28,0-.126-.1-.182-.294-.182h-1.134V29.63h-3.444V24.786c.168-.126.224-.182.224-.28,0-.126-.1-.182-.294-.182h-1.134V29.63h-3.318v-3.7c.182-.126.224-.182.224-.28,0-.126-.1-.182-.294-.182h-1.134V30.19h4.522Zm12.81-8.092a17.712,17.712,0,0,1-.8,4.522,8.413,8.413,0,0,1-3.78,4.494l.21.448a8.366,8.366,0,0,0,4.55-4.116,15.055,15.055,0,0,0,1.092-5.348h4.788c-.07,2.156-.336,6.02-.476,6.972-.126,1.344-.364,1.666-1.2,1.652h-1.862v.658h2.52c1.19.014,1.694-.462,1.82-1.736.154-.98.476-6.146.532-8.134h-6.09c.042-.476.056-.924.056-1.386V24.7c.168-.126.224-.182.224-.28,0-.126-.1-.182-.294-.182h-1.218v1.288c0,.336-.014.826-.042,1.386h-3.7l-.546-.112v.812l.546-.112ZM275.259,35.5V36h-3.92v-.5h1.442V28.034l-1.386.9-.294-.448,2.31-1.554h.476V35.5Zm7.336,0V36h-3.92v-.5h1.442V28.034l-1.386.9-.294-.448,2.31-1.554h.476V35.5Zm5.278-5.39a2.932,2.932,0,0,1,1.365.329,2.594,2.594,0,0,1,1.036.987,2.967,2.967,0,0,1,.4,1.568,3.128,3.128,0,0,1-.462,1.736,2.984,2.984,0,0,1-1.169,1.071,3.293,3.293,0,0,1-3.1-.063,2.978,2.978,0,0,1-1.134-1.148l.448-.28a2.414,2.414,0,0,0,.924.938,2.559,2.559,0,0,0,1.274.322,1.815,1.815,0,0,0,.987-.287,2.057,2.057,0,0,0,.735-.847,2.943,2.943,0,0,0,.28-1.33,2.811,2.811,0,0,0-.28-1.309,1.885,1.885,0,0,0-.735-.8,1.961,1.961,0,0,0-.987-.259,1.6,1.6,0,0,0-.84.21,2.617,2.617,0,0,0-.63.532h-.546l.336-4.55h4.452v1.12h-4.018l-.2,2.716a2.47,2.47,0,0,1,.8-.476A2.975,2.975,0,0,1,287.873,30.106Zm10.486,5.474V36h-1.89L294.2,32.822h-.448V35.58h.868V36h-2.814v-.42h.9V26.858H291.7v-.406l2.058-.126v6.02h.476l2.142-2.254h-.952v-.42h2.548v.42h-.882l-2.016,2.142,2.45,3.346ZM311.9,27.432h-1.036L308.439,36H307.8l-2.506-7.084L303.007,36h-.644L299.8,27.432H298.7v-.5h3.5v.5h-1.12l1.918,6.678,2.282-7.126h.588l2.562,7.084,1.834-6.636h-1.106v-.5H311.9Zm5.1-1.036h.588l-4.55,9.968h-.588Zm4.606,3.71a2.932,2.932,0,0,1,1.365.329,2.594,2.594,0,0,1,1.036.987,2.967,2.967,0,0,1,.4,1.568,3.128,3.128,0,0,1-.462,1.736,2.984,2.984,0,0,1-1.169,1.071,3.293,3.293,0,0,1-3.1-.063,2.978,2.978,0,0,1-1.134-1.148l.448-.28a2.414,2.414,0,0,0,.924.938,2.559,2.559,0,0,0,1.274.322,1.815,1.815,0,0,0,.987-.287,2.057,2.057,0,0,0,.735-.847,2.943,2.943,0,0,0,.28-1.33,2.811,2.811,0,0,0-.28-1.309,1.885,1.885,0,0,0-.735-.8,1.961,1.961,0,0,0-.987-.259,1.6,1.6,0,0,0-.84.21,2.617,2.617,0,0,0-.63.532h-.546l.336-4.55h4.452v1.12h-4.018l-.2,2.716a2.47,2.47,0,0,1,.8-.476A2.975,2.975,0,0,1,321.6,30.106Zm5.11,4.466a.81.81,0,0,1,.623.287,1.159,1.159,0,0,1,.259.805,2.1,2.1,0,0,1-.392,1.26,2.731,2.731,0,0,1-1.064.868l-.21-.336a2.041,2.041,0,0,0,.637-.525,1.091,1.091,0,0,0,.3-.693.424.424,0,0,0-.014-.126.869.869,0,0,1-.168.014.738.738,0,0,1-.567-.217.777.777,0,0,1-.2-.553.748.748,0,0,1,.231-.56A.783.783,0,0,1,326.709,34.572Zm5.208,1.582a2.6,2.6,0,0,1-1.68-.588,3.758,3.758,0,0,1-1.127-1.659,7.743,7.743,0,0,1,0-4.907,3.734,3.734,0,0,1,1.134-1.652,2.727,2.727,0,0,1,3.374-.007,3.684,3.684,0,0,1,1.134,1.645,7.679,7.679,0,0,1-.007,4.907,3.831,3.831,0,0,1-1.141,1.666A2.606,2.606,0,0,1,331.917,36.154Zm.014-.448a1.585,1.585,0,0,0,1.456-1.092,7.807,7.807,0,0,0,.5-3.164,7.762,7.762,0,0,0-.5-3.15,1.517,1.517,0,0,0-2.912,0,7.762,7.762,0,0,0-.5,3.15,7.807,7.807,0,0,0,.5,3.164A1.585,1.585,0,0,0,331.931,35.706Zm7.322.448a2.6,2.6,0,0,1-1.68-.588,3.758,3.758,0,0,1-1.127-1.659,7.743,7.743,0,0,1,0-4.907,3.734,3.734,0,0,1,1.134-1.652,2.727,2.727,0,0,1,3.374-.007,3.684,3.684,0,0,1,1.134,1.645,7.679,7.679,0,0,1-.007,4.907,3.831,3.831,0,0,1-1.141,1.666A2.606,2.606,0,0,1,339.253,36.154Zm.014-.448a1.585,1.585,0,0,0,1.456-1.092,7.807,7.807,0,0,0,.5-3.164,7.762,7.762,0,0,0-.5-3.15,1.517,1.517,0,0,0-2.912,0,7.762,7.762,0,0,0-.5,3.15,7.807,7.807,0,0,0,.5,3.164A1.585,1.585,0,0,0,339.267,35.706Zm7.322.448a2.6,2.6,0,0,1-1.68-.588,3.758,3.758,0,0,1-1.127-1.659,7.743,7.743,0,0,1,0-4.907,3.734,3.734,0,0,1,1.134-1.652,2.727,2.727,0,0,1,3.374-.007,3.684,3.684,0,0,1,1.134,1.645,7.679,7.679,0,0,1-.007,4.907,3.831,3.831,0,0,1-1.141,1.666A2.606,2.606,0,0,1,346.589,36.154Zm.014-.448a1.585,1.585,0,0,0,1.456-1.092,7.807,7.807,0,0,0,.5-3.164,7.762,7.762,0,0,0-.5-3.15,1.517,1.517,0,0,0-2.912,0,7.762,7.762,0,0,0-.5,3.15,7.807,7.807,0,0,0,.5,3.164A1.585,1.585,0,0,0,346.6,35.706Zm7.63-6.188a1.569,1.569,0,0,1,.588.112,1.034,1.034,0,0,1,.42.28v1.246h-.616a.853.853,0,0,0-.938-.854.873.873,0,0,0-.77.518,2.456,2.456,0,0,0-.294,1.232V35.58h1.2V36h-3.178v-.42h.924V30.092h-.91v-.406l1.918-.112.014,1.008a1.9,1.9,0,0,1,1.638-1.064Zm4.83,0a2.521,2.521,0,0,1,2.387,1.512,3.935,3.935,0,0,1,.343,1.694,4.27,4.27,0,0,1-.35,1.771,2.881,2.881,0,0,1-.987,1.218,2.685,2.685,0,0,1-2.464.252,1.991,1.991,0,0,1-.749-.525v3.136h1.008V39h-3.08v-.42h1.022v-8.9h1.036l.014.588a1.842,1.842,0,0,1,.756-.546A2.77,2.77,0,0,1,359.063,29.518Zm-.084,6.16a1.393,1.393,0,0,0,1.26-.63,3.632,3.632,0,0,0,.406-1.932,4.63,4.63,0,0,0-.476-2.289,1.55,1.55,0,0,0-2.485-.364,1.7,1.7,0,0,0-.441,1.211V34.1a1.464,1.464,0,0,0,.49,1.141A1.792,1.792,0,0,0,358.979,35.678Zm13.706-.1V36h-2.674v-.42h.714V31.548a2.072,2.072,0,0,0-.266-1.169.92.92,0,0,0-.812-.385,1.284,1.284,0,0,0-1,.448,1.642,1.642,0,0,0-.4,1.134v4h.8V36H366.4v-.42h.8V31.548a2.072,2.072,0,0,0-.266-1.169.92.92,0,0,0-.812-.385,1.3,1.3,0,0,0-1.015.448,1.641,1.641,0,0,0-.4,1.134v4h.742V36h-2.716v-.42h.924V30.092h-.9v-.406l1.918-.112.028.658a1.98,1.98,0,0,1,1.68-.714,2.066,2.066,0,0,1,1.008.245,1.515,1.515,0,0,1,.658.679,1.777,1.777,0,0,1,.728-.686,2.291,2.291,0,0,1,1.064-.238q1.932,0,1.932,2.184V35.58Zm4.97.532a8.417,8.417,0,0,0-3.906-2.674l-.266.336a12.5,12.5,0,0,1,3.024,3.346Zm15.834-6.09H399.8l.56.112V29.35l-.56.112h-11.76l-.56-.112v.784l.56-.112h.7V35.37c-.112.028-.182.028-.378.056-.294.042-.588.084-.882.112l.392,1.022c.056.14.154.224.252.224s.2-.084.266-.28a28.61,28.61,0,0,0,4.06-1.386v2h1.036Zm-1.036,1.708v1.246h-2.674V31.73Zm-2.674-.56V30.022h2.674V31.17Zm2.674,2.366v1.12l-.28.056c-.7.168-1.722.378-2.394.49V33.536Zm1.456,3.584a7.656,7.656,0,0,0,3.108-1.68,7.157,7.157,0,0,0,2.744,1.6,7.054,7.054,0,0,1,.6-1.092,7.768,7.768,0,0,1-2.646-1.246,11.957,11.957,0,0,0,1.988-3.7h-5.026l-.56-.112v.784l.56-.112h.168a7.721,7.721,0,0,0,1.582,3.262,7.151,7.151,0,0,1-2.688,1.946Zm4.4-5.558a11.184,11.184,0,0,1-1.316,2.548,6.5,6.5,0,0,1-1.652-2.548Zm-9-6.818v3.738h9.31V24.744Zm1.12,3.178V26.858h7.042v1.064Zm0-1.624V25.3h7.042V26.3Zm23.086,2.408.588.112v-.854l-.588.112h-5.278l.014-.042c.1-.98.168-2.03.168-2.814v-.434c.182-.126.224-.182.224-.28,0-.126-.1-.182-.294-.182h-1.2v.924c.014.406-.1,2-.182,2.786l-.014.042h-4.606l-.588-.112v.854l.588-.112h4.536a9.866,9.866,0,0,1-5.39,7.952l.224.378a9.277,9.277,0,0,0,6.384-7.8,11.733,11.733,0,0,0,5.516,7.728,8.245,8.245,0,0,1,.756-1.4,11.731,11.731,0,0,1-4.564-3.892,8.713,8.713,0,0,1-1.442-2.968Zm7.238-3.374c.182-.1.28-.21.28-.336s-.112-.224-.28-.238l-1.4-.1.1.84V36.672h1.3v-7.42a13.907,13.907,0,0,1,5.222,3.612l.952-1.274a14.941,14.941,0,0,0-6.174-2.856Zm15.568,11.116a6.936,6.936,0,0,0,4.158-2.534,9.8,9.8,0,0,0,2.03-4.606l-.434-.14c-.924,2.632-2.674,4.774-4.508,5.516V25.64c.21-.14.28-.238.28-.364a.262.262,0,0,0-.266-.238l-1.386-.1.126.84Zm-6.622.042a7.681,7.681,0,0,0,3.136-3.332,13.044,13.044,0,0,0,.826-5.46V26.116c.21-.14.28-.238.28-.364a.252.252,0,0,0-.266-.238l-1.428-.1.126.84v1.568c0,4.256-.672,6.174-2.926,8.3Zm19.81-9.912c.154-.308.28-.616.49-1.162.266-.126.364-.21.364-.364,0-.126-.1-.21-.308-.252l-1.316-.28-.14.8a11.936,11.936,0,0,1-3.766,5.572l.224.336a9.394,9.394,0,0,0,4.116-4h4.382a12.226,12.226,0,0,1-3.416,6.272,13.759,13.759,0,0,1-5.25,2.744l.084.42a12.464,12.464,0,0,0,5.628-2.142,12.114,12.114,0,0,0,4.494-7.938Zm13.9,8.33V36h-5.5v-.49q1.778-1.932,2.6-2.919a8.874,8.874,0,0,0,1.176-1.729,3.541,3.541,0,0,0,.357-1.554,2.3,2.3,0,0,0-.455-1.547,1.477,1.477,0,0,0-1.169-.525,1.383,1.383,0,0,0-1.218.616,2.96,2.96,0,0,0-.476,1.512h-.756v-1.68a2.618,2.618,0,0,1,1.05-.672,3.994,3.994,0,0,1,1.414-.252,3.711,3.711,0,0,1,1.351.252,2.42,2.42,0,0,1,1.078.819,2.343,2.343,0,0,1,.427,1.449,2.588,2.588,0,0,1-.336,1.267A8.06,8.06,0,0,1,461.83,32q-.777.847-2.807,2.905Zm5.32-3.808a2.38,2.38,0,0,1,1.96,2.324,2.406,2.406,0,0,1-.455,1.47,2.909,2.909,0,0,1-1.176.938,3.651,3.651,0,0,1-1.505.322,3.028,3.028,0,0,1-1.617-.434,3.2,3.2,0,0,1-1.113-1.134l.448-.28a2.249,2.249,0,0,0,.952.938,2.649,2.649,0,0,0,1.218.308,2.173,2.173,0,0,0,.973-.224,1.8,1.8,0,0,0,.742-.686,2.082,2.082,0,0,0,.287-1.12,1.987,1.987,0,0,0-.567-1.491,1.936,1.936,0,0,0-1.407-.553h-.35v-.434a2.372,2.372,0,0,0,.966-.21,1.825,1.825,0,0,0,.784-.665,1.991,1.991,0,0,0,.308-1.141,2.08,2.08,0,0,0-.392-1.281,1.484,1.484,0,0,0-2.331.084,3.071,3.071,0,0,0-.455,1.519h-.756V27.67A2.77,2.77,0,0,1,466.275,27a3.731,3.731,0,0,1,1.372-.252,3.39,3.39,0,0,1,1.358.266,2.357,2.357,0,0,1,.987.77,1.952,1.952,0,0,1,.371,1.19A2.294,2.294,0,0,1,468.725,31.1Zm6.524,5.054a2.6,2.6,0,0,1-1.68-.588,3.758,3.758,0,0,1-1.127-1.659,7.743,7.743,0,0,1,0-4.907,3.734,3.734,0,0,1,1.134-1.652,2.727,2.727,0,0,1,3.374-.007,3.684,3.684,0,0,1,1.134,1.645,7.679,7.679,0,0,1-.007,4.907,3.831,3.831,0,0,1-1.141,1.666A2.606,2.606,0,0,1,475.249,36.154Zm.014-.448a1.585,1.585,0,0,0,1.456-1.092,7.807,7.807,0,0,0,.5-3.164,7.762,7.762,0,0,0-.5-3.15,1.517,1.517,0,0,0-2.912,0,7.762,7.762,0,0,0-.5,3.15,7.807,7.807,0,0,0,.5,3.164A1.585,1.585,0,0,0,475.263,35.706Zm4.13-.21h1.12V27.432h-1.12v-.5h2.282l4.214,6.8v-6.3h-1.12v-.5h2.842v.5h-1.12V36h-.644l-4.732-7.714V35.5h1.12V36h-2.842Zm18.872.084V36h-2.674v-.42h.714V31.548a2.072,2.072,0,0,0-.266-1.169.92.92,0,0,0-.812-.385,1.284,1.284,0,0,0-1,.448,1.642,1.642,0,0,0-.4,1.134v4h.8V36h-2.646v-.42h.8V31.548a2.072,2.072,0,0,0-.266-1.169.92.92,0,0,0-.812-.385,1.3,1.3,0,0,0-1.015.448,1.641,1.641,0,0,0-.4,1.134v4h.742V36h-2.716v-.42h.924V30.092h-.9v-.406l1.918-.112.028.658a1.98,1.98,0,0,1,1.68-.714,2.066,2.066,0,0,1,1.008.245,1.515,1.515,0,0,1,.658.679,1.777,1.777,0,0,1,.728-.686,2.291,2.291,0,0,1,1.064-.238q1.932,0,1.932,2.184V35.58Zm5.25-9.184h.588l-4.55,9.968h-.588Zm6.664,9.1V36h-3.92v-.5H507.7V28.034l-1.386.9-.294-.448,2.31-1.554h.476V35.5Zm3.052-.924a.81.81,0,0,1,.623.287,1.159,1.159,0,0,1,.259.805,2.1,2.1,0,0,1-.392,1.26,2.731,2.731,0,0,1-1.064.868l-.21-.336a2.042,2.042,0,0,0,.637-.525,1.091,1.091,0,0,0,.3-.693.425.425,0,0,0-.014-.126.87.87,0,0,1-.168.014.738.738,0,0,1-.567-.217.777.777,0,0,1-.2-.553.748.748,0,0,1,.231-.56A.783.783,0,0,1,513.231,34.572Zm5.11-4.466a2.932,2.932,0,0,1,1.365.329,2.594,2.594,0,0,1,1.036.987,2.967,2.967,0,0,1,.4,1.568,3.128,3.128,0,0,1-.462,1.736A2.984,2.984,0,0,1,519.51,35.8a3.293,3.293,0,0,1-3.1-.063,2.978,2.978,0,0,1-1.134-1.148l.448-.28a2.414,2.414,0,0,0,.924.938,2.559,2.559,0,0,0,1.274.322,1.815,1.815,0,0,0,.987-.287,2.057,2.057,0,0,0,.735-.847,2.942,2.942,0,0,0,.28-1.33,2.811,2.811,0,0,0-.28-1.309,1.885,1.885,0,0,0-.735-.8,1.962,1.962,0,0,0-.987-.259,1.6,1.6,0,0,0-.84.21,2.616,2.616,0,0,0-.63.532h-.546l.336-4.55h4.452v1.12h-4.018l-.2,2.716a2.47,2.47,0,0,1,.8-.476A2.975,2.975,0,0,1,518.341,30.106Zm7.294,6.048a2.6,2.6,0,0,1-1.68-.588,3.758,3.758,0,0,1-1.127-1.659,7.743,7.743,0,0,1,0-4.907,3.733,3.733,0,0,1,1.134-1.652,2.727,2.727,0,0,1,3.374-.007,3.683,3.683,0,0,1,1.134,1.645,7.679,7.679,0,0,1-.007,4.907,3.831,3.831,0,0,1-1.141,1.666A2.606,2.606,0,0,1,525.635,36.154Zm.014-.448a1.585,1.585,0,0,0,1.456-1.092,7.807,7.807,0,0,0,.5-3.164,7.762,7.762,0,0,0-.5-3.15,1.517,1.517,0,0,0-2.912,0,7.762,7.762,0,0,0-.5,3.15,7.807,7.807,0,0,0,.5,3.164A1.585,1.585,0,0,0,525.649,35.706Zm7.322.448a2.6,2.6,0,0,1-1.68-.588,3.758,3.758,0,0,1-1.127-1.659,7.743,7.743,0,0,1,0-4.907,3.733,3.733,0,0,1,1.134-1.652,2.727,2.727,0,0,1,3.374-.007,3.683,3.683,0,0,1,1.134,1.645,7.679,7.679,0,0,1-.007,4.907,3.831,3.831,0,0,1-1.141,1.666A2.606,2.606,0,0,1,532.971,36.154Zm.014-.448a1.585,1.585,0,0,0,1.456-1.092,7.807,7.807,0,0,0,.5-3.164,7.762,7.762,0,0,0-.5-3.15,1.517,1.517,0,0,0-2.912,0,7.762,7.762,0,0,0-.5,3.15,7.807,7.807,0,0,0,.5,3.164A1.585,1.585,0,0,0,532.985,35.706Zm4.214-3.654h3.066V32.6H537.2Zm10.6,1.89h-1.54V36h-1.106V33.942h-3.92V33.4l3.584-6.468h1.442V32.99h1.54Zm-2.646-.952V27.684h-.182l-2.856,5.306Zm4.466,1.582a.81.81,0,0,1,.623.287,1.159,1.159,0,0,1,.259.805,2.105,2.105,0,0,1-.392,1.26,2.731,2.731,0,0,1-1.064.868l-.21-.336a2.042,2.042,0,0,0,.637-.525,1.091,1.091,0,0,0,.3-.693.424.424,0,0,0-.014-.126.87.87,0,0,1-.168.014.738.738,0,0,1-.567-.217.777.777,0,0,1-.2-.553.748.748,0,0,1,.231-.56A.783.783,0,0,1,549.617,34.572Zm5.558-4.34a2.932,2.932,0,0,1,1.365.329,2.527,2.527,0,0,1,1.022.973,2.919,2.919,0,0,1,.385,1.526,3.2,3.2,0,0,1-.4,1.6,2.855,2.855,0,0,1-1.085,1.1,2.994,2.994,0,0,1-1.512.392,2.688,2.688,0,0,1-1.666-.539,3.4,3.4,0,0,1-1.1-1.533,6.416,6.416,0,0,1-.385-2.324,6.811,6.811,0,0,1,.476-2.639,4.228,4.228,0,0,1,1.267-1.757,2.735,2.735,0,0,1,1.715-.616,2.583,2.583,0,0,1,1.309.35,3.152,3.152,0,0,1,1.043.994l-.42.35a2.958,2.958,0,0,0-.847-.84,1.881,1.881,0,0,0-1.029-.308,1.79,1.79,0,0,0-1.631,1.1,6.8,6.8,0,0,0-.651,2.905,2.83,2.83,0,0,1,.875-.756A2.51,2.51,0,0,1,555.175,30.232Zm.014,5.474a1.269,1.269,0,0,0,1.169-.651,3.315,3.315,0,0,0,.385-1.7,3.038,3.038,0,0,0-.532-1.953,1.679,1.679,0,0,0-2.5-.175,2.4,2.4,0,0,0-.651,1.134,5.043,5.043,0,0,0,.672,2.485A1.7,1.7,0,0,0,555.189,35.706Zm6.972.448a2.6,2.6,0,0,1-1.68-.588,3.758,3.758,0,0,1-1.127-1.659,7.743,7.743,0,0,1,0-4.907,3.733,3.733,0,0,1,1.134-1.652,2.727,2.727,0,0,1,3.374-.007A3.683,3.683,0,0,1,565,28.986a7.679,7.679,0,0,1-.007,4.907,3.831,3.831,0,0,1-1.141,1.666A2.606,2.606,0,0,1,562.161,36.154Zm.014-.448a1.585,1.585,0,0,0,1.456-1.092,7.807,7.807,0,0,0,.5-3.164,7.762,7.762,0,0,0-.5-3.15,1.517,1.517,0,0,0-2.912,0,7.762,7.762,0,0,0-.5,3.15,7.807,7.807,0,0,0,.5,3.164A1.585,1.585,0,0,0,562.175,35.706Zm7.322.448a2.6,2.6,0,0,1-1.68-.588,3.758,3.758,0,0,1-1.127-1.659,7.743,7.743,0,0,1,0-4.907,3.733,3.733,0,0,1,1.134-1.652,2.727,2.727,0,0,1,3.374-.007,3.683,3.683,0,0,1,1.134,1.645,7.679,7.679,0,0,1-.007,4.907,3.831,3.831,0,0,1-1.141,1.666A2.606,2.606,0,0,1,569.5,36.154Zm.014-.448a1.585,1.585,0,0,0,1.456-1.092,7.807,7.807,0,0,0,.5-3.164,7.762,7.762,0,0,0-.5-3.15,1.517,1.517,0,0,0-2.912,0,7.762,7.762,0,0,0-.5,3.15,7.807,7.807,0,0,0,.5,3.164A1.585,1.585,0,0,0,569.511,35.706Zm7.63-6.188a1.568,1.568,0,0,1,.588.112,1.033,1.033,0,0,1,.42.28v1.246h-.616a.853.853,0,0,0-.938-.854.873.873,0,0,0-.77.518,2.456,2.456,0,0,0-.294,1.232V35.58h1.2V36h-3.178v-.42h.924V30.092h-.91v-.406l1.918-.112.014,1.008a1.9,1.9,0,0,1,1.638-1.064Zm4.83,0a2.521,2.521,0,0,1,2.387,1.512,3.934,3.934,0,0,1,.343,1.694,4.269,4.269,0,0,1-.35,1.771,2.881,2.881,0,0,1-.987,1.218,2.685,2.685,0,0,1-2.464.252,1.991,1.991,0,0,1-.749-.525v3.136h1.008V39h-3.08v-.42H579.1v-8.9h1.036l.014.588a1.843,1.843,0,0,1,.756-.546A2.77,2.77,0,0,1,581.971,29.518Zm-.084,6.16a1.392,1.392,0,0,0,1.26-.63,3.632,3.632,0,0,0,.406-1.932,4.63,4.63,0,0,0-.476-2.289,1.55,1.55,0,0,0-2.485-.364,1.7,1.7,0,0,0-.441,1.211V34.1a1.464,1.464,0,0,0,.49,1.141A1.792,1.792,0,0,0,581.887,35.678Zm13.706-.1V36h-2.674v-.42h.714V31.548a2.072,2.072,0,0,0-.266-1.169.92.92,0,0,0-.812-.385,1.284,1.284,0,0,0-1,.448,1.641,1.641,0,0,0-.4,1.134v4h.8V36h-2.646v-.42h.8V31.548a2.072,2.072,0,0,0-.266-1.169.92.92,0,0,0-.812-.385,1.3,1.3,0,0,0-1.015.448,1.642,1.642,0,0,0-.4,1.134v4h.742V36h-2.716v-.42h.924V30.092h-.9v-.406l1.918-.112.028.658a1.98,1.98,0,0,1,1.68-.714,2.066,2.066,0,0,1,1.008.245,1.516,1.516,0,0,1,.658.679,1.777,1.777,0,0,1,.728-.686,2.291,2.291,0,0,1,1.064-.238q1.932,0,1.932,2.184V35.58Zm3.024-2.842a2.191,2.191,0,1,0,2.156,2.184A2.193,2.193,0,0,0,598.617,32.738Zm-.056.644a1.547,1.547,0,1,1-1.526,1.54A1.548,1.548,0,0,1,598.561,33.382Z" transform="translate(0 358.441)" fill="#111"/>
    </g>
    <path id="パス_30923" data-name="パス 30923" d="M-50.568-1.728h3.84V-29.376h-3.84V-31.1h8.208L-31.8-7.056-21.624-31.1h8.016v1.728h-3.84V-1.728h3.84V0h-11.76V-1.728h3.84v-24.24L-31.8-1.776h-2.208L-44.664-26.16V-1.728h3.7V0h-9.6Zm53.616,0V0H-10.44V-1.728h4.7V-29.376h-4.512V-31.1h13.1v1.728H-1.656V-1.728Zm3.168,0h3.84V-29.376H6.216V-31.1H14.04L28.488-7.776v-21.6h-3.84V-31.1h9.744v1.728h-3.84V0H28.344L12.12-26.448v24.72h3.84V0H6.216Zm44.352,0V0H37.08V-1.728h4.7V-29.376H37.272V-31.1h13.1v1.728H45.864V-1.728Zm-146.16,50.3a12.661,12.661,0,0,1-7.848-2.3,12.931,12.931,0,0,1-4.392-5.88,21.175,21.175,0,0,1-1.344-7.512,22.739,22.739,0,0,1,1.392-7.944,13.827,13.827,0,0,1,4.464-6.192,12.168,12.168,0,0,1,7.776-2.424,14.621,14.621,0,0,1,5.4.888,16.1,16.1,0,0,1,4.008,2.28v5.76h-2.736q-.384-3.84-2.3-5.616a6.671,6.671,0,0,0-4.7-1.776,7.547,7.547,0,0,0-6.792,3.432,15.976,15.976,0,0,0-2.232,8.856,29.339,29.339,0,0,0,1.032,7.92,14.364,14.364,0,0,0,3.192,6.024A7.033,7.033,0,0,0-95.3,46.416,8.407,8.407,0,0,0-90.12,44.64,8.352,8.352,0,0,0-87.048,39.5h1.824a10.917,10.917,0,0,1-1.92,4.656,10.716,10.716,0,0,1-3.7,3.24A9.956,9.956,0,0,1-95.592,48.576Zm26.928,0a12.2,12.2,0,0,1-7.512-2.208,12.615,12.615,0,0,1-4.3-5.736,21.056,21.056,0,0,1-1.344-7.56,23.225,23.225,0,0,1,1.368-7.9A14.107,14.107,0,0,1-75.96,18.84a12.277,12.277,0,0,1,7.968-2.52,12.414,12.414,0,0,1,7.56,2.208,12.974,12.974,0,0,1,4.416,5.736A19.977,19.977,0,0,1-54.6,31.776a22.248,22.248,0,0,1-1.44,7.872,14.7,14.7,0,0,1-4.584,6.384A12.374,12.374,0,0,1-68.664,48.576Zm1.152-1.584a7.062,7.062,0,0,0,6.432-3.528q2.16-3.528,2.16-9.432a28.524,28.524,0,0,0-1.032-7.752,13.988,13.988,0,0,0-3.288-6.024A7.692,7.692,0,0,0-69.048,17.9a6.894,6.894,0,0,0-6.408,3.48A17.315,17.315,0,0,0-77.5,30.24,26.731,26.731,0,0,0-75.1,42.1,7.947,7.947,0,0,0-67.512,46.992Zm30.1,1.584a12.2,12.2,0,0,1-7.512-2.208,12.615,12.615,0,0,1-4.3-5.736,21.057,21.057,0,0,1-1.344-7.56,23.225,23.225,0,0,1,1.368-7.9,14.107,14.107,0,0,1,4.488-6.336,12.277,12.277,0,0,1,7.968-2.52,12.414,12.414,0,0,1,7.56,2.208,12.974,12.974,0,0,1,4.416,5.736,19.977,19.977,0,0,1,1.416,7.512,22.249,22.249,0,0,1-1.44,7.872,14.7,14.7,0,0,1-4.584,6.384A12.374,12.374,0,0,1-37.416,48.576Zm1.152-1.584a7.062,7.062,0,0,0,6.432-3.528q2.16-3.528,2.16-9.432A28.524,28.524,0,0,0-28.7,26.28a13.988,13.988,0,0,0-3.288-6.024A7.692,7.692,0,0,0-37.8,17.9a6.894,6.894,0,0,0-6.408,3.48,17.315,17.315,0,0,0-2.04,8.856,26.731,26.731,0,0,0,2.4,11.856A7.947,7.947,0,0,0-36.264,46.992ZM-6.072,16.9q4.7,0,7.056,2.256a7.75,7.75,0,0,1,2.352,5.856,8.368,8.368,0,0,1-1.128,4.32,8.026,8.026,0,0,1-3.264,3.048A10.594,10.594,0,0,1-6.072,33.5H-12.12V46.272h3.84V48H-20.04V46.272h3.84V18.624h-3.84V16.9ZM-6.648,31.68a4.909,4.909,0,0,0,3.912-1.848A7.077,7.077,0,0,0-1.176,25.1a7.064,7.064,0,0,0-1.488-4.728,4.961,4.961,0,0,0-3.984-1.752H-12.12V31.68ZM29.88,39.552V48H6.12V46.272H9.96V18.624H6.12V16.9H29.5v8.352H27.672l-2.544-6.624H14.04V30.672h7.536v-3.7h2.208v9.216H21.576V32.5H14.04V46.272H25.512l2.544-6.72Zm32.16,6.72V48H54.7l-9.12-14.352H41.112V46.272H44.9V48H33.192V46.272h3.84V18.624h-3.84V16.9H47.16q4.7,0,7.056,2.328a7.986,7.986,0,0,1,2.352,5.928A8.209,8.209,0,0,1,54.792,30.5a8.312,8.312,0,0,1-4.848,2.856l8.64,12.912ZM41.112,31.824h5.52a4.909,4.909,0,0,0,3.912-1.848,7.077,7.077,0,0,0,1.56-4.728,7.278,7.278,0,0,0-1.512-4.8,4.9,4.9,0,0,0-3.96-1.824h-5.52ZM89.448,48.576a12.661,12.661,0,0,1-7.848-2.3,12.931,12.931,0,0,1-4.392-5.88,21.175,21.175,0,0,1-1.344-7.512,22.739,22.739,0,0,1,1.392-7.944,13.827,13.827,0,0,1,4.464-6.192A12.168,12.168,0,0,1,89.5,16.32a14.621,14.621,0,0,1,5.4.888,16.1,16.1,0,0,1,4.008,2.28v5.76H96.168q-.384-3.84-2.3-5.616a6.671,6.671,0,0,0-4.7-1.776,7.547,7.547,0,0,0-6.792,3.432,15.976,15.976,0,0,0-2.232,8.856,29.339,29.339,0,0,0,1.032,7.92,14.364,14.364,0,0,0,3.192,6.024,7.033,7.033,0,0,0,5.376,2.328A8.34,8.34,0,0,0,97.992,39.5h1.824A10.917,10.917,0,0,1,97.9,44.16a10.716,10.716,0,0,1-3.7,3.24A9.956,9.956,0,0,1,89.448,48.576Zm16.512-.048a2.868,2.868,0,1,1,2.04-.84A2.777,2.777,0,0,1,105.96,48.528Z" transform="translate(310 277.785)" fill="#111"/>
  </g>
</svg>
