<svg xmlns="http://www.w3.org/2000/svg" width="572.47" height="290.359" viewBox="0 0 572.47 290.359">
  <g id="door03-txt04-sp" transform="translate(-1151 -3778.601)">
    <g id="text" transform="translate(1127 3537)">
      <g id="グループ_719" data-name="グループ 719" transform="translate(0 51.68)">
        <g id="price" transform="translate(-59 -1808.84)">
          <path id="パス_30989" data-name="パス 30989" d="M1.712-12.464V1.072H3.12v-6.48H12.9V-.592c0,.624-.272.9-.9.9H9.936V.976h2.816C13.84.976,14.3.512,14.3-.56v-11.9Zm1.408.64H7.232v5.776H3.12Zm5.5,0H12.9v5.776H8.624Zm11.968-.384A13.964,13.964,0,0,0,18.3-4.656,13.964,13.964,0,0,0,20.592,2.9h.88A18.174,18.174,0,0,1,20.336.288a15.687,15.687,0,0,1-.784-4.944A15.687,15.687,0,0,1,20.336-9.6a18.174,18.174,0,0,1,1.136-2.608ZM26.48,1.184h1.184V-6.24a18.354,18.354,0,0,1,1.2,2.768l1.072-.944a9.992,9.992,0,0,0-2.272-2.336v-1.76h1.328l.624.128v-.9l-.624.128H27.664v-2.832c.416-.1.48-.112,1.088-.288a2.054,2.054,0,0,0,.4.064c.208,0,.352-.1.352-.24,0-.1-.032-.144-.16-.256l-.832-.736A19.12,19.12,0,0,1,24.1-11.984l.048.432a19.151,19.151,0,0,0,2.336-.208v2.608H24.736L24.1-9.28v.9l.64-.128H26.32A27.57,27.57,0,0,1,24-1.92l.32.272A13.553,13.553,0,0,0,26.48-5.44Zm3.744-11.1V-4.8h1.664v.048c-.128,3.072-1.072,4.7-3.28,5.6l.208.432C31.744.608,33.1-1.28,33.168-4.8h1.248V-.144c.048.592.512.928,1.28.928h1.648c.8,0,1.136-.3,1.2-1.12l.176-1.952-.672-.08L37.936-.9c-.048.384-.176.5-.528.512H36.144c-.368-.016-.448-.1-.464-.432V-4.8h2.1V-9.92H35.328a10.962,10.962,0,0,0,1.7-2.544c.32-.032.5-.144.5-.3a.32.32,0,0,0-.256-.288l-1.472-.384a27.139,27.139,0,0,1-1.056,3.52Zm1.264,4.48V-9.28H36.5v3.84ZM30.5-13.072a12.163,12.163,0,0,1,1.424,2.928l1.312-.7a7.157,7.157,0,0,0-2.336-2.5ZM44.384-1.024C45.312.208,46.224.624,48.32.736c.832.048,2.848.1,4.416.1.672,0,1.6-.016,2.864-.032a10.287,10.287,0,0,1,.384-1.264c-1.04.064-3.68.128-5.664.128-2.592,0-3.744-.1-4.4-.368a2.828,2.828,0,0,1-1.088-.736V-7.36H42.016l-.64-.128v.9l.64-.128h1.536v5.344a17.514,17.514,0,0,1-2.272.864L41.792.88a.276.276,0,0,0,.224.176c.16,0,.288-.176.368-.528a15.949,15.949,0,0,0,1.952-1.52Zm3.744-11.808-.64-.128v.928l.64-.128h2.608c.016.432.016.624.032.832-.816,4.24-2.528,7.312-5.152,9.28l.208.384a10.414,10.414,0,0,0,5.344-6.544A10.4,10.4,0,0,0,55.12-1.824c.4-.688.464-.784.864-1.424A9.293,9.293,0,0,1,52.3-7.664a13.65,13.65,0,0,1-.832-5.168Zm-2.7,1.1a7.344,7.344,0,0,0-3.2-1.184l-.192.4a11.207,11.207,0,0,1,2.512,2.224Zm13.1-.48A18.982,18.982,0,0,1,59.664-9.6a15.761,15.761,0,0,1,.784,4.944A15.687,15.687,0,0,1,59.664.288,18.174,18.174,0,0,1,58.528,2.9h.88A14,14,0,0,0,61.7-4.656a14,14,0,0,0-2.288-7.552Z" transform="translate(534.839 2282)" fill="#111"/>
          <path id="パス_30988" data-name="パス 30988" d="M19.96-5.88h-4.4V0H12.4V-5.88H1.2V-7.44L11.44-25.92h4.12V-8.6h4.4ZM12.4-8.6V-23.76h-.52L3.72-8.6ZM25.16-4.08a2.315,2.315,0,0,1,1.78.82,3.312,3.312,0,0,1,.74,2.3,6.014,6.014,0,0,1-1.12,3.6,7.8,7.8,0,0,1-3.04,2.48l-.6-.96a5.832,5.832,0,0,0,1.82-1.5A3.117,3.117,0,0,0,25.6.68a1.213,1.213,0,0,0-.04-.36,2.485,2.485,0,0,1-.48.04,2.11,2.11,0,0,1-1.62-.62,2.221,2.221,0,0,1-.58-1.58,2.137,2.137,0,0,1,.66-1.6A2.238,2.238,0,0,1,25.16-4.08ZM39.92-26.44a7.818,7.818,0,0,1,4.76,1.5,9.572,9.572,0,0,1,3.16,4.34,18.282,18.282,0,0,1,1.12,6.72,19.982,19.982,0,0,1-1.32,7.54A11.954,11.954,0,0,1,44.1-1.32,7.6,7.6,0,0,1,39.28.44,7.909,7.909,0,0,1,35.06-.78a8.664,8.664,0,0,1-3.1-3.26l1.28-.84A7.752,7.752,0,0,0,35.8-2.12a5.921,5.921,0,0,0,3.24,1,5.036,5.036,0,0,0,4.62-3.12,19.467,19.467,0,0,0,1.78-8.32,8.084,8.084,0,0,1-2.5,2.16,7.172,7.172,0,0,1-3.62.88,8.236,8.236,0,0,1-3.9-.96,7.36,7.36,0,0,1-2.92-2.8,8.42,8.42,0,0,1-1.1-4.4,8.972,8.972,0,0,1,1.16-4.62,8.13,8.13,0,0,1,3.1-3.06A8.61,8.61,0,0,1,39.92-26.44ZM40.12-11a4.631,4.631,0,0,0,3.38-1.36,7.145,7.145,0,0,0,1.9-3.24,15.2,15.2,0,0,0-1.82-7.12,4.73,4.73,0,0,0-4.18-2.44,3.739,3.739,0,0,0-3.46,1.84,9.448,9.448,0,0,0-1.1,4.88,8.763,8.763,0,0,0,1.5,5.58A4.659,4.659,0,0,0,40.12-11Zm21-5.84a8.377,8.377,0,0,1,3.9.94,7.41,7.41,0,0,1,2.96,2.82A8.476,8.476,0,0,1,69.12-8.6,8.937,8.937,0,0,1,67.8-3.64,8.526,8.526,0,0,1,64.46-.58,9.165,9.165,0,0,1,60.28.44,9.194,9.194,0,0,1,55.6-.76a8.508,8.508,0,0,1-3.24-3.28l1.28-.8a6.9,6.9,0,0,0,2.64,2.68,7.311,7.311,0,0,0,3.64.92,5.187,5.187,0,0,0,2.82-.82,5.877,5.877,0,0,0,2.1-2.42,8.408,8.408,0,0,0,.8-3.8,8.032,8.032,0,0,0-.8-3.74,5.386,5.386,0,0,0-2.1-2.28,5.6,5.6,0,0,0-2.82-.74,4.58,4.58,0,0,0-2.4.6,7.475,7.475,0,0,0-1.8,1.52H54.16l.96-13H67.84v3.2H56.36l-.56,7.76a7.056,7.056,0,0,1,2.3-1.36A8.5,8.5,0,0,1,61.12-16.84ZM81.96.44a7.42,7.42,0,0,1-4.8-1.68,10.737,10.737,0,0,1-3.22-4.74A20.031,20.031,0,0,1,72.8-13a19.864,19.864,0,0,1,1.14-7,10.667,10.667,0,0,1,3.24-4.72A7.5,7.5,0,0,1,82-26.4a7.557,7.557,0,0,1,4.82,1.66,10.524,10.524,0,0,1,3.24,4.7,19.864,19.864,0,0,1,1.14,7,19.719,19.719,0,0,1-1.16,7.02,10.944,10.944,0,0,1-3.26,4.76A7.445,7.445,0,0,1,81.96.44ZM82-.84q2.72,0,4.16-3.12T87.6-13q0-5.88-1.44-9T82-25.12q-2.72,0-4.16,3.12T76.4-13q0,5.92,1.44,9.04T82-.84ZM96.68-4.08a2.315,2.315,0,0,1,1.78.82,3.312,3.312,0,0,1,.74,2.3,6.014,6.014,0,0,1-1.12,3.6,7.8,7.8,0,0,1-3.04,2.48l-.6-.96a5.832,5.832,0,0,0,1.82-1.5A3.117,3.117,0,0,0,97.12.68a1.213,1.213,0,0,0-.04-.36,2.484,2.484,0,0,1-.48.04,2.11,2.11,0,0,1-1.62-.62,2.221,2.221,0,0,1-.58-1.58,2.137,2.137,0,0,1,.66-1.6A2.238,2.238,0,0,1,96.68-4.08ZM111.56.44a7.42,7.42,0,0,1-4.8-1.68,10.737,10.737,0,0,1-3.22-4.74A20.031,20.031,0,0,1,102.4-13a19.864,19.864,0,0,1,1.14-7,10.667,10.667,0,0,1,3.24-4.72,7.5,7.5,0,0,1,4.82-1.68,7.557,7.557,0,0,1,4.82,1.66,10.524,10.524,0,0,1,3.24,4.7,19.864,19.864,0,0,1,1.14,7,19.719,19.719,0,0,1-1.16,7.02,10.944,10.944,0,0,1-3.26,4.76A7.445,7.445,0,0,1,111.56.44Zm.04-1.28q2.72,0,4.16-3.12T117.2-13q0-5.88-1.44-9t-4.16-3.12q-2.72,0-4.16,3.12T106-13q0,5.92,1.44,9.04T111.6-.84ZM132.52.44a7.42,7.42,0,0,1-4.8-1.68,10.737,10.737,0,0,1-3.22-4.74A20.031,20.031,0,0,1,123.36-13a19.864,19.864,0,0,1,1.14-7,10.667,10.667,0,0,1,3.24-4.72,7.5,7.5,0,0,1,4.82-1.68,7.557,7.557,0,0,1,4.82,1.66,10.524,10.524,0,0,1,3.24,4.7,19.864,19.864,0,0,1,1.14,7,19.719,19.719,0,0,1-1.16,7.02,10.944,10.944,0,0,1-3.26,4.76A7.445,7.445,0,0,1,132.52.44Zm.04-1.28q2.72,0,4.16-3.12T138.16-13q0-5.88-1.44-9t-4.16-3.12q-2.72,0-4.16,3.12t-1.44,9q0,5.92,1.44,9.04T132.56-.84ZM153.48.44a7.42,7.42,0,0,1-4.8-1.68,10.737,10.737,0,0,1-3.22-4.74A20.031,20.031,0,0,1,144.32-13a19.864,19.864,0,0,1,1.14-7,10.667,10.667,0,0,1,3.24-4.72,7.5,7.5,0,0,1,4.82-1.68,7.557,7.557,0,0,1,4.82,1.66,10.524,10.524,0,0,1,3.24,4.7,19.864,19.864,0,0,1,1.14,7,19.719,19.719,0,0,1-1.16,7.02,10.944,10.944,0,0,1-3.26,4.76A7.445,7.445,0,0,1,153.48.44Zm.04-1.28q2.72,0,4.16-3.12T159.12-13q0-5.88-1.44-9t-4.16-3.12q-2.72,0-4.16,3.12t-1.44,9q0,5.92,1.44,9.04T153.52-.84Zm23.6-8.24a29.263,29.263,0,0,1-4.36-.8,29.263,29.263,0,0,0-4.36-.8,1.857,1.857,0,0,0-1.24.44,1.6,1.6,0,0,0-.6,1h-1a5.676,5.676,0,0,1,1.28-2.58,3.035,3.035,0,0,1,2.36-1.02,11.5,11.5,0,0,1,2.16.34q1.52.34,1.96.42a25.323,25.323,0,0,0,4.44.84,1.88,1.88,0,0,0,1.22-.44,1.576,1.576,0,0,0,.62-1h.96a5.7,5.7,0,0,1-1.16,2.6A2.822,2.822,0,0,1,177.12-9.08Zm11.043-15,2.147,2.52-1.1.817-1.727-2.87-1.727,2.87-1.1-.817,2.17-2.5-3.22-.747.42-1.307,3.056,1.283-.28-3.29h1.377l-.3,3.29,3.056-1.283.443,1.307Zm-.677-.187-.023.023h.023l.023-.023Zm16.169,9.449V-13h-9.169v-.817q2.963-3.22,4.328-4.865a14.788,14.788,0,0,0,1.96-2.882,5.9,5.9,0,0,0,.595-2.59,3.836,3.836,0,0,0-.758-2.578,2.461,2.461,0,0,0-1.948-.875,2.3,2.3,0,0,0-2.03,1.027,4.933,4.933,0,0,0-.793,2.52h-1.26v-2.8a4.363,4.363,0,0,1,1.75-1.12,6.656,6.656,0,0,1,2.357-.42,6.184,6.184,0,0,1,2.252.42,4.034,4.034,0,0,1,1.8,1.365,3.9,3.9,0,0,1,.712,2.415,4.314,4.314,0,0,1-.56,2.112,13.431,13.431,0,0,1-1.855,2.427q-1.295,1.412-4.678,4.841Z" transform="translate(328.896 2284)" fill="#111"/>
          <path id="パス_30987" data-name="パス 30987" d="M14.48-13.44a9.255,9.255,0,0,0-3.488,7.36A9.255,9.255,0,0,0,14.48,1.28h.88a9.477,9.477,0,0,1-3.2-7.344A10.116,10.116,0,0,1,13.808-11.7,7.2,7.2,0,0,1,15.36-13.44Zm6.7,5.024A30.115,30.115,0,0,1,25.76-6.192,12.713,12.713,0,0,1,18.768.128l.176.464a11.736,11.736,0,0,0,8.032-6,18.858,18.858,0,0,1,3.3,2.832l1.072-1.28a16.582,16.582,0,0,0-3.744-2.8,26.925,26.925,0,0,0,1.6-5.04c.288-.1.4-.192.4-.352,0-.128-.1-.224-.272-.272l-1.664-.432-.064.9a21.894,21.894,0,0,1-1.328,4.544,21.111,21.111,0,0,0-4.9-1.568Zm28.16,1.952-13.36-.5v1.68l13.36-.48Zm15.264-2.56A56.3,56.3,0,0,1,64-2.9a7.334,7.334,0,0,1-.48,2.288,1,1,0,0,1-1.008.448h-1.84V.576h2.752c1.248.016,1.6-.4,1.92-2.176a61.922,61.922,0,0,0,.832-8.16H60.112c.048-.736.08-1.312.08-2.016v-.416c.224-.128.32-.24.32-.384a.278.278,0,0,0-.3-.272l-1.68-.112.112.96v.24c0,.448-.032,1.2-.1,2H54.32l-.64-.128V-8.9l.64-.128h4.144c-.416,4.3-2.08,7.152-5.344,9.2l.192.384a9.6,9.6,0,0,0,4.816-3.728,12.83,12.83,0,0,0,1.9-5.856Zm19.3,2.56-13.36-.5v1.68L83.9-5.76ZM89.792.1H91.12V-4.688h3.12V1.28h1.328V-4.688h3.5v3.3c-.016.528-.192.7-.72.72H97.136V0h1.92c.96,0,1.376-.384,1.36-1.248v-4.08H95.568v-1.2c.208-.16.256-.208.256-.32,0-.144-.112-.208-.336-.208H94.24v1.728h-3.5a14.567,14.567,0,0,0,2.32-2.336h8.064l.64.128v-.9l-.64.128H93.552l.032-.048.528-.736c.336-.048.512-.16.512-.32,0-.112-.08-.176-.224-.208l-1.344-.352A9.2,9.2,0,0,1,92.032-8.3H87.7l-.64-.128v.9l.64-.128h3.84a18.874,18.874,0,0,1-4.5,4.1l.224.416a13.156,13.156,0,0,0,2.528-1.456ZM88.976-12.56c1.76.416,3.216.832,4.576,1.3-1.472.56-4.624,1.52-5.888,1.824l.112.464a32.176,32.176,0,0,0,7.2-1.792c.9.32,2.688,1.088,4.256,1.824l.9-.976a35.43,35.43,0,0,0-3.744-1.424c.768-.336,1.344-.592,2.352-1.072a2.693,2.693,0,0,0,.32.032c.192,0,.4-.128.4-.256,0-.064-.08-.144-.192-.208l-1.12-.592A20.209,20.209,0,0,1,94.9-11.808a29.188,29.188,0,0,0-5.712-1.184ZM116.7-8.112c-.192,1.632-.256,1.776-.9,1.792h-1.184v.672h1.76c.928-.016,1.232-.3,1.408-1.28a51.469,51.469,0,0,0,.528-5.936h-5.936c-.032,4.56-.56,6.032-2.576,7.248l.272.432A4.672,4.672,0,0,0,113.1-8.112Zm.064-.64H113.28c.08-.4.16-.992.208-1.44H116.9l-.016.24-.016.256-.08.9Zm.176-2.08h-3.408l.016-.048.064-1.344h3.424c-.032.56-.032.688-.064,1.072Zm-8.224-.848v-1.136c.208-.144.256-.208.256-.32,0-.144-.112-.208-.336-.208h-1.232v1.664H104.96l-.64-.128v.9l.64-.128h.576v3.2c.032,1.024.448,1.312,1.968,1.312h3.152v-1.12h-2.912c-.8-.016-.96-.128-.976-.624V-11.04h4.1l.64.128v-.9l-.64.128Zm3.536,7.424h5.28l.624.128v-.9l-.624.128H105.824l-.624-.128v.9l.624-.128h5.1v1.792h-4.192l-.64-.128v.9l.64-.128h4.192V.1h-5.872l-.64-.128v.9l.64-.128H118.3l.64.128v-.9L118.3.1h-6.048v-1.92h4.368l.64.128v-.9l-.64.128h-4.368Zm13.7,4.608V1.1h2.272c1.072,0,1.52-.448,1.52-1.52v-12.3c.208-.144.256-.208.256-.3,0-.16-.112-.224-.336-.224h-1.392V-.512c0,.608-.256.864-.864.864Zm5.728-10.416a38.4,38.4,0,0,1,3.056,8.288l1.584-.9a23.525,23.525,0,0,0-4.112-7.7Zm-9.664,8.416c1.792-2.064,2.784-4.08,3.792-7.792.32-.064.48-.192.48-.4,0-.144-.112-.224-.368-.3l-1.472-.4a29.927,29.927,0,0,1-2.832,8.608ZM140.96-6.88v-.176a2.2,2.2,0,0,0-.032-.512h-.544a4.048,4.048,0,0,1-1.5,2.56l.96,1.248a3.313,3.313,0,0,0,1.088-2.432V-6.24h10.864a6.365,6.365,0,0,1-.944,1.776l.5.3A5.747,5.747,0,0,0,153.6-6.88Zm5.9-4.688v-1.264c.208-.144.256-.208.256-.32,0-.144-.112-.208-.336-.208h-1.3v1.792h-5.76l-.64-.128v.9l.64-.128h5.76v1.792H141.12l-.64-.128v.9l.64-.128h10.24l.64.128v-.9l-.64.128h-4.5v-1.792h5.888l.64.128v-.9l-.64.128ZM139.36,1.12A7.45,7.45,0,0,0,142.96-.1c1.152-.816,1.664-2.016,1.68-4v-.4c.192-.144.256-.208.256-.32,0-.144-.112-.208-.352-.208h-1.28v.9a4.23,4.23,0,0,1-1.312,3.456A6.014,6.014,0,0,1,139.232.64Zm8.048-6.144v4.48c.032.976.5,1.28,2.064,1.328h2.24c1.12,0,1.584-.432,1.664-1.552l.08-1.36-.656-.064-.08.992c-.064.544-.272.736-.752.736H149.68c-.672-.016-.928-.16-.928-.5V-4.5c.208-.144.256-.208.256-.32,0-.16-.112-.208-.448-.208Zm16.272-3.9h-2.736V1.1h1.184V.08H168.9V.992h1.232v-9.92h-2.8v-3.12h2.912l.64.128v-.9l-.64.128h-8.992l-.624-.128v.9l.624-.128h2.432Zm1.1-3.12h1.44v3.12h-1.44Zm0,3.76h1.44V-.56h-1.44ZM163.68-.56h-1.552V-8.288h1.552Zm3.648-7.728H168.9V-.56h-1.568Zm-8.064-1.584c.336-.944.48-1.392.848-2.576.256-.048.384-.16.384-.32,0-.128-.112-.224-.272-.272l-1.344-.4a37.923,37.923,0,0,1-2.72,8.688l.336.256a17.341,17.341,0,0,0,1.52-2.464V1.184h1.248ZM178.16-3.7a15.4,15.4,0,0,0,5.184-3.04,15.455,15.455,0,0,0,4.208,2.656,5.3,5.3,0,0,1,.608-1.248,16.558,16.558,0,0,1-4.064-2.16,16.535,16.535,0,0,0,2.96-4.24h-5.2l.016-.048c.176-.336.192-.368.4-.816.3-.112.432-.208.432-.32a.3.3,0,0,0-.16-.224l-1.36-.3a14.882,14.882,0,0,1-1.152,2.928,14.791,14.791,0,0,1-1.52,2.448l.32.3a10.869,10.869,0,0,0,2.288-2.672,7.261,7.261,0,0,0,1.472,2.912A17.56,17.56,0,0,1,178-4.1Zm3.36-7.392h3.84a19.393,19.393,0,0,1-2.128,2.9,6.023,6.023,0,0,1-1.776-2.8ZM175.856,1.184h1.232v-8.5a10.788,10.788,0,0,1,1.136,2.432l.992-.864a5.659,5.659,0,0,0-2.128-2.032V-9.44h1.168l.64.128v-.9l-.64.128h-1.168v-2.736c.192-.144.256-.208.256-.32,0-.144-.112-.208-.336-.208h-1.152v3.264h-1.68l-.64-.128v.9l.64-.128h1.536A26.771,26.771,0,0,1,173.44-2.7l.352.24a15.746,15.746,0,0,0,2.064-3.776Zm10.784-.1V-4.288h-6.7V1.184H181.2V.416h4.16v.672ZM181.2-.224V-3.648h4.16V-.224Zm9.52-13.216a9.527,9.527,0,0,1,3.2,7.376,9.5,9.5,0,0,1-3.2,7.344h.864a9.2,9.2,0,0,0,3.5-7.36,9.2,9.2,0,0,0-3.5-7.36Z" transform="translate(131.008 2282)" fill="#111"/>
        </g>
        <path id="パス_30986" data-name="パス 30986" d="M87.36,1.761c.391-.138.552-.3.552-.506,0-.184-.161-.322-.46-.345L85.5.68A23.777,23.777,0,0,1,82.07,5.418,33.13,33.13,0,0,1,76.136,10.5l.3.6A24.568,24.568,0,0,0,86.854,2.5l.092.138a20.165,20.165,0,0,0,9.338,8.027A12.45,12.45,0,0,1,97.3,8.569,21.69,21.69,0,0,1,90.81,5.1a20.657,20.657,0,0,1-3.5-3.266Zm.253,8.717h4.968l.92.184V9.374l-.92.184H80.851l-.92-.184v1.288l.92-.184h4.784V14.5H80.6l-.9-.184v1.288l.9-.184h5.037v4.646H78.183l-.92-.184v1.288l.92-.184H95.5l.92.184V19.885l-.92.184H87.613V15.423h5.221l.9.184V14.319l-.9.184H87.613Zm31.763,2.3.92.184V11.674l-.92.184h-14.72V9.305h11.8l.92.184V8.2l-.92.184h-11.8V5.97h11.8l.92.184V4.866l-.92.184h-11.8V2.681h12.7l.92.184V1.577l-.92.184H102.724v10.1h-2.668l-.92-.184v1.288l.92-.184h2.668v6.348c-1.081.138-1.7.207-3.473.345l.782,1.886c.161.368.253.483.437.483.253,0,.368-.138.506-.552a61.677,61.677,0,0,0,11.178-2.967l.115-.023a14.08,14.08,0,0,0,6.923,3.542,11.145,11.145,0,0,1,1.1-2.07,16.383,16.383,0,0,1-6.739-2.507,29.448,29.448,0,0,0,4.37-2.047l.46.023c.322,0,.575-.184.575-.414,0-.092-.092-.23-.276-.345l-1.725-1.15a26.925,26.925,0,0,1-4.071,3.427,9.8,9.8,0,0,1-3.013-3.979Zm-10.488,0a12.275,12.275,0,0,0,2.783,4.9l-.207.046c-1.633.368-3.312.644-6.808,1.15V12.778Zm19.665-.828q3.22,1.035,3.22,3.818a3.952,3.952,0,0,1-.748,2.415,4.778,4.778,0,0,1-1.932,1.541,6,6,0,0,1-2.473.529,4.974,4.974,0,0,1-2.657-.713,5.252,5.252,0,0,1-1.828-1.863l.736-.46a3.694,3.694,0,0,0,1.564,1.541,4.352,4.352,0,0,0,2,.506,3.571,3.571,0,0,0,1.6-.368,2.963,2.963,0,0,0,1.219-1.127,3.42,3.42,0,0,0,.471-1.84,3.264,3.264,0,0,0-.931-2.45,3.18,3.18,0,0,0-2.312-.909h-.575v-.713a3.9,3.9,0,0,0,1.587-.345,3,3,0,0,0,1.288-1.093,3.271,3.271,0,0,0,.506-1.874,3.418,3.418,0,0,0-.644-2.1,2.438,2.438,0,0,0-3.829.138,5.045,5.045,0,0,0-.748,2.5h-1.242V6.315a4.551,4.551,0,0,1,1.7-1.1,6.13,6.13,0,0,1,2.254-.414,5.569,5.569,0,0,1,2.231.437A3.873,3.873,0,0,1,130.635,6.5a3.207,3.207,0,0,1,.609,1.955Q131.244,10.777,128.553,11.95Zm7.13,5.7a1.331,1.331,0,0,1,1.024.472,1.9,1.9,0,0,1,.425,1.323,3.458,3.458,0,0,1-.644,2.07,4.487,4.487,0,0,1-1.748,1.426l-.345-.552a3.354,3.354,0,0,0,1.046-.863,1.793,1.793,0,0,0,.495-1.138.7.7,0,0,0-.023-.207,1.429,1.429,0,0,1-.276.023,1.213,1.213,0,0,1-.932-.357,1.277,1.277,0,0,1-.333-.909,1.229,1.229,0,0,1,.38-.92A1.287,1.287,0,0,1,135.683,17.654Zm10.7-5.612a4.4,4.4,0,0,1,2.174,1.38,3.774,3.774,0,0,1,.839,2.53,3.844,3.844,0,0,1-.736,2.381,4.377,4.377,0,0,1-1.921,1.449,6.685,6.685,0,0,1-2.5.472,6.434,6.434,0,0,1-2.5-.483,4.437,4.437,0,0,1-1.886-1.449,3.836,3.836,0,0,1-.725-2.369,3.774,3.774,0,0,1,.839-2.53,4.4,4.4,0,0,1,2.174-1.38,3.855,3.855,0,0,1-1.725-1.219,3.4,3.4,0,0,1-.759-2.277,3.282,3.282,0,0,1,.644-2.059A3.963,3.963,0,0,1,142,5.223a5.958,5.958,0,0,1,2.266-.426,6.04,6.04,0,0,1,2.242.414,3.923,3.923,0,0,1,1.7,1.265,3.291,3.291,0,0,1,.656,2.07,3.4,3.4,0,0,1-.759,2.277A3.855,3.855,0,0,1,146.378,12.042Zm-2.116-6.486a2.525,2.525,0,0,0-1.943.84,3.187,3.187,0,0,0-.771,2.243,3.187,3.187,0,0,0,.771,2.242,2.683,2.683,0,0,0,3.9,0,3.217,3.217,0,0,0,.759-2.242,3.187,3.187,0,0,0-.771-2.243A2.525,2.525,0,0,0,144.262,5.556Zm0,13.961a2.925,2.925,0,0,0,2.231-.931,3.667,3.667,0,0,0,.874-2.611,3.8,3.8,0,0,0-.8-2.553,3.276,3.276,0,0,0-4.6,0,3.8,3.8,0,0,0-.8,2.553,3.667,3.667,0,0,0,.874,2.611A2.925,2.925,0,0,0,144.262,19.517Zm12.6-8.993a4.817,4.817,0,0,1,2.242.54,4.152,4.152,0,0,1,1.679,1.6,4.8,4.8,0,0,1,.633,2.507,5.264,5.264,0,0,1-.656,2.633,4.691,4.691,0,0,1-1.783,1.806,4.918,4.918,0,0,1-2.484.644,4.416,4.416,0,0,1-2.737-.885,5.586,5.586,0,0,1-1.806-2.518,10.541,10.541,0,0,1-.632-3.818A11.189,11.189,0,0,1,152.1,8.7a6.946,6.946,0,0,1,2.081-2.887A4.493,4.493,0,0,1,157,4.8a4.245,4.245,0,0,1,2.15.575,5.177,5.177,0,0,1,1.714,1.633l-.69.575a4.859,4.859,0,0,0-1.391-1.38,3.09,3.09,0,0,0-1.691-.506,2.941,2.941,0,0,0-2.68,1.806,11.176,11.176,0,0,0-1.069,4.773,4.648,4.648,0,0,1,1.438-1.242A4.124,4.124,0,0,1,156.866,10.524Zm.023,8.993a2.084,2.084,0,0,0,1.921-1.069,5.445,5.445,0,0,0,.633-2.795,4.991,4.991,0,0,0-.874-3.208,2.759,2.759,0,0,0-4.105-.288,3.935,3.935,0,0,0-1.07,1.863,8.287,8.287,0,0,0,1.1,4.083A2.8,2.8,0,0,0,156.889,19.517Zm11.454.736a4.267,4.267,0,0,1-2.76-.966,6.174,6.174,0,0,1-1.852-2.726,11.518,11.518,0,0,1-.656-4.037,11.422,11.422,0,0,1,.656-4.025,6.133,6.133,0,0,1,1.863-2.714,4.48,4.48,0,0,1,5.543-.012A6.051,6.051,0,0,1,173,8.477a11.422,11.422,0,0,1,.656,4.025,11.339,11.339,0,0,1-.667,4.036,6.293,6.293,0,0,1-1.874,2.737A4.281,4.281,0,0,1,168.343,20.253Zm.023-.736a2.6,2.6,0,0,0,2.392-1.794,12.825,12.825,0,0,0,.828-5.2,12.752,12.752,0,0,0-.828-5.175,2.492,2.492,0,0,0-4.784,0,12.752,12.752,0,0,0-.828,5.175,12.825,12.825,0,0,0,.828,5.2A2.6,2.6,0,0,0,168.366,19.517Zm23-.207V20h-4.393v-.69h1.173V12.686a3.4,3.4,0,0,0-.437-1.921,1.511,1.511,0,0,0-1.334-.632,2.11,2.11,0,0,0-1.645.736,2.7,2.7,0,0,0-.656,1.863V19.31h1.311V20h-4.347v-.69h1.311V12.686a3.4,3.4,0,0,0-.437-1.921,1.511,1.511,0,0,0-1.334-.632,2.135,2.135,0,0,0-1.667.736,2.7,2.7,0,0,0-.656,1.863V19.31h1.219V20h-4.462v-.69h1.518V10.294h-1.472V9.627l3.151-.184.046,1.081a3.254,3.254,0,0,1,2.76-1.173,3.394,3.394,0,0,1,1.656.4,2.49,2.49,0,0,1,1.081,1.115,2.92,2.92,0,0,1,1.2-1.127,3.764,3.764,0,0,1,1.748-.391q3.174,0,3.174,3.588V19.31Zm17.365,0V20h-4.393v-.69h1.173V12.686a3.4,3.4,0,0,0-.437-1.921,1.511,1.511,0,0,0-1.334-.632,2.11,2.11,0,0,0-1.645.736,2.7,2.7,0,0,0-.656,1.863V19.31h1.311V20H198.4v-.69h1.311V12.686a3.4,3.4,0,0,0-.437-1.921,1.511,1.511,0,0,0-1.334-.632,2.135,2.135,0,0,0-1.667.736,2.7,2.7,0,0,0-.656,1.863V19.31h1.219V20h-4.462v-.69H193.9V10.294h-1.472V9.627l3.151-.184.046,1.081a3.254,3.254,0,0,1,2.76-1.173,3.394,3.394,0,0,1,1.656.4,2.49,2.49,0,0,1,1.081,1.115,2.92,2.92,0,0,1,1.2-1.127,3.764,3.764,0,0,1,1.748-.391q3.174,0,3.174,3.588V19.31Zm8.165.874a13.829,13.829,0,0,0-6.417-4.393l-.437.552a20.529,20.529,0,0,1,4.968,5.5Zm27.37-18.423c.391-.138.552-.3.552-.506,0-.184-.161-.322-.46-.345L242.4.68a23.778,23.778,0,0,1-3.427,4.738,33.13,33.13,0,0,1-5.934,5.083l.3.6A24.568,24.568,0,0,0,243.76,2.5l.092.138a20.165,20.165,0,0,0,9.338,8.027A12.451,12.451,0,0,1,254.2,8.569,21.691,21.691,0,0,1,247.716,5.1a20.657,20.657,0,0,1-3.5-3.266Zm.253,8.717h4.968l.92.184V9.374l-.92.184h-11.73l-.92-.184v1.288l.92-.184h4.784V14.5H237.5l-.9-.184v1.288l.9-.184h5.037v4.646h-7.452l-.92-.184v1.288l.92-.184h17.319l.92.184V19.885l-.92.184h-7.889V15.423h5.221l.9.184V14.319l-.9.184h-5.221ZM261.217,5h1.495V15.331c0,.437-.138.552-.552.575h-.667v.92h1.173c1.1,0,1.564-.46,1.564-1.518V4.153h-3.013V1.577c.3-.207.368-.3.368-.46,0-.207-.161-.3-.483-.3h-1.4V4.153h-2.9V16.964h1.518V5h1.38V21.7h1.518Zm15.18,6.647H265.311V21.7h1.679V20.575h7.682v.966H276.4Zm-1.725,4.784v3.22H271.59v-3.22Zm0-.92H271.59V12.571h3.082Zm-4.738-2.944v2.944H266.99V12.571Zm-2.944,7.084v-3.22h2.944v3.22Zm8.487-10.12V4.521h-9.43V9.535Zm-1.771-.92h-5.934V5.441h5.934ZM265.38,2.566h10.9l.92.184V1.462l-.92.184h-10.9l-.92-.184V2.75Zm22.2,16.606V20h-6.44v-.828H283.5V6.913l-2.277,1.472-.483-.736L284.539,5.1h.782V19.172Zm5.014-1.518a1.331,1.331,0,0,1,1.023.472,1.9,1.9,0,0,1,.426,1.323,3.458,3.458,0,0,1-.644,2.07,4.487,4.487,0,0,1-1.748,1.426l-.345-.552a3.354,3.354,0,0,0,1.046-.863,1.792,1.792,0,0,0,.495-1.138.7.7,0,0,0-.023-.207,1.429,1.429,0,0,1-.276.023,1.213,1.213,0,0,1-.931-.357,1.277,1.277,0,0,1-.333-.909,1.229,1.229,0,0,1,.379-.92A1.287,1.287,0,0,1,292.589,17.654ZM305.1,5.1V5.9L298.684,20H297.6l6.072-13.133h-6.44L296.43,9.1h-.8v-4Zm7.015,5.221a4.817,4.817,0,0,1,2.243.541,4.261,4.261,0,0,1,1.7,1.622,4.874,4.874,0,0,1,.655,2.576,5.139,5.139,0,0,1-.759,2.852,4.9,4.9,0,0,1-1.921,1.76,5.41,5.41,0,0,1-5.094-.1,4.892,4.892,0,0,1-1.863-1.886l.736-.46a3.966,3.966,0,0,0,1.518,1.541,4.2,4.2,0,0,0,2.093.529,2.982,2.982,0,0,0,1.622-.472,3.379,3.379,0,0,0,1.207-1.392,4.834,4.834,0,0,0,.46-2.185,4.618,4.618,0,0,0-.46-2.151,3.1,3.1,0,0,0-1.207-1.311,3.223,3.223,0,0,0-1.622-.425,2.634,2.634,0,0,0-1.38.345,4.3,4.3,0,0,0-1.035.874h-.9l.552-7.475h7.314v1.84h-6.6l-.322,4.462a4.057,4.057,0,0,1,1.323-.782A4.887,4.887,0,0,1,312.116,10.317Zm12.052,0a4.817,4.817,0,0,1,2.243.541,4.261,4.261,0,0,1,1.7,1.622,4.874,4.874,0,0,1,.655,2.576,5.139,5.139,0,0,1-.759,2.852,4.9,4.9,0,0,1-1.921,1.76,5.41,5.41,0,0,1-5.094-.1,4.892,4.892,0,0,1-1.863-1.886l.736-.46a3.966,3.966,0,0,0,1.518,1.541,4.2,4.2,0,0,0,2.093.529,2.982,2.982,0,0,0,1.622-.472,3.379,3.379,0,0,0,1.207-1.392,4.834,4.834,0,0,0,.46-2.185,4.618,4.618,0,0,0-.46-2.151,3.1,3.1,0,0,0-1.207-1.311,3.223,3.223,0,0,0-1.622-.425,2.634,2.634,0,0,0-1.38.345,4.3,4.3,0,0,0-1.035.874h-.9l.552-7.475h7.314v1.84h-6.6l-.322,4.462a4.057,4.057,0,0,1,1.323-.782A4.887,4.887,0,0,1,324.168,10.317Zm22.954,8.993V20h-4.393v-.69H343.9V12.686a3.4,3.4,0,0,0-.437-1.921,1.511,1.511,0,0,0-1.334-.632,2.11,2.11,0,0,0-1.645.736,2.7,2.7,0,0,0-.655,1.863V19.31h1.311V20H336.8v-.69h1.311V12.686a3.4,3.4,0,0,0-.437-1.921,1.511,1.511,0,0,0-1.334-.632,2.135,2.135,0,0,0-1.668.736,2.7,2.7,0,0,0-.655,1.863V19.31h1.219V20h-4.462v-.69h1.518V10.294h-1.472V9.627l3.151-.184.046,1.081a3.254,3.254,0,0,1,2.76-1.173,3.394,3.394,0,0,1,1.656.4,2.49,2.49,0,0,1,1.081,1.115,2.92,2.92,0,0,1,1.2-1.127,3.764,3.764,0,0,1,1.748-.391q3.174,0,3.174,3.588V19.31Zm17.365,0V20h-4.393v-.69h1.173V12.686a3.4,3.4,0,0,0-.437-1.921,1.511,1.511,0,0,0-1.334-.632,2.11,2.11,0,0,0-1.645.736,2.7,2.7,0,0,0-.655,1.863V19.31h1.311V20H354.16v-.69h1.311V12.686a3.4,3.4,0,0,0-.437-1.921,1.511,1.511,0,0,0-1.334-.632,2.135,2.135,0,0,0-1.668.736,2.7,2.7,0,0,0-.655,1.863V19.31H352.6V20h-4.462v-.69h1.518V10.294H348.18V9.627l3.151-.184.046,1.081a3.254,3.254,0,0,1,2.76-1.173,3.394,3.394,0,0,1,1.656.4,2.49,2.49,0,0,1,1.081,1.115,2.92,2.92,0,0,1,1.2-1.127,3.764,3.764,0,0,1,1.748-.391q3.174,0,3.174,3.588V19.31Zm8.165.874a13.829,13.829,0,0,0-6.417-4.393l-.437.552a20.529,20.529,0,0,1,4.968,5.5Zm27.37-18.423c.391-.138.552-.3.552-.506,0-.184-.161-.322-.46-.345L398.159.68a23.778,23.778,0,0,1-3.427,4.738A33.131,33.131,0,0,1,388.8,10.5l.3.6a24.568,24.568,0,0,0,10.419-8.6l.092.138a20.165,20.165,0,0,0,9.338,8.027,12.454,12.454,0,0,1,1.012-2.093A21.691,21.691,0,0,1,403.472,5.1a20.658,20.658,0,0,1-3.5-3.266Zm.253,8.717h4.968l.92.184V9.374l-.92.184h-11.73l-.92-.184v1.288l.92-.184H398.3V14.5H393.26l-.9-.184v1.288l.9-.184H398.3v4.646h-7.452l-.92-.184v1.288l.92-.184h17.319l.92.184V19.885l-.92.184h-7.889V15.423H405.5l.9.184V14.319l-.9.184h-5.221Zm20.953-7.383h-8.372l-.92-.184V4.2l.92-.184h19.021l.92.184V2.911l-.92.184h-8.556V1.462c.3-.23.368-.322.368-.46,0-.23-.161-.322-.483-.322h-1.978Zm10.6,8.694H412.9V21.7h1.909V12.709h15.111v6.946c-.023.713-.253.943-.966.966H427v.966h2.829c1.4,0,2.024-.575,2-1.909Zm-14.674,2.622V20h1.817V18.942h8.211V14.411Zm1.817,3.611V15.331h6.417v2.691Zm10.1-7.981V5.694H415.662v4.347Zm-11.5-.92V6.614h9.591V9.121Zm25.76,10.051V20h-6.44v-.828h2.369V6.913l-2.277,1.472-.483-.736L440.295,5.1h.782V19.172Zm5.014-1.518a1.331,1.331,0,0,1,1.023.472,1.9,1.9,0,0,1,.426,1.323,3.458,3.458,0,0,1-.644,2.07,4.487,4.487,0,0,1-1.748,1.426l-.345-.552a3.354,3.354,0,0,0,1.046-.863,1.792,1.792,0,0,0,.495-1.138.7.7,0,0,0-.023-.207,1.429,1.429,0,0,1-.276.023,1.213,1.213,0,0,1-.931-.357,1.277,1.277,0,0,1-.333-.909,1.229,1.229,0,0,1,.379-.92A1.287,1.287,0,0,1,448.345,17.654Zm14.03-1.035h-2.53V20h-1.817V16.619h-6.44v-.9L457.476,5.1h2.369v9.959h2.53Zm-4.347-1.564V6.338h-.3l-4.692,8.717Zm11.5-4.531a4.817,4.817,0,0,1,2.242.54,4.152,4.152,0,0,1,1.679,1.6,4.8,4.8,0,0,1,.632,2.507,5.264,5.264,0,0,1-.655,2.633,4.691,4.691,0,0,1-1.783,1.806,4.919,4.919,0,0,1-2.484.644,4.416,4.416,0,0,1-2.737-.885,5.586,5.586,0,0,1-1.805-2.518,10.541,10.541,0,0,1-.633-3.818,11.189,11.189,0,0,1,.782-4.335,6.946,6.946,0,0,1,2.082-2.887A4.493,4.493,0,0,1,469.666,4.8a4.245,4.245,0,0,1,2.15.575,5.177,5.177,0,0,1,1.714,1.633l-.69.575a4.859,4.859,0,0,0-1.392-1.38,3.09,3.09,0,0,0-1.69-.506,2.941,2.941,0,0,0-2.68,1.806,11.177,11.177,0,0,0-1.07,4.773,4.648,4.648,0,0,1,1.438-1.242A4.124,4.124,0,0,1,469.528,10.524Zm.023,8.993a2.084,2.084,0,0,0,1.92-1.069,5.445,5.445,0,0,0,.633-2.795,4.991,4.991,0,0,0-.874-3.208,2.759,2.759,0,0,0-4.105-.288,3.935,3.935,0,0,0-1.069,1.863,8.286,8.286,0,0,0,1.1,4.083A2.8,2.8,0,0,0,469.551,19.517Zm11.454.736a4.266,4.266,0,0,1-2.76-.966,6.173,6.173,0,0,1-1.852-2.726,11.518,11.518,0,0,1-.656-4.037,11.421,11.421,0,0,1,.656-4.025,6.133,6.133,0,0,1,1.863-2.714,4.48,4.48,0,0,1,5.543-.012,6.051,6.051,0,0,1,1.863,2.7,11.421,11.421,0,0,1,.656,4.025,11.338,11.338,0,0,1-.667,4.036,6.293,6.293,0,0,1-1.874,2.737A4.281,4.281,0,0,1,481.005,20.253Zm.023-.736a2.6,2.6,0,0,0,2.392-1.794,12.825,12.825,0,0,0,.828-5.2,12.752,12.752,0,0,0-.828-5.175,2.492,2.492,0,0,0-4.784,0,12.752,12.752,0,0,0-.828,5.175,12.825,12.825,0,0,0,.828,5.2A2.6,2.6,0,0,0,481.028,19.517Zm23-.207V20h-4.393v-.69h1.173V12.686a3.4,3.4,0,0,0-.437-1.921,1.511,1.511,0,0,0-1.334-.632,2.11,2.11,0,0,0-1.645.736,2.7,2.7,0,0,0-.655,1.863V19.31h1.311V20H493.7v-.69h1.311V12.686a3.4,3.4,0,0,0-.437-1.921,1.511,1.511,0,0,0-1.334-.632,2.135,2.135,0,0,0-1.668.736,2.7,2.7,0,0,0-.655,1.863V19.31h1.219V20h-4.462v-.69h1.518V10.294h-1.472V9.627l3.151-.184.046,1.081a3.254,3.254,0,0,1,2.76-1.173,3.394,3.394,0,0,1,1.656.4,2.49,2.49,0,0,1,1.081,1.115,2.92,2.92,0,0,1,1.2-1.127,3.764,3.764,0,0,1,1.748-.391q3.174,0,3.174,3.588V19.31Zm17.365,0V20H517v-.69h1.173V12.686a3.4,3.4,0,0,0-.437-1.921,1.511,1.511,0,0,0-1.334-.632,2.11,2.11,0,0,0-1.644.736,2.7,2.7,0,0,0-.656,1.863V19.31h1.311V20h-4.347v-.69h1.311V12.686a3.4,3.4,0,0,0-.437-1.921,1.511,1.511,0,0,0-1.334-.632,2.135,2.135,0,0,0-1.668.736,2.7,2.7,0,0,0-.655,1.863V19.31H509.5V20H505.04v-.69h1.518V10.294h-1.472V9.627l3.151-.184.046,1.081a3.254,3.254,0,0,1,2.76-1.173,3.394,3.394,0,0,1,1.656.4,2.49,2.49,0,0,1,1.081,1.115,2.92,2.92,0,0,1,1.2-1.127,3.764,3.764,0,0,1,1.748-.391q3.174,0,3.174,3.588V19.31Zm8.165.874a13.829,13.829,0,0,0-6.417-4.393l-.437.552a20.529,20.529,0,0,1,4.968,5.5ZM94.352,41.844h7.222l1.012.207V40.579l-1.012.207H94.352V37.52c.322-.23.46-.391.46-.6a.414.414,0,0,0-.437-.391l-2.323-.161.207,1.38v3.036H84.9l-1.012-.207v1.472l1.012-.207h7.36v11.8c0,.782-.345,1.127-1.15,1.127H88.763v1.058h3.864c1.2.023,1.725-.552,1.725-1.863Zm2.277,2.737a28.6,28.6,0,0,1,4.6,8.6l2.208-1.15a16.567,16.567,0,0,0-6.348-7.843ZM83.2,53.275A15.851,15.851,0,0,0,89.269,45.8c.414-.161.575-.322.575-.552a.485.485,0,0,0-.345-.437l-2.162-.782-.276,1.265a21.284,21.284,0,0,1-4.278,7.475Zm35.489-10.6a59.132,59.132,0,0,0,4.9-4.324c.621-.069.874-.23.874-.552a.713.713,0,0,0-.368-.529l-1.771-1.173-.828,1.242A44.745,44.745,0,0,1,106.4,47.8l.253.69a30.335,30.335,0,0,0,9.89-4.278V56.219h2.139Zm30.222,3.036L129.7,44.995V47.41l19.205-.69ZM162.8,55.736a11.4,11.4,0,0,0,6.831-4.163,16.1,16.1,0,0,0,3.335-7.567l-.713-.23c-1.518,4.324-4.393,7.843-7.406,9.062V37.98c.345-.23.46-.391.46-.6a.43.43,0,0,0-.437-.391l-2.277-.161.207,1.38Zm-10.879.069a12.618,12.618,0,0,0,5.152-5.474c.943-2.047,1.357-4.738,1.357-8.97v-2.6c.345-.23.46-.391.46-.6a.414.414,0,0,0-.437-.391l-2.346-.161.207,1.38v2.576c0,6.992-1.1,10.143-4.807,13.639Zm42.872-17.434a4.568,4.568,0,0,0-2.645-2.438l-.414.322a8.59,8.59,0,0,1,1.518,2.9Zm-5.7-1.587a9.424,9.424,0,0,1,1.265,3.059l1.61-.736a4.757,4.757,0,0,0-2.461-2.622Zm6.624,15.985c-3.312-3.335-8.809-9.5-11.431-12.857-.943-1.219-1.288-1.541-1.7-1.541-.46,0-.828.345-2.461,2.369-2.484,3.013-3.174,3.841-4.393,5.106l-1.15.966,1.288,1.748a.566.566,0,0,0,.46.3c.276,0,.414-.207.437-.621,1.242-1.725,1.978-2.783,4.554-6.555.92-1.4,1.081-1.61,1.242-1.61.092,0,.207.115.483.552a160.75,160.75,0,0,0,11.04,14.1Zm22.195-7.061L198.7,44.995V47.41l19.205-.69Zm15.249,1.633a28.962,28.962,0,0,0,4.738-9.315H224.279l-1.012-.207v1.472l1.012-.207h10.879a26.5,26.5,0,0,1-13.892,15.5l.322.713a23.122,23.122,0,0,0,11.086-7.337,39.261,39.261,0,0,1,6.578,7.5L241.3,53.8a28.094,28.094,0,0,0-7.843-6.3Zm20.148,5.865V55h-9.039v-.805q2.921-3.174,4.266-4.8a14.578,14.578,0,0,0,1.932-2.84,5.818,5.818,0,0,0,.587-2.553,3.781,3.781,0,0,0-.747-2.542,2.426,2.426,0,0,0-1.921-.862,2.272,2.272,0,0,0-2,1.012A4.863,4.863,0,0,0,245.6,44.1h-1.242v-2.76a4.3,4.3,0,0,1,1.725-1.1,6.561,6.561,0,0,1,2.323-.414,6.1,6.1,0,0,1,2.219.414,3.976,3.976,0,0,1,1.771,1.345,3.849,3.849,0,0,1,.7,2.381,4.252,4.252,0,0,1-.552,2.082,13.24,13.24,0,0,1-1.829,2.392q-1.276,1.391-4.611,4.772Zm3.818-.552a1.331,1.331,0,0,1,1.023.472,1.9,1.9,0,0,1,.426,1.323,3.458,3.458,0,0,1-.644,2.07,4.487,4.487,0,0,1-1.748,1.426l-.345-.552a3.354,3.354,0,0,0,1.046-.862,1.792,1.792,0,0,0,.495-1.139.7.7,0,0,0-.023-.207,1.428,1.428,0,0,1-.276.023,1.213,1.213,0,0,1-.931-.357,1.277,1.277,0,0,1-.333-.908,1.229,1.229,0,0,1,.379-.92A1.287,1.287,0,0,1,257.123,52.654Zm8.395-7.337a4.817,4.817,0,0,1,2.243.54,4.261,4.261,0,0,1,1.7,1.622,4.874,4.874,0,0,1,.655,2.576,5.139,5.139,0,0,1-.759,2.852,4.9,4.9,0,0,1-1.921,1.759,5.41,5.41,0,0,1-5.094-.1,4.892,4.892,0,0,1-1.863-1.886l.736-.46a3.966,3.966,0,0,0,1.518,1.541,4.2,4.2,0,0,0,2.093.529,2.982,2.982,0,0,0,1.622-.472,3.379,3.379,0,0,0,1.207-1.391,4.834,4.834,0,0,0,.46-2.185,4.618,4.618,0,0,0-.46-2.15,3.1,3.1,0,0,0-1.207-1.311,3.223,3.223,0,0,0-1.622-.425,2.634,2.634,0,0,0-1.38.345,4.3,4.3,0,0,0-1.035.874h-.9l.552-7.475h7.314v1.84h-6.6l-.322,4.462a4.057,4.057,0,0,1,1.323-.782A4.887,4.887,0,0,1,265.518,45.317Zm16.629,7.889V55h-9.039v-.805q2.921-3.174,4.267-4.8a14.579,14.579,0,0,0,1.932-2.84,5.818,5.818,0,0,0,.586-2.553,3.781,3.781,0,0,0-.747-2.542,2.426,2.426,0,0,0-1.921-.862,2.272,2.272,0,0,0-2,1.012,4.863,4.863,0,0,0-.782,2.484H273.2v-2.76a4.3,4.3,0,0,1,1.725-1.1,6.561,6.561,0,0,1,2.323-.414,6.1,6.1,0,0,1,2.22.414,3.976,3.976,0,0,1,1.771,1.345,3.849,3.849,0,0,1,.7,2.381,4.252,4.252,0,0,1-.552,2.082,13.24,13.24,0,0,1-1.829,2.392q-1.276,1.391-4.611,4.772Zm7.475-7.889a4.817,4.817,0,0,1,2.243.54,4.261,4.261,0,0,1,1.7,1.622,4.874,4.874,0,0,1,.655,2.576,5.139,5.139,0,0,1-.759,2.852,4.9,4.9,0,0,1-1.921,1.759,5.41,5.41,0,0,1-5.094-.1,4.892,4.892,0,0,1-1.863-1.886l.736-.46a3.966,3.966,0,0,0,1.518,1.541,4.2,4.2,0,0,0,2.093.529,2.982,2.982,0,0,0,1.622-.472,3.379,3.379,0,0,0,1.207-1.391,4.834,4.834,0,0,0,.46-2.185,4.618,4.618,0,0,0-.46-2.15,3.1,3.1,0,0,0-1.207-1.311,3.223,3.223,0,0,0-1.622-.425,2.634,2.634,0,0,0-1.38.345,4.3,4.3,0,0,0-1.035.874h-.9l.552-7.475h7.314v1.84h-6.6l-.322,4.462a4.057,4.057,0,0,1,1.323-.782A4.887,4.887,0,0,1,289.622,45.317Zm22.954,8.993V55h-4.393v-.69h1.173V47.686a3.4,3.4,0,0,0-.437-1.921,1.511,1.511,0,0,0-1.334-.632,2.11,2.11,0,0,0-1.645.736,2.7,2.7,0,0,0-.655,1.863V54.31H306.6V55h-4.347v-.69h1.311V47.686a3.4,3.4,0,0,0-.437-1.921,1.511,1.511,0,0,0-1.334-.632,2.135,2.135,0,0,0-1.668.736,2.7,2.7,0,0,0-.655,1.863V54.31h1.219V55h-4.462v-.69h1.518V45.294h-1.472v-.667l3.151-.184.046,1.081a3.254,3.254,0,0,1,2.76-1.173,3.394,3.394,0,0,1,1.656.4,2.49,2.49,0,0,1,1.081,1.115,2.92,2.92,0,0,1,1.2-1.127,3.764,3.764,0,0,1,1.748-.391q3.174,0,3.174,3.588V54.31Zm17.365,0V55h-4.393v-.69h1.173V47.686a3.4,3.4,0,0,0-.437-1.921,1.511,1.511,0,0,0-1.334-.632,2.11,2.11,0,0,0-1.645.736,2.7,2.7,0,0,0-.655,1.863V54.31h1.311V55h-4.347v-.69h1.311V47.686a3.4,3.4,0,0,0-.437-1.921,1.511,1.511,0,0,0-1.334-.632,2.135,2.135,0,0,0-1.668.736,2.7,2.7,0,0,0-.655,1.863V54.31h1.219V55h-4.462v-.69h1.518V45.294h-1.472v-.667l3.151-.184.046,1.081a3.254,3.254,0,0,1,2.76-1.173,3.394,3.394,0,0,1,1.656.4,2.49,2.49,0,0,1,1.081,1.115,2.92,2.92,0,0,1,1.2-1.127,3.764,3.764,0,0,1,1.748-.391q3.174,0,3.174,3.588V54.31Zm8.165.874a13.829,13.829,0,0,0-6.417-4.393l-.437.552a20.529,20.529,0,0,1,4.968,5.5Zm26.013-10h10.373l.92.184V44.075l-.92.184h-19.32l-.92-.184v1.288l.92-.184h1.15v8.786c-.184.046-.3.046-.621.092-.483.069-.966.138-1.449.184l.644,1.679c.092.23.253.368.414.368.184,0,.322-.138.437-.46a47,47,0,0,0,6.67-2.277V56.84h1.7Zm-1.7,2.806v2.047h-4.393V47.985Zm-4.393-.92V45.179h4.393v1.886Zm4.393,3.887v1.84l-.46.092c-1.15.276-2.829.621-3.933.805V50.952Zm2.392,5.888a12.578,12.578,0,0,0,5.106-2.76,11.757,11.757,0,0,0,4.508,2.622,11.591,11.591,0,0,1,.989-1.794,12.762,12.762,0,0,1-4.347-2.047,19.642,19.642,0,0,0,3.266-6.072h-8.257l-.92-.184v1.288l.92-.184h.276a12.686,12.686,0,0,0,2.6,5.359,11.748,11.748,0,0,1-4.416,3.2Zm7.222-9.131a18.374,18.374,0,0,1-2.162,4.186,10.682,10.682,0,0,1-2.714-4.186Zm-14.789-11.2v6.141h15.295V36.508Zm1.84,5.221V39.981h11.569v1.748Zm0-2.668V37.428h11.569v1.633Zm27.6-.966H378.31l-.92-.184V39.2l.92-.184h19.021l.92.184V37.911l-.92.184h-8.556V36.462c.3-.23.368-.322.368-.46,0-.23-.161-.322-.483-.322h-1.978Zm10.6,8.694H378.356V56.7h1.909V47.709h15.111v6.946c-.023.713-.253.943-.966.966h-1.955v.966h2.829c1.4,0,2.024-.575,2-1.909Zm-14.674,2.622V55h1.817V53.942h8.211V49.411Zm1.817,3.611V50.331h6.417v2.691Zm10.1-7.981V40.694H381.116v4.347Zm-11.5-.92V41.614h9.591v2.507Zm26.7,10.212h-6.509V48.284c.3-.207.368-.3.368-.46,0-.207-.161-.3-.483-.3h-1.863v9.016h1.978V55.253h15.226V56.4h1.978V48.284c.3-.23.368-.3.368-.46,0-.207-.161-.3-.483-.3h-1.863v6.808h-6.739V45.455h7.636V38.463c.3-.207.368-.3.368-.46,0-.207-.161-.3-.483-.3h-1.863v6.831h-5.658V36.577c.276-.207.368-.3.368-.46,0-.207-.161-.3-.483-.3h-1.863v8.717h-5.451V38.463c.3-.207.368-.3.368-.46,0-.207-.161-.3-.483-.3H402.3v7.751h7.429Zm21.045-13.294a29.1,29.1,0,0,1-1.311,7.429,13.821,13.821,0,0,1-6.21,7.383l.345.736a13.744,13.744,0,0,0,7.475-6.762,24.733,24.733,0,0,0,1.794-8.786h7.866c-.115,3.542-.552,9.89-.782,11.454-.207,2.208-.6,2.737-1.978,2.714h-3.059v1.081h4.14c1.955.023,2.783-.759,2.99-2.852.253-1.61.782-10.1.874-13.363H432.912c.069-.782.092-1.518.092-2.277V36.439c.276-.207.368-.3.368-.46,0-.207-.161-.3-.483-.3h-2V37.8c0,.552-.023,1.357-.069,2.277h-6.072l-.9-.184v1.334l.9-.184Zm24.012,13.133V55h-6.44v-.828h2.369V41.913l-2.277,1.472-.483-.736,3.795-2.553h.782V54.172Zm9.936-7.222q3.22,1.035,3.22,3.818a3.952,3.952,0,0,1-.747,2.415,4.778,4.778,0,0,1-1.932,1.541,6,6,0,0,1-2.473.529,4.974,4.974,0,0,1-2.656-.713,5.252,5.252,0,0,1-1.828-1.863l.736-.46a3.694,3.694,0,0,0,1.564,1.541,4.352,4.352,0,0,0,2,.506,3.571,3.571,0,0,0,1.6-.368,2.963,2.963,0,0,0,1.219-1.127,3.42,3.42,0,0,0,.471-1.84,3.264,3.264,0,0,0-.932-2.45,3.18,3.18,0,0,0-2.311-.909h-.575v-.713a3.9,3.9,0,0,0,1.587-.345,3,3,0,0,0,1.288-1.092,3.271,3.271,0,0,0,.506-1.875,3.418,3.418,0,0,0-.644-2.1,2.438,2.438,0,0,0-3.829.138,5.046,5.046,0,0,0-.747,2.5h-1.242v-2.76a4.551,4.551,0,0,1,1.7-1.1,6.13,6.13,0,0,1,2.254-.414,5.569,5.569,0,0,1,2.231.437A3.873,3.873,0,0,1,466.8,41.5a3.207,3.207,0,0,1,.609,1.955Q467.412,45.777,464.721,46.95Zm10.787-1.633a4.817,4.817,0,0,1,2.243.54,4.261,4.261,0,0,1,1.7,1.622,4.874,4.874,0,0,1,.655,2.576,5.139,5.139,0,0,1-.759,2.852,4.9,4.9,0,0,1-1.921,1.759,5.41,5.41,0,0,1-5.094-.1,4.892,4.892,0,0,1-1.863-1.886l.736-.46a3.966,3.966,0,0,0,1.518,1.541,4.2,4.2,0,0,0,2.093.529,2.982,2.982,0,0,0,1.622-.472,3.379,3.379,0,0,0,1.207-1.391,4.834,4.834,0,0,0,.46-2.185,4.618,4.618,0,0,0-.46-2.15,3.1,3.1,0,0,0-1.207-1.311,3.223,3.223,0,0,0-1.622-.425,2.634,2.634,0,0,0-1.38.345,4.3,4.3,0,0,0-1.035.874h-.9l.552-7.475h7.314v1.84h-6.6l-.322,4.462a4.057,4.057,0,0,1,1.323-.782A4.887,4.887,0,0,1,475.508,45.317Zm17.227,8.993V55H489.63L485.9,49.779h-.736V54.31h1.426V55h-4.623v-.69h1.472V39.981h-1.656v-.667l3.381-.207V49h.782l3.519-3.7H487.9V44.6h4.186v.69h-1.449l-3.312,3.519,4.025,5.5Zm22.241-13.386h-1.7L509.3,55h-1.058L504.12,43.362,500.371,55h-1.058L495.1,40.924h-1.817V40.1h5.75v.828H497.2L500.348,51.9,504.1,40.188h.966l4.209,11.638,3.013-10.9h-1.817V40.1h4.508ZM516.4,51.5a22.954,22.954,0,0,1,4.531,5.014l1.288-1.219a23.437,23.437,0,0,0-4.623-4.876ZM33.632,80.179H44.005l.92.184V79.075l-.92.184H24.685l-.92-.184v1.288l.92-.184h1.15v8.786c-.184.046-.3.046-.621.092-.483.069-.966.138-1.449.184l.644,1.679c.092.23.253.368.414.368.184,0,.322-.138.437-.46a47,47,0,0,0,6.67-2.277V91.84h1.7Zm-1.7,2.806v2.047H27.537V82.985Zm-4.393-.92V80.179H31.93v1.886Zm4.393,3.887v1.84l-.46.092c-1.15.276-2.829.621-3.933.805V85.952Zm2.392,5.888a12.578,12.578,0,0,0,5.106-2.76A11.757,11.757,0,0,0,43.936,91.7a11.591,11.591,0,0,1,.989-1.794,12.762,12.762,0,0,1-4.347-2.047,19.642,19.642,0,0,0,3.266-6.072H35.587l-.92-.184v1.288l.92-.184h.276a12.685,12.685,0,0,0,2.6,5.359,11.748,11.748,0,0,1-4.416,3.2Zm7.222-9.131a18.374,18.374,0,0,1-2.162,4.186,10.681,10.681,0,0,1-2.714-4.186Zm-14.789-11.2v6.141h15.3V71.508Zm1.84,5.221V74.981H40.164v1.748Zm0-2.668V72.428H40.164v1.633Zm37.927,3.956.966.184V76.8l-.966.184H57.851l.023-.069c.161-1.61.276-3.335.276-4.623v-.713c.3-.207.368-.3.368-.46,0-.207-.161-.3-.483-.3H56.057v1.518c.023.667-.161,3.289-.3,4.577l-.023.069H48.168L47.2,76.8v1.4l.966-.184H55.62a16.208,16.208,0,0,1-8.855,13.064l.368.621c6.118-2.323,9.591-6.578,10.488-12.811a19.275,19.275,0,0,0,9.062,12.7,13.542,13.542,0,0,1,1.242-2.3,19.273,19.273,0,0,1-7.5-6.394,14.315,14.315,0,0,1-2.369-4.876Zm11.891-5.543c.3-.161.46-.345.46-.552s-.184-.368-.46-.391l-2.3-.161.161,1.38V91.1h2.139V78.914a22.847,22.847,0,0,1,8.579,5.934l1.564-2.093a24.546,24.546,0,0,0-10.143-4.692Zm25.576,18.262a11.4,11.4,0,0,0,6.831-4.163,16.1,16.1,0,0,0,3.335-7.567l-.713-.23c-1.518,4.324-4.393,7.843-7.406,9.062V72.98c.345-.23.46-.391.46-.6a.43.43,0,0,0-.437-.391l-2.277-.161.207,1.38Zm-10.879.069a12.618,12.618,0,0,0,5.152-5.474c.943-2.047,1.357-4.738,1.357-8.97v-2.6c.345-.23.46-.391.46-.6a.414.414,0,0,0-.437-.391L97.3,72.612l.207,1.38v2.576c0,6.992-1.1,10.143-4.807,13.639Zm32.545-16.284c.253-.506.46-1.012.805-1.909.437-.207.6-.345.6-.6,0-.207-.161-.345-.506-.414l-2.162-.46-.23,1.311a19.61,19.61,0,0,1-6.187,9.154l.368.552a15.433,15.433,0,0,0,6.762-6.578h7.2c-.782,3.864-3.128,8.188-5.612,10.3a22.6,22.6,0,0,1-8.625,4.508l.138.69c4.37-.805,6.716-1.7,9.246-3.519,3.8-2.76,6.325-7.222,7.383-13.041Zm22.839,13.685V90h-9.039v-.805q2.921-3.174,4.266-4.8a14.578,14.578,0,0,0,1.932-2.84,5.818,5.818,0,0,0,.587-2.553,3.781,3.781,0,0,0-.747-2.541,2.426,2.426,0,0,0-1.921-.863,2.272,2.272,0,0,0-2,1.012,4.863,4.863,0,0,0-.782,2.484h-1.242v-2.76a4.3,4.3,0,0,1,1.725-1.1,6.561,6.561,0,0,1,2.323-.414,6.1,6.1,0,0,1,2.219.414,3.976,3.976,0,0,1,1.771,1.345,3.849,3.849,0,0,1,.7,2.381,4.252,4.252,0,0,1-.552,2.082,13.24,13.24,0,0,1-1.829,2.392q-1.276,1.391-4.611,4.772ZM155.831,74.8a4.5,4.5,0,0,1,2.737.863,5.5,5.5,0,0,1,1.817,2.5,10.512,10.512,0,0,1,.644,3.864,11.49,11.49,0,0,1-.759,4.336,6.873,6.873,0,0,1-2.036,2.886,4.37,4.37,0,0,1-2.771,1.012,4.548,4.548,0,0,1-2.426-.7,4.982,4.982,0,0,1-1.783-1.874l.736-.483a4.457,4.457,0,0,0,1.472,1.587,3.4,3.4,0,0,0,1.863.575,2.9,2.9,0,0,0,2.657-1.794,11.194,11.194,0,0,0,1.023-4.784,4.648,4.648,0,0,1-1.437,1.242,4.124,4.124,0,0,1-2.081.506,4.736,4.736,0,0,1-2.243-.552,4.232,4.232,0,0,1-1.679-1.61,4.841,4.841,0,0,1-.632-2.53,5.159,5.159,0,0,1,.667-2.657,4.675,4.675,0,0,1,1.783-1.759A4.951,4.951,0,0,1,155.831,74.8Zm.115,8.878a2.663,2.663,0,0,0,1.943-.782,4.108,4.108,0,0,0,1.093-1.863,8.737,8.737,0,0,0-1.047-4.094,2.72,2.72,0,0,0-2.4-1.4,2.15,2.15,0,0,0-1.99,1.058,5.433,5.433,0,0,0-.632,2.806,5.039,5.039,0,0,0,.863,3.208A2.679,2.679,0,0,0,155.946,83.675Zm12.006,6.578a4.267,4.267,0,0,1-2.76-.966,6.174,6.174,0,0,1-1.852-2.726,12.72,12.72,0,0,1,0-8.062,6.133,6.133,0,0,1,1.863-2.714,4.48,4.48,0,0,1,5.543-.012,6.051,6.051,0,0,1,1.863,2.7,12.616,12.616,0,0,1-.011,8.062,6.293,6.293,0,0,1-1.874,2.737A4.281,4.281,0,0,1,167.952,90.253Zm.023-.736a2.6,2.6,0,0,0,2.392-1.794,12.825,12.825,0,0,0,.828-5.2,12.752,12.752,0,0,0-.828-5.175,2.492,2.492,0,0,0-4.784,0,12.752,12.752,0,0,0-.828,5.175,12.825,12.825,0,0,0,.828,5.2A2.6,2.6,0,0,0,167.975,89.517Zm6.785-.345h1.84V75.924h-1.84V75.1h3.749l6.923,11.178V75.924h-1.84V75.1h4.669v.828h-1.84V90h-1.058l-7.774-12.673V89.172h1.84V90H174.76Zm31,.138V90h-4.393v-.69h1.173V82.686a3.4,3.4,0,0,0-.437-1.92,1.511,1.511,0,0,0-1.334-.632,2.11,2.11,0,0,0-1.645.736,2.7,2.7,0,0,0-.656,1.863V89.31h1.311V90h-4.347v-.69h1.311V82.686a3.4,3.4,0,0,0-.437-1.92,1.511,1.511,0,0,0-1.334-.632,2.135,2.135,0,0,0-1.667.736,2.7,2.7,0,0,0-.656,1.863V89.31h1.219V90h-4.462v-.69h1.518V80.294h-1.472v-.667l3.151-.184.046,1.081a3.254,3.254,0,0,1,2.76-1.173,3.394,3.394,0,0,1,1.656.4,2.49,2.49,0,0,1,1.081,1.116,2.92,2.92,0,0,1,1.2-1.127,3.764,3.764,0,0,1,1.748-.391q3.174,0,3.174,3.588V89.31Zm1.449-2.806a22.955,22.955,0,0,1,4.531,5.014l1.288-1.219a23.436,23.436,0,0,0-4.623-4.876Zm30.061,4.9a14.446,14.446,0,0,0,6.3-2.507c2.967-2.254,3.726-4.393,3.7-10.35v-5.98c.345-.23.46-.391.46-.6a.414.414,0,0,0-.437-.391l-2.369-.161.207,1.38v5.888c-.023,5.014-.529,6.785-2.6,8.878a13.332,13.332,0,0,1-5.428,3.151Zm-3.243-18.262V84.319h2.139V72.934c.345-.253.46-.414.46-.6a.414.414,0,0,0-.437-.391l-2.369-.184Zm20.631,6.3-1.012-.207v1.472l1.012-.207h8.648c-.207,2.9-.736,4.646-1.817,5.957a13.749,13.749,0,0,1-6.141,4.025l.184.667a14.277,14.277,0,0,0,7.406-3.565c1.541-1.541,2.277-3.611,2.507-7.084h7.2l1.012.207V79.236l-1.012.207h-7.13c.046-1.219.069-2.254.069-2.967v-2.07c1.242-.115,2.392-.3,4.83-.736a3.423,3.423,0,0,0,.667.115.479.479,0,0,0,.483-.437,1,1,0,0,0-.345-.667l-1.2-1.127-1.081.46a79.2,79.2,0,0,1-13.915,2.139l.046.713c1.794.046,2.07.046,2.783.046,1.771,0,2.484-.046,5.52-.276h.069v1.84c0,.667-.023,1.725-.069,2.967Zm30.705-4H278.1v6.9h2.185V76.5h12.673c-.046,3.887-.851,6.946-2.323,8.786-1.748,2.277-4.9,4.094-8.878,5.129l.138.713c4.048-.46,7.636-1.909,9.8-3.979,2.553-2.484,3.519-5.474,3.772-11.707h-7.889V72.635c.345-.23.46-.391.46-.6a.43.43,0,0,0-.437-.391l-2.438-.161.207,1.38Zm34.615,13.846c-1.771-4.462-4.255-7.889-7.2-9.89l-.483.414a34.469,34.469,0,0,1,3.588,5.934c-4.393.644-7.268.943-11.569,1.219l.276-.506a106.623,106.623,0,0,0,5.75-13.11c.437-.184.621-.345.621-.6,0-.207-.161-.368-.483-.46l-2.277-.713-.23,1.334A120.9,120.9,0,0,1,303.261,86.3l-.322.782H302.8c-.621.046-1.2.069-3.128.161l.736,2c.184.437.322.6.552.6.253,0,.414-.138.621-.552a100.065,100.065,0,0,0,14.743-2.668A36.053,36.053,0,0,1,317.8,90.6Zm12.7-10.511a2.5,2.5,0,1,0,2.461,2.484A2.5,2.5,0,0,0,332.678,78.776Zm25.507-1.1a59.128,59.128,0,0,0,4.9-4.324c.621-.069.874-.23.874-.552a.713.713,0,0,0-.368-.529l-1.771-1.173-.828,1.242A44.745,44.745,0,0,1,345.9,82.8l.253.69a30.335,30.335,0,0,0,9.89-4.278V91.219h2.139ZM381.139,88.8c-.046.966-.368,1.265-1.334,1.288h-2.392V91.15h3.772a2.229,2.229,0,0,0,1.495-.437,2.03,2.03,0,0,0,.575-1.38v-.368l-.276-11.822h5.083l.92.184V75.9l-.92.184h-5.106l-.092-3.726c.3-.23.391-.368.391-.552,0-.23-.207-.391-.575-.391l-2.139-.115.23,1.541.069,3.243H370.421l-.92-.184v1.426l.92-.184h9.039l-.046.069a27.28,27.28,0,0,1-10.35,11.178l.3.552c4.784-1.794,7.843-4.416,11.546-9.936Zm30.13-13.2a22.83,22.83,0,0,1-5.865,7.452c-3.059,2.484-5.681,3.657-10.557,4.669l-1.219.023.828,2.047c.138.322.345.506.575.506.253,0,.437-.161.6-.529,5.2-1.173,8.464-2.737,11.293-5.4a19.386,19.386,0,0,0,4.991-8.464ZM393.421,73.1a21.622,21.622,0,0,1,5.727,4.922l1.886-1.909A14.194,14.194,0,0,0,393.7,72.5Zm31.257,5.681a2.5,2.5,0,1,0,2.461,2.484A2.5,2.5,0,0,0,424.678,78.776Zm33.787-5.934a4.606,4.606,0,0,0-2.714-2.392l-.368.322a9.244,9.244,0,0,1,1.541,2.9Zm-21,16.813c3.795-3.013,6.256-7.429,7.544-13.616.506-.184.713-.391.713-.69,0-.23-.184-.414-.529-.506l-2.392-.6-.069,1.334a31.219,31.219,0,0,1-5.773,13.639Zm11.569-14.927a44.274,44.274,0,0,1,6.371,14.766L457.8,88.16c-1.656-5.635-4.807-11.017-8.142-13.915Zm3.657-3.611a10.109,10.109,0,0,1,1.4,3.151l1.541-.736a4.551,4.551,0,0,0-2.53-2.714Zm14.375,20.24a12.2,12.2,0,0,0,7.268-4.048c1.564-1.84,2.622-4.3,3.45-8.1.368-.092.506-.23.506-.437,0-.138-.115-.276-.345-.345l-2.162-.69-.046,1.219a22.16,22.16,0,0,1-2.415,6.624,12.142,12.142,0,0,1-6.486,5.106Zm.506-8.211a8.614,8.614,0,0,0-3.8-5.106l-.391.3a15.448,15.448,0,0,1,2.369,5.5Zm4.554-.575a9.1,9.1,0,0,0-3.634-5.106l-.414.322a15.549,15.549,0,0,1,2.208,5.5Zm30.521-2.438,1.012.207V78.868l-1.012.207H484.662l-1.012-.207V80.34l1.012-.207h8.211a12.941,12.941,0,0,1-.782,5.037c-.989,2.323-3.588,4.324-6.969,5.336l.184.759c3.726-.759,6.762-2.369,8.1-4.278,1.173-1.564,1.7-3.68,1.7-6.854Zm-2.99-7.452H487.514l-1.012-.207v1.472l1.012-.207h12.144l1.012.207V72.474ZM513.274,91.4a14.446,14.446,0,0,0,6.3-2.507c2.967-2.254,3.726-4.393,3.7-10.35v-5.98c.345-.23.46-.391.46-.6a.414.414,0,0,0-.437-.391l-2.369-.161.207,1.38v5.888c-.023,5.014-.529,6.785-2.6,8.878a13.332,13.332,0,0,1-5.428,3.151Zm-3.243-18.262V84.319h2.139V72.934c.345-.253.46-.414.46-.6a.414.414,0,0,0-.437-.391l-2.369-.184Zm39.376,7.567L530.2,80V82.41l19.205-.69Zm13.915-2c.368-.161.506-.276.506-.483,0-.184-.115-.276-.483-.368l-1.541-.391a28.734,28.734,0,0,1-9.729,7.958l.207.621a26.551,26.551,0,0,0,3.611-1.472V91.7H557.8V90.69h9.706v.9h1.909V84.6a18.863,18.863,0,0,0,2.875,1.2,10.429,10.429,0,0,1,.943-2,21.956,21.956,0,0,1-9.844-5.037Zm-7.176,5.727a22.679,22.679,0,0,0,6.67-5.221,19.8,19.8,0,0,0,6.3,5.221ZM557.8,89.77V85.354h9.706V89.77Zm3.726-16.836h-6.44a6.032,6.032,0,0,0-.046-.966h-.782a5.855,5.855,0,0,1-2.185,3.726l1.4,1.7a4.873,4.873,0,0,0,1.564-3.542h15.5a18.019,18.019,0,0,1-1.265,2.6l.46.345a8.789,8.789,0,0,0,3.5-3.864h-9.683V71.439c.3-.23.368-.3.368-.437,0-.23-.161-.322-.483-.322h-1.909Zm2.714,2.829a27.167,27.167,0,0,1,5.75,4.37l1.564-1.61a23.766,23.766,0,0,0-6.854-3.335Zm-10.235,4.6a17.057,17.057,0,0,0,6.072-3.749c.506-.092.782-.253.782-.483,0-.115-.161-.276-.368-.368L558.768,75a20.126,20.126,0,0,1-5.106,4.784Zm30.728,9.959H576l-.92-.184v1.219l.92-.184h19.32l.92.184V90.138l-.92.184h-8.9V88.574h7.245l.9.184V87.539l-.9.184h-7.245V86.136h7.176V80.409H577.72v5.727h7.015v1.587h-7.107l-.9-.184v1.219l.9-.184h7.107Zm0-5.037h-5.244v-1.61h5.244Zm0-2.461h-5.244V81.26h5.244Zm1.679-1.564h5.405v1.564h-5.405Zm0,2.415h5.405v1.61h-5.405Zm-8.395-12.19v5.566h15.272V71.485Zm1.84.851h11.592v1.472H579.859Zm0,3.864V74.659h11.592V76.2Zm-3.726,2.944h19.044l.92.184V78.109l-.92.184H576.133l-.92-.184v1.219ZM89.9,124.172V125h-6.44v-.828h2.369V111.913l-2.277,1.472-.483-.736,3.795-2.553h.782v14.076Zm13.248-.966V125H94.111v-.805q2.921-3.174,4.267-4.8a14.578,14.578,0,0,0,1.932-2.84,5.818,5.818,0,0,0,.587-2.553,3.781,3.781,0,0,0-.748-2.541,2.426,2.426,0,0,0-1.921-.863,2.272,2.272,0,0,0-2,1.012,4.863,4.863,0,0,0-.782,2.484H94.2v-2.76a4.3,4.3,0,0,1,1.725-1.1,6.561,6.561,0,0,1,2.323-.414,6.1,6.1,0,0,1,2.219.414,3.976,3.976,0,0,1,1.771,1.345,3.849,3.849,0,0,1,.7,2.381,4.252,4.252,0,0,1-.552,2.082,13.24,13.24,0,0,1-1.828,2.392q-1.276,1.391-4.612,4.772Zm7.981-7.682a4.817,4.817,0,0,1,2.243.54,4.152,4.152,0,0,1,1.679,1.6,4.8,4.8,0,0,1,.633,2.507,5.264,5.264,0,0,1-.656,2.633,4.691,4.691,0,0,1-1.783,1.806,4.919,4.919,0,0,1-2.484.644,4.416,4.416,0,0,1-2.737-.885,5.586,5.586,0,0,1-1.805-2.519,10.541,10.541,0,0,1-.632-3.818,11.189,11.189,0,0,1,.782-4.335,6.946,6.946,0,0,1,2.081-2.887,4.493,4.493,0,0,1,2.818-1.012,4.245,4.245,0,0,1,2.15.575A5.177,5.177,0,0,1,115.133,112l-.69.575a4.859,4.859,0,0,0-1.392-1.38,3.09,3.09,0,0,0-1.69-.506,2.941,2.941,0,0,0-2.679,1.805,11.176,11.176,0,0,0-1.07,4.773,4.648,4.648,0,0,1,1.438-1.242A4.124,4.124,0,0,1,111.131,115.524Zm.023,8.993a2.084,2.084,0,0,0,1.921-1.069,5.445,5.445,0,0,0,.632-2.795,4.991,4.991,0,0,0-.874-3.208,2.759,2.759,0,0,0-4.105-.288,3.935,3.935,0,0,0-1.069,1.863,8.286,8.286,0,0,0,1.1,4.082A2.8,2.8,0,0,0,111.154,124.517Zm7.866.736a1.374,1.374,0,1,1,.978-.4A1.331,1.331,0,0,1,119.02,125.253Zm8.418,0a4.267,4.267,0,0,1-2.76-.966,6.174,6.174,0,0,1-1.852-2.726,12.72,12.72,0,0,1,0-8.062,6.133,6.133,0,0,1,1.863-2.714,4.48,4.48,0,0,1,5.543-.012,6.051,6.051,0,0,1,1.863,2.7,12.616,12.616,0,0,1-.012,8.062,6.293,6.293,0,0,1-1.874,2.737A4.281,4.281,0,0,1,127.438,125.253Zm.023-.736a2.6,2.6,0,0,0,2.392-1.794,12.825,12.825,0,0,0,.828-5.2,12.752,12.752,0,0,0-.828-5.175,2.492,2.492,0,0,0-4.784,0,12.752,12.752,0,0,0-.828,5.175,12.825,12.825,0,0,0,.828,5.2A2.6,2.6,0,0,0,127.461,124.517Zm20.792-.345V125h-5.336v-.828H144.6L142.94,119.5h-4.945l-1.656,4.669h1.679V125h-4.3v-.828h1.633l5.083-14.076h1.081l5.106,14.076Zm-5.635-5.543-2.116-5.957h-.092l-2.116,5.957ZM159.8,124.31V125h-4.692v-.69H156.6v-6.371a3.438,3.438,0,0,0-.529-2.07,1.874,1.874,0,0,0-1.61-.713,2.483,2.483,0,0,0-1.817.7,2.423,2.423,0,0,0-.713,1.806v6.647H153.4V125h-4.669v-.69h1.472V109.981h-1.656v-.667l3.381-.207v6.417a2.856,2.856,0,0,1,1.219-.863,4.767,4.767,0,0,1,1.771-.311,3.388,3.388,0,0,1,2.542.909,3.691,3.691,0,0,1,.885,2.68v6.371Zm8.625-15.088h.966L161.915,125.6h-.966Zm11.592,12.4h-2.53V125h-1.817v-3.381h-6.44v-.9l5.888-10.626h2.369v9.959h2.53Zm-4.347-1.564v-8.717h-.3l-4.692,8.717Zm10.925,5.2a4.267,4.267,0,0,1-2.76-.966,6.174,6.174,0,0,1-1.852-2.726,12.72,12.72,0,0,1,0-8.062,6.133,6.133,0,0,1,1.863-2.714,4.48,4.48,0,0,1,5.543-.012,6.051,6.051,0,0,1,1.863,2.7,12.616,12.616,0,0,1-.011,8.062,6.293,6.293,0,0,1-1.874,2.737A4.281,4.281,0,0,1,186.594,125.253Zm.023-.736a2.6,2.6,0,0,0,2.392-1.794,12.825,12.825,0,0,0,.828-5.2,12.752,12.752,0,0,0-.828-5.175,2.492,2.492,0,0,0-4.784,0,12.752,12.752,0,0,0-.828,5.175,12.825,12.825,0,0,0,.828,5.2A2.6,2.6,0,0,0,186.617,124.517Zm8.441.736a1.374,1.374,0,1,1,.978-.4A1.331,1.331,0,0,1,195.058,125.253ZM207.432,110.1v.805L201.015,125h-1.081l6.072-13.133h-6.44l-.8,2.231h-.805v-4Zm12.19,14.214V125h-3.1l-3.726-5.221h-.736v4.531h1.426V125h-4.623v-.69h1.472V109.981h-1.656v-.667l3.381-.207V119h.782l3.519-3.7h-1.564v-.69h4.186v.69h-1.449l-3.312,3.519,4.025,5.5Zm22.241-13.386h-1.7L236.182,125h-1.058l-4.117-11.638L227.258,125H226.2l-4.209-14.076h-1.817V110.1h5.75v.828h-1.84l3.151,10.971,3.749-11.707h.966l4.209,11.638,3.013-10.9h-1.817V110.1h4.508Zm12.144,13.386V125h-4.692v-.69h1.495v-6.371a3.438,3.438,0,0,0-.529-2.07,1.874,1.874,0,0,0-1.61-.713,2.483,2.483,0,0,0-1.817.7,2.423,2.423,0,0,0-.713,1.806v6.647h1.472V125h-4.669v-.69h1.472V109.981H242.76v-.667l3.381-.207v6.417a2.856,2.856,0,0,1,1.219-.863,4.767,4.767,0,0,1,1.771-.311,3.388,3.388,0,0,1,2.542.909,3.691,3.691,0,0,1,.885,2.68v6.371Zm8.165.874a13.829,13.829,0,0,0-6.417-4.393l-.437.552a20.529,20.529,0,0,1,4.968,5.5Zm17.342-8.464h18.768l1.2.23v-1.909l-1.2.23H279.514l-1.2-.23v1.909Zm39.146-.851a18.006,18.006,0,0,1,1.633,1.932l1.679-1.794a26.79,26.79,0,0,0-7.176-4.83l-.552.621a35.388,35.388,0,0,1,3.634,3.243l-1.242.046c-2.622.092-3.68.115-7.59.161l-1.334.023a27.52,27.52,0,0,0,3.726-5.2l.023-.069h9.821l.92.184V108.9l-.92.184h-8.3v-2.622c.276-.207.368-.3.368-.46,0-.207-.161-.3-.506-.3h-1.955v3.381h-8.349l-.9-.184v1.288l.9-.184h6.555a41.646,41.646,0,0,1-2.346,4.9l-.207.368c-2.622.046-2.875.046-3.174.046h-1.173l.46,1.817c.092.345.253.529.46.529s.368-.184.506-.552c.782-.023,1.518-.069,1.748-.092l1.265-.069,1.265-.092a12.622,12.622,0,0,1-1.288,5.267,8.368,8.368,0,0,1-5.267,3.864l.253.713c2.967-.575,4.692-1.472,6.279-3.266,1.219-1.311,1.932-3.726,2.047-6.716l.276-.023c.483-.046.506-.046,1.725-.138.138-.023.828-.092,1.449-.138v7.59c0,1.748.621,2.254,2.714,2.231h3.68c1.587.023,2.254-.6,2.415-2.162l.3-2.691-1.035-.161-.253,2.185c-.092.759-.414,1.035-1.173,1.035h-3.634c-.874-.046-1.081-.23-1.081-.92V116.26l.621-.069a12.087,12.087,0,0,0,1.495-.184ZM335.542,123h7.636v-6.463H326.572v8.027H328.3V123h5.543v1.794c.046,1.1.6,1.472,2.277,1.518h7.2c1.242,0,1.748-.437,1.932-1.679l.207-1.7-.9-.092-.184,1.15c-.115.621-.368.805-1.127.828h-6.854c-.759-.046-.874-.115-.851-.69Zm0-5.543h5.865v1.794h-5.865Zm0,2.714h5.865v1.909h-5.865Zm-1.7,1.909H328.3V120.17h5.543Zm0-2.829H328.3v-1.794h5.543Zm0-9.2v5.543h1.7V110.05h7.636a21.667,21.667,0,0,1-1.127,3.174l.6.276a8.647,8.647,0,0,0,2.806-4.37h-9.913v-1.587h7.13l.92.184v-1.288l-.92.184H327.4l-.9-.184v1.288l.9-.184h6.44v1.587h-6.831v-.069l-.023-.6H326.2a6.307,6.307,0,0,1-1.886,3.864l1.426,1.61a6.156,6.156,0,0,0,1.265-3.887Zm-6.187,4.876h5.037v-.92h-5.037Zm0-2.438h5.037v-.92h-5.037Zm9.039,2.438h5.129v-.92h-5.129Zm0-2.438H341.8v-.92h-5.106Zm22.425,7.015h6.118l.92.184V118.4l-.92.184h-6.118v-3.91h8.3l.92.184v-1.288l-.92.184h-8.3v-3.887h6.417l.92.184v-1.288l-.92.184h-6.417v-2.392c.3-.23.368-.3.368-.437,0-.23-.161-.322-.506-.322h-1.84v3.151h-6.9l-.9-.184v1.288l.9-.184h6.9v3.887H348.4l-.9-.184v1.288l.9-.184h8.74v8.993a7.134,7.134,0,0,1-4.439-4.094c.138-.6.253-1.15.46-2.415.345-.138.529-.3.529-.506,0-.161-.184-.3-.437-.322l-1.978-.23c-.414,5.152-1.426,7.682-3.956,10.1l.414.506a9.284,9.284,0,0,0,4.738-6.187,13.341,13.341,0,0,0,.805,1.633,7.619,7.619,0,0,0,5.773,3.657,46.1,46.1,0,0,0,6.831.322h1.955a10.38,10.38,0,0,1,.644-2.047c-2.3.138-4.048.207-5.658.207a29.228,29.228,0,0,1-3.7-.184Zm28.8-4.853h2.645l.92.184v-1.288l-.92.184H379.311l-.92-.184v1.288l.92-.184h6.578v9.867c0,.736-.322,1.058-1.035,1.058h-2.507v.966h3.473c1.472,0,2.116-.6,2.093-2ZM373.722,126.7h1.909V114.9c.506-.644.8-1.012,1.564-2.024.6-.046.8-.161.8-.483,0-.138-.092-.253-.276-.368l-1.61-1.058a36.058,36.058,0,0,1-5.8,7.751l.391.575a27.4,27.4,0,0,0,3.013-2.392Zm7.015-18.653h8.648l.92.184V106.9l-.92.184h-8.648l-.92-.184v1.334Zm-9.752,3.519a20.651,20.651,0,0,0,5.75-3.91,1.629,1.629,0,0,0,.621-.069.362.362,0,0,0,.276-.322c0-.115-.069-.23-.253-.368l-1.61-1.219a24.652,24.652,0,0,1-5.175,5.313Zm28.4,6.693H401l.92.184v-1.288l-.92.184h-1.61v-3.565h2.185v-7.13h-7.13v7.13h3.289v9.913c-.207.023-.828.115-1.518.23v-7.59c.253-.207.322-.3.322-.437,0-.207-.161-.3-.506-.3H394.56v8.533h-.092c-.322.046-.529.069-1.15.138l.437,1.633c.069.276.207.437.391.437s.345-.161.414-.506a46.482,46.482,0,0,0,7.59-2.254l-.092-.667c-.621.115-1.265.253-1.932.368-.414.069-.506.092-.736.138Zm-3.22-5.4v-5.29h3.68v5.29Zm9.108,11.615v-4.83h8.073v-7.682h-8.073v-4.278h7.889l.92.184v-1.288l-.92.184h-9.775V126.7h1.886v-1.311h8.257l.943.184v-1.288l-.943.184Zm0-11.592h6.141v5.842h-6.141Zm20.263,9.407v1.978c-.023.759-.276,1.012-1.012,1.035H422.9v.966h2.323c1.357,0,1.955-.552,1.932-1.817v-6.969h-4.784c.115-.414.276-.989.391-1.564h3.772v-5.221c.3-.207.368-.3.368-.46,0-.207-.161-.3-.483-.3h-1.449V115h-6v-4.324c.3-.23.368-.322.368-.46,0-.207-.184-.322-.483-.322H417.4v6.026h3.772c-.046.414-.069.46-.253,1.564h-3.91v8.855h1.656V118.4h2.07c-.3,1.495-.506,2.484-.621,2.99l-.092.023c-.483.023-.483.023-1.1.046l.414,1.4c.046.207.184.345.322.345s.276-.138.391-.437a22.224,22.224,0,0,0,3.588-1.035,14.189,14.189,0,0,1,.483,1.4Zm0-3.887v3.795a10.806,10.806,0,0,0-2.461-2.921l-.483.23c.414.805.575,1.15.759,1.587-.529.069-2.024.23-2.369.253.3-.69.851-2.162,1.1-2.944Zm8.625-3.611v-3.565h2.116l.92.184v-1.288l-.92.184h-2.967a13.889,13.889,0,0,0,1.909-3.105c.368-.115.6-.3.6-.437a.478.478,0,0,0-.322-.345l-1.748-.552a29.621,29.621,0,0,1-1.265,4.439H429.8l.023-.069a23.346,23.346,0,0,0,1.357-3.174c.414-.138.644-.322.644-.483,0-.115-.161-.276-.3-.322l-1.817-.575a36.619,36.619,0,0,1-2.944,8.073l.46.345a19.745,19.745,0,0,0,1.495-1.932V126.7h1.61V125.46h6.233l.92.184v-1.288l-.92.184h-2.392v-4.3h1.587l.92.184v-1.288l-.92.184h-1.587v-3.611h1.587l.92.184V114.6l-.92.184Zm-1.587,0h-2.254v-3.565h2.254Zm0,.92v3.611h-2.254v-3.611Zm0,4.531v4.3h-2.254v-4.3Zm-13.087-9.706c.874.667,1.15.874,1.863,1.5a19.173,19.173,0,0,1-2.208,2.07l.345.483a13.877,13.877,0,0,0,2.691-1.794,14.745,14.745,0,0,1,1.564,1.61l1.058-1.081a13.942,13.942,0,0,0-1.748-1.38l.046-.046c.345-.391.529-.621.6-.69.138-.161.184-.253.368-.46.391-.023.575-.138.575-.322a.312.312,0,0,0-.161-.253l-1.265-.667a19.577,19.577,0,0,1-1.2,1.748c-.644-.414-1.15-.69-2.116-1.2Zm3.519-2.553v-1.4c.3-.207.368-.3.368-.46,0-.207-.161-.3-.483-.3h-1.771v2.162h-3.887l-.92-.184v1.288l.92-.184h9.522l.9.184V107.8l-.9.184Zm22.724,8.97q3.22,1.035,3.22,3.818a3.952,3.952,0,0,1-.747,2.415,4.778,4.778,0,0,1-1.932,1.541,6,6,0,0,1-2.473.529,4.974,4.974,0,0,1-2.656-.713,5.252,5.252,0,0,1-1.828-1.863l.736-.46a3.694,3.694,0,0,0,1.564,1.541,4.352,4.352,0,0,0,2,.506,3.571,3.571,0,0,0,1.6-.368,2.963,2.963,0,0,0,1.219-1.127,3.42,3.42,0,0,0,.471-1.84,3.264,3.264,0,0,0-.932-2.45,3.18,3.18,0,0,0-2.311-.909h-.575v-.713a3.9,3.9,0,0,0,1.587-.345,3,3,0,0,0,1.288-1.092,3.271,3.271,0,0,0,.506-1.875,3.418,3.418,0,0,0-.644-2.1,2.438,2.438,0,0,0-3.829.138,5.046,5.046,0,0,0-.747,2.5h-1.242v-2.76a4.551,4.551,0,0,1,1.7-1.1,6.13,6.13,0,0,1,2.254-.414,5.569,5.569,0,0,1,2.231.437,3.873,3.873,0,0,1,1.621,1.265,3.207,3.207,0,0,1,.61,1.955Q448.426,115.777,445.735,116.95Zm10.718,8.3a4.266,4.266,0,0,1-2.76-.966,6.173,6.173,0,0,1-1.852-2.726,12.72,12.72,0,0,1,0-8.062,6.133,6.133,0,0,1,1.863-2.714,4.48,4.48,0,0,1,5.543-.012,6.051,6.051,0,0,1,1.863,2.7,12.615,12.615,0,0,1-.012,8.062,6.293,6.293,0,0,1-1.874,2.737A4.281,4.281,0,0,1,456.453,125.253Zm.023-.736a2.6,2.6,0,0,0,2.392-1.794,12.825,12.825,0,0,0,.828-5.2,12.752,12.752,0,0,0-.828-5.175,2.492,2.492,0,0,0-4.784,0,12.752,12.752,0,0,0-.828,5.175,12.825,12.825,0,0,0,.828,5.2A2.6,2.6,0,0,0,456.476,124.517Zm12.1-9.2a4.817,4.817,0,0,1,2.243.54,4.261,4.261,0,0,1,1.7,1.622,4.874,4.874,0,0,1,.655,2.576,5.139,5.139,0,0,1-.759,2.852,4.9,4.9,0,0,1-1.921,1.759,5.41,5.41,0,0,1-5.094-.1,4.892,4.892,0,0,1-1.863-1.886l.736-.46a3.966,3.966,0,0,0,1.518,1.541,4.2,4.2,0,0,0,2.093.529,2.982,2.982,0,0,0,1.622-.472,3.379,3.379,0,0,0,1.207-1.391,4.834,4.834,0,0,0,.46-2.185,4.618,4.618,0,0,0-.46-2.15,3.1,3.1,0,0,0-1.207-1.311,3.223,3.223,0,0,0-1.622-.425,2.634,2.634,0,0,0-1.38.345,4.3,4.3,0,0,0-1.035.874h-.9l.552-7.475h7.314v1.84h-6.6l-.322,4.462a4.057,4.057,0,0,1,1.323-.782A4.887,4.887,0,0,1,468.574,115.317ZM485.8,124.31V125H482.7l-3.726-5.221h-.736v4.531h1.426V125h-4.623v-.69h1.472V109.981h-1.656v-.667l3.381-.207V119h.782l3.519-3.7h-1.564v-.69h4.186v.69h-1.449l-3.312,3.519,4.025,5.5Zm17.158,0V125h-4.393v-.69h1.173v-6.624a3.4,3.4,0,0,0-.437-1.92,1.511,1.511,0,0,0-1.334-.632,2.11,2.11,0,0,0-1.645.736,2.7,2.7,0,0,0-.655,1.863v6.578h1.311V125h-4.347v-.69h1.311v-6.624a3.4,3.4,0,0,0-.437-1.92,1.511,1.511,0,0,0-1.334-.632,2.135,2.135,0,0,0-1.668.736,2.7,2.7,0,0,0-.655,1.863v6.578h1.219V125h-4.462v-.69h1.518v-9.016h-1.472v-.667l3.151-.184.046,1.081a3.253,3.253,0,0,1,2.76-1.173,3.394,3.394,0,0,1,1.656.4,2.49,2.49,0,0,1,1.081,1.116,2.92,2.92,0,0,1,1.2-1.127,3.764,3.764,0,0,1,1.748-.391q3.174,0,3.174,3.588v6.371Zm3.866-13.683,1.234,1.449-.631.47-.993-1.65-.993,1.65-.631-.47,1.248-1.436-1.851-.429.241-.751,1.757.738-.161-1.892h.792l-.174,1.892,1.757-.738.255.751Zm-.389-.107-.013.013h.013l.013-.013ZM513.8,112.3a2.28,2.28,0,0,1,1.878,2.227,2.305,2.305,0,0,1-.436,1.409,2.787,2.787,0,0,1-1.127.9,3.5,3.5,0,0,1-1.442.309,2.9,2.9,0,0,1-1.55-.416,3.063,3.063,0,0,1-1.067-1.087l.429-.268a2.155,2.155,0,0,0,.912.9,2.539,2.539,0,0,0,1.167.3,2.083,2.083,0,0,0,.932-.215,1.728,1.728,0,0,0,.711-.657,2,2,0,0,0,.275-1.073,1.9,1.9,0,0,0-.543-1.429,1.855,1.855,0,0,0-1.348-.53h-.335v-.416a2.274,2.274,0,0,0,.926-.2,1.749,1.749,0,0,0,.751-.637,1.908,1.908,0,0,0,.3-1.093,1.994,1.994,0,0,0-.376-1.228,1.422,1.422,0,0,0-2.234.08,2.943,2.943,0,0,0-.436,1.456h-.724v-1.61a2.655,2.655,0,0,1,.993-.644,3.576,3.576,0,0,1,1.315-.241,3.249,3.249,0,0,1,1.3.255,2.259,2.259,0,0,1,.946.738,1.871,1.871,0,0,1,.356,1.14A2.2,2.2,0,0,1,513.8,112.3Zm7.327,7.337a3.6,3.6,0,1,0,3.542,3.588A3.6,3.6,0,0,0,521.128,119.641Zm-.092,1.058a2.542,2.542,0,1,1-2.507,2.53A2.543,2.543,0,0,1,521.036,120.7Z" transform="translate(0.235 300.921)" fill="#111"/>
      </g>
      <path id="パス_30985" data-name="パス 30985" d="M-50.568-1.728h3.84V-29.376h-3.84V-31.1h8.208L-31.8-7.056-21.624-31.1h8.016v1.728h-3.84V-1.728h3.84V0h-11.76V-1.728h3.84v-24.24L-31.8-1.776h-2.208L-44.664-26.16V-1.728h3.7V0h-9.6Zm53.616,0V0H-10.44V-1.728h4.7V-29.376h-4.512V-31.1h13.1v1.728H-1.656V-1.728Zm3.168,0h3.84V-29.376H6.216V-31.1H14.04L28.488-7.776v-21.6h-3.84V-31.1h9.744v1.728h-3.84V0H28.344L12.12-26.448v24.72h3.84V0H6.216Zm44.352,0V0H37.08V-1.728h4.7V-29.376H37.272V-31.1h13.1v1.728H45.864V-1.728Zm-146.256,50.3a12.661,12.661,0,0,1-7.848-2.3,12.931,12.931,0,0,1-4.392-5.88,21.175,21.175,0,0,1-1.344-7.512,22.739,22.739,0,0,1,1.392-7.944,13.827,13.827,0,0,1,4.464-6.192A12.168,12.168,0,0,1-95.64,16.32a14.621,14.621,0,0,1,5.4.888,16.1,16.1,0,0,1,4.008,2.28v5.76h-2.736q-.384-3.84-2.3-5.616a6.671,6.671,0,0,0-4.7-1.776,7.547,7.547,0,0,0-6.792,3.432A15.976,15.976,0,0,0-105,30.144a29.339,29.339,0,0,0,1.032,7.92,14.364,14.364,0,0,0,3.192,6.024A7.033,7.033,0,0,0-95.4,46.416a8.407,8.407,0,0,0,5.184-1.776A8.352,8.352,0,0,0-87.144,39.5h1.824a10.917,10.917,0,0,1-1.92,4.656,10.716,10.716,0,0,1-3.7,3.24A9.956,9.956,0,0,1-95.688,48.576Zm26.928,0a12.2,12.2,0,0,1-7.512-2.208,12.615,12.615,0,0,1-4.3-5.736,21.056,21.056,0,0,1-1.344-7.56,23.225,23.225,0,0,1,1.368-7.9,14.107,14.107,0,0,1,4.488-6.336,12.277,12.277,0,0,1,7.968-2.52,12.414,12.414,0,0,1,7.56,2.208,12.974,12.974,0,0,1,4.416,5.736A19.977,19.977,0,0,1-54.7,31.776a22.248,22.248,0,0,1-1.44,7.872,14.7,14.7,0,0,1-4.584,6.384A12.374,12.374,0,0,1-68.76,48.576Zm1.152-1.584a7.062,7.062,0,0,0,6.432-3.528q2.16-3.528,2.16-9.432a28.524,28.524,0,0,0-1.032-7.752,13.988,13.988,0,0,0-3.288-6.024A7.692,7.692,0,0,0-69.144,17.9a6.894,6.894,0,0,0-6.408,3.48,17.315,17.315,0,0,0-2.04,8.856,26.731,26.731,0,0,0,2.4,11.856A7.947,7.947,0,0,0-67.608,46.992Zm30.1,1.584a12.2,12.2,0,0,1-7.512-2.208,12.615,12.615,0,0,1-4.3-5.736,21.057,21.057,0,0,1-1.344-7.56,23.225,23.225,0,0,1,1.368-7.9,14.107,14.107,0,0,1,4.488-6.336,12.277,12.277,0,0,1,7.968-2.52,12.414,12.414,0,0,1,7.56,2.208,12.974,12.974,0,0,1,4.416,5.736,19.977,19.977,0,0,1,1.416,7.512,22.249,22.249,0,0,1-1.44,7.872,14.7,14.7,0,0,1-4.584,6.384A12.374,12.374,0,0,1-37.512,48.576Zm1.152-1.584a7.062,7.062,0,0,0,6.432-3.528q2.16-3.528,2.16-9.432A28.524,28.524,0,0,0-28.8,26.28a13.988,13.988,0,0,0-3.288-6.024A7.692,7.692,0,0,0-37.9,17.9a6.894,6.894,0,0,0-6.408,3.48,17.315,17.315,0,0,0-2.04,8.856,26.731,26.731,0,0,0,2.4,11.856A7.947,7.947,0,0,0-36.36,46.992ZM-6.168,16.9q4.7,0,7.056,2.256A7.75,7.75,0,0,1,3.24,25.008a8.368,8.368,0,0,1-1.128,4.32,8.026,8.026,0,0,1-3.264,3.048A10.594,10.594,0,0,1-6.168,33.5h-6.048V46.272h3.84V48h-11.76V46.272h3.84V18.624h-3.84V16.9ZM-6.744,31.68a4.909,4.909,0,0,0,3.912-1.848A7.077,7.077,0,0,0-1.272,25.1,7.064,7.064,0,0,0-2.76,20.376a4.961,4.961,0,0,0-3.984-1.752h-5.472V31.68Zm36.528,7.872V48H6.024V46.272h3.84V18.624H6.024V16.9H29.4v8.352H27.576l-2.544-6.624H13.944V30.672H21.48v-3.7h2.208v9.216H21.48V32.5H13.944V46.272H25.416l2.544-6.72Zm32.16,6.72V48H54.6L45.48,33.648H41.016V46.272h3.792V48H33.1V46.272h3.84V18.624H33.1V16.9H47.064q4.7,0,7.056,2.328a7.986,7.986,0,0,1,2.352,5.928A8.209,8.209,0,0,1,54.7,30.5a8.312,8.312,0,0,1-4.848,2.856l8.64,12.912ZM41.016,31.824h5.52a4.909,4.909,0,0,0,3.912-1.848,7.077,7.077,0,0,0,1.56-4.728,7.278,7.278,0,0,0-1.512-4.8,4.9,4.9,0,0,0-3.96-1.824h-5.52Zm58.272,7.728V48H75.528V46.272h3.84V18.624h-3.84V16.9H98.9v8.352H97.08l-2.544-6.624H83.448V30.672h7.536v-3.7h2.208v9.216H90.984V32.5H83.448V46.272H94.92l2.544-6.72Zm6.768,8.976a2.868,2.868,0,1,1,2.04-.84A2.777,2.777,0,0,1,106.056,48.528Z" transform="translate(310.272 272.705)" fill="#111"/>
    </g>
  </g>
</svg>
