<svg xmlns="http://www.w3.org/2000/svg" width="460.8" height="131.837" viewBox="0 0 460.8 131.837">
  <g id="fair-txt" transform="translate(-2 -1145.408)">
    <g id="期間" transform="translate(105 1246.245)">
      <g id="日程" transform="translate(-503.906 3.146)">
        <g id="グループ_676" data-name="グループ 676" transform="translate(-20.448)">
          <g id="曜日" transform="translate(-43 5.723)">
            <path id="パス_30925" data-name="パス 30925" d="M4.606.6V-10.836h-9.2V.686h1.246V-.182H3.36V.6ZM-3.346-5.95v-4.326H3.36V-5.95Zm0,.56H3.36V-.742H-3.346Z" transform="translate(829.406 15.131)" fill="#fff"/>
            <g id="パス_30924" data-name="パス 30924" transform="translate(817.406 -1.869)" fill="none">
              <path d="M12,0A12,12,0,1,1,0,12,12,12,0,0,1,12,0Z" stroke="none"/>
              <path d="M 12 1 C 9.061790466308594 1 6.299449920654297 2.144199371337891 4.221820831298828 4.221820831298828 C 2.144199371337891 6.299449920654297 1 9.061790466308594 1 12 C 1 14.93820953369141 2.144199371337891 17.7005500793457 4.221820831298828 19.77817916870117 C 6.299449920654297 21.85580062866211 9.061790466308594 23 12 23 C 14.93820953369141 23 17.7005500793457 21.85580062866211 19.77817916870117 19.77817916870117 C 21.85580062866211 17.7005500793457 23 14.93820953369141 23 12 C 23 9.061790466308594 21.85580062866211 6.299449920654297 19.77817916870117 4.221820831298828 C 17.7005500793457 2.144199371337891 14.93820953369141 1 12 1 M 12 0 C 18.62742042541504 0 24 5.372579574584961 24 12 C 24 18.62742042541504 18.62742042541504 24 12 24 C 5.372579574584961 24 0 18.62742042541504 0 12 C 0 5.372579574584961 5.372579574584961 0 12 0 Z" stroke="none" fill="#fff"/>
            </g>
          </g>
        </g>
        <path id="パス_30923" data-name="パス 30923" d="M8.256-21.152a6.255,6.255,0,0,1,3.808,1.2,7.658,7.658,0,0,1,2.528,3.472,14.625,14.625,0,0,1,.9,5.376,15.985,15.985,0,0,1-1.056,6.032A9.563,9.563,0,0,1,11.6-1.056,6.08,6.08,0,0,1,7.744.352,6.327,6.327,0,0,1,4.368-.624a6.931,6.931,0,0,1-2.48-2.608L2.912-3.9A6.2,6.2,0,0,0,4.96-1.7a4.737,4.737,0,0,0,2.592.8,4.029,4.029,0,0,0,3.7-2.5,15.574,15.574,0,0,0,1.424-6.656,6.467,6.467,0,0,1-2,1.728,5.738,5.738,0,0,1-2.9.7,6.589,6.589,0,0,1-3.12-.768,5.888,5.888,0,0,1-2.336-2.24,6.736,6.736,0,0,1-.88-3.52,7.178,7.178,0,0,1,.928-3.7,6.5,6.5,0,0,1,2.48-2.448A6.888,6.888,0,0,1,8.256-21.152ZM8.416-8.8a3.705,3.705,0,0,0,2.7-1.088,5.716,5.716,0,0,0,1.52-2.592,12.156,12.156,0,0,0-1.456-5.7A3.784,3.784,0,0,0,7.84-20.128a2.991,2.991,0,0,0-2.768,1.472,7.558,7.558,0,0,0-.88,3.9,7.011,7.011,0,0,0,1.2,4.464A3.727,3.727,0,0,0,8.416-8.8ZM21.088.352a1.852,1.852,0,0,1-1.36-.56,1.852,1.852,0,0,1-.56-1.36,1.852,1.852,0,0,1,.56-1.36,1.852,1.852,0,0,1,1.36-.56,1.852,1.852,0,0,1,1.36.56,1.852,1.852,0,0,1,.56,1.36,1.852,1.852,0,0,1-.56,1.36A1.852,1.852,0,0,1,21.088.352ZM39.264-20.736v1.12L30.336,0h-1.5L37.28-18.272H28.32l-1.12,3.1H26.08v-5.568Z" transform="translate(710.694 24.854)" fill="#fff"/>
        <path id="パス_30922" data-name="パス 30922" d="M-5.572-4.06A2.842,2.842,0,0,1-3.108-5.768a4.413,4.413,0,0,1,1.778.532L1.33-4.06A4.251,4.251,0,0,0,2.982-3.7c1.2,0,2.324-.938,3.066-2.576l-.476-.28C4.83-5.418,4.13-4.914,3.29-4.914a3.174,3.174,0,0,1-1.3-.35l-3.08-1.33a4.322,4.322,0,0,0-1.652-.35,3.014,3.014,0,0,0-2.394,1.19,6.883,6.883,0,0,0-.91,1.414Z" transform="translate(702.086 20.854)" fill="#fff"/>
        <g id="曜日-2" data-name="曜日" transform="translate(-6.368 5.723)">
          <path id="パス_30921" data-name="パス 30921" d="M.616-11.214C.8-11.354.84-11.4.84-11.48c0-.14-.1-.2-.294-.2H-.56V-.14c-.014.462-.168.616-.63.63H-2.422v.63H-.658C.238,1.12.63.756.616-.084V-7.77a12.909,12.909,0,0,0,4.97,7.6,6.224,6.224,0,0,1,.84-1.344,12.251,12.251,0,0,1-4.382-4.27A15.824,15.824,0,0,0,5.32-8.162c.406-.014.574-.1.574-.294a.308.308,0,0,0-.14-.224L4.578-9.45A16.3,16.3,0,0,1,1.834-6.118,15.992,15.992,0,0,1,.616-8.806ZM-5.712-8.456l-.546-.112v.812l.546-.112H-2.8A12.9,12.9,0,0,1-6.44-.294l.266.336c2.758-1.876,4.2-4.48,4.7-8.5Z" transform="translate(686.406 15.131)" fill="#fff"/>
          <g id="パス_30920" data-name="パス 30920" transform="translate(674.406 -1.869)" fill="none">
            <path d="M12,0A12,12,0,1,1,0,12,12,12,0,0,1,12,0Z" stroke="none"/>
            <path d="M 12 1 C 9.061790466308594 1 6.299449920654297 2.144199371337891 4.221820831298828 4.221820831298828 C 2.144199371337891 6.299449920654297 1 9.061790466308594 1 12 C 1 14.93820953369141 2.144199371337891 17.7005500793457 4.221820831298828 19.77817916870117 C 6.299449920654297 21.85580062866211 9.061790466308594 23 12 23 C 14.93820953369141 23 17.7005500793457 21.85580062866211 19.77817916870117 19.77817916870117 C 21.85580062866211 17.7005500793457 23 14.93820953369141 23 12 C 23 9.061790466308594 21.85580062866211 6.299449920654297 19.77817916870117 4.221820831298828 C 17.7005500793457 2.144199371337891 14.93820953369141 1 12 1 M 12 0 C 18.62742042541504 0 24 5.372579574584961 24 12 C 24 18.62742042541504 18.62742042541504 24 12 24 C 5.372579574584961 24 0 18.62742042541504 0 12 C 0 5.372579574584961 5.372579574584961 0 12 0 Z" stroke="none" fill="#fff"/>
          </g>
        </g>
        <path id="パス_30919" data-name="パス 30919" d="M11.328-11.072a6.121,6.121,0,0,1,3.024,1.92,5.25,5.25,0,0,1,1.168,3.52A5.348,5.348,0,0,1,14.5-2.32,6.09,6.09,0,0,1,11.824-.3,9.3,9.3,0,0,1,8.352.352,8.951,8.951,0,0,1,4.88-.32,6.173,6.173,0,0,1,2.256-2.336a5.337,5.337,0,0,1-1.008-3.3,5.25,5.25,0,0,1,1.168-3.52,6.121,6.121,0,0,1,3.024-1.92,5.364,5.364,0,0,1-2.4-1.7,4.735,4.735,0,0,1-1.056-3.168,4.566,4.566,0,0,1,.9-2.864,5.514,5.514,0,0,1,2.352-1.76,8.289,8.289,0,0,1,3.152-.592,8.4,8.4,0,0,1,3.12.576,5.458,5.458,0,0,1,2.368,1.76,4.579,4.579,0,0,1,.912,2.88,4.735,4.735,0,0,1-1.056,3.168A5.364,5.364,0,0,1,11.328-11.072ZM8.384-20.1a3.513,3.513,0,0,0-2.7,1.168,4.434,4.434,0,0,0-1.072,3.12,4.434,4.434,0,0,0,1.072,3.12,3.513,3.513,0,0,0,2.7,1.168,3.5,3.5,0,0,0,2.72-1.168,4.476,4.476,0,0,0,1.056-3.12,4.434,4.434,0,0,0-1.072-3.12A3.513,3.513,0,0,0,8.384-20.1Zm0,19.424a4.069,4.069,0,0,0,3.1-1.3A5.1,5.1,0,0,0,12.7-5.6a5.29,5.29,0,0,0-1.12-3.552,3.976,3.976,0,0,0-3.2-1.312,3.976,3.976,0,0,0-3.2,1.312A5.29,5.29,0,0,0,4.064-5.6,5.1,5.1,0,0,0,5.28-1.968,4.069,4.069,0,0,0,8.384-.672ZM21.088.352a1.852,1.852,0,0,1-1.36-.56,1.852,1.852,0,0,1-.56-1.36,1.852,1.852,0,0,1,.56-1.36,1.852,1.852,0,0,1,1.36-.56,1.852,1.852,0,0,1,1.36.56,1.852,1.852,0,0,1,.56,1.36,1.852,1.852,0,0,1-.56,1.36A1.852,1.852,0,0,1,21.088.352ZM40.224-2.5V0H27.648V-1.12q4.064-4.416,5.936-6.672a20.282,20.282,0,0,0,2.688-3.952,8.1,8.1,0,0,0,.816-3.552,5.261,5.261,0,0,0-1.04-3.536,3.375,3.375,0,0,0-2.672-1.2,3.16,3.16,0,0,0-2.784,1.408A6.766,6.766,0,0,0,29.5-15.168H27.776v-3.84a5.984,5.984,0,0,1,2.4-1.536,9.128,9.128,0,0,1,3.232-.576,8.482,8.482,0,0,1,3.088.576,5.532,5.532,0,0,1,2.464,1.872,5.355,5.355,0,0,1,.976,3.312,5.916,5.916,0,0,1-.768,2.9,18.421,18.421,0,0,1-2.544,3.328Q34.848-7.2,30.208-2.5ZM51.488.352a5.936,5.936,0,0,1-3.84-1.344,8.589,8.589,0,0,1-2.576-3.792A16.025,16.025,0,0,1,44.16-10.4a15.891,15.891,0,0,1,.912-5.6,8.533,8.533,0,0,1,2.592-3.776A6,6,0,0,1,51.52-21.12a6.045,6.045,0,0,1,3.856,1.328,8.419,8.419,0,0,1,2.592,3.76,15.891,15.891,0,0,1,.912,5.6,15.775,15.775,0,0,1-.928,5.616,8.756,8.756,0,0,1-2.608,3.808A5.956,5.956,0,0,1,51.488.352ZM51.52-.672q2.176,0,3.328-2.5A17.843,17.843,0,0,0,56-10.4a17.742,17.742,0,0,0-1.152-7.2Q53.7-20.1,51.52-20.1t-3.328,2.5a17.742,17.742,0,0,0-1.152,7.2,17.843,17.843,0,0,0,1.152,7.232Q49.344-.672,51.52-.672Z" transform="translate(604.158 24.854)" fill="#fff"/>
      </g>
      <path id="パス_30918" data-name="パス 30918" d="M4.66.18c3.66-.82,5.68-1.74,7.78-3.56,2.78-2.48,4.48-6.16,5.02-10.88H3.72l-.88-.18v1.28l.88-.18H15.28C14.24-6.76,10.7-2.56,4.44-.5ZM29.04-.8H24.2l-.88-.18V.3L24.2.12H35.8l.88.18V-.98L35.8-.8H30.86V-8.76h3.56l.88.18V-9.86l-.88.18H25.58l-.88-.18v1.28l.88-.18h3.46Zm21.68-9.78c.28-.22.38-.36.38-.52a.374.374,0,0,0-.38-.32l-2.02-.16.16,1.16v1.1c-.06,3.4-.62,5.18-2.12,6.64A12.887,12.887,0,0,1,42.4.02l.18.54a12.067,12.067,0,0,0,5.2-2.3,7.072,7.072,0,0,0,2.74-4.92,10.523,10.523,0,0,0,8.08-8.18H42.92l-.88-.18v1.28l.88-.18H56.28a10.287,10.287,0,0,1-5.66,6.5c.06-.68.1-1.32.1-1.98ZM76.94-5.34v5.1c0,.62-.26.88-.86.88H74.44v.84h2.32c1.22,0,1.74-.48,1.72-1.62V-16.02H72.04v3.36c0,5.9-.22,9.08-.72,10.46A7.441,7.441,0,0,1,69,1.18l.36.42C71.9.26,73.08-1.84,73.32-5.34Zm0-.8H73.38V-6.2l.08-1.46c0-.12,0-.64.02-1.38,0-.16,0-.82.02-1.36h3.44Zm0-5.06H73.52l.02-1.46v-2.56h3.4Zm-12.5-2.78v-2.04c.26-.18.32-.26.32-.4,0-.18-.14-.26-.42-.26h-1.4v2.7h-.86l-.8-.16v1.12l.8-.16h.86V-4.6H61.7l-.8-.16v1.12l.8-.16h8.7l.8.16V-4.76l-.8.16h-.86v-8.58h.88l.8.16v-1.12l-.8.16h-.88v-2.04c.26-.18.32-.26.32-.38,0-.2-.14-.28-.42-.28h-1.4v2.7Zm0,.8h3.6V-11h-3.6Zm0,8.58V-7.14h3.6V-4.6Zm3.6-5.6v2.26h-3.6V-10.2ZM61.08.88a12.559,12.559,0,0,0,3.48-2.72c.42,0,.68-.12.68-.32a.376.376,0,0,0-.2-.3l-1.34-.9A18.49,18.49,0,0,1,60.8.44Zm5.88-3.56A22.182,22.182,0,0,1,69.12.14l1.22-1.22a12.861,12.861,0,0,0-2.98-2.06Zm27.1,1.9V-7.86h-8.4V.4H87.2V-.78Zm-6.86-4V-7.06h5.32v2.28Zm0,.8h5.32v2.4H87.2Zm1.66-12.1H81.64V1.48h1.58V-9.62h5.64Zm-5.64.8h4.14v1.98H83.22Zm4.14,2.78v2.08H83.22V-12.5Zm3.52-3.58v6.46h5.9V-.38c0,.64-.28.92-.92.92H94.18v.84h2.76c1,0,1.42-.42,1.42-1.44V-16.08Zm1.5,3.58h4.4v2.08h-4.4Zm0-.8v-1.98h4.4v1.98Zm17.64,8.96A1.362,1.362,0,0,0,108.64-3a1.345,1.345,0,0,0,1.34,1.36A1.349,1.349,0,0,0,111.34-3,1.349,1.349,0,0,0,110.02-4.34Zm0-9.2a1.362,1.362,0,0,0-1.38,1.34A1.361,1.361,0,0,0,110-10.84a1.345,1.345,0,0,0,1.34-1.36A1.349,1.349,0,0,0,110.02-13.54Z" transform="translate(-21.84 26)" fill="#fff"/>
    </g>
    <path id="パス_30917" data-name="パス 30917" d="M25.68.96Q17.44.96,12.2-2.8a21.6,21.6,0,0,1-7.6-9.56A32.477,32.477,0,0,1,2.24-24.72,37.75,37.75,0,0,1,4.72-38.48a23.191,23.191,0,0,1,7.72-10.36q5.24-3.96,13.24-3.96a26.236,26.236,0,0,1,9.04,1.36,42.618,42.618,0,0,1,7.04,3.36v10.8h-6.8q-.64-6.24-3.36-9.12a8.965,8.965,0,0,0-6.8-2.88,10.21,10.21,0,0,0-9.52,5.6q-3.12,5.6-3.12,14.16a44.012,44.012,0,0,0,1.96,13.88,20.7,20.7,0,0,0,5.4,9,11.25,11.25,0,0,0,7.76,3.12,11.981,11.981,0,0,0,7.84-2.76q3.36-2.76,4.48-8.36h4.16Q42.56-7.2,37.64-3.12A18.12,18.12,0,0,1,25.68.96Zm46.16,0Q63.6.96,58.36-2.72a21.142,21.142,0,0,1-7.6-9.44A31.968,31.968,0,0,1,48.4-24.4a37.846,37.846,0,0,1,2.52-13.84,23.82,23.82,0,0,1,7.8-10.52A20.956,20.956,0,0,1,71.84-52.8q8.08,0,13.4,3.68a21.192,21.192,0,0,1,7.72,9.48,31.6,31.6,0,0,1,2.4,12.2A37.846,37.846,0,0,1,92.84-13.6a23.82,23.82,0,0,1-7.8,10.52Q79.76.96,71.84.96Zm1.04-3.52a10.147,10.147,0,0,0,9.48-5.52q3.08-5.52,3.08-14.16,0-11.68-3.6-19.36T70.96-49.28a10.21,10.21,0,0,0-9.52,5.6q-3.12,5.6-3.12,14.24,0,11.68,3.64,19.28T72.88-2.56Zm52,3.52q-8.24,0-13.48-3.68a21.142,21.142,0,0,1-7.6-9.44,31.968,31.968,0,0,1-2.36-12.24,37.846,37.846,0,0,1,2.52-13.84,23.82,23.82,0,0,1,7.8-10.52,20.956,20.956,0,0,1,13.12-4.04q8.08,0,13.4,3.68A21.192,21.192,0,0,1,146-39.64a31.6,31.6,0,0,1,2.4,12.2,37.846,37.846,0,0,1-2.52,13.84,23.82,23.82,0,0,1-7.8,10.52Q132.8.96,124.88.96Zm1.04-3.52a10.147,10.147,0,0,0,9.48-5.52q3.08-5.52,3.08-14.16,0-11.68-3.6-19.36T124-49.28a10.21,10.21,0,0,0-9.52,5.6q-3.12,5.6-3.12,14.24,0,11.68,3.64,19.28T125.92-2.56Zm50.64-49.28q7.68,0,12.2,3.76a12.527,12.527,0,0,1,4.52,10.16,13.406,13.406,0,0,1-2.12,7.44,14,14,0,0,1-5.92,5.08,20.044,20.044,0,0,1-8.68,1.8H168.4V-3.84h6.24V0H152.48V-3.84h6.24V-48h-6.24v-3.84Zm-.88,24.4a6.258,6.258,0,0,0,5.2-3.08,12.559,12.559,0,0,0,2.16-7.4A12.107,12.107,0,0,0,181-45.16,6.27,6.27,0,0,0,175.68-48H168.4v20.56Zm62.56,12.88V0H196.96V-3.84h6.24V-48h-6.24v-3.84H237.6v14.56H232L227.92-48H212.88v18.64h8.32V-35.6H226v16.48h-4.8v-6.24h-8.32V-3.84h15.76l4-10.72ZM291.92-3.84V0H277.6L263.04-23.52h-4.48V-3.84h6.24V0H242.64V-3.84h6.24V-48h-6.24v-3.84h24.08q8.24,0,12.48,4a13.178,13.178,0,0,1,4.24,10,13.425,13.425,0,0,1-2.72,8.32,14.668,14.668,0,0,1-7.52,5.12L286.4-3.84ZM258.56-27.36h7.28a6.258,6.258,0,0,0,5.2-3.08,12.559,12.559,0,0,0,2.16-7.4,12.079,12.079,0,0,0-2.08-7.32A6.3,6.3,0,0,0,265.84-48h-7.28Zm80.32-24.48a26.69,26.69,0,0,1,13.88,3.36,20.9,20.9,0,0,1,8.36,9,28.818,28.818,0,0,1,2.72,12.68,30.6,30.6,0,0,1-2.8,12.8,24.252,24.252,0,0,1-8.48,10.08A23.489,23.489,0,0,1,338.88,0H314.16V-3.84h6.48V-48h-6.48v-3.84Zm-.56,48a11.857,11.857,0,0,0,8.44-3.28A20.339,20.339,0,0,0,352-15.68a35.187,35.187,0,0,0,1.76-11.2,30.223,30.223,0,0,0-1.84-10.88,16.855,16.855,0,0,0-5.36-7.52A13.089,13.089,0,0,0,338.32-48h-8V-3.84Zm76.32,0V0H392.48V-3.84h6.24l-4.88-14.48H378.72L373.68-3.84h5.92V0H362.88V-3.84h6.08l17.12-48h5.68l17.12,48ZM392.48-22.32l-5.92-17.52h-.4l-6.08,17.52Zm44.4-1.6V-3.84h6.88V0H420.32V-3.84h6.88V-22L414.32-48h-6.24v-3.84h22.24V-48h-5.76l9.68,19.84L444.56-48h-6.4v-3.84h17.28V-48H449.2ZM452.32-4.48a5.171,5.171,0,0,1,1.56-3.8,5.171,5.171,0,0,1,3.8-1.56,5.171,5.171,0,0,1,3.8,1.56,5.171,5.171,0,0,1,1.56,3.8,5.171,5.171,0,0,1-1.56,3.8,5.171,5.171,0,0,1-3.8,1.56,5.171,5.171,0,0,1-3.8-1.56A5.171,5.171,0,0,1,452.32-4.48Z" transform="translate(-0.24 1236.133)" fill="#fff"/>
    <path id="パス_30916" data-name="パス 30916" d="M-97.284-.864h1.92V-14.688h-1.92v-.864h4.1L-87.9-3.528l5.088-12.024H-78.8v.864h-1.92V-.864h1.92V0h-5.88V-.864h1.92v-12.12L-87.9-.888H-89L-94.332-13.08V-.864h1.848V0h-4.8Zm26.808,0V0H-77.22V-.864h2.352V-14.688h-2.256v-.864h6.552v.864h-2.256V-.864Zm1.584,0h1.92V-14.688h-1.92v-.864h3.912l7.224,11.664v-10.8h-1.92v-.864H-54.8v.864h-1.92V0h-1.1L-65.94-13.224V-.864h1.92V0h-4.872Zm22.176,0V0H-53.46V-.864h2.352V-14.688h-2.256v-.864h6.552v.864h-2.256V-.864Zm12.792-18.624-.72.744c-1.44.12-2.472.168-5.16.216l-1.512-.5.144,1.584c.84.024,1.464.048,1.872.048,1.2,0,2.76-.072,4.7-.24-.984,3.048-1.488,4.44-2.424,6.936a11.073,11.073,0,0,0-2.928.48A5.755,5.755,0,0,0-44.34-4.752c0,2.04,1.224,3.6,2.832,3.6,1.1,0,2.136-.7,3.072-2.088a35.13,35.13,0,0,0,3-6.216,23.077,23.077,0,0,1,7.1,1.488C-29.22-3.576-30.8-1.2-34.14.744l.312.6A9.877,9.877,0,0,0-28.62-1.944a11.846,11.846,0,0,0,2.232-5.232c1.176.552,1.656.792,2.808,1.44l.7-1.632a23.794,23.794,0,0,0-3.192-1.416c.168-1.008.24-1.488.36-2.616.312-.192.432-.36.432-.552s-.192-.36-.552-.432L-27.8-12.84l.024,1.032c-.12,1.224-.144,1.344-.288,2.4a33.458,33.458,0,0,0-6.912-1.248c1.08-2.832,1.392-3.7,2.424-6.7.48-.288.672-.528.672-.792a.625.625,0,0,0-.36-.5ZM-37.788-8.736c-2.04,4.776-2.9,6.144-3.912,6.144-.672,0-1.224-.84-1.224-1.9a4.838,4.838,0,0,1,2.592-4.08A7.05,7.05,0,0,1-37.5-9.384Zm23.04-7.968c-2.04,0-2.88-.048-4.176-.12l-1.3-.552.12,1.632c1.728.12,2.568.144,4.056.144h.936A53.031,53.031,0,0,1-20.556-3.816l1.824,1.176a63.759,63.759,0,0,0,5.784-13.032c1.824-.072,3.816-.24,5.808-.5l.072-1.7-1.488.744c-1.7.192-2.688.288-4.008.36a2.855,2.855,0,0,1,.1-.336c.072-.216.288-.864.5-1.56.36-.24.432-.36.432-.528a.388.388,0,0,0-.336-.384l-2.112-.408-.192,1.224c-.12.48-.216.84-.264,1.008l-.288.984ZM.564-2.472A14.655,14.655,0,0,0-5.292-5.664v-4.488c.384-.264.48-.36.48-.528,0-.24-.216-.384-.576-.384l-1.9-.024.072,1.776v3.264a12.936,12.936,0,0,0-2.112-.168c-3.12,0-4.992,1.344-4.992,3.6,0,2.28,2.232,3.936,5.3,3.936,1.656,0,2.856-.5,3.384-1.44a3.639,3.639,0,0,0,.336-1.8V-3.912A15.857,15.857,0,0,1-.852-.672Zm-7.776.456c0,1.152-.672,1.7-2.088,1.7-2.208,0-3.84-1.032-3.84-2.448a1.645,1.645,0,0,1,.432-1.1,4.133,4.133,0,0,1,3-.888,8.816,8.816,0,0,1,2.5.336ZM.852-13.872a11.9,11.9,0,0,0-4.7-.768,12.041,12.041,0,0,0-4.224.624l.048.672A17.9,17.9,0,0,1-.492-11.9ZM12.66-18.648c.288-.24.384-.408.384-.6a.448.448,0,0,0-.456-.408H10.212l.408,1.44,1.512,7.3A21.658,21.658,0,0,0,9.156-9.144C6.8-7.464,5.8-5.952,5.8-4.128a4.285,4.285,0,0,0,2.88,4.08,17.724,17.724,0,0,0,6.7.888A45.714,45.714,0,0,0,22.188.432V-1.9a36.173,36.173,0,0,1-7.032.648c-5.424,0-7.728-.888-7.728-3.024,0-2.856,4.344-5.448,13.848-8.3a1.33,1.33,0,0,0,.648.216.436.436,0,0,0,.408-.384.83.83,0,0,0-.072-.288l-.84-1.944-.84.624c-1.872.72-3.672,1.392-5.376,2.064-.48.192-.816.312-1.176.48Zm25.416-.84-.72.744c-1.44.12-2.472.168-5.16.216l-1.512-.5.144,1.584c.84.024,1.464.048,1.872.048,1.2,0,2.76-.072,4.7-.24-.984,3.048-1.488,4.44-2.424,6.936a11.073,11.073,0,0,0-2.928.48A5.755,5.755,0,0,0,27.66-4.752c0,2.04,1.224,3.6,2.832,3.6,1.1,0,2.136-.7,3.072-2.088a35.13,35.13,0,0,0,3-6.216,23.077,23.077,0,0,1,7.1,1.488C42.78-3.576,41.2-1.2,37.86.744l.312.6A9.877,9.877,0,0,0,43.38-1.944a11.846,11.846,0,0,0,2.232-5.232c1.176.552,1.656.792,2.808,1.44l.7-1.632a23.794,23.794,0,0,0-3.192-1.416c.168-1.008.24-1.488.36-2.616.312-.192.432-.36.432-.552s-.192-.36-.552-.432L44.2-12.84l.024,1.032c-.12,1.224-.144,1.344-.288,2.4a33.458,33.458,0,0,0-6.912-1.248c1.08-2.832,1.392-3.7,2.424-6.7.48-.288.672-.528.672-.792a.625.625,0,0,0-.36-.5ZM34.212-8.736c-2.04,4.776-2.9,6.144-3.912,6.144-.672,0-1.224-.84-1.224-1.9a4.838,4.838,0,0,1,2.592-4.08A7.05,7.05,0,0,1,34.5-9.384Zm21.84,3.768a9.876,9.876,0,0,1,2.256-2.616,9.654,9.654,0,0,1,6.1-2.208c2.712,0,4.392,1.392,4.392,3.624S67.164-2.136,64.14-.96A27.152,27.152,0,0,1,58.188.456l.1.816C62.532.984,64.308.72,66.156.024,69.4-1.2,71.2-3.336,71.2-6A4.638,4.638,0,0,0,69.78-9.408a7.117,7.117,0,0,0-5.016-1.632A10.715,10.715,0,0,0,56.6-7.56l.552-7.248c.336-.24.456-.384.456-.6s-.168-.384-.456-.408l-2.232-.24.168,1.248-.648,9.84Zm1.464-13.776a19.831,19.831,0,0,1,7.8,2.568l1.728-2.016a11.306,11.306,0,0,0-2.28-.792,23.477,23.477,0,0,0-5.136-.624c-.528,0-1.008.024-2.04.072ZM84.468-5.28c-.552,2.184-1.3,3.648-1.872,3.648-.552,0-1.416-1.128-2.088-2.664-.888-2.112-1.344-5.5-1.344-10.272V-16.1c.408-.288.528-.432.528-.672s-.24-.408-.6-.432l-2.16-.144.12,1.44c.024,3.1.048,4.752.048,4.968a22.6,22.6,0,0,0,1.44,7.56c1.032,2.5,2.328,3.816,3.7,3.816,1.344,0,2.52-1.92,3.288-5.376Zm12.384.192c-.792-4.656-3.168-8.976-6.144-11.208l-.6.456a29.232,29.232,0,0,1,4.44,11.784Z" transform="translate(232.284 1165.989)" fill="#fff" stroke="rgba(0,0,0,0)" stroke-width="1"/>
  </g>
</svg>
