<svg xmlns="http://www.w3.org/2000/svg" width="40" height="40" viewBox="0 0 40 40">
  <g id="next" transform="translate(-77 -3321)">
    <g id="パス_30917" data-name="パス 30917" transform="translate(77 3321)" fill="none">
      <path d="M20,0A20,20,0,1,1,0,20,20,20,0,0,1,20,0Z" stroke="none"/>
      <path d="M 20 1.200000762939453 C 17.46149063110352 1.200000762939453 14.99954032897949 1.6968994140625 12.68255996704102 2.676898956298828 C 10.44400978088379 3.623729705810547 8.433340072631836 4.979438781738281 6.706390380859375 6.706390380859375 C 4.979438781738281 8.433340072631836 3.623729705810547 10.44400978088379 2.676898956298828 12.68255996704102 C 1.6968994140625 14.99954032897949 1.200000762939453 17.46149063110352 1.200000762939453 20 C 1.200000762939453 22.53850936889648 1.6968994140625 25.00045967102051 2.676898956298828 27.31744003295898 C 3.623729705810547 29.55599021911621 4.979438781738281 31.56665992736816 6.706390380859375 33.29360961914062 C 8.433340072631836 35.02056121826172 10.44400978088379 36.37627029418945 12.68255996704102 37.32310104370117 C 14.99954032897949 38.3031005859375 17.46149063110352 38.79999923706055 20 38.79999923706055 C 22.53850936889648 38.79999923706055 25.00045967102051 38.3031005859375 27.31744003295898 37.32310104370117 C 29.55599021911621 36.37627029418945 31.56665992736816 35.02056121826172 33.29360961914062 33.29360961914062 C 35.02056121826172 31.56665992736816 36.37627029418945 29.55599021911621 37.32310104370117 27.31744003295898 C 38.3031005859375 25.00045967102051 38.79999923706055 22.53850936889648 38.79999923706055 20 C 38.79999923706055 17.46149063110352 38.3031005859375 14.99954032897949 37.32310104370117 12.68255996704102 C 36.37627029418945 10.44400978088379 35.02056121826172 8.433340072631836 33.29360961914062 6.706390380859375 C 31.56665992736816 4.979438781738281 29.55599021911621 3.623729705810547 27.31744003295898 2.676898956298828 C 25.00045967102051 1.6968994140625 22.53850936889648 1.200000762939453 20 1.200000762939453 M 20 0 C 31.04570007324219 0 40 8.954299926757812 40 20 C 40 31.04570007324219 31.04570007324219 40 20 40 C 8.954299926757812 40 0 31.04570007324219 0 20 C 0 8.954299926757812 8.954299926757812 0 20 0 Z" stroke="none" fill="#000"/>
    </g>
    <path id="パス_30916" data-name="パス 30916" d="M10.36-10.64-8.064-20.972-9.072-19.32l15.68,8.68L-9.072-1.96-8.064-.308Z" transform="translate(96.072 3351.972)" fill="#111" stroke="rgba(0,0,0,0)" stroke-width="1"/>
  </g>
</svg>
