<svg xmlns="http://www.w3.org/2000/svg" width="956.719" height="90.079" viewBox="0 0 956.719 90.079">
  <g id="fair" transform="translate(-8.508 -1047.383)">
    <g id="fair_name" data-name="fair name" transform="translate(7 -2.22)">
      <path id="パス_57283" data-name="パス 57283" d="M11.592-15.552v.84L4.9,0H3.768L10.1-13.7H3.384l-.84,2.328H1.7v-4.176ZM13.224.264a1.389,1.389,0,0,1-1.02-.42,1.389,1.389,0,0,1-.42-1.02A1.389,1.389,0,0,1,12.2-2.2a1.389,1.389,0,0,1,1.02-.42,1.389,1.389,0,0,1,1.02.42,1.389,1.389,0,0,1,.42,1.02,1.389,1.389,0,0,1-.42,1.02A1.389,1.389,0,0,1,13.224.264ZM24.648-.864V0h-6.72V-.864H20.4V-13.656L18.024-12.12l-.5-.768,3.96-2.664H22.3V-.864ZM33.7-10.1a5.026,5.026,0,0,1,2.34.564,4.446,4.446,0,0,1,1.776,1.692A5.086,5.086,0,0,1,38.5-5.16,5.362,5.362,0,0,1,37.7-2.184a5.115,5.115,0,0,1-2,1.836,5.5,5.5,0,0,1-2.508.612,5.516,5.516,0,0,1-2.808-.72A5.1,5.1,0,0,1,28.44-2.424l.768-.48A4.138,4.138,0,0,0,30.792-1.3a4.387,4.387,0,0,0,2.184.552,3.112,3.112,0,0,0,1.692-.492,3.526,3.526,0,0,0,1.26-1.452,5.045,5.045,0,0,0,.48-2.28,4.819,4.819,0,0,0-.48-2.244,3.232,3.232,0,0,0-1.26-1.368,3.363,3.363,0,0,0-1.692-.444,2.748,2.748,0,0,0-1.44.36,4.485,4.485,0,0,0-1.08.912H29.52l.576-7.8h7.632v1.92H30.84L30.5-8.976a4.234,4.234,0,0,1,1.38-.816A5.1,5.1,0,0,1,33.7-10.1ZM51.456,1.488a8.688,8.688,0,0,1-3.132-3.54,12.375,12.375,0,0,1-1.068-5.436A12.468,12.468,0,0,1,48.348-12.9a8.673,8.673,0,0,1,3.108-3.612l.36.336a7.409,7.409,0,0,0-2.052,3.408,16.319,16.319,0,0,0-.8,5.256,16.319,16.319,0,0,0,.8,5.256,7.409,7.409,0,0,0,2.052,3.408ZM75.312-14.688H73.536L69.384,0h-1.1l-4.3-12.144L60.072,0h-1.1L54.576-14.688h-1.9v-.864h6v.864H56.76L60.048-3.24,63.96-15.456h1.008L69.36-3.312,72.5-14.688h-1.9v-.864h4.7Zm4.656,3.576a4.038,4.038,0,0,1,3.048,1.224,4.447,4.447,0,0,1,1.176,3.216q0,.216-.048.744h-7.32A7.12,7.12,0,0,0,77.34-3.3a4.825,4.825,0,0,0,1.3,1.872A2.663,2.663,0,0,0,80.4-.744a2.741,2.741,0,0,0,1.932-.8,3.419,3.419,0,0,0,1.044-2h.744a4.035,4.035,0,0,1-.7,1.956A4.134,4.134,0,0,1,81.852-.228a4.635,4.635,0,0,1-2.124.492,4.421,4.421,0,0,1-2.448-.7,4.714,4.714,0,0,1-1.692-1.956,6.54,6.54,0,0,1-.612-2.892,6.848,6.848,0,0,1,.636-2.988,5.055,5.055,0,0,1,1.776-2.088A4.563,4.563,0,0,1,79.968-11.112Zm-.264.72a2.412,2.412,0,0,0-1.98,1,4.676,4.676,0,0,0-.876,2.676h5.208a4.792,4.792,0,0,0-.564-2.712A1.99,1.99,0,0,0,79.7-10.392Zm15.96-6.192V0H93.84V-1.008a2.863,2.863,0,0,1-1.212.948,4.318,4.318,0,0,1-1.716.324A4.256,4.256,0,0,1,87.5-1.224a5.962,5.962,0,0,1-1.272-4.008,7.319,7.319,0,0,1,.6-3.036A5.011,5.011,0,0,1,88.5-10.356a4.112,4.112,0,0,1,2.436-.756,4.116,4.116,0,0,1,1.608.312,3.672,3.672,0,0,1,1.3.912v-5.784H92.112v-.7ZM91.32-.552a2.321,2.321,0,0,0,1.812-.792,3.015,3.015,0,0,0,.708-2.088V-7.416a2.879,2.879,0,0,0-.78-2.112,2.751,2.751,0,0,0-2.052-.792,2.357,2.357,0,0,0-2.136,1.092,6.236,6.236,0,0,0-.7,3.3A7.912,7.912,0,0,0,89-1.992,2.56,2.56,0,0,0,91.32-.552Zm6.744-15.96a8.688,8.688,0,0,1,3.132,3.54,12.375,12.375,0,0,1,1.068,5.436,12.468,12.468,0,0,1-1.092,5.412,8.673,8.673,0,0,1-3.108,3.612l-.36-.336a7.409,7.409,0,0,0,2.052-3.408,16.319,16.319,0,0,0,.8-5.256,16.319,16.319,0,0,0-.8-5.256A7.409,7.409,0,0,0,97.7-16.176Zm11.472,9.744h9.816v.936h-9.816Zm27.24-8.784v.84L130.08,0h-1.128l6.336-13.7h-6.72l-.84,2.328h-.84v-4.176ZM138.408.264a1.389,1.389,0,0,1-1.02-.42,1.389,1.389,0,0,1-.42-1.02,1.389,1.389,0,0,1,.42-1.02,1.389,1.389,0,0,1,1.02-.42,1.389,1.389,0,0,1,1.02.42,1.389,1.389,0,0,1,.42,1.02,1.389,1.389,0,0,1-.42,1.02A1.389,1.389,0,0,1,138.408.264ZM152.04-1.872V0h-9.432V-.84q3.048-3.312,4.452-5a15.212,15.212,0,0,0,2.016-2.964,6.071,6.071,0,0,0,.612-2.664,3.946,3.946,0,0,0-.78-2.652,2.531,2.531,0,0,0-2-.9,2.37,2.37,0,0,0-2.088,1.056A5.074,5.074,0,0,0,144-11.376h-1.3v-2.88a4.488,4.488,0,0,1,1.8-1.152,6.846,6.846,0,0,1,2.424-.432,6.361,6.361,0,0,1,2.316.432,4.149,4.149,0,0,1,1.848,1.4,4.016,4.016,0,0,1,.732,2.484,4.437,4.437,0,0,1-.576,2.172,13.815,13.815,0,0,1-1.908,2.5q-1.332,1.452-4.812,4.98Zm8.328-8.016a5.026,5.026,0,0,1,2.34.564,4.332,4.332,0,0,1,1.752,1.668,5,5,0,0,1,.66,2.616,5.493,5.493,0,0,1-.684,2.748,4.9,4.9,0,0,1-1.86,1.884,5.132,5.132,0,0,1-2.592.672,4.608,4.608,0,0,1-2.856-.924,5.829,5.829,0,0,1-1.884-2.628,11,11,0,0,1-.66-3.984A11.676,11.676,0,0,1,155.4-11.8a7.249,7.249,0,0,1,2.172-3.012,4.688,4.688,0,0,1,2.94-1.056,4.429,4.429,0,0,1,2.244.6,5.4,5.4,0,0,1,1.788,1.7l-.72.6a5.07,5.07,0,0,0-1.452-1.44,3.225,3.225,0,0,0-1.764-.528,3.069,3.069,0,0,0-2.8,1.884,11.662,11.662,0,0,0-1.116,4.98,4.85,4.85,0,0,1,1.5-1.3A4.3,4.3,0,0,1,160.368-9.888ZM160.392-.5a2.175,2.175,0,0,0,2-1.116,5.682,5.682,0,0,0,.66-2.916,5.208,5.208,0,0,0-.912-3.348A2.806,2.806,0,0,0,159.888-9a2.779,2.779,0,0,0-2.028.816,4.106,4.106,0,0,0-1.116,1.944A8.647,8.647,0,0,0,157.9-1.98,2.918,2.918,0,0,0,160.392-.5ZM177.6,1.488a8.688,8.688,0,0,1-3.132-3.54A12.375,12.375,0,0,1,173.4-7.488a12.468,12.468,0,0,1,1.092-5.412,8.673,8.673,0,0,1,3.108-3.612l.36.336a7.409,7.409,0,0,0-2.052,3.408,16.319,16.319,0,0,0-.8,5.256,16.319,16.319,0,0,0,.8,5.256,7.409,7.409,0,0,0,2.052,3.408Zm6.384-1.2a7.414,7.414,0,0,1-2.748-.48,4.348,4.348,0,0,1-1.788-1.176V-4.2h1.3a4.771,4.771,0,0,0,1.08,2.868,3.009,3.009,0,0,0,2.208.828,3.158,3.158,0,0,0,2.292-.78,2.791,2.791,0,0,0,.8-2.1,2.683,2.683,0,0,0-1.32-2.4l-4.272-2.76a5.128,5.128,0,0,1-1.524-1.416,3.414,3.414,0,0,1-.54-1.968,3.541,3.541,0,0,1,1.26-2.844A5.2,5.2,0,0,1,184.2-15.84a6.989,6.989,0,0,1,2.46.408,4.609,4.609,0,0,1,1.788,1.152v2.9h-1.3a5.126,5.126,0,0,0-.912-2.892,2.6,2.6,0,0,0-2.04-.8,2.8,2.8,0,0,0-2.2.768,2.683,2.683,0,0,0-.684,1.848,2.284,2.284,0,0,0,1.1,2.064l4.2,2.688a6.063,6.063,0,0,1,1.884,1.716,3.62,3.62,0,0,1,.564,2,4.1,4.1,0,0,1-.6,2.2,4.063,4.063,0,0,1-1.74,1.524A6.258,6.258,0,0,1,183.984.288ZM202.032-.72v.7l-3.288.168-.048-1.2a3.8,3.8,0,0,1-3.048,1.32,3.8,3.8,0,0,1-2.664-.9A3.647,3.647,0,0,1,192-3.456v-6.672h-1.512v-.72h3.336v7.392a3.238,3.238,0,0,0,.612,2.208,2,2,0,0,0,1.548.672,3.064,3.064,0,0,0,1.872-.624,2.462,2.462,0,0,0,.84-2.112v-6.816H197.16v-.72H200.5V-.72Zm12.888,0V0h-4.872V-.72h1.56V-7.512a3.2,3.2,0,0,0-.564-2.016,1.91,1.91,0,0,0-1.6-.72,2.575,2.575,0,0,0-1.956.828,2.909,2.909,0,0,0-.78,2.076V-.72h1.512V0h-4.9V-.72h1.584v-9.408h-1.536v-.7l3.288-.192.048,1.248a3.382,3.382,0,0,1,1.3-.972,4.37,4.37,0,0,1,1.776-.348,3.567,3.567,0,0,1,2.676.972,3.772,3.772,0,0,1,.948,2.748V-.72Zm1.248-15.792a8.687,8.687,0,0,1,3.132,3.54,12.375,12.375,0,0,1,1.068,5.436,12.468,12.468,0,0,1-1.092,5.412,8.673,8.673,0,0,1-3.108,3.612l-.36-.336a7.409,7.409,0,0,0,2.052-3.408,16.319,16.319,0,0,0,.8-5.256,16.319,16.319,0,0,0-.8-5.256,7.409,7.409,0,0,0-2.052-3.408Z" transform="translate(370 1138.193)" fill="#fff"/>
      <path id="パス_57282" data-name="パス 57282" d="M-478.992-31.1h25.43v8.742h-3.117l-2.437-6.492h-4.266V-2.344h4.078V0h-13.922V-2.344h4.078V-28.852h-4.336l-2.391,6.492h-3.117Zm54.656,2.25V-2.344h3.281V0h-12.258V-2.344h3.164V-15.211h-12.328V-2.344h3.211V0H-451.5V-2.344h3.258V-28.852H-451.5V-31.1h12.234v2.25h-3.211v11.133h12.328V-28.852h-3.164V-31.1h12.258v2.25Zm9.563,0h-4.078V-31.1h24.727v8.742H-397.5l-2.437-6.492h-9.07v11.039h5.039V-21.07h2.883v9.117h-2.883v-3.3h-5.039V-2.344h9.492l2.414-6.4h3.352V0h-25.1V-2.344h4.078Zm68.461,0V-2.344h3.75V0h-12.914V-2.344h3.4V-22.9L-360.7,0h-2.977l-9.164-22.992V-2.344h3.539V0h-9.984V-2.344h3.75V-28.852h-3.75V-31.1h9.258L-360.7-7.641l8.93-23.461h9.117v2.25Zm15.984,0V-2.344h4.664V0h-15.07V-2.344h4.664V-28.852h-4.664V-31.1h15.07v2.25Zm35.484-2.25v2.3h-3.937V0h-3.562L-317.32-23.625V-2.344h3.938V0H-323.7V-2.344h3.75V-28.8H-323.6v-2.3h8.508l13.57,21.258V-28.8h-3.68v-2.3Zm12.141,2.25V-2.344h4.664V0h-15.07V-2.344h4.664V-28.852h-4.664V-31.1h15.07v2.25Zm33.047-2.25a13.478,13.478,0,0,1,4.488.668,9.009,9.009,0,0,1,3.117,1.793,7.065,7.065,0,0,1,1.828,2.625,8.469,8.469,0,0,1,.6,3.164,8.364,8.364,0,0,1-.691,3.387,8.077,8.077,0,0,1-1.992,2.766,9.471,9.471,0,0,1-3.152,1.863,12.118,12.118,0,0,1-4.2.68h-4.9V-2.344h3.68V0h-13.2V-2.344h3.7V-28.852h-3.7V-31.1Zm-4.9,14.484h4.359a3.215,3.215,0,0,0,1.676-.469,4.557,4.557,0,0,0,1.371-1.289,6.606,6.606,0,0,0,.926-1.945,8.394,8.394,0,0,0,.34-2.437,9.263,9.263,0,0,0-.3-2.449,6.2,6.2,0,0,0-.867-1.922,4.187,4.187,0,0,0-1.359-1.266,3.516,3.516,0,0,0-1.781-.457h-4.359Zm45.82,14.273V0h-12.914V-2.344h3.375l-3.234-8.836h-8.719l-3.07,8.836h3.539V0h-10.266V-2.344h3.891L-225.867-31.1h3.3L-212.18-2.344Zm-13.477-11.344-3.609-10.219-3.539,10.219ZM-183.633-8.6a9.387,9.387,0,0,1-.727,3.75,7.94,7.94,0,0,1-2.1,2.883,9.678,9.678,0,0,1-3.328,1.852,13.937,13.937,0,0,1-4.441.656,14.853,14.853,0,0,1-4.687-.691A9.561,9.561,0,0,1-202.465-2.2,8.848,8.848,0,0,1-204.7-5.578a12.9,12.9,0,0,1-.773-4.641V-28.852H-209.2V-31.1h13.242v2.25h-3.75V-9.07a8.069,8.069,0,0,0,1.477,5.156,5.324,5.324,0,0,0,4.43,1.852,9.655,9.655,0,0,0,2.461-.34,7.027,7.027,0,0,0,2.355-1.113,6.248,6.248,0,0,0,1.77-2.016,6.051,6.051,0,0,0,.7-3.023v-20.3H-190.5V-31.1h10.664v2.25h-3.8Zm27.727-.141h3.188V0h-25.453V-2.344h4.125V-28.852h-4.125V-31.1h14.156v2.25h-4.266V-2.344h9.984Zm22.148-.094a16.254,16.254,0,0,0,.75,3.363,7.445,7.445,0,0,0,1.184,2.215,4.018,4.018,0,0,0,1.57,1.207,4.952,4.952,0,0,0,1.91.363,5.51,5.51,0,0,0,2.1-.387,4.662,4.662,0,0,0,1.617-1.078A4.756,4.756,0,0,0-123.6-4.816a6.086,6.086,0,0,0,.363-2.145,4.726,4.726,0,0,0-.516-2.227,4.848,4.848,0,0,0-1.172-1.523,9.971,9.971,0,0,0-.9-.668q-.668-.457-1.559-1.031t-1.9-1.23q-1.008-.656-1.934-1.254t-1.676-1.078q-.75-.48-1.1-.738a11.5,11.5,0,0,1-1.477-1.219,8.77,8.77,0,0,1-1.289-1.582,8.5,8.5,0,0,1-.914-1.957,7.52,7.52,0,0,1-.352-2.344,7.14,7.14,0,0,1,.668-3.082,6.958,6.958,0,0,1,1.934-2.449,9.35,9.35,0,0,1,3.105-1.617,13.772,13.772,0,0,1,4.184-.586,15.418,15.418,0,0,1,5.449.9,10.163,10.163,0,0,1,3.855,2.426v5.906H-123a16.974,16.974,0,0,0-.656-3.48,6.609,6.609,0,0,0-1.113-2.18,3.565,3.565,0,0,0-1.547-1.125,5.6,5.6,0,0,0-1.91-.316,4.561,4.561,0,0,0-2.074.422,3.732,3.732,0,0,0-1.348,1.125,4.518,4.518,0,0,0-.738,1.594,7.413,7.413,0,0,0-.223,1.8,4.243,4.243,0,0,0,.457,1.922,4.062,4.062,0,0,0,1.324,1.523q.3.188.949.621t1.488,1q.844.563,1.781,1.184t1.816,1.2q.879.574,1.605,1.043t1.148.727a9.564,9.564,0,0,1,3.293,3.188,7.982,7.982,0,0,1,1.113,4.2,7.454,7.454,0,0,1-.75,3.316,7.9,7.9,0,0,1-2.145,2.672A10.348,10.348,0,0,1-123.9-.105a14.31,14.31,0,0,1-4.441.645,17.045,17.045,0,0,1-3.3-.293,14.049,14.049,0,0,1-2.66-.785,10.261,10.261,0,0,1-2.062-1.125,10.2,10.2,0,0,1-1.512-1.312V-8.836Zm51.75-20.016V-2.344h3.75V0H-91.172V-2.344h3.4V-22.9L-96.4,0h-2.977l-9.164-22.992V-2.344H-105V0h-9.984V-2.344h3.75V-28.852h-3.75V-31.1h9.258L-96.4-7.641l8.93-23.461h9.117v2.25Zm15.984,0V-2.344h4.664V0H-76.43V-2.344h4.664V-28.852H-76.43V-31.1h15.07v2.25Zm6.492-2.25H-34.1v8.742h-3.117l-2.437-6.492h-4.266V-2.344h4.078V0H-53.766V-2.344h4.078V-28.852h-4.336l-2.391,6.492h-3.117Zm54.656,2.25V-2.344h3.281V0H-13.852V-2.344h3.164V-15.211H-23.016V-2.344H-19.8V0H-32.039V-2.344h3.258V-28.852h-3.258V-31.1H-19.8v2.25h-3.211v11.133h12.328V-28.852h-3.164V-31.1H-1.594v2.25Zm21.563,0H12.609V-31.1H37.336v8.742H33.961l-2.437-6.492h-9.07v11.039h5.039V-21.07h2.883v9.117H27.492v-3.3H22.453V-2.344h9.492l2.414-6.4h3.352V0h-25.1V-2.344h4.078ZM44.2-2.344V-28.852H40.172V-31.1H55.641a17.382,17.382,0,0,1,4.617.563,12.687,12.687,0,0,1,3.6,1.582,10.988,10.988,0,0,1,2.66,2.426,13.261,13.261,0,0,1,1.8,3.094,16.187,16.187,0,0,1,1.02,3.609,24.2,24.2,0,0,1,.316,3.938,22.459,22.459,0,0,1-.328,3.809,17.629,17.629,0,0,1-1.043,3.668,15.6,15.6,0,0,1-1.828,3.293,12.04,12.04,0,0,1-2.672,2.672A12.642,12.642,0,0,1,60.2-.656,14.765,14.765,0,0,1,55.641,0H40.172V-2.344Zm11.438,0a6.093,6.093,0,0,0,3.809-1.172A8.414,8.414,0,0,0,61.91-6.6a15.491,15.491,0,0,0,1.313-4.359,31.885,31.885,0,0,0,.387-4.98,27.459,27.459,0,0,0-.445-5.1,13.409,13.409,0,0,0-1.418-4.09,7.716,7.716,0,0,0-2.484-2.73,6.432,6.432,0,0,0-3.621-1H50.063V-2.344ZM82.453-28.852V-2.344h4.664V0H72.047V-2.344h4.664V-28.852H72.047V-31.1h15.07v2.25Zm6.492-2.25h25.43v8.742h-3.117l-2.437-6.492h-4.266V-2.344h4.078V0H94.711V-2.344h4.078V-28.852H94.453l-2.391,6.492H88.945Zm37.664,2.25V-2.344h4.664V0H116.2V-2.344h4.664V-28.852H116.2V-31.1h15.07v2.25Zm21.047-2.7a15.562,15.562,0,0,1,4.617.633,12.9,12.9,0,0,1,3.6,1.723,11.543,11.543,0,0,1,2.66,2.566,14.888,14.888,0,0,1,1.8,3.152A16.225,16.225,0,0,1,161.355-20a20.4,20.4,0,0,1,.316,3.551,24.978,24.978,0,0,1-.34,4.09,20.045,20.045,0,0,1-1.066,3.938,17.385,17.385,0,0,1-1.84,3.527,12.346,12.346,0,0,1-2.672,2.848,12.306,12.306,0,0,1-3.574,1.9,13.886,13.886,0,0,1-4.523.691,15.588,15.588,0,0,1-4.676-.645,12.735,12.735,0,0,1-3.6-1.746,11.53,11.53,0,0,1-2.637-2.59,14.572,14.572,0,0,1-1.77-3.176,16.809,16.809,0,0,1-.984-3.492,21.237,21.237,0,0,1-.3-3.539,24.166,24.166,0,0,1,.352-4.09,20.624,20.624,0,0,1,1.078-3.937,16.481,16.481,0,0,1,1.852-3.5,12.691,12.691,0,0,1,2.672-2.812,12.123,12.123,0,0,1,3.551-1.875A13.84,13.84,0,0,1,147.656-31.547Zm8.109,18.07a35.527,35.527,0,0,0-.211-3.855,28.567,28.567,0,0,0-.645-3.7,20.1,20.1,0,0,0-1.1-3.293,11.743,11.743,0,0,0-1.582-2.66,7.065,7.065,0,0,0-2.074-1.781,5.2,5.2,0,0,0-2.566-.645,7.029,7.029,0,0,0-3.75.938,7.18,7.18,0,0,0-2.461,2.543,11.764,11.764,0,0,0-1.348,3.7,22.99,22.99,0,0,0-.41,4.418,32.2,32.2,0,0,0,.188,3.867,30.817,30.817,0,0,0,.633,3.738,21.45,21.45,0,0,0,1.078,3.363,11.9,11.9,0,0,0,1.547,2.719A7.094,7.094,0,0,0,145.1-2.309a4.988,4.988,0,0,0,2.555.668,7.312,7.312,0,0,0,3.832-.937A7.176,7.176,0,0,0,154-5.121a11.59,11.59,0,0,0,1.359-3.762A24.568,24.568,0,0,0,155.766-13.477ZM193.148-31.1v2.3h-3.937V0h-3.562L170.672-23.625V-2.344h3.938V0H164.3V-2.344h3.75V-28.8h-3.656v-2.3H172.9l13.57,21.258V-28.8h-3.68v-2.3Zm28.383-.445a15.562,15.562,0,0,1,4.617.633,12.9,12.9,0,0,1,3.6,1.723,11.543,11.543,0,0,1,2.66,2.566,14.888,14.888,0,0,1,1.8,3.152A16.225,16.225,0,0,1,235.23-20a20.4,20.4,0,0,1,.316,3.551,24.978,24.978,0,0,1-.34,4.09,20.045,20.045,0,0,1-1.066,3.938A17.385,17.385,0,0,1,232.3-4.9a12.346,12.346,0,0,1-2.672,2.848,12.306,12.306,0,0,1-3.574,1.9,13.886,13.886,0,0,1-4.523.691,15.588,15.588,0,0,1-4.676-.645,12.735,12.735,0,0,1-3.6-1.746,11.53,11.53,0,0,1-2.637-2.59,14.572,14.572,0,0,1-1.77-3.176,16.809,16.809,0,0,1-.984-3.492,21.237,21.237,0,0,1-.3-3.539,24.166,24.166,0,0,1,.352-4.09,20.624,20.624,0,0,1,1.078-3.937,16.481,16.481,0,0,1,1.852-3.5,12.691,12.691,0,0,1,2.672-2.812,12.123,12.123,0,0,1,3.551-1.875A13.84,13.84,0,0,1,221.531-31.547Zm8.109,18.07a35.527,35.527,0,0,0-.211-3.855,28.567,28.567,0,0,0-.645-3.7,20.1,20.1,0,0,0-1.1-3.293,11.743,11.743,0,0,0-1.582-2.66,7.065,7.065,0,0,0-2.074-1.781,5.2,5.2,0,0,0-2.566-.645,7.029,7.029,0,0,0-3.75.938,7.18,7.18,0,0,0-2.461,2.543,11.764,11.764,0,0,0-1.348,3.7,22.99,22.99,0,0,0-.41,4.418,32.2,32.2,0,0,0,.188,3.867,30.817,30.817,0,0,0,.633,3.738,21.45,21.45,0,0,0,1.078,3.363,11.9,11.9,0,0,0,1.547,2.719,7.094,7.094,0,0,0,2.039,1.816,4.988,4.988,0,0,0,2.555.668,7.312,7.312,0,0,0,3.832-.937,7.176,7.176,0,0,0,2.508-2.543,11.59,11.59,0,0,0,1.359-3.762A24.568,24.568,0,0,0,229.641-13.477Zm20.672-.68H247.43V-2.344h3.656V0H238.031V-2.344h3.656V-28.8h-3.656v-2.3h14.25a13.746,13.746,0,0,1,4.547.668,8.994,8.994,0,0,1,3.129,1.793,6.946,6.946,0,0,1,1.816,2.625,8.618,8.618,0,0,1,.586,3.164,8.88,8.88,0,0,1-.41,2.73,7.94,7.94,0,0,1-1.184,2.32,7.559,7.559,0,0,1-1.9,1.793,9.335,9.335,0,0,1-2.555,1.172l8.016,12.492h3.656V0H259.2Zm-2.883-2.461h4.477a3.174,3.174,0,0,0,1.641-.457,4.524,4.524,0,0,0,1.359-1.266,6.442,6.442,0,0,0,.926-1.934,8.566,8.566,0,0,0,.34-2.484,8.812,8.812,0,0,0-.316-2.437,6.422,6.422,0,0,0-.879-1.91,4.107,4.107,0,0,0-1.348-1.254,3.431,3.431,0,0,0-1.723-.445H247.43ZM271.617-2.344V-28.852h-4.031V-31.1h15.469a17.382,17.382,0,0,1,4.617.563,12.687,12.687,0,0,1,3.6,1.582,10.988,10.988,0,0,1,2.66,2.426,13.261,13.261,0,0,1,1.8,3.094,16.187,16.187,0,0,1,1.02,3.609,24.2,24.2,0,0,1,.316,3.938,22.459,22.459,0,0,1-.328,3.809A17.629,17.629,0,0,1,295.7-8.414a15.6,15.6,0,0,1-1.828,3.293A12.04,12.04,0,0,1,291.2-2.449a12.642,12.642,0,0,1-3.586,1.793A14.765,14.765,0,0,1,283.055,0H267.586V-2.344Zm11.438,0a6.093,6.093,0,0,0,3.809-1.172A8.414,8.414,0,0,0,289.324-6.6a15.491,15.491,0,0,0,1.313-4.359,31.885,31.885,0,0,0,.387-4.98,27.459,27.459,0,0,0-.445-5.1,13.409,13.409,0,0,0-1.418-4.09,7.716,7.716,0,0,0-2.484-2.73,6.432,6.432,0,0,0-3.621-1h-5.578V-2.344Zm20.719-26.508H299.7V-31.1h24.727v8.742h-3.375l-2.437-6.492h-9.07v11.039h5.039V-21.07h2.883v9.117h-2.883v-3.3h-5.039V-2.344h9.492l2.414-6.4H324.8V0H299.7V-2.344h4.078Zm35.625,14.7h-2.883V-2.344h3.656V0H327.117V-2.344h3.656V-28.8h-3.656v-2.3h14.25a13.746,13.746,0,0,1,4.547.668,8.994,8.994,0,0,1,3.129,1.793,6.946,6.946,0,0,1,1.816,2.625,8.618,8.618,0,0,1,.586,3.164,8.88,8.88,0,0,1-.41,2.73,7.94,7.94,0,0,1-1.184,2.32,7.559,7.559,0,0,1-1.9,1.793,9.335,9.335,0,0,1-2.555,1.172l8.016,12.492h3.656V0h-8.789Zm-2.883-2.461h4.477a3.174,3.174,0,0,0,1.641-.457,4.524,4.524,0,0,0,1.359-1.266,6.442,6.442,0,0,0,.926-1.934,8.566,8.566,0,0,0,.34-2.484,8.812,8.812,0,0,0-.316-2.437,6.422,6.422,0,0,0-.879-1.91,4.107,4.107,0,0,0-1.348-1.254,3.431,3.431,0,0,0-1.723-.445h-4.477Zm42,14.273h4.078V0H368.672V-2.344h4.078V-28.852h-4.078V-31.1H393.4v8.742h-3.375l-2.437-6.492h-9.07v11.039h5.039V-21.07h2.883v9.117h-2.883v-3.3h-5.039Zm45.3,0V0H410.906V-2.344h3.375l-3.234-8.836h-8.719l-3.07,8.836H402.8V0H392.531V-2.344h3.891L406.688-31.1h3.3L420.375-2.344ZM410.344-13.687l-3.609-10.219L403.2-13.687Zm24.094-15.164V-2.344H439.1V0h-15.07V-2.344H428.7V-28.852h-4.664V-31.1H439.1v2.25Zm18.773,14.7h-2.883V-2.344h3.656V0H440.93V-2.344h3.656V-28.8H440.93v-2.3h14.25a13.746,13.746,0,0,1,4.547.668,8.994,8.994,0,0,1,3.129,1.793,6.946,6.946,0,0,1,1.816,2.625,8.618,8.618,0,0,1,.586,3.164,8.88,8.88,0,0,1-.41,2.73,7.94,7.94,0,0,1-1.184,2.32,7.559,7.559,0,0,1-1.9,1.793,9.335,9.335,0,0,1-2.555,1.172l8.016,12.492h3.656V0h-8.789Zm-2.883-2.461H454.8a3.174,3.174,0,0,0,1.641-.457A4.524,4.524,0,0,0,457.8-18.34a6.442,6.442,0,0,0,.926-1.934,8.566,8.566,0,0,0,.34-2.484,8.812,8.812,0,0,0-.316-2.437,6.422,6.422,0,0,0-.879-1.91,4.107,4.107,0,0,0-1.348-1.254A3.431,3.431,0,0,0,454.8-28.8h-4.477ZM471.352-2.6a3.091,3.091,0,0,1,.879-2.285,3.152,3.152,0,0,1,2.332-.879,3.073,3.073,0,0,1,2.309.879,3.138,3.138,0,0,1,.855,2.285,3.7,3.7,0,0,1-.223,1.3,3.139,3.139,0,0,1-.633,1.043,2.818,2.818,0,0,1-1,.691,3.359,3.359,0,0,1-1.312.246A3.359,3.359,0,0,1,473.25.434a2.937,2.937,0,0,1-1.008-.691,3.2,3.2,0,0,1-.656-1.043A3.532,3.532,0,0,1,471.352-2.6Z" transform="translate(480.5 1114.93)" fill="#fff"/>
    </g>
    <path id="パス_57281" data-name="パス 57281" d="M.792-.864h1.92V-14.688H.792v-.864H4.9l5.28,12.024,5.088-12.024h4.008v.864h-1.92V-.864h1.92V0h-5.88V-.864h1.92v-12.12L10.176-.888h-1.1L3.744-13.08V-.864H5.592V0H.792Zm26.808,0V0H20.856V-.864h2.352V-14.688H20.952v-.864H27.5v.864H25.248V-.864Zm1.584,0H31.1V-14.688h-1.92v-.864H33.1L40.32-3.888v-10.8H38.4v-.864h4.872v.864h-1.92V0h-1.1L32.136-13.224V-.864h1.92V0H29.184Zm22.176,0V0H44.616V-.864h2.352V-14.688H44.712v-.864h6.552v.864H49.008V-.864ZM68.032-16.24l-.6.62c-1.2.1-2.06.14-4.3.18l-1.26-.42.12,1.32c.7.02,1.22.04,1.56.04,1,0,2.3-.06,3.92-.2-.82,2.54-1.24,3.7-2.02,5.78a9.228,9.228,0,0,0-2.44.4,4.8,4.8,0,0,0-3.66,4.56c0,1.7,1.02,3,2.36,3a3.226,3.226,0,0,0,2.56-1.74,29.275,29.275,0,0,0,2.5-5.18,19.231,19.231,0,0,1,5.92,1.24c-.74,3.66-2.06,5.64-4.84,7.26l.26.5a8.231,8.231,0,0,0,4.34-2.74,9.871,9.871,0,0,0,1.86-4.36c.98.46,1.38.66,2.34,1.2l.58-1.36a19.828,19.828,0,0,0-2.66-1.18c.14-.84.2-1.24.3-2.18.26-.16.36-.3.36-.46s-.16-.3-.46-.36l-1.64-.38.02.86c-.1,1.02-.12,1.12-.24,2a27.881,27.881,0,0,0-5.76-1.04c.9-2.36,1.16-3.08,2.02-5.58.4-.24.56-.44.56-.66a.521.521,0,0,0-.3-.42Zm-3.22,8.96c-1.7,3.98-2.42,5.12-3.26,5.12-.56,0-1.02-.7-1.02-1.58a4.031,4.031,0,0,1,2.16-3.4,5.875,5.875,0,0,1,2.36-.68Zm19.2-6.64c-1.7,0-2.4-.04-3.48-.1l-1.08-.46.1,1.36c1.44.1,2.14.12,3.38.12h.78a44.192,44.192,0,0,1-4.54,9.82l1.52.98a53.133,53.133,0,0,0,4.82-10.86c1.52-.06,3.18-.2,4.84-.42l.06-1.42-1.24.62c-1.42.16-2.24.24-3.34.3a2.378,2.378,0,0,1,.08-.28c.06-.18.24-.72.42-1.3.3-.2.36-.3.36-.44a.323.323,0,0,0-.28-.32l-1.76-.34-.16,1.02c-.1.4-.18.7-.22.84l-.24.82ZM96.772-2.06a12.213,12.213,0,0,0-4.88-2.66V-8.46c.32-.22.4-.3.4-.44,0-.2-.18-.32-.48-.32l-1.58-.02.06,1.48v2.72a10.78,10.78,0,0,0-1.76-.14c-2.6,0-4.16,1.12-4.16,3,0,1.9,1.86,3.28,4.42,3.28a3.04,3.04,0,0,0,2.82-1.2,3.033,3.033,0,0,0,.28-1.5V-3.26a13.214,13.214,0,0,1,3.7,2.7Zm-6.48.38c0,.96-.56,1.42-1.74,1.42-1.84,0-3.2-.86-3.2-2.04a1.371,1.371,0,0,1,.36-.92,3.444,3.444,0,0,1,2.5-.74,7.347,7.347,0,0,1,2.08.28Zm6.72-9.88a9.912,9.912,0,0,0-3.92-.64,10.034,10.034,0,0,0-3.52.52l.04.56a14.914,14.914,0,0,1,6.28,1.2Zm9.84-3.98c.24-.2.32-.34.32-.5a.374.374,0,0,0-.38-.34h-1.98l.34,1.2,1.26,6.08a18.048,18.048,0,0,0-2.48,1.48c-1.96,1.4-2.8,2.66-2.8,4.18a3.571,3.571,0,0,0,2.4,3.4,14.77,14.77,0,0,0,5.58.74,38.1,38.1,0,0,0,5.68-.34V-1.58a30.144,30.144,0,0,1-5.86.54c-4.52,0-6.44-.74-6.44-2.52,0-2.38,3.62-4.54,11.54-6.92a1.108,1.108,0,0,0,.54.18.364.364,0,0,0,.34-.32.691.691,0,0,0-.06-.24l-.7-1.62-.7.52c-1.56.6-3.06,1.16-4.48,1.72-.4.16-.68.26-.98.4Zm21.18-.7-.6.62c-1.2.1-2.06.14-4.3.18l-1.26-.42.12,1.32c.7.02,1.22.04,1.56.04,1,0,2.3-.06,3.92-.2-.82,2.54-1.24,3.7-2.02,5.78a9.228,9.228,0,0,0-2.44.4,4.8,4.8,0,0,0-3.66,4.56c0,1.7,1.02,3,2.36,3a3.226,3.226,0,0,0,2.56-1.74,29.275,29.275,0,0,0,2.5-5.18,19.231,19.231,0,0,1,5.92,1.24c-.74,3.66-2.06,5.64-4.84,7.26l.26.5a8.231,8.231,0,0,0,4.34-2.74,9.871,9.871,0,0,0,1.86-4.36c.98.46,1.38.66,2.34,1.2l.58-1.36a19.827,19.827,0,0,0-2.66-1.18c.14-.84.2-1.24.3-2.18.26-.16.36-.3.36-.46s-.16-.3-.46-.36l-1.64-.38.02.86c-.1,1.02-.12,1.12-.24,2a27.882,27.882,0,0,0-5.76-1.04c.9-2.36,1.16-3.08,2.02-5.58.4-.24.56-.44.56-.66a.521.521,0,0,0-.3-.42Zm-3.22,8.96c-1.7,3.98-2.42,5.12-3.26,5.12-.56,0-1.02-.7-1.02-1.58a4.031,4.031,0,0,1,2.16-3.4,5.875,5.875,0,0,1,2.36-.68Zm18.2,3.14a8.23,8.23,0,0,1,1.88-2.18,8.045,8.045,0,0,1,5.08-1.84c2.26,0,3.66,1.16,3.66,3.02s-1.36,3.36-3.88,4.34a22.627,22.627,0,0,1-4.96,1.18l.08.68c3.54-.24,5.02-.46,6.56-1.04,2.7-1.02,4.2-2.8,4.2-5.02a3.865,3.865,0,0,0-1.18-2.84,5.931,5.931,0,0,0-4.18-1.36,8.929,8.929,0,0,0-6.8,2.9l.46-6.04c.28-.2.38-.32.38-.5s-.14-.32-.38-.34l-1.86-.2.14,1.04-.54,8.2Zm1.22-11.48a16.526,16.526,0,0,1,6.5,2.14l1.44-1.68a9.421,9.421,0,0,0-1.9-.66,19.565,19.565,0,0,0-4.28-.52c-.44,0-.84.02-1.7.06ZM166.692-4.4c-.46,1.82-1.08,3.04-1.56,3.04-.46,0-1.18-.94-1.74-2.22-.74-1.76-1.12-4.58-1.12-8.56v-1.28c.34-.24.44-.36.44-.56s-.2-.34-.5-.36l-1.8-.12.1,1.2c.02,2.58.04,3.96.04,4.14a18.829,18.829,0,0,0,1.2,6.3c.86,2.08,1.94,3.18,3.08,3.18,1.12,0,2.1-1.6,2.74-4.48Zm10.32.16c-.66-3.88-2.64-7.48-5.12-9.34l-.5.38a24.36,24.36,0,0,1,3.7,9.82Z" transform="translate(399 1064.043)" fill="#fff"/>
  </g>
</svg>
