<svg xmlns="http://www.w3.org/2000/svg" width="342.54" height="168.328" viewBox="0 0 342.54 168.328">
  <g id="fair-tit" transform="translate(-630.5 -970)">
    <g id="fair" transform="translate(313 -87.383)">
      <g id="fair_name" data-name="fair name" transform="translate(8.09 -3.998)">
        <path id="パス_57295" data-name="パス 57295" d="M10.626-14.256v.77L4.488,0H3.454L9.262-12.562H3.1l-.77,2.134h-.77v-3.828Zm1.5,14.5a1.273,1.273,0,0,1-.935-.385,1.273,1.273,0,0,1-.385-.935,1.273,1.273,0,0,1,.385-.935,1.273,1.273,0,0,1,.935-.385,1.273,1.273,0,0,1,.935.385,1.273,1.273,0,0,1,.385.935,1.273,1.273,0,0,1-.385.935A1.273,1.273,0,0,1,12.122.242ZM22.594-.792V0h-6.16V-.792H18.7V-12.518L16.522-11.11l-.462-.7,3.63-2.442h.748V-.792Zm8.294-8.47a4.607,4.607,0,0,1,2.145.517,4.076,4.076,0,0,1,1.628,1.551,4.662,4.662,0,0,1,.627,2.464A4.915,4.915,0,0,1,34.562-2,4.689,4.689,0,0,1,32.725-.319a5.041,5.041,0,0,1-2.3.561,5.057,5.057,0,0,1-2.574-.66,4.68,4.68,0,0,1-1.782-1.8l.7-.44a3.793,3.793,0,0,0,1.452,1.474,4.021,4.021,0,0,0,2,.506,2.853,2.853,0,0,0,1.551-.451,3.232,3.232,0,0,0,1.155-1.331,4.624,4.624,0,0,0,.44-2.09,4.417,4.417,0,0,0-.44-2.057,2.962,2.962,0,0,0-1.155-1.254,3.082,3.082,0,0,0-1.551-.407,2.519,2.519,0,0,0-1.32.33,4.112,4.112,0,0,0-.99.836H27.06l.528-7.15h7v1.76H28.27l-.308,4.268a3.881,3.881,0,0,1,1.265-.748A4.675,4.675,0,0,1,30.888-9.262ZM47.168,1.364A7.964,7.964,0,0,1,44.3-1.881a11.343,11.343,0,0,1-.979-4.983,11.429,11.429,0,0,1,1-4.961,7.951,7.951,0,0,1,2.849-3.311l.33.308A6.791,6.791,0,0,0,45.617-11.7a14.959,14.959,0,0,0-.737,4.818,14.959,14.959,0,0,0,.737,4.818A6.791,6.791,0,0,0,47.5,1.056ZM69.036-13.464H67.408L63.6,0H62.59L58.652-11.132,55.066,0H54.054L50.028-13.464H48.29v-.792h5.5v.792H52.03L55.044-2.97l3.586-11.2h.924L63.58-3.036l2.882-10.428H64.724v-.792h4.312ZM73.3-10.186A3.7,3.7,0,0,1,76.1-9.064a4.077,4.077,0,0,1,1.078,2.948q0,.2-.044.682h-6.71a6.527,6.527,0,0,0,.473,2.409,4.423,4.423,0,0,0,1.188,1.716A2.441,2.441,0,0,0,73.7-.682a2.512,2.512,0,0,0,1.771-.737,3.134,3.134,0,0,0,.957-1.837h.682a3.7,3.7,0,0,1-.638,1.793A3.789,3.789,0,0,1,75.031-.209a4.249,4.249,0,0,1-1.947.451A4.052,4.052,0,0,1,70.84-.4a4.321,4.321,0,0,1-1.551-1.793,6,6,0,0,1-.561-2.651,6.277,6.277,0,0,1,.583-2.739,4.634,4.634,0,0,1,1.628-1.914A4.183,4.183,0,0,1,73.3-10.186Zm-.242.66a2.211,2.211,0,0,0-1.815.913,4.286,4.286,0,0,0-.8,2.453h4.774A4.392,4.392,0,0,0,74.7-8.646,1.824,1.824,0,0,0,73.062-9.526ZM87.692-15.2V0H86.02V-.924a2.624,2.624,0,0,1-1.111.869,3.958,3.958,0,0,1-1.573.3,3.9,3.9,0,0,1-3.124-1.364A5.465,5.465,0,0,1,79.046-4.8a6.709,6.709,0,0,1,.55-2.783,4.593,4.593,0,0,1,1.529-1.914,3.769,3.769,0,0,1,2.233-.693,3.773,3.773,0,0,1,1.474.286,3.366,3.366,0,0,1,1.188.836v-5.3H84.436V-15ZM83.71-.506a2.128,2.128,0,0,0,1.661-.726,2.764,2.764,0,0,0,.649-1.914V-6.8a2.639,2.639,0,0,0-.715-1.936,2.522,2.522,0,0,0-1.881-.726,2.16,2.16,0,0,0-1.958,1,5.716,5.716,0,0,0-.638,3.025,7.253,7.253,0,0,0,.759,3.608A2.347,2.347,0,0,0,83.71-.506Zm6.182-14.63a7.964,7.964,0,0,1,2.871,3.245,11.343,11.343,0,0,1,.979,4.983,11.429,11.429,0,0,1-1,4.961,7.951,7.951,0,0,1-2.849,3.311l-.33-.308a6.791,6.791,0,0,0,1.881-3.124,14.959,14.959,0,0,0,.737-4.818,14.959,14.959,0,0,0-.737-4.818,6.791,6.791,0,0,0-1.881-3.124ZM100.408-6.2h9v.858h-9Zm24.97-8.052v.77L119.24,0h-1.034l5.808-12.562h-6.16l-.77,2.134h-.77v-3.828Zm1.5,14.5a1.273,1.273,0,0,1-.935-.385,1.273,1.273,0,0,1-.385-.935,1.273,1.273,0,0,1,.385-.935,1.273,1.273,0,0,1,.935-.385,1.273,1.273,0,0,1,.935.385,1.273,1.273,0,0,1,.385.935,1.273,1.273,0,0,1-.385.935A1.273,1.273,0,0,1,126.874.242Zm12.5-1.958V0h-8.646V-.77q2.794-3.036,4.081-4.587a13.944,13.944,0,0,0,1.848-2.717,5.565,5.565,0,0,0,.561-2.442,3.617,3.617,0,0,0-.715-2.431,2.32,2.32,0,0,0-1.837-.825,2.173,2.173,0,0,0-1.914.968A4.652,4.652,0,0,0,132-10.428h-1.188v-2.64a4.114,4.114,0,0,1,1.65-1.056,6.276,6.276,0,0,1,2.222-.4,5.831,5.831,0,0,1,2.123.4,3.8,3.8,0,0,1,1.694,1.287,3.681,3.681,0,0,1,.671,2.277,4.067,4.067,0,0,1-.528,1.991A12.664,12.664,0,0,1,136.9-6.281q-1.221,1.331-4.411,4.565ZM147-9.064a4.607,4.607,0,0,1,2.145.517,3.971,3.971,0,0,1,1.606,1.529,4.586,4.586,0,0,1,.6,2.4,5.035,5.035,0,0,1-.627,2.519,4.487,4.487,0,0,1-1.705,1.727,4.7,4.7,0,0,1-2.376.616,4.224,4.224,0,0,1-2.618-.847,5.343,5.343,0,0,1-1.727-2.409,10.083,10.083,0,0,1-.6-3.652,10.7,10.7,0,0,1,.748-4.147,6.644,6.644,0,0,1,1.991-2.761,4.3,4.3,0,0,1,2.695-.968,4.06,4.06,0,0,1,2.057.55,4.952,4.952,0,0,1,1.639,1.562l-.66.55a4.648,4.648,0,0,0-1.331-1.32,2.956,2.956,0,0,0-1.617-.484,2.813,2.813,0,0,0-2.563,1.727,10.69,10.69,0,0,0-1.023,4.565,4.446,4.446,0,0,1,1.375-1.188A3.945,3.945,0,0,1,147-9.064Zm.022,8.6a1.994,1.994,0,0,0,1.837-1.023,5.208,5.208,0,0,0,.6-2.673,4.774,4.774,0,0,0-.836-3.069,2.572,2.572,0,0,0-2.068-1.023,2.547,2.547,0,0,0-1.859.748,3.764,3.764,0,0,0-1.023,1.782,7.926,7.926,0,0,0,1.056,3.9A2.674,2.674,0,0,0,147.026-.462ZM162.8,1.364a7.964,7.964,0,0,1-2.871-3.245,11.343,11.343,0,0,1-.979-4.983,11.429,11.429,0,0,1,1-4.961,7.951,7.951,0,0,1,2.849-3.311l.33.308a6.791,6.791,0,0,0-1.881,3.124,14.959,14.959,0,0,0-.737,4.818,14.959,14.959,0,0,0,.737,4.818,6.791,6.791,0,0,0,1.881,3.124Zm5.852-1.1a6.8,6.8,0,0,1-2.519-.44,3.986,3.986,0,0,1-1.639-1.078v-2.6h1.188a4.374,4.374,0,0,0,.99,2.629,2.759,2.759,0,0,0,2.024.759,2.9,2.9,0,0,0,2.1-.715,2.558,2.558,0,0,0,.737-1.925,2.459,2.459,0,0,0-1.21-2.2l-3.916-2.53a4.7,4.7,0,0,1-1.4-1.3,3.129,3.129,0,0,1-.495-1.8,3.246,3.246,0,0,1,1.155-2.607,4.763,4.763,0,0,1,3.179-.979,6.407,6.407,0,0,1,2.255.374,4.225,4.225,0,0,1,1.639,1.056v2.662h-1.188a4.7,4.7,0,0,0-.836-2.651,2.38,2.38,0,0,0-1.87-.737,2.57,2.57,0,0,0-2.013.7,2.459,2.459,0,0,0-.627,1.694,2.093,2.093,0,0,0,1.012,1.892l3.85,2.464A5.558,5.558,0,0,1,172.8-5.489a3.319,3.319,0,0,1,.517,1.837,3.754,3.754,0,0,1-.55,2.013,3.725,3.725,0,0,1-1.6,1.4A5.736,5.736,0,0,1,168.652.264ZM185.2-.66v.638l-3.014.154-.044-1.1a3.486,3.486,0,0,1-2.794,1.21A3.479,3.479,0,0,1,176.9-.583a3.343,3.343,0,0,1-.9-2.585V-9.284h-1.386v-.66h3.058v6.776a2.968,2.968,0,0,0,.561,2.024,1.836,1.836,0,0,0,1.419.616,2.809,2.809,0,0,0,1.716-.572,2.256,2.256,0,0,0,.77-1.936V-9.284H180.73v-.66h3.058V-.66Zm11.814,0V0h-4.466V-.66h1.43V-6.886a2.931,2.931,0,0,0-.517-1.848,1.751,1.751,0,0,0-1.463-.66,2.36,2.36,0,0,0-1.793.759,2.667,2.667,0,0,0-.715,1.9V-.66h1.386V0h-4.488V-.66h1.452V-9.284h-1.408v-.638l3.014-.176.044,1.144a3.1,3.1,0,0,1,1.188-.891,4.006,4.006,0,0,1,1.628-.319,3.27,3.27,0,0,1,2.453.891,3.458,3.458,0,0,1,.869,2.519V-.66Zm1.144-14.476a7.964,7.964,0,0,1,2.871,3.245A11.343,11.343,0,0,1,202-6.908a11.429,11.429,0,0,1-1,4.961,7.951,7.951,0,0,1-2.849,3.311l-.33-.308a6.791,6.791,0,0,0,1.881-3.124,14.959,14.959,0,0,0,.737-4.818,14.959,14.959,0,0,0-.737-4.818,6.791,6.791,0,0,0-1.881-3.124Z" transform="translate(378.848 1228.345)" fill="#fff"/>
        <path id="パス_57294" data-name="パス 57294" d="M-72.432-1.728h3.42V-21.6h-3.24l-1.8,4.824h-2.34v-6.552h19.116v6.552h-2.34L-61.452-21.6h-3.2V-1.728h3.42V0h-11.2ZM-34.956-21.6V-1.728h2.808V0H-42.12V-1.728h2.808v-9.684H-48.6v9.684h2.808V0h-9.972V-1.728h2.808V-21.6h-2.808v-1.728h10.008V-21.6H-48.6v8.388h9.288V-21.6H-42.12v-1.728h9.972V-21.6Zm23.04,15.048V0H-30.492V-1.728h2.808V-21.6h-2.808v-1.728H-12.2v6.552h-2.52L-16.56-21.6h-6.768v8.388h3.744V-16.02h2.16V-8.6h-2.16v-2.808h-3.744v9.684h7.092l1.8-4.824ZM-.936-1.728H1.872V-21.6H-.936v-1.728H6.012L13.536-6.876l7.02-16.452H27.5V-21.6H24.7V-1.728H27.5V0H17.64V-1.728h2.7V-17.82L13.464-1.728H11.232L3.852-17.784V-1.728H6.516V0H-.936ZM37.008-21.6V-1.728H40.5V0H29.16V-1.728h3.492V-21.6H29.16v-1.728H40.5V-21.6ZM42.156-1.728h2.808V-21.6H42.156v-1.728H48.6L58.86-7.272V-21.6H56.088v-1.728h7.56V-21.6H60.84V0H58.176L46.944-17.748v16.02h2.7V0H42.156ZM72.792-21.6V-1.728h3.492V0H64.944V-1.728h3.492V-21.6H64.944v-1.728h11.34V-21.6ZM-160.254,16.672a8.318,8.318,0,0,1,5.49,1.692,5.637,5.637,0,0,1,2.034,4.572,6.033,6.033,0,0,1-.954,3.348,6.3,6.3,0,0,1-2.664,2.286,9.02,9.02,0,0,1-3.906.81h-3.672v8.892h2.808V40h-9.972V38.272h2.808V18.4h-2.808V16.672Zm-.4,10.98a2.816,2.816,0,0,0,2.34-1.386,5.652,5.652,0,0,0,.972-3.33,5.448,5.448,0,0,0-.918-3.258A2.822,2.822,0,0,0-160.65,18.4h-3.276v9.252Zm29.16,10.62V40h-9.972V38.272h2.808l-2.2-6.516h-6.8l-2.268,6.516h2.664V40h-7.524V38.272h2.736l7.7-21.6h2.556l7.7,21.6Zm-9.972-8.316-2.664-7.884h-.18l-2.736,7.884ZM-121.23,40.4a8.851,8.851,0,0,1-6.246-2.142q-2.322-2.142-2.322-6.462V18.4h-2.808V16.672h9.972V18.4h-2.808V33.016a5.774,5.774,0,0,0,1.278,4.05,4.629,4.629,0,0,0,3.582,1.386,5.325,5.325,0,0,0,2.592-.648,4.8,4.8,0,0,0,1.89-1.872,5.69,5.69,0,0,0,.7-2.88V18.4h-2.808V16.672h7.6V18.4h-2.808V32.908a7.377,7.377,0,0,1-2.052,5.4A7.71,7.71,0,0,1-121.23,40.4Zm12.024-2.124h2.808V18.4h-2.808V16.672h9.972V18.4h-2.808V38.272h7.092l1.8-4.824h2.52V40h-18.576Zm36.864,2.16a11.257,11.257,0,0,1-4.428-.81A7.071,7.071,0,0,1-79.506,37.8V33.448h3.024a7.737,7.737,0,0,0,1.44,4.086,3.507,3.507,0,0,0,2.772,1.242,3.606,3.606,0,0,0,2.718-1.062,3.8,3.8,0,0,0,1.026-2.754A3.954,3.954,0,0,0-70.4,31.5l-6.084-4.032a7.571,7.571,0,0,1-2.25-2.286,5.741,5.741,0,0,1-.882-3.15,5.154,5.154,0,0,1,1.962-4.194,8.27,8.27,0,0,1,5.382-1.6,11.551,11.551,0,0,1,4.176.72,7.365,7.365,0,0,1,2.88,1.836v4.428h-3.06a7.868,7.868,0,0,0-1.3-4.194,3.3,3.3,0,0,0-2.664-1.206,3.238,3.238,0,0,0-2.5.954,3.489,3.489,0,0,0-.882,2.466A3.4,3.4,0,0,0-74,24.232l6.372,4.176a7.469,7.469,0,0,1,2.448,2.574,6.523,6.523,0,0,1,.864,3.258,5.423,5.423,0,0,1-.99,3.2,6.519,6.519,0,0,1-2.808,2.2A10.515,10.515,0,0,1-72.342,40.432Zm10.008-2.16h2.808V18.4h-2.808V16.672h6.948l7.524,16.452,7.02-16.452h6.948V18.4H-36.7V38.272h2.808V40h-9.864V38.272h2.7V22.18l-6.876,16.092h-2.232l-7.38-16.056V38.272h2.664V40h-7.452ZM-24.39,18.4V38.272H-20.9V40h-11.34V38.272h3.492V18.4h-3.492V16.672H-20.9V18.4Zm9,19.872h3.42V18.4h-3.24l-1.8,4.824h-2.34V16.672H-.234v6.552h-2.34L-4.41,18.4h-3.2V38.272h3.42V40h-11.2ZM22.086,18.4V38.272h2.808V40H14.922V38.272H17.73V28.588H8.442v9.684H11.25V40H1.278V38.272H4.086V18.4H1.278V16.672H11.286V18.4H8.442v8.388H17.73V18.4H14.922V16.672h9.972V18.4Zm32.04,15.048V40H35.55V38.272h2.808V18.4H35.55V16.672H53.838v6.552h-2.52L49.482,18.4H42.714v8.388h3.744V23.98h2.16V31.4h-2.16V28.588H42.714v9.684h7.092l1.8-4.824Zm13.1-16.776a12.01,12.01,0,0,1,6.246,1.512,9.4,9.4,0,0,1,3.762,4.05,12.968,12.968,0,0,1,1.224,5.706A13.771,13.771,0,0,1,77.2,33.7a10.913,10.913,0,0,1-3.816,4.536A10.57,10.57,0,0,1,67.23,40H56.106V38.272h2.916V18.4H56.106V16.672Zm-.252,21.6a5.336,5.336,0,0,0,3.8-1.476,9.153,9.153,0,0,0,2.358-3.852,15.834,15.834,0,0,0,.792-5.04,13.6,13.6,0,0,0-.828-4.9,7.585,7.585,0,0,0-2.412-3.384A5.89,5.89,0,0,0,66.978,18.4h-3.6V38.272ZM88.146,18.4V38.272h3.492V40H80.3V38.272H83.79V18.4H80.3V16.672h11.34V18.4Zm9,19.872h3.42V18.4h-3.24l-1.8,4.824h-2.34V16.672H112.3v6.552h-2.34L108.126,18.4h-3.2V38.272h3.42V40h-11.2ZM121.662,18.4V38.272h3.492V40h-11.34V38.272h3.492V18.4h-3.492V16.672h11.34V18.4Zm15.876,22.032a10.321,10.321,0,0,1-6.066-1.656,9.514,9.514,0,0,1-3.42-4.248,14.386,14.386,0,0,1-1.062-5.508,17.031,17.031,0,0,1,1.134-6.228,10.719,10.719,0,0,1,3.51-4.734,9.43,9.43,0,0,1,5.9-1.818,10.358,10.358,0,0,1,6.03,1.656,9.536,9.536,0,0,1,3.474,4.266,14.218,14.218,0,0,1,1.08,5.49,17.031,17.031,0,0,1-1.134,6.228,10.719,10.719,0,0,1-3.51,4.734A9.489,9.489,0,0,1,137.538,40.432Zm.468-1.584a4.566,4.566,0,0,0,4.266-2.484,12.986,12.986,0,0,0,1.386-6.372,20.532,20.532,0,0,0-1.62-8.712q-1.62-3.456-4.9-3.456a4.594,4.594,0,0,0-4.284,2.52,13.059,13.059,0,0,0-1.4,6.408,20.09,20.09,0,0,0,1.638,8.676Q134.73,38.848,138.006,38.848Zm11.952-.576h2.808V18.4h-2.808V16.672H156.4l10.26,16.056V18.4H163.89V16.672h7.56V18.4h-2.808V40h-2.664L154.746,22.252v16.02h2.7V40h-7.488ZM-92.268,80.432a10.321,10.321,0,0,1-6.066-1.656,9.514,9.514,0,0,1-3.42-4.248,14.386,14.386,0,0,1-1.062-5.508,17.031,17.031,0,0,1,1.134-6.228,10.719,10.719,0,0,1,3.51-4.734,9.43,9.43,0,0,1,5.9-1.818,10.358,10.358,0,0,1,6.03,1.656,9.536,9.536,0,0,1,3.474,4.266,14.218,14.218,0,0,1,1.08,5.49,17.031,17.031,0,0,1-1.134,6.228,10.719,10.719,0,0,1-3.51,4.734A9.489,9.489,0,0,1-92.268,80.432Zm.468-1.584a4.566,4.566,0,0,0,4.266-2.484,12.986,12.986,0,0,0,1.386-6.372,20.532,20.532,0,0,0-1.62-8.712q-1.62-3.456-4.9-3.456a4.594,4.594,0,0,0-4.284,2.52,13.059,13.059,0,0,0-1.4,6.408,20.09,20.09,0,0,0,1.638,8.676Q-95.076,78.848-91.8,78.848Zm34.128-.576V80h-6.444l-6.552-10.584h-2.016v8.856h2.808V80h-9.972V78.272h2.808V58.4h-2.808V56.672h10.836a7.9,7.9,0,0,1,5.616,1.8,5.93,5.93,0,0,1,1.908,4.5,6.041,6.041,0,0,1-1.224,3.744,6.6,6.6,0,0,1-3.384,2.3l5.94,9.252ZM-72.684,67.688h3.276a2.816,2.816,0,0,0,2.34-1.386,5.652,5.652,0,0,0,.972-3.33,5.436,5.436,0,0,0-.936-3.294A2.836,2.836,0,0,0-69.408,58.4h-3.276ZM-45.54,56.672a12.011,12.011,0,0,1,6.246,1.512,9.4,9.4,0,0,1,3.762,4.05,12.968,12.968,0,0,1,1.224,5.706,13.771,13.771,0,0,1-1.26,5.76,10.913,10.913,0,0,1-3.816,4.536A10.57,10.57,0,0,1-45.54,80H-56.664V78.272h2.916V58.4h-2.916V56.672Zm-.252,21.6a5.336,5.336,0,0,0,3.8-1.476,9.153,9.153,0,0,0,2.358-3.852,15.834,15.834,0,0,0,.792-5.04,13.6,13.6,0,0,0-.828-4.9,7.585,7.585,0,0,0-2.412-3.384A5.89,5.89,0,0,0-45.792,58.4h-3.6V78.272Zm31.9-4.824V80H-32.472V78.272h2.808V58.4h-2.808V56.672h18.288v6.552H-16.7L-18.54,58.4h-6.768v8.388h3.744V63.98h2.16V71.4h-2.16V68.588h-3.744v9.684h7.092l1.8-4.824ZM10.26,78.272V80H3.816L-2.736,69.416H-4.752v8.856h2.808V80h-9.972V78.272h2.808V58.4h-2.808V56.672H-1.08a7.9,7.9,0,0,1,5.616,1.8,5.93,5.93,0,0,1,1.908,4.5A6.041,6.041,0,0,1,5.22,66.716a6.6,6.6,0,0,1-3.384,2.3l5.94,9.252ZM-4.752,67.688h3.276A2.816,2.816,0,0,0,.864,66.3a5.652,5.652,0,0,0,.972-3.33A5.436,5.436,0,0,0,.9,59.678,2.836,2.836,0,0,0-1.476,58.4H-4.752ZM38.556,56.672v6.552h-2.52L34.2,58.4H27.432v8.388h3.744V63.98h2.16V71.4h-2.16V68.588H27.432v9.684H30.24V80H20.268V78.272h2.808V58.4H20.268V56.672Zm20.88,21.6V80H49.464V78.272h2.808l-2.2-6.516h-6.8L41,78.272h2.664V80H36.144V78.272H38.88l7.7-21.6H49.14l7.7,21.6Zm-9.972-8.316L46.8,62.072h-.18l-2.736,7.884ZM68.4,58.4V78.272h3.492V80H60.552V78.272h3.492V58.4H60.552V56.672h11.34V58.4ZM95.724,78.272V80H89.28L82.728,69.416H80.712v8.856H83.52V80H73.548V78.272h2.808V58.4H73.548V56.672H84.384A7.9,7.9,0,0,1,90,58.472a5.93,5.93,0,0,1,1.908,4.5,6.041,6.041,0,0,1-1.224,3.744,6.6,6.6,0,0,1-3.384,2.3l5.94,9.252ZM80.712,67.688h3.276a2.816,2.816,0,0,0,2.34-1.386,5.652,5.652,0,0,0,.972-3.33,5.436,5.436,0,0,0-.936-3.294A2.836,2.836,0,0,0,83.988,58.4H80.712Zm16.668,10.3a2.4,2.4,0,1,1,.7,1.71A2.327,2.327,0,0,1,97.38,77.984Z" transform="translate(480.5 1116.711)" fill="#fff"/>
      </g>
      <path id="パス_57293" data-name="パス 57293" d="M.726-.792h1.76V-13.464H.726v-.792H4.488L9.328-3.234l4.664-11.022h3.674v.792h-1.76V-.792h1.76V0h-5.39V-.792h1.76V-11.9L9.328-.814H8.316L3.432-11.99v11.2H5.126V0H.726Zm24.574,0V0H19.118V-.792h2.156V-13.464H19.206v-.792h6.006v.792H23.144V-.792Zm1.452,0h1.76V-13.464h-1.76v-.792h3.586L36.96-3.564v-9.9H35.2v-.792h4.466v.792h-1.76V0H36.894L29.458-12.122V-.792h1.76V0H26.752Zm20.328,0V0H40.9V-.792h2.156V-13.464H40.986v-.792h6.006v.792H44.924V-.792ZM62.686-14.616l-.54.558c-1.08.09-1.854.126-3.87.162l-1.134-.378.108,1.188c.63.018,1.1.036,1.4.036.9,0,2.07-.054,3.528-.18-.738,2.286-1.116,3.33-1.818,5.2a8.3,8.3,0,0,0-2.2.36,4.316,4.316,0,0,0-3.294,4.1c0,1.53.918,2.7,2.124,2.7A2.9,2.9,0,0,0,59.3-2.43a26.347,26.347,0,0,0,2.25-4.662A17.308,17.308,0,0,1,66.88-5.976C66.214-2.682,65.026-.9,62.524.558l.234.45a7.408,7.408,0,0,0,3.906-2.466,8.884,8.884,0,0,0,1.674-3.924c.882.414,1.242.594,2.106,1.08l.522-1.224a17.845,17.845,0,0,0-2.394-1.062c.126-.756.18-1.116.27-1.962.234-.144.324-.27.324-.414s-.144-.27-.414-.324L67.276-9.63l.018.774c-.09.918-.108,1.008-.216,1.8a25.093,25.093,0,0,0-5.184-.936c.81-2.124,1.044-2.772,1.818-5.022.36-.216.5-.4.5-.594a.469.469,0,0,0-.27-.378Zm-2.9,8.064c-1.53,3.582-2.178,4.608-2.934,4.608-.5,0-.918-.63-.918-1.422a3.628,3.628,0,0,1,1.944-3.06A5.288,5.288,0,0,1,60-7.038Zm17.28-5.976c-1.53,0-2.16-.036-3.132-.09l-.972-.414.09,1.224c1.3.09,1.926.108,3.042.108h.7a39.773,39.773,0,0,1-4.086,8.838l1.368.882a47.819,47.819,0,0,0,4.338-9.774c1.368-.054,2.862-.18,4.356-.378l.054-1.278-1.116.558c-1.278.144-2.016.216-3.006.27a2.142,2.142,0,0,1,.072-.252c.054-.162.216-.648.378-1.17.27-.18.324-.27.324-.4a.291.291,0,0,0-.252-.288l-1.584-.306-.144.918c-.09.36-.162.63-.2.756l-.216.738ZM88.552-1.854A10.991,10.991,0,0,0,84.16-4.248V-7.614c.288-.2.36-.27.36-.4,0-.18-.162-.288-.432-.288l-1.422-.018.054,1.332v2.448a9.7,9.7,0,0,0-1.584-.126c-2.34,0-3.744,1.008-3.744,2.7C77.392-.252,79.066.99,81.37.99A2.736,2.736,0,0,0,83.908-.09a2.729,2.729,0,0,0,.252-1.35V-2.934A11.893,11.893,0,0,1,87.49-.5Zm-5.832.342c0,.864-.5,1.278-1.566,1.278-1.656,0-2.88-.774-2.88-1.836A1.234,1.234,0,0,1,78.6-2.9a3.1,3.1,0,0,1,2.25-.666,6.612,6.612,0,0,1,1.872.252ZM88.768-10.4a8.921,8.921,0,0,0-3.528-.576,9.031,9.031,0,0,0-3.168.468l.036.5a13.422,13.422,0,0,1,5.652,1.08Zm8.856-3.582c.216-.18.288-.306.288-.45a.336.336,0,0,0-.342-.306H95.788l.306,1.08L97.228-8.19A16.243,16.243,0,0,0,95-6.858c-1.764,1.26-2.52,2.394-2.52,3.762a3.214,3.214,0,0,0,2.16,3.06A13.293,13.293,0,0,0,99.658.63,34.286,34.286,0,0,0,104.77.324V-1.422A27.13,27.13,0,0,1,99.5-.936c-4.068,0-5.8-.666-5.8-2.268,0-2.142,3.258-4.086,10.386-6.228a1,1,0,0,0,.486.162.327.327,0,0,0,.306-.288.622.622,0,0,0-.054-.216l-.63-1.458-.63.468c-1.4.54-2.754,1.044-4.032,1.548-.36.144-.612.234-.882.36Zm19.062-.63-.54.558c-1.08.09-1.854.126-3.87.162l-1.134-.378.108,1.188c.63.018,1.1.036,1.4.036.9,0,2.07-.054,3.528-.18-.738,2.286-1.116,3.33-1.818,5.2a8.3,8.3,0,0,0-2.2.36,4.316,4.316,0,0,0-3.294,4.1c0,1.53.918,2.7,2.124,2.7a2.9,2.9,0,0,0,2.3-1.566,26.347,26.347,0,0,0,2.25-4.662,17.308,17.308,0,0,1,5.328,1.116c-.666,3.294-1.854,5.076-4.356,6.534l.234.45a7.408,7.408,0,0,0,3.906-2.466,8.884,8.884,0,0,0,1.674-3.924c.882.414,1.242.594,2.106,1.08l.522-1.224a17.845,17.845,0,0,0-2.394-1.062c.126-.756.18-1.116.27-1.962.234-.144.324-.27.324-.414s-.144-.27-.414-.324l-1.476-.342.018.774c-.09.918-.108,1.008-.216,1.8a25.093,25.093,0,0,0-5.184-.936c.81-2.124,1.044-2.772,1.818-5.022.36-.216.5-.4.5-.594a.469.469,0,0,0-.27-.378Zm-2.9,8.064c-1.53,3.582-2.178,4.608-2.934,4.608-.5,0-.918-.63-.918-1.422a3.628,3.628,0,0,1,1.944-3.06A5.288,5.288,0,0,1,114-7.038Zm16.38,2.826a7.407,7.407,0,0,1,1.692-1.962,7.24,7.24,0,0,1,4.572-1.656c2.034,0,3.294,1.044,3.294,2.718S138.5-1.6,136.234-.72A20.364,20.364,0,0,1,131.77.342l.072.612a19.553,19.553,0,0,0,5.9-.936c2.43-.918,3.78-2.52,3.78-4.518a3.479,3.479,0,0,0-1.062-2.556A5.338,5.338,0,0,0,136.7-8.28a8.036,8.036,0,0,0-6.12,2.61L131-11.106c.252-.18.342-.288.342-.45s-.126-.288-.342-.306l-1.674-.18.126.936-.486,7.38Zm1.1-10.332a14.873,14.873,0,0,1,5.85,1.926l1.3-1.512a8.479,8.479,0,0,0-1.71-.594,17.608,17.608,0,0,0-3.852-.468c-.4,0-.756.018-1.53.054ZM151.48-3.96c-.414,1.638-.972,2.736-1.4,2.736-.414,0-1.062-.846-1.566-2-.666-1.584-1.008-4.122-1.008-7.7v-1.152c.306-.216.4-.324.4-.5s-.18-.306-.45-.324l-1.62-.108.09,1.08c.018,2.322.036,3.564.036,3.726a16.945,16.945,0,0,0,1.08,5.67c.774,1.872,1.746,2.862,2.772,2.862,1.008,0,1.89-1.44,2.466-4.032Zm9.288.144a13.643,13.643,0,0,0-4.608-8.406l-.45.342a21.924,21.924,0,0,1,3.33,8.838Z" transform="translate(407.774 1072.377)" fill="#fff"/>
    </g>
  </g>
</svg>
