<svg xmlns="http://www.w3.org/2000/svg" width="961.824" height="100.108" viewBox="0 0 961.824 100.108">
  <g id="fair" transform="translate(-5.988 -1047.383)">
    <g id="fair_name" data-name="fair name" transform="translate(7 1.78)">
      <path id="パス_57283" data-name="パス 57283" d="M11.592-15.552v.84L4.9,0H3.768L10.1-13.7H3.384l-.84,2.328H1.7v-4.176ZM13.224.264a1.389,1.389,0,0,1-1.02-.42,1.389,1.389,0,0,1-.42-1.02A1.389,1.389,0,0,1,12.2-2.2a1.389,1.389,0,0,1,1.02-.42,1.389,1.389,0,0,1,1.02.42,1.389,1.389,0,0,1,.42,1.02,1.389,1.389,0,0,1-.42,1.02A1.389,1.389,0,0,1,13.224.264ZM24.648-.864V0h-6.72V-.864H20.4V-13.656L18.024-12.12l-.5-.768,3.96-2.664H22.3V-.864ZM33.7-10.1a5.026,5.026,0,0,1,2.34.564,4.446,4.446,0,0,1,1.776,1.692A5.086,5.086,0,0,1,38.5-5.16,5.362,5.362,0,0,1,37.7-2.184a5.115,5.115,0,0,1-2,1.836,5.5,5.5,0,0,1-2.508.612,5.516,5.516,0,0,1-2.808-.72A5.1,5.1,0,0,1,28.44-2.424l.768-.48A4.138,4.138,0,0,0,30.792-1.3a4.387,4.387,0,0,0,2.184.552,3.112,3.112,0,0,0,1.692-.492,3.526,3.526,0,0,0,1.26-1.452,5.045,5.045,0,0,0,.48-2.28,4.819,4.819,0,0,0-.48-2.244,3.232,3.232,0,0,0-1.26-1.368,3.363,3.363,0,0,0-1.692-.444,2.748,2.748,0,0,0-1.44.36,4.485,4.485,0,0,0-1.08.912H29.52l.576-7.8h7.632v1.92H30.84L30.5-8.976a4.234,4.234,0,0,1,1.38-.816A5.1,5.1,0,0,1,33.7-10.1ZM51.456,1.488a8.688,8.688,0,0,1-3.132-3.54,12.375,12.375,0,0,1-1.068-5.436A12.468,12.468,0,0,1,48.348-12.9a8.673,8.673,0,0,1,3.108-3.612l.36.336a7.409,7.409,0,0,0-2.052,3.408,16.319,16.319,0,0,0-.8,5.256,16.319,16.319,0,0,0,.8,5.256,7.409,7.409,0,0,0,2.052,3.408ZM75.312-14.688H73.536L69.384,0h-1.1l-4.3-12.144L60.072,0h-1.1L54.576-14.688h-1.9v-.864h6v.864H56.76L60.048-3.24,63.96-15.456h1.008L69.36-3.312,72.5-14.688h-1.9v-.864h4.7Zm4.656,3.576a4.038,4.038,0,0,1,3.048,1.224,4.447,4.447,0,0,1,1.176,3.216q0,.216-.048.744h-7.32A7.12,7.12,0,0,0,77.34-3.3a4.825,4.825,0,0,0,1.3,1.872A2.663,2.663,0,0,0,80.4-.744a2.741,2.741,0,0,0,1.932-.8,3.419,3.419,0,0,0,1.044-2h.744a4.035,4.035,0,0,1-.7,1.956A4.134,4.134,0,0,1,81.852-.228a4.635,4.635,0,0,1-2.124.492,4.421,4.421,0,0,1-2.448-.7,4.714,4.714,0,0,1-1.692-1.956,6.54,6.54,0,0,1-.612-2.892,6.848,6.848,0,0,1,.636-2.988,5.055,5.055,0,0,1,1.776-2.088A4.563,4.563,0,0,1,79.968-11.112Zm-.264.72a2.412,2.412,0,0,0-1.98,1,4.676,4.676,0,0,0-.876,2.676h5.208a4.792,4.792,0,0,0-.564-2.712A1.99,1.99,0,0,0,79.7-10.392Zm15.96-6.192V0H93.84V-1.008a2.863,2.863,0,0,1-1.212.948,4.318,4.318,0,0,1-1.716.324A4.256,4.256,0,0,1,87.5-1.224a5.962,5.962,0,0,1-1.272-4.008,7.319,7.319,0,0,1,.6-3.036A5.011,5.011,0,0,1,88.5-10.356a4.112,4.112,0,0,1,2.436-.756,4.116,4.116,0,0,1,1.608.312,3.672,3.672,0,0,1,1.3.912v-5.784H92.112v-.7ZM91.32-.552a2.321,2.321,0,0,0,1.812-.792,3.015,3.015,0,0,0,.708-2.088V-7.416a2.879,2.879,0,0,0-.78-2.112,2.751,2.751,0,0,0-2.052-.792,2.357,2.357,0,0,0-2.136,1.092,6.236,6.236,0,0,0-.7,3.3A7.912,7.912,0,0,0,89-1.992,2.56,2.56,0,0,0,91.32-.552Zm6.744-15.96a8.688,8.688,0,0,1,3.132,3.54,12.375,12.375,0,0,1,1.068,5.436,12.468,12.468,0,0,1-1.092,5.412,8.673,8.673,0,0,1-3.108,3.612l-.36-.336a7.409,7.409,0,0,0,2.052-3.408,16.319,16.319,0,0,0,.8-5.256,16.319,16.319,0,0,0-.8-5.256A7.409,7.409,0,0,0,97.7-16.176Zm11.472,9.744h9.816v.936h-9.816Zm27.24-8.784v.84L130.08,0h-1.128l6.336-13.7h-6.72l-.84,2.328h-.84v-4.176ZM138.408.264a1.389,1.389,0,0,1-1.02-.42,1.389,1.389,0,0,1-.42-1.02,1.389,1.389,0,0,1,.42-1.02,1.389,1.389,0,0,1,1.02-.42,1.389,1.389,0,0,1,1.02.42,1.389,1.389,0,0,1,.42,1.02,1.389,1.389,0,0,1-.42,1.02A1.389,1.389,0,0,1,138.408.264ZM152.04-1.872V0h-9.432V-.84q3.048-3.312,4.452-5a15.212,15.212,0,0,0,2.016-2.964,6.071,6.071,0,0,0,.612-2.664,3.946,3.946,0,0,0-.78-2.652,2.531,2.531,0,0,0-2-.9,2.37,2.37,0,0,0-2.088,1.056A5.074,5.074,0,0,0,144-11.376h-1.3v-2.88a4.488,4.488,0,0,1,1.8-1.152,6.846,6.846,0,0,1,2.424-.432,6.361,6.361,0,0,1,2.316.432,4.149,4.149,0,0,1,1.848,1.4,4.016,4.016,0,0,1,.732,2.484,4.437,4.437,0,0,1-.576,2.172,13.815,13.815,0,0,1-1.908,2.5q-1.332,1.452-4.812,4.98Zm8.328-8.016a5.026,5.026,0,0,1,2.34.564,4.332,4.332,0,0,1,1.752,1.668,5,5,0,0,1,.66,2.616,5.493,5.493,0,0,1-.684,2.748,4.9,4.9,0,0,1-1.86,1.884,5.132,5.132,0,0,1-2.592.672,4.608,4.608,0,0,1-2.856-.924,5.829,5.829,0,0,1-1.884-2.628,11,11,0,0,1-.66-3.984A11.676,11.676,0,0,1,155.4-11.8a7.249,7.249,0,0,1,2.172-3.012,4.688,4.688,0,0,1,2.94-1.056,4.429,4.429,0,0,1,2.244.6,5.4,5.4,0,0,1,1.788,1.7l-.72.6a5.07,5.07,0,0,0-1.452-1.44,3.225,3.225,0,0,0-1.764-.528,3.069,3.069,0,0,0-2.8,1.884,11.662,11.662,0,0,0-1.116,4.98,4.85,4.85,0,0,1,1.5-1.3A4.3,4.3,0,0,1,160.368-9.888ZM160.392-.5a2.175,2.175,0,0,0,2-1.116,5.682,5.682,0,0,0,.66-2.916,5.208,5.208,0,0,0-.912-3.348A2.806,2.806,0,0,0,159.888-9a2.779,2.779,0,0,0-2.028.816,4.106,4.106,0,0,0-1.116,1.944A8.647,8.647,0,0,0,157.9-1.98,2.918,2.918,0,0,0,160.392-.5ZM177.6,1.488a8.688,8.688,0,0,1-3.132-3.54A12.375,12.375,0,0,1,173.4-7.488a12.468,12.468,0,0,1,1.092-5.412,8.673,8.673,0,0,1,3.108-3.612l.36.336a7.409,7.409,0,0,0-2.052,3.408,16.319,16.319,0,0,0-.8,5.256,16.319,16.319,0,0,0,.8,5.256,7.409,7.409,0,0,0,2.052,3.408Zm6.384-1.2a7.414,7.414,0,0,1-2.748-.48,4.348,4.348,0,0,1-1.788-1.176V-4.2h1.3a4.771,4.771,0,0,0,1.08,2.868,3.009,3.009,0,0,0,2.208.828,3.158,3.158,0,0,0,2.292-.78,2.791,2.791,0,0,0,.8-2.1,2.683,2.683,0,0,0-1.32-2.4l-4.272-2.76a5.128,5.128,0,0,1-1.524-1.416,3.414,3.414,0,0,1-.54-1.968,3.541,3.541,0,0,1,1.26-2.844A5.2,5.2,0,0,1,184.2-15.84a6.989,6.989,0,0,1,2.46.408,4.609,4.609,0,0,1,1.788,1.152v2.9h-1.3a5.126,5.126,0,0,0-.912-2.892,2.6,2.6,0,0,0-2.04-.8,2.8,2.8,0,0,0-2.2.768,2.683,2.683,0,0,0-.684,1.848,2.284,2.284,0,0,0,1.1,2.064l4.2,2.688a6.063,6.063,0,0,1,1.884,1.716,3.62,3.62,0,0,1,.564,2,4.1,4.1,0,0,1-.6,2.2,4.063,4.063,0,0,1-1.74,1.524A6.258,6.258,0,0,1,183.984.288ZM202.032-.72v.7l-3.288.168-.048-1.2a3.8,3.8,0,0,1-3.048,1.32,3.8,3.8,0,0,1-2.664-.9A3.647,3.647,0,0,1,192-3.456v-6.672h-1.512v-.72h3.336v7.392a3.238,3.238,0,0,0,.612,2.208,2,2,0,0,0,1.548.672,3.064,3.064,0,0,0,1.872-.624,2.462,2.462,0,0,0,.84-2.112v-6.816H197.16v-.72H200.5V-.72Zm12.888,0V0h-4.872V-.72h1.56V-7.512a3.2,3.2,0,0,0-.564-2.016,1.91,1.91,0,0,0-1.6-.72,2.575,2.575,0,0,0-1.956.828,2.909,2.909,0,0,0-.78,2.076V-.72h1.512V0h-4.9V-.72h1.584v-9.408h-1.536v-.7l3.288-.192.048,1.248a3.382,3.382,0,0,1,1.3-.972,4.37,4.37,0,0,1,1.776-.348,3.567,3.567,0,0,1,2.676.972,3.772,3.772,0,0,1,.948,2.748V-.72Zm1.248-15.792a8.687,8.687,0,0,1,3.132,3.54,12.375,12.375,0,0,1,1.068,5.436,12.468,12.468,0,0,1-1.092,5.412,8.673,8.673,0,0,1-3.108,3.612l-.36-.336a7.409,7.409,0,0,0,2.052-3.408,16.319,16.319,0,0,0,.8-5.256,16.319,16.319,0,0,0-.8-5.256,7.409,7.409,0,0,0-2.052-3.408Z" transform="translate(370 1144.223)" fill="#fff"/>
      <path id="パス_57282" data-name="パス 57282" d="M-476.232-2.3h4.56V-28.8h-4.32l-2.4,6.432h-3.12V-31.1h25.488v8.736h-3.12l-2.448-6.432h-4.272V-2.3h4.56V0h-14.928Zm49.968-26.5V-2.3h3.744V0h-13.3V-2.3h3.744V-15.216h-12.384V-2.3h3.744V0h-13.3V-2.3h3.744V-28.8h-3.744v-2.3h13.344v2.3h-3.792v11.184h12.384V-28.8h-3.744v-2.3h13.3v2.3Zm30.72,20.064V0h-24.768V-2.3h3.744V-28.8h-3.744v-2.3h24.384v8.736h-3.36l-2.448-6.432h-9.024v11.184h4.992V-21.36h2.88v9.888h-2.88v-3.744h-4.992V-2.3h9.456l2.4-6.432ZM-380.9-2.3h3.744V-28.8H-380.9v-2.3h9.264l10.032,21.936,9.36-21.936h9.264v2.3h-3.744V-2.3h3.744V0h-13.152V-2.3h3.6V-23.76L-361.7-2.3h-2.976l-9.84-21.408V-2.3h3.552V0H-380.9Zm50.592-26.5V-2.3h4.656V0h-15.12V-2.3h4.656V-28.8h-4.656v-2.3h15.12v2.3Zm6.864,26.5h3.744V-28.8h-3.744v-2.3h8.592L-301.176-9.7V-28.8h-3.7v-2.3h10.08v2.3h-3.744V0h-3.552l-14.976-23.664V-2.3h3.6V0h-9.984ZM-282.6-28.8V-2.3h4.656V0h-15.12V-2.3h4.656V-28.8h-4.656v-2.3h15.12v2.3Zm33.312-2.3a11.09,11.09,0,0,1,7.32,2.256,7.516,7.516,0,0,1,2.712,6.1,8.043,8.043,0,0,1-1.272,4.464,8.4,8.4,0,0,1-3.552,3.048,12.027,12.027,0,0,1-5.208,1.08h-4.9V-2.3h3.744V0h-13.3V-2.3h3.744V-28.8h-3.744v-2.3Zm-.528,14.64a3.755,3.755,0,0,0,3.12-1.848,7.535,7.535,0,0,0,1.3-4.44,7.264,7.264,0,0,0-1.224-4.344,3.762,3.762,0,0,0-3.192-1.7h-4.368v12.336Zm38.88,14.16V0h-13.3V-2.3h3.744l-2.928-8.688h-9.072L-235.512-2.3h3.552V0h-10.032V-2.3h3.648l10.272-28.8h3.408l10.272,28.8Zm-13.3-11.088L-227.784-23.9h-.24l-3.648,10.512ZM-197.256.528a11.8,11.8,0,0,1-8.328-2.856q-3.1-2.856-3.1-8.616V-28.8h-3.744v-2.3h13.3v2.3h-3.744V-9.312a7.7,7.7,0,0,0,1.7,5.4,6.172,6.172,0,0,0,4.776,1.848,7.1,7.1,0,0,0,3.456-.864,6.4,6.4,0,0,0,2.52-2.5,7.586,7.586,0,0,0,.936-3.84V-28.8h-3.744v-2.3H-183.1v2.3h-3.744V-9.456a9.836,9.836,0,0,1-2.736,7.2Q-192.312.528-197.256.528ZM-181.224-2.3h3.744V-28.8h-3.744v-2.3h13.3v2.3h-3.744V-2.3h9.456l2.4-6.432h3.36V0h-24.768Zm49.152,2.88a15.009,15.009,0,0,1-5.9-1.08,9.428,9.428,0,0,1-3.648-2.424V-8.736h4.032a10.316,10.316,0,0,0,1.92,5.448,4.676,4.676,0,0,0,3.7,1.656,4.808,4.808,0,0,0,3.624-1.416,5.064,5.064,0,0,0,1.368-3.672,5.272,5.272,0,0,0-2.5-4.608l-8.112-5.376a10.094,10.094,0,0,1-3-3.048,7.655,7.655,0,0,1-1.176-4.2,6.872,6.872,0,0,1,2.616-5.592,11.027,11.027,0,0,1,7.176-2.136,15.4,15.4,0,0,1,5.568.96,9.82,9.82,0,0,1,3.84,2.448v5.9h-4.08q-.384-3.984-1.728-5.592a4.4,4.4,0,0,0-3.552-1.608,4.317,4.317,0,0,0-3.336,1.272,4.652,4.652,0,0,0-1.176,3.288,4.537,4.537,0,0,0,2.16,3.984l8.5,5.568a9.959,9.959,0,0,1,3.264,3.432,8.7,8.7,0,0,1,1.152,4.344,7.23,7.23,0,0,1-1.32,4.272A8.692,8.692,0,0,1-126.432-.48,14.02,14.02,0,0,1-132.072.576Zm13.344-2.88h3.744V-28.8h-3.744v-2.3h9.264L-99.432-9.168l9.36-21.936h9.264v2.3h-3.744V-2.3h3.744V0H-93.96V-2.3h3.6V-23.76L-99.528-2.3H-102.5l-9.84-21.408V-2.3h3.552V0h-9.936Zm50.592-26.5V-2.3h4.656V0H-78.6V-2.3h4.656V-28.8H-78.6v-2.3h15.12v2.3Zm12,26.5h4.56V-28.8H-55.9l-2.4,6.432h-3.12V-31.1h25.488v8.736h-3.12L-41.5-28.8h-4.272V-2.3h4.56V0H-56.136ZM-6.168-28.8V-2.3h3.744V0h-13.3V-2.3h3.744V-15.216H-24.36V-2.3h3.744V0h-13.3V-2.3h3.744V-28.8h-3.744v-2.3h13.344v2.3H-24.36v11.184h12.384V-28.8H-15.72v-2.3h13.3v2.3ZM36.552-8.736V0H11.784V-2.3h3.744V-28.8H11.784v-2.3H36.168v8.736h-3.36L30.36-28.8H21.336v11.184h4.992V-21.36h2.88v9.888h-2.88v-3.744H21.336V-2.3h9.456l2.4-6.432ZM54.024-31.1a16.014,16.014,0,0,1,8.328,2.016,12.539,12.539,0,0,1,5.016,5.4A17.291,17.291,0,0,1,69-16.08,18.361,18.361,0,0,1,67.32-8.4a14.551,14.551,0,0,1-5.088,6.048A14.093,14.093,0,0,1,54.024,0H39.192V-2.3H43.08V-28.8H39.192v-2.3ZM53.688-2.3a7.114,7.114,0,0,0,5.064-1.968A12.2,12.2,0,0,0,61.9-9.408a21.113,21.113,0,0,0,1.056-6.72,18.134,18.134,0,0,0-1.1-6.528,10.113,10.113,0,0,0-3.216-4.512A7.854,7.854,0,0,0,53.688-28.8h-4.8V-2.3ZM81.912-28.8V-2.3h4.656V0H71.448V-2.3H76.1V-28.8H71.448v-2.3h15.12v2.3Zm12,26.5h4.56V-28.8h-4.32l-2.4,6.432h-3.12V-31.1H114.12v8.736H111L108.552-28.8H104.28V-2.3h4.56V0H93.912ZM126.6-28.8V-2.3h4.656V0h-15.12V-2.3h4.656V-28.8h-4.656v-2.3h15.12v2.3ZM147.768.576a13.761,13.761,0,0,1-8.088-2.208A12.685,12.685,0,0,1,135.12-7.3,19.181,19.181,0,0,1,133.7-14.64a22.708,22.708,0,0,1,1.512-8.3,14.292,14.292,0,0,1,4.68-6.312,12.574,12.574,0,0,1,7.872-2.424,13.81,13.81,0,0,1,8.04,2.208,12.715,12.715,0,0,1,4.632,5.688,18.957,18.957,0,0,1,1.44,7.32,22.708,22.708,0,0,1-1.512,8.3,14.292,14.292,0,0,1-4.68,6.312A12.652,12.652,0,0,1,147.768.576Zm.624-2.112a6.088,6.088,0,0,0,5.688-3.312,17.315,17.315,0,0,0,1.848-8.5,27.377,27.377,0,0,0-2.16-11.616q-2.16-4.608-6.528-4.608a6.126,6.126,0,0,0-5.712,3.36,17.412,17.412,0,0,0-1.872,8.544A26.787,26.787,0,0,0,141.84-6.1Q144.024-1.536,148.392-1.536ZM164.328-2.3h3.744V-28.8h-3.744v-2.3h8.592L186.6-9.7V-28.8h-3.7v-2.3h10.08v2.3H189.24V0h-3.552L170.712-23.664V-2.3h3.6V0h-9.984ZM221.016.576a13.761,13.761,0,0,1-8.088-2.208,12.685,12.685,0,0,1-4.56-5.664,19.181,19.181,0,0,1-1.416-7.344,22.708,22.708,0,0,1,1.512-8.3,14.292,14.292,0,0,1,4.68-6.312,12.574,12.574,0,0,1,7.872-2.424,13.81,13.81,0,0,1,8.04,2.208,12.715,12.715,0,0,1,4.632,5.688,18.957,18.957,0,0,1,1.44,7.32,22.708,22.708,0,0,1-1.512,8.3,14.292,14.292,0,0,1-4.68,6.312A12.652,12.652,0,0,1,221.016.576Zm.624-2.112a6.088,6.088,0,0,0,5.688-3.312,17.315,17.315,0,0,0,1.848-8.5,27.377,27.377,0,0,0-2.16-11.616q-2.16-4.608-6.528-4.608a6.126,6.126,0,0,0-5.712,3.36,17.412,17.412,0,0,0-1.872,8.544A26.787,26.787,0,0,0,215.088-6.1Q217.272-1.536,221.64-1.536Zm45.5-.768V0h-8.592l-8.736-14.112h-2.688V-2.3h3.744V0h-13.3V-2.3h3.744V-28.8h-3.744v-2.3h14.448q4.944,0,7.488,2.4a7.907,7.907,0,0,1,2.544,6,8.055,8.055,0,0,1-1.632,4.992,8.8,8.8,0,0,1-4.512,3.072L263.832-2.3ZM247.128-16.416H251.5a3.755,3.755,0,0,0,3.12-1.848,7.535,7.535,0,0,0,1.3-4.44,7.248,7.248,0,0,0-1.248-4.392,3.781,3.781,0,0,0-3.168-1.7h-4.368ZM283.32-31.1a16.014,16.014,0,0,1,8.328,2.016,12.538,12.538,0,0,1,5.016,5.4A17.291,17.291,0,0,1,298.3-16.08a18.361,18.361,0,0,1-1.68,7.68,14.551,14.551,0,0,1-5.088,6.048A14.093,14.093,0,0,1,283.32,0H268.488V-2.3h3.888V-28.8h-3.888v-2.3Zm-.336,28.8a7.114,7.114,0,0,0,5.064-1.968,12.2,12.2,0,0,0,3.144-5.136,21.112,21.112,0,0,0,1.056-6.72,18.134,18.134,0,0,0-1.1-6.528,10.113,10.113,0,0,0-3.216-4.512,7.854,7.854,0,0,0-4.944-1.632h-4.8V-2.3Zm42.528-6.432V0H300.744V-2.3h3.744V-28.8h-3.744v-2.3h24.384v8.736h-3.36L319.32-28.8H310.3v11.184h4.992V-21.36h2.88v9.888h-2.88v-3.744H310.3V-2.3h9.456l2.4-6.432ZM357.72-2.3V0h-8.592l-8.736-14.112H337.7V-2.3h3.744V0h-13.3V-2.3H331.9V-28.8h-3.744v-2.3H342.6q4.944,0,7.488,2.4a7.907,7.907,0,0,1,2.544,6A8.055,8.055,0,0,1,351-17.712a8.8,8.8,0,0,1-4.512,3.072L354.408-2.3ZM337.7-16.416h4.368a3.755,3.755,0,0,0,3.12-1.848,7.536,7.536,0,0,0,1.3-4.44A7.248,7.248,0,0,0,345.24-27.1a3.781,3.781,0,0,0-3.168-1.7H337.7ZM395.448-31.1v8.736h-3.36L389.64-28.8h-9.024v11.184h4.992V-21.36h2.88v9.888h-2.88v-3.744h-4.992V-2.3h3.744V0h-13.3V-2.3h3.744V-28.8h-3.744v-2.3Zm27.84,28.8V0h-13.3V-2.3h3.744l-2.928-8.688h-9.072L398.712-2.3h3.552V0H392.232V-2.3h3.648l10.272-28.8h3.408L419.832-2.3Zm-13.3-11.088L406.44-23.9h-.24l-3.648,10.512ZM435.24-28.8V-2.3H439.9V0h-15.12V-2.3h4.656V-28.8h-4.656v-2.3H439.9v2.3ZM471.672-2.3V0H463.08l-8.736-14.112h-2.688V-2.3H455.4V0H442.1V-2.3h3.744V-28.8H442.1v-2.3h14.448q4.944,0,7.488,2.4a7.907,7.907,0,0,1,2.544,6,8.055,8.055,0,0,1-1.632,4.992,8.8,8.8,0,0,1-4.512,3.072L468.36-2.3ZM451.656-16.416h4.368a3.755,3.755,0,0,0,3.12-1.848,7.536,7.536,0,0,0,1.3-4.44,7.248,7.248,0,0,0-1.248-4.392,3.781,3.781,0,0,0-3.168-1.7h-4.368ZM473.88-2.688a3.1,3.1,0,0,1,.936-2.28A3.1,3.1,0,0,1,477.1-5.9a3.1,3.1,0,0,1,2.28.936,3.1,3.1,0,0,1,.936,2.28,3.1,3.1,0,0,1-.936,2.28,3.1,3.1,0,0,1-2.28.936,3.1,3.1,0,0,1-2.28-.936A3.1,3.1,0,0,1,473.88-2.688Z" transform="translate(480.5 1115.063)" fill="#fff"/>
    </g>
    <path id="パス_57281" data-name="パス 57281" d="M.792-.864h1.92V-14.688H.792v-.864H4.9l5.28,12.024,5.088-12.024h4.008v.864h-1.92V-.864h1.92V0h-5.88V-.864h1.92v-12.12L10.176-.888h-1.1L3.744-13.08V-.864H5.592V0H.792Zm26.808,0V0H20.856V-.864h2.352V-14.688H20.952v-.864H27.5v.864H25.248V-.864Zm1.584,0H31.1V-14.688h-1.92v-.864H33.1L40.32-3.888v-10.8H38.4v-.864h4.872v.864h-1.92V0h-1.1L32.136-13.224V-.864h1.92V0H29.184Zm22.176,0V0H44.616V-.864h2.352V-14.688H44.712v-.864h6.552v.864H49.008V-.864ZM68.032-16.24l-.6.62c-1.2.1-2.06.14-4.3.18l-1.26-.42.12,1.32c.7.02,1.22.04,1.56.04,1,0,2.3-.06,3.92-.2-.82,2.54-1.24,3.7-2.02,5.78a9.228,9.228,0,0,0-2.44.4,4.8,4.8,0,0,0-3.66,4.56c0,1.7,1.02,3,2.36,3a3.226,3.226,0,0,0,2.56-1.74,29.275,29.275,0,0,0,2.5-5.18,19.231,19.231,0,0,1,5.92,1.24c-.74,3.66-2.06,5.64-4.84,7.26l.26.5a8.231,8.231,0,0,0,4.34-2.74,9.871,9.871,0,0,0,1.86-4.36c.98.46,1.38.66,2.34,1.2l.58-1.36a19.828,19.828,0,0,0-2.66-1.18c.14-.84.2-1.24.3-2.18.26-.16.36-.3.36-.46s-.16-.3-.46-.36l-1.64-.38.02.86c-.1,1.02-.12,1.12-.24,2a27.881,27.881,0,0,0-5.76-1.04c.9-2.36,1.16-3.08,2.02-5.58.4-.24.56-.44.56-.66a.521.521,0,0,0-.3-.42Zm-3.22,8.96c-1.7,3.98-2.42,5.12-3.26,5.12-.56,0-1.02-.7-1.02-1.58a4.031,4.031,0,0,1,2.16-3.4,5.875,5.875,0,0,1,2.36-.68Zm19.2-6.64c-1.7,0-2.4-.04-3.48-.1l-1.08-.46.1,1.36c1.44.1,2.14.12,3.38.12h.78a44.192,44.192,0,0,1-4.54,9.82l1.52.98a53.133,53.133,0,0,0,4.82-10.86c1.52-.06,3.18-.2,4.84-.42l.06-1.42-1.24.62c-1.42.16-2.24.24-3.34.3a2.378,2.378,0,0,1,.08-.28c.06-.18.24-.72.42-1.3.3-.2.36-.3.36-.44a.323.323,0,0,0-.28-.32l-1.76-.34-.16,1.02c-.1.4-.18.7-.22.84l-.24.82ZM96.772-2.06a12.213,12.213,0,0,0-4.88-2.66V-8.46c.32-.22.4-.3.4-.44,0-.2-.18-.32-.48-.32l-1.58-.02.06,1.48v2.72a10.78,10.78,0,0,0-1.76-.14c-2.6,0-4.16,1.12-4.16,3,0,1.9,1.86,3.28,4.42,3.28a3.04,3.04,0,0,0,2.82-1.2,3.033,3.033,0,0,0,.28-1.5V-3.26a13.214,13.214,0,0,1,3.7,2.7Zm-6.48.38c0,.96-.56,1.42-1.74,1.42-1.84,0-3.2-.86-3.2-2.04a1.371,1.371,0,0,1,.36-.92,3.444,3.444,0,0,1,2.5-.74,7.347,7.347,0,0,1,2.08.28Zm6.72-9.88a9.912,9.912,0,0,0-3.92-.64,10.034,10.034,0,0,0-3.52.52l.04.56a14.914,14.914,0,0,1,6.28,1.2Zm9.84-3.98c.24-.2.32-.34.32-.5a.374.374,0,0,0-.38-.34h-1.98l.34,1.2,1.26,6.08a18.048,18.048,0,0,0-2.48,1.48c-1.96,1.4-2.8,2.66-2.8,4.18a3.571,3.571,0,0,0,2.4,3.4,14.77,14.77,0,0,0,5.58.74,38.1,38.1,0,0,0,5.68-.34V-1.58a30.144,30.144,0,0,1-5.86.54c-4.52,0-6.44-.74-6.44-2.52,0-2.38,3.62-4.54,11.54-6.92a1.108,1.108,0,0,0,.54.18.364.364,0,0,0,.34-.32.691.691,0,0,0-.06-.24l-.7-1.62-.7.52c-1.56.6-3.06,1.16-4.48,1.72-.4.16-.68.26-.98.4Zm21.18-.7-.6.62c-1.2.1-2.06.14-4.3.18l-1.26-.42.12,1.32c.7.02,1.22.04,1.56.04,1,0,2.3-.06,3.92-.2-.82,2.54-1.24,3.7-2.02,5.78a9.228,9.228,0,0,0-2.44.4,4.8,4.8,0,0,0-3.66,4.56c0,1.7,1.02,3,2.36,3a3.226,3.226,0,0,0,2.56-1.74,29.275,29.275,0,0,0,2.5-5.18,19.231,19.231,0,0,1,5.92,1.24c-.74,3.66-2.06,5.64-4.84,7.26l.26.5a8.231,8.231,0,0,0,4.34-2.74,9.871,9.871,0,0,0,1.86-4.36c.98.46,1.38.66,2.34,1.2l.58-1.36a19.827,19.827,0,0,0-2.66-1.18c.14-.84.2-1.24.3-2.18.26-.16.36-.3.36-.46s-.16-.3-.46-.36l-1.64-.38.02.86c-.1,1.02-.12,1.12-.24,2a27.882,27.882,0,0,0-5.76-1.04c.9-2.36,1.16-3.08,2.02-5.58.4-.24.56-.44.56-.66a.521.521,0,0,0-.3-.42Zm-3.22,8.96c-1.7,3.98-2.42,5.12-3.26,5.12-.56,0-1.02-.7-1.02-1.58a4.031,4.031,0,0,1,2.16-3.4,5.875,5.875,0,0,1,2.36-.68Zm18.2,3.14a8.23,8.23,0,0,1,1.88-2.18,8.045,8.045,0,0,1,5.08-1.84c2.26,0,3.66,1.16,3.66,3.02s-1.36,3.36-3.88,4.34a22.627,22.627,0,0,1-4.96,1.18l.08.68c3.54-.24,5.02-.46,6.56-1.04,2.7-1.02,4.2-2.8,4.2-5.02a3.865,3.865,0,0,0-1.18-2.84,5.931,5.931,0,0,0-4.18-1.36,8.929,8.929,0,0,0-6.8,2.9l.46-6.04c.28-.2.38-.32.38-.5s-.14-.32-.38-.34l-1.86-.2.14,1.04-.54,8.2Zm1.22-11.48a16.526,16.526,0,0,1,6.5,2.14l1.44-1.68a9.421,9.421,0,0,0-1.9-.66,19.565,19.565,0,0,0-4.28-.52c-.44,0-.84.02-1.7.06ZM166.692-4.4c-.46,1.82-1.08,3.04-1.56,3.04-.46,0-1.18-.94-1.74-2.22-.74-1.76-1.12-4.58-1.12-8.56v-1.28c.34-.24.44-.36.44-.56s-.2-.34-.5-.36l-1.8-.12.1,1.2c.02,2.58.04,3.96.04,4.14a18.829,18.829,0,0,0,1.2,6.3c.86,2.08,1.94,3.18,3.08,3.18,1.12,0,2.1-1.6,2.74-4.48Zm10.32.16c-.66-3.88-2.64-7.48-5.12-9.34l-.5.38a24.36,24.36,0,0,1,3.7,9.82Z" transform="translate(399 1064.043)" fill="#fff"/>
  </g>
</svg>
