<svg xmlns="http://www.w3.org/2000/svg" width="304.697" height="134.188" viewBox="0 0 304.697 134.188">
  <g id="family-tit" transform="translate(-153 -5.656)">
    <path id="パス_57285" data-name="パス 57285" d="M-81.756,1.548V-27.864h-23.652V1.764h3.2V-.468H-84.96V1.548ZM-102.2-15.3V-26.424H-84.96V-15.3Zm0,1.44H-84.96V-1.908H-102.2Zm51.552,5.148h5.04V-3.2c-.036,1.152-.4,1.512-1.512,1.548H-48.78V-.144h2.88c2.16,0,3.1-.864,3.06-2.88v-7.128h-7.812v-3.96h7.488a16.155,16.155,0,0,1-1.224,3.168l.9.5A10.6,10.6,0,0,0-39.6-15.552H-60.12V-15.8a3.8,3.8,0,0,0-.072-.936h-1.152a8.566,8.566,0,0,1-2.7,5.4l1.908,2.2a6.992,6.992,0,0,0,1.944-4.968h6.84v3.96H-60.66V-.108h2.7v-8.6h4.608V2.88h2.7ZM-45.5-22.968V-19.8h-13.68l-1.44-.288v2.016l1.44-.288H-42.7V-28.728H-59.22l-1.4-.288V-27l1.4-.288H-45.5v2.88h-13.68l-1.44-.288v2.016l1.44-.288Zm-26.532,24.8c6.372-5.112,7.992-9.576,7.956-21.708v-8.964c.432-.288.576-.468.576-.72,0-.324-.252-.468-.792-.468H-66.78v10.152c.072,10.656-1.3,15.552-5.94,20.916Zm1.548-13.32c1.08-2.448,1.4-4.32,1.4-8.136,0-1.368-.036-2.448-.18-4.608H-70.6A31.09,31.09,0,0,1-72.72-13.716ZM-23.04,2.2a22.252,22.252,0,0,0,4.9-1.044A15.426,15.426,0,0,0-10.332-4.5c1.584-2.376,2.2-5.436,2.2-10.692,0-2.772-.072-9.72-.108-12.1.432-.4.612-.648.612-.972,0-.36-.324-.576-.828-.612l-3.492-.288.252,1.944c.216,3.708.288,7.38.288,12.132,0,6.48-1.008,9.324-4.356,12.276a17.3,17.3,0,0,1-7.488,3.852Zm-6.228-28.764c-.432,5.184-.54,7.6-.54,10.548,0,5.76,1.044,8.352,3.312,8.352,2.2,0,4.392-2.808,5.8-7.416L-22-15.66c-1.8,3.888-2.736,5.22-3.6,5.22-.72,0-1.116-1.872-1.116-5.436a91.105,91.105,0,0,1,.576-10.3c.54-.432.72-.684.72-1.008s-.252-.54-.612-.612l-3.276-.432ZM34.416-12.42c.468,0,.792-.216.792-.5,0-.144-.108-.324-.468-.612l-1.98-1.62a38.527,38.527,0,0,1-4,5.508,28.423,28.423,0,0,1-1.4-6.948l.108-.072c1.224-.432,1.944-.756,4.5-1.908a4.035,4.035,0,0,0,.864.108c.432,0,.864-.288.864-.576a1.215,1.215,0,0,0-.4-.72l-2.016-1.728A56.848,56.848,0,0,1,15.7-15.012L16.02-13.9c2.2-.36,3.132-.54,4.212-.756V2.412h2.844V-15.3c1.008-.252,2.376-.648,3.06-.864l.072.972c.468,8.5,2.448,13.428,7.092,17.82a14.039,14.039,0,0,1,1.98-2.7A20.99,20.99,0,0,1,29.124-8.64a22.678,22.678,0,0,0,4.968-3.78ZM33.228-23.364l1.44.288v-2.016l-1.44.288H20.952c.468-.972.756-1.656,1.4-3.24.756-.18,1.08-.432,1.08-.9,0-.288-.324-.576-.72-.684l-2.988-.612c-1.44,5.364-2.772,8.6-4.968,11.988l.756.612a27.627,27.627,0,0,0,4.644-5.724ZM6.444-22.32v1.26C6.3-8.856,5.148-2.736,2.16,1.908l.684.612c3.744-3.2,5.688-8.856,6.192-17.712h3.24a129.03,129.03,0,0,1-.972,13.5C11.088.54,10.836.936,9.5.972H7.092V2.484h3.78c1.512,0,2.268-.432,2.736-1.44.5-1.368.972-5.652,1.224-12.276l.216-3.888c0-.144,0-.684.036-1.512H9.108c.072-1.728.108-3.24.108-4.428v-1.26h5.22l1.44.288v-2.016l-1.44.288H10.512v-5.076c.468-.324.576-.468.576-.72,0-.324-.252-.468-.756-.468H7.56v6.264H3.78l-1.44-.288v2.016l1.44-.288Zm60.7,6.12h4.14l1.44.288v-2.016l-1.44.288h-17.6l-1.44-.288v2.016l1.44-.288h10.3V-.756C63.972.4,63.468.9,62.352.9H58.428V2.412h5.436c2.3,0,3.312-.936,3.276-3.132ZM44.928,2.664h2.988V-15.8c.792-1.008,1.26-1.584,2.448-3.168.936-.072,1.26-.252,1.26-.756,0-.216-.144-.4-.432-.576l-2.52-1.656A56.438,56.438,0,0,1,39.6-9.828l.612.9a42.886,42.886,0,0,0,4.716-3.744Zm10.98-29.2H69.444l1.44.288v-2.088l-1.44.288H55.908l-1.44-.288v2.088ZM40.644-21.024a32.324,32.324,0,0,0,9-6.12,2.549,2.549,0,0,0,.972-.108.567.567,0,0,0,.432-.5c0-.18-.108-.36-.4-.576l-2.52-1.908a38.586,38.586,0,0,1-8.1,8.316Zm69.372,3.96a7.209,7.209,0,0,0-4.248-3.744l-.576.54a13.936,13.936,0,0,1,2.412,4.5Zm-9.072-2.7a15.581,15.581,0,0,1,2.2,4.968l2.412-1.152a7.079,7.079,0,0,0-3.96-4.284Zm-23-6.768.252,2.484,21.852-.864a.687.687,0,0,1-.288.108,19.142,19.142,0,0,0-5.688,2.988,12.229,12.229,0,0,0-5.148,10.08,11.428,11.428,0,0,0,4.392,9.36C95.58-.576,97.488.18,101.592.936l1.368-3.744c-3.708-.4-5.4-.972-7.416-2.448a8.495,8.495,0,0,1-3.528-7.308c0-4.932,2.844-8.748,8.208-10.98a21.093,21.093,0,0,1,7.7-1.584l.18-2.52-2.376.864-25.7.9Zm-209.808,69.4c-1.368.252-2.052.324-4.1.576l.72,2.628c.144.54.324.756.612.756.324,0,.5-.216.756-.828a51.462,51.462,0,0,0,10.152-4.032l-.36-.936c-2.34.684-3.168.864-5.076,1.3V32.536h2.124l1.44.288V30.808l-1.44.288H-134.1l-1.44-.288v2.016l1.44-.288h2.232Zm-2.376-19.476-1.44-.288V25.12l1.44-.288h9.576c.468,8.064,1.116,12.564,2.376,16.524,1.3,3.96,3.636,7.128,5.292,7.128.828,0,1.512-.936,1.8-2.448a44.433,44.433,0,0,0,.684-6.8l-1.4-.288c-.324,4.86-.54,6.192-1.008,6.192s-1.692-2.124-2.448-4.32c-1.332-3.708-2.016-8.208-2.484-15.984h5.508l1.44.288V23.1l-1.44.288h-5.58c-.108-1.44-.144-2.988-.144-4.86V17.164c.468-.324.576-.468.576-.72,0-.324-.252-.468-.756-.468h-2.628v2.556c0,.828.036,2.736.144,4.86Zm-9.36,22.86h3.888v1.332h2.448V37.252h-8.784v10.8h2.448Zm0-1.332V38.584h3.888V44.92Zm22.932-27.18a37.413,37.413,0,0,1,2.52,4.5L-115.7,20.3a17.787,17.787,0,0,0-4.176-3.168Zm-18.072-.36h-5.868l-1.44-.288V19.18l1.44-.288h5.868l1.44.288V17.092Zm.9,4.968h-8.316l-1.44-.288v2.088l1.44-.288h8.316l1.4.288V22.06Zm-.9,4.968h-5.868l-1.44-.288v2.088l1.44-.288h5.868l1.44.288V27.028Zm0,4.968h-5.868l-1.44-.288v2.088l1.44-.288h5.868l1.44.288V32Zm42.48,5a38.648,38.648,0,0,1-13.9,9.216l.252,1.008c6.084-1.584,11.448-4.248,14.652-7.308v8.64h2.772V38.224A25.16,25.16,0,0,0-78.372,47.3a14.341,14.341,0,0,1,1.332-2.952c-5.724-1.044-12.2-4.14-14.868-7.056H-80.1l1.44.288V35.56l-1.44.288h-3.816V30.772h5.256l1.44.288V29.044l-1.44.288h-5.256V24.544H-80.1l1.44.288V22.816l-1.44.288H-92.484V19.72l1.548-.108a51.275,51.275,0,0,0,5.508-.54c.972-.108,1.944-.216,2.952-.36A3.149,3.149,0,0,0-81.4,19a.733.733,0,0,0,.792-.648c0-.18-.108-.324-.324-.5l-2.484-1.908c-4.032,1.152-14.328,2.448-24.3,3.1l.036,1.188c2.412.036,2.7.036,3.42.036,2.664,0,4.716-.072,6.7-.18l1.152-.072c.108-.036.54-.036,1.152-.072V23.1h-11.88l-1.4-.288v2.016l1.4-.288h3.492v4.788h-4.9l-1.44-.288V31.06l1.44-.288h4.9v5.076h-3.492l-1.4-.288v2.016l1.4-.288Zm9.54-1.44h-5.76V30.772h5.76Zm0-6.516h-5.76V24.544h5.76Zm-14.112-4.788h5.58v4.788h-5.58Zm0,6.228h5.58v5.076h-5.58ZM-55.224,24l-.468-5.76c.432-.36.612-.576.612-.864,0-.4-.324-.648-.828-.648h-3.528L-59,18.748l.432,5.472-9.9.648-1.44-.216.144,2.232,1.4-.36,9.936-.648.756,9.144-12.96.828-1.44-.18.144,2.232,1.4-.4,13-.828.972,11.52,3.348-.216-.972-11.52L-41.9,35.7l1.62.18-.18-2.268-1.548.4-12.312.792-.756-9.144,10.512-.648,1.62.216-.144-2.3-1.584.432Zm34.848,8.28,9.432-1.26a16.3,16.3,0,0,1-5.976,7.7l.54.828c4.932-1.944,8.748-6.228,9.54-10.692l-13.716,1.8-.576-4.788c.4-.324.54-.54.54-.756a.551.551,0,0,0-.612-.54H-24.48l.288,1.836.54,4.644-5.688.756-1.584-.072.288,2.232,1.512-.5,5.688-.756,1.836,15.84,3.1-.4Zm54.144-8.82a35.734,35.734,0,0,1-9.18,11.664C19.8,39.016,15.7,40.852,8.064,42.436l-1.908.036,1.3,3.2c.216.5.54.792.9.792.4,0,.684-.252.936-.828,8.136-1.836,13.248-4.284,17.676-8.46a30.344,30.344,0,0,0,7.812-13.248ZM5.832,19.54a33.843,33.843,0,0,1,8.964,7.7l2.952-2.988A22.216,22.216,0,0,0,6.264,18.6Zm66.852,23C67.752,37.576,59.22,28,55.08,22.708c-1.656-2.124-2.3-2.736-2.952-2.736-.612,0-1.44.648-2.412,1.908-4.32,5.328-5.9,7.2-8.316,9.792l-1.8,1.512,2.016,2.736c.252.36.468.5.72.5.432,0,.648-.324.684-1.008,3.312-4.752,7.452-10.584,8.388-11.808.4-.54.684-.828.828-.828s.432.252.72.684A229.525,229.525,0,0,0,70.128,45.6ZM69.048,15.868A3.636,3.636,0,1,0,72.612,19.5,3.658,3.658,0,0,0,69.048,15.868Zm-.108,1.44a2.213,2.213,0,0,1,2.232,2.2,2.182,2.182,0,0,1-2.2,2.2,2.2,2.2,0,0,1-.036-4.392Zm39.924,14.148L78.8,30.34v3.78l30.06-1.08Zm37.224-7.992a35.734,35.734,0,0,1-9.18,11.664c-4.788,3.888-8.892,5.724-16.524,7.308l-1.908.036,1.3,3.2c.216.5.54.792.9.792.4,0,.684-.252.936-.828,8.136-1.836,13.248-4.284,17.676-8.46A30.344,30.344,0,0,0,147.1,23.932ZM118.152,19.54a33.843,33.843,0,0,1,8.964,7.7l2.952-2.988A22.216,22.216,0,0,0,118.584,18.6Z" transform="translate(305.6 91)" fill="#111"/>
    <path id="パス_57284" data-name="パス 57284" d="M-151.739-1.908h4.24V-32.436h-4.24v-1.908h9.063l11.66,26.553,11.236-26.553h8.851v1.908h-4.24V-1.908h4.24V0h-12.985V-1.908h4.24V-28.673L-131.016-1.961h-2.438L-145.22-28.885V-1.908h4.081V0h-10.6Zm59.2,0V0h-14.893V-1.908h5.194V-32.436h-4.982v-1.908H-92.75v1.908h-4.982V-1.908Zm3.5,0h4.24V-32.436h-4.24v-1.908H-80.4L-64.448-8.586v-23.85h-4.24v-1.908h10.759v1.908h-4.24V0h-2.438L-82.521-29.2V-1.908h4.24V0H-89.04Zm48.972,0V0H-54.961V-1.908h5.194V-32.436h-4.982v-1.908H-40.28v1.908h-4.982V-1.908ZM2.226-34.344v9.222H.212L-2.6-32.436H-14.84v13.3h8.321v-4.081h2.438v10.176H-6.519v-4.081H-14.84V-1.908h4.558V0h-13.3V-1.908h4.24V-32.436h-4.24v-1.908ZM32.542-1.908V0h-12.3V-1.908h3.869L20.3-12.667H8.9L5.088-1.908H8.957V0H-.954V-1.908H2.809L14.522-34.344h2.491L28.779-1.908ZM19.557-14.681,14.681-28.408h-.212L9.593-14.681ZM34.874-1.908h4.24V-32.436h-4.24v-1.908h9.063L55.6-7.791,66.833-34.344h8.851v1.908h-4.24V-1.908h4.24V0H62.7V-1.908h4.24V-28.673L55.6-1.961H53.159L41.393-28.885V-1.908h4.081V0h-10.6Zm59.2,0V0H79.182V-1.908h5.194V-32.436H79.394v-1.908H93.863v1.908H88.881V-1.908Zm3.5,0h4.24V-32.436h-4.24v-1.908h13.144v1.908h-4.4V-1.908h12.4l2.809-7.42h2.014V0H97.573Zm42.4-13.674V-1.908h4.664V0H130.8V-1.908h4.664V-14.2L126.4-32.436h-4.24v-1.908h13.462v1.908h-4.24L138.7-17.543l7.632-14.893h-4.24v-1.908h10.865v1.908h-4.24Z" transform="translate(304.739 40)" fill="#111"/>
  </g>
</svg>
