<svg xmlns="http://www.w3.org/2000/svg" width="533.96" height="165.471" viewBox="0 0 533.96 165.471">
  <g id="グループ_1194" data-name="グループ 1194" transform="translate(-532.684 -2710)">
    <g id="text">
      <path id="パス_57285" data-name="パス 57285" d="M-251.02-36.288q5.488,0,8.232,2.632a9.042,9.042,0,0,1,2.744,6.832,9.762,9.762,0,0,1-1.316,5.04,9.364,9.364,0,0,1-3.808,3.556,12.36,12.36,0,0,1-5.852,1.316h-7.056v14.9h4.48V0h-13.72V-2.016h4.48V-34.272h-4.48v-2.016Zm-.672,17.248a5.727,5.727,0,0,0,4.564-2.156,8.257,8.257,0,0,0,1.82-5.516,8.242,8.242,0,0,0-1.736-5.516,5.788,5.788,0,0,0-4.648-2.044h-6.384V-19.04Zm44.52,17.024V0h-12.992V-2.016h4.088l-4.032-11.368h-12.04L-236.18-2.016h4.088V0h-10.472V-2.016h3.976l12.376-34.272h2.632l12.432,34.272Zm-13.72-13.5-5.152-14.5h-.224l-5.152,14.5ZM-190.708.672a12.4,12.4,0,0,1-8.9-3.136q-3.3-3.136-3.3-9.016V-34.272h-4.48v-2.016h13.72v2.016h-4.48V-10.92q0,4.7,2.324,6.888A8.59,8.59,0,0,0-189.7-1.848a8.931,8.931,0,0,0,6.244-2.212q2.436-2.212,2.436-6.8V-34.272h-4.424v-2.016h11.256v2.016h-4.424V-10.64a10.716,10.716,0,0,1-3.3,8.232A12.377,12.377,0,0,1-190.708.672Zm19.544-2.688h4.48V-34.272h-4.48v-2.016h13.888v2.016h-4.648V-2.016h13.1l2.968-7.84h2.128V0h-27.44ZM-115.948.672a17.3,17.3,0,0,1-6.412-1.12,10.146,10.146,0,0,1-4.172-2.744V-9.8h3.024q.56,4.76,2.52,6.692a7.022,7.022,0,0,0,5.152,1.932A7.368,7.368,0,0,0-110.488-3a6.512,6.512,0,0,0,1.876-4.9,6.26,6.26,0,0,0-3.08-5.6l-9.968-6.44a11.966,11.966,0,0,1-3.556-3.3,7.965,7.965,0,0,1-1.26-4.592,8.262,8.262,0,0,1,2.94-6.636q2.94-2.492,8.092-2.492a16.309,16.309,0,0,1,5.74.952,10.753,10.753,0,0,1,4.172,2.688v6.776h-3.024q-.448-4.872-2.128-6.748a6.058,6.058,0,0,0-4.76-1.876q-3.528,0-5.124,1.792a6.26,6.26,0,0,0-1.6,4.312,5.329,5.329,0,0,0,2.576,4.816l9.8,6.272a14.147,14.147,0,0,1,4.4,4A8.448,8.448,0,0,1-104.076-9.3a9.556,9.556,0,0,1-1.4,5.124,9.481,9.481,0,0,1-4.06,3.556A14.6,14.6,0,0,1-115.948.672Zm15.96-2.688h4.48V-34.272h-4.48v-2.016h9.576l12.32,28.056L-66.22-36.288h9.352v2.016h-4.48V-2.016h4.48V0h-13.72V-2.016h4.48V-30.3L-78.092-2.072h-2.576L-93.1-30.52v28.5h4.312V0h-11.2Zm62.552,0V0H-53.172V-2.016h5.488V-34.272h-5.264v-2.016H-37.66v2.016h-5.264V-2.016Zm9.968,0h4.928V-34.272h-6.944L-32.4-26.544h-2.072v-9.744h28.5v9.744H-8.036l-2.8-7.728H-17.78V-2.016h4.928V0H-27.468ZM27.524-34.272V-2.016H32V0H18.4V-2.016h4.368V-18.088H6.244V-2.016h4.368V0H-3V-2.016h4.48V-34.272H-3v-2.016H10.612v2.016H6.244v14.056h16.52V-34.272H18.4v-2.016H32v2.016ZM77.14-9.856V0H49.42V-2.016H53.9V-34.272H49.42v-2.016H76.692v9.744H74.564L71.6-34.272H58.66v14.056h8.792v-4.312h2.576v10.752H67.452v-4.312H58.66V-2.016H72.044l2.968-7.84ZM98.028-36.288q8.232,0,12.04,4.844t3.808,12.628a25.071,25.071,0,0,1-1.652,9.1,15.757,15.757,0,0,1-5.208,7A14.381,14.381,0,0,1,98.028,0H81V-2.016h4.48V-34.272H81v-2.016Zm0,34.272a8.661,8.661,0,0,0,8.232-4.872,25.4,25.4,0,0,0,2.576-11.984q0-7.112-2.66-11.256t-8.148-4.144H90.244V-2.016Zm35.448,0V0H117.74V-2.016h5.488V-34.272h-5.264v-2.016h15.288v2.016h-5.264V-2.016Zm9.968,0h4.928V-34.272h-6.944l-2.912,7.728h-2.072v-9.744h28.5v9.744h-2.072l-2.8-7.728h-6.944V-2.016h4.928V0H143.444Zm40.208,0V0H167.916V-2.016H173.4V-34.272H168.14v-2.016h15.288v2.016h-5.264V-2.016ZM202.972.672A14.235,14.235,0,0,1,194.208-1.9,14.717,14.717,0,0,1,189.2-8.6a24.566,24.566,0,0,1-1.568-8.82,27.1,27.1,0,0,1,1.6-9.212,16.459,16.459,0,0,1,5.236-7.392,14.323,14.323,0,0,1,9.3-2.94,14.483,14.483,0,0,1,8.82,2.576,15.136,15.136,0,0,1,5.152,6.692,23.307,23.307,0,0,1,1.652,8.764,25.956,25.956,0,0,1-1.68,9.184A17.149,17.149,0,0,1,212.352-2.3,14.436,14.436,0,0,1,202.972.672Zm1.344-1.848a8.239,8.239,0,0,0,7.5-4.116q2.52-4.116,2.52-11a33.279,33.279,0,0,0-1.2-9.044,16.319,16.319,0,0,0-3.836-7.028,8.974,8.974,0,0,0-6.776-2.744,8.043,8.043,0,0,0-7.476,4.06,20.2,20.2,0,0,0-2.38,10.332,31.186,31.186,0,0,0,2.8,13.832Q198.268-1.176,204.316-1.176Zm18.928-.84h4.48V-34.272h-4.48v-2.016h9.128L249.228-9.072v-25.2h-4.48v-2.016h11.368v2.016h-4.48V0H249.06L230.132-30.856v28.84h4.48V0H223.244ZM263.284.616a3.24,3.24,0,0,1-2.38-.98,3.24,3.24,0,0,1-.98-2.38,3.24,3.24,0,0,1,.98-2.38,3.24,3.24,0,0,1,2.38-.98,3.24,3.24,0,0,1,2.38.98,3.24,3.24,0,0,1,.98,2.38,3.24,3.24,0,0,1-.98,2.38A3.24,3.24,0,0,1,263.284.616Z" transform="translate(800 2874.8)" fill="#111"/>
      <path id="パス_57284" data-name="パス 57284" d="M-101.705-36.914H-73.76l-1.723,9.871h-1.969l-1.613-7.848h-6.727l-5.66,32.867h4.758L-87.076,0h-14.219l.328-2.023H-96.1l5.66-32.867h-6.781l-4.184,7.848h-2.023Zm35.82,13.781a10.914,10.914,0,0,1,1.271-1.025,8.913,8.913,0,0,1,1.627-.889A11.762,11.762,0,0,1-61-25.676a10.515,10.515,0,0,1,2.338-.246q4.1,0,5.947,2.119t1.053,6.6L-54.373-1.668H-50.9L-51.174,0H-62.357l.273-1.668H-58.5l2.734-15.7a11.341,11.341,0,0,0,.205-3.062,4.737,4.737,0,0,0-.615-2.051,2.885,2.885,0,0,0-1.285-1.148,4.439,4.439,0,0,0-1.832-.355,8.93,8.93,0,0,0-2.174.3,7.407,7.407,0,0,0-2.283,1.025,7.354,7.354,0,0,0-1.941,1.928,7.187,7.187,0,0,0-1.148,2.98L-69.658-1.668h3.527L-66.4,0H-77.479l.273-1.668h3.418l6.1-35.41H-71.6l.273-1.559,8.176-.574Zm25.566,9.352q-.055.383-.109.848-.055.383-.082.889t-.027,1.08a15.354,15.354,0,0,0,.383,3.445A10.432,10.432,0,0,0-39.02-4.566a6.284,6.284,0,0,0,1.9,2.064,4.657,4.657,0,0,0,2.68.779A6.691,6.691,0,0,0-31.4-2.406a9.3,9.3,0,0,0,2.393-1.7,10.4,10.4,0,0,0,1.7-2.16,12.409,12.409,0,0,0,1-2.078l1.8.055A13.631,13.631,0,0,1-25.156-6.6,13.241,13.241,0,0,1-26.25-4.662a13.47,13.47,0,0,1-1.6,1.941,11.849,11.849,0,0,1-2.119,1.7,10.948,10.948,0,0,1-2.666,1.2,11.1,11.1,0,0,1-3.254.451,9.93,9.93,0,0,1-4.184-.807,7.945,7.945,0,0,1-2.871-2.174A8.963,8.963,0,0,1-44.6-5.5a12.968,12.968,0,0,1-.533-3.746,17.594,17.594,0,0,1,.383-3.514A20.3,20.3,0,0,1-43.6-16.475,19.978,19.978,0,0,1-41.7-20a15.011,15.011,0,0,1,2.639-2.98,12.178,12.178,0,0,1,3.377-2.064,10.7,10.7,0,0,1,4.088-.766,10.274,10.274,0,0,1,3.746.629,7.606,7.606,0,0,1,2.693,1.723,6.99,6.99,0,0,1,1.613,2.57,9.187,9.187,0,0,1,.533,3.145,9.715,9.715,0,0,1-.082,1.258q-.082.629-.178,1.162t-.205.943q-.109.41-.164.6Zm8.5-10.363A6.609,6.609,0,0,0-36.873-22a14.45,14.45,0,0,0-3.062,6.385h11.813q.109-.438.219-.93.082-.437.164-1.025a9.441,9.441,0,0,0,.082-1.3,9.775,9.775,0,0,0-.219-2.146,4.62,4.62,0,0,0-.711-1.668,3.3,3.3,0,0,0-1.285-1.08A4.441,4.441,0,0,0-31.814-24.145ZM3.021-31.09-2.01-2.023H2.256L1.846,0H-9.064l.328-2.023h4.375L1.3-34.836H-3.076l.328-2.078H6.439L12.893-6.1,29.627-36.914h9.352L38.6-34.836H34.33L28.67-2.023h4.266L32.607,0H19.318L19.7-2.023h4.32l4.922-28.711L12.154-.055H9.584ZM57-34.891H51.584L45.924-2.023h5.66L51.174,0H35.342l.328-2.023h5.66l5.66-32.867H41.549l.383-2.023H57.408Zm9.133,3.363-5.086,29.5h4.7L65.365,0H53.99l.328-2.023h4.375l5.66-32.812H59.979l.383-2.078h8.914l11.594,28,4.539-25.922H80.924l.383-2.078H92.791l-.383,2.078H87.814L81.771,0H79.229Zm44.68-3.363H105.4L99.736-2.023h5.66L104.986,0H89.154l.328-2.023h5.66l5.66-32.867H95.361l.383-2.023h15.477Z" transform="translate(800 2825.211)" fill="#111"/>
    </g>
    <path id="MINI_logo" d="M57.987,23.683H56.926l-3.7,10.5-3.7-10.5H46.083V37.052h2.381V27.429l3.39,9.622H54.6l3.39-9.622v9.622h2.381V23.683H57.987Zm5.628,13.368H66V23.683H63.615Zm14.077-2.562-5.02-10.806H69.1V37.052h2.381V26.245L76.5,37.052h3.571V23.683H77.692Zm6,2.562h2.381V23.683H83.7ZM132.75,14.21H91.081a29.247,29.247,0,0,0-50.171,0H0l4.263,4.421H38.69a30.126,30.126,0,0,0-1.5,4.866H8.955l4.263,4.421h23.35C36.521,28.606,36.5,29.3,36.5,30c0,.939.045,1.868.128,2.785H17.91l4.263,4.421H37.354a30.124,30.124,0,0,0,1.629,4.866H26.865l4.263,4.421H41.353a29.234,29.234,0,0,0,49.286,0h10.983l4.263-4.421H93.007a30.1,30.1,0,0,0,1.629-4.866h15.94l4.263-4.421H95.368c.083-.917.128-1.846.128-2.785,0-.7-.025-1.393-.072-2.081h24.108l4.263-4.421h-29a30.128,30.128,0,0,0-1.5-4.866h35.186ZM91.113,32.784a25.8,25.8,0,0,1-5.746,13.708,24.994,24.994,0,0,1-38.744,0,25.82,25.82,0,0,1-5.746-13.708A26.414,26.414,0,0,1,40.73,30q0-1.051.083-2.081a25.828,25.828,0,0,1,5.25-13.708,25.009,25.009,0,0,1,39.865,0,25.838,25.838,0,0,1,5.251,13.708q.081,1.03.083,2.081a26.408,26.408,0,0,1-.148,2.785" transform="translate(733.625 2710.001)" fill="#111"/>
  </g>
</svg>
