<svg xmlns="http://www.w3.org/2000/svg" width="132.75" height="60" viewBox="0 0 132.75 60">
  <path id="MINI_logo" d="M57.987,23.683H56.926l-3.7,10.5-3.7-10.5H46.083V37.052h2.381V27.429l3.39,9.622H54.6l3.39-9.622v9.622h2.381V23.683H57.987Zm5.628,13.368H66V23.683H63.615Zm14.077-2.562-5.02-10.806H69.1V37.052h2.381V26.245L76.5,37.052h3.571V23.683H77.692Zm6,2.562h2.381V23.683H83.7ZM132.75,14.21H91.081a29.247,29.247,0,0,0-50.171,0H0l4.263,4.421H38.69a30.126,30.126,0,0,0-1.5,4.866H8.955l4.263,4.421h23.35C36.521,28.606,36.5,29.3,36.5,30c0,.939.045,1.868.128,2.785H17.91l4.263,4.421H37.354a30.124,30.124,0,0,0,1.629,4.866H26.865l4.263,4.421H41.353a29.234,29.234,0,0,0,49.286,0h10.983l4.263-4.421H93.007a30.1,30.1,0,0,0,1.629-4.866h15.94l4.263-4.421H95.368c.083-.917.128-1.846.128-2.785,0-.7-.025-1.393-.072-2.081h24.108l4.263-4.421h-29a30.128,30.128,0,0,0-1.5-4.866h35.186ZM91.113,32.784a25.8,25.8,0,0,1-5.746,13.708,24.994,24.994,0,0,1-38.744,0,25.82,25.82,0,0,1-5.746-13.708A26.414,26.414,0,0,1,40.73,30q0-1.051.083-2.081a25.828,25.828,0,0,1,5.25-13.708,25.009,25.009,0,0,1,39.865,0,25.838,25.838,0,0,1,5.251,13.708q.081,1.03.083,2.081a26.408,26.408,0,0,1-.148,2.785" transform="translate(0 0.001)" fill="#fff"/>
</svg>
