<svg xmlns="http://www.w3.org/2000/svg" width="515.999" height="72" viewBox="0 0 515.999 72">
  <path id="title_text_svg書き出し_" data-name="title text（svg書き出し）" d="M-2286.127,6371.173a39.682,39.682,0,0,0,10.43-13.335c-3.637-5.4-5.5-11.431-6.143-20.006l2.586-.4c1.536,7.065,3.236,11.986,5.5,15.636,1.7-5.158,2.911-12.3,3.72-22.067h-6.065c-.323.557-.566.952-1.294,2.222h-5.74a134.522,134.522,0,0,0,11-25.8h-7.844l-3.236.637v-4.447l3.236.633h15.122c-3.236,8.973-7.522,19.371-9.624,23.577h10.027c-.889,14.527-2.506,22.544-5.822,29.45a30.05,30.05,0,0,0,6.711,4.761c4.285,2.146,9.7,2.858,22.4,2.858,2.749,0,4.285,0,7.277-.157a33.005,33.005,0,0,0-1.7,6.588c-23.449-.08-29.352-1.587-37.116-9.685A34.933,34.933,0,0,1-2284.753,6373Zm-19.246,0v-23.816h19.326v21.752h-5.337V6367.2h-8.651v3.97Zm5.337-6.906h8.651v-13.972h-8.651Zm-24.573,5.2a1.8,1.8,0,0,1-.573-1.382,2.469,2.469,0,0,1,.254-1.112,3.115,3.115,0,0,1,.67-.9,3.076,3.076,0,0,1,.955-.609,2.966,2.966,0,0,1,1.137-.222,2.227,2.227,0,0,1,1.572.55,1.806,1.806,0,0,1,.595,1.382,2.4,2.4,0,0,1-.256,1.092,3.086,3.086,0,0,1-.668.9,3.108,3.108,0,0,1-.966.609,3.08,3.08,0,0,1-1.148.222A2.224,2.224,0,0,1-2324.609,6369.469Zm-49.719-.4a8.464,8.464,0,0,1-3.1-2.146,7.954,7.954,0,0,1-1.687-3.073,12.686,12.686,0,0,1-.51-3.6,17.871,17.871,0,0,1,.393-3.565,20.41,20.41,0,0,1,1.2-3.846,20.546,20.546,0,0,1,2.028-3.7,15.137,15.137,0,0,1,2.879-3.141,13.726,13.726,0,0,1,3.77-2.184,12.852,12.852,0,0,1,4.685-.822,12.087,12.087,0,0,1,4.694.813,8.462,8.462,0,0,1,3.124,2.154,8.3,8.3,0,0,1,1.73,3.1,12.261,12.261,0,0,1,.542,3.632,16.834,16.834,0,0,1-.4,3.48,20.446,20.446,0,0,1-1.222,3.8,21.051,21.051,0,0,1-2.06,3.691,15.9,15.9,0,0,1-2.911,3.17,13.853,13.853,0,0,1-3.76,2.212,12.446,12.446,0,0,1-4.642.832A12.246,12.246,0,0,1-2374.328,6369.074Zm5.98-24.19a9.08,9.08,0,0,0-2.761,1.711,10.58,10.58,0,0,0-2.039,2.551,15.569,15.569,0,0,0-1.382,3.17,21.163,21.163,0,0,0-.774,3.537,27.605,27.605,0,0,0-.245,3.653,17.7,17.7,0,0,0,.33,3.479,9.737,9.737,0,0,0,1.04,2.9,5.583,5.583,0,0,0,1.86,1.99,5.04,5.04,0,0,0,2.783.734,9.81,9.81,0,0,0,3.493-.588,9.135,9.135,0,0,0,2.762-1.624,10.527,10.527,0,0,0,2.082-2.464,14.926,14.926,0,0,0,1.444-3.121,20.423,20.423,0,0,0,.829-3.557,26.832,26.832,0,0,0,.265-3.8,17.658,17.658,0,0,0-.341-3.528,9.341,9.341,0,0,0-1.083-2.927,5.9,5.9,0,0,0-1.9-2,5.094,5.094,0,0,0-2.815-.744A9.534,9.534,0,0,0-2368.348,6344.884Zm-190.369,24.19a8.45,8.45,0,0,1-3.1-2.146,7.932,7.932,0,0,1-1.689-3.073,12.677,12.677,0,0,1-.51-3.6,17.871,17.871,0,0,1,.393-3.565,20.644,20.644,0,0,1,1.2-3.846,20.554,20.554,0,0,1,2.03-3.7,15.177,15.177,0,0,1,2.877-3.141,13.738,13.738,0,0,1,3.771-2.184,12.845,12.845,0,0,1,4.683-.822,12.1,12.1,0,0,1,4.7.813,8.469,8.469,0,0,1,3.122,2.154,8.305,8.305,0,0,1,1.732,3.1,12.307,12.307,0,0,1,.541,3.632,16.817,16.817,0,0,1-.4,3.48,20.338,20.338,0,0,1-1.222,3.8,20.957,20.957,0,0,1-2.06,3.691,15.861,15.861,0,0,1-2.911,3.17,13.827,13.827,0,0,1-3.76,2.212,12.446,12.446,0,0,1-4.642.832A12.24,12.24,0,0,1-2558.716,6369.074Zm5.98-24.19a9.07,9.07,0,0,0-2.762,1.711,10.58,10.58,0,0,0-2.039,2.551,15.551,15.551,0,0,0-1.38,3.17,21.19,21.19,0,0,0-.776,3.537,27.605,27.605,0,0,0-.245,3.653,17.7,17.7,0,0,0,.33,3.479,9.691,9.691,0,0,0,1.041,2.9,5.578,5.578,0,0,0,1.858,1.99,5.04,5.04,0,0,0,2.783.734,9.821,9.821,0,0,0,3.495-.588,9.147,9.147,0,0,0,2.76-1.624,10.458,10.458,0,0,0,2.083-2.464,14.938,14.938,0,0,0,1.444-3.121,20.269,20.269,0,0,0,.829-3.557,26.832,26.832,0,0,0,.265-3.8,17.769,17.769,0,0,0-.339-3.528,9.378,9.378,0,0,0-1.084-2.927,5.91,5.91,0,0,0-1.9-2,5.1,5.1,0,0,0-2.815-.744A9.524,9.524,0,0,0-2552.736,6344.884Zm-112.058,24.788a12.018,12.018,0,0,1-2.273-.589,8.214,8.214,0,0,1-1.73-.879,5.863,5.863,0,0,1-1.2-1.064l.872-4.753h2.527a2.054,2.054,0,0,0-.021.29,1.84,1.84,0,0,0-.021.29v.309a8.265,8.265,0,0,0,.318,2.475,4.165,4.165,0,0,0,.913,1.633,3.435,3.435,0,0,0,1.467.909,6.352,6.352,0,0,0,1.953.28,7.774,7.774,0,0,0,2.561-.415,7.107,7.107,0,0,0,2.092-1.121,5.271,5.271,0,0,0,1.4-1.663,4.315,4.315,0,0,0,.51-2.057,4.986,4.986,0,0,0-.361-1.991,4.008,4.008,0,0,0-1.3-1.546c-.171-.128-.428-.312-.776-.55s-.744-.5-1.19-.793-.913-.6-1.4-.928-.956-.636-1.4-.928-.843-.553-1.19-.792-.606-.422-.776-.552c-.368-.271-.726-.56-1.072-.869a6.687,6.687,0,0,1-.945-1.044,4.888,4.888,0,0,1-.68-1.314,5.081,5.081,0,0,1-.256-1.681,6.011,6.011,0,0,1,.691-2.8,7.172,7.172,0,0,1,1.964-2.338,9.926,9.926,0,0,1,3.06-1.594,12.6,12.6,0,0,1,3.973-.59,13.909,13.909,0,0,1,4.493.657,7.759,7.759,0,0,1,3.133,1.913l-.872,4.793h-2.612c.013-.154.027-.309.042-.464s.026-.3.032-.474.011-.363.011-.569a7.4,7.4,0,0,0-.288-2.242,3.312,3.312,0,0,0-.829-1.411,2.984,2.984,0,0,0-1.348-.734,7.261,7.261,0,0,0-1.847-.213,6.958,6.958,0,0,0-2.677.474,6.191,6.191,0,0,0-1.922,1.208,4.91,4.91,0,0,0-1.158,1.624,4.4,4.4,0,0,0-.382,1.74,4.319,4.319,0,0,0,.3,1.7,3.176,3.176,0,0,0,1.147,1.3c.142.1.39.273.744.512s.758.505,1.211.8.936.613,1.444.949.995.652,1.456.956.867.573,1.222.811.609.416.764.531a12.217,12.217,0,0,1,1.339,1.083,6.817,6.817,0,0,1,1.009,1.188,5.216,5.216,0,0,1,.637,1.372,5.75,5.75,0,0,1,.224,1.654,6.174,6.174,0,0,1-.723,2.879,7.848,7.848,0,0,1-2.051,2.475,10.337,10.337,0,0,1-3.207,1.729,12.832,12.832,0,0,1-4.2.647A17.07,17.07,0,0,1-2664.794,6369.672Zm507.561-.563h-65.984l-3.154.636V6365.3l3.154.634H-2192V6343.07h-20.54l-3.154.637v-4.445l3.154.635H-2192v-19.289h-18.437c-4.125,9.366-9.057,16.906-14.961,22.862l-2.02-1.747c6.145-8.971,11.724-23.5,14.473-37.706l7.2,2.064c1.051.317,1.7.952,1.7,1.585,0,.875-.726,1.51-2.345,1.985-1.294,3.971-1.777,5.161-2.748,7.779H-2192V6301h6.711c1.132,0,1.7.32,1.7,1.033,0,.555-.323.872-1.292,1.588v13.811h24.338l3.154-.635v4.446l-3.154-.635h-24.338V6339.9h20.538l3.236-.635v4.445l-3.236-.637h-20.538v22.864h27.654l3.234-.634v4.445Zm-177.911.331-10.175-22.285-3.952,20.854h3.655l-.3,1.43h-8.837l.254-1.43h3.4l4.4-23.193h-3.4l.3-1.468h6.925l9.008,19.791,3.527-18.323h-3.485l.3-1.468h8.921l-.3,1.468h-3.57l-4.694,24.623Zm-61.584,0,.254-1.43h4.4l4.4-23.231h-4.227l.3-1.43h12.023l-.318,1.43h-4.206l-4.4,23.231h4.4l-.318,1.43Zm-18.715,0,.254-1.43h3.781l4.4-23.231h-5.268l-3.25,5.547h-1.572l1.339-6.977h21.709l-1.337,6.977h-1.531l-1.252-5.547h-5.227l-4.4,23.231h3.7l-.3,1.43Zm-19.884,0,.254-1.43h4.4l4.4-23.231h-4.227l.3-1.43h12.023l-.318,1.43h-4.206l-4.4,23.231h4.4l-.318,1.43Zm-28.189,0,.254-1.43h3.74l4.4-23.231h-3.781l.3-1.43h13.235a13.268,13.268,0,0,1,4.694.734,8.416,8.416,0,0,1,3.154,2.011,7.651,7.651,0,0,1,1.774,3,11.972,11.972,0,0,1,.553,3.691,18.488,18.488,0,0,1-.382,3.625,19.293,19.293,0,0,1-1.169,3.749,18.955,18.955,0,0,1-1.987,3.536,14.047,14.047,0,0,1-2.836,2.967,13.35,13.35,0,0,1-3.738,2.03,13.794,13.794,0,0,1-4.674.753Zm7.647-1.43h5.886a8.068,8.068,0,0,0,3.42-.715,9.675,9.675,0,0,0,2.772-1.924,12.708,12.708,0,0,0,2.124-2.8,19.286,19.286,0,0,0,1.5-3.353,22.478,22.478,0,0,0,.893-3.576,21.427,21.427,0,0,0,.3-3.459,11.692,11.692,0,0,0-.36-2.986,6.414,6.414,0,0,0-1.137-2.348,5.156,5.156,0,0,0-1.987-1.528,7.108,7.108,0,0,0-2.909-.541h-6.1Zm-31.481,1.43.254-1.43h3.74l4.4-23.231h-3.738l.3-1.43h21.008l-1.3,6.977h-1.572l-1.252-5.547h-9.878l-1.87,10.013h6.882l.51-2.842h1.954l-1.339,7.287h-1.955l.51-2.859h-6.861l-2.188,11.634h10.217l3.314-5.527h1.531l-1.359,6.958Zm-25.088,0-3.44-20.351-10.431,20.351h-1.954l-3.612-24.662h-3.4l.256-1.43h11.068l-.32,1.43h-3.866l2.783,19,10.388-20.255h1.847l3.378,20.447,9.75-19.191h-3.525l.3-1.43h8.837l-.3,1.43h-3.314l-12.619,24.662Zm-82.381,0,.256-1.43h3.738l4.4-23.231h-3.781l.3-1.43h13.233a13.263,13.263,0,0,1,4.694.734,8.427,8.427,0,0,1,3.156,2.011,7.654,7.654,0,0,1,1.774,3,12.016,12.016,0,0,1,.552,3.691,18.47,18.47,0,0,1-.382,3.625,19.27,19.27,0,0,1-1.167,3.749,18.955,18.955,0,0,1-1.987,3.536,14.127,14.127,0,0,1-2.836,2.967,13.336,13.336,0,0,1-3.74,2.03,13.791,13.791,0,0,1-4.673.753Zm7.648-1.43h5.884a8.068,8.068,0,0,0,3.419-.715,9.679,9.679,0,0,0,2.773-1.924,12.753,12.753,0,0,0,2.124-2.8,19.428,19.428,0,0,0,1.5-3.353,22.5,22.5,0,0,0,.893-3.576,21.435,21.435,0,0,0,.3-3.459,11.614,11.614,0,0,0-.361-2.986,6.389,6.389,0,0,0-1.136-2.348,5.181,5.181,0,0,0-1.986-1.528,7.118,7.118,0,0,0-2.911-.541h-6.1Zm-17.76,1.43.277-1.43h2.57l-1.614-8.157h-9.05l-4.653,8.157h2.74l-.275,1.43h-7.223l.277-1.43h2.612l14.084-24.661h1.911l4.8,24.661h2.506l-.254,1.43Zm-6.946-11.113h7.859l-2-10.378Zm-21.667,11.113.318-1.43h2.868l2.209-11.6h-13.043l-2.229,11.6h2.932l-.318,1.43h-9.518l.256-1.43h3.1l4.376-23.231h-3.081l.3-1.43h9.581l-.3,1.43h-2.932l-1.911,10.089h13.064l1.911-10.089h-2.868l.3-1.43h9.56l-.3,1.43h-3.08l-4.4,23.231h3.081l-.3,1.43Zm395.45-12.159h-23.449l-3.236.635v-4.445l3.236.635h.888v-31.99h4.853c1.132,0,1.7.317,1.7,1.032,0,.477-.241.715-1.212,1.428v29.53h5.257v-44.375h-.245c-4.851.795-7.519,1.113-12.453,1.588l-.24-2.381c7.922-1.825,18.273-5.318,22.075-7.542l3.96,3.573c.729.713.971,1.03.971,1.428a1.165,1.165,0,0,1-1.212,1.11,13.983,13.983,0,0,1-1.942-.316c-2.991.875-4.528,1.35-5.337,1.51v18.572h5.257l3.234-.633v4.445l-3.234-.637h-5.257v23.657h6.39l3.234-.635v4.445Zm-51.106-17.542h-12.937l-3.234.635v-4.6l3.234.633h12.938l3.236-.633v4.6Zm0-10.955h-12.937l-3.234.635v-4.6l3.234.635h12.938l3.236-.635v4.6Zm-229.5-.184a7.969,7.969,0,0,1-2.922-1.659,7.133,7.133,0,0,1-1.846-2.73,10.268,10.268,0,0,1-.635-3.75v-15.066h-3.071v-1.818h10.906v1.818h-3.088v15.994a6.451,6.451,0,0,0,1.216,4.169,4.422,4.422,0,0,0,3.648,1.5,8.179,8.179,0,0,0,2.03-.275,5.793,5.793,0,0,0,1.938-.9,5.067,5.067,0,0,0,1.459-1.628,4.839,4.839,0,0,0,.577-2.444v-16.412h-3.28v-1.818h8.782v1.818h-3.129v16.373a7.458,7.458,0,0,1-.6,3.033,6.42,6.42,0,0,1-1.726,2.33,8.012,8.012,0,0,1-2.741,1.5,11.693,11.693,0,0,1-3.659.53A12.5,12.5,0,0,1-2518.7,6328.6Zm-25.565.037a10.522,10.522,0,0,1-2.964-1.412,9.435,9.435,0,0,1-2.172-2.094,11.791,11.791,0,0,1-1.457-2.567,13.493,13.493,0,0,1-.811-2.825,16.788,16.788,0,0,1-.251-2.861,19.127,19.127,0,0,1,.29-3.306,16.356,16.356,0,0,1,.889-3.183,13.112,13.112,0,0,1,1.524-2.833,10.306,10.306,0,0,1,2.2-2.274,10.082,10.082,0,0,1,2.924-1.518,11.647,11.647,0,0,1,3.677-.548,13.037,13.037,0,0,1,3.8.512,10.718,10.718,0,0,1,2.965,1.392,9.464,9.464,0,0,1,2.189,2.076,12.068,12.068,0,0,1,1.488,2.548,13.08,13.08,0,0,1,.84,2.806,16.281,16.281,0,0,1,.261,2.871,19.779,19.779,0,0,1-.28,3.306,16.108,16.108,0,0,1-.878,3.183,14.121,14.121,0,0,1-1.516,2.854,10.069,10.069,0,0,1-2.2,2.3,10.2,10.2,0,0,1-2.943,1.537,11.692,11.692,0,0,1-3.727.557A13.062,13.062,0,0,1-2544.267,6328.637Zm.7-22.94a5.9,5.9,0,0,0-2.028,2.059,9.42,9.42,0,0,0-1.108,2.992,18.263,18.263,0,0,0-.337,3.573,25.665,25.665,0,0,0,.154,3.125,24.58,24.58,0,0,0,.521,3.022,17.207,17.207,0,0,0,.888,2.721,9.535,9.535,0,0,0,1.275,2.2,5.8,5.8,0,0,0,1.679,1.47,4.169,4.169,0,0,0,2.1.541,6.128,6.128,0,0,0,3.157-.758,5.853,5.853,0,0,0,2.065-2.055,9.263,9.263,0,0,0,1.12-3.042,19.491,19.491,0,0,0,.337-3.715,27.907,27.907,0,0,0-.174-3.116,22.5,22.5,0,0,0-.531-2.994,15.847,15.847,0,0,0-.907-2.661,9.339,9.339,0,0,0-1.3-2.151,5.7,5.7,0,0,0-1.708-1.439,4.322,4.322,0,0,0-2.111-.521A5.9,5.9,0,0,0-2543.563,6305.7Zm-23.617,22.94a10.361,10.361,0,0,1-2.964-1.43,9.681,9.681,0,0,1-2.17-2.124,11.679,11.679,0,0,1-1.459-2.6,13.777,13.777,0,0,1-.809-2.859,17.251,17.251,0,0,1-.251-2.9,19.625,19.625,0,0,1,.28-3.3,16.3,16.3,0,0,1,.857-3.156,12.631,12.631,0,0,1,1.5-2.794,9.933,9.933,0,0,1,2.2-2.237,10.225,10.225,0,0,1,2.943-1.486,12.015,12.015,0,0,1,3.727-.541,13.738,13.738,0,0,1,2.816.265,11.584,11.584,0,0,1,2.26.7,8.82,8.82,0,0,1,1.766,1,13.374,13.374,0,0,1,1.38,1.174v4.36h-3.4a8.573,8.573,0,0,0-.648-2.7,5.6,5.6,0,0,0-1.177-1.751,4.248,4.248,0,0,0-1.467-.958,4.363,4.363,0,0,0-1.534-.294,5.95,5.95,0,0,0-3.138.768,5.926,5.926,0,0,0-2.036,2.066,9.249,9.249,0,0,0-1.1,3,18.5,18.5,0,0,0-.33,3.552,21.819,21.819,0,0,0,.213,3.049,21.71,21.71,0,0,0,.608,2.919,15.041,15.041,0,0,0,.993,2.605,10.045,10.045,0,0,0,1.371,2.1,6.152,6.152,0,0,0,1.729,1.4,4.27,4.27,0,0,0,2.055.512,7.9,7.9,0,0,0,2.258-.312,5.824,5.824,0,0,0,1.921-.967,5.644,5.644,0,0,0,1.457-1.678,7.94,7.94,0,0,0,.888-2.442h2.047a9.566,9.566,0,0,1-1.091,3.25,8.548,8.548,0,0,1-1.969,2.378,8.148,8.148,0,0,1-2.674,1.458,10.256,10.256,0,0,1-3.2.491A13.075,13.075,0,0,1-2567.18,6328.637Zm236.027.085-12.335-19.1v17.205h3.244v1.9h-8.493v-1.9h3.088v-21.392h-3.012v-1.858h7.007l11.177,17.187v-15.329h-3.031v-1.858h8.531v1.858h-3.242v23.288Zm-28.588,0v-1.9h2.781l-2.665-7.142h-7.18l-2.529,7.142h2.914v1.9h-8.454v-1.9h3.2l8.454-23.25h2.722l8.552,23.25h2.837v1.9Zm-6.35-11.066h5.887l-2.973-8.264Zm-20.133,11.066v-1.9h2.8v-16.618l-7.1,18.513h-2.449l-7.549-18.59v16.695h2.916v1.9h-8.224v-1.9h3.089v-21.432h-3.089v-1.818h7.626l7.68,18.969,7.356-18.969h7.508v1.818h-3.01v21.432h3.088v1.9Zm-38.471,0v-1.9h3.8v-8.734l-6.371-12.7h-3.282v-1.818h11.177v1.818h-2.837l4.749,9.665,5.056-9.665h-3.319v-1.818h9.093v1.818h-3.476l-6.1,11.767v9.665h3.842v1.9Zm-11.7,0-7.316-11.446h-2.375v9.55h3.013v1.9h-10.753v-1.9h3.01v-21.392h-3.01v-1.858h11.735a11.54,11.54,0,0,1,3.747.541,7.418,7.418,0,0,1,2.575,1.449,5.616,5.616,0,0,1,1.5,2.121,6.846,6.846,0,0,1,.485,2.561,7.051,7.051,0,0,1-.339,2.207,6.4,6.4,0,0,1-.974,1.876,6.207,6.207,0,0,1-1.563,1.449,7.661,7.661,0,0,1-2.1.947l6.6,10.1h3.012v1.9Zm-9.691-13.435h3.688a2.653,2.653,0,0,0,1.352-.368,3.71,3.71,0,0,0,1.12-1.025,5.132,5.132,0,0,0,.761-1.564,6.785,6.785,0,0,0,.28-2.007,7.032,7.032,0,0,0-.26-1.97,5.131,5.131,0,0,0-.723-1.543,3.356,3.356,0,0,0-1.11-1.016,2.886,2.886,0,0,0-1.419-.358h-3.688Zm-25.517,13.435v-1.9h3.359v-21.432h-3.572l-1.969,5.249h-2.567v-7.067h20.943v7.067h-2.565l-2.009-5.249h-3.514v21.432h3.359v1.9Zm-12.432,0-12.335-19.1v17.205h3.244v1.9h-8.493v-1.9h3.088v-21.392h-3.012v-1.858h7.007l11.177,17.187v-15.329h-3.031v-1.858h8.531v1.858h-3.242v23.288Zm-114.988,0v-1.9h3.842v-21.432h-3.842v-1.818h12.413v1.818h-3.842v21.432h3.842v1.9Zm-7.605,0-12.334-19.1v17.205h3.243v1.9h-8.493v-1.9h3.088v-21.392h-3.013v-1.858h7.009l11.177,17.187v-15.329h-3.031v-1.858h8.533v1.858h-3.245v23.288Zm-31.619,0v-1.9h3.843v-21.432h-3.843v-1.818h12.413v1.818h-3.84v21.432h3.84v1.9Zm-12.141,0v-1.9h2.8v-16.618l-7.1,18.513h-2.452l-7.546-18.59v16.695h2.913v1.9H-2670v-1.9h3.088v-21.432H-2670v-1.818h7.626l7.682,18.969,7.354-18.969h7.511v1.818h-3.013v21.432h3.088v1.9Zm364.178-10.894h-18.841l-3.236.637v-4.6l3.236.635h18.841l3.236-.635v4.6Zm-3.073-10.953h-12.858l-3.234.633v-4.6l3.234.637h12.858l3.234-.637v4.6Z" transform="translate(2669.999 -6301)" fill="#fff"/>
</svg>
