<svg xmlns="http://www.w3.org/2000/svg" width="314.16" height="366.473" viewBox="0 0 314.16 366.473">
  <g id="text" transform="translate(-20.48 -438)">
    <path id="パス_30919" data-name="パス 30919" d="M3.3,9.216a13.509,13.509,0,0,1-2.816,4.4l.3.512a8.678,8.678,0,0,0,2.384-1.984c.176-.224.352-.448.544-.672l.032-.032v3.888H5.328V10.864c.016.032.208.272.576.752a14.714,14.714,0,0,1,.912,1.456l1.008-1.44A7.114,7.114,0,0,0,5.7,10.384a2.365,2.365,0,0,1-.368-.144V9.216h2.16l.672.128V8.32l-.672.128H5.328V6.624H7.744l.656.128V5.728l-.656.128H5.856A19.637,19.637,0,0,0,7.12,3.072h.448L8.24,3.2V2.176L7.568,2.3H5.36V1.056c.208-.16.256-.224.256-.32Q5.616.5,5.28.5H3.648V2.3H1.408L.736,2.176V3.2l.672-.128h.448a24.655,24.655,0,0,1,.5,2.624l.016.16H1.152L.48,5.728V6.752l.672-.128H3.744V8.448H1.408L.736,8.32V9.344l.672-.128Zm-.624-3.36,1.3-.656A8.359,8.359,0,0,0,2.544,3.072H5.5a23.693,23.693,0,0,1-.4,2.784ZM8.9,1.264V3.312a52.483,52.483,0,0,1-.224,7.024A8.284,8.284,0,0,1,6.7,14.9l.384.48a6.49,6.49,0,0,0,2.96-4.176A16.159,16.159,0,0,0,10.5,6.656h1.792v8.672h1.648V6.656h.912l.672.128V5.76l-.672.128H10.512v-.32c.016-.848.016-1.6.016-2.256V2.576a18.581,18.581,0,0,0,3.936-.464,1.029,1.029,0,0,0,.352.064c.144,0,.3-.128.3-.24a.575.575,0,0,0-.144-.24L13.888.5A16.487,16.487,0,0,1,10.56,1.84Zm11.3-.32.1,1.12-.128,5.3c-.016.56-.016.976-.016,1.36,0,2.64.32,3.952,1.168,4.784a5.131,5.131,0,0,0,3.52,1.264,5.8,5.8,0,0,0,5.04-2.656,9,9,0,0,0,1.12-3.248l-.72-.224a7.881,7.881,0,0,1-1.3,2.544,5.212,5.212,0,0,1-4.08,1.968,2.918,2.918,0,0,1-2.24-.96,4.482,4.482,0,0,1-.688-2.944c0-.544,0-1.184.016-1.76L22.128,1.9c.208-.192.288-.32.288-.464,0-.224-.192-.368-.512-.384ZM40.32,10.1c-.432,1.5-.96,2.5-1.344,2.5-.464,0-1.2-1.392-1.6-2.976a28.039,28.039,0,0,1-.464-5.664V3.168c.288-.208.384-.336.384-.48,0-.192-.192-.336-.464-.352l-1.776-.1.08,1.136c.016,2.24.048,3.248.144,4.4A12.2,12.2,0,0,0,36.5,12.528c.608,1.168,1.424,1.84,2.208,1.84,1.024,0,1.888-1.392,2.464-4.016Zm8.224.544a11.99,11.99,0,0,0-4.272-7.664l-.56.384a19.937,19.937,0,0,1,2.864,8.1ZM52.96,3.712h8.72v8.5H52.912l-.8-.16v1.216l.8-.16H63.664V2.816H52.96l-.8-.16V3.872Zm28.176.208a14.934,14.934,0,0,1-11.344,8.272l-.88-.032.736,1.776c.112.256.256.4.432.4.208,0,.336-.112.464-.4,3.568-.848,5.728-1.872,7.616-3.584a12.688,12.688,0,0,0,3.584-6.176ZM68.752,2.256a14.4,14.4,0,0,1,4.032,3.632l1.648-1.744a10.023,10.023,0,0,0-5.408-2.48ZM84.384,13.7c2.784-2.192,4.4-5.072,5.408-9.6.336-.144.48-.288.48-.48,0-.256-.208-.4-.9-.576l-1.584-.4-.048,1.008a22.858,22.858,0,0,1-3.872,9.616Zm7.76-10.624a30.158,30.158,0,0,1,4.3,10.464l2.1-1.04c-1.184-4.128-3.328-7.808-5.776-9.872ZM97.072.4A1.672,1.672,0,1,0,98.72,2.064,1.67,1.67,0,0,0,97.072.4Zm-.032.768a.9.9,0,1,1-.9.9A.908.908,0,0,1,97.04,1.168Zm10.512,2.048A12.9,12.9,0,0,0,108.1,2c.32-.144.448-.256.448-.448,0-.176-.144-.288-.4-.336l-1.92-.384-.192.992A14.213,14.213,0,0,1,101.824,8.1l.368.544a10.98,10.98,0,0,0,4.88-4.528h4.512a14.639,14.639,0,0,1-3.408,6.512,14.832,14.832,0,0,1-6.224,3.552l.144.672A15.022,15.022,0,0,0,108.72,12.3c2.592-1.888,4.368-5.04,5.136-9.088Zm15.856-1.36c.256-.16.352-.288.352-.448,0-.176-.16-.32-.4-.336L121.376.96l.128,1.088V14.832h1.9V6.48a15.942,15.942,0,0,1,5.648,4.192l1.408-1.856a16.583,16.583,0,0,0-7.056-3.168Zm13.408,12.336a4.943,4.943,0,0,1-1.832-.32,2.9,2.9,0,0,1-1.192-.784V11.2h.864a3.181,3.181,0,0,0,.72,1.912,2.006,2.006,0,0,0,1.472.552,2.105,2.105,0,0,0,1.528-.52,1.86,1.86,0,0,0,.536-1.4,1.789,1.789,0,0,0-.88-1.6L135.184,8.3a3.419,3.419,0,0,1-1.016-.944,2.276,2.276,0,0,1-.36-1.312,2.361,2.361,0,0,1,.84-1.9,3.464,3.464,0,0,1,2.312-.712,4.66,4.66,0,0,1,1.64.272,3.072,3.072,0,0,1,1.192.768V6.416h-.864a3.418,3.418,0,0,0-.608-1.928,1.731,1.731,0,0,0-1.36-.536,1.869,1.869,0,0,0-1.464.512A1.788,1.788,0,0,0,135.04,5.7a1.522,1.522,0,0,0,.736,1.376l2.8,1.792a4.042,4.042,0,0,1,1.256,1.144,2.414,2.414,0,0,1,.376,1.336,2.654,2.654,0,0,1-1.56,2.48A4.172,4.172,0,0,1,136.816,14.192Zm9.776,0a3.543,3.543,0,0,1-2.544-.9,3.383,3.383,0,0,1-.944-2.576V4.208h-1.28V3.632h3.92v.576h-1.28V10.88a2.588,2.588,0,0,0,.664,1.968,2.454,2.454,0,0,0,1.752.624,2.552,2.552,0,0,0,1.784-.632,2.5,2.5,0,0,0,.7-1.944V4.208H148.1V3.632h3.216v.576h-1.264V10.96a3.062,3.062,0,0,1-.944,2.352A3.536,3.536,0,0,1,146.592,14.192Zm16.016-9.984h-1.2L157.968,14h-.736l-3.5-9.792h-1.28V3.632h3.984v.576h-1.28l2.8,7.856,2.8-7.856h-1.28V3.632h3.136Zm11.28,5.616a7.908,7.908,0,0,0-2.032-.272c-1.776,0-3.008,1.008-3.008,2.464a2.271,2.271,0,0,0,.656,1.632,4.223,4.223,0,0,0,2.912,1.024,3.207,3.207,0,0,0,2.864-1.216,2.115,2.115,0,0,0,.336-1.312v-.208a10.748,10.748,0,0,1,2.208,1.712l.976-1.584a12.379,12.379,0,0,0-3.2-1.824l-.112-5.184c1.072-.064,1.968-.144,2.928-.288l.032-1.344-1.088.48a19.029,19.029,0,0,1-1.888.24l-.048-2.24c.208-.176.3-.32.3-.48a.338.338,0,0,0-.352-.3l-1.792-.112.144.976.048,2.256c-.656.016-1.152.032-1.584.032-.512,0-1.3-.032-2.32-.08l-1.056-.3.112,1.232c.992.032,1.6.048,2.768.048.976,0,1.568-.016,2.1-.032Zm.048,1.84a1.731,1.731,0,0,1-.224.976,1.815,1.815,0,0,1-1.6.64,3.3,3.3,0,0,1-1.856-.528.944.944,0,0,1-.432-.816c0-.752.688-1.2,1.84-1.2a5.2,5.2,0,0,1,2.256.512,1.059,1.059,0,0,1,.016.224Zm-6.48,2.7a36.2,36.2,0,0,1-.464-5.792,51.272,51.272,0,0,1,.464-6.416c.24-.176.336-.288.336-.432,0-.192-.192-.352-.464-.384l-1.68-.24.016.992a68.414,68.414,0,0,0-.4,6.928,38.16,38.16,0,0,0,.384,5.632Zm18.112-.464a9.823,9.823,0,0,0-4.592-2.912l-.4.528a16.532,16.532,0,0,1,3.44,3.92Zm12.3-.208c2.784-2.192,4.4-5.072,5.408-9.6.336-.144.48-.288.48-.48,0-.256-.208-.4-.9-.576l-1.584-.4-.048,1.008a22.858,22.858,0,0,1-3.872,9.616Zm7.76-10.624a30.158,30.158,0,0,1,4.3,10.464l2.1-1.04c-1.184-4.128-3.328-7.808-5.776-9.872ZM210.56.4a1.672,1.672,0,1,0,1.648,1.664A1.67,1.67,0,0,0,210.56.4Zm-.032.768a.9.9,0,1,1-.9.9A.908.908,0,0,1,210.528,1.168ZM217.456,14.3c6.928-.7,9.9-4.192,10.288-12.048H215.328V7.408h1.936V3.152h8.256c-.352,6.08-2.656,9.008-8.192,10.384Zm27.3-6.88-13.36-.592V8.944l13.36-.608Zm7.376,6.48a9.823,9.823,0,0,0-4.592-2.912l-.4.528a16.532,16.532,0,0,1,3.44,3.92Zm14.3-11.84-.8-.16V3.12l.8-.16h7.184a18.668,18.668,0,0,1-9.36,10.656l.32.72a16.555,16.555,0,0,0,7.744-5.072l.064.08a26.254,26.254,0,0,1,4.128,5.088l1.856-1.472a20.4,20.4,0,0,0-5.584-4.272,22.267,22.267,0,0,0,3.264-6.624ZM285.488,15.04a10.263,10.263,0,0,0,5.152-2.16c1.5-1.3,2.048-3.04,2.048-6.544V1.92c.256-.176.352-.3.352-.464a.389.389,0,0,0-.4-.336l-2.016-.112.16,1.088V6.528c-.048,2.992-.464,4.4-1.68,5.632a8.892,8.892,0,0,1-3.776,2.208Zm-2.4-12.672V10.16h1.9V2.208c.256-.192.352-.3.352-.464a.366.366,0,0,0-.4-.336l-2.016-.128Zm19.04,12.672a10.263,10.263,0,0,0,5.152-2.16c1.5-1.3,2.048-3.04,2.048-6.544V1.92c.256-.176.352-.3.352-.464a.389.389,0,0,0-.4-.336l-2.016-.112.16,1.088V6.528c-.048,2.992-.464,4.4-1.68,5.632a8.892,8.892,0,0,1-3.776,2.208Zm-2.4-12.672V10.16h1.9V2.208c.256-.192.352-.3.352-.464a.366.366,0,0,0-.4-.336l-2.016-.128ZM14.576,31.92A14.934,14.934,0,0,1,3.232,40.192l-.88-.032.736,1.776c.112.256.256.4.432.4.208,0,.336-.112.464-.4,3.568-.848,5.728-1.872,7.616-3.584a12.688,12.688,0,0,0,3.584-6.176ZM2.192,30.256a14.4,14.4,0,0,1,4.032,3.632l1.648-1.744a10.023,10.023,0,0,0-5.408-2.48Zm22.1.96c.176-.368.3-.656.528-1.216.32-.144.432-.256.432-.448q0-.264-.384-.336l-1.92-.384-.192.992A14.124,14.124,0,0,1,18.544,36.1l.368.544a11.109,11.109,0,0,0,4.9-4.528h4.48a14.119,14.119,0,0,1-4,7.072,15.707,15.707,0,0,1-5.632,2.992l.144.672c3.92-.688,6.272-1.84,8.3-4.064a15.875,15.875,0,0,0,3.456-7.568ZM32.16,30.08a3.254,3.254,0,0,0-1.936-1.68l-.368.3a6.028,6.028,0,0,1,1.088,2.064ZM27.9,28.768a6.944,6.944,0,0,1,.944,2.192l1.232-.576A3.243,3.243,0,0,0,28.352,28.5Zm9.92,2.048H37.7c-.88,0-1.376-.032-2.384-.112l-.928-.368.08,1.28c1.392.08,1.92.1,3.136.1l-.016.048a35.518,35.518,0,0,1-3.472,7.632l1.552.96a45.715,45.715,0,0,0,3.744-8.688c1.072-.064,2.464-.192,3.728-.368l.032-1.3-1.1.512c-1.1.144-1.712.192-2.352.24l.016-.048c.128-.432.144-.48.32-1.056.224-.16.3-.272.3-.4a.341.341,0,0,0-.3-.32l-1.7-.3-.128.944c-.176.608-.24.848-.352,1.248ZM48.352,40.1a10.351,10.351,0,0,0-3.872-2.064v-2.72c.224-.176.3-.272.3-.4,0-.192-.16-.3-.432-.32l-1.568-.032.08,1.392v1.776a8.919,8.919,0,0,0-1.344-.1c-1.984,0-3.312,1.024-3.312,2.576a2.421,2.421,0,0,0,.64,1.648,4.3,4.3,0,0,0,3.008,1.088,3.2,3.2,0,0,0,2.032-.608,2.169,2.169,0,0,0,.592-1.664v-1.12a10.4,10.4,0,0,1,2.8,2.144Zm-5.488.4c0,.736-.432,1.088-1.344,1.088-1.344,0-2.336-.624-2.336-1.472a1,1,0,0,1,.272-.7,2.672,2.672,0,0,1,1.9-.544,5.413,5.413,0,0,1,1.5.208Zm5.68-7.856a9.293,9.293,0,0,0-3.216-.528,9.014,9.014,0,0,0-3.024.48l.048.608a12.672,12.672,0,0,1,5.184,1.088Zm4.9,9.792a15.721,15.721,0,0,0,6.768-2.416A12.033,12.033,0,0,0,64.96,33.7l-.608-.3A13.486,13.486,0,0,1,55.3,40.064V30.4c.256-.176.352-.3.352-.464a.372.372,0,0,0-.384-.336l-1.984-.112.16,1.088Zm16.3-12.368-.8-.16V31.12l.8-.16h7.184a18.668,18.668,0,0,1-9.36,10.656l.32.72a16.555,16.555,0,0,0,7.744-5.072l.064.08a26.254,26.254,0,0,1,4.128,5.088L81.68,40.96A20.4,20.4,0,0,0,76.1,36.688a22.267,22.267,0,0,0,3.264-6.624ZM92.128,33.12h4.656l.8.16V32.064l-.8.16H92.128V30.032c.256-.176.352-.3.352-.464a.372.372,0,0,0-.384-.336l-1.984-.112.16,1.088v2.016H85.344l-.8-.16V33.28l.8-.16h4.928v8c0,.576-.24.816-.816.816H87.808v.9h2.944c.96,0,1.376-.416,1.376-1.424Zm1.3,1.808a20.708,20.708,0,0,1,2.944,6.112l1.9-.992a11.824,11.824,0,0,0-4.352-5.5Zm-9.248,6.1a10.84,10.84,0,0,0,4.288-5.248c.32-.112.448-.24.448-.416,0-.144-.112-.272-.3-.352L86.816,34.4l-.208.944a15.063,15.063,0,0,1-2.832,5.168ZM97.072,28.4a1.672,1.672,0,1,0,1.648,1.664A1.67,1.67,0,0,0,97.072,28.4Zm-.032.768a.9.9,0,1,1-.9.9A.908.908,0,0,1,97.04,29.168Zm17.376,2.752a14.934,14.934,0,0,1-11.344,8.272l-.88-.032.736,1.776c.112.256.256.4.432.4.208,0,.336-.112.464-.4,3.568-.848,5.728-1.872,7.616-3.584a12.688,12.688,0,0,0,3.584-6.176Zm-12.384-1.664a14.4,14.4,0,0,1,4.032,3.632l1.648-1.744a10.023,10.023,0,0,0-5.408-2.48Zm17.632-.192-.8-.16V31.12l.8-.16h7.184a18.668,18.668,0,0,1-9.36,10.656l.32.72a16.555,16.555,0,0,0,7.744-5.072l.064.08a26.254,26.254,0,0,1,4.128,5.088L131.6,40.96a20.4,20.4,0,0,0-5.584-4.272,22.267,22.267,0,0,0,3.264-6.624ZM138.64,41.9a9.823,9.823,0,0,0-4.592-2.912l-.4.528a16.532,16.532,0,0,1,3.44,3.92ZM160.912,31.28h3.6l.672.128V30.384l-.672.128H161.28c.16-.336.24-.576.464-1.184.288-.16.352-.224.352-.368,0-.128-.08-.192-.3-.24l-1.456-.32a13.384,13.384,0,0,1-1.68,4.736l.4.368a6.9,6.9,0,0,0,1.824-2.176Zm1.168,11.7,2.752.016a11.546,11.546,0,0,1,.448-1.648c-3.408.08-3.856.08-6.064.08-3.52,0-4.672-.192-5.584-.944V34.528h-2.64l-.672-.128v1.024l.672-.128h1.056V40.56a15.184,15.184,0,0,1-1.808.656l.576,1.84a.32.32,0,0,0,.272.192c.16,0,.288-.176.368-.528a10.065,10.065,0,0,0,1.664-1.6c1.248,1.424,2.336,1.792,5.616,1.84Zm-5.328-11.3h1.712l.672.128V30.784l-.672.128h-.992V29.056c.208-.144.256-.224.256-.336,0-.144-.112-.224-.336-.224h-1.424v2.416h-1.2l-.672-.128v1.024l.672-.128h.56v.5c-.1,4.48-.448,6.48-1.44,8.032l.5.384c1.52-1.52,2-2.8,2.24-6H157.7a40.313,40.313,0,0,1-.336,4.688c-.1.512-.224.64-.688.656h-.832v.832h1.488c1.44,0,1.536-.32,1.76-6.944h-2.416c.048-.672.048-.9.064-1.952Zm4.848,5.6v2.176c0,.4-.144.528-.592.544h-.944v.832h1.52c1.024,0,1.456-.416,1.456-1.392V37.28h1.424l.672.128V36.384l-.672.128H163.04V35.1a6.2,6.2,0,0,0,1.952-2.352H160.72l-.656-.128v1.024l.656-.128H163.1a7.477,7.477,0,0,1-.576,1.216l-.928-.16v1.936h-1.488l-.672-.128v1.024l.672-.128ZM154.384,30a7.313,7.313,0,0,0-3.28-1.136l-.272.56a10.882,10.882,0,0,1,2.4,2.368Zm17.056.368-2.96.064-1.264-.4.16,1.344,3.328-.08c-.192.224-.448.592-.7.944a9.593,9.593,0,0,0-1.984,5.648A5.749,5.749,0,0,0,169.3,41.7a4.853,4.853,0,0,0,3.632,1.408,5.184,5.184,0,0,0,4.288-1.984,7.189,7.189,0,0,0,1.1-4.08,20.714,20.714,0,0,0-.8-4.96l.112-.032a16.441,16.441,0,0,0,2.96,5.648l.992-2.208a14.771,14.771,0,0,1-4.032-5.5l-1.264.336a31.318,31.318,0,0,1,.512,5.536,9.769,9.769,0,0,1-.8,4.368,3.466,3.466,0,0,1-3.088,1.9c-1.9,0-3.072-1.488-3.072-3.92a8.425,8.425,0,0,1,1.3-4.448,11.577,11.577,0,0,1,1.888-2.448c.528-.1.688-.192.688-.432a.356.356,0,0,0-.208-.32l-1.52-.912Zm10.48-.24a3.307,3.307,0,0,0-1.936-1.728l-.368.3a6.506,6.506,0,0,1,1.088,2.1ZM177.856,28.9a5.817,5.817,0,0,1,.88,2.16l1.2-.528a3.346,3.346,0,0,0-1.664-1.888Zm10.016,3.136v8.88c.016.8.112,1.1.464,1.456s.64.448,1.44.464h3.408c1.28,0,1.824-.56,1.872-1.92l.144-2.3-.88-.08-.112,1.728c-.032.576-.3.8-.928.8H190.5a.655.655,0,0,1-.768-.768v-7.7c.208-.16.256-.224.256-.336,0-.16-.112-.224-.336-.224Zm-2.464,9.088a12.75,12.75,0,0,0,.9-5.1c0-.688-.032-1.2-.1-2.048l-.976-.128a14.008,14.008,0,0,1-1.712,6Zm3.552-11.9a15.466,15.466,0,0,1,3.3,3.2l1.536-1.808a9.851,9.851,0,0,0-4.384-1.952Zm5.584,4.448a29.466,29.466,0,0,1,2,6.56l2.016-1.344a16.288,16.288,0,0,0-3.264-5.536Zm13.28,8.736a11.08,11.08,0,0,0,3.68-1.088,5.865,5.865,0,0,0,3.136-5.328,5.565,5.565,0,0,0-2.736-4.992,8.371,8.371,0,0,0-4.016-.96c-4.192,0-7.168,2.832-7.168,6.8,0,2.416,1.248,4.336,2.832,4.336,1.408,0,2.832-1.5,3.824-4.064a25.559,25.559,0,0,0,1.376-6.032,3.963,3.963,0,0,1,2.112.8,4.9,4.9,0,0,1,1.792,3.968,5.655,5.655,0,0,1-2.256,4.592,9.2,9.2,0,0,1-2.768,1.264Zm-.848-11.392a26.336,26.336,0,0,1-1.936,7.536c-.528,1.072-.96,1.552-1.392,1.552-.656,0-1.232-1.472-1.232-3.136a6.486,6.486,0,0,1,1.536-4.32A4.559,4.559,0,0,1,206.976,31.008Zm17.056.832a47.853,47.853,0,0,0,6.016-.368l.128-1.392-1.152.512a33.707,33.707,0,0,1-4.864.352h-.048c.032-.3.08-.608.192-1.456.224-.144.3-.24.3-.336,0-.16-.208-.32-.448-.336l-1.456-.144c-.032.512-.032.528-.128,1.376-.032.4-.064.656-.08.928h-.24a19.712,19.712,0,0,1-2.848-.16l-1.168-.448.08,1.28a25.993,25.993,0,0,0,3.376.24c.288,0,.432,0,.736-.016l-.016.048-.032.64c-.016.128-.048.688-.08,1.28a6.584,6.584,0,0,0-2.976,1.52,4.649,4.649,0,0,0-1.616,3.52,3.492,3.492,0,0,0,.752,2.272,2.327,2.327,0,0,0,1.68.768,6.912,6.912,0,0,0,4.032-2.208,15.006,15.006,0,0,0,3.312-4.656,3.121,3.121,0,0,1,1.632,2.8,3.77,3.77,0,0,1-.56,1.952,4.372,4.372,0,0,1-1.648,1.584,9.642,9.642,0,0,1-2.864,1.088l.208.736c.8-.112,1.088-.176,1.552-.256a8.06,8.06,0,0,0,3.568-1.552,3.963,3.963,0,0,0,1.6-3.328c0-2.816-2.176-4.592-5.632-4.592a11.447,11.447,0,0,0-1.44.1c.032-.464.064-.944.064-.96l.048-.736Zm-.048,6.624a13.63,13.63,0,0,1-.16-2.384c0-.448,0-.528.032-1.632a8.048,8.048,0,0,1,1.04-.064,9.514,9.514,0,0,1,1.728.16A15.561,15.561,0,0,1,223.984,38.464Zm-1.712-3.632c-.016.464-.016.8-.016,1.056a21.482,21.482,0,0,0,.256,3.744,4.024,4.024,0,0,1-2.144,1.008.793.793,0,0,1-.56-.192,2.284,2.284,0,0,1-.48-1.536,4.24,4.24,0,0,1,1.04-2.8A4.618,4.618,0,0,1,222.272,34.832Zm22.512-4.208c.48-.08.688-.224.688-.48a.524.524,0,0,0-.32-.448l-1.344-.7-.544.5c-.736.064-3.76.144-5.664.144l-1.088-.368.112,1.312c.416.032.64.032,1.136.032,1.392,0,2.72-.048,4.832-.16l-8.08,6.7,1.04,1.28,2.16-1.824a10.557,10.557,0,0,1,4.3-1.072,4.153,4.153,0,0,1,2.256.608,2.216,2.216,0,0,1,.976,1.952,3.029,3.029,0,0,1-.9,2.144,3.308,3.308,0,0,1-1.184.784,5.062,5.062,0,0,0-1.28-1.824,4.105,4.105,0,0,0-2.672-1.088,2.078,2.078,0,0,0-2.288,1.984A2.12,2.12,0,0,0,238,41.872a6.489,6.489,0,0,0,3.424.9,6.99,6.99,0,0,0,4.064-1.248,4.117,4.117,0,0,0,1.7-3.28,3.224,3.224,0,0,0-1.792-2.928,6.88,6.88,0,0,0-3.152-.72,9.074,9.074,0,0,0-2.64.416Zm-2.736,10.768a2.444,2.444,0,0,1-.576.064,6.746,6.746,0,0,1-2.768-.592.95.95,0,0,1-.592-.848c0-.5.416-.832,1.056-.832a2.863,2.863,0,0,1,1.9.784,3.82,3.82,0,0,1,.992,1.424Zm8.736.176c2.8-2.224,4.352-4.992,5.408-9.6.336-.128.48-.288.48-.48,0-.256-.208-.4-.9-.56l-1.584-.4-.048.992a22.935,22.935,0,0,1-3.872,9.616Zm7.76-10.608a29.779,29.779,0,0,1,4.3,10.448l2.1-1.04c-1.168-4.112-3.344-7.808-5.776-9.856Zm22.272.96a14.934,14.934,0,0,1-11.344,8.272l-.88-.032.736,1.776c.112.256.256.4.432.4.208,0,.336-.112.464-.4,3.568-.848,5.728-1.872,7.616-3.584a12.688,12.688,0,0,0,3.584-6.176Zm-12.384-1.664a14.4,14.4,0,0,1,4.032,3.632l1.648-1.744a10.023,10.023,0,0,0-5.408-2.48Zm21.344,3.392V29.856c.256-.16.352-.288.352-.448,0-.176-.16-.32-.4-.336l-1.984-.112.128,1.088V42.832h1.9V34.464a15.834,15.834,0,0,1,5.68,4.208l1.424-1.856a17.054,17.054,0,0,0-7.056-3.168Zm7.856-3.456a3.345,3.345,0,0,0-1.92-1.792l-.384.288a6.347,6.347,0,0,1,1.072,2.128Zm-4.192-1.28a6.583,6.583,0,0,1,.88,2.256l1.28-.592a3.47,3.47,0,0,0-1.744-1.936ZM305.12,43.04a10.263,10.263,0,0,0,5.152-2.16c1.5-1.3,2.048-3.04,2.048-6.544V29.92c.256-.176.352-.3.352-.464a.389.389,0,0,0-.4-.336l-2.016-.112.16,1.088v4.432c-.048,2.992-.464,4.4-1.68,5.632a8.892,8.892,0,0,1-3.776,2.208Zm-2.4-12.672V38.16h1.9V30.208c.256-.192.352-.3.352-.464a.366.366,0,0,0-.4-.336l-2.016-.128ZM14.576,59.92A14.934,14.934,0,0,1,3.232,68.192l-.88-.032.736,1.776c.112.256.256.4.432.4.208,0,.336-.112.464-.4,3.568-.848,5.728-1.872,7.616-3.584a12.688,12.688,0,0,0,3.584-6.176ZM2.192,58.256a14.4,14.4,0,0,1,4.032,3.632l1.648-1.744a10.023,10.023,0,0,0-5.408-2.48Zm22.1.96c.176-.368.3-.656.528-1.216.32-.144.432-.256.432-.448q0-.264-.384-.336l-1.92-.384-.192.992A14.124,14.124,0,0,1,18.544,64.1l.368.544a11.109,11.109,0,0,0,4.9-4.528h4.48a14.119,14.119,0,0,1-4,7.072,15.707,15.707,0,0,1-5.632,2.992l.144.672c3.92-.688,6.272-1.84,8.3-4.064a15.875,15.875,0,0,0,3.456-7.568ZM32.16,58.08a3.254,3.254,0,0,0-1.936-1.68l-.368.3a6.028,6.028,0,0,1,1.088,2.064ZM27.9,56.768a6.944,6.944,0,0,1,.944,2.192l1.232-.576A3.243,3.243,0,0,0,28.352,56.5Zm13.744,11.04h1.7V65.152c1.472-.432,2.224-.608,4.144-1.008a1.834,1.834,0,0,0,.448.08.346.346,0,0,0,.368-.336c0-.1-.048-.176-.16-.368l-.736-1.152-.752.352c-1.952.592-2.624.8-3.344,1.056a2.509,2.509,0,0,0-.112-.72,1.951,1.951,0,0,0-2.112-1.312,5.351,5.351,0,0,0-2.608.688c.544-.816.928-1.44,1.568-2.528l.72-.016c1.68,0,3.36-.08,5.328-.24l.144-1.424-1.232.544c-1.84.16-2.736.208-4.448.24l.656-1.184c.448-.208.512-.272.512-.432s-.128-.256-.4-.336l-1.5-.48-.272.784c-.448.912-.7,1.408-.848,1.648-.88,0-1.472-.016-2.752-.08l-1.04-.448.064,1.328c1.52.08,1.728.08,2.736.1h.48a38.948,38.948,0,0,1-3.648,5.136l1.264,1.04c.672-.9.784-1.024,1.472-1.92a10.53,10.53,0,0,1,1.312-.96,4.215,4.215,0,0,1,2-.56c.784,0,.992.352,1.04,1.76-3.088,1.216-4.4,2.352-4.4,3.808a2.206,2.206,0,0,0,1.44,2.064,10.4,10.4,0,0,0,4.112.56,29.732,29.732,0,0,0,3.648-.192V68.848a25.523,25.523,0,0,1-3.92.336c-2.672,0-3.888-.384-3.888-1.248,0-.784.944-1.488,3.024-2.24ZM59.7,70.176H55.1l-.656-.128v1.024l.656-.128h9.664l.672.128V70.048l-.672.128H61.2V67.424h3.056l.672.128V66.528l-.672.128H61.2V64.528h3.424V57.152h-8.24v7.376H59.7v2.128H57.008l-.672-.128v1.024l.672-.128H59.7Zm0-6.416H57.888V61.152H59.7Zm0-3.376H57.888V57.92H59.7Zm1.5-2.464h1.872v2.464H61.2Zm0,3.232h1.872V63.76H61.2ZM54.144,58.08h1.072l.672.128V57.184l-.672.128H51.168l-.656-.128v1.024l.656-.128h1.36v4.048H51.376L50.72,62v1.024l.656-.128h1.152v4.56c-.752.128-1.216.208-2.128.336l.48,1.648a.3.3,0,0,0,.272.24c.144,0,.224-.1.32-.368a19.26,19.26,0,0,0,4.592-2.08l-.112-.528c-1.2.288-1.424.336-1.808.416V62.9h.9l.672.128V62l-.672.128h-.9Zm15.968.864h-2.1l-.672-.128V59.84l.672-.128h1.856A14.223,14.223,0,0,1,67.12,64.24l.368.512a9.588,9.588,0,0,0,2.624-2.576v3.84h1.456v-4.64l.032.048.032.048A23.4,23.4,0,0,1,72.9,63.728l1.168-1.184a10.124,10.124,0,0,0-2.5-1.824V59.712h1.5l.672.128V58.816l-.672.128h-1.5V57.168c.192-.144.256-.224.256-.336,0-.144-.112-.224-.336-.224H70.112Zm10.912,6.9V57.152H74.192V65.84ZM75.712,59.7V57.92h3.7V59.7Zm0,.768h3.7v1.792h-3.7Zm0,2.56h3.7v2.048h-3.7ZM71.088,66.5v2.9c-.032,1.136.512,1.68,1.664,1.648h3.664c1.12,0,1.6-.448,1.664-1.616l.1-1.36-.784-.08-.064.928c-.048.448-.224.608-.672.608h-3.28c-.448.016-.656-.192-.64-.64V67.056c.208-.16.256-.224.256-.336,0-.16-.112-.224-.336-.224Zm7.36.608a19.433,19.433,0,0,1,1.776,3.808L82.016,69.9A9.738,9.738,0,0,0,79.1,66.768Zm-9.3-.3A8.27,8.27,0,0,1,67.1,69.952l1.728,1.008a7.707,7.707,0,0,0,1.12-3.968Zm4.736-.176a9.783,9.783,0,0,1,1.28,2.3L76.72,67.76a7.327,7.327,0,0,0-2.288-1.552ZM86,59.056H84.384V70.9H86V69.68h4.032V59.056H87.056a8.4,8.4,0,0,0,.928-1.776c.288-.128.4-.24.4-.4,0-.144-.08-.208-.352-.24l-1.76-.24a22.8,22.8,0,0,1-.256,2.544Zm2.416,9.856H86v-4.24h2.416Zm0-5.008H86v-4.08h2.416Zm4.624-4.416a18.418,18.418,0,0,0,.7-1.9c.368-.1.544-.24.544-.432,0-.144-.16-.288-.4-.336l-1.76-.4a24.1,24.1,0,0,1-1.9,6.272l.464.4a9.917,9.917,0,0,0,2-2.832h3.7c-.08,3.28-.24,6.784-.4,8.416-.128,1.456-.32,1.76-1.152,1.776H93.184v.832H95.92c1.312-.016,1.648-.464,1.824-2.448.224-2,.4-5.616.464-9.344ZM91.328,63.6a13.292,13.292,0,0,1,1.952,3.808l1.664-1.328a8.192,8.192,0,0,0-3.1-2.928Zm13.056-4.784h-.128c-.88,0-1.376-.032-2.384-.112l-.928-.368.08,1.28c1.392.08,1.92.1,3.136.1l-.016.048a35.518,35.518,0,0,1-3.472,7.632l1.552.96a45.715,45.715,0,0,0,3.744-8.688c1.072-.064,2.464-.192,3.728-.368l.032-1.3-1.1.512c-1.1.144-1.712.192-2.352.24l.016-.048c.128-.432.144-.48.32-1.056.224-.16.3-.272.3-.4a.341.341,0,0,0-.3-.32l-1.7-.3-.128.944c-.176.608-.24.848-.352,1.248Zm10.528,9.28a10.351,10.351,0,0,0-3.872-2.064v-2.72c.224-.176.3-.272.3-.4,0-.192-.16-.3-.432-.32l-1.568-.032.08,1.392v1.776a8.92,8.92,0,0,0-1.344-.1c-1.984,0-3.312,1.024-3.312,2.576a2.421,2.421,0,0,0,.64,1.648,4.3,4.3,0,0,0,3.008,1.088,3.2,3.2,0,0,0,2.032-.608,2.169,2.169,0,0,0,.592-1.664v-1.12a10.4,10.4,0,0,1,2.8,2.144Zm-5.488.4c0,.736-.432,1.088-1.344,1.088-1.344,0-2.336-.624-2.336-1.472a1,1,0,0,1,.272-.7,2.672,2.672,0,0,1,1.9-.544,5.413,5.413,0,0,1,1.5.208Zm5.68-7.856a9.293,9.293,0,0,0-3.216-.528,9.014,9.014,0,0,0-3.024.48l.048.608a12.672,12.672,0,0,1,5.184,1.088ZM132,58.128a3.364,3.364,0,0,0-1.968-1.728l-.384.32a6.212,6.212,0,0,1,1.136,2.08ZM117.552,69.872c2.736-2.16,4.416-5.12,5.392-9.584.352-.144.5-.3.5-.512,0-.192-.16-.352-.416-.416l-2.08-.512-.048.96a22.754,22.754,0,0,1-3.872,9.616Zm7.776-10.608a33.961,33.961,0,0,1,4.112,10.464l2.16-1.072a21.8,21.8,0,0,0-5.664-9.808Zm2.448-2.288a6.627,6.627,0,0,1,1.008,2.272L130,58.624a3.271,3.271,0,0,0-1.808-1.936Zm17.712.72h-8.72l-.8-.16v1.216l.8-.16h8.72l.8.16V57.536ZM135.5,61.44l-.8-.16V62.5l.8-.16h9.52c-.736,3.7-3.552,6.4-7.92,7.616l.192.688a12.374,12.374,0,0,0,6.416-2.384,9.839,9.839,0,0,0,3.68-6.816Zm28.832-1.52a14.934,14.934,0,0,1-11.344,8.272l-.88-.032.736,1.776c.112.256.256.4.432.4.208,0,.336-.112.464-.4,3.568-.848,5.728-1.872,7.616-3.584a12.688,12.688,0,0,0,3.584-6.176Zm-12.384-1.664a14.4,14.4,0,0,1,4.032,3.632l1.648-1.744a10.023,10.023,0,0,0-5.408-2.48Zm17.632-.192-.8-.16V59.12l.8-.16h7.184a18.668,18.668,0,0,1-9.36,10.656l.32.72a16.555,16.555,0,0,0,7.744-5.072l.064.08a26.254,26.254,0,0,1,4.128,5.088l1.856-1.472a20.4,20.4,0,0,0-5.584-4.272,22.267,22.267,0,0,0,3.264-6.624Zm28.736,4.32a3.447,3.447,0,0,0-1.984-1.728l-.368.32a6.422,6.422,0,0,1,1.136,2.1Zm-4.272-1.136a6.945,6.945,0,0,1,1.008,2.272l1.216-.64a3.288,3.288,0,0,0-1.808-1.92Zm-10.064-3.2.128,1.376,9.328-.368a.339.339,0,0,0-.112.048,7.869,7.869,0,0,0-3.12,2.016,5.122,5.122,0,0,0-1.424,3.664,5.218,5.218,0,0,0,2.384,4.512,8.419,8.419,0,0,0,3.488,1.248l.72-2.1a6.815,6.815,0,0,1-2.88-.848,3.558,3.558,0,0,1-1.888-3.28,5.018,5.018,0,0,1,3.184-4.592,8.564,8.564,0,0,1,3.664-.8l.064-1.36-1.2.448-11.3.368Zm18.528.08c-.016-.224-.032-.352-.08-.688h-.768a4.946,4.946,0,0,1-1.5,2.8l1.184,1.456a3.992,3.992,0,0,0,1.152-2.8H212.88a9.539,9.539,0,0,1-.7,1.728l.464.352a5.8,5.8,0,0,0,2.544-2.848H208.56V56.96c.208-.16.256-.224.256-.336,0-.144-.112-.224-.336-.224h-1.84v1.728Zm11.536,8.56.672.128V65.792l-.672.128h-5.9c.048-.288.144-1.12.176-1.728h4.016l.672.128V63.3l-.672.128h-3.968c.032-.24.048-.976.064-1.552h4.528l.672.128V60.976l-.672.128h-4.512V59.968c.208-.16.256-.224.256-.336,0-.144-.112-.224-.336-.224h-1.632v1.7h-4.064l-.656-.128V62l.656-.128h4.048v.048c-.016.432-.032.736-.032.9l-.048.608h-3.616l-.672-.128V64.32l.672-.128h3.568c-.064.752-.144,1.392-.208,1.728h-5.072l-.672-.128v1.024l.672-.128h4.864c-.544,1.776-2.656,3.168-6.016,4l.176.752c4.176-.576,6.656-2,7.472-4.272,1.2,2.224,3.2,3.488,6.592,4.128.336-.864.384-1.008.8-1.9-3.376-.352-5.664-1.264-6.88-2.7Zm5.04.768c-1.408.224-1.408.224-2.288.352l.5,1.648a.272.272,0,0,0,.256.24c.144,0,.224-.1.32-.368a23.878,23.878,0,0,0,5.04-2.048l-.176-.576c-.992.224-1.424.32-2.016.448V62.9h1.056l.672.128V62l-.672.128H220.72V58.08h1.232l.672.128V57.184l-.672.128h-4.3l-.688-.128v1.024l.688-.128h1.44v4.048H217.84L217.184,62v1.024l.656-.128h1.248Zm9.792-1.424h1.872V56.944h-7.616v9.088h1.424c-.24,2.56-1.584,3.9-4.784,4.784l.176.624c4.192-.656,6.016-2.24,6.24-5.408h1.072v3.456c-.032,1.04.48,1.552,1.536,1.52h1.488c.976,0,1.408-.416,1.44-1.424l.112-1.984-.816-.1-.112,1.536c-.016.336-.144.432-.624.448h-.912c-.352.016-.5-.16-.5-.512Zm.24-6.368H224.7V57.712h4.416Zm0,.768v1.936H224.7V60.432Zm0,2.7v2.128H224.7V63.136Zm7.392-6.192.1,1.12-.128,5.3c-.016.56-.016.976-.016,1.36,0,2.64.32,3.952,1.168,4.784a5.131,5.131,0,0,0,3.52,1.264,5.8,5.8,0,0,0,5.04-2.656,9,9,0,0,0,1.12-3.248l-.72-.224a7.881,7.881,0,0,1-1.3,2.544,5.212,5.212,0,0,1-4.08,1.968,2.918,2.918,0,0,1-2.24-.96,4.482,4.482,0,0,1-.688-2.944c0-.544,0-1.184.016-1.76l.144-5.584c.208-.192.288-.32.288-.464,0-.224-.192-.368-.512-.384Zm14.192,1.1.128,1.376,9.376-.384a10.339,10.339,0,0,0-2.176,1.12,5.409,5.409,0,0,0-2.528,4.624,5.215,5.215,0,0,0,2.624,4.656,8.231,8.231,0,0,0,3.248,1.1l.72-2.1a7.04,7.04,0,0,1-3.008-.9,3.648,3.648,0,0,1-1.76-3.3,4.953,4.953,0,0,1,2.8-4.336,8.632,8.632,0,0,1,4.048-.992l.064-1.36-1.2.448-11.3.368ZM273.28,66.1c-.432,1.5-.96,2.5-1.344,2.5-.464,0-1.2-1.392-1.6-2.976a28.039,28.039,0,0,1-.464-5.664v-.784c.288-.208.384-.336.384-.48,0-.192-.192-.336-.464-.352l-1.776-.1.08,1.136c.016,2.24.048,3.248.144,4.4a12.2,12.2,0,0,0,1.216,4.752c.608,1.168,1.424,1.84,2.208,1.84,1.024,0,1.888-1.392,2.464-4.016Zm8.224.544a11.99,11.99,0,0,0-4.272-7.664l-.56.384a19.938,19.938,0,0,1,2.864,8.1ZM292,63.168a38.514,38.514,0,0,0,4.816-.352l.032-1.328-1.184.528c-1.408.144-2.256.208-3.68.256l-.048-2.368H292a32.312,32.312,0,0,0,5.264-.448l.048-1.3-1.1.5a42.976,42.976,0,0,1-4.288.352l-.016-1.36c.224-.192.32-.352.32-.5,0-.192-.208-.32-.56-.336l-1.648-.08.128.976.032,1.344h-.064l-.928.016c-.384,0-.752-.016-1.488-.048-.288,0-1.2-.032-2.128-.064l-1.184-.4.1,1.264c1.36.1,2.608.144,4.512.144.592,0,.864,0,1.2-.016l.032,2.368c-.176.016-.3.016-.608.016-1.232,0-2.64-.048-3.728-.112l-1.072-.4.1,1.264c1.328.112,2.176.144,3.232.144.384,0,.624,0,2.1-.032l.048,2.4c-.56-.048-.864-.064-1.248-.064a6.76,6.76,0,0,0-3.024.608,2.293,2.293,0,0,0-1.152,2.016c0,1.616,1.664,2.72,4.112,2.72a4.7,4.7,0,0,0,2.016-.416,1.728,1.728,0,0,0,.88-1.072,7.38,7.38,0,0,0,.192-2.016,12.637,12.637,0,0,1,3.9,2.64L297.2,68.5a12.86,12.86,0,0,0-5.152-2.656Zm-1.68,4.144a.282.282,0,0,0,.016.1v.24c-.032.96-.032.976-.208,1.232a1.852,1.852,0,0,1-1.6.624,3.725,3.725,0,0,1-2-.56,1.031,1.031,0,0,1-.528-.9,1.071,1.071,0,0,1,.512-.88,4.486,4.486,0,0,1,2.144-.464,6.514,6.514,0,0,1,1.648.224Zm-279.9,19.6V85.536c.24-.16.336-.272.336-.416,0-.192-.176-.336-.416-.352l-1.728-.1.112,1.136v1.168c-.64.032-2.128.064-2.848.064-.944,0-1.84-.016-4.1-.112L.8,86.56l.08,1.232c1.312.1,2.848.144,4.752.144.944,0,1.808-.016,2.96-.048l.128-.016v2.192a2.546,2.546,0,0,0-1.872-.752,3.218,3.218,0,0,0-3.232,3.3A2.752,2.752,0,0,0,4.96,95.1a3.444,3.444,0,0,0,1.68.464,2.975,2.975,0,0,0,2-.784c-.352,2.048-1.744,3.2-4.464,3.7l.128.688c4.176-.3,6.128-2.064,6.112-5.5v-5.84h.432c2.16-.064,3.376-.128,4.336-.256l.048-1.248-1.04.384c-1.392.112-2.128.16-3.36.208Zm-1.7,6.656a2.1,2.1,0,0,1-1.68.928c-.992,0-1.648-.8-1.648-1.984a1.906,1.906,0,0,1,1.792-2.128,1.821,1.821,0,0,1,1.536.864Zm11.072.72a2.576,2.576,0,1,0,2.544,2.576A2.582,2.582,0,0,0,19.792,94.288Zm-.064.864a1.712,1.712,0,1,1-1.7,1.712A1.718,1.718,0,0,1,19.728,95.152Zm15.68,3.856C41.9,97.984,45.664,94.24,47.3,87.184H40.768c.144-.32.24-.56.464-1.072.3-.144.416-.272.416-.448,0-.192-.128-.288-.4-.352l-1.856-.384-.16.864a17.172,17.172,0,0,1-4.3,6.8l.416.512A12.007,12.007,0,0,0,40.3,88.08h4.8a14.981,14.981,0,0,1-1.968,4.528A8.524,8.524,0,0,0,39.184,90.8l-.448.56A11.274,11.274,0,0,1,41.984,94.1a14.008,14.008,0,0,1-6.8,4.176ZM48.8,86.08a3.307,3.307,0,0,0-1.936-1.728l-.384.32a6.214,6.214,0,0,1,1.1,2.1Zm-4.24-1.3a7,7,0,0,1,.976,2.16l1.216-.608a3.213,3.213,0,0,0-1.776-1.824Zm15.264,4.8a37.5,37.5,0,0,0,3.344-2.9c.464-.048.656-.176.656-.432a.614.614,0,0,0-.32-.448L61.952,84.8l-.592.9a32.171,32.171,0,0,1-10.352,7.328l.272.672a23.773,23.773,0,0,0,6.64-2.784V98.9h1.9ZM70.08,98.432a15.721,15.721,0,0,0,6.768-2.416A12.033,12.033,0,0,0,81.6,89.7l-.608-.3a13.486,13.486,0,0,1-9.056,6.672V86.4c.256-.176.352-.3.352-.464A.372.372,0,0,0,71.9,85.6l-1.984-.112.16,1.088ZM90.912,87.216A12.9,12.9,0,0,0,91.456,86c.32-.144.448-.256.448-.448,0-.176-.144-.288-.4-.336l-1.92-.384-.192.992A14.213,14.213,0,0,1,85.184,92.1l.368.544a10.98,10.98,0,0,0,4.88-4.528h4.512a14.639,14.639,0,0,1-3.408,6.512,14.832,14.832,0,0,1-6.224,3.552l.144.672A15.022,15.022,0,0,0,92.08,96.3c2.592-1.888,4.368-5.04,5.136-9.088Zm15.856-1.36c.256-.16.352-.288.352-.448,0-.176-.16-.32-.4-.336l-1.984-.112.128,1.088V98.832h1.9V90.48a15.942,15.942,0,0,1,5.648,4.192l1.408-1.856a16.584,16.584,0,0,0-7.056-3.168Zm14.256.96H120.9c-.88,0-1.376-.032-2.384-.112l-.928-.368.08,1.28c1.392.08,1.92.1,3.136.1l-.016.048a35.518,35.518,0,0,1-3.472,7.632l1.552.96a45.715,45.715,0,0,0,3.744-8.688c1.072-.064,2.464-.192,3.728-.368l.032-1.3-1.1.512c-1.1.144-1.712.192-2.352.24l.016-.048c.128-.432.144-.48.32-1.056.224-.16.3-.272.3-.4a.341.341,0,0,0-.3-.32l-1.7-.3-.128.944c-.176.608-.24.848-.352,1.248Zm10.528,9.28a10.351,10.351,0,0,0-3.872-2.064v-2.72c.224-.176.3-.272.3-.4,0-.192-.16-.3-.432-.32l-1.568-.032.08,1.392v1.776a8.92,8.92,0,0,0-1.344-.1c-1.984,0-3.312,1.024-3.312,2.576a2.421,2.421,0,0,0,.64,1.648,4.3,4.3,0,0,0,3.008,1.088,3.2,3.2,0,0,0,2.032-.608,2.169,2.169,0,0,0,.592-1.664v-1.12a10.4,10.4,0,0,1,2.8,2.144Zm-5.488.4c0,.736-.432,1.088-1.344,1.088-1.344,0-2.336-.624-2.336-1.472a1,1,0,0,1,.272-.7,2.672,2.672,0,0,1,1.9-.544,5.413,5.413,0,0,1,1.5.208Zm5.68-7.856a9.293,9.293,0,0,0-3.216-.528,9.014,9.014,0,0,0-3.024.48l.048.608a12.672,12.672,0,0,1,5.184,1.088Zm4.56-2.576-.8-.16V87.12l.8-.16h7.184a18.668,18.668,0,0,1-9.36,10.656l.32.72a16.555,16.555,0,0,0,7.744-5.072l.064.08a26.254,26.254,0,0,1,4.128,5.088l1.856-1.472a20.4,20.4,0,0,0-5.584-4.272,22.267,22.267,0,0,0,3.264-6.624Zm27.68,5.136.8.16V90.144l-.8.16H151.536l-.8-.16V91.36l.8-.16h5.424a7.241,7.241,0,0,1-.784,3.9,7.838,7.838,0,0,1-4.5,3.12l.208.736c5.312-1.152,7.1-3.12,7.056-7.76Zm-2.08-5.328h-8.4l-.8-.16v1.216l.8-.16h8.4l.8.16V85.712Zm13.216,3.76c.224-.192.32-.336.32-.464,0-.16-.176-.3-.416-.32l-1.952-.144.144,1.008v.976c-.032,2.64-.464,4-1.616,5.168a9.646,9.646,0,0,1-3.376,2.128l.224.624c3.856-.768,6.144-2.816,6.512-5.84a8.58,8.58,0,0,0,6.5-6.7H168.72l-.8-.16V87.12l.8-.16h10.336a8.39,8.39,0,0,1-4,4.96c.032-.288.064-1.008.064-1.344Zm13.52,9.408a10.263,10.263,0,0,0,5.152-2.16c1.5-1.3,2.048-3.04,2.048-6.544V85.92c.256-.176.352-.3.352-.464a.389.389,0,0,0-.4-.336l-2.016-.112.16,1.088v4.432c-.048,2.992-.464,4.4-1.68,5.632a8.892,8.892,0,0,1-3.776,2.208Zm-2.4-12.672V94.16h1.9V86.208c.256-.192.352-.3.352-.464a.366.366,0,0,0-.4-.336l-2.016-.128Zm28.016,1.552a14.934,14.934,0,0,1-11.344,8.272l-.88-.032.736,1.776c.112.256.256.4.432.4.208,0,.336-.112.464-.4,3.568-.848,5.728-1.872,7.616-3.584a12.688,12.688,0,0,0,3.584-6.176Zm-12.384-1.664a14.4,14.4,0,0,1,4.032,3.632l1.648-1.744a10.023,10.023,0,0,0-5.408-2.48Zm22.1.96c.176-.368.3-.656.528-1.216.32-.144.432-.256.432-.448q0-.264-.384-.336l-1.92-.384-.192.992a14.124,14.124,0,0,1-4.208,6.272l.368.544a11.109,11.109,0,0,0,4.9-4.528h4.48a14.119,14.119,0,0,1-4,7.072,15.707,15.707,0,0,1-5.632,2.992l.144.672c3.92-.688,6.272-1.84,8.3-4.064a15.875,15.875,0,0,0,3.456-7.568Zm7.872-1.136A3.254,3.254,0,0,0,229.9,84.4l-.368.3a6.028,6.028,0,0,1,1.088,2.064Zm-4.256-1.312a6.944,6.944,0,0,1,.944,2.192l1.232-.576a3.243,3.243,0,0,0-1.728-1.888ZM247.6,86.992l.672.128V86.1l-.672.128h-3.856c-.016-.368-.032-.608-.048-1.2.224-.16.272-.224.272-.336,0-.16-.112-.224-.352-.224H242.16c.032.9.032,1.1.08,1.76h-7.792v1.84c0,3.5-.256,5.12-1.008,6.576l.48.448c1.632-1.6,2.064-3.088,2.1-7.024V86.992H242.3a12.442,12.442,0,0,0,1.408,5.232,13.5,13.5,0,0,1-2.048,2l.336.48a9.71,9.71,0,0,0,2.352-1.568,4.531,4.531,0,0,0,2.816,1.632c.416,0,.72-.272.928-.864a10.525,10.525,0,0,0,.384-2.448l-.736-.1c-.176,1.36-.32,1.76-.624,1.76a2.818,2.818,0,0,1-1.168-.608,4.189,4.189,0,0,1-.5-.528,13.094,13.094,0,0,0,1.9-3.072c.3-.08.416-.16.416-.336a.283.283,0,0,0-.192-.256l-1.44-.576a14.1,14.1,0,0,1-1.424,3.072,11.238,11.238,0,0,1-.912-3.824Zm-10.976,6.72h5.008V90.224h-5.008ZM238,92.944V90.992h2.256v1.952Zm3.216-4.7h-4.1l-.672-.128v1.024l.672-.128h4.1l.672.128V88.112Zm3.68,6.96a19.293,19.293,0,0,1,1.776,3.712l1.744-.976a10.215,10.215,0,0,0-2.864-3.056Zm-9.344-.4a8.339,8.339,0,0,1-2.048,3.152l1.728,1.008a8.68,8.68,0,0,0,1.12-3.968Zm8.928-10a7.98,7.98,0,0,1,1.28,1.344l1.568-.848a4.737,4.737,0,0,0-2.352-.752Zm-6.992,9.7v2.9c-.032,1.136.512,1.68,1.664,1.648h3.68c1.1.016,1.584-.432,1.648-1.552l.1-1.424-.784-.08-.064.912c-.048.464-.208.624-.688.624h-3.264c-.448.016-.656-.192-.64-.64V95.056c.208-.16.256-.224.256-.336,0-.16-.112-.224-.336-.224Zm2.736.144a11.364,11.364,0,0,1,1.264,2.3l1.488-1.12a7.322,7.322,0,0,0-2.256-1.552Zm19.9.928h2.3V89.392l.5.32a5.829,5.829,0,0,0,2.176-2.864h-3.776a9.833,9.833,0,0,0,1.584-1.344c.384-.048.528-.128.528-.32q0-.192-.384-.288l-1.76-.48a13.453,13.453,0,0,1-1.04,2.432h-2.64l1.6-.656a5.343,5.343,0,0,0-2.144-1.76l-.64.336a10.454,10.454,0,0,1,.928,2.032l.016.048h-3.552l1.6-.656a5.593,5.593,0,0,0-2.128-1.728l-.64.32a10.2,10.2,0,0,1,.9,2.016l.016.048h-1.232c-.016-.192-.032-.336-.08-.7H251.5a4.59,4.59,0,0,1-1.424,2.624l1.232,1.328a3.709,3.709,0,0,0,1.024-2.48h10.608a8.964,8.964,0,0,1-.512,1.408v-.192h-9.84v6.736h2.144c-.192,1.664-1.664,2.64-4.656,3.1l.144.656c4.288-.224,6.064-1.28,6.3-3.76h1.952v1.84a1.406,1.406,0,0,0,1.648,1.648h3.12c1.168,0,1.664-.448,1.744-1.6l.112-1.5-.832-.064-.064.9c-.048.592-.288.816-.864.816h-2.592c-.432.016-.64-.192-.624-.64Zm.672-4.832h-6.576V89.6H260.8Zm0,.768V92.72h-6.576V91.5Zm0,1.984V94.8h-6.576V93.488Zm6.288-4.224.288,1.088c.048.208.16.336.288.336.144,0,.224-.08.352-.32a19.639,19.639,0,0,1,2.128-.528l.048-.016a32.415,32.415,0,0,1-3.04,7.776l1.44.848A32.117,32.117,0,0,0,272,89.536a14.425,14.425,0,0,1,1.776-.16c.8,0,1.088.4,1.088,1.472a18.36,18.36,0,0,1-.768,5.5c-.288.88-.624,1.312-1.008,1.312-.432,0-.912-.256-1.76-.944l-.464.832a5.558,5.558,0,0,0,.752.624,3.282,3.282,0,0,0,1.984.848c.832,0,1.44-.48,1.936-1.52a15.594,15.594,0,0,0,1.056-5.744,4.166,4.166,0,0,0-.528-2.448,2.772,2.772,0,0,0-2.352-.832c-.48,0-.944.016-1.488.064.144-.656.272-1.3.512-2.576.224-.112.32-.208.32-.352s-.144-.272-.352-.32l-1.648-.336-.032.544c-.208,1.392-.368,2.288-.576,3.232-.624.08-1.312.192-3.024.512Zm14.672-3.136a3.34,3.34,0,0,0-1.984-1.728l-.368.32a6.506,6.506,0,0,1,1.136,2.08Zm-4.688,1.888a18.314,18.314,0,0,1,2.544,7.264l1.872-.816c-.64-3.1-2.144-5.728-3.92-6.8Zm.464-3.04a6.87,6.87,0,0,1,1.008,2.272l1.216-.624a3.322,3.322,0,0,0-1.808-1.936ZM288.4,97.9a9.823,9.823,0,0,0-4.592-2.912l-.4.528a16.532,16.532,0,0,1,3.44,3.92Zm14.3-11.84-.8-.16V87.12l.8-.16h7.184a18.668,18.668,0,0,1-9.36,10.656l.32.72a16.555,16.555,0,0,0,7.744-5.072l.064.08a26.254,26.254,0,0,1,4.128,5.088l1.856-1.472a20.4,20.4,0,0,0-5.584-4.272,22.267,22.267,0,0,0,3.264-6.624ZM8.928,117.12h4.656l.8.16v-1.216l-.8.16H8.928v-2.192c.256-.176.352-.3.352-.464a.372.372,0,0,0-.384-.336l-1.984-.112.16,1.088v2.016H2.144l-.8-.16v1.216l.8-.16H7.072v8c0,.576-.24.816-.816.816H4.608v.9H7.552c.96,0,1.376-.416,1.376-1.424Zm1.3,1.808a20.708,20.708,0,0,1,2.944,6.112l1.9-.992a11.824,11.824,0,0,0-4.352-5.5Zm-9.248,6.1a10.84,10.84,0,0,0,4.288-5.248c.32-.112.448-.24.448-.416,0-.144-.112-.272-.3-.352L3.616,118.4l-.208.944a15.063,15.063,0,0,1-2.832,5.168Zm12.9-12.624a1.672,1.672,0,1,0,1.648,1.664A1.67,1.67,0,0,0,13.872,112.4Zm-.032.768a.9.9,0,1,1-.9.9A.908.908,0,0,1,13.84,113.168Zm17.584,6.256-13.36-.592v2.112l13.36-.608ZM47.5,119.2l.8.16v-1.216l-.8.16H35.056l-.8-.16v1.216l.8-.16H40.48a7.241,7.241,0,0,1-.784,3.9,7.838,7.838,0,0,1-4.5,3.12l.208.736c5.312-1.152,7.1-3.12,7.056-7.76Zm-2.08-5.328h-8.4l-.8-.16v1.216l.8-.16h8.4l.8.16v-1.216ZM57.7,127.024h1.728v-7.056a28.782,28.782,0,0,0,2.224-2.064c.352-.032.5-.112.5-.3,0-.112-.064-.192-.24-.32l-1.408-.992-.448.7a23.3,23.3,0,0,1-7.584,5.888l.208.592a15.662,15.662,0,0,0,5.024-2.208ZM71.1,114.816h-.128c-.88,0-1.376-.032-2.384-.112l-.928-.368.08,1.28c1.392.08,1.92.1,3.136.1l-.016.048a35.518,35.518,0,0,1-3.472,7.632l1.552.96a45.715,45.715,0,0,0,3.744-8.688c1.072-.064,2.464-.192,3.728-.368l.032-1.3-1.1.512c-1.1.144-1.712.192-2.352.24l.016-.048c.128-.432.144-.48.32-1.056.224-.16.3-.272.3-.4a.341.341,0,0,0-.3-.32l-1.7-.3-.128.944c-.176.608-.24.848-.352,1.248Zm10.528,9.28a10.351,10.351,0,0,0-3.872-2.064v-2.72c.224-.176.3-.272.3-.4,0-.192-.16-.3-.432-.32l-1.568-.032.08,1.392v1.776a8.92,8.92,0,0,0-1.344-.1c-1.984,0-3.312,1.024-3.312,2.576a2.421,2.421,0,0,0,.64,1.648,4.3,4.3,0,0,0,3.008,1.088,3.2,3.2,0,0,0,2.032-.608,2.169,2.169,0,0,0,.592-1.664v-1.12a10.4,10.4,0,0,1,2.8,2.144Zm-5.488.4c0,.736-.432,1.088-1.344,1.088-1.344,0-2.336-.624-2.336-1.472a1,1,0,0,1,.272-.7,2.672,2.672,0,0,1,1.9-.544,5.413,5.413,0,0,1,1.5.208Zm5.68-7.856a9.293,9.293,0,0,0-3.216-.528,9.014,9.014,0,0,0-3.024.48l.048.608a12.672,12.672,0,0,1,5.184,1.088Zm6.144,10.784a12.176,12.176,0,0,0,5.328-2,12.275,12.275,0,0,0,4.672,1.9,13.438,13.438,0,0,1,.752-1.776,14.67,14.67,0,0,1-4.192-1.1,13.431,13.431,0,0,0,2.832-3.7h-5.3a10.5,10.5,0,0,0,.528-.912c.288-.08.416-.192.416-.352,0-.112-.112-.208-.3-.256l-1.52-.416A12.955,12.955,0,0,1,87.68,124l.4.576a8.9,8.9,0,0,0,2.848-2.272A6.405,6.405,0,0,0,92.24,124.5a13.126,13.126,0,0,1-4.48,2.272Zm3.5-5.792.048-.064.032-.048h3.312a11.193,11.193,0,0,1-1.712,2.16,5.585,5.585,0,0,1-1.744-1.952Zm3.44-5.52c.32-.048.416-.08.9-.176l.288-.064c.272.368.416.592.752,1.136l1.52-1.2a10.671,10.671,0,0,0-3.488-2.368l-.528.448a11.28,11.28,0,0,1,1.216,1.3h-.112c-1.168.064-1.92.1-3.36.1l-.624.016a19.013,19.013,0,0,0,1.568-1.952c.3-.064.432-.16.432-.336,0-.144-.112-.224-.368-.272l-1.7-.336a16.165,16.165,0,0,1-1.04,2.848l-.016.048a2.584,2.584,0,0,1-.5.032c-.3,0-.3,0-1.712-.032l.368,1.472c.048.176.144.272.272.272s.24-.08.368-.32l1.264-.08a3.583,3.583,0,0,1-2.576,3.072l.224.656c2.528-.592,3.648-1.68,3.92-3.744v-.08L92,116.5c.48-.048,1.28-.144,1.456-.176v2.048a1.2,1.2,0,0,0,1.392,1.392h1.984a1.21,1.21,0,0,0,1.424-1.312l.08-1.248-.752-.064-.064.752c-.016.336-.16.48-.512.48H95.424a.433.433,0,0,1-.512-.512ZM85.6,127.328h1.584V116c.352-.912.512-1.328.88-2.5.272-.064.4-.176.4-.352a.322.322,0,0,0-.272-.3l-1.744-.448a34.621,34.621,0,0,1-2.768,8.768l.48.4a11.286,11.286,0,0,0,1.44-2.16Zm25.232-11.392a16.624,16.624,0,0,0,.832-2.448c.336-.1.464-.208.464-.416q0-.264-.336-.336l-1.616-.336a21.2,21.2,0,0,1-1.968,6.56l.464.4a9.717,9.717,0,0,0,1.184-1.536,15.229,15.229,0,0,0,1.184,5.584,9.506,9.506,0,0,1-3.472,3.472l.32.56a8.834,8.834,0,0,0,3.856-2.736,8.979,8.979,0,0,0,2.7,2.672c.4-.8.464-.912.912-1.68a9.029,9.029,0,0,1-2.688-2.368,14.376,14.376,0,0,0,1.52-6.176l.016-.448h.416l.672.128v-1.024l-.672.128Zm-.336.768h2.176a16.84,16.84,0,0,1-.9,5.152,15.388,15.388,0,0,1-1.264-5.1Zm-8,8.048h3.744c-.144,1.392-.224,1.552-.8,1.568h-.992v.832h1.536c1.248-.048,1.552-.48,1.7-2.4h.7l.672.128v-1.024l-.672.128h-.656v-.048l.016-.256c.064-.784.1-1.568.128-2.512l.016-.176h.656l.672.128V120.1l-.672.128h-.64l.048-1.248.048-1.248.016-1.168H102.1a12.749,12.749,0,0,0,.96-1.456h5.152l.672.128v-1.024l-.672.128H103.44c.176-.352.24-.528.416-.96.32-.128.432-.224.432-.384,0-.144-.112-.224-.416-.288l-1.488-.3a19.144,19.144,0,0,1-2.064,5.152l.448.384a7.7,7.7,0,0,0,1.088-1.072l-.032.64-.048.624-.16,2.048v.048h-.624l-.656-.128v1.024l.656-.128h.544c-.16,1.552-.3,2.608-.624,4.784h1.44Zm.464-4.528c.08-1.008.112-1.456.192-2.9h1.12l-.016.432c-.016.832-.032,1.088-.112,2.464Zm2.4,0c.048-.832.064-1.376.112-2.432l.016-.464h1.12l-.016.656-.048,1.12-.048,1.12Zm-1.264.768c-.112,1.216-.192,2.208-.288,2.992h-1.216c.112-.8.208-1.776.3-2.992Zm2.368,0v.16c-.048.992-.1,1.856-.16,2.832h-1.248l.016-.256c.112-.976.176-1.712.24-2.736Zm20.064-4v3.824H124.24l-.672-.128v1.024l.672-.128h2.288v4.384h-3.984l-.672-.128v1.024l.672-.128h8.688l.672.128V125.84l-.672.128h-2.944v-4.384h2.08l.672.128v-1.024l-.672.128h-2.08v-3.824H130.9l.672.128V116.1l-.672.128h-2.608v-3.1c.208-.16.256-.224.256-.336,0-.144-.112-.224-.336-.224h-1.68v3.664h-1.84c.112-.384.192-.768.4-1.664.256-.1.368-.208.368-.4,0-.16-.112-.272-.352-.32l-1.664-.352a24.675,24.675,0,0,1-1.52,7.216l.56.384a12.532,12.532,0,0,0,1.984-4.1Zm-5.616-1.888a13.472,13.472,0,0,1,.816,2.736l1.184-1.312a4.284,4.284,0,0,0-1.616-1.744Zm-2.864,5.7a9.325,9.325,0,0,0,.528-3.568c0-.816-.016-1.392-.1-2.416h-.768a15.426,15.426,0,0,1-.752,4.528Zm1.2-8.3v14.832h1.568V113.056c.192-.144.256-.224.256-.336,0-.144-.112-.224-.336-.224Zm21.1,1.168c.208-.176.3-.32.3-.464a.365.365,0,0,0-.4-.32h-1.968l.3,1.072.992,4.736c-2.9,1.472-4.112,2.8-4.112,4.464a3.032,3.032,0,0,0,2.016,2.864,12.981,12.981,0,0,0,4.608.608,35.788,35.788,0,0,0,4.464-.256v-2a25.29,25.29,0,0,1-4.816.432,9.885,9.885,0,0,1-4.256-.624,1.343,1.343,0,0,1-.736-1.152c0-.928.96-1.9,2.672-2.768a35.2,35.2,0,0,1,6.544-2.4,1.127,1.127,0,0,0,.464.128.329.329,0,0,0,.32-.272.737.737,0,0,0-.1-.288l-.72-1.584-.688.5c-2.464.912-2.928,1.088-4.048,1.584Zm16.192,2.416h-4.48v5.9h4.7v1.6h-5.856l-.672-.128v1.024l.672-.128h5.856v3.088h1.84v-3.088h6l.672.128v-1.024l-.672.128h-6v-1.6h4.8v-5.9h-5.024v-1.52h5.28l.656.128v-1.024l-.656.128h-5.28v-.832c.208-.16.256-.224.256-.336,0-.144-.112-.224-.336-.224h-1.76Zm-2.752,5.136V119.36h7.888v1.856Zm0-4.368h7.888v1.744h-7.888Zm21.792-.992h1.36l.016.048a18.355,18.355,0,0,0,.864,5.584,14.065,14.065,0,0,1-2.688,2.752l.384.512a10.474,10.474,0,0,0,2.8-2.112c.656,1.328,1.392,2.08,2.048,2.08.336,0,.64-.288.9-.9a7.9,7.9,0,0,0,.464-2.416l-.736-.176c-.128,1.36-.272,1.9-.5,1.9-.256,0-.72-.688-1.152-1.744a15.985,15.985,0,0,0,1.728-3.216c.272-.1.368-.192.368-.352,0-.112-.08-.208-.24-.256l-1.312-.448a12.4,12.4,0,0,1-1.024,2.672l-.016.048a20.826,20.826,0,0,1-.448-3.984h2.416l.672.128V114.96l-.672.128h-2.448c-.016-.544-.016-1.024-.016-1.488v-.56c.176-.144.224-.208.224-.32,0-.16-.1-.224-.336-.224H176.9v1.1c0,.24,0,.832.016,1.488H174.1v6.96c-.272.128-.592.256-1.344.56l.592,1.28c.064.144.16.24.256.24.16,0,.256-.128.336-.416a18.574,18.574,0,0,0,3.376-2.688l-.224-.528c-.656.4-.944.576-1.5.864Zm-4.08,5.792h1.168l.672.128v-1.024l-.672.128H171.5v-2.272h1.456l.672.128v-1.024l-.672.128h-1.5v-2.288h1.168l.672.128v-1.024l-.672.128h-1.168v-1.728c.208-.144.272-.224.272-.336,0-.16-.112-.224-.368-.224h-1.488v2.288h-1.664l-.672-.128v1.024l.672-.128h1.664v2.288H167.76l-.672-.128v1.024l.672-.128H170v5.5a4.568,4.568,0,0,1-1.072-1.344c.08-.64.144-1.264.192-2.3.272-.144.352-.224.352-.352a.261.261,0,0,0-.256-.208l-1.5-.144a27.853,27.853,0,0,1-.832,7.184l.528.368a7.471,7.471,0,0,0,1.392-3.6,4.7,4.7,0,0,0,2.768,2.656c1.728.544,2.784.608,9.856.624a9.7,9.7,0,0,1,.5-1.7c-1.68.112-2.736.144-4.192.144a39.5,39.5,0,0,1-5.456-.256,4.47,4.47,0,0,1-.768-.192Zm7.392-8.512a7.622,7.622,0,0,1,.848,1.808l1.344-.816a5.156,5.156,0,0,0-1.7-1.28Zm7.7-.192.1,1.12-.128,5.3c-.016.56-.016.976-.016,1.36,0,2.64.32,3.952,1.168,4.784a5.131,5.131,0,0,0,3.52,1.264,5.8,5.8,0,0,0,5.04-2.656,9,9,0,0,0,1.12-3.248l-.72-.224a7.881,7.881,0,0,1-1.3,2.544,5.212,5.212,0,0,1-4.08,1.968,2.918,2.918,0,0,1-2.24-.96,4.482,4.482,0,0,1-.688-2.944c0-.544,0-1.184.016-1.76l.144-5.584c.208-.192.288-.32.288-.464,0-.224-.192-.368-.512-.384Zm16.08,13.776a59.957,59.957,0,0,0,3.216-10.352l.032-.144,1.072-.048a26.529,26.529,0,0,0,4.112-.368l.048-1.264-1.184.48a22.785,22.785,0,0,1-2.848.256c-.144,0-.56.032-1.008.048l.3-1.488c.224-.16.32-.3.32-.464a.388.388,0,0,0-.32-.336l-1.776-.3-.048,1.1-.32,1.552c-.96.032-1.056.032-1.232.032-.272,0-.64-.016-1.152-.032l-1.12-.336.112,1.248c.368.016.656.016.848.016.08,0,.864-.016,2.368-.032a49.276,49.276,0,0,1-3.248,9.872Zm11.2-9.12a12.243,12.243,0,0,0-1.792-.128,8.457,8.457,0,0,0-4.48,1.152l.192.64a15.525,15.525,0,0,1,2.816-.224,11.981,11.981,0,0,1,3.264.384Zm-6.64,3.936a4.413,4.413,0,0,0-.592,2.16c0,2.048,1.5,2.9,5.1,2.9a16.463,16.463,0,0,0,2.72-.192v-1.968a12.157,12.157,0,0,1-3.184.384c-2.4,0-3.616-.56-3.616-1.664a4.813,4.813,0,0,1,.256-1.424Zm11.216,5.472c6.5-1.024,10.256-4.768,11.888-11.824h-6.528c.144-.32.24-.56.464-1.072.3-.144.416-.272.416-.448,0-.192-.128-.288-.4-.352l-1.856-.384-.16.864a17.172,17.172,0,0,1-4.3,6.8l.416.512a12.007,12.007,0,0,0,4.96-5.024h4.8a14.981,14.981,0,0,1-1.968,4.528,8.524,8.524,0,0,0-3.952-1.808l-.448.56a11.274,11.274,0,0,1,3.248,2.736,14.008,14.008,0,0,1-6.8,4.176ZM231.84,114.08a3.307,3.307,0,0,0-1.936-1.728l-.384.32a6.214,6.214,0,0,1,1.1,2.1Zm-4.24-1.3a7,7,0,0,1,.976,2.16l1.216-.608a3.213,3.213,0,0,0-1.776-1.824Zm15.264,4.8a37.5,37.5,0,0,0,3.344-2.9c.464-.048.656-.176.656-.432a.614.614,0,0,0-.32-.448l-1.552-1.008-.592.9a32.171,32.171,0,0,1-10.352,7.328l.272.672a23.773,23.773,0,0,0,6.64-2.784V126.9h1.9Zm14.224.576a9.185,9.185,0,0,1-1.1,4.656,8.8,8.8,0,0,1-4.576,3.312l.256.7a10.26,10.26,0,0,0,5.616-2.864c1.168-1.344,1.68-3.024,1.776-5.808h4.784l.8.16V117.1l-.8.16h-4.752c.016-.352.016-.656.016-.928v-2.32c.256-.192.352-.3.352-.464a.372.372,0,0,0-.384-.336l-2.112-.128.16,1.2v2.048c0,.272,0,.576-.016.928h-5.648l-.8-.16v1.216l.8-.16Zm12.656-3.744a24.594,24.594,0,0,1,8.544,2.192l.784-1.776a16.894,16.894,0,0,0-3.056-.848,23.758,23.758,0,0,0-4.288-.432c-.56,0-1.024.016-1.984.08Zm.128,4.432a23.934,23.934,0,0,1,7.712,2.256l.7-1.76a17.646,17.646,0,0,0-6.912-1.28c-.368,0-.384,0-1.488.016Zm-1.152,4.864a26.925,26.925,0,0,1,10.32,3.04l.88-1.888a23.3,23.3,0,0,0-9.3-2.016c-.5,0-.928.016-1.856.064Zm21.872-8.5a12.9,12.9,0,0,0,.544-1.216c.32-.144.448-.256.448-.448,0-.176-.144-.288-.4-.336l-1.92-.384-.192.992a14.213,14.213,0,0,1-4.208,6.272l.368.544a10.98,10.98,0,0,0,4.88-4.528h4.512a14.639,14.639,0,0,1-3.408,6.512,14.832,14.832,0,0,1-6.224,3.552l.144.672a15.022,15.022,0,0,0,6.624-2.544c2.592-1.888,4.368-5.04,5.136-9.088Zm12.112-1.152-.8-.16v1.216l.8-.16h7.184a18.668,18.668,0,0,1-9.36,10.656l.32.72a16.555,16.555,0,0,0,7.744-5.072l.064.08a26.254,26.254,0,0,1,4.128,5.088l1.856-1.472a20.4,20.4,0,0,0-5.584-4.272,22.267,22.267,0,0,0,3.264-6.624ZM8.368,151.808h1.7v-2.656c1.472-.432,2.224-.608,4.144-1.008a1.833,1.833,0,0,0,.448.08.346.346,0,0,0,.368-.336c0-.1-.048-.176-.16-.368l-.736-1.152-.752.352c-1.952.592-2.624.8-3.344,1.056a2.509,2.509,0,0,0-.112-.72,1.951,1.951,0,0,0-2.112-1.312,5.351,5.351,0,0,0-2.608.688c.544-.816.928-1.44,1.568-2.528l.72-.016c1.68,0,3.36-.08,5.328-.24l.144-1.424-1.232.544c-1.84.16-2.736.208-4.448.24l.656-1.184c.448-.208.512-.272.512-.432s-.128-.256-.4-.336l-1.5-.48-.272.784c-.448.912-.7,1.408-.848,1.648-.88,0-1.472-.016-2.752-.08l-1.04-.448.064,1.328c1.52.08,1.728.08,2.736.1h.48a38.948,38.948,0,0,1-3.648,5.136l1.264,1.04c.672-.9.784-1.024,1.472-1.92a10.53,10.53,0,0,1,1.312-.96,4.215,4.215,0,0,1,2-.56c.784,0,.992.352,1.04,1.76-3.088,1.216-4.4,2.352-4.4,3.808a2.206,2.206,0,0,0,1.44,2.064,10.4,10.4,0,0,0,4.112.56,29.732,29.732,0,0,0,3.648-.192v-1.792a25.524,25.524,0,0,1-3.92.336c-2.672,0-3.888-.384-3.888-1.248,0-.784.944-1.488,3.024-2.24Zm11.088-3.328c.032-.288.128-1.7.208-2.944h4.9v-4.592H18.224l-.672-.128v1.024l.672-.128H22.8v3.056H18.08c-.16,2.512-.272,3.92-.48,5.52h1.648c.1-.656.1-.736.128-1.04h3.68c-.112,1.488-.288,3.28-.416,4.032-.16.992-.288,1.152-.944,1.168H19.632v.832h3.36c1.344,0,1.456-.4,1.888-6.8Zm9.04-7.808v14.5h1.9V141.232c.208-.16.256-.224.256-.336,0-.16-.112-.224-.336-.224Zm18.944,4.16-1.04.48c-1.088.16-1.568.208-2.24.256-.24-.4-.64-1.12-.976-1.744a31.163,31.163,0,0,0,3.968-.512l.064-1.168-1.04.416c-1.36.208-1.568.24-3.44.4l-.752-1.5c.144-.16.208-.256.208-.368,0-.192-.192-.32-.512-.32h-2l.592,1.04c.544,1.1.544,1.1.592,1.2l.016.048c-.624.016-1.136.032-1.664.032a20.716,20.716,0,0,1-2.832-.16l-1.04-.368.112,1.152a15.929,15.929,0,0,0,3.312.272c.88,0,1.664-.016,2.576-.048.384.736.384.736.944,1.776-1.232.08-2.144.112-2.88.112a25.413,25.413,0,0,1-2.88-.16l-1.056-.384.128,1.184a22.145,22.145,0,0,0,3.776.256c.9,0,1.984-.048,3.408-.128.384.672.7,1.2,1.488,2.432a8.426,8.426,0,0,0-3.568-.72,7.8,7.8,0,0,0-3.776.848,2.537,2.537,0,0,0-1.312,2.24c0,2.272,2.368,3.44,7.024,3.44a13.9,13.9,0,0,0,2.944-.256v-1.84a17.063,17.063,0,0,1-3.52.368,9.648,9.648,0,0,1-4.192-.736,1.329,1.329,0,0,1-.416-2.176,5.288,5.288,0,0,1,3.328-.944,7.074,7.074,0,0,1,5.072,1.712l1.312-.8a34.781,34.781,0,0,1-2.5-3.7,26.435,26.435,0,0,0,2.72-.352Zm3.632,8.832-.672-.128v1.088l.672-.128h13.7l.672.128v-1.088l-.672.128H59.824a34.184,34.184,0,0,0,2.816-7.52c.368-.112.576-.288.576-.5,0-.176-.112-.256-.48-.352l-2.08-.512a60.641,60.641,0,0,1-1.808,8.88Zm5.76-10.32H51.824l-.672-.128V144.3l.672-.128H64.016l.672.128v-1.088l-.672.128H58.832v-2.288c.208-.16.256-.224.256-.336,0-.144-.112-.224-.336-.224h-1.92Zm-3.744,2.272a44.753,44.753,0,0,1,1.584,7.088l2.048-1.024a20.16,20.16,0,0,0-2.944-6.352Zm14.576-3.568.128,1.376,9.376-.384a10.339,10.339,0,0,0-2.176,1.12,5.409,5.409,0,0,0-2.528,4.624,5.215,5.215,0,0,0,2.624,4.656,8.23,8.23,0,0,0,3.248,1.1l.72-2.1a7.041,7.041,0,0,1-3.008-.9,3.648,3.648,0,0,1-1.76-3.3,4.953,4.953,0,0,1,2.8-4.336,8.632,8.632,0,0,1,4.048-.992l.064-1.36-1.2.448-11.3.368Zm24.656,5.12a38.512,38.512,0,0,0,4.816-.352l.032-1.328-1.184.528c-1.408.144-2.256.208-3.68.256l-.048-2.368h.064a32.311,32.311,0,0,0,5.264-.448l.048-1.3-1.1.5a42.976,42.976,0,0,1-4.288.352l-.016-1.36c.224-.192.32-.352.32-.5,0-.192-.208-.32-.56-.336l-1.648-.08.128.976.032,1.344h-.064l-.928.016c-.384,0-.752-.016-1.488-.048-.288,0-1.2-.032-2.128-.064l-1.184-.4.1,1.264c1.36.1,2.608.144,4.512.144.592,0,.864,0,1.2-.016l.032,2.368c-.176.016-.3.016-.608.016-1.232,0-2.64-.048-3.728-.112l-1.072-.4.1,1.264c1.328.112,2.176.144,3.232.144.384,0,.624,0,2.1-.032l.048,2.4c-.56-.048-.864-.064-1.248-.064a6.76,6.76,0,0,0-3.024.608,2.293,2.293,0,0,0-1.152,2.016c0,1.616,1.664,2.72,4.112,2.72a4.7,4.7,0,0,0,2.016-.416,1.728,1.728,0,0,0,.88-1.072,7.379,7.379,0,0,0,.192-2.016,12.637,12.637,0,0,1,3.9,2.64l1.232-1.52a12.86,12.86,0,0,0-5.152-2.656Zm-1.68,4.144a.282.282,0,0,0,.016.1v.24c-.032.96-.032.976-.208,1.232a1.852,1.852,0,0,1-1.6.624,3.725,3.725,0,0,1-2-.56,1.031,1.031,0,0,1-.528-.9,1.071,1.071,0,0,1,.512-.88,4.486,4.486,0,0,1,2.144-.464,6.514,6.514,0,0,1,1.648.224Zm19.616-8.4v-1.376c.24-.16.336-.272.336-.416,0-.192-.176-.336-.416-.352l-1.728-.1.112,1.136v1.168c-.64.032-2.128.064-2.848.064-.944,0-1.84-.016-4.1-.112l-.976-.368.08,1.232c1.312.1,2.848.144,4.752.144.944,0,1.808-.016,2.96-.048l.128-.016v2.192a2.546,2.546,0,0,0-1.872-.752,3.218,3.218,0,0,0-3.232,3.3,2.752,2.752,0,0,0,1.344,2.5,3.444,3.444,0,0,0,1.68.464,2.975,2.975,0,0,0,2-.784c-.352,2.048-1.744,3.2-4.464,3.7l.128.688c4.176-.3,6.128-2.064,6.112-5.5v-5.84h.432c2.16-.064,3.376-.128,4.336-.256l.048-1.248-1.04.384c-1.392.112-2.128.16-3.36.208Zm-1.7,6.656a2.1,2.1,0,0,1-1.68.928c-.992,0-1.648-.8-1.648-1.984a1.906,1.906,0,0,1,1.792-2.128,1.822,1.822,0,0,1,1.536.864Zm11.072.72a2.576,2.576,0,1,0,2.544,2.576A2.582,2.582,0,0,0,119.632,150.288Zm-.064.864a1.712,1.712,0,1,1-1.7,1.712A1.718,1.718,0,0,1,119.568,151.152Zm24.272-3.76v-3.344h3.3l.672.128v-1.024l-.672.128h-3.3v-2.224c.208-.16.256-.224.256-.336,0-.16-.112-.224-.336-.224h-1.648v2.784h-2.144c.144-.352.272-.72.48-1.392.336-.1.464-.224.464-.4,0-.144-.1-.224-.32-.288l-1.664-.384a20.942,20.942,0,0,1-1.568,5.392l.512.336a9.051,9.051,0,0,0,1.76-2.5h2.48v3.344h-4.08l-.672-.128v1.024l.672-.128h2.16v.16c-.048,3.392-1.2,5.312-3.824,6.384l.24.608c3.648-.816,5.28-2.96,5.28-6.976v-.176h1.52v5.216c0,1.184.448,1.584,1.76,1.584h1.712c1.024,0,1.472-.4,1.568-1.44l.192-2.24-.832-.128-.16,1.488c-.048.544-.272.736-.816.736h-1.1c-.48-.016-.624-.144-.624-.56V148.16h2.72l.672.128v-1.024l-.672.128Zm-5.952-5.408a7.106,7.106,0,0,0-2.944-1.216l-.32.608a12.856,12.856,0,0,1,2.064,2.272Zm-1.28,6.576a37.05,37.05,0,0,1-2.72,5.248l1.248,1.184a.5.5,0,0,0,.352.16.352.352,0,0,0,.336-.352,1.011,1.011,0,0,0-.08-.352,36.276,36.276,0,0,0,1.52-5.664Zm.432-2.368a7.158,7.158,0,0,0-3.072-1.216l-.3.592a12.986,12.986,0,0,1,2.144,2.336Zm22.24,3.824A15.651,15.651,0,0,1,154.992,154l.256.544a11.011,11.011,0,0,0,4.432-2.848v3.632H161.1V150.56a7.286,7.286,0,0,0,3.376,3.824c.368-.784.416-.912.8-1.632a9.542,9.542,0,0,1-3.952-2.736H164.4v-5.664h-3.3V142.96h3.344l.672.128v-1.024l-.672.128H161.1v-1.136c.208-.144.256-.224.256-.336,0-.16-.112-.224-.352-.224H159.68v1.7h-3.216l-.672-.128v1.024l.672-.128h3.216v1.392h-3.136v5.664Zm.4-.768h-1.712v-1.776h1.712Zm0-2.544h-1.712V145.12h1.712Zm1.424-1.584h1.856V146.7H161.1Zm0,2.352h1.856v1.776H161.1Zm-8.512,7.856h1.424v-7.152c.352-.08.5-.112.864-.208.08.3.128.528.24,1.12l1.216-.672a6.111,6.111,0,0,0-1.6-2.576l-.464.288a8.838,8.838,0,0,1,.416,1.136h-.1c-.384.032-1.376.08-1.952.112a44.815,44.815,0,0,0,2.864-3.568c.32-.1.448-.176.448-.336a.234.234,0,0,0-.16-.224l-1.36-.768a34.088,34.088,0,0,1-2.768,4.928c-.3.016-.4.016-1.424.032l.384,1.376a.291.291,0,0,0,.224.208c.112,0,.224-.1.352-.336.672-.1.992-.144,1.392-.224Zm-2.352-11.92a13.893,13.893,0,0,1,1.824,2.608l.976-1.52a5.757,5.757,0,0,0-.912-.752,14.26,14.26,0,0,0,1.664-2.064c.336-.048.528-.176.528-.352,0-.1-.08-.192-.224-.256l-1.568-.672a19.58,19.58,0,0,1-1.056,2.944,9.382,9.382,0,0,0-.96-.448Zm4.1,6.32a17.155,17.155,0,0,1,.688,3.248l1.344-.784A7.519,7.519,0,0,0,154.9,149.5Zm-3.6,4.384a12.059,12.059,0,0,0,1.344-3.6c.256-.1.384-.208.384-.368,0-.112-.08-.192-.256-.24l-1.424-.4a29.514,29.514,0,0,1-.544,4.4ZM174.688,143.9c-1.52.032-2.672.048-2.816.048-.928,0-1.744-.048-2.784-.144l-.992-.32.128,1.216c1.52.112,2.3.144,3.9.144,1.136,0,2.08-.016,2.992-.048.544,1.072,1.152,2.192,1.9,3.424a9.93,9.93,0,0,0-3.424-.608c-2.944,0-4.832,1.312-4.832,3.344a3.061,3.061,0,0,0,1.68,2.72,10.746,10.746,0,0,0,5.152.992,20.482,20.482,0,0,0,2.864-.192v-1.968a14.506,14.506,0,0,1-3.472.384,9.6,9.6,0,0,1-3.68-.592,1.728,1.728,0,0,1-1.152-1.6c0-1.28,1.392-2.144,3.52-2.144a8.626,8.626,0,0,1,3.5.72,4.586,4.586,0,0,1,1.344.9l1.456-.768a32.854,32.854,0,0,1-2.96-4.688,27.121,27.121,0,0,0,3.76-.4l.016-1.3-1.024.48c-1.584.208-2.288.272-3.2.32-.3-.592-.528-1.088-1.072-2.336a.655.655,0,0,0,.176-.384c0-.192-.176-.3-.464-.3H173.2l.528.976c.48,1.088.5,1.136.928,2.08Zm12.256.88c-.016.368-.032.672-.032.928l-.016.512c-1.152,1.76-2.176,3.28-3.152,4.688l.992,1.312c.832-1.28,1.184-1.792,1.84-2.7l.224-.3c-.032,1.44-.032,1.5-.032,2.1,0,1.056,0,1.76.032,3.536l1.7-.128c-.08-2.08-.112-3.04-.112-4.608,0-.848,0-1.216.032-2.352l.016-.56c2.112-1.936,3.744-2.912,4.848-2.912.352,0,.528.288.528.88,0,.016,0,.208-.016.352l-.272,5.952v.464a3.221,3.221,0,0,0,.3,1.552,1.712,1.712,0,0,0,1.552.848c.912,0,1.584-.48,2.224-1.616a8.936,8.936,0,0,0,.96-2.576l-.768-.224c-.592,1.968-1.264,3.024-1.936,3.024a.533.533,0,0,1-.464-.416,3.983,3.983,0,0,1-.112-.928l.272-6.176c.016-.384.032-.656.032-.7a1.525,1.525,0,0,0-1.7-1.536,6.908,6.908,0,0,0-4,1.648A15.548,15.548,0,0,0,188.48,146v-.048l.048-1.04v-.048l.016-.016c.5-.3.672-.5.672-.736,0-.192-.1-.288-.432-.432l-.176-.064c.032-.528.112-1.3.176-1.84.272-.176.368-.288.368-.464,0-.16-.16-.288-.384-.32l-1.712-.176.032,1.184-.1,1.9h-.112c-.528.064-.96.1-1.968.144l-.864-.272.112,1.184a22.079,22.079,0,0,0,2.608-.16Zm15.728,9.936a59.957,59.957,0,0,0,3.216-10.352l.032-.144,1.072-.048a26.529,26.529,0,0,0,4.112-.368l.048-1.264-1.184.48a22.786,22.786,0,0,1-2.848.256c-.144,0-.56.032-1.008.048l.3-1.488c.224-.16.32-.3.32-.464a.388.388,0,0,0-.32-.336l-1.776-.3-.048,1.1-.32,1.552c-.96.032-1.056.032-1.232.032-.272,0-.64-.016-1.152-.032l-1.12-.336.112,1.248c.368.016.656.016.848.016.08,0,.864-.016,2.368-.032a49.276,49.276,0,0,1-3.248,9.872Zm11.2-9.12a12.242,12.242,0,0,0-1.792-.128,8.457,8.457,0,0,0-4.48,1.152l.192.64a15.525,15.525,0,0,1,2.816-.224,11.981,11.981,0,0,1,3.264.384Zm-6.64,3.936a4.413,4.413,0,0,0-.592,2.16c0,2.048,1.5,2.9,5.1,2.9a16.462,16.462,0,0,0,2.72-.192v-1.968a12.158,12.158,0,0,1-3.184.384c-2.4,0-3.616-.56-3.616-1.664a4.813,4.813,0,0,1,.256-1.424Zm18.992-3.952a37.5,37.5,0,0,0,3.344-2.9c.464-.048.656-.176.656-.432a.614.614,0,0,0-.32-.448l-1.552-1.008-.592.9a32.171,32.171,0,0,1-10.352,7.328l.272.672a23.773,23.773,0,0,0,6.64-2.784V154.9h1.9Zm21.312-1.664a14.934,14.934,0,0,1-11.344,8.272l-.88-.032.736,1.776c.112.256.256.4.432.4.208,0,.336-.112.464-.4,3.568-.848,5.728-1.872,7.616-3.584a12.688,12.688,0,0,0,3.584-6.176Zm-12.384-1.664a14.4,14.4,0,0,1,4.032,3.632l1.648-1.744a10.023,10.023,0,0,0-5.408-2.48Zm28.672,4.944.8.16v-1.216l-.8.16H251.376l-.8-.16v1.216l.8-.16H256.8a7.241,7.241,0,0,1-.784,3.9,7.838,7.838,0,0,1-4.5,3.12l.208.736c5.312-1.152,7.1-3.12,7.056-7.76Zm-2.08-5.328h-8.4l-.8-.16v1.216l.8-.16h8.4l.8.16v-1.216Zm10.1,13.168a10.263,10.263,0,0,0,5.152-2.16c1.5-1.3,2.048-3.04,2.048-6.544V141.92c.256-.176.352-.3.352-.464a.389.389,0,0,0-.4-.336l-2.016-.112.16,1.088v4.432c-.048,2.992-.464,4.4-1.68,5.632a8.892,8.892,0,0,1-3.776,2.208Zm-2.4-12.672v7.792h1.9v-7.952c.256-.192.352-.3.352-.464a.366.366,0,0,0-.4-.336l-2.016-.128Zm22.16,3.264c.224-.192.32-.336.32-.464,0-.16-.176-.3-.416-.32l-1.952-.144.144,1.008v.976c-.032,2.64-.464,4-1.616,5.168a9.646,9.646,0,0,1-3.376,2.128l.224.624c3.856-.768,6.144-2.816,6.512-5.84a8.58,8.58,0,0,0,6.5-6.7H285.2l-.8-.16v1.216l.8-.16h10.336a8.39,8.39,0,0,1-4,4.96c.032-.288.064-1.008.064-1.344Zm21.872-2.864a15.417,15.417,0,0,0-2.16-.144,8.6,8.6,0,0,0-5.008,1.392l.16.672a17.065,17.065,0,0,1,3.792-.416,12.977,12.977,0,0,1,3.216.368Zm-11.36-1.456.016.944a62.114,62.114,0,0,0-.416,6.752,32.679,32.679,0,0,0,.384,5.552l1.792-.288a31.1,31.1,0,0,1-.448-5.52,53.753,53.753,0,0,1,.448-6.432c.256-.176.352-.288.352-.432,0-.176-.16-.288-.432-.336Zm4.192,6.7a4.282,4.282,0,0,0-.56,2.128,3.215,3.215,0,0,0,1.2,2.624,7.389,7.389,0,0,0,4.048.864,19.077,19.077,0,0,0,3.04-.24v-1.936a14.833,14.833,0,0,1-3.584.4c-2.576,0-3.68-.72-3.68-2.4a4.893,4.893,0,0,1,.176-1.28ZM10.48,177.824a7.907,7.907,0,0,0-2.032-.272c-1.776,0-3.008,1.008-3.008,2.464a2.271,2.271,0,0,0,.656,1.632,4.223,4.223,0,0,0,2.912,1.024,3.207,3.207,0,0,0,2.864-1.216,2.115,2.115,0,0,0,.336-1.312v-.208a10.748,10.748,0,0,1,2.208,1.712l.976-1.584a12.38,12.38,0,0,0-3.2-1.824l-.112-5.184c1.072-.064,1.968-.144,2.928-.288l.032-1.344-1.088.48a19.03,19.03,0,0,1-1.888.24l-.048-2.24c.208-.176.3-.32.3-.48a.338.338,0,0,0-.352-.3l-1.792-.112.144.976.048,2.256c-.656.016-1.152.032-1.584.032-.512,0-1.3-.032-2.32-.08l-1.056-.3.112,1.232c.992.032,1.6.048,2.768.048.976,0,1.568-.016,2.1-.032Zm.048,1.84a1.731,1.731,0,0,1-.224.976,1.815,1.815,0,0,1-1.6.64,3.3,3.3,0,0,1-1.856-.528.944.944,0,0,1-.432-.816c0-.752.688-1.2,1.84-1.2a5.2,5.2,0,0,1,2.256.512,1.06,1.06,0,0,1,.016.224Zm-6.48,2.7a36.2,36.2,0,0,1-.464-5.792,51.272,51.272,0,0,1,.464-6.416c.24-.176.336-.288.336-.432,0-.192-.192-.352-.464-.384l-1.68-.24.016.992a68.413,68.413,0,0,0-.4,6.928,38.162,38.162,0,0,0,.384,5.632ZM22.16,181.9a9.823,9.823,0,0,0-4.592-2.912l-.4.528a16.532,16.532,0,0,1,3.44,3.92Zm15.344-6.64a3.351,3.351,0,0,1,1.56.376,2.964,2.964,0,0,1,1.184,1.128,3.391,3.391,0,0,1,.456,1.792,3.575,3.575,0,0,1-.528,1.984,3.41,3.41,0,0,1-1.336,1.224A3.764,3.764,0,0,1,35.3,181.7a3.4,3.4,0,0,1-1.3-1.312l.512-.32a2.759,2.759,0,0,0,1.056,1.072,2.925,2.925,0,0,0,1.456.368,2.075,2.075,0,0,0,1.128-.328,2.351,2.351,0,0,0,.84-.968,3.363,3.363,0,0,0,.32-1.52,3.213,3.213,0,0,0-.32-1.5,2.155,2.155,0,0,0-.84-.912,2.242,2.242,0,0,0-1.128-.3,1.832,1.832,0,0,0-.96.24,2.99,2.99,0,0,0-.72.608H34.72l.384-5.2h5.088v1.28H35.6l-.224,3.1a2.822,2.822,0,0,1,.92-.544A3.4,3.4,0,0,1,37.5,175.264Zm13.44-3.024a18.6,18.6,0,0,0,.16-2.56v-.416c.256-.16.32-.24.32-.368,0-.192-.144-.288-.4-.288H49.168v1.008c-.016,5.584-2.4,10.464-6.368,13.024l.352.656c3.952-1.552,6.512-4.768,7.52-9.424a14.862,14.862,0,0,0,5.856,9.344,20.155,20.155,0,0,1,1.3-2.064,16.485,16.485,0,0,1-6.88-8.864Zm8.848,1.024.288,1.088c.048.208.16.336.288.336.144,0,.224-.08.352-.32a19.639,19.639,0,0,1,2.128-.528l.048-.016a32.416,32.416,0,0,1-3.04,7.776l1.44.848a32.117,32.117,0,0,0,3.408-8.912,14.427,14.427,0,0,1,1.776-.16c.8,0,1.088.4,1.088,1.472a18.36,18.36,0,0,1-.768,5.5c-.288.88-.624,1.312-1.008,1.312-.432,0-.912-.256-1.76-.944l-.464.832a5.558,5.558,0,0,0,.752.624,3.282,3.282,0,0,0,1.984.848c.832,0,1.44-.48,1.936-1.52A15.594,15.594,0,0,0,69.3,175.76a4.165,4.165,0,0,0-.528-2.448,2.772,2.772,0,0,0-2.352-.832c-.48,0-.944.016-1.488.064.144-.656.272-1.3.512-2.576.224-.112.32-.208.32-.352s-.144-.272-.352-.32l-1.648-.336-.032.544c-.208,1.392-.368,2.288-.576,3.232-.624.08-1.312.192-3.024.512Zm14.672-3.136A3.34,3.34,0,0,0,72.48,168.4l-.368.32a6.506,6.506,0,0,1,1.136,2.08Zm-4.688,1.888a18.315,18.315,0,0,1,2.544,7.264l1.872-.816c-.64-3.1-2.144-5.728-3.92-6.8Zm.464-3.04a6.871,6.871,0,0,1,1.008,2.272l1.216-.624a3.322,3.322,0,0,0-1.808-1.936Zm7.344,1.184.048,1.12a46.28,46.28,0,0,0-.3,5.2,31.927,31.927,0,0,0,.256,4.08l1.536-.3a24.988,24.988,0,0,1-.208-2.7V177.5a12.164,12.164,0,0,1,2.24-3.424,6.954,6.954,0,0,1,3.056-1.824v4.512a13.736,13.736,0,0,1-.176,2.448c-1.184-.32-1.792-.864-2.7-2.336l-.512.336a4.486,4.486,0,0,0,2.8,3.184,4.93,4.93,0,0,1-2.816,2.288l.176.56A5.627,5.627,0,0,0,85.2,180.7h.256a5.63,5.63,0,0,0,3.424-1.12,4.991,4.991,0,0,0,1.824-4.048,4.172,4.172,0,0,0-2.576-4.256,5.978,5.978,0,0,0-2.224-.416v-1.312c.224-.16.3-.272.3-.416,0-.208-.192-.336-.5-.352l-1.648-.064.144,1.136v1.216a8.273,8.273,0,0,0-5.3,4.56A44.047,44.047,0,0,1,79.2,171.2c.224-.176.32-.3.32-.448,0-.16-.16-.288-.448-.336Zm8.32,1.9a3.223,3.223,0,0,1,1.584.4,3.376,3.376,0,0,1,1.36,3.024,3.589,3.589,0,0,1-1.76,3.408,4.412,4.412,0,0,1-1.408.416,13.61,13.61,0,0,0,.224-2.56ZM98.224,182.5c2.7-.128,4.656-.72,5.792-1.776a4.481,4.481,0,0,0,1.456-3.312,3.037,3.037,0,0,0-.9-2.32,4.911,4.911,0,0,0-3.264-1.008,25.166,25.166,0,0,0-5.856.976l-.816.08.32,1.312a.354.354,0,0,0,.3.3c.16,0,.288-.128.416-.416a20.645,20.645,0,0,1,5.648-1.312,2.059,2.059,0,0,1,2.208,2.288,3.931,3.931,0,0,1-2.112,3.424,10.647,10.647,0,0,1-3.328,1.1Zm13.632.224a59.956,59.956,0,0,0,3.216-10.352l.032-.144,1.072-.048a26.529,26.529,0,0,0,4.112-.368l.048-1.264-1.184.48a22.787,22.787,0,0,1-2.848.256c-.144,0-.56.032-1.008.048l.3-1.488c.224-.16.32-.3.32-.464a.388.388,0,0,0-.32-.336l-1.776-.3-.048,1.1-.32,1.552c-.96.032-1.056.032-1.232.032-.272,0-.64-.016-1.152-.032l-1.12-.336.112,1.248c.368.016.656.016.848.016.08,0,.864-.016,2.368-.032a49.276,49.276,0,0,1-3.248,9.872Zm11.2-9.12a12.243,12.243,0,0,0-1.792-.128,8.457,8.457,0,0,0-4.48,1.152l.192.64a15.525,15.525,0,0,1,2.816-.224,11.981,11.981,0,0,1,3.264.384Zm-6.64,3.936a4.413,4.413,0,0,0-.592,2.16c0,2.048,1.5,2.9,5.1,2.9a16.462,16.462,0,0,0,2.72-.192v-1.968a12.158,12.158,0,0,1-3.184.384c-2.4,0-3.616-.56-3.616-1.664a4.813,4.813,0,0,1,.256-1.424Zm15.008,5.5c2.944-.272,5.264-1.536,6.192-3.36.544-1.056.736-2.288.768-4.816v-.208l-.048-4.752c.224-.192.3-.32.3-.464,0-.176-.176-.3-.448-.32l-1.9-.144.128.784.112,4.912v.192a9.139,9.139,0,0,1-.7,4.352,5.952,5.952,0,0,1-2.176,2.144,8.435,8.435,0,0,1-2.368.944Zm-2.8-12.8c-.176,2.368-.224,3.376-.224,4.464,0,2.752.528,3.984,1.712,3.984a2.1,2.1,0,0,0,1.7-1.088,7.375,7.375,0,0,0,1.1-2.576l-.736-.272a11.641,11.641,0,0,1-.944,1.968c-.208.272-.416.448-.56.448-.32,0-.5-.88-.5-2.544,0-.96.144-3.12.272-4.208.256-.208.352-.336.352-.48a.35.35,0,0,0-.352-.32l-1.872-.224Zm20.752-.576c.208-.176.3-.32.3-.464a.365.365,0,0,0-.4-.32h-1.968l.3,1.072.992,4.736c-2.9,1.472-4.112,2.8-4.112,4.464a3.032,3.032,0,0,0,2.016,2.864,12.982,12.982,0,0,0,4.608.608,35.788,35.788,0,0,0,4.464-.256v-2a25.291,25.291,0,0,1-4.816.432,9.885,9.885,0,0,1-4.256-.624,1.343,1.343,0,0,1-.736-1.152c0-.928.96-1.9,2.672-2.768a35.2,35.2,0,0,1,6.544-2.4,1.127,1.127,0,0,0,.464.128.329.329,0,0,0,.32-.272.737.737,0,0,0-.1-.288l-.72-1.584-.688.5c-2.464.912-2.928,1.088-4.048,1.584Zm24.192,6.928.672.128V175.7l-.672.128h-.72v-4.768h-3.792l.016-1.152v-.848c.208-.16.256-.224.256-.336,0-.16-.112-.224-.336-.224h-1.568V169.9l-.016,1.152h-1.856l-.672-.128v1.024l.672-.128h1.84v.672c-.032,1.536-.048,2.144-.144,3.328h-2.816l-.672-.128v1.024l.672-.128h2.736a10.215,10.215,0,0,1-.72,2.848,7.244,7.244,0,0,1-3.072,3.408l.288.592a7.185,7.185,0,0,0,5.024-6.1c.912,3.024,2.224,4.736,4.624,5.984a12.705,12.705,0,0,1,.992-2.048,8.421,8.421,0,0,1-5.184-4.688Zm-2.368-.768h-2.32v-.048c.1-1.072.128-1.744.144-3.248l.016-.7h2.16Zm-10.88.944a10.067,10.067,0,0,0,.512-3.456c0-.784-.016-1.152-.08-2.48h-.72a16.4,16.4,0,0,1-.768,4.5ZM161.5,168.5v14.832h1.52V169.056c.208-.144.256-.224.256-.336,0-.144-.112-.224-.336-.224Zm1.68,2.672a12.076,12.076,0,0,1,.9,2.752l1.248-1.008a5.392,5.392,0,0,0-1.7-2.048Zm22.9,3.328v-1.152h2.56v6.016c-.016.464-.16.608-.608.624h-.9v.832h1.536c1.04,0,1.488-.432,1.472-1.408v-6.832h-2.832a10.312,10.312,0,0,0,1.216-1.888H190.1l.688.128v-1.024l-.688.128h-3.824v-.848c.224-.192.256-.24.256-.336,0-.16-.112-.24-.352-.24h-1.6v1.424h-3.552l-.656-.128v1.024l.656-.128h1.2a9.984,9.984,0,0,1,.528,1.664l.048.176v.048h-2.032V180.8h1.44v-7.456h2.512V174.5H183.3l-.672-.128v1.024l.672-.128h1.424v1.088h-1.584V180.1h1.28v-.752h3.3v-2.992H186.08v-1.088h1.472l.672.128v-1.024l-.672.128Zm-3.008-1.92,1.488-.544a5.076,5.076,0,0,0-1.5-1.344h3.808a14.912,14.912,0,0,1-.368,1.792l-.016.1Zm1.344,6V177.12h2.016v1.456Zm3.36,4.4,2.72.016c.176-.736.208-.848.448-1.616-2.7.08-4.128.112-6.3.112-3.184,0-4.272-.224-5.168-1.056v-5.888h-2.8l-.672-.128v1.024l.672-.128h1.184v5.248a14.261,14.261,0,0,1-1.952.672l.56,1.808a.329.329,0,0,0,.272.208q.264,0,.384-.528a19,19,0,0,0,1.84-1.616c1.2,1.392,2.16,1.744,4.944,1.856Zm-7.664-12.944a7.4,7.4,0,0,0-3.3-1.168l-.272.56a11.428,11.428,0,0,1,2.416,2.416Zm25.9.736a15.417,15.417,0,0,0-2.16-.144,8.6,8.6,0,0,0-5.008,1.392l.16.672a17.065,17.065,0,0,1,3.792-.416,12.977,12.977,0,0,1,3.216.368Zm-11.36-1.456.016.944a62.113,62.113,0,0,0-.416,6.752,32.679,32.679,0,0,0,.384,5.552l1.792-.288a31.1,31.1,0,0,1-.448-5.52,53.76,53.76,0,0,1,.448-6.432c.256-.176.352-.288.352-.432,0-.176-.16-.288-.432-.336Zm4.192,6.7a4.282,4.282,0,0,0-.56,2.128,3.215,3.215,0,0,0,1.2,2.624,7.389,7.389,0,0,0,4.048.864,19.078,19.078,0,0,0,3.04-.24v-1.936a14.833,14.833,0,0,1-3.584.4c-2.576,0-3.68-.72-3.68-2.4a4.894,4.894,0,0,1,.176-1.28ZM220.688,172a17.076,17.076,0,0,1-1.68,5.36l.48.368a10.292,10.292,0,0,0,1.84-2.544,13.727,13.727,0,0,1,1.52,2.416l1.216-1.456a8.851,8.851,0,0,0-2.448-1.568c.24-.528.32-.768.592-1.52.3-.064.432-.16.432-.336,0-.128-.1-.24-.272-.288Zm-3.568,9.968h-4.8l-.672-.128v1.024l.672-.128h11.232l.672.128V181.84l-.672.128h-4.8v-2.624h3.776l.672.128v-1.024l-.672.128h-3.776V172c.208-.16.256-.224.256-.336,0-.16-.112-.224-.336-.224H217.12v7.136h-3.536l-.672-.128v1.024l.672-.128h3.536ZM213.984,172a18.5,18.5,0,0,1-1.648,5.488l.464.384a10.434,10.434,0,0,0,1.728-2.448l.032-.08.032-.032a13.981,13.981,0,0,1,1.216,2.352l1.248-1.456a8.515,8.515,0,0,0-2.176-1.552,12.848,12.848,0,0,0,.608-1.6c.3-.064.432-.16.432-.336a.3.3,0,0,0-.256-.288Zm2.272-1.952h-5.888v3.04c.016,5.76-.224,7.7-1.184,9.9l.528.32c2.016-2.416,2.4-4.08,2.416-10.224v-2.272h11.216l.672.128V169.92l-.672.128h-5.168V168.96c.208-.16.256-.224.256-.336,0-.16-.112-.224-.336-.224h-1.84Zm12.992,2.736c-.016.368-.032.672-.032.928l-.016.512c-1.152,1.76-2.176,3.28-3.152,4.688l.992,1.312c.832-1.28,1.184-1.792,1.84-2.7l.224-.3c-.032,1.44-.032,1.5-.032,2.1,0,1.056,0,1.76.032,3.536l1.7-.128c-.08-2.08-.112-3.04-.112-4.608,0-.848,0-1.216.032-2.352l.016-.56c2.112-1.936,3.744-2.912,4.848-2.912.352,0,.528.288.528.88,0,.016,0,.208-.016.352l-.272,5.952v.464a3.221,3.221,0,0,0,.3,1.552,1.712,1.712,0,0,0,1.552.848c.912,0,1.584-.48,2.224-1.616a8.936,8.936,0,0,0,.96-2.576l-.768-.224c-.592,1.968-1.264,3.024-1.936,3.024a.533.533,0,0,1-.464-.416,3.983,3.983,0,0,1-.112-.928l.272-6.176c.016-.384.032-.656.032-.7a1.525,1.525,0,0,0-1.7-1.536,6.908,6.908,0,0,0-4,1.648A15.548,15.548,0,0,0,230.784,174v-.048l.048-1.04v-.048l.016-.016c.5-.3.672-.5.672-.736,0-.192-.1-.288-.432-.432l-.176-.064c.032-.528.112-1.3.176-1.84.272-.176.368-.288.368-.464,0-.16-.16-.288-.384-.32l-1.712-.176.032,1.184-.1,1.9h-.112c-.528.064-.96.1-1.968.144l-.864-.272.112,1.184a22.079,22.079,0,0,0,2.608-.16Zm24.56-2.16c.48-.08.688-.224.688-.48a.524.524,0,0,0-.32-.448l-1.344-.7-.544.5c-.736.064-3.76.144-5.664.144l-1.088-.368.112,1.312c.416.032.64.032,1.136.032,1.392,0,2.72-.048,4.832-.16l-8.08,6.7,1.04,1.28,2.16-1.824a10.557,10.557,0,0,1,4.3-1.072,4.153,4.153,0,0,1,2.256.608,2.216,2.216,0,0,1,.976,1.952,3.029,3.029,0,0,1-.9,2.144,3.308,3.308,0,0,1-1.184.784,5.062,5.062,0,0,0-1.28-1.824,4.105,4.105,0,0,0-2.672-1.088,2.078,2.078,0,0,0-2.288,1.984,2.12,2.12,0,0,0,1.072,1.776,6.489,6.489,0,0,0,3.424.9,6.99,6.99,0,0,0,4.064-1.248,4.117,4.117,0,0,0,1.7-3.28,3.224,3.224,0,0,0-1.792-2.928,6.88,6.88,0,0,0-3.152-.72,9.074,9.074,0,0,0-2.64.416Zm-2.736,10.768a2.444,2.444,0,0,1-.576.064,6.746,6.746,0,0,1-2.768-.592.95.95,0,0,1-.592-.848c0-.5.416-.832,1.056-.832a2.863,2.863,0,0,1,1.9.784,3.82,3.82,0,0,1,.992,1.424Zm21.744-8.944c-1.872,4.5-5.76,7.344-11.04,8.08l-.56.016.688,1.7c.1.24.224.352.416.352.176,0,.288-.08.416-.3a15.253,15.253,0,0,0,7.344-3.392,12.076,12.076,0,0,0,3.456-6.224ZM261.664,169.6l-.16.64a14.765,14.765,0,0,1,4.128,2.208l1.072-1.84A9.968,9.968,0,0,0,262.1,169.6Zm-.96,5.072a13.774,13.774,0,0,1,4.112,2.08l1.056-1.824a9.57,9.57,0,0,0-4.368-.88c-.144,0-.368,0-.656.016Zm29.344.752-13.36-.592v2.112l13.36-.608Zm8.784-5.568c.256-.16.352-.288.352-.448,0-.176-.16-.32-.4-.336l-1.984-.112.128,1.088v12.784h1.9V174.48a15.942,15.942,0,0,1,5.648,4.192l1.408-1.856a16.584,16.584,0,0,0-7.056-3.168ZM.848,201.264l.288,1.088c.048.208.16.336.288.336.144,0,.224-.08.352-.32A19.639,19.639,0,0,1,3.9,201.84l.048-.016A32.416,32.416,0,0,1,.912,209.6l1.44.848a32.117,32.117,0,0,0,3.408-8.912,14.427,14.427,0,0,1,1.776-.16c.8,0,1.088.4,1.088,1.472a18.36,18.36,0,0,1-.768,5.5c-.288.88-.624,1.312-1.008,1.312-.432,0-.912-.256-1.76-.944l-.464.832a5.558,5.558,0,0,0,.752.624,3.282,3.282,0,0,0,1.984.848c.832,0,1.44-.48,1.936-1.52a15.594,15.594,0,0,0,1.056-5.744,4.165,4.165,0,0,0-.528-2.448,2.772,2.772,0,0,0-2.352-.832c-.48,0-.944.016-1.488.064.144-.656.272-1.3.512-2.576.224-.112.32-.208.32-.352s-.144-.272-.352-.32l-1.648-.336-.032.544c-.208,1.392-.368,2.288-.576,3.232-.624.08-1.312.192-3.024.512Zm14.672-3.136a3.34,3.34,0,0,0-1.984-1.728l-.368.32A6.506,6.506,0,0,1,14.3,198.8Zm-4.688,1.888a18.315,18.315,0,0,1,2.544,7.264l1.872-.816c-.64-3.1-2.144-5.728-3.92-6.8Zm.464-3.04a6.871,6.871,0,0,1,1.008,2.272l1.216-.624a3.322,3.322,0,0,0-1.808-1.936Zm18.08,3.744v-1.744H31.5l.656.128V198.08l-.656.128H29.376v-1.12c.208-.16.256-.224.256-.336,0-.16-.112-.224-.336-.224H27.872v1.68H25.584v-1.12c.208-.176.256-.224.256-.336,0-.16-.112-.224-.352-.224H24.08v1.68H22.32l-.672-.128V199.1l.672-.128h1.76v1.744H21.76v1.5c0,5.376-.16,6.8-.992,8.592l.544.432a6.259,6.259,0,0,0,1.52-3.008,27.818,27.818,0,0,0,.384-6.016v-.736h8.112l.672.128v-1.024l-.672.128Zm-1.5,0H25.584v-1.744h2.288Zm-.832,7.44v3.168h1.3V208.16H30.08v1.616c0,.352-.16.528-.512.512h-.592v.832h1.248c.88.016,1.3-.4,1.28-1.264v-7.248H24.08v8.512h1.36v-2.96Zm0-.768h-1.6V205.76h1.6Zm0-2.4h-1.6v-1.616h1.6Zm1.3-1.616H30.08v1.616H28.336Zm0,2.384H30.08v1.632H28.336ZM20.464,200c.32-.9.464-1.328.816-2.5.256-.064.384-.176.384-.352a.323.323,0,0,0-.256-.3l-1.664-.448a39.147,39.147,0,0,1-2.624,8.768l.448.4a14.024,14.024,0,0,0,1.392-2.144v7.9h1.5Zm16.832.848v.224c-.016.352-.032.624-.064,1.2l-.24.352c-1.3,1.856-2.128,2.992-2.928,4l.976,1.328c.9-1.344,1.264-1.872,1.888-2.736l.24-.336c-.048,1.168-.048,1.392-.048,2.3,0,.88.016,2.048.032,3.664l1.712-.128c-.1-2.5-.128-3.312-.128-4.144,0-.176.016-1.28.064-3.3a6.664,6.664,0,0,1,4.656-2.128,2.58,2.58,0,0,1,1.984.752,4.116,4.116,0,0,1,.864,2.736,4.777,4.777,0,0,1-2.48,4.4,8.966,8.966,0,0,1-2.592.832l.1.672c2.624-.112,4.48-.816,5.616-2.144a5.882,5.882,0,0,0,1.3-3.76,4.212,4.212,0,0,0-4.512-4.56,7.207,7.207,0,0,0-4.9,2.08c.032-.544.048-.832.064-1.088v-.192l.016-.016c.464-.272.688-.512.688-.752,0-.16-.112-.256-.448-.4l-.192-.08c.1-.992.112-1.264.176-1.856.272-.16.384-.288.384-.464,0-.16-.16-.288-.4-.32l-1.712-.176L37.44,198l-.1,1.936H37.28c-.656.064-1.12.1-2,.144l-.864-.272.112,1.232a24.53,24.53,0,0,0,2.656-.176ZM55.92,210.5c2.7-.128,4.656-.72,5.792-1.776a4.481,4.481,0,0,0,1.456-3.312,3.037,3.037,0,0,0-.9-2.32,4.911,4.911,0,0,0-3.264-1.008,25.166,25.166,0,0,0-5.856.976l-.816.08.32,1.312a.354.354,0,0,0,.3.3c.16,0,.288-.128.416-.416a20.645,20.645,0,0,1,5.648-1.312,2.059,2.059,0,0,1,2.208,2.288,3.932,3.932,0,0,1-2.112,3.424,10.647,10.647,0,0,1-3.328,1.1Zm11.744-12.448.128,1.376,9.376-.384a10.339,10.339,0,0,0-2.176,1.12,5.409,5.409,0,0,0-2.528,4.624,5.215,5.215,0,0,0,2.624,4.656,8.23,8.23,0,0,0,3.248,1.1l.72-2.1a7.041,7.041,0,0,1-3.008-.9,3.648,3.648,0,0,1-1.76-3.3,4.953,4.953,0,0,1,2.8-4.336,8.632,8.632,0,0,1,4.048-.992l.064-1.36-1.2.448-11.3.368ZM90.24,206.1c-.432,1.5-.96,2.5-1.344,2.5-.464,0-1.2-1.392-1.6-2.976a28.039,28.039,0,0,1-.464-5.664v-.784c.288-.208.384-.336.384-.48,0-.192-.192-.336-.464-.352l-1.776-.1.08,1.136c.016,2.24.048,3.248.144,4.4a12.2,12.2,0,0,0,1.216,4.752c.608,1.168,1.424,1.84,2.208,1.84,1.024,0,1.888-1.392,2.464-4.016Zm8.224.544a11.99,11.99,0,0,0-4.272-7.664l-.56.384a19.937,19.937,0,0,1,2.864,8.1Zm10.5-3.472a38.512,38.512,0,0,0,4.816-.352l.032-1.328-1.184.528c-1.408.144-2.256.208-3.68.256L108.9,199.9h.064a32.311,32.311,0,0,0,5.264-.448l.048-1.3-1.1.5a42.976,42.976,0,0,1-4.288.352l-.016-1.36c.224-.192.32-.352.32-.5,0-.192-.208-.32-.56-.336l-1.648-.08.128.976.032,1.344h-.064l-.928.016c-.384,0-.752-.016-1.488-.048-.288,0-1.2-.032-2.128-.064l-1.184-.4.1,1.264c1.36.1,2.608.144,4.512.144.592,0,.864,0,1.2-.016l.032,2.368c-.176.016-.3.016-.608.016-1.232,0-2.64-.048-3.728-.112l-1.072-.4.1,1.264c1.328.112,2.176.144,3.232.144.384,0,.624,0,2.1-.032l.048,2.4c-.56-.048-.864-.064-1.248-.064a6.76,6.76,0,0,0-3.024.608,2.293,2.293,0,0,0-1.152,2.016c0,1.616,1.664,2.72,4.112,2.72a4.7,4.7,0,0,0,2.016-.416,1.728,1.728,0,0,0,.88-1.072,7.379,7.379,0,0,0,.192-2.016,12.637,12.637,0,0,1,3.9,2.64l1.232-1.52a12.86,12.86,0,0,0-5.152-2.656Zm-1.68,4.144a.282.282,0,0,0,.016.1v.24c-.032.96-.032.976-.208,1.232a1.852,1.852,0,0,1-1.6.624,3.725,3.725,0,0,1-2-.56,1.031,1.031,0,0,1-.528-.9,1.071,1.071,0,0,1,.512-.88,4.486,4.486,0,0,1,2.144-.464,6.514,6.514,0,0,1,1.648.224Zm19.616-8.4v-1.376c.24-.16.336-.272.336-.416,0-.192-.176-.336-.416-.352l-1.728-.1.112,1.136v1.168c-.64.032-2.128.064-2.848.064-.944,0-1.84-.016-4.1-.112l-.976-.368.08,1.232c1.312.1,2.848.144,4.752.144.944,0,1.808-.016,2.96-.048l.128-.016v2.192a2.546,2.546,0,0,0-1.872-.752,3.218,3.218,0,0,0-3.232,3.3,2.752,2.752,0,0,0,1.344,2.5,3.444,3.444,0,0,0,1.68.464,2.975,2.975,0,0,0,2-.784c-.352,2.048-1.744,3.2-4.464,3.7l.128.688c4.176-.3,6.128-2.064,6.112-5.5v-5.84h.432c2.16-.064,3.376-.128,4.336-.256l.048-1.248-1.04.384c-1.392.112-2.128.16-3.36.208Zm-1.7,6.656a2.1,2.1,0,0,1-1.68.928c-.992,0-1.648-.8-1.648-1.984a1.906,1.906,0,0,1,1.792-2.128,1.822,1.822,0,0,1,1.536.864Zm11.072.72a2.576,2.576,0,1,0,2.544,2.576A2.582,2.582,0,0,0,136.272,206.288Zm-.064.864a1.712,1.712,0,1,1-1.7,1.712A1.718,1.718,0,0,1,136.208,207.152Z" transform="translate(20 593.033)" fill="#fff"/>
    <path id="パス_30918" data-name="パス 30918" d="M17.753-4.346H4.264l-2.05-.41V-1.64l2.05-.41H36.777l2.009.41V-4.756l-2.009.41H22.837V-26.568H33.005l2.05.41v-3.116l-2.05.41H8.036l-2.05-.41v3.116l2.05-.41h9.717ZM51.66,1.107A40.285,40.285,0,0,0,69-5.084c5.617-3.69,9.676-9.061,12.177-16.195l-1.558-.779a34.557,34.557,0,0,1-23.206,17.1V-29.725c.656-.451.9-.779.9-1.189a.954.954,0,0,0-.984-.861l-5.084-.287.41,2.788Zm53.382-28.741a33.054,33.054,0,0,0,1.394-3.116c.82-.369,1.148-.656,1.148-1.148,0-.451-.369-.738-1.025-.861l-4.92-.984-.492,2.542A36.421,36.421,0,0,1,90.364-15.129l.943,1.394a28.137,28.137,0,0,0,12.5-11.6h11.562c-1.353,6.068-5.125,13.2-8.733,16.687-3.813,3.895-9.266,7.011-15.949,9.1l.369,1.722c7.708-1.435,12.587-3.28,16.974-6.519,6.642-4.838,11.193-12.915,13.161-23.288Zm40.631-3.485c.656-.41.9-.738.9-1.148,0-.451-.41-.82-1.025-.861l-5.084-.287.328,2.788V2.132h4.879v-21.4c5.617,2.5,9.594,5.453,14.473,10.742l3.608-4.756A42.5,42.5,0,0,0,145.673-21.4ZM184.91,2.665a26.3,26.3,0,0,0,13.2-5.535c3.854-3.321,5.248-7.79,5.248-16.769V-30.955c.656-.451.9-.779.9-1.189a1,1,0,0,0-1.025-.861l-5.166-.287.41,2.788v11.357c-.123,7.667-1.189,11.275-4.305,14.432A22.786,22.786,0,0,1,184.5.943Zm-6.15-32.472V-9.84h4.879V-30.217c.656-.492.9-.779.9-1.189a.938.938,0,0,0-1.025-.861L178.35-32.6ZM226.648,2.5a24.384,24.384,0,0,0,12.587-5.74c3.977-3.772,5.986-7.995,7.667-16.236.656-.2.943-.451.943-.82s-.287-.574-.9-.738l-4.756-1.189-.041,2.173C239.727-8.118,235.34-2.378,226.033.82Zm1.927-14.719c-1.517-4.51-3.362-6.97-7.011-9.43l-.943.7c1.517,2.3,2.665,5.453,3.731,10.291Zm8.118-1.025c-1.476-4.469-3.157-6.847-6.765-9.471l-1.025.738a30.276,30.276,0,0,1,3.567,10.25ZM275.6-27.634A33.046,33.046,0,0,0,277-30.75c.82-.369,1.148-.656,1.148-1.148,0-.451-.369-.738-1.025-.861l-4.92-.984-.492,2.542a36.422,36.422,0,0,1-10.783,16.072l.943,1.394a28.137,28.137,0,0,0,12.505-11.6h11.562c-1.353,6.068-5.125,13.2-8.733,16.687-3.813,3.895-9.266,7.011-15.949,9.1l.369,1.722c7.708-1.435,12.587-3.28,16.974-6.519,6.642-4.838,11.193-12.915,13.161-23.288Zm33.21,7.38a4.682,4.682,0,0,0-4.756,4.633,4.681,4.681,0,0,0,4.674,4.715A4.672,4.672,0,0,0,313.4-15.58,4.682,4.682,0,0,0,308.812-20.254ZM14.35,26.764V36.932c0,3.239.492,4.592,2.009,5.412,1.558.9,4.633,1.23,10.824,1.23,3.731,0,5.617-.041,8.856-.246V38.654c-3.649.369-7.257.574-9.758.574-2.788,0-5.248-.287-6.15-.779-.615-.287-.82-.861-.82-2.255v-9.43H36.162l2.05.41V24.058l-2.05.41H19.311v-9.8H32.185l2.05.41V11.963l-2.05.41H7.175l-2.05-.41v3.116l2.05-.41H14.35v9.8H4.592l-2.009-.41v3.116l2.009-.41ZM79.991,17.17C73.554,29.265,64.7,35.743,50.922,38.367l-2.255-.082,1.886,4.551c.287.656.656,1.025,1.107,1.025.533,0,.861-.287,1.189-1.025,9.143-2.173,14.678-4.8,19.516-9.184a32.513,32.513,0,0,0,9.184-15.826ZM48.257,12.906a36.912,36.912,0,0,1,10.332,9.307l4.223-4.469c-3.321-3.2-7.995-5.371-13.858-6.355Zm45.182-.492L91.389,12V15.12l2.05-.41h18.409A47.836,47.836,0,0,1,87.863,42.016l.82,1.845a42.421,42.421,0,0,0,19.844-13l.164.2a67.276,67.276,0,0,1,10.578,13.038l4.756-3.772a52.279,52.279,0,0,0-14.309-10.947,57.059,57.059,0,0,0,8.364-16.974Zm40.344,32.718c8.159-1.312,14.514-4.264,19.434-9.02,4.92-4.551,9.1-12.792,11.029-21.812H147.6c.328-.7.533-1.23,1.107-2.542.738-.328,1.066-.7,1.066-1.148s-.328-.738-1.025-.9l-4.756-.984-.41,2.214a43.556,43.556,0,0,1-11.029,17.425l1.066,1.312A30.842,30.842,0,0,0,146.452,16.6h12.177A39.979,39.979,0,0,1,153.586,28.4a21.761,21.761,0,0,0-10.127-4.592l-1.148,1.394a29.157,29.157,0,0,1,8.364,7.093,35.905,35.905,0,0,1-17.466,10.947Zm74.661-18.983-34.235-1.517v5.412l34.235-1.558Zm26.2,11.234h4.346V30.577c3.772-1.107,5.7-1.558,10.619-2.583a4.7,4.7,0,0,0,1.148.205.887.887,0,0,0,.943-.861c0-.246-.123-.451-.41-.943L249.4,23.443l-1.927.9c-5,1.517-6.724,2.05-8.569,2.706a6.428,6.428,0,0,0-.287-1.845c-.615-2.173-2.542-3.362-5.412-3.362a13.711,13.711,0,0,0-6.683,1.763c1.394-2.091,2.378-3.69,4.018-6.478l1.845-.041c4.3,0,8.61-.2,13.653-.615l.369-3.649-3.157,1.394c-4.715.41-7.011.533-11.4.615l1.681-3.034c1.148-.533,1.312-.7,1.312-1.107s-.328-.656-1.025-.861L229.969,8.6l-.7,2.009c-1.148,2.337-1.8,3.608-2.173,4.223-2.255,0-3.772-.041-7.052-.2l-2.665-1.148.164,3.4c3.9.2,4.428.2,7.011.246h1.23a99.8,99.8,0,0,1-9.348,13.161l3.239,2.665c1.722-2.3,2.009-2.624,3.772-4.92a26.986,26.986,0,0,1,3.362-2.46,10.8,10.8,0,0,1,5.125-1.435c2.009,0,2.542.9,2.665,4.51-7.913,3.116-11.275,6.027-11.275,9.758a5.654,5.654,0,0,0,3.69,5.289c2.132.984,5.453,1.435,10.537,1.435a76.187,76.187,0,0,0,9.348-.492V40.048a65.4,65.4,0,0,1-10.045.861c-6.847,0-9.963-.984-9.963-3.2,0-2.009,2.419-3.813,7.749-5.74ZM16.81,76.283A43.91,43.91,0,0,1,1.23,86.615l.41,1.517c6.642-1.517,12.915-4.428,16.523-7.585v9.02H22.14V77.636A26.369,26.369,0,0,0,37.966,87.968a28.713,28.713,0,0,1,1.8-4.428c-7.011-1.271-13.366-4.018-16.728-7.257h13.12l1.722.328V73.987l-1.722.328H32.021V68.862h5.863l1.722.328V66.566l-1.722.328H32.021V61.728h4.141l1.722.328V59.432l-1.722.328H22.14v-3.4c3.4-.246,7.708-.656,11.726-1.107a4.725,4.725,0,0,0,1.312.287.892.892,0,0,0,.984-.779c0-.246-.123-.41-.451-.656L32.1,51.314C25.912,52.749,14.719,54.143,3.936,54.8l.123,1.886c2.624.082,3.977.082,5.453.082,2.788,0,4.838-.041,8.651-.2v3.2H4.838l-1.722-.328v2.624l1.722-.328H8.446v5.166H3.116l-1.722-.328V69.19l1.722-.328h5.33v5.453H4.838l-1.722-.328v2.624l1.722-.328ZM28,74.315H22.14V68.862H28Zm0-7.421H22.14V61.728H28ZM12.464,61.728h5.7v5.166h-5.7Zm0,7.134h5.7v5.453h-5.7Zm45.346,19.8c7.544-.7,13.489-3.936,15.867-8.61,1.394-2.706,1.886-5.863,1.968-12.341v-.533L75.522,55c.574-.492.779-.82.779-1.189,0-.451-.451-.779-1.148-.82l-4.879-.369.328,2.009.287,12.587v.492c0,5.494-.533,8.9-1.8,11.152a15.252,15.252,0,0,1-5.576,5.494,21.615,21.615,0,0,1-6.068,2.419Zm-7.175-32.8c-.451,6.068-.574,8.651-.574,11.439,0,7.052,1.353,10.209,4.387,10.209,1.64,0,2.993-.9,4.346-2.788a18.9,18.9,0,0,0,2.829-6.6l-1.886-.7a29.831,29.831,0,0,1-2.419,5.043c-.533.7-1.066,1.148-1.435,1.148-.82,0-1.271-2.255-1.271-6.519,0-2.46.369-7.995.7-10.783.656-.533.9-.861.9-1.23a.9.9,0,0,0-.9-.82l-4.8-.574Zm67.445.123a37.2,37.2,0,0,0-8.4-.82c-6.888,0-11.111.738-15.867,2.829l.41,2.091a79.994,79.994,0,0,1,10.824-.779,45.313,45.313,0,0,1,13.038,1.64ZM93.726,70.666a13.258,13.258,0,0,0-2.419,7.216c0,3.485,1.968,6.068,5.7,7.585,2.706,1.066,6.4,1.558,11.767,1.558a88.363,88.363,0,0,0,11.931-.779V81a56.33,56.33,0,0,1-12.71,1.353c-5.166,0-8.651-.533-11.111-1.763a4.774,4.774,0,0,1-2.747-4.51c0-1.435.328-2.46,1.517-4.592Zm45.838-13.325h-.328c-2.255,0-3.526-.082-6.109-.287l-2.378-.943.205,3.28c3.567.205,4.92.246,8.036.246l-.041.123a91.014,91.014,0,0,1-8.9,19.557l3.977,2.46a117.146,117.146,0,0,0,9.594-22.263c2.747-.164,6.314-.492,9.553-.943l.082-3.321-2.829,1.312c-2.829.369-4.387.492-6.027.615l.041-.123c.328-1.107.369-1.23.82-2.706.574-.41.779-.7.779-1.025a.874.874,0,0,0-.779-.82l-4.346-.779-.328,2.419c-.451,1.558-.615,2.173-.9,3.2Zm26.978,23.78a26.525,26.525,0,0,0-9.922-5.289v-6.97c.574-.451.779-.7.779-1.025,0-.492-.41-.779-1.107-.82l-4.018-.082.205,3.567v4.551a22.856,22.856,0,0,0-3.444-.246c-5.084,0-8.487,2.624-8.487,6.6a6.2,6.2,0,0,0,1.64,4.223c1.6,1.681,4.592,2.788,7.708,2.788a8.2,8.2,0,0,0,5.207-1.558A5.557,5.557,0,0,0,156.62,82.6v-2.87c1.763.738,4.264,2.624,7.175,5.494Zm-14.063,1.025c0,1.886-1.107,2.788-3.444,2.788-3.444,0-5.986-1.6-5.986-3.772a2.57,2.57,0,0,1,.7-1.8c.738-.861,2.583-1.394,4.879-1.394a13.872,13.872,0,0,1,3.854.533Zm14.555-20.131a23.813,23.813,0,0,0-8.241-1.353,23.1,23.1,0,0,0-7.749,1.23l.123,1.558c6.724.451,9.266.984,13.284,2.788Zm18.491,2.009v-7.79c.615-.451.82-.738.82-1.107a.83.83,0,0,0-.7-.779l-4.879-.41.328,2.624v7.585l-6.109.164-2.337-.615.287,3.034,8.159-.246v5.494c0,6.232.451,9.84,1.517,11.726,1.353,2.419,4.879,3.362,12.5,3.362a74.575,74.575,0,0,0,8.938-.533V81.982A46.167,46.167,0,0,1,192.7,83.048c-3.772,0-5.535-.533-6.232-1.8-.656-1.189-.943-4.264-.943-9.594V66.361l11.357-.328V67.1c0,2.952-.164,7.38-.328,9.922h4.428c.164-1.927.287-5.863.328-10.086V65.91l7.995-.205.082-3.157-2.255.82-5.822.2V56.234c.615-.451.82-.7.82-1.107a.764.764,0,0,0-.7-.779l-4.879-.41.328,2.624V63.7ZM243.5,56.849c1.23-.205,1.763-.574,1.763-1.23a1.344,1.344,0,0,0-.82-1.148L241,52.667,239.6,53.938c-1.886.164-9.635.369-14.514.369l-2.788-.943.287,3.362c1.066.082,1.64.082,2.911.082,3.567,0,6.97-.123,12.382-.41l-20.7,17.179,2.665,3.28,5.535-4.674c4.469-1.927,7.708-2.747,11.029-2.747a10.643,10.643,0,0,1,5.781,1.558,5.679,5.679,0,0,1,2.5,5,7.762,7.762,0,0,1-2.3,5.494,8.476,8.476,0,0,1-3.034,2.009,12.972,12.972,0,0,0-3.28-4.674,10.519,10.519,0,0,0-6.847-2.788c-3.4,0-5.863,2.132-5.863,5.084a5.432,5.432,0,0,0,2.747,4.551,16.628,16.628,0,0,0,8.774,2.3,17.912,17.912,0,0,0,10.414-3.2,10.549,10.549,0,0,0,4.346-8.4,8.261,8.261,0,0,0-4.592-7.5,17.631,17.631,0,0,0-8.077-1.845,23.253,23.253,0,0,0-6.765,1.066Zm-7.011,27.593a6.262,6.262,0,0,1-1.476.164,17.287,17.287,0,0,1-7.093-1.517,2.435,2.435,0,0,1-1.517-2.173c0-1.271,1.066-2.132,2.706-2.132a7.336,7.336,0,0,1,4.879,2.009,9.788,9.788,0,0,1,2.542,3.649ZM258.423,63.2l.738,2.788c.123.574.41.861.738.861.369,0,.574-.2.9-.82a50.32,50.32,0,0,1,5.453-1.353l.123-.041a83.066,83.066,0,0,1-7.79,19.926l3.69,2.173C265.721,81.08,268.837,73,271.01,63.9a39.1,39.1,0,0,1,4.551-.41c2.091,0,2.829,1.025,2.829,3.813a46.006,46.006,0,0,1-2.009,14.063c-.7,2.255-1.6,3.362-2.583,3.362-1.107,0-2.3-.656-4.51-2.419L268.1,84.442a18.486,18.486,0,0,0,1.927,1.64c2.214,1.558,3.567,2.132,5.084,2.132,2.132,0,3.731-1.23,5-3.895,1.6-3.362,2.706-9.471,2.706-14.719,0-3.075-.451-5.084-1.353-6.273-1.066-1.435-3.034-2.132-5.945-2.132-1.271,0-2.46.041-3.936.164.533-2.378.779-3.772,1.312-6.6.615-.287.861-.533.861-.9s-.369-.7-.943-.779l-4.223-.9-.082,1.435c-.533,3.69-.943,6.027-1.476,8.282-3.116.41-3.731.533-7.749,1.271Zm25.584-3.2c3.075,4.633,4.92,9.881,6.519,18.614l4.8-2.091c-1.64-7.954-5.494-14.678-10.045-17.425Zm22.55,16.482a6.6,6.6,0,1,0,6.519,6.6A6.616,6.616,0,0,0,306.557,76.488Zm-.164,2.214a4.387,4.387,0,1,1-4.346,4.387A4.4,4.4,0,0,1,306.393,78.7Z" transform="translate(20 471.743)" fill="#b51919"/>
  </g>
</svg>
