<svg xmlns="http://www.w3.org/2000/svg" width="360" height="100" viewBox="0 0 360 100">
  <g id="electric02-sp" transform="translate(-669 -3220)">
    <g id="長方形_183" data-name="長方形 183" transform="translate(669 3220)" fill="none" stroke="#fff" stroke-width="1">
      <rect width="360" height="100" stroke="none"/>
      <rect x="0.5" y="0.5" width="359" height="99" fill="none"/>
    </g>
    <g id="グループ_769" data-name="グループ 769" transform="translate(79.162 -12.12)">
      <g id="グループ_767" data-name="グループ 767" transform="translate(622.838 3291.927)">
        <path id="パス_30914" data-name="パス 30914" d="M1.583-7.155H15.123l.863.166V-8.366l-.863.166H1.583L.72-8.366v1.377Zm28.243-.614A12.991,12.991,0,0,1,31-6.375l1.211-1.294a19.328,19.328,0,0,0-5.177-3.485l-.4.448a25.529,25.529,0,0,1,2.622,2.34l-.9.033c-1.892.066-2.655.083-5.476.116l-.962.017a19.854,19.854,0,0,0,2.688-3.75l.017-.05h7.086l.664.133V-12.8l-.664.133h-5.99v-1.892c.2-.149.266-.216.266-.332,0-.149-.116-.216-.365-.216h-1.41v2.439H18.193l-.647-.133v.929L18.193-12h4.729A30.044,30.044,0,0,1,21.23-8.466l-.149.266c-1.892.033-2.074.033-2.29.033h-.846l.332,1.311c.066.249.183.382.332.382s.266-.133.365-.4c.564-.017,1.1-.05,1.261-.066l.913-.05.913-.066a9.106,9.106,0,0,1-.929,3.8,6.038,6.038,0,0,1-3.8,2.788l.183.514a7.211,7.211,0,0,0,4.53-2.356A7.743,7.743,0,0,0,23.52-7.155l.2-.017c.348-.033.365-.033,1.245-.1.1-.017.6-.066,1.045-.1v5.476c0,1.261.448,1.626,1.958,1.61h2.655c1.145.017,1.626-.431,1.742-1.56l.216-1.941L31.833-3.9l-.183,1.576c-.066.548-.3.747-.846.747H28.183c-.631-.033-.78-.166-.78-.664V-7.487l.448-.05a8.719,8.719,0,0,0,1.079-.133Zm12.18,5.144h5.509V-7.288H35.534V-1.5h1.245V-2.625h4v1.294c.033.8.431,1.062,1.643,1.1h5.194c.9,0,1.261-.315,1.394-1.211l.149-1.228-.647-.066-.133.83c-.083.448-.266.581-.813.6H42.619c-.548-.033-.631-.083-.614-.5Zm0-4h4.231V-5.33H42.006Zm0,1.958h4.231v1.377H42.006ZM40.778-3.289h-4V-4.666h4Zm0-2.041h-4V-6.624h4Zm0-6.638v4h1.228v-4h5.509a15.63,15.63,0,0,1-.813,2.29l.431.2a6.238,6.238,0,0,0,2.024-3.153H42.006v-1.145H47.15l.664.133v-.929l-.664.133H36.131l-.647-.133v.929l.647-.133h4.646v1.145H35.849v-.05l-.017-.431h-.564a4.55,4.55,0,0,1-1.361,2.788l1.029,1.162a4.441,4.441,0,0,0,.913-2.8ZM36.314-8.449h3.634v-.664H36.314Zm0-1.759h3.634v-.664H36.314Zm6.521,1.759h3.7v-.664h-3.7Zm0-1.759h3.684v-.664H42.835ZM59.014-5.147h4.414l.664.133v-.929l-.664.133H59.014V-8.632H65l.664.133v-.929L65-9.3h-5.99v-2.8h4.63l.664.133V-12.9l-.664.133h-4.63v-1.726c.216-.166.266-.216.266-.315,0-.166-.116-.232-.365-.232H57.587v2.273H52.609l-.647-.133v.929l.647-.133h4.978v2.8H51.281l-.647-.133V-8.5l.647-.133h6.306v6.488a5.147,5.147,0,0,1-3.2-2.954c.1-.431.183-.83.332-1.742.249-.1.382-.216.382-.365,0-.116-.133-.216-.315-.232L53.356-7.6c-.3,3.717-1.029,5.542-2.854,7.285l.3.365a6.7,6.7,0,0,0,3.418-4.464A9.624,9.624,0,0,0,54.8-3.239,5.5,5.5,0,0,0,58.964-.6a33.263,33.263,0,0,0,4.928.232H65.3a7.489,7.489,0,0,1,.465-1.477c-1.659.1-2.921.149-4.082.149a21.087,21.087,0,0,1-2.672-.133Zm20.776-3.5H81.7l.664.133v-.929l-.664.133H73.584l-.664-.133v.929l.664-.133h4.746V-1.53c0,.531-.232.763-.747.763H75.774v.7H78.28c1.062,0,1.527-.431,1.51-1.444ZM69.551.047h1.377V-8.466c.365-.465.581-.73,1.128-1.46.431-.033.581-.116.581-.348,0-.1-.066-.183-.2-.266L71.277-11.3A26.014,26.014,0,0,1,67.1-5.711l.282.415a19.768,19.768,0,0,0,2.174-1.726Zm5.061-13.458h6.239l.664.133v-.962l-.664.133H74.612l-.664-.133v.962Zm-7.036,2.539a14.9,14.9,0,0,0,4.148-2.821,1.175,1.175,0,0,0,.448-.05.261.261,0,0,0,.2-.232c0-.083-.05-.166-.183-.266l-1.162-.879a17.786,17.786,0,0,1-3.734,3.833ZM88.07-6.043h1.162l.664.133V-6.84l-.664.133H88.07V-9.279h1.576v-5.144H84.5v5.144h2.373v7.152c-.149.017-.6.083-1.1.166V-7.437c.183-.149.232-.216.232-.315,0-.149-.116-.216-.365-.216H84.585v6.156h-.066c-.232.033-.382.05-.83.1L84-.534c.05.2.149.315.282.315s.249-.116.3-.365A33.535,33.535,0,0,0,90.061-2.21l-.066-.481c-.448.083-.913.183-1.394.266-.3.05-.365.066-.531.1Zm-2.323-3.9v-3.817H88.4v3.817Zm6.571,8.38V-5.048h5.824V-10.59H92.318v-3.086H98.01l.664.133v-.929l-.664.133H90.957V.047h1.361V-.9h5.957l.68.133V-1.7l-.68.133Zm0-8.363h4.431v4.215H92.318Zm14.619,6.787v1.427c-.017.548-.2.73-.73.747h-1.178v.7H106.7c.979,0,1.41-.4,1.394-1.311V-6.607h-3.452c.083-.3.2-.714.282-1.128h2.721V-11.5c.216-.149.266-.216.266-.332,0-.149-.116-.216-.348-.216h-1.045V-8.4h-4.331v-3.12c.216-.166.266-.232.266-.332,0-.149-.133-.232-.348-.232h-1.045v4.348h2.721c-.033.3-.05.332-.183,1.128h-2.821V-.219h1.195V-5.944h1.493c-.216,1.079-.365,1.792-.448,2.157l-.066.017c-.348.017-.348.017-.8.033l.3,1.012c.033.149.133.249.232.249s.2-.1.282-.315a16.035,16.035,0,0,0,2.589-.747,10.231,10.231,0,0,1,.348,1.012Zm0-2.8v2.738a7.8,7.8,0,0,0-1.776-2.107l-.348.166c.3.581.415.83.548,1.145-.382.05-1.46.166-1.709.183.216-.5.614-1.56.8-2.124Zm6.223-2.605v-2.572h1.527l.664.133v-.929l-.664.133h-2.141a10.02,10.02,0,0,0,1.377-2.24c.266-.083.431-.216.431-.315a.345.345,0,0,0-.232-.249l-1.261-.4a21.372,21.372,0,0,1-.913,3.2h-1.941l.017-.05a16.841,16.841,0,0,0,.979-2.29c.3-.1.465-.232.465-.348,0-.083-.116-.2-.216-.232l-1.311-.415A26.419,26.419,0,0,1,107.817-9.3l.332.249a14.248,14.248,0,0,0,1.079-1.394V.047h1.162v-.9h4.5l.664.133v-.929l-.664.133H113.16v-3.1H114.3l.664.133v-.929l-.664.133H113.16V-7.885H114.3l.664.133v-.929l-.664.133Zm-1.145,0h-1.626v-2.572h1.626Zm0,.664V-5.28h-1.626V-7.885Zm0,3.269v3.1h-1.626v-3.1Zm-9.442-7c.631.481.83.631,1.344,1.079a13.833,13.833,0,0,1-1.593,1.493l.249.348a10.011,10.011,0,0,0,1.941-1.294,10.637,10.637,0,0,1,1.128,1.162l.763-.78a10.059,10.059,0,0,0-1.261-1l.033-.033c.249-.282.382-.448.431-.5.1-.116.133-.183.266-.332.282-.017.415-.1.415-.232a.225.225,0,0,0-.116-.183l-.913-.481A14.127,14.127,0,0,1,104.4-11.1c-.465-.3-.83-.5-1.527-.863Zm2.539-1.842v-1.012c.216-.149.266-.216.266-.332,0-.149-.116-.216-.348-.216h-1.278v1.56h-2.8l-.664-.133v.929l.664-.133h6.87l.647.133v-.929l-.647.133Z" transform="translate(-0.72 24.248)" fill="#fff"/>
        <path id="パス_30923" data-name="パス 30923" d="M19.419-7.959H15.16v5.692H12.1V-7.959H1.26v-1.51l9.912-17.888H15.16v16.765h4.259ZM12.1-10.592V-25.266h-.5L3.7-10.592Zm18.391,8.75a7.182,7.182,0,0,1-4.646-1.626A10.393,10.393,0,0,1,22.73-8.056a19.39,19.39,0,0,1-1.1-6.8,19.228,19.228,0,0,1,1.1-6.776A10.325,10.325,0,0,1,25.866-26.2a7.26,7.26,0,0,1,4.666-1.626A7.315,7.315,0,0,1,35.2-26.215a10.187,10.187,0,0,1,3.136,4.549,19.228,19.228,0,0,1,1.1,6.776,19.087,19.087,0,0,1-1.123,6.8,10.594,10.594,0,0,1-3.156,4.608A7.206,7.206,0,0,1,30.493-1.841Zm.039-1.239q2.633,0,4.027-3.02t1.394-8.75q0-5.692-1.394-8.712t-4.027-3.02q-2.633,0-4.027,3.02t-1.394,8.712q0,5.73,1.394,8.75T30.532-3.08Zm22.5-12.739q5.421,1.742,5.421,6.427a6.653,6.653,0,0,1-1.258,4.065,8.044,8.044,0,0,1-3.252,2.594,10.1,10.1,0,0,1-4.162.891,8.374,8.374,0,0,1-4.472-1.2,8.842,8.842,0,0,1-3.078-3.136l1.239-.774A6.219,6.219,0,0,0,46.1-4.358a7.327,7.327,0,0,0,3.369.852,6.011,6.011,0,0,0,2.691-.62,4.988,4.988,0,0,0,2.052-1.9A5.757,5.757,0,0,0,55-9.12a5.5,5.5,0,0,0-1.568-4.124,5.354,5.354,0,0,0-3.891-1.529h-.968v-1.2a6.562,6.562,0,0,0,2.672-.581,5.047,5.047,0,0,0,2.168-1.839,5.507,5.507,0,0,0,.852-3.156,5.754,5.754,0,0,0-1.084-3.543,3.674,3.674,0,0,0-3.136-1.452,3.694,3.694,0,0,0-3.31,1.684,8.494,8.494,0,0,0-1.258,4.2H43.386V-25.3a7.661,7.661,0,0,1,2.865-1.859,10.319,10.319,0,0,1,3.794-.7,9.375,9.375,0,0,1,3.756.736A6.519,6.519,0,0,1,56.531-25,5.4,5.4,0,0,1,57.557-21.7Q57.557-17.794,53.027-15.819ZM79.9-3.429v1.162H74.671L68.4-11.056H67.16v7.628h2.4v1.162H61.778V-3.429h2.478V-27.551H61.468v-1.123l5.692-.348v16.649h1.316L74.4-18.607H71.767v-1.162h7.047v1.162H76.375L70.8-12.683l6.776,9.254Zm28.884,0v1.162h-7.4V-3.429h1.975V-14.58a5.73,5.73,0,0,0-.736-3.233,2.544,2.544,0,0,0-2.246-1.065,3.551,3.551,0,0,0-2.768,1.239,4.54,4.54,0,0,0-1.1,3.136V-3.429h2.207v1.162H91.4V-3.429H93.6V-14.58a5.73,5.73,0,0,0-.736-3.233,2.544,2.544,0,0,0-2.246-1.065,3.593,3.593,0,0,0-2.807,1.239,4.54,4.54,0,0,0-1.1,3.136V-3.429h2.052v1.162H81.253V-3.429h2.555V-18.607H81.331v-1.123l5.3-.31.077,1.82a5.477,5.477,0,0,1,4.646-1.975,5.714,5.714,0,0,1,2.788.678,4.191,4.191,0,0,1,1.82,1.878,4.916,4.916,0,0,1,2.013-1.9,6.336,6.336,0,0,1,2.943-.658q5.343,0,5.343,6.04V-3.429ZM113.9-20.581l1.583,1.858-.809.6L113.4-20.237l-1.273,2.117-.809-.6,1.6-1.841-2.375-.551.31-.964,2.254.946-.206-2.426h1.015l-.224,2.426,2.254-.946.327.964Zm-.5-.138-.017.017h.017l.017-.017Zm9.447,2.289q2.409.774,2.409,2.856a2.957,2.957,0,0,1-.559,1.807,3.575,3.575,0,0,1-1.445,1.153,4.488,4.488,0,0,1-1.85.4,3.722,3.722,0,0,1-1.987-.533,3.929,3.929,0,0,1-1.368-1.394l.551-.344a2.764,2.764,0,0,0,1.17,1.153,3.256,3.256,0,0,0,1.5.379,2.672,2.672,0,0,0,1.2-.275,2.217,2.217,0,0,0,.912-.843,2.559,2.559,0,0,0,.353-1.377,2.442,2.442,0,0,0-.7-1.833,2.379,2.379,0,0,0-1.729-.68h-.43V-18.5a2.916,2.916,0,0,0,1.187-.258,2.243,2.243,0,0,0,.964-.817,2.447,2.447,0,0,0,.379-1.4,2.557,2.557,0,0,0-.482-1.574,1.633,1.633,0,0,0-1.394-.645,1.642,1.642,0,0,0-1.471.749,3.775,3.775,0,0,0-.559,1.867h-.929v-2.065a3.405,3.405,0,0,1,1.273-.826,4.586,4.586,0,0,1,1.686-.31,4.166,4.166,0,0,1,1.669.327,2.9,2.9,0,0,1,1.213.946,2.4,2.4,0,0,1,.456,1.463A2.82,2.82,0,0,1,122.845-18.43Z" transform="translate(152.27 29.022)" fill="#fff"/>
      </g>
      <g id="グループ_768" data-name="グループ 768" transform="translate(622.838 3246.12)">
        <path id="パス_30921" data-name="パス 30921" d="M11.4-17.94a8.261,8.261,0,0,1,3.846.927,7.12,7.12,0,0,1,2.88,2.741,8.224,8.224,0,0,1,1.085,4.3,9.028,9.028,0,0,1-1.124,4.517,8.045,8.045,0,0,1-3.057,3.1,8.435,8.435,0,0,1-4.26,1.1A7.574,7.574,0,0,1,6.071-2.773a9.58,9.58,0,0,1-3.1-4.319A18.078,18.078,0,0,1,1.89-13.64a19.19,19.19,0,0,1,1.341-7.436,11.913,11.913,0,0,1,3.57-4.95,7.7,7.7,0,0,1,4.832-1.736,7.28,7.28,0,0,1,3.688.986,8.879,8.879,0,0,1,2.939,2.8l-1.183.986a8.333,8.333,0,0,0-2.386-2.367,5.3,5.3,0,0,0-2.9-.868,5.044,5.044,0,0,0-4.6,3.1,19.168,19.168,0,0,0-1.834,8.185,7.972,7.972,0,0,1,2.465-2.13A7.073,7.073,0,0,1,11.4-17.94Zm.039,15.423A3.574,3.574,0,0,0,14.73-4.351a9.339,9.339,0,0,0,1.085-4.793,8.559,8.559,0,0,0-1.5-5.5,4.611,4.611,0,0,0-3.708-1.834,4.567,4.567,0,0,0-3.333,1.341,6.749,6.749,0,0,0-1.834,3.2,14.212,14.212,0,0,0,1.893,7A4.8,4.8,0,0,0,11.436-2.517ZM31.2-18.3a8.261,8.261,0,0,1,3.846.927,7.308,7.308,0,0,1,2.919,2.781,8.359,8.359,0,0,1,1.124,4.418,8.813,8.813,0,0,1-1.3,4.891A8.408,8.408,0,0,1,34.492-2.26,9.038,9.038,0,0,1,30.37-1.254a9.067,9.067,0,0,1-4.615-1.183,8.39,8.39,0,0,1-3.2-3.235l1.262-.789a6.8,6.8,0,0,0,2.6,2.643,7.21,7.21,0,0,0,3.59.907A5.115,5.115,0,0,0,32.8-3.72a5.8,5.8,0,0,0,2.071-2.386,8.291,8.291,0,0,0,.789-3.747,7.92,7.92,0,0,0-.789-3.688A5.312,5.312,0,0,0,32.8-15.79a5.527,5.527,0,0,0-2.781-.73,4.517,4.517,0,0,0-2.367.592,7.372,7.372,0,0,0-1.775,1.5H24.335l.947-12.82H37.825v3.156H26.5l-.552,7.652a6.958,6.958,0,0,1,2.268-1.341A8.382,8.382,0,0,1,31.2-18.3Zm19.52,5.2c.135-1.51.248-3.449.248-4.35v-.879H62.191l.9.18V-19.45l-.9.18H43.257l-.9-.18v1.307l.9-.18h5.635v.879c-.135,5.274-.811,9.039-2.051,11.473A11.2,11.2,0,0,1,42.356-.832l.383.7a11.472,11.472,0,0,0,5.77-4.959,16.03,16.03,0,0,0,2.1-7.055h7.731A74.335,74.335,0,0,1,57.322-2.59a1.342,1.342,0,0,1-1.6,1.127H52.657V-.4h4.26c1.533,0,2.3-.541,2.57-1.826a91.554,91.554,0,0,0,1.059-10.864Zm15.688-6.154V-.178H68.39V-9.307H82.162v6.785c0,.879-.383,1.262-1.262,1.262H77.992v.947h3.967c1.533,0,2.186-.654,2.186-2.164v-16.77Zm1.984.9h5.793v8.137H68.39Zm7.754,0h6.018v8.137H76.144Z" transform="translate(210.631 28.793)" fill="#fff"/>
        <path id="パス_30920" data-name="パス 30920" d="M2.434-1.525h1.46v-9.558H1.837L.974-8.794H.36v-2.887H8.806v2.887H8.192l-.83-2.29H5.3v9.558h1.46v.6H2.434ZM19.26-11.083v9.558h1.328v.6H16.556v-.6H17.85V-6.288h-4.9v4.762h1.294v.6H10.217v-.6h1.328v-9.558H10.217v-.6h4.032v.6H12.955v4.165h4.9v-4.165H16.556v-.6h4.032v.6ZM30.428-3.849V-.928H22.214v-.6h1.328v-9.558H22.214v-.6H30.3v2.887h-.631l-.879-2.29H24.952v4.165h2.605V-8.2h.763V-5.01h-.763V-6.288H24.952v4.762h3.966L29.8-3.849ZM36.7-1.525h1.328v-9.558H36.7v-.6h2.7L44.4-3.616v-7.467H43.072v-.6h3.369v.6H45.114V-.928H44.35l-5.609-9.143v8.546h1.328v.6H36.7ZM56.115-3.849V-.928H47.9v-.6h1.328v-9.558H47.9v-.6h8.081v2.887h-.631l-.879-2.29H50.639v4.165h2.605V-8.2h.763V-5.01h-.763V-6.288H50.639v4.762h3.966l.879-2.323Zm17.042-7.235H71.929L69.058-.928H68.3l-2.97-8.4-2.7,8.4h-.763L58.82-11.083H57.509v-.6h4.148v.6H60.33L62.6-3.168l2.7-8.446h.7l3.037,8.4,2.174-7.865H69.9v-.6h3.252ZM89.2-1.525v.6h-3.85v-.6h1.211L85.37-4.894H81.8L80.608-1.525h1.211v.6h-3.1v-.6h1.178l3.667-10.155h.78L88.025-1.525Zm-4.065-4-1.527-4.3h-.066l-1.527,4.3Zm5.327,4h1.328v-9.558H90.464v-.6H94.58v.6H93.2v9.558h3.883l.879-2.323H98.6V-.928H90.464Zm9.541,0h1.327v-9.558h-1.327v-.6h4.115v.6h-1.377v9.558h3.883l.879-2.323h.631V-.928h-8.131Zm9.641-4.082h3.634v.647h-3.634Zm13.574,1.759V-.928h-8.214v-.6h1.327v-9.558h-1.327v-.6h8.081v2.887h-.631l-.879-2.29h-3.833v4.165h2.605V-8.2h.763V-5.01h-.763V-6.288h-2.605v4.762h3.966l.879-2.323ZM124.9-1.525h1.328v-9.558H124.9v-.6h4.115v.6h-1.377v9.558h3.883l.879-2.323h.631V-.928H124.9Zm17.755-2.323V-.928h-8.214v-.6h1.328v-9.558h-1.328v-.6h8.081v2.887h-.631l-.879-2.29h-3.833v4.165h2.605V-8.2h.763V-5.01h-.763V-6.288h-2.605v4.762h3.966l.879-2.323Zm6.621,3.12a4.377,4.377,0,0,1-2.713-.8,4.47,4.47,0,0,1-1.518-2.033,7.321,7.321,0,0,1-.465-2.6,7.861,7.861,0,0,1,.481-2.746,4.78,4.78,0,0,1,1.543-2.141,4.206,4.206,0,0,1,2.688-.838,5.054,5.054,0,0,1,1.867.307,5.566,5.566,0,0,1,1.386.788v1.991H151.6a2.952,2.952,0,0,0-.8-1.941,2.306,2.306,0,0,0-1.626-.614,2.609,2.609,0,0,0-2.348,1.186,5.523,5.523,0,0,0-.772,3.062,10.142,10.142,0,0,0,.357,2.738,4.966,4.966,0,0,0,1.1,2.083,2.431,2.431,0,0,0,1.859.8,2.906,2.906,0,0,0,1.792-.614,2.887,2.887,0,0,0,1.062-1.776h.631a3.774,3.774,0,0,1-.664,1.61,3.7,3.7,0,0,1-1.278,1.12A3.442,3.442,0,0,1,149.273-.729Zm6.9-.8h1.46v-9.558h-2.058l-.863,2.29H154.1v-2.887h8.446v2.887h-.614l-.83-2.29h-2.058v9.558h1.46v.6h-4.331Zm17.755,0v.6h-2.539L168.24-5.89H166.7v4.364h1.311v.6h-4.049v-.6h1.327v-9.558h-1.327v-.6h4.829a3.334,3.334,0,0,1,2.439.8,2.761,2.761,0,0,1,.813,2.049,2.838,2.838,0,0,1-.614,1.85,2.873,2.873,0,0,1-1.676.987l2.987,4.464ZM166.7-6.52H168.6a1.7,1.7,0,0,0,1.352-.639,2.447,2.447,0,0,0,.539-1.634,2.516,2.516,0,0,0-.523-1.659,1.692,1.692,0,0,0-1.369-.631H166.7Zm13.059,4.995v.6h-4.663v-.6h1.626v-9.558h-1.56v-.6h4.53v.6h-1.56v9.558Zm6.405.8a4.377,4.377,0,0,1-2.713-.8,4.47,4.47,0,0,1-1.518-2.033,7.32,7.32,0,0,1-.465-2.6,7.861,7.861,0,0,1,.481-2.746,4.78,4.78,0,0,1,1.543-2.141,4.206,4.206,0,0,1,2.688-.838,5.054,5.054,0,0,1,1.867.307,5.566,5.566,0,0,1,1.386.788v1.991h-.946a2.952,2.952,0,0,0-.8-1.941,2.306,2.306,0,0,0-1.626-.614,2.609,2.609,0,0,0-2.348,1.186,5.523,5.523,0,0,0-.772,3.062,10.142,10.142,0,0,0,.357,2.738,4.966,4.966,0,0,0,1.1,2.083,2.431,2.431,0,0,0,1.859.8,2.906,2.906,0,0,0,1.792-.614,2.887,2.887,0,0,0,1.062-1.776h.631a3.774,3.774,0,0,1-.664,1.61,3.7,3.7,0,0,1-1.278,1.12A3.442,3.442,0,0,1,186.161-.729ZM.576,17.834H1.9V8.276H.576v-.6H3.413l3.651,8.313,3.518-8.313h2.771v.6H12.025v9.558h1.328v.6H9.287v-.6h1.328V9.454L7.064,17.817H6.3L2.617,9.388v8.446H3.894v.6H.576Zm19.066,0v.6H14.979v-.6h1.626V8.276h-1.56v-.6h4.53v.6h-1.56v9.558Zm1.626,0H22.6V8.276H21.268v-.6h2.7l4.995,8.065V8.276H27.64v-.6h3.369v.6H29.681V18.431h-.763L23.309,9.288v8.546h1.328v.6H21.268Zm15.864,0v.6H32.469v-.6H34.1V8.276h-1.56v-.6h4.53v.6h-1.56v9.558Zm16.328,0v.6H49.61v-.6h1.211l-1.195-3.369H46.059l-1.195,3.369h1.211v.6h-3.1v-.6h1.178L47.818,7.679h.78l3.684,10.155Zm-4.065-4-1.527-4.3H47.8l-1.527,4.3Zm9.425,4.8a4.377,4.377,0,0,1-2.713-.8A4.47,4.47,0,0,1,54.589,15.8a7.32,7.32,0,0,1-.465-2.6,7.861,7.861,0,0,1,.481-2.746,4.78,4.78,0,0,1,1.543-2.141,4.207,4.207,0,0,1,2.688-.838,5.054,5.054,0,0,1,1.867.307,5.566,5.566,0,0,1,1.386.788v1.991h-.946a2.952,2.952,0,0,0-.8-1.941A2.306,2.306,0,0,0,58.72,8.01,2.609,2.609,0,0,0,56.372,9.2a5.523,5.523,0,0,0-.772,3.062A10.143,10.143,0,0,0,55.958,15a4.966,4.966,0,0,0,1.1,2.083,2.431,2.431,0,0,0,1.859.8,2.883,2.883,0,0,0,2.854-2.39H62.4a3.774,3.774,0,0,1-.664,1.61,3.7,3.7,0,0,1-1.278,1.12A3.442,3.442,0,0,1,58.82,18.63Zm13.258-3.12v2.921H63.865v-.6h1.327V8.276H63.865v-.6h8.081v2.887h-.631l-.879-2.29H66.6v4.165h2.605V11.163h.763v3.186h-.763V13.072H66.6v4.762h3.966l.879-2.323Zm1.676,2.323h1.328V8.276H73.754v-.6h2.838l3.651,8.313L83.76,7.679h2.771v.6H85.2v9.558h1.328v.6H82.466v-.6h1.328V9.454l-3.551,8.363h-.763L75.8,9.388v8.446h1.278v.6H73.754Zm24.509,0v.6h-3.85v-.6h1.211L94.43,14.465H90.863l-1.195,3.369h1.211v.6h-3.1v-.6h1.178L92.622,7.679h.78l3.684,10.155Zm-4.065-4-1.527-4.3H92.6l-1.527,4.3Zm5.327,4h1.327V8.276H99.525v-.6h2.7l4.995,8.065V8.276H105.9v-.6h3.369v.6h-1.328V18.431h-.763l-5.609-9.143v8.546h1.328v.6H99.525Zm18.054.8a2.838,2.838,0,0,1-1.435-.307,3.442,3.442,0,0,1-.954-.855V15.511h.9a5.238,5.238,0,0,0,.448,1.975,1.1,1.1,0,0,0,1.029.6q1.245,0,1.245-1.792V8.276h-1.377v-.6h4.132v.6h-1.344v7.567a2.7,2.7,0,0,1-.763,2.083A2.661,2.661,0,0,1,117.579,18.63Zm10.189,0a4.377,4.377,0,0,1-2.713-.8,4.47,4.47,0,0,1-1.518-2.033,7.32,7.32,0,0,1-.465-2.6,7.861,7.861,0,0,1,.481-2.746A4.78,4.78,0,0,1,125.1,8.317a4.206,4.206,0,0,1,2.688-.838,5.054,5.054,0,0,1,1.867.307,5.566,5.566,0,0,1,1.386.788v1.991h-.946a2.952,2.952,0,0,0-.8-1.941,2.306,2.306,0,0,0-1.626-.614A2.609,2.609,0,0,0,125.32,9.2a5.523,5.523,0,0,0-.772,3.062A10.142,10.142,0,0,0,124.9,15a4.966,4.966,0,0,0,1.1,2.083,2.431,2.431,0,0,0,1.859.8,2.883,2.883,0,0,0,2.854-2.39h.631a3.774,3.774,0,0,1-.664,1.61,3.7,3.7,0,0,1-1.278,1.12A3.442,3.442,0,0,1,127.767,18.63Zm20.41-10.355H146.95l-2.871,10.155h-.763l-2.97-8.4-2.7,8.4h-.763L133.841,8.276H132.53v-.6h4.148v.6h-1.327l2.273,7.915,2.7-8.446h.7l3.037,8.4,2.174-7.865h-1.311v-.6h3.252Zm.714,10.338a.991.991,0,1,1,.705-.29A.96.96,0,0,1,148.891,18.614Zm5.577-4.571V12.765a16.423,16.423,0,0,0,1.665-3.085h-1.665V8.093c.168-.129.206-.168.206-.258,0-.116-.09-.168-.271-.168h-.929V9.681h-1.162l-.516-.1V10.3l.516-.1H154.8a19.949,19.949,0,0,1-3.123,5.046l.232.31a12.7,12.7,0,0,0,1.562-1.5v5.33h.994V14.508a13.9,13.9,0,0,1,.891,1.859l.813-.71a6.462,6.462,0,0,0-1.433-1.407A7.42,7.42,0,0,0,156,13.191c.232-.013.348-.077.348-.207a.225.225,0,0,0-.116-.168l-.761-.5a9.909,9.909,0,0,1-.994,1.729Zm4.685-2.775h-2.53v7.8h.942V16.07h1.587v3.317h.942V16.07h1.9v1.9c-.013.413-.142.542-.555.555h-.658v.542h1.084c.774,0,1.084-.31,1.084-1.033V11.268H160.1V9.952h2.956l.5.1V9.332l-.5.1H160.1V8.093c.168-.116.207-.168.207-.258,0-.116-.09-.168-.271-.168h-.878V9.436h-2.362l-.516-.1v.723l.516-.1h2.362Zm0,4.285h-1.587v-1.7h1.587Zm.942,0v-1.7h1.9v1.7Zm-.942-2.22h-1.587V11.785h1.587Zm.942,0V11.785h1.9v1.549Zm.826-5.369a5.073,5.073,0,0,1,.994,1.3l.878-.7a6.053,6.053,0,0,0-1.6-.852Zm9.1,8.492V8.545h-4.13V17.1l-.891.1.348.968c.039.116.142.219.232.219s.181-.1.219-.3a28.745,28.745,0,0,0,5.137-1.446l-.077-.361Zm-.968.181c-.465.09-1.291.219-2.207.348V14.379h2.207Zm0-2.775h-2.207v-2.13h2.207Zm0-2.646h-2.207V9.061h2.207Zm1.884-.581-.516-.1v.723l.516-.1H172.2a20.192,20.192,0,0,1-.555,4.233,6.292,6.292,0,0,1-2.788,3.769l.219.31c2.968-1.355,4.027-3.446,4.207-8.312h1.962c-.077,2.53-.271,5.55-.413,6.634-.077.8-.181.955-.671.968h-1.174V19.3h1.717c.8,0,1.084-.284,1.187-1.1.155-.891.348-3.846.465-7.563H173.3c.013-.336.026-.839.026-1.613V8.171c.168-.116.206-.168.206-.258,0-.116-.09-.168-.271-.168h-1.007V9.023c0,.594-.013,1.11-.026,1.613ZM184.54,8.2c.219-.065.323-.155.323-.284s-.09-.181-.258-.207l-1.058-.116a12.938,12.938,0,0,1-2.065,2.568,15.734,15.734,0,0,1-3.162,2.465l.181.323a12.571,12.571,0,0,0,5.782-4.388,11.611,11.611,0,0,0,5.356,4.13,4.96,4.96,0,0,1,.555-1.149A13.052,13.052,0,0,1,184.54,8.2Zm-.916,10.144h-4.337l-.5-.1v.723l.5-.1h9.938l.5.1v-.723l-.5.1H184.7V14.714h4.014l.516.1v-.723l-.516.1H184.7V12.249h2.142l.516.1V11.63l-.516.1h-5.214l-.5-.1v.723l.5-.1h2V14.2H179.8l-.516-.1v.723l.516-.1h3.82Zm-1.355-1.136a6.808,6.808,0,0,0-1.729-1.9l-.31.155a12.687,12.687,0,0,1,.916,2.439Zm4.233.774a7.987,7.987,0,0,0,1.51-1.923c.271-.052.4-.142.4-.284,0-.09-.1-.168-.258-.219l-1.084-.361a16.125,16.125,0,0,1-.865,2.607Z" transform="translate(-0.36 11.88)" fill="#fff"/>
      </g>
    </g>
  </g>
</svg>
