<svg xmlns="http://www.w3.org/2000/svg" width="701.873" height="66" viewBox="0 0 701.873 66">
  <g id="electric02" transform="translate(-590 -3223)">
    <g id="長方形_183" data-name="長方形 183" transform="translate(590 3223)" fill="none" stroke="#fff" stroke-width="1">
      <rect width="701.873" height="66" stroke="none"/>
      <rect x="0.5" y="0.5" width="700.873" height="65" fill="none"/>
    </g>
    <g id="グループ_769" data-name="グループ 769">
      <g id="グループ_767" data-name="グループ 767" transform="translate(6.714 2.022)">
        <path id="パス_30926" data-name="パス 30926" d="M20.958-6.174h-4.62V0H13.02V-6.174H1.26V-7.812l10.752-19.4h4.326V-9.03h4.62ZM13.02-9.03V-24.948h-.546L3.906-9.03ZM32.97.462A7.791,7.791,0,0,1,27.93-1.3a11.273,11.273,0,0,1-3.381-4.977,21.033,21.033,0,0,1-1.2-7.371,20.857,20.857,0,0,1,1.2-7.35,11.2,11.2,0,0,1,3.4-4.956,7.875,7.875,0,0,1,5.061-1.764,7.934,7.934,0,0,1,5.061,1.743,11.05,11.05,0,0,1,3.4,4.935,20.857,20.857,0,0,1,1.2,7.35,20.7,20.7,0,0,1-1.218,7.371,11.492,11.492,0,0,1-3.423,5A7.817,7.817,0,0,1,32.97.462Zm.042-1.344q2.856,0,4.368-3.276t1.512-9.492q0-6.174-1.512-9.45t-4.368-3.276q-2.856,0-4.368,3.276t-1.512,9.45q0,6.216,1.512,9.492T33.012-.882ZM57.414-14.7q5.88,1.89,5.88,6.972a7.216,7.216,0,0,1-1.365,4.41A8.725,8.725,0,0,1,58.4-.5a10.954,10.954,0,0,1-4.515.966,9.084,9.084,0,0,1-4.851-1.3,9.591,9.591,0,0,1-3.339-3.4l1.344-.84A6.746,6.746,0,0,0,49.9-2.268a7.947,7.947,0,0,0,3.654.924,6.521,6.521,0,0,0,2.919-.672,5.41,5.41,0,0,0,2.226-2.058,6.245,6.245,0,0,0,.861-3.36,5.961,5.961,0,0,0-1.7-4.473,5.807,5.807,0,0,0-4.221-1.659h-1.05v-1.3a7.118,7.118,0,0,0,2.9-.63,5.474,5.474,0,0,0,2.352-2,5.973,5.973,0,0,0,.924-3.423,6.241,6.241,0,0,0-1.176-3.843,3.986,3.986,0,0,0-3.4-1.575,4.007,4.007,0,0,0-3.591,1.827,9.213,9.213,0,0,0-1.365,4.557H46.956v-5.04a8.311,8.311,0,0,1,3.108-2.016,11.194,11.194,0,0,1,4.116-.756,10.17,10.17,0,0,1,4.074.8,7.072,7.072,0,0,1,2.961,2.31,5.857,5.857,0,0,1,1.113,3.57Q62.328-16.842,57.414-14.7ZM86.562-1.26V0h-5.67l-6.8-9.534H72.744V-1.26h2.6V0H66.906V-1.26h2.688V-27.426H66.57v-1.218l6.174-.378v18.06h1.428L80.6-17.724H77.742v-1.26h7.644v1.26H82.74L76.692-11.3,84.042-1.26Zm31.332,0V0h-8.022V-1.26h2.142v-12.1a6.215,6.215,0,0,0-.8-3.507,2.759,2.759,0,0,0-2.436-1.155,3.852,3.852,0,0,0-3,1.344,4.925,4.925,0,0,0-1.2,3.4V-1.26h2.394V0H99.036V-1.26h2.394v-12.1a6.215,6.215,0,0,0-.8-3.507A2.759,2.759,0,0,0,98.2-18.018a3.9,3.9,0,0,0-3.045,1.344,4.925,4.925,0,0,0-1.2,3.4V-1.26H96.18V0H88.032V-1.26H90.8V-17.724H88.116v-1.218l5.754-.336.084,1.974a5.941,5.941,0,0,1,5.04-2.142,6.2,6.2,0,0,1,3.024.735,4.546,4.546,0,0,1,1.974,2.037,5.333,5.333,0,0,1,2.184-2.058,6.873,6.873,0,0,1,3.192-.714q5.8,0,5.8,6.552V-1.26Zm9.062-17.635,1.008,1.008-3.238,3.238,3.238,3.247-1.008,1.034-3.247-3.247-3.238,3.247L119.437-11.4l3.238-3.247-3.238-3.238,1.034-1.008,3.238,3.238Zm1.854,3.315v1.786h-1.863V-15.58Zm-8.023,0v1.786h-1.863V-15.58Zm1.982-3.879h1.786V-17.6h-1.786Zm0,8.023h1.786v1.863h-1.786Zm11.64-4.689q2.45.787,2.45,2.9a3.007,3.007,0,0,1-.569,1.837,3.635,3.635,0,0,1-1.47,1.172,4.564,4.564,0,0,1-1.881.4,3.785,3.785,0,0,1-2.021-.542,4,4,0,0,1-1.391-1.417l.56-.35a2.811,2.811,0,0,0,1.19,1.172,3.311,3.311,0,0,0,1.522.385,2.717,2.717,0,0,0,1.216-.28,2.254,2.254,0,0,0,.927-.857,2.6,2.6,0,0,0,.359-1.4,2.484,2.484,0,0,0-.709-1.864,2.42,2.42,0,0,0-1.759-.691H132.4v-.542a2.966,2.966,0,0,0,1.207-.262,2.281,2.281,0,0,0,.98-.831,2.489,2.489,0,0,0,.385-1.426,2.6,2.6,0,0,0-.49-1.6,1.661,1.661,0,0,0-1.417-.656,1.669,1.669,0,0,0-1.5.761,3.839,3.839,0,0,0-.569,1.9h-.945v-2.1a3.463,3.463,0,0,1,1.295-.84,4.664,4.664,0,0,1,1.715-.315,4.237,4.237,0,0,1,1.7.332,2.946,2.946,0,0,1,1.234.962,2.44,2.44,0,0,1,.464,1.487A2.868,2.868,0,0,1,134.409-16.125Z" transform="translate(1108.3 3269)" fill="#fff"/>
        <path id="パス_30925" data-name="パス 30925" d="M1.656-6.48H16.344l.936.18V-7.794l-.936.18H1.656L.72-7.794V-6.3Zm30.636-.666A14.092,14.092,0,0,1,33.57-5.634l1.314-1.4a20.966,20.966,0,0,0-5.616-3.78l-.432.486A27.692,27.692,0,0,1,31.68-7.794l-.972.036c-2.052.072-2.88.09-5.94.126l-1.044.018a21.537,21.537,0,0,0,2.916-4.068l.018-.054h7.686l.72.144V-12.6l-.72.144h-6.5v-2.052c.216-.162.288-.234.288-.36,0-.162-.126-.234-.4-.234h-1.53v2.646H19.674l-.7-.144v1.008l.7-.144H24.8A32.59,32.59,0,0,1,22.968-7.9l-.162.288c-2.052.036-2.25.036-2.484.036H19.4l.36,1.422c.072.27.2.414.36.414s.288-.144.4-.432c.612-.018,1.188-.054,1.368-.072l.99-.054.99-.072A9.878,9.878,0,0,1,22.86-2.25,6.549,6.549,0,0,1,18.738.774l.2.558A7.822,7.822,0,0,0,23.85-1.224c.954-1.026,1.512-2.916,1.6-5.256l.216-.018c.378-.036.4-.036,1.35-.108.108-.018.648-.072,1.134-.108v5.94c0,1.368.486,1.764,2.124,1.746h2.88C34.4.99,34.92.5,35.046-.72l.234-2.106-.81-.126-.2,1.71c-.072.594-.324.81-.918.81H30.51c-.684-.036-.846-.18-.846-.72V-6.84l.486-.054a9.458,9.458,0,0,0,1.17-.144ZM45.5-1.566H51.48V-6.624h-13V-.342h1.35V-1.566h4.338v1.4C44.208.7,44.64.99,45.954,1.026h5.634c.972,0,1.368-.342,1.512-1.314l.162-1.332-.7-.072-.144.9c-.09.486-.288.63-.882.648H46.17c-.594-.036-.684-.09-.666-.54Zm0-4.338h4.59v1.4H45.5Zm0,2.124h4.59v1.494H45.5ZM44.172-2.286H39.834V-3.78h4.338Zm0-2.214H39.834V-5.9h4.338Zm0-7.2v4.338H45.5V-11.7H51.48A16.955,16.955,0,0,1,50.6-9.216L51.066-9a6.767,6.767,0,0,0,2.2-3.42H45.5v-1.242h5.58l.72.144v-1.008l-.72.144H39.132l-.7-.144v1.008l.7-.144h5.04v1.242H38.826v-.054l-.018-.468H38.2A4.935,4.935,0,0,1,36.72-9.918l1.116,1.26a4.818,4.818,0,0,0,.99-3.042ZM39.33-7.884h3.942V-8.6H39.33Zm0-1.908h3.942v-.72H39.33ZM46.4-7.884h4.014V-8.6H46.4Zm0-1.908h4v-.72h-4ZM63.954-4.3h4.788l.72.144V-5.166l-.72.144H63.954v-3.06h6.5l.72.144V-8.946l-.72.144h-6.5v-3.042h5.022l.72.144v-1.008l-.72.144H63.954v-1.872c.234-.18.288-.234.288-.342,0-.18-.126-.252-.4-.252h-1.44v2.466h-5.4l-.7-.144V-11.7l.7-.144h5.4V-8.8h-6.84l-.7-.144v1.008l.7-.144h6.84v7.038a5.583,5.583,0,0,1-3.474-3.2c.108-.468.2-.9.36-1.89.27-.108.414-.234.414-.4,0-.126-.144-.234-.342-.252l-1.548-.18c-.324,4.032-1.116,6.012-3.1,7.9l.324.4A7.266,7.266,0,0,0,58.752-3.51a10.439,10.439,0,0,0,.63,1.278A5.963,5.963,0,0,0,63.9.63a36.082,36.082,0,0,0,5.346.252h1.53a8.124,8.124,0,0,1,.5-1.6c-1.8.108-3.168.162-4.428.162a22.874,22.874,0,0,1-2.9-.144ZM86.49-8.1h2.07l.72.144V-8.964l-.72.144h-8.8l-.72-.144v1.008l.72-.144h5.148V-.378c0,.576-.252.828-.81.828H82.134v.756h2.718C86,1.206,86.508.738,86.49-.36ZM75.384,1.332h1.494V-7.9c.4-.5.63-.792,1.224-1.584.468-.036.63-.126.63-.378,0-.108-.072-.2-.216-.288l-1.26-.828A28.219,28.219,0,0,1,72.72-4.914l.306.45a21.443,21.443,0,0,0,2.358-1.872Zm5.49-14.6h6.768l.72.144v-1.044l-.72.144H80.874l-.72-.144v1.044Zm-7.632,2.754a16.162,16.162,0,0,0,4.5-3.06,1.275,1.275,0,0,0,.486-.054.284.284,0,0,0,.216-.252c0-.09-.054-.18-.2-.288l-1.26-.954a19.293,19.293,0,0,1-4.05,4.158Zm22.23,5.238h1.26l.72.144V-6.138l-.72.144h-1.26v-2.79h1.71v-5.58H91.6v5.58h2.574v7.758c-.162.018-.648.09-1.188.18v-5.94c.2-.162.252-.234.252-.342,0-.162-.126-.234-.4-.234H91.692V-.684H91.62c-.252.036-.414.054-.9.108L91.062.7c.054.216.162.342.306.342s.27-.126.324-.4a36.376,36.376,0,0,0,5.94-1.764l-.072-.522c-.486.09-.99.2-1.512.288-.324.054-.4.072-.576.108ZM92.952-9.5v-4.14h2.88V-9.5Zm7.128,9.09v-3.78H106.4v-6.012H100.08v-3.348h6.174l.72.144v-1.008l-.72.144H98.6V1.332h1.476V.306h6.462l.738.144V-.558l-.738.144Zm0-9.072h4.806v4.572H100.08Zm15.858,7.362V-.576c-.018.594-.216.792-.792.81h-1.278V.99h1.818c1.062,0,1.53-.432,1.512-1.422V-5.886h-3.744c.09-.324.216-.774.306-1.224h2.952V-11.2c.234-.162.288-.234.288-.36,0-.162-.126-.234-.378-.234h-1.134v3.96h-4.7v-3.384c.234-.18.288-.252.288-.36,0-.162-.144-.252-.378-.252h-1.134V-7.11h2.952c-.036.324-.054.36-.2,1.224h-3.06v6.93h1.3v-6.21h1.62c-.234,1.17-.4,1.944-.486,2.34l-.072.018c-.378.018-.378.018-.864.036l.324,1.1c.036.162.144.27.252.27s.216-.108.306-.342a17.393,17.393,0,0,0,2.808-.81,11.1,11.1,0,0,1,.378,1.1Zm0-3.042V-2.2a8.457,8.457,0,0,0-1.926-2.286l-.378.18c.324.63.45.9.594,1.242-.414.054-1.584.18-1.854.2.234-.54.666-1.692.864-2.3Zm6.75-2.826v-2.79h1.656l.72.144v-1.008l-.72.144h-2.322a10.87,10.87,0,0,0,1.494-2.43c.288-.09.468-.234.468-.342a.374.374,0,0,0-.252-.27l-1.368-.432a23.183,23.183,0,0,1-.99,3.474h-2.106l.018-.054a18.268,18.268,0,0,0,1.062-2.484c.324-.108.5-.252.5-.378,0-.09-.126-.216-.234-.252l-1.422-.45a28.659,28.659,0,0,1-2.3,6.318l.36.27a15.455,15.455,0,0,0,1.17-1.512V1.332h1.26V.36h4.878l.72.144V-.5l-.72.144h-1.872V-3.726h1.242l.72.144V-4.59l-.72.144h-1.242V-7.272h1.242l.72.144V-8.136l-.72.144Zm-1.242,0h-1.764v-2.79h1.764Zm0,.72v2.826h-1.764V-7.272Zm0,3.546V-.36h-1.764V-3.726Zm-10.242-7.6c.684.522.9.684,1.458,1.17a15,15,0,0,1-1.728,1.62l.27.378a10.859,10.859,0,0,0,2.106-1.4,11.538,11.538,0,0,1,1.224,1.26l.828-.846a10.911,10.911,0,0,0-1.368-1.08l.036-.036c.27-.306.414-.486.468-.54.108-.126.144-.2.288-.36.306-.018.45-.108.45-.252a.244.244,0,0,0-.126-.2l-.99-.522a15.324,15.324,0,0,1-.936,1.368c-.5-.324-.9-.54-1.656-.936Zm2.754-2v-1.1c.234-.162.288-.234.288-.36,0-.162-.126-.234-.378-.234h-1.386v1.692H109.44l-.72-.144v1.008l.72-.144h7.452l.7.144v-1.008l-.7.144Z" transform="translate(964.28 3265)" fill="#fff"/>
      </g>
      <g id="グループ_768" data-name="グループ 768">
        <path id="パス_30924" data-name="パス 30924" d="M12.012-17.3a8.8,8.8,0,0,1,4.095.987A7.581,7.581,0,0,1,19.173-13.4,8.756,8.756,0,0,1,20.328-8.82a9.613,9.613,0,0,1-1.2,4.809,8.566,8.566,0,0,1-3.255,3.3A8.982,8.982,0,0,1,11.34.462a8.065,8.065,0,0,1-5-1.617,10.2,10.2,0,0,1-3.3-4.6A19.249,19.249,0,0,1,1.89-12.726a20.432,20.432,0,0,1,1.428-7.917,12.685,12.685,0,0,1,3.8-5.271,8.2,8.2,0,0,1,5.145-1.848,7.751,7.751,0,0,1,3.927,1.05A9.454,9.454,0,0,1,19.32-23.73l-1.26,1.05a8.873,8.873,0,0,0-2.541-2.52,5.643,5.643,0,0,0-3.087-.924q-3.15,0-4.893,3.3a20.409,20.409,0,0,0-1.953,8.715A8.488,8.488,0,0,1,8.211-16.38,7.531,7.531,0,0,1,12.012-17.3ZM12.054-.882a3.806,3.806,0,0,0,3.507-1.953,9.943,9.943,0,0,0,1.155-5.1q0-3.906-1.6-5.859a4.91,4.91,0,0,0-3.948-1.953,4.863,4.863,0,0,0-3.549,1.428,7.186,7.186,0,0,0-1.953,3.4A15.132,15.132,0,0,0,7.686-3.465,5.106,5.106,0,0,0,12.054-.882ZM33.1-17.682a8.8,8.8,0,0,1,4.095.987A7.781,7.781,0,0,1,40.3-13.734a8.9,8.9,0,0,1,1.2,4.7A9.384,9.384,0,0,1,40.11-3.822,8.952,8.952,0,0,1,36.6-.609,9.623,9.623,0,0,1,32.214.462,9.654,9.654,0,0,1,27.3-.8a8.934,8.934,0,0,1-3.4-3.444l1.344-.84a7.241,7.241,0,0,0,2.772,2.814,7.677,7.677,0,0,0,3.822.966A5.446,5.446,0,0,0,34.8-2.163,6.171,6.171,0,0,0,37-4.7a8.828,8.828,0,0,0,.84-3.99A8.433,8.433,0,0,0,37-12.621a5.656,5.656,0,0,0-2.2-2.394,5.885,5.885,0,0,0-2.961-.777,4.809,4.809,0,0,0-2.52.63,7.849,7.849,0,0,0-1.89,1.6H25.788L26.8-27.216H40.152v3.36H28.1l-.588,8.148a7.409,7.409,0,0,1,2.415-1.428A8.925,8.925,0,0,1,33.1-17.682Zm19.962,6.55c.132-1.474.242-3.366.242-4.246v-.858H64.256l.88.176v-1.276l-.88.176H45.776l-.88-.176v1.276l.88-.176h5.5v.858c-.132,5.148-.792,8.822-2,11.2A10.936,10.936,0,0,1,44.9.836l.374.682A11.2,11.2,0,0,0,50.9-3.322a15.646,15.646,0,0,0,2.046-6.886h7.546A72.553,72.553,0,0,1,59.5-.88,1.31,1.31,0,0,1,57.942.22H54.95V1.254h4.158c1.5,0,2.244-.528,2.508-1.782a89.36,89.36,0,0,0,1.034-10.6ZM68.37-17.138V1.474h1.936v-8.91H83.748V-.814c0,.858-.374,1.232-1.232,1.232H79.678v.924H83.55c1.5,0,2.134-.638,2.134-2.112V-17.138Zm1.936.88H75.96v7.942H70.306Zm7.568,0h5.874v7.942H77.874Z" transform="translate(854.03 3268.762)" fill="#fff"/>
        <path id="パス_30923" data-name="パス 30923" d="M2.61-.648H4.194V-11.016H1.962L1.026-8.532H.36v-3.132H9.522v3.132H8.856l-.9-2.484H5.724V-.648H7.308V0H2.61ZM20.862-11.016V-.648H22.3V0H17.928V-.648h1.4V-5.814h-5.31V-.648h1.4V0H11.052V-.648h1.44V-11.016h-1.44v-.648h4.374v.648h-1.4V-6.5h5.31v-4.518h-1.4v-.648H22.3v.648ZM32.976-3.168V0h-8.91V-.648h1.44V-11.016h-1.44v-.648h8.766v3.132h-.684l-.954-2.484H27.036V-6.5h2.826V-7.884h.828v3.456h-.828V-5.814H27.036V-.648h4.3l.954-2.52Zm6.8,2.52h1.44V-11.016H39.78v-.648h2.934l5.418,8.748v-8.1h-1.44v-.648h3.654v.648h-1.44V0h-.828L41.994-9.918v9.27h1.44V0H39.78Zm21.06-2.52V0H51.93V-.648h1.44V-11.016H51.93v-.648H60.7v3.132h-.684l-.954-2.484H54.9V-6.5h2.826V-7.884h.828v3.456h-.828V-5.814H54.9V-.648h4.3l.954-2.52Zm18.486-7.848H77.994L74.88,0h-.828L70.83-9.108,67.9,0h-.828L63.774-11.016H62.352v-.648h4.5v.648h-1.44L67.878-2.43l2.934-9.162h.756l3.294,9.108,2.358-8.532H75.8v-.648h3.528ZM96.732-.648V0H92.556V-.648H93.87L92.574-4.3H88.7l-1.3,3.654h1.314V0H85.356V-.648h1.278l3.978-11.016h.846l4,11.016Zm-4.41-4.338L90.666-9.648h-.072L88.938-4.986ZM98.1-.648h1.44V-11.016H98.1v-.648h4.464v.648H101.07V-.648h4.212l.954-2.52h.684V0H98.1Zm10.35,0h1.44V-11.016h-1.44v-.648h4.464v.648H111.42V-.648h4.212l.954-2.52h.684V0h-8.82Zm10.458-4.428h3.942v.7h-3.942Zm14.724,1.908V0h-8.91V-.648h1.44V-11.016h-1.44v-.648h8.766v3.132H132.8l-.954-2.484h-4.158V-6.5h2.826V-7.884h.828v3.456h-.828V-5.814h-2.826V-.648h4.3l.954-2.52Zm1.818,2.52h1.44V-11.016h-1.44v-.648h4.464v.648H138.42V-.648h4.212l.954-2.52h.684V0h-8.82Zm19.26-2.52V0H145.8V-.648h1.44V-11.016H145.8v-.648h8.766v3.132h-.684l-.954-2.484H148.77V-6.5H151.6V-7.884h.828v3.456H151.6V-5.814H148.77V-.648h4.3l.954-2.52ZM161.892.216a4.748,4.748,0,0,1-2.943-.864,4.849,4.849,0,0,1-1.647-2.2,7.941,7.941,0,0,1-.5-2.817,8.527,8.527,0,0,1,.522-2.979,5.185,5.185,0,0,1,1.674-2.322,4.563,4.563,0,0,1,2.916-.909,5.483,5.483,0,0,1,2.025.333,6.038,6.038,0,0,1,1.5.855v2.16h-1.026a3.2,3.2,0,0,0-.864-2.106,2.5,2.5,0,0,0-1.764-.666,2.83,2.83,0,0,0-2.547,1.287A5.991,5.991,0,0,0,158.4-6.7a11,11,0,0,0,.387,2.97,5.387,5.387,0,0,0,1.2,2.259A2.638,2.638,0,0,0,162-.594a3.153,3.153,0,0,0,1.944-.666A3.132,3.132,0,0,0,165.1-3.186h.684a4.094,4.094,0,0,1-.72,1.746,4.019,4.019,0,0,1-1.386,1.215A3.733,3.733,0,0,1,161.892.216Zm7.488-.864h1.584V-11.016h-2.232L167.8-8.532h-.666v-3.132h9.162v3.132h-.666l-.9-2.484h-2.232V-.648h1.584V0h-4.7Zm19.26,0V0h-2.754l-3.42-5.382h-1.674V-.648h1.422V0h-4.392V-.648h1.44V-11.016h-1.44v-.648h5.238a3.617,3.617,0,0,1,2.646.873,3,3,0,0,1,.882,2.223,3.078,3.078,0,0,1-.666,2.007A3.117,3.117,0,0,1,184.1-5.49l3.24,4.842Zm-7.848-5.418h2.07a1.841,1.841,0,0,0,1.467-.693,2.654,2.654,0,0,0,.585-1.773,2.729,2.729,0,0,0-.567-1.8,1.836,1.836,0,0,0-1.485-.684h-2.07ZM194.958-.648V0H189.9V-.648h1.764V-11.016h-1.692v-.648h4.914v.648h-1.692V-.648Zm6.948.864a4.748,4.748,0,0,1-2.943-.864,4.849,4.849,0,0,1-1.647-2.2,7.941,7.941,0,0,1-.5-2.817,8.527,8.527,0,0,1,.522-2.979,5.185,5.185,0,0,1,1.674-2.322,4.563,4.563,0,0,1,2.916-.909,5.483,5.483,0,0,1,2.025.333,6.038,6.038,0,0,1,1.5.855v2.16h-1.026a3.2,3.2,0,0,0-.864-2.106A2.5,2.5,0,0,0,201.8-11.3a2.83,2.83,0,0,0-2.547,1.287,5.991,5.991,0,0,0-.837,3.321,11,11,0,0,0,.387,2.97A5.387,5.387,0,0,0,200-1.467a2.638,2.638,0,0,0,2.016.873,3.153,3.153,0,0,0,1.944-.666,3.132,3.132,0,0,0,1.152-1.926h.684a4.094,4.094,0,0,1-.72,1.746,4.019,4.019,0,0,1-1.386,1.215A3.733,3.733,0,0,1,201.906.216ZM.594,20.352h1.44V9.984H.594V9.336H3.672l3.96,9.018,3.816-9.018h3.006v.648h-1.44V20.352h1.44V21h-4.41v-.648h1.44v-9.09L7.632,20.334H6.8l-4-9.144v9.162H4.194V21H.594Zm20.682,0V21H16.218v-.648h1.764V9.984H16.29V9.336H21.2v.648H19.512V20.352Zm1.764,0h1.44V9.984H23.04V9.336h2.934l5.418,8.748v-8.1h-1.44V9.336h3.654v.648h-1.44V21h-.828l-6.084-9.918v9.27h1.44V21H23.04Zm17.208,0V21H35.19v-.648h1.764V9.984H35.262V9.336h4.914v.648H38.484V20.352Zm17.712,0V21H53.784v-.648H55.1L53.8,16.7h-3.87l-1.3,3.654H49.95V21H46.584v-.648h1.278L51.84,9.336h.846l4,11.016Zm-4.41-4.338-1.656-4.662h-.072l-1.656,4.662Zm10.224,5.2a4.748,4.748,0,0,1-2.943-.864,4.849,4.849,0,0,1-1.647-2.2,7.941,7.941,0,0,1-.5-2.817,8.527,8.527,0,0,1,.522-2.979,5.185,5.185,0,0,1,1.674-2.322,4.563,4.563,0,0,1,2.916-.909,5.483,5.483,0,0,1,2.025.333,6.038,6.038,0,0,1,1.5.855v2.16H66.294a3.2,3.2,0,0,0-.864-2.106A2.5,2.5,0,0,0,63.666,9.7a2.83,2.83,0,0,0-2.547,1.287,5.991,5.991,0,0,0-.837,3.321,11,11,0,0,0,.387,2.97,5.387,5.387,0,0,0,1.2,2.259,2.638,2.638,0,0,0,2.016.873,3.128,3.128,0,0,0,3.1-2.592h.684a4.094,4.094,0,0,1-.72,1.746,4.019,4.019,0,0,1-1.386,1.215A3.733,3.733,0,0,1,63.774,21.216Zm14.382-3.384V21h-8.91v-.648h1.44V9.984h-1.44V9.336h8.766v3.132h-.684l-.954-2.484H72.216V14.5h2.826V13.116h.828v3.456h-.828V15.186H72.216v5.166h4.3l.954-2.52Zm1.818,2.52h1.44V9.984h-1.44V9.336h3.078l3.96,9.018,3.816-9.018h3.006v.648h-1.44V20.352h1.44V21h-4.41v-.648h1.44v-9.09l-3.852,9.072h-.828l-4-9.144v9.162h1.386V21h-3.6Zm26.586,0V21h-4.176v-.648H103.7L102.4,16.7h-3.87l-1.3,3.654H98.55V21H95.184v-.648h1.278L100.44,9.336h.846l4,11.016Zm-4.41-4.338-1.656-4.662h-.072l-1.656,4.662Zm5.778,4.338h1.44V9.984h-1.44V9.336h2.934l5.418,8.748v-8.1h-1.44V9.336h3.654v.648h-1.44V21h-.828l-6.084-9.918v9.27h1.44V21h-3.654Zm19.584.864a3.078,3.078,0,0,1-1.557-.333,3.734,3.734,0,0,1-1.035-.927V17.832h.972a5.682,5.682,0,0,0,.486,2.142,1.192,1.192,0,0,0,1.116.648q1.35,0,1.35-1.944V9.984H127.35V9.336h4.482v.648h-1.458v8.208a2.926,2.926,0,0,1-.828,2.259A2.886,2.886,0,0,1,127.512,21.216Zm11.052,0a4.748,4.748,0,0,1-2.943-.864,4.849,4.849,0,0,1-1.647-2.2,7.941,7.941,0,0,1-.5-2.817,8.527,8.527,0,0,1,.522-2.979,5.185,5.185,0,0,1,1.674-2.322,4.563,4.563,0,0,1,2.916-.909,5.483,5.483,0,0,1,2.025.333,6.038,6.038,0,0,1,1.5.855v2.16h-1.026a3.2,3.2,0,0,0-.864-2.106,2.5,2.5,0,0,0-1.764-.666,2.83,2.83,0,0,0-2.547,1.287,5.991,5.991,0,0,0-.837,3.321,11,11,0,0,0,.387,2.97,5.387,5.387,0,0,0,1.2,2.259,2.638,2.638,0,0,0,2.016.873,3.128,3.128,0,0,0,3.1-2.592h.684a4.094,4.094,0,0,1-.72,1.746,4.019,4.019,0,0,1-1.386,1.215A3.733,3.733,0,0,1,138.564,21.216ZM160.7,9.984h-1.332L156.258,21h-.828l-3.222-9.108L149.274,21h-.828L145.152,9.984H143.73V9.336h4.5v.648h-1.44l2.466,8.586,2.934-9.162h.756l3.294,9.108L158.6,9.984h-1.422V9.336H160.7Zm.774,11.214a1.076,1.076,0,1,1,.765-.315A1.042,1.042,0,0,1,161.478,21.2Zm6.05-4.958V14.854a17.815,17.815,0,0,0,1.806-3.346h-1.806V9.786c.182-.14.224-.182.224-.28,0-.126-.1-.182-.294-.182H166.45v2.184h-1.26l-.56-.112v.784l.56-.112h2.7a21.639,21.639,0,0,1-3.388,5.474l.252.336a13.773,13.773,0,0,0,1.694-1.624v5.782h1.078V16.744a15.071,15.071,0,0,1,.966,2.016l.882-.77a7.01,7.01,0,0,0-1.554-1.526,8.049,8.049,0,0,0,1.372-1.148c.252-.014.378-.084.378-.224a.244.244,0,0,0-.126-.182l-.826-.546a10.749,10.749,0,0,1-1.078,1.876Zm5.082-3.01h-2.744v8.456h1.022V18.438h1.722v3.6h1.022v-3.6h2.058V20.5c-.014.448-.154.588-.6.6h-.714v.588h1.176c.84,0,1.176-.336,1.176-1.12V13.23h-3.094V11.8h3.206l.546.112V11.13l-.546.112h-3.206V9.786c.182-.126.224-.182.224-.28,0-.126-.1-.182-.294-.182h-.952v1.918h-2.562l-.56-.112v.784l.56-.112h2.562Zm0,4.648h-1.722V16.03h1.722Zm1.022,0V16.03h2.058v1.848ZM172.61,15.47h-1.722V13.79h1.722Zm1.022,0V13.79h2.058v1.68Zm.9-5.824a5.5,5.5,0,0,1,1.078,1.414l.952-.756a6.566,6.566,0,0,0-1.736-.924Zm9.87,9.212V10.276h-4.48v9.282l-.966.112.378,1.05c.042.126.154.238.252.238s.2-.112.238-.322a31.181,31.181,0,0,0,5.572-1.568l-.084-.392Zm-1.05.2c-.5.1-1.4.238-2.394.378V16.6h2.394Zm0-3.01h-2.394v-2.31h2.394Zm0-2.87h-2.394V10.836h2.394Zm2.044-.63-.56-.112v.784l.56-.112h1.372a21.9,21.9,0,0,1-.6,4.592,6.825,6.825,0,0,1-3.024,4.088l.238.336c3.22-1.47,4.368-3.738,4.564-9.016h2.128c-.084,2.744-.294,6.02-.448,7.2-.084.868-.2,1.036-.728,1.05h-1.274v.588h1.862c.868,0,1.176-.308,1.288-1.19.168-.966.378-4.172.5-8.2h-3.318c.014-.364.028-.91.028-1.75V9.87c.182-.126.224-.182.224-.28,0-.126-.1-.182-.294-.182H186.82v1.386c0,.644-.014,1.2-.028,1.75ZM200.148,9.9c.238-.07.35-.168.35-.308s-.1-.2-.28-.224L199.07,9.24a14.034,14.034,0,0,1-2.24,2.786A17.067,17.067,0,0,1,193.4,14.7l.2.35a13.636,13.636,0,0,0,6.272-4.76,12.6,12.6,0,0,0,5.81,4.48,5.381,5.381,0,0,1,.6-1.246A14.159,14.159,0,0,1,200.148,9.9Zm-.994,11h-4.7l-.546-.112v.784l.546-.112h10.78l.546.112V20.79l-.546.112h-4.914V16.968h4.354l.56.112V16.3l-.56.112h-4.354V14.294h2.324l.56.112v-.784l-.56.112h-5.656l-.546-.112v.784l.546-.112h2.17v2.114H195.01l-.56-.112v.784l.56-.112h4.144Zm-1.47-1.232a7.385,7.385,0,0,0-1.876-2.058l-.336.168a13.762,13.762,0,0,1,.994,2.646Zm4.592.84a8.663,8.663,0,0,0,1.638-2.086c.294-.056.434-.154.434-.308,0-.1-.112-.182-.28-.238l-1.176-.392a17.493,17.493,0,0,1-.938,2.828Z" transform="translate(629.64 3250.88)" fill="#fff"/>
      </g>
    </g>
  </g>
</svg>
