<svg xmlns="http://www.w3.org/2000/svg" width="666.96" height="149.142" viewBox="0 0 666.96 149.142">
  <g id="fair-txt" transform="translate(97.36 -1143.103)">
    <g id="グループ_742" data-name="グループ 742" transform="translate(-27.347 -21.516)">
      <g id="期間" transform="translate(98.082 1282.149)">
        <g id="日程" transform="translate(-590.332 0)">
          <g id="グループ_676" data-name="グループ 676" transform="translate(18.531 3.49)">
            <g id="曜日" transform="translate(900.842)">
              <path id="パス_30922" data-name="パス 30922" d="M.352-12.688c.272-.08.4-.192.4-.352,0-.144-.112-.224-.32-.256L-.88-13.44a16.038,16.038,0,0,1-2.56,3.184A19.505,19.505,0,0,1-7.36-7.2l.224.4A15.584,15.584,0,0,0,.032-12.24a14.394,14.394,0,0,0,6.64,5.12A6.149,6.149,0,0,1,7.36-8.544,16.181,16.181,0,0,1,.352-12.688ZM-.784-.112H-6.16L-6.784-.24v.9L-6.16.528H6.16l.624.128v-.9L6.16-.112H.544v-4.5H5.52l.64.128v-.9l-.64.128H.544V-7.664H3.2l.64.128v-.9L3.2-8.3H-3.264l-.624-.128v.9l.624-.128h2.48v2.416H-5.52l-.64-.128v.9l.64-.128H-.784ZM-2.464-1.52A8.441,8.441,0,0,0-4.608-3.872l-.384.192A15.728,15.728,0,0,1-3.856-.656Zm5.248.96A9.9,9.9,0,0,0,4.656-2.944c.336-.064.5-.176.5-.352,0-.112-.128-.208-.32-.272L3.488-4.016A19.992,19.992,0,0,1,2.416-.784Z" transform="translate(13.571 20.123)" fill="#fff"/>
              <g id="パス_30921" data-name="パス 30921" transform="translate(-0.429 0.123)" fill="none">
                <path d="M14,0A14,14,0,1,1,0,14,14,14,0,0,1,14,0Z" stroke="none"/>
                <path d="M 14 1 C 10.5275707244873 1 7.262990951538086 2.352239608764648 4.807609558105469 4.807609558105469 C 2.352239608764648 7.262990951538086 1 10.5275707244873 1 14 C 1 17.47241973876953 2.352239608764648 20.73701095581055 4.807609558105469 23.19239044189453 C 7.262990951538086 25.64776039123535 10.5275707244873 27 14 27 C 17.47241973876953 27 20.73701095581055 25.64776039123535 23.19239044189453 23.19239044189453 C 25.64776039123535 20.73701095581055 27 17.47241973876953 27 14 C 27 10.5275707244873 25.64776039123535 7.262990951538086 23.19239044189453 4.807609558105469 C 20.73701095581055 2.352239608764648 17.47241973876953 1 14 1 M 14 0 C 21.73197937011719 0 28 6.268009185791016 28 14 C 28 21.73197937011719 21.73197937011719 28 14 28 C 6.268009185791016 28 0 21.73197937011719 0 14 C 0 6.268009185791016 6.268009185791016 0 14 0 Z" stroke="none" fill="#fff"/>
              </g>
            </g>
          </g>
          <path id="パス_30920" data-name="パス 30920" d="M-29.674-1.332V0h-10.36V-1.332h3.811V-21.053l-3.663,2.368-.777-1.184,6.105-4.107H-33.3V-1.332ZM-14.726.407a6.864,6.864,0,0,1-4.44-1.554,9.931,9.931,0,0,1-2.979-4.384A18.529,18.529,0,0,1-23.2-12.025,18.374,18.374,0,0,1-22.145-18.5a9.867,9.867,0,0,1,3-4.366,6.937,6.937,0,0,1,4.458-1.554,6.99,6.99,0,0,1,4.458,1.535,9.735,9.735,0,0,1,3,4.348,18.374,18.374,0,0,1,1.055,6.475A18.24,18.24,0,0,1-7.252-5.569a10.124,10.124,0,0,1-3.016,4.4A6.886,6.886,0,0,1-14.726.407Zm.037-1.184q2.516,0,3.848-2.886a20.631,20.631,0,0,0,1.332-8.362,20.514,20.514,0,0,0-1.332-8.325q-1.332-2.886-3.848-2.886t-3.848,2.886a20.514,20.514,0,0,0-1.332,8.325,20.631,20.631,0,0,0,1.332,8.362Q-17.205-.777-14.689-.777ZM0,.407A2.141,2.141,0,0,1-1.573-.241,2.141,2.141,0,0,1-2.22-1.813a2.141,2.141,0,0,1,.648-1.572A2.141,2.141,0,0,1,0-4.033a2.141,2.141,0,0,1,1.572.648A2.141,2.141,0,0,1,2.22-1.813,2.141,2.141,0,0,1,1.572-.241,2.141,2.141,0,0,1,0,.407ZM16.8-12.95q5.18,1.665,5.18,6.142a6.357,6.357,0,0,1-1.2,3.885A7.687,7.687,0,0,1,17.667-.444,9.65,9.65,0,0,1,13.69.407,8,8,0,0,1,9.416-.74a8.449,8.449,0,0,1-2.941-3l1.184-.74A5.943,5.943,0,0,0,10.175-2a7,7,0,0,0,3.219.814,5.744,5.744,0,0,0,2.571-.592,4.766,4.766,0,0,0,1.961-1.813,5.5,5.5,0,0,0,.759-2.96,5.251,5.251,0,0,0-1.5-3.94,5.116,5.116,0,0,0-3.718-1.462h-.925V-13.1a6.27,6.27,0,0,0,2.553-.555,4.823,4.823,0,0,0,2.072-1.758,5.262,5.262,0,0,0,.814-3.016,5.5,5.5,0,0,0-1.036-3.385,3.511,3.511,0,0,0-3-1.387,3.53,3.53,0,0,0-3.163,1.609,8.117,8.117,0,0,0-1.2,4.015h-2v-4.44a7.321,7.321,0,0,1,2.738-1.776,9.861,9.861,0,0,1,3.626-.666,8.959,8.959,0,0,1,3.589.7,6.23,6.23,0,0,1,2.609,2.035,5.16,5.16,0,0,1,.98,3.145Q21.127-14.837,16.8-12.95ZM40.7-1.332V0H30.34V-1.332h3.811V-21.053l-3.663,2.368-.777-1.184,6.105-4.107h1.258V-1.332Z" transform="translate(868.244 27.612)" fill="#fff"/>
          <path id="パス_30919" data-name="パス 30919" d="M-6.368-4.64A3.248,3.248,0,0,1-3.552-6.592a5.044,5.044,0,0,1,2.032.608L1.52-4.64a4.858,4.858,0,0,0,1.888.416c1.376,0,2.656-1.072,3.5-2.944l-.544-.32C5.52-6.192,4.72-5.616,3.76-5.616a3.627,3.627,0,0,1-1.488-.4l-3.52-1.52a4.939,4.939,0,0,0-1.888-.4,3.444,3.444,0,0,0-2.736,1.36A7.867,7.867,0,0,0-6.912-4.96Z" transform="translate(810.669 23.612)" fill="#fff"/>
          <g id="曜日-2" data-name="曜日" transform="translate(-18.574 3.49)">
            <path id="パス_30918" data-name="パス 30918" d="M.7-12.816c.208-.16.256-.208.256-.3,0-.16-.112-.224-.336-.224H-.64V-.16c-.016.528-.192.7-.72.72H-2.768v.72H-.752C.272,1.28.72.864.7-.1V-8.88A14.753,14.753,0,0,0,6.384-.192a7.113,7.113,0,0,1,.96-1.536,14,14,0,0,1-5.008-4.88A18.085,18.085,0,0,0,6.08-9.328c.464-.016.656-.112.656-.336a.352.352,0,0,0-.16-.256L5.232-10.8A18.626,18.626,0,0,1,2.1-6.992,18.276,18.276,0,0,1,.7-10.064ZM-6.528-9.664l-.624-.128v.928l.624-.128H-3.2A14.741,14.741,0,0,1-7.36-.336l.3.384C-3.9-2.1-2.256-5.072-1.68-9.664Z" transform="translate(798.332 20.123)" fill="#fff"/>
            <g id="パス_30917" data-name="パス 30917" transform="translate(784.332 0.123)" fill="none">
              <path d="M14,0A14,14,0,1,1,0,14,14,14,0,0,1,14,0Z" stroke="none"/>
              <path d="M 14 1 C 10.5275707244873 1 7.262990951538086 2.352239608764648 4.807609558105469 4.807609558105469 C 2.352239608764648 7.262990951538086 1 10.5275707244873 1 14 C 1 17.47241973876953 2.352239608764648 20.73701095581055 4.807609558105469 23.19239044189453 C 7.262990951538086 25.64776039123535 10.5275707244873 27 14 27 C 17.47241973876953 27 20.73701095581055 25.64776039123535 23.19239044189453 23.19239044189453 C 25.64776039123535 20.73701095581055 27 17.47241973876953 27 14 C 27 10.5275707244873 25.64776039123535 7.262990951538086 23.19239044189453 4.807609558105469 C 20.73701095581055 2.352239608764648 17.47241973876953 1 14 1 M 14 0 C 21.73197937011719 0 28 6.268009185791016 28 14 C 28 21.73197937011719 21.73197937011719 28 14 28 C 6.268009185791016 28 0 21.73197937011719 0 14 C 0 6.268009185791016 6.268009185791016 0 14 0 Z" stroke="none" fill="#fff"/>
            </g>
          </g>
          <path id="パス_30916" data-name="パス 30916" d="M-18.685-1.332V0h-10.36V-1.332h3.811V-21.053L-28.9-18.685l-.777-1.184,6.105-4.107h1.258V-1.332ZM-3.737.407a6.864,6.864,0,0,1-4.44-1.554,9.931,9.931,0,0,1-2.979-4.384,18.529,18.529,0,0,1-1.054-6.493A18.374,18.374,0,0,1-11.155-18.5a9.867,9.867,0,0,1,3-4.366A6.937,6.937,0,0,1-3.7-24.42,6.99,6.99,0,0,1,.759-22.885a9.735,9.735,0,0,1,3,4.348A18.374,18.374,0,0,1,4.81-12.062,18.24,18.24,0,0,1,3.737-5.569a10.124,10.124,0,0,1-3.016,4.4A6.886,6.886,0,0,1-3.737.407ZM-3.7-.777q2.516,0,3.848-2.886A20.631,20.631,0,0,0,1.48-12.025,20.514,20.514,0,0,0,.148-20.35Q-1.184-23.236-3.7-23.236T-7.548-20.35A20.514,20.514,0,0,0-8.88-12.025,20.631,20.631,0,0,0-7.548-3.663Q-6.216-.777-3.7-.777ZM10.989.407A2.141,2.141,0,0,1,9.417-.241a2.141,2.141,0,0,1-.648-1.572,2.141,2.141,0,0,1,.648-1.572,2.141,2.141,0,0,1,1.573-.648,2.141,2.141,0,0,1,1.573.648,2.141,2.141,0,0,1,.647,1.572,2.141,2.141,0,0,1-.647,1.572A2.141,2.141,0,0,1,10.989.407ZM29.711-1.332V0H19.351V-1.332h3.811V-21.053L19.5-18.685l-.777-1.184,6.105-4.107h1.258V-1.332Z" transform="translate(726.046 27.612)" fill="#fff"/>
        </g>
        <path id="パス_30915" data-name="パス 30915" d="M-63.641.207c4.209-.943,6.532-2,8.947-4.094,3.2-2.852,5.152-7.084,5.773-12.512h-15.8l-1.012-.207v1.472l1.012-.207h13.294c-1.2,7.567-5.267,12.4-12.466,14.766ZM-35.6-.92H-41.17l-1.012-.207V.345L-41.17.138h13.34l1.012.207V-1.127L-27.83-.92h-5.681v-9.154h4.094l1.012.207v-1.472l-1.012.207H-39.583l-1.012-.207v1.472l1.012-.207H-35.6Zm24.932-11.247c.322-.253.437-.414.437-.6a.43.43,0,0,0-.437-.368l-2.323-.184.184,1.334v1.265c-.069,3.91-.713,5.957-2.438,7.636A14.82,14.82,0,0,1-20.24.023l.207.621A13.877,13.877,0,0,0-14.053-2,8.133,8.133,0,0,0-10.9-7.659,12.1,12.1,0,0,0-1.61-17.066H-19.642l-1.012-.207V-15.8l1.012-.207H-4.278a11.831,11.831,0,0,1-6.509,7.475c.069-.782.115-1.518.115-2.277ZM19.481-6.141V-.276c0,.713-.3,1.012-.989,1.012H16.606V1.7h2.668c1.4,0,2-.552,1.978-1.863V-18.423H13.846v3.864c0,6.785-.253,10.442-.828,12.029A8.558,8.558,0,0,1,10.35,1.357l.414.483C13.685.3,15.042-2.116,15.318-6.141Zm0-.92H15.387V-7.13l.092-1.679c0-.138,0-.736.023-1.587,0-.184,0-.943.023-1.564h3.956Zm0-5.819H15.548l.023-1.679V-17.5h3.91Zm-14.375-3.2v-2.346c.3-.207.368-.3.368-.46,0-.207-.161-.3-.483-.3H3.381v3.1H2.392l-.92-.184v1.288l.92-.184h.989V-5.29H1.955l-.92-.184v1.288l.92-.184h10l.92.184V-5.474l-.92.184h-.989v-9.867h1.012l.92.184v-1.288l-.92.184H10.971v-2.346c.3-.207.368-.3.368-.437,0-.23-.161-.322-.483-.322H9.246v3.1Zm0,.92h4.14v2.507H5.106Zm0,9.867V-8.211h4.14V-5.29Zm4.14-6.44v2.6H5.106v-2.6Zm-8,12.742a14.443,14.443,0,0,0,4-3.128c.483,0,.782-.138.782-.368a.433.433,0,0,0-.23-.345L4.255-3.864A21.264,21.264,0,0,1,.92.506ZM8-3.082A25.509,25.509,0,0,1,10.488.161l1.4-1.4A14.79,14.79,0,0,0,8.464-3.611ZM39.169-.9V-9.039h-9.66V.46H31.28V-.9ZM31.28-5.5V-8.119H37.4V-5.5Zm0,.92H37.4v2.76H31.28Zm1.909-13.915h-8.3V1.7H26.7V-11.063h6.486Zm-6.486.92h4.761V-15.3H26.7Zm4.761,3.2v2.392H26.7v-2.392Zm4.048-4.117v7.429H42.3V-.437C42.3.3,41.975.621,41.239.621H39.307v.966h3.174c1.15,0,1.633-.483,1.633-1.656V-18.492Zm1.725,4.117H42.3v2.392h-5.06Zm0-.92v-2.277H42.3V-15.3Zm20.286,10.3A1.566,1.566,0,0,0,55.936-3.45a1.546,1.546,0,0,0,1.541,1.564A1.551,1.551,0,0,0,59.041-3.45,1.552,1.552,0,0,0,57.523-4.991Zm0-10.58a1.566,1.566,0,0,0-1.587,1.541A1.566,1.566,0,0,0,57.5-12.466a1.546,1.546,0,0,0,1.541-1.564A1.552,1.552,0,0,0,57.523-15.571Z" transform="translate(37 24.612)" fill="#fff"/>
      </g>
    </g>
    <path id="パス_30914" data-name="パス 30914" d="M-288.12-48V-3.84h6.24V0h-22.16V-3.84h6.24V-25.36h-20.64V-3.84h6.24V0h-22.16V-3.84h6.24V-48h-6.24v-3.84h22.24V-48h-6.32v18.64h20.64V-48h-6.24v-3.84h22.16V-48Zm60.64,44.16V0h-22.16V-3.84h6.24l-4.88-14.48H-263.4l-5.04,14.48h5.92V0h-16.72V-3.84h6.08l17.12-48h5.68l17.12,48Zm-22.16-18.48-5.92-17.52h-.4l-6.08,17.52ZM-225-3.84h6.24V-48H-225v-3.84h22.16V-48h-6.24V-3.84h15.76l4-10.72h5.6V0H-225Zm44.72,0h6.24V-48h-6.24v-3.84h22.16V-48h-6.24V-3.84h15.76l4-10.72h5.6V0h-41.28Zm68.56,4.8q-8.24,0-13.48-3.68a21.142,21.142,0,0,1-7.6-9.44,31.968,31.968,0,0,1-2.36-12.24,37.846,37.846,0,0,1,2.52-13.84,23.82,23.82,0,0,1,7.8-10.52,20.956,20.956,0,0,1,13.12-4.04q8.08,0,13.4,3.68a21.192,21.192,0,0,1,7.72,9.48,31.6,31.6,0,0,1,2.4,12.2A37.846,37.846,0,0,1-90.72-13.6a23.82,23.82,0,0,1-7.8,10.52Q-103.8.96-111.72.96Zm1.04-3.52a10.147,10.147,0,0,0,9.48-5.52q3.08-5.52,3.08-14.16,0-11.68-3.6-19.36t-10.88-7.68a10.21,10.21,0,0,0-9.52,5.6q-3.12,5.6-3.12,14.24,0,11.68,3.64,19.28T-110.68-2.56ZM-13.32-48h-6.24L-33.64,0h-5.44l-12.4-36.64L-62.6,0h-5.52L-82.84-48h-6.32v-3.84h22.4V-48h-6.32l10.16,34,11.2-37.52h5.12l12.64,37.68L-24.04-48h-6.24v-3.84h16.96ZM29.8-14.56V0H-11.48V-3.84h6.24V-48h-6.24v-3.84H29.16v14.56h-5.6L19.48-48H4.44v18.64h8.32V-35.6h4.8v16.48h-4.8v-6.24H4.44V-3.84H20.2l4-10.72Zm45.68,0V0H34.2V-3.84h6.24V-48H34.2v-3.84H74.84v14.56h-5.6L65.16-48H50.12v18.64h8.32V-35.6h4.8v16.48h-4.8v-6.24H50.12V-3.84H65.88l4-10.72Zm4.4,10.72h6.24V-48H79.88v-3.84H94.2L117-16.16V-48h-6.16v-3.84h16.8V-48H121.4V0h-5.92L90.52-39.44v35.6h6V0H79.88Zm111.28-48v14.56h-5.6L181.48-48H166.44v18.64h8.32V-35.6h4.8v16.48h-4.8v-6.24h-8.32V-3.84h6.24V0H150.52V-3.84h6.24V-48h-6.24v-3.84Zm46.4,48V0H215.4V-3.84h6.24l-4.88-14.48H201.64L196.6-3.84h5.92V0H185.8V-3.84h6.08l17.12-48h5.68l17.12,48ZM215.4-22.32l-5.92-17.52h-.4L203-22.32ZM257.48-48V-3.84h7.76V0h-25.2V-3.84h7.76V-48h-7.76v-3.84h25.2V-48ZM318.2-3.84V0H303.88L289.32-23.52h-4.48V-3.84h6.24V0H268.92V-3.84h6.24V-48h-6.24v-3.84H293q8.24,0,12.48,4a13.178,13.178,0,0,1,4.24,10A13.425,13.425,0,0,1,307-29.52a14.668,14.668,0,0,1-7.52,5.12l13.2,20.56ZM284.84-27.36h7.28a6.258,6.258,0,0,0,5.2-3.08,12.559,12.559,0,0,0,2.16-7.4,12.08,12.08,0,0,0-2.08-7.32A6.3,6.3,0,0,0,292.12-48h-7.28ZM321.88-4.48a5.171,5.171,0,0,1,1.56-3.8,5.171,5.171,0,0,1,3.8-1.56,5.171,5.171,0,0,1,3.8,1.56,5.171,5.171,0,0,1,1.56,3.8,5.171,5.171,0,0,1-1.56,3.8,5.171,5.171,0,0,1-3.8,1.56,5.171,5.171,0,0,1-3.8-1.56A5.171,5.171,0,0,1,321.88-4.48Z" transform="translate(237 1242.829)" fill="#fff"/>
    <path id="パス_30913" data-name="パス 30913" d="M-97.284-.864h1.92V-14.688h-1.92v-.864h4.1L-87.9-3.528l5.088-12.024H-78.8v.864h-1.92V-.864h1.92V0h-5.88V-.864h1.92v-12.12L-87.9-.888H-89L-94.332-13.08V-.864h1.848V0h-4.8Zm26.808,0V0H-77.22V-.864h2.352V-14.688h-2.256v-.864h6.552v.864h-2.256V-.864Zm1.584,0h1.92V-14.688h-1.92v-.864h3.912l7.224,11.664v-10.8h-1.92v-.864H-54.8v.864h-1.92V0h-1.1L-65.94-13.224V-.864h1.92V0h-4.872Zm22.176,0V0H-53.46V-.864h2.352V-14.688h-2.256v-.864h6.552v.864h-2.256V-.864Zm12.792-18.624-.72.744c-1.44.12-2.472.168-5.16.216l-1.512-.5.144,1.584c.84.024,1.464.048,1.872.048,1.2,0,2.76-.072,4.7-.24-.984,3.048-1.488,4.44-2.424,6.936a11.073,11.073,0,0,0-2.928.48A5.755,5.755,0,0,0-44.34-4.752c0,2.04,1.224,3.6,2.832,3.6,1.1,0,2.136-.7,3.072-2.088a35.13,35.13,0,0,0,3-6.216,23.077,23.077,0,0,1,7.1,1.488C-29.22-3.576-30.8-1.2-34.14.744l.312.6A9.877,9.877,0,0,0-28.62-1.944a11.846,11.846,0,0,0,2.232-5.232c1.176.552,1.656.792,2.808,1.44l.7-1.632a23.794,23.794,0,0,0-3.192-1.416c.168-1.008.24-1.488.36-2.616.312-.192.432-.36.432-.552s-.192-.36-.552-.432L-27.8-12.84l.024,1.032c-.12,1.224-.144,1.344-.288,2.4a33.458,33.458,0,0,0-6.912-1.248c1.08-2.832,1.392-3.7,2.424-6.7.48-.288.672-.528.672-.792a.625.625,0,0,0-.36-.5ZM-37.788-8.736c-2.04,4.776-2.9,6.144-3.912,6.144-.672,0-1.224-.84-1.224-1.9a4.838,4.838,0,0,1,2.592-4.08A7.05,7.05,0,0,1-37.5-9.384Zm23.04-7.968c-2.04,0-2.88-.048-4.176-.12l-1.3-.552.12,1.632c1.728.12,2.568.144,4.056.144h.936A53.031,53.031,0,0,1-20.556-3.816l1.824,1.176a63.759,63.759,0,0,0,5.784-13.032c1.824-.072,3.816-.24,5.808-.5l.072-1.7-1.488.744c-1.7.192-2.688.288-4.008.36a2.855,2.855,0,0,1,.1-.336c.072-.216.288-.864.5-1.56.36-.24.432-.36.432-.528a.388.388,0,0,0-.336-.384l-2.112-.408-.192,1.224c-.12.48-.216.84-.264,1.008l-.288.984ZM.564-2.472A14.655,14.655,0,0,0-5.292-5.664v-4.488c.384-.264.48-.36.48-.528,0-.24-.216-.384-.576-.384l-1.9-.024.072,1.776v3.264a12.936,12.936,0,0,0-2.112-.168c-3.12,0-4.992,1.344-4.992,3.6,0,2.28,2.232,3.936,5.3,3.936,1.656,0,2.856-.5,3.384-1.44a3.639,3.639,0,0,0,.336-1.8V-3.912A15.857,15.857,0,0,1-.852-.672Zm-7.776.456c0,1.152-.672,1.7-2.088,1.7-2.208,0-3.84-1.032-3.84-2.448a1.645,1.645,0,0,1,.432-1.1,4.133,4.133,0,0,1,3-.888,8.816,8.816,0,0,1,2.5.336ZM.852-13.872a11.9,11.9,0,0,0-4.7-.768,12.041,12.041,0,0,0-4.224.624l.048.672A17.9,17.9,0,0,1-.492-11.9ZM12.66-18.648c.288-.24.384-.408.384-.6a.448.448,0,0,0-.456-.408H10.212l.408,1.44,1.512,7.3A21.658,21.658,0,0,0,9.156-9.144C6.8-7.464,5.8-5.952,5.8-4.128a4.285,4.285,0,0,0,2.88,4.08,17.724,17.724,0,0,0,6.7.888A45.714,45.714,0,0,0,22.188.432V-1.9a36.173,36.173,0,0,1-7.032.648c-5.424,0-7.728-.888-7.728-3.024,0-2.856,4.344-5.448,13.848-8.3a1.33,1.33,0,0,0,.648.216.436.436,0,0,0,.408-.384.83.83,0,0,0-.072-.288l-.84-1.944-.84.624c-1.872.72-3.672,1.392-5.376,2.064-.48.192-.816.312-1.176.48Zm25.416-.84-.72.744c-1.44.12-2.472.168-5.16.216l-1.512-.5.144,1.584c.84.024,1.464.048,1.872.048,1.2,0,2.76-.072,4.7-.24-.984,3.048-1.488,4.44-2.424,6.936a11.073,11.073,0,0,0-2.928.48A5.755,5.755,0,0,0,27.66-4.752c0,2.04,1.224,3.6,2.832,3.6,1.1,0,2.136-.7,3.072-2.088a35.13,35.13,0,0,0,3-6.216,23.077,23.077,0,0,1,7.1,1.488C42.78-3.576,41.2-1.2,37.86.744l.312.6A9.877,9.877,0,0,0,43.38-1.944a11.846,11.846,0,0,0,2.232-5.232c1.176.552,1.656.792,2.808,1.44l.7-1.632a23.794,23.794,0,0,0-3.192-1.416c.168-1.008.24-1.488.36-2.616.312-.192.432-.36.432-.552s-.192-.36-.552-.432L44.2-12.84l.024,1.032c-.12,1.224-.144,1.344-.288,2.4a33.458,33.458,0,0,0-6.912-1.248c1.08-2.832,1.392-3.7,2.424-6.7.48-.288.672-.528.672-.792a.625.625,0,0,0-.36-.5ZM34.212-8.736c-2.04,4.776-2.9,6.144-3.912,6.144-.672,0-1.224-.84-1.224-1.9a4.838,4.838,0,0,1,2.592-4.08A7.05,7.05,0,0,1,34.5-9.384Zm21.84,3.768a9.876,9.876,0,0,1,2.256-2.616,9.654,9.654,0,0,1,6.1-2.208c2.712,0,4.392,1.392,4.392,3.624S67.164-2.136,64.14-.96A27.152,27.152,0,0,1,58.188.456l.1.816C62.532.984,64.308.72,66.156.024,69.4-1.2,71.2-3.336,71.2-6A4.638,4.638,0,0,0,69.78-9.408a7.117,7.117,0,0,0-5.016-1.632A10.715,10.715,0,0,0,56.6-7.56l.552-7.248c.336-.24.456-.384.456-.6s-.168-.384-.456-.408l-2.232-.24.168,1.248-.648,9.84Zm1.464-13.776a19.831,19.831,0,0,1,7.8,2.568l1.728-2.016a11.306,11.306,0,0,0-2.28-.792,23.477,23.477,0,0,0-5.136-.624c-.528,0-1.008.024-2.04.072ZM84.468-5.28c-.552,2.184-1.3,3.648-1.872,3.648-.552,0-1.416-1.128-2.088-2.664-.888-2.112-1.344-5.5-1.344-10.272V-16.1c.408-.288.528-.432.528-.672s-.24-.408-.6-.432l-2.16-.144.12,1.44c.024,3.1.048,4.752.048,4.968a22.6,22.6,0,0,0,1.44,7.56c1.032,2.5,2.328,3.816,3.7,3.816,1.344,0,2.52-1.92,3.288-5.376Zm12.384.192c-.792-4.656-3.168-8.976-6.144-11.208l-.6.456a29.232,29.232,0,0,1,4.44,11.784Z" transform="translate(236 1163.685)" fill="#fff" stroke="rgba(0,0,0,0)" stroke-width="1"/>
  </g>
</svg>
