<svg xmlns="http://www.w3.org/2000/svg" xmlns:xlink="http://www.w3.org/1999/xlink" width="551.056" height="141.641" viewBox="0 0 551.056 141.641">
  <defs>
    <filter id="パス_57293" x="34" y="55.101" width="482.868" height="34.92" filterUnits="userSpaceOnUse">
      <feOffset dy="3" input="SourceAlpha"/>
      <feGaussianBlur stdDeviation="3" result="blur"/>
      <feFlood flood-opacity="0.161"/>
      <feComposite operator="in" in2="blur"/>
      <feComposite in="SourceGraphic"/>
    </filter>
  </defs>
  <g id="old-tit" transform="translate(-11 -15.6)">
    <path id="パス_57294" data-name="パス 57294" d="M-194.62-1.92h3.12V-24h-3.12v-1.92h7.72l8.36,18.28,7.8-18.28h7.72V-24h-3.12V-1.92h3.12V0h-10.96V-1.92h3V-19.8l-7.64,17.88h-2.48l-8.2-17.84V-1.92h2.96V0h-8.28ZM-152.46-24V-1.92h3.88V0h-12.6V-1.92h3.88V-24h-3.88v-1.92h12.6V-24Zm5.72,22.08h3.12V-24h-3.12v-1.92h7.16l11.4,17.84V-24h-3.08v-1.92h8.4V-24h-3.12V0h-2.96l-12.48-19.72v17.8h3V0h-8.32ZM-112.7-24V-1.92h3.88V0h-12.6V-1.92h3.88V-24h-3.88v-1.92h12.6V-24ZM-96.98-1.92h3.12V-24h-3.12v-1.92h7.16l11.4,17.84V-24H-81.5v-1.92h8.4V-24h-3.12V0h-2.96L-91.66-19.72v17.8h3V0h-8.32Zm45.96-5.36V0H-71.66V-1.92h3.12V-24h-3.12v-1.92h20.32v7.28h-2.8L-56.18-24H-63.7v9.32h4.16V-17.8h2.4v8.24h-2.4v-3.12H-63.7V-1.92h7.88l2-5.36ZM-24.5-1.92V0h-7.52l-5.92-10.36-5.32,8.44h2.96V0h-8.84V-1.92h3.08l6.88-10.64L-45.7-24h-3.12v-1.92h7.56l5.16,9.12,4.72-7.2h-3.2v-1.92h8.88V-24h-3.04l-6.08,9.4,7.2,12.68Zm5.8,0h3.8V-24h-3.6l-2,5.36h-2.6v-7.28H-1.86v7.28h-2.6L-6.5-24h-3.56V-1.92h3.8V0H-18.7Zm17.08-.32a2.586,2.586,0,0,1,.78-1.9,2.586,2.586,0,0,1,1.9-.78,2.586,2.586,0,0,1,1.9.78,2.586,2.586,0,0,1,.78,1.9,2.586,2.586,0,0,1-.78,1.9,2.586,2.586,0,0,1-1.9.78A2.586,2.586,0,0,1-.84-.34,2.586,2.586,0,0,1-1.62-2.24ZM39.66-26.82h5.58c-.288,5.184-.612,9.144-.9,10.656-.216,1.26-.54,1.62-1.584,1.62H40.38v1.872h4c2.268-.072,3.132-.72,3.492-2.664a114.484,114.484,0,0,0,1.044-13.212H31.6l-1.512-.288v2.3L31.6-26.82H36.2a32.719,32.719,0,0,1-.5,3.888c-1.512-.468-2.376-.684-4.212-1.152l-.684,1.3c1.836.9,2.736,1.368,4.32,2.3a12.947,12.947,0,0,1-5.832,7.452l.648,1.152c3.96-1.512,6.516-3.672,7.956-6.8,1.08.756,1.764,1.224,3.312,2.448l2.16-3.348a32.961,32.961,0,0,0-4.464-2.16,37.4,37.4,0,0,0,.756-4.9ZM21.156.684H24.9V2.052h3.06V-8.856H18.1V2.484h3.06Zm0-1.728V-7.128H24.9v6.084Zm13.536-8.82v9.4c-.036,1.908.828,2.736,2.772,2.736h4.212c1.98,0,2.808-.792,2.916-2.808l.216-3.78L43.116-4.5l-.18,2.628c-.072.792-.288.972-1.044,1.008h-2.88c-.756,0-1.008-.288-1.044-1.044v-6.84c.4-.324.5-.432.5-.648,0-.324-.252-.468-.72-.468ZM26.448-29.016h-6.84L18.1-29.3v2.448l1.512-.288h6.84l1.512.288V-29.3Zm1.3,5.04H18.132l-1.512-.288v2.448l1.512-.288h9.612l1.512.288v-2.448Zm-1.3,5.04h-6.84L18.1-19.224v2.448l1.512-.288h6.84l1.512.288v-2.448Zm0,5.04h-6.84L18.1-14.184v2.448l1.512-.288h6.84l1.512.288v-2.448Zm4.464,5.148A21.061,21.061,0,0,1,28.356-.576l3.132,2.16a22.416,22.416,0,0,0,1.26-8.172c0-.612,0-1.044-.072-1.944Zm7.056-2.808a34.085,34.085,0,0,1,3.1,4.968L43.98-9.252a15.891,15.891,0,0,0-5.148-3.312Zm6.48,3.384a48.454,48.454,0,0,1,2.7,8.6L50.46-1.944a21.016,21.016,0,0,0-4.752-6.984Zm27.4-9.468H81.96l1.476.288v-2.3l-1.476.288H57.372l-1.224-.252c1.116-1.26,1.584-2.664,1.8-5.076H81.276a31.193,31.193,0,0,1-1.836,4.284l1.152.72a14.312,14.312,0,0,0,5.868-6.732H71.52V-29.34c.5-.324.612-.5.612-.756,0-.36-.252-.5-.792-.5H67.2v4.176H57.948a6.587,6.587,0,0,0-.18-1.548H56.04a9.572,9.572,0,0,1-3.42,5.76l2.952,3.276a2.943,2.943,0,0,1,.288-.324v1.908l1.512-.288H67.884V-2.448a10.582,10.582,0,0,1-6.372-5.04,29.228,29.228,0,0,0,1.26-4.932c.648-.36.936-.648.936-1.008s-.252-.576-.9-.684l-4.068-.72c-.54,7.308-2.556,12.888-6.12,16.92L53.556,3.2c3.1-1.656,5.4-4.5,7.38-9.108C63.276-.936,65.8.972,70.944,1.764c2.3.324,5.868.468,14.04.468A19.081,19.081,0,0,1,86.46-1.656c-4.5.036-5.148.036-6.768.036-3.708,0-6.444-.072-7.848-.216V-9.288H80.52L82.032-9v-2.3l-1.512.288H71.844Zm35.64-5.94v-5.544c.468-.324.576-.5.576-.756,0-.36-.252-.5-.756-.5h-3.96v6.8H90.312V-5.76h4.14V-8.208h8.892v11.2h4.14v-11.2h9.144v2.124h4.14v-17.5Zm0,1.728h9.144V-9.936h-9.144Zm-4.14,11.916H94.452V-21.852h8.892Zm35.82-3.456h-9.936V2.772h4.14V.9h16.488V2.664H154V-13.392H143.448v-7.884h13.5l1.512.288v-2.448l-1.512.288h-13.5V-29.2c.468-.324.576-.5.576-.756,0-.324-.252-.5-.756-.5h-4.1v7.308H126.132l-1.512-.288v2.448l1.512-.288h13.032Zm-5.8,12.42V-11.52h16.488V-.972ZM179.2-7.992h11.412v-14.04H179.2v-3.1h12.528l1.512.288v-2.3l-1.512.288H179.2V-29.34c.468-.36.576-.5.576-.756,0-.36-.252-.5-.756-.5H175.38v3.744H163.356l-1.512-.288v2.3l1.512-.288H175.38v3.1H164.472v14.04H175.38v3.276H162.132L160.62-5v2.3l1.512-.288H175.38V3.24H179.2V-2.988h13.752l1.512.288V-5l-1.512.288H179.2Zm0-6.3h7.6V-9.72h-7.6Zm-3.816,0V-9.72h-7.092v-4.572ZM179.2-20.3h7.6v4.284h-7.6Zm-3.816,0v4.284h-7.092V-20.3Z" transform="translate(286.62 154)" fill="#fff"/>
    <g transform="matrix(1, 0, 0, 1, 11, 15.6)" filter="url(#パス_57293)">
      <path id="パス_57293-2" data-name="パス 57293" d="M-221.544,1.116a12.57,12.57,0,0,1,.5-1.818c-3.132.09-4.752.126-7.2.126-3.6,0-4.77-.252-5.724-1.206V-8.388H-237.1l-.756-.144V-7.38l.756-.144h1.35v5.9a17.067,17.067,0,0,1-2.214.756l.684,2.034a.37.37,0,0,0,.306.234c.2,0,.324-.2.432-.594A17.505,17.505,0,0,0-234.5-1.008c1.3,1.584,2.376,1.98,5.526,2.088,1.782.018,3.222.018,4.374.036Zm-7.416-8.46v-.5c.234-.18.288-.252.288-.378,0-.18-.126-.252-.378-.252h-1.53v1.134h-1.458l-.756-.144v1.152l.756-.144h1.458v1.764h-2.106l-.738-.144v1.152l.738-.144h10.422l.756.144V-4.86l-.756.144h-2.25V-6.48h1.584l.756.144V-7.488l-.756.144h-1.584v-.5c.234-.18.288-.252.288-.378,0-.162-.126-.252-.378-.252h-1.53v1.134Zm0,.864h2.826v1.764h-2.826Zm1.458-4.608-.774-.126-.162.648c-.072.324-.162.4-.486.4h-1.818c-.45-.018-.558-.108-.558-.468v-.972h3.348v-2.9h-4.212l-.756-.144v1.1l.756-.162h2.736V-12.4h-3.348v2.286c.018.882.468,1.26,1.458,1.242h2.268c.864,0,1.224-.288,1.368-1.17Zm6.246,0-.774-.126-.126.63c-.072.324-.162.414-.486.414h-2.322c-.45-.018-.558-.108-.558-.468v-.972h3.546v-2.9h-4.464l-.738-.144v1.1l.738-.162h2.988V-12.4h-3.582v2.286c.018.882.468,1.26,1.458,1.242h2.808c.864,0,1.224-.306,1.368-1.188ZM-233.3-13.5a8.166,8.166,0,0,0-3.636-1.278l-.342.63a11.763,11.763,0,0,1,2.664,2.682Zm.486,12.4a12.932,12.932,0,0,0,3.87-1.044,1.033,1.033,0,0,0,.216.018c.288,0,.522-.144.522-.306a.367.367,0,0,0-.18-.288l-1.3-.882a13.094,13.094,0,0,1-3.348,1.944Zm6.264-1.674a26.118,26.118,0,0,1,3.762,1.854l1.206-1.422a19.624,19.624,0,0,0-4.5-1.062Zm12.438-10.314-3.33.072-1.422-.45.18,1.512,3.744-.09c-.216.252-.5.666-.792,1.062a10.793,10.793,0,0,0-2.232,6.354,6.467,6.467,0,0,0,1.44,4.284,5.459,5.459,0,0,0,4.086,1.584A5.832,5.832,0,0,0-207.612-.99a8.087,8.087,0,0,0,1.242-4.59,23.3,23.3,0,0,0-.9-5.58l.126-.036a18.5,18.5,0,0,0,3.33,6.354l1.116-2.484a16.617,16.617,0,0,1-4.536-6.192l-1.422.378a35.232,35.232,0,0,1,.576,6.228A10.991,10.991,0,0,1-208.98-2,3.9,3.9,0,0,1-212.454.144c-2.142,0-3.456-1.674-3.456-4.41a9.478,9.478,0,0,1,1.458-5,13.023,13.023,0,0,1,2.124-2.754c.594-.108.774-.216.774-.486a.4.4,0,0,0-.234-.36L-213.5-13.9Zm11.79-.27A3.721,3.721,0,0,0-204.5-15.3l-.414.342a7.319,7.319,0,0,1,1.224,2.358Zm-4.572-1.386a6.545,6.545,0,0,1,.99,2.43l1.35-.594a3.764,3.764,0,0,0-1.872-2.124Zm16.506,5.976c.216-1.17.306-1.818.414-2.592h5.382l.756.144v-1.152l-.756.144h-5.292c.108-1.044.162-1.53.2-2.214.234-.162.324-.27.324-.432a.319.319,0,0,0-.36-.306l-1.962-.018c-.018,1.242-.054,1.944-.144,2.97h-1.764l-.738-.144v1.152l.738-.144h1.692l-.018.054A21.011,21.011,0,0,1-195.858-.162l.45.54a13.615,13.615,0,0,0,4.644-7.47l.018-.054a11.3,11.3,0,0,0,1.53,4.806,10.181,10.181,0,0,1-4,3.294l.342.666a10.425,10.425,0,0,0,4.608-2.682,10.139,10.139,0,0,0,3.69,2.646c.414-.918.486-1.062.972-2a11.562,11.562,0,0,1-3.51-2.034A16.5,16.5,0,0,0-184.7-8.766Zm3.51.864a14.6,14.6,0,0,1-1.458,4.194A9.115,9.115,0,0,1-190.206-7.9Zm-11.268,1.566c-.594.18-1.206.324-2.376.594l.378,1.728c.036.18.162.324.288.324.162,0,.27-.144.414-.486.5-.2.54-.2,1.3-.522V-.126c-.018.468-.162.612-.63.63h-1.206V1.44h2.214c1.008,0,1.44-.432,1.44-1.44V-5.562a26.327,26.327,0,0,0,2.25-1.386l-.252-.666c-1.116.414-1.548.576-2,.72v-3.744h.846l.756.144v-1.152l-.756.144h-.846v-3.06c.216-.18.288-.252.288-.378,0-.162-.126-.252-.4-.252h-1.71v3.69h-1.512l-.738-.144v1.152l.738-.144h1.512Zm16.938-3.672.324,1.224c.054.252.18.378.324.378.162,0,.252-.09.4-.36a22.092,22.092,0,0,1,2.394-.594l.054-.018a36.468,36.468,0,0,1-3.42,8.748l1.62.954A36.133,36.133,0,0,0-175.68-9.7a17.165,17.165,0,0,1,2-.18c.918,0,1.242.45,1.242,1.674a20.2,20.2,0,0,1-.882,6.174c-.306.99-.7,1.476-1.134,1.476-.486,0-1.008-.288-1.98-1.062l-.522.936a8.114,8.114,0,0,0,.846.72,3.8,3.8,0,0,0,2.232.936c.936,0,1.638-.54,2.2-1.71A17.182,17.182,0,0,0-170.5-7.2a4.648,4.648,0,0,0-.594-2.754,3.062,3.062,0,0,0-2.61-.936c-.558,0-1.08.018-1.728.072.234-1.044.342-1.656.576-2.9.27-.126.378-.234.378-.4s-.162-.306-.414-.342l-1.854-.4-.036.63c-.234,1.62-.414,2.646-.648,3.636-1.368.18-1.638.234-3.4.558Zm11.232-1.4c1.35,2.034,2.16,4.338,2.862,8.172l2.106-.918c-.72-3.492-2.412-6.444-4.41-7.65Zm10.746,1.044c-.018.414-.036.756-.036,1.044l-.018.576c-1.3,1.98-2.448,3.69-3.546,5.274L-161.712-2c.936-1.44,1.332-2.016,2.07-3.042l.252-.342c-.036,1.62-.036,1.692-.036,2.358,0,1.188,0,1.98.036,3.978l1.908-.144c-.09-2.34-.126-3.42-.126-5.184,0-.954,0-1.368.036-2.646l.018-.63c2.376-2.178,4.212-3.276,5.454-3.276.4,0,.594.324.594.99,0,.018,0,.234-.018.4l-.306,6.7v.522a3.623,3.623,0,0,0,.342,1.746,1.926,1.926,0,0,0,1.746.954c1.026,0,1.782-.54,2.5-1.818a10.053,10.053,0,0,0,1.08-2.9l-.864-.252c-.666,2.214-1.422,3.4-2.178,3.4a.6.6,0,0,1-.522-.468A4.482,4.482,0,0,1-149.85-2.7l.306-6.948c.018-.432.036-.738.036-.792a1.716,1.716,0,0,0-1.908-1.728,7.772,7.772,0,0,0-4.5,1.854A17.494,17.494,0,0,0-157.5-9v-.054l.054-1.17v-.054l.018-.018c.558-.342.756-.558.756-.828,0-.216-.108-.324-.486-.486l-.2-.072c.036-.594.126-1.458.2-2.07.306-.2.414-.324.414-.522,0-.18-.18-.324-.432-.36l-1.926-.2.036,1.332-.108,2.142h-.126c-.594.072-1.08.108-2.214.162l-.972-.306.126,1.332a24.839,24.839,0,0,0,2.934-.18ZM-141.534.81a67.449,67.449,0,0,0,3.618-11.646l.036-.162,1.206-.054a29.846,29.846,0,0,0,4.626-.414l.054-1.422-1.332.54a25.634,25.634,0,0,1-3.2.288c-.162,0-.63.036-1.134.054l.342-1.674c.252-.18.36-.342.36-.522a.436.436,0,0,0-.36-.378l-2-.342-.054,1.242-.36,1.746c-1.08.036-1.188.036-1.386.036-.306,0-.72-.018-1.3-.036l-1.26-.378.126,1.4c.414.018.738.018.954.018.09,0,.972-.018,2.664-.036A55.436,55.436,0,0,1-143.586.18Zm12.6-10.26a13.774,13.774,0,0,0-2.016-.144,9.515,9.515,0,0,0-5.04,1.3l.216.72a17.466,17.466,0,0,1,3.168-.252,13.478,13.478,0,0,1,3.672.432Zm-7.47,4.428a4.964,4.964,0,0,0-.666,2.43c0,2.3,1.692,3.258,5.742,3.258a18.52,18.52,0,0,0,3.06-.216V-1.764a13.677,13.677,0,0,1-3.582.432c-2.7,0-4.068-.63-4.068-1.872a5.414,5.414,0,0,1,.288-1.6Zm18.288,6.282V-6.282h-6.8V1.386h1.818V.414h3.168V1.26ZM-123.1-.45V-5.418h3.168V-.45Zm13.68,1.71V-6.282h-7.038V1.386h1.818V.414h3.4V1.26ZM-111.24-.45h-3.4V-5.418h3.4Zm-11.484-7.668h10.944v-6.39h-10.944Zm8.946-.864h-6.948v-4.662h6.948ZM-94-11.412v2.754h1.71v-2.754h1.53l.756.144V-12.42l-.756.144h-5.436c.018-.234.036-.468.036-.792v-.576a30.35,30.35,0,0,0,4.41-.252,3.3,3.3,0,0,0,.378.036c.18,0,.306-.09.306-.234a.277.277,0,0,0-.108-.2L-92.25-15.3a28.768,28.768,0,0,1-3.924.864l-1.674-.522V-13.1c-.036,2.394-.378,3.51-1.332,4.284l.4.5a3.931,3.931,0,0,0,2.5-3.1Zm-8.064,0v2.754h1.71v-2.754h1.188l.756.144V-12.42l-.756.144h-4.626c.018-.288.018-.522.018-.882v-.45A34.337,34.337,0,0,0-99.7-13.9a2.253,2.253,0,0,0,.4.036c.18,0,.342-.09.342-.2a.4.4,0,0,0-.144-.216l-1.116-1.026a21.388,21.388,0,0,1-3.528.882l-1.728-.54v1.8c-.036,2.592-.414,3.906-1.44,4.986l.432.5a4.906,4.906,0,0,0,2.61-3.744Zm9.846,3.24h-12.492v7.2h12.492Zm-10.638.864h8.784V-6.12h-8.784Zm8.784,2.052V-4.05h-8.784V-5.256Zm0,2.07v1.35h-8.784v-1.35ZM-97.074.126a34.611,34.611,0,0,1,5.22,1.494L-90.432.27A20.38,20.38,0,0,0-96.75-.54Zm-9.684,1.494a25.241,25.241,0,0,0,6.3-1.17A2.335,2.335,0,0,0-99.99.5c.216,0,.414-.126.414-.27,0-.09-.108-.216-.234-.288l-1.674-.756a24,24,0,0,1-5.436,1.818Zm26.154-15.5c.234-.2.342-.36.342-.522a.411.411,0,0,0-.45-.36h-2.214l.342,1.206,1.116,5.328c-3.258,1.656-4.626,3.15-4.626,5.022A3.411,3.411,0,0,0-83.826.018,14.6,14.6,0,0,0-78.642.7,40.263,40.263,0,0,0-73.62.414v-2.25a28.452,28.452,0,0,1-5.418.486,11.12,11.12,0,0,1-4.788-.7,1.511,1.511,0,0,1-.828-1.3c0-1.044,1.08-2.142,3.006-3.114a39.6,39.6,0,0,1,7.362-2.7,1.268,1.268,0,0,0,.522.144.37.37,0,0,0,.36-.306.829.829,0,0,0-.108-.324l-.81-1.782-.774.558C-77.868-9.846-78.39-9.648-79.65-9.09ZM-53.73-7.272l.756.144V-8.28l-.756.144h-8.6c.288-.594.522-1.17.972-2.322.414-.108.594-.27.594-.486,0-.18-.162-.324-.414-.36l-1.98-.342a33.171,33.171,0,0,1-1.35,3.51h-3.8l-.738-.144v1.152l.738-.144h3.384a34.484,34.484,0,0,1-2.682,4.554l1.89.612c.486-.7.72-1.08.972-1.494a29.573,29.573,0,0,1,3.69,1.53C-62.712-.72-65.376.216-69.1.756l.108.738c4.464-.252,7.65-1.134,9.612-2.682a41.6,41.6,0,0,1,4.3,2.808l1.692-1.764a31.351,31.351,0,0,0-4.662-2.34A11.51,11.51,0,0,0-55.8-7.272ZM-64.278-4.356c.7-1.26,1.026-1.872,1.548-2.916H-58l-.018.054A9.666,9.666,0,0,1-59.94-3.186a27.623,27.623,0,0,0-4.1-1.116Zm2.088-8.8h-4.536a6.926,6.926,0,0,0-.144-.918h-.9a6.256,6.256,0,0,1-1.71,3.438l1.62,1.692a5.839,5.839,0,0,0,1.152-3.348h11.682a21.136,21.136,0,0,1-.9,2.61l.684.378a8.246,8.246,0,0,0,2.682-3.852h-7.47V-14.6c.216-.18.288-.252.288-.378,0-.162-.126-.252-.4-.252H-62.19Zm16.326,1.944v9.99c.018.9.126,1.242.522,1.638s.72.5,1.62.522h3.834c1.44,0,2.052-.63,2.106-2.16l.162-2.592-.99-.09-.126,1.944c-.036.648-.342.9-1.044.9h-3.132a.737.737,0,0,1-.864-.864v-8.658c.234-.18.288-.252.288-.378,0-.18-.126-.252-.378-.252ZM-48.636-.99a14.344,14.344,0,0,0,1.008-5.742c0-.774-.036-1.35-.108-2.3l-1.1-.144A15.759,15.759,0,0,1-50.76-2.43Zm4-13.392a17.4,17.4,0,0,1,3.708,3.6l1.728-2.034a11.082,11.082,0,0,0-4.932-2.2Zm6.282,5A33.151,33.151,0,0,1-36.108-2L-33.84-3.51a18.323,18.323,0,0,0-3.672-6.228ZM-23.418.45a12.465,12.465,0,0,0,4.14-1.224A6.6,6.6,0,0,0-15.75-6.768a6.261,6.261,0,0,0-3.078-5.616,9.417,9.417,0,0,0-4.518-1.08c-4.716,0-8.064,3.186-8.064,7.65,0,2.718,1.4,4.878,3.186,4.878,1.584,0,3.186-1.692,4.3-4.572a28.755,28.755,0,0,0,1.548-6.786,4.459,4.459,0,0,1,2.376.9A5.513,5.513,0,0,1-17.982-6.93,6.362,6.362,0,0,1-20.52-1.764,10.351,10.351,0,0,1-23.634-.342Zm-.954-12.816A29.628,29.628,0,0,1-26.55-3.888c-.594,1.206-1.08,1.746-1.566,1.746-.738,0-1.386-1.656-1.386-3.528a7.3,7.3,0,0,1,1.728-4.86A5.129,5.129,0,0,1-24.372-12.366ZM2.646-5.94,3.42-5.8V-6.948L2.646-6.8H-1.548V-8.82H2.214v-5.634h-9.09V-8.82h3.51V-6.8h-4.05l-.738-.144V-5.8l.738-.144h3.492A16.984,16.984,0,0,1-8.712-.27l.4.72a13.216,13.216,0,0,0,4.95-3.816v4.86h1.818v-6.57A9.839,9.839,0,0,0,2.52.27,15.857,15.857,0,0,1,3.6-1.782,11.058,11.058,0,0,1-1.332-5.94ZM-5.022-9.684V-13.59H.306v3.906Zm-5.94,11.178h1.818V-10.782A27.579,27.579,0,0,0-7.992-13.86c.324-.072.468-.2.468-.414,0-.162-.108-.27-.324-.342l-1.98-.684A38.249,38.249,0,0,1-13.32-5.436l.558.45a22.479,22.479,0,0,0,1.8-2.394ZM13.086-.144h-.63l-.738-.144V.864L12.456.72h9.126l.738.144V-.288l-.738.144H18.5v-6.75h2.268l.756.144V-7.9l-.756.144H18.5v-5.58h2.7l.738.144v-1.152L21.2-14.2H13.032l-.756-.144v1.152l.756-.144H16.65V-.144H14.9v-8.82c.234-.18.288-.252.288-.378,0-.162-.126-.252-.378-.252H13.086ZM7.668.342H9.576v.72h1.548v-5.49h-5v5.67H7.668Zm0-.864V-3.564H9.576V-.522Zm2.718-13.986H6.876l-.756-.144v1.224l.756-.144h3.51l.756.144v-1.224Zm.72,2.52H6.156L5.4-12.132v1.224l.756-.144h4.95l.756.144v-1.224Zm-.72,2.52H6.876L6.12-9.612v1.224l.756-.144h3.51l.756.144V-9.612Zm0,2.52H6.876L6.12-7.092v1.224l.756-.144h3.51l.756.144V-7.092Zm16.74,2.772A2.9,2.9,0,0,0,24.174-1.3a2.9,2.9,0,0,0,2.9,2.916,2.9,2.9,0,0,0,2.916-2.9A2.912,2.912,0,0,0,27.126-4.176Zm-.072.972A1.933,1.933,0,0,1,29.016-1.3,1.932,1.932,0,0,1,27.09.648a1.932,1.932,0,0,1-1.944-1.926A1.936,1.936,0,0,1,27.054-3.2Zm25.29-7.11v-4.122c.234-.18.288-.252.288-.378,0-.18-.126-.252-.4-.252H50.4v4.752H47.5V-14.2c.234-.18.288-.252.288-.378,0-.162-.126-.252-.378-.252H45.45v4.518H43.6l-.756-.144v1.152L43.6-9.45H45.45V1.494H47.5V.342H58.3l.756.144V-.666L58.3-.522H47.5V-9.45h2.9v5.562h6.732V-9.45H59l.756.144v-1.152L59-10.314H57.132V-14.2c.234-.18.288-.252.288-.378,0-.162-.126-.252-.378-.252H55.188v4.518Zm0,.864h2.844v4.7H52.344ZM71.928-4.428V1.494h1.908V-3.8c.2-.162.288-.252.288-.36l-.018-.072a17.535,17.535,0,0,0,3.546,1.278,8.637,8.637,0,0,1,.828-2.016A18.2,18.2,0,0,1,70.938-7.65H76.68V-14.6h-13.3V-7.65H68.2A21.283,21.283,0,0,1,61.56-3.6l.252.666A19.322,19.322,0,0,0,66.2-4.41v.738C66.168-1.188,65,.054,61.776.99l.234.63A12.51,12.51,0,0,0,65.79.576a4.241,4.241,0,0,0,2.358-3.96v-.5c.234-.18.288-.252.288-.378,0-.162-.144-.252-.4-.252H66.384a14.594,14.594,0,0,0,3.834-2.7,11.408,11.408,0,0,0,3.492,2.79Zm2.844-4.086H70.848v-2.232h3.924Zm0-3.1H70.848v-2.124h3.924Zm-5.76,3.1H65.286v-2.232h3.726Zm0-3.1H65.286v-2.124h3.726Zm26.424-1.026a17.344,17.344,0,0,0-2.43-.162,9.676,9.676,0,0,0-5.634,1.566l.18.756a19.2,19.2,0,0,1,4.266-.468,14.6,14.6,0,0,1,3.618.414Zm-12.78-1.638.018,1.062a69.879,69.879,0,0,0-.468,7.6A36.764,36.764,0,0,0,82.638.63L84.654.306a34.985,34.985,0,0,1-.5-6.21,60.478,60.478,0,0,1,.5-7.236c.288-.2.4-.324.4-.486,0-.2-.18-.324-.486-.378Zm4.716,7.542a4.817,4.817,0,0,0-.63,2.394,3.617,3.617,0,0,0,1.35,2.952,8.312,8.312,0,0,0,4.554.972,21.463,21.463,0,0,0,3.42-.27V-2.862a16.688,16.688,0,0,1-4.032.45c-2.9,0-4.14-.81-4.14-2.7a5.505,5.505,0,0,1,.2-1.44Zm12.8-3.672a10.474,10.474,0,0,0,2.394-1.26V.324h2V-14h-1.008a11.653,11.653,0,0,1-3.384,2.25Zm21.924,1.44c.684,1.026.81,1.206,1.3,2.034L125.5-8.37a19.287,19.287,0,0,0-5.76-4.842l-.738.576a28.706,28.706,0,0,1,2.448,2.808l-.36.018c-1.692.072-4.59.144-7,.18l-.7.018a25.678,25.678,0,0,0,3.474-4.23c.468-.126.666-.27.666-.5a.381.381,0,0,0-.306-.36L114.84-15.3a42.808,42.808,0,0,1-2.718,5.706h-.828l-.828.018-1.566.018.54,1.926c.09.324.2.468.4.468s.324-.126.468-.45a108.886,108.886,0,0,0,11.268-1.242ZM112.986.522h8.37V1.4h2.07V-6.174h-12.51v7.65h2.07Zm0-.936V-5.238h8.37V-.414Zm23.328-2.052h1.908V-5.454c1.656-.486,2.5-.684,4.662-1.134a2.063,2.063,0,0,0,.5.09.389.389,0,0,0,.414-.378c0-.108-.054-.2-.18-.414l-.828-1.3-.846.4c-2.2.666-2.952.9-3.762,1.188a2.822,2.822,0,0,0-.126-.81,2.194,2.194,0,0,0-2.376-1.476,6.02,6.02,0,0,0-2.934.774c.612-.918,1.044-1.62,1.764-2.844l.81-.018c1.89,0,3.78-.09,5.994-.27l.162-1.6-1.386.612c-2.07.18-3.078.234-5,.27l.738-1.332c.5-.234.576-.306.576-.486s-.144-.288-.45-.378l-1.692-.54-.306.882c-.5,1.026-.792,1.584-.954,1.854-.99,0-1.656-.018-3.1-.09l-1.17-.5.072,1.494c1.71.09,1.944.09,3.078.108h.54a43.817,43.817,0,0,1-4.1,5.778l1.422,1.17c.756-1.008.882-1.152,1.656-2.16a11.847,11.847,0,0,1,1.476-1.08,4.742,4.742,0,0,1,2.25-.63c.882,0,1.116.4,1.17,1.98-3.474,1.368-4.95,2.646-4.95,4.284a2.482,2.482,0,0,0,1.62,2.322,11.705,11.705,0,0,0,4.626.63A33.448,33.448,0,0,0,141.7.72V-1.3a28.713,28.713,0,0,1-4.41.378c-3.006,0-4.374-.432-4.374-1.4,0-.882,1.062-1.674,3.4-2.52ZM154.3-11.43a53.835,53.835,0,0,0,6.768-.414l.144-1.566-1.3.576a37.921,37.921,0,0,1-5.472.4h-.054c.036-.342.09-.684.216-1.638.252-.162.342-.27.342-.378,0-.18-.234-.36-.5-.378l-1.638-.162c-.036.576-.036.594-.144,1.548-.036.45-.072.738-.09,1.044h-.27a22.176,22.176,0,0,1-3.2-.18l-1.314-.5.09,1.44a29.243,29.243,0,0,0,3.8.27c.324,0,.486,0,.828-.018l-.018.054-.036.72c-.018.144-.054.774-.09,1.44A7.407,7.407,0,0,0,149-7.47a5.23,5.23,0,0,0-1.818,3.96,3.929,3.929,0,0,0,.846,2.556,2.617,2.617,0,0,0,1.89.864c1.188,0,2.952-.954,4.536-2.484a16.882,16.882,0,0,0,3.726-5.238,3.511,3.511,0,0,1,1.836,3.15,4.242,4.242,0,0,1-.63,2.2,4.919,4.919,0,0,1-1.854,1.782A10.848,10.848,0,0,1,154.314.54l.234.828c.9-.126,1.224-.2,1.746-.288a9.068,9.068,0,0,0,4.014-1.746,4.459,4.459,0,0,0,1.8-3.744c0-3.168-2.448-5.166-6.336-5.166a12.879,12.879,0,0,0-1.62.108c.036-.522.072-1.062.072-1.08l.054-.828Zm-.054,7.452a15.335,15.335,0,0,1-.18-2.682c0-.5,0-.594.036-1.836a9.053,9.053,0,0,1,1.17-.072,10.7,10.7,0,0,1,1.944.18A17.506,17.506,0,0,1,154.242-3.978Zm-1.926-4.086c-.018.522-.018.9-.018,1.188a24.167,24.167,0,0,0,.288,4.212,4.526,4.526,0,0,1-2.412,1.134.892.892,0,0,1-.63-.216A2.57,2.57,0,0,1,149-3.474a4.77,4.77,0,0,1,1.17-3.15A5.2,5.2,0,0,1,152.316-8.064Zm17.136-4.518h-.144c-.99,0-1.548-.036-2.682-.126l-1.044-.414.09,1.44c1.566.09,2.16.108,3.528.108l-.018.054a39.957,39.957,0,0,1-3.906,8.586l1.746,1.08a51.43,51.43,0,0,0,4.212-9.774c1.206-.072,2.772-.216,4.194-.414l.036-1.458-1.242.576c-1.242.162-1.926.216-2.646.27l.018-.054c.144-.486.162-.54.36-1.188.252-.18.342-.306.342-.45a.384.384,0,0,0-.342-.36l-1.908-.342-.144,1.062c-.2.684-.27.954-.4,1.4ZM181.3-2.142a11.645,11.645,0,0,0-4.356-2.322v-3.06c.252-.2.342-.306.342-.45,0-.216-.18-.342-.486-.36l-1.764-.036.09,1.566v2a10.034,10.034,0,0,0-1.512-.108c-2.232,0-3.726,1.152-3.726,2.9a2.724,2.724,0,0,0,.72,1.854,4.835,4.835,0,0,0,3.384,1.224,3.6,3.6,0,0,0,2.286-.684,2.44,2.44,0,0,0,.666-1.872v-1.26a11.7,11.7,0,0,1,3.15,2.412Zm-6.174.45c0,.828-.486,1.224-1.512,1.224-1.512,0-2.628-.7-2.628-1.656a1.128,1.128,0,0,1,.306-.792,3.007,3.007,0,0,1,2.142-.612,6.09,6.09,0,0,1,1.692.234Zm6.39-8.838a10.454,10.454,0,0,0-3.618-.594,10.141,10.141,0,0,0-3.4.54l.054.684a14.256,14.256,0,0,1,5.832,1.224ZM186.426.81a67.449,67.449,0,0,0,3.618-11.646L190.08-11l1.206-.054a29.846,29.846,0,0,0,4.626-.414l.054-1.422-1.332.54a25.634,25.634,0,0,1-3.2.288c-.162,0-.63.036-1.134.054l.342-1.674c.252-.18.36-.342.36-.522a.436.436,0,0,0-.36-.378l-2-.342-.054,1.242-.36,1.746c-1.08.036-1.188.036-1.386.036-.306,0-.72-.018-1.3-.036l-1.26-.378.126,1.4c.414.018.738.018.954.018.09,0,.972-.018,2.664-.036A55.436,55.436,0,0,1,184.374.18Zm12.6-10.26a13.774,13.774,0,0,0-2.016-.144,9.515,9.515,0,0,0-5.04,1.3l.216.72a17.466,17.466,0,0,1,3.168-.252,13.478,13.478,0,0,1,3.672.432Zm-7.47,4.428a4.964,4.964,0,0,0-.666,2.43c0,2.3,1.692,3.258,5.742,3.258a18.52,18.52,0,0,0,3.06-.216V-1.764a13.677,13.677,0,0,1-3.582.432c-2.7,0-4.068-.63-4.068-1.872a5.414,5.414,0,0,1,.288-1.6Zm25.92-7.614a17.344,17.344,0,0,0-2.43-.162,9.676,9.676,0,0,0-5.634,1.566l.18.756a19.2,19.2,0,0,1,4.266-.468,14.6,14.6,0,0,1,3.618.414ZM204.7-14.274l.018,1.062a69.88,69.88,0,0,0-.468,7.6A36.764,36.764,0,0,0,204.678.63l2.016-.324a34.986,34.986,0,0,1-.5-6.21,60.478,60.478,0,0,1,.5-7.236c.288-.2.4-.324.4-.486,0-.2-.18-.324-.486-.378Zm4.716,7.542a4.817,4.817,0,0,0-.63,2.394,3.617,3.617,0,0,0,1.35,2.952,8.312,8.312,0,0,0,4.554.972,21.463,21.463,0,0,0,3.42-.27V-2.862a16.688,16.688,0,0,1-4.032.45c-2.9,0-4.14-.81-4.14-2.7a5.505,5.505,0,0,1,.2-1.44Zm14.634,2.556a2.9,2.9,0,0,0-2.952,2.88,2.9,2.9,0,0,0,2.9,2.916,2.9,2.9,0,0,0,2.916-2.9A2.912,2.912,0,0,0,224.046-4.176Zm-.072.972A1.933,1.933,0,0,1,225.936-1.3,1.932,1.932,0,0,1,224.01.648a1.932,1.932,0,0,1-1.944-1.926A1.936,1.936,0,0,1,223.974-3.2Z" transform="translate(280.96 76.4)" fill="#fff"/>
    </g>
    <path id="パス_57292" data-name="パス 57292" d="M-289.19-2.112h3.432V-26.4h-3.432v-2.112h8.492L-271.5-8.4l8.58-20.108h8.492V-26.4h-3.432V-2.112h3.432V0h-12.056V-2.112h3.3V-21.78l-8.4,19.668h-2.728l-9.02-19.624V-2.112h3.256V0h-9.108ZM-242.814-26.4V-2.112h4.268V0h-13.86V-2.112h4.268V-26.4h-4.268v-2.112h13.86V-26.4Zm6.292,24.288h3.432V-26.4h-3.432v-2.112h7.876l12.54,19.624V-26.4h-3.388v-2.112h9.24V-26.4h-3.432V0h-3.256L-230.67-21.692v19.58h3.3V0h-9.152ZM-199.078-26.4V-2.112h4.268V0h-13.86V-2.112h4.268V-26.4h-4.268v-2.112h13.86V-26.4Zm25.168-7.524c.572-.484.836-.88.836-1.276a1,1,0,0,0-1.1-.88h-5.412l.836,2.948,2.728,13.024c-7.964,4.048-11.308,7.7-11.308,12.276,0,3.564,1.98,6.336,5.544,7.876,2.684,1.1,6.908,1.672,12.672,1.672a98.419,98.419,0,0,0,12.276-.7v-5.5A69.55,69.55,0,0,1-170.082-3.3c-5.676,0-9.416-.528-11.7-1.716a3.693,3.693,0,0,1-2.024-3.168c0-2.552,2.64-5.236,7.348-7.612,4.84-2.464,9.768-4.224,18-6.6a3.1,3.1,0,0,0,1.276.352.9.9,0,0,0,.88-.748,2.026,2.026,0,0,0-.264-.792l-1.98-4.356-1.892,1.364c-6.776,2.508-8.052,2.992-11.132,4.356ZM-127.4,1.1a30.47,30.47,0,0,0,10.12-2.992,16.129,16.129,0,0,0,8.624-14.652c0-5.94-2.816-11.132-7.524-13.728a23.019,23.019,0,0,0-11.044-2.64c-11.528,0-19.712,7.788-19.712,18.7,0,6.644,3.432,11.924,7.788,11.924,3.872,0,7.788-4.136,10.516-11.176a70.29,70.29,0,0,0,3.784-16.588,10.9,10.9,0,0,1,5.808,2.2,13.475,13.475,0,0,1,4.928,10.912,15.551,15.551,0,0,1-6.2,12.628A25.3,25.3,0,0,1-127.93-.836Zm-2.332-31.328c-1.188,8.844-3.036,15.972-5.324,20.724-1.452,2.948-2.64,4.268-3.828,4.268-1.8,0-3.388-4.048-3.388-8.624a17.836,17.836,0,0,1,4.224-11.88A12.538,12.538,0,0,1-129.734-30.228Zm33,17.072a37.151,37.151,0,0,1-7.744,12.1l.836,1.408A23.866,23.866,0,0,0-97.086-5.1c.484-.616.968-1.232,1.5-1.848l.088-.088V3.652h4.356V-8.624c.044.088.572.748,1.584,2.068a40.463,40.463,0,0,1,2.508,4l2.772-3.96a19.563,19.563,0,0,0-5.852-3.432,6.505,6.505,0,0,1-1.012-.4v-2.816h5.94l1.848.352V-15.62l-1.848.352h-5.94v-5.016H-84.5l1.8.352v-2.816l-1.8.352h-5.192a54,54,0,0,0,3.476-7.656h1.232l1.848.352v-2.816l-1.848.352h-6.072V-35.6c.572-.44.7-.616.7-.88q0-.66-.924-.66h-4.488v4.972h-6.16l-1.848-.352V-29.7l1.848-.352h1.232a67.8,67.8,0,0,1,1.364,7.216l.044.44h-3.344l-1.848-.352v2.816l1.848-.352H-95.5v5.016h-6.424l-1.848-.352V-12.8l1.848-.352ZM-98.45-22.4l3.564-1.8A22.987,22.987,0,0,0-98.8-30.052h8.14a65.156,65.156,0,0,1-1.1,7.656Zm17.116-12.628v5.632c0,12.144-.088,15.136-.616,19.316a22.782,22.782,0,0,1-5.412,12.54l1.056,1.32C-81.862.836-79.662-2.244-78.166-7.7c.924-3.608,1.1-5.324,1.232-12.5h4.928V3.652h4.532V-20.2h2.508l1.848.352V-22.66l-1.848.352H-76.89v-.88c.044-2.332.044-4.4.044-6.2v-2.024a51.1,51.1,0,0,0,10.824-1.276,2.829,2.829,0,0,0,.968.176c.4,0,.836-.352.836-.66a1.581,1.581,0,0,0-.4-.66l-2.992-3.3a45.339,45.339,0,0,1-9.152,3.7Zm29.3-.88.264,3.08-.352,14.564c-.044,1.54-.044,2.684-.044,3.74,0,7.26.88,10.868,3.212,13.156a14.111,14.111,0,0,0,9.68,3.476,15.945,15.945,0,0,0,13.86-7.3c1.452-2.376,2.288-4.8,3.08-8.932l-1.98-.616a21.672,21.672,0,0,1-3.564,7,14.334,14.334,0,0,1-11.22,5.412,8.025,8.025,0,0,1-6.16-2.64c-1.32-1.584-1.892-4-1.892-8.1,0-1.5,0-3.256.044-4.84l.4-15.356c.572-.528.792-.88.792-1.276,0-.616-.528-1.012-1.408-1.056ZM1.562-10.736C.374-6.6-1.078-3.872-2.134-3.872c-1.276,0-3.3-3.828-4.4-8.184C-7.326-15.312-7.81-21.34-7.81-27.632v-2.156c.792-.572,1.056-.924,1.056-1.32,0-.528-.528-.924-1.276-.968l-4.884-.264.22,3.124c.044,6.16.132,8.932.4,12.1.484,5.588,1.5,9.46,3.344,13.068,1.672,3.212,3.916,5.06,6.072,5.06,2.816,0,5.192-3.828,6.776-11.044Zm22.616,1.5c-1.452-8.888-5.94-16.852-11.748-21.076L10.89-29.26c3.828,5.72,6.2,12.452,7.876,22.264ZM45.562-1.188H34.3V-12.8c.572-.44.7-.616.7-.924,0-.44-.308-.616-.924-.616H29.414V3.388H34.3V.924H62.106V3.08h4.928V-12.8c.572-.4.7-.616.7-.924,0-.4-.308-.616-.924-.616H62.106V-1.188H50.446V-18.216H65.054V-31.9c.616-.44.748-.616.748-.924,0-.4-.308-.616-.968-.616H60.17v13.112H50.446V-35.6c.572-.44.7-.616.7-.924,0-.4-.308-.616-.924-.616H45.562v16.808H36.234V-31.9c.572-.44.7-.616.7-.924,0-.4-.308-.616-.924-.616H31.35v15.224H45.562ZM84.59-2.42a52.38,52.38,0,0,0,6.82-8.8l.088-.132H109.89l1.848.352v-2.816l-1.848.352H74.514l-1.848-.352V-11l1.848-.352h10.78a69.469,69.469,0,0,1-3.608,8.844l-.044.132a13.812,13.812,0,0,0-1.672-.176c-.7,0-1.76.044-3.74.132a8.478,8.478,0,0,1-1.056.044,6.937,6.937,0,0,1-.836-.044L75.57,2.288c.22.7.484,1.012.924,1.012.4,0,.748-.308,1.144-1.012C89.122,1.408,97.35.352,102.146-.836L103.2-1.1c1.188,1.716,1.848,2.772,3.036,4.84L111.606.352A41.01,41.01,0,0,0,98.538-9.416L97-8.14a47.622,47.622,0,0,1,4.708,5.06c-5.1.44-7.7.528-14.432.616Zm9.416-32.736c.748-.308,1.056-.572,1.056-1.012,0-.352-.308-.616-.88-.66L88.99-37.4C84.854-30.184,79.4-24.42,71.522-18.964l.88,1.716a45.973,45.973,0,0,0,9.24-5.016v2.508l1.848-.352h17.2l1.848.352v-2.6a31.82,31.82,0,0,0,7.876,4.312,58.455,58.455,0,0,1,2.464-5.456c-8.008-2.6-14.168-6.336-18.964-11.528Zm6.688,12.936H83.49l-1.5-.308a48.756,48.756,0,0,0,10.692-10.78,41.546,41.546,0,0,0,9.636,10.78Zm32.868,11.484c-1.188,4.136-2.64,6.864-3.7,6.864-1.276,0-3.3-3.828-4.4-8.184-.792-3.256-1.276-9.284-1.276-15.576v-2.156c.792-.572,1.056-.924,1.056-1.32,0-.528-.528-.924-1.276-.968l-4.884-.264.22,3.124c.044,6.16.132,8.932.4,12.1.484,5.588,1.5,9.46,3.344,13.068,1.672,3.212,3.916,5.06,6.072,5.06,2.816,0,5.192-3.828,6.776-11.044Zm22.616,1.5c-1.452-8.888-5.94-16.852-11.748-21.076l-1.54,1.056c3.828,5.72,6.2,12.452,7.876,22.264Zm4.8-15.224.792,2.992c.132.616.44.924.792.924.4,0,.616-.22.968-.88a54,54,0,0,1,5.852-1.452l.132-.044A89.143,89.143,0,0,1,161.15-1.54L165.11.792c3.7-6.072,7.04-14.74,9.372-24.508a41.958,41.958,0,0,1,4.884-.44c2.244,0,3.036,1.1,3.036,4.092a49.373,49.373,0,0,1-2.156,15.092c-.748,2.42-1.716,3.608-2.772,3.608-1.188,0-2.464-.7-4.84-2.6l-1.276,2.288a19.837,19.837,0,0,0,2.068,1.76c2.376,1.672,3.828,2.288,5.456,2.288,2.288,0,4-1.32,5.368-4.18,1.716-3.608,2.9-10.164,2.9-15.8,0-3.3-.484-5.456-1.452-6.732-1.144-1.54-3.256-2.288-6.38-2.288-1.364,0-2.64.044-4.224.176.572-2.552.836-4.048,1.408-7.084.66-.308.924-.572.924-.968s-.4-.748-1.012-.836l-4.532-.968-.088,1.54c-.572,3.96-1.012,6.468-1.584,8.888-3.344.44-4,.572-8.316,1.364ZM188.43-27.9c3.3,4.972,5.28,10.6,7,19.976l5.148-2.244c-1.76-8.536-5.9-15.752-10.78-18.7Zm22,29.876a164.88,164.88,0,0,0,8.844-28.468l.088-.4,2.948-.132a72.957,72.957,0,0,0,11.308-1.012l.132-3.476-3.256,1.32a62.661,62.661,0,0,1-7.832.7c-.4,0-1.54.088-2.772.132l.836-4.092c.616-.44.88-.836.88-1.276a1.066,1.066,0,0,0-.88-.924l-4.884-.836-.132,3.036-.88,4.268c-2.64.088-2.9.088-3.388.088-.748,0-1.76-.044-3.168-.088l-3.08-.924.308,3.432c1.012.044,1.8.044,2.332.044.22,0,2.376-.044,6.512-.088A135.509,135.509,0,0,1,205.414.44Zm30.8-25.08a33.67,33.67,0,0,0-4.928-.352,23.258,23.258,0,0,0-12.32,3.168l.528,1.76a42.7,42.7,0,0,1,7.744-.616,32.947,32.947,0,0,1,8.976,1.056ZM222.97-12.276a12.134,12.134,0,0,0-1.628,5.94c0,5.632,4.136,7.964,14.036,7.964a45.272,45.272,0,0,0,7.48-.528V-4.312A33.433,33.433,0,0,1,234.1-3.256c-6.6,0-9.944-1.54-9.944-4.576a13.235,13.235,0,0,1,.7-3.916Zm31.9,2.068a7.1,7.1,0,0,0-7.216,7.04,7.089,7.089,0,0,0,7.084,7.128,7.089,7.089,0,0,0,7.128-7.084A7.119,7.119,0,0,0,254.87-10.208Zm-.176,2.376a4.724,4.724,0,0,1,4.8,4.664,4.723,4.723,0,0,1-4.708,4.752,4.723,4.723,0,0,1-4.752-4.708A4.733,4.733,0,0,1,254.694-7.832Z" transform="translate(300.19 53)" fill="#fff"/>
  </g>
</svg>
