<svg xmlns="http://www.w3.org/2000/svg" xmlns:xlink="http://www.w3.org/1999/xlink" width="405.39" height="106.54" viewBox="0 0 405.39 106.54">
  <defs>
    <filter id="パス_57303" x="0" y="39.45" width="405.39" height="32.1" filterUnits="userSpaceOnUse">
      <feOffset dy="3" input="SourceAlpha"/>
      <feGaussianBlur stdDeviation="3" result="blur"/>
      <feFlood flood-opacity="0.161"/>
      <feComposite operator="in" in2="blur"/>
      <feComposite in="SourceGraphic"/>
    </filter>
  </defs>
  <g id="old-tit-sp" transform="translate(-88 -46.8)">
    <path id="パス_57304" data-name="パス 57304" d="M-143.465-1.44h2.34V-18h-2.34v-1.44h5.79l6.27,13.71,5.85-13.71h5.79V-18h-2.34V-1.44h2.34V0h-8.22V-1.44h2.25V-14.85l-5.73,13.41h-1.86l-6.15-13.38V-1.44h2.22V0h-6.21ZM-111.845-18V-1.44h2.91V0h-9.45V-1.44h2.91V-18h-2.91v-1.44h9.45V-18Zm4.29,16.56h2.34V-18h-2.34v-1.44h5.37l8.55,13.38V-18h-2.31v-1.44h6.3V-18h-2.34V0H-94.2l-9.36-14.79V-1.44h2.25V0h-6.24ZM-82.025-18V-1.44h2.91V0h-9.45V-1.44h2.91V-18h-2.91v-1.44h9.45V-18Zm11.79,16.56h2.34V-18h-2.34v-1.44h5.37l8.55,13.38V-18h-2.31v-1.44h6.3V-18h-2.34V0h-2.22l-9.36-14.79V-1.44h2.25V0h-6.24Zm34.47-4.02V0h-15.48V-1.44h2.34V-18h-2.34v-1.44H-36v5.46h-2.1L-39.635-18h-5.64v6.99h3.12v-2.34h1.8v6.18h-1.8V-9.51h-3.12v8.07h5.91l1.5-4.02Zm19.89,4.02V0h-5.64l-4.44-7.77-3.99,6.33h2.22V0h-6.63V-1.44h2.31l5.16-7.98L-31.775-18h-2.34v-1.44h5.67l3.87,6.84,3.54-5.4h-2.4v-1.44h6.66V-18h-2.28l-4.56,7.05,5.4,9.51Zm4.35,0h2.85V-18h-2.7l-1.5,4.02h-1.95v-5.46H1.1v5.46H-.845L-2.375-18h-2.67V-1.44H-2.2V0h-9.33Zm12.81-.24A1.939,1.939,0,0,1,1.87-3.105,1.939,1.939,0,0,1,3.3-3.69a1.939,1.939,0,0,1,1.425.585A1.939,1.939,0,0,1,5.305-1.68,1.939,1.939,0,0,1,4.72-.255,1.939,1.939,0,0,1,3.3.33,1.939,1.939,0,0,1,1.87-.255,1.939,1.939,0,0,1,1.285-1.68Zm30.29-17.69H35.6c-.208,3.744-.442,6.6-.65,7.7-.156.91-.39,1.17-1.144,1.17H32.1v1.352h2.886c1.638-.052,2.262-.52,2.522-1.924a82.682,82.682,0,0,0,.754-9.542H25.751l-1.092-.208v1.664l1.092-.208h3.328a23.63,23.63,0,0,1-.364,2.808c-1.092-.338-1.716-.494-3.042-.832l-.494.936c1.326.65,1.976.988,3.12,1.664a9.35,9.35,0,0,1-4.212,5.382l.468.832A9.552,9.552,0,0,0,30.3-13.494c.78.546,1.274.884,2.392,1.768l1.56-2.418a23.805,23.805,0,0,0-3.224-1.56,27.013,27.013,0,0,0,.546-3.536ZM18.211.494h2.7v.988h2.21V-6.4H16v8.19h2.21Zm0-1.248V-5.148h2.7V-.754Zm9.776-6.37V-.338c-.026,1.378.6,1.976,2,1.976h3.042c1.43,0,2.028-.572,2.106-2.028l.156-2.73-1.222-.13-.13,1.9c-.052.572-.208.7-.754.728h-2.08c-.546,0-.728-.208-.754-.754v-4.94c.286-.234.364-.312.364-.468,0-.234-.182-.338-.52-.338ZM22.033-20.956h-4.94L16-21.164V-19.4l1.092-.208h4.94l1.092.208v-1.768Zm.936,3.64H16.027l-1.092-.208v1.768l1.092-.208h6.942l1.092.208v-1.768Zm-.936,3.64h-4.94L16-13.884v1.768l1.092-.208h4.94l1.092.208v-1.768Zm0,3.64h-4.94L16-10.244v1.768l1.092-.208h4.94l1.092.208v-1.768Zm3.224,3.718a15.211,15.211,0,0,1-1.846,5.9l2.262,1.56a16.19,16.19,0,0,0,.91-5.9c0-.442,0-.754-.052-1.4Zm5.1-2.028a24.616,24.616,0,0,1,2.236,3.588l2.106-1.924a11.477,11.477,0,0,0-3.718-2.392ZM35.033-5.9A34.994,34.994,0,0,1,36.983.312L39.375-1.4a15.178,15.178,0,0,0-3.432-5.044ZM54.819-12.74h7.306l1.066.208V-14.2l-1.066.208H44.367l-.884-.182a5.765,5.765,0,0,0,1.3-3.666H61.631a22.528,22.528,0,0,1-1.326,3.094l.832.52a10.336,10.336,0,0,0,4.238-4.862H54.585V-21.19c.364-.234.442-.364.442-.546,0-.26-.182-.364-.572-.364h-2.99v3.016H44.783a4.757,4.757,0,0,0-.13-1.118H43.4a6.913,6.913,0,0,1-2.47,4.16l2.132,2.366a2.126,2.126,0,0,1,.208-.234v1.378l1.092-.208h7.592V-1.768a7.642,7.642,0,0,1-4.6-3.64,21.109,21.109,0,0,0,.91-3.562c.468-.26.676-.468.676-.728s-.182-.416-.65-.494l-2.938-.52c-.39,5.278-1.846,9.308-4.42,12.22l.676.806c2.236-1.2,3.9-3.25,5.33-6.578C48.631-.676,50.451.7,54.169,1.274a82.632,82.632,0,0,0,10.14.338A13.781,13.781,0,0,1,65.375-1.2c-3.25.026-3.718.026-4.888.026-2.678,0-4.654-.052-5.668-.156V-6.708h6.266l1.092.208V-8.164l-1.092.208H54.819Zm25.74-4.29v-4c.338-.234.416-.364.416-.546,0-.26-.182-.364-.546-.364h-2.86v4.914H68.157V-4.16h2.99V-5.928h6.422V2.158h2.99V-5.928h6.6v1.534h2.99V-17.03Zm0,1.248h6.6v8.606h-6.6Zm-2.99,8.606H71.147v-8.606h6.422Zm25.87-2.5H96.263V2h2.99V.65h11.908V1.924h2.99v-11.6h-7.618v-5.694h9.75l1.092.208v-1.768l-1.092.208h-9.75v-4.368c.338-.234.416-.364.416-.546,0-.234-.182-.364-.546-.364h-2.964v5.278H94.027l-1.092-.208v1.768l1.092-.208h9.412ZM99.253-.7V-8.32h11.908V-.7Zm33.1-5.07h8.242v-10.14h-8.242v-2.236H141.4l1.092.208V-19.6L141.4-19.4h-9.048V-21.19c.338-.26.416-.364.416-.546,0-.26-.182-.364-.546-.364H129.6v2.7h-8.684l-1.092-.208v1.664l1.092-.208H129.6v2.236h-7.878v10.14H129.6v2.366h-9.568l-1.092-.208V-1.95l1.092-.208H129.6v4.5h2.756v-4.5h9.932l1.092.208V-3.614l-1.092.208h-9.932Zm0-4.55h5.486v3.3h-5.486Zm-2.756,0v3.3h-5.122v-3.3Zm2.756-4.342h5.486v3.094h-5.486Zm-2.756,0v3.094h-5.122v-3.094Z" transform="translate(290.465 151)" fill="#fff"/>
    <g transform="matrix(1, 0, 0, 1, 88, 46.8)" filter="url(#パス_57303)">
      <path id="パス_57303-2" data-name="パス 57303" d="M-184.62.93a10.473,10.473,0,0,1,.42-1.515c-2.61.075-3.96.105-6,.105-3,0-3.975-.21-4.77-1v-5.5h-2.61l-.63-.12v.96l.63-.12h1.125v4.92a14.222,14.222,0,0,1-1.845.63l.57,1.695a.309.309,0,0,0,.255.2c.165,0,.27-.165.36-.5a14.588,14.588,0,0,0,1.7-1.515c1.08,1.32,1.98,1.65,4.6,1.74,1.485.015,2.685.015,3.645.03Zm-6.18-7.05v-.42c.2-.15.24-.21.24-.315,0-.15-.1-.21-.315-.21h-1.275v.945h-1.215l-.63-.12v.96l.63-.12h1.215v1.47H-193.9l-.615-.12v.96l.615-.12h8.685l.63.12v-.96l-.63.12H-187.1V-5.4h1.32l.63.12v-.96l-.63.12h-1.32v-.42c.2-.15.24-.21.24-.315,0-.135-.105-.21-.315-.21h-1.275v.945Zm0,.72h2.355v1.47H-190.8Zm1.215-3.84-.645-.105-.135.54c-.06.27-.135.33-.4.33h-1.515c-.375-.015-.465-.09-.465-.39v-.81h2.79V-12.09h-3.51l-.63-.12v.915l.63-.135h2.28v1.1h-2.79V-8.43c.015.735.39,1.05,1.215,1.035h1.89c.72,0,1.02-.24,1.14-.975Zm5.205,0-.645-.105-.105.525c-.06.27-.135.345-.4.345h-1.935c-.375-.015-.465-.09-.465-.39v-.81h2.955V-12.09h-3.72l-.615-.12v.915l.615-.135h2.49v1.1H-189.2V-8.43c.015.735.39,1.05,1.215,1.035h2.34c.72,0,1.02-.255,1.14-.99Zm-10.035-2.01a6.8,6.8,0,0,0-3.03-1.065l-.285.525a9.8,9.8,0,0,1,2.22,2.235Zm.4,10.335a10.777,10.777,0,0,0,3.225-.87.861.861,0,0,0,.18.015c.24,0,.435-.12.435-.255a.306.306,0,0,0-.15-.24L-191.4-3a10.912,10.912,0,0,1-2.79,1.62Zm5.22-1.395a21.765,21.765,0,0,1,3.135,1.545l1.005-1.185a16.354,16.354,0,0,0-3.75-.885Zm10.365-8.595-2.775.06-1.185-.375.15,1.26,3.12-.075c-.18.21-.42.555-.66.885a8.994,8.994,0,0,0-1.86,5.3,5.389,5.389,0,0,0,1.2,3.57,4.55,4.55,0,0,0,3.4,1.32,4.86,4.86,0,0,0,4.02-1.86,6.739,6.739,0,0,0,1.035-3.825,19.42,19.42,0,0,0-.75-4.65l.1-.03a15.413,15.413,0,0,0,2.775,5.3l.93-2.07a13.848,13.848,0,0,1-3.78-5.16l-1.185.315a29.362,29.362,0,0,1,.48,5.19,9.159,9.159,0,0,1-.75,4.1,3.249,3.249,0,0,1-2.9,1.785c-1.785,0-2.88-1.395-2.88-3.675a7.9,7.9,0,0,1,1.215-4.17,10.852,10.852,0,0,1,1.77-2.295c.495-.09.645-.18.645-.405a.334.334,0,0,0-.195-.3l-1.425-.855Zm9.825-.225a3.1,3.1,0,0,0-1.815-1.62l-.345.285a6.1,6.1,0,0,1,1.02,1.965Zm-3.81-1.155a5.454,5.454,0,0,1,.825,2.025l1.125-.495a3.137,3.137,0,0,0-1.56-1.77Zm13.755,4.98c.18-.975.255-1.515.345-2.16h4.485l.63.12v-.96l-.63.12h-4.41c.09-.87.135-1.275.165-1.845.2-.135.27-.225.27-.36a.266.266,0,0,0-.3-.255l-1.635-.015c-.015,1.035-.045,1.62-.12,2.475h-1.47l-.615-.12v.96l.615-.12h1.41l-.015.045a17.51,17.51,0,0,1-3.285,9.285l.375.45a11.346,11.346,0,0,0,3.87-6.225l.015-.045A9.415,9.415,0,0,0-157.68-1.95,8.484,8.484,0,0,1-161.01.8l.285.555a8.688,8.688,0,0,0,3.84-2.235,8.45,8.45,0,0,0,3.075,2.2c.345-.765.4-.885.81-1.665a9.635,9.635,0,0,1-2.925-1.7,13.749,13.749,0,0,0,2.01-5.265Zm2.925.72a12.163,12.163,0,0,1-1.215,3.5,7.6,7.6,0,0,1-1.56-3.5Zm-9.39,1.305c-.495.15-1,.27-1.98.495l.315,1.44c.03.15.135.27.24.27.135,0,.225-.12.345-.4.42-.165.45-.165,1.08-.435v3.81c-.015.39-.135.51-.525.525h-1.005V1.2h1.845c.84,0,1.2-.36,1.2-1.2V-4.635A21.944,21.944,0,0,0-161.73-5.79l-.21-.555c-.93.345-1.29.48-1.665.6v-3.12h.7l.63.12V-9.7l-.63.12h-.7v-2.55c.18-.15.24-.21.24-.315,0-.135-.1-.21-.33-.21h-1.425v3.075h-1.26L-167-9.7v.96l.615-.12h1.26ZM-151-8.34l.27,1.02c.045.21.15.315.27.315s.21-.075.33-.3A18.41,18.41,0,0,1-148.14-7.8l.045-.015a30.39,30.39,0,0,1-2.85,7.29l1.35.795a30.11,30.11,0,0,0,3.2-8.355,14.3,14.3,0,0,1,1.665-.15c.765,0,1.035.375,1.035,1.4a16.832,16.832,0,0,1-.735,5.145c-.255.825-.585,1.23-.945,1.23-.4,0-.84-.24-1.65-.885l-.435.78a6.763,6.763,0,0,0,.705.6,3.169,3.169,0,0,0,1.86.78c.78,0,1.365-.45,1.83-1.425A14.318,14.318,0,0,0-142.08-6a3.873,3.873,0,0,0-.495-2.3,2.551,2.551,0,0,0-2.175-.78c-.465,0-.9.015-1.44.06.2-.87.285-1.38.48-2.415.225-.1.315-.195.315-.33s-.135-.255-.345-.285l-1.545-.33-.03.525c-.195,1.35-.345,2.2-.54,3.03-1.14.15-1.365.195-2.835.465Zm9.36-1.17A17.17,17.17,0,0,1-139.26-2.7l1.755-.765c-.6-2.91-2.01-5.37-3.675-6.375Zm8.955.87c-.015.345-.03.63-.03.87l-.015.48c-1.08,1.65-2.04,3.075-2.955,4.395l.93,1.23c.78-1.2,1.11-1.68,1.725-2.535l.21-.285c-.03,1.35-.03,1.41-.03,1.965,0,.99,0,1.65.03,3.315l1.59-.12c-.075-1.95-.105-2.85-.105-4.32,0-.8,0-1.14.03-2.2l.015-.525c1.98-1.815,3.51-2.73,4.545-2.73.33,0,.5.27.5.825,0,.015,0,.195-.015.33l-.255,5.58v.435A3.019,3.019,0,0,0-126.24-.48a1.6,1.6,0,0,0,1.455.8c.855,0,1.485-.45,2.085-1.515a8.378,8.378,0,0,0,.9-2.415l-.72-.21c-.555,1.845-1.185,2.835-1.815,2.835a.5.5,0,0,1-.435-.39,3.735,3.735,0,0,1-.105-.87l.255-5.79c.015-.36.03-.615.03-.66a1.43,1.43,0,0,0-1.59-1.44A6.476,6.476,0,0,0-129.93-8.6a14.578,14.578,0,0,0-1.32,1.1v-.045l.045-.975v-.045l.015-.015c.465-.285.63-.465.63-.69,0-.18-.09-.27-.4-.4l-.165-.06c.03-.495.1-1.215.165-1.725.255-.165.345-.27.345-.435s-.15-.27-.36-.3l-1.6-.165.03,1.11-.09,1.785h-.1c-.5.06-.9.09-1.845.135l-.81-.255.1,1.11a20.7,20.7,0,0,0,2.445-.15ZM-117.945.675a56.209,56.209,0,0,0,3.015-9.7l.03-.135,1.005-.045a24.872,24.872,0,0,0,3.855-.345L-110-10.74l-1.11.45a21.362,21.362,0,0,1-2.67.24c-.135,0-.525.03-.945.045l.285-1.395c.21-.15.3-.285.3-.435a.364.364,0,0,0-.3-.315l-1.665-.285-.045,1.035-.3,1.455c-.9.03-.99.03-1.155.03-.255,0-.6-.015-1.08-.03l-1.05-.315.105,1.17c.345.015.615.015.795.015.075,0,.81-.015,2.22-.03A46.2,46.2,0,0,1-119.655.15Zm10.5-8.55a11.478,11.478,0,0,0-1.68-.12,7.929,7.929,0,0,0-4.2,1.08l.18.6a14.555,14.555,0,0,1,2.64-.21,11.232,11.232,0,0,1,3.06.36Zm-6.225,3.69a4.137,4.137,0,0,0-.555,2.025c0,1.92,1.41,2.715,4.785,2.715a15.434,15.434,0,0,0,2.55-.18V-1.47a11.4,11.4,0,0,1-2.985.36c-2.25,0-3.39-.525-3.39-1.56A4.512,4.512,0,0,1-113.025-4ZM-98.43,1.05V-5.235h-5.67v6.39h1.515V.345h2.64v.7Zm-4.155-1.425v-4.14h2.64v4.14Zm11.4,1.425V-5.235H-97.05v6.39h1.515V.345H-92.7v.7ZM-92.7-.375h-2.835v-4.14H-92.7Zm-9.57-6.39h9.12V-12.09h-9.12Zm7.455-.72h-5.79V-11.37h5.79ZM-78.33-9.51v2.3h1.425v-2.3h1.275l.63.12v-.96l-.63.12h-4.53c.015-.2.03-.39.03-.66v-.48a25.292,25.292,0,0,0,3.675-.21,2.748,2.748,0,0,0,.315.03c.15,0,.255-.075.255-.2a.231.231,0,0,0-.09-.165l-.9-.84a23.974,23.974,0,0,1-3.27.72l-1.395-.435v1.545c-.03,1.995-.315,2.925-1.11,3.57l.33.42a3.276,3.276,0,0,0,2.085-2.58Zm-6.72,0v2.3h1.425v-2.3h.99l.63.12v-.96l-.63.12H-86.49c.015-.24.015-.435.015-.735v-.375a28.614,28.614,0,0,0,3.39-.24,1.877,1.877,0,0,0,.33.03c.15,0,.285-.075.285-.165a.332.332,0,0,0-.12-.18l-.93-.855a17.824,17.824,0,0,1-2.94.735l-1.44-.45v1.5c-.03,2.16-.345,3.255-1.2,4.155l.36.42a4.088,4.088,0,0,0,2.175-3.12Zm8.205,2.7h-10.41v6h10.41Zm-8.865.72h7.32v.99h-7.32Zm7.32,1.71v1.005h-7.32V-4.38Zm0,1.725V-1.53h-7.32V-2.655ZM-80.9.105a28.843,28.843,0,0,1,4.35,1.245L-75.36.225A16.983,16.983,0,0,0-80.625-.45Zm-8.07,1.245a21.034,21.034,0,0,0,5.25-.975,1.946,1.946,0,0,0,.39.045c.18,0,.345-.105.345-.225,0-.075-.09-.18-.195-.24l-1.395-.63A20,20,0,0,1-89.1.84Zm21.8-12.915c.195-.165.285-.3.285-.435a.342.342,0,0,0-.375-.3H-69.1l.285,1.005.93,4.44C-70.6-5.475-71.745-4.23-71.745-2.67A2.843,2.843,0,0,0-69.855.015a12.17,12.17,0,0,0,4.32.57A33.552,33.552,0,0,0-61.35.345V-1.53a23.71,23.71,0,0,1-4.515.4,9.267,9.267,0,0,1-3.99-.585,1.259,1.259,0,0,1-.69-1.08c0-.87.9-1.785,2.505-2.595A33,33,0,0,1-61.9-7.635a1.056,1.056,0,0,0,.435.12.308.308,0,0,0,.3-.255.691.691,0,0,0-.09-.27l-.675-1.485-.645.465c-2.31.855-2.745,1.02-3.8,1.485ZM-44.775-6.06l.63.12V-6.9l-.63.12h-7.17c.24-.5.435-.975.81-1.935.345-.09.495-.225.495-.405,0-.15-.135-.27-.345-.3l-1.65-.285A27.642,27.642,0,0,1-53.76-6.78h-3.165l-.615-.12v.96l.615-.12h2.82a28.736,28.736,0,0,1-2.235,3.8l1.575.51c.405-.585.6-.9.81-1.245A24.644,24.644,0,0,1-50.88-1.725C-52.26-.6-54.48.18-57.585.63l.09.615c3.72-.21,6.375-.945,8.01-2.235A34.671,34.671,0,0,1-45.9,1.35l1.41-1.47a26.126,26.126,0,0,0-3.885-1.95A9.592,9.592,0,0,0-46.5-6.06Zm-8.79,2.43c.585-1.05.855-1.56,1.29-2.43h3.945l-.015.045a8.055,8.055,0,0,1-1.6,3.36,23.02,23.02,0,0,0-3.42-.93Zm1.74-7.335h-3.78a5.771,5.771,0,0,0-.12-.765h-.75A5.213,5.213,0,0,1-57.9-8.865l1.35,1.41a4.866,4.866,0,0,0,.96-2.79h9.735a17.613,17.613,0,0,1-.75,2.175l.57.315a6.871,6.871,0,0,0,2.235-3.21h-6.225v-1.2c.18-.15.24-.21.24-.315,0-.135-.1-.21-.33-.21h-1.71Zm13.605,1.62V-1.02c.015.75.1,1.035.435,1.365s.6.42,1.35.435h3.2c1.2,0,1.71-.525,1.755-1.8l.135-2.16-.825-.075-.1,1.62c-.03.54-.285.75-.87.75h-2.61a.614.614,0,0,1-.72-.72V-8.82c.195-.15.24-.21.24-.315,0-.15-.1-.21-.315-.21Zm-2.31,8.52a11.954,11.954,0,0,0,.84-4.785c0-.645-.03-1.125-.09-1.92l-.915-.12a13.133,13.133,0,0,1-1.6,5.625Zm3.33-11.16a14.5,14.5,0,0,1,3.09,3l1.44-1.7a9.235,9.235,0,0,0-4.11-1.83Zm5.235,4.17a27.625,27.625,0,0,1,1.875,6.15l1.89-1.26a15.27,15.27,0,0,0-3.06-5.19Zm12.45,8.19a10.388,10.388,0,0,0,3.45-1.02,5.5,5.5,0,0,0,2.94-4.995,5.218,5.218,0,0,0-2.565-4.68,7.847,7.847,0,0,0-3.765-.9c-3.93,0-6.72,2.655-6.72,6.375C-26.175-2.58-25-.78-23.52-.78c1.32,0,2.655-1.41,3.585-3.81a23.962,23.962,0,0,0,1.29-5.655,3.716,3.716,0,0,1,1.98.75,4.594,4.594,0,0,1,1.68,3.72A5.3,5.3,0,0,1-17.1-1.47,8.626,8.626,0,0,1-19.695-.285Zm-.8-10.68A24.69,24.69,0,0,1-22.125-3.24c-.5,1-.9,1.455-1.305,1.455-.615,0-1.155-1.38-1.155-2.94a6.081,6.081,0,0,1,1.44-4.05A4.274,4.274,0,0,1-20.31-10.3ZM2.2-4.95l.645.12v-.96L2.2-5.67H-1.29V-7.35H1.845v-4.695H-5.73V-7.35h2.925v1.68H-6.18L-6.8-5.79v.96l.615-.12h2.91A14.153,14.153,0,0,1-7.26-.225l.33.6a11.014,11.014,0,0,0,4.125-3.18v4.05H-1.29V-4.23A8.2,8.2,0,0,0,2.1.225,13.214,13.214,0,0,1,3-1.485,9.215,9.215,0,0,1-1.11-4.95Zm-6.39-3.12v-3.255H.255V-8.07Zm-4.95,9.315H-7.62V-8.985a22.982,22.982,0,0,0,.96-2.565c.27-.06.39-.165.39-.345,0-.135-.09-.225-.27-.285l-1.65-.57A31.874,31.874,0,0,1-11.1-4.53l.465.375a18.733,18.733,0,0,0,1.5-1.995ZM10.905-.12H10.38L9.765-.24V.72L10.38.6h7.605L18.6.72V-.24l-.615.12H15.42V-5.745h1.89l.63.12v-.96l-.63.12H15.42v-4.65h2.25l.615.12v-.96l-.615.12H10.86l-.63-.12v.96l.63-.12h3.015V-.12H12.42V-7.47c.195-.15.24-.21.24-.315,0-.135-.105-.21-.315-.21h-1.44ZM6.39.285H7.98v.6H9.27V-3.69H5.1V1.035H6.39Zm0-.72V-2.97H7.98V-.435ZM8.655-12.09H5.73l-.63-.12v1.02l.63-.12H8.655l.63.12v-1.02Zm.6,2.1H5.13l-.63-.12v1.02l.63-.12H9.255l.63.12v-1.02Zm-.6,2.1H5.73L5.1-8.01v1.02l.63-.12H8.655l.63.12V-8.01Zm0,2.1H5.73L5.1-5.91v1.02l.63-.12H8.655l.63.12V-5.91ZM22.6-3.48a2.42,2.42,0,0,0-2.46,2.4A2.417,2.417,0,0,0,22.56,1.35a2.417,2.417,0,0,0,2.43-2.415A2.427,2.427,0,0,0,22.6-3.48Zm-.06.81A1.61,1.61,0,0,1,24.18-1.08a1.61,1.61,0,0,1-1.6,1.62,1.61,1.61,0,0,1-1.62-1.605A1.614,1.614,0,0,1,22.545-2.67ZM43.62-8.6V-12.03c.195-.15.24-.21.24-.315,0-.15-.105-.21-.33-.21H42V-8.6H39.585v-3.24c.195-.15.24-.21.24-.315,0-.135-.1-.21-.315-.21H37.875V-8.6H36.33l-.63-.12v.96l.63-.12h1.545v9.12h1.71V.285h9l.63.12v-.96l-.63.12h-9v-7.44H42V-3.24h5.61V-7.875h1.56l.63.12v-.96l-.63.12H47.61v-3.24c.195-.15.24-.21.24-.315,0-.135-.1-.21-.315-.21H45.99V-8.6Zm0,.72h2.37V-3.96H43.62ZM59.94-3.69V1.245h1.59v-4.41c.165-.135.24-.21.24-.3l-.015-.06A14.613,14.613,0,0,0,64.71-2.46a7.2,7.2,0,0,1,.69-1.68,15.165,15.165,0,0,1-6.285-2.235H63.9v-5.79H52.815v5.79h4.02A17.736,17.736,0,0,1,51.3-3l.21.555a16.1,16.1,0,0,0,3.66-1.23v.615C55.14-.99,54.165.045,51.48.825l.195.525a10.425,10.425,0,0,0,3.15-.87,3.534,3.534,0,0,0,1.965-3.3v-.42c.2-.15.24-.21.24-.315,0-.135-.12-.21-.33-.21H55.32a12.162,12.162,0,0,0,3.195-2.25,9.507,9.507,0,0,0,2.91,2.325Zm2.37-3.4H59.04v-1.86h3.27Zm0-2.58H59.04v-1.77h3.27Zm-4.8,2.58h-3.1v-1.86h3.1Zm0-2.58h-3.1v-1.77h3.1Zm22.02-.855a14.454,14.454,0,0,0-2.025-.135,8.063,8.063,0,0,0-4.695,1.3l.15.63a16,16,0,0,1,3.555-.39,12.166,12.166,0,0,1,3.015.345ZM68.88-11.895l.015.885a58.232,58.232,0,0,0-.39,6.33,30.637,30.637,0,0,0,.36,5.205l1.68-.27a29.154,29.154,0,0,1-.42-5.175,50.4,50.4,0,0,1,.42-6.03c.24-.165.33-.27.33-.4,0-.165-.15-.27-.405-.315ZM72.81-5.61a4.014,4.014,0,0,0-.525,2,3.014,3.014,0,0,0,1.125,2.46,6.927,6.927,0,0,0,3.795.81,17.886,17.886,0,0,0,2.85-.225V-2.385a13.906,13.906,0,0,1-3.36.375c-2.415,0-3.45-.675-3.45-2.25a4.587,4.587,0,0,1,.165-1.2ZM83.475-8.67A8.728,8.728,0,0,0,85.47-9.72V.27h1.665V-11.67h-.84A9.711,9.711,0,0,1,83.475-9.8Zm18.27,1.2c.57.855.675,1,1.08,1.7l1.755-1.2a16.072,16.072,0,0,0-4.8-4.035l-.615.48a23.923,23.923,0,0,1,2.04,2.34l-.3.015c-1.41.06-3.825.12-5.835.15l-.585.015a21.4,21.4,0,0,0,2.9-3.525c.39-.105.555-.225.555-.42a.317.317,0,0,0-.255-.3l-1.98-.5a35.673,35.673,0,0,1-2.265,4.755h-.69l-.69.015-1.305.015L91.2-6.36c.075.27.165.39.33.39s.27-.1.39-.375a90.739,90.739,0,0,0,9.39-1.035Zm-7.59,7.9h6.975V1.17h1.725V-5.145H92.43V1.23h1.725Zm0-.78v-4.02h6.975v4.02Zm19.44-1.71h1.59v-2.49c1.38-.405,2.085-.57,3.885-.945a1.719,1.719,0,0,0,.42.075.324.324,0,0,0,.345-.315c0-.09-.045-.165-.15-.345L119-7.155l-.705.33c-1.83.555-2.46.75-3.135.99a2.352,2.352,0,0,0-.1-.675,1.829,1.829,0,0,0-1.98-1.23,5.016,5.016,0,0,0-2.445.645c.51-.765.87-1.35,1.47-2.37l.675-.015c1.575,0,3.15-.075,5-.225l.135-1.335-1.155.51c-1.725.15-2.565.2-4.17.225l.615-1.11c.42-.195.48-.255.48-.4s-.12-.24-.375-.315l-1.41-.45-.255.735c-.42.855-.66,1.32-.795,1.545-.825,0-1.38-.015-2.58-.075l-.975-.42.06,1.245c1.425.075,1.62.075,2.565.09h.45a36.513,36.513,0,0,1-3.42,4.815l1.185.975c.63-.84.735-.96,1.38-1.8a9.873,9.873,0,0,1,1.23-.9,3.951,3.951,0,0,1,1.875-.525c.735,0,.93.33.975,1.65-2.9,1.14-4.125,2.205-4.125,3.57a2.069,2.069,0,0,0,1.35,1.935A9.754,9.754,0,0,0,114.66.78,27.873,27.873,0,0,0,118.08.6V-1.08a23.928,23.928,0,0,1-3.675.315c-2.5,0-3.645-.36-3.645-1.17,0-.735.885-1.395,2.835-2.1Zm14.985-7.47a44.862,44.862,0,0,0,5.64-.345l.12-1.305-1.08.48a31.6,31.6,0,0,1-4.56.33h-.045c.03-.285.075-.57.18-1.365.21-.135.285-.225.285-.315,0-.15-.2-.3-.42-.315l-1.365-.135c-.03.48-.03.495-.12,1.29-.03.375-.06.615-.075.87h-.225a18.48,18.48,0,0,1-2.67-.15l-1.095-.42.075,1.2a24.369,24.369,0,0,0,3.165.225c.27,0,.4,0,.69-.015l-.015.045-.03.6c-.015.12-.045.645-.075,1.2a6.172,6.172,0,0,0-2.79,1.425,4.359,4.359,0,0,0-1.515,3.3A3.274,3.274,0,0,0,123.36-.8a2.181,2.181,0,0,0,1.575.72,6.48,6.48,0,0,0,3.78-2.07,14.068,14.068,0,0,0,3.1-4.365,2.926,2.926,0,0,1,1.53,2.625,3.535,3.535,0,0,1-.525,1.83A4.1,4.1,0,0,1,131.28-.57,9.04,9.04,0,0,1,128.6.45l.2.69c.75-.105,1.02-.165,1.455-.24A7.557,7.557,0,0,0,133.59-.555a3.716,3.716,0,0,0,1.5-3.12c0-2.64-2.04-4.3-5.28-4.3a10.732,10.732,0,0,0-1.35.09c.03-.435.06-.885.06-.9l.045-.69Zm-.045,6.21a12.779,12.779,0,0,1-.15-2.235c0-.42,0-.495.03-1.53a7.544,7.544,0,0,1,.975-.06,8.92,8.92,0,0,1,1.62.15A14.588,14.588,0,0,1,128.535-3.315Zm-1.6-3.405c-.015.435-.015.75-.015.99a20.139,20.139,0,0,0,.24,3.51,3.772,3.772,0,0,1-2.01.945.744.744,0,0,1-.525-.18,2.141,2.141,0,0,1-.45-1.44,3.975,3.975,0,0,1,.975-2.625A4.33,4.33,0,0,1,126.93-6.72Zm14.28-3.765h-.12c-.825,0-1.29-.03-2.235-.1l-.87-.345.075,1.2c1.3.075,1.8.09,2.94.09l-.015.045a33.3,33.3,0,0,1-3.255,7.155l1.455.9A42.858,42.858,0,0,0,142.7-9.69c1.005-.06,2.31-.18,3.5-.345l.03-1.215-1.035.48c-1.035.135-1.6.18-2.205.225L143-10.59c.12-.405.135-.45.3-.99.21-.15.285-.255.285-.375a.32.32,0,0,0-.285-.3l-1.59-.285-.12.885c-.165.57-.225.8-.33,1.17Zm9.87,8.7a9.7,9.7,0,0,0-3.63-1.935V-6.27c.21-.165.285-.255.285-.375,0-.18-.15-.285-.4-.3l-1.47-.03.075,1.3V-4a8.362,8.362,0,0,0-1.26-.09c-1.86,0-3.105.96-3.105,2.415a2.27,2.27,0,0,0,.6,1.545,4.029,4.029,0,0,0,2.82,1.02A3,3,0,0,0,146.9.315a2.033,2.033,0,0,0,.555-1.56V-2.3a9.748,9.748,0,0,1,2.625,2.01Zm-5.145.375c0,.69-.4,1.02-1.26,1.02-1.26,0-2.19-.585-2.19-1.38a.94.94,0,0,1,.255-.66,2.505,2.505,0,0,1,1.785-.51,5.075,5.075,0,0,1,1.41.195Zm5.325-7.365a8.712,8.712,0,0,0-3.015-.495,8.45,8.45,0,0,0-2.835.45l.045.57a11.88,11.88,0,0,1,4.86,1.02Zm4.095,9.45a56.207,56.207,0,0,0,3.015-9.7l.03-.135,1-.045a24.872,24.872,0,0,0,3.855-.345l.045-1.185-1.11.45a21.362,21.362,0,0,1-2.67.24c-.135,0-.525.03-.945.045l.285-1.395c.21-.15.3-.285.3-.435a.364.364,0,0,0-.3-.315l-1.665-.285-.045,1.035-.3,1.455c-.9.03-.99.03-1.155.03-.255,0-.6-.015-1.08-.03l-1.05-.315.1,1.17c.345.015.615.015.795.015.075,0,.81-.015,2.22-.03A46.2,46.2,0,0,1,153.645.15Zm10.5-8.55a11.478,11.478,0,0,0-1.68-.12,7.929,7.929,0,0,0-4.2,1.08l.18.6a14.555,14.555,0,0,1,2.64-.21,11.232,11.232,0,0,1,3.06.36Zm-6.225,3.69a4.137,4.137,0,0,0-.555,2.025c0,1.92,1.41,2.715,4.785,2.715a15.433,15.433,0,0,0,2.55-.18V-1.47a11.4,11.4,0,0,1-2.985.36c-2.25,0-3.39-.525-3.39-1.56A4.512,4.512,0,0,1,160.275-4Zm21.6-6.345a14.454,14.454,0,0,0-2.025-.135,8.063,8.063,0,0,0-4.695,1.3l.15.63a16,16,0,0,1,3.555-.39,12.165,12.165,0,0,1,3.015.345Zm-10.65-1.365.015.885a58.233,58.233,0,0,0-.39,6.33,30.638,30.638,0,0,0,.36,5.205l1.68-.27a29.154,29.154,0,0,1-.42-5.175,50.4,50.4,0,0,1,.42-6.03c.24-.165.33-.27.33-.4,0-.165-.15-.27-.4-.315Zm3.93,6.285a4.014,4.014,0,0,0-.525,2,3.014,3.014,0,0,0,1.125,2.46,6.927,6.927,0,0,0,3.795.81,17.885,17.885,0,0,0,2.85-.225V-2.385a13.906,13.906,0,0,1-3.36.375c-2.415,0-3.45-.675-3.45-2.25a4.587,4.587,0,0,1,.165-1.2Zm12.2,2.13a2.42,2.42,0,0,0-2.46,2.4,2.417,2.417,0,0,0,2.415,2.43,2.417,2.417,0,0,0,2.43-2.415A2.427,2.427,0,0,0,186.705-3.48Zm-.06.81a1.61,1.61,0,0,1,1.635,1.59,1.61,1.61,0,0,1-1.6,1.62,1.61,1.61,0,0,1-1.62-1.605A1.614,1.614,0,0,1,186.645-2.67Z" transform="translate(207.3 58.2)" fill="#fff"/>
    </g>
    <path id="パス_57302" data-name="パス 57302" d="M-210.32-1.536h2.5V-19.2h-2.5v-1.536h6.176l6.688,14.624,6.24-14.624h6.176V-19.2h-2.5V-1.536h2.5V0h-8.768V-1.536h2.4v-14.3l-6.112,14.3H-199.5l-6.56-14.272V-1.536h2.368V0h-6.624ZM-176.592-19.2V-1.536h3.1V0h-10.08V-1.536h3.1V-19.2h-3.1v-1.536h10.08V-19.2Zm4.576,17.664h2.5V-19.2h-2.5v-1.536h5.728l9.12,14.272V-19.2h-2.464v-1.536h6.72V-19.2h-2.5V0h-2.368l-9.984-15.776v14.24h2.4V0h-6.656ZM-144.784-19.2V-1.536h3.1V0h-10.08V-1.536h3.1V-19.2h-3.1v-1.536h10.08V-19.2Zm18.3-5.472c.416-.352.608-.64.608-.928a.731.731,0,0,0-.8-.64h-3.936L-130-24.1l1.984,9.472c-5.792,2.944-8.224,5.6-8.224,8.928A6.065,6.065,0,0,0-132.208.032c1.952.8,5.024,1.216,9.216,1.216a71.578,71.578,0,0,0,8.928-.512v-4A50.582,50.582,0,0,1-123.7-2.4c-4.128,0-6.848-.384-8.512-1.248a2.686,2.686,0,0,1-1.472-2.3c0-1.856,1.92-3.808,5.344-5.536a70.4,70.4,0,0,1,13.088-4.8,2.254,2.254,0,0,0,.928.256.658.658,0,0,0,.64-.544,1.474,1.474,0,0,0-.192-.576l-1.44-3.168-1.376.992c-4.928,1.824-5.856,2.176-8.1,3.168ZM-92.656.8A22.16,22.16,0,0,0-85.3-1.376a11.73,11.73,0,0,0,6.272-10.656A11.131,11.131,0,0,0-84.5-22.016a16.741,16.741,0,0,0-8.032-1.92c-8.384,0-14.336,5.664-14.336,13.6,0,4.832,2.5,8.672,5.664,8.672,2.816,0,5.664-3.008,7.648-8.128A51.12,51.12,0,0,0-90.8-21.856a7.926,7.926,0,0,1,4.224,1.6,9.8,9.8,0,0,1,3.584,7.936A11.31,11.31,0,0,1-87.5-3.136,18.4,18.4,0,0,1-93.04-.608Zm-1.7-22.784c-.864,6.432-2.208,11.616-3.872,15.072-1.056,2.144-1.92,3.1-2.784,3.1-1.312,0-2.464-2.944-2.464-6.272a12.972,12.972,0,0,1,3.072-8.64A9.119,9.119,0,0,1-94.352-21.984Zm24,12.416a27.019,27.019,0,0,1-5.632,8.8l.608,1.024a17.357,17.357,0,0,0,4.768-3.968c.352-.448.7-.9,1.088-1.344l.064-.064V2.656h3.168V-6.272c.032.064.416.544,1.152,1.5a29.428,29.428,0,0,1,1.824,2.912l2.016-2.88a14.227,14.227,0,0,0-4.256-2.5,4.731,4.731,0,0,1-.736-.288V-9.568h4.32l1.344.256V-11.36l-1.344.256h-4.32v-3.648h4.832l1.312.256v-2.048l-1.312.256h-3.776A39.273,39.273,0,0,0-62.7-21.856h.9l1.344.256v-2.048l-1.344.256h-4.416v-2.5c.416-.32.512-.448.512-.64q0-.48-.672-.48h-3.264v3.616h-4.48l-1.344-.256V-21.6l1.344-.256h.9a49.311,49.311,0,0,1,.992,5.248l.032.32H-74.64l-1.344-.256V-14.5l1.344-.256h5.184V-11.1h-4.672l-1.344-.256v2.048l1.344-.256Zm-1.248-6.72,2.592-1.312a16.718,16.718,0,0,0-2.848-4.256h5.92a47.386,47.386,0,0,1-.8,5.568Zm12.448-9.184v4.1c0,8.832-.064,11.008-.448,14.048a16.569,16.569,0,0,1-3.936,9.12l.768.96A12.981,12.981,0,0,0-56.848-5.6c.672-2.624.8-3.872.9-9.088h3.584V2.656h3.3V-14.688h1.824l1.344.256V-16.48l-1.344.256H-55.92v-.64c.032-1.7.032-3.2.032-4.512v-1.472a37.163,37.163,0,0,0,7.872-.928,2.057,2.057,0,0,0,.7.128c.288,0,.608-.256.608-.48a1.15,1.15,0,0,0-.288-.48l-2.176-2.4a32.974,32.974,0,0,1-6.656,2.688Zm21.312-.64.192,2.24L-37.9-13.28c-.032,1.12-.032,1.952-.032,2.72,0,5.28.64,7.9,2.336,9.568a10.262,10.262,0,0,0,7.04,2.528A11.6,11.6,0,0,0-18.48-3.776a18,18,0,0,0,2.24-6.5l-1.44-.448a15.761,15.761,0,0,1-2.592,5.088A10.425,10.425,0,0,1-28.432-1.7a5.836,5.836,0,0,1-4.48-1.92c-.96-1.152-1.376-2.912-1.376-5.888,0-1.088,0-2.368.032-3.52l.288-11.168c.416-.384.576-.64.576-.928,0-.448-.384-.736-1.024-.768ZM1.136-7.808C.272-4.8-.784-2.816-1.552-2.816c-.928,0-2.4-2.784-3.2-5.952A56.078,56.078,0,0,1-5.68-20.1v-1.568c.576-.416.768-.672.768-.96,0-.384-.384-.672-.928-.7l-3.552-.192.16,2.272c.032,4.48.1,6.5.288,8.8a24.4,24.4,0,0,0,2.432,9.5C-5.3-.608-3.664.736-2.1.736-.048.736,1.68-2.048,2.832-7.3ZM17.584-6.72c-1.056-6.464-4.32-12.256-8.544-15.328l-1.12.768c2.784,4.16,4.512,9.056,5.728,16.192ZM33.136-.864H24.944V-9.312c.416-.32.512-.448.512-.672,0-.32-.224-.448-.672-.448H21.392v12.9h3.552V.672H45.168V2.24h3.584V-9.312c.416-.288.512-.448.512-.672,0-.288-.224-.448-.672-.448H45.168V-.864h-8.48V-13.248H47.312V-23.2c.448-.32.544-.448.544-.672,0-.288-.224-.448-.7-.448H43.76v9.536H36.688v-11.1c.416-.32.512-.448.512-.672,0-.288-.224-.448-.672-.448H33.136v12.224H26.352V-23.2c.416-.32.512-.448.512-.672,0-.288-.224-.448-.672-.448H22.8v11.072H33.136Zm28.384-.9a38.094,38.094,0,0,0,4.96-6.4l.064-.1H79.92L81.264-8v-2.048l-1.344.256H54.192l-1.344-.256V-8l1.344-.256h7.84a50.523,50.523,0,0,1-2.624,6.432l-.032.1a10.045,10.045,0,0,0-1.216-.128c-.512,0-1.28.032-2.72.1a6.166,6.166,0,0,1-.768.032,5.045,5.045,0,0,1-.608-.032l.9,3.424c.16.512.352.736.672.736.288,0,.544-.224.832-.736C64.816,1.024,70.8.256,74.288-.608L75.056-.8C75.92.448,76.4,1.216,77.264,2.72l3.9-2.464a29.826,29.826,0,0,0-9.5-7.1l-1.12.928a34.634,34.634,0,0,1,3.424,3.68c-3.712.32-5.6.384-10.5.448Zm6.848-23.808c.544-.224.768-.416.768-.736,0-.256-.224-.448-.64-.48L64.72-27.2a40.313,40.313,0,0,1-12.7,13.408l.64,1.248a33.435,33.435,0,0,0,6.72-3.648v1.824l1.344-.256H73.232l1.344.256v-1.888A23.141,23.141,0,0,0,80.3-13.12,42.514,42.514,0,0,1,82.1-17.088,31.184,31.184,0,0,1,68.3-25.472Zm4.864,9.408H60.72l-1.088-.224a35.459,35.459,0,0,0,7.776-7.84,30.215,30.215,0,0,0,7.008,7.84Zm23.9,8.352c-.864,3.008-1.92,4.992-2.688,4.992-.928,0-2.4-2.784-3.2-5.952A56.078,56.078,0,0,1,90.32-20.1v-1.568c.576-.416.768-.672.768-.96,0-.384-.384-.672-.928-.7l-3.552-.192.16,2.272c.032,4.48.1,6.5.288,8.8a24.4,24.4,0,0,0,2.432,9.5C90.7-.608,92.336.736,93.9.736c2.048,0,3.776-2.784,4.928-8.032ZM113.584-6.72c-1.056-6.464-4.32-12.256-8.544-15.328l-1.12.768c2.784,4.16,4.512,9.056,5.728,16.192Zm3.488-11.072.576,2.176c.1.448.32.672.576.672.288,0,.448-.16.7-.64a39.275,39.275,0,0,1,4.256-1.056l.1-.032A64.831,64.831,0,0,1,117.2-1.12l2.88,1.7A64.235,64.235,0,0,0,126.9-17.248a30.515,30.515,0,0,1,3.552-.32c1.632,0,2.208.8,2.208,2.976a35.907,35.907,0,0,1-1.568,10.976c-.544,1.76-1.248,2.624-2.016,2.624-.864,0-1.792-.512-3.52-1.888l-.928,1.664a14.428,14.428,0,0,0,1.5,1.28c1.728,1.216,2.784,1.664,3.968,1.664,1.664,0,2.912-.96,3.9-3.04,1.248-2.624,2.112-7.392,2.112-11.488,0-2.4-.352-3.968-1.056-4.9-.832-1.12-2.368-1.664-4.64-1.664-.992,0-1.92.032-3.072.128.416-1.856.608-2.944,1.024-5.152.48-.224.672-.416.672-.7s-.288-.544-.736-.608l-3.3-.7-.064,1.12c-.416,2.88-.736,4.7-1.152,6.464-2.432.32-2.912.416-6.048.992Zm19.968-2.5c2.4,3.616,3.84,7.712,5.088,14.528l3.744-1.632c-1.28-6.208-4.288-11.456-7.84-13.6Zm16,21.728a119.911,119.911,0,0,0,6.432-20.7l.064-.288,2.144-.1a53.059,53.059,0,0,0,8.224-.736l.1-2.528-2.368.96a45.572,45.572,0,0,1-5.7.512c-.288,0-1.12.064-2.016.1l.608-2.976c.448-.32.64-.608.64-.928a.776.776,0,0,0-.64-.672l-3.552-.608-.1,2.208-.64,3.1c-1.92.064-2.112.064-2.464.064-.544,0-1.28-.032-2.3-.064l-2.24-.672.224,2.5c.736.032,1.312.032,1.7.032.16,0,1.728-.032,4.736-.064A98.552,98.552,0,0,1,149.392.32Zm22.4-18.24a24.487,24.487,0,0,0-3.584-.256,16.915,16.915,0,0,0-8.96,2.3l.384,1.28a31.051,31.051,0,0,1,5.632-.448,23.962,23.962,0,0,1,6.528.768ZM162.16-8.928a8.825,8.825,0,0,0-1.184,4.32c0,4.1,3.008,5.792,10.208,5.792A32.925,32.925,0,0,0,176.624.8V-3.136a24.315,24.315,0,0,1-6.368.768c-4.8,0-7.232-1.12-7.232-3.328a9.626,9.626,0,0,1,.512-2.848Zm23.2,1.5a5.164,5.164,0,0,0-5.248,5.12,5.156,5.156,0,0,0,5.152,5.184,5.156,5.156,0,0,0,5.184-5.152A5.177,5.177,0,0,0,185.36-7.424ZM185.232-5.7A3.436,3.436,0,0,1,188.72-2.3,3.435,3.435,0,0,1,185.3,1.152a3.435,3.435,0,0,1-3.456-3.424A3.442,3.442,0,0,1,185.232-5.7Z" transform="translate(300.32 74)" fill="#fff"/>
  </g>
</svg>
