<svg xmlns="http://www.w3.org/2000/svg" width="552.663" height="52.439" viewBox="0 0 552.663 52.439">
  <g id="paul-tit-sp" transform="translate(188 6.657)">
    <path id="パス_57301" data-name="パス 57301" d="M-123.464-1.144c-.044.924-.352,1.21-1.276,1.232h-2.288V1.1h3.608a2.132,2.132,0,0,0,1.43-.418,1.942,1.942,0,0,0,.55-1.32V-.99L-121.7-12.3h4.862l.88.176v-1.364l-.88.176h-4.884l-.088-3.564c.286-.22.374-.352.374-.528,0-.22-.2-.374-.55-.374l-2.046-.11.22,1.474.066,3.1h-9.966l-.88-.176v1.364l.88-.176h8.646l-.044.066a26.094,26.094,0,0,1-9.9,10.692l.286.528c4.576-1.716,7.5-4.224,11.044-9.5Zm29.7-12.628a21.837,21.837,0,0,1-5.61,7.128c-2.926,2.376-5.434,3.5-10.1,4.466l-1.166.022.792,1.958c.132.308.33.484.55.484.242,0,.418-.154.572-.506,4.972-1.122,8.1-2.618,10.8-5.17a18.544,18.544,0,0,0,4.774-8.1Zm-17.072-2.4a20.682,20.682,0,0,1,5.478,4.708l1.8-1.826a13.577,13.577,0,0,0-7.018-3.454Zm36.872-.638H-86.152l-.968-.2V-15.6l.968-.2h12.188l.968.2v-1.408Zm-13.882,5.082-.968-.2v1.408l.968-.2h13.728c-.924,5.324-4.994,9.2-11.4,10.78l.154.726c7.92-.836,13.024-5.5,13.728-12.518Zm33.066-.066a56.561,56.561,0,0,0,4.686-4.136c.594-.066.836-.22.836-.528a.682.682,0,0,0-.352-.506L-51.3-18.084-52.1-16.9A42.8,42.8,0,0,1-66.528-6.886l.242.66a29.016,29.016,0,0,0,9.46-4.092V1.166h2.046Zm29.656-1.98a21.837,21.837,0,0,1-5.61,7.128c-2.926,2.376-5.434,3.5-10.1,4.466L-42-2.156-41.206-.2c.132.308.33.484.55.484.242,0,.418-.154.572-.506,4.972-1.122,8.1-2.618,10.8-5.17a18.544,18.544,0,0,0,4.774-8.1ZM-42.2-16.17a20.682,20.682,0,0,1,5.478,4.708l1.8-1.826a13.577,13.577,0,0,0-7.018-3.454ZM-9.064-1.144C-9.108-.22-9.416.066-10.34.088h-2.288V1.1H-9.02A2.132,2.132,0,0,0-7.59.682a1.942,1.942,0,0,0,.55-1.32V-.99L-7.3-12.3h4.862l.88.176v-1.364l-.88.176H-7.326l-.088-3.564c.286-.22.374-.352.374-.528,0-.22-.2-.374-.55-.374l-2.046-.11.22,1.474.066,3.1h-9.966l-.88-.176v1.364l.88-.176h8.646l-.044.066a26.094,26.094,0,0,1-9.9,10.692l.286.528c4.576-1.716,7.5-4.224,11.044-9.5ZM20.768-8.888,2.4-9.57v2.31l18.37-.66ZM26.246,1.32a18.552,18.552,0,0,0,10.032-4.6c2.75-2.42,5.148-7,6.05-11.55h-9.02l.022-.066.4-.88c.022-.066.11-.286.242-.616.4-.176.55-.352.55-.594,0-.2-.154-.33-.484-.4l-2.024-.462-.176,1.078a21.669,21.669,0,0,1-6.05,9.46L26.2-6.8A16.2,16.2,0,0,0,32.78-13.75l.044-.066h7.128a19.728,19.728,0,0,1-2.926,6.732,11.663,11.663,0,0,0-5.676-2.75l-.374.572a15.51,15.51,0,0,1,4.8,3.872A19.649,19.649,0,0,1,26.048.616ZM44.66-16.28a4.439,4.439,0,0,0-2.574-2.288l-.352.33a8.737,8.737,0,0,1,1.452,2.75Zm-5.5-1.826a9.477,9.477,0,0,1,1.276,2.86l1.5-.7a4.324,4.324,0,0,0-2.376-2.442ZM66.528-8.888,48.158-9.57v2.31l18.37-.66Zm6.248-2.6a5.747,5.747,0,0,0-.044-.968h-.726A5.693,5.693,0,0,1,69.96-8.888l1.232,1.672A4.72,4.72,0,0,0,72.71-10.6H87.67a10.29,10.29,0,0,1-1.254,2.442l.66.352A8.09,8.09,0,0,0,90.2-11.484H84.546a14.167,14.167,0,0,0,2.42-2.882c.418-.044.66-.2.66-.418,0-.154-.11-.286-.352-.374l-1.892-.77a16.828,16.828,0,0,1-1.8,4.444ZM70.158,1.782a27.259,27.259,0,0,0,9.966-3.146,23.785,23.785,0,0,0,9.108,2.992A14.7,14.7,0,0,1,90.2-.33a23.044,23.044,0,0,1-8.492-2.046A21.147,21.147,0,0,0,86.79-7.788H73.678l-.88-.176v1.232l.88-.176h1.386a11.8,11.8,0,0,0,3.652,4.6A31.291,31.291,0,0,1,69.96,1.056ZM75.9-6.908h7.986A18.449,18.449,0,0,1,80.058-3.19a10.5,10.5,0,0,1-4.114-3.674Zm-2.288-8.338a14.947,14.947,0,0,1,1.276,3.476l1.936-.88A7.741,7.741,0,0,0,74.1-15.466Zm-1.958-.572a139.051,139.051,0,0,0,15.664-.88,2.007,2.007,0,0,0,.682.176c.242,0,.484-.176.484-.352a.544.544,0,0,0-.176-.33L86.966-18.48c-2.068.66-9.856,1.65-15.334,1.936Zm6.82.506a21.776,21.776,0,0,1,1.65,3.476l1.826-1.012a8.94,8.94,0,0,0-3.014-2.706Zm29.5,3.19V-.44c0,.726-.308,1.034-1.034,1.034h-2.684v.924h3.608c1.43,0,2.068-.572,2.046-1.936v-11.7H112.2l.88.176v-1.232L112.2-13h-2.288v-4.466c.286-.22.352-.286.352-.44,0-.2-.154-.286-.484-.286h-1.8V-13h-7.788l-.858-.176v1.232l.858-.176ZM96.1,1.628h1.826V-13.42c.462-1.056.924-2.178,1.474-3.652.352-.088.528-.22.528-.462,0-.154-.154-.308-.374-.374l-1.958-.572A43.727,43.727,0,0,1,92.84-6.556l.506.4A23.451,23.451,0,0,0,96.1-9.878Zm4.576-10.384a34.264,34.264,0,0,1,2.728,4.73l1.892-1.364a14.545,14.545,0,0,0-4.114-3.784Zm26.048-5.456v-3.41c.286-.2.352-.286.352-.44,0-.2-.154-.286-.462-.286h-1.8v4.136H116.8V-3.74h1.914V-5.17h6.094v6.8h1.914v-6.8h6.27v1.254H134.9v-10.3Zm0,.88h6.27V-6.05h-6.27ZM124.806-6.05h-6.094v-7.282h6.094Z" transform="translate(88.014 44)" fill="#fff"/>
    <path id="パス_57300" data-name="パス 57300" d="M-259.335-1.3V0h-7.479V-1.3h2.106l-1.647-4.887h-5.1l-1.7,4.887h2V0H-276.8V-1.3h2.052l5.778-16.2h1.917l5.778,16.2Zm-7.479-6.237-2-5.913h-.135L-271-7.533Zm7.911,6.372h1.674V-17.226h-1.863v-1.107l4.887-.324v17.5h1.674V0H-258.9Zm7.425,0h1.674V-17.226h-1.863v-1.107l4.887-.324v17.5h1.674V0h-6.372Zm7.992-6.642h6.156v1.566h-6.156Zm21.762,2.889V0h-13.932V-1.3h2.106V-16.2h-2.106v-1.3h13.716v4.914h-1.89l-1.377-3.618h-5.076v6.291h2.808v-2.106h1.62v5.562h-1.62V-8.559h-2.808V-1.3h5.319l1.35-3.618Zm1.89,3.753h1.674V-17.226h-1.863v-1.107l4.887-.324v17.5h1.674V0h-6.372Zm13.716-11.34a4.7,4.7,0,0,1,3.645,1.472,5.7,5.7,0,0,1,1.35,4.01,5.369,5.369,0,0,1-.027.621h-7.8a7.029,7.029,0,0,0,1.107,3.6,2.85,2.85,0,0,0,2.4,1.418,2.946,2.946,0,0,0,1.971-.769,3.568,3.568,0,0,0,1.161-1.985h1.161A5.237,5.237,0,0,1-202.9-.891,5.129,5.129,0,0,1-206.334.3a5.3,5.3,0,0,1-2.9-.8,5.354,5.354,0,0,1-1.957-2.241,7.475,7.475,0,0,1-.7-3.308,7.452,7.452,0,0,1,.729-3.375,5.483,5.483,0,0,1,2.038-2.268A5.6,5.6,0,0,1-206.118-12.5Zm-.27,1.161a2.062,2.062,0,0,0-1.782,1,5.439,5.439,0,0,0-.783,2.727h4.752a5.348,5.348,0,0,0-.54-2.754A1.8,1.8,0,0,0-206.388-11.34ZM-193.563.3a5.3,5.3,0,0,1-2.9-.8,5.389,5.389,0,0,1-1.957-2.214,7.112,7.112,0,0,1-.7-3.2,7.6,7.6,0,0,1,.689-3.186,6,6,0,0,1,2.025-2.457,5.353,5.353,0,0,1,3.173-.945,7.7,7.7,0,0,1,2.565.446,5.048,5.048,0,0,1,1.917,1.094v2.511h-2.16a3.477,3.477,0,0,0-.756-2.174,2.015,2.015,0,0,0-1.512-.688A2.409,2.409,0,0,0-195.48-10.1a6.475,6.475,0,0,0-.675,3.159,9.2,9.2,0,0,0,.365,2.578A5.109,5.109,0,0,0-194.684-2.3a2.377,2.377,0,0,0,1.822.81,3.021,3.021,0,0,0,2.052-.7,3.738,3.738,0,0,0,1.134-1.944h1.188a5.74,5.74,0,0,1-1.66,3.159A4.7,4.7,0,0,1-193.563.3ZM-178.5-.972a5.564,5.564,0,0,1-1.593,1,4.718,4.718,0,0,1-1.647.27,4.124,4.124,0,0,1-2.889-.918,3.449,3.449,0,0,1-1-2.673v-7.749h-1.188v-.918l3.348-3.348h.864v3.1h3.861v1.161H-182.6v7.8q0,2.079,1.62,2.079a2.772,2.772,0,0,0,1.755-.7Zm8.856-11.529a3.491,3.491,0,0,1,1.013.135,7,7,0,0,1,.958.378v3.24h-2a1.934,1.934,0,0,0-.445-1.229,1.233,1.233,0,0,0-.932-.418,1.6,1.6,0,0,0-1.4.958,4.813,4.813,0,0,0-.54,2.389v5.886h2.214V0h-6.912V-1.161h1.674v-9.882h-1.674V-12.15l4.617-.27.081,2.187a3.827,3.827,0,0,1,1.337-1.66A3.448,3.448,0,0,1-169.641-12.5Zm2.889,11.34h2.079v-9.882h-1.89V-12.15l4.914-.324V-1.161h2.106V0h-7.209Zm1.647-14.9a1.821,1.821,0,0,1,.553-1.337,1.821,1.821,0,0,1,1.337-.553,1.821,1.821,0,0,1,1.337.553,1.821,1.821,0,0,1,.553,1.337,1.821,1.821,0,0,1-.553,1.337,1.821,1.821,0,0,1-1.337.554,1.821,1.821,0,0,1-1.337-.554A1.821,1.821,0,0,1-165.105-16.065ZM-152.55.3a5.3,5.3,0,0,1-2.9-.8,5.389,5.389,0,0,1-1.957-2.214,7.112,7.112,0,0,1-.7-3.2,7.6,7.6,0,0,1,.689-3.186,6,6,0,0,1,2.025-2.457,5.353,5.353,0,0,1,3.173-.945,7.7,7.7,0,0,1,2.565.446,5.048,5.048,0,0,1,1.917,1.094v2.511h-2.16a3.477,3.477,0,0,0-.756-2.174,2.015,2.015,0,0,0-1.512-.688,2.409,2.409,0,0,0-2.295,1.215,6.475,6.475,0,0,0-.675,3.159,9.2,9.2,0,0,0,.365,2.578A5.109,5.109,0,0,0-153.671-2.3a2.377,2.377,0,0,0,1.822.81,3.021,3.021,0,0,0,2.052-.7,3.738,3.738,0,0,0,1.134-1.944h1.188a5.74,5.74,0,0,1-1.66,3.159A4.7,4.7,0,0,1-152.55.3ZM-139.023-1.3h2.106V-16.2h-2.106v-1.3h5.211l5.643,12.339L-122.9-17.5h5.211v1.3H-119.8V-1.3h2.106V0h-7.4V-1.3h2.025V-13.365L-128.223-1.3H-129.9l-5.535-12.042V-1.3h2V0h-5.589Zm28.458-14.9V-1.3h2.619V0h-8.5V-1.3h2.619V-16.2h-2.619v-1.3h8.5v1.3ZM-106.7-1.3h2.106V-16.2H-106.7v-1.3h4.833l7.695,12.042V-16.2h-2.079v-1.3h5.67v1.3h-2.106V0h-2l-8.424-13.311V-1.3h2.025V0H-106.7Zm22.977-14.9V-1.3h2.619V0h-8.5V-1.3h2.619V-16.2h-2.619v-1.3h8.5v1.3ZM-65.07.324A7.619,7.619,0,0,1-69.619-.945a7.291,7.291,0,0,1-2.565-3.226,10.961,10.961,0,0,1-.8-4.171,12.741,12.741,0,0,1,.837-4.644,7.827,7.827,0,0,1,2.605-3.5A7.2,7.2,0,0,1-65.07-17.82a8.855,8.855,0,0,1,3.051.459,14.384,14.384,0,0,1,2.376,1.134v3.645h-2.3a5.175,5.175,0,0,0-1.134-3.078,3.026,3.026,0,0,0-2.295-.972,3.446,3.446,0,0,0-3.213,1.89,9.732,9.732,0,0,0-1.053,4.779,14.854,14.854,0,0,0,.661,4.684,6.987,6.987,0,0,0,1.822,3.038A3.8,3.8,0,0,0-64.53-1.188a4.043,4.043,0,0,0,2.646-.932,4.693,4.693,0,0,0,1.512-2.821h1.4a6.1,6.1,0,0,1-2.066,3.888A6.115,6.115,0,0,1-65.07.324ZM-51.624.3a5.223,5.223,0,0,1-2.835-.8,5.43,5.43,0,0,1-1.985-2.227,7.146,7.146,0,0,1-.715-3.24A7.407,7.407,0,0,1-56.417-9.3a5.805,5.805,0,0,1,2.052-2.349,5.356,5.356,0,0,1,2.984-.851,5.478,5.478,0,0,1,2.889.783,5.385,5.385,0,0,1,2.025,2.2,6.893,6.893,0,0,1,.729,3.2,7.274,7.274,0,0,1-.77,3.348,6.108,6.108,0,0,1-2.106,2.39A5.364,5.364,0,0,1-51.624.3Zm.351-1.188a1.914,1.914,0,0,0,1.715-1.215,7.683,7.683,0,0,0,.634-3.483,10.152,10.152,0,0,0-.729-4.1q-.729-1.647-2.025-1.647a1.914,1.914,0,0,0-1.715,1.215,7.683,7.683,0,0,0-.634,3.483,10.152,10.152,0,0,0,.729,4.1Q-52.569-.891-51.273-.891ZM-38.2.3A5.223,5.223,0,0,1-41.04-.5a5.43,5.43,0,0,1-1.985-2.227,7.146,7.146,0,0,1-.715-3.24A7.407,7.407,0,0,1-43-9.3a5.805,5.805,0,0,1,2.052-2.349,5.356,5.356,0,0,1,2.984-.851,5.478,5.478,0,0,1,2.889.783,5.385,5.385,0,0,1,2.025,2.2,6.893,6.893,0,0,1,.729,3.2,7.274,7.274,0,0,1-.77,3.348,6.108,6.108,0,0,1-2.106,2.39A5.364,5.364,0,0,1-38.2.3Zm.351-1.188a1.914,1.914,0,0,0,1.715-1.215A7.683,7.683,0,0,0-35.5-5.589a10.152,10.152,0,0,0-.729-4.1q-.729-1.647-2.025-1.647a1.914,1.914,0,0,0-1.715,1.215,7.683,7.683,0,0,0-.634,3.483,10.152,10.152,0,0,0,.729,4.1Q-39.15-.891-37.854-.891ZM-23.571-12.5a5.057,5.057,0,0,1,2.74.769A5.322,5.322,0,0,1-18.9-9.585,6.922,6.922,0,0,1-18.2-6.4a7.7,7.7,0,0,1-.729,3.362,6.2,6.2,0,0,1-2,2.43,4.812,4.812,0,0,1-2.862.9A4.022,4.022,0,0,1-26.541-.729v5.1h1.836V5.535h-6.75V4.374h1.89V-12.15h3.024v.729A4.07,4.07,0,0,1-23.571-12.5Zm-.27,11.448a2.048,2.048,0,0,0,1.917-1.121A7.206,7.206,0,0,0-21.3-5.562a9.349,9.349,0,0,0-.743-4.077,2.28,2.28,0,0,0-2.066-1.512,2.227,2.227,0,0,0-1.715.8,3.093,3.093,0,0,0-.715,2.146v4.374a2.743,2.743,0,0,0,.77,1.985A2.573,2.573,0,0,0-23.841-1.053ZM-10.422-12.5A4.7,4.7,0,0,1-6.777-11.03a5.7,5.7,0,0,1,1.35,4.01,5.37,5.37,0,0,1-.027.621h-7.8a7.029,7.029,0,0,0,1.107,3.6,2.85,2.85,0,0,0,2.4,1.418,2.946,2.946,0,0,0,1.971-.769A3.568,3.568,0,0,0-6.615-4.131h1.161A5.237,5.237,0,0,1-7.209-.891,5.129,5.129,0,0,1-10.638.3a5.3,5.3,0,0,1-2.9-.8A5.354,5.354,0,0,1-15.5-2.74a7.475,7.475,0,0,1-.7-3.308,7.452,7.452,0,0,1,.729-3.375,5.483,5.483,0,0,1,2.039-2.268A5.6,5.6,0,0,1-10.422-12.5Zm-.27,1.161a2.062,2.062,0,0,0-1.782,1,5.439,5.439,0,0,0-.783,2.727h4.752a5.347,5.347,0,0,0-.54-2.754A1.8,1.8,0,0,0-10.692-11.34ZM4.239-12.5a3.491,3.491,0,0,1,1.013.135,7,7,0,0,1,.958.378v3.24h-2a1.934,1.934,0,0,0-.445-1.229,1.233,1.233,0,0,0-.931-.418,1.6,1.6,0,0,0-1.4.958,4.813,4.813,0,0,0-.54,2.389v5.886H3.1V0H-3.807V-1.161h1.674v-9.882H-3.807V-12.15L.81-12.42l.081,2.187a3.827,3.827,0,0,1,1.337-1.66A3.448,3.448,0,0,1,4.239-12.5ZM22-17.5a6.238,6.238,0,0,1,4.118,1.269A4.228,4.228,0,0,1,27.648-12.8a4.524,4.524,0,0,1-.715,2.511,4.723,4.723,0,0,1-2,1.715A6.765,6.765,0,0,1,22-7.965H19.251V-1.3h2.106V0H13.878V-1.3h2.106V-16.2H13.878v-1.3Zm-.3,8.235a2.112,2.112,0,0,0,1.755-1.04,4.239,4.239,0,0,0,.729-2.5,4.086,4.086,0,0,0-.689-2.443,2.116,2.116,0,0,0-1.8-.959H19.251v6.939ZM43.578-1.3V0H36.1V-1.3H38.2L36.558-6.183h-5.1L29.754-1.3h2V0H26.109V-1.3h2.052l5.778-16.2h1.917L41.634-1.3ZM36.1-7.533l-2-5.913h-.135L31.914-7.533ZM51.273.3a6.638,6.638,0,0,1-4.685-1.606,6.279,6.279,0,0,1-1.742-4.847V-16.2H42.741v-1.3H50.22v1.3H48.114V-5.238A4.331,4.331,0,0,0,49.072-2.2a3.472,3.472,0,0,0,2.687,1.039A3.994,3.994,0,0,0,53.7-1.647a3.6,3.6,0,0,0,1.417-1.4,4.267,4.267,0,0,0,.526-2.16V-16.2H53.541v-1.3h5.7v1.3H57.132V-5.319a5.533,5.533,0,0,1-1.539,4.05A5.782,5.782,0,0,1,51.273.3ZM60.291-1.3H62.4V-16.2H60.291v-1.3H67.77v1.3H65.664V-1.3h5.319l1.35-3.618h1.89V0H60.291ZM87.939.324a8.443,8.443,0,0,1-3.321-.607,5.3,5.3,0,0,1-2.052-1.364V-4.914h2.268a5.8,5.8,0,0,0,1.08,3.065,2.63,2.63,0,0,0,2.079.931,2.7,2.7,0,0,0,2.038-.8A2.848,2.848,0,0,0,90.8-3.78a2.965,2.965,0,0,0-1.4-2.592L84.834-9.4a5.678,5.678,0,0,1-1.687-1.715,4.306,4.306,0,0,1-.661-2.363,3.866,3.866,0,0,1,1.471-3.145,6.2,6.2,0,0,1,4.037-1.2,8.664,8.664,0,0,1,3.132.54,5.524,5.524,0,0,1,2.16,1.377v3.321h-2.3a5.9,5.9,0,0,0-.972-3.145,2.475,2.475,0,0,0-2-.9,2.428,2.428,0,0,0-1.877.715,2.617,2.617,0,0,0-.661,1.849A2.552,2.552,0,0,0,86.7-11.826l4.779,3.132a5.6,5.6,0,0,1,1.836,1.931A4.892,4.892,0,0,1,93.96-4.32a4.067,4.067,0,0,1-.743,2.4A4.889,4.889,0,0,1,91.112-.27,7.886,7.886,0,0,1,87.939.324ZM95.445-1.3h2.106V-16.2H95.445v-1.3h5.211L106.3-5.157,111.564-17.5h5.211v1.3h-2.106V-1.3h2.106V0h-7.4V-1.3H111.4V-13.365L106.245-1.3h-1.674L99.036-13.338V-1.3h2V0H95.445ZM123.9-16.2V-1.3h2.619V0h-8.5V-1.3h2.619V-16.2h-2.619v-1.3h8.5v1.3Zm6.75,14.9h2.565V-16.2h-2.43l-1.35,3.618h-1.755V-17.5H142.02v4.914h-1.755L138.888-16.2h-2.4V-1.3h2.565V0h-8.4ZM158.76-16.2V-1.3h2.106V0h-7.479V-1.3h2.106V-8.559h-6.966V-1.3h2.106V0h-7.479V-1.3h2.106V-16.2h-2.106v-1.3h7.506v1.3h-2.133v6.291h6.966V-16.2h-2.106v-1.3h7.479v1.3ZM182.79-4.914V0H168.858V-1.3h2.106V-16.2h-2.106v-1.3h13.716v4.914h-1.89L179.307-16.2h-5.076v6.291h2.808v-2.106h1.62v5.562h-1.62V-8.559h-2.808V-1.3h5.319l1.35-3.618ZM192.618-17.5a9.008,9.008,0,0,1,4.684,1.134,7.053,7.053,0,0,1,2.822,3.037,9.726,9.726,0,0,1,.918,4.28,10.328,10.328,0,0,1-.945,4.32,8.185,8.185,0,0,1-2.862,3.4A7.927,7.927,0,0,1,192.618,0h-8.343V-1.3h2.187V-16.2h-2.187v-1.3Zm-.189,16.2A4,4,0,0,0,195.277-2.4a6.864,6.864,0,0,0,1.768-2.889,11.876,11.876,0,0,0,.594-3.78,10.2,10.2,0,0,0-.621-3.672,5.688,5.688,0,0,0-1.809-2.538,4.418,4.418,0,0,0-2.781-.918h-2.7V-1.3Zm15.876-14.9V-1.3h2.619V0h-8.505V-1.3h2.619V-16.2h-2.619v-1.3h8.505v1.3Zm6.75,14.9h2.565V-16.2h-2.43l-1.35,3.618h-1.755V-17.5h14.337v4.914h-1.755L223.29-16.2h-2.4V-1.3h2.565V0h-8.4Zm18.387-14.9V-1.3h2.619V0h-8.505V-1.3h2.619V-16.2h-2.619v-1.3h8.505v1.3ZM245.349.324A7.74,7.74,0,0,1,240.8-.918,7.135,7.135,0,0,1,238.234-4.1a10.789,10.789,0,0,1-.8-4.131,12.773,12.773,0,0,1,.851-4.671,8.039,8.039,0,0,1,2.632-3.55,7.073,7.073,0,0,1,4.428-1.364,7.768,7.768,0,0,1,4.523,1.242,7.152,7.152,0,0,1,2.605,3.2,10.663,10.663,0,0,1,.81,4.118,12.773,12.773,0,0,1-.85,4.671A8.039,8.039,0,0,1,249.8-1.039,7.117,7.117,0,0,1,245.349.324ZM245.7-.864a3.425,3.425,0,0,0,3.2-1.863,9.739,9.739,0,0,0,1.04-4.779,15.4,15.4,0,0,0-1.215-6.534,3.91,3.91,0,0,0-3.672-2.592,3.446,3.446,0,0,0-3.213,1.89,9.794,9.794,0,0,0-1.053,4.806,15.067,15.067,0,0,0,1.229,6.507A3.935,3.935,0,0,0,245.7-.864Zm8.964-.432h2.106V-16.2h-2.106v-1.3H259.5l7.695,12.042V-16.2h-2.079v-1.3h5.67v1.3h-2.106V0h-2l-8.424-13.311V-1.3h2.025V0h-5.616Zm17.577-.216a1.745,1.745,0,0,1,.527-1.283,1.745,1.745,0,0,1,1.282-.526,1.745,1.745,0,0,1,1.283.526,1.745,1.745,0,0,1,.527,1.283,1.745,1.745,0,0,1-.527,1.283A1.745,1.745,0,0,1,274.05.3a1.745,1.745,0,0,1-1.282-.527A1.745,1.745,0,0,1,272.241-1.512Z" transform="translate(88.804 12)" fill="#fff"/>
  </g>
</svg>
