<svg xmlns="http://www.w3.org/2000/svg" width="1229.984" height="91.392" viewBox="0 0 1229.984 91.392">
  <path id="countryman-tit" d="M3.128-6.528H13.736V-81.6H3.128v-6.528H29.376L57.8-25.976,84.32-88.128h26.248V-81.6H99.96V-6.528h10.608V0H73.3V-6.528H83.5V-67.32L57.528-6.528H49.1L21.216-67.184V-6.528H31.28V0H3.128ZM146.472-81.6V-6.528h13.192V0h-42.84V-6.528h13.192V-81.6H116.824v-6.528h42.84V-81.6ZM165.92-6.528h10.608V-81.6H165.92v-6.528h24.344l38.76,60.656V-81.6H218.552v-6.528h28.56V-81.6H236.5V0H226.44L184.008-67.048v60.52h10.2V0H165.92ZM281.656-81.6V-6.528h13.192V0h-42.84V-6.528H265.2V-81.6H252.008v-6.528h42.84V-81.6ZM375.632,1.632q-14.008,0-22.916-6.392A36.724,36.724,0,0,1,339.8-21.012a55.211,55.211,0,0,1-4.012-21.012A64.176,64.176,0,0,1,340-65.416a39.425,39.425,0,0,1,13.124-17.612q8.908-6.732,22.508-6.732A44.6,44.6,0,0,1,391-87.448a72.449,72.449,0,0,1,11.968,5.712v18.36h-11.56q-1.088-10.608-5.712-15.5a15.241,15.241,0,0,0-11.56-4.9q-10.88,0-16.184,9.52t-5.3,24.072a74.82,74.82,0,0,0,3.332,23.6q3.332,10,9.18,15.3a19.126,19.126,0,0,0,13.192,5.3,20.367,20.367,0,0,0,13.328-4.692q5.712-4.692,7.616-14.212h7.072q-2.04,12.648-10.4,19.584T375.632,1.632Zm78.472,0q-14.008,0-22.916-6.256a35.941,35.941,0,0,1-12.92-16.048,54.346,54.346,0,0,1-4.012-20.808,64.339,64.339,0,0,1,4.284-23.528A40.494,40.494,0,0,1,431.8-82.892q8.976-6.868,22.3-6.868,13.736,0,22.78,6.256a36.026,36.026,0,0,1,13.124,16.116,53.711,53.711,0,0,1,4.08,20.74A64.339,64.339,0,0,1,489.8-23.12a40.494,40.494,0,0,1-13.26,17.884Q467.568,1.632,454.1,1.632Zm1.768-5.984q10.88,0,16.116-9.384t5.236-24.072q0-19.856-6.12-32.912t-18.5-13.056q-10.88,0-16.184,9.52t-5.3,24.208q0,19.856,6.188,32.776T455.872-4.352Zm86.5,5.848q-14.824,0-23.6-8.092T510-31.008V-81.6H499.392v-6.528h37.672V-81.6H526.456v55.216q0,10.064,4.828,15.3t13.532,5.236A20.118,20.118,0,0,0,554.608-8.3a18.145,18.145,0,0,0,7.14-7.072,21.5,21.5,0,0,0,2.652-10.88V-81.6H553.792v-6.528h28.7V-81.6H571.88v54.808q0,12.512-7.752,20.4T542.368,1.5Zm45.424-8.024H598.4V-81.6H587.792v-6.528h24.344L650.9-27.472V-81.6H640.424v-6.528h28.56V-81.6H658.376V0H648.312L605.88-67.048v60.52h10.2V0H587.792Zm100.64,0h12.92V-81.6h-12.24l-6.8,18.224h-8.84V-88.128h72.216v24.752h-8.84L729.912-81.6h-12.1V-6.528h12.92V0h-42.3Zm146.744,0V0H810.832L786.08-39.984h-7.616V-6.528h10.608V0H751.4V-6.528h10.608V-81.6H751.4v-6.528h40.936q14.008,0,21.216,6.8a22.4,22.4,0,0,1,7.208,17,22.822,22.822,0,0,1-4.624,14.144,24.936,24.936,0,0,1-12.784,8.7l22.44,34.952ZM778.464-46.512H790.84q5.168,0,8.84-5.236a21.351,21.351,0,0,0,3.672-12.58q0-7.616-3.536-12.444A10.714,10.714,0,0,0,790.84-81.6H778.464Zm107.712,5.848V-6.528h11.7V0H858.024V-6.528h11.7V-37.4l-21.9-44.2H837.216v-6.528h37.808V-81.6h-9.792l16.456,33.728L899.232-81.6h-10.88v-6.528h29.376V-81.6H907.12Zm36.04,34.136h10.608V-81.6H922.216v-6.528h26.248l28.424,62.152,26.52-62.152h26.248V-81.6h-10.608V-6.528h10.608V0H992.392V-6.528h10.2V-67.32L976.616-6.528h-8.432L940.3-67.184V-6.528h10.064V0H922.216Zm199.92,0V0h-37.672V-6.528h10.608l-8.3-24.616h-25.7L1052.5-6.528h10.064V0h-28.424V-6.528h10.336l29.1-81.6h9.656l29.1,81.6Zm-37.672-31.416L1074.4-67.728h-.68l-10.336,29.784Zm41.888,31.416h10.608V-81.6h-10.608v-6.528H1150.7l38.76,60.656V-81.6h-10.472v-6.528h28.56V-81.6h-10.608V0h-10.064L1144.44-67.048v60.52h10.2V0h-28.288Zm88.536-1.088a8.792,8.792,0,0,1,2.652-6.46,8.791,8.791,0,0,1,6.46-2.652,8.791,8.791,0,0,1,6.46,2.652,8.791,8.791,0,0,1,2.652,6.46,8.791,8.791,0,0,1-2.652,6.46A8.791,8.791,0,0,1,1224,1.5a8.791,8.791,0,0,1-6.46-2.652A8.792,8.792,0,0,1,1214.888-7.616Z" transform="translate(-3.128 89.76)" fill="#fff"/>
</svg>
