<svg xmlns="http://www.w3.org/2000/svg" width="536.601" height="39.871" viewBox="0 0 536.601 39.871">
  <path id="countryman-tit-sp" d="M3.128-53.449H7.756V-86.2H3.128v-2.848H14.579l12.4,27.115,11.57-27.115H50V-86.2H45.373v32.751H50V-50.6H33.743v-2.848h4.45V-79.97L26.861-53.449H23.182L11.019-79.911v26.462H15.41V-50.6H3.128ZM65.664-86.2v32.751h5.755V-50.6H52.73v-2.848h5.755V-86.2H52.73v-2.848h18.69V-86.2Zm8.485,32.751h4.628V-86.2H74.149v-2.848h10.62l16.91,26.462V-86.2H97.11v-2.848h12.46V-86.2h-4.628v35.6h-4.391L82.04-79.852v26.4h4.45V-50.6H74.149ZM124.641-86.2v32.751H130.4V-50.6h-18.69v-2.848h5.755V-86.2h-5.755v-2.848H130.4V-86.2Zm41,36.311a16.743,16.743,0,0,1-10-2.789,16.021,16.021,0,0,1-5.637-7.09,24.087,24.087,0,0,1-1.75-9.167,28,28,0,0,1,1.839-10.205,17.2,17.2,0,0,1,5.726-7.684,15.828,15.828,0,0,1,9.82-2.937,19.458,19.458,0,0,1,6.7,1.009,31.607,31.607,0,0,1,5.221,2.492v8.01h-5.043q-.475-4.628-2.492-6.764a6.649,6.649,0,0,0-5.043-2.136A7.572,7.572,0,0,0,157.926-83a21.385,21.385,0,0,0-2.314,10.5A32.641,32.641,0,0,0,157.066-62.2a15.355,15.355,0,0,0,4,6.675,8.344,8.344,0,0,0,5.755,2.314,8.886,8.886,0,0,0,5.815-2.047,10.313,10.313,0,0,0,3.323-6.2h3.085a13.4,13.4,0,0,1-4.539,8.544A13.439,13.439,0,0,1,165.639-49.889Zm34.235,0a17.01,17.01,0,0,1-10-2.729,15.68,15.68,0,0,1-5.637-7,23.709,23.709,0,0,1-1.75-9.078,28.069,28.069,0,0,1,1.869-10.264,17.666,17.666,0,0,1,5.785-7.8,15.542,15.542,0,0,1,9.731-3,17.071,17.071,0,0,1,9.938,2.729A15.717,15.717,0,0,1,215.538-80a23.433,23.433,0,0,1,1.78,9.048,28.069,28.069,0,0,1-1.869,10.264,17.666,17.666,0,0,1-5.785,7.8A15.639,15.639,0,0,1,199.874-49.889Zm.771-2.611a7.526,7.526,0,0,0,7.031-4.094,21.4,21.4,0,0,0,2.284-10.5q0-8.663-2.67-14.358t-8.069-5.7A7.572,7.572,0,0,0,192.161-83a21.522,21.522,0,0,0-2.314,10.561q0,8.663,2.7,14.3T200.645-52.5Zm37.735,2.551q-6.467,0-10.294-3.53t-3.827-10.65V-86.2h-4.628v-2.848h16.435V-86.2h-4.628v24.089q0,4.391,2.106,6.675a7.63,7.63,0,0,0,5.9,2.284,8.777,8.777,0,0,0,4.272-1.068,7.916,7.916,0,0,0,3.115-3.085,9.378,9.378,0,0,0,1.157-4.747V-86.2h-4.628v-2.848h12.519V-86.2h-4.628v23.911a12.158,12.158,0,0,1-3.382,8.9Q244.492-49.948,238.381-49.948Zm19.817-3.5h4.628V-86.2H258.2v-2.848h10.621l16.91,26.462V-86.2h-4.569v-2.848h12.46V-86.2h-4.628v35.6H284.6L266.089-79.852v26.4h4.45V-50.6H258.2Zm43.906,0h5.637V-86.2H302.4l-2.967,7.951h-3.857v-10.8h31.505v10.8h-3.857L320.2-86.2h-5.281v32.751h5.637V-50.6H302.1Zm64.02,0V-50.6H355.5L344.7-68.044h-3.323v14.6h4.628V-50.6H329.574v-2.848H334.2V-86.2h-4.628v-2.848h17.859q6.111,0,9.256,2.967a9.773,9.773,0,0,1,3.145,7.417,9.957,9.957,0,0,1-2.017,6.171,10.879,10.879,0,0,1-5.577,3.8l9.79,15.248ZM341.381-70.892h5.4a4.641,4.641,0,0,0,3.857-2.284,9.315,9.315,0,0,0,1.6-5.488,8.959,8.959,0,0,0-1.543-5.429,4.674,4.674,0,0,0-3.916-2.106h-5.4Zm46.991,2.551v14.892h5.1V-50.6H376.091v-2.848h5.1V-66.917L371.641-86.2h-4.628v-2.848h16.494V-86.2h-4.272l7.179,14.714L394.068-86.2h-4.747v-2.848h12.816V-86.2H397.51ZM404.1-53.449h4.628V-86.2H404.1v-2.848h11.451l12.4,27.115,11.57-27.115h11.451V-86.2H446.34v32.751h4.628V-50.6H434.711v-2.848h4.45V-79.97L427.829-53.449H424.15L411.987-79.911v26.462h4.391V-50.6H404.1Zm87.218,0V-50.6H474.879v-2.848h4.628l-3.619-10.739H464.674l-3.738,10.739h4.391V-50.6h-12.4v-2.848h4.509l12.7-35.6h4.213l12.7,35.6ZM474.879-67.154l-4.391-12.994h-.3l-4.509,12.994Zm18.274,13.706h4.628V-86.2h-4.628v-2.848h10.62l16.91,26.462V-86.2h-4.569v-2.848h12.46V-86.2h-4.628v35.6h-4.391L501.045-79.852v26.4h4.45V-50.6H493.153Zm38.625-.475a3.835,3.835,0,0,1,1.157-2.818,3.835,3.835,0,0,1,2.818-1.157,3.835,3.835,0,0,1,2.818,1.157,3.835,3.835,0,0,1,1.157,2.818,3.835,3.835,0,0,1-1.157,2.818,3.835,3.835,0,0,1-2.818,1.157,3.835,3.835,0,0,1-2.818-1.157A3.835,3.835,0,0,1,531.779-53.923Z" transform="translate(-3.128 89.76)" fill="#fff"/>
</svg>
