<svg xmlns="http://www.w3.org/2000/svg" width="439.152" height="166" viewBox="0 0 439.152 166">
  <g id="fair-tit-sp" transform="translate(-100 -798)">
    <g id="fair_name" data-name="fair name" transform="translate(-148.5 -248.027)">
      <path id="パス_57300" data-name="パス 57300" d="M4.056.288A4.1,4.1,0,0,1,1.98-.156,4.978,4.978,0,0,1,.6-1.392V-4.224H1.9a7.576,7.576,0,0,0,.648,2.856A1.589,1.589,0,0,0,4.032-.5q1.8,0,1.8-2.592V-14.688H3.84v-.864H9.816v.864H7.872V-3.744a3.9,3.9,0,0,1-1.1,3.012A3.848,3.848,0,0,1,4.056.288ZM22.32-.72v.7L19.032.144l-.048-1.2A3.8,3.8,0,0,1,15.936.264a3.8,3.8,0,0,1-2.664-.9,3.647,3.647,0,0,1-.984-2.82v-6.672H10.776v-.72h3.336v7.392a3.238,3.238,0,0,0,.612,2.208,2,2,0,0,0,1.548.672A3.064,3.064,0,0,0,18.144-1.2a2.462,2.462,0,0,0,.84-2.112v-6.816H17.448v-.72h3.336V-.72Zm12.888,0V0H30.336V-.72H31.9V-7.512a3.2,3.2,0,0,0-.564-2.016,1.91,1.91,0,0,0-1.6-.72,2.575,2.575,0,0,0-1.956.828A2.909,2.909,0,0,0,27-7.344V-.72h1.512V0h-4.9V-.72H25.2v-9.408H23.664v-.7l3.288-.192L27-9.768a3.382,3.382,0,0,1,1.3-.972,4.37,4.37,0,0,1,1.776-.348,3.567,3.567,0,0,1,2.676.972A3.772,3.772,0,0,1,33.7-7.368V-.72Zm2.928.984a1.389,1.389,0,0,1-1.02-.42,1.389,1.389,0,0,1-.42-1.02,1.389,1.389,0,0,1,.42-1.02,1.389,1.389,0,0,1,1.02-.42,1.389,1.389,0,0,1,1.02.42,1.389,1.389,0,0,1,.42,1.02,1.389,1.389,0,0,1-.42,1.02A1.389,1.389,0,0,1,38.136.264ZM56.4-.864V0H49.68V-.864h2.472V-13.656L49.776-12.12l-.5-.768,3.96-2.664h.816V-.864ZM66.768-8.4q3.36,1.08,3.36,3.984a4.124,4.124,0,0,1-.78,2.52A4.986,4.986,0,0,1,67.332-.288a6.259,6.259,0,0,1-2.58.552A5.191,5.191,0,0,1,61.98-.48a5.48,5.48,0,0,1-1.908-1.944l.768-.48A3.855,3.855,0,0,0,62.472-1.3a4.541,4.541,0,0,0,2.088.528,3.726,3.726,0,0,0,1.668-.384A3.092,3.092,0,0,0,67.5-2.328a3.569,3.569,0,0,0,.492-1.92A3.406,3.406,0,0,0,67.02-6.8a3.319,3.319,0,0,0-2.412-.948h-.6V-8.5a4.067,4.067,0,0,0,1.656-.36A3.128,3.128,0,0,0,67.008-10a3.413,3.413,0,0,0,.528-1.956,3.566,3.566,0,0,0-.672-2.2,2.278,2.278,0,0,0-1.944-.9A2.29,2.29,0,0,0,62.868-14a5.265,5.265,0,0,0-.78,2.6h-1.3v-2.88a4.749,4.749,0,0,1,1.776-1.152,6.4,6.4,0,0,1,2.352-.432,5.811,5.811,0,0,1,2.328.456,4.041,4.041,0,0,1,1.692,1.32,3.347,3.347,0,0,1,.636,2.04Q69.576-9.624,66.768-8.4Zm16.44,9.888a8.688,8.688,0,0,1-3.132-3.54,12.375,12.375,0,0,1-1.068-5.436A12.468,12.468,0,0,1,80.1-12.9a8.673,8.673,0,0,1,3.108-3.612l.36.336a7.409,7.409,0,0,0-2.052,3.408,16.319,16.319,0,0,0-.8,5.256,16.319,16.319,0,0,0,.8,5.256,7.409,7.409,0,0,0,2.052,3.408Zm6.384-1.2a7.414,7.414,0,0,1-2.748-.48,4.348,4.348,0,0,1-1.788-1.176V-4.2h1.3a4.771,4.771,0,0,0,1.08,2.868A3.009,3.009,0,0,0,89.64-.5a3.158,3.158,0,0,0,2.292-.78,2.791,2.791,0,0,0,.8-2.1,2.683,2.683,0,0,0-1.32-2.4l-4.272-2.76A5.128,5.128,0,0,1,85.62-9.96a3.414,3.414,0,0,1-.54-1.968,3.541,3.541,0,0,1,1.26-2.844,5.2,5.2,0,0,1,3.468-1.068,6.989,6.989,0,0,1,2.46.408,4.609,4.609,0,0,1,1.788,1.152v2.9h-1.3a5.126,5.126,0,0,0-.912-2.892,2.6,2.6,0,0,0-2.04-.8,2.8,2.8,0,0,0-2.2.768,2.683,2.683,0,0,0-.684,1.848,2.284,2.284,0,0,0,1.1,2.064l4.2,2.688a6.063,6.063,0,0,1,1.884,1.716,3.621,3.621,0,0,1,.564,2,4.1,4.1,0,0,1-.6,2.2A4.063,4.063,0,0,1,92.34-.264,6.258,6.258,0,0,1,89.592.288Zm16.7-.864a2.491,2.491,0,0,1-.8.6,2.4,2.4,0,0,1-1.068.24,1.825,1.825,0,0,1-1.056-.312,1.693,1.693,0,0,1-.648-.84,4.538,4.538,0,0,1-1.4.864,4.942,4.942,0,0,1-1.764.288,3.094,3.094,0,0,1-2.1-.7,2.27,2.27,0,0,1-.8-1.8q0-2.064,2.616-2.928l3.408-1.176V-7.488a4.14,4.14,0,0,0-.444-2.22,1.674,1.674,0,0,0-1.5-.66A1.9,1.9,0,0,0,99.12-9.6,3.853,3.853,0,0,0,98.5-7.392H97.272V-9.96a3.574,3.574,0,0,1,1.464-.828,6.488,6.488,0,0,1,1.992-.3,4.116,4.116,0,0,1,2.82.864,3.226,3.226,0,0,1,.972,2.544v6.336a.573.573,0,0,0,.648.648,1.022,1.022,0,0,0,.792-.384ZM100.32-.648a2.606,2.606,0,0,0,1.224-.288,3.843,3.843,0,0,0,1.128-.984V-5.544l-2.5.888a2.3,2.3,0,0,0-1.14.816,2.286,2.286,0,0,0-.4,1.368,1.83,1.83,0,0,0,.492,1.3A1.565,1.565,0,0,0,100.32-.648Zm13.656-.168a5.14,5.14,0,0,1-1.32.828,3.62,3.62,0,0,1-1.368.252,2.882,2.882,0,0,1-2.256-.852,3.555,3.555,0,0,1-.768-2.46v-7.08H107.04V-10.7l2.472-2.568h.576v2.424h3.624v.72h-3.624v7.2a2.887,2.887,0,0,0,.42,1.692,1.422,1.422,0,0,0,1.236.588,2.783,2.783,0,0,0,1.8-.72Zm1.08-15.7a8.688,8.688,0,0,1,3.132,3.54,12.375,12.375,0,0,1,1.068,5.436,12.468,12.468,0,0,1-1.092,5.412,8.673,8.673,0,0,1-3.108,3.612l-.36-.336a7.409,7.409,0,0,0,2.052-3.408,16.319,16.319,0,0,0,.8-5.256,16.319,16.319,0,0,0-.8-5.256,7.409,7.409,0,0,0-2.052-3.408Zm11.472,9.744h9.816v.936h-9.816Zm19.7,7.056a4.1,4.1,0,0,1-2.076-.444,4.978,4.978,0,0,1-1.38-1.236V-4.224h1.3a7.576,7.576,0,0,0,.648,2.856,1.589,1.589,0,0,0,1.488.864q1.8,0,1.8-2.592V-14.688h-1.992v-.864h5.976v.864h-1.944V-3.744a3.9,3.9,0,0,1-1.1,3.012A3.848,3.848,0,0,1,146.232.288ZM164.5-.72v.7l-3.288.168-.048-1.2a3.8,3.8,0,0,1-3.048,1.32,3.8,3.8,0,0,1-2.664-.9,3.647,3.647,0,0,1-.984-2.82v-6.672h-1.512v-.72h3.336v7.392a3.238,3.238,0,0,0,.612,2.208,2,2,0,0,0,1.548.672A3.064,3.064,0,0,0,160.32-1.2a2.462,2.462,0,0,0,.84-2.112v-6.816h-1.536v-.72h3.336V-.72Zm12.888,0V0h-4.872V-.72h1.56V-7.512a3.2,3.2,0,0,0-.564-2.016,1.91,1.91,0,0,0-1.6-.72,2.575,2.575,0,0,0-1.956.828,2.909,2.909,0,0,0-.78,2.076V-.72h1.512V0h-4.9V-.72h1.584v-9.408H165.84v-.7l3.288-.192.048,1.248a3.382,3.382,0,0,1,1.3-.972,4.37,4.37,0,0,1,1.776-.348,3.567,3.567,0,0,1,2.676.972,3.772,3.772,0,0,1,.948,2.748V-.72Zm2.928.984a1.389,1.389,0,0,1-1.02-.42,1.389,1.389,0,0,1-.42-1.02,1.389,1.389,0,0,1,.42-1.02,1.389,1.389,0,0,1,1.02-.42,1.389,1.389,0,0,1,1.02.42,1.389,1.389,0,0,1,.42,1.02,1.389,1.389,0,0,1-.42,1.02A1.389,1.389,0,0,1,180.312.264Zm19.512-2.136V0h-9.432V-.84q3.048-3.312,4.452-5a15.212,15.212,0,0,0,2.016-2.964,6.071,6.071,0,0,0,.612-2.664,3.946,3.946,0,0,0-.78-2.652,2.531,2.531,0,0,0-2-.9,2.37,2.37,0,0,0-2.088,1.056,5.074,5.074,0,0,0-.816,2.592h-1.3v-2.88a4.488,4.488,0,0,1,1.8-1.152,6.846,6.846,0,0,1,2.424-.432,6.361,6.361,0,0,1,2.316.432,4.149,4.149,0,0,1,1.848,1.4,4.016,4.016,0,0,1,.732,2.484,4.437,4.437,0,0,1-.576,2.172,13.816,13.816,0,0,1-1.908,2.5q-1.332,1.452-4.812,4.98Zm9.96-6.432a4.591,4.591,0,0,1,2.268,1.44,3.938,3.938,0,0,1,.876,2.64,4.011,4.011,0,0,1-.768,2.484,4.567,4.567,0,0,1-2,1.512,6.976,6.976,0,0,1-2.6.492,6.714,6.714,0,0,1-2.6-.5,4.63,4.63,0,0,1-1.968-1.512,4,4,0,0,1-.756-2.472,3.938,3.938,0,0,1,.876-2.64,4.591,4.591,0,0,1,2.268-1.44,4.023,4.023,0,0,1-1.8-1.272,3.551,3.551,0,0,1-.792-2.376,3.424,3.424,0,0,1,.672-2.148,4.135,4.135,0,0,1,1.764-1.32,6.217,6.217,0,0,1,2.364-.444,6.3,6.3,0,0,1,2.34.432,4.093,4.093,0,0,1,1.776,1.32,3.434,3.434,0,0,1,.684,2.16,3.551,3.551,0,0,1-.792,2.376A4.023,4.023,0,0,1,209.784-8.3Zm-2.208-6.768a2.635,2.635,0,0,0-2.028.876,3.326,3.326,0,0,0-.8,2.34,3.326,3.326,0,0,0,.8,2.34,2.635,2.635,0,0,0,2.028.876,2.625,2.625,0,0,0,2.04-.876,3.357,3.357,0,0,0,.792-2.34,3.326,3.326,0,0,0-.8-2.34A2.635,2.635,0,0,0,207.576-15.072Zm0,14.568a3.052,3.052,0,0,0,2.328-.972,3.827,3.827,0,0,0,.912-2.724,3.968,3.968,0,0,0-.84-2.664,2.982,2.982,0,0,0-2.4-.984,2.982,2.982,0,0,0-2.4.984,3.968,3.968,0,0,0-.84,2.664,3.827,3.827,0,0,0,.912,2.724A3.052,3.052,0,0,0,207.576-.5Zm17.808,1.992a8.688,8.688,0,0,1-3.132-3.54,12.375,12.375,0,0,1-1.068-5.436,12.468,12.468,0,0,1,1.092-5.412,8.673,8.673,0,0,1,3.108-3.612l.36.336a7.409,7.409,0,0,0-2.052,3.408,16.319,16.319,0,0,0-.8,5.256,16.319,16.319,0,0,0,.8,5.256,7.409,7.409,0,0,0,2.052,3.408Zm6.384-1.2a7.414,7.414,0,0,1-2.748-.48,4.348,4.348,0,0,1-1.788-1.176V-4.2h1.3a4.771,4.771,0,0,0,1.08,2.868,3.009,3.009,0,0,0,2.208.828,3.158,3.158,0,0,0,2.292-.78,2.791,2.791,0,0,0,.8-2.1,2.683,2.683,0,0,0-1.32-2.4l-4.272-2.76A5.128,5.128,0,0,1,227.8-9.96a3.414,3.414,0,0,1-.54-1.968,3.541,3.541,0,0,1,1.26-2.844,5.2,5.2,0,0,1,3.468-1.068,6.989,6.989,0,0,1,2.46.408,4.609,4.609,0,0,1,1.788,1.152v2.9h-1.3a5.126,5.126,0,0,0-.912-2.892,2.6,2.6,0,0,0-2.04-.8,2.8,2.8,0,0,0-2.2.768,2.683,2.683,0,0,0-.684,1.848,2.284,2.284,0,0,0,1.1,2.064l4.2,2.688a6.063,6.063,0,0,1,1.884,1.716,3.62,3.62,0,0,1,.564,2,4.1,4.1,0,0,1-.6,2.2,4.063,4.063,0,0,1-1.74,1.524A6.258,6.258,0,0,1,231.768.288ZM249.816-.72v.7l-3.288.168-.048-1.2a3.8,3.8,0,0,1-3.048,1.32,3.8,3.8,0,0,1-2.664-.9,3.647,3.647,0,0,1-.984-2.82v-6.672h-1.512v-.72h3.336v7.392a3.238,3.238,0,0,0,.612,2.208,2,2,0,0,0,1.548.672A3.064,3.064,0,0,0,245.64-1.2a2.462,2.462,0,0,0,.84-2.112v-6.816h-1.536v-.72h3.336V-.72Zm12.888,0V0h-4.872V-.72h1.56V-7.512a3.2,3.2,0,0,0-.564-2.016,1.91,1.91,0,0,0-1.6-.72,2.575,2.575,0,0,0-1.956.828,2.909,2.909,0,0,0-.78,2.076V-.72h1.512V0h-4.9V-.72H252.7v-9.408H251.16v-.7l3.288-.192.048,1.248a3.382,3.382,0,0,1,1.3-.972,4.37,4.37,0,0,1,1.776-.348,3.567,3.567,0,0,1,2.676.972,3.772,3.772,0,0,1,.948,2.748V-.72Zm1.248-15.792a8.688,8.688,0,0,1,3.132,3.54,12.375,12.375,0,0,1,1.068,5.436,12.468,12.468,0,0,1-1.092,5.412,8.673,8.673,0,0,1-3.108,3.612l-.36-.336a7.409,7.409,0,0,0,2.052-3.408,16.32,16.32,0,0,0,.8-5.256,16.32,16.32,0,0,0-.8-5.256,7.409,7.409,0,0,0-2.052-3.408Z" transform="translate(333.9 1210.54)" fill="#111"/>
      <g id="Title" transform="translate(11.5 1050.707)">
        <path id="パス_57299" data-name="パス 57299" d="M-212.3-2.3h3.744V-28.8H-212.3v-2.3h9.264l10.032,21.936,9.36-21.936h9.264v2.3h-3.744V-2.3h3.744V0h-13.152V-2.3h3.6V-23.76L-193.1-2.3h-2.976l-9.84-21.408V-2.3h3.552V0H-212.3Zm50.592-26.5V-2.3h4.656V0h-15.12V-2.3h4.656V-28.8h-4.656v-2.3h15.12v2.3Zm6.864,26.5h3.744V-28.8h-3.744v-2.3h8.592L-132.576-9.7V-28.8h-3.7v-2.3h10.08v2.3h-3.744V0h-3.552l-14.976-23.664V-2.3h3.6V0h-9.984ZM-114-28.8V-2.3h4.656V0h-15.12V-2.3h4.656V-28.8h-4.656v-2.3h15.12v2.3ZM-80.832.576A13.545,13.545,0,0,1-88.92-1.68a12.961,12.961,0,0,1-4.56-5.736A19.486,19.486,0,0,1-94.9-14.832a22.65,22.65,0,0,1,1.488-8.256A13.915,13.915,0,0,1-88.776-29.3a12.805,12.805,0,0,1,7.944-2.376,15.742,15.742,0,0,1,5.424.816,25.571,25.571,0,0,1,4.224,2.016v6.48h-4.08A9.2,9.2,0,0,0-77.28-27.84a5.379,5.379,0,0,0-4.08-1.728,6.126,6.126,0,0,0-5.712,3.36,17.3,17.3,0,0,0-1.872,8.5,26.407,26.407,0,0,0,1.176,8.328,12.422,12.422,0,0,0,3.24,5.4,6.75,6.75,0,0,0,4.656,1.872,7.188,7.188,0,0,0,4.7-1.656A8.343,8.343,0,0,0-72.48-8.784h2.5a10.844,10.844,0,0,1-3.672,6.912A10.872,10.872,0,0,1-80.832.576Zm27.7,0a13.761,13.761,0,0,1-8.088-2.208A12.685,12.685,0,0,1-65.784-7.3,19.181,19.181,0,0,1-67.2-14.64a22.708,22.708,0,0,1,1.512-8.3,14.292,14.292,0,0,1,4.68-6.312,12.574,12.574,0,0,1,7.872-2.424,13.81,13.81,0,0,1,8.04,2.208,12.715,12.715,0,0,1,4.632,5.688,18.957,18.957,0,0,1,1.44,7.32,22.708,22.708,0,0,1-1.512,8.3,14.292,14.292,0,0,1-4.68,6.312A12.652,12.652,0,0,1-53.136.576Zm.624-2.112a6.088,6.088,0,0,0,5.688-3.312,17.315,17.315,0,0,0,1.848-8.5,27.376,27.376,0,0,0-2.16-11.616q-2.16-4.608-6.528-4.608a6.126,6.126,0,0,0-5.712,3.36,17.412,17.412,0,0,0-1.872,8.544A26.787,26.787,0,0,0-59.064-6.1Q-56.88-1.536-52.512-1.536ZM-21.984.528a11.8,11.8,0,0,1-8.328-2.856q-3.1-2.856-3.1-8.616V-28.8h-3.744v-2.3h13.3v2.3H-27.6V-9.312a7.7,7.7,0,0,0,1.7,5.4A6.172,6.172,0,0,0-21.12-2.064a7.1,7.1,0,0,0,3.456-.864,6.4,6.4,0,0,0,2.52-2.5,7.586,7.586,0,0,0,.936-3.84V-28.8h-3.744v-2.3H-7.824v2.3h-3.744V-9.456a9.836,9.836,0,0,1-2.736,7.2Q-17.04.528-21.984.528ZM-5.952-2.3h3.744V-28.8H-5.952v-2.3H2.64L16.32-9.7V-28.8h-3.7v-2.3H22.7v2.3H18.96V0H15.408L.432-23.664V-2.3h3.6V0H-5.952Zm35.52,0h4.56V-28.8h-4.32l-2.4,6.432h-3.12V-31.1H49.776v8.736h-3.12L44.208-28.8H39.936V-2.3H44.5V0H29.568Zm51.792,0V0H72.768L64.032-14.112H61.344V-2.3h3.744V0h-13.3V-2.3h3.744V-28.8H51.792v-2.3H66.24q4.944,0,7.488,2.4a7.907,7.907,0,0,1,2.544,6,8.055,8.055,0,0,1-1.632,4.992,8.8,8.8,0,0,1-4.512,3.072L78.048-2.3ZM61.344-16.416h4.368a3.755,3.755,0,0,0,3.12-1.848,7.535,7.535,0,0,0,1.3-4.44A7.248,7.248,0,0,0,68.88-27.1a3.781,3.781,0,0,0-3.168-1.7H61.344ZM99.36-14.352V-2.3h4.128V0H89.424V-2.3h4.128V-13.2L85.824-28.8H82.08v-2.3H95.424v2.3H91.968l5.808,11.9,6.192-11.9h-3.84v-2.3H110.5v2.3h-3.744ZM112.08-2.3h3.744V-28.8H112.08v-2.3h9.264L131.376-9.168l9.36-21.936H150v2.3h-3.744V-2.3H150V0H136.848V-2.3h3.6V-23.76L131.28-2.3H128.3l-9.84-21.408V-2.3h3.552V0H112.08Zm70.56,0V0h-13.3V-2.3h3.744l-2.928-8.688h-9.072L158.064-2.3h3.552V0H151.584V-2.3h3.648L165.5-31.1h3.408L179.184-2.3Zm-13.3-11.088L165.792-23.9h-.24L161.9-13.392ZM184.128-2.3h3.744V-28.8h-3.744v-2.3h8.592L206.4-9.7V-28.8h-3.7v-2.3h10.08v2.3H209.04V0h-3.552L190.512-23.664V-2.3h3.6V0h-9.984Z" transform="translate(456.304 66)" fill="#111"/>
        <path id="パス_57301" data-name="パス 57301" d="M-210.1,56.576A15.009,15.009,0,0,1-216,55.5a9.428,9.428,0,0,1-3.648-2.424V47.264h4.032a10.316,10.316,0,0,0,1.92,5.448,4.676,4.676,0,0,0,3.7,1.656,4.808,4.808,0,0,0,3.624-1.416,5.064,5.064,0,0,0,1.368-3.672,5.272,5.272,0,0,0-2.5-4.608l-8.112-5.376a10.094,10.094,0,0,1-3-3.048,7.655,7.655,0,0,1-1.176-4.2,6.872,6.872,0,0,1,2.616-5.592A11.027,11.027,0,0,1-210,24.32a15.4,15.4,0,0,1,5.568.96,9.82,9.82,0,0,1,3.84,2.448v5.9h-4.08q-.384-3.984-1.728-5.592a4.4,4.4,0,0,0-3.552-1.608,4.317,4.317,0,0,0-3.336,1.272,4.652,4.652,0,0,0-1.176,3.288,4.537,4.537,0,0,0,2.16,3.984l8.5,5.568a9.958,9.958,0,0,1,3.264,3.432,8.7,8.7,0,0,1,1.152,4.344,7.23,7.23,0,0,1-1.32,4.272,8.692,8.692,0,0,1-3.744,2.928A14.02,14.02,0,0,1-210.1,56.576ZM-182.3,24.9a11.09,11.09,0,0,1,7.32,2.256,7.516,7.516,0,0,1,2.712,6.1,8.043,8.043,0,0,1-1.272,4.464A8.4,8.4,0,0,1-177.1,40.76a12.027,12.027,0,0,1-5.208,1.08h-4.9V53.7h3.744V56h-13.3V53.7h3.744V27.2h-3.744V24.9Zm-.528,14.64a3.755,3.755,0,0,0,3.12-1.848,7.535,7.535,0,0,0,1.3-4.44A7.264,7.264,0,0,0-179.64,28.9a3.762,3.762,0,0,0-3.192-1.7H-187.2V39.536Zm37.536,7.728V56h-24.768V53.7h3.744V27.2h-3.744V24.9h24.384v8.736h-3.36l-2.448-6.432h-9.024V38.384h4.992V34.64h2.88v9.888h-2.88V40.784h-4.992V53.7h9.456l2.4-6.432Zm16.944,9.312a13.545,13.545,0,0,1-8.088-2.256A12.961,12.961,0,0,1-141,48.584a19.486,19.486,0,0,1-1.416-7.416,22.65,22.65,0,0,1,1.488-8.256A13.915,13.915,0,0,1-136.3,26.7a12.8,12.8,0,0,1,7.944-2.376,15.742,15.742,0,0,1,5.424.816,25.571,25.571,0,0,1,4.224,2.016v6.48h-4.08A9.2,9.2,0,0,0-124.8,28.16a5.379,5.379,0,0,0-4.08-1.728,6.126,6.126,0,0,0-5.712,3.36,17.3,17.3,0,0,0-1.872,8.5,26.407,26.407,0,0,0,1.176,8.328,12.422,12.422,0,0,0,3.24,5.4,6.75,6.75,0,0,0,4.656,1.872,7.188,7.188,0,0,0,4.7-1.656A8.343,8.343,0,0,0-120,47.216h2.5a10.844,10.844,0,0,1-3.672,6.912A10.872,10.872,0,0,1-128.352,56.576ZM-104.5,27.2V53.7h4.656V56h-15.12V53.7h4.656V27.2h-4.656V24.9h15.12v2.3Zm37.3,26.5V56H-80.5V53.7h3.744l-2.928-8.688h-9.072L-91.776,53.7h3.552V56H-98.256V53.7h3.648l10.272-28.8h3.408l10.272,28.8ZM-80.5,42.608-84.048,32.1h-.24l-3.648,10.512ZM-65.712,53.7h3.744V27.2h-3.744V24.9h13.3v2.3H-56.16V53.7H-46.7l2.4-6.432h3.36V56H-65.712Zm49.152,2.88a15.009,15.009,0,0,1-5.9-1.08,9.427,9.427,0,0,1-3.648-2.424V47.264h4.032a10.316,10.316,0,0,0,1.92,5.448,4.676,4.676,0,0,0,3.7,1.656,4.808,4.808,0,0,0,3.624-1.416,5.064,5.064,0,0,0,1.368-3.672,5.272,5.272,0,0,0-2.5-4.608L-22.08,39.3a10.094,10.094,0,0,1-3-3.048,7.655,7.655,0,0,1-1.176-4.2,6.872,6.872,0,0,1,2.616-5.592,11.027,11.027,0,0,1,7.176-2.136,15.4,15.4,0,0,1,5.568.96,9.82,9.82,0,0,1,3.84,2.448v5.9h-4.08q-.384-3.984-1.728-5.592a4.4,4.4,0,0,0-3.552-1.608A4.317,4.317,0,0,0-19.752,27.7a4.652,4.652,0,0,0-1.176,3.288,4.537,4.537,0,0,0,2.16,3.984l8.5,5.568a9.959,9.959,0,0,1,3.264,3.432A8.7,8.7,0,0,1-5.856,48.32a7.23,7.23,0,0,1-1.32,4.272A8.692,8.692,0,0,1-10.92,55.52,14.02,14.02,0,0,1-16.56,56.576Zm38.112-9.312V56H-3.216V53.7H.528V27.2H-3.216V24.9H21.168v8.736h-3.36L15.36,27.2H6.336V38.384h4.992V34.64h2.88v9.888h-2.88V40.784H6.336V53.7h9.456l2.4-6.432Zm2.64,6.432h3.744V27.2H24.192V24.9h13.3v2.3H33.744V53.7H43.2l2.4-6.432h3.36V56H24.192Zm51.6-6.432V56H51.024V53.7h3.744V27.2H51.024V24.9H75.408v8.736h-3.36L69.6,27.2H60.576V38.384h4.992V34.64h2.88v9.888h-2.88V40.784H60.576V53.7h9.456l2.4-6.432Zm16.944,9.312a13.545,13.545,0,0,1-8.088-2.256,12.961,12.961,0,0,1-4.56-5.736,19.486,19.486,0,0,1-1.416-7.416,22.65,22.65,0,0,1,1.488-8.256A13.915,13.915,0,0,1,84.792,26.7a12.805,12.805,0,0,1,7.944-2.376,15.742,15.742,0,0,1,5.424.816,25.571,25.571,0,0,1,4.224,2.016v6.48H98.3a9.2,9.2,0,0,0-2.016-5.472,5.379,5.379,0,0,0-4.08-1.728,6.126,6.126,0,0,0-5.712,3.36,17.3,17.3,0,0,0-1.872,8.5A26.407,26.407,0,0,0,85.8,46.616a12.422,12.422,0,0,0,3.24,5.4A6.75,6.75,0,0,0,93.7,53.888a7.188,7.188,0,0,0,4.7-1.656,8.343,8.343,0,0,0,2.688-5.016h2.5a10.468,10.468,0,0,1-10.848,9.36Zm18.528-2.88h4.56V27.2H111.5l-2.4,6.432h-3.12V24.9h25.488v8.736h-3.12L125.9,27.2h-4.272V53.7h4.56V56H111.264Zm32.688-26.5V53.7h4.656V56h-15.12V53.7h4.656V27.2h-4.656V24.9h15.12v2.3ZM165.12,56.576a13.761,13.761,0,0,1-8.088-2.208,12.685,12.685,0,0,1-4.56-5.664,19.181,19.181,0,0,1-1.416-7.344,22.708,22.708,0,0,1,1.512-8.3,14.292,14.292,0,0,1,4.68-6.312,12.574,12.574,0,0,1,7.872-2.424,13.81,13.81,0,0,1,8.04,2.208,12.715,12.715,0,0,1,4.632,5.688,18.957,18.957,0,0,1,1.44,7.32,22.708,22.708,0,0,1-1.512,8.3,14.292,14.292,0,0,1-4.68,6.312A12.652,12.652,0,0,1,165.12,56.576Zm.624-2.112a6.088,6.088,0,0,0,5.688-3.312,17.315,17.315,0,0,0,1.848-8.5,27.376,27.376,0,0,0-2.16-11.616q-2.16-4.608-6.528-4.608a6.126,6.126,0,0,0-5.712,3.36,17.412,17.412,0,0,0-1.872,8.544A26.787,26.787,0,0,0,159.192,49.9Q161.376,54.464,165.744,54.464ZM181.68,53.7h3.744V27.2H181.68V24.9h8.592L203.952,46.3V27.2h-3.7V24.9h10.08v2.3h-3.744V56H203.04L188.064,32.336V53.7h3.6V56H181.68Zm31.248-.384a3.2,3.2,0,1,1,.936,2.28A3.1,3.1,0,0,1,212.928,53.312Z" transform="translate(456.792 65)" fill="#111"/>
      </g>
      <path id="パス_57298" data-name="パス 57298" d="M.792-.864h1.92V-14.688H.792v-.864H4.9l5.28,12.024,5.088-12.024h4.008v.864h-1.92V-.864h1.92V0h-5.88V-.864h1.92v-12.12L10.176-.888h-1.1L3.744-13.08V-.864H5.592V0H.792Zm26.808,0V0H20.856V-.864h2.352V-14.688H20.952v-.864H27.5v.864H25.248V-.864Zm1.584,0H31.1V-14.688h-1.92v-.864H33.1L40.32-3.888v-10.8H38.4v-.864h4.872v.864h-1.92V0h-1.1L32.136-13.224V-.864h1.92V0H29.184Zm22.176,0V0H44.616V-.864h2.352V-14.688H44.712v-.864h6.552v.864H49.008V-.864ZM68.522-16.24l-.6.62c-1.2.1-2.06.14-4.3.18l-1.26-.42.12,1.32c.7.02,1.22.04,1.56.04,1,0,2.3-.06,3.92-.2-.82,2.54-1.24,3.7-2.02,5.78a9.228,9.228,0,0,0-2.44.4,4.8,4.8,0,0,0-3.66,4.56c0,1.7,1.02,3,2.36,3a3.226,3.226,0,0,0,2.56-1.74,29.275,29.275,0,0,0,2.5-5.18,19.231,19.231,0,0,1,5.92,1.24c-.74,3.66-2.06,5.64-4.84,7.26l.26.5a8.231,8.231,0,0,0,4.34-2.74A9.871,9.871,0,0,0,74.8-5.98c.98.46,1.38.66,2.34,1.2l.58-1.36a19.828,19.828,0,0,0-2.66-1.18c.14-.84.2-1.24.3-2.18.26-.16.36-.3.36-.46s-.16-.3-.46-.36l-1.64-.38.02.86c-.1,1.02-.12,1.12-.24,2a27.881,27.881,0,0,0-5.76-1.04c.9-2.36,1.16-3.08,2.02-5.58.4-.24.56-.44.56-.66a.521.521,0,0,0-.3-.42ZM65.3-7.28c-1.7,3.98-2.42,5.12-3.26,5.12-.56,0-1.02-.7-1.02-1.58a4.031,4.031,0,0,1,2.16-3.4,5.875,5.875,0,0,1,2.36-.68Zm19.2-6.64c-1.7,0-2.4-.04-3.48-.1l-1.08-.46.1,1.36c1.44.1,2.14.12,3.38.12h.78a44.192,44.192,0,0,1-4.54,9.82l1.52.98A53.133,53.133,0,0,0,86-13.06c1.52-.06,3.18-.2,4.84-.42l.06-1.42-1.24.62c-1.42.16-2.24.24-3.34.3a2.378,2.378,0,0,1,.08-.28c.06-.18.24-.72.42-1.3.3-.2.36-.3.36-.44a.323.323,0,0,0-.28-.32l-1.76-.34-.16,1.02c-.1.4-.18.7-.22.84l-.24.82ZM97.262-2.06a12.213,12.213,0,0,0-4.88-2.66V-8.46c.32-.22.4-.3.4-.44,0-.2-.18-.32-.48-.32l-1.58-.02.06,1.48v2.72a10.78,10.78,0,0,0-1.76-.14c-2.6,0-4.16,1.12-4.16,3,0,1.9,1.86,3.28,4.42,3.28A3.04,3.04,0,0,0,92.1-.1a3.033,3.033,0,0,0,.28-1.5V-3.26a13.214,13.214,0,0,1,3.7,2.7Zm-6.48.38c0,.96-.56,1.42-1.74,1.42-1.84,0-3.2-.86-3.2-2.04a1.371,1.371,0,0,1,.36-.92,3.444,3.444,0,0,1,2.5-.74,7.347,7.347,0,0,1,2.08.28Zm6.72-9.88a9.912,9.912,0,0,0-3.92-.64,10.034,10.034,0,0,0-3.52.52l.04.56a14.914,14.914,0,0,1,6.28,1.2Zm9.84-3.98c.24-.2.32-.34.32-.5a.374.374,0,0,0-.38-.34H105.3l.34,1.2L106.9-9.1a18.048,18.048,0,0,0-2.48,1.48c-1.96,1.4-2.8,2.66-2.8,4.18a3.571,3.571,0,0,0,2.4,3.4A14.77,14.77,0,0,0,109.6.7a38.1,38.1,0,0,0,5.68-.34V-1.58a30.144,30.144,0,0,1-5.86.54c-4.52,0-6.44-.74-6.44-2.52,0-2.38,3.62-4.54,11.54-6.92a1.108,1.108,0,0,0,.54.18.364.364,0,0,0,.34-.32.691.691,0,0,0-.06-.24l-.7-1.62-.7.52c-1.56.6-3.06,1.16-4.48,1.72-.4.16-.68.26-.98.4Zm21.18-.7-.6.62c-1.2.1-2.06.14-4.3.18l-1.26-.42.12,1.32c.7.02,1.22.04,1.56.04,1,0,2.3-.06,3.92-.2-.82,2.54-1.24,3.7-2.02,5.78a9.228,9.228,0,0,0-2.44.4,4.8,4.8,0,0,0-3.66,4.56c0,1.7,1.02,3,2.36,3a3.226,3.226,0,0,0,2.56-1.74,29.275,29.275,0,0,0,2.5-5.18,19.231,19.231,0,0,1,5.92,1.24c-.74,3.66-2.06,5.64-4.84,7.26l.26.5a8.231,8.231,0,0,0,4.34-2.74,9.871,9.871,0,0,0,1.86-4.36c.98.46,1.38.66,2.34,1.2l.58-1.36a19.828,19.828,0,0,0-2.66-1.18c.14-.84.2-1.24.3-2.18.26-.16.36-.3.36-.46s-.16-.3-.46-.36l-1.64-.38.02.86c-.1,1.02-.12,1.12-.24,2a27.882,27.882,0,0,0-5.76-1.04c.9-2.36,1.16-3.08,2.02-5.58.4-.24.56-.44.56-.66a.521.521,0,0,0-.3-.42ZM125.3-7.28c-1.7,3.98-2.42,5.12-3.26,5.12-.56,0-1.02-.7-1.02-1.58a4.031,4.031,0,0,1,2.16-3.4,5.875,5.875,0,0,1,2.36-.68Zm18.2,3.14a8.23,8.23,0,0,1,1.88-2.18,8.045,8.045,0,0,1,5.08-1.84c2.26,0,3.66,1.16,3.66,3.02s-1.36,3.36-3.88,4.34a22.627,22.627,0,0,1-4.96,1.18l.08.68c3.54-.24,5.02-.46,6.56-1.04,2.7-1.02,4.2-2.8,4.2-5.02a3.865,3.865,0,0,0-1.18-2.84,5.931,5.931,0,0,0-4.18-1.36,8.929,8.929,0,0,0-6.8,2.9l.46-6.04c.28-.2.38-.32.38-.5s-.14-.32-.38-.34l-1.86-.2.14,1.04-.54,8.2Zm1.22-11.48a16.526,16.526,0,0,1,6.5,2.14l1.44-1.68a9.421,9.421,0,0,0-1.9-.66,19.565,19.565,0,0,0-4.28-.52c-.44,0-.84.02-1.7.06ZM167.182-4.4c-.46,1.82-1.08,3.04-1.56,3.04-.46,0-1.18-.94-1.74-2.22-.74-1.76-1.12-4.58-1.12-8.56v-1.28c.34-.24.44-.36.44-.56s-.2-.34-.5-.36l-1.8-.12.1,1.2c.02,2.58.04,3.96.04,4.14a18.829,18.829,0,0,0,1.2,6.3c.86,2.08,1.94,3.18,3.08,3.18,1.12,0,2.1-1.6,2.74-4.48Zm10.32.16c-.66-3.88-2.64-7.48-5.12-9.34l-.5.38a24.36,24.36,0,0,1,3.7,9.82Z" transform="translate(378.708 1062.688)" fill="#111"/>
    </g>
  </g>
</svg>
