<svg xmlns="http://www.w3.org/2000/svg" width="468.192" height="104.02" viewBox="0 0 468.192 104.02">
  <g id="fair-tit" transform="translate(-253.5 -1051.703)">
    <g id="fair_name" data-name="fair name" transform="translate(7 -2.22)">
      <path id="パス_57283" data-name="パス 57283" d="M.792-.864h1.92V-14.688H.792v-.864H4.9l5.28,12.024,5.088-12.024h4.008v.864h-1.92V-.864h1.92V0h-5.88V-.864h1.92v-12.12L10.176-.888h-1.1L3.744-13.08V-.864H5.592V0H.792ZM30.72-.576a2.491,2.491,0,0,1-.8.6,2.4,2.4,0,0,1-1.068.24,1.825,1.825,0,0,1-1.056-.312,1.693,1.693,0,0,1-.648-.84,4.538,4.538,0,0,1-1.4.864,4.942,4.942,0,0,1-1.764.288,3.094,3.094,0,0,1-2.1-.7,2.27,2.27,0,0,1-.8-1.8q0-2.064,2.616-2.928L27.1-6.336V-7.488a4.14,4.14,0,0,0-.444-2.22,1.674,1.674,0,0,0-1.5-.66,1.9,1.9,0,0,0-1.608.768,3.853,3.853,0,0,0-.624,2.208H21.7V-9.96a3.574,3.574,0,0,1,1.464-.828,6.488,6.488,0,0,1,1.992-.3,4.116,4.116,0,0,1,2.82.864,3.226,3.226,0,0,1,.972,2.544v6.336a.573.573,0,0,0,.648.648,1.022,1.022,0,0,0,.792-.384ZM24.744-.648a2.606,2.606,0,0,0,1.224-.288A3.843,3.843,0,0,0,27.1-1.92V-5.544l-2.5.888a2.3,2.3,0,0,0-1.14.816,2.286,2.286,0,0,0-.4,1.368,1.83,1.83,0,0,0,.492,1.3A1.565,1.565,0,0,0,24.744-.648Zm16.872-9.48H40.248L35.328,2.9Q34.392,5.4,32.5,5.4A3.59,3.59,0,0,1,30.12,4.392l.528-.672a2.7,2.7,0,0,0,1.8.84,1.708,1.708,0,0,0,1.164-.408,3.372,3.372,0,0,0,.828-1.368L35.5-.048l-4.1-10.08H29.976v-.72H34.92v.72H33.456l2.976,7.584,2.88-7.584h-1.44v-.72h3.744ZM42.5.264a1.389,1.389,0,0,1-1.02-.42,1.389,1.389,0,0,1-.42-1.02,1.389,1.389,0,0,1,.42-1.02,1.389,1.389,0,0,1,1.02-.42,1.389,1.389,0,0,1,1.02.42,1.389,1.389,0,0,1,.42,1.02,1.389,1.389,0,0,1-.42,1.02A1.389,1.389,0,0,1,42.5.264ZM62.016-1.872V0H52.584V-.84q3.048-3.312,4.452-5a15.212,15.212,0,0,0,2.016-2.964,6.071,6.071,0,0,0,.612-2.664,3.946,3.946,0,0,0-.78-2.652,2.531,2.531,0,0,0-2-.9,2.37,2.37,0,0,0-2.088,1.056,5.074,5.074,0,0,0-.816,2.592h-1.3v-2.88a4.488,4.488,0,0,1,1.8-1.152A6.846,6.846,0,0,1,56.9-15.84a6.361,6.361,0,0,1,2.316.432A4.149,4.149,0,0,1,61.068-14,4.016,4.016,0,0,1,61.8-11.52a4.437,4.437,0,0,1-.576,2.172,13.815,13.815,0,0,1-1.908,2.5Q57.984-5.4,54.5-1.872Zm13.056-13.68v.84L68.376,0H67.248l6.336-13.7h-6.72l-.84,2.328h-.84v-4.176Zm12.5,17.04a8.688,8.688,0,0,1-3.132-3.54,12.375,12.375,0,0,1-1.068-5.436A12.468,12.468,0,0,1,84.468-12.9a8.673,8.673,0,0,1,3.108-3.612l.36.336a7.409,7.409,0,0,0-2.052,3.408,16.319,16.319,0,0,0-.8,5.256,16.319,16.319,0,0,0,.8,5.256,7.409,7.409,0,0,0,2.052,3.408Zm23.856-16.176h-1.776L105.5,0h-1.1l-4.3-12.144L96.192,0h-1.1L90.7-14.688H88.8v-.864h6v.864H92.88L96.168-3.24l3.912-12.216h1.008L105.48-3.312l3.144-11.376h-1.9v-.864h4.7Zm4.656,3.576a4.038,4.038,0,0,1,3.048,1.224,4.447,4.447,0,0,1,1.176,3.216q0,.216-.048.744h-7.32A7.12,7.12,0,0,0,113.46-3.3a4.825,4.825,0,0,0,1.3,1.872,2.663,2.663,0,0,0,1.764.684,2.741,2.741,0,0,0,1.932-.8,3.419,3.419,0,0,0,1.044-2h.744a4.035,4.035,0,0,1-.7,1.956,4.134,4.134,0,0,1-1.572,1.368,4.635,4.635,0,0,1-2.124.492,4.421,4.421,0,0,1-2.448-.7,4.714,4.714,0,0,1-1.692-1.956A6.54,6.54,0,0,1,111.1-5.28a6.848,6.848,0,0,1,.636-2.988,5.055,5.055,0,0,1,1.776-2.088A4.563,4.563,0,0,1,116.088-11.112Zm-.264.72a2.412,2.412,0,0,0-1.98,1,4.676,4.676,0,0,0-.876,2.676h5.208a4.792,4.792,0,0,0-.564-2.712A1.99,1.99,0,0,0,115.824-10.392Zm15.96-6.192V0H129.96V-1.008a2.863,2.863,0,0,1-1.212.948,4.318,4.318,0,0,1-1.716.324,4.256,4.256,0,0,1-3.408-1.488,5.962,5.962,0,0,1-1.272-4.008,7.319,7.319,0,0,1,.6-3.036,5.011,5.011,0,0,1,1.668-2.088,4.112,4.112,0,0,1,2.436-.756,4.116,4.116,0,0,1,1.608.312,3.672,3.672,0,0,1,1.3.912v-5.784h-1.728v-.7ZM127.44-.552a2.321,2.321,0,0,0,1.812-.792,3.015,3.015,0,0,0,.708-2.088V-7.416a2.879,2.879,0,0,0-.78-2.112,2.751,2.751,0,0,0-2.052-.792,2.357,2.357,0,0,0-2.136,1.092,6.236,6.236,0,0,0-.7,3.3,7.912,7.912,0,0,0,.828,3.936A2.56,2.56,0,0,0,127.44-.552Zm6.744-15.96a8.687,8.687,0,0,1,3.132,3.54,12.375,12.375,0,0,1,1.068,5.436,12.468,12.468,0,0,1-1.092,5.412,8.673,8.673,0,0,1-3.108,3.612l-.36-.336a7.409,7.409,0,0,0,2.052-3.408,16.319,16.319,0,0,0,.8-5.256,16.319,16.319,0,0,0-.8-5.256,7.409,7.409,0,0,0-2.052-3.408Zm11.472,9.744h9.816v.936h-9.816ZM165.36.288a4.1,4.1,0,0,1-2.076-.444,4.978,4.978,0,0,1-1.38-1.236V-4.224h1.3a7.576,7.576,0,0,0,.648,2.856,1.589,1.589,0,0,0,1.488.864q1.8,0,1.8-2.592V-14.688h-1.992v-.864h5.976v.864h-1.944V-3.744a3.9,3.9,0,0,1-1.1,3.012A3.848,3.848,0,0,1,165.36.288ZM183.624-.72v.7l-3.288.168-.048-1.2A3.8,3.8,0,0,1,177.24.264a3.8,3.8,0,0,1-2.664-.9,3.647,3.647,0,0,1-.984-2.82v-6.672H172.08v-.72h3.336v7.392a3.238,3.238,0,0,0,.612,2.208,2,2,0,0,0,1.548.672,3.064,3.064,0,0,0,1.872-.624,2.462,2.462,0,0,0,.84-2.112v-6.816h-1.536v-.72h3.336V-.72Zm12.888,0V0H191.64V-.72h1.56V-7.512a3.2,3.2,0,0,0-.564-2.016,1.91,1.91,0,0,0-1.6-.72,2.575,2.575,0,0,0-1.956.828,2.909,2.909,0,0,0-.78,2.076V-.72h1.512V0h-4.9V-.72H186.5v-9.408h-1.536v-.7l3.288-.192.048,1.248a3.382,3.382,0,0,1,1.3-.972,4.37,4.37,0,0,1,1.776-.348,3.567,3.567,0,0,1,2.676.972A3.772,3.772,0,0,1,195-7.368V-.72Zm2.928.984a1.389,1.389,0,0,1-1.02-.42,1.389,1.389,0,0,1-.42-1.02,1.389,1.389,0,0,1,.42-1.02,1.389,1.389,0,0,1,1.02-.42,1.389,1.389,0,0,1,1.02.42,1.389,1.389,0,0,1,.42,1.02,1.389,1.389,0,0,1-.42,1.02A1.389,1.389,0,0,1,199.44.264ZM217.7-.864V0h-6.72V-.864h2.472V-13.656L211.08-12.12l-.5-.768,3.96-2.664h.816V-.864Zm13.824-1.008V0H222.1V-.84q3.048-3.312,4.452-5a15.212,15.212,0,0,0,2.016-2.964,6.071,6.071,0,0,0,.612-2.664,3.946,3.946,0,0,0-.78-2.652,2.531,2.531,0,0,0-2-.9,2.37,2.37,0,0,0-2.088,1.056,5.074,5.074,0,0,0-.816,2.592h-1.3v-2.88a4.488,4.488,0,0,1,1.8-1.152,6.846,6.846,0,0,1,2.424-.432,6.361,6.361,0,0,1,2.316.432A4.149,4.149,0,0,1,230.58-14a4.016,4.016,0,0,1,.732,2.484,4.437,4.437,0,0,1-.576,2.172,13.815,13.815,0,0,1-1.908,2.5Q227.5-5.4,224.016-1.872Zm12.984,3.36a8.688,8.688,0,0,1-3.132-3.54,12.375,12.375,0,0,1-1.068-5.436A12.468,12.468,0,0,1,241.4-12.9a8.673,8.673,0,0,1,3.108-3.612l.36.336a7.409,7.409,0,0,0-2.052,3.408,16.319,16.319,0,0,0-.8,5.256,16.319,16.319,0,0,0,.8,5.256,7.409,7.409,0,0,0,2.052,3.408Zm13.56-17.04v4.176h-.912l-1.272-3.312h-5.544v6.024h3.768v-1.848h1.1V-5.9h-1.1V-7.752h-3.768V-.864h2.064V0h-6.024V-.864h1.92V-14.688h-1.92v-.864Zm7.512,4.44a2.689,2.689,0,0,1,1.008.192,1.772,1.772,0,0,1,.72.48V-8.3h-1.056a1.462,1.462,0,0,0-1.608-1.464,1.5,1.5,0,0,0-1.32.888,4.21,4.21,0,0,0-.5,2.112V-.72h2.064V0H259.44V-.72h1.584v-9.408h-1.56v-.7l3.288-.192.024,1.728A3.038,3.038,0,0,1,263.94-10.6,3.01,3.01,0,0,1,265.584-11.112ZM268.224-.72h1.944v-9.408h-1.752v-.7l3.552-.24V-.72h1.944V0h-5.688Zm1.224-13.608a1.456,1.456,0,0,1,.444-1.068,1.456,1.456,0,0,1,1.068-.444,1.456,1.456,0,0,1,1.068.444,1.456,1.456,0,0,1,.444,1.068,1.456,1.456,0,0,1-.444,1.068,1.456,1.456,0,0,1-1.068.444,1.456,1.456,0,0,1-1.068-.444A1.456,1.456,0,0,1,269.448-14.328Zm5.832-2.184a8.688,8.688,0,0,1,3.132,3.54,12.375,12.375,0,0,1,1.068,5.436,12.468,12.468,0,0,1-1.092,5.412,8.673,8.673,0,0,1-3.108,3.612l-.36-.336a7.409,7.409,0,0,0,2.052-3.408,16.32,16.32,0,0,0,.8-5.256,16.32,16.32,0,0,0-.8-5.256,7.409,7.409,0,0,0-2.052-3.408Z" transform="translate(340.708 1152.543)" fill="#fff"/>
      <g id="Title" transform="translate(246.5 1052.383)">
        <path id="パス_57282" data-name="パス 57282" d="M25.872-8.736V0H1.1V-2.3H4.848V-28.8H1.1v-2.3H25.488v8.736h-3.36L19.68-28.8H10.656v11.184h4.992V-21.36h2.88v9.888h-2.88v-3.744H10.656V-2.3h9.456l2.4-6.432ZM58.944-2.3V0h-13.3V-2.3h3.744l-2.928-8.688H37.392L34.368-2.3H37.92V0H27.888V-2.3h3.648L41.808-31.1h3.408L55.488-2.3Zm-13.3-11.088L42.1-23.9h-.24L38.208-13.392ZM90-2.3V0H81.408L72.672-14.112H69.984V-2.3h3.744V0h-13.3V-2.3h3.744V-28.8H60.432v-2.3H74.88q4.944,0,7.488,2.4a7.906,7.906,0,0,1,2.544,6,8.055,8.055,0,0,1-1.632,4.992,8.8,8.8,0,0,1-4.512,3.072L86.688-2.3ZM69.984-16.416h4.368a3.755,3.755,0,0,0,3.12-1.848,7.535,7.535,0,0,0,1.3-4.44A7.248,7.248,0,0,0,77.52-27.1a3.781,3.781,0,0,0-3.168-1.7H69.984ZM91.344-2.3h3.744V-28.8H91.344v-2.3h13.3v2.3H100.9V-2.3h9.456l2.4-6.432h3.36V0H91.344Zm38.88-12.048V-2.3h4.128V0H120.288V-2.3h4.128V-13.2l-7.728-15.6h-3.744v-2.3h13.344v2.3h-3.456l5.808,11.9,6.192-11.9h-3.84v-2.3H141.36v2.3h-3.744ZM165.264.576a15.009,15.009,0,0,1-5.9-1.08,9.428,9.428,0,0,1-3.648-2.424V-8.736h4.032a10.316,10.316,0,0,0,1.92,5.448,4.676,4.676,0,0,0,3.7,1.656,4.808,4.808,0,0,0,3.624-1.416,5.064,5.064,0,0,0,1.368-3.672,5.272,5.272,0,0,0-2.5-4.608L159.744-16.7a10.094,10.094,0,0,1-3-3.048,7.655,7.655,0,0,1-1.176-4.2,6.872,6.872,0,0,1,2.616-5.592,11.027,11.027,0,0,1,7.176-2.136,15.4,15.4,0,0,1,5.568.96,9.82,9.82,0,0,1,3.84,2.448v5.9h-4.08q-.384-3.984-1.728-5.592a4.4,4.4,0,0,0-3.552-1.608,4.317,4.317,0,0,0-3.336,1.272,4.652,4.652,0,0,0-1.176,3.288,4.537,4.537,0,0,0,2.16,3.984l8.5,5.568a9.958,9.958,0,0,1,3.264,3.432,8.7,8.7,0,0,1,1.152,4.344,7.23,7.23,0,0,1-1.32,4.272A8.691,8.691,0,0,1,170.9-.48,14.02,14.02,0,0,1,165.264.576ZM193.44.528a11.8,11.8,0,0,1-8.328-2.856q-3.1-2.856-3.1-8.616V-28.8h-3.744v-2.3h13.3v2.3h-3.744V-9.312a7.7,7.7,0,0,0,1.7,5.4A6.172,6.172,0,0,0,194.3-2.064a7.1,7.1,0,0,0,3.456-.864,6.4,6.4,0,0,0,2.52-2.5,7.586,7.586,0,0,0,.936-3.84V-28.8h-3.744v-2.3H207.6v2.3h-3.744V-9.456a9.836,9.836,0,0,1-2.736,7.2Q198.384.528,193.44.528ZM209.472-2.3h3.744V-28.8h-3.744v-2.3h9.264L228.768-9.168l9.36-21.936h9.264v2.3h-3.744V-2.3h3.744V0H234.24V-2.3h3.6V-23.76L228.672-2.3H225.7l-9.84-21.408V-2.3h3.552V0h-9.936Zm40.128,0h3.744V-28.8H249.6v-2.3h9.264L268.9-9.168l9.36-21.936h9.264v2.3h-3.744V-2.3h3.744V0H274.368V-2.3h3.6V-23.76L268.8-2.3h-2.976l-9.84-21.408V-2.3h3.552V0H249.6Zm64.9-6.432V0H289.728V-2.3h3.744V-28.8h-3.744v-2.3h24.384v8.736h-3.36L308.3-28.8H299.28v11.184h4.992V-21.36h2.88v9.888h-2.88v-3.744H299.28V-2.3h9.456l2.4-6.432ZM346.7-2.3V0h-8.592l-8.736-14.112h-2.688V-2.3h3.744V0h-13.3V-2.3h3.744V-28.8h-3.744v-2.3h14.448q4.944,0,7.488,2.4a7.906,7.906,0,0,1,2.544,6,8.055,8.055,0,0,1-1.632,4.992,8.8,8.8,0,0,1-4.512,3.072L343.392-2.3ZM326.688-16.416h4.368a3.755,3.755,0,0,0,3.12-1.848,7.536,7.536,0,0,0,1.3-4.44,7.248,7.248,0,0,0-1.248-4.392,3.781,3.781,0,0,0-3.168-1.7h-4.368ZM384.432-31.1v8.736h-3.36L378.624-28.8H369.6v11.184h4.992V-21.36h2.88v9.888h-2.88v-3.744H369.6V-2.3h3.744V0h-13.3V-2.3h3.744V-28.8h-3.744v-2.3Zm27.84,28.8V0h-13.3V-2.3h3.744l-2.928-8.688H390.72L387.7-2.3h3.552V0H381.216V-2.3h3.648l10.272-28.8h3.408L408.816-2.3Zm-13.3-11.088L395.424-23.9h-.24l-3.648,10.512ZM424.224-28.8V-2.3h4.656V0H413.76V-2.3h4.656V-28.8H413.76v-2.3h15.12v2.3ZM460.656-2.3V0h-8.592l-8.736-14.112H440.64V-2.3h3.744V0h-13.3V-2.3h3.744V-28.8h-3.744v-2.3h14.448q4.944,0,7.488,2.4a7.907,7.907,0,0,1,2.544,6,8.055,8.055,0,0,1-1.632,4.992,8.8,8.8,0,0,1-4.512,3.072L457.344-2.3ZM440.64-16.416h4.368a3.755,3.755,0,0,0,3.12-1.848,7.536,7.536,0,0,0,1.3-4.44,7.248,7.248,0,0,0-1.248-4.392,3.781,3.781,0,0,0-3.168-1.7H440.64ZM462.864-2.688a3.1,3.1,0,0,1,.936-2.28,3.1,3.1,0,0,1,2.28-.936,3.1,3.1,0,0,1,2.28.936,3.1,3.1,0,0,1,.936,2.28,3.1,3.1,0,0,1-.936,2.28,3.1,3.1,0,0,1-2.28.936,3.1,3.1,0,0,1-2.28-.936A3.1,3.1,0,0,1,462.864-2.688Z" transform="translate(-1.104 67)" fill="#fff"/>
      </g>
    </g>
    <path id="パス_57281" data-name="パス 57281" d="M.792-.864h1.92V-14.688H.792v-.864H4.9l5.28,12.024,5.088-12.024h4.008v.864h-1.92V-.864h1.92V0h-5.88V-.864h1.92v-12.12L10.176-.888h-1.1L3.744-13.08V-.864H5.592V0H.792Zm26.808,0V0H20.856V-.864h2.352V-14.688H20.952v-.864H27.5v.864H25.248V-.864Zm1.584,0H31.1V-14.688h-1.92v-.864H33.1L40.32-3.888v-10.8H38.4v-.864h4.872v.864h-1.92V0h-1.1L32.136-13.224V-.864h1.92V0H29.184Zm22.176,0V0H44.616V-.864h2.352V-14.688H44.712v-.864h6.552v.864H49.008V-.864ZM68.032-16.24l-.6.62c-1.2.1-2.06.14-4.3.18l-1.26-.42.12,1.32c.7.02,1.22.04,1.56.04,1,0,2.3-.06,3.92-.2-.82,2.54-1.24,3.7-2.02,5.78a9.228,9.228,0,0,0-2.44.4,4.8,4.8,0,0,0-3.66,4.56c0,1.7,1.02,3,2.36,3a3.226,3.226,0,0,0,2.56-1.74,29.275,29.275,0,0,0,2.5-5.18,19.231,19.231,0,0,1,5.92,1.24c-.74,3.66-2.06,5.64-4.84,7.26l.26.5a8.231,8.231,0,0,0,4.34-2.74,9.871,9.871,0,0,0,1.86-4.36c.98.46,1.38.66,2.34,1.2l.58-1.36a19.828,19.828,0,0,0-2.66-1.18c.14-.84.2-1.24.3-2.18.26-.16.36-.3.36-.46s-.16-.3-.46-.36l-1.64-.38.02.86c-.1,1.02-.12,1.12-.24,2a27.881,27.881,0,0,0-5.76-1.04c.9-2.36,1.16-3.08,2.02-5.58.4-.24.56-.44.56-.66a.521.521,0,0,0-.3-.42Zm-3.22,8.96c-1.7,3.98-2.42,5.12-3.26,5.12-.56,0-1.02-.7-1.02-1.58a4.031,4.031,0,0,1,2.16-3.4,5.875,5.875,0,0,1,2.36-.68Zm19.2-6.64c-1.7,0-2.4-.04-3.48-.1l-1.08-.46.1,1.36c1.44.1,2.14.12,3.38.12h.78a44.192,44.192,0,0,1-4.54,9.82l1.52.98a53.133,53.133,0,0,0,4.82-10.86c1.52-.06,3.18-.2,4.84-.42l.06-1.42-1.24.62c-1.42.16-2.24.24-3.34.3a2.378,2.378,0,0,1,.08-.28c.06-.18.24-.72.42-1.3.3-.2.36-.3.36-.44a.323.323,0,0,0-.28-.32l-1.76-.34-.16,1.02c-.1.4-.18.7-.22.84l-.24.82ZM96.772-2.06a12.213,12.213,0,0,0-4.88-2.66V-8.46c.32-.22.4-.3.4-.44,0-.2-.18-.32-.48-.32l-1.58-.02.06,1.48v2.72a10.78,10.78,0,0,0-1.76-.14c-2.6,0-4.16,1.12-4.16,3,0,1.9,1.86,3.28,4.42,3.28a3.04,3.04,0,0,0,2.82-1.2,3.033,3.033,0,0,0,.28-1.5V-3.26a13.214,13.214,0,0,1,3.7,2.7Zm-6.48.38c0,.96-.56,1.42-1.74,1.42-1.84,0-3.2-.86-3.2-2.04a1.371,1.371,0,0,1,.36-.92,3.444,3.444,0,0,1,2.5-.74,7.347,7.347,0,0,1,2.08.28Zm6.72-9.88a9.912,9.912,0,0,0-3.92-.64,10.034,10.034,0,0,0-3.52.52l.04.56a14.914,14.914,0,0,1,6.28,1.2Zm9.84-3.98c.24-.2.32-.34.32-.5a.374.374,0,0,0-.38-.34h-1.98l.34,1.2,1.26,6.08a18.048,18.048,0,0,0-2.48,1.48c-1.96,1.4-2.8,2.66-2.8,4.18a3.571,3.571,0,0,0,2.4,3.4,14.77,14.77,0,0,0,5.58.74,38.1,38.1,0,0,0,5.68-.34V-1.58a30.144,30.144,0,0,1-5.86.54c-4.52,0-6.44-.74-6.44-2.52,0-2.38,3.62-4.54,11.54-6.92a1.108,1.108,0,0,0,.54.18.364.364,0,0,0,.34-.32.691.691,0,0,0-.06-.24l-.7-1.62-.7.52c-1.56.6-3.06,1.16-4.48,1.72-.4.16-.68.26-.98.4Zm21.18-.7-.6.62c-1.2.1-2.06.14-4.3.18l-1.26-.42.12,1.32c.7.02,1.22.04,1.56.04,1,0,2.3-.06,3.92-.2-.82,2.54-1.24,3.7-2.02,5.78a9.228,9.228,0,0,0-2.44.4,4.8,4.8,0,0,0-3.66,4.56c0,1.7,1.02,3,2.36,3a3.226,3.226,0,0,0,2.56-1.74,29.275,29.275,0,0,0,2.5-5.18,19.231,19.231,0,0,1,5.92,1.24c-.74,3.66-2.06,5.64-4.84,7.26l.26.5a8.231,8.231,0,0,0,4.34-2.74,9.871,9.871,0,0,0,1.86-4.36c.98.46,1.38.66,2.34,1.2l.58-1.36a19.827,19.827,0,0,0-2.66-1.18c.14-.84.2-1.24.3-2.18.26-.16.36-.3.36-.46s-.16-.3-.46-.36l-1.64-.38.02.86c-.1,1.02-.12,1.12-.24,2a27.882,27.882,0,0,0-5.76-1.04c.9-2.36,1.16-3.08,2.02-5.58.4-.24.56-.44.56-.66a.521.521,0,0,0-.3-.42Zm-3.22,8.96c-1.7,3.98-2.42,5.12-3.26,5.12-.56,0-1.02-.7-1.02-1.58a4.031,4.031,0,0,1,2.16-3.4,5.875,5.875,0,0,1,2.36-.68Zm18.2,3.14a8.23,8.23,0,0,1,1.88-2.18,8.045,8.045,0,0,1,5.08-1.84c2.26,0,3.66,1.16,3.66,3.02s-1.36,3.36-3.88,4.34a22.627,22.627,0,0,1-4.96,1.18l.08.68c3.54-.24,5.02-.46,6.56-1.04,2.7-1.02,4.2-2.8,4.2-5.02a3.865,3.865,0,0,0-1.18-2.84,5.931,5.931,0,0,0-4.18-1.36,8.929,8.929,0,0,0-6.8,2.9l.46-6.04c.28-.2.38-.32.38-.5s-.14-.32-.38-.34l-1.86-.2.14,1.04-.54,8.2Zm1.22-11.48a16.526,16.526,0,0,1,6.5,2.14l1.44-1.68a9.421,9.421,0,0,0-1.9-.66,19.565,19.565,0,0,0-4.28-.52c-.44,0-.84.02-1.7.06ZM166.692-4.4c-.46,1.82-1.08,3.04-1.56,3.04-.46,0-1.18-.94-1.74-2.22-.74-1.76-1.12-4.58-1.12-8.56v-1.28c.34-.24.44-.36.44-.56s-.2-.34-.5-.36l-1.8-.12.1,1.2c.02,2.58.04,3.96.04,4.14a18.829,18.829,0,0,0,1.2,6.3c.86,2.08,1.94,3.18,3.08,3.18,1.12,0,2.1-1.6,2.74-4.48Zm10.32.16c-.66-3.88-2.64-7.48-5.12-9.34l-.5.38a24.36,24.36,0,0,1,3.7,9.82Z" transform="translate(398.708 1068.363)" fill="#fff"/>
  </g>
</svg>
