<svg xmlns="http://www.w3.org/2000/svg" width="370.896" height="172.256" viewBox="0 0 370.896 172.256">
  <g id="logo-tit-sp" transform="translate(-60.144 2920)">
    <path id="パス_57284" data-name="パス 57284" d="M29.024-20.864l1.28.256V-22.4l-1.28.256H13.28c.352-.9.544-1.5.928-2.72.608-.224.864-.448.864-.768,0-.288-.224-.48-.7-.608l-2.688-.64a46.027,46.027,0,0,1-1.344,4.736H2.944L1.7-22.4v1.792l1.248-.256H9.888c-.736,1.824-.768,1.952-1.92,4.352l-.032.1-1.408-.256v2.912A42.012,42.012,0,0,1,1.28-6.432l.544.768a28.025,28.025,0,0,0,4.7-4.448V2.368h2.56v-16a41.138,41.138,0,0,0,3.68-7.232ZM22.272-11.2v-6.464c.416-.288.512-.416.512-.64,0-.288-.224-.416-.672-.416H19.584v7.52H13.5l-1.28-.256v1.792L13.5-9.92h6.08V-.256H11.84L10.592-.512V1.28l1.248-.256h17.6l1.28.256V-.512l-1.28.256H22.272V-9.92H28.1l1.28.256v-1.792L28.1-11.2Zm28.16-12.7v-1.92c.416-.288.512-.416.512-.64,0-.288-.224-.416-.672-.416H47.52V-23.9H35.776v5.824c0,12.032-.416,15.328-2.5,19.9l.736.416a16.4,16.4,0,0,0,3.648-7.2c.544-2.112.768-5.92.8-13.12v-4.544h22.56l1.28.256V-24.16l-1.28.256ZM49.216-2.048V2.24h2.336V-2.048H61.12l1.28.256V-3.584l-1.28.256H51.552V-5.792h8.192V-15.36H51.552v-2.4h9.12l1.28.256V-19.3l-1.28.256h-9.12v-1.472c.416-.288.512-.416.512-.64,0-.288-.224-.416-.672-.416H49.216v2.528H41.184L39.936-19.3V-17.5l1.248-.256h8.032v2.4h-7.84v9.568h7.84v2.464H40.064l-1.28-.256v1.792l1.28-.256Zm0-5.024h-5.44v-2.944h5.44Zm0-4.224h-5.44V-14.08h5.44Zm2.336-2.784H57.28V-11.3H51.552Zm0,4.064H57.28v2.944H51.552Zm31.808-6.3H75.872l-1.248-.256v1.792l1.248-.256H93.44l1.28.256v-1.792l-1.28.256H85.888v-2.656H91.3l1.28.256v-1.792l-1.28.256H85.888v-2.528H92.32l1.248.256V-24.32l-1.248.256H85.888v-1.568c.416-.288.512-.416.512-.64,0-.288-.224-.416-.672-.416H83.36v2.624H77.184L75.9-24.32v1.792l1.28-.256H83.36v2.528h-4.9l-1.28-.256v1.792l1.28-.256h4.9ZM85.152.864V2.208h4.832c1.6,0,2.272-.672,2.272-2.3V-12.864H77.216V2.368h2.5V-3.648H89.728v3.04c0,1.024-.448,1.472-1.5,1.472Zm-5.44-5.792V-7.68H89.728v2.752Zm0-4.032v-2.624H89.728V-8.96ZM67.04-11.3c.9-1.952,1.152-3.456,1.152-6.624,0-1.088-.032-2.016-.16-4.256H66.944a25,25,0,0,1-1.664,8.352Zm2.848-15.392V2.368h2.528v-28c.384-.288.512-.416.512-.64,0-.288-.224-.416-.672-.416Zm2.944,5.024a17.913,17.913,0,0,1,2.016,4.7l1.92-1.792a8.485,8.485,0,0,0-3.36-3.36Zm42.176,7.3v-9.856H122.5c-.288,5.984-.384,6.24-2.432,6.272H117.5v1.344h3.52c2.016.032,2.976-.448,3.392-1.6a38,38,0,0,0,.608-7.3h-12.48V2.368h2.464V1.6l.48.576a21,21,0,0,0,4.9-4.384,21.858,21.858,0,0,0,4.9,4.32,16.528,16.528,0,0,1,1.44-2.56,24.114,24.114,0,0,1-4.992-3.712,25.764,25.764,0,0,0,3.3-10.208Zm1.056,1.28a20.184,20.184,0,0,0,3.072,9.216,22.662,22.662,0,0,1-4.128,5.12V-13.088Zm6.208,0a25.8,25.8,0,0,1-2.08,7.232,16.105,16.105,0,0,1-3.168-7.232Zm-12-3.488,1.28.256v-1.792l-1.28.256H105.6V-21.92h3.424l1.28.256v-1.792l-1.28.256H105.6v-2.624c.416-.288.512-.416.512-.64,0-.288-.224-.416-.672-.416H103.2v3.68H99.808l-1.248-.256v1.792l1.248-.256H103.2v4.064H98.56l-1.28-.256v1.792l1.28-.256h1.024a41.9,41.9,0,0,1,1.088,5.568H98.784l-1.28-.256v1.792l1.28-.256H103.2V-5.44H99.52L98.24-5.7V-3.9l1.28-.256h3.68V2.4h2.4V-4.16h3.712l1.28.256V-5.7l-1.28.256H105.6V-9.728h4.448l1.28.256v-1.792l-1.28.256h-3.264a24.584,24.584,0,0,0,2.848-5.568Zm-3.36,0a51.566,51.566,0,0,1-1.28,5.568H101.28L103.1-12.48a17.536,17.536,0,0,0-2.528-4.1Z" transform="translate(181.864 -2809.12)" fill="#111"/>
    <path id="MINI_logo" d="M57.987,23.683H56.926l-3.7,10.5-3.7-10.5H46.083V37.052h2.381V27.429l3.39,9.622H54.6l3.39-9.622v9.622h2.381V23.683H57.987Zm5.628,13.368H66V23.683H63.615Zm14.077-2.562-5.02-10.806H69.1V37.052h2.381V26.245L76.5,37.052h3.571V23.683H77.692Zm6,2.562h2.381V23.683H83.7ZM132.75,14.21H91.081a29.247,29.247,0,0,0-50.171,0H0l4.263,4.421H38.69a30.126,30.126,0,0,0-1.5,4.866H8.955l4.263,4.421h23.35C36.521,28.606,36.5,29.3,36.5,30c0,.939.045,1.868.128,2.785H17.91l4.263,4.421H37.354a30.124,30.124,0,0,0,1.629,4.866H26.865l4.263,4.421H41.353a29.234,29.234,0,0,0,49.286,0h10.983l4.263-4.421H93.007a30.1,30.1,0,0,0,1.629-4.866h15.94l4.263-4.421H95.368c.083-.917.128-1.846.128-2.785,0-.7-.025-1.393-.072-2.081h24.108l4.263-4.421h-29a30.128,30.128,0,0,0-1.5-4.866h35.186ZM91.113,32.784a25.8,25.8,0,0,1-5.746,13.708,24.994,24.994,0,0,1-38.744,0,25.82,25.82,0,0,1-5.746-13.708A26.414,26.414,0,0,1,40.73,30q0-1.051.083-2.081a25.828,25.828,0,0,1,5.25-13.708,25.009,25.009,0,0,1,39.865,0,25.838,25.838,0,0,1,5.251,13.708q.081,1.03.083,2.081a26.408,26.408,0,0,1-.148,2.785" transform="translate(179.144 -2919.999)" fill="#111"/>
    <g id="グループ_1183" data-name="グループ 1183" transform="translate(-70 -17)">
      <path id="パス_57285" data-name="パス 57285" d="M-107.424-5.776h4.608v-6.976H-113.28v6.976h4.464V-3.52h-5.968l-.64-.128v.9l.64-.128h5.968V1.28h1.392V-2.88h6.08l.64.128v-.9l-.64.128h-6.08Zm-4.48-3.888v-2.448h7.712v2.448Zm0,.64h7.712v2.608H-111.9Zm26.032,4.752v4.08c0,.5-.208.7-.688.7h-1.312v.672h1.856c.976,0,1.392-.384,1.376-1.3v-12.7h-5.152v2.688c0,4.72-.176,7.264-.576,8.368a5.953,5.953,0,0,1-1.856,2.7l.288.336C-89.9.208-88.96-1.472-88.768-4.272Zm0-.64H-88.72V-4.96l.064-1.168c0-.1,0-.512.016-1.1,0-.128,0-.656.016-1.088h2.752Zm0-4.048h-2.736l.016-1.168v-2.048h2.72Zm-10-2.224v-1.632c.208-.144.256-.208.256-.32,0-.144-.112-.208-.336-.208h-1.12v2.16h-.688l-.64-.128v.9l.64-.128h.688V-3.68h-.992l-.64-.128v.9l.64-.128h6.96l.64.128v-.9l-.64.128h-.688v-6.864h.7l.64.128v-.9l-.64.128h-.7v-1.632c.208-.144.256-.208.256-.3,0-.16-.112-.224-.336-.224h-1.12v2.16Zm0,.64h2.88V-8.8h-2.88Zm0,6.864V-5.712h2.88V-3.68Zm2.88-4.48v1.808h-2.88V-8.16ZM-98.56.7a10.048,10.048,0,0,0,2.784-2.176c.336,0,.544-.1.544-.256a.3.3,0,0,0-.16-.24l-1.072-.72a14.792,14.792,0,0,1-2.32,3.04Zm4.7-2.848A17.746,17.746,0,0,1-92.128.112l.976-.976a10.289,10.289,0,0,0-2.384-1.648Zm24.544-7.472V-.192c0,.464-.192.672-.64.672h-1.456v.672h2c.944,0,1.36-.384,1.344-1.248v-10.16h-3.472c.032-.752.048-1.488.048-2.192V-12.9c.208-.16.256-.208.256-.32,0-.144-.1-.208-.32-.208H-72.72v.96c0,.976-.016,1.68-.032,2.208h-3.2V1.184h1.2v-10.8h1.968c-.128,3.312-.7,5.536-1.76,6.928l.3.288a7.077,7.077,0,0,0,2.368-4.384l.016-.048a28.027,28.027,0,0,1,1.344,4.256l1.056-.848a16.752,16.752,0,0,0-2.288-4.112c.064-.464.128-1.072.176-2.08Zm-10.48,3.9v6.9h1.168v-7.12c.352-.064.64-.128.816-.176l.08-.016.08-.016c.08.288.144.512.272,1.088l1.024-.544A5.979,5.979,0,0,0-77.9-8.144l-.384.24a8.445,8.445,0,0,1,.5,1.248l-.112.016c-.5.032-1.3.064-2.144.112a33.1,33.1,0,0,0,2.992-3.744c.352-.1.48-.192.48-.352a.237.237,0,0,0-.144-.208l-1.136-.64a34.727,34.727,0,0,1-2.96,4.96h-.048l-.64.016-.64.016.336,1.1a.27.27,0,0,0,.224.208c.112,0,.208-.08.352-.32.32-.048.544-.08.656-.1.24-.048.48-.08.736-.128Zm-2.352-4.928A12.809,12.809,0,0,1-80.3-8.1l.8-1.2a4.22,4.22,0,0,0-.96-.848,16.751,16.751,0,0,0,1.648-2.144c.336-.064.5-.192.5-.352,0-.1-.08-.176-.208-.24l-1.264-.56a19.353,19.353,0,0,1-1.152,2.976,6.971,6.971,0,0,0-.992-.528Zm3.984,6.224a18.882,18.882,0,0,1,.64,3.328l1.152-.64A9.178,9.178,0,0,0-77.76-4.56Zm-3.36-.144a26.564,26.564,0,0,1-.624,4.288l.384.16A14.812,14.812,0,0,0-80.48-3.6c.256-.1.368-.208.368-.384,0-.1-.064-.16-.24-.208Zm23.92.9h5.008V-9.68H-57.6v-1.44h5.616l.624.128v-.9l-.624.128H-57.6v-1.152c.208-.144.256-.208.256-.3,0-.16-.112-.224-.336-.224h-1.232v1.68H-64.3l-.624-.128v.9l.624-.128h5.392v1.44H-63.7v6.016h4.784v1.536h-5.952l-.64-.128v.9l.64-.128h5.952V1.28H-57.6V-1.488h6.176l.64.128v-.9l-.64.128H-57.6Zm0-2.752h3.7V-4.3h-3.7Zm-1.312,0V-4.3h-3.472V-6.416ZM-57.6-9.04h3.7v1.984h-3.7Zm-1.312,0v1.984h-3.472V-9.04Zm22.8-2.768h1.328l.64.128v-.928l-.64.128h-13.44l-.64-.128v.928l.64-.128h10.688V-.336c0,.608-.272.864-.9.864h-2.32V1.28h3.088c1.088,0,1.552-.464,1.552-1.568Zm-11.1,2.7v7.392h1.328V-3.12h5.472V-9.1Zm1.328.64h4.144v4.7h-4.144Zm23.28-4.352c.208-.144.256-.208.256-.32,0-.144-.112-.208-.336-.208h-1.184v5.568c.032.768.544,1.088,1.824,1.12h2.768c1.04-.016,1.5-.368,1.552-1.168l.112-1.472-.64-.08-.1.944c-.032.432-.272.592-.944.608h-2.48c-.7-.032-.832-.112-.832-.512v-1.68a24.162,24.162,0,0,0,3.6-.944,2.931,2.931,0,0,0,.336.032c.192,0,.32-.1.32-.24a.24.24,0,0,0-.08-.192l-1.024-.944a14.27,14.27,0,0,1-3.152,1.776Zm0,7.2c.208-.16.256-.224.256-.32,0-.144-.112-.208-.336-.208h-1.184V-.416c.032.768.544,1.088,1.824,1.12h2.88c1.04,0,1.488-.352,1.536-1.168l.112-1.456-.64-.064-.08.912c-.048.432-.288.592-.944.608h-2.592c-.7-.032-.832-.112-.832-.512V-2.96l.08-.016A20.945,20.945,0,0,0-18.976-3.9c.144.016.272.032.368.032.176,0,.32-.1.32-.208a.373.373,0,0,0-.112-.24l-1.008-.928a15.505,15.505,0,0,1-3.2,1.776Zm-3.28-3.872c.192.416.3.688.512,1.216l1.248-.688a9.781,9.781,0,0,0-2.592-2.928l-.368.288a11.442,11.442,0,0,1,.944,1.6h-.08c-.768.048-1.3.08-2.848.144l-.8.032.128-.16a15.479,15.479,0,0,0,1.7-2.464c.336-.1.432-.16.432-.32s-.1-.24-.336-.32l-1.28-.352A24.584,24.584,0,0,1-30.48-9.808c-.448.032-.72.032-.9.032s-.432,0-.768-.016l.352,1.136c.064.224.128.288.256.288.144,0,.224-.08.32-.3,1.472-.144,4.032-.528,5.056-.768Zm-5.072,1.52V1.1h1.2V-2.4h3.344V-.416c-.016.56-.192.752-.672.752h-1.1v.672h1.632c.976,0,1.392-.4,1.376-1.328V-7.968Zm1.2.64h3.344v1.744H-29.76Zm0,4.288v-1.9h3.344v1.9Zm18.32-8.1c-1.36,0-1.92-.032-2.784-.08l-.864-.368.08,1.088c1.152.08,1.712.1,2.7.1h.624a35.354,35.354,0,0,1-3.632,7.856l1.216.784a42.506,42.506,0,0,0,3.856-8.688c1.216-.048,2.544-.16,3.872-.336l.048-1.136-.992.5c-1.136.128-1.792.192-2.672.24a1.9,1.9,0,0,1,.064-.224c.048-.144.192-.576.336-1.04.24-.16.288-.24.288-.352a.259.259,0,0,0-.224-.256l-1.408-.272-.128.816c-.08.32-.144.56-.176.672l-.192.656ZM-1.232-1.648a9.77,9.77,0,0,0-3.9-2.128V-6.768c.256-.176.32-.24.32-.352,0-.16-.144-.256-.384-.256l-1.264-.016.048,1.184v2.176a8.624,8.624,0,0,0-1.408-.112c-2.08,0-3.328.9-3.328,2.4C-11.152-.224-9.664.88-7.616.88A2.432,2.432,0,0,0-5.36-.08a2.426,2.426,0,0,0,.224-1.2V-2.608a10.571,10.571,0,0,1,2.96,2.16Zm-5.184.3c0,.768-.448,1.136-1.392,1.136-1.472,0-2.56-.688-2.56-1.632a1.1,1.1,0,0,1,.288-.736,2.756,2.756,0,0,1,2-.592,5.877,5.877,0,0,1,1.664.224Zm5.376-7.9A7.93,7.93,0,0,0-4.176-9.76a8.027,8.027,0,0,0-2.816.416l.032.448a11.931,11.931,0,0,1,5.024.96ZM.944-.576h1.28V-9.792H.944v-.576H3.68L7.2-2.352l3.392-8.016h2.672v.576h-1.28V-.576h1.28V0H9.344V-.576h1.28v-8.08L7.2-.592H6.464L2.912-8.72V-.576H4.144V0H.944Zm18.512,0V0h-4.5V-.576h1.568V-9.792h-1.5v-.576h4.368v.576h-1.5V-.576Zm1.7,0h1.28V-9.792h-1.28v-.576H23.76l4.816,7.776v-7.2H27.3v-.576h3.248v.576h-1.28V0h-.736L23.12-8.816v8.24H24.4V0H21.152Zm15.424,0V0h-4.5V-.576h1.568V-9.792h-1.5v-.576h4.368v.576h-1.5V-.576ZM47.44.192a4.22,4.22,0,0,1-2.616-.768,4.31,4.31,0,0,1-1.464-1.96,7.058,7.058,0,0,1-.448-2.5,7.58,7.58,0,0,1,.464-2.648,4.609,4.609,0,0,1,1.488-2.064,4.056,4.056,0,0,1,2.592-.808,4.874,4.874,0,0,1,1.8.3,5.367,5.367,0,0,1,1.336.76v1.92H49.68a2.847,2.847,0,0,0-.768-1.872,2.224,2.224,0,0,0-1.568-.592A2.516,2.516,0,0,0,45.08-8.9a5.325,5.325,0,0,0-.744,2.952,9.78,9.78,0,0,0,.344,2.64A4.788,4.788,0,0,0,45.744-1.3a2.344,2.344,0,0,0,1.792.776,2.8,2.8,0,0,0,1.728-.592,2.784,2.784,0,0,0,1.024-1.712H50.9a3.639,3.639,0,0,1-.64,1.552A3.572,3.572,0,0,1,49.024-.2,3.319,3.319,0,0,1,47.44.192Zm9.616,0a4.067,4.067,0,0,1-2.5-.736A4.2,4.2,0,0,1,53.12-2.456a7.019,7.019,0,0,1-.448-2.52,7.742,7.742,0,0,1,.456-2.632,4.7,4.7,0,0,1,1.5-2.112,4.092,4.092,0,0,1,2.656-.84,4.138,4.138,0,0,1,2.52.736,4.325,4.325,0,0,1,1.472,1.912,6.659,6.659,0,0,1,.472,2.5,7.416,7.416,0,0,1-.48,2.624A4.9,4.9,0,0,1,59.736-.656,4.125,4.125,0,0,1,57.056.192Zm.384-.528a2.354,2.354,0,0,0,2.144-1.176,5.979,5.979,0,0,0,.72-3.144A9.508,9.508,0,0,0,59.96-7.24a4.663,4.663,0,0,0-1.1-2.008,2.564,2.564,0,0,0-1.936-.784,2.3,2.3,0,0,0-2.136,1.16,5.772,5.772,0,0,0-.68,2.952,8.91,8.91,0,0,0,.8,3.952A2.649,2.649,0,0,0,57.44-.336ZM68.064.192A3.543,3.543,0,0,1,65.52-.7a3.383,3.383,0,0,1-.944-2.576V-9.792H63.3v-.576h3.92v.576h-1.28V-3.12A2.588,2.588,0,0,0,66.6-1.152a2.454,2.454,0,0,0,1.752.624,2.552,2.552,0,0,0,1.784-.632,2.5,2.5,0,0,0,.7-1.944V-9.792H69.568v-.576h3.216v.576H71.52V-3.04a3.062,3.062,0,0,1-.944,2.352A3.536,3.536,0,0,1,68.064.192Zm6.224-.768h1.28V-9.792h-1.28v-.576H76.9l4.816,7.776v-7.2h-1.28v-.576H83.68v.576H82.4V0h-.736L76.256-8.816v8.24h1.28V0H74.288Zm12.72,0h1.408V-9.792H86.432L85.6-7.584h-.592v-2.784h8.144v2.784H92.56l-.8-2.208H89.776V-.576h1.408V0H87.008Zm17.248,0V0h-2.448l-3.04-4.784H97.28V-.576h1.264V0h-3.9V-.576h1.28V-9.792H94.64v-.576H99.3a3.215,3.215,0,0,1,2.352.776,2.662,2.662,0,0,1,.784,1.976,2.736,2.736,0,0,1-.592,1.784,2.771,2.771,0,0,1-1.616.952l2.88,4.3ZM97.28-5.392h1.84a1.636,1.636,0,0,0,1.3-.616,2.359,2.359,0,0,0,.52-1.576,2.426,2.426,0,0,0-.5-1.6,1.632,1.632,0,0,0-1.32-.608H97.28Zm12.112.688V-.576H110.8V0h-4.176V-.576h1.408V-4.288l-2.736-5.5h-1.28v-.576h4.064v.576H106.8l2.208,4.5,2.3-4.5h-1.28v-.576h3.28v.576h-1.28ZM114.48-.576h1.28V-9.792h-1.28v-.576h2.736l3.52,8.016,3.392-8.016H126.8v.576h-1.28V-.576h1.28V0h-3.92V-.576h1.28v-8.08L120.736-.592H120L116.448-8.72V-.576h1.232V0h-3.2Zm23.76,0V0h-3.712V-.576H135.7l-1.152-3.248H131.1L129.952-.576h1.168V0h-2.992V-.576h1.136l3.536-9.792h.752L137.1-.576Zm-3.92-3.856-1.472-4.144h-.064l-1.472,4.144Zm5.264,3.856h1.28V-9.792h-1.28v-.576h2.608l4.816,7.776v-7.2h-1.28v-.576h3.248v.576H147.7V0h-.736l-5.408-8.816v8.24h1.28V0h-3.248Zm22.848-11.648h-8.864l-.7-.144v1.024l.7-.144h8.864l.7.144v-1.024Zm-10.1,3.7-.7-.144v1.024l.7-.144h9.984c-.672,3.872-3.632,6.688-8.288,7.84l.112.528c5.76-.608,9.472-4,9.984-9.1Zm24.048-.048a41.135,41.135,0,0,0,3.408-3.008c.432-.048.608-.16.608-.384a.5.5,0,0,0-.256-.368l-1.232-.816-.576.864a31.127,31.127,0,0,1-10.5,7.28l.176.48A21.1,21.1,0,0,0,174.9-7.5V.848h1.488Zm21.568-1.44a15.882,15.882,0,0,1-4.08,5.184,15.05,15.05,0,0,1-7.344,3.248l-.848.016.576,1.424c.1.224.24.352.4.352.176,0,.3-.112.416-.368,3.616-.816,5.888-1.9,7.856-3.76A13.486,13.486,0,0,0,198.4-9.808ZM185.536-11.76a15.042,15.042,0,0,1,3.984,3.424l1.312-1.328a9.874,9.874,0,0,0-5.1-2.512Zm22.112,3.84a10.847,10.847,0,0,1-.7,4.032c-.7,1.712-2.448,3.136-5.056,4.128l.16.48a11.326,11.326,0,0,0,4.576-2.064c1.664-1.36,2.4-3.152,2.528-6.192a2.165,2.165,0,0,1,.032-.384h5.008l.7.144V-8.8l-.7.144H209.2c.016-.432.016-.784.016-1.008v-2.32c.24-.16.32-.272.32-.4a.3.3,0,0,0-.3-.288l-1.7-.112.144,1.008v2.112c0,.224,0,.576-.016,1.008h-5.936l-.7-.144v1.024l.7-.144Zm14.4,8.864A8.486,8.486,0,0,0,227.1-1.872,12.43,12.43,0,0,0,229.5-7.5c.256-.064.352-.16.352-.3,0-.1-.08-.192-.24-.24l-1.5-.48-.032.848a15.415,15.415,0,0,1-1.68,4.608A8.447,8.447,0,0,1,221.888.48Zm.352-5.712a5.992,5.992,0,0,0-2.64-3.552l-.272.208a10.747,10.747,0,0,1,1.648,3.824Zm3.168-.4A6.331,6.331,0,0,0,223.04-8.72l-.288.224a10.817,10.817,0,0,1,1.536,3.824Zm9.76-5.84-.7-.128v1.008l.7-.144h9.152C243.664-5.024,240.8-1.616,235.824,0L236,.544c4.048-.9,6.464-2.432,8.192-5.216a14.6,14.6,0,0,0,2-6.128,1.615,1.615,0,0,0,.992.336,1.636,1.636,0,0,0,1.632-1.616,1.625,1.625,0,0,0-1.632-1.616,1.632,1.632,0,0,0-1.616,1.616,1.653,1.653,0,0,0,.416,1.088Zm11.856-2.048a.98.98,0,0,1,.992.96.973.973,0,0,1-.976.992.994.994,0,0,1-.992-.976A.99.99,0,0,1,247.184-13.056Zm5.824,9.328a2.507,2.507,0,0,0-2.544,2.48,2.51,2.51,0,0,0,2.512,2.528,2.513,2.513,0,0,0,2.5-2.512A2.525,2.525,0,0,0,253.008-3.728Zm-.064.736a1.769,1.769,0,0,1,1.792,1.744,1.772,1.772,0,0,1-1.76,1.792A1.782,1.782,0,0,1,251.2-1.232,1.783,1.783,0,0,1,252.944-2.992Z" transform="translate(245.568 -2732.024)" fill="#111"/>
      <path id="パス_57302" data-name="パス 57302" d="M-259.936-3.808A11.658,11.658,0,0,0-258.7-4.992h6.208v-5.936h-5.968a10.014,10.014,0,0,0,1.056-1.2h6.032l.64.128v-.9l-.64.128h-12.912l-.624-.128v.9l.624-.128h5.3a11.225,11.225,0,0,1-.384,1.2h-3.856v5.936h2.88a14.948,14.948,0,0,1-4.656,3.312l.144.464a16.245,16.245,0,0,0,3.728-1.728,7.632,7.632,0,0,0,2.176,2.08A28.732,28.732,0,0,1-265.184.784l.064.512a26.385,26.385,0,0,0,7.28-1.584A23.52,23.52,0,0,0-251.1,1.184a10.687,10.687,0,0,1,.624-1.3,23.541,23.541,0,0,1-6.032-.752,14.283,14.283,0,0,0,4.08-2.944Zm4.992.64a14.521,14.521,0,0,1-2.96,1.84,7.579,7.579,0,0,1-2.72-1.84Zm-7.04-6.016v-1.1h8.24v1.1Zm0,.64h8.24v1.1h-8.24Zm0,1.744h8.24v1.168h-8.24Zm15.6,7.984h1.264V-9.568l.016-.048a28.451,28.451,0,0,0,1.088-2.816c.256-.064.384-.16.384-.32a.317.317,0,0,0-.256-.288l-1.44-.4a33.675,33.675,0,0,1-3.216,8.688l.352.272a14.772,14.772,0,0,0,1.808-2.576Zm11.616-10.16.64.128v-.9l-.64.128h-4v-3.2c.208-.144.256-.208.256-.32,0-.144-.112-.208-.352-.208h-1.216v3.728h-3.5l-.64-.128v.9l.64-.128h3.072a26.76,26.76,0,0,1-4.32,7.648l.32.384a15.444,15.444,0,0,0,4.432-5.712v7.84h1.312V-8.192a15.474,15.474,0,0,0,4.016,7.168c.416-.672.5-.784.928-1.408a15.352,15.352,0,0,1-4.768-6.544Zm10.224-4.016-.48.5c-.96.08-1.648.112-3.44.144l-1.008-.336.1,1.056c.56.016.976.032,1.248.032.8,0,1.84-.048,3.136-.16-.656,2.032-.992,2.96-1.616,4.624a7.382,7.382,0,0,0-1.952.32,3.836,3.836,0,0,0-2.928,3.648,2.149,2.149,0,0,0,1.888,2.4,2.58,2.58,0,0,0,2.048-1.392,23.42,23.42,0,0,0,2-4.144,15.385,15.385,0,0,1,4.736.992C-221.408-2.384-222.464-.8-224.688.5l.208.4A6.585,6.585,0,0,0-221.008-1.3a7.9,7.9,0,0,0,1.488-3.488c.784.368,1.1.528,1.872.96l.464-1.088a15.862,15.862,0,0,0-2.128-.944c.112-.672.16-.992.24-1.744.208-.128.288-.24.288-.368s-.128-.24-.368-.288l-1.312-.3.016.688c-.08.816-.1.9-.192,1.6a22.305,22.305,0,0,0-4.608-.832c.72-1.888.928-2.464,1.616-4.464.32-.192.448-.352.448-.528a.417.417,0,0,0-.24-.336Zm-2.576,7.168c-1.36,3.184-1.936,4.1-2.608,4.1-.448,0-.816-.56-.816-1.264a3.225,3.225,0,0,1,1.728-2.72,4.7,4.7,0,0,1,1.888-.544Zm25.1-5.28a12.723,12.723,0,0,0-2.048-.144A9.156,9.156,0,0,0-209.008-10l.112.48a19.4,19.4,0,0,1,3.936-.416,13.588,13.588,0,0,1,2.944.288Zm-11.04-1.488.016.768a60.356,60.356,0,0,0-.48,7.392,24.3,24.3,0,0,0,.384,4.9l1.456-.272a24.12,24.12,0,0,1-.448-5.1,54.425,54.425,0,0,1,.5-6.784c.24-.16.336-.272.336-.4s-.128-.24-.336-.272Zm4,6.8a4.306,4.306,0,0,0-.528,2.064,2.908,2.908,0,0,0,1.568,2.736,8.124,8.124,0,0,0,3.632.608,18.541,18.541,0,0,0,2.976-.224V-2.144a16.8,16.8,0,0,1-3.5.336,5.751,5.751,0,0,1-2.88-.528,2.1,2.1,0,0,1-.992-1.952,4.5,4.5,0,0,1,.208-1.376Zm21.04,5.168V-6.288h-6.72V.32h1.232V-.624Zm-5.488-3.2V-5.648h4.256v1.824Zm0,.64h4.256v1.92H-193.5Zm1.328-9.68h-5.776V1.184h1.264V-7.7h4.512Zm-4.512.64h3.312v1.584h-3.312ZM-193.376-10v1.664h-3.312V-10Zm2.816-2.864V-7.7h4.72V-.3c0,.512-.224.736-.736.736h-1.344V1.1h2.208c.8,0,1.136-.336,1.136-1.152V-12.864Zm1.2,2.864h3.52v1.664h-3.52Zm0-.64v-1.584h3.52v1.584Zm20.624-.464a12.723,12.723,0,0,0-2.048-.144A9.156,9.156,0,0,0-175.728-10l.112.48a19.4,19.4,0,0,1,3.936-.416,13.588,13.588,0,0,1,2.944.288Zm-11.04-1.488.016.768a60.356,60.356,0,0,0-.48,7.392,24.3,24.3,0,0,0,.384,4.9L-178.4.192a24.12,24.12,0,0,1-.448-5.1,54.425,54.425,0,0,1,.5-6.784c.24-.16.336-.272.336-.4s-.128-.24-.336-.272Zm4,6.8a4.306,4.306,0,0,0-.528,2.064,2.908,2.908,0,0,0,1.568,2.736,8.124,8.124,0,0,0,3.632.608,18.541,18.541,0,0,0,2.976-.224V-2.144a16.8,16.8,0,0,1-3.5.336,5.751,5.751,0,0,1-2.88-.528,2.1,2.1,0,0,1-.992-1.952,4.5,4.5,0,0,1,.208-1.376Zm18.224-6.912c.256-.1.368-.192.368-.352,0-.128-.112-.208-.3-.24l-1.328-.144a21.132,21.132,0,0,1-6.528,6.816l.208.416a16.729,16.729,0,0,0,7.216-5.968l.08.112a14.139,14.139,0,0,0,6.528,5.536,6.7,6.7,0,0,1,.688-1.456,16.064,16.064,0,0,1-6.976-4.64Zm4.8,13.808V-5.008h-10.464V1.184h1.408V.192h7.648V1.1ZM-161.808-.48V-4.336h7.648V-.48Zm.48-6.528h6.528l.64.128v-.928l-.64.128h-6.528l-.64-.128v.928Zm17.312,8.256A10.75,10.75,0,0,0-137.744-1.2a5.93,5.93,0,0,0,1.712-4.4c0-2.608-1.424-3.872-4.336-3.872a21.226,21.226,0,0,0-5.808,1.024l-.848.08.224,1.248c.048.224.16.352.3.352.16,0,.272-.112.416-.4a15.192,15.192,0,0,1,5.76-1.472,3.091,3.091,0,0,1,1.92.608,3.063,3.063,0,0,1,.768,2.256,6,6,0,0,1-.784,3.024A5.872,5.872,0,0,1-140.448-.72,11.678,11.678,0,0,1-144.1.752Zm5.84-13.376a9.089,9.089,0,0,0-4.592-.912h-.448l-.88.016h-.448l-.048.544a12.934,12.934,0,0,1,5.328,1.632Zm13.792,8.976.672-9.152H-125.7l.672,9.152Zm-.3,1.136A1.13,1.13,0,0,0-125.84-.9,1.144,1.144,0,0,0-124.7.256,1.14,1.14,0,0,0-123.568-.88,1.148,1.148,0,0,0-124.688-2.016Z" transform="translate(510.328 -2757.024)" fill="#111"/>
    </g>
  </g>
</svg>
