<svg xmlns="http://www.w3.org/2000/svg" width="1255.512" height="30.055" viewBox="0 0 1255.512 30.055">
  <g id="sec02-12" transform="translate(-0.488 0.088)">
    <path id="パス_39" data-name="パス 39" d="M187.282,12.808a28.268,28.268,0,0,1-3.165,10.359,22.106,22.106,0,0,0,4.572,3.166,22.993,22.993,0,0,0-1.663,3.325,21.536,21.536,0,0,1-4.668-3.933,17.762,17.762,0,0,1-4.668,4l-.544-.7v.927h-3.038V1.49h13.045c-.128,4.7-.288,6.746-.576,7.481-.48,1.343-1.406,1.791-3.581,1.791h-3.708V9.1h2.43c1.887-.064,1.983-.256,2.207-6.076h-6.779v9.785Zm-3.421,1.535H179.1a14.277,14.277,0,0,0,3.005,6.715,25.79,25.79,0,0,0,1.759-6.715Zm-6.715,14.132a22.262,22.262,0,0,0,3.709-4.8,21.3,21.3,0,0,1-2.909-9.336h-.8Zm-5.723-17.713a24.931,24.931,0,0,1-2.941,5.5h3.1l1.343-.256v2.046l-1.343-.256h-4.157v4.157h3.486l1.342-.255v2.045l-1.342-.256h-3.486v6.556h-3.038V23.487H160.9l-1.343.256V21.7l1.343.255h3.485V17.8H160.23l-1.343.256V16.006l1.343.256h1.694v-.1a42.356,42.356,0,0,0-1.086-5.4h-.863l-1.343.256V8.971l1.343.256h4.413V5.295h-3.165l-1.343.256V3.5l1.343.256h3.165V.115h2.878c.448,0,.672.128.672.448,0,.224-.1.352-.512.672V3.76h3.1l1.342-.256V5.551l-1.342-.256h-3.1V9.227h4.412l1.311-.256v2.047l-1.311-.256Zm-9.3,0a14.339,14.339,0,0,1,2.782,3.869l-2.207,1.631h4.284l.032-.1c.416-1.727.8-3.741,1.023-5.148l.032-.256ZM137.59,12.329l-1.343.255V10.538l1.343.256h7.2V8.3h-4.412l-1.342.256V6.51l1.342.256h4.412V4.431h-5.85l-1.311.256V2.641l1.311.255h5.85V.307h3.07q.672,0,.672.48c0,.192-.1.352-.512.672V2.9h6.236l1.343-.255V4.687l-1.343-.256h-6.236V6.766h5.117l1.342-.256V8.556L153.131,8.3h-5.117v2.494h7.321l1.343-.256v2.046l-1.343-.255Zm-1.055-2.047a17.964,17.964,0,0,0-1.887-4.764l.7-.64A7.656,7.656,0,0,1,138.837,8.2Zm-2.11,19.667h-3.135V.307h2.974c.447,0,.671.128.671.448,0,.224-.1.352-.511.672Zm-7.8-15.955a29.275,29.275,0,0,0,1.5-9.048h1.535c.16,1.983.191,3.165.191,4.828a18.061,18.061,0,0,1-1.086,7.13Zm-12,11.635v4.284H111.71V25.63h-9.016l-1.343.256V23.839l1.343.256h9.016v-2.3h-7.835V11.849h7.835V9.611h-7.8l-1.31.256V7.82l1.31.256h7.8V5.583h2.749c.448,0,.672.128.672.448,0,.224-.1.352-.512.672V8.076h8.856l1.311-.256V9.867l-1.311-.256h-8.856v2.238h8.121v9.944h-8.121v2.3h9.336l1.343-.256v2.047l-1.343-.256ZM111.71,13.384h-4.8v2.558h4.8Zm0,4.092h-4.8v2.782h4.8Zm7.995-4.092h-5.084v2.558H119.7Zm0,6.875V17.477h-5.084v2.782ZM101.382,4.623v4.86c-.064,12.472-.8,15.539-4.828,20.431L95.5,29.307c1.951-4.572,2.366-7.835,2.366-19.827v-6.4h11.766V.115h3.678c.448,0,.672.128.672.448,0,.224-.1.352-.512.672V3.088H123.8l1.343-.255V4.879L123.8,4.623ZM74.648,28.763l-1.343.256V26.972l1.343.256h7.162V17.54H76.053L74.71,17.8V15.75l1.343.256h5.756V8.491h3.358c.448,0,.671.16.671.448,0,.224-.1.352-.511.672v6.4h5.6l1.343-.256V17.8l-1.343-.256h-5.6v9.688h6.906l1.311-.256v2.047l-1.311-.256ZM75.8,6.378a37.344,37.344,0,0,1-3.933,7.609V29.946H68.572V18.212a23.95,23.95,0,0,1-4.284,3.741l-.8-1.086a36.4,36.4,0,0,0,5.084-7.035V10.187l1.759.32c.512-1.023,1.342-3.005,1.759-4.124H65.248L63.9,6.638V4.591l1.343.256H72.6A42.362,42.362,0,0,0,73.912.115L77.3.787c.608.128.831.32.831.64s-.224.512-.831.8c-.448,1.374-.64,1.886-.9,2.621H91.785l1.343-.256V6.638l-1.343-.256ZM59.388,12.614V29.946H56.094V12.616H52.514c-.1,5.212-.224,6.459-.9,9.081A12.968,12.968,0,0,1,45.7,30.042l-.767-.959a16.558,16.558,0,0,0,3.933-9.114c.384-3.038.448-5.212.448-14.036V1.842l3.325,1.15A32.913,32.913,0,0,0,59.292.307l2.174,2.4a1.143,1.143,0,0,1,.288.48c0,.224-.32.48-.608.48a2.056,2.056,0,0,1-.7-.128,37.122,37.122,0,0,1-7.865.927V5.935c0,1.311,0,2.813-.032,4.508v.64H61.21l1.343-.256v2.046l-1.343-.256Zm-17.2-.064V16.2H46.5l1.343-.256v2.046L46.5,17.73H42.186v2.047a4.728,4.728,0,0,0,.736.288,14.23,14.23,0,0,1,4.252,2.494l-2.015,2.878a29.3,29.3,0,0,0-1.822-2.91c-.736-.959-1.119-1.439-1.151-1.5v8.923H39.021v-7.77l-.064.064c-.384.448-.736.9-1.087,1.343a17.325,17.325,0,0,1-4.764,3.965L32.5,26.525a27,27,0,0,0,5.627-8.794H34.353l-1.343.256V15.942l1.343.256h4.668V12.552h-5.18l-1.343.256V10.762l1.343.256h2.43l-.032-.32a49.468,49.468,0,0,0-.991-5.244h-.9L33.01,5.71V3.664l1.343.256H38.83V.307h3.261q.672,0,.672.48c0,.192-.1.32-.512.64V3.92h4.412l1.343-.256V5.71l-1.343-.256h-.9a39.144,39.144,0,0,1-2.525,5.563h3.773l1.311-.256v2.046l-1.311-.256Zm-5.563-7.1a16.7,16.7,0,0,1,2.846,4.252l-2.59,1.311h4.86a47.338,47.338,0,0,0,.8-5.563ZM22.643,26.4a18.5,18.5,0,0,1-6.906,3.773l-.608-1.119a20.526,20.526,0,0,0,5.787-4.444,18.383,18.383,0,0,1-3.325-7.2H17.24l-1.343.256V15.622l1.343.256H29.232a27.19,27.19,0,0,1-4.444,8.345,21.292,21.292,0,0,0,5.756,2.494,30.6,30.6,0,0,0-1.631,3.23,17.643,17.643,0,0,1-6.27-3.549ZM25.2,17.412H19.032a12.3,12.3,0,0,0,3.518,5.117A22.073,22.073,0,0,0,25.2,17.412ZM14.684,13.767v16.4H11.646V25.726a57.035,57.035,0,0,1-8.888,3.1c-.192.512-.384.7-.672.7-.256,0-.448-.192-.576-.608L.488,25.982c1.375-.128,1.759-.192,2.654-.288l.1-.032V13.767H1.831l-1.343.256V11.977l1.343.256H29.2l1.343-.256v2.046L29.2,13.767Zm-3.038,0H6.275v2.366h5.372Zm0,3.9H6.275V20.29h5.372Zm0,4.157H6.275v3.421l.1-.032.352-.032c1.726-.256,2.781-.448,4.412-.8l.512-.128ZM4.58,1.2h22v8.92h-22ZM7.874,8.588H23.282V6.349H7.874Zm0-3.773H23.282V2.736H7.874ZM154.314,27.26c0,1.823-.736,2.59-2.494,2.59h-5.181V28.187h2.878c1.055,0,1.535-.448,1.535-1.5V23.9h-9.145v6.043h-3.165v-15.6h15.572Zm-3.261-11.382h-9.146v2.4h9.144Zm0,3.933h-9.146v2.558h9.144Z" transform="translate(0 -0.203)" fill="#e7014c" fill-rule="evenodd"/>
    <path id="パス_40" data-name="パス 40" d="M254,22V20.1H1300V22Z" transform="translate(-44 -6.188)" fill="#e7014c" fill-rule="evenodd"/>
  </g>
</svg>
