<svg xmlns="http://www.w3.org/2000/svg" width="451.033" height="23.569" viewBox="0 0 451.033 23.569">
  <g id="sec02-12" transform="translate(-0.488 -1.002)">
    <g id="グループ_122" data-name="グループ 122" transform="translate(0 1.091)">
      <path id="パス_39" data-name="パス 39" d="M146.972,10.069a22.168,22.168,0,0,1-2.482,8.124,17.335,17.335,0,0,0,3.585,2.483,18.029,18.029,0,0,0-1.3,2.607,16.888,16.888,0,0,1-3.661-3.084,13.929,13.929,0,0,1-3.661,3.135l-.426-.552v.727h-2.382V1.193h10.23c-.1,3.686-.226,5.29-.451,5.867-.376,1.053-1.1,1.4-2.808,1.4H140.7v-1.3h1.905c1.48-.05,1.555-.2,1.73-4.765h-5.316v7.673Zm-2.683,1.2h-3.736a11.2,11.2,0,0,0,2.357,5.266,20.224,20.224,0,0,0,1.379-5.266Zm-5.266,11.082a17.458,17.458,0,0,0,2.908-3.762,16.7,16.7,0,0,1-2.281-7.321h-.627Zm-4.488-13.89a19.552,19.552,0,0,1-2.307,4.313h2.432l1.053-.2v1.6l-1.053-.2H131.4v3.26h2.733l1.053-.2v1.6l-1.053-.2H131.4v5.141h-2.382V18.444h-2.733l-1.053.2v-1.6l1.053.2h2.733V13.98h-3.26l-1.053.2v-1.6l1.053.2h1.328V12.7a33.216,33.216,0,0,0-.852-4.237h-.677l-1.053.2V7.06l1.053.2h3.461V4.177h-2.482l-1.053.2v-1.6l1.053.2h2.482V.115h2.257c.351,0,.527.1.527.351,0,.176-.075.276-.4.527V2.973h2.433l1.053-.2v1.6l-1.053-.2H131.4V7.261h3.46l1.028-.2v1.6l-1.028-.2Zm-7.3,0a11.245,11.245,0,0,1,2.182,3.034l-1.73,1.279h3.36l.025-.075c.326-1.354.627-2.934.8-4.037l.025-.2ZM108,9.693l-1.053.2v-1.6l1.053.2h5.642V6.534h-3.46l-1.053.2V5.13l1.053.2h3.46V3.5h-4.588l-1.028.2V2.1l1.028.2h4.588V.265h2.407q.527,0,.527.376c0,.15-.075.276-.4.527V2.3h4.89l1.053-.2V3.7l-1.053-.2h-4.89V5.331h4.012l1.053-.2v1.6l-1.053-.2h-4.012V8.49h5.742l1.053-.2v1.6l-1.053-.2Zm-.828-1.6a14.087,14.087,0,0,0-1.48-3.736l.552-.5a6,6,0,0,1,2.733,2.607Zm-1.654,15.423h-2.459V.265h2.332c.35,0,.526.1.526.351,0,.176-.075.276-.4.527ZM99.4,11a22.958,22.958,0,0,0,1.179-7.1h1.2c.125,1.555.15,2.482.15,3.786a14.163,14.163,0,0,1-.852,5.592ZM89.99,20.124v3.36H87.708v-3.36H80.638l-1.053.2v-1.6l1.053.2h7.071v-1.8H81.564v-7.8h6.144V7.562H81.59l-1.028.2v-1.6l1.028.2h6.118V4.4h2.156c.351,0,.527.1.527.351,0,.176-.075.276-.4.527V6.358h6.945l1.028-.2v1.6l-1.028-.2H89.99V9.317h6.368v7.8H89.99v1.8h7.321l1.053-.2v1.6l-1.053-.2Zm-2.281-9.6H83.947v2.006h3.762Zm0,3.209H83.947v2.182h3.762Zm6.269-3.209H89.991v2.006h3.987Zm0,5.392V13.73H89.991v2.182ZM79.61,3.65V7.461c-.05,9.78-.627,12.186-3.786,16.022L75,23.007c1.53-3.585,1.856-6.144,1.856-15.548V2.443h9.227V.115h2.884c.351,0,.527.1.527.351,0,.176-.075.276-.4.527V2.447h8.1l1.053-.2v1.6l-1.053-.2ZM58.644,22.581l-1.053.2v-1.6l1.053.2H64.26v-7.6H59.746l-1.053.2v-1.6l1.053.2H64.26V6.683h2.633c.351,0,.526.125.526.351,0,.176-.075.276-.4.527v5.016h4.389l1.053-.2v1.6l-1.053-.2H67.019v7.6h5.415l1.028-.2v1.6l-1.028-.2Zm.9-17.554a29.285,29.285,0,0,1-3.085,5.967V23.509H53.88v-9.2a18.782,18.782,0,0,1-3.36,2.933l-.627-.852a28.541,28.541,0,0,0,3.987-5.517V8.013l1.379.251c.4-.8,1.053-2.357,1.379-3.234H51.273l-1.053.2v-1.6l1.053.2H57.04A33.22,33.22,0,0,0,58.067.115l2.658.527c.476.1.652.251.652.5s-.176.4-.652.627c-.351,1.078-.5,1.479-.7,2.056h12.06l1.053-.2v1.6l-1.053-.2ZM46.678,9.917V23.509H44.095V9.918H41.287c-.075,4.087-.176,5.065-.7,7.121a10.17,10.17,0,0,1-4.639,6.544l-.6-.752a12.984,12.984,0,0,0,3.084-7.147c.3-2.382.351-4.087.351-11.007V1.469l2.607.9A25.81,25.81,0,0,0,46.6.265l1.7,1.881a.9.9,0,0,1,.226.376c0,.176-.251.376-.476.376a1.612,1.612,0,0,1-.552-.1,29.111,29.111,0,0,1-6.168.727V4.679c0,1.028,0,2.206-.025,3.535v.5h6.795l1.053-.2v1.6l-1.053-.2Zm-13.49-.05v2.859h3.385l1.053-.2v1.6l-1.053-.2H33.188v1.6a3.708,3.708,0,0,0,.577.226A11.159,11.159,0,0,1,37.1,17.714l-1.58,2.257a22.977,22.977,0,0,0-1.429-2.282c-.577-.752-.878-1.128-.9-1.178v7H30.706V17.415l-.05.05c-.3.351-.577.7-.853,1.053a13.586,13.586,0,0,1-3.736,3.109l-.476-.8A21.17,21.17,0,0,0,30,13.93H27.045l-1.053.2v-1.6l1.053.2h3.661V9.868H26.644l-1.053.2v-1.6l1.053.2h1.905l-.025-.251A38.793,38.793,0,0,0,27.747,4.3h-.7l-1.053.2V2.9l1.053.2h3.511V.265h2.557q.527,0,.527.376c0,.15-.075.251-.4.5V3.1H36.7l1.053-.2V4.5L36.7,4.3H36a30.7,30.7,0,0,1-1.98,4.363h2.959L38,8.465v1.6l-1.028-.2ZM28.825,4.3a13.1,13.1,0,0,1,2.232,3.335L29.026,8.665h3.811A37.123,37.123,0,0,0,33.464,4.3ZM17.862,20.726a14.507,14.507,0,0,1-5.416,2.959l-.476-.878a16.1,16.1,0,0,0,4.538-3.485A14.416,14.416,0,0,1,13.9,13.679h-.276l-1.053.2v-1.6l1.053.2h9.4a21.323,21.323,0,0,1-3.485,6.544,16.7,16.7,0,0,0,4.514,1.955,23.994,23.994,0,0,0-1.279,2.533,13.836,13.836,0,0,1-4.917-2.783Zm2.006-7.046H15.03a9.642,9.642,0,0,0,2.759,4.012,17.31,17.31,0,0,0,2.079-4.012Zm-8.247-2.858V23.684H9.238V20.2a44.726,44.726,0,0,1-6.97,2.432c-.15.4-.3.552-.527.552-.2,0-.351-.15-.451-.476L.488,20.4c1.078-.1,1.379-.15,2.081-.226l.075-.025V10.821h-1.1l-1.053.2v-1.6l1.053.2H23l1.053-.2v1.6L23,10.821Zm-2.382,0H5.026v1.856H9.239Zm0,3.059H5.026v2.056H9.239Zm0,3.26H5.026v2.683L5.1,19.8l.276-.025c1.354-.2,2.181-.351,3.46-.627l.4-.1ZM3.7.968H20.948v7H3.7ZM6.28,6.759H18.363V5H6.28Zm0-2.959H18.363V2.171H6.28ZM121.119,21.4c0,1.429-.577,2.031-1.955,2.031H115.1v-1.3h2.257c.828,0,1.2-.351,1.2-1.178V18.77h-7.172v4.739h-2.482V11.273h12.212Zm-2.557-8.926h-7.172v1.881h7.171Zm0,3.084h-7.172v2.006h7.171Z" transform="translate(0 -0.203)" fill="#0c3c92" fill-rule="evenodd"/>
      <path id="パス_40" data-name="パス 40" d="M254,21.59V20.1H540.733v1.49Z" transform="translate(-89.212 -9.209)" fill="#0c3c92" fill-rule="evenodd"/>
    </g>
  </g>
</svg>
