<svg xmlns="http://www.w3.org/2000/svg" width="347.76" height="230.573" viewBox="0 0 347.76 230.573">
  <g id="sec02-15-01" transform="translate(-396 -3271.637)">
    <g id="価格" transform="translate(-378 80)">
      <path id="パス_92" data-name="パス 92" d="M11.52-12.9,4.2-22.68H.66L8.19-12.57H2.01v1.68H9.39v3.27H2.01v1.68H9.39V-.12H12.3V-5.94h7.29V-7.62H12.3v-3.27h7.29v-1.68H13.32l7.62-10.11H18.93ZM33.87-7.56V-23.07H31.86L23.4-6.69v1.47h7.89V.27h2.58V-5.22h2.46V-7.56Zm-2.58,0H25.53l5.76-11.22ZM41.73,3.21a5.227,5.227,0,0,0,2.7-4.53c0-1.56-.78-2.52-2.01-2.52a1.946,1.946,0,0,0-1.95,1.95A1.94,1.94,0,0,0,42.42.03a2.039,2.039,0,0,0,.57-.09A4.407,4.407,0,0,1,41.16,2.4Zm7.38-9.18a8.773,8.773,0,0,0,.9,3.81A4.622,4.622,0,0,0,54.39.48c2.7,0,4.56-1.47,5.61-4.44a26.316,26.316,0,0,0,1.05-7.92c0-3.81-.48-6.48-1.56-8.46a5.357,5.357,0,0,0-4.89-2.97c-3.6,0-5.88,3.12-5.88,8.1,0,4.47,2.04,7.17,5.43,7.17a4.985,4.985,0,0,0,2.64-.72,6.924,6.924,0,0,0,1.68-1.71,31.714,31.714,0,0,1-.75,6.51c-.63,2.13-1.68,3.21-3.18,3.21a2.081,2.081,0,0,1-1.98-1.26,8.993,8.993,0,0,1-.78-3.96Zm5.55-16.11a3.068,3.068,0,0,1,2.43,1.26,12.517,12.517,0,0,1,1.29,6.3,5.8,5.8,0,0,1-.81,3.27,3.966,3.966,0,0,1-3.18,1.86c-2.01,0-3.03-2.04-3.03-6.12a10.212,10.212,0,0,1,.93-5.1A2.877,2.877,0,0,1,54.66-22.08Zm11.76,4.26a19.433,19.433,0,0,0,3.84-2.07V.27H72.9V-23.07H71.73a18.972,18.972,0,0,1-5.31,3.51Zm20.4-5.46a4.852,4.852,0,0,0-4.23,2.4c-1.35,2.13-2.07,5.43-2.07,9.6a19.106,19.106,0,0,0,1.83,8.97A4.853,4.853,0,0,0,86.7.48c3.9,0,6.15-4.32,6.15-11.88C92.85-18.84,90.6-23.28,86.82-23.28Zm-.15,1.23c1.2,0,2.22,1.26,2.79,3.39a33.641,33.641,0,0,1,.63,7.35c0,4.68-.42,7.35-1.47,9.24A2.457,2.457,0,0,1,86.7-.75a2.443,2.443,0,0,1-1.89-1.29c-1.05-1.89-1.53-4.8-1.53-9.42a41.053,41.053,0,0,1,.39-5.85,8.946,8.946,0,0,1,1.35-3.78A2.336,2.336,0,0,1,86.67-22.05ZM98.43,3.21a5.227,5.227,0,0,0,2.7-4.53c0-1.56-.78-2.52-2.01-2.52a1.946,1.946,0,0,0-1.95,1.95A1.94,1.94,0,0,0,99.12.03a2.039,2.039,0,0,0,.57-.09A4.407,4.407,0,0,1,97.86,2.4Zm13.29-26.49a4.852,4.852,0,0,0-4.23,2.4c-1.35,2.13-2.07,5.43-2.07,9.6a19.106,19.106,0,0,0,1.83,8.97A4.853,4.853,0,0,0,111.6.48c3.9,0,6.15-4.32,6.15-11.88C117.75-18.84,115.5-23.28,111.72-23.28Zm-.15,1.23c1.2,0,2.22,1.26,2.79,3.39a33.641,33.641,0,0,1,.63,7.35c0,4.68-.42,7.35-1.47,9.24A2.457,2.457,0,0,1,111.6-.75a2.443,2.443,0,0,1-1.89-1.29c-1.05-1.89-1.53-4.8-1.53-9.42a41.053,41.053,0,0,1,.39-5.85,8.946,8.946,0,0,1,1.35-3.78A2.336,2.336,0,0,1,111.57-22.05Zm16.05-1.23a4.852,4.852,0,0,0-4.23,2.4c-1.35,2.13-2.07,5.43-2.07,9.6a19.106,19.106,0,0,0,1.83,8.97A4.853,4.853,0,0,0,127.5.48c3.9,0,6.15-4.32,6.15-11.88C133.65-18.84,131.4-23.28,127.62-23.28Zm-.15,1.23c1.2,0,2.22,1.26,2.79,3.39a33.641,33.641,0,0,1,.63,7.35c0,4.68-.42,7.35-1.47,9.24A2.457,2.457,0,0,1,127.5-.75a2.443,2.443,0,0,1-1.89-1.29c-1.05-1.89-1.53-4.8-1.53-9.42a41.053,41.053,0,0,1,.39-5.85,8.946,8.946,0,0,1,1.35-3.78A2.336,2.336,0,0,1,127.47-22.05Zm16.05-1.23a4.852,4.852,0,0,0-4.23,2.4c-1.35,2.13-2.07,5.43-2.07,9.6a19.106,19.106,0,0,0,1.83,8.97A4.853,4.853,0,0,0,143.4.48c3.9,0,6.15-4.32,6.15-11.88C149.55-18.84,147.3-23.28,143.52-23.28Zm-.15,1.23c1.2,0,2.22,1.26,2.79,3.39a33.641,33.641,0,0,1,.63,7.35c0,4.68-.42,7.35-1.47,9.24A2.457,2.457,0,0,1,143.4-.75a2.443,2.443,0,0,1-1.89-1.29c-1.05-1.89-1.53-4.8-1.53-9.42a41.053,41.053,0,0,1,.39-5.85,8.945,8.945,0,0,1,1.35-3.78A2.336,2.336,0,0,1,143.37-22.05Z" transform="translate(774 3419)"/>
      <path id="パス_91" data-name="パス 91" d="M4.083-7.777l2.85,2.85.327-.327L4.41-8.1l2.85-2.85-.327-.327L4.083-8.43l-2.85-2.85-.327.327L3.756-8.1.906-5.253l.327.327ZM1.543-8.838A.737.737,0,0,0,.8-8.111a.73.73,0,0,0,.727.735.732.732,0,0,0,.735-.735A.732.732,0,0,0,1.543-8.838Zm5.112,0a.737.737,0,0,0-.743.727.73.73,0,0,0,.727.735.732.732,0,0,0,.735-.735A.732.732,0,0,0,6.655-8.838ZM4.1-6.274a.737.737,0,0,0-.743.727.73.73,0,0,0,.727.735.732.732,0,0,0,.735-.735A.732.732,0,0,0,4.1-6.274Zm0-5.12a.737.737,0,0,0-.743.727.73.73,0,0,0,.727.735.732.732,0,0,0,.735-.735A.732.732,0,0,0,4.1-11.394Zm4.745,6.41H12.07v-.7H9.554A17.758,17.758,0,0,0,11.718-8.43,2.671,2.671,0,0,0,12.053-9.7a1.519,1.519,0,0,0-1.543-1.641,1.487,1.487,0,0,0-1.4.89,2.565,2.565,0,0,0-.229,1.209h.751a2.577,2.577,0,0,1,.294-1.4.752.752,0,0,1,.6-.367c.449,0,.776.49.776,1.16a3.935,3.935,0,0,1-.719,2.082A16.308,16.308,0,0,1,8.844-5.384Z" transform="translate(928 3409)"/>
    </g>
    <path id="パス_88" data-name="パス 88" d="M3.416-7.364a26.351,26.351,0,0,1,4,1.946A11.124,11.124,0,0,1,1.3.112l.154.406a10.269,10.269,0,0,0,7.028-5.25,16.5,16.5,0,0,1,2.884,2.478l.938-1.12A14.509,14.509,0,0,0,9.03-5.824a23.559,23.559,0,0,0,1.4-4.41c.252-.084.35-.168.35-.308,0-.112-.084-.2-.238-.238l-1.456-.378-.056.784A19.157,19.157,0,0,1,7.868-6.4,18.472,18.472,0,0,0,3.584-7.77Zm23.94,1.708L15.666-6.09v1.47l11.69-.42ZM40.012-7.9a49.259,49.259,0,0,1-.532,5.362,6.417,6.417,0,0,1-.42,2,.877.877,0,0,1-.882.392h-1.61V.5h2.408c1.092.014,1.4-.35,1.68-1.9a54.181,54.181,0,0,0,.728-7.14H36.078c.042-.644.07-1.148.07-1.764v-.364c.2-.112.28-.21.28-.336a.244.244,0,0,0-.266-.238l-1.47-.1.1.84v.21c0,.392-.028,1.05-.084,1.75h-3.7l-.56-.112v.868l.56-.112h3.626c-.364,3.766-1.82,6.258-4.676,8.05l.168.336a8.4,8.4,0,0,0,4.214-3.262A11.226,11.226,0,0,0,36.008-7.9ZM56.2-5.656,44.506-6.09v1.47L56.2-5.04ZM60.648.084H61.81V-4.1h2.73V1.12H65.7V-4.1h3.066v2.884c-.014.462-.168.616-.63.63H67.074V0h1.68c.84,0,1.2-.336,1.19-1.092v-3.57H65.7v-1.05c.182-.14.224-.182.224-.28,0-.126-.1-.182-.294-.182H64.54v1.512H61.474A12.746,12.746,0,0,0,63.5-6.706H70.56l.56.112v-.784l-.56.112H63.938l.028-.042.462-.644c.294-.042.448-.14.448-.28,0-.1-.07-.154-.2-.182L63.5-8.722a8.047,8.047,0,0,1-.9,1.456H58.814l-.56-.112v.784l.56-.112h3.36A16.515,16.515,0,0,1,58.24-3.122l.2.364a11.511,11.511,0,0,0,2.212-1.274ZM59.934-10.99c1.54.364,2.814.728,4,1.134-1.288.49-4.046,1.33-5.152,1.6l.1.406a28.154,28.154,0,0,0,6.3-1.568c.784.28,2.352.952,3.724,1.6l.784-.854a31,31,0,0,0-3.276-1.246c.672-.294,1.176-.518,2.058-.938a2.356,2.356,0,0,0,.28.028c.168,0,.35-.112.35-.224,0-.056-.07-.126-.168-.182l-.98-.518a17.683,17.683,0,0,1-2.842,1.428,25.539,25.539,0,0,0-5-1.036ZM83.5-7.1c-.168,1.428-.224,1.554-.784,1.568H81.676v.588h1.54c.812-.014,1.078-.266,1.232-1.12a45.035,45.035,0,0,0,.462-5.194H79.716c-.028,3.99-.49,5.278-2.254,6.342l.238.378A4.088,4.088,0,0,0,80.346-7.1Zm.056-.56H80.5c.07-.35.14-.868.182-1.26h2.982l-.014.21-.014.224-.07.784Zm.154-1.82H80.724l.014-.042.056-1.176h3c-.028.49-.028.6-.056.938Zm-7.2-.742v-.994c.182-.126.224-.182.224-.28,0-.126-.1-.182-.294-.182H75.362v1.456H73.22l-.56-.112v.784l.56-.112h.5v2.8c.028.9.392,1.148,1.722,1.148H78.2v-.98H75.656c-.7-.014-.84-.112-.854-.546V-9.66h3.584l.56.112v-.784l-.56.112Zm3.094,6.5h4.62l.546.112V-4.4l-.546.112H73.976L73.43-4.4v.784l.546-.112h4.466v1.568H74.774l-.56-.112v.784l.56-.112h3.668V.084H73.3l-.56-.112V.756L73.3.644H84.9l.56.112V-.028L84.9.084H79.6V-1.6h3.822l.56.112v-.784l-.56.112H79.6ZM90.888.308V.966h1.988c.938,0,1.33-.392,1.33-1.33V-11.13c.182-.126.224-.182.224-.266,0-.14-.1-.2-.294-.2H92.918V-.448c0,.532-.224.756-.756.756ZM95.9-8.806a33.6,33.6,0,0,1,2.674,7.252l1.386-.784a20.584,20.584,0,0,0-3.6-6.734ZM87.444-1.442A15.448,15.448,0,0,0,90.762-8.26c.28-.056.42-.168.42-.35,0-.126-.1-.2-.322-.266l-1.288-.35a26.186,26.186,0,0,1-2.478,7.532ZM103.32-6.02v-.154a1.928,1.928,0,0,0-.028-.448h-.476a3.542,3.542,0,0,1-1.316,2.24l.84,1.092a2.9,2.9,0,0,0,.952-2.128V-5.46H112.8a5.569,5.569,0,0,1-.826,1.554l.434.266a5.028,5.028,0,0,0,1.974-2.38Zm5.166-4.1v-1.106c.182-.126.224-.182.224-.28,0-.126-.1-.182-.294-.182h-1.134v1.568h-5.04l-.56-.112v.784l.56-.112h5.04v1.568H103.46l-.56-.112v.784l.56-.112h8.96l.56.112v-.784l-.56.112h-3.934V-9.562h5.152l.56.112v-.784l-.56.112ZM101.92.98a6.519,6.519,0,0,0,3.15-1.064c1.008-.714,1.456-1.764,1.47-3.5v-.35c.168-.126.224-.182.224-.28,0-.126-.1-.182-.308-.182h-1.12v.784a3.7,3.7,0,0,1-1.148,3.024A5.262,5.262,0,0,1,101.808.56ZM108.962-4.4v3.92c.028.854.434,1.12,1.806,1.162h1.96c.98,0,1.386-.378,1.456-1.358l.07-1.19-.574-.056-.07.868c-.056.476-.238.644-.658.644h-2c-.588-.014-.812-.14-.812-.434V-3.934c.182-.126.224-.182.224-.28,0-.14-.1-.182-.392-.182ZM122.5-7.812h-2.394V.966h1.036V.07h5.922v.8h1.078v-8.68h-2.45v-2.73h2.548l.56.112v-.784l-.56.112h-7.868l-.546-.112v.784l.546-.112H122.5Zm.966-2.73h1.26v2.73h-1.26Zm0,3.29h1.26V-.49h-1.26ZM122.5-.49h-1.358V-7.252H122.5Zm3.192-6.762h1.372V-.49h-1.372Zm-7.056-1.386c.294-.826.42-1.218.742-2.254.224-.042.336-.14.336-.28,0-.112-.1-.2-.238-.238l-1.176-.35a33.182,33.182,0,0,1-2.38,7.6l.294.224a15.173,15.173,0,0,0,1.33-2.156V1.036h1.092Zm15.834,5.4a13.474,13.474,0,0,0,4.536-2.66,13.523,13.523,0,0,0,3.682,2.324,4.638,4.638,0,0,1,.532-1.092,14.488,14.488,0,0,1-3.556-1.89,14.469,14.469,0,0,0,2.59-3.71H137.7l.014-.042c.154-.294.168-.322.35-.714.266-.1.378-.182.378-.28a.262.262,0,0,0-.14-.2l-1.19-.266A13.022,13.022,0,0,1,136.108-9.2a12.942,12.942,0,0,1-1.33,2.142l.28.266a9.511,9.511,0,0,0,2-2.338,6.353,6.353,0,0,0,1.288,2.548,15.365,15.365,0,0,1-4.018,3ZM137.41-9.7h3.36a16.97,16.97,0,0,1-1.862,2.534,5.27,5.27,0,0,1-1.554-2.45ZM132.454,1.036h1.078V-6.4a9.44,9.44,0,0,1,.994,2.128l.868-.756A4.952,4.952,0,0,0,133.532-6.8V-8.26h1.022l.56.112v-.784l-.56.112h-1.022v-2.394c.168-.126.224-.182.224-.28,0-.126-.1-.182-.294-.182h-1.008V-8.82h-1.47l-.56-.112v.784l.56-.112h1.344a23.425,23.425,0,0,1-1.988,5.894l.308.21a13.778,13.778,0,0,0,1.806-3.3ZM141.89.952v-4.7h-5.866V1.036h1.106V.364h3.64V.952ZM137.13-.2v-3h3.64v3Z" transform="translate(396 3461)"/>
    <path id="パス_87" data-name="パス 87" d="M7.392-11.1c.238-.084.336-.182.336-.308s-.1-.2-.28-.21l-1.19-.14A14.473,14.473,0,0,1,4.172-8.876,20.166,20.166,0,0,1,.56-5.782l.182.364a14.954,14.954,0,0,0,6.342-5.236l.056.084a12.274,12.274,0,0,0,5.684,4.886,7.578,7.578,0,0,1,.616-1.274A13.2,13.2,0,0,1,9.492-9.072,12.574,12.574,0,0,1,7.364-11.06ZM7.546-5.8H10.57l.56.112v-.784l-.56.112H3.43l-.56-.112v.784L3.43-5.8H6.342v2.45H3.276L2.73-3.458v.784l.546-.112H6.342V.042H1.806L1.246-.07V.714L1.806.6H12.348l.56.112V-.07l-.56.112h-4.8V-2.786h3.178l.546.112v-.784l-.546.112H7.546ZM27.3-4.4l.56.112v-.784l-.56.112H18.34V-6.51h7.182l.56.112v-.784l-.56.112H18.34V-8.54h7.182l.56.112v-.784l-.56.112H18.34v-1.442h7.728l.56.112v-.784l-.56.112h-8.9v6.146H15.54l-.56-.112v.784l.56-.112h1.624V-.532c-.658.084-1.036.126-2.114.21L15.526.826c.1.224.154.294.266.294.154,0,.224-.084.308-.336a37.543,37.543,0,0,0,6.8-1.806l.07-.014A8.57,8.57,0,0,0,27.188,1.12,6.784,6.784,0,0,1,27.86-.14a9.972,9.972,0,0,1-4.1-1.526,17.925,17.925,0,0,0,2.66-1.246l.28.014c.2,0,.35-.112.35-.252,0-.056-.056-.14-.168-.21l-1.05-.7a16.389,16.389,0,0,1-2.478,2.086A5.966,5.966,0,0,1,21.518-4.4Zm-6.384,0A7.472,7.472,0,0,0,22.61-1.414l-.126.028c-.994.224-2.016.392-4.144.7V-4.4Zm13.23.868v-7.238h-.938L29.26-3.122v.686h3.682V.126h1.2V-2.436h1.148V-3.528Zm-1.2,0H30.254l2.688-5.236ZM37.814,1.5a2.439,2.439,0,0,0,1.26-2.114c0-.728-.364-1.176-.938-1.176a.908.908,0,0,0-.91.91.905.905,0,0,0,.91.9A.951.951,0,0,0,38.4-.028a2.057,2.057,0,0,1-.854,1.148Zm6.2-12.362a2.264,2.264,0,0,0-1.974,1.12,8.587,8.587,0,0,0-.966,4.48,8.916,8.916,0,0,0,.854,4.186,2.265,2.265,0,0,0,2.03,1.3c1.82,0,2.87-2.016,2.87-5.544C46.83-8.792,45.78-10.864,44.016-10.864Zm-.07.574c.56,0,1.036.588,1.3,1.582a15.7,15.7,0,0,1,.294,3.43,8.973,8.973,0,0,1-.686,4.312,1.147,1.147,0,0,1-.9.616,1.14,1.14,0,0,1-.882-.6,9.372,9.372,0,0,1-.714-4.4,19.158,19.158,0,0,1,.182-2.73,4.175,4.175,0,0,1,.63-1.764A1.09,1.09,0,0,1,43.946-10.29Zm6.23,4.62a3.1,3.1,0,0,0-.938.588,3.2,3.2,0,0,0-.812,2.212,3.3,3.3,0,0,0,.77,2.2,2.833,2.833,0,0,0,2.184.9,2.868,2.868,0,0,0,2-.686,3.417,3.417,0,0,0,.952-2.422A3.274,3.274,0,0,0,53.69-4.9a2.633,2.633,0,0,0-1.106-.77,2.667,2.667,0,0,0,.8-.56,2.807,2.807,0,0,0,.714-1.9,2.936,2.936,0,0,0-.686-1.9,2.5,2.5,0,0,0-1.988-.826,2.712,2.712,0,0,0-1.9.686,2.828,2.828,0,0,0-.854,2.058A2.858,2.858,0,0,0,49.2-6.44,2.519,2.519,0,0,0,50.176-5.67Zm1.2.308c1.008,0,1.708,1.008,1.708,2.492A3.713,3.713,0,0,1,52.7-1.092a1.437,1.437,0,0,1-1.26.742,1.6,1.6,0,0,1-1.2-.574,2.748,2.748,0,0,1-.56-1.89,3.05,3.05,0,0,1,.6-2A1.534,1.534,0,0,1,51.38-5.362Zm-.028-4.928c.9,0,1.526.9,1.526,2.184,0,1.26-.616,2.156-1.512,2.156a1.356,1.356,0,0,1-.882-.364,2.44,2.44,0,0,1-.6-1.792,2.726,2.726,0,0,1,.5-1.708A1.29,1.29,0,0,1,51.352-10.29Zm7.5-.574a2.264,2.264,0,0,0-1.974,1.12,8.587,8.587,0,0,0-.966,4.48,8.916,8.916,0,0,0,.854,4.186A2.265,2.265,0,0,0,58.8.224c1.82,0,2.87-2.016,2.87-5.544C61.67-8.792,60.62-10.864,58.856-10.864Zm-.07.574c.56,0,1.036.588,1.3,1.582a15.7,15.7,0,0,1,.294,3.43A8.973,8.973,0,0,1,59.7-.966a1.147,1.147,0,0,1-.9.616,1.14,1.14,0,0,1-.882-.6,9.372,9.372,0,0,1-.714-4.4,19.158,19.158,0,0,1,.182-2.73,4.175,4.175,0,0,1,.63-1.764A1.09,1.09,0,0,1,58.786-10.29ZM65.03-7.014H63.742V-.056H65.03v-4.69a1.985,1.985,0,0,1,.658-1.036,2,2,0,0,1,1.456-.7c.686,0,1.022.476,1.022,1.456v4.97h1.288V-4.718A2.342,2.342,0,0,1,70.1-5.8a1.973,1.973,0,0,1,1.4-.686,1.086,1.086,0,0,1,.714.252,1.934,1.934,0,0,1,.378,1.442V-.056h1.288V-4.9A2.321,2.321,0,0,0,73.4-6.482a2.294,2.294,0,0,0-1.652-.63A2.769,2.769,0,0,0,69.3-5.67a1.508,1.508,0,0,0-.364-.812,2.012,2.012,0,0,0-1.554-.63,2.805,2.805,0,0,0-2.352,1.33Zm12.6,0H76.342V-.056H77.63v-4.69a1.985,1.985,0,0,1,.658-1.036,2,2,0,0,1,1.456-.7c.686,0,1.022.476,1.022,1.456v4.97h1.288V-4.718A2.342,2.342,0,0,1,82.7-5.8a1.973,1.973,0,0,1,1.4-.686,1.086,1.086,0,0,1,.714.252,1.934,1.934,0,0,1,.378,1.442V-.056h1.288V-4.9A2.321,2.321,0,0,0,86-6.482a2.294,2.294,0,0,0-1.652-.63A2.769,2.769,0,0,0,81.9-5.67a1.508,1.508,0,0,0-.364-.812,2.012,2.012,0,0,0-1.554-.63,2.805,2.805,0,0,0-2.352,1.33ZM92.652.112a8.417,8.417,0,0,0-3.906-2.674l-.266.336A12.5,12.5,0,0,1,91.5,1.12ZM109.732-11.1c.238-.084.336-.182.336-.308s-.1-.2-.28-.21l-1.19-.14a14.473,14.473,0,0,1-2.086,2.884A20.166,20.166,0,0,1,102.9-5.782l.182.364a14.954,14.954,0,0,0,6.342-5.236l.056.084a12.274,12.274,0,0,0,5.684,4.886,7.579,7.579,0,0,1,.616-1.274,13.2,13.2,0,0,1-3.948-2.114A12.574,12.574,0,0,1,109.7-11.06Zm.154,5.306h3.024l.56.112v-.784l-.56.112h-7.14l-.56-.112v.784l.56-.112h2.912v2.45h-3.066l-.546-.112v.784l.546-.112h3.066V.042h-4.536l-.56-.112V.714l.56-.112h10.542l.56.112V-.07l-.56.112h-4.8V-2.786h3.178l.546.112v-.784l-.546.112h-3.178ZM120.47-9.128h.91v6.286c0,.266-.084.336-.336.35h-.406v.56h.714c.672,0,.952-.28.952-.924v-6.79H120.47v-1.568c.182-.126.224-.182.224-.28,0-.126-.1-.182-.294-.182h-.854v2.03h-1.764v7.8h.924v-7.28h.84V1.036h.924Zm9.24,4.046h-6.748V1.036h1.022V.35h4.676V.938h1.05ZM128.66-2.17V-.21h-1.876V-2.17Zm0-.56h-1.876V-4.522h1.876Zm-2.884-1.792V-2.73h-1.792V-4.522ZM123.984-.21V-2.17h1.792V-.21Zm5.166-6.16V-9.422h-5.74V-6.37Zm-1.078-.56H124.46V-8.862h3.612ZM123-10.612h6.636l.56.112v-.784l-.56.112H123l-.56-.112v.784Zm9.632,2.3a9.069,9.069,0,0,0,1.792-.966V.126h1.232V-10.766h-.546a8.854,8.854,0,0,1-2.478,1.638ZM140.154,1.5a2.439,2.439,0,0,0,1.26-2.114c0-.728-.364-1.176-.938-1.176a.908.908,0,0,0-.91.91.905.905,0,0,0,.91.9.951.951,0,0,0,.266-.042,2.057,2.057,0,0,1-.854,1.148Zm3.332-10.962h4.522l-3.78,9.59h.882l4-10.15v-.644h-5.628Zm7.42,6.384a4.35,4.35,0,0,0,.56,2.2,2.565,2.565,0,0,0,2.24,1.106,2.372,2.372,0,0,0,2.226-1.176,5.669,5.669,0,0,0,.6-2.758,4.262,4.262,0,0,0-.476-2.17A2.423,2.423,0,0,0,153.916-7.1a2.734,2.734,0,0,0-1.246.308,2.245,2.245,0,0,0-.7.616v-3.29h4.27v-1.2h-4.984V-4.55h.63a2.629,2.629,0,0,1,.56-1.316,1.818,1.818,0,0,1,1.316-.63,1.326,1.326,0,0,1,1.12.672,4.984,4.984,0,0,1,.364,2.2,5.71,5.71,0,0,1-.476,2.618,1.2,1.2,0,0,1-1.092.658,1.132,1.132,0,0,1-.994-.532,3.97,3.97,0,0,1-.532-2.2Zm7.42,0a4.35,4.35,0,0,0,.56,2.2,2.565,2.565,0,0,0,2.24,1.106,2.372,2.372,0,0,0,2.226-1.176,5.669,5.669,0,0,0,.6-2.758,4.262,4.262,0,0,0-.476-2.17A2.423,2.423,0,0,0,161.336-7.1a2.734,2.734,0,0,0-1.246.308,2.245,2.245,0,0,0-.7.616v-3.29h4.27v-1.2h-4.984V-4.55h.63a2.629,2.629,0,0,1,.56-1.316,1.818,1.818,0,0,1,1.316-.63,1.326,1.326,0,0,1,1.12.672,4.984,4.984,0,0,1,.364,2.2,5.71,5.71,0,0,1-.476,2.618A1.2,1.2,0,0,1,161.1-.35a1.132,1.132,0,0,1-.994-.532,3.97,3.97,0,0,1-.532-2.2Zm9.044-3.934h-1.288V-.056h1.288v-4.69a1.985,1.985,0,0,1,.658-1.036,2,2,0,0,1,1.456-.7c.686,0,1.022.476,1.022,1.456v4.97h1.288V-4.718a2.343,2.343,0,0,1,.644-1.078,1.973,1.973,0,0,1,1.4-.686,1.086,1.086,0,0,1,.714.252,1.934,1.934,0,0,1,.378,1.442V-.056h1.288V-4.9a2.321,2.321,0,0,0-.476-1.582,2.294,2.294,0,0,0-1.652-.63,2.769,2.769,0,0,0-2.45,1.442,1.509,1.509,0,0,0-.364-.812,2.012,2.012,0,0,0-1.554-.63,2.805,2.805,0,0,0-2.352,1.33Zm12.6,0h-1.288V-.056h1.288v-4.69a1.985,1.985,0,0,1,.658-1.036,2,2,0,0,1,1.456-.7c.686,0,1.022.476,1.022,1.456v4.97h1.288V-4.718a2.343,2.343,0,0,1,.644-1.078,1.973,1.973,0,0,1,1.4-.686,1.086,1.086,0,0,1,.714.252,1.934,1.934,0,0,1,.378,1.442V-.056h1.288V-4.9a2.321,2.321,0,0,0-.476-1.582,2.294,2.294,0,0,0-1.652-.63,2.769,2.769,0,0,0-2.45,1.442,1.509,1.509,0,0,0-.364-.812,2.012,2.012,0,0,0-1.554-.63,2.805,2.805,0,0,0-2.352,1.33ZM194.992.112a8.417,8.417,0,0,0-3.906-2.674l-.266.336a12.5,12.5,0,0,1,3.024,3.346ZM212.072-11.1c.238-.084.336-.182.336-.308s-.1-.2-.28-.21l-1.19-.14a14.473,14.473,0,0,1-2.086,2.884,20.165,20.165,0,0,1-3.612,3.094l.182.364a14.954,14.954,0,0,0,6.342-5.236l.056.084A12.274,12.274,0,0,0,217.5-5.684a7.578,7.578,0,0,1,.616-1.274,13.2,13.2,0,0,1-3.948-2.114,12.574,12.574,0,0,1-2.128-1.988Zm.154,5.306h3.024l.56.112v-.784l-.56.112h-7.14l-.56-.112v.784l.56-.112h2.912v2.45h-3.066l-.546-.112v.784l.546-.112h3.066V.042h-4.536l-.56-.112V.714l.56-.112h10.542l.56.112V-.07l-.56.112h-4.8V-2.786H215.4l.546.112v-.784l-.546.112h-3.178ZM225.4-10.29h-5.1l-.56-.112v.784l.56-.112h11.578l.56.112V-10.4l-.56.112h-5.208v-.994c.182-.14.224-.2.224-.28,0-.14-.1-.2-.294-.2h-1.2ZM231.854-5H220.332V1.036h1.162V-4.438h9.2V-.21c-.014.434-.154.574-.588.588h-1.19V.966h1.722c.854,0,1.232-.35,1.218-1.162Zm-8.932,1.6V0h1.106V-.644h5V-3.4Zm1.106,2.2V-2.842h3.906V-1.2Zm6.146-4.858V-8.708h-8.162v2.646Zm-7-.56V-8.148h5.838v1.526Zm11.8-1.694a9.069,9.069,0,0,0,1.792-.966V.126H238V-10.766h-.546a8.854,8.854,0,0,1-2.478,1.638ZM242.494,1.5a2.439,2.439,0,0,0,1.26-2.114c0-.728-.364-1.176-.938-1.176a.908.908,0,0,0-.91.91.905.905,0,0,0,.91.9.951.951,0,0,0,.266-.042,2.057,2.057,0,0,1-.854,1.148Zm3.332-4.578a4.35,4.35,0,0,0,.56,2.2,2.565,2.565,0,0,0,2.24,1.106,2.372,2.372,0,0,0,2.226-1.176,5.669,5.669,0,0,0,.6-2.758,4.262,4.262,0,0,0-.476-2.17A2.423,2.423,0,0,0,248.836-7.1a2.734,2.734,0,0,0-1.246.308,2.245,2.245,0,0,0-.7.616v-3.29h4.27v-1.2h-4.984V-4.55h.63a2.629,2.629,0,0,1,.56-1.316,1.818,1.818,0,0,1,1.316-.63,1.326,1.326,0,0,1,1.12.672,4.984,4.984,0,0,1,.364,2.2,5.71,5.71,0,0,1-.476,2.618A1.2,1.2,0,0,1,248.6-.35a1.132,1.132,0,0,1-.994-.532,3.97,3.97,0,0,1-.532-2.2Zm8.19-5.236a9.069,9.069,0,0,0,1.792-.966V.126h1.232V-10.766h-.546a8.853,8.853,0,0,1-2.478,1.638Zm6.65,5.236a4.35,4.35,0,0,0,.56,2.2,2.565,2.565,0,0,0,2.24,1.106,2.372,2.372,0,0,0,2.226-1.176,5.669,5.669,0,0,0,.6-2.758,4.262,4.262,0,0,0-.476-2.17A2.423,2.423,0,0,0,263.676-7.1a2.734,2.734,0,0,0-1.246.308,2.245,2.245,0,0,0-.7.616v-3.29H266v-1.2h-4.984V-4.55h.63a2.63,2.63,0,0,1,.56-1.316,1.818,1.818,0,0,1,1.316-.63,1.326,1.326,0,0,1,1.12.672,4.984,4.984,0,0,1,.364,2.2,5.71,5.71,0,0,1-.476,2.618,1.2,1.2,0,0,1-1.092.658,1.132,1.132,0,0,1-.994-.532,3.97,3.97,0,0,1-.532-2.2Zm9.044-3.934h-1.288V-.056h1.288v-4.69a1.985,1.985,0,0,1,.658-1.036,2,2,0,0,1,1.456-.7c.686,0,1.022.476,1.022,1.456v4.97h1.288V-4.718a2.343,2.343,0,0,1,.644-1.078,1.973,1.973,0,0,1,1.4-.686,1.086,1.086,0,0,1,.714.252,1.934,1.934,0,0,1,.378,1.442V-.056h1.288V-4.9a2.321,2.321,0,0,0-.476-1.582,2.294,2.294,0,0,0-1.652-.63,2.769,2.769,0,0,0-2.45,1.442,1.508,1.508,0,0,0-.364-.812,2.012,2.012,0,0,0-1.554-.63,2.805,2.805,0,0,0-2.352,1.33Zm12.6,0h-1.288V-.056h1.288v-4.69a1.985,1.985,0,0,1,.658-1.036,2,2,0,0,1,1.456-.7c.686,0,1.022.476,1.022,1.456v4.97h1.288V-4.718a2.343,2.343,0,0,1,.644-1.078,1.973,1.973,0,0,1,1.4-.686,1.086,1.086,0,0,1,.714.252,1.934,1.934,0,0,1,.378,1.442V-.056h1.288V-4.9a2.321,2.321,0,0,0-.476-1.582,2.294,2.294,0,0,0-1.652-.63,2.769,2.769,0,0,0-2.45,1.442,1.508,1.508,0,0,0-.364-.812,2.012,2.012,0,0,0-1.554-.63,2.805,2.805,0,0,0-2.352,1.33ZM7.728,12.992h4.4l.616.126v-.9l-.616.126h-4.4V10.36c.2-.14.28-.238.28-.364a.252.252,0,0,0-.266-.238l-1.414-.1.126.84v1.848H1.974l-.616-.126v.9l.616-.126h4.48v7.182c0,.476-.21.686-.7.686H4.326V21.5H6.678c.728.014,1.05-.336,1.05-1.134Zm1.386,1.666a17.406,17.406,0,0,1,2.8,5.236l1.344-.7A10.084,10.084,0,0,0,9.394,14.42ZM.938,19.95a9.648,9.648,0,0,0,3.7-4.55c.252-.1.35-.2.35-.336a.3.3,0,0,0-.21-.266l-1.316-.476-.168.77a12.955,12.955,0,0,1-2.6,4.55ZM22.96,13.5a35.994,35.994,0,0,0,2.982-2.632c.378-.042.532-.14.532-.336a.434.434,0,0,0-.224-.322l-1.078-.714-.5.756a27.236,27.236,0,0,1-9.184,6.37l.154.42a18.465,18.465,0,0,0,6.02-2.6v7.308h1.3Zm18.816,1.848-11.69-.434v1.47l11.69-.42Zm8.876,6.1a6.936,6.936,0,0,0,4.158-2.534,9.8,9.8,0,0,0,2.03-4.606l-.434-.14c-.924,2.632-2.674,4.774-4.508,5.516V10.64c.21-.14.28-.238.28-.364a.262.262,0,0,0-.266-.238l-1.386-.1.126.84Zm-6.622.042a7.681,7.681,0,0,0,3.136-3.332,13.044,13.044,0,0,0,.826-5.46V11.116c.21-.14.28-.238.28-.364a.252.252,0,0,0-.266-.238l-1.428-.1.126.84v1.568c0,4.256-.672,6.174-2.926,8.3ZM70.546,10.878a2.781,2.781,0,0,0-1.61-1.484l-.252.2a5.228,5.228,0,0,1,.924,1.764Zm-3.472-.966a5.737,5.737,0,0,1,.77,1.862l.98-.448a2.9,2.9,0,0,0-1.5-1.6Zm4.032,9.73c-2.016-2.03-5.362-5.782-6.958-7.826-.574-.742-.784-.938-1.036-.938-.28,0-.5.21-1.5,1.442-1.512,1.834-1.932,2.338-2.674,3.108l-.7.588.784,1.064a.345.345,0,0,0,.28.182c.168,0,.252-.126.266-.378.756-1.05,1.2-1.694,2.772-3.99.56-.854.658-.98.756-.98.056,0,.126.07.294.336a97.849,97.849,0,0,0,6.72,8.582Zm13.93-4.3-11.69-.434v1.47l11.69-.42Zm9.7.994a17.629,17.629,0,0,0,2.884-5.67H89.334l-.616-.126v.9l.616-.126h6.622A16.133,16.133,0,0,1,87.5,20.748l.2.434a14.074,14.074,0,0,0,6.748-4.466,23.9,23.9,0,0,1,4,4.564l1.246-1.008a17.1,17.1,0,0,0-4.774-3.836Zm6.944,4.69h5.53v-1.2H102.9a30.444,30.444,0,0,0,3.71-4.7,4.579,4.579,0,0,0,.574-2.17,2.6,2.6,0,0,0-2.646-2.814,2.549,2.549,0,0,0-2.408,1.526,4.4,4.4,0,0,0-.392,2.072h1.288a4.418,4.418,0,0,1,.5-2.394,1.29,1.29,0,0,1,1.036-.63c.77,0,1.33.84,1.33,1.988a6.746,6.746,0,0,1-1.232,3.57,27.959,27.959,0,0,1-2.982,4.074Zm8.232,1.47a2.439,2.439,0,0,0,1.26-2.114c0-.728-.364-1.176-.938-1.176a.9.9,0,1,0,0,1.806.951.951,0,0,0,.266-.042,2.057,2.057,0,0,1-.854,1.148Zm8.834-9.352a3.925,3.925,0,0,0-.406-1.75,2.169,2.169,0,0,0-2.086-1.26,2.5,2.5,0,0,0-2.212,1.246,9.291,9.291,0,0,0-.868,4.55,8.136,8.136,0,0,0,.728,3.92,2.5,2.5,0,0,0,2.282,1.386c1.68,0,2.744-1.456,2.744-3.78,0-2.086-.952-3.36-2.52-3.36a2.3,2.3,0,0,0-1.232.35,3.126,3.126,0,0,0-.8.784,13.267,13.267,0,0,1,.392-3.15c.294-.91.784-1.372,1.442-1.372a.965.965,0,0,1,.868.476,4,4,0,0,1,.434,1.96Zm-2.52,1.582c1.008,0,1.47.91,1.47,2.9a4.476,4.476,0,0,1-.5,2.45,1.3,1.3,0,0,1-1.064.588,1.423,1.423,0,0,1-1.19-.728,6.382,6.382,0,0,1-.518-2.772,2.606,2.606,0,0,1,.378-1.554A1.837,1.837,0,0,1,116.228,14.728Zm7.308-4.592a2.264,2.264,0,0,0-1.974,1.12,8.587,8.587,0,0,0-.966,4.48,8.916,8.916,0,0,0,.854,4.186,2.265,2.265,0,0,0,2.03,1.3c1.82,0,2.87-2.016,2.87-5.544C126.35,12.208,125.3,10.136,123.536,10.136Zm-.07.574c.56,0,1.036.588,1.3,1.582a15.7,15.7,0,0,1,.294,3.43,8.973,8.973,0,0,1-.686,4.312.953.953,0,0,1-1.778.014,9.372,9.372,0,0,1-.714-4.4,19.159,19.159,0,0,1,.182-2.73,4.175,4.175,0,0,1,.63-1.764A1.09,1.09,0,0,1,123.466,10.71Zm4.62,7.21a4.35,4.35,0,0,0,.56,2.2,2.565,2.565,0,0,0,2.24,1.106,2.372,2.372,0,0,0,2.226-1.176,5.669,5.669,0,0,0,.6-2.758,4.262,4.262,0,0,0-.476-2.17A2.423,2.423,0,0,0,131.1,13.9a2.734,2.734,0,0,0-1.246.308,2.245,2.245,0,0,0-.7.616v-3.29h4.27v-1.2h-4.984V16.45h.63a2.629,2.629,0,0,1,.56-1.316,1.818,1.818,0,0,1,1.316-.63,1.326,1.326,0,0,1,1.12.672,4.984,4.984,0,0,1,.364,2.2,5.71,5.71,0,0,1-.476,2.618,1.2,1.2,0,0,1-1.092.658,1.132,1.132,0,0,1-.994-.532,3.97,3.97,0,0,1-.532-2.2Zm9.044-3.934h-1.288v6.958h1.288v-4.69a1.985,1.985,0,0,1,.658-1.036,2,2,0,0,1,1.456-.7c.686,0,1.022.476,1.022,1.456v4.97h1.288V16.282A2.343,2.343,0,0,1,142.2,15.2a1.973,1.973,0,0,1,1.4-.686,1.086,1.086,0,0,1,.714.252,1.934,1.934,0,0,1,.378,1.442v4.732h1.288V16.1a2.321,2.321,0,0,0-.476-1.582,2.294,2.294,0,0,0-1.652-.63,2.769,2.769,0,0,0-2.45,1.442,1.509,1.509,0,0,0-.364-.812,2.012,2.012,0,0,0-1.554-.63,2.805,2.805,0,0,0-2.352,1.33Zm12.6,0h-1.288v6.958h1.288v-4.69a1.985,1.985,0,0,1,.658-1.036,2,2,0,0,1,1.456-.7c.686,0,1.022.476,1.022,1.456v4.97h1.288V16.282A2.342,2.342,0,0,1,154.8,15.2a1.973,1.973,0,0,1,1.4-.686,1.086,1.086,0,0,1,.714.252,1.934,1.934,0,0,1,.378,1.442v4.732h1.288V16.1a2.321,2.321,0,0,0-.476-1.582,2.294,2.294,0,0,0-1.652-.63A2.769,2.769,0,0,0,154,15.33a1.509,1.509,0,0,0-.364-.812,2.012,2.012,0,0,0-1.554-.63,2.805,2.805,0,0,0-2.352,1.33Zm15.022,7.126a8.417,8.417,0,0,0-3.906-2.674l-.266.336A12.5,12.5,0,0,1,163.6,22.12Zm16.254-6.09h6.314l.56.112V14.35l-.56.112H175.56L175,14.35v.784l.56-.112h.7V20.37c-.112.028-.182.028-.378.056-.294.042-.588.084-.882.112l.392,1.022c.056.14.154.224.252.224s.2-.084.266-.28a28.609,28.609,0,0,0,4.06-1.386v2h1.036ZM179.97,16.73v1.246H177.3V16.73Zm-2.674-.56V15.022h2.674V16.17Zm2.674,2.366v1.12l-.28.056c-.7.168-1.722.378-2.394.49V18.536Zm1.456,3.584a7.656,7.656,0,0,0,3.108-1.68,7.157,7.157,0,0,0,2.744,1.6,7.055,7.055,0,0,1,.6-1.092,7.768,7.768,0,0,1-2.646-1.246,11.956,11.956,0,0,0,1.988-3.7H182.2l-.56-.112v.784l.56-.112h.168a7.722,7.722,0,0,0,1.582,3.262,7.151,7.151,0,0,1-2.688,1.946Zm4.4-5.558a11.184,11.184,0,0,1-1.316,2.548,6.5,6.5,0,0,1-1.652-2.548Zm-9-6.818v3.738h9.31V9.744Zm1.12,3.178V11.858h7.042v1.064Zm0-1.624V10.3h7.042V11.3Zm17.22-.588h-5.1l-.56-.112v.784l.56-.112h11.578l.56.112V10.6l-.56.112h-5.208V9.716c.182-.14.224-.2.224-.28,0-.14-.1-.2-.294-.2h-1.2ZM201.614,16H190.092v6.034h1.162V16.562h9.2V20.79c-.014.434-.154.574-.588.588h-1.19v.588H200.4c.854,0,1.232-.35,1.218-1.162Zm-8.932,1.6V21h1.106v-.644h5V17.6Zm1.106,2.2V18.158h3.906V19.8Zm6.146-4.858V12.292h-8.162v2.646Zm-7-.56V12.852h5.838v1.526Zm16.674,6.216h-3.962V16.912c.182-.126.224-.182.224-.28,0-.126-.1-.182-.294-.182h-1.134v5.488h1.2v-.784h9.268v.7h1.2V16.912c.182-.14.224-.182.224-.28,0-.126-.1-.182-.294-.182h-1.134v4.144h-4.1v-5.4h4.648V10.934c.182-.126.224-.182.224-.28,0-.126-.1-.182-.294-.182h-1.134V14.63h-3.444V9.786c.168-.126.224-.182.224-.28,0-.126-.1-.182-.294-.182h-1.134V14.63H206.29v-3.7c.182-.126.224-.182.224-.28,0-.126-.1-.182-.294-.182h-1.134V15.19h4.522Zm13.23-8.092a17.712,17.712,0,0,1-.8,4.522,8.413,8.413,0,0,1-3.78,4.494l.21.448a8.366,8.366,0,0,0,4.55-4.116,15.055,15.055,0,0,0,1.092-5.348H228.9c-.07,2.156-.336,6.02-.476,6.972-.126,1.344-.364,1.666-1.2,1.652h-1.862v.658h2.52c1.19.014,1.694-.462,1.82-1.736.154-.98.476-6.146.532-8.134h-6.09c.042-.476.056-.924.056-1.386V9.7c.168-.126.224-.182.224-.28,0-.126-.1-.182-.294-.182h-1.218v1.288c0,.336-.014.826-.042,1.386h-3.7l-.546-.112v.812l.546-.112Zm10.738.182a9.069,9.069,0,0,0,1.792-.966v9.408H236.6V10.234h-.546a8.854,8.854,0,0,1-2.478,1.638Zm6.524,5.194a3.848,3.848,0,0,0,.5,2.128,2.8,2.8,0,0,0,2.436,1.232,2.756,2.756,0,0,0,1.918-.672,3.418,3.418,0,0,0,.938-2.422,2.832,2.832,0,0,0-.742-2.016,2.717,2.717,0,0,0-1.3-.714,2.212,2.212,0,0,0,1.078-.546,2.751,2.751,0,0,0,.756-1.96,2.713,2.713,0,0,0-5.138-1.274,3.839,3.839,0,0,0-.294,1.666h1.232a3.285,3.285,0,0,1,.434-2,1.269,1.269,0,0,1,1.064-.588c.9,0,1.456.784,1.456,2.058,0,1.526-.644,2.352-1.834,2.352h-.84v.686h.812a1.775,1.775,0,0,1,1.554.6,3.189,3.189,0,0,1,.476,1.848,3.037,3.037,0,0,1-.56,1.89,1.388,1.388,0,0,1-1.05.518,1.461,1.461,0,0,1-1.148-.644,3.869,3.869,0,0,1-.5-2.142Zm7.546.042a4.35,4.35,0,0,0,.56,2.2,2.565,2.565,0,0,0,2.24,1.106,2.372,2.372,0,0,0,2.226-1.176,5.669,5.669,0,0,0,.6-2.758,4.262,4.262,0,0,0-.476-2.17,2.423,2.423,0,0,0-2.142-1.218,2.734,2.734,0,0,0-1.246.308,2.245,2.245,0,0,0-.7.616v-3.29h4.27v-1.2H248V16.45h.63a2.629,2.629,0,0,1,.56-1.316,1.818,1.818,0,0,1,1.316-.63,1.326,1.326,0,0,1,1.12.672,4.984,4.984,0,0,1,.364,2.2,5.71,5.71,0,0,1-.476,2.618,1.2,1.2,0,0,1-1.092.658,1.132,1.132,0,0,1-.994-.532,3.97,3.97,0,0,1-.532-2.2Zm9.044-.5,3.458,3.528h1.764l-3.99-4.088,3.458-2.87H260.3l-3.612,2.982V10.416H255.4V20.944h1.288Zm12.4-7L266.77,18.7l-2.408-8.288h-1.414l3.066,10.528h.91l2.338-8.316,2.394,8.316h.91l3.066-10.528h-.8l-2.422,8.344-2.38-8.344ZM6.566,36.022H12.88l.56.112V35.35l-.56.112H1.12L.56,35.35v.784l.56-.112h.7V41.37c-.112.028-.182.028-.378.056-.294.042-.588.084-.882.112L.952,42.56c.056.14.154.224.252.224s.2-.084.266-.28a28.609,28.609,0,0,0,4.06-1.386v2H6.566ZM5.53,37.73v1.246H2.856V37.73Zm-2.674-.56V36.022H5.53V37.17ZM5.53,39.536v1.12l-.28.056c-.7.168-1.722.378-2.394.49V39.536ZM6.986,43.12a7.656,7.656,0,0,0,3.108-1.68,7.157,7.157,0,0,0,2.744,1.6,7.055,7.055,0,0,1,.6-1.092A7.768,7.768,0,0,1,10.794,40.7,11.956,11.956,0,0,0,12.782,37H7.756L7.2,36.89v.784l.56-.112h.168a7.722,7.722,0,0,0,1.582,3.262A7.151,7.151,0,0,1,6.818,42.77Zm4.4-5.558a11.184,11.184,0,0,1-1.316,2.548,6.5,6.5,0,0,1-1.652-2.548Zm-9-6.818v3.738h9.31V30.744ZM3.5,33.922V32.858h7.042v1.064Zm0-1.624V31.3h7.042V32.3Zm23.506,2.408.588.112v-.854l-.588.112H21.728l.014-.042c.1-.98.168-2.03.168-2.814v-.434c.182-.126.224-.182.224-.28,0-.126-.1-.182-.294-.182h-1.2v.924c.014.406-.1,2-.182,2.786l-.014.042H15.834l-.588-.112v.854l.588-.112H20.37a9.866,9.866,0,0,1-5.39,7.952l.224.378a9.277,9.277,0,0,0,6.384-7.8A11.733,11.733,0,0,0,27.1,42.966a8.243,8.243,0,0,1,.756-1.4A11.732,11.732,0,0,1,23.3,37.674a8.714,8.714,0,0,1-1.442-2.968Zm7.658-3.374c.182-.1.28-.21.28-.336s-.112-.224-.28-.238l-1.4-.1.1.84V42.672h1.3v-7.42a13.907,13.907,0,0,1,5.222,3.612l.952-1.274a14.941,14.941,0,0,0-6.174-2.856ZM50.652,42.448a6.936,6.936,0,0,0,4.158-2.534,9.8,9.8,0,0,0,2.03-4.606l-.434-.14c-.924,2.632-2.674,4.774-4.508,5.516V31.64c.21-.14.28-.238.28-.364a.262.262,0,0,0-.266-.238l-1.386-.1.126.84Zm-6.622.042a7.681,7.681,0,0,0,3.136-3.332,13.044,13.044,0,0,0,.826-5.46V32.116c.21-.14.28-.238.28-.364a.252.252,0,0,0-.266-.238l-1.428-.1.126.84v1.568c0,4.256-.672,6.174-2.926,8.3Zm20.23-9.912c.154-.308.28-.616.49-1.162.266-.126.364-.21.364-.364,0-.126-.1-.21-.308-.252l-1.316-.28-.14.8a11.936,11.936,0,0,1-3.766,5.572l.224.336a9.394,9.394,0,0,0,4.116-4h4.382a12.226,12.226,0,0,1-3.416,6.272,13.759,13.759,0,0,1-5.25,2.744l.084.42a12.464,12.464,0,0,0,5.628-2.142,12.114,12.114,0,0,0,4.494-7.938Zm8.582,9.45h5.53v-1.2H74.06a30.444,30.444,0,0,0,3.71-4.7,4.579,4.579,0,0,0,.574-2.17A2.6,2.6,0,0,0,75.7,31.136a2.549,2.549,0,0,0-2.408,1.526,4.4,4.4,0,0,0-.392,2.072h1.288a4.418,4.418,0,0,1,.5-2.394,1.29,1.29,0,0,1,1.036-.63c.77,0,1.33.84,1.33,1.988a6.746,6.746,0,0,1-1.232,3.57,27.959,27.959,0,0,1-2.982,4.074Zm7.476-2.814a4.094,4.094,0,0,0,.42,1.778,2.157,2.157,0,0,0,2.044,1.232A2.662,2.662,0,0,0,85.4,40.152a12.281,12.281,0,0,0,.49-3.7,8.224,8.224,0,0,0-.728-3.948,2.5,2.5,0,0,0-2.282-1.386c-1.68,0-2.744,1.456-2.744,3.78,0,2.086.952,3.346,2.534,3.346a2.326,2.326,0,0,0,1.232-.336,3.231,3.231,0,0,0,.784-.8,14.8,14.8,0,0,1-.35,3.038c-.294.994-.784,1.5-1.484,1.5a.971.971,0,0,1-.924-.588,4.2,4.2,0,0,1-.364-1.848Zm2.59-7.518a1.432,1.432,0,0,1,1.134.588,5.841,5.841,0,0,1,.6,2.94,2.705,2.705,0,0,1-.378,1.526,1.851,1.851,0,0,1-1.484.868c-.938,0-1.414-.952-1.414-2.856a4.766,4.766,0,0,1,.434-2.38A1.343,1.343,0,0,1,82.908,31.7Zm7.588-.56a2.264,2.264,0,0,0-1.974,1.12,8.587,8.587,0,0,0-.966,4.48,8.916,8.916,0,0,0,.854,4.186,2.265,2.265,0,0,0,2.03,1.3c1.82,0,2.87-2.016,2.87-5.544C93.31,33.208,92.26,31.136,90.5,31.136Zm-.07.574c.56,0,1.036.588,1.3,1.582a15.7,15.7,0,0,1,.294,3.43,8.972,8.972,0,0,1-.686,4.312.953.953,0,0,1-1.778.014,9.372,9.372,0,0,1-.714-4.4,19.158,19.158,0,0,1,.182-2.73,4.175,4.175,0,0,1,.63-1.764A1.09,1.09,0,0,1,90.426,31.71Zm12.488,10.234h.924V31.416h-.77v8.5l-6.622-8.5h-.924V41.944h.77v-8.5Zm4.816-6.958h-1.288v6.958h1.288v-4.69a2.588,2.588,0,0,1,2.114-1.736c.686,0,1.022.476,1.022,1.456v4.97h1.288V37.282A2.342,2.342,0,0,1,112.8,36.2a1.973,1.973,0,0,1,1.4-.686,1.086,1.086,0,0,1,.714.252,1.934,1.934,0,0,1,.378,1.442v4.732h1.288V37.1a2.321,2.321,0,0,0-.476-1.582,2.294,2.294,0,0,0-1.652-.63A2.769,2.769,0,0,0,112,36.33a1.508,1.508,0,0,0-.364-.812,2.012,2.012,0,0,0-1.554-.63,2.805,2.805,0,0,0-2.352,1.33ZM4.942,63.854a8.793,8.793,0,0,0,3.836-1.526c1.806-1.372,2.268-2.674,2.254-6.3v-3.64c.21-.14.28-.238.28-.364a.252.252,0,0,0-.266-.238l-1.442-.1.126.84v3.584c-.014,3.052-.322,4.13-1.582,5.4a8.115,8.115,0,0,1-3.3,1.918ZM2.968,52.738v6.8h1.3v-6.93c.21-.154.28-.252.28-.364a.252.252,0,0,0-.266-.238L2.842,51.9Zm12.978,3.836-.616-.126v.9l.616-.126H21.21A6.073,6.073,0,0,1,20.1,60.844a8.369,8.369,0,0,1-3.738,2.45l.112.406a8.691,8.691,0,0,0,4.508-2.17c.938-.938,1.386-2.2,1.526-4.312h4.382l.616.126v-.9l-.616.126h-4.34c.028-.742.042-1.372.042-1.806v-1.26c.756-.07,1.456-.182,2.94-.448a2.083,2.083,0,0,0,.406.07.292.292,0,0,0,.294-.266.608.608,0,0,0-.21-.406l-.728-.686-.658.28a48.208,48.208,0,0,1-8.47,1.3l.028.434c1.092.028,1.26.028,1.694.028,1.078,0,1.512-.028,3.36-.168h.042v1.12c0,.406-.014,1.05-.042,1.806Zm19.11-2.436H30.632v4.2h1.33V54.782h7.714a8.879,8.879,0,0,1-1.414,5.348,9.9,9.9,0,0,1-5.4,3.122l.084.434a10.5,10.5,0,0,0,5.964-2.422c1.554-1.512,2.142-3.332,2.3-7.126H36.4V52.43c.21-.14.28-.238.28-.364a.262.262,0,0,0-.266-.238l-1.484-.1.126.84Zm21.49,8.428a12.865,12.865,0,0,0-4.382-6.02l-.294.252a20.982,20.982,0,0,1,2.184,3.612c-2.674.392-4.424.574-7.042.742l.168-.308a64.9,64.9,0,0,0,3.5-7.98c.266-.112.378-.21.378-.364,0-.126-.1-.224-.294-.28l-1.386-.434-.14.812a73.594,73.594,0,0,1-2.87,8.148l-.2.476h-.084c-.378.028-.728.042-1.9.1l.448,1.218c.112.266.2.364.336.364s.252-.084.378-.336a60.91,60.91,0,0,0,8.974-1.624,21.943,21.943,0,0,1,.9,2.422Zm8.148-6.4a1.519,1.519,0,1,0,1.5,1.512A1.521,1.521,0,0,0,64.694,56.168ZM80.64,55.5a35.994,35.994,0,0,0,2.982-2.632c.378-.042.532-.14.532-.336a.434.434,0,0,0-.224-.322l-1.078-.714-.5.756a27.236,27.236,0,0,1-9.184,6.37l.154.42a18.465,18.465,0,0,0,6.02-2.6v7.308h1.3Zm14.392,6.776c-.028.588-.224.77-.812.784H92.764V63.7h2.3a1.357,1.357,0,0,0,.91-.266,1.236,1.236,0,0,0,.35-.84V62.37l-.168-7.2h3.094l.56.112v-.868l-.56.112H96.138l-.056-2.268c.182-.14.238-.224.238-.336,0-.14-.126-.238-.35-.238l-1.3-.07.14.938.042,1.974H88.508l-.56-.112v.868l.56-.112h5.5l-.028.042a16.605,16.605,0,0,1-6.3,6.8l.182.336c2.912-1.092,4.774-2.688,7.028-6.048Zm18.76-8.036a13.9,13.9,0,0,1-3.57,4.536,13.168,13.168,0,0,1-6.426,2.842l-.742.014.5,1.246c.084.2.21.308.35.308s.266-.1.364-.322a13.58,13.58,0,0,0,6.874-3.29,11.8,11.8,0,0,0,3.038-5.152ZM102.928,52.71a13.161,13.161,0,0,1,3.486,3l1.148-1.162a8.64,8.64,0,0,0-4.466-2.2Zm19.446,3.458a1.519,1.519,0,1,0,1.5,1.512A1.521,1.521,0,0,0,122.374,56.168Zm20.986-3.612a2.8,2.8,0,0,0-1.652-1.456l-.224.2a5.627,5.627,0,0,1,.938,1.764ZM130.578,62.79c2.31-1.834,3.808-4.522,4.592-8.288.308-.112.434-.238.434-.42,0-.14-.112-.252-.322-.308l-1.456-.364-.042.812a19,19,0,0,1-3.514,8.3ZM137.62,53.7a26.95,26.95,0,0,1,3.878,8.988l1.456-.812A18.86,18.86,0,0,0,138,53.41Zm2.226-2.2a6.153,6.153,0,0,1,.854,1.918l.938-.448a2.77,2.77,0,0,0-1.54-1.652Zm9.17,12.32a7.426,7.426,0,0,0,4.424-2.464,10.876,10.876,0,0,0,2.1-4.928c.224-.056.308-.14.308-.266,0-.084-.07-.168-.21-.21l-1.316-.42-.028.742a13.488,13.488,0,0,1-1.47,4.032,7.391,7.391,0,0,1-3.948,3.108Zm.308-5a5.243,5.243,0,0,0-2.31-3.108l-.238.182a9.4,9.4,0,0,1,1.442,3.346Zm2.772-.35a5.54,5.54,0,0,0-2.212-3.108l-.252.2a9.465,9.465,0,0,1,1.344,3.346Zm19-1.484.616.126v-.9l-.616.126H160.146l-.616-.126v.9l.616-.126h5a7.877,7.877,0,0,1-.476,3.066,6.5,6.5,0,0,1-4.242,3.248l.112.462a8.089,8.089,0,0,0,4.928-2.6,6.688,6.688,0,0,0,1.036-4.172Zm-1.82-4.536h-7.392l-.616-.126v.9l.616-.126h7.392l.616.126v-.9Zm8.708,11.4a8.793,8.793,0,0,0,3.836-1.526c1.806-1.372,2.268-2.674,2.254-6.3v-3.64c.21-.14.28-.238.28-.364a.252.252,0,0,0-.266-.238l-1.442-.1.126.84v3.584c-.014,3.052-.322,4.13-1.582,5.4a8.115,8.115,0,0,1-3.3,1.918Zm-1.974-11.116v6.8h1.3v-6.93c.21-.154.28-.252.28-.364a.252.252,0,0,0-.266-.238l-1.442-.112ZM200.4,57.344l-11.69-.434v1.47l11.69-.42Zm8.89-1.218c.224-.1.308-.168.308-.294s-.07-.168-.294-.224l-.938-.238a17.49,17.49,0,0,1-5.922,4.844l.126.378a16.162,16.162,0,0,0,2.2-.9v4.34h1.162V63.42h5.908v.546H213V59.71a11.483,11.483,0,0,0,1.75.728,6.349,6.349,0,0,1,.574-1.218,13.365,13.365,0,0,1-5.992-3.066Zm-4.368,3.486a13.805,13.805,0,0,0,4.06-3.178,12.05,12.05,0,0,0,3.836,3.178Zm1.008,3.248V60.172h5.908V62.86Zm2.268-10.248h-3.92a3.668,3.668,0,0,0-.028-.588h-.476a3.564,3.564,0,0,1-1.33,2.268l.854,1.036a2.966,2.966,0,0,0,.952-2.156h9.436a10.964,10.964,0,0,1-.77,1.582l.28.21a5.35,5.35,0,0,0,2.128-2.352h-5.894V51.7c.182-.14.224-.182.224-.266,0-.14-.1-.2-.294-.2h-1.162Zm1.652,1.722a16.537,16.537,0,0,1,3.5,2.66l.952-.98a14.466,14.466,0,0,0-4.172-2.03Zm-6.23,2.8a10.382,10.382,0,0,0,3.7-2.282c.308-.056.476-.154.476-.294,0-.07-.1-.168-.224-.224l-1.05-.462a12.251,12.251,0,0,1-3.108,2.912ZM222.74,63.2h-5.32l-.56-.112v.742l.56-.112h11.76l.56.112v-.742l-.56.112h-5.418V62.132h4.41l.546.112V61.5l-.546.112h-4.41v-.966h4.368V57.162h-9.66v3.486h4.27v.966h-4.326l-.546-.112v.742l.546-.112h4.326Zm0-3.066h-3.192v-.98h3.192Zm0-1.5h-3.192V57.68h3.192Zm1.022-.952h3.29v.952h-3.29Zm0,1.47h3.29v.98h-3.29Zm-5.11-7.42v3.388h9.3V51.73Zm1.12.518h7.056v.9h-7.056Zm0,2.352v-.938h7.056V54.6ZM217.5,56.392H229.1l.56.112v-.742l-.56.112H217.5l-.56-.112V56.5Zm14.672-1.708a9.069,9.069,0,0,0,1.792-.966v9.408H235.2V52.234h-.546a8.854,8.854,0,0,1-2.478,1.638Zm6.706,8.344h5.53v-1.2H240.1a30.444,30.444,0,0,0,3.71-4.7,4.579,4.579,0,0,0,.574-2.17,2.6,2.6,0,0,0-2.646-2.814,2.549,2.549,0,0,0-2.408,1.526,4.4,4.4,0,0,0-.392,2.072h1.288a4.418,4.418,0,0,1,.5-2.394,1.29,1.29,0,0,1,1.036-.63c.77,0,1.33.84,1.33,1.988a6.746,6.746,0,0,1-1.232,3.57,27.959,27.959,0,0,1-2.982,4.074Zm12.866-7.882a3.925,3.925,0,0,0-.406-1.75,2.169,2.169,0,0,0-2.086-1.26,2.5,2.5,0,0,0-2.212,1.246,9.291,9.291,0,0,0-.868,4.55,8.137,8.137,0,0,0,.728,3.92,2.5,2.5,0,0,0,2.282,1.386c1.68,0,2.744-1.456,2.744-3.78,0-2.086-.952-3.36-2.52-3.36a2.3,2.3,0,0,0-1.232.35,3.126,3.126,0,0,0-.8.784,13.267,13.267,0,0,1,.392-3.15c.294-.91.784-1.372,1.442-1.372a.965.965,0,0,1,.868.476,4,4,0,0,1,.434,1.96Zm-2.52,1.582c1.008,0,1.47.91,1.47,2.9a4.476,4.476,0,0,1-.5,2.45,1.3,1.3,0,0,1-1.064.588,1.423,1.423,0,0,1-1.19-.728,6.382,6.382,0,0,1-.518-2.772,2.606,2.606,0,0,1,.378-1.554A1.837,1.837,0,0,1,249.228,56.728Zm5.656,4.466a.924.924,0,1,0,.91.924A.923.923,0,0,0,254.884,61.194Zm5.852-9.058a2.265,2.265,0,0,0-1.974,1.12,8.587,8.587,0,0,0-.966,4.48,8.916,8.916,0,0,0,.854,4.186,2.265,2.265,0,0,0,2.03,1.3c1.82,0,2.87-2.016,2.87-5.544C263.55,54.208,262.5,52.136,260.736,52.136Zm-.07.574c.56,0,1.036.588,1.3,1.582a15.7,15.7,0,0,1,.294,3.43,8.973,8.973,0,0,1-.686,4.312.953.953,0,0,1-1.778.014,9.371,9.371,0,0,1-.714-4.4,19.157,19.157,0,0,1,.182-2.73,4.174,4.174,0,0,1,.63-1.764A1.09,1.09,0,0,1,260.666,52.71Zm11.382,7.336,1.2,2.9h1.512l-4.48-10.528h-.91l-4.438,10.528h.812l1.232-2.9Zm-.294-.714h-4.48l2.268-5.376Zm4.746-6.916V62.944h1.288v-4.55a2.955,2.955,0,0,1,.784-1.232,1.714,1.714,0,0,1,1.26-.644c.812,0,1.26.616,1.26,1.736v4.69h1.288V58.2a2.153,2.153,0,0,0-2.254-2.31,2.716,2.716,0,0,0-2.338,1.442V52.416Zm8.386,10.626,6.986-10.724h-.938l-6.986,10.724Zm12.88-3.57V52.234h-.938l-3.948,7.644v.686h3.682v2.562h1.2V60.564h1.148V59.472Zm-1.2,0h-2.688l2.688-5.236Zm4.06,3.556h5.53v-1.2H301.84a30.445,30.445,0,0,0,3.71-4.7,4.579,4.579,0,0,0,.574-2.17,2.6,2.6,0,0,0-2.646-2.814,2.549,2.549,0,0,0-2.408,1.526,4.4,4.4,0,0,0-.392,2.072h1.288a4.418,4.418,0,0,1,.5-2.394,1.29,1.29,0,0,1,1.036-.63c.77,0,1.33.84,1.33,1.988a6.746,6.746,0,0,1-1.232,3.57,27.961,27.961,0,0,1-2.982,4.074Zm8.582-1.834a.924.924,0,1,0,.91.924A.923.923,0,0,0,309.2,61.194Zm2.982-1.274a4.35,4.35,0,0,0,.56,2.2,2.565,2.565,0,0,0,2.24,1.106,2.372,2.372,0,0,0,2.226-1.176,5.669,5.669,0,0,0,.6-2.758,4.262,4.262,0,0,0-.476-2.17A2.423,2.423,0,0,0,315.2,55.9a2.734,2.734,0,0,0-1.246.308,2.245,2.245,0,0,0-.7.616v-3.29h4.27v-1.2h-4.984V58.45h.63a2.63,2.63,0,0,1,.56-1.316,1.818,1.818,0,0,1,1.316-.63,1.326,1.326,0,0,1,1.12.672,4.984,4.984,0,0,1,.364,2.2,5.71,5.71,0,0,1-.476,2.618,1.2,1.2,0,0,1-1.092.658,1.132,1.132,0,0,1-.994-.532,3.97,3.97,0,0,1-.532-2.2Zm9.044-.5,3.458,3.528h1.764l-3.99-4.088,3.458-2.87h-1.078l-3.612,2.982V52.416h-1.288V62.944h1.288Zm12.4-7L331.31,60.7,328.9,52.416h-1.414l3.066,10.528h.91l2.338-8.316,2.394,8.316h.91l3.066-10.528h-.8l-2.422,8.344-2.38-8.344Zm8.246,0V62.944h1.288v-4.55a2.955,2.955,0,0,1,.784-1.232,1.714,1.714,0,0,1,1.26-.644c.812,0,1.26.616,1.26,1.736v4.69h1.288V58.2a2.153,2.153,0,0,0-2.254-2.31,2.716,2.716,0,0,0-2.338,1.442V52.416Z" transform="translate(396 3364)"/>
    <g id="グループ_107" data-name="グループ 107" transform="translate(-686 31)">
      <g id="長方形_35" data-name="長方形 35" transform="translate(1082 3272)" fill="#fff" stroke="#e7014c" stroke-width="1">
        <rect width="224" height="30" stroke="none"/>
        <rect x="0.5" y="0.5" width="223" height="29" fill="none"/>
      </g>
      <path id="パス_90" data-name="パス 90" d="M1.288-5.04H12.712l.728.14V-6.062l-.728.14H1.288L.56-6.062V-4.9Zm24.248-.518a10.96,10.96,0,0,1,.994,1.176l1.022-1.092a16.307,16.307,0,0,0-4.368-2.94l-.336.378A21.538,21.538,0,0,1,25.06-6.062l-.756.028c-1.6.056-2.24.07-4.62.1l-.812.014A16.751,16.751,0,0,0,21.14-9.086l.014-.042h5.978l.56.112V-9.8l-.56.112H22.078v-1.6c.168-.126.224-.182.224-.28,0-.126-.1-.182-.308-.182H20.8v2.058H15.722L15.176-9.8v.784l.546-.112h3.99a25.348,25.348,0,0,1-1.428,2.982l-.126.224c-1.6.028-1.75.028-1.932.028h-.714l.28,1.106c.056.21.154.322.28.322s.224-.112.308-.336c.476-.014.924-.042,1.064-.056l.77-.042.77-.056A7.683,7.683,0,0,1,18.2-1.75,5.094,5.094,0,0,1,14.994.6l.154.434A6.084,6.084,0,0,0,18.97-.952,6.533,6.533,0,0,0,20.216-5.04l.168-.014c.294-.028.308-.028,1.05-.084.084-.014.5-.056.882-.084V-.6c0,1.064.378,1.372,1.652,1.358h2.24C27.174.77,27.58.392,27.678-.56L27.86-2.2l-.63-.1-.154,1.33c-.056.462-.252.63-.714.63H24.15c-.532-.028-.658-.14-.658-.56V-5.32l.378-.042a7.356,7.356,0,0,0,.91-.112Zm10.7,4.34H40.88V-5.152H30.772V-.266h1.05v-.952H35.2V-.126c.028.672.364.9,1.386.924h4.382C41.72.8,42.028.532,42.14-.224l.126-1.036-.546-.056-.112.7c-.07.378-.224.49-.686.5H36.75c-.462-.028-.532-.07-.518-.42Zm0-3.374H39.8V-3.5h-3.57Zm0,1.652H39.8v1.162h-3.57ZM35.2-1.778H31.822V-2.94H35.2Zm0-1.722H31.822V-4.592H35.2Zm0-5.6v3.374h1.036V-9.1H40.88a13.188,13.188,0,0,1-.686,1.932L40.558-7a5.263,5.263,0,0,0,1.708-2.66H36.232v-.966h4.34l.56.112V-11.3l-.56.112h-9.3L30.73-11.3v.784l.546-.112H35.2v.966H31.038V-9.7l-.014-.364h-.476A3.839,3.839,0,0,1,29.4-7.714l.868.98a3.747,3.747,0,0,0,.77-2.366ZM31.43-6.132H34.5v-.56H31.43Zm0-1.484H34.5v-.56H31.43Zm5.5,1.484h3.122v-.56H36.932Zm0-1.484H40.04v-.56H36.932ZM51-3.346h3.724l.56.112v-.784l-.56.112H51v-2.38h5.054l.56.112v-.784l-.56.112H51V-9.212h3.906l.56.112v-.784l-.56.112H51v-1.456c.182-.14.224-.182.224-.266,0-.14-.1-.2-.308-.2H49.8v1.918H45.6l-.546-.112V-9.1l.546-.112h4.2v2.366h-5.32l-.546-.112v.784l.546-.112H49.8V-.812A4.342,4.342,0,0,1,47.1-3.3c.084-.364.154-.7.28-1.47.21-.084.322-.182.322-.308,0-.1-.112-.182-.266-.2l-1.2-.14C45.976-2.282,45.36-.742,43.82.728l.252.308A5.651,5.651,0,0,0,46.956-2.73a8.12,8.12,0,0,0,.49.994A4.638,4.638,0,0,0,50.96.49a28.064,28.064,0,0,0,4.158.2h1.19A6.318,6.318,0,0,1,56.7-.56c-1.4.084-2.464.126-3.444.126A17.791,17.791,0,0,1,51-.546ZM68.95-6.3h1.61l.56.112v-.784l-.56.112H63.714l-.56-.112v.784l.56-.112h4V-.294c0,.448-.2.644-.63.644H65.562V.938h2.114c.9,0,1.288-.364,1.274-1.218ZM60.312,1.036h1.162V-6.146c.308-.392.49-.616.952-1.232.364-.028.49-.1.49-.294,0-.084-.056-.154-.168-.224l-.98-.644A21.948,21.948,0,0,1,58.24-3.822l.238.35a16.678,16.678,0,0,0,1.834-1.456Zm4.27-11.354h5.264l.56.112v-.812l-.56.112H64.582l-.56-.112v.812ZM58.646-8.176a12.57,12.57,0,0,0,3.5-2.38.991.991,0,0,0,.378-.042.221.221,0,0,0,.168-.2c0-.07-.042-.14-.154-.224l-.98-.742a15.006,15.006,0,0,1-3.15,3.234ZM76.356-4.1h.98l.56.112v-.784l-.56.112h-.98v-2.17h1.33v-4.34h-4.34v4.34h2V-.8c-.126.014-.5.07-.924.14v-4.62c.154-.126.2-.182.2-.266,0-.126-.1-.182-.308-.182h-.9V-.532H73.36c-.2.028-.322.042-.7.084l.266.994c.042.168.126.266.238.266s.21-.1.252-.308a28.292,28.292,0,0,0,4.62-1.372l-.056-.406c-.378.07-.77.154-1.176.224-.252.042-.308.056-.448.084ZM74.4-7.392v-3.22h2.24v3.22ZM79.94-.322v-2.94h4.914V-7.938H79.94v-2.6h4.8l.56.112v-.784l-.56.112h-5.95V1.036H79.94v-.8h5.026L85.54.35V-.434l-.574.112Zm0-7.056h3.738v3.556H79.94ZM92.694-1.652v1.2c-.014.462-.168.616-.616.63h-.994V.77H92.5c.826,0,1.19-.336,1.176-1.106V-4.578H90.762c.07-.252.168-.6.238-.952h2.3V-8.708c.182-.126.224-.182.224-.28,0-.126-.1-.182-.294-.182h-.882v3.08H88.69V-8.722c.182-.14.224-.2.224-.28,0-.126-.112-.2-.294-.2h-.882V-5.53h2.3c-.028.252-.042.28-.154.952H87.5V.812h1.008v-4.83h1.26c-.182.91-.308,1.512-.378,1.82l-.056.014c-.294.014-.294.014-.672.028l.252.854c.028.126.112.21.2.21s.168-.084.238-.266a13.528,13.528,0,0,0,2.184-.63,8.634,8.634,0,0,1,.294.854Zm0-2.366v2.31a6.578,6.578,0,0,0-1.5-1.778l-.294.14c.252.49.35.7.462.966-.322.042-1.232.14-1.442.154.182-.42.518-1.316.672-1.792Zm5.25-2.2v-2.17h1.288l.56.112v-.784l-.56.112H97.426a8.454,8.454,0,0,0,1.162-1.89c.224-.07.364-.182.364-.266a.291.291,0,0,0-.2-.21l-1.064-.336a18.031,18.031,0,0,1-.77,2.7H95.284l.014-.042a14.21,14.21,0,0,0,.826-1.932c.252-.084.392-.2.392-.294,0-.07-.1-.168-.182-.2l-1.106-.35a22.29,22.29,0,0,1-1.792,4.914l.28.21a12.023,12.023,0,0,0,.91-1.176V1.036h.98V.28H99.4l.56.112V-.392L99.4-.28H97.944V-2.9h.966l.56.112V-3.57l-.56.112h-.966v-2.2h.966l.56.112v-.784l-.56.112Zm-.966,0H95.606v-2.17h1.372Zm0,.56v2.2H95.606v-2.2Zm0,2.758V-.28H95.606V-2.9ZM89.012-8.806c.532.406.7.532,1.134.91A11.67,11.67,0,0,1,88.8-6.636l.21.294A8.446,8.446,0,0,0,90.65-7.434a8.974,8.974,0,0,1,.952.98l.644-.658a8.486,8.486,0,0,0-1.064-.84l.028-.028c.21-.238.322-.378.364-.42.084-.1.112-.154.224-.28.238-.014.35-.084.35-.2a.19.19,0,0,0-.1-.154l-.77-.406a11.919,11.919,0,0,1-.728,1.064c-.392-.252-.7-.42-1.288-.728Zm2.142-1.554v-.854c.182-.126.224-.182.224-.28,0-.126-.1-.182-.294-.182H90.006v1.316H87.64l-.56-.112v.784l.56-.112h5.8l.546.112v-.784l-.546.112Z" transform="translate(1096 3294)" fill="#e7014c"/>
      <path id="パス_89" data-name="パス 89" d="M.831-4.279l7.289-10.3H9.31V-4.9h2.538v1.539H9.31V0H7.479V-3.358H.831ZM7.479-4.9v-7.311L2.347-4.9ZM17.2-7.861a2.261,2.261,0,0,1,.416-.545,3.58,3.58,0,0,1,.724-.556,4.709,4.709,0,0,1,.971-.432,3.743,3.743,0,0,1,1.157-.174,6.029,6.029,0,0,1,1.875.292,4.325,4.325,0,0,1,1.578.9,4.376,4.376,0,0,1,1.084,1.555,5.711,5.711,0,0,1,.4,2.257A4.46,4.46,0,0,1,25-2.634a5.014,5.014,0,0,1-1.1,1.527A5,5,0,0,1,22.32-.1a4.9,4.9,0,0,1-1.847.359A4.994,4.994,0,0,1,18.81-.006a4.844,4.844,0,0,1-1.359-.73,5.2,5.2,0,0,1-1.061-1.1,6.862,6.862,0,0,1-.764-1.381,7.8,7.8,0,0,1-.46-1.567,9.06,9.06,0,0,1-.152-1.651,11.9,11.9,0,0,1,.253-2.538,9.634,9.634,0,0,1,.7-2.089A7.48,7.48,0,0,1,17-12.7a6.491,6.491,0,0,1,1.286-1.174,5.457,5.457,0,0,1,1.438-.708,4.884,4.884,0,0,1,1.477-.236,4.9,4.9,0,0,1,2,.416,4.872,4.872,0,0,1,1.707,1.292l-.685.618a3.634,3.634,0,0,0-1.269-1.022,3.921,3.921,0,0,0-1.729-.359,2.933,2.933,0,0,0-1.685.494,4.173,4.173,0,0,0-1.23,1.32,7.1,7.1,0,0,0-.781,1.915A10.731,10.731,0,0,0,17.2-7.861Zm-.022,2a12.957,12.957,0,0,0,.247,2.083,6.261,6.261,0,0,0,.6,1.713A3.267,3.267,0,0,0,19.029-.91a2.5,2.5,0,0,0,1.466.427,2.3,2.3,0,0,0,1.146-.3,2.983,2.983,0,0,0,.938-.842,4.257,4.257,0,0,0,.629-1.28,5.429,5.429,0,0,0,.23-1.617,6.584,6.584,0,0,0-.23-1.842,3.979,3.979,0,0,0-.629-1.308,2.578,2.578,0,0,0-.938-.781,2.668,2.668,0,0,0-1.168-.258,3.014,3.014,0,0,0-.971.174,3.457,3.457,0,0,0-.977.528,3.644,3.644,0,0,0-.825.893A3.65,3.65,0,0,0,17.182-5.862Zm15.25-7.94a3.843,3.843,0,0,0-1.033.14,3.978,3.978,0,0,0-.955.4,4.365,4.365,0,0,0-.831.635,4.356,4.356,0,0,0-.663.82l-.854-.483a5.536,5.536,0,0,1,1.943-1.892,4.912,4.912,0,0,1,2.437-.635,5.959,5.959,0,0,1,1.685.247,4.849,4.849,0,0,1,1.522.747,3.842,3.842,0,0,1,1.1,1.269,3.72,3.72,0,0,1,.421,1.814,3.856,3.856,0,0,1-.365,1.685,7.315,7.315,0,0,1-.955,1.482,17.013,17.013,0,0,1-1.353,1.454q-.764.736-1.55,1.612L30.489-1.8h6.884V0H28.4V-.764l4.167-4.728q.517-.6.994-1.247a11.824,11.824,0,0,0,.842-1.32,8.047,8.047,0,0,0,.584-1.331,4.072,4.072,0,0,0,.219-1.28,3.854,3.854,0,0,0-.2-1.258,2.909,2.909,0,0,0-.562-.988,2.6,2.6,0,0,0-.876-.651A2.688,2.688,0,0,0,32.432-13.8Zm7.456-1.426v-.64l3.38-.236v10.13h.359l3.818-3.706H45.885v-.7h4.436v.7H48.6L45.245-6.345l4.784,5.66H51.41V0H46.323V-.685h1.359L44-5.2h-.73V-.685h1.426V0H40.068V-.685h1.471V-15.229ZM56.025-.685h1.224V0H52.78V-.685H54.3v-9H52.825v-.674l3.156-.18.045,1.1a2.761,2.761,0,0,1,1.067-.9,3.562,3.562,0,0,1,1.561-.314,4.153,4.153,0,0,1,1.039.118,2.875,2.875,0,0,1,.792.326,2.353,2.353,0,0,1,.573.489,2.9,2.9,0,0,1,.393.606,2.954,2.954,0,0,1,.562-.685,3.149,3.149,0,0,1,.713-.483,3.422,3.422,0,0,1,.82-.281,4.322,4.322,0,0,1,.882-.09,3.626,3.626,0,0,1,1.595.3,2.5,2.5,0,0,1,.966.8A2.963,2.963,0,0,1,67.463-8.4a6.855,6.855,0,0,1,.129,1.336V-.685h1.494V0H64.673V-.685h1.179V-7.064a4.213,4.213,0,0,0-.416-2.117,1.4,1.4,0,0,0-1.292-.691,2.755,2.755,0,0,0-.73.112,2.131,2.131,0,0,0-.758.393,2.212,2.212,0,0,0-.6.769,2.8,2.8,0,0,0-.241,1.241V-.685h1.314V0H58.788V-.685H60.1V-7.064q0-2.808-1.729-2.808a2.387,2.387,0,0,0-.691.124,2.285,2.285,0,0,0-.769.427,2.52,2.52,0,0,0-.629.8,2.649,2.649,0,0,0-.258,1.235ZM76.8-14.819l.773.773L75.09-11.564l2.483,2.489-.773.793L74.31-10.771,71.827-8.282l-.793-.793,2.483-2.489-2.483-2.483.793-.773,2.483,2.483Zm1.422,2.542v1.369H76.793v-1.369Zm-6.151,0v1.369H70.642v-1.369Zm1.52-2.974h1.369v1.428H73.59Zm0,6.151h1.369v1.428H73.59Zm6.2-5.837L82.138-16.5h.242v8.031h1.245V-8H80.087v-.472h1.232v-6.839l-1.245.793Z" transform="translate(1208 3295)" fill="#a40035"/>
    </g>
    <path id="パス_86" data-name="パス 86" d="M16.262-14.308V-.831h1.8V0H12.511V-.831h1.8V-12.69L9.479-.022H8.445L8.423,0,3.4-12.792V-.831H5.177V0H.573V-.831H2.415V-14.308H.573v-.854H4.458L9.389-2.549,14.2-15.161h3.863v.854Zm10.443-.022h-2.28v13.5H26.8V0H20.124V-.831h2.37v-13.5h-2.28v-.831h6.491Zm15.755-.831v.854H40.529V0H39.462L31.691-12.769V-.831h1.954V0H28.861V-.831H30.7V-14.308H28.861v-.854h3.751l6.9,11.3V-14.308H37.654v-.854Zm8.647.831h-2.28v13.5H51.2V0H44.526V-.831H46.9v-13.5h-2.28v-.831h6.491ZM72.286-.831h1.359V0H68.951V-.831h1.359l-1.7-4.739H63.728L62.055-.831H63.5V0H59.663V-.831h1.426l5.054-14.33h1.044ZM64.054-6.458h4.234l-2.145-5.963Zm21.157-4.6a4.955,4.955,0,0,0-.432-1.668,3.618,3.618,0,0,0-.792-1.1,2.909,2.909,0,0,0-1.005-.612,3.259,3.259,0,0,0-1.084-.191,4.275,4.275,0,0,0-2.111.477,3.811,3.811,0,0,0-1.376,1.3,5.639,5.639,0,0,0-.747,1.9A11.217,11.217,0,0,0,77.44-8.67a15.833,15.833,0,0,0,.118,1.92A13.089,13.089,0,0,0,77.917-4.9a9.821,9.821,0,0,0,.612,1.662,5.708,5.708,0,0,0,.882,1.348,3.846,3.846,0,0,0,1.168.9,3.254,3.254,0,0,0,1.466.326,3.773,3.773,0,0,0,1.247-.219,3.851,3.851,0,0,0,1.168-.657,4.46,4.46,0,0,0,.949-1.084,4.5,4.5,0,0,0,.59-1.5h.876a5.634,5.634,0,0,1-.612,1.735,5.293,5.293,0,0,1-1.1,1.393,4.939,4.939,0,0,1-1.494.921A4.76,4.76,0,0,1,81.9.258,7.071,7.071,0,0,1,79.72-.051a5.756,5.756,0,0,1-1.673-.842,5.47,5.47,0,0,1-1.224-1.252A7.062,7.062,0,0,1,76-3.684a8.713,8.713,0,0,1-.46-1.7A10.674,10.674,0,0,1,75.4-7.131a12.158,12.158,0,0,1,.152-1.887,10.726,10.726,0,0,1,.472-1.881,8.555,8.555,0,0,1,.831-1.729,6,6,0,0,1,1.235-1.421,5.663,5.663,0,0,1,1.673-.96,6.091,6.091,0,0,1,2.139-.354,7.476,7.476,0,0,1,1.595.157,6.82,6.82,0,0,1,1.3.416,5.617,5.617,0,0,1,1.039.59,5.494,5.494,0,0,1,.781.679v2.459Zm5.7-3.268H88.894v-.831h11.343v4.054h-.831L98.17-14.33H92.847v5.817h3.706v-1.651h1.056V-5.93H96.553V-7.592H92.847V-.831h5.525L99.6-4.043h.82V0H88.894V-.831h2.021Zm27.446.022V-.831h1.8V0h-5.548V-.831h1.8V-12.69L111.579-.022h-1.033L110.523,0,105.5-12.792V-.831h1.774V0h-4.6V-.831h1.842V-14.308h-1.842v-.854h3.886l4.93,12.612L116.3-15.161h3.863v.854ZM134.69-.831h1.359V0h-4.694V-.831h1.359l-1.7-4.739h-4.885L124.459-.831h1.449V0h-3.841V-.831h1.426l5.054-14.33h1.044Zm-8.232-5.626h4.234l-2.145-5.963Zm24.841-8.7v.854h-1.932V0H148.3l-7.771-12.769V-.831h1.954V0H137.7V-.831h1.842V-14.308H137.7v-.854h3.751l6.9,11.3V-14.308h-1.853v-.854Zm10.645.831h-2.021v-.831h11.343v4.054h-.831L169.2-14.33h-5.323v5.817h3.706v-1.651h1.056V-5.93h-1.056V-7.592h-3.706V-.831H169.4l1.224-3.212h.82V0H159.922V-.831h2.021Z" transform="translate(397 3287)"/>
  </g>
</svg>
