<svg xmlns="http://www.w3.org/2000/svg" width="538.812" height="37.024" viewBox="0 0 538.812 37.024">
  <g id="sec02-12-sp" transform="translate(-0.488 -0.879)">
    <path id="パス_18" data-name="パス 18" d="M254,22V20.1H539.3V22Z" transform="translate(0 -1.221)" fill="#e7014c" fill-rule="evenodd"/>
    <path id="パス_17" data-name="パス 17" d="M230.564,15.749a34.818,34.818,0,0,1-3.9,12.76,27.228,27.228,0,0,0,5.632,3.9,28.325,28.325,0,0,0-2.048,4.1,26.524,26.524,0,0,1-5.75-4.844,21.878,21.878,0,0,1-5.75,4.923l-.67-.867v1.142h-3.741V1.809H230.4c-.158,5.789-.354,8.309-.709,9.215-.591,1.654-1.732,2.206-4.41,2.206h-4.568V11.181h2.993c2.324-.079,2.442-.315,2.718-7.483H218.08V15.749ZM226.35,17.64h-5.868a17.585,17.585,0,0,0,3.7,8.271,31.765,31.765,0,0,0,2.169-8.271Zm-8.27,17.406a27.42,27.42,0,0,0,4.568-5.907,26.238,26.238,0,0,1-3.583-11.5h-.985Zm-7.05-21.817A30.709,30.709,0,0,1,207.408,20h3.82l1.654-.315V22.2l-1.654-.315h-5.119v5.119H210.4l1.653-.314v2.52L210.4,28.9h-4.293v8.074h-3.741V28.9h-4.292l-1.654.315V26.7l1.654.314h4.292V21.893h-5.119l-1.654.315v-2.52l1.654.315h2.087v-.118A52.175,52.175,0,0,0,198,13.229h-1.063l-1.654.315v-2.52l1.654.315h5.435V6.495h-3.9l-1.654.315V4.289l1.654.315h3.9V.115h3.544c.551,0,.827.158.827.551,0,.276-.118.433-.63.827V4.6h3.821l1.653-.315V6.81l-1.653-.315h-3.821v4.844h5.435l1.615-.315v2.521l-1.615-.315Zm-11.46,0A17.663,17.663,0,0,1,203,17.994L200.28,20h5.277l.039-.118c.512-2.127.985-4.608,1.26-6.341l.039-.315Zm-30.212,1.93-1.654.314v-2.52l1.654.315h8.86V10.2h-5.435l-1.653.315V7.992l1.653.315h5.435V5.431h-7.206l-1.615.315V3.227l1.615.314h7.206V.351H182q.827,0,.827.591c0,.236-.118.433-.63.827V3.541h7.679l1.654-.314v2.52l-1.654-.315H182.2V8.307h6.3l1.653-.315v2.52L188.5,10.2h-6.3v3.072h9.018l1.654-.315v2.52l-1.654-.314Zm-1.3-2.521a22.126,22.126,0,0,0-2.324-5.868l.867-.788a9.429,9.429,0,0,1,4.293,4.1Zm-2.6,24.22H161.6V.351h3.663c.55,0,.826.158.826.551,0,.276-.118.433-.629.827Zm-9.61-19.652A36.058,36.058,0,0,0,157.7,6.062h1.891c.2,2.442.235,3.9.235,5.947a22.231,22.231,0,0,1-1.338,8.783ZM141.064,31.542v5.277h-3.583V31.542H126.376l-1.654.315V29.336l1.654.315h11.105V26.816h-9.649V14.568h9.649V11.811h-9.61l-1.614.315V9.606l1.614.315h9.61V6.849h3.386c.551,0,.827.158.827.551,0,.276-.118.433-.63.827V9.921h10.909l1.615-.315v2.521l-1.615-.315H141.064v2.757h10V26.816h-10v2.835h11.5l1.654-.315v2.521l-1.654-.315Zm-3.583-15.084h-5.907v3.151h5.907Zm0,5.041h-5.907v3.427h5.907Zm9.845-5.041h-6.262v3.151h6.262Zm0,8.467V21.5h-6.262v3.427ZM124.761,5.668v5.986c-.079,15.358-.985,19.14-5.947,25.165l-1.3-.748c2.4-5.632,2.915-9.648,2.915-24.417V3.777h14.492V.115h4.529c.551,0,.827.158.827.551,0,.276-.118.433-.63.827V3.777h12.72l1.654-.314v2.52l-1.654-.315ZM91.831,35.4l-1.654.315V33.2l1.654.315h8.821V21.578H93.564l-1.654.315v-2.52l1.654.315h7.088V10.433h4.136c.551,0,.826.2.826.551,0,.276-.118.433-.629.827v7.877h6.891l1.654-.315v2.52l-1.654-.315h-6.891V33.51h8.506l1.615-.315v2.521l-1.615-.315ZM93.249,7.834A46,46,0,0,1,88.4,17.207V36.858H84.348V22.4a29.5,29.5,0,0,1-5.277,4.607l-.985-1.338A44.829,44.829,0,0,0,84.348,17V12.52l2.166.394c.63-1.26,1.653-3.7,2.165-5.08H80.253L78.6,8.149V5.628l1.654.315H89.31A52.173,52.173,0,0,0,90.925.115L95.1.942c.748.158,1.024.394,1.024.788s-.276.63-1.024.985c-.551,1.693-.788,2.323-1.1,3.229h18.943l1.654-.315v2.52l-1.654-.315ZM73.036,15.513V36.858H68.979V15.513h-4.41c-.118,6.419-.276,7.955-1.1,11.185-1.339,4.883-3.308,7.639-7.286,10.278l-.944-1.182A20.394,20.394,0,0,0,60.083,24.57c.473-3.741.551-6.419.551-17.288V2.242l4.1,1.417A40.539,40.539,0,0,0,72.918.351L75.6,3.305a1.408,1.408,0,0,1,.354.59c0,.276-.394.591-.748.591a2.532,2.532,0,0,1-.867-.158A45.723,45.723,0,0,1,64.651,5.47V7.283c0,1.615,0,3.465-.039,5.553v.788H75.28l1.654-.315v2.52l-1.654-.315Zm-21.188-.079v4.49h5.316l1.654-.315v2.52l-1.654-.315H51.848v2.521a5.823,5.823,0,0,0,.906.354,17.525,17.525,0,0,1,5.238,3.071L55.51,31.306a36.089,36.089,0,0,0-2.244-3.584c-.906-1.181-1.379-1.771-1.418-1.85V36.858h-3.9v-9.57l-.079.079c-.473.551-.906,1.1-1.339,1.654A21.34,21.34,0,0,1,40.664,33.9l-.748-1.259A33.25,33.25,0,0,0,46.847,21.81H42.2l-1.654.315v-2.52l1.654.315h5.75V15.43H41.57l-1.654.315v-2.52l1.654.315h2.993l-.039-.394A60.926,60.926,0,0,0,43.3,6.692H42.2l-1.654.315V4.486L42.2,4.8h5.513V.351H51.73q.827,0,.827.591c0,.236-.118.394-.63.788V4.8h5.435l1.654-.315V7.007l-1.654-.315h-1.1a48.214,48.214,0,0,1-3.111,6.853H57.8l1.615-.315v2.52L57.8,15.435ZM45,6.692a20.574,20.574,0,0,1,3.5,5.237l-3.19,1.615H51.3a58.307,58.307,0,0,0,.985-6.853Zm-17.217,25.8a22.785,22.785,0,0,1-8.506,4.647l-.748-1.379a25.282,25.282,0,0,0,7.128-5.474,22.642,22.642,0,0,1-4.1-8.861h-.433l-1.654.315V19.22l1.654.315H35.892c-1.812,4.844-3.229,7.482-5.474,10.278a26.226,26.226,0,0,0,7.089,3.071A37.684,37.684,0,0,0,35.5,36.858a21.732,21.732,0,0,1-7.721-4.371ZM30.93,21.42h-7.6a15.145,15.145,0,0,0,4.333,6.3,27.187,27.187,0,0,0,3.267-6.3ZM17.973,16.931v20.2H14.232V31.66A70.25,70.25,0,0,1,3.285,35.48c-.236.63-.473.867-.827.867-.315,0-.551-.236-.709-.748L.488,31.975c1.694-.158,2.166-.236,3.269-.354l.118-.039V16.931H2.142l-1.654.315v-2.52l1.654.315h33.71l1.654-.315v2.52l-1.654-.315Zm-3.741,0H7.616v2.915h6.616Zm0,4.8H7.616v3.23h6.616Zm0,5.12H7.616v4.214l.118-.039.433-.039c2.126-.315,3.426-.551,5.435-.985l.63-.158Zm-8.7-25.4h27.1V12.442H5.529Zm4.057,9.1H28.567V7.8H9.586Zm0-4.647H28.567V3.345H9.586ZM189.955,33.55c0,2.245-.906,3.19-3.071,3.19H180.5V34.692h3.544c1.3,0,1.891-.551,1.891-1.85V29.415h-11.26v7.443h-3.9V17.64h19.178Zm-4.017-14.02H174.675v2.953h11.263Zm0,4.844H174.675v3.15h11.263Z" transform="translate(0 0.764)" fill="#e7014c" fill-rule="evenodd"/>
  </g>
</svg>
