<svg 
 xmlns="http://www.w3.org/2000/svg"
 xmlns:xlink="http://www.w3.org/1999/xlink"
 width="1300px" height="38px">
<path fill-rule="evenodd"  fill="rgb(0, 48, 22)"
 d="M234.138,15.992 C233.458,21.232 232.138,25.471 230.179,28.950 C231.859,30.470 233.538,31.630 235.898,32.910 C234.858,34.709 234.698,35.029 233.818,37.069 C231.259,35.389 229.699,34.069 227.979,32.150 C226.259,34.229 224.580,35.629 222.140,37.149 L221.460,36.269 L221.460,37.429 L217.661,37.429 L217.661,1.835 L233.978,1.835 C233.818,7.714 233.618,10.273 233.258,11.193 C232.658,12.873 231.499,13.433 228.779,13.433 L224.140,13.433 L224.140,11.353 L227.179,11.353 C229.539,11.273 229.659,11.033 229.939,3.754 L221.460,3.754 L221.460,15.992 L234.138,15.992 ZM229.859,17.912 L223.900,17.912 C224.460,21.112 225.660,23.831 227.659,26.311 C228.739,23.671 229.419,21.192 229.859,17.912 ZM221.460,35.589 C223.300,33.789 224.700,31.950 226.099,29.590 C224.060,26.231 222.980,22.751 222.460,17.912 L221.460,17.912 L221.460,35.589 ZM214.301,13.433 C213.182,16.232 212.182,18.072 210.622,20.312 L214.501,20.312 L216.181,19.992 L216.181,22.551 L214.501,22.231 L209.302,22.231 L209.302,27.430 L213.662,27.430 L215.341,27.111 L215.341,29.670 L213.662,29.350 L209.302,29.350 L209.302,37.549 L205.503,37.549 L205.503,29.350 L201.144,29.350 L199.464,29.670 L199.464,27.111 L201.144,27.430 L205.503,27.430 L205.503,22.231 L200.304,22.231 L198.624,22.551 L198.624,19.992 L200.304,20.312 L202.423,20.312 L202.423,20.192 C202.064,17.672 201.704,15.832 201.064,13.433 L199.984,13.433 L198.304,13.753 L198.304,11.193 L199.984,11.513 L205.503,11.513 L205.503,6.594 L201.544,6.594 L199.864,6.914 L199.864,4.354 L201.544,4.674 L205.503,4.674 L205.503,0.115 L209.102,0.115 C209.662,0.115 209.942,0.275 209.942,0.675 C209.942,0.955 209.822,1.115 209.302,1.515 L209.302,4.674 L213.182,4.674 L214.861,4.354 L214.861,6.914 L213.182,6.594 L209.302,6.594 L209.302,11.513 L214.821,11.513 L216.461,11.193 L216.461,13.753 L214.821,13.433 L214.301,13.433 ZM202.663,13.433 C204.263,15.073 205.103,16.272 206.143,18.272 L203.383,20.312 L208.742,20.312 L208.782,20.192 C209.302,18.032 209.782,15.512 210.062,13.753 L210.102,13.433 L202.663,13.433 ZM171.982,15.393 L170.302,15.712 L170.302,13.153 L171.982,13.473 L180.980,13.473 L180.980,10.353 L175.461,10.353 L173.782,10.673 L173.782,8.114 L175.461,8.434 L180.980,8.434 L180.980,5.514 L173.662,5.514 L172.022,5.834 L172.022,3.275 L173.662,3.594 L180.980,3.594 L180.980,0.355 L184.820,0.355 C185.380,0.355 185.660,0.555 185.660,0.955 C185.660,1.195 185.540,1.395 185.020,1.795 L185.020,3.594 L192.818,3.594 L194.498,3.275 L194.498,5.834 L192.818,5.514 L185.020,5.514 L185.020,8.434 L191.419,8.434 L193.098,8.114 L193.098,10.673 L191.419,10.353 L185.020,10.353 L185.020,13.473 L194.178,13.473 L195.858,13.153 L195.858,15.712 L194.178,15.393 L171.982,15.393 ZM170.662,12.833 C169.862,9.953 169.342,8.714 168.302,6.874 L169.182,6.074 C171.382,7.274 172.382,8.234 173.542,10.233 L170.662,12.833 ZM168.023,37.429 L164.103,37.429 L164.103,0.355 L167.823,0.355 C168.382,0.355 168.662,0.515 168.662,0.915 C168.662,1.195 168.542,1.355 168.023,1.755 L168.023,37.429 ZM158.264,17.472 C159.344,14.553 159.944,11.033 160.144,6.154 L162.064,6.154 C162.263,8.634 162.303,10.113 162.303,12.193 C162.303,16.192 161.904,18.752 160.944,21.112 L158.264,17.472 ZM143.248,32.030 L143.248,37.389 L139.609,37.389 L139.609,32.030 L128.331,32.030 L126.651,32.350 L126.651,29.790 L128.331,30.110 L139.609,30.110 L139.609,27.231 L129.810,27.231 L129.810,14.793 L139.609,14.793 L139.609,11.993 L129.850,11.993 L128.211,12.313 L128.211,9.753 L129.850,10.073 L139.609,10.073 L139.609,6.954 L143.048,6.954 C143.608,6.954 143.888,7.114 143.888,7.514 C143.888,7.794 143.768,7.954 143.248,8.354 L143.248,10.073 L154.326,10.073 L155.966,9.753 L155.966,12.313 L154.326,11.993 L143.248,11.993 L143.248,14.793 L153.406,14.793 L153.406,27.231 L143.248,27.231 L143.248,30.110 L154.926,30.110 L156.606,29.790 L156.606,32.350 L154.926,32.030 L143.248,32.030 ZM139.609,16.712 L133.610,16.712 L133.610,19.912 L139.609,19.912 L139.609,16.712 ZM139.609,21.831 L133.610,21.831 L133.610,25.311 L139.609,25.311 L139.609,21.831 ZM149.607,16.712 L143.248,16.712 L143.248,19.912 L149.607,19.912 L149.607,16.712 ZM149.607,25.311 L149.607,21.831 L143.248,21.831 L143.248,25.311 L149.607,25.311 ZM126.691,5.754 L126.691,11.833 C126.611,27.430 125.691,31.270 120.652,37.389 L119.332,36.629 C121.772,30.910 122.292,26.831 122.292,11.833 L122.292,3.834 L137.009,3.834 L137.009,0.115 L141.608,0.115 C142.168,0.115 142.448,0.275 142.448,0.675 C142.448,0.955 142.328,1.115 141.808,1.515 L141.808,3.834 L154.726,3.834 L156.406,3.515 L156.406,6.074 L154.726,5.754 L126.691,5.754 ZM93.250,35.949 L91.570,36.269 L91.570,33.709 L93.250,34.029 L102.208,34.029 L102.208,21.911 L95.010,21.911 L93.330,22.231 L93.330,19.672 L95.010,19.992 L102.208,19.992 L102.208,10.593 L106.408,10.593 C106.968,10.593 107.247,10.793 107.247,11.153 C107.247,11.433 107.127,11.593 106.608,11.993 L106.608,19.992 L113.606,19.992 L115.286,19.672 L115.286,22.231 L113.606,21.911 L106.608,21.911 L106.608,34.029 L115.246,34.029 L116.886,33.709 L116.886,36.269 L115.246,35.949 L93.250,35.949 ZM94.690,7.954 C93.050,12.033 91.690,14.633 89.770,17.472 L89.770,37.429 L85.651,37.429 L85.651,22.751 C83.851,24.711 82.492,25.871 80.292,27.430 L79.292,26.071 C81.612,23.591 83.411,21.112 85.651,17.272 L85.651,12.713 L87.851,13.113 C88.491,11.833 89.530,9.354 90.050,7.954 L81.492,7.954 L79.812,8.274 L79.812,5.714 L81.492,6.034 L90.690,6.034 C91.330,4.194 91.690,2.835 92.330,0.115 L96.569,0.955 C97.329,1.115 97.609,1.355 97.609,1.755 C97.609,2.155 97.329,2.395 96.569,2.755 C96.009,4.474 95.769,5.114 95.449,6.034 L114.686,6.034 L116.366,5.714 L116.366,8.274 L114.686,7.954 L94.690,7.954 ZM74.163,15.752 L74.163,37.429 L70.043,37.429 L70.043,15.752 L65.564,15.752 C65.444,22.271 65.284,23.831 64.444,27.111 C63.084,32.070 61.085,34.869 57.045,37.549 L56.086,36.349 C58.885,33.070 60.365,29.630 61.005,24.951 C61.485,21.152 61.565,18.432 61.565,7.394 L61.565,2.275 L65.724,3.714 C68.683,2.875 71.043,1.915 74.043,0.355 L76.762,3.355 C76.962,3.594 77.122,3.834 77.122,3.954 C77.122,4.234 76.722,4.554 76.362,4.554 C76.122,4.554 75.802,4.514 75.482,4.394 C72.723,5.074 69.323,5.474 65.644,5.554 L65.644,7.394 C65.644,9.034 65.644,10.913 65.604,13.033 L65.604,13.833 L76.442,13.833 L78.122,13.513 L78.122,16.072 L76.442,15.752 L74.163,15.752 ZM52.646,15.672 L52.646,20.232 L58.045,20.232 L59.725,19.912 L59.725,22.471 L58.045,22.151 L52.646,22.151 L52.646,24.711 C52.806,24.791 52.966,24.871 53.566,25.071 C55.726,25.911 57.325,26.871 58.885,28.190 L56.365,31.790 C55.126,29.670 54.606,28.830 54.086,28.150 C53.166,26.951 52.686,26.351 52.646,26.271 L52.646,37.429 L48.687,37.429 L48.687,27.710 L48.607,27.790 C48.127,28.350 47.687,28.910 47.247,29.470 C45.807,31.270 43.888,32.870 41.288,34.429 L40.528,33.150 C43.608,29.910 45.967,26.231 47.567,22.151 L42.848,22.151 L41.168,22.471 L41.168,19.912 L42.848,20.232 L48.687,20.232 L48.687,15.672 L42.208,15.672 L40.528,15.992 L40.528,13.433 L42.208,13.753 L45.247,13.753 L45.207,13.353 C44.887,11.073 44.487,8.834 43.968,6.794 L42.848,6.794 L41.168,7.114 L41.168,4.554 L42.848,4.874 L48.447,4.874 L48.447,0.355 L52.526,0.355 C53.086,0.355 53.366,0.555 53.366,0.955 C53.366,1.195 53.246,1.355 52.726,1.755 L52.726,4.874 L58.245,4.874 L59.925,4.554 L59.925,7.114 L58.245,6.794 L57.125,6.794 C56.246,9.234 55.246,11.393 53.966,13.753 L58.685,13.753 L60.325,13.433 L60.325,15.992 L58.685,15.672 L52.646,15.672 ZM45.687,6.794 C47.407,8.794 48.447,10.313 49.247,12.113 L46.007,13.753 L52.086,13.753 C52.446,12.273 52.926,8.834 53.086,6.794 L45.687,6.794 ZM28.203,32.990 C25.764,35.109 23.044,36.629 19.565,37.709 L18.805,36.309 C21.685,34.789 23.964,33.030 26.044,30.750 C24.324,28.710 22.884,25.631 21.885,21.751 L21.445,21.751 L19.765,22.071 L19.765,19.512 L21.445,19.832 L36.442,19.832 C34.602,24.751 33.163,27.430 30.883,30.270 C33.243,31.710 35.162,32.550 38.082,33.389 C37.042,35.269 36.882,35.549 36.042,37.429 C32.883,36.349 30.403,34.949 28.203,32.990 ZM31.403,21.751 L23.684,21.751 C24.484,24.111 26.004,26.271 28.084,28.150 C29.443,26.231 30.483,24.191 31.403,21.751 ZM18.245,17.192 L18.245,37.709 L14.446,37.709 L14.446,32.150 C11.846,33.389 8.647,34.509 3.328,36.029 C3.088,36.669 2.848,36.909 2.488,36.909 C2.168,36.909 1.928,36.669 1.768,36.149 L0.488,32.470 C2.208,32.310 2.688,32.230 3.808,32.110 L3.928,32.070 L3.928,17.192 L2.168,17.192 L0.488,17.512 L0.488,14.953 L2.168,15.273 L36.402,15.273 L38.082,14.953 L38.082,17.512 L36.402,17.192 L18.245,17.192 ZM14.446,17.192 L7.727,17.192 L7.727,20.152 L14.446,20.152 L14.446,17.192 ZM14.446,22.071 L7.727,22.071 L7.727,25.351 L14.446,25.351 L14.446,22.071 ZM14.446,27.271 L7.727,27.271 L7.727,31.550 L7.847,31.510 L8.287,31.470 C10.446,31.150 11.766,30.910 13.806,30.470 L14.446,30.310 L14.446,27.271 ZM5.607,1.475 L33.123,1.475 L33.123,12.633 L5.607,12.633 L5.607,1.475 ZM9.727,10.713 L29.003,10.713 L29.003,7.914 L9.727,7.914 L9.727,10.713 ZM9.727,5.994 L29.003,5.994 L29.003,3.395 L9.727,3.395 L9.727,5.994 ZM192.898,34.069 C192.898,36.349 191.978,37.309 189.779,37.309 L183.300,37.309 L183.300,35.229 L186.899,35.229 C188.219,35.229 188.819,34.669 188.819,33.350 L188.819,29.870 L177.381,29.870 L177.381,37.429 L173.422,37.429 L173.422,17.912 L192.898,17.912 L192.898,34.069 ZM188.819,19.832 L177.381,19.832 L177.381,22.831 L188.819,22.831 L188.819,19.832 ZM188.819,24.751 L177.381,24.751 L177.381,27.950 L188.819,27.950 L188.819,24.751 Z"/>
<path fill-rule="evenodd"  fill="rgb(0, 48, 22)"
 d="M254.000,22.000 L254.000,20.1000 L1300.000,20.1000 L1300.000,22.000 L254.000,22.000 Z"/>
</svg>