<svg xmlns="http://www.w3.org/2000/svg" width="1299.512" height="37.594" viewBox="0 0 1299.512 37.594">
  <g id="sec02-12" transform="translate(-0.488 -0.115)">
    <path id="パス_39" data-name="パス 39" d="M234.138,15.992a35.359,35.359,0,0,1-3.959,12.958,27.652,27.652,0,0,0,5.719,3.96,28.761,28.761,0,0,0-2.08,4.159,26.937,26.937,0,0,1-5.839-4.919,22.218,22.218,0,0,1-5.839,5l-.68-.88v1.16h-3.8V1.835h16.317c-.16,5.879-.36,8.438-.72,9.358-.6,1.68-1.759,2.24-4.479,2.24H224.14v-2.08h3.039c2.36-.08,2.48-.32,2.76-7.6H221.46V15.992Zm-4.279,1.92H223.9a17.858,17.858,0,0,0,3.759,8.4A32.258,32.258,0,0,0,229.859,17.912Zm-8.4,17.677a27.846,27.846,0,0,0,4.639-6,26.645,26.645,0,0,1-3.639-11.678h-1ZM214.3,13.433a31.186,31.186,0,0,1-3.679,6.879H214.5l1.68-.32v2.559l-1.68-.32h-5.2v5.2h4.36l1.679-.319V29.67l-1.679-.32H209.3v8.2h-3.8v-8.2h-4.359l-1.68.32V27.111l1.68.319H205.5v-5.2h-5.2l-1.68.32V19.992l1.68.32h2.119v-.12a52.984,52.984,0,0,0-1.359-6.759h-1.08l-1.68.32v-2.56l1.68.32H205.5V6.594h-3.959l-1.68.32V4.354l1.68.32H205.5V.115h3.6c.56,0,.84.16.84.56,0,.28-.12.44-.64.84V4.674h3.88l1.679-.32v2.56l-1.679-.32H209.3v4.919h5.519l1.64-.32v2.56l-1.64-.32Zm-11.638,0a17.937,17.937,0,0,1,3.48,4.839l-2.76,2.04h5.359l.04-.12c.52-2.16,1-4.68,1.28-6.439l.04-.32Zm-30.681,1.96-1.68.319V13.153l1.68.32h9v-3.12h-5.519l-1.679.32V8.114l1.679.32h5.519V5.514h-7.318l-1.64.32V3.275l1.64.319h7.318V.355h3.84q.84,0,.84.6c0,.24-.12.44-.64.84v1.8h7.8l1.68-.319V5.834l-1.68-.32h-7.8v2.92h6.4l1.679-.32v2.559l-1.679-.32h-6.4v3.12h9.158l1.68-.32v2.559l-1.68-.319Zm-1.32-2.56a22.47,22.47,0,0,0-2.36-5.959l.88-.8a9.576,9.576,0,0,1,4.36,4.159Zm-2.639,24.6H164.1V.355h3.72c.559,0,.839.16.839.56,0,.28-.12.44-.639.84Zm-9.759-19.957a36.619,36.619,0,0,0,1.88-11.318h1.92c.2,2.48.239,3.959.239,6.039,0,4-.4,6.559-1.359,8.919ZM143.248,32.03v5.359h-3.639V32.03H128.331l-1.68.32V29.79l1.68.32h11.278V27.231h-9.8V14.793h9.8v-2.8H129.85l-1.639.32V9.753l1.639.32h9.759V6.954h3.439c.56,0,.84.16.84.56,0,.28-.12.44-.64.84v1.719h11.078l1.64-.32v2.56l-1.64-.32H143.248v2.8h10.158V27.231H143.248V30.11h11.678l1.68-.32v2.56l-1.68-.32Zm-3.639-15.318h-6v3.2h6Zm0,5.119h-6v3.48h6Zm10-5.119h-6.359v3.2h6.359Zm0,8.6v-3.48h-6.359v3.48ZM126.691,5.754v6.079c-.08,15.6-1,19.437-6.039,25.556l-1.32-.76c2.44-5.719,2.96-9.8,2.96-24.8v-8h14.717V.115h4.6c.56,0,.84.16.84.56,0,.28-.12.44-.64.84V3.834h12.918l1.68-.319V6.074l-1.68-.32ZM93.25,35.949l-1.68.32v-2.56l1.68.32h8.958V21.911h-7.2l-1.68.32V19.672l1.68.32h7.2v-9.4h4.2c.56,0,.839.2.839.56,0,.28-.12.44-.639.84v8h7l1.68-.32v2.559l-1.68-.32h-7V34.029h8.638l1.64-.32v2.56l-1.64-.32Zm1.44-28a46.71,46.71,0,0,1-4.92,9.518V37.429H85.651V22.751a29.958,29.958,0,0,1-5.359,4.679l-1-1.359a45.526,45.526,0,0,0,6.359-8.8V12.713l2.2.4c.64-1.28,1.679-3.759,2.2-5.159H81.492l-1.68.32V5.714l1.68.32h9.2A52.987,52.987,0,0,0,92.33.115l4.239.84c.76.16,1.04.4,1.04.8s-.28.64-1.04,1c-.56,1.719-.8,2.359-1.12,3.279h19.237l1.68-.32v2.56l-1.68-.32Zm-20.527,7.8V37.429h-4.12V15.752H65.564c-.12,6.519-.28,8.079-1.12,11.359-1.36,4.959-3.359,7.758-7.4,10.438l-.959-1.2a20.711,20.711,0,0,0,4.919-11.4c.48-3.8.56-6.519.56-17.557V2.275l4.159,1.439A41.169,41.169,0,0,0,74.043.355l2.719,3a1.43,1.43,0,0,1,.36.6c0,.28-.4.6-.76.6a2.572,2.572,0,0,1-.88-.16,46.434,46.434,0,0,1-9.838,1.16v1.84c0,1.64,0,3.519-.04,5.639v.8H76.442l1.68-.32v2.559l-1.68-.32Zm-21.517-.08v4.56h5.4l1.68-.32v2.559l-1.68-.32h-5.4v2.56a5.914,5.914,0,0,0,.92.36,17.8,17.8,0,0,1,5.319,3.119l-2.52,3.6a36.651,36.651,0,0,0-2.279-3.64c-.92-1.2-1.4-1.8-1.44-1.879V37.429H48.687V27.71l-.08.08c-.48.56-.92,1.12-1.36,1.68a21.671,21.671,0,0,1-5.959,4.959l-.76-1.279a33.767,33.767,0,0,0,7.039-11H42.848l-1.68.32V19.912l1.68.32h5.839v-4.56H42.208l-1.68.32V13.433l1.68.32h3.039l-.04-.4a61.873,61.873,0,0,0-1.239-6.559h-1.12l-1.68.32V4.554l1.68.32h5.6V.355h4.079q.84,0,.84.6c0,.24-.12.4-.64.8V4.874h5.519l1.68-.32v2.56l-1.68-.32h-1.12a48.963,48.963,0,0,1-3.159,6.959h4.719l1.64-.32v2.559l-1.64-.32ZM45.687,6.794a20.894,20.894,0,0,1,3.56,5.319l-3.24,1.64h6.079a59.212,59.212,0,0,0,1-6.959ZM28.2,32.99a23.139,23.139,0,0,1-8.638,4.719l-.76-1.4a25.675,25.675,0,0,0,7.239-5.559,22.994,22.994,0,0,1-4.159-9h-.44l-1.68.32V19.512l1.68.32h15c-1.84,4.919-3.279,7.6-5.559,10.438a26.633,26.633,0,0,0,7.2,3.119,38.269,38.269,0,0,0-2.04,4.04A22.069,22.069,0,0,1,28.2,32.99Zm3.2-11.239H23.684a15.38,15.38,0,0,0,4.4,6.4A27.61,27.61,0,0,0,31.4,21.751ZM18.245,17.192V37.709h-3.8V32.15A71.341,71.341,0,0,1,3.328,36.029c-.24.64-.48.88-.84.88-.32,0-.56-.24-.72-.76L.488,32.47c1.72-.16,2.2-.24,3.32-.36l.12-.04V17.192H2.168l-1.68.32V14.953l1.68.32H36.4l1.68-.32v2.559l-1.68-.32Zm-3.8,0H7.727v2.96h6.719Zm0,4.879H7.727v3.28h6.719Zm0,5.2H7.727V31.55l.12-.04.44-.04c2.159-.32,3.479-.56,5.519-1l.64-.16ZM5.607,1.475H33.123V12.633H5.607Zm4.12,9.238H29v-2.8H9.727Zm0-4.719H29v-2.6H9.727ZM192.9,34.069c0,2.28-.92,3.24-3.119,3.24H183.3v-2.08h3.6c1.32,0,1.92-.56,1.92-1.879V29.87H177.381v7.559h-3.959V17.912H192.9Zm-4.079-14.237H177.381v3h11.438Zm0,4.919H177.381v3.2h11.438Z" fill="#e7014c" fill-rule="evenodd"/>
    <path id="パス_40" data-name="パス 40" d="M254,22V20.1H1300V22Z" fill="#e7014c" fill-rule="evenodd"/>
  </g>
</svg>
