<svg xmlns="http://www.w3.org/2000/svg" width="368.56" height="251.29" viewBox="0 0 368.56 251.29">
  <g id="sec02-04-02" transform="translate(-396 -3271.811)">
    <g id="価格" transform="translate(-378 100)">
      <path id="パス_77" data-name="パス 77" d="M16.352-19.584,12.8-12.768h3.52v1.216H12.192l-1.12,2.144v.32H16.32v1.216H11.072v6.72h2.816V0H5.536V-1.152H8.352v-6.72H3.1V-9.088h5L6.88-11.552H3.1v-1.216H6.272L2.88-19.584H.32v-1.152H8.448v1.152H5.888L10.3-10.592l4.608-8.992h-2.56v-1.152h6.56v1.152Zm12.992,6.4a6.7,6.7,0,0,1,3.12.752A5.776,5.776,0,0,1,34.8-10.208a6.671,6.671,0,0,1,.88,3.488,7.324,7.324,0,0,1-.912,3.664,6.527,6.527,0,0,1-2.48,2.512,6.843,6.843,0,0,1-3.456.9A6.145,6.145,0,0,1,25.024-.88a7.772,7.772,0,0,1-2.512-3.5,14.666,14.666,0,0,1-.88-5.312,15.568,15.568,0,0,1,1.088-6.032,9.664,9.664,0,0,1,2.9-4.016,6.251,6.251,0,0,1,3.92-1.408,5.906,5.906,0,0,1,2.992.8,7.2,7.2,0,0,1,2.384,2.272l-.96.8A6.76,6.76,0,0,0,32.02-19.2a4.3,4.3,0,0,0-2.352-.7,4.092,4.092,0,0,0-3.728,2.512,15.55,15.55,0,0,0-1.488,6.64,6.467,6.467,0,0,1,2-1.728,5.738,5.738,0,0,1,2.892-.712ZM29.376-.672A2.9,2.9,0,0,0,32.048-2.16a7.576,7.576,0,0,0,.88-3.888,6.943,6.943,0,0,0-1.216-4.464A3.741,3.741,0,0,0,28.7-12,3.705,3.705,0,0,0,26-10.912,5.475,5.475,0,0,0,24.512-8.32a11.529,11.529,0,0,0,1.536,5.68A3.89,3.89,0,0,0,29.376-.672Zm11.9-2.592a1.852,1.852,0,0,1,1.424.656,2.65,2.65,0,0,1,.6,1.84,4.811,4.811,0,0,1-.9,2.88A6.243,6.243,0,0,1,39.968,4.1l-.48-.768a4.666,4.666,0,0,0,1.456-1.2A2.494,2.494,0,0,0,41.632.544.971.971,0,0,0,41.6.256a1.988,1.988,0,0,1-.384.032,1.688,1.688,0,0,1-1.3-.5,1.777,1.777,0,0,1-.464-1.264,1.71,1.71,0,0,1,.528-1.28,1.791,1.791,0,0,1,1.3-.508Zm13.664-9.92a6.7,6.7,0,0,1,3.12.752,5.776,5.776,0,0,1,2.34,2.224,6.671,6.671,0,0,1,.88,3.488,7.324,7.324,0,0,1-.912,3.664,6.527,6.527,0,0,1-2.48,2.512,6.843,6.843,0,0,1-3.456.9A6.145,6.145,0,0,1,50.624-.88a7.772,7.772,0,0,1-2.512-3.5,14.666,14.666,0,0,1-.88-5.312,15.568,15.568,0,0,1,1.088-6.032,9.665,9.665,0,0,1,2.9-4.016,6.251,6.251,0,0,1,3.92-1.408,5.906,5.906,0,0,1,2.992.8,7.2,7.2,0,0,1,2.384,2.272l-.96.8A6.76,6.76,0,0,0,57.62-19.2a4.3,4.3,0,0,0-2.352-.7,4.092,4.092,0,0,0-3.728,2.512,15.55,15.55,0,0,0-1.488,6.64,6.467,6.467,0,0,1,2-1.728,5.738,5.738,0,0,1,2.892-.712ZM54.976-.672A2.9,2.9,0,0,0,57.648-2.16a7.576,7.576,0,0,0,.88-3.888,6.944,6.944,0,0,0-1.216-4.464A3.741,3.741,0,0,0,54.3-12a3.705,3.705,0,0,0-2.7,1.088A5.475,5.475,0,0,0,50.112-8.32a11.529,11.529,0,0,0,1.536,5.68A3.89,3.89,0,0,0,54.976-.672ZM78.336-2.5V0H65.76V-1.12q4.064-4.416,5.94-6.672a20.282,20.282,0,0,0,2.688-3.952A8.1,8.1,0,0,0,75.2-15.3a5.261,5.261,0,0,0-1.04-3.536,3.375,3.375,0,0,0-2.672-1.2A3.16,3.16,0,0,0,68.7-18.624a6.766,6.766,0,0,0-1.088,3.456H65.888v-3.84a5.983,5.983,0,0,1,2.4-1.536,9.128,9.128,0,0,1,3.232-.576,8.482,8.482,0,0,1,3.088.576,5.532,5.532,0,0,1,2.464,1.872,5.355,5.355,0,0,1,.976,3.312,5.916,5.916,0,0,1-.768,2.9,18.421,18.421,0,0,1-2.544,3.328Q72.96-7.2,68.32-2.5ZM89.6.352A5.936,5.936,0,0,1,85.76-.992a8.589,8.589,0,0,1-2.576-3.792,16.025,16.025,0,0,1-.912-5.616,15.891,15.891,0,0,1,.912-5.6,8.533,8.533,0,0,1,2.592-3.776,6,6,0,0,1,3.856-1.344,6.045,6.045,0,0,1,3.856,1.328,8.419,8.419,0,0,1,2.592,3.76,15.891,15.891,0,0,1,.912,5.6,15.775,15.775,0,0,1-.928,5.616,8.756,8.756,0,0,1-2.608,3.808A5.956,5.956,0,0,1,89.6.352Zm.032-1.024q2.176,0,3.328-2.5A17.843,17.843,0,0,0,94.112-10.4a17.742,17.742,0,0,0-1.152-7.2q-1.152-2.5-3.328-2.5T86.3-17.6a17.742,17.742,0,0,0-1.152,7.2A17.843,17.843,0,0,0,86.3-3.168q1.156,2.5,3.332,2.5Zm12.7-2.592a1.852,1.852,0,0,1,1.424.656,2.65,2.65,0,0,1,.592,1.84,4.811,4.811,0,0,1-.9,2.88A6.243,6.243,0,0,1,101.024,4.1l-.48-.768A4.666,4.666,0,0,0,102,2.128a2.494,2.494,0,0,0,.688-1.584.971.971,0,0,0-.032-.288,1.988,1.988,0,0,1-.384.032,1.688,1.688,0,0,1-1.3-.5,1.777,1.777,0,0,1-.464-1.264,1.71,1.71,0,0,1,.528-1.28,1.791,1.791,0,0,1,1.3-.508ZM115.2.352a5.936,5.936,0,0,1-3.84-1.344,8.589,8.589,0,0,1-2.576-3.792,16.025,16.025,0,0,1-.912-5.616,15.891,15.891,0,0,1,.912-5.6,8.533,8.533,0,0,1,2.592-3.776,6,6,0,0,1,3.856-1.344,6.045,6.045,0,0,1,3.856,1.328,8.419,8.419,0,0,1,2.592,3.76,15.891,15.891,0,0,1,.912,5.6,15.775,15.775,0,0,1-.928,5.616,8.756,8.756,0,0,1-2.608,3.808A5.956,5.956,0,0,1,115.2.352Zm.032-1.024q2.176,0,3.328-2.5a17.843,17.843,0,0,0,1.152-7.232,17.742,17.742,0,0,0-1.152-7.2q-1.152-2.5-3.328-2.5T111.9-17.6a17.742,17.742,0,0,0-1.152,7.2A17.843,17.843,0,0,0,111.9-3.168q1.156,2.5,3.332,2.5Zm17.7,1.024a5.936,5.936,0,0,1-3.84-1.344,8.589,8.589,0,0,1-2.576-3.792A16.025,16.025,0,0,1,125.6-10.4a15.891,15.891,0,0,1,.912-5.6,8.533,8.533,0,0,1,2.592-3.776,6,6,0,0,1,3.856-1.344,6.045,6.045,0,0,1,3.856,1.328,8.419,8.419,0,0,1,2.592,3.76,15.891,15.891,0,0,1,.912,5.6,15.775,15.775,0,0,1-.928,5.616,8.756,8.756,0,0,1-2.608,3.808,5.956,5.956,0,0,1-3.856,1.36Zm.032-1.024q2.176,0,3.328-2.5A17.843,17.843,0,0,0,137.44-10.4a17.742,17.742,0,0,0-1.152-7.2q-1.152-2.5-3.328-2.5t-3.328,2.5a17.742,17.742,0,0,0-1.152,7.2,17.843,17.843,0,0,0,1.152,7.232q1.152,2.5,3.328,2.5Zm17.7,1.024a5.936,5.936,0,0,1-3.84-1.344,8.589,8.589,0,0,1-2.576-3.792,16.025,16.025,0,0,1-.912-5.616,15.891,15.891,0,0,1,.912-5.6,8.533,8.533,0,0,1,2.592-3.776A6,6,0,0,1,150.7-21.12a6.045,6.045,0,0,1,3.856,1.328,8.419,8.419,0,0,1,2.592,3.76,15.891,15.891,0,0,1,.912,5.6,15.775,15.775,0,0,1-.928,5.616,8.755,8.755,0,0,1-2.608,3.808,5.956,5.956,0,0,1-3.864,1.36ZM150.7-.672q2.176,0,3.328-2.5a17.844,17.844,0,0,0,1.152-7.232,17.742,17.742,0,0,0-1.152-7.2q-1.152-2.5-3.328-2.5t-3.328,2.5a17.742,17.742,0,0,0-1.152,7.2,17.844,17.844,0,0,0,1.152,7.232q1.144,2.5,3.32,2.5Z" transform="translate(774 3419)"/>
      <path id="パス_49" data-name="パス 49" d="M3.367-6.175l1.2,1.4-.611.455-.962-1.6-.962,1.6-.611-.455,1.2-1.387L.832-6.578l.234-.728,1.7.715L2.613-8.424H3.38L3.211-6.591l1.7-.715.247.728Zm-.377-.1-.013.013H2.99L3-6.279Zm9.4,5.265V0H7.28V-.455q1.651-1.794,2.411-2.71a8.24,8.24,0,0,0,1.092-1.606,3.288,3.288,0,0,0,.331-1.443,2.137,2.137,0,0,0-.422-1.437,1.371,1.371,0,0,0-1.085-.487,1.284,1.284,0,0,0-1.131.572,2.749,2.749,0,0,0-.442,1.4h-.7v-1.56a2.431,2.431,0,0,1,.975-.624A3.708,3.708,0,0,1,9.62-8.58a3.446,3.446,0,0,1,1.255.234,2.247,2.247,0,0,1,1,.761,2.175,2.175,0,0,1,.4,1.346,2.4,2.4,0,0,1-.312,1.176A7.483,7.483,0,0,1,10.93-3.711q-.721.786-2.607,2.7Z" transform="translate(933 3405)"/>
    </g>
    <path id="パス_48" data-name="パス 48" d="M3.416-7.364a26.351,26.351,0,0,1,4,1.946A11.124,11.124,0,0,1,1.3.112l.154.406a10.269,10.269,0,0,0,7.028-5.25,16.5,16.5,0,0,1,2.884,2.478l.938-1.12A14.509,14.509,0,0,0,9.03-5.824a23.559,23.559,0,0,0,1.4-4.41c.252-.084.35-.168.35-.308,0-.112-.084-.2-.238-.238l-1.456-.378-.056.784A19.157,19.157,0,0,1,7.868-6.4,18.472,18.472,0,0,0,3.584-7.77Zm23.94,1.708L15.666-6.09v1.47l11.69-.42ZM40.012-7.9a49.258,49.258,0,0,1-.532,5.362,6.417,6.417,0,0,1-.42,2,.877.877,0,0,1-.882.392h-1.61V.5h2.408c1.092.014,1.4-.35,1.68-1.9a54.181,54.181,0,0,0,.728-7.14H36.078c.042-.644.07-1.148.07-1.764v-.364c.2-.112.28-.21.28-.336a.244.244,0,0,0-.081-.177.244.244,0,0,0-.185-.061l-1.47-.1.1.84v.21c0,.392-.028,1.05-.084,1.75h-3.7l-.56-.112v.868l.56-.112h3.626c-.364,3.766-1.82,6.258-4.676,8.05l.168.336A8.4,8.4,0,0,0,34.34-2.774,11.226,11.226,0,0,0,36.008-7.9ZM56.2-5.656,44.506-6.09v1.47L56.2-5.04ZM60.648.084H61.81V-4.1h2.73V1.12H65.7V-4.1h3.066v2.884c-.014.462-.168.616-.63.63H67.074V0h1.68c.84,0,1.2-.336,1.19-1.092v-3.57H65.7v-1.05c.182-.14.224-.182.224-.28,0-.126-.1-.182-.294-.182H64.54v1.512H61.474A12.746,12.746,0,0,0,63.5-6.706h7.06l.56.112v-.784l-.56.112H63.938l.028-.042.462-.644c.294-.042.448-.14.448-.28,0-.1-.07-.154-.2-.182L63.5-8.722a8.047,8.047,0,0,1-.9,1.456H58.814l-.56-.112v.784l.56-.112h3.36A16.515,16.515,0,0,1,58.24-3.122l.2.364a11.511,11.511,0,0,0,2.212-1.274ZM59.934-10.99c1.54.364,2.814.728,4,1.134-1.288.49-4.046,1.33-5.152,1.6l.1.406a28.154,28.154,0,0,0,6.3-1.568c.784.28,2.352.952,3.724,1.6l.784-.854a31,31,0,0,0-3.276-1.246c.672-.294,1.176-.518,2.058-.938a2.356,2.356,0,0,0,.28.028c.168,0,.35-.112.35-.224,0-.056-.07-.126-.168-.182l-.98-.518a17.683,17.683,0,0,1-2.842,1.428,25.539,25.539,0,0,0-5-1.036ZM83.5-7.1c-.168,1.428-.224,1.554-.784,1.568h-1.04v.588h1.54c.812-.014,1.078-.266,1.232-1.12a45.035,45.035,0,0,0,.462-5.194H79.716c-.028,3.99-.49,5.278-2.254,6.342l.238.378A4.088,4.088,0,0,0,80.346-7.1Zm.056-.56H80.5c.07-.35.14-.868.182-1.26h2.982l-.014.21-.014.224-.07.784Zm.154-1.82H80.724l.014-.042.056-1.176h3c-.028.49-.028.6-.056.938Zm-7.2-.742v-.994c.182-.126.224-.182.224-.28,0-.126-.1-.182-.294-.182H75.362v1.456H73.22l-.56-.112v.784l.56-.112h.5v2.8c.028.9.392,1.148,1.722,1.148H78.2v-.98H75.656c-.7-.014-.84-.112-.854-.546V-9.66h3.584l.56.112v-.784l-.56.112Zm3.094,6.5h4.62l.546.112V-4.4l-.546.112H73.976L73.43-4.4v.784l.546-.112h4.466V-2.16H74.774l-.56-.112v.784l.56-.112h3.668V.084H73.3l-.56-.112V.756L73.3.644H84.9l.56.112V-.028L84.9.084H79.6V-1.6h3.822l.56.112v-.784l-.56.112H79.6ZM90.888.308V.966h1.988c.938,0,1.33-.392,1.33-1.33V-11.13c.182-.126.224-.182.224-.266,0-.14-.1-.2-.294-.2H92.918V-.448c0,.532-.224.756-.756.756ZM95.9-8.806a33.6,33.6,0,0,1,2.674,7.252l1.386-.784a20.584,20.584,0,0,0-3.6-6.734ZM87.444-1.442A15.448,15.448,0,0,0,90.762-8.26c.28-.056.42-.168.42-.35,0-.126-.1-.2-.322-.266l-1.288-.35a26.186,26.186,0,0,1-2.478,7.532ZM103.32-6.02v-.154a1.928,1.928,0,0,0-.028-.448h-.476a3.542,3.542,0,0,1-1.316,2.24l.84,1.092a2.9,2.9,0,0,0,.952-2.128V-5.46H112.8a5.569,5.569,0,0,1-.826,1.554l.434.266a5.028,5.028,0,0,0,1.974-2.38Zm5.166-4.1v-1.106c.182-.126.224-.182.224-.28,0-.126-.1-.182-.294-.182h-1.134v1.568h-5.04l-.56-.112v.784l.56-.112h5.04v1.568H103.46L102.9-8.1v.784l.56-.112h8.96l.56.112V-8.1l-.56.112h-3.934v-1.57h5.152l.56.112v-.784l-.56.112ZM101.92.98a6.519,6.519,0,0,0,3.15-1.064c1.008-.714,1.456-1.764,1.47-3.5v-.35c.168-.126.224-.182.224-.28,0-.126-.1-.182-.308-.182h-1.12v.784a3.7,3.7,0,0,1-1.148,3.024A5.262,5.262,0,0,1,101.808.56Zm7.042-5.38V-.48c.028.854.434,1.12,1.806,1.162h1.96c.98,0,1.386-.378,1.456-1.358l.07-1.19-.574-.056-.07.868c-.056.476-.238.644-.658.644h-2c-.588-.014-.812-.14-.812-.434v-3.09c.182-.126.224-.182.224-.28,0-.14-.1-.182-.392-.182ZM122.5-7.812h-2.394V.966h1.036V.07h5.922v.8h1.078V-7.81h-2.45v-2.73h2.548l.56.112v-.784l-.56.112h-7.868l-.546-.112v.784l.546-.112H122.5Zm.966-2.73h1.26v2.73h-1.26Zm0,3.29h1.26V-.49h-1.26ZM122.5-.49h-1.358V-7.252H122.5Zm3.192-6.762h1.372V-.49h-1.372Zm-7.056-1.386c.294-.826.42-1.218.742-2.254.224-.042.336-.14.336-.28,0-.112-.1-.2-.238-.238l-1.176-.35a33.182,33.182,0,0,1-2.38,7.6l.294.224a15.174,15.174,0,0,0,1.33-2.156V1.036h1.092Zm15.834,5.4a13.474,13.474,0,0,0,4.536-2.66,13.523,13.523,0,0,0,3.682,2.324,4.637,4.637,0,0,1,.532-1.092,14.488,14.488,0,0,1-3.556-1.89,14.469,14.469,0,0,0,2.59-3.71H137.7l.014-.042c.154-.294.168-.322.35-.714.266-.1.378-.182.378-.28a.262.262,0,0,0-.14-.2l-1.19-.266a13.021,13.021,0,0,1-1,2.568,12.941,12.941,0,0,1-1.33,2.142l.28.266a9.511,9.511,0,0,0,2-2.338,6.353,6.353,0,0,0,1.288,2.548,15.365,15.365,0,0,1-4.018,3ZM137.41-9.7h3.36a16.969,16.969,0,0,1-1.862,2.534,5.27,5.27,0,0,1-1.554-2.45ZM132.454,1.036h1.078V-6.4a9.44,9.44,0,0,1,.994,2.128l.868-.756A4.952,4.952,0,0,0,133.532-6.8V-8.26h1.022l.56.112v-.784l-.56.112h-1.022v-2.394c.168-.126.224-.182.224-.28,0-.126-.1-.182-.294-.182h-1.008V-8.82h-1.47l-.56-.112v.784l.56-.112h1.344a23.425,23.425,0,0,1-1.988,5.894l.308.21a13.778,13.778,0,0,0,1.806-3.3ZM141.89.952v-4.7h-5.866V1.036h1.106V.364h3.64V.952ZM137.13-.2v-3h3.64v3Z" transform="translate(396 3481)"/>
    <g id="グループ_107" data-name="グループ 107" transform="translate(-686 31)">
      <g id="パス_46" data-name="パス 46" transform="translate(1082 3272)">
        <path id="パス_100" data-name="パス 100" d="M223.5,29.5H.5V.5h223Z" fill="#fff"/>
        <path id="パス_101" data-name="パス 101" d="M1,1V29H223V1H1M0,0H224V30H0Z" fill="#003016"/>
      </g>
      <path id="パス_45" data-name="パス 45" d="M1.288-5.04H12.712l.728.14V-6.062l-.728.14H1.288L.56-6.062V-4.9Zm24.248-.518a10.96,10.96,0,0,1,.994,1.176l1.022-1.092a16.307,16.307,0,0,0-4.368-2.94l-.336.378A21.538,21.538,0,0,1,25.06-6.062l-.756.028c-1.6.056-2.24.07-4.62.1l-.812.014A16.751,16.751,0,0,0,21.14-9.086l.014-.042h5.978l.56.112V-9.8l-.56.112H22.078v-1.6c.168-.126.224-.182.224-.28,0-.126-.1-.182-.308-.182H20.8v2.058H15.722L15.176-9.8v.784l.546-.112h3.99a25.348,25.348,0,0,1-1.428,2.982l-.126.224c-1.6.028-1.75.028-1.932.028h-.714l.28,1.106c.056.21.154.322.28.322s.224-.112.308-.336c.476-.014.924-.042,1.064-.056l.77-.042.77-.056A7.683,7.683,0,0,1,18.2-1.75,5.094,5.094,0,0,1,14.994.6l.154.434A6.084,6.084,0,0,0,18.97-.952,6.533,6.533,0,0,0,20.216-5.04l.168-.014c.294-.028.308-.028,1.05-.084.084-.014.5-.056.882-.084V-.6c0,1.064.378,1.372,1.652,1.358h2.24C27.174.77,27.58.392,27.678-.56L27.86-2.2l-.63-.1L27.076-.97c-.056.462-.252.63-.714.63H24.15c-.532-.028-.658-.14-.658-.56V-5.32l.378-.042a7.356,7.356,0,0,0,.91-.112Zm10.7,4.34H40.88V-5.152H30.772V-.266h1.05v-.952H35.2V-.126c.028.672.364.9,1.386.924h4.382c.752,0,1.06-.266,1.172-1.022l.126-1.036-.546-.056-.112.7c-.07.378-.224.49-.686.5H36.75c-.462-.028-.532-.07-.518-.42Zm0-3.374H39.8V-3.5H36.23Zm0,1.652H39.8v1.162H36.23ZM35.2-1.778H31.822V-2.94H35.2Zm0-1.722H31.822V-4.592H35.2Zm0-5.6v3.374h1.036V-9.1H40.88a13.188,13.188,0,0,1-.686,1.932L40.558-7a5.263,5.263,0,0,0,1.708-2.66H36.232v-.966h4.34l.56.112V-11.3l-.56.112h-9.3L30.73-11.3v.784l.546-.112H35.2v.966H31.038V-9.7l-.014-.364h-.476A3.839,3.839,0,0,1,29.4-7.714l.868.98a3.747,3.747,0,0,0,.77-2.366ZM31.43-6.132H34.5v-.56H31.43Zm0-1.484H34.5v-.56H31.43Zm5.5,1.484h3.122v-.56h-3.12Zm0-1.484h3.11v-.56H36.932ZM51-3.346h3.724l.56.112v-.784l-.56.112H51v-2.38h5.054l.56.112v-.784l-.56.112H51V-9.212h3.906l.56.112v-.784l-.56.112H51v-1.456c.182-.14.224-.182.224-.266,0-.14-.1-.2-.308-.2H49.8v1.918H45.6l-.546-.112V-9.1l.546-.112h4.2v2.366H44.48l-.546-.112v.784l.546-.112H49.8V-.812A4.342,4.342,0,0,1,47.1-3.3c.084-.364.154-.7.28-1.47.21-.084.322-.182.322-.308,0-.1-.112-.182-.266-.2l-1.2-.14C45.976-2.282,45.36-.742,43.82.728l.252.308A5.651,5.651,0,0,0,46.956-2.73a8.12,8.12,0,0,0,.49.994A4.638,4.638,0,0,0,50.96.49a28.063,28.063,0,0,0,4.158.2h1.19A6.318,6.318,0,0,1,56.7-.56c-1.4.084-2.464.126-3.444.126A17.79,17.79,0,0,1,51-.546ZM68.95-6.3h1.61l.56.112v-.784l-.56.112H63.714l-.56-.112v.784l.56-.112h4V-.294c0,.448-.2.644-.63.644H65.562V.938h2.114c.9,0,1.288-.364,1.274-1.218ZM60.312,1.036h1.162V-6.146c.308-.392.49-.616.952-1.232.364-.028.49-.1.49-.294,0-.084-.056-.154-.168-.224l-.98-.644A21.948,21.948,0,0,1,58.24-3.822l.238.35a16.678,16.678,0,0,0,1.834-1.456Zm4.27-11.354h5.264l.56.112v-.812l-.56.112H64.582l-.56-.112v.812ZM58.646-8.176a12.57,12.57,0,0,0,3.5-2.38.991.991,0,0,0,.378-.042.221.221,0,0,0,.168-.2c0-.07-.042-.14-.154-.224l-.98-.742a15.006,15.006,0,0,1-3.15,3.234ZM76.356-4.1h.98l.56.112v-.784l-.56.112h-.98V-6.83h1.33v-4.34h-4.34v4.34h2V-.8c-.126.014-.5.07-.924.14V-5.28c.154-.126.2-.182.2-.266,0-.126-.1-.182-.308-.182h-.9v5.2H73.36c-.2.028-.322.042-.7.084l.266.994c.042.168.126.266.238.266s.21-.1.252-.308a28.292,28.292,0,0,0,4.62-1.372l-.056-.406c-.378.07-.77.154-1.176.224-.252.042-.308.056-.448.084ZM74.4-7.392v-3.22h2.24v3.22Zm5.54,7.07v-2.94h4.914V-7.938H79.94v-2.6h4.8l.56.112v-.784l-.56.112H78.79V1.036h1.15v-.8h5.026L85.54.35V-.434l-.574.112Zm0-7.056h3.738v3.556H79.94ZM92.694-1.652v1.2c-.014.462-.168.616-.616.63h-.994V.77H92.5c.826,0,1.19-.336,1.176-1.106V-4.578H90.762c.07-.252.168-.6.238-.952h2.3V-8.708c.182-.126.224-.182.224-.28,0-.126-.1-.182-.294-.182h-.882v3.08H88.69V-8.722c.182-.14.224-.2.224-.28,0-.126-.112-.2-.294-.2h-.882V-5.53h2.3c-.028.252-.042.28-.154.952H87.5V.812h1.008v-4.83h1.26c-.182.91-.308,1.512-.378,1.82l-.056.014c-.294.014-.294.014-.672.028l.252.854c.028.126.112.21.2.21s.168-.084.238-.266a13.528,13.528,0,0,0,2.184-.63,8.629,8.629,0,0,1,.294.854Zm0-2.366v2.31a6.578,6.578,0,0,0-1.5-1.778l-.294.14c.252.49.35.7.462.966-.322.042-1.232.14-1.442.154.182-.42.518-1.316.672-1.792Zm5.25-2.2v-2.17h1.288l.56.112V-9.06l-.56.112H97.426a8.454,8.454,0,0,0,1.162-1.89c.224-.07.364-.182.364-.266a.291.291,0,0,0-.2-.21l-1.064-.336a18.031,18.031,0,0,1-.77,2.7H95.284l.014-.042a14.209,14.209,0,0,0,.826-1.932c.252-.084.392-.2.392-.294,0-.07-.1-.168-.182-.2l-1.106-.35a22.29,22.29,0,0,1-1.792,4.914l.28.21a12.024,12.024,0,0,0,.91-1.176V1.036h.98V.28H99.4l.56.112V-.392L99.4-.28H97.944V-2.9h.966l.56.112V-3.57l-.56.112h-.966v-2.2h.966l.56.112V-6.33l-.56.112Zm-.966,0H95.606v-2.17h1.372Zm0,.56v2.2H95.606v-2.2Zm0,2.758V-.28H95.606V-2.9ZM89.012-8.806c.532.406.7.532,1.134.91A11.67,11.67,0,0,1,88.8-6.636l.21.294a8.446,8.446,0,0,0,1.64-1.092,8.974,8.974,0,0,1,.952.98l.644-.658a8.486,8.486,0,0,0-1.064-.84l.028-.028c.21-.238.322-.378.364-.42.084-.1.112-.154.224-.28.238-.014.35-.084.35-.2a.19.19,0,0,0-.1-.154l-.77-.406a11.918,11.918,0,0,1-.728,1.064c-.392-.252-.7-.42-1.288-.728Zm2.142-1.554v-.854c.182-.126.224-.182.224-.28,0-.126-.1-.182-.294-.182H90.006v1.316H87.64l-.56-.112v.784l.56-.112h5.8l.546.112v-.784l-.546.112Z" transform="translate(1096 3294)" fill="#003016"/>
      <path id="パス_44" data-name="パス 44" d="M11.477-3.381H8.947V0H7.13V-3.381H.69v-.9L6.578-14.9H8.947v9.959h2.53ZM7.13-4.945v-8.717h-.3L2.139-4.945ZM20.309-8.05q3.22,1.035,3.22,3.818a3.952,3.952,0,0,1-.747,2.415A4.778,4.778,0,0,1,20.85-.276a6,6,0,0,1-2.472.529A4.974,4.974,0,0,1,15.72-.46a5.252,5.252,0,0,1-1.828-1.863l.736-.46a3.694,3.694,0,0,0,1.564,1.541,4.352,4.352,0,0,0,2,.506,3.571,3.571,0,0,0,1.6-.368A2.963,2.963,0,0,0,21.01-2.231a3.42,3.42,0,0,0,.472-1.84A3.264,3.264,0,0,0,20.55-6.52a3.18,3.18,0,0,0-2.311-.909h-.575v-.713a3.9,3.9,0,0,0,1.587-.345A3,3,0,0,0,20.539-9.58a3.271,3.271,0,0,0,.506-1.874,3.418,3.418,0,0,0-.644-2.1,2.183,2.183,0,0,0-1.863-.862,2.194,2.194,0,0,0-1.966,1,5.045,5.045,0,0,0-.748,2.5H14.582v-2.76a4.551,4.551,0,0,1,1.7-1.1,6.13,6.13,0,0,1,2.254-.414,5.569,5.569,0,0,1,2.231.437A3.873,3.873,0,0,1,22.39-13.5,3.207,3.207,0,0,1,23-11.546Q23-9.223,20.309-8.05Zm12.972,0Q36.5-7.015,36.5-4.232a3.952,3.952,0,0,1-.747,2.415A4.778,4.778,0,0,1,33.821-.276a6,6,0,0,1-2.472.529A4.974,4.974,0,0,1,28.693-.46a5.252,5.252,0,0,1-1.829-1.863l.736-.46a3.694,3.694,0,0,0,1.564,1.541,4.352,4.352,0,0,0,2,.506,3.571,3.571,0,0,0,1.6-.368,2.963,2.963,0,0,0,1.219-1.127,3.42,3.42,0,0,0,.472-1.84,3.264,3.264,0,0,0-.932-2.449,3.18,3.18,0,0,0-2.311-.909h-.575v-.713a3.9,3.9,0,0,0,1.587-.345A3,3,0,0,0,33.511-9.58a3.271,3.271,0,0,0,.506-1.874,3.418,3.418,0,0,0-.644-2.1,2.183,2.183,0,0,0-1.863-.862,2.194,2.194,0,0,0-1.966,1,5.045,5.045,0,0,0-.748,2.5H27.554v-2.76a4.551,4.551,0,0,1,1.7-1.1A6.13,6.13,0,0,1,31.51-15.2a5.569,5.569,0,0,1,2.231.437A3.873,3.873,0,0,1,35.362-13.5a3.207,3.207,0,0,1,.61,1.955Q35.972-9.223,33.281-8.05ZM50.163-.69V0h-3.1L43.332-5.221H42.6V-.69h1.426V0H39.4V-.69h1.472V-15.019H39.215v-.667l3.381-.207V-6h.782L46.9-9.7H45.333v-.69h4.186v.69H48.07L44.758-6.187l4.025,5.5Zm18.078,0V0H63.848V-.69h1.173V-7.314a3.4,3.4,0,0,0-.437-1.921,1.511,1.511,0,0,0-1.334-.632,2.11,2.11,0,0,0-1.645.736,2.7,2.7,0,0,0-.656,1.863V-.69H62.26V0H57.914V-.69h1.311V-7.314a3.4,3.4,0,0,0-.437-1.921,1.511,1.511,0,0,0-1.334-.632,2.135,2.135,0,0,0-1.667.736,2.7,2.7,0,0,0-.656,1.863V-.69H56.35V0H51.888V-.69h1.518V-9.706H51.934v-.667l3.151-.184.046,1.081a3.254,3.254,0,0,1,2.76-1.173,3.394,3.394,0,0,1,1.656.4,2.49,2.49,0,0,1,1.081,1.115,2.92,2.92,0,0,1,1.2-1.127,3.764,3.764,0,0,1,1.748-.391q3.174,0,3.174,3.588V-.69Zm4.786-13.683,1.234,1.449-.631.47-.993-1.65-.993,1.65-.631-.47,1.248-1.436-1.851-.429.241-.751,1.757.738-.161-1.892h.792L72.866-14.8l1.757-.738.255.751Zm-.389-.107-.013.013h.013l.013-.013Zm9.136,6V-8H78.017v-.483H79.4v-7.151l-1.328.859L77.79-15.2,80-16.694h.456v8.211Z" transform="translate(1208 3295)" fill="#a40035"/>
    </g>
    <path id="パス_43" data-name="パス 43" d="M.759-.828H2.6V-14.076H.759V-14.9H4.692L9.752-3.381,14.628-14.9h3.841v.828h-1.84V-.828h1.84V0H12.834V-.828h1.84V-12.443L9.752-.851H8.694L3.588-12.535V-.828H5.359V0H.759Zm26.611,0V0H20.907V-.828h2.254V-14.076H21V-14.9h6.279v.828H25.116V-.828Zm2.438,0h1.84V-14.076h-1.84V-14.9h3.749L40.48-3.726v-10.35H38.64V-14.9h4.669v.828h-1.84V0H40.411L32.637-12.673V-.828h1.84V0H29.808Zm22.172,0V0H45.517V-.828h2.254V-14.076H45.609V-14.9h6.279v.828H49.726V-.828ZM67.6.276a6.067,6.067,0,0,1-3.76-1.1,6.2,6.2,0,0,1-2.1-2.817,10.146,10.146,0,0,1-.644-3.6,10.9,10.9,0,0,1,.667-3.807A6.625,6.625,0,0,1,63.9-14.015,5.83,5.83,0,0,1,67.62-15.18a7.006,7.006,0,0,1,2.588.426,7.715,7.715,0,0,1,1.92,1.092v2.76H70.817a4.092,4.092,0,0,0-1.1-2.691,3.2,3.2,0,0,0-2.254-.851A3.616,3.616,0,0,0,64.2-12.8a7.655,7.655,0,0,0-1.069,4.244,14.058,14.058,0,0,0,.494,3.795,6.883,6.883,0,0,0,1.53,2.887,3.37,3.37,0,0,0,2.58,1.115,4.029,4.029,0,0,0,2.484-.851,4,4,0,0,0,1.472-2.461h.874a5.231,5.231,0,0,1-.92,2.231A5.135,5.135,0,0,1,69.874-.287,4.77,4.77,0,0,1,67.6.276ZM79.442.253A4.291,4.291,0,0,1,77.1-.4a4.3,4.3,0,0,1-1.6-1.851,6.407,6.407,0,0,1-.563-2.76,6.748,6.748,0,0,1,.61-2.921,4.75,4.75,0,0,1,1.7-2,4.464,4.464,0,0,1,2.5-.713,4.333,4.333,0,0,1,2.369.656,4.375,4.375,0,0,1,1.61,1.851,6.3,6.3,0,0,1,.575,2.76,6.588,6.588,0,0,1-.621,2.9A4.879,4.879,0,0,1,81.949-.472a4.467,4.467,0,0,1-2.507.725Zm.414-.69A2.156,2.156,0,0,0,81.7-1.564a5.887,5.887,0,0,0,.736-3.22,8.656,8.656,0,0,0-.38-2.668,4.379,4.379,0,0,0-1.069-1.84A2.218,2.218,0,0,0,79.4-9.959a2.15,2.15,0,0,0-1.89,1.138A5.843,5.843,0,0,0,76.8-5.7a8.585,8.585,0,0,0,.391,2.657,4.691,4.691,0,0,0,1.092,1.909,2.178,2.178,0,0,0,1.573.7ZM97.635-.69v.667L94.484.138l-.046-1.15A3.644,3.644,0,0,1,91.517.253a3.638,3.638,0,0,1-2.553-.862,3.5,3.5,0,0,1-.943-2.7v-6.4H86.572v-.69h3.2v7.084A3.1,3.1,0,0,0,90.355-1.2a1.92,1.92,0,0,0,1.484.644,2.937,2.937,0,0,0,1.794-.6,2.359,2.359,0,0,0,.8-2.024V-9.706H92.966v-.69h3.2V-.69Zm13.271,0V0h-4.669V-.69h1.5V-7.2a3.064,3.064,0,0,0-.54-1.932,1.83,1.83,0,0,0-1.53-.69,2.467,2.467,0,0,0-1.874.793,2.788,2.788,0,0,0-.748,1.99V-.69h1.449V0H99.8V-.69h1.518V-9.706H99.843v-.667l3.151-.184.046,1.2a3.241,3.241,0,0,1,1.242-.931,4.188,4.188,0,0,1,1.7-.334,3.418,3.418,0,0,1,2.564.932,3.615,3.615,0,0,1,.909,2.633V-.69Zm8.464-.092a4.926,4.926,0,0,1-1.27.794,3.469,3.469,0,0,1-1.311.241,2.762,2.762,0,0,1-2.162-.816,3.407,3.407,0,0,1-.736-2.358V-9.706h-1.173v-.552l2.369-2.461h.552V-10.4h3.473v.69h-3.473v6.9a2.767,2.767,0,0,0,.4,1.622,1.363,1.363,0,0,0,1.185.563,2.667,2.667,0,0,0,1.725-.69Zm7.659-9.867a2.577,2.577,0,0,1,.966.184,1.7,1.7,0,0,1,.69.46v2.047h-1.012A1.4,1.4,0,0,0,127.214-9a1.4,1.4,0,0,0-1.082-.357,1.434,1.434,0,0,0-1.265.851,4.035,4.035,0,0,0-.483,2.024v5.8h1.978V0h-5.221V-.69h1.518V-9.706h-1.5v-.667l3.151-.184.023,1.656a2.912,2.912,0,0,1,1.116-1.253,2.885,2.885,0,0,1,1.58-.495Zm14.651.943h-1.311L135.654,2.783q-.9,2.392-2.714,2.392a3.441,3.441,0,0,1-2.277-.966l.506-.644a2.586,2.586,0,0,0,1.725.8,1.637,1.637,0,0,0,1.115-.391,3.231,3.231,0,0,0,.794-1.311l1.012-2.714-3.933-9.66h-1.357v-.69h4.738v.69h-1.4l2.852,7.268,2.76-7.268H138.1v-.69h3.588ZM159.574-.69V0h-4.393V-.69h1.173V-7.314a3.4,3.4,0,0,0-.437-1.921,1.511,1.511,0,0,0-1.334-.632,2.11,2.11,0,0,0-1.645.736,2.7,2.7,0,0,0-.656,1.863V-.69h1.311V0h-4.347V-.69h1.311V-7.314a3.4,3.4,0,0,0-.437-1.921,1.511,1.511,0,0,0-1.334-.632,2.135,2.135,0,0,0-1.667.736,2.7,2.7,0,0,0-.656,1.863V-.69h1.219V0H143.22V-.69h1.518V-9.706h-1.472v-.667l3.151-.184.046,1.081a3.254,3.254,0,0,1,2.76-1.173,3.394,3.394,0,0,1,1.656.4,2.49,2.49,0,0,1,1.081,1.115,2.92,2.92,0,0,1,1.2-1.127,3.764,3.764,0,0,1,1.748-.391q3.174,0,3.174,3.588V-.69ZM171.1-.552a2.387,2.387,0,0,1-.771.575,2.3,2.3,0,0,1-1.023.23,1.749,1.749,0,0,1-1.012-.3,1.622,1.622,0,0,1-.621-.8,4.349,4.349,0,0,1-1.346.828,4.736,4.736,0,0,1-1.691.276,2.965,2.965,0,0,1-2.012-.667,2.176,2.176,0,0,1-.77-1.725q0-1.978,2.507-2.806l3.266-1.127v-1.1A3.968,3.968,0,0,0,167.2-9.3a1.6,1.6,0,0,0-1.437-.632,1.816,1.816,0,0,0-1.541.736,3.692,3.692,0,0,0-.6,2.116h-1.173V-9.545a3.425,3.425,0,0,1,1.4-.793,6.218,6.218,0,0,1,1.909-.288,3.944,3.944,0,0,1,2.7.828,3.092,3.092,0,0,1,.931,2.438v6.072a.549.549,0,0,0,.155.466.549.549,0,0,0,.466.155.98.98,0,0,0,.759-.368Zm-5.73-.069A2.5,2.5,0,0,0,166.543-.9a3.683,3.683,0,0,0,1.081-.943v-3.47l-2.392.851a2.205,2.205,0,0,0-1.092.782,2.191,2.191,0,0,0-.38,1.311,1.754,1.754,0,0,0,.471,1.242,1.5,1.5,0,0,0,1.139.506ZM183.954-.69V0h-4.669V-.69h1.495V-7.2a3.064,3.064,0,0,0-.54-1.932,1.83,1.83,0,0,0-1.53-.69,2.467,2.467,0,0,0-1.874.793,2.788,2.788,0,0,0-.747,1.99V-.69h1.449V0h-4.692V-.69h1.518V-9.706h-1.472v-.667l3.151-.184.046,1.2a3.241,3.241,0,0,1,1.242-.931,4.188,4.188,0,0,1,1.7-.334,3.418,3.418,0,0,1,2.564.932,3.615,3.615,0,0,1,.909,2.633V-.69Zm13.179.966a7.105,7.105,0,0,1-2.633-.46,4.167,4.167,0,0,1-1.714-1.127V-4.025h1.242a4.573,4.573,0,0,0,1.035,2.749,2.884,2.884,0,0,0,2.116.794,3.026,3.026,0,0,0,2.2-.748,2.674,2.674,0,0,0,.771-2.013,2.571,2.571,0,0,0-1.265-2.3l-4.094-2.645a4.915,4.915,0,0,1-1.46-1.357,3.271,3.271,0,0,1-.518-1.886,3.393,3.393,0,0,1,1.208-2.726,4.98,4.98,0,0,1,3.324-1.024,6.7,6.7,0,0,1,2.357.391,4.417,4.417,0,0,1,1.714,1.1v2.79h-1.242a4.913,4.913,0,0,0-.874-2.771,2.488,2.488,0,0,0-1.955-.771,2.687,2.687,0,0,0-2.1.736,2.571,2.571,0,0,0-.656,1.771,2.189,2.189,0,0,0,1.058,1.978l4.025,2.576a5.811,5.811,0,0,1,1.8,1.645,3.47,3.47,0,0,1,.54,1.921,3.925,3.925,0,0,1-.575,2.1,3.894,3.894,0,0,1-1.667,1.461A6,6,0,0,1,197.133.276Zm18.86-4.324V0H204.608V-.828h1.84V-14.076h-1.84V-14.9h11.2v4h-.874l-1.219-3.174H208.4V-8.3h3.611v-1.771h1.058v4.416h-1.058V-7.429H208.4v6.6h5.5l1.219-3.22Zm23.069,3.22V0h-5.336V-.828H235.4L233.749-5.5H228.8L227.148-.828h1.679V0h-4.3V-.828h1.633L231.242-14.9h1.081L237.429-.828Zm-5.635-5.543-2.116-5.957h-.092L229.1-6.371Zm7.567,5.543h1.84V-14.076h-1.84V-14.9h5.7v.828h-1.909V-.828h5.382l1.219-3.22h.874V0H240.99Zm13.409,0h1.84V-14.076H254.4V-14.9h5.7v.828h-1.9V-.828h5.382l1.219-3.22h.874V0H254.4ZM278.53-3.381H276V0h-1.817V-3.381h-6.44v-.9L273.631-14.9H276v9.959h2.53Zm-4.347-1.564v-8.717h-.3l-4.692,8.717Z" transform="translate(397 3287)"/>
    <path id="パス_73" data-name="パス 73" d="M7.392-11.1c.238-.084.336-.182.336-.308s-.1-.2-.28-.21l-1.19-.14A14.473,14.473,0,0,1,4.172-8.876,20.166,20.166,0,0,1,.56-5.782l.182.364a14.954,14.954,0,0,0,6.342-5.236l.056.084a12.274,12.274,0,0,0,5.684,4.886,7.578,7.578,0,0,1,.616-1.274A13.2,13.2,0,0,1,9.492-9.072,12.574,12.574,0,0,1,7.364-11.06Zm.154,5.3H10.57l.56.112v-.784l-.56.112H3.43l-.56-.112v.784L3.43-5.8H6.342v2.45H3.276L2.73-3.458v.784l.546-.112H6.342V.042H1.806L1.246-.07V.714L1.806.6H12.348l.56.112V-.07l-.56.112h-4.8V-2.786h3.178l.546.112v-.784l-.546.112H7.546ZM27.3-4.4l.56.112v-.784l-.56.112H18.34V-6.51h7.182l.56.112v-.784l-.56.112H18.34V-8.54h7.182l.56.112v-.784l-.56.112H18.34v-1.442h7.728l.56.112v-.784l-.56.112h-8.9v6.146H15.54l-.56-.112v.784l.56-.112h1.624V-.532c-.658.084-1.036.126-2.114.21L15.526.826c.1.224.154.294.266.294.154,0,.224-.084.308-.336a37.543,37.543,0,0,0,6.8-1.806l.07-.014A8.57,8.57,0,0,0,27.188,1.12,6.784,6.784,0,0,1,27.86-.14a9.972,9.972,0,0,1-4.1-1.526,17.925,17.925,0,0,0,2.66-1.246l.28.014c.2,0,.35-.112.35-.252,0-.056-.056-.14-.168-.21l-1.05-.7a16.389,16.389,0,0,1-2.478,2.086A5.966,5.966,0,0,1,21.518-4.4Zm-6.384,0A7.472,7.472,0,0,0,22.61-1.414l-.126.028c-.994.224-2.016.392-4.144.7V-4.4ZM36.824-2.352h-1.76V0H33.8V-2.352H29.32v-.624l4.1-7.392h1.648V-3.44h1.76ZM33.8-3.44V-9.5h-.208L30.328-3.44Zm5.584,1.808A.926.926,0,0,1,40.1-1.3a1.325,1.325,0,0,1,.3.92,2.406,2.406,0,0,1-.448,1.44,3.121,3.121,0,0,1-1.216.992l-.24-.384a2.333,2.333,0,0,0,.728-.6,1.247,1.247,0,0,0,.336-.8.485.485,0,0,0-.016-.144.994.994,0,0,1-.192.016A.844.844,0,0,1,38.7-.1a.888.888,0,0,1-.232-.632.855.855,0,0,1,.264-.64.9.9,0,0,1,.652-.26Zm10.24-.72h-1.76V0H46.6V-2.352H42.12v-.624l4.1-7.392h1.648V-3.44h1.76ZM46.6-3.44V-9.5h-.208L43.128-3.44ZM58.488-2.352h-1.76V0H55.464V-2.352h-4.48v-.624l4.1-7.392h1.648V-3.44h1.76ZM55.464-3.44V-9.5h-.208L51.992-3.44Zm8.128-3.3a3.351,3.351,0,0,1,1.56.376,2.964,2.964,0,0,1,1.184,1.128,3.391,3.391,0,0,1,.456,1.792,3.575,3.575,0,0,1-.528,1.984A3.41,3.41,0,0,1,64.928-.232a3.666,3.666,0,0,1-1.672.408A3.678,3.678,0,0,1,61.384-.3a3.4,3.4,0,0,1-1.3-1.312l.512-.32a2.759,2.759,0,0,0,1.06,1.068A2.925,2.925,0,0,0,63.112-.5,2.075,2.075,0,0,0,64.24-.824a2.351,2.351,0,0,0,.84-.968,3.363,3.363,0,0,0,.32-1.52,3.213,3.213,0,0,0-.32-1.5,2.154,2.154,0,0,0-.84-.912,2.242,2.242,0,0,0-1.128-.3,1.832,1.832,0,0,0-.96.24,2.99,2.99,0,0,0-.72.608h-.624l.384-5.2H66.28V-9.1H61.688L61.464-6a2.822,2.822,0,0,1,.92-.544,3.4,3.4,0,0,1,1.208-.2ZM80.04-.48V0H76.984V-.48H77.8V-5.088a2.368,2.368,0,0,0-.3-1.336,1.051,1.051,0,0,0-.928-.44,1.468,1.468,0,0,0-1.144.512,1.876,1.876,0,0,0-.456,1.3V-.48h.912V0H72.856V-.48h.912V-5.088a2.368,2.368,0,0,0-.3-1.336,1.051,1.051,0,0,0-.928-.44,1.485,1.485,0,0,0-1.16.512,1.876,1.876,0,0,0-.456,1.3V-.48h.848V0h-3.1V-.48H69.72V-6.752H68.7v-.464l2.192-.128.032.752a2.263,2.263,0,0,1,1.92-.816A2.361,2.361,0,0,1,74-7.128a1.732,1.732,0,0,1,.752.776,2.032,2.032,0,0,1,.832-.784A2.618,2.618,0,0,1,76.8-7.408q2.2,0,2.2,2.5V-.48Zm12.56,0V0H89.544V-.48h.816V-5.088a2.368,2.368,0,0,0-.3-1.336,1.051,1.051,0,0,0-.928-.44,1.468,1.468,0,0,0-1.144.512,1.876,1.876,0,0,0-.456,1.3V-.48h.912V0H85.416V-.48h.912V-5.088a2.368,2.368,0,0,0-.3-1.336,1.051,1.051,0,0,0-.928-.44,1.485,1.485,0,0,0-1.16.512,1.876,1.876,0,0,0-.456,1.3V-.48h.848V0h-3.1V-.48H82.28V-6.752H81.256v-.464l2.192-.128.032.752a2.263,2.263,0,0,1,1.92-.816,2.361,2.361,0,0,1,1.152.28,1.732,1.732,0,0,1,.752.776,2.032,2.032,0,0,1,.832-.784,2.618,2.618,0,0,1,1.216-.272q2.208,0,2.208,2.5V-.48Zm7.766-6.352a1.521,1.521,0,0,0-1.085.436,1.521,1.521,0,0,0-.455,1.076,1.521,1.521,0,0,0,.445,1.081,1.521,1.521,0,0,0,1.081.445,1.527,1.527,0,0,0,1.512-1.526,1.53,1.53,0,0,0-1.5-1.512Zm14.8-4.27c.238-.084.336-.182.336-.308s-.1-.2-.28-.21l-1.19-.14a14.473,14.473,0,0,1-2.086,2.884,20.166,20.166,0,0,1-3.612,3.094l.182.364a14.954,14.954,0,0,0,6.342-5.236l.056.084A12.274,12.274,0,0,0,120.6-5.684a7.579,7.579,0,0,1,.616-1.274,13.2,13.2,0,0,1-3.948-2.114,12.574,12.574,0,0,1-2.128-1.988ZM115.32-5.8h3.024l.56.112v-.784l-.56.112H111.2l-.56-.112v.784l.56-.112h2.912v2.45h-3.066l-.546-.112v.784l.546-.112h3.066V.042h-4.536l-.56-.112V.714l.56-.112H120.12l.56.112V-.07l-.56.112h-4.8V-2.786h3.18l.546.112v-.784l-.546.112h-3.178ZM125.9-9.128h.91v6.286c0,.266-.084.336-.336.35h-.406v.56h.714c.672,0,.952-.28.952-.924v-6.79H125.9v-1.568c.182-.126.224-.182.224-.28,0-.126-.1-.182-.294-.182h-.854v2.03h-1.764v7.8h.924v-7.28h.84V1.036h.924Zm9.24,4.046h-6.748V1.036h1.022V.35h4.676V.938h1.05ZM134.09-2.17V-.21h-1.876V-2.17Zm0-.56h-1.876V-4.522h1.876Zm-2.884-1.792V-2.73h-1.792V-4.522ZM129.416-.21V-2.17h1.792V-.21Zm5.166-6.16V-9.422h-5.74V-6.37ZM133.5-6.93h-3.612V-8.862H133.5Zm-5.068-3.682h6.636l.56.112v-.784l-.56.112h-6.636l-.56-.112v.784ZM143.188-.576V0h-4.48V-.576h1.648V-9.1l-1.584,1.02-.336-.512,2.64-1.776h.544V-.576Zm3.968-1.056a.926.926,0,0,1,.712.328,1.325,1.325,0,0,1,.3.92,2.406,2.406,0,0,1-.448,1.44,3.121,3.121,0,0,1-1.216.992l-.24-.384a2.333,2.333,0,0,0,.728-.6,1.247,1.247,0,0,0,.344-.792.485.485,0,0,0-.016-.144.994.994,0,0,1-.192.016A.844.844,0,0,1,146.48-.1a.888.888,0,0,1-.232-.632.855.855,0,0,1,.264-.64.9.9,0,0,1,.644-.256Zm7.92-3.9a3.061,3.061,0,0,1,1.512.96,2.625,2.625,0,0,1,.584,1.76,2.674,2.674,0,0,1-.512,1.656,3.045,3.045,0,0,1-1.336,1.008,4.651,4.651,0,0,1-1.736.328,4.476,4.476,0,0,1-1.736-.336,3.087,3.087,0,0,1-1.312-1.008,2.668,2.668,0,0,1-.5-1.648,2.625,2.625,0,0,1,.584-1.76,3.061,3.061,0,0,1,1.512-.96,2.682,2.682,0,0,1-1.2-.848,2.367,2.367,0,0,1-.528-1.584,2.283,2.283,0,0,1,.448-1.432,2.757,2.757,0,0,1,1.176-.88,4.144,4.144,0,0,1,1.576-.3,4.2,4.2,0,0,1,1.56.288,2.729,2.729,0,0,1,1.184.88,2.289,2.289,0,0,1,.456,1.44,2.367,2.367,0,0,1-.528,1.584,2.682,2.682,0,0,1-1.2.848ZM153.6-10.048a1.757,1.757,0,0,0-1.352.584,2.217,2.217,0,0,0-.536,1.56,2.217,2.217,0,0,0,.536,1.56,1.757,1.757,0,0,0,1.352.584,1.75,1.75,0,0,0,1.36-.584,2.238,2.238,0,0,0,.528-1.56,2.217,2.217,0,0,0-.536-1.56,1.757,1.757,0,0,0-1.352-.584Zm0,9.712a2.035,2.035,0,0,0,1.552-.648A2.551,2.551,0,0,0,155.76-2.8a2.645,2.645,0,0,0-.56-1.776,1.988,1.988,0,0,0-1.6-.656,1.988,1.988,0,0,0-1.6.656,2.645,2.645,0,0,0-.56,1.776,2.551,2.551,0,0,0,.608,1.816,2.035,2.035,0,0,0,1.552.648Zm12.66-2.016H164.5V0h-1.264V-2.352h-4.48v-.624l4.1-7.392H164.5V-3.44h1.76ZM163.236-3.44V-9.5h-.208l-3.264,6.06Zm8.128-3.3a3.351,3.351,0,0,1,1.56.376,2.964,2.964,0,0,1,1.184,1.128,3.391,3.391,0,0,1,.456,1.792,3.575,3.575,0,0,1-.528,1.984A3.41,3.41,0,0,1,172.7-.232a3.666,3.666,0,0,1-1.672.408,3.678,3.678,0,0,1-1.872-.48,3.4,3.4,0,0,1-1.3-1.312l.512-.32a2.759,2.759,0,0,0,1.056,1.072A2.925,2.925,0,0,0,170.88-.5a2.075,2.075,0,0,0,1.128-.328,2.351,2.351,0,0,0,.84-.968,3.363,3.363,0,0,0,.32-1.52,3.213,3.213,0,0,0-.32-1.5,2.155,2.155,0,0,0-.84-.912,2.242,2.242,0,0,0-1.128-.3,1.832,1.832,0,0,0-.96.24,2.99,2.99,0,0,0-.72.608h-.624l.384-5.2h5.088V-9.1H169.46L169.236-6a2.823,2.823,0,0,1,.92-.544,3.4,3.4,0,0,1,1.208-.2ZM187.812-.48V0h-3.056V-.48h.816V-5.088a2.368,2.368,0,0,0-.3-1.336,1.051,1.051,0,0,0-.928-.44,1.468,1.468,0,0,0-1.144.512,1.876,1.876,0,0,0-.456,1.3V-.48h.912V0h-3.024V-.48h.912V-5.088a2.368,2.368,0,0,0-.3-1.336,1.051,1.051,0,0,0-.928-.44,1.485,1.485,0,0,0-1.16.512,1.876,1.876,0,0,0-.456,1.3V-.48h.848V0h-3.1V-.48H177.5V-6.752H176.48v-.464l2.192-.128.032.752a2.263,2.263,0,0,1,1.92-.816,2.361,2.361,0,0,1,1.152.28,1.732,1.732,0,0,1,.752.776,2.031,2.031,0,0,1,.832-.784,2.618,2.618,0,0,1,1.216-.272q2.208,0,2.208,2.5V-.48Zm12.56,0V0h-3.056V-.48h.816V-5.088a2.368,2.368,0,0,0-.3-1.336,1.051,1.051,0,0,0-.928-.44,1.468,1.468,0,0,0-1.144.512,1.876,1.876,0,0,0-.456,1.3V-.48h.912V0h-3.024V-.48h.912V-5.088a2.368,2.368,0,0,0-.3-1.336,1.051,1.051,0,0,0-.928-.44,1.485,1.485,0,0,0-1.16.512,1.876,1.876,0,0,0-.456,1.3V-.48h.848V0H189V-.48h1.056V-6.752h-1.024v-.464l2.192-.128.032.752a2.263,2.263,0,0,1,1.92-.816,2.361,2.361,0,0,1,1.152.28,1.732,1.732,0,0,1,.752.776,2.031,2.031,0,0,1,.832-.784,2.618,2.618,0,0,1,1.216-.272q2.208,0,2.208,2.5V-.48Zm7.766-6.352a1.521,1.521,0,0,0-1.083.436A1.521,1.521,0,0,0,206.6-5.32a1.521,1.521,0,0,0,.445,1.081,1.521,1.521,0,0,0,1.081.445,1.527,1.527,0,0,0,1.512-1.526,1.53,1.53,0,0,0-1.5-1.512Zm14.8-4.27c.238-.084.336-.182.336-.308s-.1-.2-.28-.21l-1.19-.14a14.472,14.472,0,0,1-2.086,2.884A20.166,20.166,0,0,1,216.1-5.782l.182.364a14.954,14.954,0,0,0,6.342-5.236l.056.084a12.274,12.274,0,0,0,5.684,4.886,7.577,7.577,0,0,1,.616-1.274,13.2,13.2,0,0,1-3.948-2.114A12.574,12.574,0,0,1,222.9-11.06Zm.152,5.3h3.024l.56.112v-.784l-.56.112h-7.14l-.56-.112v.784l.56-.112h2.912v2.45H218.82l-.546-.112v.784l.546-.112h3.066V.042H217.35l-.56-.112V.714L217.35.6h10.542l.56.112V-.07l-.56.112h-4.8V-2.786h3.178l.546.112v-.784l-.546.112h-3.18Zm13.174-4.494h-5.1l-.56-.112v.784l.56-.112h11.578l.56.112V-10.4l-.56.112h-5.208v-.994c.182-.14.224-.2.224-.28,0-.14-.1-.2-.294-.2h-1.2ZM242.718-5H231.2V1.036h1.162V-4.438h9.2V-.21c-.014.434-.154.574-.588.588h-1.19V.966H241.5c.854,0,1.232-.35,1.218-1.162Zm-8.932,1.6V0h1.106V-.644h5V-3.4Zm1.106,2.2V-2.842H238.8V-1.2Zm6.146-4.858v-2.65h-8.162v2.646Zm-7-.56v-1.53h5.838v1.526ZM250.96-.576V0h-4.48V-.576h1.648V-9.1l-1.584,1.02-.336-.512,2.64-1.776h.544V-.576Zm3.968-1.056a.926.926,0,0,1,.712.328,1.325,1.325,0,0,1,.3.92,2.406,2.406,0,0,1-.448,1.44,3.121,3.121,0,0,1-1.216.992l-.24-.384a2.333,2.333,0,0,0,.728-.6A1.247,1.247,0,0,0,255.1.272a.486.486,0,0,0-.016-.144.994.994,0,0,1-.192.016.844.844,0,0,1-.648-.248.888.888,0,0,1-.232-.632.855.855,0,0,1,.264-.64.9.9,0,0,1,.652-.256Zm6.832-4.96a3.351,3.351,0,0,1,1.56.376A2.888,2.888,0,0,1,264.488-5.1a3.336,3.336,0,0,1,.44,1.744,3.662,3.662,0,0,1-.456,1.832,3.263,3.263,0,0,1-1.24,1.256A3.422,3.422,0,0,1,261.5.176a3.072,3.072,0,0,1-1.9-.616,3.886,3.886,0,0,1-1.256-1.752,7.332,7.332,0,0,1-.44-2.656,7.784,7.784,0,0,1,.544-3.016A4.832,4.832,0,0,1,259.9-9.872a3.125,3.125,0,0,1,1.96-.7,2.953,2.953,0,0,1,1.5.4,3.6,3.6,0,0,1,1.192,1.136l-.48.4a3.38,3.38,0,0,0-.968-.96,2.15,2.15,0,0,0-1.176-.352A2.046,2.046,0,0,0,260.056-8.7a7.775,7.775,0,0,0-.744,3.32,3.234,3.234,0,0,1,1-.864,2.869,2.869,0,0,1,1.448-.348Zm.016,6.256a1.45,1.45,0,0,0,1.336-.744,3.788,3.788,0,0,0,.44-1.944,3.472,3.472,0,0,0-.608-2.232A1.87,1.87,0,0,0,261.44-6a1.853,1.853,0,0,0-1.352.544,2.737,2.737,0,0,0-.744,1.3,5.764,5.764,0,0,0,.768,2.84,1.945,1.945,0,0,0,1.664.98Zm12.256-2.016h-1.76V0h-1.264V-2.352h-4.48v-.624l4.1-7.392h1.648V-3.44h1.76ZM271.008-3.44V-9.5H270.8l-3.264,6.06Zm8.08,3.616a2.968,2.968,0,0,1-1.92-.672,4.3,4.3,0,0,1-1.288-1.9,8.012,8.012,0,0,1-.456-2.808A7.947,7.947,0,0,1,275.88-8a4.267,4.267,0,0,1,1.3-1.888,3,3,0,0,1,1.928-.672,3.023,3.023,0,0,1,1.928.664,4.21,4.21,0,0,1,1.3,1.88,7.944,7.944,0,0,1,.456,2.8,7.887,7.887,0,0,1-.464,2.808,4.378,4.378,0,0,1-1.3,1.9,2.978,2.978,0,0,1-1.94.684Zm.016-.512a1.811,1.811,0,0,0,1.664-1.248,8.922,8.922,0,0,0,.576-3.616,8.871,8.871,0,0,0-.576-3.6,1.811,1.811,0,0,0-1.664-1.248A1.811,1.811,0,0,0,277.44-8.8a8.871,8.871,0,0,0-.576,3.6,8.921,8.921,0,0,0,.576,3.616A1.811,1.811,0,0,0,279.1-.336Zm16.48-.144V0h-3.056V-.48h.816V-5.088a2.368,2.368,0,0,0-.3-1.336,1.051,1.051,0,0,0-.928-.44,1.468,1.468,0,0,0-1.144.512,1.876,1.876,0,0,0-.456,1.3V-.48h.912V0H288.4V-.48h.912V-5.088a2.368,2.368,0,0,0-.3-1.336,1.051,1.051,0,0,0-.928-.44,1.485,1.485,0,0,0-1.16.512,1.876,1.876,0,0,0-.456,1.3V-.48h.848V0h-3.1V-.48h1.056V-6.752H284.24v-.464l2.192-.128.032.752a2.263,2.263,0,0,1,1.92-.816,2.361,2.361,0,0,1,1.152.28,1.732,1.732,0,0,1,.752.776,2.032,2.032,0,0,1,.832-.784,2.618,2.618,0,0,1,1.216-.272q2.208,0,2.208,2.5V-.48Zm12.56,0V0h-3.056V-.48h.816V-5.088a2.368,2.368,0,0,0-.3-1.336,1.051,1.051,0,0,0-.928-.44,1.468,1.468,0,0,0-1.144.512,1.876,1.876,0,0,0-.456,1.3V-.48h.912V0H300.96V-.48h.912V-5.088a2.368,2.368,0,0,0-.3-1.336,1.051,1.051,0,0,0-.928-.44,1.485,1.485,0,0,0-1.16.512,1.876,1.876,0,0,0-.456,1.3V-.48h.848V0h-3.1V-.48h1.056V-6.752H296.8v-.464l2.192-.128.032.752a2.263,2.263,0,0,1,1.92-.816,2.361,2.361,0,0,1,1.152.28,1.732,1.732,0,0,1,.752.776,2.032,2.032,0,0,1,.832-.784,2.618,2.618,0,0,1,1.216-.272q2.208,0,2.208,2.5V-.48ZM7.728,12.992h4.4l.616.126v-.9l-.616.126h-4.4V10.36c.2-.14.28-.238.28-.364a.252.252,0,0,0-.266-.238l-1.414-.1.126.84v1.848H1.974l-.616-.126v.9l.616-.126h4.48v7.182c0,.476-.21.686-.7.686H4.326V21.5H6.678c.728.014,1.05-.336,1.05-1.134Zm1.386,1.666a17.406,17.406,0,0,1,2.8,5.236l1.344-.7A10.084,10.084,0,0,0,9.394,14.42ZM.938,19.95a9.648,9.648,0,0,0,3.7-4.55c.252-.1.35-.2.35-.336a.3.3,0,0,0-.21-.266l-1.316-.476-.168.77a12.955,12.955,0,0,1-2.6,4.55ZM22.96,13.5a35.994,35.994,0,0,0,2.982-2.632c.378-.042.532-.14.532-.336a.434.434,0,0,0-.224-.322L25.172,9.5l-.5.756a27.236,27.236,0,0,1-9.184,6.37l.154.42a18.465,18.465,0,0,0,6.02-2.6V21.75h1.3Zm18.816,1.848-11.69-.434v1.47l11.69-.42Zm8.876,6.1a6.936,6.936,0,0,0,4.158-2.534,9.8,9.8,0,0,0,2.03-4.606l-.434-.14c-.924,2.632-2.674,4.774-4.508,5.516V10.64c.21-.14.28-.238.28-.364a.262.262,0,0,0-.266-.238l-1.386-.1.126.84Zm-6.622.042a7.681,7.681,0,0,0,3.136-3.332,13.044,13.044,0,0,0,.826-5.46V11.116c.21-.14.28-.238.28-.364a.252.252,0,0,0-.266-.238l-1.428-.1.126.84v1.568c0,4.256-.672,6.174-2.926,8.3ZM70.546,10.878a2.781,2.781,0,0,0-1.61-1.484l-.252.2a5.228,5.228,0,0,1,.924,1.764Zm-3.472-.966a5.737,5.737,0,0,1,.77,1.862l.98-.448a2.9,2.9,0,0,0-1.5-1.6Zm4.032,9.73c-2.016-2.03-5.362-5.782-6.958-7.826-.574-.742-.784-.938-1.036-.938-.28,0-.5.21-1.5,1.442-1.512,1.834-1.932,2.338-2.674,3.108l-.7.588.784,1.064a.345.345,0,0,0,.28.182c.168,0,.252-.126.266-.378.756-1.05,1.2-1.694,2.772-3.99.56-.854.658-.98.756-.98.056,0,.126.07.294.336a97.849,97.849,0,0,0,6.72,8.582Zm13.93-4.3-11.69-.434v1.47l11.69-.42Zm9.7.994a17.629,17.629,0,0,0,2.884-5.67H89.334l-.616-.126v.9l.616-.126h6.622A16.133,16.133,0,0,1,87.5,20.748l.2.434a14.074,14.074,0,0,0,6.748-4.466,23.9,23.9,0,0,1,4,4.564l1.246-1.008a17.1,17.1,0,0,0-4.774-3.836Zm13.61,3.414V21H102.06v-.56q2.032-2.208,2.968-3.336a10.141,10.141,0,0,0,1.344-1.976,4.047,4.047,0,0,0,.408-1.776,2.63,2.63,0,0,0-.52-1.768,1.687,1.687,0,0,0-1.336-.6,1.58,1.58,0,0,0-1.392.7,3.383,3.383,0,0,0-.544,1.728h-.864V11.5a2.992,2.992,0,0,1,1.2-.768,4.564,4.564,0,0,1,1.616-.288,4.241,4.241,0,0,1,1.544.288,2.766,2.766,0,0,1,1.232.936,2.677,2.677,0,0,1,.488,1.656,2.958,2.958,0,0,1-.384,1.448,9.21,9.21,0,0,1-1.272,1.664q-.888.968-3.208,3.32Zm3.136-.384a.926.926,0,0,1,.712.328,1.325,1.325,0,0,1,.3.92,2.406,2.406,0,0,1-.448,1.44,3.121,3.121,0,0,1-1.216.992l-.24-.384a2.333,2.333,0,0,0,.728-.6,1.247,1.247,0,0,0,.344-.792.485.485,0,0,0-.016-.144.994.994,0,0,1-.192.016.844.844,0,0,1-.648-.248.888.888,0,0,1-.232-.632.855.855,0,0,1,.264-.64.9.9,0,0,1,.646-.254Zm6.832-4.96a3.351,3.351,0,0,1,1.56.376,2.888,2.888,0,0,1,1.168,1.112,3.336,3.336,0,0,1,.44,1.744,3.662,3.662,0,0,1-.456,1.832,3.263,3.263,0,0,1-1.24,1.256,3.422,3.422,0,0,1-1.728.448,3.072,3.072,0,0,1-1.9-.616,3.886,3.886,0,0,1-1.256-1.752,7.333,7.333,0,0,1-.44-2.656A7.784,7.784,0,0,1,115,13.136a4.832,4.832,0,0,1,1.448-2.008,3.125,3.125,0,0,1,1.96-.7,2.953,2.953,0,0,1,1.5.4A3.6,3.6,0,0,1,121.1,11.96l-.48.4a3.38,3.38,0,0,0-.968-.96,2.15,2.15,0,0,0-1.176-.352,2.046,2.046,0,0,0-1.864,1.256,7.775,7.775,0,0,0-.744,3.32,3.234,3.234,0,0,1,1-.864,2.869,2.869,0,0,1,1.448-.352Zm.016,6.256a1.45,1.45,0,0,0,1.336-.744,3.788,3.788,0,0,0,.44-1.944,3.472,3.472,0,0,0-.608-2.232,1.919,1.919,0,0,0-2.856-.2,2.737,2.737,0,0,0-.744,1.3,5.765,5.765,0,0,0,.768,2.84,1.945,1.945,0,0,0,1.666.982Zm8.4-10.24a3.127,3.127,0,0,1,1.9.6,3.829,3.829,0,0,1,1.27,1.738,7.313,7.313,0,0,1,.448,2.688,7.993,7.993,0,0,1-.528,3.016,4.782,4.782,0,0,1-1.416,2.008,3.04,3.04,0,0,1-1.928.7,3.164,3.164,0,0,1-1.688-.488,3.466,3.466,0,0,1-1.24-1.3l.512-.336a3.1,3.1,0,0,0,1.024,1.1,2.369,2.369,0,0,0,1.3.4,2.014,2.014,0,0,0,1.848-1.248,7.787,7.787,0,0,0,.712-3.328,3.234,3.234,0,0,1-1,.864,2.869,2.869,0,0,1-1.448.352,3.294,3.294,0,0,1-1.56-.384,2.944,2.944,0,0,1-1.168-1.12,3.368,3.368,0,0,1-.44-1.76,3.589,3.589,0,0,1,.464-1.848,3.252,3.252,0,0,1,1.24-1.224,3.444,3.444,0,0,1,1.7-.428Zm.08,6.176a1.853,1.853,0,0,0,1.352-.544,2.858,2.858,0,0,0,.76-1.3,6.078,6.078,0,0,0-.728-2.848,1.892,1.892,0,0,0-1.672-.976,1.5,1.5,0,0,0-1.384.736,3.779,3.779,0,0,0-.44,1.952,3.5,3.5,0,0,0,.6,2.232,1.863,1.863,0,0,0,1.514.75Zm8.832,4.576a2.968,2.968,0,0,1-1.92-.672,4.3,4.3,0,0,1-1.288-1.9,8.012,8.012,0,0,1-.456-2.808,7.945,7.945,0,0,1,.456-2.8,4.267,4.267,0,0,1,1.3-1.888,3.116,3.116,0,0,1,3.856-.008,4.21,4.21,0,0,1,1.3,1.88,7.946,7.946,0,0,1,.456,2.8,7.888,7.888,0,0,1-.464,2.808,4.378,4.378,0,0,1-1.3,1.9,2.978,2.978,0,0,1-1.938.69Zm.016-.512a1.811,1.811,0,0,0,1.664-1.248A8.922,8.922,0,0,0,137.9,15.8a8.871,8.871,0,0,0-.576-3.6,1.733,1.733,0,0,0-3.328,0,8.871,8.871,0,0,0-.576,3.6,8.922,8.922,0,0,0,.58,3.616,1.811,1.811,0,0,0,1.66,1.248Zm16.48-.144V21h-3.056v-.48h.816V15.912a2.368,2.368,0,0,0-.3-1.336,1.051,1.051,0,0,0-.928-.44,1.468,1.468,0,0,0-1.144.512,1.876,1.876,0,0,0-.456,1.3V20.52h.912V21h-3.024v-.48h.912V15.912a2.368,2.368,0,0,0-.3-1.336,1.051,1.051,0,0,0-.928-.44,1.485,1.485,0,0,0-1.16.512,1.876,1.876,0,0,0-.456,1.3V20.52h.848V21h-3.1v-.48h1.056V14.248H140.8v-.464l2.192-.128.032.752a2.263,2.263,0,0,1,1.92-.816,2.361,2.361,0,0,1,1.152.28,1.732,1.732,0,0,1,.752.776,2.031,2.031,0,0,1,.832-.784,2.618,2.618,0,0,1,1.216-.272q2.208,0,2.208,2.5V20.52Zm12.56,0V21h-3.056v-.48h.816V15.912a2.368,2.368,0,0,0-.3-1.336,1.051,1.051,0,0,0-.928-.44,1.468,1.468,0,0,0-1.144.512,1.876,1.876,0,0,0-.456,1.3V20.52h.912V21h-3.024v-.48h.912V15.912a2.368,2.368,0,0,0-.3-1.336,1.051,1.051,0,0,0-.928-.44,1.485,1.485,0,0,0-1.16.512,1.876,1.876,0,0,0-.456,1.3V20.52h.848V21h-3.1v-.48h1.056V14.248h-1.024v-.464l2.192-.128.032.752a2.263,2.263,0,0,1,1.92-.816,2.361,2.361,0,0,1,1.152.28,1.732,1.732,0,0,1,.752.776,2.031,2.031,0,0,1,.832-.784,2.618,2.618,0,0,1,1.216-.272q2.208,0,2.208,2.5V20.52ZM12.544,33.712a11.531,11.531,0,0,1-9.464,7.14l-.658.014.5,1.2c.084.2.182.294.336.294s.238-.07.35-.28A12.929,12.929,0,0,0,9.88,39.238a10.687,10.687,0,0,0,3.108-5.39ZM2.6,31.654a13.582,13.582,0,0,1,3.6,1.708l.742-1.246a9.051,9.051,0,0,0-4.256-.854ZM1.918,35.6A12.582,12.582,0,0,1,5.5,37.156l.714-1.246a7.734,7.734,0,0,0-3.486-.7c-.182,0-.406,0-.728.014Zm20.72,1.736a17.629,17.629,0,0,0,2.884-5.67H17.234l-.616-.126v.9l.616-.126h6.622A16.133,16.133,0,0,1,15.4,41.748l.2.434a14.074,14.074,0,0,0,6.748-4.466,23.9,23.9,0,0,1,4,4.564l1.246-1.008a17.1,17.1,0,0,0-4.774-3.836Zm18.676-1.344.616.126v-.9l-.616.126H30.366l-.616-.126v.9l.616-.126h5a7.877,7.877,0,0,1-.476,3.066,6.5,6.5,0,0,1-4.242,3.248l.112.462a8.089,8.089,0,0,0,4.928-2.6A6.688,6.688,0,0,0,36.724,36Zm-1.82-4.536H32.1l-.616-.126v.9l.616-.13h7.392l.616.126v-.9Zm17.052,10.11a12.865,12.865,0,0,0-4.382-6.02l-.294.252a20.982,20.982,0,0,1,2.184,3.612c-2.674.392-4.424.574-7.042.742l.168-.308a64.9,64.9,0,0,0,3.5-7.98c.266-.112.378-.21.378-.364,0-.126-.1-.224-.294-.28l-1.386-.434-.14.812a73.593,73.593,0,0,1-2.87,8.148l-.2.476h-.084c-.378.028-.728.042-1.9.1l.448,1.218c.112.266.2.364.336.364s.252-.084.378-.336a60.91,60.91,0,0,0,8.974-1.624,21.943,21.943,0,0,1,.9,2.422Zm8.148-6.4a1.519,1.519,0,1,0,1.5,1.512,1.519,1.519,0,0,0-1.5-1.512Zm13.23-3.836c.182-.1.28-.21.28-.336s-.112-.224-.28-.238l-1.4-.1.1.84V42.672h1.3v-7.42a13.907,13.907,0,0,1,5.222,3.612L84.1,37.59a14.941,14.941,0,0,0-6.174-2.856Zm21.532,5.012-11.69-.434v1.47l11.69-.42Zm3.514,6.342a11.642,11.642,0,0,0,6.51-3.122,14.334,14.334,0,0,0,3.724-7.35h-5.726c.126-.252.21-.462.406-.952.238-.126.336-.238.336-.378s-.1-.21-.294-.266l-1.288-.28-.112.672a13.711,13.711,0,0,1-3.85,6.034l.266.322a10.456,10.456,0,0,0,4.228-4.508h4.522a13.172,13.172,0,0,1-1.834,4.34,7.647,7.647,0,0,0-3.64-1.764l-.238.35a10.37,10.37,0,0,1,3.08,2.492,12.446,12.446,0,0,1-6.216,3.948Zm19.782-.238a6.936,6.936,0,0,0,4.158-2.534,9.8,9.8,0,0,0,2.03-4.606l-.434-.14c-.924,2.632-2.674,4.774-4.508,5.516V31.64c.21-.14.28-.238.28-.364a.262.262,0,0,0-.266-.238l-1.386-.1.126.84Zm-6.622.042a7.681,7.681,0,0,0,3.136-3.332,13.044,13.044,0,0,0,.826-5.46v-1.58c.21-.14.28-.238.28-.364a.252.252,0,0,0-.266-.238l-1.428-.1.126.84v1.568c0,4.256-.672,6.174-2.926,8.3Zm20.216-6.468h6.314l.56.112V35.35l-.56.112H130.9l-.56-.112v.784l.56-.112h.7V41.37c-.112.028-.182.028-.378.056-.294.042-.588.084-.882.112l.392,1.022c.056.14.154.224.252.224s.2-.084.266-.28a28.61,28.61,0,0,0,4.06-1.386v2h1.036Zm-1.036,1.71v1.246h-2.674V37.73Zm-2.674-.56V36.022h2.674V37.17Zm2.674,2.366v1.12l-.28.056c-.7.168-1.722.378-2.394.49V39.536Zm1.456,3.584a7.656,7.656,0,0,0,3.108-1.68,7.157,7.157,0,0,0,2.744,1.6,7.057,7.057,0,0,1,.6-1.092,7.768,7.768,0,0,1-2.646-1.246A11.956,11.956,0,0,0,142.56,37h-5.026l-.56-.112v.784l.56-.112h.168a7.722,7.722,0,0,0,1.582,3.262A7.151,7.151,0,0,1,136.6,42.77Zm4.4-5.558a11.183,11.183,0,0,1-1.316,2.548,6.5,6.5,0,0,1-1.652-2.548Zm-9-6.818v3.738h9.31V30.744Zm1.12,3.178V32.858h7.042v1.064Zm0-1.624v-1h7.042v1Zm17.22-.588h-5.1l-.56-.112v.784l.56-.112h11.578l.56.112V31.6l-.56.112h-5.208v-.994c.182-.14.224-.2.224-.28,0-.14-.1-.2-.294-.2h-1.2ZM156.954,37H145.432v6.034h1.162V37.562h9.2V41.79c-.014.434-.154.574-.588.588h-1.19v.588h1.722c.854,0,1.232-.35,1.218-1.162Zm-8.932,1.6V42h1.106v-.644h5V38.6Zm1.106,2.2V39.158h3.906V40.8Zm6.146-4.858v-2.65h-8.162v2.646Zm-7-.56v-1.53h5.838v1.526ZM164.948,41.6h-3.962V37.912c.182-.126.224-.182.224-.28,0-.126-.1-.182-.294-.182h-1.134v5.488h1.2v-.784h9.268v.7h1.2V37.912c.182-.14.224-.182.224-.28,0-.126-.1-.182-.294-.182h-1.134v4.144h-4.1v-5.4H170.8v-4.26c.182-.126.224-.182.224-.28,0-.126-.1-.182-.294-.182H169.6V35.63h-3.444V30.786c.168-.126.224-.182.224-.28,0-.126-.1-.182-.294-.182h-1.134V35.63H161.63v-3.7c.182-.126.224-.182.224-.28,0-.126-.1-.182-.294-.182h-1.134V36.19h4.522Zm13.23-8.092a17.711,17.711,0,0,1-.8,4.522,8.413,8.413,0,0,1-3.78,4.494l.21.448a8.366,8.366,0,0,0,4.55-4.116,15.055,15.055,0,0,0,1.092-5.348h4.788c-.07,2.156-.336,6.02-.476,6.972-.126,1.344-.364,1.666-1.2,1.652H180.7v.658h2.52c1.19.014,1.694-.462,1.82-1.736.154-.98.476-6.146.532-8.134h-6.09c.042-.476.056-.924.056-1.386V30.7c.168-.126.224-.182.224-.28,0-.126-.1-.182-.294-.182H178.25v1.288c0,.336-.014.826-.042,1.386h-3.7l-.546-.112v.812l.546-.112Zm16.69,7.25V42H188.58v-.56q2.032-2.208,2.968-3.336a10.141,10.141,0,0,0,1.344-1.976,4.047,4.047,0,0,0,.408-1.776,2.63,2.63,0,0,0-.52-1.768,1.688,1.688,0,0,0-1.336-.6,1.58,1.58,0,0,0-1.392.7,3.383,3.383,0,0,0-.544,1.728h-.864V32.5a2.992,2.992,0,0,1,1.2-.768,4.564,4.564,0,0,1,1.616-.288,4.241,4.241,0,0,1,1.544.288,2.766,2.766,0,0,1,1.232.936,2.677,2.677,0,0,1,.488,1.656,2.958,2.958,0,0,1-.384,1.448,9.211,9.211,0,0,1-1.272,1.664q-.888.968-3.208,3.32Zm8.864,0V42h-6.288v-.56q2.032-2.208,2.968-3.336a10.141,10.141,0,0,0,1.344-1.976,4.047,4.047,0,0,0,.408-1.776,2.63,2.63,0,0,0-.52-1.768,1.688,1.688,0,0,0-1.336-.6,1.58,1.58,0,0,0-1.392.7,3.383,3.383,0,0,0-.544,1.728h-.864V32.5a2.992,2.992,0,0,1,1.2-.768,4.564,4.564,0,0,1,1.616-.288,4.241,4.241,0,0,1,1.544.288,2.766,2.766,0,0,1,1.232.936,2.677,2.677,0,0,1,.488,1.656,2.958,2.958,0,0,1-.384,1.448,9.211,9.211,0,0,1-1.272,1.664q-.888.968-3.208,3.32Zm5.68-5.488a3.351,3.351,0,0,1,1.56.376,2.964,2.964,0,0,1,1.184,1.128,3.391,3.391,0,0,1,.456,1.792,3.575,3.575,0,0,1-.528,1.984,3.41,3.41,0,0,1-1.336,1.224A3.764,3.764,0,0,1,207.2,41.7a3.4,3.4,0,0,1-1.3-1.312l.512-.32a2.759,2.759,0,0,0,1.056,1.072,2.924,2.924,0,0,0,1.456.368,2.075,2.075,0,0,0,1.128-.328,2.351,2.351,0,0,0,.84-.968,3.363,3.363,0,0,0,.32-1.52,3.213,3.213,0,0,0-.32-1.5,2.155,2.155,0,0,0-.84-.912,2.242,2.242,0,0,0-1.128-.3,1.832,1.832,0,0,0-.96.24,2.99,2.99,0,0,0-.72.608h-.624l.384-5.2h5.1v1.28h-4.592l-.224,3.1a2.823,2.823,0,0,1,.92-.544,3.4,3.4,0,0,1,1.208-.2Zm12.464,6.256V42h-2.16l-2.592-3.632h-.512V41.52h.992V42h-3.216v-.48h1.024V31.552H214.26v-.464l2.352-.144v6.88h.544l2.448-2.576h-1.088v-.48h2.912v.48H220.42l-2.3,2.448,2.8,3.824Zm15.952-9.312h-1.184L233.876,42h-.736l-2.864-8.1L227.668,42h-.736L224,32.208h-1.26v-.576h4v.576h-1.28l2.192,7.632,2.608-8.14h.672l2.928,8.1,2.1-7.584H234.7V31.64h3.136ZM12.544,54.712a11.531,11.531,0,0,1-9.464,7.14l-.658.014.5,1.2c.084.2.182.294.336.294s.238-.07.35-.28A12.929,12.929,0,0,0,9.88,60.238a10.687,10.687,0,0,0,3.108-5.39ZM2.6,52.654a13.582,13.582,0,0,1,3.6,1.708l.742-1.246a9.051,9.051,0,0,0-4.256-.854ZM1.918,56.6A12.582,12.582,0,0,1,5.5,58.156l.714-1.246a7.734,7.734,0,0,0-3.486-.7c-.182,0-.406,0-.728.014Zm20.72,1.736a17.629,17.629,0,0,0,2.884-5.67H17.234l-.616-.126v.9l.616-.126h6.622A16.133,16.133,0,0,1,15.4,62.748l.2.434a14.074,14.074,0,0,0,6.748-4.466,23.9,23.9,0,0,1,4,4.564l1.246-1.008a17.1,17.1,0,0,0-4.774-3.836Zm18.676-1.344.616.126v-.9l-.616.126H30.366l-.616-.126v.9l.616-.126h5a7.877,7.877,0,0,1-.476,3.066,6.5,6.5,0,0,1-4.242,3.248l.112.462a8.089,8.089,0,0,0,4.928-2.6A6.688,6.688,0,0,0,36.724,57Zm-1.82-4.536H32.1l-.616-.126v.9l.616-.13h7.392l.616.126v-.9Zm17.052,10.11a12.865,12.865,0,0,0-4.382-6.02l-.294.252a20.983,20.983,0,0,1,2.184,3.612c-2.674.392-4.424.574-7.042.742l.168-.308a64.9,64.9,0,0,0,3.5-7.98c.266-.112.378-.21.378-.364,0-.126-.1-.224-.294-.28l-1.386-.434-.14.812a73.6,73.6,0,0,1-2.87,8.148l-.2.476h-.084c-.378.028-.728.042-1.9.1l.448,1.218c.112.266.2.364.336.364s.252-.084.378-.336a60.909,60.909,0,0,0,8.974-1.624,21.941,21.941,0,0,1,.9,2.422Zm8.148-6.4a1.519,1.519,0,1,0,1.5,1.512,1.519,1.519,0,0,0-1.5-1.512Zm13.23-3.836c.182-.1.28-.21.28-.336s-.112-.224-.28-.238l-1.4-.1.1.84V63.672h1.3v-7.42a13.907,13.907,0,0,1,5.222,3.612L84.1,58.59a14.941,14.941,0,0,0-6.174-2.856Zm21.532,5.012-11.69-.434v1.47l11.69-.42Zm3.514,6.342a11.642,11.642,0,0,0,6.51-3.122,14.334,14.334,0,0,0,3.724-7.35h-5.726c.126-.252.21-.462.406-.952.238-.126.336-.238.336-.378s-.1-.21-.294-.266l-1.288-.28-.112.672a13.711,13.711,0,0,1-3.85,6.034l.266.322a10.456,10.456,0,0,0,4.228-4.508h4.522a13.172,13.172,0,0,1-1.834,4.34,7.647,7.647,0,0,0-3.64-1.764l-.238.35a10.37,10.37,0,0,1,3.08,2.492,12.446,12.446,0,0,1-6.216,3.948Zm19.782-.238a6.936,6.936,0,0,0,4.158-2.534,9.8,9.8,0,0,0,2.03-4.606l-.434-.14c-.924,2.632-2.674,4.774-4.508,5.516V52.64c.21-.14.28-.238.28-.364a.262.262,0,0,0-.266-.238l-1.386-.1.126.84Zm-6.622.042a7.681,7.681,0,0,0,3.136-3.332,13.044,13.044,0,0,0,.826-5.46v-1.58c.21-.14.28-.238.28-.364a.252.252,0,0,0-.266-.238l-1.428-.1.126.84v1.568c0,4.256-.672,6.174-2.926,8.3Zm20.216-6.468h6.314l.56.112V56.35l-.56.112H130.9l-.56-.112v.784l.56-.112h.7V62.37c-.112.028-.182.028-.378.056-.294.042-.588.084-.882.112l.392,1.022c.056.14.154.224.252.224s.2-.084.266-.28a28.608,28.608,0,0,0,4.06-1.386v2h1.036Zm-1.036,1.71v1.246h-2.674V58.73Zm-2.674-.56V57.022h2.674V58.17Zm2.674,2.366v1.12l-.28.056c-.7.168-1.722.378-2.394.49V60.536Zm1.456,3.584a7.656,7.656,0,0,0,3.108-1.68,7.157,7.157,0,0,0,2.744,1.6,7.054,7.054,0,0,1,.6-1.092,7.768,7.768,0,0,1-2.646-1.246A11.956,11.956,0,0,0,142.56,58h-5.026l-.56-.112v.784l.56-.112h.168a7.722,7.722,0,0,0,1.582,3.262A7.151,7.151,0,0,1,136.6,63.77Zm4.4-5.558a11.183,11.183,0,0,1-1.316,2.548,6.5,6.5,0,0,1-1.652-2.548Zm-9-6.818v3.738h9.31V51.744Zm1.12,3.178V53.858h7.042v1.064Zm0-1.624v-1h7.042v1Zm23.506,2.408.588.112v-.854l-.588.112h-5.278l.014-.042c.1-.98.168-2.03.168-2.814v-.434c.182-.126.224-.182.224-.28,0-.126-.1-.182-.294-.182h-1.2v.924c.014.406-.1,2-.182,2.786l-.014.042h-4.606l-.588-.112v.854l.588-.112h4.536a9.866,9.866,0,0,1-5.39,7.952l.224.378a9.277,9.277,0,0,0,6.384-7.8,11.733,11.733,0,0,0,5.516,7.728,8.242,8.242,0,0,1,.756-1.4,11.731,11.731,0,0,1-4.564-3.892,8.713,8.713,0,0,1-1.442-2.968Zm7.658-3.374c.182-.1.28-.21.28-.336s-.112-.224-.28-.238l-1.4-.1.1.84V63.672h1.3v-7.42a13.907,13.907,0,0,1,5.222,3.612l.952-1.274a14.941,14.941,0,0,0-6.174-2.856Zm15.988,11.116a6.936,6.936,0,0,0,4.158-2.534,9.8,9.8,0,0,0,2.03-4.606l-.434-.14c-.924,2.632-2.674,4.774-4.508,5.516V52.64c.21-.14.28-.238.28-.364a.262.262,0,0,0-.266-.238l-1.386-.1.126.84Zm-6.622.042a7.681,7.681,0,0,0,3.136-3.332,13.044,13.044,0,0,0,.826-5.46V53.116c.21-.14.28-.238.28-.364a.252.252,0,0,0-.266-.238l-1.428-.1.126.84v1.568c0,4.256-.672,6.174-2.926,8.3Zm20.23-9.912c.154-.308.28-.616.49-1.162.266-.126.364-.21.364-.364,0-.126-.1-.21-.308-.252l-1.316-.28-.14.8a11.936,11.936,0,0,1-3.766,5.572l.224.336a9.394,9.394,0,0,0,4.116-4h4.382a12.226,12.226,0,0,1-3.416,6.272,13.759,13.759,0,0,1-5.25,2.744l.084.42a12.464,12.464,0,0,0,5.628-2.142,12.114,12.114,0,0,0,4.494-7.938Zm15.824,7.07H208.1V63h-1.26V60.648h-4.48v-.624l4.1-7.392h1.64V59.56h1.76Zm-3.03-1.088V53.5h-.208l-3.264,6.064Zm8.032-7.136a3.127,3.127,0,0,1,1.9.6,3.829,3.829,0,0,1,1.264,1.736,7.313,7.313,0,0,1,.448,2.688,7.993,7.993,0,0,1-.528,3.016,4.782,4.782,0,0,1-1.416,2.008,3.04,3.04,0,0,1-1.928.7,3.164,3.164,0,0,1-1.688-.488,3.466,3.466,0,0,1-1.24-1.3l.512-.336a3.1,3.1,0,0,0,1.024,1.1,2.369,2.369,0,0,0,1.3.4,2.014,2.014,0,0,0,1.848-1.248,7.787,7.787,0,0,0,.712-3.328,3.234,3.234,0,0,1-1,.864,2.869,2.869,0,0,1-1.448.352,3.294,3.294,0,0,1-1.56-.384,2.944,2.944,0,0,1-1.168-1.12,3.368,3.368,0,0,1-.44-1.76,3.589,3.589,0,0,1,.464-1.848,3.252,3.252,0,0,1,1.24-1.224,3.444,3.444,0,0,1,1.7-.428Zm.08,6.176a1.853,1.853,0,0,0,1.352-.544,2.858,2.858,0,0,0,.76-1.3,6.078,6.078,0,0,0-.728-2.848,1.892,1.892,0,0,0-1.672-.976,1.5,1.5,0,0,0-1.384.736,3.779,3.779,0,0,0-.44,1.952,3.5,3.5,0,0,0,.6,2.232,1.863,1.863,0,0,0,1.512.748Zm12.64,2.048h-1.76V63h-1.264V60.648h-4.48v-.624l4.1-7.392h1.648V59.56h1.76Zm-3.024-1.088V53.5h-.208l-3.26,6.06ZM229,62.424h1.28V53.208H229v-.576h2.608l4.816,7.776v-7.2h-1.28v-.576h3.248v.576h-1.28V63h-.736l-5.408-8.816v8.24h1.28V63H229Zm22.048.1V63h-3.056v-.48h.816V57.912a2.368,2.368,0,0,0-.3-1.336,1.051,1.051,0,0,0-.928-.44,1.468,1.468,0,0,0-1.144.512,1.876,1.876,0,0,0-.456,1.3V62.52h.912V63h-3.024v-.48h.912V57.912a2.368,2.368,0,0,0-.3-1.336,1.051,1.051,0,0,0-.928-.44,1.485,1.485,0,0,0-1.16.512,1.876,1.876,0,0,0-.456,1.3V62.52h.848V63h-3.1v-.48h1.056V56.248H239.7v-.464l2.192-.128.032.752a2.263,2.263,0,0,1,1.92-.816,2.361,2.361,0,0,1,1.152.28,1.732,1.732,0,0,1,.752.776,2.031,2.031,0,0,1,.832-.784,2.618,2.618,0,0,1,1.216-.272q2.208,0,2.208,2.5V62.52ZM4.942,84.854a8.793,8.793,0,0,0,3.836-1.526c1.806-1.372,2.268-2.674,2.254-6.3v-3.64c.21-.14.28-.238.28-.364a.252.252,0,0,0-.266-.238l-1.442-.1.126.84V77.11c-.014,3.052-.322,4.13-1.582,5.4a8.115,8.115,0,0,1-3.3,1.918ZM2.968,73.738v6.8h1.3v-6.93c.21-.154.28-.252.28-.364a.252.252,0,0,0-.266-.238L2.842,72.9Zm12.978,3.836-.616-.126v.9l.616-.126H21.21a6.073,6.073,0,0,1-1.11,3.622,8.369,8.369,0,0,1-3.738,2.45l.112.406a8.691,8.691,0,0,0,4.508-2.17c.938-.938,1.386-2.2,1.526-4.312H26.89l.616.126v-.9l-.616.126H22.55c.028-.742.042-1.372.042-1.806V74.5c.756-.07,1.456-.182,2.94-.448a2.082,2.082,0,0,0,.406.07.292.292,0,0,0,.294-.266.608.608,0,0,0-.21-.406l-.728-.686-.658.28a48.207,48.207,0,0,1-8.47,1.3l.028.434c1.092.028,1.26.028,1.694.028,1.078,0,1.512-.028,3.36-.168h.042v1.12c0,.406-.014,1.05-.042,1.806Zm19.11-2.436H30.632v4.2h1.33V75.782h7.714a8.879,8.879,0,0,1-1.414,5.348,9.9,9.9,0,0,1-5.4,3.122l.084.434a10.5,10.5,0,0,0,5.964-2.422c1.554-1.512,2.142-3.332,2.3-7.126H36.4V73.43c.21-.14.28-.238.28-.364a.262.262,0,0,0-.266-.238l-1.484-.1.126.84Zm21.49,8.428a12.865,12.865,0,0,0-4.382-6.02l-.294.252a20.981,20.981,0,0,1,2.184,3.612c-2.674.392-4.424.574-7.042.742l.168-.308a64.9,64.9,0,0,0,3.5-7.98c.266-.112.378-.21.378-.364,0-.126-.1-.224-.294-.28l-1.386-.434-.14.812a73.6,73.6,0,0,1-2.87,8.148l-.2.476h-.084c-.378.028-.728.042-1.9.1l.448,1.218c.112.266.2.364.336.364s.252-.084.378-.336a60.91,60.91,0,0,0,8.974-1.624,21.943,21.943,0,0,1,.9,2.422Zm8.148-6.4a1.519,1.519,0,1,0,1.5,1.512,1.519,1.519,0,0,0-1.5-1.512ZM80.64,76.5a36,36,0,0,0,2.982-2.632c.378-.042.532-.14.532-.336a.434.434,0,0,0-.224-.322L82.852,72.5l-.5.756a27.236,27.236,0,0,1-9.184,6.37l.154.42a18.465,18.465,0,0,0,6.02-2.6V84.75h1.3Zm14.392,6.776c-.028.588-.224.77-.812.784H92.764v.64h2.3a1.357,1.357,0,0,0,.91-.266,1.236,1.236,0,0,0,.35-.84V83.37l-.168-7.2H99.25l.56.112v-.868l-.56.112H96.138l-.056-2.268c.182-.14.238-.224.238-.336,0-.14-.126-.238-.35-.238l-1.3-.07.14.938.042,1.974H88.508l-.56-.112v.868l.56-.112h5.5l-.028.042a16.6,16.6,0,0,1-6.3,6.8l.182.336c2.912-1.092,4.774-2.688,7.028-6.048Zm18.76-8.036a13.9,13.9,0,0,1-3.57,4.536,13.168,13.168,0,0,1-6.426,2.842l-.742.014.5,1.246c.084.2.21.308.35.308s.266-.1.364-.322a13.58,13.58,0,0,0,6.874-3.29,11.8,11.8,0,0,0,3.038-5.152Zm-10.864-1.53a13.161,13.161,0,0,1,3.486,3l1.148-1.162a8.64,8.64,0,0,0-4.466-2.2Zm19.446,3.458a1.519,1.519,0,1,0,1.5,1.512,1.519,1.519,0,0,0-1.5-1.512Zm20.986-3.612a2.8,2.8,0,0,0-1.652-1.456l-.224.2a5.627,5.627,0,0,1,.938,1.764ZM130.578,83.79c2.31-1.834,3.808-4.522,4.592-8.288.308-.112.434-.238.434-.42,0-.14-.112-.252-.322-.308l-1.456-.364-.042.812a19,19,0,0,1-3.514,8.3Zm7.042-9.09a26.95,26.95,0,0,1,3.878,8.988l1.456-.812A18.86,18.86,0,0,0,138,74.41Zm2.226-2.2a6.153,6.153,0,0,1,.854,1.918l.938-.448a2.77,2.77,0,0,0-1.54-1.652Zm9.17,12.32a7.426,7.426,0,0,0,4.424-2.464,10.876,10.876,0,0,0,2.1-4.928c.224-.056.308-.14.308-.266,0-.084-.07-.168-.21-.21l-1.316-.42-.028.742a13.488,13.488,0,0,1-1.47,4.032,7.391,7.391,0,0,1-3.948,3.108Zm.308-5a5.243,5.243,0,0,0-2.31-3.108l-.238.182a9.4,9.4,0,0,1,1.442,3.346Zm2.772-.35a5.54,5.54,0,0,0-2.212-3.108l-.252.2a9.465,9.465,0,0,1,1.344,3.346Zm19-1.484.616.126v-.9l-.616.126h-10.95l-.616-.126v.9l.616-.126h5a7.877,7.877,0,0,1-.476,3.066,6.5,6.5,0,0,1-4.242,3.248l.112.462a8.089,8.089,0,0,0,4.928-2.6A6.687,6.687,0,0,0,166.5,77.99Zm-1.82-4.536h-7.392l-.616-.126v.9l.616-.126h7.392l.616.126v-.9Zm8.708,11.4a8.793,8.793,0,0,0,3.836-1.526c1.806-1.372,2.268-2.674,2.254-6.3v-3.64c.21-.14.28-.238.28-.364a.252.252,0,0,0-.266-.238l-1.442-.1.126.84v3.584c-.014,3.052-.322,4.13-1.582,5.4a8.115,8.115,0,0,1-3.3,1.918ZM176.01,73.734v6.8h1.3V73.6c.21-.154.28-.252.28-.364a.252.252,0,0,0-.266-.238l-1.442-.112Zm24.39,4.61-11.69-.434v1.47l11.69-.42Zm8.89-1.218c.224-.1.308-.168.308-.294s-.07-.168-.294-.224l-.938-.238a17.49,17.49,0,0,1-5.922,4.844l.126.378a16.163,16.163,0,0,0,2.2-.9v4.34h1.162V84.42h5.908v.546H213V80.71a11.485,11.485,0,0,0,1.75.728,6.351,6.351,0,0,1,.574-1.218,13.365,13.365,0,0,1-5.992-3.066Zm-4.368,3.486a13.805,13.805,0,0,0,4.06-3.178,12.05,12.05,0,0,0,3.836,3.178Zm1.008,3.248V81.172h5.908V83.86ZM208.2,73.612h-3.92a3.669,3.669,0,0,0-.028-.588h-.476a3.564,3.564,0,0,1-1.33,2.268l.854,1.036a2.966,2.966,0,0,0,.952-2.156h9.436a10.964,10.964,0,0,1-.77,1.582l.28.21a5.35,5.35,0,0,0,2.128-2.352H209.43V72.7c.182-.14.224-.182.224-.266,0-.14-.1-.2-.294-.2H208.2Zm1.652,1.722a16.538,16.538,0,0,1,3.5,2.66l.952-.98a14.466,14.466,0,0,0-4.172-2.03Zm-6.23,2.8a10.382,10.382,0,0,0,3.7-2.282c.308-.056.476-.154.476-.294,0-.07-.1-.168-.224-.224l-1.05-.462a12.25,12.25,0,0,1-3.108,2.912ZM222.74,84.2h-5.32l-.56-.112v.742l.56-.112h11.76l.56.112v-.742l-.56.112h-5.418V83.132h4.41l.546.112V82.5l-.546.112h-4.41v-.966h4.368V78.162h-9.66v3.486h4.27v.966h-4.326l-.546-.112v.742l.546-.112h4.326Zm0-3.066h-3.192v-.98h3.192Zm0-1.5h-3.192V78.68h3.192Zm1.022-.952h3.29v.952h-3.29Zm0,1.47h3.29v.98h-3.29Zm-5.11-7.42V76.12h9.3V72.73Zm1.12.518h7.056v.9h-7.056Zm0,2.352v-.938h7.056V75.6Zm-2.272,1.79h11.6l.56.112v-.742l-.56.112H217.5l-.56-.112V77.5Zm20.624,5.36V84H231.84v-.56q2.032-2.208,2.968-3.336a10.141,10.141,0,0,0,1.344-1.976,4.047,4.047,0,0,0,.408-1.776,2.63,2.63,0,0,0-.52-1.768,1.687,1.687,0,0,0-1.336-.6,1.58,1.58,0,0,0-1.392.7,3.383,3.383,0,0,0-.544,1.728H231.9V74.5a2.992,2.992,0,0,1,1.2-.768,4.564,4.564,0,0,1,1.616-.288,4.241,4.241,0,0,1,1.544.288,2.766,2.766,0,0,1,1.232.936,2.677,2.677,0,0,1,.488,1.656,2.958,2.958,0,0,1-.384,1.448,9.212,9.212,0,0,1-1.272,1.664q-.888.968-3.208,3.32Zm6.56-4.352a2.72,2.72,0,0,1,2.24,2.656,2.749,2.749,0,0,1-.52,1.68,3.324,3.324,0,0,1-1.344,1.072,4.173,4.173,0,0,1-1.72.368,3.46,3.46,0,0,1-1.848-.5,3.654,3.654,0,0,1-1.272-1.3l.512-.32a2.57,2.57,0,0,0,1.088,1.072,3.028,3.028,0,0,0,1.392.352,2.484,2.484,0,0,0,1.112-.256,2.061,2.061,0,0,0,.848-.784,2.379,2.379,0,0,0,.328-1.28,2.271,2.271,0,0,0-.648-1.7,2.212,2.212,0,0,0-1.608-.632h-.4v-.5a2.712,2.712,0,0,0,1.1-.24,2.085,2.085,0,0,0,.9-.76,2.276,2.276,0,0,0,.352-1.3,2.378,2.378,0,0,0-.448-1.464,1.7,1.7,0,0,0-2.664.1,3.51,3.51,0,0,0-.52,1.736H240.7V74.48a3.166,3.166,0,0,1,1.184-.768,4.264,4.264,0,0,1,1.568-.288,3.874,3.874,0,0,1,1.552.3,2.694,2.694,0,0,1,1.128.88,2.231,2.231,0,0,1,.424,1.36,2.622,2.622,0,0,1-1.868,2.436Zm11.168,4.352V84h-6.288v-.56q2.032-2.208,2.968-3.336a10.141,10.141,0,0,0,1.344-1.976,4.047,4.047,0,0,0,.408-1.776,2.63,2.63,0,0,0-.52-1.768,1.687,1.687,0,0,0-1.336-.6,1.58,1.58,0,0,0-1.392.7,3.383,3.383,0,0,0-.544,1.728h-.864V74.5a2.992,2.992,0,0,1,1.2-.768,4.564,4.564,0,0,1,1.616-.288,4.241,4.241,0,0,1,1.544.288,2.766,2.766,0,0,1,1.232.936,2.677,2.677,0,0,1,.488,1.656,2.958,2.958,0,0,1-.384,1.448,9.211,9.211,0,0,1-1.272,1.664q-.888.968-3.208,3.32Zm3.136,1.424a.956.956,0,1,1,.68-.28.926.926,0,0,1-.676.28Zm6.336,0a2.968,2.968,0,0,1-1.92-.672,4.3,4.3,0,0,1-1.288-1.9,8.849,8.849,0,0,1,0-5.608,4.267,4.267,0,0,1,1.3-1.888,3.116,3.116,0,0,1,3.856-.008,4.21,4.21,0,0,1,1.3,1.88,8.776,8.776,0,0,1-.008,5.608,4.378,4.378,0,0,1-1.3,1.9,2.978,2.978,0,0,1-1.936.688Zm.016-.512A1.811,1.811,0,0,0,267,82.416a8.921,8.921,0,0,0,.576-3.616A8.871,8.871,0,0,0,267,75.2a1.733,1.733,0,0,0-3.328,0,8.871,8.871,0,0,0-.576,3.6,8.922,8.922,0,0,0,.576,3.616,1.811,1.811,0,0,0,1.668,1.248Zm14.944-.24V84h-3.712v-.576h1.168l-1.152-3.248h-3.44L272,83.424h1.168V84h-2.992v-.576h1.136l3.536-9.792h.752l3.552,9.792Zm-3.92-3.856L274.9,75.424h-.064l-1.472,4.144ZM288.8,83.52V84h-3.264v-.48h1.04V79.088a2.391,2.391,0,0,0-.368-1.44,1.3,1.3,0,0,0-1.12-.5,1.727,1.727,0,0,0-1.264.488,1.685,1.685,0,0,0-.5,1.256V83.52h1.024V84H281.1v-.48h1.024V73.552h-1.152v-.464l2.352-.144v4.464a1.987,1.987,0,0,1,.848-.6,3.316,3.316,0,0,1,1.232-.216,2.357,2.357,0,0,1,1.768.632,2.568,2.568,0,0,1,.616,1.864V83.52Zm6.48-10.5h.672l-5.2,11.392h-.672Zm6.1,4.384a3.351,3.351,0,0,1,1.56.376,2.888,2.888,0,0,1,1.16,1.12,3.336,3.336,0,0,1,.44,1.744,3.662,3.662,0,0,1-.456,1.832,3.263,3.263,0,0,1-1.24,1.256,3.422,3.422,0,0,1-1.728.448,3.072,3.072,0,0,1-1.9-.616,3.886,3.886,0,0,1-1.256-1.752,7.332,7.332,0,0,1-.44-2.656,7.783,7.783,0,0,1,.544-3.016,4.832,4.832,0,0,1,1.448-2.008,3.125,3.125,0,0,1,1.96-.7,2.953,2.953,0,0,1,1.5.4,3.6,3.6,0,0,1,1.192,1.136l-.48.4a3.38,3.38,0,0,0-.968-.96,2.15,2.15,0,0,0-1.176-.352,2.046,2.046,0,0,0-1.864,1.256,7.775,7.775,0,0,0-.744,3.32,3.234,3.234,0,0,1,1-.864,2.869,2.869,0,0,1,1.444-.36Zm.016,6.256a1.45,1.45,0,0,0,1.336-.744,3.788,3.788,0,0,0,.44-1.944,3.472,3.472,0,0,0-.608-2.232,1.919,1.919,0,0,0-2.856-.2,2.737,2.737,0,0,0-.744,1.3,5.764,5.764,0,0,0,.768,2.84,1.945,1.945,0,0,0,1.66.984Zm8.848-6.256a3.351,3.351,0,0,1,1.56.376,2.888,2.888,0,0,1,1.168,1.112,3.336,3.336,0,0,1,.44,1.744,3.662,3.662,0,0,1-.456,1.832,3.263,3.263,0,0,1-1.24,1.256,3.422,3.422,0,0,1-1.728.448,3.072,3.072,0,0,1-1.9-.616,3.886,3.886,0,0,1-1.256-1.752,7.332,7.332,0,0,1-.44-2.656,7.784,7.784,0,0,1,.544-3.016,4.832,4.832,0,0,1,1.448-2.008,3.125,3.125,0,0,1,1.96-.7,2.953,2.953,0,0,1,1.5.4,3.6,3.6,0,0,1,1.192,1.136l-.48.4a3.38,3.38,0,0,0-.968-.96,2.15,2.15,0,0,0-1.176-.352,2.046,2.046,0,0,0-1.864,1.256,7.775,7.775,0,0,0-.744,3.32,3.234,3.234,0,0,1,1-.864,2.869,2.869,0,0,1,1.436-.352Zm.016,6.256a1.45,1.45,0,0,0,1.336-.744,3.788,3.788,0,0,0,.44-1.944,3.472,3.472,0,0,0-.608-2.232,1.919,1.919,0,0,0-2.856-.2,2.737,2.737,0,0,0-.744,1.3,5.764,5.764,0,0,0,.768,2.84,1.945,1.945,0,0,0,1.66.984Zm5.952.512a.956.956,0,1,1,.68-.28.926.926,0,0,1-.684.284Zm10.144-2.528H324.6V84h-1.264V81.648h-4.48v-.624l4.1-7.392H324.6V80.56h1.76Zm-3.024-1.088V74.5h-.208l-3.264,6.064Zm8.128-3.3a3.351,3.351,0,0,1,1.56.376A2.964,2.964,0,0,1,334.2,78.76a3.39,3.39,0,0,1,.456,1.792,3.575,3.575,0,0,1-.528,1.984A3.41,3.41,0,0,1,332.8,83.76a3.764,3.764,0,0,1-3.544-.072,3.4,3.4,0,0,1-1.3-1.312l.512-.32a2.759,2.759,0,0,0,1.056,1.072,2.925,2.925,0,0,0,1.456.368,2.075,2.075,0,0,0,1.128-.328,2.351,2.351,0,0,0,.84-.968,3.363,3.363,0,0,0,.32-1.52,3.212,3.212,0,0,0-.32-1.5,2.155,2.155,0,0,0-.84-.912,2.242,2.242,0,0,0-1.128-.3,1.832,1.832,0,0,0-.96.24,2.989,2.989,0,0,0-.72.608h-.624l.384-5.2h5.088V74.9h-4.592l-.224,3.1a2.822,2.822,0,0,1,.92-.544,3.4,3.4,0,0,1,1.208-.188Zm12.46,6.264V84h-2.16l-2.592-3.632h-.512V83.52h.992V84h-3.216v-.48h1.024V73.552H336.3v-.464l2.352-.144v6.88h.544l2.448-2.576H340.56v-.48h2.912v.48h-1.008l-2.3,2.448,2.8,3.824Zm15.952-9.312h-1.184L355.92,84h-.736l-2.864-8.1L349.712,84h-.736l-2.928-9.792h-1.264v-.576h4v.576H347.5l2.2,7.632,2.6-8.14h.672l2.928,8.1,2.1-7.584h-1.264V73.64h3.136ZM368.8,83.52V84h-3.264v-.48h1.04V79.088a2.391,2.391,0,0,0-.368-1.44,1.3,1.3,0,0,0-1.12-.5,1.727,1.727,0,0,0-1.264.488,1.685,1.685,0,0,0-.5,1.256V83.52h1.024V84H361.1v-.48h1.024V73.552h-1.152v-.464l2.352-.144v4.464a1.987,1.987,0,0,1,.848-.6,3.316,3.316,0,0,1,1.232-.216,2.357,2.357,0,0,1,1.768.632,2.568,2.568,0,0,1,.616,1.864V83.52Z" transform="translate(395.76 3364)"/>
  </g>
</svg>
