<svg xmlns="http://www.w3.org/2000/svg" width="824.688" height="32.256" viewBox="0 0 824.688 32.256">
  <path id="tit01" d="M6.24-2.3H10.8V-28.8H6.48l-2.4,6.432H.96V-31.1H26.448v8.736h-3.12L20.88-28.8H16.608V-2.3h4.56V0H6.24ZM56.208-28.8V-2.3h3.744V0h-13.3V-2.3H50.4V-15.216H38.016V-2.3H41.76V0h-13.3V-2.3h3.744V-28.8H28.464v-2.3H41.808v2.3H38.016v11.184H50.4V-28.8H46.656v-2.3h13.3v2.3ZM86.928-8.736V0H62.16V-2.3H65.9V-28.8H62.16v-2.3H86.544v8.736h-3.36L80.736-28.8H71.712v11.184H76.7V-21.36h2.88v9.888H76.7v-3.744H71.712V-2.3h9.456l2.4-6.432ZM101.568-2.3h3.744V-28.8h-3.744v-2.3h8.592L123.84-9.7V-28.8h-3.7v-2.3h10.08v2.3H126.48V0h-3.552L107.952-23.664V-2.3h3.6V0h-9.984ZM156.72-8.736V0H131.952V-2.3H135.7V-28.8h-3.744v-2.3h24.384v8.736h-3.36L150.528-28.8H141.5v11.184H146.5V-21.36h2.88v9.888H146.5v-3.744H141.5V-2.3h9.456l2.4-6.432ZM204.24-28.8H200.5L192.048,0h-3.264l-7.44-21.984L174.672,0H171.36l-8.832-28.8h-3.792v-2.3h13.44v2.3h-3.792l6.1,20.4,6.72-22.512h3.072L191.856-8.3l5.952-20.5h-3.744v-2.3H204.24ZM248.256-2.3V0h-13.3V-2.3H238.7l-2.928-8.688H226.7L223.68-2.3h3.552V0H217.2V-2.3h3.648L231.12-31.1h3.408L244.8-2.3Zm-13.3-11.088L231.408-23.9h-.24L227.52-13.392ZM249.744-2.3h3.744V-28.8h-3.744v-2.3h13.3v2.3H259.3V-2.3h9.456l2.4-6.432h3.36V0H249.744Zm26.832,0h3.744V-28.8h-3.744v-2.3h13.3v2.3h-3.744V-2.3h9.456l2.4-6.432h3.36V0H276.576Zm27.6-11.568H315.12v2.784H304.176Zm38.688,5.136V0H318.1V-2.3h3.744V-28.8H318.1v-2.3H342.48v8.736h-3.36L336.672-28.8h-9.024v11.184h4.992V-21.36h2.88v9.888h-2.88v-3.744h-4.992V-2.3H337.1l2.4-6.432ZM345.5-2.3h3.744V-28.8H345.5v-2.3h13.3v2.3h-3.744V-2.3h9.456l2.4-6.432h3.36V0H345.5Zm51.6-6.432V0H372.336V-2.3h3.744V-28.8h-3.744v-2.3H396.72v8.736h-3.36L390.912-28.8h-9.024v11.184h4.992V-21.36h2.88v9.888h-2.88v-3.744h-4.992V-2.3h9.456l2.4-6.432ZM414.048.576A13.545,13.545,0,0,1,405.96-1.68a12.961,12.961,0,0,1-4.56-5.736,19.486,19.486,0,0,1-1.416-7.416,22.65,22.65,0,0,1,1.488-8.256A13.915,13.915,0,0,1,406.1-29.3a12.805,12.805,0,0,1,7.944-2.376,15.742,15.742,0,0,1,5.424.816,25.57,25.57,0,0,1,4.224,2.016v6.48h-4.08A9.2,9.2,0,0,0,417.6-27.84a5.379,5.379,0,0,0-4.08-1.728,6.126,6.126,0,0,0-5.712,3.36,17.3,17.3,0,0,0-1.872,8.5,26.407,26.407,0,0,0,1.176,8.328,12.422,12.422,0,0,0,3.24,5.4,6.75,6.75,0,0,0,4.656,1.872,7.188,7.188,0,0,0,4.7-1.656A8.343,8.343,0,0,0,422.4-8.784h2.5a10.844,10.844,0,0,1-3.672,6.912A10.872,10.872,0,0,1,414.048.576ZM432.576-2.3h4.56V-28.8h-4.32l-2.4,6.432H427.3V-31.1h25.488v8.736h-3.12L447.216-28.8h-4.272V-2.3h4.56V0H432.576Zm51.792,0V0h-8.592L467.04-14.112h-2.688V-2.3H468.1V0H454.8V-2.3h3.744V-28.8H454.8v-2.3h14.448q4.944,0,7.488,2.4a7.906,7.906,0,0,1,2.544,6,8.055,8.055,0,0,1-1.632,4.992,8.8,8.8,0,0,1-4.512,3.072L481.056-2.3ZM464.352-16.416h4.368a3.755,3.755,0,0,0,3.12-1.848,7.536,7.536,0,0,0,1.3-4.44,7.248,7.248,0,0,0-1.248-4.392,3.781,3.781,0,0,0-3.168-1.7h-4.368ZM496.176-28.8V-2.3h4.656V0h-15.12V-2.3h4.656V-28.8h-4.656v-2.3h15.12v2.3ZM517.344.576a13.545,13.545,0,0,1-8.088-2.256,12.961,12.961,0,0,1-4.56-5.736,19.486,19.486,0,0,1-1.416-7.416,22.65,22.65,0,0,1,1.488-8.256A13.915,13.915,0,0,1,509.4-29.3a12.8,12.8,0,0,1,7.944-2.376,15.742,15.742,0,0,1,5.424.816,25.571,25.571,0,0,1,4.224,2.016v6.48h-4.08A9.2,9.2,0,0,0,520.9-27.84a5.379,5.379,0,0,0-4.08-1.728,6.126,6.126,0,0,0-5.712,3.36,17.3,17.3,0,0,0-1.872,8.5,26.406,26.406,0,0,0,1.176,8.328,12.422,12.422,0,0,0,3.24,5.4A6.75,6.75,0,0,0,518.3-2.112a7.188,7.188,0,0,0,4.7-1.656A8.343,8.343,0,0,0,525.7-8.784h2.5a10.844,10.844,0,0,1-3.672,6.912A10.872,10.872,0,0,1,517.344.576ZM542.736-2.3h3.744V-28.8h-3.744v-2.3H552L562.032-9.168l9.36-21.936h9.264v2.3h-3.744V-2.3h3.744V0H567.5V-2.3h3.6V-23.76L561.936-2.3H558.96l-9.84-21.408V-2.3h3.552V0h-9.936Zm50.592-26.5V-2.3h4.656V0h-15.12V-2.3h4.656V-28.8h-4.656v-2.3h15.12v2.3Zm6.864,26.5h3.744V-28.8h-3.744v-2.3h8.592L622.464-9.7V-28.8h-3.7v-2.3h10.08v2.3H625.1V0h-3.552L606.576-23.664V-2.3h3.6V0h-9.984ZM641.04-28.8V-2.3H645.7V0h-15.12V-2.3h4.656V-28.8h-4.656v-2.3H645.7v2.3Zm43.248-2.3v8.736h-3.36L678.48-28.8h-9.024v11.184h4.992V-21.36h2.88v9.888h-2.88v-3.744h-4.992V-2.3H673.2V0H659.9V-2.3h3.744V-28.8H659.9v-2.3Zm27.84,28.8V0h-13.3V-2.3h3.744l-2.928-8.688h-9.072L687.552-2.3H691.1V0H681.072V-2.3h3.648l10.272-28.8H698.4L708.672-2.3Zm-13.3-11.088L695.28-23.9h-.24l-3.648,10.512ZM713.616-2.3h3.744V-28.8h-3.744v-2.3h9.264L732.912-9.168l9.36-21.936h9.264v2.3h-3.744V-2.3h3.744V0H738.384V-2.3h3.6V-23.76L732.816-2.3H729.84L720-23.712V-2.3h3.552V0h-9.936Zm50.592-26.5V-2.3h4.656V0h-15.12V-2.3H758.4V-28.8h-4.656v-2.3h15.12v2.3Zm6.864,26.5h3.744V-28.8h-3.744v-2.3h13.3v2.3h-3.744V-2.3h9.456l2.4-6.432h3.36V0H771.072Zm38.88-12.048V-2.3h4.128V0H800.016V-2.3h4.128V-13.2l-7.728-15.6h-3.744v-2.3h13.344v2.3H802.56l5.808,11.9,6.192-11.9h-3.84v-2.3h10.368v2.3h-3.744Zm9.264,11.664a3.1,3.1,0,0,1,.936-2.28,3.1,3.1,0,0,1,2.28-.936,3.1,3.1,0,0,1,2.28.936,3.1,3.1,0,0,1,.936,2.28,3.1,3.1,0,0,1-.936,2.28,3.1,3.1,0,0,1-2.28.936,3.1,3.1,0,0,1-2.28-.936A3.1,3.1,0,0,1,819.216-2.688Z" transform="translate(-0.96 31.68)"/>
</svg>
