<svg xmlns="http://www.w3.org/2000/svg" width="571.168" height="87.892" viewBox="0 0 571.168 87.892">
  <path id="tit01-sp" d="M6.76-2.5H11.7V-31.2H7.02l-2.6,6.968H1.04V-33.7H28.652v9.464h-3.38L22.62-31.2H17.992V-2.5h4.94V0H6.76ZM60.892-31.2V-2.5h4.056V0h-14.4V-2.5H54.6V-16.484H41.184V-2.5H45.24V0h-14.4V-2.5h4.056V-31.2H30.836v-2.5H45.292v2.5H41.184v12.116H54.6V-31.2H50.544v-2.5h14.4v2.5ZM94.172-9.464V0H67.34V-2.5H71.4V-31.2H67.34v-2.5H93.756v9.464h-3.64L87.464-31.2H77.688v12.116H83.1V-23.14h3.12v10.712H83.1v-4.056H77.688V-2.5H87.932l2.6-6.968ZM110.032-2.5h4.056V-31.2h-4.056v-2.5h9.308L134.16-10.5V-31.2h-4v-2.5h10.92v2.5H137.02V0h-3.848L116.948-25.636V-2.5h3.9V0H110.032ZM169.78-9.464V0H142.948V-2.5H147V-31.2h-4.056v-2.5h26.416v9.464h-3.64L163.072-31.2H153.3v12.116H158.7V-23.14h3.12v10.712H158.7v-4.056H153.3V-2.5H163.54l2.6-6.968ZM221.26-31.2H217.2L208.052,0h-3.536l-8.06-23.816L189.228,0H185.64l-9.568-31.2h-4.108v-2.5h14.56v2.5h-4.108l6.6,22.1,7.28-24.388h3.328L207.844-9l6.448-22.2h-4.056v-2.5H221.26ZM268.944-2.5V0h-14.4V-2.5H258.6l-3.172-9.412H245.6L242.32-2.5h3.848V0H235.3V-2.5h3.952L250.38-33.7h3.692L265.2-2.5Zm-14.4-12.012L250.692-25.9h-.26L246.48-14.508ZM270.556-2.5h4.056V-31.2h-4.056v-2.5h14.4v2.5H280.9V-2.5h10.244l2.6-6.968h3.64V0H270.556Zm29.068,0h4.056V-31.2h-4.056v-2.5h14.4v2.5h-4.056V-2.5h10.244l2.6-6.968h3.64V0H299.624Zm29.9-12.532H341.38v3.016H329.524Zm41.912,5.564V0H344.6V-2.5h4.056V-31.2H344.6v-2.5H371.02v9.464h-3.64L364.728-31.2h-9.776v12.116h5.408V-23.14h3.12v10.712h-3.12v-4.056h-5.408V-2.5H365.2l2.6-6.968ZM374.3-2.5h4.056V-31.2H374.3v-2.5h14.4v2.5h-4.056V-2.5h10.244l2.6-6.968h3.64V0H374.3Zm55.9-6.968V0H403.364V-2.5h4.056V-31.2h-4.056v-2.5H429.78v9.464h-3.64L423.488-31.2h-9.776v12.116h5.408V-23.14h3.12v10.712h-3.12v-4.056h-5.408V-2.5h10.244l2.6-6.968ZM448.552.624A14.673,14.673,0,0,1,439.79-1.82a14.042,14.042,0,0,1-4.94-6.214,21.11,21.11,0,0,1-1.534-8.034,24.538,24.538,0,0,1,1.612-8.944,15.075,15.075,0,0,1,5.018-6.734,13.872,13.872,0,0,1,8.606-2.574,17.053,17.053,0,0,1,5.876.884A27.7,27.7,0,0,1,459-31.252v7.02h-4.42q-.416-4.056-2.184-5.928a5.828,5.828,0,0,0-4.42-1.872,6.636,6.636,0,0,0-6.188,3.64,18.742,18.742,0,0,0-2.028,9.2,28.608,28.608,0,0,0,1.274,9.022,13.457,13.457,0,0,0,3.51,5.85,7.313,7.313,0,0,0,5.044,2.028,7.787,7.787,0,0,0,5.1-1.794A9.039,9.039,0,0,0,457.6-9.516h2.7a11.747,11.747,0,0,1-3.978,7.488A11.778,11.778,0,0,1,448.552.624ZM468.624-2.5h4.94V-31.2h-4.68l-2.6,6.968H462.9V-33.7h27.612v9.464h-3.38L484.484-31.2h-4.628V-2.5h4.94V0H468.624Zm56.108,0V0h-9.308L505.96-15.288h-2.912V-2.5H507.1V0H492.7V-2.5h4.056V-31.2H492.7v-2.5h15.652q5.356,0,8.112,2.6a8.565,8.565,0,0,1,2.756,6.5,8.726,8.726,0,0,1-1.768,5.408,9.534,9.534,0,0,1-4.888,3.328L521.144-2.5ZM503.048-17.784h4.732a4.068,4.068,0,0,0,3.38-2,8.163,8.163,0,0,0,1.4-4.81,7.852,7.852,0,0,0-1.352-4.758A4.1,4.1,0,0,0,507.78-31.2h-4.732ZM537.524-31.2V-2.5h5.044V0h-16.38V-2.5h5.044V-31.2h-5.044v-2.5h16.38v2.5ZM560.456.624a14.674,14.674,0,0,1-8.762-2.444,14.041,14.041,0,0,1-4.94-6.214,21.111,21.111,0,0,1-1.534-8.034,24.538,24.538,0,0,1,1.612-8.944,15.074,15.074,0,0,1,5.018-6.734,13.872,13.872,0,0,1,8.606-2.574,17.053,17.053,0,0,1,5.876.884,27.7,27.7,0,0,1,4.576,2.184v7.02h-4.42q-.416-4.056-2.184-5.928a5.827,5.827,0,0,0-4.42-1.872,6.636,6.636,0,0,0-6.188,3.64,18.742,18.742,0,0,0-2.028,9.2,28.609,28.609,0,0,0,1.274,9.022,13.457,13.457,0,0,0,3.51,5.85A7.313,7.313,0,0,0,561.5-2.288a7.787,7.787,0,0,0,5.1-1.794A9.039,9.039,0,0,0,569.5-9.516h2.7a11.747,11.747,0,0,1-3.978,7.488A11.778,11.778,0,0,1,560.456.624ZM1.2,50.5H5.252V21.8H1.2V19.3H11.232L22.1,43.068,32.24,19.3H42.276v2.5H38.22V50.5h4.056V53H28.028V50.5h3.9V27.26L22,50.5H18.772L8.112,27.312V50.5H11.96V53H1.2ZM56,21.8V50.5h5.044V53H44.668V50.5h5.044V21.8H44.668V19.3h16.38v2.5ZM63.44,50.5H67.5V21.8H63.44V19.3h9.308L87.568,42.5V21.8h-4V19.3h10.92v2.5H90.428V53H86.58L70.356,27.364V50.5h3.9V53H63.44Zm44.252-28.7V50.5h5.044V53H96.356V50.5H101.4V21.8H96.356V19.3h16.38v2.5Zm46.852-2.5v9.464H150.9L148.252,21.8h-9.776V33.916h5.408V29.86H147V40.572h-3.12V36.516h-5.408V50.5h4.056V53h-14.4V50.5h4.056V21.8h-4.056V19.3ZM184.7,50.5V53H170.3V50.5h4.056l-3.172-9.412h-9.828L158.08,50.5h3.848V53H151.06V50.5h3.952L166.14,19.3h3.692L180.96,50.5ZM170.3,38.492,166.452,27.1h-.26L162.24,38.492ZM186.316,50.5h4.056V21.8h-4.056V19.3h10.036L207.22,43.068,217.36,19.3H227.4v2.5H223.34V50.5H227.4V53H213.148V50.5h3.9V27.26L207.116,50.5h-3.224l-10.66-23.192V50.5h3.848V53H186.316Zm54.808-28.7V50.5h5.044V53h-16.38V50.5h5.044V21.8h-5.044V19.3h16.38v2.5Zm7.436,28.7h4.056V21.8H248.56V19.3h14.4v2.5h-4.056V50.5h10.244l2.6-6.968h3.64V53H248.56Zm42.12-13.052V50.5h4.472V53H279.916V50.5h4.472V38.7l-8.372-16.9H271.96V19.3h14.456v2.5h-3.744l6.292,12.9,6.708-12.9h-4.16V19.3h11.232v2.5h-4.056Zm10.036,12.636a3.462,3.462,0,1,1,1.014,2.47A3.361,3.361,0,0,1,300.716,50.088Z" transform="translate(-1.04 34.32)"/>
</svg>
