<svg xmlns="http://www.w3.org/2000/svg" width="518.086" height="131.788" viewBox="0 0 518.086 131.788">
  <g id="title-1" transform="translate(0 -1145.408)">
    <g id="期間" transform="translate(19 1246.196)">
      <g id="日程" transform="translate(-511.906 3.146)">
        <g id="グループ_676" data-name="グループ 676" transform="translate(-8.032)">
          <g id="曜日" transform="translate(-43 5.723)">
            <path id="パス_30921" data-name="パス 30921" d="M3.15-3.906V-.378c0,.462-.2.658-.644.658H.518V.868h2.59C4,.868,4.4.5,4.382-.322v-10.92H-4.06V-9.59c0,4.312-.084,5.6-.406,6.958A7.012,7.012,0,0,1-6.44.784l.266.336a6.1,6.1,0,0,0,3.15-5.026Zm0-.56H-2.968c.084-1.008.1-1.47.112-2.408v-.5H3.15Zm0-3.472H-2.842l.014-1.652v-1.092H3.15Z" transform="translate(829.406 15.131)" fill="#ed510d"/>
            <g id="楕円形_19" data-name="楕円形 19" transform="translate(817.406 -1.869)" fill="none" stroke="#ed510d" stroke-width="1">
              <circle cx="12" cy="12" r="12" stroke="none"/>
              <circle cx="12" cy="12" r="11.5" fill="none"/>
            </g>
          </g>
          <g id="曜日-2" data-name="曜日" transform="translate(-22 5.723)">
            <g id="楕円形_19-2" data-name="楕円形 19" transform="translate(817.406 -1.869)" fill="#fff" stroke="#ed510d" stroke-width="1">
              <circle cx="12" cy="12" r="12" stroke="none"/>
              <circle cx="12" cy="12" r="11.5" fill="none"/>
            </g>
            <path id="パス_30920" data-name="パス 30920" d="M-3.318-6.118c.028-.056.112-.168.448-.686A16.829,16.829,0,0,0-1.442-9.492H-3.3v-1.722c.182-.126.224-.182.224-.28,0-.126-.1-.182-.294-.182h-1.05v2.184h-1.33l-.56-.112v.784l.56-.112h2.842A23.411,23.411,0,0,1-6.44-3.416l.252.308A14.108,14.108,0,0,0-4.424-4.732V1.036h1.106v-6.3c.014.014.2.322.56.9A12.646,12.646,0,0,1-2.1-3.178l.9-.9a10.364,10.364,0,0,0-1.862-1.47,2.3,2.3,0,0,1-.252-.168Zm7.14.532H5.586v-5.4H-.98v5.4H.392l-.014.21a8.08,8.08,0,0,1-.714,3.99A4.77,4.77,0,0,1-2.506.6l.14.378A5.307,5.307,0,0,0,.462-.812c.742-.994.994-2,1.05-4.368l.014-.406h1.19V-.224c.042.546.448.84,1.134.84H5.124c.8,0,1.12-.308,1.19-1.12L6.44-2.17l-.574-.07L5.754-.9c-.028.35-.14.462-.49.462H4.228c-.322-.014-.392-.084-.406-.378Zm-3.7-.56V-10.43H4.438v4.284Z" transform="translate(829.406 15.131)" fill="#ed510d"/>
          </g>
        </g>
        <path id="パス_30919" data-name="パス 30919" d="M11.328-11.072a6.121,6.121,0,0,1,3.024,1.92,5.25,5.25,0,0,1,1.168,3.52A5.348,5.348,0,0,1,14.5-2.32,6.09,6.09,0,0,1,11.824-.3,9.3,9.3,0,0,1,8.352.352,8.951,8.951,0,0,1,4.88-.32,6.173,6.173,0,0,1,2.256-2.336a5.337,5.337,0,0,1-1.008-3.3,5.25,5.25,0,0,1,1.168-3.52,6.121,6.121,0,0,1,3.024-1.92,5.364,5.364,0,0,1-2.4-1.7,4.735,4.735,0,0,1-1.056-3.168,4.566,4.566,0,0,1,.9-2.864,5.514,5.514,0,0,1,2.352-1.76,8.289,8.289,0,0,1,3.152-.592,8.4,8.4,0,0,1,3.12.576,5.458,5.458,0,0,1,2.368,1.76,4.579,4.579,0,0,1,.912,2.88,4.735,4.735,0,0,1-1.056,3.168A5.364,5.364,0,0,1,11.328-11.072ZM8.384-20.1a3.513,3.513,0,0,0-2.7,1.168,4.434,4.434,0,0,0-1.072,3.12,4.434,4.434,0,0,0,1.072,3.12,3.513,3.513,0,0,0,2.7,1.168,3.5,3.5,0,0,0,2.72-1.168,4.476,4.476,0,0,0,1.056-3.12,4.434,4.434,0,0,0-1.072-3.12A3.513,3.513,0,0,0,8.384-20.1Zm0,19.424a4.069,4.069,0,0,0,3.1-1.3A5.1,5.1,0,0,0,12.7-5.6a5.29,5.29,0,0,0-1.12-3.552,3.976,3.976,0,0,0-3.2-1.312,3.976,3.976,0,0,0-3.2,1.312A5.29,5.29,0,0,0,4.064-5.6,5.1,5.1,0,0,0,5.28-1.968,4.069,4.069,0,0,0,8.384-.672ZM21.088.352a1.852,1.852,0,0,1-1.36-.56,1.852,1.852,0,0,1-.56-1.36,1.852,1.852,0,0,1,.56-1.36,1.852,1.852,0,0,1,1.36-.56,1.852,1.852,0,0,1,1.36.56,1.852,1.852,0,0,1,.56,1.36,1.852,1.852,0,0,1-.56,1.36A1.852,1.852,0,0,1,21.088.352Zm16.192-1.5V0H28.32V-1.152h3.3V-18.208L28.448-16.16l-.672-1.024,5.28-3.552h1.088V-1.152Zm17.728,0V0h-8.96V-1.152h3.3V-18.208L46.176-16.16,45.5-17.184l5.28-3.552h1.088V-1.152Z" transform="translate(707.366 24.854)" fill="#ed510d"/>
        <path id="パス_30918" data-name="パス 30918" d="M-5.572-4.06A2.842,2.842,0,0,1-3.108-5.768a4.413,4.413,0,0,1,1.778.532L1.33-4.06A4.251,4.251,0,0,0,2.982-3.7c1.2,0,2.324-.938,3.066-2.576l-.476-.28C4.83-5.418,4.13-4.914,3.29-4.914a3.174,3.174,0,0,1-1.3-.35l-3.08-1.33a4.322,4.322,0,0,0-1.652-.35,3.014,3.014,0,0,0-2.394,1.19,6.883,6.883,0,0,0-.91,1.414Z" transform="translate(698.566 20.854)" fill="#ed510d"/>
        <g id="曜日-3" data-name="曜日" transform="translate(-9.888 5.723)">
          <path id="パス_30917" data-name="パス 30917" d="M.616-11.214C.8-11.354.84-11.4.84-11.48c0-.14-.1-.2-.294-.2H-.56V-.14c-.014.462-.168.616-.63.63H-2.422v.63H-.658C.238,1.12.63.756.616-.084V-7.77a12.909,12.909,0,0,0,4.97,7.6,6.224,6.224,0,0,1,.84-1.344,12.251,12.251,0,0,1-4.382-4.27A15.824,15.824,0,0,0,5.32-8.162c.406-.014.574-.1.574-.294a.308.308,0,0,0-.14-.224L4.578-9.45A16.3,16.3,0,0,1,1.834-6.118,15.992,15.992,0,0,1,.616-8.806ZM-5.712-8.456l-.546-.112v.812l.546-.112H-2.8A12.9,12.9,0,0,1-6.44-.294l.266.336c2.758-1.876,4.2-4.48,4.7-8.5Z" transform="translate(686.406 15.131)" fill="#ed510d"/>
          <g id="楕円形_18" data-name="楕円形 18" transform="translate(674.406 -1.869)" fill="none" stroke="#ed510d" stroke-width="1">
            <circle cx="12" cy="12" r="12" stroke="none"/>
            <circle cx="12" cy="12" r="11.5" fill="none"/>
          </g>
        </g>
        <path id="パス_30916" data-name="パス 30916" d="M15.456-20.736v1.12L6.528,0h-1.5l8.448-18.272H4.512l-1.12,3.1H2.272v-5.568ZM18.592.352a1.852,1.852,0,0,1-1.36-.56,1.852,1.852,0,0,1-.56-1.36,1.852,1.852,0,0,1,.56-1.36,1.852,1.852,0,0,1,1.36-.56,1.852,1.852,0,0,1,1.36.56,1.852,1.852,0,0,1,.56,1.36,1.852,1.852,0,0,1-.56,1.36A1.852,1.852,0,0,1,18.592.352ZM33.12-11.2Q37.6-9.76,37.6-5.888a5.5,5.5,0,0,1-1.04,3.36A6.648,6.648,0,0,1,33.872-.384a8.346,8.346,0,0,1-3.44.736,6.921,6.921,0,0,1-3.7-.992,7.307,7.307,0,0,1-2.544-2.592l1.024-.64a5.14,5.14,0,0,0,2.176,2.144,6.055,6.055,0,0,0,2.784.7A4.968,4.968,0,0,0,32.4-1.536,4.122,4.122,0,0,0,34.1-3.1a4.758,4.758,0,0,0,.656-2.56,4.542,4.542,0,0,0-1.3-3.408,4.425,4.425,0,0,0-3.216-1.264h-.8v-.992a5.423,5.423,0,0,0,2.208-.48,4.171,4.171,0,0,0,1.792-1.52,4.551,4.551,0,0,0,.7-2.608,4.755,4.755,0,0,0-.9-2.928,3.037,3.037,0,0,0-2.592-1.2,3.053,3.053,0,0,0-2.736,1.392A7.02,7.02,0,0,0,26.88-15.2H25.152v-3.84a6.332,6.332,0,0,1,2.368-1.536,8.529,8.529,0,0,1,3.136-.576,7.748,7.748,0,0,1,3.1.608,5.388,5.388,0,0,1,2.256,1.76,4.462,4.462,0,0,1,.848,2.72Q36.864-12.832,33.12-11.2ZM48.992.352a5.936,5.936,0,0,1-3.84-1.344,8.589,8.589,0,0,1-2.576-3.792,16.025,16.025,0,0,1-.912-5.616,15.891,15.891,0,0,1,.912-5.6,8.533,8.533,0,0,1,2.592-3.776,6,6,0,0,1,3.856-1.344,6.045,6.045,0,0,1,3.856,1.328,8.419,8.419,0,0,1,2.592,3.76,15.891,15.891,0,0,1,.912,5.6,15.775,15.775,0,0,1-.928,5.616,8.756,8.756,0,0,1-2.608,3.808A5.956,5.956,0,0,1,48.992.352Zm.032-1.024q2.176,0,3.328-2.5A17.843,17.843,0,0,0,53.5-10.4a17.742,17.742,0,0,0-1.152-7.2q-1.152-2.5-3.328-2.5T45.7-17.6a17.742,17.742,0,0,0-1.152,7.2A17.843,17.843,0,0,0,45.7-3.168Q46.848-.672,49.024-.672Z" transform="translate(603.134 24.854)" fill="#ed510d"/>
      </g>
      <path id="パス_30915" data-name="パス 30915" d="M4.66.18c3.66-.82,5.68-1.74,7.78-3.56,2.78-2.48,4.48-6.16,5.02-10.88H3.72l-.88-.18v1.28l.88-.18H15.28C14.24-6.76,10.7-2.56,4.44-.5ZM29.04-.8H24.2l-.88-.18V.3L24.2.12H35.8l.88.18V-.98L35.8-.8H30.86V-8.76h3.56l.88.18V-9.86l-.88.18H25.58l-.88-.18v1.28l.88-.18h3.46Zm21.68-9.78c.28-.22.38-.36.38-.52a.374.374,0,0,0-.38-.32l-2.02-.16.16,1.16v1.1c-.06,3.4-.62,5.18-2.12,6.64A12.887,12.887,0,0,1,42.4.02l.18.54a12.067,12.067,0,0,0,5.2-2.3,7.072,7.072,0,0,0,2.74-4.92,10.523,10.523,0,0,0,8.08-8.18H42.92l-.88-.18v1.28l.88-.18H56.28a10.287,10.287,0,0,1-5.66,6.5c.06-.68.1-1.32.1-1.98ZM76.94-5.34v5.1c0,.62-.26.88-.86.88H74.44v.84h2.32c1.22,0,1.74-.48,1.72-1.62V-16.02H72.04v3.36c0,5.9-.22,9.08-.72,10.46A7.441,7.441,0,0,1,69,1.18l.36.42C71.9.26,73.08-1.84,73.32-5.34Zm0-.8H73.38V-6.2l.08-1.46c0-.12,0-.64.02-1.38,0-.16,0-.82.02-1.36h3.44Zm0-5.06H73.52l.02-1.46v-2.56h3.4Zm-12.5-2.78v-2.04c.26-.18.32-.26.32-.4,0-.18-.14-.26-.42-.26h-1.4v2.7h-.86l-.8-.16v1.12l.8-.16h.86V-4.6H61.7l-.8-.16v1.12l.8-.16h8.7l.8.16V-4.76l-.8.16h-.86v-8.58h.88l.8.16v-1.12l-.8.16h-.88v-2.04c.26-.18.32-.26.32-.38,0-.2-.14-.28-.42-.28h-1.4v2.7Zm0,.8h3.6V-11h-3.6Zm0,8.58V-7.14h3.6V-4.6Zm3.6-5.6v2.26h-3.6V-10.2ZM61.08.88a12.559,12.559,0,0,0,3.48-2.72c.42,0,.68-.12.68-.32a.376.376,0,0,0-.2-.3l-1.34-.9A18.49,18.49,0,0,1,60.8.44Zm5.88-3.56A22.182,22.182,0,0,1,69.12.14l1.22-1.22a12.861,12.861,0,0,0-2.98-2.06Zm27.1,1.9V-7.86h-8.4V.4H87.2V-.78Zm-6.86-4V-7.06h5.32v2.28Zm0,.8h5.32v2.4H87.2Zm1.66-12.1H81.64V1.48h1.58V-9.62h5.64Zm-5.64.8h4.14v1.98H83.22Zm4.14,2.78v2.08H83.22V-12.5Zm3.52-3.58v6.46h5.9V-.38c0,.64-.28.92-.92.92H94.18v.84h2.76c1,0,1.42-.42,1.42-1.44V-16.08Zm1.5,3.58h4.4v2.08h-4.4Zm0-.8v-1.98h4.4v1.98Zm17.64,8.96A1.362,1.362,0,0,0,108.64-3a1.345,1.345,0,0,0,1.34,1.36A1.349,1.349,0,0,0,111.34-3,1.349,1.349,0,0,0,110.02-4.34Zm0-9.2a1.362,1.362,0,0,0-1.38,1.34A1.361,1.361,0,0,0,110-10.84a1.345,1.345,0,0,0,1.34-1.36A1.349,1.349,0,0,0,110.02-13.54Z" transform="translate(-21.84 26)" fill="#ed510d"/>
    </g>
    <path id="パス_30914" data-name="パス 30914" d="M10-14.727a27.089,27.089,0,0,0,1.25,5.605A12.409,12.409,0,0,0,13.223-5.43,6.7,6.7,0,0,0,15.84-3.418a8.253,8.253,0,0,0,3.184.605,9.184,9.184,0,0,0,3.5-.645,7.77,7.77,0,0,0,2.7-1.8,7.926,7.926,0,0,0,1.719-2.773,10.143,10.143,0,0,0,.605-3.574,7.876,7.876,0,0,0-.859-3.711,8.08,8.08,0,0,0-1.953-2.539,16.618,16.618,0,0,0-1.5-1.113q-1.113-.762-2.6-1.719t-3.164-2.051q-1.68-1.094-3.223-2.09t-2.793-1.8q-1.25-.8-1.836-1.23a19.168,19.168,0,0,1-2.461-2.031A14.617,14.617,0,0,1,5-32.52a14.167,14.167,0,0,1-1.523-3.262,12.534,12.534,0,0,1-.586-3.906A11.9,11.9,0,0,1,4-44.824a11.6,11.6,0,0,1,3.223-4.082A15.583,15.583,0,0,1,12.4-51.6a22.953,22.953,0,0,1,6.973-.977,25.7,25.7,0,0,1,9.082,1.5,16.939,16.939,0,0,1,6.426,4.043v9.844H27.93a28.289,28.289,0,0,0-1.094-5.8,11.015,11.015,0,0,0-1.855-3.633A5.942,5.942,0,0,0,22.4-48.5a9.333,9.333,0,0,0-3.184-.527,7.6,7.6,0,0,0-3.457.7,6.219,6.219,0,0,0-2.246,1.875,7.53,7.53,0,0,0-1.23,2.656,12.356,12.356,0,0,0-.371,3.008,7.071,7.071,0,0,0,.762,3.2,6.77,6.77,0,0,0,2.207,2.539q.508.312,1.582,1.035t2.48,1.66q1.406.938,2.969,1.973t3.027,1.992q1.465.957,2.676,1.738t1.914,1.211a15.939,15.939,0,0,1,5.488,5.313,13.3,13.3,0,0,1,1.855,6.992A12.423,12.423,0,0,1,35.625-7.6a13.161,13.161,0,0,1-3.574,4.453A17.246,17.246,0,0,1,26.426-.176,23.85,23.85,0,0,1,19.023.9,28.408,28.408,0,0,1,13.516.41,23.416,23.416,0,0,1,9.082-.9,17.1,17.1,0,0,1,5.645-2.773a16.993,16.993,0,0,1-2.52-2.187v-9.766Zm72.969.391a15.646,15.646,0,0,1-1.211,6.25,13.234,13.234,0,0,1-3.5,4.8A16.131,16.131,0,0,1,72.715-.2,23.228,23.228,0,0,1,65.313.9,24.754,24.754,0,0,1,57.5-.254a15.936,15.936,0,0,1-5.918-3.418A14.746,14.746,0,0,1,47.852-9.3a21.5,21.5,0,0,1-1.289-7.734V-48.086H40.352v-3.75h22.07v3.75h-6.25v32.969q0,5.508,2.461,8.594t7.383,3.086A16.091,16.091,0,0,0,70.117-4a11.712,11.712,0,0,0,3.926-1.855,10.413,10.413,0,0,0,2.949-3.359,10.085,10.085,0,0,0,1.172-5.039V-48.086H71.523v-3.75H89.3v3.75H82.969Zm64.063-33.75v44.18h6.25V0H131.758V-3.906h5.664V-38.164L123.047,0h-4.961L102.813-38.32V-3.906h5.9V0H92.07V-3.906h6.25v-44.18H92.07v-3.75H107.5l15.547,39.1,14.883-39.1h15.2v3.75Zm64.648,0v44.18h6.25V0H196.406V-3.906h5.664V-38.164L187.7,0h-4.961L167.461-38.32V-3.906h5.9V0H156.719V-3.906h6.25v-44.18h-6.25v-3.75h15.43l15.547,39.1,14.883-39.1h15.2v3.75Zm16.484,0h-6.8v-3.75h41.211v14.57h-5.625l-4.062-10.82H237.773v18.4h8.4v-5.43h4.8v15.2h-4.8V-25.43h-8.4V-3.906h15.82l4.023-10.664H263.2V0H221.367V-3.906h6.8Zm59.375,24.492h-4.8V-3.906h6.094V0H267.07V-3.906h6.094v-44.1H267.07v-3.828h23.75a22.91,22.91,0,0,1,7.578,1.113,14.99,14.99,0,0,1,5.215,2.988,11.577,11.577,0,0,1,3.027,4.375,14.364,14.364,0,0,1,.977,5.273,14.8,14.8,0,0,1-.684,4.551,13.234,13.234,0,0,1-1.973,3.867A12.6,12.6,0,0,1,301.8-26.68a15.559,15.559,0,0,1-4.258,1.953L310.9-3.906h6.094V0H302.344Zm-4.8-4.1H290.2a5.29,5.29,0,0,0,2.734-.762,7.54,7.54,0,0,0,2.266-2.109,10.736,10.736,0,0,0,1.543-3.223,14.278,14.278,0,0,0,.566-4.141,14.687,14.687,0,0,0-.527-4.062,10.7,10.7,0,0,0-1.465-3.184,6.845,6.845,0,0,0-2.246-2.09,5.719,5.719,0,0,0-2.871-.742h-7.461Zm70,23.789h6.8V0h-23.2V-3.906h6.8v-44.18h-6.8v-3.75h41.211v14.57h-5.625l-4.062-10.82H352.734v18.4h8.4v-5.43h4.8v15.2h-4.8V-25.43h-8.4Zm75.508,0V0H406.719V-3.906h5.625l-5.391-14.727H392.422L387.3-3.906h5.9V0H376.094V-3.906h6.484l17.109-47.93H405.2l17.3,47.93ZM405.781-22.812l-6.016-17.031-5.9,17.031Zm40.156-25.273v44.18h7.773V0H428.594V-3.906h7.773v-44.18h-7.773v-3.75h25.117v3.75Zm31.289,24.492h-4.8V-3.906h6.094V0H456.758V-3.906h6.094v-44.1h-6.094v-3.828h23.75a22.91,22.91,0,0,1,7.578,1.113,14.99,14.99,0,0,1,5.215,2.988,11.577,11.577,0,0,1,3.027,4.375,14.364,14.364,0,0,1,.977,5.273,14.8,14.8,0,0,1-.684,4.551,13.234,13.234,0,0,1-1.973,3.867,12.6,12.6,0,0,1-3.164,2.988,15.559,15.559,0,0,1-4.258,1.953l13.359,20.82h6.094V0H492.031Zm-4.8-4.1h7.461a5.29,5.29,0,0,0,2.734-.762,7.54,7.54,0,0,0,2.266-2.109,10.736,10.736,0,0,0,1.543-3.223,14.278,14.278,0,0,0,.566-4.141,14.687,14.687,0,0,0-.527-4.062A10.7,10.7,0,0,0,485-45.176a6.845,6.845,0,0,0-2.246-2.09,5.719,5.719,0,0,0-2.871-.742h-7.461ZM507.461-4.336a5.152,5.152,0,0,1,1.465-3.809,5.254,5.254,0,0,1,3.887-1.465,5.122,5.122,0,0,1,3.848,1.465,5.23,5.23,0,0,1,1.426,3.809,6.163,6.163,0,0,1-.371,2.168A5.23,5.23,0,0,1,516.66-.43,4.7,4.7,0,0,1,515,.723a5.6,5.6,0,0,1-2.187.41,5.6,5.6,0,0,1-2.187-.41,4.9,4.9,0,0,1-1.68-1.152,5.325,5.325,0,0,1-1.094-1.738A5.887,5.887,0,0,1,507.461-4.336Z" transform="translate(0 1235.911)" fill="#ed510d"/>
    <path id="パス_30913" data-name="パス 30913" d="M.792-.864h1.92V-14.688H.792v-.864H4.9l5.28,12.024,5.088-12.024h4.008v.864h-1.92V-.864h1.92V0h-5.88V-.864h1.92v-12.12L10.176-.888h-1.1L3.744-13.08V-.864H5.592V0H.792Zm26.808,0V0H20.856V-.864h2.352V-14.688H20.952v-.864H27.5v.864H25.248V-.864Zm1.584,0H31.1V-14.688h-1.92v-.864H33.1L40.32-3.888v-10.8H38.4v-.864h4.872v.864h-1.92V0h-1.1L32.136-13.224V-.864h1.92V0H29.184Zm22.176,0V0H44.616V-.864h2.352V-14.688H44.712v-.864h6.552v.864H49.008V-.864ZM64.152-19.488l-.72.744c-1.44.12-2.472.168-5.16.216l-1.512-.5.144,1.584c.84.024,1.464.048,1.872.048,1.2,0,2.76-.072,4.7-.24-.984,3.048-1.488,4.44-2.424,6.936a11.073,11.073,0,0,0-2.928.48,5.755,5.755,0,0,0-4.392,5.472c0,2.04,1.224,3.6,2.832,3.6,1.1,0,2.136-.7,3.072-2.088a35.13,35.13,0,0,0,3-6.216,23.077,23.077,0,0,1,7.1,1.488C68.856-3.576,67.272-1.2,63.936.744l.312.6a9.877,9.877,0,0,0,5.208-3.288,11.846,11.846,0,0,0,2.232-5.232c1.176.552,1.656.792,2.808,1.44l.7-1.632A23.794,23.794,0,0,0,72-8.784c.168-1.008.24-1.488.36-2.616.312-.192.432-.36.432-.552s-.192-.36-.552-.432l-1.968-.456.024,1.032c-.12,1.224-.144,1.344-.288,2.4A33.458,33.458,0,0,0,63.1-10.656c1.08-2.832,1.392-3.7,2.424-6.7.48-.288.672-.528.672-.792a.625.625,0,0,0-.36-.5ZM60.288-8.736c-2.04,4.776-2.9,6.144-3.912,6.144-.672,0-1.224-.84-1.224-1.9a4.838,4.838,0,0,1,2.592-4.08,7.05,7.05,0,0,1,2.832-.816ZM83.328-16.7c-2.04,0-2.88-.048-4.176-.12l-1.3-.552.12,1.632c1.728.12,2.568.144,4.056.144h.936A53.031,53.031,0,0,1,77.52-3.816L79.344-2.64a63.759,63.759,0,0,0,5.784-13.032c1.824-.072,3.816-.24,5.808-.5l.072-1.7-1.488.744c-1.7.192-2.688.288-4.008.36a2.855,2.855,0,0,1,.1-.336c.072-.216.288-.864.5-1.56.36-.24.432-.36.432-.528a.388.388,0,0,0-.336-.384L84.1-19.992,83.9-18.768c-.12.48-.216.84-.264,1.008l-.288.984ZM98.64-2.472a14.655,14.655,0,0,0-5.856-3.192v-4.488c.384-.264.48-.36.48-.528,0-.24-.216-.384-.576-.384l-1.9-.024.072,1.776v3.264a12.936,12.936,0,0,0-2.112-.168c-3.12,0-4.992,1.344-4.992,3.6,0,2.28,2.232,3.936,5.3,3.936,1.656,0,2.856-.5,3.384-1.44a3.639,3.639,0,0,0,.336-1.8V-3.912a15.857,15.857,0,0,1,4.44,3.24Zm-7.776.456c0,1.152-.672,1.7-2.088,1.7-2.208,0-3.84-1.032-3.84-2.448a1.645,1.645,0,0,1,.432-1.1,4.133,4.133,0,0,1,3-.888,8.816,8.816,0,0,1,2.5.336Zm8.064-11.856a11.9,11.9,0,0,0-4.7-.768A12.041,12.041,0,0,0,90-14.016l.048.672a17.9,17.9,0,0,1,7.536,1.44Zm11.808-4.776c.288-.24.384-.408.384-.6a.448.448,0,0,0-.456-.408h-2.376l.408,1.44,1.512,7.3a21.657,21.657,0,0,0-2.976,1.776c-2.352,1.68-3.36,3.192-3.36,5.016a4.285,4.285,0,0,0,2.88,4.08,17.724,17.724,0,0,0,6.7.888,45.714,45.714,0,0,0,6.816-.408V-1.9a36.173,36.173,0,0,1-7.032.648c-5.424,0-7.728-.888-7.728-3.024,0-2.856,4.344-5.448,13.848-8.3a1.33,1.33,0,0,0,.648.216.436.436,0,0,0,.408-.384.83.83,0,0,0-.072-.288l-.84-1.944-.84.624c-1.872.72-3.672,1.392-5.376,2.064-.48.192-.816.312-1.176.48Zm25.416-.84-.72.744c-1.44.12-2.472.168-5.16.216l-1.512-.5.144,1.584c.84.024,1.464.048,1.872.048,1.2,0,2.76-.072,4.7-.24-.984,3.048-1.488,4.44-2.424,6.936a11.073,11.073,0,0,0-2.928.48,5.755,5.755,0,0,0-4.392,5.472c0,2.04,1.224,3.6,2.832,3.6,1.1,0,2.136-.7,3.072-2.088a35.13,35.13,0,0,0,3-6.216,23.077,23.077,0,0,1,7.1,1.488c-.888,4.392-2.472,6.768-5.808,8.712l.312.6a9.877,9.877,0,0,0,5.208-3.288,11.845,11.845,0,0,0,2.232-5.232c1.176.552,1.656.792,2.808,1.44l.7-1.632A23.794,23.794,0,0,0,144-8.784c.168-1.008.24-1.488.36-2.616.312-.192.432-.36.432-.552s-.192-.36-.552-.432l-1.968-.456.024,1.032c-.12,1.224-.144,1.344-.288,2.4a33.458,33.458,0,0,0-6.912-1.248c1.08-2.832,1.392-3.7,2.424-6.7.48-.288.672-.528.672-.792a.625.625,0,0,0-.36-.5ZM132.288-8.736c-2.04,4.776-2.9,6.144-3.912,6.144-.672,0-1.224-.84-1.224-1.9a4.838,4.838,0,0,1,2.592-4.08,7.05,7.05,0,0,1,2.832-.816Zm21.84,3.768a9.876,9.876,0,0,1,2.256-2.616,9.654,9.654,0,0,1,6.1-2.208c2.712,0,4.392,1.392,4.392,3.624S165.24-2.136,162.216-.96A27.152,27.152,0,0,1,156.264.456l.1.816c4.248-.288,6.024-.552,7.872-1.248,3.24-1.224,5.04-3.36,5.04-6.024a4.638,4.638,0,0,0-1.416-3.408,7.117,7.117,0,0,0-5.016-1.632,10.715,10.715,0,0,0-8.16,3.48l.552-7.248c.336-.24.456-.384.456-.6s-.168-.384-.456-.408L153-16.056l.168,1.248-.648,9.84Zm1.464-13.776a19.831,19.831,0,0,1,7.8,2.568l1.728-2.016a11.306,11.306,0,0,0-2.28-.792,23.477,23.477,0,0,0-5.136-.624c-.528,0-1.008.024-2.04.072ZM182.544-5.28c-.552,2.184-1.3,3.648-1.872,3.648-.552,0-1.416-1.128-2.088-2.664-.888-2.112-1.344-5.5-1.344-10.272V-16.1c.408-.288.528-.432.528-.672s-.24-.408-.6-.432l-2.16-.144.12,1.44c.024,3.1.048,4.752.048,4.968a22.594,22.594,0,0,0,1.44,7.56c1.032,2.5,2.328,3.816,3.7,3.816,1.344,0,2.52-1.92,3.288-5.376Zm12.384.192c-.792-4.656-3.168-8.976-6.144-11.208l-.6.456a29.232,29.232,0,0,1,4.44,11.784Z" transform="translate(0 1165.989)" fill="#ed510d" stroke="rgba(0,0,0,0)" stroke-width="1"/>
  </g>
</svg>
