<svg xmlns="http://www.w3.org/2000/svg" width="347.069" height="17.62" viewBox="0 0 347.069 17.62">
  <g id="line-sp" transform="translate(-263.466 -2507.88)">
    <path id="パス_30920" data-name="パス 30920" d="M0,0H255.629" transform="translate(354.906 2525)" fill="none" stroke="#707070" stroke-width="1"/>
    <path id="パス_30919" data-name="パス 30919" d="M-21.834-11.736l.72.144V-12.6l-.72.144H-30.69c.2-.5.306-.846.522-1.53.342-.126.486-.252.486-.432,0-.162-.126-.27-.4-.342l-1.512-.36a25.89,25.89,0,0,1-.756,2.664H-36.5l-.7-.144v1.008l.7-.144H-32.6c-.414,1.026-.432,1.1-1.08,2.448l-.018.054-.792-.144V-7.74A23.632,23.632,0,0,1-37.44-3.618l.306.432a15.764,15.764,0,0,0,2.646-2.5v7.02h1.44v-9a23.14,23.14,0,0,0,2.07-4.068Zm-3.8,5.436V-9.936c.234-.162.288-.234.288-.36,0-.162-.126-.234-.378-.234h-1.422V-6.3h-3.42l-.72-.144v1.008l.72-.144h3.42V-.144H-31.5l-.7-.144V.72l.7-.144h9.9l.72.144V-.288l-.72.144h-4.032V-5.58h3.276l.72.144V-6.444l-.72.144Zm17.28-7.146v-1.08c.234-.162.288-.234.288-.36,0-.162-.126-.234-.378-.234H-9.99v1.674H-16.6v3.276c0,6.768-.234,8.622-1.4,11.2l.414.234a9.226,9.226,0,0,0,2.052-4.05,36.3,36.3,0,0,0,.45-7.38v-2.556h12.69l.72.144V-13.59l-.72.144ZM-9.036-1.152V1.26h1.314V-1.152H-2.34l.72.144V-2.016l-.72.144H-7.722V-3.258h4.608V-8.64H-7.722V-9.99h5.13l.72.144v-1.008l-.72.144h-5.13v-.828c.234-.162.288-.234.288-.36,0-.162-.126-.234-.378-.234H-9.036v1.422h-4.518l-.7-.144v1.008l.7-.144h4.518v1.35h-4.41v5.382h4.41v1.386h-5.148l-.72-.144v1.008l.72-.144Zm0-2.826H-12.1V-5.634h3.06Zm0-2.376H-12.1V-7.92h3.06ZM-7.722-7.92H-4.5v1.566H-7.722Zm0,2.286H-4.5v1.656H-7.722ZM11.61-9.18H7.4l-.7-.144v1.008l.7-.144H17.28l.72.144V-9.324l-.72.144H13.032v-1.494h3.042l.72.144v-1.008l-.72.144H13.032v-1.422H16.65l.7.144V-13.68l-.7.144H13.032v-.882c.234-.162.288-.234.288-.36,0-.162-.126-.234-.378-.234H11.61v1.476H8.136l-.72-.144v1.008l.72-.144H11.61v1.422H8.856l-.72-.144v1.008l.72-.144H11.61ZM12.618.486v.756h2.718c.9,0,1.278-.378,1.278-1.3V-7.236H8.154V1.332h1.4V-2.052h5.634v1.71c0,.576-.252.828-.846.828ZM9.558-2.772V-4.32h5.634v1.548Zm0-2.268V-6.516h5.634V-5.04ZM2.43-6.354a7.781,7.781,0,0,0,.648-3.726c0-.612-.018-1.134-.09-2.394H2.376a14.065,14.065,0,0,1-.936,4.7Zm1.6-8.658V1.332H5.454v-15.75c.216-.162.288-.234.288-.36,0-.162-.126-.234-.378-.234Zm1.656,2.826A10.076,10.076,0,0,1,6.822-9.54L7.9-10.548a4.773,4.773,0,0,0-1.89-1.89Zm25.164,4.1v-5.544h4.212c-.162,3.366-.216,3.51-1.368,3.528h-1.44v.756h1.98c1.134.018,1.674-.252,1.908-.9a21.373,21.373,0,0,0,.342-4.1h-7.02V1.332h1.386V.9l.27.324a11.815,11.815,0,0,0,2.754-2.466,12.3,12.3,0,0,0,2.754,2.43,9.3,9.3,0,0,1,.81-1.44A13.564,13.564,0,0,1,34.632-2.34a14.492,14.492,0,0,0,1.854-5.742Zm.594.72a11.353,11.353,0,0,0,1.728,5.184A12.747,12.747,0,0,1,30.852.7V-7.362Zm3.492,0a14.512,14.512,0,0,1-1.17,4.068,9.059,9.059,0,0,1-1.782-4.068Zm-6.75-1.962.72.144v-1.008l-.72.144H25.56V-12.33h1.926l.72.144v-1.008l-.72.144H25.56v-1.476c.234-.162.288-.234.288-.36,0-.162-.126-.234-.378-.234H24.21v2.07H22.3l-.7-.144v1.008l.7-.144H24.21v2.286H21.6l-.72-.144V-9.18l.72-.144h.576a23.568,23.568,0,0,1,.612,3.132H21.726l-.72-.144v1.008l.72-.144H24.21V-3.06H22.14L21.42-3.2V-2.2l.72-.144h2.07V1.35h1.35V-2.34h2.088l.72.144V-3.2l-.72.144H25.56V-5.472h2.5l.72.144V-6.336l-.72.144H26.226a13.828,13.828,0,0,0,1.6-3.132Zm-1.89,0a29.006,29.006,0,0,1-.72,3.132H23.13l1.026-.828a9.864,9.864,0,0,0-1.422-2.3Z" transform="translate(300.906 2523)" fill="#0a111f"/>
  </g>
</svg>
