<svg xmlns="http://www.w3.org/2000/svg" width="122.064" height="10.752" viewBox="0 0 122.064 10.752">
  <g id="number" transform="translate(-442 -1.424)">
    <path id="パス_30924" data-name="パス 30924" d="M4.176.176A2.968,2.968,0,0,1,2.256-.5a4.3,4.3,0,0,1-1.288-1.9A8.013,8.013,0,0,1,.512-5.2,7.946,7.946,0,0,1,.968-8a4.267,4.267,0,0,1,1.3-1.888,3,3,0,0,1,1.928-.672A3.023,3.023,0,0,1,6.12-9.9a4.21,4.21,0,0,1,1.3,1.88,7.946,7.946,0,0,1,.456,2.8,7.888,7.888,0,0,1-.464,2.808A4.378,4.378,0,0,1,6.1-.5,2.978,2.978,0,0,1,4.176.176Zm.016-.512A1.811,1.811,0,0,0,5.856-1.584,8.922,8.922,0,0,0,6.432-5.2a8.871,8.871,0,0,0-.576-3.6,1.811,1.811,0,0,0-1.664-1.248A1.811,1.811,0,0,0,2.528-8.8a8.871,8.871,0,0,0-.576,3.6,8.922,8.922,0,0,0,.576,3.616A1.811,1.811,0,0,0,4.192-.336ZM12.96-6.592a3.351,3.351,0,0,1,1.56.376A2.888,2.888,0,0,1,15.688-5.1a3.336,3.336,0,0,1,.44,1.744,3.662,3.662,0,0,1-.456,1.832,3.263,3.263,0,0,1-1.24,1.256A3.422,3.422,0,0,1,12.7.176,3.072,3.072,0,0,1,10.8-.44,3.886,3.886,0,0,1,9.544-2.192,7.333,7.333,0,0,1,9.1-4.848a7.784,7.784,0,0,1,.544-3.016A4.832,4.832,0,0,1,11.1-9.872a3.125,3.125,0,0,1,1.96-.7,2.953,2.953,0,0,1,1.5.4A3.6,3.6,0,0,1,15.744-9.04l-.48.4A3.38,3.38,0,0,0,14.3-9.6a2.15,2.15,0,0,0-1.176-.352A2.046,2.046,0,0,0,11.256-8.7a7.775,7.775,0,0,0-.744,3.32,3.234,3.234,0,0,1,1-.864A2.869,2.869,0,0,1,12.96-6.592Zm.016,6.256a1.45,1.45,0,0,0,1.336-.744,3.788,3.788,0,0,0,.44-1.944,3.472,3.472,0,0,0-.608-2.232A1.87,1.87,0,0,0,12.64-6a1.853,1.853,0,0,0-1.352.544,2.738,2.738,0,0,0-.744,1.3,5.764,5.764,0,0,0,.768,2.84A1.945,1.945,0,0,0,12.976-.336Z" transform="translate(547.936 12)" fill="#111"/>
    <path id="線_3" data-name="線 3" d="M76,.5H0v-1H76Z" transform="translate(464.448 7)" fill="#111"/>
    <path id="パス_30925" data-name="パス 30925" d="M4.176.176A2.968,2.968,0,0,1,2.256-.5a4.3,4.3,0,0,1-1.288-1.9A8.013,8.013,0,0,1,.512-5.2,7.946,7.946,0,0,1,.968-8a4.267,4.267,0,0,1,1.3-1.888,3,3,0,0,1,1.928-.672A3.023,3.023,0,0,1,6.12-9.9a4.21,4.21,0,0,1,1.3,1.88,7.946,7.946,0,0,1,.456,2.8,7.888,7.888,0,0,1-.464,2.808A4.378,4.378,0,0,1,6.1-.5,2.978,2.978,0,0,1,4.176.176Zm.016-.512A1.811,1.811,0,0,0,5.856-1.584,8.922,8.922,0,0,0,6.432-5.2a8.871,8.871,0,0,0-.576-3.6,1.811,1.811,0,0,0-1.664-1.248A1.811,1.811,0,0,0,2.528-8.8a8.871,8.871,0,0,0-.576,3.6,8.922,8.922,0,0,0,.576,3.616A1.811,1.811,0,0,0,4.192-.336ZM14.96-.576V0H10.48V-.576h1.648V-9.1L10.544-8.08l-.336-.512,2.64-1.776h.544V-.576Z" transform="translate(441.488 12)" fill="#111"/>
  </g>
</svg>
