<svg xmlns="http://www.w3.org/2000/svg" width="396.999" height="100.001" viewBox="0 0 396.999 100.001">
  <g id="drive-txt" transform="translate(-286.5 -1130.003)">
    <path id="パス_57286" data-name="パス 57286" d="M-156.132-14.542a4.3,4.3,0,0,1,2.618.825,5.265,5.265,0,0,1,1.738,2.387,10.055,10.055,0,0,1,.616,3.7,10.99,10.99,0,0,1-.726,4.147,6.575,6.575,0,0,1-1.947,2.761,4.18,4.18,0,0,1-2.651.968A4.35,4.35,0,0,1-158.8-.429a4.765,4.765,0,0,1-1.705-1.793l.7-.462A4.264,4.264,0,0,0-158.4-1.166a3.257,3.257,0,0,0,1.782.55,2.77,2.77,0,0,0,2.541-1.716,10.707,10.707,0,0,0,.979-4.576,4.446,4.446,0,0,1-1.375,1.188,3.945,3.945,0,0,1-1.991.484,4.53,4.53,0,0,1-2.145-.528,4.048,4.048,0,0,1-1.606-1.54,4.631,4.631,0,0,1-.6-2.42,4.935,4.935,0,0,1,.638-2.541,4.472,4.472,0,0,1,1.7-1.683A4.736,4.736,0,0,1-156.132-14.542Zm.11,8.492a2.547,2.547,0,0,0,1.859-.748,3.93,3.93,0,0,0,1.045-1.782,8.357,8.357,0,0,0-1-3.916,2.6,2.6,0,0,0-2.3-1.342,2.056,2.056,0,0,0-1.9,1.012,5.2,5.2,0,0,0-.6,2.684,4.82,4.82,0,0,0,.825,3.069A2.562,2.562,0,0,0-156.022-6.05Zm14.41-1.562a4.208,4.208,0,0,1,2.079,1.32,3.61,3.61,0,0,1,.8,2.42,3.677,3.677,0,0,1-.7,2.277,4.187,4.187,0,0,1-1.837,1.386,6.4,6.4,0,0,1-2.387.451,6.154,6.154,0,0,1-2.387-.462,4.244,4.244,0,0,1-1.8-1.386,3.669,3.669,0,0,1-.693-2.266,3.61,3.61,0,0,1,.8-2.42,4.208,4.208,0,0,1,2.079-1.32,3.688,3.688,0,0,1-1.65-1.166,3.255,3.255,0,0,1-.726-2.178,3.139,3.139,0,0,1,.616-1.969,3.791,3.791,0,0,1,1.617-1.21,5.7,5.7,0,0,1,2.167-.407,5.778,5.778,0,0,1,2.145.4,3.752,3.752,0,0,1,1.628,1.21,3.148,3.148,0,0,1,.627,1.98,3.255,3.255,0,0,1-.726,2.178A3.688,3.688,0,0,1-141.612-7.612Zm-2.024-6.2a2.415,2.415,0,0,0-1.859.8,3.048,3.048,0,0,0-.737,2.145,3.048,3.048,0,0,0,.737,2.145,2.415,2.415,0,0,0,1.859.8,2.406,2.406,0,0,0,1.87-.8,3.077,3.077,0,0,0,.726-2.145,3.048,3.048,0,0,0-.737-2.145A2.415,2.415,0,0,0-143.636-13.816Zm0,13.354a2.8,2.8,0,0,0,2.134-.891,3.508,3.508,0,0,0,.836-2.5,3.637,3.637,0,0,0-.77-2.442,2.734,2.734,0,0,0-2.2-.9,2.734,2.734,0,0,0-2.2.9,3.637,3.637,0,0,0-.77,2.442,3.508,3.508,0,0,0,.836,2.5A2.8,2.8,0,0,0-143.636-.462Zm20-4.758V-.18c0,.594-.252.846-.846.846h-1.764v.756h2.556c1.08,0,1.548-.432,1.53-1.44v-5.2h1.368l.72.144V-6.084l-.72.144h-1.368V-8.5h1.746l.7.144V-9.36l-.7.144h-4.194v-2.736h3.078l.72.144v-1.008l-.72.144h-3.078V-14.31c.234-.18.288-.234.288-.36,0-.162-.126-.234-.378-.234h-1.386v2.232h-2.772l-.72-.144v1.008l.72-.144h2.772v2.736h-3.384l-.72-.144v1.008l.72-.144h5.832V-5.94h-5.544l-.7-.144v1.008l.7-.144Zm-11.808-8.8V.054h1.332V-1.908h3.438V-14.022Zm1.332,11.394V-7.74h2.106v5.112Zm0-5.832V-13.3h2.106V-8.46Zm5.31,4.626A15.889,15.889,0,0,1-126.66-.99l1.332-1.224a8.839,8.839,0,0,0-3.078-2.034ZM-105.618-.7V-7.074h-7.56V.36h1.386V-.7Zm-6.174-3.6V-6.354H-107V-4.3Zm0,.72H-107v2.16h-4.788Zm1.494-10.89h-6.5v15.8h1.422v-9.99h5.076Zm-5.076.72h3.726v1.782h-3.726Zm3.726,2.5v1.872h-3.726V-11.25Zm3.168-3.222v5.814h5.31V-.342c0,.576-.252.828-.828.828h-1.512v.756h2.484c.9,0,1.278-.378,1.278-1.3V-14.472Zm1.35,3.222h3.96v1.872h-3.96Zm0-.72v-1.782h3.96v1.782Zm23.112-1.3-1.206.522A41.767,41.767,0,0,1-91-12.366c.072-.594.126-1.026.234-1.782.27-.162.342-.252.342-.36,0-.162-.216-.288-.5-.324l-1.224-.144c-.126,1.008-.18,1.6-.234,2.25l-.018.2-.018.18a29.552,29.552,0,0,1-3.726-.162l-1.152-.45.09,1.17a22.112,22.112,0,0,0,3.906.27h.828l-.072.738c-.036.468-.054.774-.09,1.692a7.046,7.046,0,0,0-3.4,1.728,5.322,5.322,0,0,0-1.8,3.942c0,1.89,1.1,3.294,2.574,3.294,1.494,0,3.654-1.422,5.472-3.636a20.8,20.8,0,0,0,2.754-4.3,3.841,3.841,0,0,1,2.2,3.51c0,2.538-2.16,4.482-5.832,5.292l.144.576A13.775,13.775,0,0,0-86.79.4c2.376-1.008,3.582-2.592,3.582-4.752A4.681,4.681,0,0,0-85.62-8.568a7.446,7.446,0,0,0-3.978-.9,12.115,12.115,0,0,0-1.638.108c.126-1.728.126-1.728.162-2.178a53.283,53.283,0,0,0,6.894-.414Zm-7.056,9.522a15.258,15.258,0,0,1-.252-3.042c0-.5.018-.918.054-1.764a7.851,7.851,0,0,1,1.4-.108,11.9,11.9,0,0,1,2,.18A19.005,19.005,0,0,1-91.074-3.744Zm-1.6-4.482c-.036.792-.036,1.206-.036,1.512a21.061,21.061,0,0,0,.342,4.032c-1.368,1.1-2.034,1.458-2.718,1.458-.774,0-1.332-.9-1.332-2.142a4.829,4.829,0,0,1,1.494-3.51A5.729,5.729,0,0,1-92.676-8.226Zm25.11-4.734c.522-.09.738-.234.738-.486a.506.506,0,0,0-.324-.432l-1.224-.648-.522.5c-1.908.126-2.52.144-6.66.2l-1.116-.414.144,1.278c3.294-.018,5.238-.072,7.02-.18l-9.36,7.884.882,1.062,2.322-1.944a11.4,11.4,0,0,1,5.04-1.26c2.466,0,3.96,1.152,3.96,3.06a3.461,3.461,0,0,1-1.152,2.574,4,4,0,0,1-1.6.954,5.872,5.872,0,0,0-1.332-2.016A4.427,4.427,0,0,0-73.83-4.194c-1.422,0-2.412.81-2.412,1.98,0,1.674,2.214,2.988,5.04,2.988,3.474,0,6.21-2.2,6.21-4.986,0-2.484-2.124-4.068-5.454-4.068a9.444,9.444,0,0,0-3.4.612ZM-70.482-.522a2.858,2.858,0,0,1-.792.072,6.477,6.477,0,0,1-3.078-.72,1.281,1.281,0,0,1-.81-1.116c0-.558.5-.936,1.278-.936a3.877,3.877,0,0,1,3.456,2.7Zm16.308-13.464c.216-.18.288-.306.288-.45a.336.336,0,0,0-.342-.306H-56.01l.306,1.08L-54.57-8.19A16.243,16.243,0,0,0-56.8-6.858c-1.764,1.26-2.52,2.394-2.52,3.762a3.214,3.214,0,0,0,2.16,3.06A13.293,13.293,0,0,0-52.14.63,34.286,34.286,0,0,0-47.028.324V-1.422A27.13,27.13,0,0,1-52.3-.936c-4.068,0-5.8-.666-5.8-2.268,0-2.142,3.258-4.086,10.386-6.228a1,1,0,0,0,.486.162.327.327,0,0,0,.306-.288.622.622,0,0,0-.054-.216l-.63-1.458-.63.468c-1.4.54-2.754,1.044-4.032,1.548-.36.144-.612.234-.882.36ZM-37.308.144A10.822,10.822,0,0,0-42.33-3.294l-.342.432a16.066,16.066,0,0,1,3.888,4.3Zm21.4-8.73-1.026-5.13c.216-.18.288-.306.288-.45a.336.336,0,0,0-.342-.306h-1.782l.306,1.08,1.134,5.472A16.251,16.251,0,0,0-19.56-6.588c-1.764,1.26-2.52,2.394-2.52,3.762A3.231,3.231,0,0,0-19.92.234,13.339,13.339,0,0,0-14.88.9,34.188,34.188,0,0,0-9.786.594V-1.152a28.38,28.38,0,0,1-5.292.486c-4.05,0-5.778-.666-5.778-2.268,0-2.142,3.222-4.068,10.386-6.228A1,1,0,0,0-9.984-9a.327.327,0,0,0,.306-.288A.542.542,0,0,0-9.732-9.5l-.63-1.44-.63.45c-.162.054-1.1.414-4.032,1.548-.27.108-.54.216-.828.342Zm8.676-4.842A3.6,3.6,0,0,0-9.354-15.3l-.306.252A7.245,7.245,0,0,1-8.436-12.78Zm-4.554-1.4a8.209,8.209,0,0,1,1.1,2.484l1.206-.576a3.542,3.542,0,0,0-1.98-2.142ZM2.31-13.7c.36-.072.522-.2.522-.414a.4.4,0,0,0-.306-.324L.978-14.922.636-13.68-4.908.162l1.422.576.99-2.5C-1.38-4.572.582-6.534,2.256-6.534c.738,0,1.062.45,1.062,1.494v2.358A4.416,4.416,0,0,0,3.768-.36,2.855,2.855,0,0,0,6.342.828c2.16,0,3.492-1.26,4.212-3.942A14.09,14.09,0,0,0,11.04-6.3l-.522-.09A15.3,15.3,0,0,1,9.636-3.4C8.844-1.548,7.71-.5,6.5-.5A1.406,1.406,0,0,1,5.3-1.08a2.865,2.865,0,0,1-.324-1.638v-2.43a2.462,2.462,0,0,0-.486-1.764,2.542,2.542,0,0,0-1.71-.648,4.242,4.242,0,0,0-2.556.918,7.324,7.324,0,0,0-1.3,1.206Zm15.84,1.17c-1.53,0-2.16-.036-3.132-.09l-.972-.414.09,1.224c1.3.09,1.926.108,3.042.108h.7a39.773,39.773,0,0,1-4.086,8.838l1.368.882A47.819,47.819,0,0,0,19.5-11.754c1.368-.054,2.862-.18,4.356-.378l.054-1.278-1.116.558c-1.278.144-2.016.216-3.006.27a2.141,2.141,0,0,1,.072-.252c.054-.162.216-.648.378-1.17.27-.18.324-.27.324-.4a.291.291,0,0,0-.252-.288l-1.584-.306-.144.918c-.09.36-.162.63-.2.756l-.216.738ZM29.634-1.854a10.991,10.991,0,0,0-4.392-2.394V-7.614c.288-.2.36-.27.36-.4,0-.18-.162-.288-.432-.288l-1.422-.018L23.8-6.984v2.448a9.7,9.7,0,0,0-1.584-.126c-2.34,0-3.744,1.008-3.744,2.7,0,1.71,1.674,2.952,3.978,2.952A2.736,2.736,0,0,0,24.99-.09a2.729,2.729,0,0,0,.252-1.35V-2.934A11.893,11.893,0,0,1,28.572-.5ZM23.8-1.512c0,.864-.5,1.278-1.566,1.278-1.656,0-2.88-.774-2.88-1.836A1.234,1.234,0,0,1,19.68-2.9a3.1,3.1,0,0,1,2.25-.666,6.612,6.612,0,0,1,1.872.252ZM29.85-10.4a8.921,8.921,0,0,0-3.528-.576,9.031,9.031,0,0,0-3.168.468l.036.5a13.422,13.422,0,0,1,5.652,1.08Zm15.894-2.682a15.44,15.44,0,0,0-3.618-.342,14.772,14.772,0,0,0-6.75,1.206l.126.612a30.694,30.694,0,0,1,5.094-.414,18.187,18.187,0,0,1,5.148.63ZM35.232-6.5a5.673,5.673,0,0,0-.972,3.042c0,1.44,1.044,2.628,2.862,3.24a15.837,15.837,0,0,0,4.608.54A38.375,38.375,0,0,0,47-.018V-1.854a28.5,28.5,0,0,1-5.652.54c-4.122,0-6.084-.936-6.084-2.9a4.566,4.566,0,0,1,.558-2.034Zm22.914-7.488c.216-.18.288-.306.288-.45a.336.336,0,0,0-.342-.306H56.31l.306,1.08L57.75-8.19a16.243,16.243,0,0,0-2.232,1.332C53.754-5.6,53-4.464,53-3.1a3.214,3.214,0,0,0,2.16,3.06A13.293,13.293,0,0,0,60.18.63,34.286,34.286,0,0,0,65.292.324V-1.422a27.13,27.13,0,0,1-5.274.486c-4.068,0-5.8-.666-5.8-2.268,0-2.142,3.258-4.086,10.386-6.228a1,1,0,0,0,.486.162.327.327,0,0,0,.306-.288.622.622,0,0,0-.054-.216l-.63-1.458-.63.468c-1.4.54-2.754,1.044-4.032,1.548-.36.144-.612.234-.882.36ZM70.008-9.72,70.3-8.6c.072.216.162.324.306.324s.252-.09.36-.36a24.585,24.585,0,0,1,2.718-.648,33.449,33.449,0,0,1-3.582,9L71.43.486A31.655,31.655,0,0,0,75.282-9.54a18.471,18.471,0,0,1,2.34-.216,1.243,1.243,0,0,1,1.152.5,4.472,4.472,0,0,1,.252,1.908,19.949,19.949,0,0,1-.846,5.652c-.4,1.152-.774,1.62-1.278,1.62a3.62,3.62,0,0,1-2.088-1.152l-.468.72c1.278,1.134,2.178,1.62,3.024,1.62.954,0,1.584-.576,2.142-1.944A17.854,17.854,0,0,0,80.538-7a5.179,5.179,0,0,0-.432-2.52c-.4-.72-1.278-1.08-2.628-1.08-.54,0-1.188.036-1.98.09.18-.774.306-1.494.594-3.1.27-.108.378-.216.378-.36s-.126-.27-.36-.324l-1.53-.342-.018.828c-.252,1.548-.414,2.5-.63,3.474-1.116.144-2.232.342-3.42.576Zm16.38-3.708A3.516,3.516,0,0,0,84.282-15.3l-.306.252A7.5,7.5,0,0,1,85.2-12.78Zm-4.968,2.2c1.422,1.962,2.214,4.176,2.952,7.974l1.656-.7c-.684-3.456-2.34-6.426-4.23-7.56Zm.45-3.546a8.166,8.166,0,0,1,1.116,2.466l1.188-.576a3.484,3.484,0,0,0-1.962-2.124Zm22.986,6.246a3.6,3.6,0,0,0-2.124-1.872l-.288.27a6.968,6.968,0,0,1,1.206,2.25Zm-4.536-1.35a7.79,7.79,0,0,1,1.1,2.484l1.206-.576a3.539,3.539,0,0,0-1.98-2.142Zm-11.5-3.384.126,1.242,10.926-.432a.344.344,0,0,1-.144.054,9.571,9.571,0,0,0-2.844,1.494,6.115,6.115,0,0,0-2.574,5.04,5.714,5.714,0,0,0,2.2,4.68,8.087,8.087,0,0,0,4.14,1.656l.684-1.872A6.586,6.586,0,0,1,97.62-2.628a4.247,4.247,0,0,1-1.764-3.654c0-2.466,1.422-4.374,4.1-5.49a10.546,10.546,0,0,1,3.852-.792l.09-1.26-1.188.432-12.852.45Zm26.5,1.008c-.792.036-1.476.054-2.232.054a27.036,27.036,0,0,1-3.024-.144l-1.206-.4.126,1.08a21.19,21.19,0,0,0,4.086.288c.936,0,1.71-.018,2.412-.054l.18-.018h.072c.522,1.026.738,1.44,1.134,2.142l.036.054c-1.278.072-2.376.108-3.4.108-1.116,0-1.98-.036-3.276-.126l-1.206-.414.144,1.1a27.951,27.951,0,0,0,4.5.27c1.044,0,2.088-.036,3.618-.126h.072c.522.936,1.206,2.088,1.854,3.078a10.22,10.22,0,0,0-4.428-.954,9.1,9.1,0,0,0-3.942.81A2.883,2.883,0,0,0,109.1-2.88c0,2.466,2.628,3.744,7.668,3.744A19.764,19.764,0,0,0,120.12.612V-1.08a16.911,16.911,0,0,1-3.888.432,11.753,11.753,0,0,1-4.86-.828,1.776,1.776,0,0,1-1.08-1.584,1.856,1.856,0,0,1,1.044-1.6,7.565,7.565,0,0,1,3.564-.774,10.384,10.384,0,0,1,3.618.666,5.443,5.443,0,0,1,2.124,1.314l1.224-.774a36.064,36.064,0,0,1-2.916-4.338H119a18.018,18.018,0,0,0,3.132-.4l.054-1.242-1.062.558c-1.008.126-1.62.2-2.646.27l-.018-.036-.486-.9-.63-1.17-.036-.054a32.591,32.591,0,0,0,4.536-.558l.09-1.116-1.08.45c-1.656.234-2.214.288-3.96.432a.381.381,0,0,0-.054-.126c-.126-.234-.468-.936-.828-1.692a.554.554,0,0,0,.216-.4c0-.18-.18-.306-.468-.306h-1.8l.558,1.044Zm23.04-.7c.522-.09.738-.234.738-.486a.506.506,0,0,0-.324-.432l-1.224-.648-.522.5c-1.908.126-2.52.144-6.66.2l-1.116-.414.144,1.278c3.294-.018,5.238-.072,7.02-.18l-9.36,7.884.882,1.062,2.322-1.944a11.4,11.4,0,0,1,5.04-1.26c2.466,0,3.96,1.152,3.96,3.06A3.461,3.461,0,0,1,138.1-1.764a4,4,0,0,1-1.6.954,5.872,5.872,0,0,0-1.332-2.016,4.427,4.427,0,0,0-3.078-1.368c-1.422,0-2.412.81-2.412,1.98,0,1.674,2.214,2.988,5.04,2.988,3.474,0,6.21-2.2,6.21-4.986,0-2.484-2.124-4.068-5.454-4.068a9.444,9.444,0,0,0-3.4.612ZM135.438-.522a2.858,2.858,0,0,1-.792.072,6.477,6.477,0,0,1-3.078-.72,1.281,1.281,0,0,1-.81-1.116c0-.558.5-.936,1.278-.936a3.877,3.877,0,0,1,3.456,2.7Zm16.7-2.916h.828v-.306c.054-1.908.108-2.016,2.16-3.69,1.512-1.3,1.962-2,1.962-3.114a3.254,3.254,0,0,0-1.656-2.808,5.619,5.619,0,0,0-2.718-.612,4.333,4.333,0,0,0-3.384,1.278,4.49,4.49,0,0,0-1.116,2.88h1.908a6.081,6.081,0,0,1,.252-1.746,2.2,2.2,0,0,1,2.3-1.6,2.58,2.58,0,0,1,1.692.558,2.584,2.584,0,0,1,.756,1.836,3.466,3.466,0,0,1-1.17,2.448,5.37,5.37,0,0,0-1.818,4.572Zm.468,1.17a1.272,1.272,0,0,0-1.3,1.26,1.287,1.287,0,0,0,1.278,1.3A1.283,1.283,0,0,0,153.87-.99,1.291,1.291,0,0,0,152.61-2.268Z" transform="translate(487.318 1183.302)" fill="#111"/>
    <g id="パス_57281" data-name="パス 57281" transform="translate(2754 -6383.379)" fill="none">
      <path d="M-2273.8,7601.382h-149.7a44,44,0,0,1-44-44,44,44,0,0,1,44-44h309a44,44,0,0,1,44,44,44,44,0,0,1-44,44h-145.7l-6.8,12Z" stroke="none"/>
      <path d="M -2266.999755859375 7611.35498046875 L -2260.783203125 7600.3818359375 L -2114.5 7600.3818359375 C -2108.694580078125 7600.3818359375 -2103.0634765625 7599.2451171875 -2097.762939453125 7597.0029296875 C -2092.642578125 7594.83740234375 -2088.0439453125 7591.73681640625 -2084.094482421875 7587.78759765625 C -2080.145263671875 7583.83837890625 -2077.044677734375 7579.23974609375 -2074.87890625 7574.119140625 C -2072.636962890625 7568.81884765625 -2071.500244140625 7563.1875 -2071.500244140625 7557.38232421875 C -2071.500244140625 7551.5771484375 -2072.636962890625 7545.94580078125 -2074.87890625 7540.64501953125 C -2077.044677734375 7535.52490234375 -2080.145263671875 7530.92626953125 -2084.094482421875 7526.97705078125 C -2088.0439453125 7523.02734375 -2092.642578125 7519.9267578125 -2097.762939453125 7517.76123046875 C -2103.0634765625 7515.51904296875 -2108.694580078125 7514.38232421875 -2114.5 7514.38232421875 L -2423.499755859375 7514.38232421875 C -2429.30517578125 7514.38232421875 -2434.936279296875 7515.51904296875 -2440.23681640625 7517.76123046875 C -2445.357177734375 7519.9267578125 -2449.955810546875 7523.02734375 -2453.905029296875 7526.97705078125 C -2457.8544921875 7530.92626953125 -2460.955078125 7535.52490234375 -2463.120849609375 7540.64501953125 C -2465.36279296875 7545.94580078125 -2466.49951171875 7551.5771484375 -2466.49951171875 7557.38232421875 C -2466.49951171875 7563.1875 -2465.36279296875 7568.81884765625 -2463.120849609375 7574.119140625 C -2460.955078125 7579.23974609375 -2457.8544921875 7583.83837890625 -2453.905029296875 7587.78759765625 C -2449.955810546875 7591.73681640625 -2445.357177734375 7594.83740234375 -2440.23681640625 7597.0029296875 C -2434.936279296875 7599.2451171875 -2429.30517578125 7600.3818359375 -2423.499755859375 7600.3818359375 L -2273.2177734375 7600.3818359375 L -2266.999755859375 7611.35498046875 M -2266.999755859375 7613.38330078125 L -2273.800537109375 7601.3818359375 L -2423.499755859375 7601.3818359375 C -2447.800048828125 7601.3818359375 -2467.49951171875 7581.6826171875 -2467.49951171875 7557.38232421875 C -2467.49951171875 7533.08203125 -2447.800048828125 7513.38232421875 -2423.499755859375 7513.38232421875 L -2114.5 7513.38232421875 C -2090.19970703125 7513.38232421875 -2070.500244140625 7533.08203125 -2070.500244140625 7557.38232421875 C -2070.500244140625 7581.6826171875 -2090.19970703125 7601.3818359375 -2114.5 7601.3818359375 L -2260.200439453125 7601.3818359375 L -2266.999755859375 7613.38330078125 Z" stroke="none" fill="#111"/>
    </g>
  </g>
</svg>
