<svg xmlns="http://www.w3.org/2000/svg" width="347.432" height="172.148" viewBox="0 0 347.432 172.148">
  <g id="fair-tit-sp" transform="translate(-314.5 -1055.723)">
    <g id="fair_name" data-name="fair name" transform="translate(7 4)">
      <path id="パス_57291" data-name="パス 57291" d="M-86.712-8.3a4.591,4.591,0,0,1,2.268,1.44,3.938,3.938,0,0,1,.876,2.64,4.011,4.011,0,0,1-.768,2.484,4.567,4.567,0,0,1-2,1.512,6.976,6.976,0,0,1-2.6.492,6.713,6.713,0,0,1-2.6-.5,4.63,4.63,0,0,1-1.968-1.512,4,4,0,0,1-.756-2.472,3.938,3.938,0,0,1,.876-2.64A4.591,4.591,0,0,1-91.128-8.3a4.023,4.023,0,0,1-1.8-1.272,3.551,3.551,0,0,1-.792-2.376,3.424,3.424,0,0,1,.672-2.148,4.135,4.135,0,0,1,1.764-1.32,6.217,6.217,0,0,1,2.364-.444,6.3,6.3,0,0,1,2.34.432,4.093,4.093,0,0,1,1.776,1.32,3.434,3.434,0,0,1,.684,2.16,3.551,3.551,0,0,1-.792,2.376A4.023,4.023,0,0,1-86.712-8.3Zm-2.208-6.768a2.635,2.635,0,0,0-2.028.876,3.326,3.326,0,0,0-.8,2.34,3.326,3.326,0,0,0,.8,2.34,2.635,2.635,0,0,0,2.028.876,2.625,2.625,0,0,0,2.04-.876,3.357,3.357,0,0,0,.792-2.34,3.326,3.326,0,0,0-.8-2.34A2.635,2.635,0,0,0-88.92-15.072Zm0,14.568a3.052,3.052,0,0,0,2.328-.972A3.827,3.827,0,0,0-85.68-4.2a3.968,3.968,0,0,0-.84-2.664,2.982,2.982,0,0,0-2.4-.984,2.982,2.982,0,0,0-2.4.984A3.968,3.968,0,0,0-92.16-4.2a3.827,3.827,0,0,0,.912,2.724A3.052,3.052,0,0,0-88.92-.5Zm8.808.768a1.389,1.389,0,0,1-1.02-.42,1.389,1.389,0,0,1-.42-1.02,1.389,1.389,0,0,1,.42-1.02,1.389,1.389,0,0,1,1.02-.42,1.389,1.389,0,0,1,1.02.42,1.389,1.389,0,0,1,.42,1.02,1.389,1.389,0,0,1-.42,1.02A1.389,1.389,0,0,1-80.112.264ZM-68.688-.864V0h-6.72V-.864h2.472V-13.656l-2.376,1.536-.5-.768,3.96-2.664h.816V-.864Zm14.232,2.352a8.688,8.688,0,0,1-3.132-3.54,12.375,12.375,0,0,1-1.068-5.436A12.468,12.468,0,0,1-57.564-12.9a8.673,8.673,0,0,1,3.108-3.612l.36.336a7.409,7.409,0,0,0-2.052,3.408,16.319,16.319,0,0,0-.8,5.256,16.319,16.319,0,0,0,.8,5.256A7.409,7.409,0,0,0-54.1,1.152Zm6.384-1.2a7.414,7.414,0,0,1-2.748-.48,4.348,4.348,0,0,1-1.788-1.176V-4.2h1.3a4.771,4.771,0,0,0,1.08,2.868A3.009,3.009,0,0,0-48.024-.5a3.158,3.158,0,0,0,2.292-.78,2.791,2.791,0,0,0,.8-2.1,2.683,2.683,0,0,0-1.32-2.4l-4.272-2.76A5.128,5.128,0,0,1-52.044-9.96a3.414,3.414,0,0,1-.54-1.968,3.541,3.541,0,0,1,1.26-2.844,5.2,5.2,0,0,1,3.468-1.068,6.989,6.989,0,0,1,2.46.408,4.609,4.609,0,0,1,1.788,1.152v2.9h-1.3a5.126,5.126,0,0,0-.912-2.892,2.6,2.6,0,0,0-2.04-.8,2.8,2.8,0,0,0-2.2.768,2.683,2.683,0,0,0-.684,1.848,2.284,2.284,0,0,0,1.1,2.064l4.2,2.688a6.063,6.063,0,0,1,1.884,1.716,3.621,3.621,0,0,1,.564,2,4.1,4.1,0,0,1-.6,2.2,4.063,4.063,0,0,1-1.74,1.524A6.258,6.258,0,0,1-48.072.288Zm16.7-.864a2.491,2.491,0,0,1-.8.6,2.4,2.4,0,0,1-1.068.24A1.825,1.825,0,0,1-34.3-.048a1.693,1.693,0,0,1-.648-.84,4.538,4.538,0,0,1-1.4.864,4.942,4.942,0,0,1-1.764.288,3.094,3.094,0,0,1-2.1-.7,2.27,2.27,0,0,1-.8-1.8q0-2.064,2.616-2.928l3.408-1.176V-7.488a4.14,4.14,0,0,0-.444-2.22,1.674,1.674,0,0,0-1.5-.66,1.9,1.9,0,0,0-1.608.768,3.853,3.853,0,0,0-.624,2.208h-1.224V-9.96a3.574,3.574,0,0,1,1.464-.828,6.488,6.488,0,0,1,1.992-.3,4.116,4.116,0,0,1,2.82.864,3.226,3.226,0,0,1,.972,2.544v6.336A.573.573,0,0,0-32.5-.7,1.022,1.022,0,0,0-31.7-1.08Zm-5.976-.072A2.606,2.606,0,0,0-36.12-.936a3.843,3.843,0,0,0,1.128-.984V-5.544l-2.5.888a2.3,2.3,0,0,0-1.14.816,2.286,2.286,0,0,0-.4,1.368,1.83,1.83,0,0,0,.492,1.3A1.565,1.565,0,0,0-37.344-.648Zm13.656-.168a5.141,5.141,0,0,1-1.32.828,3.62,3.62,0,0,1-1.368.252,2.882,2.882,0,0,1-2.256-.852,3.555,3.555,0,0,1-.768-2.46v-7.08h-1.224V-10.7l2.472-2.568h.576v2.424h3.624v.72h-3.624v7.2a2.887,2.887,0,0,0,.42,1.692,1.422,1.422,0,0,0,1.236.588,2.783,2.783,0,0,0,1.8-.72Zm1.08-15.7a8.688,8.688,0,0,1,3.132,3.54,12.375,12.375,0,0,1,1.068,5.436A12.468,12.468,0,0,1-19.5-2.124a8.673,8.673,0,0,1-3.108,3.612l-.36-.336a7.409,7.409,0,0,0,2.052-3.408,16.319,16.319,0,0,0,.8-5.256,16.319,16.319,0,0,0-.8-5.256,7.409,7.409,0,0,0-2.052-3.408Zm11.472,9.744H-1.32v.936h-9.816ZM13.008-8.3a4.591,4.591,0,0,1,2.268,1.44,3.938,3.938,0,0,1,.876,2.64,4.011,4.011,0,0,1-.768,2.484,4.567,4.567,0,0,1-2,1.512,6.976,6.976,0,0,1-2.6.492,6.714,6.714,0,0,1-2.6-.5A4.63,4.63,0,0,1,6.2-1.752a4,4,0,0,1-.756-2.472,3.938,3.938,0,0,1,.876-2.64A4.591,4.591,0,0,1,8.592-8.3a4.023,4.023,0,0,1-1.8-1.272A3.551,3.551,0,0,1,6-11.952,3.424,3.424,0,0,1,6.672-14.1a4.135,4.135,0,0,1,1.764-1.32,6.217,6.217,0,0,1,2.364-.444,6.3,6.3,0,0,1,2.34.432,4.093,4.093,0,0,1,1.776,1.32,3.434,3.434,0,0,1,.684,2.16,3.551,3.551,0,0,1-.792,2.376A4.023,4.023,0,0,1,13.008-8.3ZM10.8-15.072a2.635,2.635,0,0,0-2.028.876,3.326,3.326,0,0,0-.8,2.34,3.326,3.326,0,0,0,.8,2.34A2.635,2.635,0,0,0,10.8-8.64a2.625,2.625,0,0,0,2.04-.876,3.357,3.357,0,0,0,.792-2.34,3.326,3.326,0,0,0-.8-2.34A2.635,2.635,0,0,0,10.8-15.072ZM10.8-.5a3.052,3.052,0,0,0,2.328-.972A3.827,3.827,0,0,0,14.04-4.2a3.968,3.968,0,0,0-.84-2.664,2.982,2.982,0,0,0-2.4-.984,2.982,2.982,0,0,0-2.4.984A3.968,3.968,0,0,0,7.56-4.2a3.827,3.827,0,0,0,.912,2.724A3.052,3.052,0,0,0,10.8-.5Zm8.808.768a1.389,1.389,0,0,1-1.02-.42,1.389,1.389,0,0,1-.42-1.02,1.389,1.389,0,0,1,.42-1.02,1.389,1.389,0,0,1,1.02-.42,1.389,1.389,0,0,1,1.02.42,1.389,1.389,0,0,1,.42,1.02,1.389,1.389,0,0,1-.42,1.02A1.389,1.389,0,0,1,19.608.264ZM33.24-1.872V0H23.808V-.84q3.048-3.312,4.452-5a15.212,15.212,0,0,0,2.016-2.964,6.071,6.071,0,0,0,.612-2.664,3.946,3.946,0,0,0-.78-2.652,2.531,2.531,0,0,0-2-.9,2.37,2.37,0,0,0-2.088,1.056,5.074,5.074,0,0,0-.816,2.592H23.9v-2.88a4.488,4.488,0,0,1,1.8-1.152,6.846,6.846,0,0,1,2.424-.432,6.361,6.361,0,0,1,2.316.432A4.149,4.149,0,0,1,32.292-14a4.016,4.016,0,0,1,.732,2.484,4.437,4.437,0,0,1-.576,2.172,13.815,13.815,0,0,1-1.908,2.5Q29.208-5.4,25.728-1.872ZM43.2-8.3a4.591,4.591,0,0,1,2.268,1.44,3.938,3.938,0,0,1,.876,2.64,4.011,4.011,0,0,1-.768,2.484,4.567,4.567,0,0,1-2,1.512,6.976,6.976,0,0,1-2.6.492,6.714,6.714,0,0,1-2.6-.5A4.63,4.63,0,0,1,36.4-1.752a4,4,0,0,1-.756-2.472,3.938,3.938,0,0,1,.876-2.64A4.591,4.591,0,0,1,38.784-8.3a4.023,4.023,0,0,1-1.8-1.272,3.551,3.551,0,0,1-.792-2.376,3.424,3.424,0,0,1,.672-2.148,4.135,4.135,0,0,1,1.764-1.32,6.217,6.217,0,0,1,2.364-.444,6.3,6.3,0,0,1,2.34.432,4.093,4.093,0,0,1,1.776,1.32,3.434,3.434,0,0,1,.684,2.16A3.551,3.551,0,0,1,45-9.576,4.023,4.023,0,0,1,43.2-8.3Zm-2.208-6.768a2.635,2.635,0,0,0-2.028.876,3.326,3.326,0,0,0-.8,2.34,3.326,3.326,0,0,0,.8,2.34,2.635,2.635,0,0,0,2.028.876,2.625,2.625,0,0,0,2.04-.876,3.357,3.357,0,0,0,.792-2.34,3.326,3.326,0,0,0-.8-2.34A2.635,2.635,0,0,0,40.992-15.072Zm0,14.568a3.052,3.052,0,0,0,2.328-.972A3.827,3.827,0,0,0,44.232-4.2a3.968,3.968,0,0,0-.84-2.664,2.982,2.982,0,0,0-2.4-.984,2.982,2.982,0,0,0-2.4.984,3.968,3.968,0,0,0-.84,2.664,3.827,3.827,0,0,0,.912,2.724A3.052,3.052,0,0,0,40.992-.5ZM58.8,1.488a8.688,8.688,0,0,1-3.132-3.54A12.375,12.375,0,0,1,54.6-7.488,12.468,12.468,0,0,1,55.692-12.9,8.673,8.673,0,0,1,58.8-16.512l.36.336a7.409,7.409,0,0,0-2.052,3.408,16.319,16.319,0,0,0-.8,5.256,16.319,16.319,0,0,0,.8,5.256A7.409,7.409,0,0,0,59.16,1.152Zm13.56-17.04v4.176h-.912l-1.272-3.312H64.632v6.024H68.4v-1.848h1.1V-5.9H68.4V-7.752H64.632V-.864H66.7V0H60.672V-.864h1.92V-14.688h-1.92v-.864Zm7.512,4.44a2.689,2.689,0,0,1,1.008.192,1.772,1.772,0,0,1,.72.48V-8.3H80.544a1.462,1.462,0,0,0-1.608-1.464,1.5,1.5,0,0,0-1.32.888,4.21,4.21,0,0,0-.5,2.112V-.72h2.064V0H73.728V-.72h1.584v-9.408h-1.56v-.7l3.288-.192.024,1.728A3.038,3.038,0,0,1,78.228-10.6,3.01,3.01,0,0,1,79.872-11.112ZM82.512-.72h1.944v-9.408H82.7v-.7l3.552-.24V-.72H88.2V0H82.512Zm1.224-13.608A1.456,1.456,0,0,1,84.18-15.4a1.456,1.456,0,0,1,1.068-.444,1.456,1.456,0,0,1,1.068.444,1.456,1.456,0,0,1,.444,1.068,1.456,1.456,0,0,1-.444,1.068,1.456,1.456,0,0,1-1.068.444,1.456,1.456,0,0,1-1.068-.444A1.456,1.456,0,0,1,83.736-14.328Zm5.832-2.184a8.688,8.688,0,0,1,3.132,3.54,12.375,12.375,0,0,1,1.068,5.436,12.468,12.468,0,0,1-1.092,5.412,8.673,8.673,0,0,1-3.108,3.612l-.36-.336A7.409,7.409,0,0,0,91.26-2.256a16.319,16.319,0,0,0,.8-5.256,16.319,16.319,0,0,0-.8-5.256,7.409,7.409,0,0,0-2.052-3.408Z" transform="translate(481.772 1222.383)" fill="#fff"/>
      <path id="パス_57290" data-name="パス 57290" d="M-144.08-3.2h13.48V-14.8h-29.76V-.36h3.8V-3.2h8.84V-.76c-.08,2.44,1.08,3.56,3.48,3.52h13.64c2.32,0,3.28-.84,3.6-3.24l.32-3.24-1.84-.2-.28,2.16c-.16,1-.56,1.28-1.72,1.32h-12.6c-.68,0-1-.28-.96-.96Zm0-9.68h9.68v2.84h-9.68Zm0,4.76h9.68v3h-9.68Zm-3.64,3h-8.84v-3h8.84Zm0-4.92h-8.84v-2.84h8.84Zm.12-16v9.76h3.6v-9.76h12.64a45.458,45.458,0,0,1-1.76,5.6l1.52.64a15.768,15.768,0,0,0,4.92-8.16H-144v-2.6h12.64l1.68.32V-32.8l-1.68.32h-27.68l-1.64-.32v2.56l1.64-.32h11.44v2.6h-11.32c0-.28-.04-.48-.08-1.08h-1.88A12.274,12.274,0,0,1-164.24-22l3.24,3.16a11.385,11.385,0,0,0,2.16-7.2Zm-10.28,8.72h8.56v-1.92h-8.56Zm0-4.36h8.56V-23.6h-8.56Zm15.64,4.36h8.8v-1.92h-8.8Zm0-4.36h8.72V-23.6h-8.72ZM-111.8-6.92a52.786,52.786,0,0,1-11.8,8.44l.68,1.4a41.89,41.89,0,0,0,14.16-7.68c2.52,1.88,4.76,3.72,7.68,6.32L-98-2.56a73.686,73.686,0,0,0-7.52-4.96l-.12-.08a51.072,51.072,0,0,0,4.2-4.68c.96-.12,1.4-.4,1.4-.88,0-.32-.2-.52-.64-.72l-3.84-1.72a49.171,49.171,0,0,1-4.72,6.08,60.278,60.278,0,0,0-10.56-4.16l-.84,1.48A100.261,100.261,0,0,1-111.92-7Zm21.68-21.44,1.68.32V-30.6l-1.68.32h-23.4c.24-.36.48-.72,1-1.6.8-.12,1.24-.4,1.24-.84,0-.28-.32-.52-.8-.56l-4.56-.72a42.227,42.227,0,0,1-7.6,12.16l.92,1.24a27.229,27.229,0,0,0,8.48-7.76Zm-29.76,9.6-1.68-.32v2.56l1.68-.32h22.84a55.6,55.6,0,0,0,1.32,12.6c1.08,4.76,3.16,7.6,5.56,7.6,1.36,0,2.24-.92,2.72-2.84a43.471,43.471,0,0,0,.8-6.84l-1.76-.32-.12,1.08q-.12,1.26-.12,1.32a16.388,16.388,0,0,1-.44,2.64c-.16.44-.36.68-.56.68-.12,0-.32-.2-.52-.48-1.08-1.72-1.8-4.76-2.24-9.28a74.055,74.055,0,0,1-.32-8.08Zm4.8-4.12h21.24l1.68.32v-2.56l-1.68.32h-21.24l-1.68-.32v2.56Zm34.8-6.2V3.32h4.44V.76h20.8V3.08h4.44V-29.08H-66.76a13.481,13.481,0,0,0,2.72-2.88c.84-.24,1.2-.52,1.2-.96,0-.36-.36-.56-1.16-.64L-69.04-34a36.488,36.488,0,0,1-1,4.92Zm4.44,8.96v-7.04h20.8v7.04Zm0,1.92h20.8v7.08h-20.8Zm0,9h20.8v8.04h-20.8Zm44.2-1.16h7.44v-11.8h-7.44v-2.68H-25l1.68.32v-2.56l-1.68.32h-6.64V-29.8c1.64-.2,2.88-.36,5.6-.76a8,8,0,0,0,1.2.16c.48,0,.8-.28.8-.64,0-.24-.08-.32-.52-.72L-27.04-34c-4.32,1.36-8.64,2.16-16.44,3.16l.2,1.68c2.72-.04,3.92-.08,8.36-.36v2.76h-7.52l-1.68-.32v2.56l1.68-.32h7.52v2.68h-7.4v11.8h7.4v2.72h-6.2l-1.68-.32V-5.4l1.68-.32h6.2v3.28l-6,.36c-.48,0-1.8.08-3.32.12l1.16,3.56c.16.56.48.88.8.88s.56-.24.84-.88C-32.76.52-27.8-.44-24-1.8l-.28-1.6c-3.24.4-4.48.52-7.36.76V-5.72h6.04l1.68.32V-7.96l-1.68.32h-6.04Zm-3.28-1.76h-3.96v-3.4h3.96Zm3.28,0v-3.4h4v3.4Zm-3.28-5.16h-3.96V-20.4h3.96Zm3.28,0V-20.4h4v3.12Zm12.32-7.32h-1.92l-1.68-.32v2.56l1.68-.32h1.84c-.48,13.8-2.4,20.32-7.4,24.96l1,1.32c4.92-2.76,7.88-7.28,9.12-13.92a91.862,91.862,0,0,0,1.24-12.36h3.52c-.28,8.84-.64,15.24-1.24,20.56C-13.4.44-13.8.96-15.4,1h-3.12V3.08h4.84c2.84-.04,3.92-.92,4.36-3.56.6-3.44,1.04-11.36,1.48-24.12h-7.52c.04-.88.08-3.76.08-5.84V-32.2c.52-.36.64-.56.64-.84,0-.4-.28-.56-.84-.56h-3.76v3.16c0,2.36,0,2.48-.08,5.72ZM16.4-8.88H29.08v-15.6H16.4v-3.44H30.32L32-27.6v-2.56l-1.68.32H16.4V-32.6c.52-.4.64-.56.64-.84,0-.4-.28-.56-.84-.56H12.16v4.16H-1.2l-1.68-.32v2.56l1.68-.32H12.16v3.44H.04v15.6H12.16v3.64H-2.56l-1.68-.32V-3l1.68-.32H12.16V3.6H16.4V-3.32H31.68L33.36-3V-5.56l-1.68.32H16.4Zm0-7h8.44v5.08H16.4Zm-4.24,0v5.08H4.28v-5.08Zm4.24-6.68h8.44v4.76H16.4Zm-4.24,0v4.76H4.28v-4.76Zm34.88-9.024A10.614,10.614,0,0,1,52.632-30a11.347,11.347,0,0,1,4.248,4.968,19.586,19.586,0,0,1,1.632,8.52,22.677,22.677,0,0,1-1.68,9.1,13.952,13.952,0,0,1-4.488,5.9A10.125,10.125,0,0,1,46.272.528,9.2,9.2,0,0,1,41.28-.888,11.421,11.421,0,0,1,37.536-4.8l1.872-1.3q2.448,4.128,5.952,4.128a5.707,5.707,0,0,0,5.04-3q1.872-3,2.208-8.76a8.484,8.484,0,0,1-6.24,2.544A10,10,0,0,1,41.64-12.36a9.434,9.434,0,0,1-3.648-3.456,9.936,9.936,0,0,1-1.416-5.352,10.353,10.353,0,0,1,1.464-5.544A9.773,9.773,0,0,1,41.9-30.336,10.972,10.972,0,0,1,47.04-31.584Zm.384,17.952a5.112,5.112,0,0,0,3.024-1.032,6.577,6.577,0,0,0,2.208-2.808q-.192-6-1.848-9.024t-4.3-3.024A3.361,3.361,0,0,0,43.3-27.48a12.007,12.007,0,0,0-1.008,5.3,11.587,11.587,0,0,0,1.44,6.36A4.294,4.294,0,0,0,47.424-13.632ZM78.1-16.512a8.277,8.277,0,0,1,4.152,2.976,8.17,8.17,0,0,1,1.56,4.992,8.014,8.014,0,0,1-1.56,5.016,9.407,9.407,0,0,1-4.1,3.048A14.589,14.589,0,0,1,72.72.528,14.46,14.46,0,0,1,67.344-.48a9.574,9.574,0,0,1-4.128-3.048,7.931,7.931,0,0,1-1.584-5.016,8.17,8.17,0,0,1,1.56-4.992,8.277,8.277,0,0,1,4.152-2.976,9.5,9.5,0,0,1-3.24-2.952,7.417,7.417,0,0,1-1.32-4.344,6.69,6.69,0,0,1,1.392-4.3,8.374,8.374,0,0,1,3.648-2.616,13.576,13.576,0,0,1,4.9-.864,13.576,13.576,0,0,1,4.9.864A8.374,8.374,0,0,1,81.264-28.1a6.69,6.69,0,0,1,1.392,4.3,7.417,7.417,0,0,1-1.32,4.344A9.5,9.5,0,0,1,78.1-16.512ZM72.72-29.568a3.982,3.982,0,0,0-3.264,1.656,6.768,6.768,0,0,0-1.3,4.3A7.108,7.108,0,0,0,69.5-19.2a3.945,3.945,0,0,0,3.216,1.776A3.945,3.945,0,0,0,75.936-19.2a7.108,7.108,0,0,0,1.344-4.416,6.768,6.768,0,0,0-1.3-4.3A3.982,3.982,0,0,0,72.72-29.568Zm0,27.984a4.554,4.554,0,0,0,3.792-1.872,8.061,8.061,0,0,0,1.44-5.04,8.159,8.159,0,0,0-1.416-5.04,4.537,4.537,0,0,0-3.816-1.872A4.537,4.537,0,0,0,68.9-13.536,8.159,8.159,0,0,0,67.488-8.5a8.061,8.061,0,0,0,1.44,5.04A4.554,4.554,0,0,0,72.72-1.584ZM114.8-11.44V-.52c0,1.36-.56,1.92-1.92,1.92H109V3.48h6.48c2.52,0,3.6-1.04,3.56-3.4V-11.44h2.72l1.68.32v-2.56l-1.68.32h-2.72V-18.8h3.52l1.68.32v-2.56l-1.68.32h-8.92v-5.92h6.56l1.64.32v-2.56l-1.64.32h-6.56V-32.2c.48-.36.64-.56.64-.84,0-.36-.28-.56-.84-.56H109.4v5.04h-5.92l-1.68-.32v2.56l1.68-.32h5.92v5.92h-7.12l-1.68-.32v2.56l1.68-.32H114.8v5.44H102.84l-1.64-.32v2.56l1.64-.32ZM88.32-31.6V.48h3.64V-3.8h7.6V-31.6ZM91.96-5.72V-17.08h3.96V-5.72Zm0-13.28V-29.68h3.96V-19ZM103.28-8.28a40.274,40.274,0,0,1,4.8,6.8l3.8-3.48a21.272,21.272,0,0,0-7.32-4.6Zm50.48,7.04v-14.6h-17.2V1.24h3.88V-1.24Zm-13.32-8.4v-4.28h9.44v4.28Zm0,1.92h9.44v4.56h-9.44Zm3.04-24.92H128.24V3.32h4.04V-19.12h11.2Zm-11.2,1.92h7.44v3.76h-7.44Zm7.44,5.68v4h-7.44v-4Zm7.16-7.6v13.52h11.68V-.76c0,1.32-.56,1.88-1.92,1.88h-2.92V3.2h5.76c2.2,0,3.12-.96,3.12-3.24v-32.6Zm3.76,7.6h7.92v4h-7.92Zm0-1.92v-3.76h7.92v3.76Zm-303.1,84.52c-.08,1.92-.56,2.4-2.4,2.44h-3.96v2.24h6.96c1.76,0,2.96-.56,3.52-1.64a5.7,5.7,0,0,0,.52-2.12v-.44l-.48-20.32h8.28l1.92.36V35.12l-1.92.36h-8.32l-.12-6c.6-.48.8-.76.8-1.12,0-.48-.44-.8-1.16-.84l-4.68-.2.44,2.92.12,5.24H-170.5l-1.88-.36v2.96l1.88-.36h14.84a47.948,47.948,0,0,1-17.68,19.04l.72,1.4c8.04-2.84,13.84-7.52,19.84-15.88Zm53.16-14-33.4-1.48v5.28l33.4-1.52Zm21.76-3.16c-.2,5.32-1,8.76-2.76,11.64-2.04,3.36-6.04,6.28-11.44,8.28l.64,1.76c5.96-1.2,11.08-3.8,14.04-7.16,2.92-3.36,4.2-7.56,4.44-14.52h11.96l2,.4V37.76l-2,.4h-11.88c.04-.88.04-1.64.04-2.32v-5.8c.64-.48.88-.76.88-1.16a.93.93,0,0,0-.96-.84l-5.28-.32.4,3v5.12c0,.68,0,1.44-.04,2.32h-14.12l-2-.4V40.8l2-.4Zm58.24,3.16-33.4-1.48v5.28l33.4-1.52ZM6.1,54.16H1.864l-1.68-.32V56.4l1.68-.32H6.1v7.24h4.04V56.08H14.3l1.68.32V53.84l-1.68.32h-4.16V38.96l.04.12c2.24,8.24,5.64,14.36,9.92,17.76a53.575,53.575,0,0,1,2.44-5.04A36.049,36.049,0,0,1,10.9,36.48h9.48l1.68.32V34.24l-1.68.32H10.144v-6.8c.52-.4.64-.6.64-.88,0-.44-.32-.64-1-.64H6.1v8.32h-8.84l-1.68-.32V36.8l1.68-.32h7.56l-.12.32A67.811,67.811,0,0,1-5.5,55.88l1.12,1.24C-.416,54,2.7,50,6.1,43.68Zm-16.16,9.16H-6.1V35.16a1.647,1.647,0,0,1,.12-.32c.68-1.68,1.24-3.28,2.12-6.08.68-.16,1-.44,1-.88a.8.8,0,0,0-.68-.76L-7.976,26a85.357,85.357,0,0,1-7.08,21.92l1.24,1a46.616,46.616,0,0,0,3.76-5.44Zm63-35.16c.72-.24,1-.48,1-.84a.676.676,0,0,0-.6-.6L49.5,26c-2.64,6.32-4.68,9.56-8.28,13.12l.88,1.4a26.258,26.258,0,0,0,3.88-2.72v1.8l1.64-.32h2.36v3.36h-6.72v9.8h6.12c-.8,4.56-3.2,7.44-8.12,9.76l.56,1.4c5.52-1.28,9.2-4.36,10.56-8.8,1.88,4.36,4.4,7.08,8.12,8.64a28.926,28.926,0,0,1,2.04-4c-4.44-1.44-7.4-3.68-9.36-7h7.6v-9.8h-7.44V39.28h2.72l1.68.32V38a20.984,20.984,0,0,0,2.88,2.08A29.249,29.249,0,0,1,62.544,36a22.39,22.39,0,0,1-9.68-7.68Zm-.72,1.68A21.465,21.465,0,0,0,56.9,37.2l-.84.16h-8.44l-1-.2a28.167,28.167,0,0,0,5.52-7.48Zm-5.68,20.84V44.4h3.4c-.04,2.08-.12,3.28-.36,6.28Zm6.52,0c.2-3.56.2-3.76.24-6.28h3.92v6.28Zm-15,5.64v.16c-.56,4.4-.64,4.6-2.2,4.64h-3.28V63.2h4.8c2.4-.04,3.2-.76,3.6-3.28A115.594,115.594,0,0,0,42.1,46.48h-5.12V41.72h2.48l1.64.32V39.48l-1.64.32h-2.48V35.48h2.44l1.68.32V33.24l-1.68.32h-2.44V29.28h3.68l1.68.32V27.04l-1.68.32H26.7V48.4h11.96c-.12,2.36-.16,3.24-.28,4.52a19.945,19.945,0,0,0-1.96-3.2l-1.12.32a38.739,38.739,0,0,1,2.08,6.48Zm-4.44-27.04v4.28H30.3V29.28Zm0,6.2V39.8H30.3V35.48Zm0,6.24v4.76H30.3V41.72ZM28.144,60a21.214,21.214,0,0,0,.6-5.12,40.816,40.816,0,0,0-.28-4.32h-1.6c-.52,3.88-1.04,5.92-1.92,7.72Zm1.4-9.28a35.991,35.991,0,0,1,.44,7.48l2.68-.56a24.1,24.1,0,0,0-1.8-7.2Zm2.8-.28a28.383,28.383,0,0,1,1.52,6.96l2.44-.6a23.9,23.9,0,0,0-2.68-6.68ZM89.232,28.9v8.736h-3.36L83.424,31.2H74.4V42.384h4.992V38.64h2.88v9.888h-2.88V44.784H74.4V57.7h3.744V60h-13.3V57.7h3.744V31.2H64.848V28.9Zm27.84,28.8V60h-13.3V57.7h3.744l-2.928-8.688H95.52L92.5,57.7h3.552V60H86.016V57.7h3.648L99.936,28.9h3.408l10.272,28.8Zm-13.3-11.088L100.224,36.1h-.24L96.336,46.608ZM129.024,31.2V57.7h4.656V60H118.56V57.7h4.656V31.2H118.56V28.9h15.12v2.3Zm36.432,26.5V60h-8.592l-8.736-14.112H145.44V57.7h3.744V60h-13.3V57.7h3.744V31.2h-3.744V28.9h14.448q4.944,0,7.488,2.4a7.907,7.907,0,0,1,2.544,6,8.055,8.055,0,0,1-1.632,4.992,8.8,8.8,0,0,1-4.512,3.072l7.92,12.336ZM145.44,43.584h4.368a3.755,3.755,0,0,0,3.12-1.848,7.535,7.535,0,0,0,1.3-4.44,7.248,7.248,0,0,0-1.248-4.392,3.781,3.781,0,0,0-3.168-1.7H145.44Zm22.224,13.728a3.2,3.2,0,1,1,.936,2.28A3.1,3.1,0,0,1,167.664,57.312Z" transform="translate(480.836 1126.383)" fill="#fff"/>
    </g>
    <path id="パス_57289" data-name="パス 57289" d="M.792-.864h1.92V-14.688H.792v-.864H4.9l5.28,12.024,5.088-12.024h4.008v.864h-1.92V-.864h1.92V0h-5.88V-.864h1.92v-12.12L10.176-.888h-1.1L3.744-13.08V-.864H5.592V0H.792Zm26.808,0V0H20.856V-.864h2.352V-14.688H20.952v-.864H27.5v.864H25.248V-.864Zm1.584,0H31.1V-14.688h-1.92v-.864H33.1L40.32-3.888v-10.8H38.4v-.864h4.872v.864h-1.92V0h-1.1L32.136-13.224V-.864h1.92V0H29.184Zm22.176,0V0H44.616V-.864h2.352V-14.688H44.712v-.864h6.552v.864H49.008V-.864ZM68.032-16.24l-.6.62c-1.2.1-2.06.14-4.3.18l-1.26-.42.12,1.32c.7.02,1.22.04,1.56.04,1,0,2.3-.06,3.92-.2-.82,2.54-1.24,3.7-2.02,5.78a9.228,9.228,0,0,0-2.44.4,4.8,4.8,0,0,0-3.66,4.56c0,1.7,1.02,3,2.36,3a3.226,3.226,0,0,0,2.56-1.74,29.275,29.275,0,0,0,2.5-5.18,19.231,19.231,0,0,1,5.92,1.24c-.74,3.66-2.06,5.64-4.84,7.26l.26.5a8.231,8.231,0,0,0,4.34-2.74,9.871,9.871,0,0,0,1.86-4.36c.98.46,1.38.66,2.34,1.2l.58-1.36a19.828,19.828,0,0,0-2.66-1.18c.14-.84.2-1.24.3-2.18.26-.16.36-.3.36-.46s-.16-.3-.46-.36l-1.64-.38.02.86c-.1,1.02-.12,1.12-.24,2a27.881,27.881,0,0,0-5.76-1.04c.9-2.36,1.16-3.08,2.02-5.58.4-.24.56-.44.56-.66a.521.521,0,0,0-.3-.42Zm-3.22,8.96c-1.7,3.98-2.42,5.12-3.26,5.12-.56,0-1.02-.7-1.02-1.58a4.031,4.031,0,0,1,2.16-3.4,5.875,5.875,0,0,1,2.36-.68Zm19.2-6.64c-1.7,0-2.4-.04-3.48-.1l-1.08-.46.1,1.36c1.44.1,2.14.12,3.38.12h.78a44.192,44.192,0,0,1-4.54,9.82l1.52.98a53.133,53.133,0,0,0,4.82-10.86c1.52-.06,3.18-.2,4.84-.42l.06-1.42-1.24.62c-1.42.16-2.24.24-3.34.3a2.378,2.378,0,0,1,.08-.28c.06-.18.24-.72.42-1.3.3-.2.36-.3.36-.44a.323.323,0,0,0-.28-.32l-1.76-.34-.16,1.02c-.1.4-.18.7-.22.84l-.24.82ZM96.772-2.06a12.213,12.213,0,0,0-4.88-2.66V-8.46c.32-.22.4-.3.4-.44,0-.2-.18-.32-.48-.32l-1.58-.02.06,1.48v2.72a10.78,10.78,0,0,0-1.76-.14c-2.6,0-4.16,1.12-4.16,3,0,1.9,1.86,3.28,4.42,3.28a3.04,3.04,0,0,0,2.82-1.2,3.033,3.033,0,0,0,.28-1.5V-3.26a13.214,13.214,0,0,1,3.7,2.7Zm-6.48.38c0,.96-.56,1.42-1.74,1.42-1.84,0-3.2-.86-3.2-2.04a1.371,1.371,0,0,1,.36-.92,3.444,3.444,0,0,1,2.5-.74,7.347,7.347,0,0,1,2.08.28Zm6.72-9.88a9.912,9.912,0,0,0-3.92-.64,10.034,10.034,0,0,0-3.52.52l.04.56a14.914,14.914,0,0,1,6.28,1.2Zm9.84-3.98c.24-.2.32-.34.32-.5a.374.374,0,0,0-.38-.34h-1.98l.34,1.2,1.26,6.08a18.048,18.048,0,0,0-2.48,1.48c-1.96,1.4-2.8,2.66-2.8,4.18a3.571,3.571,0,0,0,2.4,3.4,14.77,14.77,0,0,0,5.58.74,38.1,38.1,0,0,0,5.68-.34V-1.58a30.144,30.144,0,0,1-5.86.54c-4.52,0-6.44-.74-6.44-2.52,0-2.38,3.62-4.54,11.54-6.92a1.108,1.108,0,0,0,.54.18.364.364,0,0,0,.34-.32.691.691,0,0,0-.06-.24l-.7-1.62-.7.52c-1.56.6-3.06,1.16-4.48,1.72-.4.16-.68.26-.98.4Zm21.18-.7-.6.62c-1.2.1-2.06.14-4.3.18l-1.26-.42.12,1.32c.7.02,1.22.04,1.56.04,1,0,2.3-.06,3.92-.2-.82,2.54-1.24,3.7-2.02,5.78a9.228,9.228,0,0,0-2.44.4,4.8,4.8,0,0,0-3.66,4.56c0,1.7,1.02,3,2.36,3a3.226,3.226,0,0,0,2.56-1.74,29.275,29.275,0,0,0,2.5-5.18,19.231,19.231,0,0,1,5.92,1.24c-.74,3.66-2.06,5.64-4.84,7.26l.26.5a8.231,8.231,0,0,0,4.34-2.74,9.871,9.871,0,0,0,1.86-4.36c.98.46,1.38.66,2.34,1.2l.58-1.36a19.827,19.827,0,0,0-2.66-1.18c.14-.84.2-1.24.3-2.18.26-.16.36-.3.36-.46s-.16-.3-.46-.36l-1.64-.38.02.86c-.1,1.02-.12,1.12-.24,2a27.882,27.882,0,0,0-5.76-1.04c.9-2.36,1.16-3.08,2.02-5.58.4-.24.56-.44.56-.66a.521.521,0,0,0-.3-.42Zm-3.22,8.96c-1.7,3.98-2.42,5.12-3.26,5.12-.56,0-1.02-.7-1.02-1.58a4.031,4.031,0,0,1,2.16-3.4,5.875,5.875,0,0,1,2.36-.68Zm18.2,3.14a8.23,8.23,0,0,1,1.88-2.18,8.045,8.045,0,0,1,5.08-1.84c2.26,0,3.66,1.16,3.66,3.02s-1.36,3.36-3.88,4.34a22.627,22.627,0,0,1-4.96,1.18l.08.68c3.54-.24,5.02-.46,6.56-1.04,2.7-1.02,4.2-2.8,4.2-5.02a3.865,3.865,0,0,0-1.18-2.84,5.931,5.931,0,0,0-4.18-1.36,8.929,8.929,0,0,0-6.8,2.9l.46-6.04c.28-.2.38-.32.38-.5s-.14-.32-.38-.34l-1.86-.2.14,1.04-.54,8.2Zm1.22-11.48a16.526,16.526,0,0,1,6.5,2.14l1.44-1.68a9.421,9.421,0,0,0-1.9-.66,19.565,19.565,0,0,0-4.28-.52c-.44,0-.84.02-1.7.06ZM166.692-4.4c-.46,1.82-1.08,3.04-1.56,3.04-.46,0-1.18-.94-1.74-2.22-.74-1.76-1.12-4.58-1.12-8.56v-1.28c.34-.24.44-.36.44-.56s-.2-.34-.5-.36l-1.8-.12.1,1.2c.02,2.58.04,3.96.04,4.14a18.829,18.829,0,0,0,1.2,6.3c.86,2.08,1.94,3.18,3.08,3.18,1.12,0,2.1-1.6,2.74-4.48Zm10.32.16c-.66-3.88-2.64-7.48-5.12-9.34l-.5.38a24.36,24.36,0,0,1,3.7,9.82Z" transform="translate(399.708 1072.383)" fill="#fff"/>
  </g>
</svg>
