<svg xmlns="http://www.w3.org/2000/svg" width="442.23" height="80.8" viewBox="0 0 442.23 80.8">
  <g id="family-tit-sp" transform="translate(-39.76 -4880.6)">
    <path id="パス_57299" data-name="パス 57299" d="M-208.53,1.29V-23.22h-19.71V1.47h2.67V-.39h14.37V1.29Zm-17.04-14.04v-9.27h14.37v9.27Zm0,1.2h14.37v9.96h-14.37Zm42.96,4.29h4.2v4.59c-.03.96-.33,1.26-1.26,1.29h-1.38V-.12h2.4c1.8,0,2.58-.72,2.55-2.4V-8.46h-6.51v-3.3h6.24a13.462,13.462,0,0,1-1.02,2.64l.75.42a8.837,8.837,0,0,0,3.24-4.26h-17.1v-.21a3.17,3.17,0,0,0-.06-.78h-.96a7.139,7.139,0,0,1-2.25,4.5l1.59,1.83a5.827,5.827,0,0,0,1.62-4.14h5.7v3.3h-6.09V-.09h2.25V-7.26h3.84V2.4h2.25Zm4.29-11.88v2.64h-11.4l-1.2-.24v1.68l1.2-.24h13.74v-8.64h-13.77l-1.17-.24v1.68l1.17-.24h11.43v2.4h-11.4l-1.2-.24v1.68l1.2-.24ZM-200.43,1.53c5.31-4.26,6.66-7.98,6.63-18.09v-7.47c.36-.24.48-.39.48-.6,0-.27-.21-.39-.66-.39h-2.07v8.46c.06,8.88-1.08,12.96-4.95,17.43Zm1.29-11.1a14.644,14.644,0,0,0,1.17-6.78c0-1.14-.03-2.04-.15-3.84h-1.11A25.908,25.908,0,0,1-201-11.43Zm39.54,11.4a18.543,18.543,0,0,0,4.08-.87,12.855,12.855,0,0,0,6.51-4.71c1.32-1.98,1.83-4.53,1.83-8.91,0-2.31-.06-8.1-.09-10.08.36-.33.51-.54.51-.81,0-.3-.27-.48-.69-.51l-2.91-.24.21,1.62c.18,3.09.24,6.15.24,10.11,0,5.4-.84,7.77-3.63,10.23A14.42,14.42,0,0,1-159.78.87Zm-5.19-23.97c-.36,4.32-.45,6.33-.45,8.79,0,4.8.87,6.96,2.76,6.96,1.83,0,3.66-2.34,4.83-6.18l-1.08-.48c-1.5,3.24-2.28,4.35-3,4.35-.6,0-.93-1.56-.93-4.53a75.921,75.921,0,0,1,.48-8.58c.45-.36.6-.57.6-.84s-.21-.45-.51-.51l-2.73-.36Zm53.07,11.79c.39,0,.66-.18.66-.42,0-.12-.09-.27-.39-.51l-1.65-1.35a32.1,32.1,0,0,1-3.33,4.59,23.686,23.686,0,0,1-1.17-5.79l.09-.06c1.02-.36,1.62-.63,3.75-1.59a3.363,3.363,0,0,0,.72.09c.36,0,.72-.24.72-.48a1.012,1.012,0,0,0-.33-.6l-1.68-1.44a47.373,47.373,0,0,1-12.99,5.4l.27.93c1.83-.3,2.61-.45,3.51-.63V2.01h2.37V-12.75c.84-.21,1.98-.54,2.55-.72l.06.81c.39,7.08,2.04,11.19,5.91,14.85A11.7,11.7,0,0,1-111-.06a17.492,17.492,0,0,1-5.13-7.14,18.9,18.9,0,0,0,4.14-3.15Zm-.99-9.12,1.2.24v-1.68l-1.2.24h-10.23c.39-.81.63-1.38,1.17-2.7.63-.15.9-.36.9-.75,0-.24-.27-.48-.6-.57l-2.49-.51a32.094,32.094,0,0,1-4.14,9.99l.63.51a23.023,23.023,0,0,0,3.87-4.77Zm-22.32.87v1.05c-.12,10.17-1.08,15.27-3.57,19.14l.57.51c3.12-2.67,4.74-7.38,5.16-14.76h2.7a107.528,107.528,0,0,1-.81,11.25c-.18,1.86-.39,2.19-1.5,2.22h-2.01V2.07h3.15c1.26,0,1.89-.36,2.28-1.2.42-1.14.81-4.71,1.02-10.23l.18-3.24c0-.12,0-.57.03-1.26h-4.98c.06-1.44.09-2.7.09-3.69V-18.6h4.35l1.2.24v-1.68l-1.2.24h-3.27v-4.23c.39-.27.48-.39.48-.6,0-.27-.21-.39-.63-.39h-2.31v5.22h-3.15l-1.2-.24v1.68l1.2-.24Zm50.58,5.1H-81l1.2.24v-1.68l-1.2.24H-95.67l-1.2-.24v1.68l1.2-.24h8.58V-.63c0,.96-.42,1.38-1.35,1.38h-3.27V2.01h4.53c1.92,0,2.76-.78,2.73-2.61ZM-102.96,2.22h2.49V-13.17c.66-.84,1.05-1.32,2.04-2.64.78-.06,1.05-.21,1.05-.63,0-.18-.12-.33-.36-.48l-2.1-1.38A47.031,47.031,0,0,1-107.4-8.19l.51.75a35.737,35.737,0,0,0,3.93-3.12Zm9.15-24.33h11.28l1.2.24v-1.74l-1.2.24H-93.81l-1.2-.24v1.74Zm-12.72,4.59a26.936,26.936,0,0,0,7.5-5.1,2.124,2.124,0,0,0,.81-.09.473.473,0,0,0,.36-.42c0-.15-.09-.3-.33-.48l-2.1-1.59a32.155,32.155,0,0,1-6.75,6.93Zm57.81,3.3a6.007,6.007,0,0,0-3.54-3.12l-.48.45a11.613,11.613,0,0,1,2.01,3.75Zm-7.56-2.25a12.984,12.984,0,0,1,1.83,4.14l2.01-.96a5.9,5.9,0,0,0-3.3-3.57Zm-19.17-5.64.21,2.07,18.21-.72a.573.573,0,0,1-.24.09,15.952,15.952,0,0,0-4.74,2.49,10.191,10.191,0,0,0-4.29,8.4,9.523,9.523,0,0,0,3.66,7.8c1.89,1.5,3.48,2.13,6.9,2.76l1.14-3.12c-3.09-.33-4.5-.81-6.18-2.04a7.079,7.079,0,0,1-2.94-6.09c0-4.11,2.37-7.29,6.84-9.15a17.577,17.577,0,0,1,6.42-1.32l.15-2.1-1.98.72-21.42.75Zm43.56,19.5c-1.14.21-1.71.27-3.42.48l.6,2.19c.12.45.27.63.51.63.27,0,.42-.18.63-.69a42.885,42.885,0,0,0,8.46-3.36l-.3-.78c-1.95.57-2.64.72-4.23,1.08v-8.16h1.77l1.2.24v-1.68l-1.2.24h-5.88l-1.2-.24v1.68l1.2-.24h1.86Zm-1.98-16.23-1.2-.24v1.68l1.2-.24h7.98c.39,6.72.93,10.47,1.98,13.77,1.08,3.3,3.03,5.94,4.41,5.94.69,0,1.26-.78,1.5-2.04a37.028,37.028,0,0,0,.57-5.67l-1.17-.24c-.27,4.05-.45,5.16-.84,5.16s-1.41-1.77-2.04-3.6c-1.11-3.09-1.68-6.84-2.07-13.32h4.59l1.2.24v-1.68l-1.2.24h-4.65c-.09-1.2-.12-2.49-.12-4.05v-1.14c.39-.27.48-.39.48-.6,0-.27-.21-.39-.63-.39h-2.19v2.13c0,.69.03,2.28.12,4.05ZM-41.67.21h3.24V1.32h2.04V-7.29h-7.32v9h2.04Zm0-1.11V-6.18h3.24V-.9Zm19.11-22.65a31.178,31.178,0,0,1,2.1,3.75l2.04-1.62a14.823,14.823,0,0,0-3.48-2.64Zm-15.06-.3h-4.89l-1.2-.24v1.74l1.2-.24h4.89l1.2.24v-1.74Zm.75,4.14H-43.8l-1.2-.24v1.74l1.2-.24h6.93l1.17.24v-1.74Zm-.75,4.14h-4.89l-1.2-.24v1.74l1.2-.24h4.89l1.2.24v-1.74Zm0,4.14h-4.89l-1.2-.24v1.74l1.2-.24h4.89l1.2.24v-1.74Zm35.4,4.17A32.207,32.207,0,0,1-13.8.42l.21.84C-8.52-.06-4.05-2.28-1.38-4.83v7.2H.93V-6.48A20.966,20.966,0,0,0,12.69,1.08,11.951,11.951,0,0,1,13.8-1.38C9.03-2.25,3.63-4.83,1.41-7.26h9.84l1.2.24V-8.7l-1.2.24H8.07v-4.23h4.38l1.2.24v-1.68l-1.2.24H8.07v-3.99h3.18l1.2.24v-1.68l-1.2.24H.93V-21.9l1.29-.09a42.73,42.73,0,0,0,4.59-.45c.81-.09,1.62-.18,2.46-.3a2.624,2.624,0,0,0,.9.24.611.611,0,0,0,.66-.54c0-.15-.09-.27-.27-.42L8.49-25.05c-3.36.96-11.94,2.04-20.25,2.58l.03.99c2.01.03,2.25.03,2.85.03,2.22,0,3.93-.06,5.58-.15l.96-.06c.09-.03.45-.03.96-.06v2.64h-9.9l-1.17-.24v1.68l1.17-.24h2.91v3.99h-4.08l-1.2-.24v1.68l1.2-.24h4.08v4.23h-2.91l-1.17-.24v1.68l1.17-.24Zm7.95-1.2H.93v-4.23h4.8Zm0-5.43H.93v-3.99h4.8ZM-6.03-17.88h4.65v3.99H-6.03Zm0,5.19h4.65v4.23H-6.03Zm38.01-5.64-.39-4.8c.36-.3.51-.48.51-.72,0-.33-.27-.54-.69-.54H28.47l.36,1.68.36,4.56-8.25.54-1.2-.18.12,1.86,1.17-.3,8.28-.54.63,7.62-10.8.69-1.2-.15.12,1.86,1.17-.33,10.83-.69.81,9.6,2.79-.18-.81-9.6,10.23-.63,1.35.15-.15-1.89-1.29.33-10.26.66-.63-7.62,8.76-.54,1.35.18-.12-1.92-1.32.36Zm29.04,6.9,7.86-1.05A13.586,13.586,0,0,1,63.9-6.06l.45.69c4.11-1.62,7.29-5.19,7.95-8.91l-11.43,1.5-.48-3.99c.33-.27.45-.45.45-.63a.459.459,0,0,0-.51-.45H57.6l.24,1.53.45,3.87-4.74.63-1.32-.06.24,1.86,1.26-.42,4.74-.63L60,2.13l2.58-.33Zm45.12-7.35a29.778,29.778,0,0,1-7.65,9.72C94.5-5.82,91.08-4.29,84.72-2.97l-1.59.03L84.21-.27c.18.42.45.66.75.66.33,0,.57-.21.78-.69,6.78-1.53,11.04-3.57,14.73-7.05a25.287,25.287,0,0,0,6.51-11.04ZM82.86-22.05a28.2,28.2,0,0,1,7.47,6.42l2.46-2.49a18.514,18.514,0,0,0-9.57-4.71ZM138.57-2.88C134.46-7.02,127.35-15,123.9-19.41c-1.38-1.77-1.92-2.28-2.46-2.28-.51,0-1.2.54-2.01,1.59-3.6,4.44-4.92,6-6.93,8.16L111-10.68l1.68,2.28c.21.3.39.42.6.42.36,0,.54-.27.57-.84,2.76-3.96,6.21-8.82,6.99-9.84.33-.45.57-.69.69-.69s.36.21.6.57A191.271,191.271,0,0,0,136.44-.33Zm-3.03-22.23a3.048,3.048,0,0,0-3.09,3,3.047,3.047,0,0,0,3.03,3.06,3.041,3.041,0,0,0,3.03-3.03A3.029,3.029,0,0,0,135.54-25.11Zm-.09,1.2a1.844,1.844,0,0,1,1.86,1.83,1.818,1.818,0,0,1-1.83,1.83,1.837,1.837,0,0,1-1.83-1.83A1.851,1.851,0,0,1,135.45-23.91Zm33.27,11.79-25.05-.93V-9.9l25.05-.9Zm31.02-6.66a29.778,29.778,0,0,1-7.65,9.72c-3.99,3.24-7.41,4.77-13.77,6.09l-1.59.03,1.08,2.67c.18.42.45.66.75.66.33,0,.57-.21.78-.69,6.78-1.53,11.04-3.57,14.73-7.05a25.287,25.287,0,0,0,6.51-11.04Zm-23.28-3.27a28.2,28.2,0,0,1,7.47,6.42l2.46-2.49a18.514,18.514,0,0,0-9.57-4.71ZM209.37-6.99a4.7,4.7,0,0,0-4.77,4.65,4.705,4.705,0,0,0,4.71,4.74,4.712,4.712,0,0,0,4.68-4.71A4.734,4.734,0,0,0,209.37-6.99Zm-.12,1.38a3.317,3.317,0,0,1,3.36,3.27,3.323,3.323,0,0,1-3.3,3.36,3.342,3.342,0,0,1-3.33-3.33A3.343,3.343,0,0,1,209.25-5.61Z" transform="translate(268 4959)" fill="#fff"/>
    <path id="パス_57298" data-name="パス 57298" d="M-145.9-1.8h4V-30.6h-4v-1.8h8.55l11,25.05,10.6-25.05h8.35v1.8h-4V-1.8h4V0h-12.25V-1.8h4V-27.05l-10.7,25.2h-2.3l-11.1-25.4V-1.8h3.85V0h-10Zm55.85,0V0H-104.1V-1.8h4.9V-30.6h-4.7v-1.8h13.65v1.8h-4.7V-1.8Zm3.3,0h4V-30.6h-4v-1.8h8.15L-63.55-8.1V-30.6h-4v-1.8H-57.4v1.8h-4V0h-2.3L-80.6-27.55V-1.8h4V0H-86.75Zm46.2,0V0H-54.6V-1.8h4.9V-30.6h-4.7v-1.8h13.65v1.8h-4.7V-1.8ZM-.65-32.4v8.7h-1.9L-5.2-30.6H-16.75v12.55H-8.9V-21.9h2.3v9.6H-8.9v-3.85h-7.85V-1.8h4.3V0H-25V-1.8h4V-30.6h-4v-1.8ZM27.95-1.8V0H16.35V-1.8H20L16.4-11.95H5.65L2.05-1.8H5.7V0H-3.65V-1.8H-.1L10.95-32.4H13.3L24.4-1.8ZM15.7-13.85,11.1-26.8h-.2L6.3-13.85ZM30.15-1.8h4V-30.6h-4v-1.8H38.7l11,25.05L60.3-32.4h8.35v1.8h-4V-1.8h4V0H56.4V-1.8h4V-27.05L49.7-1.85H47.4L36.3-27.25V-1.8h3.85V0h-10ZM86-1.8V0H71.95V-1.8h4.9V-30.6h-4.7v-1.8H85.8v1.8H81.1V-1.8Zm3.3,0h4V-30.6h-4v-1.8h12.4v1.8H97.55V-1.8h11.7l2.65-7h1.9V0H89.3Zm40-12.9V-1.8h4.4V0H120.65V-1.8h4.4V-13.4L116.5-30.6h-4v-1.8h12.7v1.8h-4l6.9,14.05,7.2-14.05h-4v-1.8h10.25v1.8h-4ZM142.3.55a2.893,2.893,0,0,1-2.125-.875A2.893,2.893,0,0,1,139.3-2.45a2.893,2.893,0,0,1,.875-2.125A2.893,2.893,0,0,1,142.3-5.45a2.893,2.893,0,0,1,2.125.875A2.893,2.893,0,0,1,145.3-2.45a2.893,2.893,0,0,1-.875,2.125A2.893,2.893,0,0,1,142.3.55Z" transform="translate(268 4913)" fill="#fff"/>
  </g>
</svg>
