<svg xmlns="http://www.w3.org/2000/svg" width="1040" height="56" viewBox="0 0 1040 56">
  <g id="pull-close" transform="translate(-160 -2396.999)">
    <path id="パス_57288" data-name="パス 57288" d="M0,0H1040V56H0Z" transform="translate(160 2396.999)" fill="#fff"/>
    <g id="グループ_1219" data-name="グループ 1219" transform="translate(0 -1)">
      <path id="パス_57287" data-name="パス 57287" d="M-434.322-7.74a9.192,9.192,0,0,0-2.826,1.35,4.339,4.339,0,0,0-2,3.546c0,2.142,1.8,3.744,4.23,3.744a2.515,2.515,0,0,0,1.584-.468,2.2,2.2,0,0,0,.522-1.62V-7.182a12.743,12.743,0,0,1,1.98-.162,5.727,5.727,0,0,1,2.934.63,3.39,3.39,0,0,1,1.638,3.042,3.1,3.1,0,0,1-3.06,3.294,3.554,3.554,0,0,1-1.692-.45l-.27.5a3.617,3.617,0,0,0,2.5.882,4,4,0,0,0,4.158-4.122,4.3,4.3,0,0,0-2.142-3.816,7.855,7.855,0,0,0-4.032-.846,11.8,11.8,0,0,0-2.016.162v-3.042c1.728-.09,3.834-.288,4.788-.45l.072-1.332-1.1.558a24.351,24.351,0,0,1-3.762.4v-2.2c.27-.18.36-.288.36-.45s-.162-.288-.378-.306l-1.638-.126.144,1.116v2.016c-.432.018-.72.018-1.008.018-.882,0-1.458-.018-2.394-.09l-1.08-.36.108,1.17c1.494.09,2.2.108,3.258.108.468,0,.756,0,1.116-.018Zm0,6.408c0,.9-.234,1.224-.864,1.224A2.684,2.684,0,0,1-437.76-2.9a3.506,3.506,0,0,1,.99-2.358A5.979,5.979,0,0,1-434.322-6.8Zm6.858-12.276a10.679,10.679,0,0,1,2.25,3.582l1.494-.846a5.956,5.956,0,0,0-3.456-3.024Zm14.13,1.026v-1.944c.234-.162.288-.234.288-.36,0-.162-.126-.234-.378-.234h-1.4v2.538h-6.138v10.8h1.512v-1.53h4.626V1.44h1.494V-3.312h4.788v1.386h1.512V-12.582Zm0,.72h4.788v3.42h-4.788Zm0,4.14h4.788v3.69h-4.788Zm-1.494,3.69h-4.626v-3.69h4.626Zm0-4.41h-4.626v-3.42h4.626Zm14.04,7.29C-399.744.234-398.718.7-396.36.828c.936.054,3.2.108,4.968.108.756,0,1.8-.018,3.222-.036a11.58,11.58,0,0,1,.432-1.422c-1.17.072-4.14.144-6.372.144-2.916,0-4.212-.108-4.95-.414a3.182,3.182,0,0,1-1.224-.828V-8.28h-3.168l-.72-.144v1.008l.72-.144h1.728v6.012a19.7,19.7,0,0,1-2.556.972L-403.7.99a.311.311,0,0,0,.252.2c.18,0,.324-.2.414-.594a17.943,17.943,0,0,0,2.2-1.71Zm4.212-13.284-.72-.144v1.044l.72-.144h2.934c.018.486.018.7.036.936-.918,4.77-2.844,8.226-5.8,10.44l.234.432a11.715,11.715,0,0,0,6.012-7.362,11.705,11.705,0,0,0,4.446,7.182c.45-.774.522-.882.972-1.6a10.454,10.454,0,0,1-4.14-4.968,15.355,15.355,0,0,1-.936-5.814Zm-3.042,1.242a8.262,8.262,0,0,0-3.6-1.332l-.216.45a12.608,12.608,0,0,1,2.826,2.5ZM-378-14.616l-.54.558c-1.08.09-1.854.126-3.87.162l-1.134-.378.108,1.188c.63.018,1.1.036,1.4.036.9,0,2.07-.054,3.528-.18-.738,2.286-1.116,3.33-1.818,5.2a8.305,8.305,0,0,0-2.2.36,4.316,4.316,0,0,0-3.294,4.1c0,1.53.918,2.7,2.124,2.7a2.9,2.9,0,0,0,2.3-1.566,26.348,26.348,0,0,0,2.25-4.662,17.308,17.308,0,0,1,5.328,1.116c-.666,3.294-1.854,5.076-4.356,6.534l.234.45a7.408,7.408,0,0,0,3.906-2.466,8.884,8.884,0,0,0,1.674-3.924c.882.414,1.242.594,2.106,1.08l.522-1.224a17.843,17.843,0,0,0-2.394-1.062c.126-.756.18-1.116.27-1.962.234-.144.324-.27.324-.414s-.144-.27-.414-.324l-1.476-.342.018.774c-.09.918-.108,1.008-.216,1.8a25.093,25.093,0,0,0-5.184-.936c.81-2.124,1.044-2.772,1.818-5.022.36-.216.5-.4.5-.594a.469.469,0,0,0-.27-.378Zm-2.9,8.064c-1.53,3.582-2.178,4.608-2.934,4.608-.5,0-.918-.63-.918-1.422a3.628,3.628,0,0,1,1.944-3.06,5.288,5.288,0,0,1,2.124-.612Zm23.868-3.528.126,5.742a9.81,9.81,0,0,0-2.538-.36c-2,0-3.348,1.044-3.348,2.592a2.37,2.37,0,0,0,.63,1.6A4.736,4.736,0,0,0-358.848.648,3.5,3.5,0,0,0-355.77-.666a3.18,3.18,0,0,0,.4-1.656V-2.43a10.944,10.944,0,0,1,2.646,1.944l.99-1.332a12.478,12.478,0,0,0-3.654-2.124l-.126-6.192c1.008-.054,2.412-.2,3.366-.342l.072-1.314-1.17.54a20.937,20.937,0,0,1-2.286.27l-.054-2.682c.234-.162.324-.306.324-.468a.332.332,0,0,0-.324-.306l-1.656-.108.144.918.054,2.736c-.954.036-1.71.054-2.34.054-.54,0-1.35-.018-2.412-.054l-1.08-.342.126,1.17c1.188.036,1.728.054,2.556.054.63,0,.63,0,3.114-.072Zm.18,7.506v.108a2.553,2.553,0,0,1-.288,1.1,2.331,2.331,0,0,1-2.016.792,3.939,3.939,0,0,1-2.268-.666,1.142,1.142,0,0,1-.468-.936c0-.918.864-1.494,2.214-1.494a6.646,6.646,0,0,1,2.808.63ZM-364.716.36a42.281,42.281,0,0,1-.486-6.282,59.945,59.945,0,0,1,.558-7.434c.27-.18.36-.306.36-.45,0-.2-.162-.342-.432-.378l-1.512-.252v.936a67.564,67.564,0,0,0-.522,7.974,44.623,44.623,0,0,0,.4,6.174Zm19.8-.216a10.823,10.823,0,0,0-5.022-3.438l-.342.432a16.066,16.066,0,0,1,3.888,4.3Zm20.646-13.392h-6.606v3.1c0,6.8-.234,8.658-1.4,11.178l.414.252c2.16-2.736,2.466-4.158,2.5-11.43v-2.376h12.69l.72.144v-1.008l-.72.144h-5.958v-1.278c.234-.162.288-.234.288-.36,0-.162-.126-.234-.378-.234h-1.548Zm4.59,5.4a23.159,23.159,0,0,1,2.358,5.814l1.6-.936a14.443,14.443,0,0,0-3.438-5.256Zm-.594-1.98a9.269,9.269,0,0,0-3.8-1.854l-.306.486a14.365,14.365,0,0,1,2.826,2.718Zm-7.254,9.486c.126-.378.216-.63.234-.7a23.114,23.114,0,0,0,.576-5.562c0-.306,0-.432-.018-.72l-.72-.072a18.529,18.529,0,0,1-1.674,6.3Zm2.394-8.568V-.72c0,1.134.45,1.584,1.62,1.6h2.9c1.062,0,1.512-.414,1.548-1.458l.126-2.556-.81-.09L-319.9-1.1c-.036.486-.18.612-.666.63h-2.358c-.666-.036-.756-.126-.774-.738v-7.11c.234-.162.288-.234.288-.36,0-.162-.126-.234-.378-.234Zm17.694,6.48C-308.2-.738-309.978.36-312.966.954l.126.486c4.05-.45,6.21-1.656,6.894-3.87h3.51c-.252,2.664-.378,2.916-1.512,2.9h-1.44v.756h2.268c.936,0,1.332-.18,1.656-.738.216-.414.324-1.17.522-3.636h-4.842c.054-.252.072-.432.144-.99.234-.126.306-.216.306-.342,0-.162-.126-.234-.432-.252l-1.314-.036a10.076,10.076,0,0,1-.162,1.62H-310.1l-.72-.144v1.008l.72-.144Zm-2.124-9.4h-2.376v4.644h3.312a11.911,11.911,0,0,1-.828,1.116h-4l-.72-.144V-5.2l.72-.144h3.366a15.251,15.251,0,0,1-4.194,3.078l.252.432a13.014,13.014,0,0,0,5.6-3.51h5.49a8.335,8.335,0,0,0,4.7,3.474,7.094,7.094,0,0,1,.522-1.4,10.565,10.565,0,0,1-4.482-2.07h3.654l.72.144V-6.21l-.72.144h-9.288c.2-.234.522-.684.81-1.116h6.966v-4.644h-2.52V-12.96h3.924l.7.144v-1.008l-.7.144h-3.924v-.846c.234-.162.288-.234.288-.36,0-.162-.126-.234-.378-.234h-1.314v1.44h-4.176v-.846c.234-.162.288-.234.288-.36,0-.162-.126-.234-.378-.234h-1.314v1.44h-3.78l-.7-.144v1.008l.7-.144h3.78Zm1.4,0V-12.96h4.176v1.134ZM-310.536-7.9v-1.26h9.072V-7.9Zm0-1.98v-1.224h9.072v1.224ZM-292.806.162c3.294-.738,5.112-1.566,7-3.2,2.5-2.232,4.032-5.544,4.518-9.792h-12.366l-.792-.162v1.152l.792-.162h10.4C-284.184-6.084-287.37-2.3-293-.45Zm22.788-7.038A20.331,20.331,0,0,1-276.084-.4l.2.378a15.207,15.207,0,0,0,6.876-5.8l.144,5.094v.252c0,.468-.18.666-.648.666h-1.638v.828h2.628c.81,0,1.17-.342,1.188-1.188l-.18-6.714h2.286l.792.162V-7.866l-.792.162h-2.3l-.072-2.394c.216-.162.288-.27.288-.4,0-.162-.144-.252-.414-.27l-1.512-.054.126,1.1.054,2.016h-5.562l-.792-.162v1.152l.792-.162Zm25.65-.4L-259.4-7.83v1.89l15.03-.54Zm18.45,6.714a16.54,16.54,0,0,0-5.634-7.74l-.378.324a26.977,26.977,0,0,1,2.808,4.644c-3.438.5-5.688.738-9.054.954l.216-.4a83.441,83.441,0,0,0,4.5-10.26c.342-.144.486-.27.486-.468,0-.162-.126-.288-.378-.36l-1.782-.558-.18,1.044A94.621,94.621,0,0,1-239-2.9l-.252.612h-.108c-.486.036-.936.054-2.448.126l.576,1.566c.144.342.252.468.432.468.2,0,.324-.108.486-.432A78.312,78.312,0,0,0-228.78-2.646,28.212,28.212,0,0,1-227.628.468Zm10.566-1.872h1.476V-5.49c1.224-.378,2.412-.684,4.77-1.224a2.135,2.135,0,0,0,.54.09.322.322,0,0,0,.36-.324.8.8,0,0,0-.126-.342l-.648-1.08-.756.342c-.846.252-1.458.432-1.728.522l-2.376.792-.054.018a2.653,2.653,0,0,0-.558-1.764,2.621,2.621,0,0,0-1.854-.684,5.892,5.892,0,0,0-3.15.918c.666-.99,1.08-1.638,2-3.222h.954c2.34-.018,3.51-.072,5.778-.27l.18-1.314-1.368.54c-2.2.162-2.628.18-5.022.216h-.072l.828-1.476c.486-.162.576-.234.576-.414,0-.144-.126-.252-.378-.342l-1.422-.486-.252.792c-.522,1.044-.738,1.494-.99,1.944-1.008-.018-1.746-.036-3.24-.09L-223-12.8l.09,1.242c1.836.072,2.25.09,3.816.108a47.245,47.245,0,0,1-4.194,5.94l1.134.99,1.584-2.07a5.828,5.828,0,0,1,3.852-1.674,1.061,1.061,0,0,1,1.206.864,4.792,4.792,0,0,1,.162,1.26,19.768,19.768,0,0,0-2.3,1.026c-1.872,1.008-2.7,1.98-2.7,3.2a2.245,2.245,0,0,0,1.224,2A11.147,11.147,0,0,0-214.2.846,30.857,30.857,0,0,0-210.294.63V-.99a22.008,22.008,0,0,1-4.176.4,10.009,10.009,0,0,1-4.014-.576,1.119,1.119,0,0,1-.612-.99c0-1.008,1.116-1.854,3.744-2.826Zm13.968-12.006-.756-.144v1.134l.756-.144h3.132c.036.792.054,1.026.09,1.692a27.518,27.518,0,0,1-2.052,4.95A21.842,21.842,0,0,1-206.28.684l.27.522A16.542,16.542,0,0,0-200.9-2.952a22,22,0,0,0,3.33-5.616,16.744,16.744,0,0,0,6.588,9.594,12.722,12.722,0,0,1,1.26-1.674A16.293,16.293,0,0,1-195.5-6.624c-1.386-2.538-1.764-4.158-1.89-7.812Zm18.99,3.51a22.773,22.773,0,0,1-1.026,5.814A10.816,10.816,0,0,1-188.28.666l.27.576a10.756,10.756,0,0,0,5.85-5.292,19.357,19.357,0,0,0,1.4-6.876h6.156c-.09,2.772-.432,7.74-.612,8.964C-175.374-.234-175.68.18-176.76.162h-2.394v.846h3.24c1.53.018,2.178-.594,2.34-2.232.2-1.26.612-7.9.684-10.458h-7.83c.054-.612.072-1.188.072-1.782v-1.062c.216-.162.288-.234.288-.36,0-.162-.126-.234-.378-.234H-182.3v1.656c0,.432-.018,1.062-.054,1.782h-4.752l-.7-.144v1.044l.7-.144Zm22.878-1.494v-1.674c.27-.18.36-.288.36-.45s-.144-.288-.36-.306l-1.638-.126.144,1.116v1.476l-.594.018c-1.8.036-2.376.054-3.006.054-.792,0-3.672-.054-4.5-.072l-.99-.378.072,1.134c.936.09,3.06.144,5.31.144.81,0,1.386-.018,3.1-.054l.612-.018V-8.82a2.936,2.936,0,0,0-2.106-.846,3.505,3.505,0,0,0-3.528,3.6,3.023,3.023,0,0,0,.756,2.142A3.514,3.514,0,0,0-163.4-2.88a3.343,3.343,0,0,0,2.322-.918c-.432,2.52-2.16,4.05-5.166,4.536l.108.558A8.476,8.476,0,0,0-161.8-.018c1.638-1.17,2.286-2.628,2.286-5.148v-6.426h.234a48.776,48.776,0,0,0,5.346-.306l.054-1.206-1.062.432c-1.728.144-2.862.216-4.284.252Zm-1.494,7.452a2.491,2.491,0,0,1-2.034,1.17A2.133,2.133,0,0,1-165.1-6.174a2.359,2.359,0,0,1,2.232-2.574,2.232,2.232,0,0,1,1.854.99Zm21.276-7.992c.522-.09.738-.234.738-.486a.506.506,0,0,0-.324-.432l-1.224-.648-.522.5c-1.908.126-2.52.144-6.66.2l-1.116-.414.144,1.278c3.294-.018,5.238-.072,7.02-.18l-9.36,7.884.882,1.062,2.322-1.944a11.4,11.4,0,0,1,5.04-1.26c2.466,0,3.96,1.152,3.96,3.06a3.461,3.461,0,0,1-1.152,2.574,4,4,0,0,1-1.6.954,5.872,5.872,0,0,0-1.332-2.016A4.427,4.427,0,0,0-146-4.194c-1.422,0-2.412.81-2.412,1.98,0,1.674,2.214,2.988,5.04,2.988,3.474,0,6.21-2.2,6.21-4.986,0-2.484-2.124-4.068-5.454-4.068a9.444,9.444,0,0,0-3.4.612ZM-142.65-.522a2.858,2.858,0,0,1-.792.072,6.477,6.477,0,0,1-3.078-.72,1.281,1.281,0,0,1-.81-1.116c0-.558.5-.936,1.278-.936a3.877,3.877,0,0,1,3.456,2.7Zm12.636-10.458A53.1,53.1,0,0,1-133.758.252l1.6.45a60.322,60.322,0,0,0,3.708-11.718h.162a44.448,44.448,0,0,0,5.8-.45l.054-1.242-1.242.522c-1.422.18-2.34.252-4.536.342h-.054V-11.9c.054-.216.09-.414.144-.612.036-.2.144-.72.252-1.278.234-.162.342-.288.342-.432a.38.38,0,0,0-.324-.324l-1.584-.306-.036,1.116c-.162.9-.234,1.242-.378,1.944h-2.934l-1.134-.378.108,1.206c2.664,0,2.988,0,3.6-.018Zm12.474-2.448a3.555,3.555,0,0,0-2.124-1.872l-.288.252a7.27,7.27,0,0,1,1.206,2.268Zm-9.126,8.676a5.005,5.005,0,0,0-.612,2.358c0,2.088,1.728,3.042,5.544,3.042a19.9,19.9,0,0,0,3.1-.216V-1.314a13.751,13.751,0,0,1-3.456.414q-4.266,0-4.266-2.052a5.13,5.13,0,0,1,.27-1.638Zm7.326-4.482a13.372,13.372,0,0,0-1.854-.126,9.684,9.684,0,0,0-4.914,1.134l.144.54a16.277,16.277,0,0,1,3.33-.288,12.573,12.573,0,0,1,3.294.36Zm-2.718-5.544a7.95,7.95,0,0,1,1.1,2.466l1.206-.576a3.511,3.511,0,0,0-1.98-2.124Zm19.134,4.986.054-.018a21.1,21.1,0,0,0,2.88-.324l.108-1.152-1.1.414c-.756.108-1.278.162-1.944.216V-13.77c.252-.162.36-.288.36-.45s-.144-.288-.36-.306l-1.71-.108.144,1.044v3.024c-.252.018-2.034.054-2.682.054-.846,0-1.44-.018-2.628-.09l-.828-.306.108,1.134c.828.072,1.512.09,2.718.09,1.224,0,2.7-.018,3.312-.036V-6.7c-.018,3.024-.522,4.464-2.034,5.778A7.164,7.164,0,0,1-109.512.558l.126.54A7.941,7.941,0,0,0-105.8-.054c2.2-1.4,2.9-2.988,2.88-6.552Zm-9.594,8.964a25.9,25.9,0,0,1-.63-6.282,41.67,41.67,0,0,1,.45-6.156c.252-.126.342-.234.342-.414s-.144-.288-.468-.324l-1.548-.2.072,1.026a59.15,59.15,0,0,0-.414,6.282A29.679,29.679,0,0,0-114.1-.558Zm30.726-7.7A3.6,3.6,0,0,0-83.916-10.4l-.288.27A6.968,6.968,0,0,1-83-7.884Zm-4.536-1.35A7.79,7.79,0,0,1-85.23-7.4l1.206-.576A3.539,3.539,0,0,0-86-10.116Zm-11.5-3.384.126,1.242,10.926-.432a.344.344,0,0,1-.144.054,9.571,9.571,0,0,0-2.844,1.494,6.115,6.115,0,0,0-2.574,5.04,5.714,5.714,0,0,0,2.2,4.68A8.087,8.087,0,0,0-86,.468L-85.32-1.4a6.586,6.586,0,0,1-3.708-1.224,4.247,4.247,0,0,1-1.764-3.654c0-2.466,1.422-4.374,4.1-5.49a10.546,10.546,0,0,1,3.852-.792l.09-1.26-1.188.432-12.852.45Zm28.656,8.082h4.284l.7.144V-6.048l-.7.144h-14.2l-.72-.144V-5.04l.72-.144h3.96C-75.294-2.052-76.968-.108-80.28.792l.2.558c4.212-.612,6.408-2.808,6.57-6.534h2.826v4.32c.036,1.386.45,1.728,2.142,1.746h2.718c1.224,0,1.728-.45,1.872-1.674l.234-2.034-.81-.144-.2,1.71c-.09.558-.27.738-.828.738h-2.772c-.666-.036-.846-.18-.846-.72ZM-72.9-13.068h-4.986v-.2a1.835,1.835,0,0,0-.09-.594h-.612a4.809,4.809,0,0,1-1.692,3.006l1.134,1.35a3.884,3.884,0,0,0,1.224-2.844h12.1a12.6,12.6,0,0,1-.828,2.016l.432.324a6.638,6.638,0,0,0,2.5-3.06h-7.542v-1.458c.234-.162.288-.234.288-.36,0-.162-.126-.234-.378-.234H-72.9Zm-3.87,4.1h9.5l.72.144V-9.828l-.72.144h-9.5l-.72-.144V-8.82Zm23.652-.378a23.406,23.406,0,0,0,6.8-4.7H-61.128l-.72-.144v1.044l.72-.144h11.5A34.53,34.53,0,0,1-53.3-9.954l-1.53-.324v9.81c0,.612-.252.864-.864.864h-2.2v.846h3.132c1.134.018,1.638-.5,1.638-1.674Zm25.326.81A3.6,3.6,0,0,0-29.916-10.4l-.288.27A6.968,6.968,0,0,1-29-7.884Zm-4.536-1.35A7.79,7.79,0,0,1-31.23-7.4l1.206-.576A3.539,3.539,0,0,0-32-10.116Zm-11.5-3.384.126,1.242,10.926-.432a.344.344,0,0,1-.144.054,9.571,9.571,0,0,0-2.844,1.494,6.115,6.115,0,0,0-2.574,5.04,5.714,5.714,0,0,0,2.2,4.68A8.087,8.087,0,0,0-32,.468L-31.32-1.4a6.586,6.586,0,0,1-3.708-1.224,4.247,4.247,0,0,1-1.764-3.654c0-2.466,1.422-4.374,4.1-5.49a10.546,10.546,0,0,1,3.852-.792l.09-1.26-1.188.432-12.852.45Zm28.314.846v-1.674c.27-.18.36-.288.36-.45s-.144-.288-.36-.306l-1.638-.126.144,1.116v1.476l-.594.018c-1.8.036-2.376.054-3.006.054-.792,0-3.672-.054-4.5-.072l-.99-.378.072,1.134c.936.09,3.06.144,5.31.144.81,0,1.386-.018,3.1-.054l.612-.018V-8.82a2.936,2.936,0,0,0-2.106-.846,3.505,3.505,0,0,0-3.528,3.6,3.023,3.023,0,0,0,.756,2.142A3.514,3.514,0,0,0-19.4-2.88,3.343,3.343,0,0,0-17.082-3.8c-.432,2.52-2.16,4.05-5.166,4.536l.108.558A8.476,8.476,0,0,0-17.8-.018c1.638-1.17,2.286-2.628,2.286-5.148v-6.426h.234A48.776,48.776,0,0,0-9.936-11.9l.054-1.206-1.062.432c-1.728.144-2.862.216-4.284.252ZM-17.01-4.968A2.491,2.491,0,0,1-19.044-3.8,2.133,2.133,0,0,1-21.1-6.174a2.359,2.359,0,0,1,2.232-2.574,2.232,2.232,0,0,1,1.854.99Zm11.592.774A2.82,2.82,0,0,0-8.28-1.4,2.823,2.823,0,0,0-5.454,1.44,2.827,2.827,0,0,0-2.646-1.386,2.84,2.84,0,0,0-5.418-4.194Zm-.072.828A1.99,1.99,0,0,1-3.474-1.4,1.994,1.994,0,0,1-5.454.612a2.005,2.005,0,0,1-2-2A2.006,2.006,0,0,1-5.49-3.366Zm23.22-9.882H11.124v3.1c0,6.8-.234,8.658-1.4,11.178l.414.252c2.16-2.736,2.466-4.158,2.5-11.43v-2.376h12.69l.72.144v-1.008l-.72.144H19.368v-1.278c.234-.162.288-.234.288-.36,0-.162-.126-.234-.378-.234H17.73Zm4.59,5.4a23.159,23.159,0,0,1,2.358,5.814l1.6-.936a14.443,14.443,0,0,0-3.438-5.256Zm-.594-1.98a9.269,9.269,0,0,0-3.8-1.854l-.306.486a14.365,14.365,0,0,1,2.826,2.718ZM14.472-.342c.126-.378.216-.63.234-.7a23.114,23.114,0,0,0,.576-5.562c0-.306,0-.432-.018-.72l-.72-.072A18.528,18.528,0,0,1,12.87-1.1ZM16.866-8.91V-.72c0,1.134.45,1.584,1.62,1.6h2.9c1.062,0,1.512-.414,1.548-1.458l.126-2.556-.81-.09L22.1-1.1c-.036.486-.18.612-.666.63H19.08c-.666-.036-.756-.126-.774-.738v-7.11c.234-.162.288-.234.288-.36,0-.162-.126-.234-.378-.234ZM34.56-2.43C33.8-.738,32.022.36,29.034.954l.126.486c4.05-.45,6.21-1.656,6.894-3.87h3.51C39.312.234,39.186.486,38.052.468h-1.44v.756H38.88c.936,0,1.332-.18,1.656-.738.216-.414.324-1.17.522-3.636H36.216c.054-.252.072-.432.144-.99.234-.126.306-.216.306-.342,0-.162-.126-.234-.432-.252L34.92-4.77a10.075,10.075,0,0,1-.162,1.62H31.9l-.72-.144v1.008l.72-.144Zm-2.124-9.4H30.06v4.644h3.312a11.909,11.909,0,0,1-.828,1.116h-4l-.72-.144V-5.2l.72-.144h3.366A15.251,15.251,0,0,1,27.72-2.268l.252.432a13.014,13.014,0,0,0,5.6-3.51h5.49a8.335,8.335,0,0,0,4.7,3.474,7.1,7.1,0,0,1,.522-1.4A10.565,10.565,0,0,1,39.8-5.346h3.654l.72.144V-6.21l-.72.144H34.164c.2-.234.522-.684.81-1.116H41.94v-4.644H39.42V-12.96h3.924l.7.144v-1.008l-.7.144H39.42v-.846c.234-.162.288-.234.288-.36,0-.162-.126-.234-.378-.234H38.016v1.44H33.84v-.846c.234-.162.288-.234.288-.36,0-.162-.126-.234-.378-.234H32.436v1.44h-3.78l-.7-.144v1.008l.7-.144h3.78Zm1.4,0V-12.96h4.176v1.134ZM31.464-7.9v-1.26h9.072V-7.9Zm0-1.98v-1.224h9.072v1.224ZM53.262,1.44H54.7V-3.708A11.769,11.769,0,0,0,61.614.738,7.739,7.739,0,0,1,62.28-.738,13.71,13.71,0,0,1,54.864-4.32h6.012l.72.144V-5.184l-.72.144H54.7V-6.462c.234-.162.288-.234.288-.36,0-.162-.126-.234-.378-.234h-1.35V-5.04H47.124l-.72-.144v1.008l.72-.144H52.6A18.1,18.1,0,0,1,45.72.324l.126.5a16.324,16.324,0,0,0,7.416-3.834ZM51.876-13.374c.234-.252.414-.45.72-.828.378-.09.558-.216.558-.378,0-.108-.126-.216-.306-.252L51.39-15.12a17.634,17.634,0,0,1-5.31,5.328l.288.468a14.656,14.656,0,0,0,4.392-2.934A8.828,8.828,0,0,0,53.118-9.4a27.512,27.512,0,0,1-7.4,2.9l.144.54a28.572,28.572,0,0,0,8.352-2.7,22.683,22.683,0,0,0,7.29,2.34,6.719,6.719,0,0,1,.774-1.458,23.851,23.851,0,0,1-6.858-1.566,16.941,16.941,0,0,0,4.5-4.032Zm-.684.72h6.282a17.776,17.776,0,0,1-3.366,2.682,7.563,7.563,0,0,1-2.934-2.682ZM66.114,1.332h1.422V-10.926c.378-.936.666-1.692,1.116-3.078.324-.054.468-.18.468-.36a.324.324,0,0,0-.288-.306l-1.548-.45A37.3,37.3,0,0,1,63.72-5.346l.414.306a20.355,20.355,0,0,0,1.98-2.916ZM71.046-11c.162-.414.288-.774.648-1.818.342-.09.5-.234.5-.45,0-.162-.144-.27-.378-.324l-1.4-.306a21.8,21.8,0,0,1-2.268,6.552l.45.288a13.048,13.048,0,0,0,2.142-3.222h3.114v4.77H69.12l-.7-.144v1.008l.7-.144h4.734V1.35h1.512V-4.788H79.56l.72.144V-5.652l-.72.144H75.366v-4.77h3.618l.72.144v-1.008l-.72.144H75.366v-3.438c.234-.162.288-.234.288-.342,0-.18-.126-.252-.378-.252H73.854V-11ZM84.852,1.44a16.781,16.781,0,0,0,7.056-3.15,15.2,15.2,0,0,0,5.454,3.024A15.406,15.406,0,0,1,98.28-.36a14.64,14.64,0,0,1-5.256-2.376,16.3,16.3,0,0,0,3.708-6.786H92.3l1.242-4.716H83.124l-.72-.144v1.008l.72-.144h2.538v.036a32.172,32.172,0,0,1-.99,8.352A12.85,12.85,0,0,1,81.72-.018l.306.486A10.945,10.945,0,0,0,85.788-4.1a17.908,17.908,0,0,0,1.278-5.8,16.38,16.38,0,0,0,3.87,7.254A17.046,17.046,0,0,1,84.69.882Zm2.376-14.958h4.554L90.27-7.812h1.584l.27-.99h2.61a14.147,14.147,0,0,1-2.826,5.13,16.915,16.915,0,0,1-4.734-7.884c.036-1.044.054-1.674.054-1.926Zm17.748.54-3.654.072-1.3-.432.144,1.3,4.1-.09c-.126.144-.378.45-.648.774A10.689,10.689,0,0,0,101-4.626,6.443,6.443,0,0,0,102.42-.432a5.293,5.293,0,0,0,4.014,1.6,5.558,5.558,0,0,0,5.04-2.736,8.562,8.562,0,0,0,.918-4.194c0-1.494-.144-2.394-.936-6.084l.108-.036a18.824,18.824,0,0,0,3.69,6.768l.9-1.89a16.677,16.677,0,0,1-4.572-6.354l-1.116.288a36.081,36.081,0,0,1,.522,6.174A10.4,10.4,0,0,1,110-1.8,4.123,4.123,0,0,1,106.4.288a3.6,3.6,0,0,1-2.43-.882,5.137,5.137,0,0,1-1.332-3.78,9.137,9.137,0,0,1,1.746-5.346,12.18,12.18,0,0,1,1.926-2.322c.63-.126.81-.234.81-.486a.354.354,0,0,0-.162-.306l-1.368-.864Zm11.484-.45a3.593,3.593,0,0,0-2.088-1.872l-.306.252a6.7,6.7,0,0,1,1.188,2.268Zm-4.374-1.422a6.82,6.82,0,0,1,.99,2.322l1.224-.522a3.6,3.6,0,0,0-1.89-2.016Zm16.92,4.284h4.23l.72.144V-11.43l-.72.144h-9.9l-.7-.144v1.008l.7-.144h4.122v4.554H124l-.72-.144v1.008l.72-.144h3.456V.072H122.58l-.72-.144V.936l.72-.144h10.98l.72.144V-.072l-.72.144h-4.554V-5.292h3.456l.72.144V-6.156l-.72.144h-3.456Zm-3.132-4.122a14.54,14.54,0,0,1,2.718,3.006l1.458-1.17a11.271,11.271,0,0,0-3.762-2.268Zm-3.2,1.476a11.222,11.222,0,0,0-3.492-1.476l-.252.486a16.413,16.413,0,0,1,2.628,2.484ZM121.5-6.138a45.127,45.127,0,0,1-3.474,5.976L119.16.882a.5.5,0,0,0,.342.162.408.408,0,0,0,.36-.4V.63l-.054-.306a36.79,36.79,0,0,0,2.214-6.282Zm.108-2.43a9.871,9.871,0,0,0-3.618-1.476l-.27.486a13.723,13.723,0,0,1,2.736,2.574Zm26.406-4.374h2.376l.72.144v-1.008l-.72.144h-5.652v-.864c.234-.162.288-.234.288-.36,0-.162-.126-.234-.378-.234h-1.512v1.458H137.61l-.72-.144V-12.8l.72-.144h2.34a19.316,19.316,0,0,1,.558,2.124v.054h-3.852l-.7-.144V-9.9l.7-.144h14.688l.7.144v-1.008l-.7.144h-4.788A8.994,8.994,0,0,0,148-12.888Zm-1.62,0c-.216.918-.36,1.458-.576,2.124l-.018.054h-5l1.314-.666a6.537,6.537,0,0,0-1.422-1.512Zm-8.46,8.982h12.132V-8.82H137.934Zm10.692-.72h-9.252V-6.066h9.252Zm0-2.106h-9.252V-8.1h9.252ZM140.22-3.294V-.36c.036,1.026.54,1.332,2.25,1.386H146.3c1.188,0,1.692-.468,1.782-1.692l.09-1.314-.72-.054-.072,1.026c-.072.5-.36.72-1.026.72h-3.51C142-.306,141.7-.45,141.7-.846V-2.7c.234-.162.288-.234.288-.36,0-.162-.126-.234-.378-.234Zm8.6.576A19.892,19.892,0,0,1,150.66.7l1.53-.918a9.323,9.323,0,0,0-2.862-2.826ZM137.322.756a8.412,8.412,0,0,0,1.224-3.672l-.666-.162a7.592,7.592,0,0,1-2.07,2.934Zm5.724-4a10.844,10.844,0,0,1,1.638,2.16l1.3-1.1a7.912,7.912,0,0,0-2.556-1.386ZM168.39-4.806V-7.164h-5.832V-8.5h5.562v-3.168h-5.562V-13h6.894l.72.144V-13.86l-.72.144h-6.894v-.81c.234-.162.288-.234.288-.36,0-.162-.126-.234-.378-.234h-1.35v1.4h-6.57l-.72-.144v1.008l.72-.144h6.57v1.332h-5.4V-8.5h5.4v1.332h-5.166l-.72-.144V-6.3l.72-.144h5.166v1.638h-6.7l-.7-.144v1.008l.7-.144h6.7V-2.34h-5.166l-.72-.144v1.008l.72-.144h5.166V-.126c-.018.594-.2.792-.792.81H158.76V1.44h2.286c1.08,0,1.53-.432,1.512-1.4V-1.62h4.392V-.9h1.44V-4.086h1.188l.7.144V-4.95l-.7.144ZM166.95-2.34h-4.392V-4.086h4.392Zm0-2.466h-4.392V-6.444h4.392Zm-4.392-6.138h4.122v1.728h-4.122Zm-1.44,0v1.728h-3.96v-1.728Zm14.58-1.008h1.71l.72.144v-1.008l-.72.144h-4.86l-.72-.144v1.008l.72-.144h1.71v8.478c-.63.162-1.206.288-2.538.522l.468,1.422c.072.18.2.324.324.324.144,0,.234-.126.324-.414A26.21,26.21,0,0,0,178.272-4.1l-.126-.45c-1.116.342-1.584.486-2.448.72Zm6.03.558H179.1V-2.3h7.884v-9.09h-4.41a14.663,14.663,0,0,0,1.242-2.25h3.636l.72.144v-1.008l-.72.144h-8.64l-.72-.144V-13.5l.72-.144h3.294c-.072.612-.18,1.26-.27,1.728l-.054.252ZM180.5-8.712v-1.962h5.04v1.962Zm0,.72h5.04v1.98H180.5Zm0,2.7h5.04v2.268H180.5ZM176.238,1.44a16.124,16.124,0,0,0,5.094-1.962h.126c.324,0,.576-.144.576-.324a.5.5,0,0,0-.18-.324l-1.116-.9a13.971,13.971,0,0,1-4.68,2.988Zm7.6-2.808a27.8,27.8,0,0,1,3.51,2.718L188.28,0a16.211,16.211,0,0,0-4.122-1.854ZM198.648-2.43h1.476V-5.49c1.224-.378,2.412-.684,4.77-1.224a2.135,2.135,0,0,0,.54.09.322.322,0,0,0,.36-.324.8.8,0,0,0-.126-.342l-.648-1.08-.756.342c-.846.252-1.458.432-1.728.522l-2.376.792-.054.018a2.653,2.653,0,0,0-.558-1.764,2.621,2.621,0,0,0-1.854-.684,5.892,5.892,0,0,0-3.15.918c.666-.99,1.08-1.638,2-3.222h.954c2.34-.018,3.51-.072,5.778-.27l.18-1.314-1.368.54c-2.2.162-2.628.18-5.022.216h-.072l.828-1.476c.486-.162.576-.234.576-.414,0-.144-.126-.252-.378-.342l-1.422-.486-.252.792c-.522,1.044-.738,1.494-.99,1.944-1.008-.018-1.746-.036-3.24-.09L191-12.8l.09,1.242c1.836.072,2.25.09,3.816.108a47.245,47.245,0,0,1-4.194,5.94l1.134.99,1.584-2.07a5.828,5.828,0,0,1,3.852-1.674,1.061,1.061,0,0,1,1.206.864,4.792,4.792,0,0,1,.162,1.26,19.768,19.768,0,0,0-2.3,1.026c-1.872,1.008-2.7,1.98-2.7,3.2a2.245,2.245,0,0,0,1.224,2A11.147,11.147,0,0,0,199.8.846,30.857,30.857,0,0,0,203.706.63V-.99a22.008,22.008,0,0,1-4.176.4,10.009,10.009,0,0,1-4.014-.576,1.119,1.119,0,0,1-.612-.99c0-1.008,1.116-1.854,3.744-2.826Zm25.812-11a3.6,3.6,0,0,0-2.124-1.872l-.288.252a7.235,7.235,0,0,1,1.206,2.268Zm-3.852.594a15.426,15.426,0,0,0-3.2-.27,14.906,14.906,0,0,0-6.822,1.206l.144.612A30.326,30.326,0,0,1,215.8-11.7a16.925,16.925,0,0,1,4.806.576ZM210.456-6.3a5.718,5.718,0,0,0-.972,3.042c0,1.458,1.044,2.646,2.862,3.258a16.853,16.853,0,0,0,4.662.522,38.72,38.72,0,0,0,5.22-.342V-1.656a28.045,28.045,0,0,1-5.67.54c-4.1,0-6.066-.936-6.066-2.9a4.566,4.566,0,0,1,.558-2.034Zm9.522-8.55a7.44,7.44,0,0,1,1.044,2.34l1.224-.576a3.593,3.593,0,0,0-1.944-2ZM237.906-8.6a9.868,9.868,0,0,0,1.224-1.674c.306-.054.468-.162.468-.324a.327.327,0,0,0-.234-.252l-1.35-.414A18.523,18.523,0,0,1,237.15-8.6h-2.358a16.61,16.61,0,0,0,1.872-3.672h3.87a11.306,11.306,0,0,1-.72,1.962l.4.27A6.544,6.544,0,0,0,242.28-13h-5.346l.378-1.134c.342-.108.5-.234.5-.4,0-.18-.144-.288-.432-.342l-1.332-.252A16.23,16.23,0,0,1,235.494-13h-1.962v-.27c0-.144,0-.216-.018-.45h-.594a4.348,4.348,0,0,1-1.4,2.772l.972,1.242a4.192,4.192,0,0,0,1.008-2.574h1.764a19.611,19.611,0,0,1-3.546,6.264l.306.36a10.62,10.62,0,0,0,1.458-1.3v8.3h1.332V.45h6.75l.72.144V-.414l-.72.144H238.7V-2.538h1.926l.72.144V-3.4l-.72.144H238.7V-5.22h1.926l.72.144V-6.084l-.72.144H238.7V-7.884h2.574l.7.144V-8.748l-.7.144ZM234.81-.27V-2.538H237.4V-.27Zm0-2.988V-5.22H237.4v1.962Zm0-2.682V-7.884H237.4V-5.94Zm-6.444-2.7a23.309,23.309,0,0,0,1.224-4.68h1.98l.7.144v-1.008l-.7.144h-5.022l-.72-.144v1.008l.72-.144H228.1a26.888,26.888,0,0,1-2.376,8.406l.306.432a11.866,11.866,0,0,0,1.3-1.872V.594h1.3V-.792h2.97V-8.64Zm.252.72h1.674v6.408h-1.674Zm29.34-5.4c-.108,2-.288,4.248-.45,5.292-.126.72-.288.918-.864.918H255.42v.756h1.944c1.044-.036,1.368-.306,1.548-1.278.162-.81.36-3.69.468-6.408h-8.334l-.72-.144v1.008l.72-.144h2.484a14.584,14.584,0,0,1-.252,2.178,21.583,21.583,0,0,0-2.268-.666l-.252.45c1.008.486,1.476.738,2.268,1.17a6.274,6.274,0,0,1-3.042,3.762l.234.45A6.268,6.268,0,0,0,254.142-9.5c.684.45,1.026.684,1.89,1.3l.792-1.332a21.036,21.036,0,0,0-2.3-1.134,18.24,18.24,0,0,0,.4-2.646ZM245.736.126h2.2V.81h1.242V-4.374h-4.68v5.4h1.242Zm0-.666V-3.708h2.2V-.54Zm6.858-4.41V-.378c-.018.9.4,1.3,1.278,1.3h2.322c.864.018,1.224-.36,1.3-1.26l.126-1.8-.738-.09L256.788-.9c-.054.432-.18.558-.612.558h-1.638c-.45-.018-.594-.162-.612-.594V-4.392c.216-.162.27-.234.27-.324,0-.162-.126-.234-.378-.234Zm-4.122-9.36H245.2l-.7-.144v1.044l.7-.144h3.276l.7.144v-1.044Zm.7,2.484H244.44l-.72-.144v1.044l.72-.144h4.734l.72.144V-11.97Zm-.7,2.484H245.2l-.7-.144v1.044l.7-.144h3.276l.7.144V-9.486Zm0,2.484H245.2l-.7-.144v1.044l.7-.144h3.276l.7.144V-7Zm2.322,2.52a9.347,9.347,0,0,1-1.332,3.924l1.314.9a10.718,10.718,0,0,0,.72-4.158c0-.2,0-.324-.018-.558Zm3.42-1.53a19.118,19.118,0,0,1,1.512,2.412l1.188-1.062a9.135,9.135,0,0,0-2.376-1.692Zm3.276,1.656a20.689,20.689,0,0,1,1.44,4.086l1.35-.972a11.217,11.217,0,0,0-2.34-3.4ZM270.2.324a10.385,10.385,0,0,0,4.95-1.8A6.368,6.368,0,0,0,277.74-6.75c0-3.96-2.934-6.57-7.416-6.57a8.267,8.267,0,0,0-5.4,1.782A7.37,7.37,0,0,0,262.278-5.8c0,2.7,1.242,4.662,2.934,4.662a3.135,3.135,0,0,0,2.268-1.242,11.037,11.037,0,0,0,2-3.474,29.3,29.3,0,0,0,1.53-6.534,4.852,4.852,0,0,1,2.772.918,5.511,5.511,0,0,1,2.214,4.59,6.279,6.279,0,0,1-3.078,5.454,10.524,10.524,0,0,1-2.862,1.188Zm-.774-12.744a33.872,33.872,0,0,1-.828,4.392c-.9,3.42-2.3,5.958-3.312,5.958-.846,0-1.53-1.6-1.53-3.654A7.072,7.072,0,0,1,265.5-10.44,5.7,5.7,0,0,1,269.424-12.42ZM286.416-.432h-5.94l-.756-.144v1.1l.756-.144h15.048l.756.144v-1.1l-.756.144h-7.4V-8.748h5.742l.756.144V-9.7l-.756.144h-5.742v-4.734c.234-.162.288-.234.288-.342,0-.18-.126-.252-.378-.252h-1.62Zm28.044-13a3.6,3.6,0,0,0-2.124-1.872l-.288.252a7.234,7.234,0,0,1,1.206,2.268Zm-3.852.594a15.426,15.426,0,0,0-3.2-.27,14.906,14.906,0,0,0-6.822,1.206l.144.612A30.326,30.326,0,0,1,305.8-11.7a16.925,16.925,0,0,1,4.806.576ZM300.456-6.3a5.718,5.718,0,0,0-.972,3.042c0,1.458,1.044,2.646,2.862,3.258a16.853,16.853,0,0,0,4.662.522,38.72,38.72,0,0,0,5.22-.342V-1.656a28.045,28.045,0,0,1-5.67.54c-4.1,0-6.066-.936-6.066-2.9a4.566,4.566,0,0,1,.558-2.034Zm9.522-8.55a7.44,7.44,0,0,1,1.044,2.34l1.224-.576a3.593,3.593,0,0,0-1.944-2Zm13.752,1.6h-6.606v3.1c0,6.8-.234,8.658-1.4,11.178l.414.252c2.16-2.736,2.466-4.158,2.5-11.43v-2.376h12.69l.72.144v-1.008l-.72.144h-5.958v-1.278c.234-.162.288-.234.288-.36,0-.162-.126-.234-.378-.234H323.73Zm4.59,5.4a23.159,23.159,0,0,1,2.358,5.814l1.6-.936a14.443,14.443,0,0,0-3.438-5.256Zm-.594-1.98a9.269,9.269,0,0,0-3.8-1.854l-.306.486a14.365,14.365,0,0,1,2.826,2.718ZM320.472-.342c.126-.378.216-.63.234-.7a23.114,23.114,0,0,0,.576-5.562c0-.306,0-.432-.018-.72l-.72-.072a18.529,18.529,0,0,1-1.674,6.3Zm2.394-8.568V-.72c0,1.134.45,1.584,1.62,1.6h2.9c1.062,0,1.512-.414,1.548-1.458l.126-2.556-.81-.09L328.1-1.1c-.036.486-.18.612-.666.63H325.08c-.666-.036-.756-.126-.774-.738v-7.11c.234-.162.288-.234.288-.36,0-.162-.126-.234-.378-.234ZM340.56-2.43C339.8-.738,338.022.36,335.034.954l.126.486c4.05-.45,6.21-1.656,6.894-3.87h3.51c-.252,2.664-.378,2.916-1.512,2.9h-1.44v.756h2.268c.936,0,1.332-.18,1.656-.738.216-.414.324-1.17.522-3.636h-4.842c.054-.252.072-.432.144-.99.234-.126.306-.216.306-.342,0-.162-.126-.234-.432-.252L340.92-4.77a10.076,10.076,0,0,1-.162,1.62H337.9l-.72-.144v1.008l.72-.144Zm-2.124-9.4H336.06v4.644h3.312a11.911,11.911,0,0,1-.828,1.116h-4l-.72-.144V-5.2l.72-.144h3.366a15.251,15.251,0,0,1-4.194,3.078l.252.432a13.014,13.014,0,0,0,5.6-3.51h5.49a8.335,8.335,0,0,0,4.7,3.474,7.094,7.094,0,0,1,.522-1.4,10.565,10.565,0,0,1-4.482-2.07h3.654l.72.144V-6.21l-.72.144h-9.288c.2-.234.522-.684.81-1.116h6.966v-4.644h-2.52V-12.96h3.924l.7.144v-1.008l-.7.144H345.42v-.846c.234-.162.288-.234.288-.36,0-.162-.126-.234-.378-.234h-1.314v1.44H339.84v-.846c.234-.162.288-.234.288-.36,0-.162-.126-.234-.378-.234h-1.314v1.44h-3.78l-.7-.144v1.008l.7-.144h3.78Zm1.4,0V-12.96h4.176v1.134ZM337.464-7.9v-1.26h9.072V-7.9Zm0-1.98v-1.224h9.072v1.224ZM361.836-14a49.512,49.512,0,0,1-6.066,4.968c-1.242.936-1.6,1.3-1.6,1.656,0,.27.234.558.756.9a29.39,29.39,0,0,1,8.1,7.7L364.662.09a22.925,22.925,0,0,0-3.546-3.618,46.229,46.229,0,0,0-5.238-3.6c-.36-.2-.45-.27-.45-.342,0-.054.09-.126.414-.324a52.56,52.56,0,0,0,7.884-5.58c.36-.018.522-.126.522-.324,0-.126-.09-.234-.306-.4l-1.332-.9Zm12.15,3.024A53.1,53.1,0,0,1,370.242.252l1.6.45a60.322,60.322,0,0,0,3.708-11.718h.162a44.448,44.448,0,0,0,5.8-.45l.054-1.242-1.242.522c-1.422.18-2.34.252-4.536.342h-.054V-11.9c.054-.216.09-.414.144-.612.036-.2.144-.72.252-1.278.234-.162.342-.288.342-.432a.38.38,0,0,0-.324-.324l-1.584-.306-.036,1.116c-.162.9-.234,1.242-.378,1.944h-2.934l-1.134-.378.108,1.206c2.664,0,2.988,0,3.6-.018Zm12.474-2.448a3.555,3.555,0,0,0-2.124-1.872l-.288.252a7.271,7.271,0,0,1,1.206,2.268Zm-9.126,8.676a5.006,5.006,0,0,0-.612,2.358c0,2.088,1.728,3.042,5.544,3.042a19.9,19.9,0,0,0,3.1-.216V-1.314a13.751,13.751,0,0,1-3.456.414q-4.266,0-4.266-2.052a5.13,5.13,0,0,1,.27-1.638Zm7.326-4.482a13.372,13.372,0,0,0-1.854-.126,9.684,9.684,0,0,0-4.914,1.134l.144.54a16.277,16.277,0,0,1,3.33-.288,12.573,12.573,0,0,1,3.294.36Zm-2.718-5.544a7.95,7.95,0,0,1,1.1,2.466l1.206-.576a3.511,3.511,0,0,0-1.98-2.124Zm14.364,3.42c-1.08.036-1.584.036-2.664.036-1.494,0-2.394-.036-3.564-.108l-1.062-.324.144,1.134c1.35.09,2.286.126,4.194.126,1.53,0,1.98,0,3.744-.054A48.234,48.234,0,0,0,399.474-6.3a11.68,11.68,0,0,0-4.374-.828,6.935,6.935,0,0,0-4.212,1.242,3.194,3.194,0,0,0-1.116,2.43c0,2.646,2.682,4.1,7.6,4.1a17.526,17.526,0,0,0,3.06-.234V-1.332a11.848,11.848,0,0,1-3.4.432,12.729,12.729,0,0,1-4.77-.774,2.168,2.168,0,0,1-1.332-1.944,2.086,2.086,0,0,1,.612-1.476,5.183,5.183,0,0,1,3.6-1.152,10.754,10.754,0,0,1,4.482.972,4.746,4.746,0,0,1,1.26.864l1.3-.72a34.9,34.9,0,0,1-3.366-5.436l-.018-.036.09-.018a27.592,27.592,0,0,0,4.266-.4l.018-1.224-1.062.486c-1.6.2-2.466.27-3.4.306h-.342c-.36-.72-.63-1.3-1.26-2.7.162-.18.216-.288.216-.4,0-.2-.162-.306-.45-.306h-1.8l.576,1.08c.54,1.242.7,1.6,1.062,2.394Zm16.488,7.4c-.414,1.638-.972,2.736-1.4,2.736-.414,0-1.062-.846-1.566-2-.666-1.584-1.008-4.122-1.008-7.7v-1.152c.306-.216.4-.324.4-.5s-.18-.306-.45-.324l-1.62-.108.09,1.08c.018,2.322.036,3.564.036,3.726a16.946,16.946,0,0,0,1.08,5.67c.774,1.872,1.746,2.862,2.772,2.862,1.008,0,1.89-1.44,2.466-4.032Zm9.288.144a13.643,13.643,0,0,0-4.608-8.406l-.45.342a21.924,21.924,0,0,1,3.33,8.838Zm4.5-.378A2.82,2.82,0,0,0,423.72-1.4a2.823,2.823,0,0,0,2.826,2.844,2.827,2.827,0,0,0,2.808-2.826A2.84,2.84,0,0,0,426.582-4.194Zm-.072.828A1.99,1.99,0,0,1,428.526-1.4a1.994,1.994,0,0,1-1.98,2.016,2.005,2.005,0,0,1-2-2A2.006,2.006,0,0,1,426.51-3.366Z" transform="translate(680 2433.299)" fill="#111"/>
      <g id="icon" transform="translate(1157 2418)">
        <circle id="楕円形_28" data-name="楕円形 28" cx="14.5" cy="14.5" r="14.5" transform="translate(-11 -6.001)" fill="#111"/>
        <path id="_ー" data-name="ー" d="M-4.98-5.573V-3.75H11.2V-5.573Z" transform="translate(0.329 13.239)" fill="#fff"/>
      </g>
    </g>
  </g>
</svg>
