<svg xmlns="http://www.w3.org/2000/svg" width="590" height="120" viewBox="0 0 590 120">
  <g id="pull-close" transform="translate(-384 -2397)">
    <rect id="長方形_241" data-name="長方形 241" width="590" height="120" transform="translate(384 2397)" fill="#fff"/>
    <path id="パス_57292" data-name="パス 57292" d="M7.42-8.6A10.213,10.213,0,0,0,4.28-7.1,4.821,4.821,0,0,0,2.06-3.16C2.06-.78,4.06,1,6.76,1A2.794,2.794,0,0,0,8.52.48a2.45,2.45,0,0,0,.58-1.8V-7.98a14.159,14.159,0,0,1,2.2-.18,6.363,6.363,0,0,1,3.26.7,3.767,3.767,0,0,1,1.82,3.38,3.439,3.439,0,0,1-3.4,3.66,3.949,3.949,0,0,1-1.88-.5l-.3.56a4.019,4.019,0,0,0,2.78.98A4.444,4.444,0,0,0,18.2-3.96,4.782,4.782,0,0,0,15.82-8.2a8.727,8.727,0,0,0-4.48-.94,13.108,13.108,0,0,0-2.24.18v-3.38c1.92-.1,4.26-.32,5.32-.5l.08-1.48-1.22.62a27.057,27.057,0,0,1-4.18.44V-15.7c.3-.2.4-.32.4-.5s-.18-.32-.42-.34l-1.82-.14.16,1.24v2.24c-.48.02-.8.02-1.12.02-.98,0-1.62-.02-2.66-.1l-1.2-.4.12,1.3c1.66.1,2.44.12,3.62.12.52,0,.84,0,1.24-.02Zm0,7.12c0,1-.26,1.36-.96,1.36A2.982,2.982,0,0,1,3.6-3.22,3.9,3.9,0,0,1,4.7-5.84,6.643,6.643,0,0,1,7.42-7.56Zm7.62-13.64a11.866,11.866,0,0,1,2.5,3.98l1.66-.94a6.618,6.618,0,0,0-3.84-3.36Zm15.7,1.14v-2.16c.26-.18.32-.26.32-.4,0-.18-.14-.26-.42-.26H29.08v2.82H22.26v12h1.68v-1.7h5.14V1.6h1.66V-3.68h5.32v1.54h1.68V-13.98Zm0,.8h5.32v3.8H30.74Zm0,4.6h5.32v4.1H30.74Zm-1.66,4.1H23.94v-4.1h5.14Zm0-4.9H23.94v-3.8h5.14Zm15.6,8.1C45.84.26,46.98.78,49.6.92c1.04.06,3.56.12,5.52.12.84,0,2-.02,3.58-.04a12.859,12.859,0,0,1,.48-1.58c-1.3.08-4.6.16-7.08.16-3.24,0-4.68-.12-5.5-.46a3.535,3.535,0,0,1-1.36-.92V-9.2H41.72l-.8-.16v1.12l.8-.16h1.92v6.68A21.893,21.893,0,0,1,40.8-.64l.64,1.74a.345.345,0,0,0,.28.22c.2,0,.36-.22.46-.66a19.937,19.937,0,0,0,2.44-1.9Zm4.68-14.76-.8-.16v1.16l.8-.16h3.26c.02.54.02.78.04,1.04-1.02,5.3-3.16,9.14-6.44,11.6l.26.48a13.017,13.017,0,0,0,6.68-8.18A13.006,13.006,0,0,0,58.1-2.28c.5-.86.58-.98,1.08-1.78a11.616,11.616,0,0,1-4.6-5.52,17.062,17.062,0,0,1-1.04-6.46Zm-3.38,1.38a9.18,9.18,0,0,0-4-1.48l-.24.5a14.009,14.009,0,0,1,3.14,2.78ZM70-16.24l-.6.62c-1.2.1-2.06.14-4.3.18l-1.26-.42.12,1.32c.7.02,1.22.04,1.56.04,1,0,2.3-.06,3.92-.2-.82,2.54-1.24,3.7-2.02,5.78a9.228,9.228,0,0,0-2.44.4,4.8,4.8,0,0,0-3.66,4.56c0,1.7,1.02,3,2.36,3A3.226,3.226,0,0,0,66.24-2.7a29.275,29.275,0,0,0,2.5-5.18,19.231,19.231,0,0,1,5.92,1.24C73.92-2.98,72.6-1,69.82.62l.26.5a8.231,8.231,0,0,0,4.34-2.74,9.871,9.871,0,0,0,1.86-4.36c.98.46,1.38.66,2.34,1.2l.58-1.36a19.827,19.827,0,0,0-2.66-1.18c.14-.84.2-1.24.3-2.18.26-.16.36-.3.36-.46s-.16-.3-.46-.36L75.1-10.7l.02.86c-.1,1.02-.12,1.12-.24,2a27.881,27.881,0,0,0-5.76-1.04c.9-2.36,1.16-3.08,2.02-5.58.4-.24.56-.44.56-.66a.521.521,0,0,0-.3-.42ZM66.78-7.28c-1.7,3.98-2.42,5.12-3.26,5.12-.56,0-1.02-.7-1.02-1.58a4.031,4.031,0,0,1,2.16-3.4,5.875,5.875,0,0,1,2.36-.68ZM93.3-11.2l.14,6.38a10.9,10.9,0,0,0-2.82-.4c-2.22,0-3.72,1.16-3.72,2.88a2.633,2.633,0,0,0,.7,1.78A5.262,5.262,0,0,0,91.28.72,3.888,3.888,0,0,0,94.7-.74a3.533,3.533,0,0,0,.44-1.84V-2.7A12.16,12.16,0,0,1,98.08-.54l1.1-1.48a13.864,13.864,0,0,0-4.06-2.36l-.14-6.88c1.12-.06,2.68-.22,3.74-.38l.08-1.46-1.3.6a23.263,23.263,0,0,1-2.54.3l-.06-2.98c.26-.18.36-.34.36-.52a.369.369,0,0,0-.36-.34l-1.84-.12.16,1.02.06,3.04c-1.06.04-1.9.06-2.6.06-.6,0-1.5-.02-2.68-.06l-1.2-.38.14,1.3c1.32.04,1.92.06,2.84.06.7,0,.7,0,3.46-.08Zm.2,8.34v.12a2.836,2.836,0,0,1-.32,1.22,2.59,2.59,0,0,1-2.24.88,4.377,4.377,0,0,1-2.52-.74,1.269,1.269,0,0,1-.52-1.04c0-1.02.96-1.66,2.46-1.66a7.384,7.384,0,0,1,3.12.7ZM84.76.4a46.979,46.979,0,0,1-.54-6.98,66.6,66.6,0,0,1,.62-8.26c.3-.2.4-.34.4-.5,0-.22-.18-.38-.48-.42l-1.68-.28V-15a75.07,75.07,0,0,0-.58,8.86A49.58,49.58,0,0,0,82.94.72Zm22-.24a12.025,12.025,0,0,0-5.58-3.82l-.38.48a17.851,17.851,0,0,1,4.32,4.78ZM129.7-14.72h-7.34v3.44c0,7.56-.26,9.62-1.56,12.42l.46.28c2.4-3.04,2.74-4.62,2.78-12.7v-2.64h14.1l.8.16v-1.12l-.8.16h-6.62v-1.42c.26-.18.32-.26.32-.4,0-.18-.14-.26-.42-.26H129.7Zm5.1,6a25.732,25.732,0,0,1,2.62,6.46L139.2-3.3a16.047,16.047,0,0,0-3.82-5.84Zm-.66-2.2a10.3,10.3,0,0,0-4.22-2.06l-.34.54a15.961,15.961,0,0,1,3.14,3.02ZM126.08-.38c.14-.42.24-.7.26-.78a25.683,25.683,0,0,0,.64-6.18c0-.34,0-.48-.02-.8l-.8-.08a20.587,20.587,0,0,1-1.86,7Zm2.66-9.52V-.8c0,1.26.5,1.76,1.8,1.78h3.22c1.18,0,1.68-.46,1.72-1.62l.14-2.84-.9-.1-.16,2.36c-.04.54-.2.68-.74.7H131.2c-.74-.04-.84-.14-.86-.82v-7.9c.26-.18.32-.26.32-.4,0-.18-.14-.26-.42-.26ZM148.4-2.7c-.84,1.88-2.82,3.1-6.14,3.76l.14.54c4.5-.5,6.9-1.84,7.66-4.3h3.9c-.28,2.96-.42,3.24-1.68,3.22h-1.6v.84h2.52c1.04,0,1.48-.2,1.84-.82.24-.46.36-1.3.58-4.04h-5.38c.06-.28.08-.48.16-1.1.26-.14.34-.24.34-.38,0-.18-.14-.26-.48-.28L148.8-5.3a11.194,11.194,0,0,1-.18,1.8h-3.18l-.8-.16v1.12l.8-.16Zm-2.36-10.44H143.4v5.16h3.68a13.235,13.235,0,0,1-.92,1.24h-4.44l-.8-.16v1.12l.8-.16h3.74a16.946,16.946,0,0,1-4.66,3.42l.28.48a14.46,14.46,0,0,0,6.22-3.9h6.1a9.262,9.262,0,0,0,5.22,3.86,7.884,7.884,0,0,1,.58-1.56,11.739,11.739,0,0,1-4.98-2.3h4.06l.8.16V-6.9l-.8.16H147.96c.22-.26.58-.76.9-1.24h7.74v-5.16h-2.8V-14.4h4.36l.78.16v-1.12l-.78.16H153.8v-.94c.26-.18.32-.26.32-.4,0-.18-.14-.26-.42-.26h-1.46v1.6H147.6v-.94c.26-.18.32-.26.32-.4,0-.18-.14-.26-.42-.26h-1.46v1.6h-4.2l-.78-.16v1.12l.78-.16h4.2Zm1.56,0V-14.4h4.64v1.26Zm-2.64,4.36v-1.4h10.08v1.4Zm0-2.2v-1.36h10.08v1.36ZM164.66.18c3.66-.82,5.68-1.74,7.78-3.56,2.78-2.48,4.48-6.16,5.02-10.88H163.72l-.88-.18v1.28l.88-.18h11.56C174.24-6.76,170.7-2.56,164.44-.5Zm25.32-7.82a22.59,22.59,0,0,1-6.74,7.2l.22.42a16.9,16.9,0,0,0,7.64-6.44l.16,5.66v.28c0,.52-.2.74-.72.74h-1.82v.92h2.92c.9,0,1.3-.38,1.32-1.32l-.2-7.46h2.54l.88.18V-8.74l-.88.18h-2.56l-.08-2.66c.24-.18.32-.3.32-.44,0-.18-.16-.28-.46-.3l-1.68-.06.14,1.22.06,2.24h-6.18l-.88-.18v1.28l.88-.18Zm28.5-.44-16.7-.62v2.1l16.7-.6Zm20.5,7.46c-1.54-3.88-3.7-6.86-6.26-8.6l-.42.36a29.974,29.974,0,0,1,3.12,5.16c-3.82.56-6.32.82-10.06,1.06l.24-.44a92.716,92.716,0,0,0,5-11.4c.38-.16.54-.3.54-.52,0-.18-.14-.32-.42-.4l-1.98-.62-.2,1.16a105.133,105.133,0,0,1-4.1,11.64l-.28.68h-.12c-.54.04-1.04.06-2.72.14l.64,1.74c.16.38.28.52.48.52.22,0,.36-.12.54-.48A87.013,87.013,0,0,0,235.8-2.94,31.348,31.348,0,0,1,237.08.52ZM250.72-2.7h1.64V-6.1c1.36-.42,2.68-.76,5.3-1.36a2.373,2.373,0,0,0,.6.1.358.358,0,0,0,.4-.36.883.883,0,0,0-.14-.38l-.72-1.2-.84.38c-.94.28-1.62.48-1.92.58l-2.64.88-.06.02a2.948,2.948,0,0,0-.62-1.96,2.912,2.912,0,0,0-2.06-.76,6.546,6.546,0,0,0-3.5,1.02c.74-1.1,1.2-1.82,2.22-3.58h1.06c2.6-.02,3.9-.08,6.42-.3l.2-1.46-1.52.6c-2.44.18-2.92.2-5.58.24h-.08l.92-1.64c.54-.18.64-.26.64-.46,0-.16-.14-.28-.42-.38l-1.58-.54-.28.88c-.58,1.16-.82,1.66-1.1,2.16-1.12-.02-1.94-.04-3.6-.1l-1.24-.5.1,1.38c2.04.08,2.5.1,4.24.12a52.492,52.492,0,0,1-4.66,6.6l1.26,1.1,1.76-2.3a6.476,6.476,0,0,1,4.28-1.86,1.179,1.179,0,0,1,1.34.96,5.326,5.326,0,0,1,.18,1.4,21.962,21.962,0,0,0-2.56,1.14c-2.08,1.12-3,2.2-3,3.56A2.5,2.5,0,0,0,246.52.1c1.14.58,2.8.84,5.48.84A34.286,34.286,0,0,0,256.34.7V-1.1a24.454,24.454,0,0,1-4.64.44,11.121,11.121,0,0,1-4.46-.64,1.244,1.244,0,0,1-.68-1.1c0-1.12,1.24-2.06,4.16-3.14Zm15.52-13.34-.84-.16v1.26l.84-.16h3.48c.04.88.06,1.14.1,1.88a30.578,30.578,0,0,1-2.28,5.5c-1.9,3.7-4.46,6.9-6.74,8.48l.3.58a18.38,18.38,0,0,0,5.68-4.62,24.446,24.446,0,0,0,3.7-6.24A18.6,18.6,0,0,0,277.8,1.14a14.136,14.136,0,0,1,1.4-1.86,18.1,18.1,0,0,1-6.42-6.64c-1.54-2.82-1.96-4.62-2.1-8.68Zm21.1,3.9a25.3,25.3,0,0,1-1.14,6.46A12.018,12.018,0,0,1,280.8.74l.3.64a11.952,11.952,0,0,0,6.5-5.88,21.508,21.508,0,0,0,1.56-7.64H296c-.1,3.08-.48,8.6-.68,9.96C295.14-.26,294.8.2,293.6.18h-2.66v.94h3.6c1.7.02,2.42-.66,2.6-2.48.22-1.4.68-8.78.76-11.62h-8.7c.06-.68.08-1.32.08-1.98v-1.18c.24-.18.32-.26.32-.4,0-.18-.14-.26-.42-.26h-1.74v1.84c0,.48-.02,1.18-.06,1.98H282.1l-.78-.16v1.16l.78-.16Zm25.42-1.66v-1.86c.3-.2.4-.32.4-.5s-.16-.32-.4-.34l-1.82-.14.16,1.24v1.64l-.66.02c-2,.04-2.64.06-3.34.06-.88,0-4.08-.06-5-.08l-1.1-.42.08,1.26c1.04.1,3.4.16,5.9.16.9,0,1.54-.02,3.44-.06l.68-.02V-9.8a3.263,3.263,0,0,0-2.34-.94,3.9,3.9,0,0,0-3.92,4,3.359,3.359,0,0,0,.84,2.38,3.9,3.9,0,0,0,2.76,1.16,3.714,3.714,0,0,0,2.58-1.02c-.48,2.8-2.4,4.5-5.74,5.04l.12.62a9.418,9.418,0,0,0,4.82-1.46c1.82-1.3,2.54-2.92,2.54-5.72v-7.14h.26a54.2,54.2,0,0,0,5.94-.34l.06-1.34-1.18.48c-1.92.16-3.18.24-4.76.28ZM311.1-5.52a2.768,2.768,0,0,1-2.26,1.3,2.37,2.37,0,0,1-2.28-2.64,2.621,2.621,0,0,1,2.48-2.86,2.48,2.48,0,0,1,2.06,1.1Zm23.64-8.88c.58-.1.82-.26.82-.54a.563.563,0,0,0-.36-.48l-1.36-.72-.58.56c-2.12.14-2.8.16-7.4.22l-1.24-.46.16,1.42c3.66-.02,5.82-.08,7.8-.2l-10.4,8.76.98,1.18,2.58-2.16a12.662,12.662,0,0,1,5.6-1.4c2.74,0,4.4,1.28,4.4,3.4a3.846,3.846,0,0,1-1.28,2.86A4.445,4.445,0,0,1,332.68-.9a6.524,6.524,0,0,0-1.48-2.24,4.918,4.918,0,0,0-3.42-1.52c-1.58,0-2.68.9-2.68,2.2,0,1.86,2.46,3.32,5.6,3.32,3.86,0,6.9-2.44,6.9-5.54,0-2.76-2.36-4.52-6.06-4.52a10.494,10.494,0,0,0-3.78.68ZM331.5-.58a3.175,3.175,0,0,1-.88.08,7.2,7.2,0,0,1-3.42-.8,1.423,1.423,0,0,1-.9-1.24c0-.62.56-1.04,1.42-1.04,1.62,0,3.04,1.1,3.84,3ZM345.54-12.2A59.006,59.006,0,0,1,341.38.28l1.78.5a67.024,67.024,0,0,0,4.12-13.02h.18a49.386,49.386,0,0,0,6.44-.5l.06-1.38-1.38.58c-1.58.2-2.6.28-5.04.38h-.06v-.06c.06-.24.1-.46.16-.68.04-.22.16-.8.28-1.42.26-.18.38-.32.38-.48a.422.422,0,0,0-.36-.36l-1.76-.34-.04,1.24c-.18,1-.26,1.38-.42,2.16h-3.26l-1.26-.42.12,1.34c2.96,0,3.32,0,4-.02Zm13.86-2.72A3.95,3.95,0,0,0,357.04-17l-.32.28a8.078,8.078,0,0,1,1.34,2.52ZM349.26-5.28a5.562,5.562,0,0,0-.68,2.62c0,2.32,1.92,3.38,6.16,3.38a22.108,22.108,0,0,0,3.44-.24V-1.46a15.279,15.279,0,0,1-3.84.46q-4.74,0-4.74-2.28a5.7,5.7,0,0,1,.3-1.82Zm8.14-4.98a14.858,14.858,0,0,0-2.06-.14,10.76,10.76,0,0,0-5.46,1.26l.16.6a18.085,18.085,0,0,1,3.7-.32,13.97,13.97,0,0,1,3.66.4Zm-3.02-6.16a8.834,8.834,0,0,1,1.22,2.74l1.34-.64a3.9,3.9,0,0,0-2.2-2.36Zm21.26,5.54.06-.02a23.438,23.438,0,0,0,3.2-.36l.12-1.28-1.22.46c-.84.12-1.42.18-2.16.24V-15.3c.28-.18.4-.32.4-.5s-.16-.32-.4-.34l-1.9-.12.16,1.16v3.36c-.28.02-2.26.06-2.98.06-.94,0-1.6-.02-2.92-.1l-.92-.34.12,1.26c.92.08,1.68.1,3.02.1,1.36,0,3-.02,3.68-.04v3.36c-.02,3.36-.58,4.96-2.26,6.42A7.96,7.96,0,0,1,368.32.62l.14.6a8.823,8.823,0,0,0,3.98-1.28c2.44-1.56,3.22-3.32,3.2-7.28ZM364.98-.92a28.772,28.772,0,0,1-.7-6.98,46.3,46.3,0,0,1,.5-6.84c.28-.14.38-.26.38-.46s-.16-.32-.52-.36l-1.72-.22.08,1.14a65.723,65.723,0,0,0-.46,6.98,32.977,32.977,0,0,0,.68,7.04Zm34.14-8.56a4,4,0,0,0-2.36-2.08l-.32.3a7.742,7.742,0,0,1,1.34,2.5Zm-5.04-1.5a8.655,8.655,0,0,1,1.22,2.76l1.34-.64a3.933,3.933,0,0,0-2.2-2.38ZM381.3-14.74l.14,1.38,12.14-.48a.382.382,0,0,1-.16.06,10.634,10.634,0,0,0-3.16,1.66,6.794,6.794,0,0,0-2.86,5.6,6.349,6.349,0,0,0,2.44,5.2,8.986,8.986,0,0,0,4.6,1.84l.76-2.08a7.318,7.318,0,0,1-4.12-1.36,4.719,4.719,0,0,1-1.96-4.06c0-2.74,1.58-4.86,4.56-6.1a11.718,11.718,0,0,1,4.28-.88l.1-1.4-1.32.48-14.28.5Zm31.84,8.98h4.76l.78.16V-6.72l-.78.16H402.12l-.8-.16V-5.6l.8-.16h4.4c-.18,3.48-2.04,5.64-5.72,6.64l.22.62c4.68-.68,7.12-3.12,7.3-7.26h3.14v4.8c.04,1.54.5,1.92,2.38,1.94h3.02c1.36,0,1.92-.5,2.08-1.86l.26-2.26-.9-.16-.22,1.9c-.1.62-.3.82-.92.82h-3.08c-.74-.04-.94-.2-.94-.8ZM409-14.52h-5.54v-.22a2.038,2.038,0,0,0-.1-.66h-.68a5.344,5.344,0,0,1-1.88,3.34l1.26,1.5a4.315,4.315,0,0,0,1.36-3.16h13.44a14,14,0,0,1-.92,2.24l.48.36a7.376,7.376,0,0,0,2.78-3.4h-8.38v-1.62c.26-.18.32-.26.32-.4,0-.18-.14-.26-.42-.26H409Zm-4.3,4.56h10.56l.8.16v-1.12l-.8.16H404.7l-.8-.16V-9.8Zm26.28-.42a26.007,26.007,0,0,0,7.56-5.22H422.08l-.8-.16v1.16l.8-.16h12.78a38.364,38.364,0,0,1-4.08,3.7l-1.7-.36V-.52c0,.68-.28.96-.96.96h-2.44v.94h3.48c1.26.02,1.82-.56,1.82-1.86Zm28.14.9a4,4,0,0,0-2.36-2.08l-.32.3a7.742,7.742,0,0,1,1.34,2.5Zm-5.04-1.5a8.655,8.655,0,0,1,1.22,2.76l1.34-.64a3.933,3.933,0,0,0-2.2-2.38ZM441.3-14.74l.14,1.38,12.14-.48a.382.382,0,0,1-.16.06,10.634,10.634,0,0,0-3.16,1.66,6.794,6.794,0,0,0-2.86,5.6,6.349,6.349,0,0,0,2.44,5.2,8.986,8.986,0,0,0,4.6,1.84l.76-2.08a7.318,7.318,0,0,1-4.12-1.36,4.719,4.719,0,0,1-1.96-4.06c0-2.74,1.58-4.86,4.56-6.1a11.718,11.718,0,0,1,4.28-.88l.1-1.4-1.32.48-14.28.5Zm31.46.94v-1.86c.3-.2.4-.32.4-.5s-.16-.32-.4-.34l-1.82-.14.16,1.24v1.64l-.66.02c-2,.04-2.64.06-3.34.06-.88,0-4.08-.06-5-.08l-1.1-.42.08,1.26c1.04.1,3.4.16,5.9.16.9,0,1.54-.02,3.44-.06l.68-.02V-9.8a3.263,3.263,0,0,0-2.34-.94,3.9,3.9,0,0,0-3.92,4,3.359,3.359,0,0,0,.84,2.38,3.9,3.9,0,0,0,2.76,1.16,3.714,3.714,0,0,0,2.58-1.02c-.48,2.8-2.4,4.5-5.74,5.04l.12.62a9.418,9.418,0,0,0,4.82-1.46c1.82-1.3,2.54-2.92,2.54-5.72v-7.14h.26a54.2,54.2,0,0,0,5.94-.34l.06-1.34-1.18.48c-1.92.16-3.18.24-4.76.28ZM471.1-5.52a2.768,2.768,0,0,1-2.26,1.3,2.37,2.37,0,0,1-2.28-2.64,2.621,2.621,0,0,1,2.48-2.86,2.48,2.48,0,0,1,2.06,1.1Zm12.88.86a3.133,3.133,0,0,0-3.18,3.1,3.137,3.137,0,0,0,3.14,3.16,3.141,3.141,0,0,0,3.12-3.14A3.156,3.156,0,0,0,483.98-4.66Zm-.08.92a2.211,2.211,0,0,1,2.24,2.18,2.215,2.215,0,0,1-2.2,2.24,2.228,2.228,0,0,1-2.22-2.22A2.229,2.229,0,0,1,483.9-3.74ZM9.7,25.28H2.36v3.44c0,7.56-.26,9.62-1.56,12.42l.46.28C3.66,38.38,4,36.8,4.04,28.72V26.08h14.1l.8.16V25.12l-.8.16H11.52V23.86c.26-.18.32-.26.32-.4,0-.18-.14-.26-.42-.26H9.7Zm5.1,6a25.732,25.732,0,0,1,2.62,6.46L19.2,36.7a16.047,16.047,0,0,0-3.82-5.84Zm-.66-2.2a10.3,10.3,0,0,0-4.22-2.06l-.34.54a15.961,15.961,0,0,1,3.14,3.02ZM6.08,39.62c.14-.42.24-.7.26-.78a25.683,25.683,0,0,0,.64-6.18c0-.34,0-.48-.02-.8l-.8-.08a20.587,20.587,0,0,1-1.86,7ZM8.74,30.1v9.1c0,1.26.5,1.76,1.8,1.78h3.22c1.18,0,1.68-.46,1.72-1.62l.14-2.84-.9-.1-.16,2.36c-.04.54-.2.68-.74.7H11.2c-.74-.04-.84-.14-.86-.82v-7.9c.26-.18.32-.26.32-.4,0-.18-.14-.26-.42-.26ZM28.4,37.3c-.84,1.88-2.82,3.1-6.14,3.76l.14.54c4.5-.5,6.9-1.84,7.66-4.3h3.9c-.28,2.96-.42,3.24-1.68,3.22h-1.6v.84H33.2c1.04,0,1.48-.2,1.84-.82.24-.46.36-1.3.58-4.04H30.24c.06-.28.08-.48.16-1.1.26-.14.34-.24.34-.38,0-.18-.14-.26-.48-.28L28.8,34.7a11.194,11.194,0,0,1-.18,1.8H25.44l-.8-.16v1.12l.8-.16ZM26.04,26.86H23.4v5.16h3.68a13.232,13.232,0,0,1-.92,1.24H21.72l-.8-.16v1.12l.8-.16h3.74a16.946,16.946,0,0,1-4.66,3.42l.28.48a14.46,14.46,0,0,0,6.22-3.9h6.1a9.262,9.262,0,0,0,5.22,3.86,7.883,7.883,0,0,1,.58-1.56,11.739,11.739,0,0,1-4.98-2.3h4.06l.8.16V33.1l-.8.16H27.96c.22-.26.58-.76.9-1.24H36.6V26.86H33.8V25.6h4.36l.78.16V24.64l-.78.16H33.8v-.94c.26-.18.32-.26.32-.4,0-.18-.14-.26-.42-.26H32.24v1.6H27.6v-.94c.26-.18.32-.26.32-.4,0-.18-.14-.26-.42-.26H26.04v1.6h-4.2l-.78-.16v1.12l.78-.16h4.2Zm1.56,0V25.6h4.64v1.26Zm-2.64,4.36v-1.4H35.04v1.4Zm0-2.2V27.66H35.04v1.36ZM49.18,41.6h1.6V35.88a13.076,13.076,0,0,0,7.68,4.94,8.6,8.6,0,0,1,.74-1.64,15.234,15.234,0,0,1-8.24-3.98h6.68l.8.16V34.24l-.8.16H50.78V32.82c.26-.18.32-.26.32-.4,0-.18-.14-.26-.42-.26h-1.5V34.4H42.36l-.8-.16v1.12l.8-.16h6.08a20.106,20.106,0,0,1-7.64,5.16l.14.56a18.137,18.137,0,0,0,8.24-4.26ZM47.64,25.14c.26-.28.46-.5.8-.92.42-.1.62-.24.62-.42,0-.12-.14-.24-.34-.28L47.1,23.2a19.594,19.594,0,0,1-5.9,5.92l.32.52a16.285,16.285,0,0,0,4.88-3.26,9.808,9.808,0,0,0,2.62,3.18,30.569,30.569,0,0,1-8.22,3.22l.16.6a31.747,31.747,0,0,0,9.28-3,25.2,25.2,0,0,0,8.1,2.6,7.465,7.465,0,0,1,.86-1.62,26.5,26.5,0,0,1-7.62-1.74,18.823,18.823,0,0,0,5-4.48Zm-.76.8h6.98a19.75,19.75,0,0,1-3.74,2.98,8.4,8.4,0,0,1-3.26-2.98ZM63.46,41.48h1.58V27.86c.42-1.04.74-1.88,1.24-3.42.36-.06.52-.2.52-.4a.36.36,0,0,0-.32-.34l-1.72-.5A41.449,41.449,0,0,1,60.8,34.06l.46.34a22.617,22.617,0,0,0,2.2-3.24Zm5.48-13.7c.18-.46.32-.86.72-2.02.38-.1.56-.26.56-.5,0-.18-.16-.3-.42-.36l-1.56-.34a24.221,24.221,0,0,1-2.52,7.28l.5.32a14.5,14.5,0,0,0,2.38-3.58h3.46v5.3H66.8l-.78-.16v1.12l.78-.16h5.26V41.5h1.68V34.68H78.4l.8.16V33.72l-.8.16H73.74v-5.3h4.02l.8.16V27.62l-.8.16H73.74V23.96c.26-.18.32-.26.32-.38,0-.2-.14-.28-.42-.28H72.06v4.48ZM84.28,41.6a18.645,18.645,0,0,0,7.84-3.5,16.886,16.886,0,0,0,6.06,3.36A17.119,17.119,0,0,1,99.2,39.6a16.266,16.266,0,0,1-5.84-2.64,18.114,18.114,0,0,0,4.12-7.54H92.56l1.38-5.24H82.36l-.8-.16v1.12l.8-.16h2.82v.04a35.746,35.746,0,0,1-1.1,9.28,14.278,14.278,0,0,1-3.28,5.68l.34.54a12.161,12.161,0,0,0,4.18-5.08A19.9,19.9,0,0,0,86.74,29a18.2,18.2,0,0,0,4.3,8.06,18.94,18.94,0,0,1-6.94,3.92Zm2.64-16.62h5.06L90.3,31.32h1.76l.3-1.1h2.9a15.719,15.719,0,0,1-3.14,5.7,18.794,18.794,0,0,1-5.26-8.76c.04-1.16.06-1.86.06-2.14Zm19.72.6-4.06.08-1.44-.48.16,1.44,4.56-.1c-.14.16-.42.5-.72.86a11.876,11.876,0,0,0-2.92,7.48,7.159,7.159,0,0,0,1.58,4.66,5.882,5.882,0,0,0,4.46,1.78,6.176,6.176,0,0,0,5.6-3.04,9.513,9.513,0,0,0,1.02-4.66c0-1.66-.16-2.66-1.04-6.76l.12-.04a20.916,20.916,0,0,0,4.1,7.52l1-2.1a18.53,18.53,0,0,1-5.08-7.06l-1.24.32a40.09,40.09,0,0,1,.58,6.86,11.555,11.555,0,0,1-1.1,5.66,4.581,4.581,0,0,1-4,2.32,4,4,0,0,1-2.7-.98,5.707,5.707,0,0,1-1.48-4.2,10.153,10.153,0,0,1,1.94-5.94,13.533,13.533,0,0,1,2.14-2.58c.7-.14.9-.26.9-.54a.393.393,0,0,0-.18-.34l-1.52-.96Zm12.76-.5A3.992,3.992,0,0,0,117.08,23l-.34.28a7.439,7.439,0,0,1,1.32,2.52Zm-4.86-1.58a7.577,7.577,0,0,1,1.1,2.58L117,25.5a4,4,0,0,0-2.1-2.24Zm18.8,4.76h4.7l.8.16V27.3l-.8.16h-11l-.78-.16v1.12l.78-.16h4.58v5.06h-3.84l-.8-.16v1.12l.8-.16h3.84v5.96H126.2l-.8-.16v1.12l.8-.16h12.2l.8.16V39.92l-.8.16h-5.06V34.12h3.84l.8.16V33.16l-.8.16h-3.84Zm-3.48-4.58a16.156,16.156,0,0,1,3.02,3.34l1.62-1.3a12.523,12.523,0,0,0-4.18-2.52Zm-3.56,1.64a12.468,12.468,0,0,0-3.88-1.64l-.28.54a18.236,18.236,0,0,1,2.92,2.76ZM125,33.18a50.141,50.141,0,0,1-3.86,6.64l1.26,1.16a.56.56,0,0,0,.38.18.453.453,0,0,0,.4-.44V40.7l-.06-.34a40.878,40.878,0,0,0,2.46-6.98Zm.12-2.7a10.967,10.967,0,0,0-4.02-1.64l-.3.54a15.248,15.248,0,0,1,3.04,2.86Zm29.34-4.86h2.64l.8.16V24.66l-.8.16h-6.28v-.96c.26-.18.32-.26.32-.4,0-.18-.14-.26-.42-.26h-1.68v1.62H142.9l-.8-.16v1.12l.8-.16h2.6a21.466,21.466,0,0,1,.62,2.36v.06h-4.28l-.78-.16V29l.78-.16h16.32l.78.16V27.88l-.78.16h-5.32a9.993,9.993,0,0,0,1.6-2.36Zm-1.8,0c-.24,1.02-.4,1.62-.64,2.36l-.02.06h-5.56l1.46-.74a7.264,7.264,0,0,0-1.58-1.68Zm-9.4,9.98h13.48V30.2H143.26Zm11.88-.8H144.86V33.26h10.28Zm0-2.34H144.86V31h10.28Zm-9.34,3.88V39.6c.04,1.14.6,1.48,2.5,1.54h4.26c1.32,0,1.88-.52,1.98-1.88l.1-1.46-.8-.06-.08,1.14c-.08.56-.4.8-1.14.8h-3.9c-.94-.02-1.28-.18-1.28-.62V37c.26-.18.32-.26.32-.4,0-.18-.14-.26-.42-.26Zm9.56.64a22.1,22.1,0,0,1,2.04,3.8l1.7-1.02a10.358,10.358,0,0,0-3.18-3.14Zm-12.78,3.86a9.347,9.347,0,0,0,1.36-4.08l-.74-.18a8.435,8.435,0,0,1-2.3,3.26Zm6.36-4.44a12.048,12.048,0,0,1,1.82,2.4l1.44-1.22a8.791,8.791,0,0,0-2.84-1.54Zm28.16-1.74V32.04h-6.48V30.56h6.18V27.04h-6.18V25.56h7.66l.8.16V24.6l-.8.16h-7.66v-.9c.26-.18.32-.26.32-.4,0-.18-.14-.26-.42-.26h-1.5v1.56h-7.3l-.8-.16v1.12l.8-.16h7.3v1.48h-6v3.52h6v1.48h-5.74l-.8-.16V33l.8-.16h5.74v1.82h-7.44l-.78-.16v1.12l.78-.16h7.44V37.4h-5.74l-.8-.16v1.12l.8-.16h5.74v1.66c-.02.66-.22.88-.88.9H166.4v.84h2.54c1.2,0,1.7-.48,1.68-1.56V38.2h4.88V39h1.6V35.46h1.32l.78.16V34.5l-.78.16Zm-1.6,2.74h-4.88V35.46h4.88Zm0-2.74h-4.88V32.84h4.88Zm-4.88-6.82h4.58v1.92h-4.58Zm-1.6,0v1.92h-4.4V27.84Zm16.2-1.12h1.9l.8.16V25.76l-.8.16h-5.4l-.8-.16v1.12l.8-.16h1.9v9.42c-.7.18-1.34.32-2.82.58l.52,1.58c.08.2.22.36.36.36.16,0,.26-.14.36-.46a29.122,29.122,0,0,0,6.04-2.76l-.14-.5c-1.24.38-1.76.54-2.72.8Zm6.7.62H189v10.1h8.76V27.34h-4.9a16.292,16.292,0,0,0,1.38-2.5h4.04l.8.16V23.88l-.8.16h-9.6l-.8-.16V25l.8-.16h3.66c-.08.68-.2,1.4-.3,1.92l-.06.28Zm-1.36,2.98V28.14h5.6v2.18Zm0,.8h5.6v2.2h-5.6Zm0,3h5.6v2.52h-5.6Zm-4.74,7.48a17.915,17.915,0,0,0,5.66-2.18h.14c.36,0,.64-.16.64-.36a.553.553,0,0,0-.2-.36l-1.24-1a15.523,15.523,0,0,1-5.2,3.32Zm8.44-3.12a30.9,30.9,0,0,1,3.9,3.02L199.2,40a18.012,18.012,0,0,0-4.58-2.06Zm16.46-1.18h1.64V33.9c1.36-.42,2.68-.76,5.3-1.36a2.373,2.373,0,0,0,.6.1.358.358,0,0,0,.4-.36.883.883,0,0,0-.14-.38l-.72-1.2-.84.38c-.94.28-1.62.48-1.92.58l-2.64.88-.06.02a2.948,2.948,0,0,0-.62-1.96,2.912,2.912,0,0,0-2.06-.76,6.546,6.546,0,0,0-3.5,1.02c.74-1.1,1.2-1.82,2.22-3.58h1.06c2.6-.02,3.9-.08,6.42-.3l.2-1.46-1.52.6c-2.44.18-2.92.2-5.58.24h-.08l.92-1.64c.54-.18.64-.26.64-.46,0-.16-.14-.28-.42-.38l-1.58-.54-.28.88c-.58,1.16-.82,1.66-1.1,2.16-1.12-.02-1.94-.04-3.6-.1l-1.24-.5.1,1.38c2.04.08,2.5.1,4.24.12a52.492,52.492,0,0,1-4.66,6.6l1.26,1.1,1.76-2.3a6.476,6.476,0,0,1,4.28-1.86,1.179,1.179,0,0,1,1.34.96,5.326,5.326,0,0,1,.18,1.4,21.962,21.962,0,0,0-2.56,1.14c-2.08,1.12-3,2.2-3,3.56a2.5,2.5,0,0,0,1.36,2.22c1.14.58,2.8.84,5.48.84a34.286,34.286,0,0,0,4.34-.24V38.9a24.454,24.454,0,0,1-4.64.44,11.121,11.121,0,0,1-4.46-.64,1.244,1.244,0,0,1-.68-1.1c0-1.12,1.24-2.06,4.16-3.14ZM239.4,25.08A4,4,0,0,0,237.04,23l-.32.28a8.038,8.038,0,0,1,1.34,2.52Zm-4.28.66a17.14,17.14,0,0,0-3.56-.3,16.562,16.562,0,0,0-7.58,1.34l.16.68a33.7,33.7,0,0,1,5.64-.46,18.806,18.806,0,0,1,5.34.64ZM223.84,33a6.354,6.354,0,0,0-1.08,3.38c0,1.62,1.16,2.94,3.18,3.62a18.725,18.725,0,0,0,5.18.58,43.022,43.022,0,0,0,5.8-.38V38.16a31.161,31.161,0,0,1-6.3.6c-4.56,0-6.74-1.04-6.74-3.22a5.073,5.073,0,0,1,.62-2.26Zm10.58-9.5a8.267,8.267,0,0,1,1.16,2.6l1.36-.64a3.992,3.992,0,0,0-2.16-2.22Zm19.92,6.94a10.965,10.965,0,0,0,1.36-1.86c.34-.06.52-.18.52-.36a.363.363,0,0,0-.26-.28l-1.5-.46a20.582,20.582,0,0,1-.96,2.96h-2.62a18.456,18.456,0,0,0,2.08-4.08h4.3a12.564,12.564,0,0,1-.8,2.18l.44.3a7.271,7.271,0,0,0,2.3-3.28h-5.94l.42-1.26c.38-.12.56-.26.56-.44,0-.2-.16-.32-.48-.38l-1.48-.28a18.034,18.034,0,0,1-.62,2.36h-2.18v-.3c0-.16,0-.24-.02-.5h-.66a4.832,4.832,0,0,1-1.56,3.08l1.08,1.38a4.658,4.658,0,0,0,1.12-2.86h1.96a21.791,21.791,0,0,1-3.94,6.96l.34.4a11.8,11.8,0,0,0,1.62-1.44V41.5h1.48v-1h7.5l.8.16V39.54l-.8.16h-3.18V37.18h2.14l.8.16V36.22l-.8.16h-2.14V34.2h2.14l.8.16V33.24l-.8.16h-2.14V31.24h2.86l.78.16V30.28l-.78.16ZM250.9,39.7V37.18h2.88V39.7Zm0-3.32V34.2h2.88v2.18Zm0-2.98V31.24h2.88V33.4Zm-7.16-3a25.9,25.9,0,0,0,1.36-5.2h2.2l.78.16V24.24l-.78.16h-5.58l-.8-.16v1.12l.8-.16h1.72a29.876,29.876,0,0,1-2.64,9.34l.34.48a13.184,13.184,0,0,0,1.44-2.08v7.72h1.44V39.12h3.3V30.4Zm.28.8h1.86v7.12h-1.86Zm32.6-6c-.12,2.22-.32,4.72-.5,5.88-.14.8-.32,1.02-.96,1.02H273.8v.84h2.16c1.16-.04,1.52-.34,1.72-1.42.18-.9.4-4.1.52-7.12h-9.26l-.8-.16v1.12l.8-.16h2.76a16.207,16.207,0,0,1-.28,2.42,23.981,23.981,0,0,0-2.52-.74l-.28.5c1.12.54,1.64.82,2.52,1.3a6.971,6.971,0,0,1-3.38,4.18l.26.5a6.965,6.965,0,0,0,4.36-3.92c.76.5,1.14.76,2.1,1.44l.88-1.48a23.369,23.369,0,0,0-2.56-1.26,20.261,20.261,0,0,0,.44-2.94ZM263.04,40.14h2.44v.76h1.38V35.14h-5.2v6h1.38Zm0-.74V35.88h2.44V39.4Zm7.62-4.9v5.08c-.02,1,.44,1.44,1.42,1.44h2.58c.96.02,1.36-.4,1.44-1.4l.14-2-.82-.1-.1,1.48c-.06.48-.2.62-.68.62h-1.82c-.5-.02-.66-.18-.68-.66V35.12c.24-.18.3-.26.3-.36,0-.18-.14-.26-.42-.26Zm-4.58-10.4h-3.64l-.78-.16V25.1l.78-.16h3.64l.78.16V23.94Zm.78,2.76H261.6l-.8-.16v1.16l.8-.16h5.26l.8.16V26.7Zm-.78,2.76h-3.64l-.78-.16v1.16l.78-.16h3.64l.78.16V29.46Zm0,2.76h-3.64l-.78-.16v1.16l.78-.16h3.64l.78.16V32.22Zm2.58,2.8a10.385,10.385,0,0,1-1.48,4.36l1.46,1a11.909,11.909,0,0,0,.8-4.62c0-.22,0-.36-.02-.62Zm3.8-1.7a21.24,21.24,0,0,1,1.68,2.68l1.32-1.18a10.15,10.15,0,0,0-2.64-1.88Zm3.64,1.84a22.99,22.99,0,0,1,1.6,4.54l1.5-1.08A12.464,12.464,0,0,0,276.6,35Zm14.12,5.04a11.539,11.539,0,0,0,5.5-2,7.076,7.076,0,0,0,2.88-5.86c0-4.4-3.26-7.3-8.24-7.3a9.185,9.185,0,0,0-6,1.98,8.189,8.189,0,0,0-2.94,6.38c0,3,1.38,5.18,3.26,5.18a3.483,3.483,0,0,0,2.52-1.38,12.264,12.264,0,0,0,2.22-3.86,32.55,32.55,0,0,0,1.7-7.26,5.391,5.391,0,0,1,3.08,1.02,6.124,6.124,0,0,1,2.46,5.1,6.977,6.977,0,0,1-3.42,6.06,11.692,11.692,0,0,1-3.18,1.32Zm-.86-14.16a37.628,37.628,0,0,1-.92,4.88c-1,3.8-2.56,6.62-3.68,6.62-.94,0-1.7-1.78-1.7-4.06A7.857,7.857,0,0,1,285,28.4,6.327,6.327,0,0,1,289.36,26.2Zm18.88,13.32h-6.6l-.84-.16v1.22l.84-.16h16.72l.84.16V39.36l-.84.16h-8.22V30.28h6.38l.84.16V29.22l-.84.16h-6.38V24.12c.26-.18.32-.26.32-.38,0-.2-.14-.28-.42-.28h-1.8ZM339.4,25.08A4,4,0,0,0,337.04,23l-.32.28a8.038,8.038,0,0,1,1.34,2.52Zm-4.28.66a17.14,17.14,0,0,0-3.56-.3,16.562,16.562,0,0,0-7.58,1.34l.16.68a33.7,33.7,0,0,1,5.64-.46,18.806,18.806,0,0,1,5.34.64ZM323.84,33a6.354,6.354,0,0,0-1.08,3.38c0,1.62,1.16,2.94,3.18,3.62a18.725,18.725,0,0,0,5.18.58,43.022,43.022,0,0,0,5.8-.38V38.16a31.162,31.162,0,0,1-6.3.6c-4.56,0-6.74-1.04-6.74-3.22a5.073,5.073,0,0,1,.62-2.26Zm10.58-9.5a8.266,8.266,0,0,1,1.16,2.6l1.36-.64a3.993,3.993,0,0,0-2.16-2.22Zm15.28,1.78h-7.34v3.44c0,7.56-.26,9.62-1.56,12.42l.46.28c2.4-3.04,2.74-4.62,2.78-12.7V26.08h14.1l.8.16V25.12l-.8.16h-6.62V23.86c.26-.18.32-.26.32-.4,0-.18-.14-.26-.42-.26H349.7Zm5.1,6a25.732,25.732,0,0,1,2.62,6.46l1.78-1.04a16.047,16.047,0,0,0-3.82-5.84Zm-.66-2.2a10.3,10.3,0,0,0-4.22-2.06l-.34.54a15.961,15.961,0,0,1,3.14,3.02Zm-8.06,10.54c.14-.42.24-.7.26-.78a25.683,25.683,0,0,0,.64-6.18c0-.34,0-.48-.02-.8l-.8-.08a20.587,20.587,0,0,1-1.86,7Zm2.66-9.52v9.1c0,1.26.5,1.76,1.8,1.78h3.22c1.18,0,1.68-.46,1.72-1.62l.14-2.84-.9-.1-.16,2.36c-.04.54-.2.68-.74.7H351.2c-.74-.04-.84-.14-.86-.82v-7.9c.26-.18.32-.26.32-.4,0-.18-.14-.26-.42-.26Zm19.66,7.2c-.84,1.88-2.82,3.1-6.14,3.76l.14.54c4.5-.5,6.9-1.84,7.66-4.3h3.9c-.28,2.96-.42,3.24-1.68,3.22h-1.6v.84h2.52c1.04,0,1.48-.2,1.84-.82.24-.46.36-1.3.58-4.04h-5.38c.06-.28.08-.48.16-1.1.26-.14.34-.24.34-.38,0-.18-.14-.26-.48-.28l-1.46-.04a11.191,11.191,0,0,1-.18,1.8h-3.18l-.8-.16v1.12l.8-.16Zm-2.36-10.44H363.4v5.16h3.68a13.227,13.227,0,0,1-.92,1.24h-4.44l-.8-.16v1.12l.8-.16h3.74a16.945,16.945,0,0,1-4.66,3.42l.28.48a14.46,14.46,0,0,0,6.22-3.9h6.1a9.262,9.262,0,0,0,5.22,3.86,7.882,7.882,0,0,1,.58-1.56,11.739,11.739,0,0,1-4.98-2.3h4.06l.8.16V33.1l-.8.16H367.96c.22-.26.58-.76.9-1.24h7.74V26.86h-2.8V25.6h4.36l.78.16V24.64l-.78.16H373.8v-.94c.26-.18.32-.26.32-.4,0-.18-.14-.26-.42-.26h-1.46v1.6H367.6v-.94c.26-.18.32-.26.32-.4,0-.18-.14-.26-.42-.26h-1.46v1.6h-4.2l-.78-.16v1.12l.78-.16h4.2Zm1.56,0V25.6h4.64v1.26Zm-2.64,4.36v-1.4h10.08v1.4Zm0-2.2V27.66h10.08v1.36Zm27.08-4.58a55.016,55.016,0,0,1-6.74,5.52c-1.38,1.04-1.78,1.44-1.78,1.84,0,.3.26.62.84,1a32.654,32.654,0,0,1,9,8.56l1.82-1.26a25.472,25.472,0,0,0-3.94-4.02,51.369,51.369,0,0,0-5.82-4c-.4-.22-.5-.3-.5-.38,0-.06.1-.14.46-.36a58.4,58.4,0,0,0,8.76-6.2c.4-.02.58-.14.58-.36,0-.14-.1-.26-.34-.44l-1.48-1Zm13.5,3.36a59.006,59.006,0,0,1-4.16,12.48l1.78.5a67.024,67.024,0,0,0,4.12-13.02h.18a49.386,49.386,0,0,0,6.44-.5l.06-1.38-1.38.58c-1.58.2-2.6.28-5.04.38h-.06v-.06c.06-.24.1-.46.16-.68.04-.22.16-.8.28-1.42.26-.18.38-.32.38-.48a.422.422,0,0,0-.36-.36l-1.76-.34-.04,1.24c-.18,1-.26,1.38-.42,2.16h-3.26l-1.26-.42.12,1.34c2.96,0,3.32,0,4-.02Zm13.86-2.72A3.95,3.95,0,0,0,417.04,23l-.32.28a8.078,8.078,0,0,1,1.34,2.52Zm-10.14,9.64a5.562,5.562,0,0,0-.68,2.62c0,2.32,1.92,3.38,6.16,3.38a22.108,22.108,0,0,0,3.44-.24V38.54a15.279,15.279,0,0,1-3.84.46q-4.74,0-4.74-2.28a5.7,5.7,0,0,1,.3-1.82Zm8.14-4.98a14.858,14.858,0,0,0-2.06-.14,10.76,10.76,0,0,0-5.46,1.26l.16.6a18.085,18.085,0,0,1,3.7-.32,13.97,13.97,0,0,1,3.66.4Zm-3.02-6.16a8.834,8.834,0,0,1,1.22,2.74l1.34-.64a3.9,3.9,0,0,0-2.2-2.36Zm15.96,3.8c-1.2.04-1.76.04-2.96.04-1.66,0-2.66-.04-3.96-.12l-1.18-.36.16,1.26c1.5.1,2.54.14,4.66.14,1.7,0,2.2,0,4.16-.06A53.6,53.6,0,0,0,433.86,33a12.978,12.978,0,0,0-4.86-.92,7.706,7.706,0,0,0-4.68,1.38,3.549,3.549,0,0,0-1.24,2.7c0,2.94,2.98,4.56,8.44,4.56a19.473,19.473,0,0,0,3.4-.26V38.52a13.164,13.164,0,0,1-3.78.48,14.143,14.143,0,0,1-5.3-.86,2.409,2.409,0,0,1-1.48-2.16,2.318,2.318,0,0,1,.68-1.64,5.759,5.759,0,0,1,4-1.28,11.949,11.949,0,0,1,4.98,1.08,5.273,5.273,0,0,1,1.4.96l1.44-.8a38.783,38.783,0,0,1-3.74-6.04l-.02-.04.1-.02a30.658,30.658,0,0,0,4.74-.44l.02-1.36-1.18.54c-1.78.22-2.74.3-3.78.34h-.38c-.4-.8-.7-1.44-1.4-3,.18-.2.24-.32.24-.44,0-.22-.18-.34-.5-.34h-2l.64,1.2c.6,1.38.78,1.78,1.18,2.66Zm18.32,8.22c-.46,1.82-1.08,3.04-1.56,3.04-.46,0-1.18-.94-1.74-2.22-.74-1.76-1.12-4.58-1.12-8.56V26.58c.34-.24.44-.36.44-.56s-.2-.34-.5-.36l-1.8-.12.1,1.2c.02,2.58.04,3.96.04,4.14a18.829,18.829,0,0,0,1.2,6.3c.86,2.08,1.94,3.18,3.08,3.18,1.12,0,2.1-1.6,2.74-4.48Zm10.32.16c-.66-3.88-2.64-7.48-5.12-9.34l-.5.38a24.36,24.36,0,0,1,3.7,9.82Zm5-.42a3.13,3.13,0,1,0,3.08,3.12A3.133,3.133,0,0,0,463.98,35.34Zm-.08.92a2.21,2.21,0,1,1-2.18,2.2A2.211,2.211,0,0,1,463.9,36.26Z" transform="translate(405 2444.999)" fill="#111"/>
    <g id="icon" transform="translate(922 2441)">
      <circle id="楕円形_28" data-name="楕円形 28" cx="22.5" cy="22.5" r="22.5" transform="translate(-11 -6.001)" fill="#111"/>
      <path id="_ー" data-name="ー" d="M-4.98-5.573v2.829H20.126V-5.573Z" transform="translate(3.831 20.779)" fill="#fff"/>
    </g>
  </g>
</svg>
