<svg xmlns="http://www.w3.org/2000/svg" width="1280" height="56" viewBox="0 0 1280 56">
  <g id="グループ_1197" data-name="グループ 1197" transform="translate(-160 -2397)">
    <rect id="長方形_241" data-name="長方形 241" width="1280" height="56" transform="translate(160 2397)" fill="#fff"/>
    <path id="パス_57284" data-name="パス 57284" d="M-337.806-6.02A7.149,7.149,0,0,0-340-4.97a3.375,3.375,0,0,0-1.554,2.758A3.037,3.037,0,0,0-338.268.7a1.956,1.956,0,0,0,1.232-.364,1.715,1.715,0,0,0,.406-1.26V-5.586a9.911,9.911,0,0,1,1.54-.126,4.454,4.454,0,0,1,2.282.49,2.637,2.637,0,0,1,1.274,2.366,2.407,2.407,0,0,1-2.38,2.562,2.764,2.764,0,0,1-1.316-.35l-.21.392a2.813,2.813,0,0,0,1.946.686,3.111,3.111,0,0,0,3.234-3.206,3.347,3.347,0,0,0-1.666-2.968,6.109,6.109,0,0,0-3.136-.658,9.175,9.175,0,0,0-1.568.126V-8.638c1.344-.07,2.982-.224,3.724-.35l.056-1.036-.854.434a18.94,18.94,0,0,1-2.926.308V-10.99c.21-.14.28-.224.28-.35s-.126-.224-.294-.238l-1.274-.1.112.868V-9.24c-.336.014-.56.014-.784.014-.686,0-1.134-.014-1.862-.07l-.84-.28.084.91c1.162.07,1.708.084,2.534.084.364,0,.588,0,.868-.014Zm0,4.984c0,.7-.182.952-.672.952a2.087,2.087,0,0,1-2-2.17,2.727,2.727,0,0,1,.77-1.834,4.65,4.65,0,0,1,1.9-1.2Zm5.334-9.548a8.307,8.307,0,0,1,1.75,2.786l1.162-.658a4.632,4.632,0,0,0-2.688-2.352Zm10.99.8V-11.3c.182-.126.224-.182.224-.28,0-.126-.1-.182-.294-.182h-1.092v1.974h-4.774v8.4h1.176v-1.19h3.6v3.7h1.162v-3.7h3.724V-1.5h1.176V-9.786Zm0,.56h3.724v2.66h-3.724Zm0,3.22h3.724v2.87h-3.724Zm-1.162,2.87h-3.6v-2.87h3.6Zm0-3.43h-3.6v-2.66h3.6Zm10.92,5.67c.812,1.078,1.61,1.442,3.444,1.54.728.042,2.492.084,3.864.084.588,0,1.4-.014,2.506-.028a9,9,0,0,1,.336-1.106c-.91.056-3.22.112-4.956.112a11.858,11.858,0,0,1-3.85-.322,2.475,2.475,0,0,1-.952-.644V-6.44H-313.8l-.56-.112v.784l.56-.112h1.344V-1.2a15.326,15.326,0,0,1-1.988.756l.448,1.218a.242.242,0,0,0,.2.154c.14,0,.252-.154.322-.462a13.958,13.958,0,0,0,1.708-1.33Zm3.276-10.332-.56-.112v.812l.56-.112h2.282c.014.378.014.546.028.728-.714,3.71-2.212,6.4-4.508,8.12l.182.336a9.112,9.112,0,0,0,4.676-5.726A9.1,9.1,0,0,0-302.33-1.6c.35-.6.406-.686.756-1.246a8.131,8.131,0,0,1-3.22-3.864,11.943,11.943,0,0,1-.728-4.522Zm-2.366.966a6.426,6.426,0,0,0-2.8-1.036l-.168.35A9.806,9.806,0,0,1-311.584-9ZM-294-11.368l-.42.434c-.84.07-1.442.1-3.01.126l-.882-.294.084.924c.49.014.854.028,1.092.028.7,0,1.61-.042,2.744-.14-.574,1.778-.868,2.59-1.414,4.046a6.459,6.459,0,0,0-1.708.28,3.357,3.357,0,0,0-2.562,3.192,1.88,1.88,0,0,0,1.652,2.1,2.258,2.258,0,0,0,1.792-1.218,20.493,20.493,0,0,0,1.75-3.626,13.462,13.462,0,0,1,4.144.868c-.518,2.562-1.442,3.948-3.388,5.082l.182.35a5.762,5.762,0,0,0,3.038-1.918,6.91,6.91,0,0,0,1.3-3.052c.686.322.966.462,1.638.84l.406-.952a13.88,13.88,0,0,0-1.862-.826c.1-.588.14-.868.21-1.526.182-.112.252-.21.252-.322s-.112-.21-.322-.252l-1.148-.266.014.6c-.07.714-.084.784-.168,1.4a19.518,19.518,0,0,0-4.032-.728c.63-1.652.812-2.156,1.414-3.906.28-.168.392-.308.392-.462a.365.365,0,0,0-.21-.294ZM-296.254-5.1c-1.19,2.786-1.694,3.584-2.282,3.584-.392,0-.714-.49-.714-1.106A2.822,2.822,0,0,1-297.738-5a4.113,4.113,0,0,1,1.652-.476ZM-277.69-7.84l.1,4.466a7.63,7.63,0,0,0-1.974-.28c-1.554,0-2.6.812-2.6,2.016a1.843,1.843,0,0,0,.49,1.246A3.684,3.684,0,0,0-279.1.5,2.721,2.721,0,0,0-276.71-.518a2.473,2.473,0,0,0,.308-1.288V-1.89a8.512,8.512,0,0,1,2.058,1.512l.77-1.036a9.705,9.705,0,0,0-2.842-1.652l-.1-4.816c.784-.042,1.876-.154,2.618-.266l.056-1.022-.91.42a16.284,16.284,0,0,1-1.778.21l-.042-2.086c.182-.126.252-.238.252-.364a.258.258,0,0,0-.252-.238l-1.288-.084.112.714.042,2.128c-.742.028-1.33.042-1.82.042-.42,0-1.05-.014-1.876-.042l-.84-.266.1.91c.924.028,1.344.042,1.988.042.49,0,.49,0,2.422-.056ZM-277.55-2v.084a1.986,1.986,0,0,1-.224.854,1.813,1.813,0,0,1-1.568.616,3.063,3.063,0,0,1-1.764-.518.888.888,0,0,1-.364-.728c0-.714.672-1.162,1.722-1.162a5.169,5.169,0,0,1,2.184.49ZM-283.668.28a32.884,32.884,0,0,1-.378-4.886,46.622,46.622,0,0,1,.434-5.782c.21-.14.28-.238.28-.35,0-.154-.126-.266-.336-.294l-1.176-.2v.728a52.546,52.546,0,0,0-.406,6.2,34.706,34.706,0,0,0,.308,4.8Zm15.4-.168a8.417,8.417,0,0,0-3.906-2.674l-.266.336a12.5,12.5,0,0,1,3.024,3.346ZM-252.21-10.3h-5.138V-7.9c0,5.292-.182,6.734-1.092,8.694l.322.2c1.68-2.128,1.918-3.234,1.946-8.89V-9.744h9.87l.56.112v-.784l-.56.112h-4.634V-11.3c.182-.126.224-.182.224-.28,0-.126-.1-.182-.294-.182h-1.2Zm3.57,4.2a18.012,18.012,0,0,1,1.834,4.522l1.246-.728A11.233,11.233,0,0,0-248.234-6.4Zm-.462-1.54a7.209,7.209,0,0,0-2.954-1.442l-.238.378a11.172,11.172,0,0,1,2.2,2.114Zm-5.642,7.378c.1-.294.168-.49.182-.546a17.978,17.978,0,0,0,.448-4.326c0-.238,0-.336-.014-.56l-.56-.056a14.411,14.411,0,0,1-1.3,4.9Zm1.862-6.664V-.56c0,.882.35,1.232,1.26,1.246h2.254c.826,0,1.176-.322,1.2-1.134l.1-1.988-.63-.07-.112,1.652c-.028.378-.14.476-.518.49h-1.834c-.518-.028-.588-.1-.6-.574v-5.53c.182-.126.224-.182.224-.28,0-.126-.1-.182-.294-.182Zm13.762,5.04c-.588,1.316-1.974,2.17-4.3,2.632l.1.378c3.15-.35,4.83-1.288,5.362-3.01h2.73c-.2,2.072-.294,2.268-1.176,2.254h-1.12V.952h1.764c.728,0,1.036-.14,1.288-.574a9.43,9.43,0,0,0,.406-2.828h-3.766c.042-.2.056-.336.112-.77.182-.1.238-.168.238-.266,0-.126-.1-.182-.336-.2l-1.022-.028a7.835,7.835,0,0,1-.126,1.26h-2.226l-.56-.112v.784l.56-.112ZM-240.772-9.2h-1.848v3.612h2.576a9.261,9.261,0,0,1-.644.868H-243.8l-.56-.112v.784l.56-.112h2.618a11.862,11.862,0,0,1-3.262,2.394l.2.336a10.122,10.122,0,0,0,4.354-2.73h4.27a6.483,6.483,0,0,0,3.654,2.7,5.518,5.518,0,0,1,.406-1.092,8.217,8.217,0,0,1-3.486-1.61h2.842l.56.112V-4.83l-.56.112h-7.224c.154-.182.406-.532.63-.868h5.418V-9.2h-1.96v-.882h3.052l.546.112v-.784l-.546.112h-3.052V-11.3c.182-.126.224-.182.224-.28,0-.126-.1-.182-.294-.182h-1.022v1.12h-3.248V-11.3c.182-.126.224-.182.224-.28,0-.126-.1-.182-.294-.182h-1.022v1.12h-2.94l-.546-.112v.784l.546-.112h2.94Zm1.092,0v-.882h3.248V-9.2Zm-1.848,3.052v-.98h7.056v.98Zm0-1.54v-.952h7.056v.952Zm13.79,7.812a11.083,11.083,0,0,0,5.446-2.492,11.611,11.611,0,0,0,3.514-7.616H-228.4l-.616-.126v.9l.616-.126h8.092A10.449,10.449,0,0,1-227.892-.35Zm17.724-5.474a15.813,15.813,0,0,1-4.718,5.04l.154.294a11.827,11.827,0,0,0,5.348-4.508l.112,3.962v.2c0,.364-.14.518-.5.518H-210.9V.8h2.044c.63,0,.91-.266.924-.924l-.14-5.222h1.778l.616.126v-.9l-.616.126h-1.792l-.056-1.862c.168-.126.224-.21.224-.308,0-.126-.112-.2-.322-.21l-1.176-.042.1.854.042,1.568H-213.6l-.616-.126v.9l.616-.126Zm19.95-.308-11.69-.434v1.47l11.69-.42Zm14.35,5.222a12.864,12.864,0,0,0-4.382-6.02l-.294.252a20.982,20.982,0,0,1,2.184,3.612c-2.674.392-4.424.574-7.042.742l.168-.308a64.9,64.9,0,0,0,3.5-7.98c.266-.112.378-.21.378-.364,0-.126-.1-.224-.294-.28l-1.386-.434-.14.812a73.593,73.593,0,0,1-2.87,8.148l-.2.476h-.084c-.378.028-.728.042-1.9.1l.448,1.218c.112.266.2.364.336.364s.252-.084.378-.336a60.909,60.909,0,0,0,8.974-1.624,21.941,21.941,0,0,1,.9,2.422ZM-167.5-1.89h1.148V-4.27c.952-.294,1.876-.532,3.71-.952a1.661,1.661,0,0,0,.42.07.251.251,0,0,0,.28-.252.618.618,0,0,0-.1-.266l-.5-.84-.588.266c-.658.2-1.134.336-1.344.406l-1.848.616-.042.014A2.064,2.064,0,0,0-166.8-6.58a2.038,2.038,0,0,0-1.442-.532,4.583,4.583,0,0,0-2.45.714c.518-.77.84-1.274,1.554-2.506h.742c1.82-.014,2.73-.056,4.494-.21l.14-1.022-1.064.42c-1.708.126-2.044.14-3.906.168h-.056l.644-1.148c.378-.126.448-.182.448-.322,0-.112-.1-.2-.294-.266l-1.106-.378-.2.616c-.406.812-.574,1.162-.77,1.512-.784-.014-1.358-.028-2.52-.07l-.868-.35.07.966c1.428.056,1.75.07,2.968.084a36.744,36.744,0,0,1-3.262,4.62l.882.77,1.232-1.61a4.533,4.533,0,0,1,3-1.3.826.826,0,0,1,.938.672,3.728,3.728,0,0,1,.126.98,15.372,15.372,0,0,0-1.792.8c-1.456.784-2.1,1.54-2.1,2.492A1.746,1.746,0,0,0-170.436.07,8.67,8.67,0,0,0-166.6.658,24,24,0,0,0-163.562.49V-.77a17.118,17.118,0,0,1-3.248.308,7.785,7.785,0,0,1-3.122-.448.871.871,0,0,1-.476-.77c0-.784.868-1.442,2.912-2.2Zm10.864-9.338-.588-.112v.882l.588-.112h2.436c.028.616.042.8.07,1.316a21.4,21.4,0,0,1-1.6,3.85A16.988,16.988,0,0,1-160.44.532l.21.406A12.866,12.866,0,0,0-156.254-2.3a17.112,17.112,0,0,0,2.59-4.368A13.023,13.023,0,0,0-148.54.8a9.9,9.9,0,0,1,.98-1.3,12.672,12.672,0,0,1-4.494-4.648,11.42,11.42,0,0,1-1.47-6.076Zm14.77,2.73a17.712,17.712,0,0,1-.8,4.522A8.413,8.413,0,0,1-146.44.518l.21.448a8.366,8.366,0,0,0,4.55-4.116A15.055,15.055,0,0,0-140.588-8.5h4.788c-.07,2.156-.336,6.02-.476,6.972C-136.4-.182-136.64.14-137.48.126h-1.862V.784h2.52c1.19.014,1.694-.462,1.82-1.736.154-.98.476-6.146.532-8.134h-6.09c.042-.476.056-.924.056-1.386V-11.3c.168-.126.224-.182.224-.28,0-.126-.1-.182-.294-.182h-1.218v1.288c0,.336-.014.826-.042,1.386h-3.7l-.546-.112v.812l.546-.112Zm17.794-1.162v-1.3c.21-.14.28-.224.28-.35s-.112-.224-.28-.238l-1.274-.1.112.868v1.148l-.462.014c-1.4.028-1.848.042-2.338.042-.616,0-2.856-.042-3.5-.056l-.77-.294.056.882c.728.07,2.38.112,4.13.112.63,0,1.078-.014,2.408-.042l.476-.014V-6.86a2.284,2.284,0,0,0-1.638-.658,2.726,2.726,0,0,0-2.744,2.8,2.351,2.351,0,0,0,.588,1.666,2.733,2.733,0,0,0,1.932.812,2.6,2.6,0,0,0,1.806-.714c-.336,1.96-1.68,3.15-4.018,3.528l.084.434a6.592,6.592,0,0,0,3.374-1.022c1.274-.91,1.778-2.044,1.778-4v-5h.182a37.938,37.938,0,0,0,4.158-.238l.042-.938-.826.336c-1.344.112-2.226.168-3.332.2Zm-1.162,5.8a1.938,1.938,0,0,1-1.582.91,1.659,1.659,0,0,1-1.6-1.848,1.835,1.835,0,0,1,1.736-2,1.736,1.736,0,0,1,1.442.77Zm16.548-6.216c.406-.07.574-.182.574-.378a.394.394,0,0,0-.252-.336l-.952-.5-.406.392c-1.484.1-1.96.112-5.18.154l-.868-.322.112.994c2.562-.014,4.074-.056,5.46-.14l-7.28,6.132.686.826,1.806-1.512a8.863,8.863,0,0,1,3.92-.98c1.918,0,3.08.9,3.08,2.38a2.692,2.692,0,0,1-.9,2,3.112,3.112,0,0,1-1.246.742A4.567,4.567,0,0,0-111.16-2.2a3.443,3.443,0,0,0-2.394-1.064c-1.106,0-1.876.63-1.876,1.54,0,1.3,1.722,2.324,3.92,2.324,2.7,0,4.83-1.708,4.83-3.878,0-1.932-1.652-3.164-4.242-3.164a7.346,7.346,0,0,0-2.646.476ZM-110.95-.406a2.223,2.223,0,0,1-.616.056,5.037,5.037,0,0,1-2.394-.56,1,1,0,0,1-.63-.868c0-.434.392-.728.994-.728a3.015,3.015,0,0,1,2.688,2.1Zm9.828-8.134A41.3,41.3,0,0,1-104.034.2l1.246.35A46.917,46.917,0,0,0-99.9-8.568h.126a34.571,34.571,0,0,0,4.508-.35l.042-.966-.966.406c-1.106.14-1.82.2-3.528.266h-.042v-.042c.042-.168.07-.322.112-.476s.112-.56.2-.994c.182-.126.266-.224.266-.336a.3.3,0,0,0-.252-.252l-1.232-.238-.028.868c-.126.7-.182.966-.294,1.512h-2.282l-.882-.294.084.938c2.072,0,2.324,0,2.8-.014Zm9.7-1.9A2.765,2.765,0,0,0-93.072-11.9l-.224.2a5.655,5.655,0,0,1,.938,1.764Zm-7.1,6.748a3.893,3.893,0,0,0-.476,1.834C-98.994-.238-97.65.5-94.682.5A15.475,15.475,0,0,0-92.274.336V-1.022A10.7,10.7,0,0,1-94.962-.7q-3.318,0-3.318-1.6a3.99,3.99,0,0,1,.21-1.274Zm5.7-3.486a10.4,10.4,0,0,0-1.442-.1,7.532,7.532,0,0,0-3.822.882l.112.42a12.66,12.66,0,0,1,2.59-.224,9.779,9.779,0,0,1,2.562.28Zm-2.114-4.312a6.184,6.184,0,0,1,.854,1.918l.938-.448a2.731,2.731,0,0,0-1.54-1.652Zm14.882,3.878.042-.014a16.407,16.407,0,0,0,2.24-.252l.084-.9-.854.322c-.588.084-.994.126-1.512.168V-10.71c.2-.126.28-.224.28-.35s-.112-.224-.28-.238l-1.33-.084.112.812v2.352c-.2.014-1.582.042-2.086.042-.658,0-1.12-.014-2.044-.07l-.644-.238.084.882c.644.056,1.176.07,2.114.07s2.1-.014,2.576-.028v2.352c-.014,2.352-.406,3.472-1.582,4.494A5.572,5.572,0,0,1-85.176.434l.1.42a6.176,6.176,0,0,0,2.786-.9c1.708-1.092,2.254-2.324,2.24-5.1ZM-87.514-.644A20.141,20.141,0,0,1-88-5.53a32.41,32.41,0,0,1,.35-4.788c.2-.1.266-.182.266-.322s-.112-.224-.364-.252l-1.2-.154.056.8a46.006,46.006,0,0,0-.322,4.886,23.084,23.084,0,0,0,.476,4.928Zm23.9-5.992a2.8,2.8,0,0,0-1.652-1.456l-.224.21a5.42,5.42,0,0,1,.938,1.75Zm-3.528-1.05a6.059,6.059,0,0,1,.854,1.932l.938-.448a2.753,2.753,0,0,0-1.54-1.666Zm-8.946-2.632.1.966,8.5-.336a.267.267,0,0,1-.112.042,7.444,7.444,0,0,0-2.212,1.162,4.756,4.756,0,0,0-2,3.92,4.444,4.444,0,0,0,1.708,3.64A6.29,6.29,0,0,0-66.892.364l.532-1.456a5.123,5.123,0,0,1-2.884-.952,3.3,3.3,0,0,1-1.372-2.842c0-1.918,1.106-3.4,3.192-4.27a8.2,8.2,0,0,1,3-.616l.07-.98-.924.336-10,.35ZM-53.8-4.032h3.332l.546.112V-4.7l-.546.112H-61.516l-.56-.112v.784l.56-.112h3.08c-.126,2.436-1.428,3.948-4,4.648l.154.434c3.276-.476,4.984-2.184,5.11-5.082h2.2v3.36c.028,1.078.35,1.344,1.666,1.358H-51.2c.952,0,1.344-.35,1.456-1.3L-49.56-2.2l-.63-.112-.154,1.33c-.07.434-.21.574-.644.574h-2.156c-.518-.028-.658-.14-.658-.56Zm-2.9-6.132h-3.878v-.154a1.427,1.427,0,0,0-.07-.462h-.476A3.741,3.741,0,0,1-62.44-8.442l.882,1.05A3.021,3.021,0,0,0-60.606-9.6H-51.2a9.8,9.8,0,0,1-.644,1.568l.336.252a5.163,5.163,0,0,0,1.946-2.38h-5.866V-11.3c.182-.126.224-.182.224-.28,0-.126-.1-.182-.294-.182h-1.2Zm-3.01,3.192h7.392l.56.112v-.784l-.56.112H-59.71l-.56-.112v.784Zm18.4-.294a18.2,18.2,0,0,0,5.292-3.654H-47.544l-.56-.112v.812l.56-.112H-38.6a26.857,26.857,0,0,1-2.856,2.59l-1.19-.252v7.63c0,.476-.2.672-.672.672h-1.708V.966h2.436c.882.014,1.274-.392,1.274-1.3Zm19.7.63a2.8,2.8,0,0,0-1.652-1.456l-.224.21a5.42,5.42,0,0,1,.938,1.75Zm-3.528-1.05a6.059,6.059,0,0,1,.854,1.932l.938-.448a2.753,2.753,0,0,0-1.54-1.666Zm-8.946-2.632.1.966,8.5-.336a.267.267,0,0,1-.112.042,7.444,7.444,0,0,0-2.212,1.162,4.756,4.756,0,0,0-2,3.92,4.444,4.444,0,0,0,1.708,3.64A6.29,6.29,0,0,0-24.892.364l.532-1.456a5.123,5.123,0,0,1-2.884-.952,3.3,3.3,0,0,1-1.372-2.842c0-1.918,1.106-3.4,3.192-4.27a8.2,8.2,0,0,1,3-.616l.07-.98-.924.336-10,.35Zm22.022.658v-1.3c.21-.14.28-.224.28-.35s-.112-.224-.28-.238l-1.274-.1.112.868v1.148l-.462.014c-1.4.028-1.848.042-2.338.042-.616,0-2.856-.042-3.5-.056l-.77-.294.056.882c.728.07,2.38.112,4.13.112.63,0,1.078-.014,2.408-.042l.476-.014V-6.86a2.284,2.284,0,0,0-1.638-.658,2.726,2.726,0,0,0-2.744,2.8,2.351,2.351,0,0,0,.588,1.666,2.733,2.733,0,0,0,1.932.812,2.6,2.6,0,0,0,1.806-.714C-13.622-.994-14.966.2-17.3.574l.084.434A6.592,6.592,0,0,0-13.846-.014c1.274-.91,1.778-2.044,1.778-4v-5h.182a37.938,37.938,0,0,0,4.158-.238l.042-.938-.826.336c-1.344.112-2.226.168-3.332.2Zm-1.162,5.8a1.938,1.938,0,0,1-1.582.91,1.659,1.659,0,0,1-1.6-1.848,1.835,1.835,0,0,1,1.736-2,1.736,1.736,0,0,1,1.442.77Zm9.016.6A2.193,2.193,0,0,0-6.44-1.092a2.2,2.2,0,0,0,2.2,2.212,2.2,2.2,0,0,0,2.184-2.2A2.209,2.209,0,0,0-4.214-3.262Zm-.056.644A1.548,1.548,0,0,1-2.7-1.092,1.551,1.551,0,0,1-4.242.476,1.559,1.559,0,0,1-5.8-1.078,1.56,1.56,0,0,1-4.27-2.618ZM13.79-10.3H8.652V-7.9C8.652-2.6,8.47-1.162,7.56.8l.322.2C9.562-1.134,9.8-2.24,9.828-7.9V-9.744H19.7l.56.112v-.784l-.56.112H15.064V-11.3c.182-.126.224-.182.224-.28,0-.126-.1-.182-.294-.182h-1.2Zm3.57,4.2a18.012,18.012,0,0,1,1.834,4.522L20.44-2.31A11.233,11.233,0,0,0,17.766-6.4ZM16.9-7.644a7.209,7.209,0,0,0-2.954-1.442l-.238.378a11.173,11.173,0,0,1,2.2,2.114ZM11.256-.266c.1-.294.168-.49.182-.546a17.978,17.978,0,0,0,.448-4.326c0-.238,0-.336-.014-.56l-.56-.056a14.411,14.411,0,0,1-1.3,4.9ZM13.118-6.93V-.56c0,.882.35,1.232,1.26,1.246h2.254c.826,0,1.176-.322,1.2-1.134l.1-1.988-.63-.07L17.192-.854c-.028.378-.14.476-.518.49H14.84c-.518-.028-.588-.1-.6-.574v-5.53c.182-.126.224-.182.224-.28,0-.126-.1-.182-.294-.182ZM26.88-1.89C26.292-.574,24.906.28,22.582.742l.1.378c3.15-.35,4.83-1.288,5.362-3.01h2.73C30.576.182,30.478.378,29.6.364h-1.12V.952H30.24c.728,0,1.036-.14,1.288-.574a9.43,9.43,0,0,0,.406-2.828H28.168c.042-.2.056-.336.112-.77.182-.1.238-.168.238-.266,0-.126-.1-.182-.336-.2L27.16-3.71a7.836,7.836,0,0,1-.126,1.26H24.808l-.56-.112v.784l.56-.112ZM25.228-9.2H23.38v3.612h2.576a9.262,9.262,0,0,1-.644.868H22.2l-.56-.112v.784l.56-.112h2.618A11.862,11.862,0,0,1,21.56-1.764l.2.336a10.122,10.122,0,0,0,4.354-2.73h4.27a6.483,6.483,0,0,0,3.654,2.7,5.518,5.518,0,0,1,.406-1.092,8.217,8.217,0,0,1-3.486-1.61H33.8l.56.112V-4.83l-.56.112H26.572c.154-.182.406-.532.63-.868H32.62V-9.2H30.66v-.882h3.052l.546.112v-.784l-.546.112H30.66V-11.3c.182-.126.224-.182.224-.28,0-.126-.1-.182-.294-.182H29.568v1.12H26.32V-11.3c.182-.126.224-.182.224-.28,0-.126-.1-.182-.294-.182H25.228v1.12h-2.94l-.546-.112v.784l.546-.112h2.94Zm1.092,0v-.882h3.248V-9.2ZM24.472-6.146v-.98h7.056v.98Zm0-1.54v-.952h7.056v.952ZM41.426,1.12h1.12v-4A9.154,9.154,0,0,0,47.922.574,6.019,6.019,0,0,1,48.44-.574,10.664,10.664,0,0,1,42.672-3.36h4.676l.56.112v-.784l-.56.112h-4.8V-5.026c.182-.126.224-.182.224-.28,0-.126-.1-.182-.294-.182h-1.05V-3.92H36.652l-.56-.112v.784l.56-.112h4.256A14.074,14.074,0,0,1,35.56.252l.1.392a12.7,12.7,0,0,0,5.768-2.982ZM40.348-10.4c.182-.2.322-.35.56-.644.294-.07.434-.168.434-.294,0-.084-.1-.168-.238-.2L39.97-11.76a13.716,13.716,0,0,1-4.13,4.144l.224.364A11.4,11.4,0,0,0,39.48-9.534a6.866,6.866,0,0,0,1.834,2.226A21.4,21.4,0,0,1,35.56-5.054l.112.42a22.223,22.223,0,0,0,6.5-2.1,17.642,17.642,0,0,0,5.67,1.82,5.226,5.226,0,0,1,.6-1.134,18.551,18.551,0,0,1-5.334-1.218,13.176,13.176,0,0,0,3.5-3.136Zm-.532.56H44.7a13.825,13.825,0,0,1-2.618,2.086A5.882,5.882,0,0,1,39.8-9.842ZM51.422,1.036h1.106V-8.5c.294-.728.518-1.316.868-2.394.252-.042.364-.14.364-.28a.252.252,0,0,0-.224-.238l-1.2-.35a29.014,29.014,0,0,1-2.772,7.6l.322.238a15.832,15.832,0,0,0,1.54-2.268Zm3.836-9.59c.126-.322.224-.6.5-1.414.266-.07.392-.182.392-.35,0-.126-.112-.21-.294-.252l-1.092-.238A16.954,16.954,0,0,1,53-5.712l.35.224A10.148,10.148,0,0,0,55.02-7.994h2.422v3.71H53.76L53.214-4.4v.784l.546-.112h3.682V1.05h1.176V-3.724H61.88l.56.112V-4.4l-.56.112H58.618v-3.71h2.814l.56.112v-.784l-.56.112H58.618v-2.674c.182-.126.224-.182.224-.266,0-.14-.1-.2-.294-.2H57.442v3.136ZM66,1.12a13.052,13.052,0,0,0,5.488-2.45,11.82,11.82,0,0,0,4.242,2.352,11.985,11.985,0,0,1,.714-1.3,11.386,11.386,0,0,1-4.088-1.848,12.68,12.68,0,0,0,2.884-5.278H71.792l.966-3.668H64.652l-.56-.112v.784l.56-.112h1.974v.028a25.023,25.023,0,0,1-.77,6.5,9.995,9.995,0,0,1-2.3,3.976L63.8.364a8.513,8.513,0,0,0,2.926-3.556A13.928,13.928,0,0,0,67.718-7.7a12.74,12.74,0,0,0,3.01,5.642A13.258,13.258,0,0,1,65.87.686Zm1.848-11.634h3.542L70.21-6.076h1.232l.21-.77h2.03a11,11,0,0,1-2.2,3.99A13.156,13.156,0,0,1,67.8-8.988c.028-.812.042-1.3.042-1.5Zm13.8.42-2.842.056L77.8-10.374l.112,1.008,3.192-.07c-.1.112-.294.35-.5.6A8.313,8.313,0,0,0,78.554-3.6,5.011,5.011,0,0,0,79.66-.336,4.117,4.117,0,0,0,82.782.91,4.323,4.323,0,0,0,86.7-1.218a6.659,6.659,0,0,0,.714-3.262,20.257,20.257,0,0,0-.728-4.732l.084-.028a14.641,14.641,0,0,0,2.87,5.264l.7-1.47a12.971,12.971,0,0,1-3.556-4.942l-.868.224a28.063,28.063,0,0,1,.406,4.8,8.088,8.088,0,0,1-.77,3.962,3.207,3.207,0,0,1-2.8,1.624,2.8,2.8,0,0,1-1.89-.686A4,4,0,0,1,79.828-3.4,7.107,7.107,0,0,1,81.186-7.56a9.474,9.474,0,0,1,1.5-1.806c.49-.1.63-.182.63-.378a.275.275,0,0,0-.126-.238l-1.064-.672Zm8.932-.35A2.8,2.8,0,0,0,88.956-11.9l-.238.2a5.208,5.208,0,0,1,.924,1.764Zm-3.4-1.106a5.3,5.3,0,0,1,.77,1.806l.952-.406a2.8,2.8,0,0,0-1.47-1.568Zm13.16,3.332h3.29l.56.112V-8.89l-.56.112h-7.7l-.546-.112v.784l.546-.112h3.206v3.542H96.446l-.56-.112V-4l.56-.112h2.688V.056H95.34l-.56-.112V.728l.56-.112h8.54l.56.112V-.056l-.56.112h-3.542V-4.116h2.688l.56.112v-.784l-.56.112h-2.688ZM97.9-11.424a11.309,11.309,0,0,1,2.114,2.338L101.15-10a8.766,8.766,0,0,0-2.926-1.764ZM95.41-10.276a8.728,8.728,0,0,0-2.716-1.148l-.2.378a12.766,12.766,0,0,1,2.044,1.932Zm-.91,5.5A35.1,35.1,0,0,1,91.8-.126l.882.812a.392.392,0,0,0,.266.126A.317.317,0,0,0,93.226.5V.49L93.184.252a28.614,28.614,0,0,0,1.722-4.886Zm.084-1.89A7.677,7.677,0,0,0,91.77-7.812l-.21.378a10.674,10.674,0,0,1,2.128,2Zm20.538-3.4h1.848l.56.112v-.784l-.56.112h-4.4V-11.3c.182-.126.224-.182.224-.28,0-.126-.1-.182-.294-.182h-1.176v1.134h-4.3l-.56-.112v.784l.56-.112h1.82a15.026,15.026,0,0,1,.434,1.652v.042h-3l-.546-.112V-7.7l.546-.112h11.424l.546.112v-.784l-.546.112h-3.724a7,7,0,0,0,1.12-1.652Zm-1.26,0c-.168.714-.28,1.134-.448,1.652l-.014.042h-3.892l1.022-.518a5.085,5.085,0,0,0-1.106-1.176Zm-6.58,6.986h9.436V-6.86h-9.436Zm8.316-.56h-7.2V-4.718h7.2Zm0-1.638h-7.2V-6.3h7.2ZM109.06-2.562V-.28c.028.8.42,1.036,1.75,1.078h2.982c.924,0,1.316-.364,1.386-1.316l.07-1.022-.56-.042-.056.8c-.056.392-.28.56-.8.56H111.1c-.658-.014-.9-.126-.9-.434V-2.1c.182-.126.224-.182.224-.28,0-.126-.1-.182-.294-.182Zm6.692.448A15.471,15.471,0,0,1,117.18.546l1.19-.714a7.251,7.251,0,0,0-2.226-2.2Zm-8.946,2.7a6.543,6.543,0,0,0,.952-2.856l-.518-.126a5.9,5.9,0,0,1-1.61,2.282Zm4.452-3.108a8.434,8.434,0,0,1,1.274,1.68l1.008-.854a6.154,6.154,0,0,0-1.988-1.078ZM130.97-3.738V-5.572h-4.536V-6.608h4.326V-9.072h-4.326v-1.036H131.8l.56.112v-.784l-.56.112h-5.362v-.63c.182-.126.224-.182.224-.28,0-.126-.1-.182-.294-.182h-1.05v1.092H120.2l-.56-.112V-10l.56-.112h5.11v1.036h-4.2v2.464h4.2v1.036H121.3l-.56-.112V-4.9l.56-.112h4.018v1.274h-5.208l-.546-.112v.784l.546-.112h5.208V-1.82H121.3l-.56-.112v.784l.56-.112h4.018V-.1c-.014.462-.154.616-.616.63H123.48V1.12h1.778c.84,0,1.19-.336,1.176-1.092V-1.26h3.416V-.7h1.12V-3.178h.924l.546.112V-3.85l-.546.112ZM129.85-1.82h-3.416V-3.178h3.416Zm0-1.918h-3.416V-5.012h3.416Zm-3.416-4.774h3.206v1.344h-3.206Zm-1.12,0v1.344h-3.08V-8.512Zm11.34-.784h1.33l.56.112v-.784l-.56.112H134.2l-.56-.112v.784l.56-.112h1.33V-2.7c-.49.126-.938.224-1.974.406l.364,1.106c.056.14.154.252.252.252s.182-.1.252-.322a20.386,20.386,0,0,0,4.228-1.932l-.1-.35c-.868.266-1.232.378-1.9.56Zm4.69.434H139.3v7.07h6.132v-7.07H142a11.4,11.4,0,0,0,.966-1.75H145.8l.56.112v-.784l-.56.112h-6.72l-.56-.112v.784l.56-.112h2.562c-.056.476-.14.98-.21,1.344l-.042.2Zm-.952,2.086V-8.3h3.92v1.526Zm0,.56h3.92v1.54h-3.92Zm0,2.1h3.92v1.764h-3.92ZM137.074,1.12a12.541,12.541,0,0,0,3.962-1.526h.1c.252,0,.448-.112.448-.252a.387.387,0,0,0-.14-.252l-.868-.7a10.866,10.866,0,0,1-3.64,2.324Zm5.908-2.184a21.627,21.627,0,0,1,2.73,2.114L146.44,0a12.609,12.609,0,0,0-3.206-1.442ZM154.5-1.89h1.148V-4.27c.952-.294,1.876-.532,3.71-.952a1.661,1.661,0,0,0,.42.07.251.251,0,0,0,.28-.252.618.618,0,0,0-.1-.266l-.5-.84-.588.266c-.658.2-1.134.336-1.344.406l-1.848.616-.042.014A2.064,2.064,0,0,0,155.2-6.58a2.038,2.038,0,0,0-1.442-.532,4.583,4.583,0,0,0-2.45.714c.518-.77.84-1.274,1.554-2.506h.742c1.82-.014,2.73-.056,4.494-.21l.14-1.022-1.064.42c-1.708.126-2.044.14-3.906.168h-.056l.644-1.148c.378-.126.448-.182.448-.322,0-.112-.1-.2-.294-.266l-1.106-.378-.2.616c-.406.812-.574,1.162-.77,1.512-.784-.014-1.358-.028-2.52-.07l-.868-.35.07.966c1.428.056,1.75.07,2.968.084a36.744,36.744,0,0,1-3.262,4.62l.882.77,1.232-1.61a4.533,4.533,0,0,1,3-1.3.826.826,0,0,1,.938.672,3.728,3.728,0,0,1,.126.98,15.372,15.372,0,0,0-1.792.8c-1.456.784-2.1,1.54-2.1,2.492A1.746,1.746,0,0,0,151.564.07,8.67,8.67,0,0,0,155.4.658,24,24,0,0,0,158.438.49V-.77a17.118,17.118,0,0,1-3.248.308,7.785,7.785,0,0,1-3.122-.448.871.871,0,0,1-.476-.77c0-.784.868-1.442,2.912-2.2Zm20.076-8.554a2.8,2.8,0,0,0-1.652-1.456l-.224.2a5.627,5.627,0,0,1,.938,1.764Zm-3,.462a12,12,0,0,0-2.492-.21,11.594,11.594,0,0,0-5.306.938l.112.476a23.587,23.587,0,0,1,3.948-.322,13.164,13.164,0,0,1,3.738.448Zm-7.9,5.082a4.448,4.448,0,0,0-.756,2.366A2.8,2.8,0,0,0,165.158,0a13.108,13.108,0,0,0,3.626.406,30.115,30.115,0,0,0,4.06-.266V-1.288a21.813,21.813,0,0,1-4.41.42c-3.192,0-4.718-.728-4.718-2.254A3.551,3.551,0,0,1,164.15-4.7Zm7.406-6.65a5.787,5.787,0,0,1,.812,1.82l.952-.448a2.8,2.8,0,0,0-1.512-1.554Zm13.944,4.858a7.675,7.675,0,0,0,.952-1.3c.238-.042.364-.126.364-.252a.254.254,0,0,0-.182-.2l-1.05-.322a14.406,14.406,0,0,1-.672,2.072h-1.834a12.919,12.919,0,0,0,1.456-2.856h3.01a8.793,8.793,0,0,1-.56,1.526l.308.21a5.09,5.09,0,0,0,1.61-2.3h-4.158l.294-.882c.266-.084.392-.182.392-.308s-.112-.224-.336-.266l-1.036-.2a12.624,12.624,0,0,1-.434,1.652h-1.526v-.21c0-.112,0-.168-.014-.35h-.462a3.382,3.382,0,0,1-1.092,2.156l.756.966a3.261,3.261,0,0,0,.784-2h1.372a15.253,15.253,0,0,1-2.758,4.872l.238.28A8.26,8.26,0,0,0,181.594-5.4V1.05h1.036V.35h5.25l.56.112V-.322l-.56.112h-2.226V-1.974h1.5l.56.112v-.784l-.56.112h-1.5V-4.06h1.5l.56.112v-.784l-.56.112h-1.5V-6.132h2l.546.112V-6.8l-.546.112ZM182.63-.21V-1.974h2.016V-.21Zm0-2.324V-4.06h2.016v1.526Zm0-2.086V-6.132h2.016V-4.62Zm-5.012-2.1a18.13,18.13,0,0,0,.952-3.64h1.54l.546.112v-.784l-.546.112H176.2l-.56-.112v.784l.56-.112h1.2a20.913,20.913,0,0,1-1.848,6.538l.238.336a9.228,9.228,0,0,0,1.008-1.456v5.4h1.008V-.616h2.31v-6.1Zm.2.56h1.3v4.984h-1.3Zm22.82-4.2c-.084,1.554-.224,3.3-.35,4.116-.1.56-.224.714-.672.714h-.952v.588h1.512c.812-.028,1.064-.238,1.2-.994.126-.63.28-2.87.364-4.984h-6.482l-.56-.112v.784l.56-.112h1.932a11.345,11.345,0,0,1-.2,1.694,16.787,16.787,0,0,0-1.764-.518l-.2.35c.784.378,1.148.574,1.764.91A4.88,4.88,0,0,1,194.432-5l.182.35a4.875,4.875,0,0,0,3.052-2.744c.532.35.8.532,1.47,1.008l.616-1.036A16.361,16.361,0,0,0,197.96-8.3a14.185,14.185,0,0,0,.308-2.058ZM191.128.1h1.708V.63h.966V-3.4h-3.64V.8h.966Zm0-.518V-2.884h1.708V-.42Zm5.334-3.43V-.294c-.014.7.308,1.008.994,1.008h1.806c.672.014.952-.28,1.008-.98l.1-1.4-.574-.07L199.724-.7c-.042.336-.14.434-.476.434h-1.274c-.35-.014-.462-.126-.476-.462V-3.416c.168-.126.21-.182.21-.252,0-.126-.1-.182-.294-.182Zm-3.206-7.28h-2.548l-.546-.112v.812l.546-.112h2.548l.546.112v-.812ZM193.8-9.2H190.12l-.56-.112V-8.5l.56-.112H193.8l.56.112V-9.31Zm-.546,1.932h-2.548l-.546-.112v.812l.546-.112h2.548l.546.112v-.812Zm0,1.932h-2.548l-.546-.112v.812l.546-.112h2.548l.546.112v-.812Zm1.806,1.96a7.269,7.269,0,0,1-1.036,3.052l1.022.7a8.336,8.336,0,0,0,.56-3.234c0-.154,0-.252-.014-.434Zm2.66-1.19A14.867,14.867,0,0,1,198.9-2.688l.924-.826a7.105,7.105,0,0,0-1.848-1.316Zm2.548,1.288A16.092,16.092,0,0,1,201.39-.1l1.05-.756A8.724,8.724,0,0,0,200.62-3.5ZM210.154.252a8.077,8.077,0,0,0,3.85-1.4,4.953,4.953,0,0,0,2.016-4.1c0-3.08-2.282-5.11-5.768-5.11a6.43,6.43,0,0,0-4.2,1.386,5.732,5.732,0,0,0-2.058,4.466c0,2.1.966,3.626,2.282,3.626a2.438,2.438,0,0,0,1.764-.966,8.584,8.584,0,0,0,1.554-2.7,22.785,22.785,0,0,0,1.19-5.082,3.774,3.774,0,0,1,2.156.714,4.287,4.287,0,0,1,1.722,3.57,4.884,4.884,0,0,1-2.394,4.242,8.185,8.185,0,0,1-2.226.924Zm-.6-9.912a26.342,26.342,0,0,1-.644,3.416c-.7,2.66-1.792,4.634-2.576,4.634-.658,0-1.19-1.246-1.19-2.842A5.5,5.5,0,0,1,206.5-8.12,4.429,4.429,0,0,1,209.552-9.66ZM222.768-.336h-4.62l-.588-.112V.406l.588-.112h11.7l.588.112V-.448l-.588.112H224.1V-6.8h4.466l.588.112v-.854l-.588.112H224.1v-3.682c.182-.126.224-.182.224-.266,0-.14-.1-.2-.294-.2h-1.26ZM244.58-10.444a2.8,2.8,0,0,0-1.652-1.456l-.224.2a5.627,5.627,0,0,1,.938,1.764Zm-3,.462a12,12,0,0,0-2.492-.21,11.594,11.594,0,0,0-5.306.938l.112.476a23.587,23.587,0,0,1,3.948-.322,13.164,13.164,0,0,1,3.738.448Zm-7.9,5.082a4.448,4.448,0,0,0-.756,2.366A2.8,2.8,0,0,0,235.158,0a13.108,13.108,0,0,0,3.626.406,30.115,30.115,0,0,0,4.06-.266V-1.288a21.813,21.813,0,0,1-4.41.42c-3.192,0-4.718-.728-4.718-2.254A3.551,3.551,0,0,1,234.15-4.7Zm7.406-6.65a5.787,5.787,0,0,1,.812,1.82l.952-.448a2.8,2.8,0,0,0-1.512-1.554Zm10.7,1.246h-5.138V-7.9c0,5.292-.182,6.734-1.092,8.694l.322.2c1.68-2.128,1.918-3.234,1.946-8.89V-9.744h9.87l.56.112v-.784l-.56.112h-4.634V-11.3c.182-.126.224-.182.224-.28,0-.126-.1-.182-.294-.182h-1.2Zm3.57,4.2a18.012,18.012,0,0,1,1.834,4.522l1.246-.728A11.233,11.233,0,0,0,255.766-6.4Zm-.462-1.54a7.209,7.209,0,0,0-2.954-1.442l-.238.378a11.172,11.172,0,0,1,2.2,2.114ZM249.256-.266c.1-.294.168-.49.182-.546a17.978,17.978,0,0,0,.448-4.326c0-.238,0-.336-.014-.56l-.56-.056a14.411,14.411,0,0,1-1.3,4.9Zm1.862-6.664V-.56c0,.882.35,1.232,1.26,1.246h2.254c.826,0,1.176-.322,1.2-1.134l.1-1.988-.63-.07-.112,1.652c-.028.378-.14.476-.518.49H252.84c-.518-.028-.588-.1-.6-.574v-5.53c.182-.126.224-.182.224-.28,0-.126-.1-.182-.294-.182ZM264.88-1.89c-.588,1.316-1.974,2.17-4.3,2.632l.1.378c3.15-.35,4.83-1.288,5.362-3.01h2.73c-.2,2.072-.294,2.268-1.176,2.254h-1.12V.952h1.764c.728,0,1.036-.14,1.288-.574a9.43,9.43,0,0,0,.406-2.828h-3.766c.042-.2.056-.336.112-.77.182-.1.238-.168.238-.266,0-.126-.1-.182-.336-.2L265.16-3.71a7.837,7.837,0,0,1-.126,1.26h-2.226l-.56-.112v.784l.56-.112ZM263.228-9.2H261.38v3.612h2.576a9.263,9.263,0,0,1-.644.868H260.2l-.56-.112v.784l.56-.112h2.618a11.862,11.862,0,0,1-3.262,2.394l.2.336a10.122,10.122,0,0,0,4.354-2.73h4.27a6.483,6.483,0,0,0,3.654,2.7,5.518,5.518,0,0,1,.406-1.092,8.217,8.217,0,0,1-3.486-1.61H271.8l.56.112V-4.83l-.56.112h-7.224c.154-.182.406-.532.63-.868h5.418V-9.2h-1.96v-.882h3.052l.546.112v-.784l-.546.112H268.66V-11.3c.182-.126.224-.182.224-.28,0-.126-.1-.182-.294-.182h-1.022v1.12H264.32V-11.3c.182-.126.224-.182.224-.28,0-.126-.1-.182-.294-.182h-1.022v1.12h-2.94l-.546-.112v.784l.546-.112h2.94Zm1.092,0v-.882h3.248V-9.2Zm-1.848,3.052v-.98h7.056v.98Zm0-1.54v-.952h7.056v.952Zm18.956-3.206a38.512,38.512,0,0,1-4.718,3.864c-.966.728-1.246,1.008-1.246,1.288,0,.21.182.434.588.7a22.858,22.858,0,0,1,6.3,5.992L283.626.07a17.831,17.831,0,0,0-2.758-2.814,35.959,35.959,0,0,0-4.074-2.8c-.28-.154-.35-.21-.35-.266s.07-.1.322-.252A40.879,40.879,0,0,0,282.9-10.4c.28-.014.406-.1.406-.252,0-.1-.07-.182-.238-.308l-1.036-.7Zm9.45,2.352A41.3,41.3,0,0,1,287.966.2l1.246.35A46.919,46.919,0,0,0,292.1-8.568h.126a34.571,34.571,0,0,0,4.508-.35l.042-.966-.966.406c-1.106.14-1.82.2-3.528.266h-.042v-.042c.042-.168.07-.322.112-.476s.112-.56.2-.994c.182-.126.266-.224.266-.336a.3.3,0,0,0-.252-.252l-1.232-.238-.028.868c-.126.7-.182.966-.294,1.512h-2.282l-.882-.294.084.938c2.072,0,2.324,0,2.8-.014Zm9.7-1.9a2.765,2.765,0,0,0-1.652-1.456l-.224.2a5.655,5.655,0,0,1,.938,1.764Zm-7.1,6.748a3.893,3.893,0,0,0-.476,1.834C293.006-.238,294.35.5,297.318.5a15.476,15.476,0,0,0,2.408-.168V-1.022a10.7,10.7,0,0,1-2.688.322q-3.318,0-3.318-1.6a3.99,3.99,0,0,1,.21-1.274Zm5.7-3.486a10.4,10.4,0,0,0-1.442-.1,7.532,7.532,0,0,0-3.822.882l.112.42a12.66,12.66,0,0,1,2.59-.224,9.779,9.779,0,0,1,2.562.28Zm-2.114-4.312a6.184,6.184,0,0,1,.854,1.918l.938-.448a2.731,2.731,0,0,0-1.54-1.652Zm11.172,2.66c-.84.028-1.232.028-2.072.028-1.162,0-1.862-.028-2.772-.084l-.826-.252.112.882c1.05.07,1.778.1,3.262.1,1.19,0,1.54,0,2.912-.042A37.514,37.514,0,0,0,310.7-4.9a9.085,9.085,0,0,0-3.4-.644,5.394,5.394,0,0,0-3.276.966,2.485,2.485,0,0,0-.868,1.89C303.156-.63,305.242.5,309.064.5a13.631,13.631,0,0,0,2.38-.182V-1.036A9.215,9.215,0,0,1,308.8-.7a9.9,9.9,0,0,1-3.71-.6,1.686,1.686,0,0,1-1.036-1.512,1.623,1.623,0,0,1,.476-1.148,4.031,4.031,0,0,1,2.8-.9,8.364,8.364,0,0,1,3.486.756,3.692,3.692,0,0,1,.98.672l1.008-.56a27.148,27.148,0,0,1-2.618-4.228l-.014-.028.07-.014a21.461,21.461,0,0,0,3.318-.308l.014-.952-.826.378c-1.246.154-1.918.21-2.646.238h-.266c-.28-.56-.49-1.008-.98-2.1.126-.14.168-.224.168-.308,0-.154-.126-.238-.35-.238h-1.4l.448.84c.42.966.546,1.246.826,1.862ZM321.062-3.08c-.322,1.274-.756,2.128-1.092,2.128s-.826-.658-1.218-1.554a16.593,16.593,0,0,1-.784-5.992v-.9c.238-.168.308-.252.308-.392s-.14-.238-.35-.252l-1.26-.084.07.84c.014,1.806.028,2.772.028,2.9a13.18,13.18,0,0,0,.84,4.41c.6,1.456,1.358,2.226,2.156,2.226s1.47-1.12,1.918-3.136Zm7.224.112A10.611,10.611,0,0,0,324.7-9.506l-.35.266a17.052,17.052,0,0,1,2.59,6.874Zm3.5-.294a2.193,2.193,0,0,0-2.226,2.17,2.2,2.2,0,0,0,2.2,2.212,2.2,2.2,0,0,0,2.184-2.2A2.209,2.209,0,0,0,331.786-3.262Zm-.056.644A1.548,1.548,0,0,1,333.3-1.092a1.551,1.551,0,0,1-1.54,1.568A1.559,1.559,0,0,1,330.2-1.078,1.56,1.56,0,0,1,331.73-2.618Z" transform="translate(800 2432)" fill="#111"/>
    <g id="icon">
      <circle id="楕円形_28" data-name="楕円形 28" cx="9" cy="9" r="9" transform="translate(1397 2418)" fill="#111"/>
      <path id="_ー" data-name="ー" d="M-4.98-5.573v1.127h10V-5.573Z" transform="translate(1405.98 2432.02)" fill="#fff"/>
    </g>
  </g>
</svg>
