<svg xmlns="http://www.w3.org/2000/svg" width="549.38" height="47.003" viewBox="0 0 549.38 47.003">
  <path id="tit06" d="M548.129,36.136l2.1-.4v3.2l-2.1-.4h-19.1v8.651h-5.3V38.536h-18.4l-2.1.4v-3.2l2.1.4h18.4v-4.55H508.576v-19.5h15.151v-4.3h-16.7l-2.1.4v-3.2l2.1.4h16.7V.184h5.051c.7,0,1.05.2,1.05.7,0,.35-.15.55-.8,1.05v3.45h17.4l2.1-.4v3.2l-2.1-.4h-17.4v4.3h15.851v19.5H529.028v4.55Zm-24.4-21.651h-9.85v5.95h9.85Zm0,8.35h-9.85v6.351h9.85Zm15.851-8.35h-10.55v5.95h10.55Zm0,14.7V22.835h-10.55v6.351Zm-60.2-16.051V24.086h14.651v22.3h-5.751v-2.45h-22.9v2.6h-5.751V24.086h13.8V13.135h-18.1l-2.1.4v-3.4l2.1.4h18.1V.384h5.7c.7,0,1.05.25,1.05.7,0,.35-.15.6-.8,1.05v8.4h18.751l2.1-.4v3.4l-2.1-.4Zm-14,13.551V41.337h22.9V26.686Zm-23.249,4.6h-12.7V46.837h-5.751V31.286h-12.35v3.4h-5.751V9.935h18.1V.484h5.5c.7,0,1.05.2,1.05.7,0,.35-.15.6-.8,1.05v7.7h18.451v24.3h-5.751ZM423.677,12.335h-12.35V28.886h12.35Zm18.451,0h-12.7V28.886h12.7Zm-51.3,28.1c2.25,0,3.151,0,9.4-.05a26.5,26.5,0,0,0-2.05,5.4c-11.351,0-16.3-.2-19.5-.65-7.151-1.1-10.651-3.75-13.9-10.651-2.75,6.4-5.951,10.351-10.251,12.651l-1.3-1.55c4.95-5.6,7.751-13.351,8.5-23.5l5.65,1c.9.15,1.25.45,1.25.95s-.4.9-1.3,1.4a40.591,40.591,0,0,1-1.75,6.85,14.7,14.7,0,0,0,8.85,7v-21.1h-14.6l-2.1.4v-2.65a4.086,4.086,0,0,0-.4.45l-4.1-4.55a13.294,13.294,0,0,0,4.75-8h2.4a9.15,9.15,0,0,1,.25,2.15h12.85V.184h5.751c.75,0,1.1.2,1.1.7,0,.35-.15.6-.85,1.05v4.05h20.751c-1.75,4-3.9,6.5-8.151,9.351l-1.6-1a43.461,43.461,0,0,0,2.551-5.95h-32.4c-.3,3.35-.951,5.3-2.5,7.05l1.7.35h34.153l2.05-.4v3.2l-2.05-.4H379.928v9.2h12.05l2.1-.4v3.2l-2.1-.4h-12.05V40.137C381.878,40.337,385.678,40.437,390.828,40.437Zm-48.95-9.1,1.751-1.05a29.183,29.183,0,0,1,6.6,9.7l-4.6,3.3A67.184,67.184,0,0,0,341.878,31.336Zm-.1-6.25h-5.55v-2.6h3.3c1.45,0,1.9-.5,2.2-2.25.4-2.1.85-7.6,1.251-14.8h-7.751v.25a51.934,51.934,0,0,1-1.05,6.8,45.78,45.78,0,0,1,6.2,3l-3,4.65c-2.15-1.7-3.1-2.35-4.6-3.4-2,4.35-5.55,7.351-11.051,9.451l-.9-1.6a17.988,17.988,0,0,0,8.1-10.351c-2.2-1.3-3.451-1.95-6-3.2l.95-1.8c2.55.65,3.751.95,5.851,1.6a45.43,45.43,0,0,0,.7-5.4h-6.4l-2.1.4v-3.2l2.1.4h24.052c-.4,9.451-.9,15.4-1.45,18.351C346.129,24.086,344.929,24.986,341.778,25.086Zm-36.452-13.1-2.1.4v-3.4l2.1.4h13.351l2.1-.4v3.4l-2.1-.4Zm2.05-7-2.1.4v-3.4l2.1.4h9.5l2.1-.4v3.4l-2.1-.4Zm-24.349,1.7h-5.34v33.12h5.7v2.88h-18.66v-2.88h5.7V6.687h-5.4l-3,8.04h-3.9V3.807h31.86v10.92h-3.9Zm-47.16,20.46-7.98,12.66h4.44v2.88h-13.26v-2.88h4.62l10.32-15.96-9.78-17.16h-4.68V3.807h11.34l7.74,13.68,7.08-10.8h-4.8V3.807h13.32v2.88h-4.56l-9.12,14.1,10.8,19.02h4.68v2.88h-11.28Zm-50.58,12.66h4.68V6.687h-4.68V3.807h30.48v10.92h-4.2l-3.06-8.04h-11.28v13.98h6.24v-4.68h3.6v12.36h-3.6v-4.68h-6.24v16.14h11.82l3-8.04h4.2v10.92h-30.96Zm-6.84,2.88h-4.44l-18.72-29.58v26.7h4.5v2.88h-12.48v-2.88h4.68V6.687h-4.68V3.807h10.74l17.1,26.76V6.687h-4.62V3.807h12.6v2.88h-4.68Zm-67.8-2.88h5.82V6.687h-5.82V3.807h18.9v2.88h-5.82v33.12h5.82v2.88h-18.9Zm-6.84,2.88h-4.44l-18.72-29.58v26.7h4.5v2.88H72.668v-2.88h4.68V6.687h-4.68V3.807h10.74l17.1,26.76V6.687h-4.62V3.807h12.6v2.88h-4.68Zm-52.8-2.88h5.82V6.687h-5.82V3.807h18.9v2.88h-5.82v33.12h5.82v2.88h-18.9Zm-19.2,0h4.5V12.987l-11.46,26.82h-3.72l-12.3-26.76v26.76h4.44v2.88H.849v-2.88h4.68V6.687H.849V3.807h11.58l12.54,27.42,11.7-27.42h11.58v2.88h-4.68v33.12h4.68v2.88H31.809ZM316.877,16.385l2.1-.4v3.4l-2.1-.4h-9.5l-2.1.4v-3.4l2.1.4Zm0,7,2.1-.4v3.4l-2.1-.4h-9.5l-2.1.4v-3.4l2.1.4Zm2.1,22.151h-4.25v-1.9h-5.2v2.5h-4.25V30.386h13.7Zm-4.25-12.751h-5.2v8.451h5.2Zm10.8-1.95c.1,1.25.1,1.85.1,2.7a31.14,31.14,0,0,1-1.75,11.351l-4.35-3a29.262,29.262,0,0,0,3.55-11.351Zm7.351-4.2,1.2-1.4a22.071,22.071,0,0,1,7.15,4.6l-4.05,3.7A47.341,47.341,0,0,0,332.878,26.636Zm.7,3c0,.3-.15.45-.7.9v9.5c.05,1.05.4,1.45,1.45,1.45h4c1.05-.05,1.35-.3,1.45-1.4l.25-3.651,2.35.25-.3,5.251c-.15,2.8-1.3,3.9-4.05,3.9h-5.85c-2.7,0-3.9-1.15-3.85-3.8V28.986h4.25C333.228,28.986,333.578,29.186,333.578,29.636Z" transform="translate(-0.849 -0.184)" fill="#262626" fill-rule="evenodd"/>
</svg>
